<?xml version="1.0" encoding="iso-8859-1"?>
<!-- Generator: Adobe Illustrator 15.1.0, SVG Export Plug-In . SVG Version: 6.00 Build 0)  -->
<!DOCTYPE svg PUBLIC "-//W3C//DTD SVG 1.1//EN" "http://www.w3.org/Graphics/SVG/1.1/DTD/svg11.dtd">
<svg version="1.1" id="Layer_1" xmlns="http://www.w3.org/2000/svg" xmlns:xlink="http://www.w3.org/1999/xlink" x="0px" y="0px"
	 width="50px" height="50px" viewBox="0 0 50 50" style="enable-background:new 0 0 50 50;" xml:space="preserve">
<g>
	<defs>
		<rect id="SVGID_1_" width="50" height="50"/>
	</defs>
	<clipPath id="SVGID_2_">
		<use xlink:href="#SVGID_1_"  style="overflow:visible;"/>
	</clipPath>
	<path style="clip-path:url(#SVGID_2_);fill:#FFFFFF;" d="M14.982,7.131L14.4,6.483c-0.117,0.107-0.238,0.224-0.355,0.337
		c-0.106,0.102-0.215,0.207-0.323,0.306l0.596,0.601C14.507,7.517,14.73,7.317,14.982,7.131"/>
	<path style="clip-path:url(#SVGID_2_);fill:#FFFFFF;" d="M20.706,3.875l-0.272-0.858c-0.041,0.014-0.083,0.028-0.124,0.042
		c-0.273,0.089-0.515,0.17-0.761,0.271l0.346,0.797C20.131,4.031,20.397,3.947,20.706,3.875"/>
	<path style="clip-path:url(#SVGID_2_);fill:#FFFFFF;" d="M16.602,5.89c0.014-0.009,0.027-0.017,0.04-0.024l-0.464-0.753
		c-0.154,0.098-0.303,0.214-0.461,0.335c-0.08,0.061-0.164,0.125-0.25,0.188l0.53,0.675C16.204,6.141,16.414,6.008,16.602,5.89"/>
	<path style="clip-path:url(#SVGID_2_);fill:#FFFFFF;" d="M12.102,10.495l-0.758-0.485c-0.191,0.263-0.353,0.541-0.504,0.808
		l0.76,0.441C11.725,11.002,11.911,10.746,12.102,10.495"/>
	<path style="clip-path:url(#SVGID_2_);fill:#FFFFFF;" d="M18.633,4.674l-0.391-0.82c-0.302,0.138-0.604,0.301-0.838,0.434
		l0.452,0.796C18.1,4.945,18.35,4.805,18.633,4.674"/>
	<path style="clip-path:url(#SVGID_2_);fill:#FFFFFF;" d="M13.371,8.773l-0.652-0.58c-0.096,0.123-0.19,0.24-0.282,0.357
		c-0.094,0.119-0.189,0.237-0.285,0.362l0.686,0.502C12.982,9.188,13.162,8.972,13.371,8.773"/>
	<path style="clip-path:url(#SVGID_2_);fill:#FFFFFF;" d="M10.984,12.455l-0.802-0.363c-0.157,0.291-0.282,0.602-0.401,0.906
		L10.6,13.32C10.701,13.059,10.825,12.752,10.984,12.455"/>
	<path style="clip-path:url(#SVGID_2_);fill:#FFFFFF;" d="M9.449,19.879c0.007-0.157,0.004-0.318,0.002-0.475
		c-0.003-0.125-0.005-0.252-0.002-0.378l-0.898-0.018c-0.008,0.262,0,0.576,0.021,0.908L9.449,19.879z"/>
	<path style="clip-path:url(#SVGID_2_);fill:#FFFFFF;" d="M10.148,14.638l-0.835-0.283c-0.104,0.29-0.18,0.597-0.253,0.896
		l0.866,0.197C9.995,15.133,10.068,14.862,10.148,14.638"/>
	<path style="clip-path:url(#SVGID_2_);fill:#FFFFFF;" d="M9.67,16.844l-0.891-0.16c-0.051,0.262-0.074,0.515-0.099,0.782
		c-0.002,0.039-0.006,0.079-0.01,0.119l0.902,0.116C9.587,17.475,9.616,17.151,9.67,16.844"/>
	<path style="clip-path:url(#SVGID_2_);fill:#FFFFFF;" d="M42.096,19.334c0.002,0.137,0.004,0.275,0,0.412l0.883,0.02
		c-0.01-0.162-0.008-0.327-0.006-0.487c0.001-0.138,0.003-0.283-0.003-0.422l-0.872,0.038
		C42.093,19.039,42.094,19.189,42.096,19.334"/>
	<path style="clip-path:url(#SVGID_2_);fill:#FFFFFF;" d="M41.98,17.5l0.834-0.092l-0.001-0.01
		c-0.027-0.289-0.056-0.587-0.116-0.892l-0.856,0.137C41.903,16.926,41.951,17.193,41.98,17.5"/>
	<path style="clip-path:url(#SVGID_2_);fill:#FFFFFF;" d="M41.582,15.328l0.858-0.238c-0.067-0.287-0.16-0.584-0.242-0.851
		l-0.02-0.064l-0.829,0.293C41.417,14.779,41.501,15.057,41.582,15.328"/>
	<path style="clip-path:url(#SVGID_2_);fill:#FFFFFF;" d="M27.257,3.098l0.101-0.862c-0.156-0.014-0.308-0.026-0.459-0.038
		c-0.148-0.011-0.297-0.022-0.454-0.037l-0.019,0.892c0.211,0.014,0.426,0.024,0.639,0.035L27.257,3.098z"/>
	<path style="clip-path:url(#SVGID_2_);fill:#FFFFFF;" d="M40.879,13.214l0.833-0.332l-0.374-0.858l-0.811,0.384
		C40.664,12.664,40.785,12.943,40.879,13.214"/>
	<path style="clip-path:url(#SVGID_2_);fill:#FFFFFF;" d="M29.715,2.545c-0.143-0.029-0.289-0.055-0.434-0.078
		c-0.166-0.027-0.337-0.057-0.504-0.092l-0.16,0.888c0.297,0.071,0.574,0.127,0.898,0.164L29.715,2.545z"/>
	<path style="clip-path:url(#SVGID_2_);fill:#FFFFFF;" d="M39.931,11.208l0.772-0.404c-0.18-0.325-0.328-0.575-0.487-0.818
		l-0.749,0.462C39.641,10.709,39.788,10.963,39.931,11.208"/>
	<path style="clip-path:url(#SVGID_2_);fill:#FFFFFF;" d="M37.801,7.094c-0.199-0.221-0.406-0.443-0.646-0.641l-0.599,0.672
		c0.211,0.177,0.426,0.362,0.627,0.574L37.801,7.094z"/>
	<path style="clip-path:url(#SVGID_2_);fill:#FFFFFF;" d="M39.72,27.727c-0.075,0.13-0.151,0.261-0.226,0.385l0.771,0.495
		c0.17-0.22,0.322-0.487,0.443-0.769l-0.787-0.457C39.855,27.492,39.787,27.609,39.72,27.727"/>
	<path style="clip-path:url(#SVGID_2_);fill:#FFFFFF;" d="M38.183,29.934l0.664,0.591l0.59-0.774l-0.695-0.509
		C38.543,29.506,38.357,29.73,38.183,29.934"/>
	<path style="clip-path:url(#SVGID_2_);fill:#FFFFFF;" d="M34.055,4.267c-0.269-0.149-0.545-0.304-0.828-0.425l-0.365,0.802
		c0.243,0.106,0.5,0.249,0.748,0.394L34.055,4.267z"/>
	<path style="clip-path:url(#SVGID_2_);fill:#FFFFFF;" d="M31.641,4.105l0.322-0.818c-0.145-0.051-0.293-0.098-0.438-0.143
		c-0.147-0.045-0.3-0.093-0.45-0.146l-0.277,0.835c0.114,0.041,0.242,0.079,0.373,0.12C31.324,4,31.482,4.048,31.641,4.105"/>
	<path style="clip-path:url(#SVGID_2_);fill:#FFFFFF;" d="M36.004,5.497C35.735,5.28,35.49,5.105,35.26,4.965l-0.486,0.758
		c0.262,0.162,0.484,0.34,0.699,0.517L36.004,5.497z"/>
	<path style="clip-path:url(#SVGID_2_);fill:#FFFFFF;" d="M42.814,21.281c0.004-0.037,0.007-0.074,0.011-0.111l-0.853-0.1
		c-0.014,0.227-0.044,0.552-0.099,0.863l0.841,0.139C42.768,21.806,42.791,21.551,42.814,21.281"/>
	<path style="clip-path:url(#SVGID_2_);fill:#FFFFFF;" d="M22.039,3c0.643,0,1.186,0.455,1.314,1.072l0.565-0.061
		C23.912,3.7,24.015,3.4,24.212,3.153c0.197-0.247,0.469-0.469,0.775-0.532L24.923,2h-0.022c-0.641,0-1.186-0.394-1.313-1.012
		l-0.565,0.091c0.01,0.641-0.44,1.215-1.068,1.345L22.018,3H22.039z M22.969,2.514c0.136-0.127,0.252-0.271,0.346-0.433l0.086-0.147
		l0.116,0.125c0.127,0.137,0.272,0.252,0.432,0.346l0.147,0.086l-0.125,0.116c-0.135,0.126-0.251,0.271-0.346,0.432l-0.086,0.147
		l-0.115-0.125c-0.127-0.136-0.273-0.252-0.433-0.346l-0.146-0.086L22.969,2.514z"/>
	<path style="clip-path:url(#SVGID_2_);fill:#FFFFFF;" d="M37.76,8.741c0.405,0.056,0.727,0.378,0.783,0.784h0.293
		c0.024-0.175,0.105-0.327,0.213-0.457l0.293-0.24c0.087-0.043,0.18-0.073,0.279-0.087V8.448c-0.406-0.057-0.729-0.379-0.785-0.784
		h-0.293c-0.057,0.405-0.378,0.727-0.783,0.784V8.741z M38.342,8.493c0.094-0.069,0.176-0.153,0.246-0.247l0.102-0.137l0.036,0.049
		l-0.501,0.45l-0.02-0.014L38.342,8.493z"/>
	<path style="clip-path:url(#SVGID_2_);fill:#FFFFFF;" d="M41.44,25.719c0.167-0.343,0.515-0.564,0.903-0.564
		c0.066,0,0.133,0.006,0.198,0.02l0.111-0.33c-0.199-0.096-0.36-0.256-0.46-0.458c-0.101-0.202-0.129-0.426-0.086-0.644
		l-0.328-0.111c-0.166,0.343-0.515,0.564-0.904,0.564c-0.066,0-0.133-0.006-0.197-0.019l-0.111,0.33
		c0.199,0.097,0.36,0.256,0.46,0.457c0.101,0.203,0.129,0.428,0.085,0.645L41.44,25.719z M41.285,24.458
		c0.124-0.04,0.242-0.099,0.349-0.173l0.14-0.097l0.053,0.162c0.041,0.125,0.099,0.242,0.172,0.349l0.099,0.141l-0.163,0.053
		c-0.123,0.039-0.24,0.096-0.349,0.171l-0.14,0.097l-0.053-0.162c-0.041-0.125-0.099-0.241-0.171-0.349l-0.099-0.139L41.285,24.458z
		"/>
	<path style="clip-path:url(#SVGID_2_);fill:#FFFFFF;" d="M27.398,19.242c0.107-0.078,0.16-0.209,0.139-0.34l-0.256-1.486
		l1.08-1.054c0.096-0.093,0.129-0.229,0.088-0.354c-0.04-0.125-0.15-0.217-0.279-0.237l-1.493-0.217l-0.668-1.353
		c-0.06-0.119-0.178-0.193-0.311-0.193s-0.251,0.074-0.31,0.193l-0.668,1.353l-1.494,0.217c-0.131,0.02-0.238,0.11-0.279,0.237
		c-0.041,0.125-0.008,0.261,0.088,0.354l1.08,1.054l-0.255,1.486c-0.022,0.131,0.03,0.262,0.138,0.339
		c0.104,0.077,0.25,0.087,0.365,0.026l1.335-0.701l1.335,0.701C27.148,19.328,27.295,19.317,27.398,19.242 M25.859,17.867
		c-0.099-0.052-0.223-0.052-0.322,0l-0.875,0.461l0.166-0.975c0.019-0.113-0.018-0.228-0.1-0.306l-0.707-0.692L25,16.214
		c0.112-0.017,0.211-0.087,0.261-0.191l0.438-0.885l0.438,0.886c0.051,0.103,0.148,0.173,0.262,0.19l0.978,0.141l-0.707,0.692
		c-0.082,0.079-0.119,0.193-0.1,0.306l0.167,0.975L25.859,17.867z"/>
	<path style="clip-path:url(#SVGID_2_);fill:#FFFFFF;" d="M25.777,42.385c-1.022,0.002-1.74,0.831-1.738,1.854
		C24.042,45.256,25,46.085,26,46.085v0.063l-0.107-0.063c1.02-0.001,1.792-0.833,1.79-1.853
		C27.681,43.214,26.796,42.385,25.777,42.385 M25.779,45.445c-0.668,0-1.212-0.554-1.213-1.221S25.107,43,25.775,43h0.002
		c0.667,0,1.211,0.555,1.211,1.222C26.99,44.889,26.447,45.444,25.779,45.445"/>
	<path style="clip-path:url(#SVGID_2_);fill:#FFFFFF;" d="M44.464,33.347C44.401,33.217,44.268,33,44.123,33H39v-1.115
		c0-0.144-0.041-0.277-0.17-0.34c-1.521-0.736-3.047-1.339-4.617-1.811c-0.021-0.007-0.086-0.014-0.106-0.02
		C34.086,29.708,34,29.701,34,29.695v-0.015c0-0.13-0.024-0.245-0.145-0.294c-0.033-0.015-0.045-0.203-0.095-0.203L33.725,29h-0.839
		c-0.084,0-0.169,0.139-0.253,0.119c-0.086-0.021-0.172,0.048-0.259,0.028c-0.433-0.101-0.866,0.052-1.301-0.028
		C30.841,28.896,30.527,29,30.182,29H29v-2.688c0-0.16-0.021-0.299-0.179-0.336l0.031-0.004c-1.126-0.258-1.858-1.317-1.733-2.466
		l0.02-0.073l0.074-0.029c0.998-0.425,1.911-1.293,2.636-2.514c0.231-0.389,0.446-0.815,0.632-1.265l0.02-0.042l0.039-0.021
		c2.024-1.098,3.455-3.107,3.823-5.371c0.063-0.387-0.048-0.599-0.303-0.897C33.802,12.991,33.426,13,33.028,13H31v-0.939
		C31,11.578,31.081,11,30.598,11h-9.684C20.432,11,20,11.578,20,12.061V13h-1.515c-0.399,0-0.775-0.009-1.032,0.294
		c-0.255,0.299-0.366,0.603-0.302,0.989c0.368,2.265,1.797,4.228,3.822,5.326l0.039-0.002l0.018,0.03
		c0.187,0.451,0.4,0.871,0.631,1.26c0.736,1.239,1.662,2.112,2.679,2.53l0.07,0.027l0.007,0.074
		c0.113,1.141-0.642,2.189-1.756,2.445l-0.206,0.004C22.3,26.014,22,26.152,22,26.313V29h-0.624c-0.34,0-0.649-0.063-0.879,0.155
		c-0.488,0.087-0.973,0.089-1.457,0.202c-0.085,0.021-0.17-0.199-0.256-0.179C18.7,29.2,18.614,29,18.529,29h-0.747l-0.065,0.198
		c-0.047,0-0.088,0.104-0.121,0.118c-0.116,0.05-0.191,0.207-0.196,0.331c-0.022,0.008-0.043,0.039-0.065,0.045
		c-0.02,0.006-0.042,0.025-0.063,0.031c-1.568,0.472-3.326,1.081-4.846,1.815C12.296,31.602,12,31.741,12,31.885V33H7.389
		c-0.144,0-0.277,0.217-0.34,0.347c-0.062,0.131-0.044,0.355,0.047,0.466l2.992,3.727l-1.814,3.548
		c-0.06,0.115-0.055,0.439,0.014,0.55C8.355,41.751,8.477,42,8.609,42h4.044C17.292,42,18,41.072,18,38.541v-3.417l0.323-0.037
		c0.039-0.011,0.168-0.021,0.207-0.03c0.024-0.006,0.093-0.012,0.117-0.018c0.023-0.006,0.07-0.012,0.094-0.019l4.785,4.76
		l0.01,1.927l-0.019,0.02c-0.715,0.644-1.01,1.561-1.009,2.514C22.511,46.102,24,47.615,26,47.615v0.063l-0.105-0.063
		c0.901-0.002,1.693-0.354,2.332-0.995c0.638-0.641,0.96-1.489,0.959-2.392c-0.002-0.953-0.428-1.868-1.145-2.51L28.013,41.7
		l-0.007-1.929l4.736-4.753c0.023,0.006,0.046,0.012,0.07,0.019c0.024,0.006,0.047,0.012,0.071,0.018
		c0.043,0.011,0.009,0.021,0.051,0.032L33,35.124v3.417C33,41.072,34.219,42,38.858,42h4.044c0.131,0,0.255-0.243,0.323-0.354
		c0.067-0.112,0.073-0.341,0.013-0.456l-1.813-3.574l2.991-3.781C44.508,33.723,44.525,33.478,44.464,33.347 M30.736,18.186
		C31.068,16.971,31,15.671,31,14.323V13h2.028c0.194,0,0.378,0.249,0.504,0.398c0.124,0.145,0.177,0.411,0.146,0.601
		c-0.271,1.671-1.16,3.216-2.504,4.279l-0.419,0.258L30.736,18.186z M20.337,18.319c-1.343-1.063-2.232-2.568-2.504-4.239
		c-0.031-0.189,0.021-0.536,0.147-0.682C18.105,13.249,18.29,13,18.484,13H20v1.323c0,1.348,0.188,2.648,0.52,3.863l0.11,0.371
		L20.337,18.319z M22.391,20.537C21.408,18.883,21,16.676,21,14.323v-2.262C21,11.959,20.814,12,20.914,12h9.684
		C30.698,12,31,11.959,31,12.061v2.262c0,2.353-0.651,4.56-1.635,6.214c-0.949,1.598-2.179,2.478-3.487,2.478
		C24.572,23.015,23.34,22.135,22.391,20.537 M24.347,25.771c0.112-0.123,0.216-0.266,0.306-0.409c0.3-0.466,0.46-1.01,0.467-1.561
		l0.003-0.145l0.142,0.019c0.347,0.047,0.684,0.044,1.026-0.006l0.143-0.022l0.002,0.144c0.01,0.725,0.287,1.439,0.779,1.979
		L27.408,26h-3.253L24.347,25.771z M23,27h5v1.609c0-0.085-1.608-0.13-2.523-0.13c-0.898,0-1.477,0.043-2.477,0.125V27z
		 M28.52,29.371l-5.624,0.01c0.243-0.025,0.488-0.047,0.731-0.064l4.157-0.008C28.029,29.326,28.273,29.348,28.52,29.371
		 M20.255,29.258l4.573-0.007l1.783-0.154C26.971,29.106,27.328,29,27.687,29h-3.86h-2.451c-0.047,0-0.093,0.158-0.138,0.169
		l-1.015,0.078C20.233,29.225,20.245,29.28,20.255,29.258 M12.654,41H9.228l1.644-3.25c0.068-0.133,0.052-0.328-0.042-0.445L8.18,34
		H12v4.094c0,0.922,0.964,1.672,1.885,1.672c0.922,0,1.779-0.75,1.779-1.672c0-0.506,0.663-0.918,1.168-0.918
		c0.506,0,1.168,0.412,1.168,0.918v0.447C18,40.293,17.366,41,12.654,41 M18,36.668l-0.462-0.113
		c-0.208-0.088-0.525-0.133-0.751-0.133c-0.922,0-1.722,0.75-1.722,1.672c0,0.506-0.527,0.916-1.033,0.916
		C13.525,39.01,13,38.6,13,38.094v-1.055l0.2-0.051c1.331-0.627,2.942-1.156,4.312-1.575L18,35.338V36.668z M21.875,37.215
		l-2.391-2.366c0.023-0.006,0.049-0.011,0.073-0.017c0.024-0.005,0.049-0.01,0.073-0.016c0.183-0.04,0.366-0.078,0.549-0.115
		c0.025-0.004,0.05-0.011,0.074-0.016c0.027-0.004,0.051-0.01,0.076-0.015l2.75,2.722l-0.01,0.013l1.928,1.92l-1.009,0.002
		L21.875,37.215z M25.766,37.28l-2.982-2.975c0.026-0.003,0.053-0.005,0.08-0.009c0.027-0.002,0.054-0.006,0.082-0.008
		c0.934-0.094,1.873-0.141,2.81-0.141s1.877,0.047,2.811,0.141c0.027,0.002,0.054,0.006,0.081,0.008
		c0.026,0.004,0.054,0.006,0.081,0.009L25.766,37.28z M29.535,34.401c0.025,0.004,0.052,0.008,0.078,0.011
		c0.025,0.004,0.053,0.008,0.078,0.012c0.189,0.025,0.379,0.054,0.566,0.084c0.026,0.004,0.052,0.008,0.078,0.012
		c0.025,0.005,0.051,0.011,0.077,0.014l-3.689,3.7l-0.506-0.503L29.535,34.401z M23.541,35.941l-0.011,0.011l3.383,3.37
		l-1.012,0.002l-4.029-4.019l-0.78-0.771c0.027-0.004,0.052-0.009,0.077-0.013c0.026-0.004,0.05-0.008,0.075-0.012
		c0.193-0.031,0.387-0.061,0.581-0.087c0.026-0.004,0.052-0.007,0.079-0.011l0.079-0.012L23.541,35.941z M27.364,39.96l0.002,1.294
		l-0.091-0.045c-0.474-0.235-0.978-0.354-1.497-0.354c-0.528,0.001-1.034,0.122-1.509,0.36l-0.091,0.045l-0.003-1.294L27.364,39.96z
		 M28.52,43.983c0.002,1.512-1.226,2.866-2.737,2.869c-1.515,0-2.745-1.166-2.747-2.674c-0.001-0.731,0.283-1.636,0.8-2.156
		C24.354,41.504,25.042,41,25.773,41h0.005C27.288,41,28.516,42.474,28.52,43.983 M27.682,39.189l-0.506-0.505l4.002-4.015
		c0.023,0.006,0.049,0.01,0.074,0.015s0.049,0.011,0.074,0.016c0.18,0.035,0.359,0.073,0.539,0.112
		c0.023,0.006,0.049,0.011,0.072,0.016c0.025,0.006,0.049,0.011,0.074,0.017L27.682,39.189z M33.498,34.437
		c-0.023-0.007-0.047-0.013-0.07-0.019s-0.047-0.012-0.07-0.019c-0.24-0.063-0.479-0.126-0.72-0.184
		c-0.024-0.006-0.049-0.011-0.073-0.017c-0.023-0.006-0.048-0.012-0.072-0.017c-0.176-0.042-0.353-0.084-0.529-0.122
		c-0.024-0.006-0.049-0.01-0.074-0.016c-0.024-0.006-0.049-0.01-0.074-0.015c-0.25-0.054-0.502-0.103-0.753-0.149
		c-0.025-0.004-0.051-0.01-0.075-0.014c-0.025-0.004-0.051-0.008-0.076-0.014c-0.186-0.033-0.371-0.064-0.557-0.095
		c-0.025-0.005-0.051-0.007-0.077-0.011c-0.026-0.005-0.052-0.009-0.078-0.013c-0.263-0.04-0.527-0.077-0.792-0.11
		c-0.025-0.004-0.053-0.006-0.079-0.01s-0.054-0.006-0.079-0.01c-1.157-0.139-2.322-0.211-3.492-0.211
		c-1.172,0-2.338,0.072-3.496,0.211c-0.026,0.004-0.053,0.008-0.08,0.011c-0.026,0.003-0.053,0.006-0.08,0.009
		c-0.263,0.033-0.525,0.07-0.789,0.111c-0.025,0.004-0.052,0.008-0.078,0.012c-0.026,0.004-0.052,0.007-0.078,0.012
		c-0.19,0.029-0.379,0.063-0.568,0.098c-0.026,0.004-0.049,0.008-0.075,0.013c-0.025,0.005-0.051,0.009-0.076,0.013
		c-0.25,0.047-0.499,0.097-0.748,0.149c-0.025,0.005-0.05,0.01-0.074,0.016c-0.026,0.005-0.052,0.009-0.078,0.015
		c-0.18,0.04-0.36,0.082-0.539,0.125c-0.025,0.006-0.049,0.012-0.073,0.018c-0.025,0.006-0.049,0.01-0.073,0.017
		c-0.237,0.059-0.472,0.118-0.708,0.181c-0.023,0.008-0.047,0.012-0.07,0.019c-0.026,0.007-0.049,0.013-0.073,0.019
		c-1.539,0.422-3.149,0.969-4.641,1.641L13,36.201v-4.079l0.2-0.052c1.307-0.615,2.683-1.13,4.028-1.545
		c0.022-0.008,0.065-0.014,0.086-0.02c0.021-0.007,0.054-0.013,0.076-0.02c0.4-0.122,0.808-0.238,1.212-0.342
		c0.023-0.006,0.05-0.012,0.074-0.018c0.051-0.014,0.104-0.025,0.155-0.037c0.088-0.021,0.177-0.055,0.264-0.076L20.083,30h0.694
		l10.003-0.004L31.474,30h0.851c0.086,0,0.171,0.044,0.26,0.065c0.074,0.018,0.15,0.036,0.227,0.056
		c0.023,0.006,0.047,0.012,0.07,0.017c0.412,0.106,0.82,0.224,1.229,0.349c0.021,0.006,0.042,0.012,0.063,0.019
		c0.021,0.007,0.043,0.012,0.063,0.019c1.347,0.416,2.512,0.932,3.821,1.547L38,32.122v4.079l-0.104-0.121
		C36.4,35.406,35.043,34.857,33.498,34.437 M38,37.039v1.055c0,0.506-0.245,0.916-0.751,0.916c-0.507,0-0.836-0.41-0.836-0.916
		c0-0.922-0.708-1.672-1.631-1.672c-0.224,0-0.377,0.045-0.584,0.133L34,36.668v-1.33l0.199,0.075
		c1.371,0.419,2.552,0.95,3.882,1.575L38,37.039z M40.684,37.28c-0.094,0.115-0.111,0.333-0.043,0.465L42.284,41h-3.425
		C34.147,41,34,40.293,34,38.541v-0.447c0-0.506,0.365-0.916,0.872-0.916c0.505,0,0.894,0.41,0.894,0.916
		c0,0.922,0.695,1.673,1.617,1.673S39,39.016,39,38.094V34h4.332L40.684,37.28z"/>
	<path style="clip-path:url(#SVGID_2_);fill:#FFFFFF;" d="M13.438,45h-0.78C12.597,46,12,46.584,11,46.646v0.78
		C12,47.487,12.597,48,12.658,49h0.78C13.5,48,14,47.487,15,47.426v-0.78C14,46.584,13.5,46,13.438,45 M13.652,47.139
		c-0.189,0.139-0.358,0.309-0.502,0.5l-0.102,0.137l-0.101-0.137c-0.143-0.191-0.311-0.36-0.5-0.5l-0.137-0.103l0.137-0.103
		c0.189-0.141,0.357-0.31,0.5-0.5l0.101-0.137l0.102,0.137c0.143,0.191,0.312,0.359,0.502,0.5l0.137,0.103L13.652,47.139z"/>
	<rect x="6.231" y="21.777" style="clip-path:url(#SVGID_2_);fill:#FFFFFF;" width="0.363" height="0.365"/>
	<rect x="6.959" y="21.777" style="clip-path:url(#SVGID_2_);fill:#FFFFFF;" width="0.364" height="0.365"/>
	<rect x="6.231" y="21.049" style="clip-path:url(#SVGID_2_);fill:#FFFFFF;" width="0.363" height="0.364"/>
	<rect x="6.959" y="21.049" style="clip-path:url(#SVGID_2_);fill:#FFFFFF;" width="0.364" height="0.364"/>
	<rect x="7.688" y="21.777" style="clip-path:url(#SVGID_2_);fill:#FFFFFF;" width="0.365" height="0.365"/>
	<rect x="7.688" y="21.049" style="clip-path:url(#SVGID_2_);fill:#FFFFFF;" width="0.365" height="0.364"/>
	<rect x="8.417" y="21.777" style="clip-path:url(#SVGID_2_);fill:#FFFFFF;" width="0.365" height="0.365"/>
	<rect x="8.417" y="21.049" style="clip-path:url(#SVGID_2_);fill:#FFFFFF;" width="0.365" height="0.364"/>
	<rect x="9.147" y="21.777" style="clip-path:url(#SVGID_2_);fill:#FFFFFF;" width="0.365" height="0.365"/>
	<rect x="9.147" y="21.049" style="clip-path:url(#SVGID_2_);fill:#FFFFFF;" width="0.365" height="0.364"/>
	<path style="clip-path:url(#SVGID_2_);fill:#FFFFFF;" d="M10.605,22h1.641c0.1,0-0.246,0.061-0.246-0.039V21.23
		c0-0.099,0.346-0.23,0.246-0.23h-1.641C10.504,21,10,21.131,10,21.23v0.731C10,22.061,10.504,22,10.605,22 M10.787,21.413h1.275
		v0.364h-1.275V21.413z"/>
	<rect x="6.231" y="23.965" style="clip-path:url(#SVGID_2_);fill:#FFFFFF;" width="0.363" height="0.365"/>
	<rect x="6.959" y="23.965" style="clip-path:url(#SVGID_2_);fill:#FFFFFF;" width="0.364" height="0.365"/>
	<rect x="6.231" y="23.236" style="clip-path:url(#SVGID_2_);fill:#FFFFFF;" width="0.363" height="0.364"/>
	<rect x="6.959" y="23.236" style="clip-path:url(#SVGID_2_);fill:#FFFFFF;" width="0.364" height="0.364"/>
	<rect x="7.688" y="23.965" style="clip-path:url(#SVGID_2_);fill:#FFFFFF;" width="0.365" height="0.365"/>
	<rect x="7.688" y="23.236" style="clip-path:url(#SVGID_2_);fill:#FFFFFF;" width="0.365" height="0.364"/>
	<rect x="8.417" y="23.965" style="clip-path:url(#SVGID_2_);fill:#FFFFFF;" width="0.365" height="0.365"/>
	<rect x="8.417" y="23.236" style="clip-path:url(#SVGID_2_);fill:#FFFFFF;" width="0.365" height="0.364"/>
	<rect x="9.147" y="23.965" style="clip-path:url(#SVGID_2_);fill:#FFFFFF;" width="0.365" height="0.365"/>
	<rect x="9.147" y="23.236" style="clip-path:url(#SVGID_2_);fill:#FFFFFF;" width="0.365" height="0.364"/>
	<path style="clip-path:url(#SVGID_2_);fill:#FFFFFF;" d="M10.605,24h1.641c0.1,0-0.246,0.248-0.246,0.148v-0.73
		c0-0.1,0.346-0.418,0.246-0.418h-1.641C10.504,23,10,23.318,10,23.418v0.73C10,24.248,10.504,24,10.605,24 M10.787,23.601h1.275
		v0.364h-1.275V23.601z"/>
	<path style="clip-path:url(#SVGID_2_);fill:#FFFFFF;" d="M12.286,31.067c0.003,0.003,0.007,0.065,0.01,0.068
		c0.013,0.014,0.028,0.057,0.044,0.066c0.006,0.003,0.012,0.021,0.018,0.023c0.021,0.01,0.045,0.024,0.07,0.024
		s0.049-0.003,0.07-0.013c0.006-0.003,0.012-0.004,0.018-0.007c0.017-0.01,0.031-0.021,0.044-0.034
		c0.003-0.003,0.008-0.003,0.011-0.006l3.828-4.741c0.055-0.068,0.053-0.167-0.005-0.234l-1.277-1.306
		C15.082,24.869,15.033,25,14.98,25h-1.858C13.145,25,13,24.576,13,24.513v-1.459c0-0.141-0.054-0.268-0.141-0.365
		C12.946,22.592,13,22.465,13,22.324v-1.458C13,20.564,12.912,20,12.611,20H6.047C5.746,20,5,20.564,5,20.866v1.458
		c0,0.141,0.055,0.268,0.143,0.365C5.055,22.786,5,22.913,5,23.054v1.459c0,0.139,0.055,0.267,0.143,0.364
		C5.055,24.974,5,25.102,5,25.242v1.457C5,27.002,5.746,27,6.047,27h3.055L12.286,31.067z M12.428,30.856L11.391,27h2.076
		L12.428,30.856z M10.278,25.06h1.748l-0.873,0.999L10.278,25.06z M10.75,26.152H9l0.875-0.998L10.75,26.152z M12.428,25.154
		l0.874,0.998h-1.749L12.428,25.154z M12.828,30.771L13.844,27h2.031L12.828,30.771z M15.854,26.152h-1.749l0.875-0.998
		L15.854,26.152z M14.578,25.06l-0.874,0.999L12.83,25.06H14.578z M13,22.818c0,0.1-0.081,0.182-0.181,0.182H6.182
		C6.082,23,6,22.918,6,22.818v-1.636C6,21.082,6.082,21,6.182,21h6.637c0.1,0,0.181,0.082,0.181,0.182V22.818z M13,24.818
		c0,0.1-0.081,0.182-0.181,0.182H6.182C6.082,25,6,24.918,6,24.818v-1.636C6,23.082,6.082,23,6.182,23h6.637
		c0.1,0,0.181,0.082,0.181,0.182V24.818z M6.047,27C5.948,27,6,26.801,6,26.699v-1.457C6,25.141,5.948,25,6.047,25h3.427l-0.957,1H8
		v1h0.513h0.294H6.047z M11.012,27l1.016,3.771L8.98,27H11.012z"/>
	<rect x="6.23" y="26.153" style="clip-path:url(#SVGID_2_);fill:#FFFFFF;" width="0.363" height="0.364"/>
	<rect x="6.959" y="26.153" style="clip-path:url(#SVGID_2_);fill:#FFFFFF;" width="0.364" height="0.364"/>
	<rect x="6.23" y="25.424" style="clip-path:url(#SVGID_2_);fill:#FFFFFF;" width="0.363" height="0.365"/>
	<rect x="6.959" y="25.424" style="clip-path:url(#SVGID_2_);fill:#FFFFFF;" width="0.364" height="0.365"/>
	<rect x="7.687" y="26.153" style="clip-path:url(#SVGID_2_);fill:#FFFFFF;" width="0.365" height="0.364"/>
	<rect x="7.687" y="25.424" style="clip-path:url(#SVGID_2_);fill:#FFFFFF;" width="0.365" height="0.365"/>
	<rect x="8.417" y="25.424" style="clip-path:url(#SVGID_2_);fill:#FFFFFF;" width="0.365" height="0.365"/>
</g>
</svg>
