<?xml version="1.0" encoding="iso-8859-1"?>
<!-- Generator: Adobe Illustrator 15.1.0, SVG Export Plug-In . SVG Version: 6.00 Build 0)  -->
<!DOCTYPE svg PUBLIC "-//W3C//DTD SVG 1.1//EN" "http://www.w3.org/Graphics/SVG/1.1/DTD/svg11.dtd">
<svg version="1.1" id="Layer_1" xmlns="http://www.w3.org/2000/svg" xmlns:xlink="http://www.w3.org/1999/xlink" x="0px" y="0px"
	 width="50px" height="50px" viewBox="0 0 50 50" style="enable-background:new 0 0 50 50;" xml:space="preserve">
<path style="fill:#FFFFFF;" d="M25.094,46.068l0.609-0.002l0.004,0.61l-0.61,0.002L25.094,46.068z M23.916,46.635l-0.305-0.02
	l0.039-0.61l0.305,0.02l0.305,0.019l-0.039,0.61L23.916,46.635z M26.537,46.033l0.608-0.045l0.045,0.609l-0.609,0.046L26.537,46.033
	z M22.438,46.488L22.438,46.488l-0.303-0.041l0.08-0.605l0.607,0.082l-0.082,0.604L22.438,46.488z M27.975,45.898l0.304-0.042
	l0.302-0.043l0.086,0.604l-0.604,0.087L27.975,45.898z M20.971,46.239L20.971,46.239l-0.299-0.06l0.122-0.599l0.599,0.122
	l-0.123,0.598L20.971,46.239z M29.402,45.668L30,45.541l0.127,0.598l-0.598,0.127L29.402,45.668z M19.525,45.892l-0.294-0.083
	l0.164-0.587l0.587,0.164l-0.164,0.587L19.525,45.892z M30.809,45.341l0.588-0.165l0.166,0.587l-0.587,0.166L30.809,45.341z
	 M32.189,44.92l0.574-0.207l0.207,0.573l-0.574,0.209L32.189,44.92z M33.539,44.402l0.558-0.245l0.247,0.56l-0.56,0.245
	L33.539,44.402z M34.848,43.796l0.541-0.284l0.283,0.54l-0.539,0.285L34.848,43.796z M36.111,43.101l0.52-0.321l0.321,0.521
	l-0.52,0.321L36.111,43.101z M37.325,42.317l0.497-0.354l0.355,0.496l-0.498,0.355L37.325,42.317z M38.481,41.455l0.472-0.389
	l0.389,0.471l-0.236,0.194l-0.236,0.194L38.481,41.455z M39.577,40.515l0.442-0.42l0.42,0.442l-0.444,0.422L39.577,40.515z
	 M40.604,39.5l0.414-0.448l0.449,0.413l-0.414,0.448L40.604,39.5z M41.563,38.419l0.381-0.477l0.477,0.383l-0.382,0.477
	L41.563,38.419z M42.442,37.275l0.349-0.503l0.5,0.35l-0.347,0.501L42.442,37.275z M43.243,36.072l0.313-0.524l0.524,0.314
	l-0.313,0.523L43.243,36.072z M6.065,34.964l-0.14-0.271l0.544-0.28l0.279,0.543l-0.541,0.281L6.065,34.964z M43.961,34.819
	l0.278-0.545l0.543,0.277l-0.278,0.545L43.961,34.819z M5.43,33.622L5.43,33.622l-0.121-0.281l0.56-0.241l0.242,0.559l-0.56,0.244
	L5.43,33.622z M44.592,33.518l0.239-0.562l0.562,0.238l-0.24,0.563L44.592,33.518z M4.887,32.238l-0.101-0.289l0.575-0.201
	l0.204,0.575l-0.577,0.203L4.887,32.238z M45.132,32.179l0.199-0.577l0.577,0.199l-0.201,0.579L45.132,32.179z M4.441,30.822
	l-0.082-0.295l0.59-0.164l0.16,0.589l-0.586,0.162L4.441,30.822z M45.577,30.806l0.159-0.591l0.591,0.161l-0.159,0.589
	L45.577,30.806z M4.093,29.377l-0.06-0.3l0.596-0.122l0.124,0.599l-0.599,0.121L4.093,29.377z M45.928,29.401l0.119-0.6l0.6,0.12
	l-0.119,0.6L45.928,29.401z M3.921,28.438L3.921,28.438l-0.048-0.3l0.603-0.098l0.096,0.604L3.971,28.74L3.921,28.438z
	 M46.182,27.978l0.078-0.604l0.604,0.077l-0.039,0.304l-0.038,0.304L46.182,27.978z M3.736,26.965L3.736,26.965l-0.029-0.303
	l0.608-0.057l0.056,0.606l-0.607,0.057L3.736,26.965z M46.336,26.544l0.035-0.609l0.609,0.036l-0.035,0.608L46.336,26.544z
	 M3.65,25.481l-0.007-0.307l0.611-0.013l0.013,0.61l-0.61,0.015L3.65,25.481z M46.387,24.794l-0.004-0.306l0.611-0.005L47,25.094
	l-0.61,0.005L46.387,24.794z M46.32,23.353l-0.024-0.304l0.61-0.05l0.048,0.609l-0.608,0.049L46.32,23.353z M46.158,21.918
	l-0.045-0.304l0.604-0.088l0.045,0.302h-0.001l0.046,0.302l-0.604,0.09L46.158,21.918z M3.949,21.343l0.112-0.6l0.6,0.112
	l-0.056,0.301v-0.002L4.55,21.456L3.949,21.343z M45.897,20.496l-0.065-0.298l0.598-0.131l0.129,0.597l-0.596,0.13L45.897,20.496z
	 M4.251,19.888l0.075-0.297l0.077-0.295l0.591,0.152l-0.152,0.591L4.251,19.888z M45.542,19.097L45.542,19.097l-0.085-0.293
	l0.587-0.171l0.085,0.295l0.084,0.293l-0.586,0.169L45.542,19.097z M4.651,18.455l0.193-0.579l0.581,0.194l-0.097,0.289
	l-0.096,0.288L4.651,18.455z M45.093,17.725l-0.106-0.287l0.574-0.209l0.21,0.573l-0.573,0.21L45.093,17.725z M5.15,17.054
	l0.232-0.565l0.565,0.234l-0.232,0.564L5.15,17.054z M44.549,16.387l-0.125-0.279l0.558-0.249l0.249,0.558l-0.558,0.249
	L44.549,16.387z M5.743,15.692l0.271-0.546l0.547,0.269L6.29,15.962L5.743,15.692z M6.429,14.372l0.153-0.263l0.152-0.264
	l0.53,0.307L6.956,14.68L6.429,14.372z M7.201,13.105l0.342-0.507l0.506,0.341l-0.342,0.507L7.201,13.105z M42.386,12.646
	l-0.179-0.248l0.494-0.358l0.357,0.494l-0.494,0.359L42.386,12.646z M8.061,11.891l0.187-0.241l0.189-0.242l0.479,0.378l-0.375,0.48
	L8.061,11.891z M41.498,11.508l-0.195-0.236l0.469-0.391l0.391,0.47l-0.467,0.393L41.498,11.508z M8.998,10.738l0.408-0.455
	l0.453,0.409l-0.406,0.454L8.998,10.738z M40.536,10.432l-0.212-0.219l0.44-0.422l0.423,0.439l-0.441,0.423L40.536,10.432z
	 M10.014,9.653l0.218-0.212l0.219-0.212l0.426,0.438l-0.437,0.424L10.014,9.653z M39.502,9.426L39.274,9.22l0.411-0.452l0.451,0.411
	l-0.41,0.453L39.502,9.426z M11.099,8.641l0.466-0.396l0.394,0.466l-0.467,0.395L11.099,8.641z M38.398,8.49L38.16,8.3l0.379-0.478
	l0.479,0.379L38.64,8.682L38.398,8.49z M12.252,7.704l0.246-0.181l0.246-0.181l0.362,0.492l-0.493,0.362L12.252,7.704z
	 M37.238,7.633l-0.254-0.171l0.346-0.504l0.505,0.346l-0.346,0.502L37.238,7.633z M13.467,6.85l0.515-0.328l0.327,0.515
	l-0.516,0.328L13.467,6.85z M36.019,6.857l-0.262-0.155l0.309-0.526l0.527,0.31l-0.312,0.527L36.019,6.857z M14.736,6.079
	l0.537-0.291l0.292,0.538l-0.539,0.291L14.736,6.079z M34.751,6.165l-0.273-0.136l0.274-0.547l0.545,0.274l-0.274,0.547
	L34.751,6.165z M33.438,5.563l-0.282-0.118l0.237-0.564l0.28,0.118l0.283,0.118l-0.236,0.564L33.438,5.563z M32.088,5.051l-0.29-0.1
	l0.196-0.576l0.291,0.097l0.287,0.098l-0.195,0.579L32.088,5.051z M18.824,4.32l0.586-0.174l0.174,0.585l-0.586,0.175L18.824,4.32z
	 M30.704,4.633L30.41,4.555l0.154-0.591l0.592,0.157L31,4.71L30.704,4.633z M20.256,3.925l0.598-0.134l0.132,0.596L20.391,4.52
	L20.256,3.925z M29.297,4.312l-0.301-0.059l0.115-0.6l0.598,0.117l-0.115,0.599L29.297,4.312z M21.714,3.629l0.602-0.094
	l0.094,0.604l-0.603,0.092L21.714,3.629z M27.868,4.087L27.564,4.05l0.072-0.605l0.607,0.075l-0.073,0.604L27.868,4.087z
	 M23.186,3.431l0.609-0.053l0.051,0.608l-0.608,0.052L23.186,3.431z M26.429,3.964l-0.305-0.016l0.032-0.609l0.303,0.015h0.002
	l0.304,0.017L26.731,3.98L26.429,3.964z M24.669,3.334l0.61-0.013l0.012,0.611l-0.306,0.007L24.68,3.944L24.669,3.334z"/>
<g>
	<defs>
		<rect id="SVGID_1_" x="5.32" y="32.71" width="13.633" height="13.63"/>
	</defs>
	<clipPath id="SVGID_2_">
		<use xlink:href="#SVGID_1_"  style="overflow:visible;"/>
	</clipPath>
	<path style="clip-path:url(#SVGID_2_);fill:#FFFFFF;" d="M14.183,32.71c-1.227,0-2.413,0.481-3.3,1.332
		c-0.067-0.128-0.109-0.27-0.109-0.424c0-0.125-0.102-0.228-0.227-0.228c-0.126,0-0.226,0.103-0.226,0.228
		c0,0.501-0.409,0.908-0.91,0.908c-0.125,0-0.227,0.103-0.227,0.228c0,0.127,0.102,0.228,0.227,0.228
		c0.226,0,0.428,0.085,0.587,0.221c-0.382,0.7-0.587,1.484-0.587,2.278c0,1.234,0.474,2.354,1.246,3.203l-0.791,0.792l-0.295-0.293
		c-0.088-0.09-0.232-0.09-0.321,0l-3.862,3.862c-0.089,0.088-0.089,0.231,0,0.321l0.909,0.907c0.043,0.045,0.102,0.066,0.16,0.066
		c0.059,0,0.117-0.021,0.161-0.066l3.863-3.86c0.088-0.091,0.088-0.233,0-0.323l-0.294-0.293l0.791-0.792
		c0.848,0.771,1.97,1.245,3.205,1.245c2.63,0,4.771-2.14,4.771-4.77C18.954,34.85,16.813,32.71,14.183,32.71 M6.457,45.791
		L5.87,45.205l3.541-3.542l0.587,0.587L6.457,45.791z M10.546,34.371c0.039,0.061,0.087,0.113,0.135,0.166
		c0.004,0.004,0.004,0.007,0.008,0.011s0.007,0.007,0.01,0.011c0.019,0.02,0.039,0.037,0.058,0.055
		c0.048,0.046,0.098,0.086,0.151,0.123c0.007,0.006,0.013,0.013,0.021,0.018c-0.076,0.052-0.146,0.109-0.211,0.175
		c-0.014,0.013-0.023,0.028-0.035,0.043c-0.049,0.053-0.097,0.105-0.137,0.165c-0.017-0.026-0.042-0.047-0.06-0.073
		c-0.012-0.015-0.022-0.03-0.034-0.045c-0.002-0.003-0.005-0.003-0.009-0.005c-0.082-0.097-0.174-0.188-0.28-0.26
		C10.315,34.653,10.446,34.523,10.546,34.371 M14.183,41.797c-2.381,0-4.317-1.938-4.317-4.316c0-0.634,0.142-1.262,0.416-1.839
		c0.002,0.011,0.006,0.021,0.009,0.032c0.005,0.019,0.01,0.038,0.012,0.058c0.01,0.052,0.018,0.104,0.018,0.159
		c0,0.125,0.1,0.228,0.226,0.228c0.125,0,0.227-0.103,0.227-0.228c0-0.368,0.221-0.683,0.536-0.825
		c-0.052,0.117-0.081,0.241-0.081,0.37v4.089c0,0.893,1.297,1.592,2.954,1.592c1.655,0,2.953-0.699,2.953-1.592v-4.089
		c0-0.892-1.298-1.59-2.953-1.59c-1.033,0-1.925,0.271-2.452,0.691c-0.016-0.003-0.03-0.011-0.048-0.011
		c-0.056,0-0.11-0.007-0.163-0.016c-0.016-0.004-0.031-0.007-0.047-0.011c-0.038-0.009-0.075-0.02-0.11-0.033
		c-0.017-0.007-0.033-0.013-0.048-0.02c-0.042-0.018-0.082-0.041-0.121-0.065c-0.002-0.002-0.004-0.002-0.006-0.003
		c0.808-0.785,1.864-1.216,2.995-1.216c2.38,0,4.315,1.937,4.315,4.317C18.498,39.859,16.563,41.797,14.183,41.797 M14.183,37.026
		c1.065,0,1.979-0.291,2.498-0.735v0.508c0,0.536-1.026,1.137-2.498,1.137c-1.474,0-2.5-0.601-2.5-1.137v-0.508
		C12.202,36.735,13.116,37.026,14.183,37.026 M11.683,35.436c0-0.537,1.026-1.135,2.5-1.135c1.472,0,2.498,0.598,2.498,1.135
		c0,0.538-1.026,1.136-2.498,1.136C12.708,36.571,11.683,35.974,11.683,35.436 M14.183,38.389c1.065,0,1.979-0.289,2.498-0.734
		v0.509c0,0.536-1.026,1.136-2.498,1.136c-1.474,0-2.5-0.6-2.5-1.136v-0.509C12.202,38.1,13.116,38.389,14.183,38.389
		 M14.183,39.752c1.065,0,1.979-0.291,2.498-0.733v0.506c0,0.539-1.026,1.137-2.498,1.137c-1.474,0-2.5-0.598-2.5-1.137v-0.506
		C12.202,39.461,13.116,39.752,14.183,39.752"/>
</g>
<g>
	<defs>
		<rect id="SVGID_3_" width="50" height="50"/>
	</defs>
	<clipPath id="SVGID_4_">
		<use xlink:href="#SVGID_3_"  style="overflow:visible;"/>
	</clipPath>
	<path style="clip-path:url(#SVGID_4_);fill:#FFFFFF;" d="M8.502,38.844c-0.502,0-0.908-0.407-0.908-0.908
		c0-0.128-0.104-0.228-0.229-0.228s-0.227,0.1-0.227,0.228c0,0.501-0.407,0.908-0.908,0.908c-0.125,0-0.228,0.101-0.228,0.228
		c0,0.125,0.103,0.228,0.228,0.228c0.501,0,0.908,0.406,0.908,0.907c0,0.127,0.102,0.227,0.227,0.227s0.229-0.1,0.229-0.227
		c0-0.501,0.406-0.907,0.908-0.907c0.125,0,0.226-0.103,0.226-0.228C8.728,38.944,8.627,38.844,8.502,38.844 M7.365,39.454
		c-0.1-0.151-0.23-0.282-0.383-0.383c0.153-0.101,0.283-0.231,0.383-0.385c0.102,0.153,0.232,0.282,0.384,0.385
		C7.597,39.172,7.467,39.303,7.365,39.454"/>
	<rect x="10.32" y="43.614" style="clip-path:url(#SVGID_4_);fill:#FFFFFF;" width="0.453" height="0.453"/>
	<rect x="11.229" y="43.614" style="clip-path:url(#SVGID_4_);fill:#FFFFFF;" width="0.454" height="0.453"/>
	<rect x="12.137" y="43.614" style="clip-path:url(#SVGID_4_);fill:#FFFFFF;" width="0.455" height="0.453"/>
	<rect x="13.047" y="43.614" style="clip-path:url(#SVGID_4_);fill:#FFFFFF;" width="0.453" height="0.453"/>
	<rect x="13.955" y="43.614" style="clip-path:url(#SVGID_4_);fill:#FFFFFF;" width="0.454" height="0.453"/>
	<rect x="14.863" y="43.614" style="clip-path:url(#SVGID_4_);fill:#FFFFFF;" width="0.455" height="0.453"/>
	<rect x="15.771" y="43.614" style="clip-path:url(#SVGID_4_);fill:#FFFFFF;" width="0.455" height="0.453"/>
	<rect x="16.681" y="43.614" style="clip-path:url(#SVGID_4_);fill:#FFFFFF;" width="0.455" height="0.453"/>
	<rect x="17.59" y="43.614" style="clip-path:url(#SVGID_4_);fill:#FFFFFF;" width="0.455" height="0.453"/>
	<rect x="18.498" y="43.614" style="clip-path:url(#SVGID_4_);fill:#FFFFFF;" width="0.455" height="0.453"/>
	<rect x="10.32" y="44.522" style="clip-path:url(#SVGID_4_);fill:#FFFFFF;" width="0.453" height="0.454"/>
	<rect x="9.41" y="44.522" style="clip-path:url(#SVGID_4_);fill:#FFFFFF;" width="0.455" height="0.454"/>
	<rect x="11.229" y="44.522" style="clip-path:url(#SVGID_4_);fill:#FFFFFF;" width="0.454" height="0.454"/>
	<rect x="12.137" y="44.522" style="clip-path:url(#SVGID_4_);fill:#FFFFFF;" width="0.455" height="0.454"/>
	<rect x="13.047" y="44.522" style="clip-path:url(#SVGID_4_);fill:#FFFFFF;" width="0.453" height="0.454"/>
	<rect x="13.955" y="44.522" style="clip-path:url(#SVGID_4_);fill:#FFFFFF;" width="0.454" height="0.454"/>
	<rect x="14.863" y="44.522" style="clip-path:url(#SVGID_4_);fill:#FFFFFF;" width="0.455" height="0.454"/>
	<rect x="15.771" y="44.522" style="clip-path:url(#SVGID_4_);fill:#FFFFFF;" width="0.455" height="0.454"/>
	<rect x="16.681" y="44.522" style="clip-path:url(#SVGID_4_);fill:#FFFFFF;" width="0.455" height="0.454"/>
	<rect x="17.59" y="44.522" style="clip-path:url(#SVGID_4_);fill:#FFFFFF;" width="0.455" height="0.454"/>
	<rect x="18.498" y="44.522" style="clip-path:url(#SVGID_4_);fill:#FFFFFF;" width="0.455" height="0.454"/>
	<rect x="6.002" y="35.663" style="clip-path:url(#SVGID_4_);fill:#FFFFFF;" width="0.455" height="0.455"/>
	<rect x="6.912" y="35.663" style="clip-path:url(#SVGID_4_);fill:#FFFFFF;" width="0.453" height="0.455"/>
	<rect x="7.82" y="35.663" style="clip-path:url(#SVGID_4_);fill:#FFFFFF;" width="0.455" height="0.455"/>
	<path style="clip-path:url(#SVGID_4_);fill:#FFFFFF;" d="M28.73,19.494c0.133,0,0.239,0.107,0.239,0.241
		c0,0.133-0.106,0.241-0.239,0.241c-0.135,0-0.241-0.108-0.241-0.241C28.489,19.601,28.596,19.494,28.73,19.494 M28.248,18.77
		c0.133,0,0.241,0.108,0.241,0.241c0,0.133-0.108,0.241-0.241,0.241s-0.241-0.108-0.241-0.241
		C28.007,18.878,28.115,18.77,28.248,18.77 M27.766,19.494c0.135,0,0.241,0.107,0.241,0.241c0,0.133-0.106,0.241-0.241,0.241
		c-0.133,0-0.24-0.108-0.24-0.241C27.525,19.601,27.633,19.494,27.766,19.494 M27.285,18.77c0.133,0,0.24,0.108,0.24,0.241
		c0,0.133-0.107,0.241-0.24,0.241s-0.242-0.108-0.242-0.241C27.043,18.878,27.152,18.77,27.285,18.77 M26.802,19.494
		c0.134,0,0.241,0.107,0.241,0.241c0,0.133-0.107,0.241-0.241,0.241c-0.133,0-0.241-0.108-0.241-0.241
		C26.561,19.601,26.669,19.494,26.802,19.494 M26.32,18.77c0.134,0,0.24,0.108,0.24,0.241c0,0.133-0.106,0.241-0.24,0.241
		c-0.133,0-0.24-0.108-0.24-0.241C26.08,18.878,26.188,18.77,26.32,18.77 M25.837,19.494c0.136,0,0.243,0.107,0.243,0.241
		c0,0.133-0.107,0.241-0.243,0.241c-0.131,0-0.239-0.108-0.239-0.241C25.598,19.601,25.706,19.494,25.837,19.494 M25.357,18.77
		c0.133,0,0.24,0.108,0.24,0.241c0,0.133-0.107,0.241-0.24,0.241c-0.134,0-0.24-0.108-0.24-0.241
		C25.117,18.878,25.224,18.77,25.357,18.77 M24.875,19.494c0.134,0,0.242,0.107,0.242,0.241c0,0.133-0.107,0.241-0.242,0.241
		c-0.133,0-0.241-0.108-0.241-0.241C24.634,19.601,24.742,19.494,24.875,19.494 M24.394,18.77c0.132,0,0.241,0.108,0.241,0.241
		c0,0.133-0.109,0.241-0.241,0.241c-0.134,0-0.241-0.108-0.241-0.241C24.152,18.878,24.259,18.77,24.394,18.77 M18.732,18.289
		c0.598,0,1.084,0.485,1.084,1.083c0,0.6-0.486,1.085-1.084,1.085s-1.084-0.485-1.084-1.085
		C17.648,18.774,18.134,18.289,18.732,18.289"/>
	<path style="clip-path:url(#SVGID_4_);fill:#FFFFFF;" d="M18.732,23.349c-0.332,0-0.604,0.269-0.604,0.602
		c0,0.332,0.272,0.601,0.604,0.601s0.602-0.269,0.602-0.601C19.334,23.618,19.064,23.349,18.732,23.349"/>
	<path style="clip-path:url(#SVGID_4_);fill:#FFFFFF;" d="M18.732,19.976c0.332,0,0.602-0.27,0.602-0.604
		c0-0.331-0.27-0.601-0.602-0.601s-0.604,0.27-0.604,0.601C18.128,19.706,18.4,19.976,18.732,19.976"/>
	<path style="clip-path:url(#SVGID_4_);fill:#FFFFFF;" d="M18.732,20.458c0.598,0,1.084-0.486,1.084-1.085
		c0-0.598-0.486-1.083-1.084-1.083s-1.084,0.485-1.084,1.083C17.648,19.972,18.134,20.458,18.732,20.458 M18.732,18.771
		c0.332,0,0.602,0.271,0.602,0.602c0,0.334-0.27,0.603-0.602,0.603s-0.604-0.269-0.604-0.603
		C18.128,19.042,18.4,18.771,18.732,18.771"/>
	<path style="clip-path:url(#SVGID_4_);fill:#FFFFFF;" d="M28.248,19.252c0.133,0,0.241-0.107,0.241-0.241
		c0-0.133-0.108-0.24-0.241-0.24s-0.241,0.107-0.241,0.24C28.007,19.145,28.115,19.252,28.248,19.252"/>
	<path style="clip-path:url(#SVGID_4_);fill:#FFFFFF;" d="M27.285,19.252c0.133,0,0.24-0.107,0.24-0.241
		c0-0.133-0.107-0.24-0.24-0.24s-0.242,0.107-0.242,0.24C27.043,19.145,27.152,19.252,27.285,19.252"/>
	<path style="clip-path:url(#SVGID_4_);fill:#FFFFFF;" d="M28.73,19.976c0.133,0,0.239-0.107,0.239-0.24
		c0-0.134-0.106-0.241-0.239-0.241c-0.135,0-0.241,0.107-0.241,0.241C28.489,19.869,28.596,19.976,28.73,19.976"/>
	<path style="clip-path:url(#SVGID_4_);fill:#FFFFFF;" d="M27.766,19.976c0.135,0,0.241-0.107,0.241-0.24
		c0-0.134-0.106-0.241-0.241-0.241c-0.133,0-0.24,0.107-0.24,0.241C27.525,19.869,27.633,19.976,27.766,19.976"/>
	<path style="clip-path:url(#SVGID_4_);fill:#FFFFFF;" d="M26.32,19.252c0.134,0,0.24-0.107,0.24-0.241
		c0-0.133-0.106-0.24-0.24-0.24c-0.133,0-0.24,0.107-0.24,0.24C26.08,19.145,26.188,19.252,26.32,19.252"/>
	<path style="clip-path:url(#SVGID_4_);fill:#FFFFFF;" d="M26.802,19.976c0.134,0,0.241-0.107,0.241-0.24
		c0-0.134-0.107-0.241-0.241-0.241c-0.132,0-0.241,0.107-0.241,0.241C26.561,19.869,26.67,19.976,26.802,19.976"/>
	<path style="clip-path:url(#SVGID_4_);fill:#FFFFFF;" d="M25.357,19.252c0.133,0,0.24-0.107,0.24-0.241
		c0-0.133-0.107-0.24-0.24-0.24c-0.134,0-0.24,0.107-0.24,0.24C25.117,19.145,25.224,19.252,25.357,19.252"/>
	<path style="clip-path:url(#SVGID_4_);fill:#FFFFFF;" d="M25.838,19.976c0.135,0,0.242-0.107,0.242-0.24
		c0-0.134-0.107-0.241-0.242-0.241c-0.132,0-0.24,0.107-0.24,0.241C25.598,19.869,25.706,19.976,25.838,19.976"/>
	<path style="clip-path:url(#SVGID_4_);fill:#FFFFFF;" d="M24.394,19.252c0.132,0,0.241-0.107,0.241-0.241
		c0-0.133-0.109-0.24-0.241-0.24c-0.134,0-0.241,0.107-0.241,0.24C24.153,19.145,24.26,19.252,24.394,19.252"/>
	<path style="clip-path:url(#SVGID_4_);fill:#FFFFFF;" d="M24.875,19.976c0.135,0,0.242-0.107,0.242-0.24
		c0-0.134-0.107-0.241-0.242-0.241c-0.133,0-0.24,0.107-0.24,0.241C24.635,19.869,24.742,19.976,24.875,19.976"/>
	<path style="clip-path:url(#SVGID_4_);fill:#FFFFFF;" d="M24.785,29.37v0.002h-0.449v-0.45h0.078
		c-0.173-0.247-0.437-0.429-0.743-0.49V26.48h2.245c0.014-0.179,0.074-0.343,0.168-0.483h-8.771c-0.348,0-0.627-0.281-0.627-0.628
		v-2.837c0-0.347,0.279-0.63,0.627-0.63h12.233c0.31,0,0.566,0.226,0.618,0.521c0.168,0.02,0.332,0.055,0.492,0.098
		c-0.004-0.349-0.171-0.658-0.428-0.859c0.259-0.205,0.428-0.515,0.428-0.87v-2.838c0-0.612-0.497-1.11-1.11-1.11H17.313
		c-0.613,0-1.111,0.498-1.111,1.11v2.838c0,0.355,0.169,0.665,0.429,0.87c-0.26,0.203-0.429,0.516-0.429,0.87v2.837
		c0,0.613,0.498,1.111,1.111,1.111h5.876v1.951c-0.47,0.095-0.843,0.467-0.939,0.938h-5.806c-0.133,0-0.242,0.107-0.242,0.239
		c0,0.135,0.109,0.242,0.242,0.242h5.806c0.112,0.549,0.598,0.963,1.18,0.963c0.583,0,1.068-0.414,1.18-0.963h1.042
		c0.258-0.199,0.546-0.361,0.854-0.481H24.785z M16.686,17.954c0-0.346,0.279-0.628,0.627-0.628h12.233
		c0.348,0,0.629,0.282,0.629,0.628v2.838c0,0.348-0.281,0.629-0.629,0.629H17.313c-0.348,0-0.627-0.281-0.627-0.629V17.954z
		 M23.43,30.333c-0.398,0-0.722-0.324-0.722-0.724c0-0.396,0.324-0.721,0.722-0.721c0.399,0,0.723,0.324,0.723,0.721
		C24.153,30.009,23.829,30.333,23.43,30.333"/>
	<path style="clip-path:url(#SVGID_4_);fill:#FFFFFF;" d="M29.758,29.37H29.72H29.758z"/>
	<path style="clip-path:url(#SVGID_4_);fill:#FFFFFF;" d="M18.732,22.865c-0.598,0-1.084,0.488-1.084,1.085
		c0,0.599,0.486,1.083,1.084,1.083s1.084-0.484,1.084-1.083C19.816,23.353,19.331,22.865,18.732,22.865 M18.732,24.552
		c-0.332,0-0.604-0.27-0.604-0.602c0-0.333,0.272-0.601,0.604-0.601s0.602,0.268,0.602,0.601
		C19.334,24.282,19.064,24.552,18.732,24.552"/>
	<path style="clip-path:url(#SVGID_4_);fill:#FFFFFF;" d="M27.043,23.589c0,0.04,0.012,0.079,0.03,0.114
		c0.093-0.12,0.192-0.232,0.3-0.339c-0.027-0.01-0.059-0.015-0.088-0.015C27.152,23.349,27.043,23.454,27.043,23.589"/>
	<path style="clip-path:url(#SVGID_4_);fill:#FFFFFF;" d="M26.561,23.589c0-0.135-0.106-0.24-0.24-0.24
		c-0.133,0-0.24,0.105-0.24,0.24c0,0.134,0.107,0.241,0.24,0.241C26.454,23.83,26.561,23.723,26.561,23.589"/>
	<path style="clip-path:url(#SVGID_4_);fill:#FFFFFF;" d="M26.561,24.312c0,0.062,0.025,0.118,0.063,0.161
		c0.058-0.14,0.123-0.271,0.2-0.4c-0.008,0-0.015-0.002-0.022-0.002C26.67,24.07,26.561,24.178,26.561,24.312"/>
	<path style="clip-path:url(#SVGID_4_);fill:#FFFFFF;" d="M25.357,23.349c-0.134,0-0.24,0.105-0.24,0.24
		c0,0.134,0.106,0.241,0.24,0.241c0.133,0,0.24-0.107,0.24-0.241C25.598,23.454,25.49,23.349,25.357,23.349"/>
	<path style="clip-path:url(#SVGID_4_);fill:#FFFFFF;" d="M25.838,24.07c-0.132,0-0.24,0.107-0.24,0.241
		c0,0.133,0.108,0.24,0.24,0.24c0.135,0,0.242-0.107,0.242-0.24C26.08,24.177,25.973,24.07,25.838,24.07"/>
	<path style="clip-path:url(#SVGID_4_);fill:#FFFFFF;" d="M24.394,23.349c-0.134,0-0.241,0.105-0.241,0.24
		c0,0.134,0.107,0.241,0.241,0.241c0.132,0,0.241-0.107,0.241-0.241C24.635,23.454,24.525,23.349,24.394,23.349"/>
	<path style="clip-path:url(#SVGID_4_);fill:#FFFFFF;" d="M24.875,24.07c-0.133,0-0.24,0.107-0.24,0.241
		c0,0.133,0.107,0.24,0.24,0.24c0.135,0,0.242-0.107,0.242-0.24C25.117,24.177,25.01,24.07,24.875,24.07"/>
	<path style="clip-path:url(#SVGID_4_);fill:#FFFFFF;" d="M28.838,26.671c-0.373,0-0.676,0.304-0.676,0.676h0.451
		c0-0.124,0.101-0.227,0.225-0.227c0.125,0,0.226,0.103,0.226,0.227h0.45C29.514,26.975,29.21,26.671,28.838,26.671"/>
	<path style="clip-path:url(#SVGID_4_);fill:#FFFFFF;" d="M29.964,27.347h0.45c0-0.124,0.102-0.227,0.225-0.227
		c0.125,0,0.227,0.103,0.227,0.227h0.45c0-0.372-0.304-0.676-0.677-0.676C30.267,26.671,29.964,26.975,29.964,27.347"/>
	<path style="clip-path:url(#SVGID_4_);fill:#FFFFFF;" d="M29.739,32.75c-0.497,0-0.901,0.402-0.901,0.899
		c0,0.498,0.404,0.902,0.901,0.902s0.899-0.404,0.899-0.902C30.639,33.152,30.236,32.75,29.739,32.75 M29.739,34.1
		c-0.249,0-0.45-0.201-0.45-0.45c0-0.248,0.201-0.449,0.45-0.449c0.247,0,0.45,0.201,0.45,0.449
		C30.189,33.898,29.986,34.1,29.739,34.1"/>
	<path style="clip-path:url(#SVGID_4_);fill:#FFFFFF;" d="M26.924,25.997h0.113h1.259c0.339-0.155,0.614-0.387,0.788-0.664
		c0.172,0.228,0.426,0.428,0.742,0.595c0.145-0.07,0.254-0.193,0.311-0.346c-0.537-0.259-0.848-0.605-0.848-0.939
		c0-0.123-0.102-0.223-0.226-0.223s-0.226,0.1-0.226,0.223c0,0.563-0.582,1.031-1.338,1.114c0.12-1.131,1.078-2.013,2.239-2.013
		c0.149,0,0.294,0.016,0.436,0.044v-0.457c-0.142-0.022-0.288-0.037-0.436-0.037c-0.452,0-0.878,0.114-1.253,0.312
		c-0.008,0.125-0.111,0.224-0.238,0.224c-0.033,0-0.064-0.007-0.095-0.02c-0.111,0.083-0.218,0.173-0.315,0.273
		c0.098,0.029,0.169,0.119,0.169,0.228c0,0.133-0.106,0.241-0.241,0.241c-0.094,0-0.176-0.055-0.215-0.134
		c-0.236,0.328-0.402,0.711-0.473,1.127h-0.154c-0.033,0-0.067,0.007-0.102,0.011c0.111-1.514,1.375-2.711,2.917-2.711
		c0.147,0,0.294,0.01,0.436,0.032v-0.344c0-0.039-0.005-0.074-0.011-0.109c-0.139-0.018-0.281-0.029-0.425-0.029
		c-0.922,0-1.757,0.371-2.366,0.97c0.088,0.035,0.152,0.122,0.152,0.225c0,0.134-0.107,0.241-0.24,0.241
		c-0.092,0-0.172-0.053-0.212-0.127c-0.091,0.116-0.175,0.24-0.249,0.369c0.121,0.012,0.219,0.113,0.219,0.239
		c0,0.133-0.107,0.241-0.241,0.241c-0.071,0-0.134-0.031-0.177-0.079c-0.161,0.382-0.254,0.802-0.261,1.242
		c-0.111,0.075-0.206,0.171-0.28,0.282h0.828H26.924z"/>
	<path style="clip-path:url(#SVGID_4_);fill:#FFFFFF;" d="M35.143,35.451v-2.927c0-1.861-1.516-3.377-3.377-3.377H31.52
		c0.08-0.07,0.156-0.146,0.227-0.226h0.244c0.621,0,1.125-0.505,1.125-1.126v-0.395c0.271-0.184,0.451-0.492,0.451-0.842
		c0-0.353-0.181-0.661-0.453-0.845c-0.026-1.52-1.057-2.797-2.457-3.194v0.011v0.46c1.1,0.365,1.91,1.365,1.999,2.563
		c-0.034-0.004-0.068-0.011-0.103-0.011h-0.153c-0.162-0.967-0.841-1.761-1.743-2.089v0.487c0.783,0.351,1.331,1.134,1.334,2.046
		c-0.535-0.017-1.008-0.104-1.405-0.23c-0.056,0.148-0.14,0.28-0.249,0.39c0.477,0.168,1.041,0.273,1.654,0.293v0.679
		c0,0.509-0.172,0.977-0.455,1.353h-1.796v0.449h1.345c-0.129,0.097-0.269,0.18-0.418,0.249c-0.289,0.13-0.599,0.197-0.908,0.199
		h0.658c0.133,0,0.24,0.107,0.24,0.239c0,0.135-0.107,0.242-0.24,0.242h-0.043l-0.634,1.269l-0.636-1.269H28.6l0.775,1.547h-0.398
		l-0.773-1.547h-0.504l0.775,1.547h-1.889c-0.619,0-1.125,0.505-1.125,1.126v2.927h-0.676v-2.927c0-1.192,0.718-2.218,1.746-2.673
		h-0.879c-0.801,0.62-1.316,1.586-1.316,2.673v2.927h-1.352v0.45h13.509v-0.45H35.143z M32.439,25.997h0.113
		c0.311,0,0.563,0.252,0.563,0.563c0,0.309-0.252,0.561-0.563,0.561h-0.113V25.997z M32.399,27.572h0.153
		c0.038,0,0.075-0.007,0.113-0.013v0.236c0,0.344-0.256,0.623-0.586,0.667C32.236,28.191,32.347,27.892,32.399,27.572
		 M31.003,29.598H31.4l-0.9,1.801h-0.396L31.003,29.598z M33.566,35.451h-7.654v-2.927c0-0.372,0.303-0.676,0.674-0.676h6.305
		c0.373,0,0.676,0.304,0.676,0.676V35.451z M34.691,35.451h-0.675v-2.927c0-0.621-0.505-1.126-1.126-1.126h-1.888l0.897-1.794
		c1.551,0.072,2.791,1.354,2.791,2.92V35.451z"/>
	<path style="clip-path:url(#SVGID_4_);fill:#FFFFFF;" d="M27.487,27.12v-0.64h-0.45v0.64h-0.113c-0.311,0-0.563-0.252-0.563-0.561
		c0-0.028,0.004-0.053,0.008-0.079h-0.453c-0.002,0.026-0.004,0.053-0.004,0.079c0,0.558,0.453,1.013,1.012,1.013h0.154
		c0.105,0.624,0.424,1.175,0.88,1.575h-0.246c-0.425,0-0.83,0.079-1.205,0.223h3.213c-0.311-0.002-0.619-0.069-0.909-0.199
		C28.031,28.816,27.487,28.032,27.487,27.12"/>
	<path style="clip-path:url(#SVGID_4_);fill:#FFFFFF;" d="M27.037,26.48h0.45v-0.271c0.294-0.025,0.567-0.1,0.809-0.212h-1.259
		V26.48z"/>
	<path style="clip-path:url(#SVGID_4_);fill:#FFFFFF;" d="M30.175,23.788c0.169,0.033,0.33,0.086,0.481,0.155v-0.487
		c-0.154-0.057-0.315-0.097-0.481-0.125V23.788z"/>
	<path style="clip-path:url(#SVGID_4_);fill:#FFFFFF;" d="M30.175,22.532v0.344c0.166,0.026,0.326,0.065,0.481,0.116v-0.46v-0.011
		c-0.16-0.044-0.324-0.078-0.492-0.098C30.17,22.458,30.175,22.493,30.175,22.532"/>
	<path style="clip-path:url(#SVGID_4_);fill:#FFFFFF;" d="M27.576,29.604l0.123,0.247h0.504l-0.126-0.254h0.397l0.125,0.254h0.504
		l-0.061-0.123c0.223,0.06,0.455,0.095,0.696,0.095s0.474-0.035,0.694-0.095l-0.061,0.123h0.043c0.133,0,0.24-0.107,0.24-0.242
		c0-0.132-0.107-0.239-0.24-0.239h-0.658H29.72h-3.213c-0.309,0.12-0.597,0.282-0.854,0.481h0.879
		C26.854,29.709,27.205,29.622,27.576,29.604"/>
	<path style="clip-path:url(#SVGID_4_);fill:#FFFFFF;" d="M26.912,25.997h-0.828c-0.094,0.141-0.154,0.305-0.168,0.483h0.453
		C26.407,26.21,26.635,26.004,26.912,25.997"/>
	<path style="clip-path:url(#SVGID_4_);fill:#FFFFFF;" d="M29.826,25.928c0.155,0.083,0.326,0.157,0.51,0.221
		c0.109-0.109,0.193-0.242,0.249-0.39c-0.164-0.053-0.313-0.111-0.448-0.177C30.08,25.734,29.972,25.857,29.826,25.928"/>
	<path style="clip-path:url(#SVGID_4_);fill:#FFFFFF;" d="M28.248,23.83c0.127,0,0.229-0.099,0.239-0.224
		c-0.116,0.06-0.228,0.129-0.333,0.204C28.184,23.823,28.215,23.83,28.248,23.83"/>
	<path style="clip-path:url(#SVGID_4_);fill:#FFFFFF;" d="M27.073,23.703c0.04,0.074,0.12,0.127,0.212,0.127
		c0.133,0,0.24-0.107,0.24-0.241c0-0.103-0.064-0.19-0.152-0.225C27.266,23.471,27.166,23.583,27.073,23.703"/>
	<path style="clip-path:url(#SVGID_4_);fill:#FFFFFF;" d="M27.551,24.418c0.039,0.079,0.121,0.134,0.215,0.134
		c0.135,0,0.241-0.108,0.241-0.24c0-0.11-0.071-0.2-0.169-0.229C27.733,24.187,27.638,24.298,27.551,24.418"/>
	<path style="clip-path:url(#SVGID_4_);fill:#FFFFFF;" d="M26.802,24.552c0.134,0,0.241-0.107,0.241-0.24
		c0-0.127-0.096-0.228-0.219-0.239c-0.076,0.128-0.143,0.26-0.199,0.4C26.668,24.522,26.73,24.552,26.802,24.552"/>
	<rect x="32.666" y="33.424" style="clip-path:url(#SVGID_4_);fill:#FFFFFF;" width="0.449" height="1.577"/>
	<rect x="32.666" y="32.525" style="clip-path:url(#SVGID_4_);fill:#FFFFFF;" width="0.449" height="0.45"/>
	<rect x="34.692" y="24.42" style="clip-path:url(#SVGID_4_);fill:#FFFFFF;" width="0.45" height="0.449"/>
	<rect x="34.692" y="25.319" style="clip-path:url(#SVGID_4_);fill:#FFFFFF;" width="0.45" height="0.45"/>
	<rect x="34.692" y="26.221" style="clip-path:url(#SVGID_4_);fill:#FFFFFF;" width="0.45" height="0.45"/>
	<rect x="24.336" y="27.12" style="clip-path:url(#SVGID_4_);fill:#FFFFFF;" width="0.449" height="0.452"/>
	<rect x="24.336" y="28.023" style="clip-path:url(#SVGID_4_);fill:#FFFFFF;" width="0.449" height="0.448"/>
	<path style="clip-path:url(#SVGID_4_);fill:#FFFFFF;" d="M24.414,28.922c0.094,0.134,0.163,0.284,0.195,0.448h0.176v-0.448H24.414z
		"/>
	<path style="clip-path:url(#SVGID_4_);fill:#FFFFFF;" d="M24.414,28.922h-0.078v0.45h0.449V29.37h-0.176
		C24.577,29.206,24.508,29.056,24.414,28.922"/>
	<path style="clip-path:url(#SVGID_4_);fill:#FFFFFF;" d="M18.129,5.371V4.839c-0.523-0.031-0.943-0.451-0.974-0.974h-0.533
		c-0.03,0.523-0.45,0.943-0.973,0.974v0.532c0.523,0.03,0.943,0.45,0.973,0.974h0.533C17.186,5.821,17.606,5.401,18.129,5.371
		 M17.26,5.154c-0.123,0.092-0.232,0.199-0.322,0.323l-0.05,0.066L16.84,5.478c-0.092-0.124-0.199-0.231-0.323-0.323l-0.066-0.049
		l0.066-0.05c0.124-0.091,0.231-0.199,0.323-0.323l0.048-0.064l0.05,0.064c0.09,0.124,0.199,0.232,0.322,0.323l0.066,0.05
		L17.26,5.154z"/>
	<path style="clip-path:url(#SVGID_4_);fill:#FFFFFF;" d="M5.085,23.296v-0.355c-0.452-0.054-0.811-0.413-0.867-0.864H3.867
		C3.811,22.528,3.452,22.887,3,22.941v0.355c0.452,0.054,0.811,0.414,0.867,0.864h0.352C4.274,23.71,4.634,23.35,5.085,23.296
		 M4.141,23.491l-0.099,0.133l-0.096-0.133c-0.079-0.105-0.171-0.197-0.276-0.274l-0.132-0.098l0.132-0.099
		c0.105-0.077,0.198-0.171,0.276-0.275l0.096-0.132l0.099,0.132c0.078,0.104,0.17,0.198,0.275,0.275l0.131,0.099l-0.131,0.098
		C4.312,23.294,4.219,23.386,4.141,23.491"/>
	<path style="clip-path:url(#SVGID_4_);fill:#FFFFFF;" d="M45.355,14.408v-0.662c-0.631-0.031-1.139-0.54-1.171-1.171h-0.661
		c-0.032,0.631-0.541,1.14-1.172,1.171v0.662c0.631,0.031,1.14,0.539,1.172,1.171h0.661C44.217,14.947,44.725,14.439,45.355,14.408
		 M44.293,14.125c-0.148,0.109-0.279,0.242-0.391,0.391l-0.049,0.066l-0.049-0.066c-0.111-0.149-0.241-0.28-0.391-0.391
		l-0.066-0.047l0.066-0.05c0.15-0.111,0.279-0.241,0.391-0.389l0.049-0.068l0.049,0.068c0.111,0.148,0.242,0.278,0.391,0.389
		l0.066,0.05L44.293,14.125z"/>
</g>
</svg>
