<?xml version="1.0" encoding="iso-8859-1"?>
<!-- Generator: Adobe Illustrator 15.1.0, SVG Export Plug-In . SVG Version: 6.00 Build 0)  -->
<!DOCTYPE svg PUBLIC "-//W3C//DTD SVG 1.1//EN" "http://www.w3.org/Graphics/SVG/1.1/DTD/svg11.dtd">
<svg version="1.1" id="Layer_1" xmlns="http://www.w3.org/2000/svg" xmlns:xlink="http://www.w3.org/1999/xlink" x="0px" y="0px"
	 width="50px" height="50px" viewBox="0 0 50 50" style="enable-background:new 0 0 50 50;" xml:space="preserve">
<rect x="12.561" y="6.371" transform="matrix(-0.5915 -0.8063 0.8063 -0.5915 15.0904 20.9957)" style="fill:#FFFFFF;" width="0.607" height="0.608"/>
<polygon style="fill:#FFFFFF;" points="20.815,44.879 21.113,44.94 21.41,45.002 21.533,44.407 20.937,44.284 "/>
<rect x="6.069" y="14.113" transform="matrix(-0.8957 -0.4446 0.4446 -0.8957 5.6698 30.1634)" style="fill:#FFFFFF;" width="0.607" height="0.607"/>
<polygon style="fill:#FFFFFF;" points="45.465,17.649 45.549,17.94 45.634,18.233 46.217,18.063 46.134,17.771 46.133,17.771 
	46.048,17.479 "/>
<polygon style="fill:#FFFFFF;" points="44.997,16.292 45.102,16.575 45.206,16.861 45.776,16.652 45.67,16.367 45.566,16.08 "/>
<polygon style="fill:#FFFFFF;" points="45.837,19.036 45.903,19.332 45.902,19.332 45.967,19.629 46.561,19.5 46.432,18.907 "/>
<polygon style="fill:#FFFFFF;" points="46.117,20.447 46.161,20.747 46.206,21.046 46.807,20.958 46.761,20.657 46.717,20.357 "/>
<rect x="32.356" y="43.505" transform="matrix(-0.3398 -0.9405 0.9405 -0.3398 2.5557 89.4112)" style="fill:#FFFFFF;" width="0.606" height="0.608"/>
<rect x="30.969" y="43.952" transform="matrix(-0.2749 -0.9615 0.9615 -0.2749 -2.679 86.4904)" style="fill:#FFFFFF;" width="0.607" height="0.607"/>
<polygon style="fill:#FFFFFF;" points="43.05,12.458 43.211,12.714 43.372,12.971 43.888,12.65 43.564,12.136 "/>
<polygon style="fill:#FFFFFF;" points="42.229,11.278 42.408,11.524 42.587,11.771 43.08,11.414 42.9,11.168 42.722,10.921 "/>
<polygon style="fill:#FFFFFF;" points="4.557,18.434 4.479,18.729 5.068,18.88 5.22,18.292 4.632,18.14 "/>
<polygon style="fill:#FFFFFF;" points="4.236,19.878 4.181,20.178 4.778,20.288 4.834,19.99 4.889,19.691 4.292,19.579 "/>
<rect x="4.015" y="21.072" transform="matrix(-0.9935 -0.1142 0.1142 -0.9935 6.1677 43.1059)" style="fill:#FFFFFF;" width="0.607" height="0.608"/>
<rect x="4.961" y="16.808" transform="matrix(-0.9489 -0.3155 0.3155 -0.9489 4.8603 35.0095)" style="fill:#FFFFFF;" width="0.607" height="0.607"/>
<polygon style="fill:#FFFFFF;" points="46.299,21.872 46.322,22.172 46.348,22.476 46.954,22.428 46.905,21.822 "/>
<rect x="46.354" y="24.759" transform="matrix(-0.9984 -0.0562 0.0562 -0.9984 91.8357 52.7048)" style="fill:#FFFFFF;" width="0.608" height="0.605"/>
<rect x="5.468" y="15.442" transform="matrix(-0.9241 -0.382 0.382 -0.9241 5.0908 32.501)" style="fill:#FFFFFF;" width="0.607" height="0.607"/>
<polygon style="fill:#FFFFFF;" points="10.43,8.338 10.212,8.55 10.634,8.985 11.071,8.561 10.647,8.126 "/>
<rect x="8.391" y="10.419" transform="matrix(-0.7874 -0.6164 0.6164 -0.7874 8.9319 24.5252)" style="fill:#FFFFFF;" width="0.608" height="0.607"/>
<rect x="7.535" y="11.597" transform="matrix(-0.8281 -0.5606 0.5606 -0.8281 7.6564 26.1489)" style="fill:#FFFFFF;" width="0.606" height="0.606"/>
<polygon style="fill:#FFFFFF;" points="5.014,30.731 5.116,31.016 5.216,31.303 5.789,31.101 5.688,30.815 5.586,30.529 "/>
<rect x="46.222" y="26.207" transform="matrix(-0.9919 -0.1272 0.1272 -0.9919 89.3004 58.7263)" style="fill:#FFFFFF;" width="0.606" height="0.61"/>
<rect x="11.417" y="7.273" transform="matrix(-0.6447 -0.7645 0.7645 -0.6447 13.4844 21.4209)" style="fill:#FFFFFF;" width="0.607" height="0.608"/>
<polygon style="fill:#FFFFFF;" points="4.589,29.314 4.671,29.606 4.752,29.899 5.338,29.737 5.175,29.151 "/>
<rect x="9.328" y="9.302" transform="matrix(-0.7431 -0.6692 0.6692 -0.7431 10.3618 23.1889)" style="fill:#FFFFFF;" width="0.608" height="0.607"/>
<polygon style="fill:#FFFFFF;" points="19.383,44.513 19.675,44.594 19.967,44.675 20.13,44.09 19.546,43.927 "/>
<polygon style="fill:#FFFFFF;" points="35.814,5.613 36.076,5.768 36.339,5.923 36.646,5.399 36.124,5.09 "/>
<polygon style="fill:#FFFFFF;" points="6.647,13.243 7.172,13.55 7.323,13.286 7.477,13.024 6.953,12.717 "/>
<polygon style="fill:#FFFFFF;" points="5.535,32.114 5.656,32.393 5.775,32.67 6.333,32.432 6.091,31.872 "/>
<rect x="29.554" y="44.301" transform="matrix(-0.2076 -0.9782 0.9782 -0.2076 -7.5783 83.0699)" style="fill:#FFFFFF;" width="0.607" height="0.607"/>
<rect x="13.763" y="5.551" transform="matrix(-0.5364 -0.844 0.844 -0.5364 16.6685 20.8663)" style="fill:#FFFFFF;" width="0.606" height="0.607"/>
<polygon style="fill:#FFFFFF;" points="6.15,33.458 6.288,33.727 6.427,33.997 6.967,33.718 6.688,33.179 "/>
<polygon style="fill:#FFFFFF;" points="6.854,34.755 7.012,35.015 7.17,35.273 7.688,34.959 7.373,34.438 "/>
<polygon style="fill:#FFFFFF;" points="39.314,8.118 39.54,8.321 39.764,8.525 40.173,8.076 39.947,7.872 39.723,7.667 "/>
<polygon style="fill:#FFFFFF;" points="34.544,4.944 34.815,5.081 35.087,5.216 35.357,4.673 34.815,4.401 "/>
<polygon style="fill:#FFFFFF;" points="3.875,23.989 3.882,24.293 3.889,24.596 4.498,24.582 4.482,23.975 "/>
<polygon style="fill:#FFFFFF;" points="33.229,4.362 33.511,4.48 33.79,4.597 34.024,4.036 33.464,3.803 "/>
<rect x="45.987" y="27.649" transform="matrix(-0.9809 -0.1943 0.1943 -0.9809 86.2701 64.3644)" style="fill:#FFFFFF;" width="0.608" height="0.606"/>
<polygon style="fill:#FFFFFF;" points="23.617,2.334 23.313,2.36 23.364,2.966 23.97,2.913 23.919,2.309 "/>
<polygon style="fill:#FFFFFF;" points="20.696,2.786 20.696,2.784 20.399,2.852 20.533,3.444 21.126,3.312 20.992,2.719 "/>
<polygon style="fill:#FFFFFF;" points="37.037,6.368 37.289,6.54 37.539,6.712 37.883,6.21 37.381,5.868 "/>
<rect x="3.899" y="22.524" transform="matrix(-0.9989 -0.0466 0.0466 -0.9989 7.3362 45.8268)" style="fill:#FFFFFF;" width="0.608" height="0.609"/>
<rect x="21.89" y="2.506" transform="matrix(-0.1541 -0.9881 0.9881 -0.1541 22.8389 25.172)" style="fill:#FFFFFF;" width="0.608" height="0.607"/>
<polygon style="fill:#FFFFFF;" points="26.235,2.874 26.539,2.889 26.842,2.906 26.873,2.299 26.266,2.267 "/>
<rect x="24.793" y="2.259" transform="matrix(-0.0169 -0.9999 0.9999 -0.0169 22.959 27.6989)" style="fill:#FFFFFF;" width="0.607" height="0.607"/>
<polygon style="fill:#FFFFFF;" points="29.091,3.178 29.389,3.235 29.688,3.293 29.802,2.696 29.205,2.582 "/>
<polygon style="fill:#FFFFFF;" points="27.667,2.976 27.968,3.013 28.271,3.051 28.344,2.447 28.041,2.411 28.043,2.411 
	27.74,2.374 "/>
<polygon style="fill:#FFFFFF;" points="46.385,23.306 46.39,23.608 46.394,23.913 47,23.905 46.992,23.298 "/>
<rect x="19.05" y="3.146" transform="matrix(-0.2832 -0.9591 0.9591 -0.2832 21.5264 22.9875)" style="fill:#FFFFFF;" width="0.607" height="0.607"/>
<rect x="44.082" y="33.141" transform="matrix(-0.8899 -0.4562 0.4562 -0.8899 68.6269 83.455)" style="fill:#FFFFFF;" width="0.608" height="0.608"/>
<rect x="44.699" y="31.821" transform="matrix(-0.9201 -0.3918 0.3918 -0.9201 73.8228 79.3145)" style="fill:#FFFFFF;" width="0.608" height="0.608"/>
<polygon style="fill:#FFFFFF;" points="45.142,30.952 45.714,31.151 45.814,30.864 45.914,30.577 45.34,30.378 "/>
<polygon style="fill:#FFFFFF;" points="40.358,9.103 40.568,9.323 40.777,9.542 41.217,9.122 40.796,8.683 "/>
<rect x="45.654" y="29.068" transform="matrix(-0.9655 -0.2603 0.2603 -0.9655 82.6871 69.691)" style="fill:#FFFFFF;" width="0.608" height="0.607"/>
<polygon style="fill:#FFFFFF;" points="41.331,10.159 41.526,10.392 41.721,10.625 42.188,10.236 41.992,10.002 41.992,10.003 
	41.798,9.771 "/>
<polygon style="fill:#FFFFFF;" points="16.5,4.193 16.5,4.193 16.224,4.319 16.476,4.872 17.028,4.62 16.777,4.068 "/>
<polygon style="fill:#FFFFFF;" points="38.206,7.204 38.444,7.391 38.682,7.58 39.06,7.104 38.584,6.727 "/>
<rect x="17.668" y="3.609" transform="matrix(-0.3519 -0.936 0.936 -0.3519 20.6341 22.1112)" style="fill:#FFFFFF;" width="0.608" height="0.607"/>
<rect x="15.018" y="4.813" transform="matrix(-0.4769 -0.8789 0.8789 -0.4769 18.1306 21.0246)" style="fill:#FFFFFF;" width="0.606" height="0.608"/>
<g>
	<defs>
		<rect id="SVGID_1_" width="50" height="50"/>
	</defs>
	<clipPath id="SVGID_2_">
		<use xlink:href="#SVGID_1_"  style="overflow:visible;"/>
	</clipPath>
	<path style="clip-path:url(#SVGID_2_);fill:#FFFFFF;" d="M43.598,14.737c0.42,0.029,0.757,0.366,0.787,0.787h0.407
		c0.03-0.421,0.366-0.758,0.787-0.787V14.33c-0.421-0.03-0.757-0.367-0.787-0.787h-0.407c-0.03,0.42-0.367,0.757-0.787,0.787V14.737
		z M44.281,14.485c0.099-0.074,0.187-0.16,0.258-0.26l0.049-0.065l0.05,0.065c0.072,0.1,0.159,0.186,0.258,0.259l0.065,0.049
		l-0.065,0.049c-0.099,0.073-0.187,0.161-0.259,0.258l-0.049,0.065l-0.049-0.065c-0.071-0.097-0.159-0.185-0.258-0.258l-0.066-0.049
		L44.281,14.485z"/>
	<path style="clip-path:url(#SVGID_2_);fill:#FFFFFF;" d="M31.343,4.206h0.376c0.03-0.394,0.347-0.71,0.74-0.74V3.088
		c-0.394-0.029-0.71-0.345-0.74-0.738h-0.376c-0.029,0.393-0.346,0.709-0.739,0.738v0.377C30.997,3.496,31.313,3.812,31.343,4.206
		 M31.24,3.228c0.092-0.068,0.174-0.148,0.242-0.241l0.049-0.066l0.048,0.066c0.069,0.093,0.151,0.174,0.243,0.241l0.066,0.049
		l-0.066,0.05c-0.092,0.068-0.174,0.149-0.243,0.241l-0.048,0.066l-0.048-0.066c-0.069-0.092-0.151-0.173-0.243-0.241l-0.066-0.05
		L31.24,3.228z"/>
	<path style="clip-path:url(#SVGID_2_);fill:#FFFFFF;" d="M6,27.187V26.64C5,26.581,4.765,26,4.706,25H4.161
		C4.103,26,3.614,26.581,3,26.64v0.547C3.614,27.243,4.103,28,4.161,28h0.545C4.765,28,5,27.243,6,27.187 M4.434,27.517
		l-0.098-0.131c-0.107-0.144-0.233-0.27-0.375-0.375L3.83,26.913l0.131-0.098c0.142-0.106,0.269-0.232,0.375-0.376l0.098-0.132
		l0.097,0.131c0.107,0.145,0.234,0.271,0.376,0.377l0.131,0.098l-0.131,0.098c-0.142,0.105-0.268,0.231-0.376,0.375L4.434,27.517z"
		/>
	<rect x="7.445" y="30.233" style="clip-path:url(#SVGID_2_);fill:#FFFFFF;" width="0.697" height="0.696"/>
	<rect x="8.838" y="30.233" style="clip-path:url(#SVGID_2_);fill:#FFFFFF;" width="0.697" height="0.696"/>
	<rect x="10.232" y="30.234" style="clip-path:url(#SVGID_2_);fill:#FFFFFF;" width="0.696" height="0.696"/>
	<path style="clip-path:url(#SVGID_2_);fill:#FFFFFF;" d="M14.345,23.372c0,2.75,1.012,5.388,2.848,7.428l0.117,0.131l-0.527-0.039
		C16.672,30.932,15.85,32,15.636,32H15v1h0.588c0,0,0.412-0.033,0.412-0.021v1.271c0,0.129-0.311-0.25-0.182-0.25h5.221
		c0.011,0,0.022,0.24,0.033,0.238l0.016,0.119l0.017-0.179C21.117,34.181,21.127,34,21.139,34h1.443h0.233h-0.233H21v-1.339
		c0-1.391,1.286-1.791,1.332-1.809l0.106-0.004l1.849-0.706l0.088,0.067l0.93,0.895c0.044,0.043,0.106,0.066,0.168,0.066
		c0.066-0.002,0.128-0.027,0.171-0.072l0.939-0.973l2.041,0.727C28.671,30.868,30,31.276,30,32.661V34h-3.686l-0.104-2.424
		l0.027-0.031c0.138-0.173,0.213-0.386,0.213-0.605c-0.005-0.128-0.111-0.233-0.238-0.233c-0.129,0-0.23,0.103-0.23,0.23
		c0,0.293-0.238,0.532-0.531,0.532c-0.109,0-0.213-0.032-0.298-0.095l-0.016-0.012c-0.007-0.008-0.018-0.017-0.027-0.021
		l-0.019-0.015c-0.11-0.101-0.171-0.24-0.171-0.392c0-0.129-0.101-0.231-0.23-0.231c-0.13,0-0.231,0.103-0.231,0.231
		c0,0.244,0.086,0.472,0.251,0.659l0.032,0.029L24.635,34H23.69h-0.233h0.233h0.923l-0.112,2.688
		c-0.002,0.071,0.026,0.256,0.078,0.304l0.744,0.729c0.091,0.08,0.225,0.106,0.308,0.033l0.731-0.644
		c0.053-0.048,0.08-0.346,0.078-0.416L26.335,34h8.766C35.229,34,35,34.378,35,34.247v-1.269c0-1.366-0.904-1.795-1.027-1.839
		l-0.45-0.215l0.158-0.129c1.834-2.04,2.864-4.676,2.864-7.424c0-2.24-0.654-4.401-1.914-6.25l-0.003-0.013
		c-0.01-0.019-0.02-0.037-0.033-0.053l-0.01-0.013c-0.551-0.794-1.201-1.512-1.936-2.136c-0.094-0.081-0.248-0.068-0.329,0.026
		c-0.083,0.098-0.07,0.246,0.028,0.33c0.602,0.512,1.148,1.092,1.624,1.726l0.095,0.128l-0.148,0.058
		c-0.752,0.293-1.652,0.544-2.68,0.744l-0.104,0.02l-0.034-0.101c-0.277-0.827-0.618-1.591-1.011-2.272
		c-0.53-0.919-1.14-1.665-1.813-2.217l0.111-0.211c1.072,0.307,2.087,0.781,3.017,1.408c0.104,0.071,0.254,0.041,0.323-0.062
		c0.073-0.106,0.044-0.252-0.062-0.324c-1.838-1.241-3.986-1.897-6.212-1.897c-2.968,0-5.758,1.154-7.857,3.254
		C15.5,17.615,14.345,20.406,14.345,23.372 M25.187,31.898l0.134,0.025c0.088,0.014,0.18,0.015,0.296-0.005l0.136-0.029L25.844,34
		h-0.751L25.187,31.898z M25.474,37.306l-0.509-0.698L25.071,34h0.792l0.104,2.618L25.474,37.306z M14.817,22.945
		c0.065-1.929,0.653-3.769,1.703-5.387l0.055-0.066l0.093,0.047c0.784,0.321,1.739,0.599,2.839,0.815l0.129,0.03l-0.036,0.127
		c-0.399,1.409-0.617,2.857-0.646,4.44L18.954,23h-4.14L14.817,22.945z M20.066,18.574l0.031-0.105l0.107,0.019
		c1.504,0.252,3.086,0.394,4.787,0.412L25,18.901v3.283l0.001,0.011c-0.693,0.065-1.277,0.386-1.747,0.907l-0.013,0.045
		l-0.047-0.076C23.186,23.07,23.189,23,23.181,23h-3.761l0.002-0.053C19.452,21.378,19.668,19.954,20.066,18.574 M19.454,30h-0.324
		C18.436,30,18,29.353,18,28.659v-1.047l0.044-0.012c0.428-0.047,1.203-0.199,1.815-0.711l0.094-0.092l0.065,0.123
		c0.165,0.285,0.519,0.49,0.772,0.609L21,27.563v1.097C21,29.353,20.147,30,19.454,30 M19.795,30.354v0.383l-0.513,0.533
		l-0.496-0.482v-0.434l0.136,0.016c0.07,0.01,0.14,0.014,0.207,0.014h0.324c0.067,0,0.137-0.004,0.206-0.014L19.795,30.354z
		 M20.247,26.292c-0.019-0.087-0.09-0.158-0.18-0.176c-0.09-0.018-0.183-0.061-0.236,0.014C19.153,27.067,17.656,27,17.64,27h-0.026
		l-0.04,0.087l-0.363,0.097L17,27.055v-0.231C17,25.83,18.208,25,19.204,25h0.169C20.367,25,21,25.83,21,26.823v0.399l-0.096-0.062
		C20.333,27.031,20.249,26.299,20.247,26.292 M17.406,27.762V28.7l-0.188-0.12c-0.119-0.077-0.191-0.208-0.191-0.35
		s0.072-0.272,0.191-0.349L17.406,27.762z M14.817,23.929L14.813,24h4.14l0.001-0.077c0.005,0.234,0.014,0.38,0.027,0.627
		l0.007,0.061l-0.077-0.008C17.803,24.762,17,25.702,17,26.823v0.686l-0.078,0.037c-0.209,0.168-0.344,0.418-0.344,0.685
		c0,0.462,0.352,0.848,0.813,0.878l0.078,0.006l0.023,0.078c0.131,0.401,0.243,0.74,0.609,0.955L18,30.183v0.353l-0.381,0.212
		l0.024,0.038C15.855,28.896,14.904,26.524,14.817,23.929 M21.202,31.536C21.037,31.874,21,32.251,21,32.661V34h-5v-1.021
		c0-1.073,0.873-1.388,0.91-1.4l0.028-0.005l1.414-0.553l0.77,0.748c0.044,0.043,0.103,0.066,0.165,0.066
		c0.065-0.002,0.125-0.027,0.168-0.072l0.729-0.756l1.051,0.412L21.202,31.536z M24,29.644l-1.795,0.768
		c-0.28,0.096-0.503,0.304-0.74,0.557l-0.147,0.061L20,30.536v-0.354l0.192-0.035c0.366-0.215,0.705-0.554,0.836-0.955l0.058-0.076
		l0.097-0.008c0.455-0.035,0.82-0.422,0.82-0.878c0-0.265,0.065-0.515-0.141-0.683L22,27.511v-0.688c0-1.171-1.092-2.164-2.259-2.26
		l-0.196-0.01l-0.05-0.105c-0.014-0.244-0.046-0.29-0.05-0.522L19.419,24h3.521l0.121-0.024C22.886,24.349,23,24.55,23,24.961v0.889
		l-0.251,0.036c-0.266,0.2-0.521,0.622-0.521,0.952c0,0.566,0.36,1.161,0.928,1.161h0.088l0.025-0.03
		c0.155,0.522,0.354,0.916,0.833,1.182L24,29.128V29.644z M21.179,28.706v-0.949l0.191,0.136c0.11,0.077,0.175,0.204,0.175,0.338
		s-0.065,0.261-0.175,0.339L21.179,28.706z M23.033,26.163l0.151-0.039v1.195l-0.151-0.037c-0.259-0.064-0.439-0.294-0.439-0.561
		C22.594,26.456,22.773,26.226,23.033,26.163 M26.174,29.88l-0.7,0.727l-0.68-0.662v-0.641l0.142,0.023
		c0.115,0.02,0.231,0.029,0.346,0.029h0.404c0.115,0,0.231-0.01,0.346-0.029l0.143-0.023V29.88z M25.686,29h-0.404
		C24.382,29,24,28.157,24,27.259v-1.363l-0.065-0.01c0.572-0.053,1.559-0.246,2.346-0.953l0.072-0.103l0.051,0.136
		c0.149,0.283,0.25,0.659,0.693,0.848L27,25.845v1.414C27,28.157,26.586,29,25.686,29 M29.583,31.03L29.45,30.97
		c-0.237-0.253-0.401-0.461-0.676-0.557L27,29.646v-0.518l-0.117-0.035c0.478-0.266,0.75-0.717,0.906-1.24l-0.021-0.084l0.066-0.004
		c0.559-0.015,1.004-0.482,1.004-1.043c0-0.328-0.339-0.631-0.603-0.832L28,25.854v-0.893c0-0.412,0.093-0.613-0.083-0.986
		L28.018,24h3.474l-0.003-0.073c-0.005,0.237-0.014,0.382-0.027,0.624l-0.006,0.054l-0.258-0.015C30.032,24.705,29,25.651,29,26.823
		v0.686l0.108,0.037c-0.208,0.168-0.251,0.418-0.251,0.685c0,0.462,0.4,0.85,0.861,0.879l0.102,0.006l0.034,0.077
		c0.131,0.402,0.563,0.74,0.928,0.955L31,30.183v0.353L29.583,31.03z M27.784,27.321v-1.199l0.154,0.045
		c0.248,0.07,0.421,0.299,0.421,0.555c0,0.258-0.173,0.486-0.421,0.557L27.784,27.321z M31.827,30h-0.322
		C30.811,30,30,29.353,30,28.659v-1.047l0.231-0.012c0.428-0.047,1.297-0.201,1.908-0.711l0.141-0.092l0.088,0.123
		c0.166,0.285,0.344,0.49,0.598,0.609L33,27.563v1.097C33,29.353,32.521,30,31.827,30 M32.171,30.354v0.383l-0.515,0.533
		l-0.495-0.482v-0.434l0.137,0.016c0.07,0.01,0.138,0.014,0.207,0.014h0.322c0.067,0,0.138-0.004,0.207-0.014L32.171,30.354z
		 M32.623,26.296c-0.021-0.091-0.093-0.162-0.182-0.18c-0.091-0.018-0.183-0.061-0.235,0.014C31.527,27.067,30.029,27,30.014,27
		h-0.025l-0.021,0.083l-0.04-0.067l0.021,0.13L29.9,27.21l0.1-0.155v-0.231C30,25.83,30.583,25,31.577,25h0.17
		C32.74,25,34,25.83,34,26.823v0.395l-0.409-0.057C33.039,27.034,32.63,26.325,32.623,26.296 M29.779,27.761V28.7l-0.187-0.12
		c-0.119-0.077-0.191-0.208-0.191-0.35s0.072-0.272,0.191-0.349L29.779,27.761z M34.05,31.578c0.033,0.013,0.95,0.323,0.95,1.4V34
		h-5v-1.339c0-0.408-0.076-0.785-0.239-1.121l-0.055-0.118l1.024-0.4l0.769,0.747c0.044,0.043,0.102,0.066,0.164,0.066
		c0.063-0.002,0.125-0.027,0.168-0.072l0.761-0.756L34.05,31.578z M36.093,23.929c-0.086,2.591-1.115,4.96-2.896,6.848l0.125,0.012
		L33,30.536v-0.354l-0.121-0.035c0.366-0.215,0.549-0.554,0.68-0.955l-0.02-0.076l0.058-0.008c0.455-0.035,0.8-0.422,0.8-0.878
		c0-0.265-0.131-0.515-0.338-0.683L34,27.511v-0.688c0-1.139-0.844-2.106-1.974-2.25l-0.107-0.014l0.008-0.113
		c0.014-0.248,0.023-0.294,0.028-0.524L31.958,24h4.14L36.093,23.929z M33.553,28.706v-0.951l0.191,0.139
		c0.109,0.078,0.175,0.204,0.175,0.337c0,0.134-0.065,0.26-0.175,0.339L33.553,28.706z M31.403,18.361
		c1.098-0.219,2.054-0.492,2.842-0.815l0.093-0.039l0.055,0.086c1.047,1.617,1.635,3.423,1.7,5.352L36.098,23h-4.14l-0.002-0.049
		c-0.029-1.584-0.246-3.065-0.646-4.473l-0.035-0.109L31.403,18.361z M26,12.736l-0.021,0.013c1.448,0.155,2.742,1.238,3.786,3.049
		c0.363,0.629,0.64,1.332,0.9,2.088l0.027,0.137l-0.151-0.193c-1.446,0.236-3.089,0.17-4.73,0.17H26V12.736z M26,18.901
		l-0.035-0.002c1.701-0.018,3.317-0.16,4.82-0.412l0.067-0.018l0.01,0.104c0.399,1.38,0.606,2.805,0.637,4.373L31.491,23h-3.809
		l-0.037,0.03c-0.479-0.53-0.979-0.818-1.689-0.872L26,22.183V18.901z M25.585,23C26.86,23,28,23.687,28,24.961v0.682l-0.315-0.191
		l-0.062-0.012c-0.732-0.166-0.979-1.088-0.987-1.127c-0.021-0.092-0.099-0.16-0.188-0.18c-0.091-0.017-0.186-0.199-0.238-0.126
		C25.344,25.205,23.437,25,23.417,25h-0.024l-0.028,0.101l0.015,0.229l-0.015,0.058l-0.05-0.085l0.033,0.13l-0.081,0.05
		l-0.233,0.188L23,25.404v-0.443C23,23.687,24.098,23,25.373,23H25.585z M25,13v5h0.1c-1.639,0-3.271,0.066-4.72-0.172l-0.142,0.085
		l0.047-0.081c0.26-0.756,0.576-1.297,0.939-1.928C22.268,14.092,23.53,13,24.977,13H25z M22.518,13.142l0.111,0.211
		c-0.672,0.551-1.281,1.295-1.809,2.213c-0.393,0.681-0.734,1.445-1.011,2.271l-0.033,0.102l-0.105-0.021
		c-1.025-0.2-1.924-0.45-2.675-0.743l-0.149-0.057l0.096-0.128C18.332,15.142,20.312,13.775,22.518,13.142"/>
	<path style="clip-path:url(#SVGID_2_);fill:#FFFFFF;" d="M42.707,32.808c-0.07-0.098-0.217-0.121-0.314-0.052
		c-1.76,1.255-2.447,2.398-2.52,2.524c-0.032,0.057-0.038,0.123-0.018,0.185c0.019,0.052,0.057,0.096,0.107,0.124l0.134,0.072
		l-0.147,0.038c-0.423,0.112-1.064,0.272-1.729,0.406c-1.025,0.207-1.508,0.635-1.785,1.584l-0.005,0.021l-1.938,1.381l-0.032-0.062
		c-0.042-0.081-0.084-0.157-0.126-0.228c-0.035-0.06-0.095-0.1-0.162-0.108c-0.027-0.003-0.056-0.005-0.086-0.005
		c-0.705,0-2.265,0.943-2.726,1.232c-0.055,0.035-0.091,0.086-0.102,0.146c-0.013,0.061,0.001,0.125,0.038,0.175l2.988,4.191
		c0.068,0.097,0.217,0.122,0.314,0.052l1.396-0.996c0.08-0.057,0.113-0.157,0.084-0.25c-0.007-0.02-0.029-0.093-0.066-0.209
		l-0.031-0.096l0.1,0.018c0.062,0.012,0.128,0.023,0.196,0.037l0.12,0.022c0.355,0.067,0.721,0.136,0.946,0.154
		c1.255,0.098,2.662,0.138,3.137,0.138c0.063,0,0.113,0,0.146-0.002c0.244-0.009,0.712-0.109,0.986-0.307
		c0.216-0.154,0.35-0.322,0.395-0.498l0.009-0.035l0.035-0.009c0.197-0.05,0.371-0.177,0.49-0.358
		c0.141-0.215,0.198-0.488,0.155-0.749l-0.008-0.047l0.044-0.019c0.205-0.09,0.381-0.258,0.494-0.475
		c0.111-0.209,0.145-0.437,0.094-0.641l-0.01-0.041l0.037-0.023c0.183-0.117,0.315-0.307,0.371-0.536
		c0.076-0.306-0.011-0.615-0.234-0.827l-0.028-0.027l0.234-0.625l0.065,0.049c0.086,0.064,0.158,0.123,0.215,0.168
		c0.076,0.063,0.191,0.065,0.271,0.008l1.397-0.996c0.101-0.073,0.125-0.213,0.052-0.314L42.707,32.808z M34.521,43.988
		l-2.718-3.812l0.056-0.033c0.74-0.445,1.679-0.925,2.106-0.997l0.043-0.007l0.021,0.037c0.605,1.111,1.346,3.342,1.559,3.999
		l0.014,0.042L34.521,43.988z M43.284,39.455c-0.042,0.169-0.165,0.297-0.293,0.306c-0.302-0.018-1.624-0.257-2.358-0.396
		c-0.126-0.023-0.241,0.06-0.264,0.18c-0.012,0.059,0,0.119,0.034,0.168c0.034,0.051,0.085,0.084,0.146,0.096l0.027,0.006
		c1.095,0.205,1.895,0.342,2.25,0.385l0.036,0.004l0.014,0.035c0.055,0.146-0.014,0.299-0.044,0.357
		c-0.111,0.213-0.302,0.314-0.418,0.299l-0.02-0.002c-0.442-0.023-1.676-0.27-1.958-0.329c-0.121-0.025-0.242,0.056-0.267,0.175
		c-0.014,0.059-0.002,0.118,0.031,0.169c0.032,0.05,0.083,0.084,0.142,0.097l0.012,0.004c0.291,0.059,1.285,0.258,1.838,0.317
		l0.043,0.007l0.01,0.041c0.04,0.162,0.011,0.34-0.078,0.475c-0.089,0.132-0.207,0.194-0.355,0.176l-0.014-0.002
		c-0.53-0.043-1.729-0.281-1.963-0.329c-0.124-0.024-0.241,0.058-0.266,0.177c-0.024,0.121,0.055,0.24,0.176,0.266
		c0.315,0.063,1.112,0.221,1.688,0.299l0.126,0.017l-0.093,0.088c-0.031,0.029-0.069,0.06-0.113,0.091
		c-0.167,0.119-0.529,0.217-0.742,0.223c-0.025,0.002-0.064,0.002-0.118,0.002c-0.476,0-1.878-0.039-3.112-0.137
		c-0.207-0.017-0.6-0.091-0.913-0.15c-0.228-0.043-0.461-0.086-0.606-0.106l-0.037-0.005l-0.012-0.035
		c-0.274-0.815-0.688-1.975-1.098-2.871l-0.021-0.047l1.588-1.132l-0.023,0.145c-0.088,0.53-0.063,1.454,0.365,1.829
		c0.175,0.151,0.277,0.195,0.514,0.121C37.767,40.269,38,39.789,38,39.077v-0.025l0.146-0.018c0.127-0.123,0.244-0.207,0.325-0.346
		c0.03-0.053,0.098-0.112,0.146-0.189l0.037-0.032l0.047,0.005c0.447,0.06,1.039,0.097,1.608,0.131
		c1.087,0.066,2.319,0.141,2.764,0.386C43.332,39.13,43.308,39.362,43.284,39.455 M43.059,38.492l-0.055-0.094
		C42.384,38.199,41.345,38,40.34,38h-0.014c-0.662,0-1.289-0.003-1.726-0.075c-0.088-0.016-0.173,0.061-0.223,0.132
		c-0.106,0.154-0.169,0.279-0.22,0.365l-0.013,0.029c-0.081,0.138-0.11,0.194-0.263,0.328c-0.051,0.044-0.079,0.111-0.077,0.179
		c0.025,0.86-0.501,1.022-0.674,1.074c-0.034,0.011-0.064,0.018-0.092,0.018c-0.06,0-0.096-0.026-0.119-0.047
		c-0.212-0.187-0.314-0.849-0.218-1.422c0.218-1.305,0.493-1.809,1.606-2.033c1.044-0.211,2.035-0.484,2.314-0.564l0.025-0.008
		l0.023,0.015c0.762,0.479,1.886,1.263,2.606,1.788l0.037,0.027L43.059,38.492z M44.122,37.845l-0.036-0.027
		c-0.742-0.568-2.734-1.977-3.631-2.482l-0.061-0.033l0.04-0.055c0.272-0.378,0.893-1.135,1.987-1.955l0.05-0.037l2.726,3.822
		L44.122,37.845z"/>
	<path style="clip-path:url(#SVGID_2_);fill:#FFFFFF;" d="M27.748,42.894l0.286-0.623c0.055-0.117,0.006-0.25-0.11-0.303
		l-1.873-0.866c-0.116-0.054-0.25-0.005-0.304,0.111l-0.29,0.628l-1.589-0.734c-0.117-0.054-0.25-0.005-0.304,0.111l-1.702,3.686
		c-0.047,0.112,0.003,0.247,0.114,0.299l5.462,2.523c0.116,0.054,0.25,0.004,0.304-0.111l1.702-3.687
		c0.055-0.116,0.005-0.249-0.111-0.304L27.748,42.894z M26.066,41.612l1.457,0.674l-0.192,0.42l-1.458-0.674L26.066,41.612z
		 M27.427,47.217l-5.052-2.335l0.66-1.427l1.381,0.638l-0.107,0.234c-0.054,0.115-0.004,0.249,0.112,0.303
		c0.116,0.053,0.249,0.004,0.303-0.111l0.108-0.233l1.458,0.674l-0.108,0.232c-0.054,0.116-0.005,0.25,0.112,0.304
		c0.116,0.054,0.249,0.005,0.303-0.111l0.108-0.233l1.382,0.639L27.427,47.217z M28.269,45.37l-1.373-0.635l0.115-0.248
		c0.054-0.117,0.005-0.25-0.112-0.303c-0.116-0.055-0.249-0.006-0.303,0.111l-0.115,0.248l-1.457-0.674l0.114-0.248
		c0.054-0.116,0.005-0.25-0.111-0.303c-0.117-0.055-0.25-0.006-0.304,0.111l-0.115,0.247l-1.382-0.638l0.66-1.428l1.539,0.711
		c0.013,0.012,0.027,0.02,0.043,0.025c0.015,0.008,0.03,0.016,0.048,0.018l1.782,0.822c0.013,0.012,0.027,0.02,0.043,0.026
		c0.015,0.007,0.031,0.015,0.048,0.017l1.539,0.71L28.269,45.37z"/>
	<path style="clip-path:url(#SVGID_2_);fill:#FFFFFF;" d="M8,39.216v-2.748c0-0.438-0.062-0.795-0.5-0.795S7,36.029,7,36.468v5.001
		c0,0.051-0.005,0.101,0.025,0.14L9,44.161v1.74C9,46.026,8.731,46,8.857,46h2.045C11.028,46,11,46.026,11,45.901v-3.637
		c0-0.061-0.047-0.118-0.089-0.161L8,39.216z M11,46H9v-1.917c0-0.051,0.006-0.1-0.025-0.141L7,41.39v-4.922
		c0-0.188,0.312-0.341,0.5-0.341S8,36.28,8,36.468v2.842c0,0.061-0.116,0.118-0.073,0.16l0.259,0.33
		c-0.36,0.106-0.658,0.44-0.658,0.834c0,0.232,0.073,0.451,0.238,0.615l1.393,1.403l0.318-0.321l-1.406-1.403
		c-0.078-0.079-0.123-0.183-0.123-0.294c0-0.229,0.186-0.415,0.416-0.415c0.11,0,0.377,0.043,0.455,0.12L11,42.358V46z"/>
	<path style="clip-path:url(#SVGID_2_);fill:#FFFFFF;" d="M19.5,35.673c-0.438,0-0.5,0.356-0.5,0.795v2.748l-2.911,2.889
		C16.047,42.146,16,42.203,16,42.265v3.637C16,46.026,15.777,46,15.903,46h2.045C18.074,46,18,46.026,18,45.901V44.16l1.974-2.552
		C20.005,41.569,20,41.52,20,41.469v-5.001C20,36.029,19.938,35.673,19.5,35.673 M20,41.39l-1.975,2.553
		C17.994,43.983,18,44.032,18,44.083V46h-2v-3.642l2.084-2.02c0.078-0.077,0.215-0.12,0.325-0.12c0.23,0,0.433,0.187,0.433,0.415
		c0,0.11-0.036,0.215-0.115,0.294l-1.398,1.403l0.324,0.321l1.403-1.403c0.165-0.164,0.256-0.383,0.256-0.615
		c0-0.394-0.264-0.728-0.624-0.834l0.288-0.33C19.019,39.428,19,39.369,19,39.31v-2.842c0-0.188,0.313-0.341,0.5-0.341
		c0.188,0,0.5,0.153,0.5,0.341V41.39z"/>
	<rect x="16.357" y="32.491" style="clip-path:url(#SVGID_2_);fill:#FFFFFF;" width="0.454" height="0.454"/>
	<rect x="17.267" y="32.491" style="clip-path:url(#SVGID_2_);fill:#FFFFFF;" width="0.455" height="0.454"/>
	<rect x="9.084" y="32.491" style="clip-path:url(#SVGID_2_);fill:#FFFFFF;" width="0.455" height="0.454"/>
	<rect x="9.993" y="32.491" style="clip-path:url(#SVGID_2_);fill:#FFFFFF;" width="0.455" height="0.454"/>
	<rect x="10.902" y="32.491" style="clip-path:url(#SVGID_2_);fill:#FFFFFF;" width="0.455" height="0.454"/>
	<path style="clip-path:url(#SVGID_2_);fill:#FFFFFF;" d="M13,41.354c1.657,0,3-0.699,3-1.59v-4.092c0-0.853-1-1.524-2-1.586V33h1
		v-1h-3v1h1v1.087c-1,0.062-3,0.733-3,1.586v4.092C10,40.655,11.343,41.354,13,41.354 M13,34.542V35v1h1v-1v-0.458
		c1,0.059,2.088,0.621,2.088,1.131c0,0.537-1.12,1.137-2.593,1.137c-1.473,0-2.634-0.6-2.634-1.137
		C10.861,35.163,12,34.601,13,34.542 M11,36.528c0,0.445,1.434,0.735,2.5,0.735s1.5-0.29,2.5-0.735v0.508
		c0,0.538-1.027,1.137-2.5,1.137S11,37.574,11,37.036V36.528z M11,37.894c0,0.443,1.434,0.734,2.5,0.734s1.5-0.291,2.5-0.734v0.506
		c0,0.539-1.027,1.137-2.5,1.137S11,38.938,11,38.399V37.894z M11,39.257c0,0.444,1.434,0.734,2.5,0.734s1.5-0.29,2.5-0.734v0.508
		c0,0.537-1.027,1.137-2.5,1.137s-2.5-0.6-2.5-1.137V39.257z"/>
	<rect x="13.176" y="41.81" style="clip-path:url(#SVGID_2_);fill:#FFFFFF;" width="0.454" height="0.455"/>
	<rect x="13.176" y="42.72" style="clip-path:url(#SVGID_2_);fill:#FFFFFF;" width="0.454" height="0.453"/>
	<rect x="14.084" y="42.72" style="clip-path:url(#SVGID_2_);fill:#FFFFFF;" width="0.455" height="0.453"/>
	<rect x="12.266" y="42.72" style="clip-path:url(#SVGID_2_);fill:#FFFFFF;" width="0.455" height="0.453"/>
	<rect x="13.176" y="43.628" style="clip-path:url(#SVGID_2_);fill:#FFFFFF;" width="0.454" height="0.455"/>
	<rect x="13.176" y="44.537" style="clip-path:url(#SVGID_2_);fill:#FFFFFF;" width="0.454" height="0.455"/>
	<rect x="13.176" y="45.446" style="clip-path:url(#SVGID_2_);fill:#FFFFFF;" width="0.454" height="0.455"/>
</g>
</svg>
