<?xml version="1.0" encoding="iso-8859-1"?>
<!-- Generator: Adobe Illustrator 15.1.0, SVG Export Plug-In . SVG Version: 6.00 Build 0)  -->
<!DOCTYPE svg PUBLIC "-//W3C//DTD SVG 1.1//EN" "http://www.w3.org/Graphics/SVG/1.1/DTD/svg11.dtd">
<svg version="1.1" id="Layer_1" xmlns="http://www.w3.org/2000/svg" xmlns:xlink="http://www.w3.org/1999/xlink" x="0px" y="0px"
	 width="50px" height="50px" viewBox="0 0 50 50" style="enable-background:new 0 0 50 50;" xml:space="preserve">
<path style="fill:#FFFFFF;" d="M25.715,46.045l0.623-0.03l0.03,0.622l-0.622,0.028L25.715,46.045z M27.186,45.943l0.619-0.072
	l0.072,0.617l-0.309,0.037l-0.311,0.036L27.186,45.943z M21.525,46.405l-0.307-0.05l0.097-0.614l0.615,0.099l-0.098,0.614
	L21.525,46.405z M28.646,45.743l0.611-0.117l0.115,0.613l-0.61,0.115L28.646,45.743z M20.035,46.114l-0.302-0.073l0.141-0.605
	l0.606,0.141l-0.14,0.607L20.035,46.114z M30.087,45.441l0.604-0.156l0.156,0.603l-0.604,0.157L30.087,45.441z M18.57,45.72
	L18.57,45.72l-0.297-0.092l0.183-0.595l0.596,0.182l-0.184,0.597L18.57,45.72z M31.505,45.043l0.591-0.195l0.197,0.59l-0.59,0.196
	L31.505,45.043z M17.136,45.225l-0.289-0.111l0.222-0.58l0.583,0.224l-0.224,0.581L17.136,45.225z M32.894,44.55l0.574-0.238
	l0.238,0.576l-0.575,0.236L32.894,44.55z M15.742,44.635L15.742,44.635l-0.283-0.133l0.263-0.563l0.564,0.262l-0.263,0.565
	L15.742,44.635z M34.241,43.961l0.279-0.139l0.278-0.14l0.277,0.558l-0.279,0.14l-0.279,0.139L34.241,43.961z M14.389,43.948
	l-0.273-0.15l0.302-0.546l0.273,0.15l0.273,0.15l-0.302,0.546L14.389,43.948z M35.546,43.279l0.536-0.315l0.315,0.537l-0.537,0.314
	L35.546,43.279z M13.089,43.17L13.089,43.17l-0.262-0.169l0.337-0.523l0.262,0.17h-0.001l0.263,0.167l-0.337,0.524L13.089,43.17z
	 M36.799,42.509l0.515-0.351l0.351,0.513l-0.513,0.353L36.799,42.509z M37.996,41.655l0.489-0.388l0.387,0.489l-0.244,0.193h-0.001
	l-0.244,0.193L37.996,41.655z M39.135,40.718l0.461-0.418l0.418,0.461l-0.46,0.419L39.135,40.718z M40.204,39.707l0.432-0.449
	l0.447,0.431l-0.431,0.449L40.204,39.707z M41.2,38.624l0.201-0.24l0.199-0.237l0.478,0.398l-0.398,0.479L41.2,38.624z
	 M42.122,37.475l0.366-0.505l0.504,0.366l-0.365,0.504L42.122,37.475z M42.963,36.267l0.33-0.529l0.528,0.331l-0.33,0.527
	L42.963,36.267z M43.72,35.002l0.294-0.551l0.549,0.292l-0.147,0.276l-0.146,0.275L43.72,35.002z M44.387,33.688l0.256-0.568
	l0.567,0.254l-0.255,0.568L44.387,33.688z M4.558,32.813l-0.115-0.29l0.58-0.231l0.229,0.581l-0.579,0.229L4.558,32.813z
	 M44.962,32.331l0.216-0.584l0.585,0.215l-0.107,0.292l-0.107,0.292L44.962,32.331z M4.048,31.385l-0.094-0.297l0.594-0.188
	l0.094,0.296l0.095,0.297l-0.594,0.189L4.048,31.385z M45.443,30.939l0.174-0.6l0.598,0.175l-0.174,0.597L45.443,30.939z
	 M3.638,29.927l-0.073-0.304l0.605-0.147l0.148,0.605l-0.606,0.148L3.638,29.927z M45.826,29.516l0.133-0.608l0.609,0.133
	l-0.133,0.606L45.826,29.516z M3.335,28.477H3.333l-0.057-0.342h0.002l-0.044-0.272l0.615-0.1l0.147,0.881l-0.613,0.105
	L3.335,28.477z M46.11,28.069l0.09-0.616l0.617,0.09l-0.091,0.616L46.11,28.069z M3.094,26.665l-0.028-0.31l0.62-0.056l0.056,0.62
	l-0.619,0.057L3.094,26.665z M46.292,26.608l0.047-0.621l0.621,0.045l-0.046,0.622L46.292,26.608z M3.007,25.153L3,24.842
	l0.623-0.015l0.014,0.622l-0.622,0.015L3.007,25.153z M46.373,25.137l0.004-0.622L47,24.519l-0.004,0.622L46.373,25.137z
	 M3.01,23.95l0.015-0.312h0.001l0.014-0.311l0.622,0.028l-0.015,0.312l-0.014,0.311L3.01,23.95z M46.332,23.354l-0.02-0.31
	l0.622-0.039l0.04,0.62l-0.622,0.041L46.332,23.354z M3.112,22.437l0.072-0.618l0.619,0.071L3.767,22.2l-0.036,0.308L3.112,22.437z
	 M46.189,21.888L46.189,21.888l-0.041-0.308l0.617-0.081l0.082,0.617l-0.617,0.082L46.189,21.888z M3.319,20.933l0.114-0.611
	l0.612,0.115L3.93,21.048L3.319,20.933z M45.946,20.435v0.002l-0.063-0.307l0.612-0.124l0.062,0.308l0.061,0.305l-0.61,0.124
	L45.946,20.435z M3.629,19.447l0.078-0.301l0.079-0.301l0.602,0.156l-0.08,0.302L4.23,19.604L3.629,19.447z M4.042,17.988
	l0.197-0.59l0.592,0.197l-0.2,0.593L4.042,17.988z M4.552,16.561l0.239-0.574l0.575,0.238L5.129,16.8L4.552,16.561z M44.633,16.225
	L44.633,16.225l-0.123-0.285l0.573-0.246l0.245,0.571l-0.572,0.247L44.633,16.225z M5.162,15.171l0.278-0.555l0.557,0.277
	l-0.279,0.557L5.162,15.171z M44.006,14.894L44.006,14.894l-0.142-0.276l0.553-0.285l0.285,0.552l-0.555,0.285L44.006,14.894z
	 M5.864,13.831l0.315-0.538l0.537,0.316l-0.315,0.537L5.864,13.831z M43.288,13.609l-0.162-0.266l0.533-0.322l0.323,0.531
	l-0.533,0.323L43.288,13.609z M6.658,12.539l0.351-0.514l0.515,0.35l-0.351,0.514L6.658,12.539z M42.482,12.378l-0.179-0.254
	l0.508-0.36l0.359,0.51l-0.51,0.357L42.482,12.378z M7.538,11.305l0.385-0.489l0.489,0.386L8.027,11.69L7.538,11.305z
	 M41.593,11.206L41.593,11.206l-0.196-0.242l0.482-0.392l0.395,0.483l-0.483,0.394L41.593,11.206z M8.5,10.133l0.209-0.23H8.708
	l0.209-0.23l0.463,0.416l-0.419,0.462L8.5,10.133z M40.625,10.098L40.625,10.098L40.412,9.87l0.455-0.425l0.213,0.227l0.213,0.228
	l-0.455,0.425L40.625,10.098z M9.541,9.033L9.988,8.6l0.433,0.449L9.971,9.48L9.541,9.033z M39.584,9.056l-0.228-0.211l0.424-0.456
	l0.455,0.425L39.811,9.27L39.584,9.056z M10.652,8.002l0.479-0.399l0.4,0.477l-0.479,0.4L10.652,8.002z M38.472,8.09L38.23,7.895
	l0.392-0.483l0.484,0.392l-0.393,0.483L38.472,8.09z M37.297,7.202L37.297,7.202l-0.254-0.178l0.359-0.51l0.253,0.18V6.692
	l0.256,0.18L37.553,7.38L37.297,7.202z M36.064,6.396l-0.267-0.161l0.323-0.532l0.531,0.323L36.33,6.558L36.064,6.396z
	 M14.377,5.414l0.55-0.292l0.292,0.548L14.67,5.962L14.377,5.414z M34.779,5.678L34.779,5.678l-0.277-0.143l0.286-0.553l0.553,0.285
	l-0.284,0.553L34.779,5.678z M15.73,4.728l0.284-0.127l0.284-0.127l0.254,0.569l-0.568,0.253L15.73,4.728z M33.446,5.046
	l-0.285-0.123l0.247-0.572l0.572,0.247L33.733,5.17L33.446,5.046z M17.126,4.138l0.584-0.215l0.214,0.586L17.34,4.724L17.126,4.138z
	 M32.075,4.509l-0.294-0.103l0.207-0.587l0.588,0.207l-0.207,0.587L32.075,4.509z M18.558,3.646l0.599-0.173l0.173,0.599
	l-0.599,0.173L18.558,3.646z M30.669,4.07l-0.301-0.084l0.166-0.599l0.601,0.165l-0.165,0.6L30.669,4.07z M20.023,3.254l0.608-0.131
	l0.132,0.608l-0.609,0.131L20.023,3.254z M29.235,3.728l-0.305-0.062l0.123-0.61l0.61,0.123L29.541,3.79L29.235,3.728z M21.51,2.962
	l0.308-0.044l0.308-0.045l0.09,0.616L21.6,3.581L21.51,2.962z M27.782,3.486l-0.309-0.041l0.081-0.617l0.617,0.081L28.09,3.526
	L27.782,3.486z M23.013,2.774l0.622-0.049l0.047,0.622l-0.62,0.048L23.013,2.774z M26.316,3.346l-0.311-0.018l0.037-0.622
	l0.311,0.019h0.001l0.311,0.018l-0.037,0.622L26.316,3.346z M24.527,2.687l0.623-0.005l0.006,0.623l-0.624,0.006L24.527,2.687z"/>
<g>
	<defs>
		<rect id="SVGID_1_" width="50" height="50"/>
	</defs>
	<clipPath id="SVGID_2_">
		<use xlink:href="#SVGID_1_"  style="overflow:visible;"/>
	</clipPath>
	<path style="clip-path:url(#SVGID_2_);fill:#FFFFFF;" d="M28.056,20.633c1.069,0,1.939,0.868,1.939,1.931
		c-0.001,0.006-0.002,0.025-0.002,0.032c0,0.082,0.036,0.159,0.099,0.212c0.063,0.053,0.144,0.075,0.225,0.061
		c0.084-0.013,0.16-0.021,0.233-0.021c0.762,0,1.384,0.621,1.384,1.385c0,0.762-0.622,1.383-1.384,1.383h-2.405
		c0.053,0.13,0.083,0.271,0.083,0.421c0,0.045-0.004,0.09-0.009,0.134h2.331c1.069,0,1.938-0.87,1.938-1.938
		c0-1.069-0.868-1.939-1.938-1.939h-0.016c-0.14-1.245-1.197-2.216-2.479-2.216c-0.526,0-1.023,0.163-1.433,0.454v0.735
		C26.983,20.866,27.498,20.633,28.056,20.633"/>
	<path style="clip-path:url(#SVGID_2_);fill:#FFFFFF;" d="M26.1,25.616h-2.198c-0.48,0-0.905-0.246-1.154-0.618h-0.627
		c0.298,0.688,0.984,1.173,1.781,1.173h2.123c-0.005-0.044-0.008-0.089-0.008-0.134C26.017,25.887,26.047,25.746,26.1,25.616"/>
	<rect x="30.271" y="23.4" style="clip-path:url(#SVGID_2_);fill:#FFFFFF;" width="0.555" height="0.556"/>
	<rect x="30.271" y="24.51" style="clip-path:url(#SVGID_2_);fill:#FFFFFF;" width="0.555" height="0.554"/>
	<rect x="29.163" y="24.51" style="clip-path:url(#SVGID_2_);fill:#FFFFFF;" width="0.555" height="0.554"/>
	<path style="clip-path:url(#SVGID_2_);fill:#FFFFFF;" d="M25.563,21.74c-0.32,0-0.597,0.182-0.736,0.446
		c0.364-0.07,0.694-0.213,0.969-0.408C25.72,21.754,25.642,21.74,25.563,21.74"/>
	<path style="clip-path:url(#SVGID_2_);fill:#FFFFFF;" d="M17.256,24.445c-1.24,0-2.249-0.786-2.249-1.751v-1.405
		c0.511,0.569,1.325,0.944,2.249,0.944h6.965c0.053-0.21,0.153-0.401,0.289-0.56c-0.06,0.004-0.122,0.007-0.185,0.007h-7.069
		c-1.24,0-2.249-0.786-2.249-1.751v-1.404c0.511,0.569,1.325,0.943,2.249,0.943h7.069c0.702,0,1.323-0.267,1.744-0.676v1.543
		c0,0.325-0.15,0.623-0.399,0.855c0.094,0.007,0.188,0.025,0.278,0.053c0.178-0.284,0.409-0.524,0.674-0.711v-2.963
		c0-0.815-0.626-1.527-1.545-1.789c-0.226-1.669-1.951-2.948-4.033-2.948c-1.638,0-3.113,0.809-3.743,2.027
		c-0.015,0-0.03-0.001-0.045-0.001c-1.544,0-2.801,1.035-2.801,2.306v5.53c0,1.271,1.257,2.304,2.801,2.304h4.864
		c-0.074-0.173-0.124-0.357-0.146-0.553H17.256z M17.256,15.413c0.041,0,0.081,0.003,0.121,0.007l0.072,0.007
		c0.123,0.008,0.228-0.059,0.274-0.166c0.487-1.121,1.821-1.876,3.321-1.876c1.874,0,3.413,1.158,3.501,2.634
		c0.008,0.124,0.098,0.229,0.221,0.254c0.767,0.157,1.303,0.689,1.303,1.296c0,0.742-0.782,1.346-1.744,1.346h-7.069
		c-1.24,0-2.249-0.785-2.249-1.751S16.016,15.413,17.256,15.413"/>
	<path style="clip-path:url(#SVGID_2_);fill:#FFFFFF;" d="M26.623,23.101v-1.834c-0.119,0.133-0.223,0.281-0.305,0.448
		c-0.033,0.066-0.091,0.116-0.162,0.14c-0.027,0.01-0.058,0.013-0.088,0.013v1.233c0,0.74-0.78,1.345-1.743,1.345h-1.791
		c0.031,0.202,0.105,0.39,0.213,0.552h1.578C25.593,24.998,26.623,24.146,26.623,23.101"/>
	<path style="clip-path:url(#SVGID_2_);fill:#FFFFFF;" d="M22.535,24.445h-0.56c0.022,0.195,0.072,0.38,0.146,0.553h0.627
		C22.639,24.836,22.566,24.647,22.535,24.445"/>
	<path style="clip-path:url(#SVGID_2_);fill:#FFFFFF;" d="M25.948,21.243c-0.091-0.028-0.185-0.046-0.278-0.053
		c-0.283,0.265-0.695,0.445-1.16,0.483c-0.136,0.159-0.236,0.35-0.289,0.56h0.104c0.173,0,0.341-0.016,0.502-0.047
		c0.139-0.264,0.416-0.446,0.736-0.446c0.078,0,0.155,0.014,0.233,0.038c0.098-0.069,0.19-0.141,0.272-0.223v0.312
		c0.029,0,0.059-0.003,0.087-0.013c0.071-0.023,0.129-0.074,0.163-0.139c0.082-0.167,0.184-0.316,0.303-0.449v-0.734
		C26.357,20.719,26.126,20.959,25.948,21.243"/>
	<path style="clip-path:url(#SVGID_2_);fill:#FFFFFF;" d="M16.391,19.744c-0.153,0-0.276,0.124-0.276,0.277v0.553
		c0,0.153,0.123,0.275,0.276,0.275s0.277-0.122,0.277-0.275v-0.553C16.667,19.868,16.543,19.744,16.391,19.744"/>
	<path style="clip-path:url(#SVGID_2_);fill:#FFFFFF;" d="M17.497,20.021c-0.153,0-0.276,0.124-0.276,0.276v0.552
		c0,0.153,0.123,0.277,0.276,0.277s0.277-0.124,0.277-0.277v-0.552C17.773,20.146,17.649,20.021,17.497,20.021"/>
	<path style="clip-path:url(#SVGID_2_);fill:#FFFFFF;" d="M18.603,20.021c-0.152,0-0.276,0.124-0.276,0.276v0.552
		c0,0.153,0.124,0.277,0.276,0.277c0.153,0,0.277-0.124,0.277-0.277v-0.552C18.879,20.146,18.755,20.021,18.603,20.021"/>
	<path style="clip-path:url(#SVGID_2_);fill:#FFFFFF;" d="M24.963,20.574c0-0.306-0.248-0.553-0.553-0.553
		c-0.306,0-0.554,0.247-0.554,0.553c0,0.305,0.248,0.553,0.554,0.553C24.715,21.127,24.963,20.879,24.963,20.574"/>
	<path style="clip-path:url(#SVGID_2_);fill:#FFFFFF;" d="M22.75,20.021c-0.305,0-0.553,0.247-0.553,0.553
		c0,0.304,0.248,0.552,0.553,0.552c0.306,0,0.554-0.248,0.554-0.552C23.305,20.269,23.057,20.021,22.75,20.021"/>
	<path style="clip-path:url(#SVGID_2_);fill:#FFFFFF;" d="M16.391,22.51c-0.153,0-0.276,0.124-0.276,0.277v0.552
		c0,0.152,0.123,0.276,0.276,0.276s0.277-0.124,0.277-0.276v-0.552C16.667,22.634,16.543,22.51,16.391,22.51"/>
	<path style="clip-path:url(#SVGID_2_);fill:#FFFFFF;" d="M17.497,22.787c-0.153,0-0.276,0.123-0.276,0.275v0.553
		c0,0.153,0.123,0.276,0.276,0.276s0.277-0.123,0.277-0.276v-0.553C17.773,22.91,17.649,22.787,17.497,22.787"/>
	<path style="clip-path:url(#SVGID_2_);fill:#FFFFFF;" d="M18.603,22.787c-0.152,0-0.276,0.123-0.276,0.275v0.553
		c0,0.153,0.124,0.276,0.276,0.276c0.153,0,0.277-0.123,0.277-0.276v-0.553C18.879,22.91,18.755,22.787,18.603,22.787"/>
	<path style="clip-path:url(#SVGID_2_);fill:#FFFFFF;" d="M24.371,22.933c-0.081-0.029-0.163-0.052-0.245-0.064
		c-0.161,0.095-0.27,0.27-0.27,0.47c0,0.306,0.248,0.553,0.554,0.553c0.305,0,0.553-0.247,0.553-0.553
		c0-0.21-0.119-0.39-0.292-0.483c-0.011,0.013-0.023,0.025-0.036,0.035C24.56,22.949,24.46,22.963,24.371,22.933"/>
	<path style="clip-path:url(#SVGID_2_);fill:#FFFFFF;" d="M24.126,22.868c0.083,0.013,0.165,0.035,0.245,0.064
		c0.089,0.032,0.189,0.016,0.264-0.042c0.013-0.009,0.025-0.022,0.036-0.035c-0.078-0.043-0.166-0.068-0.261-0.068
		C24.306,22.787,24.209,22.816,24.126,22.868"/>
	<path style="clip-path:url(#SVGID_2_);fill:#FFFFFF;" d="M22.569,23.858c0.057,0.021,0.117,0.033,0.181,0.033
		c0.306,0,0.554-0.247,0.554-0.553c0-0.112-0.035-0.216-0.093-0.304C22.902,23.213,22.667,23.506,22.569,23.858"/>
	<path style="clip-path:url(#SVGID_2_);fill:#FFFFFF;" d="M22.583,22.816c-0.211,0.066-0.365,0.256-0.381,0.484
		C22.302,23.12,22.432,22.957,22.583,22.816"/>
	<path style="clip-path:url(#SVGID_2_);fill:#FFFFFF;" d="M22.75,22.787c-0.059,0-0.115,0.012-0.167,0.029
		c-0.151,0.14-0.281,0.303-0.382,0.485c-0.001,0.012-0.004,0.024-0.004,0.038c0,0.242,0.156,0.444,0.372,0.519
		c0.098-0.351,0.332-0.644,0.642-0.824C23.111,22.885,22.942,22.787,22.75,22.787"/>
	<path style="clip-path:url(#SVGID_2_);fill:#FFFFFF;" d="M27.306,31.224v-2.238h-0.368v2.238c-0.316,0.081-0.553,0.367-0.553,0.711
		c0,0.056,0.009,0.109,0.021,0.163l-1.766,0.964l0.175,0.323l1.762-0.961c0.135,0.151,0.329,0.247,0.546,0.247
		c0.407,0,0.737-0.331,0.737-0.736C27.859,31.591,27.623,31.305,27.306,31.224 M27.122,32.302c-0.204,0-0.369-0.166-0.369-0.367
		c0-0.203,0.165-0.369,0.369-0.369c0.203,0,0.369,0.166,0.369,0.369C27.491,32.136,27.325,32.302,27.122,32.302"/>
	<path style="clip-path:url(#SVGID_2_);fill:#FFFFFF;" d="M32.542,33.408l1.29-1.291h-3.029c0.004-0.062,0.006-0.124,0.006-0.183
		c0-2.033-1.654-3.687-3.687-3.687s-3.686,1.653-3.686,3.687c0,2.03,1.653,3.685,3.686,3.685c1.071,0,2.069-0.462,2.765-1.255v1.7
		l1.29-1.29l1.474,1.474l1.366-1.366L32.542,33.408z M29.887,33.76c-0.619,0.934-1.647,1.49-2.765,1.49
		c-1.829,0-3.318-1.488-3.318-3.315c0-1.829,1.489-3.317,3.318-3.317c1.828,0,3.317,1.488,3.317,3.317
		c0,0.058-0.007,0.121-0.01,0.183h-0.543V33.76z M31.177,34.252l-0.923,0.922v-2.688h2.689l-0.922,0.923l1.474,1.474l-0.845,0.845
		L31.177,34.252z"/>
	<rect x="30.992" y="30.645" style="clip-path:url(#SVGID_2_);fill:#FFFFFF;" width="0.368" height="0.737"/>
	
		<rect x="29.113" y="31.531" transform="matrix(-0.7071 -0.7071 0.7071 -0.7071 27.903 74.9875)" style="clip-path:url(#SVGID_2_);fill:#FFFFFF;" width="0.737" height="0.368"/>
	<rect x="28.412" y="33.224" style="clip-path:url(#SVGID_2_);fill:#FFFFFF;" width="0.737" height="0.368"/>
	
		<rect x="29.298" y="34.733" transform="matrix(-0.7084 -0.7058 0.7058 -0.7084 25.5943 80.7755)" style="clip-path:url(#SVGID_2_);fill:#FFFFFF;" width="0.368" height="0.737"/>
	<rect x="30.992" y="35.435" style="clip-path:url(#SVGID_2_);fill:#FFFFFF;" width="0.368" height="0.737"/>
	<rect x="33.204" y="33.224" style="clip-path:url(#SVGID_2_);fill:#FFFFFF;" width="0.737" height="0.368"/>
	
		<rect x="32.502" y="31.529" transform="matrix(-0.7084 0.7058 -0.7058 -0.7084 78.5385 30.9823)" style="clip-path:url(#SVGID_2_);fill:#FFFFFF;" width="0.736" height="0.369"/>
	<path style="clip-path:url(#SVGID_2_);fill:#FFFFFF;" d="M27.122,35.987c-2.236,0-4.055-1.818-4.055-4.053
		c0-2.236,1.819-4.055,4.055-4.055c1.629,0,3.094,0.969,3.732,2.467l0.338-0.144c-0.598-1.405-1.862-2.382-3.333-2.628v-0.716
		c0.194-0.175,0.326-0.416,0.359-0.688h-0.372c-0.063,0.343-0.364,0.604-0.725,0.604s-0.661-0.261-0.725-0.604h-0.373
		c0.034,0.272,0.166,0.514,0.361,0.688v0.715c-2.089,0.352-3.687,2.172-3.687,4.36c0,2.438,1.984,4.421,4.423,4.421
		c0.673,0,1.319-0.147,1.923-0.439l-0.16-0.333C28.331,35.853,27.738,35.987,27.122,35.987 M26.753,27.079
		c0.116,0.04,0.239,0.064,0.369,0.064s0.253-0.024,0.368-0.064v0.449c-0.122-0.01-0.245-0.017-0.368-0.017
		c-0.125,0-0.247,0.007-0.369,0.017V27.079z"/>
	<path style="clip-path:url(#SVGID_2_);fill:#FFFFFF;" d="M27.122,25.3c0.25,0,0.471,0.126,0.604,0.316h0.418
		c-0.166-0.402-0.562-0.685-1.022-0.685c-0.46,0-0.856,0.282-1.021,0.685h0.418C26.651,25.426,26.872,25.3,27.122,25.3"/>
	<path style="clip-path:url(#SVGID_2_);fill:#FFFFFF;" d="M28.145,25.616h-0.418c0.084,0.119,0.133,0.265,0.133,0.421
		c0,0.045-0.005,0.09-0.013,0.134h0.372c0.006-0.044,0.009-0.089,0.009-0.134C28.228,25.887,28.197,25.746,28.145,25.616"/>
	<path style="clip-path:url(#SVGID_2_);fill:#FFFFFF;" d="M26.386,26.037c0-0.156,0.049-0.302,0.132-0.421H26.1
		c-0.054,0.13-0.083,0.271-0.083,0.421c0,0.045,0.003,0.09,0.009,0.134h0.372C26.391,26.127,26.386,26.082,26.386,26.037"/>
	<path style="clip-path:url(#SVGID_2_);fill:#FFFFFF;" d="M46.662,18.434v-0.419c-0.431-0.031-0.775-0.376-0.806-0.807h-0.42
		c-0.03,0.431-0.376,0.776-0.806,0.807v0.419c0.43,0.03,0.775,0.376,0.806,0.806h0.42C45.887,18.81,46.231,18.463,46.662,18.434
		 M45.962,18.273c-0.102,0.075-0.19,0.165-0.265,0.266l-0.051,0.066l-0.05-0.066c-0.074-0.101-0.164-0.19-0.265-0.266l-0.067-0.05
		l0.067-0.05c0.101-0.075,0.189-0.165,0.265-0.265l0.05-0.068l0.051,0.068c0.074,0.101,0.164,0.19,0.265,0.265l0.067,0.05
		L45.962,18.273z"/>
	<path style="clip-path:url(#SVGID_2_);fill:#FFFFFF;" d="M14.404,6.906V6.345c-0.628-0.058-1.13-0.559-1.189-1.188h-0.56
		c-0.059,0.629-0.561,1.13-1.19,1.188v0.561c0.629,0.059,1.131,0.561,1.19,1.189h0.56C13.274,7.467,13.776,6.965,14.404,6.906
		 M13.42,6.726c-0.146,0.108-0.275,0.238-0.385,0.385l-0.101,0.135l-0.1-0.135c-0.109-0.147-0.238-0.277-0.384-0.385l-0.134-0.1
		l0.134-0.1c0.146-0.109,0.275-0.238,0.384-0.386l0.1-0.133l0.101,0.133c0.109,0.148,0.239,0.277,0.385,0.386l0.135,0.1L13.42,6.726
		z"/>
	<path style="clip-path:url(#SVGID_2_);fill:#FFFFFF;" d="M24.747,46.56v-0.386c-0.403-0.029-0.727-0.354-0.757-0.757h-0.387
		c-0.031,0.403-0.354,0.728-0.758,0.757v0.386c0.404,0.031,0.727,0.354,0.758,0.759h0.387C24.02,46.914,24.344,46.591,24.747,46.56
		 M24.095,46.417c-0.095,0.07-0.178,0.153-0.249,0.248l-0.049,0.067l-0.051-0.067c-0.07-0.094-0.154-0.178-0.248-0.248l-0.067-0.05
		l0.067-0.05c0.094-0.069,0.178-0.153,0.248-0.248l0.051-0.067l0.049,0.067c0.071,0.095,0.154,0.179,0.249,0.248l0.067,0.05
		L24.095,46.417z"/>
	<path style="clip-path:url(#SVGID_2_);fill:#FFFFFF;" d="M16.099,34.939v-2.925c0-0.157-0.129-0.286-0.287-0.286H5.936
		c-0.158,0-0.287,0.129-0.287,0.286v2.925c0,0.224,0.008,0.451,0.023,0.678c0.085,1.3,0.42,2.562,0.993,3.75
		c0.008,0.018,0.017,0.036,0.025,0.054c0.008,0.018,0.016,0.036,0.025,0.052c0.071,0.144,0.149,0.285,0.216,0.407l0.028,0.051
		c0.029,0.053,0.057,0.104,0.087,0.156c0.009,0.016,0.017,0.031,0.025,0.045c0.008,0.017,0.016,0.032,0.026,0.047l0.548,0.818
		c0.837,1.143,1.877,2.081,3.084,2.786c0.088,0.052,0.202,0.051,0.29,0C14.152,41.955,16.099,38.565,16.099,34.939 M10.939,43.161
		l-0.065,0.041l-0.066-0.041c-1.152-0.713-2.13-1.652-2.905-2.792c-0.085-0.126-0.167-0.253-0.242-0.376l-0.031-0.05
		c-0.039-0.063-0.077-0.126-0.114-0.19c-0.062-0.108-0.12-0.218-0.179-0.329l-0.04-0.076c-0.038-0.072-0.075-0.144-0.11-0.216
		c-0.029-0.058-0.054-0.116-0.08-0.174l-0.035-0.083c-0.112-0.247-0.213-0.5-0.3-0.748c-0.009-0.024-0.017-0.048-0.026-0.07
		c-0.013-0.035-0.025-0.069-0.036-0.104c-0.045-0.136-0.084-0.271-0.12-0.4l-0.012-0.044c-0.02-0.068-0.039-0.137-0.056-0.205
		c-0.028-0.108-0.055-0.224-0.086-0.375c-0.022-0.102-0.041-0.203-0.06-0.306c-0.02-0.113-0.04-0.226-0.055-0.34
		c-0.02-0.139-0.035-0.275-0.046-0.393L6.267,35.81c-0.007-0.063-0.014-0.125-0.018-0.188c-0.018-0.254-0.026-0.478-0.026-0.682
		v-2.638h9.301v2.638C15.524,38.262,13.768,41.412,10.939,43.161"/>
	<path style="clip-path:url(#SVGID_2_);fill:#FFFFFF;" d="M13.463,35.604l-3.001,3l-1.355-1.354l-0.406,0.406l1.558,1.556
		c0.109,0.109,0.297,0.109,0.406,0l3.204-3.202L13.463,35.604z"/>
	<rect x="7.294" y="33.374" style="clip-path:url(#SVGID_2_);fill:#FFFFFF;" width="0.575" height="0.573"/>
	<rect x="8.941" y="33.374" style="clip-path:url(#SVGID_2_);fill:#FFFFFF;" width="0.574" height="0.573"/>
	<rect x="10.586" y="33.374" style="clip-path:url(#SVGID_2_);fill:#FFFFFF;" width="0.574" height="0.573"/>
	<rect x="12.233" y="33.374" style="clip-path:url(#SVGID_2_);fill:#FFFFFF;" width="0.574" height="0.573"/>
	<rect x="13.879" y="33.374" style="clip-path:url(#SVGID_2_);fill:#FFFFFF;" width="0.574" height="0.573"/>
</g>
</svg>
