<?xml version="1.0" encoding="iso-8859-1"?>
<!-- Generator: Adobe Illustrator 15.1.0, SVG Export Plug-In . SVG Version: 6.00 Build 0)  -->
<!DOCTYPE svg PUBLIC "-//W3C//DTD SVG 1.1//EN" "http://www.w3.org/Graphics/SVG/1.1/DTD/svg11.dtd">
<svg version="1.1" id="Layer_1" xmlns="http://www.w3.org/2000/svg" xmlns:xlink="http://www.w3.org/1999/xlink" x="0px" y="0px"
	 width="50px" height="50px" viewBox="0 0 50 50" style="enable-background:new 0 0 50 50;" xml:space="preserve">
<path style="fill:#FFFFFF;" d="M24.773,46.225l0.62-0.004l0.004,0.62l-0.621,0.003L24.773,46.225z M23.581,46.798l-0.31-0.02
	l0.04-0.618l0.616,0.039l-0.039,0.619L23.581,46.798z M26.24,46.188l0.617-0.045l0.045,0.617l-0.617,0.046L26.24,46.188z
	 M27.701,46.052l0.611-0.088l0.087,0.614l-0.612,0.087L27.701,46.052z M29.146,45.817l0.606-0.13l0.128,0.606l-0.607,0.129
	L29.146,45.817z M19.124,46.044L19.124,46.044l-0.299-0.083l0.165-0.596l0.3,0.083l0.298,0.083l-0.164,0.596L19.124,46.044z
	 M30.575,45.484l0.295-0.085l0.3-0.084l0.169,0.596l-0.297,0.086v-0.001l-0.3,0.084L30.575,45.484z M17.684,45.591L17.684,45.591
	l-0.29-0.103l0.207-0.584l0.582,0.206l-0.205,0.583L17.684,45.591z M31.974,45.057l0.292-0.105l0.293-0.105l0.211,0.583l-0.585,0.21
	L31.974,45.057z M16.281,45.04l-0.285-0.122l0.245-0.569l0.57,0.247l-0.247,0.568L16.281,45.04z M33.344,44.531l0.566-0.248
	l0.251,0.565l-0.568,0.25L33.344,44.531z M14.918,44.395L14.918,44.395l-0.276-0.143l0.285-0.551l0.275,0.143l0.275,0.143
	l-0.284,0.551L14.918,44.395z M34.673,43.916l0.548-0.289l0.287,0.548l-0.546,0.289L34.673,43.916z M13.602,43.657v-0.002
	l-0.265-0.159l0.322-0.529l0.264,0.159l0.267,0.162l-0.324,0.528L13.602,43.657z M12.341,42.83l-0.254-0.179l0.357-0.505
	l0.506,0.355l-0.356,0.506L12.341,42.83z M11.137,41.922l-0.239-0.195l0.388-0.481l0.484,0.39l-0.391,0.481L11.137,41.922z
	 M9.999,40.932l0.002,0.001l-0.228-0.211l0.422-0.454l0.455,0.423l-0.423,0.453L9.999,40.932z M8.934,39.869L8.934,39.869
	l-0.213-0.228l0.453-0.423l0.423,0.453l-0.452,0.423L8.934,39.869z M7.941,38.733l-0.198-0.241l0.482-0.39l0.391,0.479l-0.481,0.392
	L7.941,38.733z M7.028,37.534L7.028,37.534L6.85,37.281l0.507-0.358l0.177,0.253l0.179,0.254l-0.507,0.357L7.028,37.534z
	 M6.2,36.275L6.04,36.01l0.53-0.321l0.323,0.528l-0.531,0.321L6.2,36.275z M5.463,34.961L5.463,34.961L5.32,34.686L5.872,34.4
	l0.143,0.275l0.142,0.274l-0.551,0.286L5.463,34.961z M4.816,33.6L4.816,33.6l-0.122-0.284l0.569-0.246l0.245,0.568l-0.569,0.246
	L4.816,33.6z M44.557,33.484l0.244-0.57l0.569,0.242l-0.123,0.286l-0.12,0.285L44.557,33.484z M4.266,32.197l-0.103-0.293
	l0.584-0.207l0.205,0.584L4.37,32.487L4.266,32.197z M45.104,32.124l0.203-0.586l0.586,0.204l-0.101,0.292H45.79l-0.101,0.292
	L45.104,32.124z M3.814,30.758L3.731,30.46l0.596-0.166l0.166,0.597l-0.596,0.166L3.814,30.758z M45.558,30.729l0.162-0.598
	l0.596,0.163l-0.078,0.299l-0.083,0.3L45.558,30.729z M3.46,29.293H3.458L3.397,28.99l0.607-0.126l0.125,0.608l-0.607,0.123
	L3.46,29.293z M45.913,29.308l0.12-0.607l0.608,0.119l-0.121,0.607L45.913,29.308z M3.283,28.334l-0.049-0.307l0.612-0.097
	l0.098,0.611l-0.61,0.099L3.283,28.334z M46.169,27.863l0.079-0.615l0.615,0.079l-0.078,0.614L46.169,27.863z M3.094,26.837
	L3.094,26.837L3.065,26.53l0.619-0.059l0.055,0.618l-0.616,0.058L3.094,26.837z M46.324,26.405l0.036-0.618l0.62,0.036l-0.036,0.618
	L46.324,26.405z M3.007,25.332L3,25.023l0.618-0.016l0.017,0.619l-0.62,0.015L3.007,25.332z M46.376,24.631L46.376,24.631
	l-0.003-0.309l0.62-0.008L47,24.936l-0.62,0.007L46.376,24.631z M3.009,24.133l0.029-0.617l0.618,0.027l-0.014,0.309l-0.013,0.31
	L3.009,24.133z M46.31,23.168l-0.025-0.309l0.62-0.05l0.047,0.618l-0.616,0.049L46.31,23.168z M3.108,22.629l0.035-0.307
	l0.036-0.309l0.616,0.072L3.723,22.7L3.108,22.629z M46.144,21.71l-0.045-0.305l0.613-0.093l0.045,0.308l0.045,0.306l-0.613,0.091
	L46.144,21.71z M3.312,21.134l0.114-0.61l0.607,0.112l-0.112,0.61L3.312,21.134z M45.88,20.271L45.88,20.271l-0.066-0.304
	l0.606-0.131l0.131,0.605l-0.605,0.133L45.88,20.271z M3.616,19.655l0.156-0.599l0.6,0.155l-0.155,0.599L3.616,19.655z M45.52,18.85
	l-0.088-0.298l0.595-0.172l0.087,0.297l0.088,0.298l-0.595,0.173L45.52,18.85z M4.025,18.205l0.196-0.59l0.588,0.196l-0.197,0.589
	L4.025,18.205z M45.062,17.458L45.062,17.458l-0.106-0.291l0.581-0.214l0.106,0.29h0.002l0.106,0.292l-0.583,0.213L45.062,17.458z
	 M4.53,16.782l0.237-0.574l0.572,0.236l-0.236,0.573L4.53,16.782z M44.51,16.101l-0.126-0.283l0.566-0.252l0.124,0.281L45.2,16.13
	l-0.563,0.254L44.51,16.101z M6.611,12.771l0.175-0.256H6.784l0.175-0.257l0.513,0.347l-0.349,0.513L6.611,12.771z M42.314,12.305
	l-0.183-0.253l0.503-0.363l0.183,0.251l0.182,0.25l-0.503,0.364L42.314,12.305z M7.483,11.542l0.381-0.489l0.49,0.382l-0.192,0.244
	v-0.001l-0.191,0.244L7.483,11.542z M41.414,11.149l-0.198-0.238l0.475-0.398l0.398,0.476l-0.477,0.397L41.414,11.149z
	 M8.435,10.372l0.207-0.23l0.207-0.23l0.46,0.413l-0.413,0.46L8.435,10.372z M40.438,10.058l-0.215-0.222l0.447-0.429l0.427,0.446
	l-0.445,0.43L40.438,10.058z M9.464,9.271l0.445-0.433l0.431,0.446l-0.445,0.43L9.464,9.271z M39.386,9.037L39.386,9.037
	l-0.229-0.208l0.416-0.459l0.46,0.417l-0.416,0.459L39.386,9.037z M10.566,8.243l0.473-0.401l0.401,0.473l-0.474,0.4L10.566,8.243z
	 M38.27,8.088l-0.243-0.192l0.386-0.485l0.242,0.191l0.243,0.192l-0.384,0.487L38.27,8.088z M11.735,7.292l0.5-0.368l0.368,0.5
	l-0.499,0.367L11.735,7.292z M37.089,7.218L37.089,7.218l-0.254-0.175l0.35-0.511l0.254,0.176h0.002l0.256,0.174l-0.352,0.511
	L37.089,7.218z M12.969,6.424l0.262-0.166l0.26-0.166l0.332,0.524l-0.522,0.332L12.969,6.424z M35.854,6.43l-0.267-0.157
	l0.315-0.533l0.534,0.314l-0.315,0.534L35.854,6.43z M14.256,5.645l0.274-0.148l0.273-0.148l0.295,0.545l-0.274,0.149l-0.272,0.147
	L14.256,5.645z M34.565,5.729L34.289,5.59l0.279-0.554l0.552,0.278l-0.275,0.554L34.565,5.729z M15.598,4.954l0.283-0.129v0.001
	l0.281-0.129l0.256,0.564l-0.564,0.256L15.598,4.954z M33.234,5.118l-0.287-0.12l0.24-0.573l0.571,0.239l-0.238,0.573L33.234,5.118z
	 M16.984,4.356l0.291-0.108l0.29-0.108l0.214,0.579l-0.581,0.218L16.984,4.356z M31.864,4.597L31.57,4.499l0.2-0.587l0.294,0.1
	l0.292,0.099l-0.2,0.588L31.864,4.597z M18.406,3.858L19,3.68l0.177,0.594l-0.596,0.177L18.406,3.858z M30.461,4.173L30.16,4.094
	l0.158-0.598l0.3,0.079l0.299,0.08l-0.158,0.597L30.461,4.173z M19.858,3.458l0.606-0.135l0.135,0.604l-0.604,0.135L19.858,3.458z
	 M29.031,3.849l-0.307-0.058l0.117-0.609l0.305,0.059l0.305,0.057l-0.117,0.61L29.031,3.849z M21.336,3.157l0.307-0.049l0.304-0.047
	l0.096,0.612l-0.611,0.095L21.336,3.157z M27.582,3.622l-0.309-0.037l0.074-0.615l0.616,0.074l-0.075,0.616L27.582,3.622z
	 M22.831,2.957l0.618-0.054l0.053,0.617l-0.619,0.054L22.831,2.957z M26.123,3.497l-0.31-0.017l0.032-0.619l0.616,0.032L26.43,3.51
	L26.123,3.497z M24.337,2.856l0.618-0.012l0.011,0.62l-0.62,0.011L24.337,2.856z"/>
<g>
	<defs>
		<rect id="SVGID_1_" width="50" height="50"/>
	</defs>
	<clipPath id="SVGID_2_">
		<use xlink:href="#SVGID_1_"  style="overflow:visible;"/>
	</clipPath>
	<path style="clip-path:url(#SVGID_2_);fill:#FFFFFF;" d="M14.202,28.881c0-0.54-0.44-0.979-0.979-0.979s-0.977,0.438-0.977,0.979
		c0,0.539,0.438,0.978,0.977,0.978S14.202,29.42,14.202,28.881 M13.223,29.515c-0.35,0-0.633-0.285-0.633-0.634
		c0-0.35,0.283-0.636,0.633-0.636s0.633,0.286,0.633,0.636C13.855,29.229,13.573,29.515,13.223,29.515"/>
	<path style="clip-path:url(#SVGID_2_);fill:#FFFFFF;" d="M13.758,31.15c-0.382,0.381-0.382,1.002,0,1.383
		c0.189,0.189,0.44,0.285,0.691,0.285c0.25,0,0.501-0.096,0.692-0.285c0.38-0.381,0.38-1.002,0-1.383
		C14.761,30.768,14.139,30.768,13.758,31.15 M14.897,32.288c-0.247,0.248-0.648,0.248-0.896,0c-0.247-0.246-0.247-0.647,0-0.895
		c0.123-0.124,0.286-0.186,0.448-0.186c0.162,0,0.324,0.062,0.448,0.186C15.145,31.641,15.145,32.042,14.897,32.288"/>
	<path style="clip-path:url(#SVGID_2_);fill:#FFFFFF;" d="M17.411,32.09c-0.541,0-0.979,0.438-0.979,0.978
		c0,0.539,0.438,0.978,0.979,0.978c0.539,0,0.978-0.438,0.978-0.978C18.389,32.527,17.95,32.09,17.411,32.09 M17.411,33.701
		c-0.35,0-0.635-0.284-0.635-0.634s0.285-0.634,0.635-0.634c0.348,0,0.633,0.284,0.633,0.634S17.759,33.701,17.411,33.701"/>
	<path style="clip-path:url(#SVGID_2_);fill:#FFFFFF;" d="M19.679,31.15c-0.381,0.381-0.381,1.002,0,1.383
		c0.191,0.189,0.442,0.285,0.693,0.285c0.25,0,0.501-0.096,0.69-0.285c0.382-0.381,0.382-1.002,0-1.383
		C20.681,30.768,20.059,30.768,19.679,31.15 M20.819,32.288c-0.247,0.248-0.649,0.248-0.896,0c-0.248-0.246-0.248-0.647,0-0.895
		c0.122-0.124,0.286-0.186,0.449-0.186c0.162,0,0.324,0.062,0.447,0.186C21.065,31.641,21.065,32.042,20.819,32.288"/>
	<path style="clip-path:url(#SVGID_2_);fill:#FFFFFF;" d="M17.411,23.716c-0.541,0-0.979,0.438-0.979,0.977
		c0,0.54,0.438,0.979,0.979,0.979c0.289,0,0.548-0.128,0.729-0.329v-1.298C17.959,23.843,17.7,23.716,17.411,23.716 M17.411,25.326
		c-0.35,0-0.635-0.283-0.635-0.633c0-0.349,0.285-0.634,0.635-0.634c0.348,0,0.633,0.285,0.633,0.634
		C18.044,25.043,17.759,25.326,17.411,25.326"/>
	<path style="clip-path:url(#SVGID_2_);fill:#FFFFFF;" d="M14.449,26.897c0.25,0,0.501-0.096,0.693-0.285
		c0.38-0.382,0.38-1.003,0-1.384c-0.381-0.382-1.003-0.382-1.383,0c-0.383,0.381-0.383,1.002,0,1.384
		C13.947,26.802,14.198,26.897,14.449,26.897 M14.002,25.472c0.122-0.124,0.285-0.185,0.447-0.185c0.162,0,0.324,0.061,0.449,0.185
		c0.247,0.247,0.247,0.648,0,0.896c-0.248,0.247-0.649,0.247-0.896,0C13.755,26.12,13.755,25.719,14.002,25.472"/>
	<path style="clip-path:url(#SVGID_2_);fill:#FFFFFF;" d="M18.14,27.45h-1.578c-0.095,0-0.171,0.077-0.171,0.173v2.516
		c0,0.095,0.076,0.172,0.171,0.172h1.697c0.095,0,0.173-0.077,0.173-0.172v-1.482c-0.188-0.307-0.292-0.651-0.292-1.016V27.45z
		 M18.086,29.966h-1.351v-0.52h1.351V29.966z M18.086,29.102h-1.351V28.66h1.351V29.102z M18.086,28.314h-1.351v-0.521h1.351V28.314
		z"/>
	<path style="clip-path:url(#SVGID_2_);fill:#FFFFFF;" d="M17.583,26.895v-0.825c0-0.095-0.076-0.172-0.172-0.172
		c-0.096,0-0.173,0.077-0.173,0.172v0.825c0,0.096,0.077,0.174,0.173,0.174C17.507,27.068,17.583,26.99,17.583,26.895"/>
	<path style="clip-path:url(#SVGID_2_);fill:#FFFFFF;" d="M17.583,31.691v-0.825c0-0.096-0.076-0.173-0.172-0.173
		c-0.096,0-0.173,0.077-0.173,0.173v0.825c0,0.095,0.077,0.173,0.173,0.173C17.507,31.864,17.583,31.786,17.583,31.691"/>
	<path style="clip-path:url(#SVGID_2_);fill:#FFFFFF;" d="M15.543,26.771c-0.066-0.067-0.175-0.067-0.243,0
		c-0.067,0.067-0.067,0.176,0,0.243l0.584,0.584c0.034,0.034,0.078,0.051,0.123,0.051c0.043,0,0.088-0.017,0.121-0.051
		c0.068-0.067,0.068-0.177,0-0.243L15.543,26.771z"/>
	<path style="clip-path:url(#SVGID_2_);fill:#FFFFFF;" d="M19.519,30.989c0.069-0.066,0.069-0.176,0-0.243l-0.582-0.584
		c-0.066-0.066-0.177-0.066-0.243,0c-0.069,0.067-0.069,0.177,0,0.244l0.584,0.583c0.032,0.034,0.077,0.051,0.121,0.051
		C19.443,31.04,19.487,31.023,19.519,30.989"/>
	<path style="clip-path:url(#SVGID_2_);fill:#FFFFFF;" d="M14.428,28.881c0,0.095,0.077,0.172,0.173,0.172h0.824
		c0.095,0,0.173-0.077,0.173-0.172c0-0.096-0.078-0.173-0.173-0.173h-0.824C14.505,28.708,14.428,28.785,14.428,28.881"/>
	<path style="clip-path:url(#SVGID_2_);fill:#FFFFFF;" d="M15.884,30.162L15.3,30.746c-0.066,0.067-0.066,0.177,0,0.243
		c0.034,0.034,0.078,0.051,0.123,0.051c0.043,0,0.088-0.017,0.12-0.051l0.585-0.583c0.068-0.067,0.068-0.177,0-0.244
		C16.061,30.096,15.952,30.096,15.884,30.162"/>
	<path style="clip-path:url(#SVGID_2_);fill:#FFFFFF;" d="M34.969,19.573h-0.015c-0.145-1.308-1.256-2.327-2.602-2.327
		c-0.91,0-1.736,0.464-2.212,1.224c-0.134-0.041-0.269-0.06-0.406-0.06c-0.71,0-1.305,0.513-1.43,1.187
		c-0.034-0.004-0.068-0.008-0.103-0.011c0.139,0.21,0.251,0.434,0.332,0.669c0.08,0.013,0.163-0.006,0.225-0.056
		c0.08-0.061,0.121-0.157,0.112-0.257l-0.008-0.078c0-0.481,0.39-0.873,0.871-0.873c0.136,0,0.269,0.035,0.4,0.103
		c0.068,0.036,0.149,0.042,0.224,0.018s0.136-0.077,0.17-0.146c0.346-0.703,1.045-1.137,1.824-1.137
		c1.121,0,2.035,0.913,2.035,2.027c0,0.007-0.001,0.027-0.001,0.034c0,0.085,0.037,0.166,0.104,0.222
		c0.064,0.056,0.149,0.079,0.236,0.065c0.088-0.015,0.165-0.023,0.241-0.023c0.803,0,1.455,0.653,1.455,1.454
		c0,0.803-0.652,1.455-1.455,1.455h-4.774v0.581h0.995h0.581h3.198c1.123,0,2.035-0.913,2.035-2.036
		C37.004,20.486,36.092,19.573,34.969,19.573"/>
	<rect x="34.679" y="20.737" style="clip-path:url(#SVGID_2_);fill:#FFFFFF;" width="0.582" height="0.58"/>
	<rect x="34.679" y="21.898" style="clip-path:url(#SVGID_2_);fill:#FFFFFF;" width="0.582" height="0.583"/>
	<rect x="33.516" y="21.898" style="clip-path:url(#SVGID_2_);fill:#FFFFFF;" width="0.582" height="0.583"/>
	<path style="clip-path:url(#SVGID_2_);fill:#FFFFFF;" d="M27.989,20.154c-0.028,0-0.058,0.003-0.087,0.005
		c0.134,0.27,0.215,0.561,0.234,0.867c0.008,0.123,0.098,0.227,0.219,0.251c0.761,0.155,1.291,0.684,1.291,1.285
		c0,0.178-0.045,0.346-0.126,0.501h0.674v-0.501c0-0.807-0.62-1.513-1.53-1.772c-0.025-0.184-0.069-0.363-0.13-0.535
		c-0.017-0.003-0.034-0.006-0.051-0.012C28.321,20.184,28.155,20.154,27.989,20.154"/>
	<path style="clip-path:url(#SVGID_2_);fill:#FFFFFF;" d="M29.708,29.173c0,0.008,0.001,0.017,0.003,0.024
		c0.074-0.079,0.143-0.162,0.202-0.251C29.798,28.958,29.708,29.055,29.708,29.173"/>
	<path style="clip-path:url(#SVGID_2_);fill:#FFFFFF;" d="M29.937,26.198c-0.079,0-0.157-0.015-0.229-0.041v0.279
		c0.076-0.006,0.152-0.01,0.229-0.01s0.153,0.004,0.229,0.01v-0.279C30.096,26.184,30.018,26.198,29.937,26.198"/>
	<path style="clip-path:url(#SVGID_2_);fill:#FFFFFF;" d="M29.646,26.674v0.231c0.096-0.012,0.192-0.021,0.29-0.021
		c0.089,0,0.173,0.007,0.258,0.017v-0.229c-0.085-0.01-0.169-0.015-0.258-0.015C29.839,26.656,29.742,26.663,29.646,26.674"/>
	<path style="clip-path:url(#SVGID_2_);fill:#FFFFFF;" d="M27.919,23.896h-7.005c-1.227,0-2.226-0.777-2.226-1.734
		s0.999-1.736,2.226-1.736c0.042,0,0.081,0.004,0.121,0.007l0.072,0.007c0.122,0.009,0.226-0.058,0.271-0.165
		c0.483-1.11,1.805-1.858,3.288-1.858c1.199,0,2.256,0.477,2.882,1.207c0.142-0.033,0.29-0.05,0.441-0.05
		c0.07,0,0.141,0.005,0.213,0.012c-0.684-1.026-2.013-1.717-3.536-1.717c-1.62,0-3.083,0.8-3.706,2.009h-0.046
		c-1.528,0-2.774,1.024-2.774,2.284v1.882c0.153,0.173,0.249,0.4,0.249,0.65s-0.096,0.477-0.249,0.649v2.107h0.119
		c0.096,0,0.173,0.077,0.173,0.173v1.033c0.454,0.75,1.395,1.266,2.482,1.266h6.381c-0.049-0.177-0.083-0.358-0.096-0.548H22.44
		c-0.169,0.289-0.483,0.484-0.842,0.484c-0.363,0-0.678-0.197-0.848-0.49c-0.416-0.023-0.8-0.137-1.123-0.315h-0.23
		c-0.096,0-0.173-0.077-0.173-0.172c0-0.034,0.01-0.065,0.026-0.092c-0.348-0.307-0.562-0.709-0.562-1.148v-0.05
		c-0.058-0.064-0.058-0.162,0-0.228v-1.114c0.173,0.192,0.382,0.362,0.619,0.504c0.066-0.044,0.154-0.04,0.212,0.019
		c0.034,0.033,0.05,0.076,0.05,0.12c0.399,0.185,0.857,0.292,1.345,0.292h7.005c0.047,0,0.092-0.005,0.137-0.007
		c0.388-0.364,0.879-0.619,1.423-0.711v-0.444c-0.02-0.019-0.04-0.04-0.06-0.062c-0.297,0.402-0.858,0.676-1.5,0.676h-6.882
		c-0.187,0.174-0.428,0.262-0.665,0.262c-0.251,0-0.502-0.096-0.692-0.285c-0.121-0.122-0.204-0.268-0.247-0.422
		c-0.456-0.317-0.745-0.778-0.745-1.29v-1.391c0.504,0.563,1.31,0.934,2.226,0.934h7.005c0.694,0,1.309-0.264,1.728-0.671v1.118
		c0.088-0.041,0.188-0.065,0.29-0.065c0.092,0,0.179,0.017,0.258,0.05v-1.231h-1.27C28.641,23.8,28.294,23.896,27.919,23.896"/>
	<path style="clip-path:url(#SVGID_2_);fill:#FFFFFF;" d="M21.598,29.515c0.149,0,0.285-0.053,0.392-0.14h-0.784
		C21.315,29.462,21.451,29.515,21.598,29.515"/>
	<path style="clip-path:url(#SVGID_2_);fill:#FFFFFF;" d="M21.598,29.515c-0.147,0-0.283-0.053-0.392-0.14h-0.292
		c-0.053,0-0.107-0.005-0.164-0.007c0.17,0.292,0.486,0.49,0.848,0.49c0.359,0,0.673-0.195,0.842-0.483h-0.45
		C21.883,29.462,21.747,29.515,21.598,29.515"/>
	<path style="clip-path:url(#SVGID_2_);fill:#FFFFFF;" d="M19.433,26.19c0.043,0.154,0.126,0.3,0.247,0.422
		c0.19,0.189,0.441,0.285,0.692,0.285c0.238,0,0.478-0.088,0.665-0.262h-0.123C20.345,26.636,19.826,26.466,19.433,26.19"/>
	<path style="clip-path:url(#SVGID_2_);fill:#FFFFFF;" d="M18.14,24.044v1.299c0.153-0.173,0.249-0.4,0.249-0.65
		S18.292,24.217,18.14,24.044"/>
	<path style="clip-path:url(#SVGID_2_);fill:#FFFFFF;" d="M18.259,27.45H18.14v0.19c0,0.364,0.104,0.709,0.292,1.016v-1.033
		C18.432,27.527,18.355,27.45,18.259,27.45"/>
	<path style="clip-path:url(#SVGID_2_);fill:#FFFFFF;" d="M19.224,28.881c0,0.095,0.077,0.172,0.173,0.172h0.23
		c-0.138-0.076-0.262-0.165-0.377-0.264C19.234,28.815,19.224,28.847,19.224,28.881"/>
	<path style="clip-path:url(#SVGID_2_);fill:#FFFFFF;" d="M19.519,26.771c-0.058-0.059-0.146-0.063-0.212-0.019
		c0.084,0.049,0.173,0.096,0.263,0.139C19.57,26.848,19.553,26.805,19.519,26.771"/>
	<path style="clip-path:url(#SVGID_2_);fill:#FFFFFF;" d="M18.688,27.591v-0.228C18.629,27.429,18.629,27.526,18.688,27.591"/>
	<path style="clip-path:url(#SVGID_2_);fill:#FFFFFF;" d="M29.521,23.063c-0.125,0.234-0.332,0.436-0.596,0.581h1.27v-0.581H29.521z
		"/>
	<path style="clip-path:url(#SVGID_2_);fill:#FFFFFF;" d="M27.548,19.623c0.143,0.166,0.261,0.346,0.354,0.536
		c0.029-0.002,0.059-0.005,0.087-0.005c0.166,0,0.332,0.031,0.495,0.089c0.016,0.006,0.033,0.009,0.05,0.012
		c-0.081-0.235-0.193-0.459-0.332-0.669c-0.072-0.008-0.143-0.013-0.213-0.013C27.838,19.573,27.69,19.591,27.548,19.623"/>
	<path style="clip-path:url(#SVGID_2_);fill:#FFFFFF;" d="M20.057,24.718c-0.152,0-0.274,0.123-0.274,0.274v0.148
		c0.162-0.122,0.351-0.187,0.545-0.194C20.304,24.817,20.191,24.718,20.057,24.718"/>
	<path style="clip-path:url(#SVGID_2_);fill:#FFFFFF;" d="M20.057,25.813c0.151,0,0.273-0.123,0.273-0.274V25.29
		c-0.147,0.009-0.294,0.067-0.407,0.182c-0.051,0.051-0.09,0.109-0.119,0.171C19.846,25.743,19.942,25.813,20.057,25.813"/>
	<path style="clip-path:url(#SVGID_2_);fill:#FFFFFF;" d="M19.804,25.643c0.029-0.062,0.068-0.12,0.119-0.171
		c0.113-0.114,0.26-0.173,0.407-0.182v-0.297c0-0.017-0.002-0.033-0.003-0.047c-0.193,0.008-0.382,0.072-0.544,0.194v0.399
		C19.783,25.576,19.789,25.611,19.804,25.643"/>
	<path style="clip-path:url(#SVGID_2_);fill:#FFFFFF;" d="M21.346,26.009c0.05-0.05,0.083-0.119,0.083-0.195v-0.548
		c0-0.151-0.123-0.274-0.276-0.274c-0.096,0-0.179,0.049-0.228,0.123c0.049,0.033,0.094,0.071,0.138,0.114
		C21.277,25.44,21.37,25.729,21.346,26.009"/>
	<path style="clip-path:url(#SVGID_2_);fill:#FFFFFF;" d="M20.878,25.545v0.269c0,0.092,0.047,0.172,0.116,0.222
		C21.024,25.866,20.984,25.688,20.878,25.545"/>
	<path style="clip-path:url(#SVGID_2_);fill:#FFFFFF;" d="M20.878,25.545c0.106,0.144,0.146,0.321,0.116,0.49
		c0.045,0.032,0.099,0.052,0.158,0.052c0.077,0,0.143-0.03,0.194-0.078c0.024-0.279-0.07-0.568-0.283-0.78
		c-0.044-0.043-0.089-0.081-0.138-0.114c-0.028,0.044-0.047,0.096-0.047,0.151V25.545z"/>
	<path style="clip-path:url(#SVGID_2_);fill:#FFFFFF;" d="M22.249,24.992c-0.151,0-0.274,0.122-0.274,0.273v0.548
		c0,0.151,0.123,0.273,0.274,0.273s0.273-0.122,0.273-0.273v-0.548C22.522,25.114,22.4,24.992,22.249,24.992"/>
	<path style="clip-path:url(#SVGID_2_);fill:#FFFFFF;" d="M28.002,24.992c-0.301,0-0.548,0.245-0.548,0.547s0.247,0.548,0.548,0.548
		c0.303,0,0.548-0.246,0.548-0.548S28.305,24.992,28.002,24.992"/>
	<path style="clip-path:url(#SVGID_2_);fill:#FFFFFF;" d="M26.357,24.992c-0.301,0-0.546,0.245-0.546,0.547s0.245,0.548,0.546,0.548
		c0.303,0,0.548-0.246,0.548-0.548S26.66,24.992,26.357,24.992"/>
	<path style="clip-path:url(#SVGID_2_);fill:#FFFFFF;" d="M20.057,27.457c-0.152,0-0.274,0.123-0.274,0.274v0.547
		c0,0.151,0.122,0.274,0.274,0.274c0.151,0,0.273-0.123,0.273-0.274v-0.547C20.33,27.58,20.208,27.457,20.057,27.457"/>
	<path style="clip-path:url(#SVGID_2_);fill:#FFFFFF;" d="M21.152,27.731c-0.151,0-0.274,0.123-0.274,0.273v0.214
		c0.14-0.151,0.325-0.259,0.534-0.299C21.378,27.811,21.275,27.731,21.152,27.731"/>
	<path style="clip-path:url(#SVGID_2_);fill:#FFFFFF;" d="M21.429,28.553v-0.28c-0.229,0.064-0.408,0.252-0.453,0.487
		c0.049,0.041,0.11,0.067,0.177,0.067C21.306,28.827,21.429,28.704,21.429,28.553"/>
	<path style="clip-path:url(#SVGID_2_);fill:#FFFFFF;" d="M20.976,28.76c0.045-0.235,0.224-0.423,0.453-0.487v-0.268
		c0-0.03-0.008-0.057-0.016-0.084c-0.209,0.04-0.394,0.146-0.535,0.298v0.334C20.877,28.637,20.917,28.71,20.976,28.76"/>
	<path style="clip-path:url(#SVGID_2_);fill:#FFFFFF;" d="M22.521,28.563c0.002-0.003,0.002-0.006,0.002-0.01v-0.548
		c0-0.15-0.122-0.273-0.273-0.273c-0.143,0-0.258,0.109-0.273,0.248C22.232,28.087,22.431,28.3,22.521,28.563"/>
	<path style="clip-path:url(#SVGID_2_);fill:#FFFFFF;" d="M21.975,28.374v0.179c0,0.144,0.11,0.259,0.251,0.271
		C22.208,28.641,22.116,28.478,21.975,28.374"/>
	<path style="clip-path:url(#SVGID_2_);fill:#FFFFFF;" d="M21.975,28.374c0.141,0.104,0.234,0.267,0.251,0.45
		c0.007,0.001,0.016,0.003,0.023,0.003c0.148,0,0.267-0.117,0.272-0.266c-0.09-0.262-0.288-0.475-0.544-0.583
		c0,0.009-0.002,0.018-0.002,0.026V28.374z"/>
	<path style="clip-path:url(#SVGID_2_);fill:#FFFFFF;" d="M26.357,27.731c-0.301,0-0.546,0.244-0.546,0.547
		c0,0.304,0.245,0.549,0.546,0.549c0.303,0,0.548-0.245,0.548-0.549C26.905,27.976,26.66,27.731,26.357,27.731"/>
	<path style="clip-path:url(#SVGID_2_);fill:#FFFFFF;" d="M29.598,29.478c0.085,0.093,0.204,0.152,0.339,0.152
		c0.253,0,0.458-0.204,0.458-0.457c0-0.213-0.146-0.391-0.343-0.441v-0.04c-0.039,0.088-0.085,0.174-0.139,0.255
		c0.007,0,0.017-0.002,0.023-0.002c0.128,0,0.229,0.103,0.229,0.229s-0.102,0.229-0.229,0.229c-0.117,0-0.213-0.091-0.226-0.205
		c-0.322,0.341-0.784,0.588-1.313,0.682l0.104,0.194L29.598,29.478z"/>
	<path style="clip-path:url(#SVGID_2_);fill:#FFFFFF;" d="M29.711,29.197c-0.002-0.008-0.003-0.017-0.003-0.024
		c0-0.118,0.09-0.215,0.205-0.227c0.054-0.081,0.1-0.167,0.139-0.255v-1.349h-0.229v1.389c-0.197,0.051-0.345,0.229-0.345,0.441
		c0,0.035,0.006,0.069,0.013,0.102l-1.097,0.599l0.004,0.006C28.927,29.785,29.389,29.538,29.711,29.197"/>
	<path style="clip-path:url(#SVGID_2_);fill:#FFFFFF;" d="M31.997,29.173c0,0.037-0.005,0.076-0.007,0.115h-0.337v1.019
		c-0.385,0.58-1.022,0.926-1.717,0.926c-0.873,0-1.617-0.547-1.918-1.314c-0.033,0.001-0.067,0.004-0.1,0.004h-0.141
		c0.311,0.895,1.159,1.539,2.158,1.539c0.665,0,1.285-0.287,1.717-0.779v1.056l0.8-0.801l0.916,0.915l0.85-0.849l-0.916-0.915
		l0.801-0.8h-1.883c0.002-0.039,0.004-0.078,0.004-0.115c0-1.176-0.889-2.145-2.03-2.272v0.23
		C31.208,27.259,31.997,28.124,31.997,29.173 M33.55,29.517l-0.571,0.571l0.916,0.915l-0.525,0.524l-0.916-0.915l-0.571,0.573
		v-1.669H33.55z"/>
	<path style="clip-path:url(#SVGID_2_);fill:#FFFFFF;" d="M27.91,28.817c-0.079-0.014-0.153-0.043-0.219-0.087
		c-0.026,0.144-0.043,0.29-0.043,0.442c0,0.067,0.006,0.136,0.011,0.202h0.23c-0.009-0.066-0.012-0.135-0.012-0.202
		C27.878,29.052,27.891,28.934,27.91,28.817"/>
	<path style="clip-path:url(#SVGID_2_);fill:#FFFFFF;" d="M28.146,27.752c0.075,0.021,0.146,0.059,0.205,0.108
		c0.319-0.385,0.777-0.649,1.295-0.724v-0.231C29.04,26.982,28.509,27.296,28.146,27.752"/>
	<path style="clip-path:url(#SVGID_2_);fill:#FFFFFF;" d="M29.646,26.905v0.231c0.096-0.014,0.191-0.023,0.29-0.023
		c0.089,0,0.173,0.007,0.258,0.018V26.9c-0.085-0.01-0.169-0.016-0.258-0.016C29.839,26.885,29.742,26.894,29.646,26.905"/>
	<path style="clip-path:url(#SVGID_2_);fill:#FFFFFF;" d="M28.019,29.918c-0.067-0.172-0.112-0.354-0.13-0.543h-0.229
		c0.017,0.19,0.058,0.373,0.119,0.547h0.141C27.951,29.922,27.985,29.919,28.019,29.918"/>
	<path style="clip-path:url(#SVGID_2_);fill:#FFFFFF;" d="M27.91,28.817c0.063-0.359,0.218-0.688,0.441-0.957
		c-0.06-0.05-0.129-0.087-0.205-0.108c-0.224,0.28-0.382,0.613-0.455,0.979C27.757,28.774,27.831,28.804,27.91,28.817"/>
	<rect x="32.34" y="28.371" style="clip-path:url(#SVGID_2_);fill:#FFFFFF;" width="0.229" height="0.458"/>
	
		<rect x="31.173" y="28.922" transform="matrix(0.7082 0.706 -0.706 0.7082 29.6651 -13.6976)" style="clip-path:url(#SVGID_2_);fill:#FFFFFF;" width="0.458" height="0.229"/>
	<rect x="30.737" y="29.973" style="clip-path:url(#SVGID_2_);fill:#FFFFFF;" width="0.458" height="0.229"/>
	
		<rect x="31.287" y="30.911" transform="matrix(-0.7092 -0.705 0.705 -0.7092 31.7204 75.3612)" style="clip-path:url(#SVGID_2_);fill:#FFFFFF;" width="0.229" height="0.457"/>
	<rect x="32.34" y="31.347" style="clip-path:url(#SVGID_2_);fill:#FFFFFF;" width="0.229" height="0.458"/>
	<rect x="33.712" y="29.972" style="clip-path:url(#SVGID_2_);fill:#FFFFFF;" width="0.458" height="0.229"/>
	
		<rect x="33.278" y="28.922" transform="matrix(-0.706 0.7082 -0.7082 -0.706 77.7252 25.8095)" style="clip-path:url(#SVGID_2_);fill:#FFFFFF;" width="0.456" height="0.229"/>
	<path style="clip-path:url(#SVGID_2_);fill:#FFFFFF;" d="M30.395,25.511c0,0.157-0.079,0.296-0.2,0.379v0.781
		c0.905,0.093,1.698,0.667,2.059,1.517l0.211-0.089c-0.371-0.873-1.155-1.479-2.069-1.632v-0.445
		c0.141-0.125,0.229-0.308,0.229-0.511c0-0.286-0.176-0.532-0.429-0.635v0.259C30.315,25.217,30.395,25.354,30.395,25.511"/>
	<path style="clip-path:url(#SVGID_2_);fill:#FFFFFF;" d="M29.937,31.919c0.418,0,0.818-0.093,1.193-0.274l-0.099-0.205
		c-0.345,0.166-0.711,0.25-1.095,0.25c-1.127,0-2.082-0.744-2.401-1.768h-0.24C27.623,31.073,28.682,31.919,29.937,31.919"/>
	<path style="clip-path:url(#SVGID_2_);fill:#FFFFFF;" d="M27.42,29.173c0-0.228,0.034-0.448,0.09-0.658
		c-0.034-0.071-0.056-0.151-0.056-0.236c0-0.252,0.175-0.464,0.407-0.526c0.168-0.246,0.381-0.459,0.621-0.632
		c-0.136,0.032-0.278,0.049-0.427,0.057c-0.532,0.501-0.865,1.209-0.865,1.996c0,0.067,0.004,0.136,0.009,0.202h0.231
		C27.425,29.309,27.42,29.24,27.42,29.173"/>
	<path style="clip-path:url(#SVGID_2_);fill:#FFFFFF;" d="M29.479,25.511c0-0.142,0.066-0.266,0.168-0.35v-0.271
		c-0.232,0.11-0.397,0.348-0.397,0.62c0,0.173,0.065,0.328,0.17,0.449c0.051-0.068,0.092-0.14,0.126-0.215
		C29.504,25.677,29.479,25.597,29.479,25.511"/>
	<path style="clip-path:url(#SVGID_2_);fill:#FFFFFF;" d="M29.937,25.969c-0.166,0-0.311-0.09-0.392-0.224
		c-0.034,0.075-0.075,0.146-0.126,0.215c0.02,0.021,0.04,0.043,0.06,0.062v0.444c-0.544,0.092-1.035,0.347-1.423,0.711
		c0.148-0.008,0.291-0.025,0.428-0.057c0.272-0.191,0.582-0.332,0.918-0.405c0.088-0.063,0.171-0.13,0.245-0.203v0.162
		c0.096-0.011,0.192-0.018,0.29-0.018c0.089,0,0.173,0.005,0.258,0.015V25.89C30.122,25.939,30.032,25.969,29.937,25.969
		 M29.937,26.427c-0.077,0-0.153,0.004-0.229,0.01v-0.279c0.072,0.026,0.15,0.041,0.229,0.041c0.081,0,0.159-0.015,0.229-0.041
		v0.279C30.09,26.431,30.014,26.427,29.937,26.427"/>
	<path style="clip-path:url(#SVGID_2_);fill:#FFFFFF;" d="M27.199,29.375c0.013,0.188,0.047,0.37,0.096,0.547h0.24
		c-0.056-0.175-0.09-0.358-0.104-0.547H27.199z"/>
	<path style="clip-path:url(#SVGID_2_);fill:#FFFFFF;" d="M29.646,24.891v0.271c0.079-0.065,0.18-0.107,0.29-0.107
		c0.096,0,0.186,0.03,0.258,0.081v-0.259c-0.079-0.033-0.166-0.05-0.258-0.05C29.834,24.826,29.734,24.85,29.646,24.891"/>
	<path style="clip-path:url(#SVGID_2_);fill:#FFFFFF;" d="M27.454,28.278c0,0.085,0.021,0.164,0.056,0.236
		c0.076-0.275,0.194-0.533,0.352-0.763C27.629,27.814,27.454,28.025,27.454,28.278"/>
	<path style="clip-path:url(#SVGID_2_);fill:#FFFFFF;" d="M6.051,13.166H5.493c-0.059,0.625-0.558,1.125-1.182,1.183v0.559
		c0.624,0.058,1.123,0.556,1.182,1.182h0.558c0.059-0.626,0.558-1.124,1.184-1.182v-0.559C6.609,14.291,6.11,13.791,6.051,13.166
		 M6.254,14.728c-0.144,0.107-0.273,0.237-0.382,0.383l-0.1,0.134l-0.1-0.135c-0.108-0.145-0.236-0.275-0.382-0.382l-0.134-0.1
		l0.134-0.099c0.146-0.109,0.274-0.238,0.382-0.383l0.1-0.135l0.1,0.134c0.109,0.146,0.238,0.275,0.384,0.384l0.134,0.099
		L6.254,14.728z"/>
	<path style="clip-path:url(#SVGID_2_);fill:#FFFFFF;" d="M44.618,14.184v-0.417c-0.429-0.03-0.771-0.374-0.801-0.804h-0.418
		c-0.03,0.43-0.373,0.774-0.803,0.804v0.417c0.43,0.03,0.772,0.373,0.803,0.803h0.418C43.847,14.557,44.189,14.213,44.618,14.184
		 M43.921,14.024c-0.102,0.075-0.189,0.164-0.264,0.264l-0.051,0.067l-0.048-0.067c-0.074-0.1-0.163-0.189-0.264-0.264l-0.066-0.05
		l0.066-0.05c0.101-0.074,0.188-0.164,0.264-0.263l0.048-0.067l0.051,0.067c0.074,0.1,0.164,0.189,0.264,0.263l0.066,0.05
		L43.921,14.024z"/>
	<path style="clip-path:url(#SVGID_2_);fill:#FFFFFF;" d="M21.419,45.263h-0.384c-0.031,0.402-0.354,0.724-0.755,0.755v0.385
		c0.401,0.029,0.724,0.352,0.755,0.753h0.384c0.031-0.401,0.353-0.724,0.753-0.753v-0.385C21.772,45.986,21.45,45.665,21.419,45.263
		 M21.523,46.259c-0.094,0.07-0.177,0.153-0.247,0.248l-0.048,0.066l-0.051-0.066c-0.07-0.094-0.153-0.178-0.247-0.248l-0.066-0.05
		l0.066-0.049c0.094-0.07,0.177-0.153,0.247-0.247l0.051-0.068l0.048,0.068c0.07,0.095,0.153,0.178,0.247,0.247l0.069,0.049
		L21.523,46.259z"/>
	<path style="clip-path:url(#SVGID_2_);fill:#FFFFFF;" d="M45.741,38.036v-2.909c0-0.157-0.128-0.285-0.286-0.285H35.63
		c-0.158,0-0.286,0.128-0.286,0.285v2.909c0,0.223,0.007,0.45,0.023,0.675c0.085,1.295,0.418,2.55,0.988,3.731
		c0.009,0.018,0.016,0.036,0.025,0.053c0.007,0.019,0.016,0.035,0.024,0.054c0.069,0.142,0.146,0.282,0.215,0.403l0.027,0.05
		c0.026,0.052,0.056,0.105,0.086,0.157c0.01,0.014,0.017,0.029,0.025,0.045c0.008,0.015,0.017,0.03,0.025,0.046l0.547,0.814
		c0.833,1.136,1.865,2.07,3.068,2.771c0.086,0.051,0.2,0.051,0.288,0C43.804,45.018,45.741,41.646,45.741,38.036 M40.608,46.218
		l-0.064,0.04l-0.067-0.04c-1.146-0.71-2.118-1.644-2.89-2.778c-0.085-0.127-0.167-0.252-0.242-0.374l-0.03-0.05
		c-0.038-0.063-0.076-0.126-0.113-0.189c-0.062-0.108-0.119-0.218-0.177-0.327l-0.042-0.077c-0.036-0.07-0.073-0.141-0.109-0.213
		c-0.027-0.058-0.053-0.115-0.078-0.174l-0.036-0.081c-0.109-0.248-0.211-0.498-0.297-0.745c-0.01-0.024-0.019-0.047-0.025-0.07
		l-0.038-0.103c-0.043-0.136-0.081-0.271-0.117-0.398l-0.013-0.044c-0.02-0.067-0.04-0.135-0.057-0.204
		c-0.028-0.107-0.054-0.222-0.086-0.373c-0.021-0.101-0.039-0.202-0.06-0.305c-0.02-0.112-0.037-0.224-0.054-0.338
		c-0.02-0.138-0.034-0.274-0.045-0.391l-0.009-0.081c-0.008-0.063-0.013-0.125-0.019-0.188c-0.017-0.253-0.025-0.475-0.025-0.679
		v-2.624h9.255v2.624C45.17,41.342,43.422,44.478,40.608,46.218"/>
	<path style="clip-path:url(#SVGID_2_);fill:#FFFFFF;" d="M43.12,38.697l-2.987,2.985l-1.348-1.348l-0.403,0.404l1.549,1.55
		c0.109,0.107,0.296,0.107,0.405,0l3.187-3.188L43.12,38.697z"/>
	<rect x="36.98" y="36.48" style="clip-path:url(#SVGID_2_);fill:#FFFFFF;" width="0.571" height="0.569"/>
	<rect x="38.62" y="36.48" style="clip-path:url(#SVGID_2_);fill:#FFFFFF;" width="0.569" height="0.569"/>
	<rect x="40.257" y="36.48" style="clip-path:url(#SVGID_2_);fill:#FFFFFF;" width="0.571" height="0.569"/>
	<rect x="41.894" y="36.48" style="clip-path:url(#SVGID_2_);fill:#FFFFFF;" width="0.572" height="0.569"/>
	<rect x="43.533" y="36.48" style="clip-path:url(#SVGID_2_);fill:#FFFFFF;" width="0.57" height="0.569"/>
</g>
</svg>
