<?xml version="1.0" encoding="iso-8859-1"?>
<!-- Generator: Adobe Illustrator 15.1.0, SVG Export Plug-In . SVG Version: 6.00 Build 0)  -->
<!DOCTYPE svg PUBLIC "-//W3C//DTD SVG 1.1//EN" "http://www.w3.org/Graphics/SVG/1.1/DTD/svg11.dtd">
<svg version="1.1" id="Layer_1" xmlns="http://www.w3.org/2000/svg" xmlns:xlink="http://www.w3.org/1999/xlink" x="0px" y="0px"
	 width="50px" height="50px" viewBox="0 0 50 50" style="enable-background:new 0 0 50 50;" xml:space="preserve">
<path style="fill:#FFFFFF;" d="M24.779,45.582l0.592-0.004l0.001,0.592l-0.591,0.004L24.779,45.582z M23.639,46.13l-0.294-0.019
	l0.038-0.59l0.589,0.037l-0.038,0.59L23.639,46.13z M26.176,45.548l0.592-0.044l0.043,0.59l-0.589,0.043L26.176,45.548z
	 M22.209,45.988L22.209,45.988l-0.294-0.039l0.079-0.586l0.584,0.079l-0.077,0.585L22.209,45.988z M27.569,45.419l0.585-0.083
	l0.085,0.584l-0.294,0.042l-0.292,0.041L27.569,45.419z M20.789,45.748l-0.29-0.06l0.118-0.579l0.579,0.119l-0.119,0.578
	L20.789,45.748z M19.388,45.41l-0.285-0.079l0.159-0.57l0.569,0.159l-0.157,0.569L19.388,45.41z M31.649,44.471l0.28-0.101
	l0.276-0.102l0.2,0.558l-0.279,0.099v0.002l-0.277,0.1L31.649,44.471z M32.955,43.97l0.541-0.238l0.239,0.542l-0.543,0.238
	L32.955,43.97z M34.224,43.381l0.523-0.274l0.273,0.524l-0.261,0.137l-0.261,0.137L34.224,43.381z M35.447,42.709l0.503-0.313
	l0.312,0.506l-0.505,0.309L35.447,42.709z M36.621,41.951l0.48-0.344l0.344,0.479l-0.48,0.345L36.621,41.951z M37.74,41.116
	l0.457-0.376l0.375,0.455l-0.455,0.375L37.74,41.116z M38.802,40.205l0.428-0.407l0.407,0.429l-0.43,0.407L38.802,40.205z
	 M39.796,39.223l0.4-0.434l0.436,0.397l-0.401,0.438L39.796,39.223z M40.723,38.176l0.371-0.461l0.461,0.369l-0.37,0.462
	L40.723,38.176z M41.575,37.068l0.339-0.485l0.484,0.337l-0.336,0.485L41.575,37.068z M42.352,35.904l0.304-0.508l0.507,0.304
	l-0.303,0.508L42.352,35.904z M6.357,34.832l-0.135-0.264l0.525-0.271l0.272,0.525l-0.525,0.271L6.357,34.832z M43.047,34.691
	l0.269-0.527l0.526,0.268l-0.269,0.527L43.047,34.691z M5.742,33.531L5.742,33.531l-0.117-0.271l0.542-0.235l0.234,0.541
	l-0.542,0.236L5.742,33.531z M43.657,33.432l0.232-0.543l0.543,0.231L44.2,33.664L43.657,33.432z M5.217,32.192L5.217,32.192
	l-0.099-0.279l0.558-0.197l0.196,0.559l-0.558,0.196L5.217,32.192z M44.181,32.135l0.193-0.56l0.558,0.194l-0.194,0.559
	L44.181,32.135z M4.785,30.819l-0.079-0.284l0.569-0.157l0.157,0.567l-0.569,0.16L4.785,30.819z M44.611,30.804l0.154-0.57
	l0.571,0.155l-0.155,0.569L44.611,30.804z M4.448,29.422l-0.06-0.289l0.58-0.119l0.12,0.578l-0.58,0.12L4.448,29.422z M44.95,29.445
	l0.058-0.288l0.059-0.29l0.579,0.114l-0.114,0.58L44.95,29.445z M4.282,28.515L4.282,28.515l-0.047-0.292l0.584-0.093l0.094,0.583
	l-0.585,0.094L4.282,28.515z M45.196,28.068l0.074-0.586l0.587,0.074l-0.075,0.586L45.196,28.068z M4.1,27.087L4.1,27.087
	l-0.026-0.295l0.589-0.054l0.054,0.589l-0.588,0.054L4.1,27.087z M45.347,26.68l0.033-0.591l0.589,0.034l-0.034,0.59L45.347,26.68z
	 M4.018,25.65l-0.006-0.297l0.591-0.013l0.013,0.591l-0.592,0.015L4.018,25.65z M45.395,24.986l-0.003-0.295l0.592-0.006
	l0.003,0.296h-0.001l0.003,0.294l-0.591,0.007L45.395,24.986z M4.02,24.508l0.015-0.295l0.012-0.295l0.591,0.025l-0.027,0.592
	L4.02,24.508z M45.331,23.59l-0.022-0.296l0.587-0.046l0.048,0.589l-0.589,0.048L45.331,23.59z M4.115,23.072l0.066-0.586
	l0.589,0.068L4.702,23.14L4.115,23.072z M45.172,22.201l-0.043-0.293l0.586-0.087l0.086,0.585l-0.584,0.087L45.172,22.201z
	 M4.308,21.645l0.108-0.583l0.582,0.11l-0.109,0.58L4.308,21.645z M44.921,20.825l-0.063-0.288l0.577-0.128l0.064,0.288l0.063,0.291
	l-0.579,0.125L44.921,20.825z M4.6,20.235l0.149-0.573L5.32,19.81l-0.146,0.573L4.6,20.235z M44.577,19.47L44.577,19.47
	l-0.084-0.284l0.569-0.165l0.082,0.283v0.001l0.083,0.285l-0.567,0.163L44.577,19.47z M4.989,18.849l0.186-0.561l0.56,0.187
	l-0.185,0.56L4.989,18.849z M5.471,17.493l0.225-0.548l0.546,0.226l-0.226,0.547L5.471,17.493z M6.045,16.173l0.261-0.53
	l0.533,0.262l-0.264,0.53L6.045,16.173z M43,15.592l-0.14-0.262l0.523-0.278l0.277,0.521l-0.521,0.28L43,15.592z M6.71,14.896
	l0.297-0.511l0.51,0.297L7.22,15.193L6.71,14.896z M42.302,14.382l-0.157-0.25l0.501-0.314l0.313,0.501l-0.501,0.313L42.302,14.382z
	 M7.458,13.667l0.165-0.245l0.166-0.244l0.489,0.332l-0.332,0.488L7.458,13.667z M41.52,13.225l-0.172-0.241l0.478-0.345
	l0.348,0.476l-0.479,0.348L41.52,13.225z M8.289,12.493l0.363-0.466l0.465,0.365l-0.363,0.464L8.289,12.493z M40.662,12.122
	L40.662,12.122l-0.189-0.227l0.454-0.379l0.188,0.227l0.19,0.228l-0.455,0.379L40.662,12.122z M9.196,11.378l0.396-0.441
	l0.438,0.395l-0.393,0.44L9.196,11.378z M39.729,11.081l-0.204-0.214l0.426-0.41l0.408,0.428l-0.425,0.409L39.729,11.081z
	 M10.18,10.327l0.422-0.413l0.413,0.425l-0.212,0.206v-0.001l-0.212,0.206L10.18,10.327z M38.729,10.105L38.51,9.907l0.397-0.437
	l0.438,0.397l-0.397,0.438L38.729,10.105z M11.23,9.345l0.453-0.382l0.381,0.452l-0.451,0.382L11.23,9.345z M37.661,9.201
	l-0.229-0.183l0.364-0.463l0.466,0.366l-0.367,0.464L37.661,9.201z M12.347,8.439l0.477-0.35l0.35,0.476l-0.478,0.349L12.347,8.439z
	 M36.536,8.371l-0.243-0.167l0.334-0.487l0.243,0.167l0.243,0.167L36.78,8.538L36.536,8.371z M13.521,7.611l0.251-0.158
	l-0.001-0.001l0.251-0.157l0.316,0.5l-0.499,0.316L13.521,7.611z M35.357,7.62l-0.254-0.151l0.301-0.509l0.254,0.15l0.254,0.151
	l-0.301,0.51L35.357,7.62z M14.752,6.865l0.521-0.28l0.281,0.521l-0.26,0.139v0.002l-0.261,0.14L14.752,6.865z M34.13,6.949
	l-0.265-0.132l0.265-0.528l0.528,0.265l-0.264,0.528L34.13,6.949z M16.032,6.209l0.269-0.123H16.3l0.269-0.122l0.245,0.537
	l-0.539,0.245L16.032,6.209z M32.857,6.365l-0.271-0.112l0.228-0.546l0.548,0.23L33.13,6.479L32.857,6.365z M17.353,5.64
	l0.553-0.207l0.208,0.553L17.56,6.194L17.353,5.64z M31.551,5.871l-0.28-0.095l0.191-0.56l0.558,0.19L31.83,5.967L31.551,5.871z
	 M18.711,5.164l0.282-0.086l0.285-0.084l0.166,0.568L18.879,5.73L18.711,5.164z M30.212,5.466L29.926,5.39l0.151-0.571l0.571,0.152
	l-0.152,0.571L30.212,5.466z M20.096,4.78l0.289-0.063V4.715l0.289-0.063l0.13,0.577l-0.578,0.128L20.096,4.78z M21.505,4.493
	l0.587-0.09l0.089,0.584l-0.584,0.091L21.505,4.493z M22.933,4.304l0.589-0.052l0.051,0.589l-0.59,0.051L22.933,4.304z
	 M24.368,4.208l0.593-0.011l0.009,0.591l-0.591,0.011L24.368,4.208z"/>
<rect x="7.837" y="36.939" style="fill:#FFFFFF;" width="0.378" height="0.38"/>
<rect x="8.596" y="36.939" style="fill:#FFFFFF;" width="0.381" height="0.38"/>
<rect x="7.837" y="36.18" style="fill:#FFFFFF;" width="0.378" height="0.38"/>
<rect x="8.596" y="36.18" style="fill:#FFFFFF;" width="0.381" height="0.38"/>
<rect x="9.355" y="36.939" style="fill:#FFFFFF;" width="0.38" height="0.38"/>
<rect x="9.355" y="36.18" style="fill:#FFFFFF;" width="0.38" height="0.38"/>
<rect x="10.115" y="36.939" style="fill:#FFFFFF;" width="0.379" height="0.38"/>
<rect x="10.115" y="36.18" style="fill:#FFFFFF;" width="0.379" height="0.38"/>
<rect x="10.874" y="36.939" style="fill:#FFFFFF;" width="0.38" height="0.38"/>
<rect x="10.874" y="36.18" style="fill:#FFFFFF;" width="0.38" height="0.38"/>
<g>
	<defs>
		<rect id="SVGID_1_" width="50" height="50"/>
	</defs>
	<clipPath id="SVGID_2_">
		<use xlink:href="#SVGID_1_"  style="overflow:visible;"/>
	</clipPath>
	<path style="clip-path:url(#SVGID_2_);fill:#FFFFFF;" d="M14.672,36.181h-1.71c-0.105,0-0.191,0.084-0.191,0.19v0.759
		c0,0.104,0.086,0.189,0.191,0.189h1.71c0.103,0,0.189-0.085,0.189-0.189v-0.759C14.861,36.265,14.775,36.181,14.672,36.181
		 M14.48,36.939h-1.328v-0.38h1.328V36.939z"/>
	<rect x="7.837" y="39.217" style="clip-path:url(#SVGID_2_);fill:#FFFFFF;" width="0.378" height="0.38"/>
	<rect x="8.596" y="39.217" style="clip-path:url(#SVGID_2_);fill:#FFFFFF;" width="0.381" height="0.38"/>
	<rect x="7.837" y="38.458" style="clip-path:url(#SVGID_2_);fill:#FFFFFF;" width="0.378" height="0.38"/>
	<rect x="8.596" y="38.458" style="clip-path:url(#SVGID_2_);fill:#FFFFFF;" width="0.381" height="0.38"/>
	<rect x="9.355" y="39.217" style="clip-path:url(#SVGID_2_);fill:#FFFFFF;" width="0.38" height="0.38"/>
	<rect x="9.355" y="38.458" style="clip-path:url(#SVGID_2_);fill:#FFFFFF;" width="0.38" height="0.38"/>
	<rect x="10.115" y="39.217" style="clip-path:url(#SVGID_2_);fill:#FFFFFF;" width="0.379" height="0.38"/>
	<rect x="10.115" y="38.458" style="clip-path:url(#SVGID_2_);fill:#FFFFFF;" width="0.379" height="0.38"/>
	<rect x="10.874" y="38.458" style="clip-path:url(#SVGID_2_);fill:#FFFFFF;" width="0.38" height="0.38"/>
	<rect x="7.837" y="41.494" style="clip-path:url(#SVGID_2_);fill:#FFFFFF;" width="0.378" height="0.381"/>
	<rect x="8.596" y="41.494" style="clip-path:url(#SVGID_2_);fill:#FFFFFF;" width="0.381" height="0.381"/>
	<rect x="7.837" y="40.736" style="clip-path:url(#SVGID_2_);fill:#FFFFFF;" width="0.378" height="0.38"/>
	<rect x="8.596" y="40.736" style="clip-path:url(#SVGID_2_);fill:#FFFFFF;" width="0.381" height="0.38"/>
	<rect x="9.355" y="41.494" style="clip-path:url(#SVGID_2_);fill:#FFFFFF;" width="0.38" height="0.381"/>
	<rect x="9.355" y="40.736" style="clip-path:url(#SVGID_2_);fill:#FFFFFF;" width="0.38" height="0.38"/>
	<rect x="10.115" y="41.494" style="clip-path:url(#SVGID_2_);fill:#FFFFFF;" width="0.379" height="0.381"/>
	<rect x="10.115" y="40.736" style="clip-path:url(#SVGID_2_);fill:#FFFFFF;" width="0.379" height="0.38"/>
	<rect x="10.874" y="41.494" style="clip-path:url(#SVGID_2_);fill:#FFFFFF;" width="0.38" height="0.381"/>
	<path style="clip-path:url(#SVGID_2_);fill:#FFFFFF;" d="M18.483,45.039l-2.215-2.215l1.328-1.33h0.301
		c0.079,0,0.147-0.046,0.178-0.117l0.379-0.95c0.027-0.071,0.01-0.152-0.043-0.205l-0.379-0.38
		c-0.054-0.054-0.135-0.069-0.204-0.042l-0.95,0.38c-0.073,0.029-0.12,0.1-0.12,0.176v0.302l-1.138,1.139v-1.249
		c0-0.147-0.058-0.279-0.149-0.381c0.091-0.101,0.149-0.233,0.149-0.379v-1.519c0-0.147-0.058-0.279-0.149-0.38
		c0.091-0.101,0.149-0.233,0.149-0.38V35.99c0-0.314-0.256-0.569-0.57-0.569H7.646c-0.312,0-0.568,0.255-0.568,0.569v1.519
		c0,0.146,0.056,0.279,0.148,0.38c-0.092,0.101-0.148,0.232-0.148,0.38v1.519c0,0.146,0.056,0.278,0.148,0.379
		c-0.092,0.102-0.148,0.233-0.148,0.381v1.518c0,0.314,0.256,0.569,0.568,0.569h6.378l-0.245,0.247
		c-0.036,0.034-0.058,0.083-0.058,0.132v0.19h-0.188c-0.052,0-0.1,0.021-0.136,0.056l-2.088,2.089c-0.073,0.074-0.073,0.193,0,0.268
		l1.329,1.329C12.674,46.982,12.724,47,12.771,47c0.049,0,0.099-0.018,0.135-0.056l2.089-2.087c0.036-0.036,0.055-0.085,0.055-0.135
		v-0.19h0.19c0.051,0,0.098-0.02,0.135-0.056l0.435-0.436l1.835,1.836c0.11,0.11,0.263,0.174,0.42,0.174
		c0.326,0,0.591-0.266,0.591-0.592C18.656,45.301,18.595,45.151,18.483,45.039 M17.083,40.87c0.036-0.035,0.055-0.084,0.055-0.134
		v-0.252l0.714-0.285l0.202,0.202l-0.286,0.715h-0.251c-0.05,0-0.098,0.02-0.134,0.056L16,42.556l-0.301-0.301L17.083,40.87z
		 M7.457,35.99c0-0.104,0.086-0.189,0.189-0.189h7.405c0.104,0,0.19,0.085,0.19,0.189v1.519c0,0.104-0.086,0.19-0.19,0.19H7.646
		c-0.103,0-0.189-0.086-0.189-0.19V35.99z M7.457,38.269c0-0.104,0.086-0.19,0.189-0.19h7.405c0.104,0,0.19,0.086,0.19,0.19v1.519
		c0,0.104-0.086,0.189-0.19,0.189h-0.759v-0.569c0-0.05-0.021-0.1-0.057-0.135l-0.759-0.759c-0.035-0.036-0.083-0.056-0.135-0.056
		h-1.138c-0.077,0-0.146,0.047-0.175,0.117c-0.029,0.071-0.013,0.152,0.041,0.207l0.893,0.894v0.68h-0.68l-0.894-0.893
		c-0.053-0.055-0.135-0.071-0.207-0.041c-0.07,0.029-0.117,0.098-0.117,0.175v0.38H7.646c-0.103,0-0.189-0.085-0.189-0.189V38.269z
		 M15.24,40.547v1.249l-0.949-0.948v-0.492h0.759C15.154,40.355,15.24,40.442,15.24,40.547 M7.646,42.255
		c-0.103,0-0.189-0.086-0.189-0.19v-1.518c0-0.104,0.086-0.191,0.189-0.191h3.418v0.381c0,0.05,0.02,0.099,0.056,0.134l0.759,0.759
		c0.036,0.036,0.084,0.056,0.134,0.056h1.441l0.57,0.57H7.646z M15.163,44.152h-0.301c-0.106,0-0.19,0.085-0.19,0.189v0.302
		l-1.9,1.898l-1.06-1.061l1.898-1.898h0.302c0.104,0,0.19-0.085,0.19-0.189v-0.301l0.379-0.38l1.061,1.06L15.163,44.152z
		 M18.065,45.671c-0.057,0-0.111-0.022-0.151-0.062l-4.249-4.248c-0.036-0.036-0.083-0.056-0.133-0.056h-1.441l-0.648-0.648v-0.302
		h0.301l0.324,0.324c0.035,0.036,0.084,0.057,0.134,0.057h0.95c0.104,0,0.188-0.085,0.188-0.189v-0.95
		c0-0.05-0.019-0.099-0.055-0.134l-0.624-0.625h0.602l0.648,0.648v1.439c0,0.051,0.02,0.099,0.056,0.135l4.247,4.248
		c0.041,0.04,0.063,0.094,0.063,0.15C18.277,45.575,18.183,45.671,18.065,45.671"/>
	
		<rect x="12.576" y="45.196" transform="matrix(-0.7071 0.7071 -0.7071 -0.7071 54.7066 68.1132)" style="clip-path:url(#SVGID_2_);fill:#FFFFFF;" width="1.341" height="0.38"/>
	
		<rect x="13.831" y="44.343" transform="matrix(-0.7071 0.7071 -0.7071 -0.7071 55.559 66.0512)" style="clip-path:url(#SVGID_2_);fill:#FFFFFF;" width="0.537" height="0.379"/>
	<rect x="26.934" y="17.761" style="clip-path:url(#SVGID_2_);fill:#FFFFFF;" width="0.567" height="0.568"/>
	<rect x="26.934" y="18.896" style="clip-path:url(#SVGID_2_);fill:#FFFFFF;" width="0.567" height="0.567"/>
	<rect x="25.797" y="18.897" style="clip-path:url(#SVGID_2_);fill:#FFFFFF;" width="0.568" height="0.567"/>
	<path style="clip-path:url(#SVGID_2_);fill:#FFFFFF;" d="M26.491,30.825h-3.534c-0.37,0-0.688-0.237-0.804-0.567h4.379
		c0.025-0.193,0.063-0.384,0.113-0.568H23.24v-4.828c0-0.156,0.129-0.284,0.284-0.284h6.818c0.155,0,0.282,0.128,0.282,0.284v1.523
		c0.115-0.009,0.23-0.015,0.348-0.015c0.074,0,0.147,0.002,0.222,0.006v-1.515c0-0.47-0.383-0.852-0.852-0.852h-2.842v-1.42
		c0-0.47-0.381-0.852-0.853-0.852h-1.987c-0.157,0-0.284-0.127-0.284-0.285v-0.851h2.84c1.097,0,1.988-0.892,1.988-1.989
		c0-1.096-0.892-1.987-1.988-1.987h-0.016c-0.142-1.278-1.229-2.273-2.541-2.273c-0.89,0-1.696,0.452-2.162,1.195
		c-0.129-0.038-0.262-0.059-0.394-0.059c-0.695,0-1.275,0.502-1.396,1.161c-0.103-0.016-0.206-0.024-0.309-0.024
		c-1.097,0-1.989,0.891-1.989,1.987c0,1.097,0.892,1.989,1.989,1.989h1.987v2.271c0,0.157-0.127,0.285-0.282,0.285h-1.138
		c0-0.471-0.38-0.852-0.851-0.852h-3.977c-0.469,0-0.852,0.381-0.852,0.852v7.384c0,0.47,0.383,0.853,0.852,0.853h3.977
		c0.471,0,0.851-0.383,0.851-0.853v-6.816h1.138c0.469,0,0.852-0.383,0.852-0.853v-2.271h0.852v0.851
		c0,0.47,0.381,0.853,0.852,0.853h1.987c0.157,0,0.285,0.127,0.285,0.284v1.42h-3.409c-0.469,0-0.852,0.382-0.852,0.852v4.828H21.82
		c-0.156,0-0.285,0.127-0.285,0.284c0,0.782,0.637,1.42,1.422,1.42h3.558c-0.018-0.171-0.024-0.351-0.024-0.544V30.825z
		 M20.4,30.541c0,0.158-0.128,0.284-0.284,0.284h-3.977c-0.156,0-0.284-0.126-0.284-0.284v-0.567H20.4V30.541z M20.4,29.405h-4.545
		v-5.112H20.4V29.405z M20.4,23.725h-4.545v-0.568c0-0.157,0.128-0.285,0.284-0.285h3.977c0.156,0,0.284,0.128,0.284,0.285V23.725z
		 M20.4,20.033c-0.784,0-1.42-0.638-1.42-1.421c0-0.782,0.636-1.42,1.42-1.42c0.161,0,0.324,0.029,0.481,0.086
		c0.092,0.033,0.194,0.018,0.271-0.042c0.077-0.059,0.118-0.154,0.109-0.251l-0.006-0.048c-0.001-0.009-0.002-0.019-0.002-0.028
		c0-0.47,0.38-0.853,0.852-0.853c0.13,0,0.261,0.034,0.388,0.1c0.068,0.035,0.147,0.042,0.22,0.019
		c0.072-0.024,0.132-0.077,0.166-0.145c0.339-0.684,1.021-1.11,1.782-1.11c1.096,0,1.987,0.892,1.987,1.981
		c0,0.007-0.001,0.027-0.001,0.033c0,0.084,0.037,0.163,0.101,0.217c0.063,0.055,0.148,0.077,0.232,0.064
		c0.086-0.016,0.162-0.023,0.237-0.023c0.783,0,1.42,0.638,1.42,1.42c0,0.783-0.637,1.421-1.42,1.421H20.4z"/>
	<path style="clip-path:url(#SVGID_2_);fill:#FFFFFF;" d="M16.707,26.565h2.842c0.155,0,0.283-0.127,0.283-0.284v-1.137
		c0-0.157-0.128-0.284-0.283-0.284h-2.842c-0.156,0-0.283,0.127-0.283,0.284v1.137C16.424,26.438,16.551,26.565,16.707,26.565
		 M16.992,25.429h2.271v0.568h-2.271V25.429z"/>
	<path style="clip-path:url(#SVGID_2_);fill:#FFFFFF;" d="M26.934,25.145h-2.842c-0.155,0-0.282,0.128-0.282,0.284v3.409
		c0,0.157,0.127,0.283,0.282,0.283h2.747c0.105-0.248,0.232-0.486,0.379-0.711v-2.981C27.218,25.272,27.09,25.145,26.934,25.145
		 M26.648,28.554h-2.271v-2.84h2.271V28.554z"/>
	<rect x="16.424" y="27.133" style="clip-path:url(#SVGID_2_);fill:#FFFFFF;" width="3.408" height="0.568"/>
	<rect x="27.787" y="25.145" style="clip-path:url(#SVGID_2_);fill:#FFFFFF;" width="2.271" height="0.569"/>
	<path style="clip-path:url(#SVGID_2_);fill:#FFFFFF;" d="M30.058,26.281h-2.271v0.567h1.174c0.344-0.173,0.711-0.304,1.098-0.384
		V26.281z"/>
	<path style="clip-path:url(#SVGID_2_);fill:#FFFFFF;" d="M28.098,27.417h-0.312v0.287C27.885,27.604,27.989,27.508,28.098,27.417"
		/>
	<rect x="16.424" y="28.27" style="clip-path:url(#SVGID_2_);fill:#FFFFFF;" width="3.408" height="0.568"/>
	<path style="clip-path:url(#SVGID_2_);fill:#FFFFFF;" d="M26.532,30.258c-0.024,0.186-0.039,0.376-0.041,0.567h0.691
		c0-0.192,0.016-0.383,0.045-0.567H26.532z"/>
	<path style="clip-path:url(#SVGID_2_);fill:#FFFFFF;" d="M31.194,26.376v0.69c1.987,0.115,3.568,1.769,3.568,3.783
		c0,1.361-0.409,1.9-2.683,4.899c-0.33,0.438-0.698,0.922-1.107,1.467c-0.413-0.549-0.782-1.036-1.115-1.475
		c-1.944-2.562-2.521-3.323-2.646-4.348h-0.695c0.121,1.242,0.744,2.063,2.792,4.764c0.404,0.534,0.865,1.139,1.39,1.838
		c0.064,0.087,0.166,0.138,0.275,0.138c0.107,0,0.21-0.051,0.275-0.138c0.521-0.695,0.978-1.298,1.381-1.829
		c2.337-3.082,2.823-3.724,2.823-5.316C35.452,28.454,33.562,26.491,31.194,26.376"/>
	<path style="clip-path:url(#SVGID_2_);fill:#FFFFFF;" d="M30.058,26.849H28.96c-0.31,0.156-0.6,0.348-0.862,0.568h1.27
		c0.388-0.183,0.813-0.301,1.258-0.342v-0.69c-0.192,0.016-0.381,0.041-0.567,0.08V26.849z"/>
	<path style="clip-path:url(#SVGID_2_);fill:#FFFFFF;" d="M27.786,28.801v-0.247h0.174c0.157-0.208,0.337-0.397,0.533-0.568h-0.707
		v-0.281c-0.214,0.216-0.403,0.452-0.568,0.706v0.428c0,0.157-0.128,0.283-0.285,0.283h-0.094c-0.077,0.183-0.142,0.374-0.193,0.568
		h0.718C27.465,29.373,27.608,29.076,27.786,28.801"/>
	<path style="clip-path:url(#SVGID_2_);fill:#FFFFFF;" d="M27.181,30.85c0-0.008,0.001-0.017,0.002-0.024h-0.69v0.024
		c0,0.193,0.006,0.373,0.023,0.544h0.695C27.189,31.223,27.181,31.044,27.181,30.85"/>
	<path style="clip-path:url(#SVGID_2_);fill:#FFFFFF;" d="M30.625,26.385v0.69c0.115-0.01,0.229-0.017,0.348-0.017
		c0.073,0,0.147,0.003,0.222,0.008v-0.69c-0.074-0.004-0.148-0.006-0.222-0.006C30.855,26.37,30.74,26.376,30.625,26.385"/>
	<path style="clip-path:url(#SVGID_2_);fill:#FFFFFF;" d="M27.363,29.689h-0.718c-0.05,0.185-0.088,0.375-0.113,0.568h0.695
		C27.26,30.063,27.305,29.873,27.363,29.689"/>
	<path style="clip-path:url(#SVGID_2_);fill:#FFFFFF;" d="M26.934,29.121c0.156,0,0.284-0.126,0.284-0.283V28.41
		c-0.146,0.225-0.273,0.463-0.379,0.711H26.934z"/>
	<path style="clip-path:url(#SVGID_2_);fill:#FFFFFF;" d="M30.058,26.465c-0.387,0.08-0.754,0.211-1.098,0.384h1.098V26.465z"/>
	<path style="clip-path:url(#SVGID_2_);fill:#FFFFFF;" d="M28.098,27.417c-0.108,0.091-0.213,0.187-0.312,0.287v0.281h0.708
		c0.262-0.228,0.556-0.42,0.874-0.568H28.098z"/>
	<path style="clip-path:url(#SVGID_2_);fill:#FFFFFF;" d="M27.786,28.554v0.247c0.054-0.085,0.111-0.167,0.174-0.247H27.786z"/>
	<path style="clip-path:url(#SVGID_2_);fill:#FFFFFF;" d="M30.058,29.121h-0.765c-0.173,0.167-0.318,0.357-0.435,0.568h0.843
		c0.242-0.264,0.563-0.453,0.924-0.527v-0.696c-0.196,0.029-0.388,0.08-0.567,0.153V29.121z"/>
	<path style="clip-path:url(#SVGID_2_);fill:#FFFFFF;" d="M32.695,30.85c0,0.95-0.772,1.724-1.723,1.724
		c-0.761,0-1.407-0.495-1.635-1.18h-0.714c0.247,1.068,1.205,1.869,2.349,1.869c1.33,0,2.412-1.082,2.412-2.413
		c0-1.256-0.964-2.288-2.19-2.4v0.694C32.04,29.252,32.695,29.976,32.695,30.85"/>
	<path style="clip-path:url(#SVGID_2_);fill:#FFFFFF;" d="M29.356,30.258h-0.72c-0.047,0.183-0.074,0.372-0.075,0.567h0.688
		C29.253,30.626,29.292,30.436,29.356,30.258"/>
	<path style="clip-path:url(#SVGID_2_);fill:#FFFFFF;" d="M29.701,29.689h-0.843c-0.097,0.177-0.171,0.367-0.222,0.568h0.72
		C29.435,30.045,29.553,29.853,29.701,29.689"/>
	<path style="clip-path:url(#SVGID_2_);fill:#FFFFFF;" d="M30.973,29.128c0.075,0,0.148,0.006,0.222,0.016v-0.694
		c-0.073-0.006-0.146-0.011-0.222-0.011c-0.118,0-0.232,0.012-0.348,0.027v0.696C30.738,29.141,30.854,29.128,30.973,29.128"/>
	<path style="clip-path:url(#SVGID_2_);fill:#FFFFFF;" d="M29.249,30.85c0-0.008,0.001-0.016,0.001-0.024h-0.688
		c0,0.009-0.002,0.017-0.002,0.024c0,0.187,0.023,0.368,0.064,0.544h0.714C29.281,31.223,29.249,31.04,29.249,30.85"/>
	<path style="clip-path:url(#SVGID_2_);fill:#FFFFFF;" d="M30.058,29.121v-0.502c-0.286,0.118-0.546,0.29-0.765,0.502H30.058z"/>
	<path style="clip-path:url(#SVGID_2_);fill:#FFFFFF;" d="M45.518,17.561v-0.397c-0.408-0.029-0.735-0.356-0.767-0.765h-0.396
		c-0.029,0.409-0.356,0.736-0.765,0.765v0.397c0.408,0.03,0.735,0.357,0.765,0.766h0.396C44.782,17.918,45.109,17.591,45.518,17.561
		 M44.853,17.41c-0.096,0.072-0.18,0.156-0.252,0.252l-0.047,0.063l-0.048-0.063c-0.069-0.096-0.155-0.18-0.252-0.252l-0.063-0.048
		l0.063-0.047c0.096-0.071,0.18-0.156,0.251-0.251L44.554,17l0.047,0.064c0.072,0.096,0.156,0.18,0.252,0.251l0.063,0.047
		L44.853,17.41z"/>
	<path style="clip-path:url(#SVGID_2_);fill:#FFFFFF;" d="M29.061,4.661V4.13C28.463,4.074,27.986,3.596,27.93,3h-0.53
		c-0.057,0.596-0.534,1.074-1.13,1.13v0.531c0.596,0.057,1.073,0.533,1.13,1.13h0.53C27.986,5.194,28.463,4.718,29.061,4.661
		 M28.125,4.491c-0.139,0.103-0.262,0.225-0.366,0.364l-0.095,0.128l-0.095-0.128c-0.104-0.138-0.227-0.261-0.365-0.365
		l-0.127-0.095l0.127-0.094c0.14-0.104,0.261-0.227,0.365-0.367l0.095-0.127l0.095,0.127c0.104,0.14,0.228,0.263,0.366,0.367
		l0.128,0.094L28.125,4.491z"/>
	<path style="clip-path:url(#SVGID_2_);fill:#FFFFFF;" d="M30.865,45.396v-0.367c-0.383-0.029-0.689-0.336-0.718-0.72h-0.368
		c-0.029,0.384-0.336,0.69-0.719,0.72v0.367c0.383,0.029,0.689,0.335,0.719,0.718h0.368C30.176,45.731,30.482,45.426,30.865,45.396
		 M30.246,45.261c-0.09,0.066-0.169,0.146-0.234,0.235l-0.049,0.063l-0.047-0.063c-0.067-0.09-0.146-0.169-0.236-0.235l-0.064-0.048
		l0.064-0.048c0.09-0.066,0.169-0.146,0.235-0.235l0.048-0.064l0.049,0.064c0.065,0.09,0.145,0.169,0.234,0.235l0.064,0.048
		L30.246,45.261z"/>
</g>
</svg>
