<?xml version="1.0" encoding="iso-8859-1"?>
<!-- Generator: Adobe Illustrator 15.1.0, SVG Export Plug-In . SVG Version: 6.00 Build 0)  -->
<!DOCTYPE svg PUBLIC "-//W3C//DTD SVG 1.1//EN" "http://www.w3.org/Graphics/SVG/1.1/DTD/svg11.dtd">
<svg version="1.1" id="Layer_1" xmlns="http://www.w3.org/2000/svg" xmlns:xlink="http://www.w3.org/1999/xlink" x="0px" y="0px"
	 width="50px" height="50px" viewBox="0 0 50 50" style="enable-background:new 0 0 50 50;" xml:space="preserve">
<path style="fill:#FFFFFF;" d="M23.955,44.619l0.595-0.004l0.004,0.598l-0.597,0.004L23.955,44.619z M22.806,45.171v0.002
	l-0.299-0.02l0.039-0.596l0.595,0.038l-0.038,0.595L22.806,45.171z M25.364,44.585l0.596-0.044l0.044,0.596l-0.595,0.043
	L25.364,44.585z M26.77,44.453l0.591-0.083l0.084,0.59l-0.295,0.043v-0.001l-0.294,0.043L26.77,44.453z M28.163,44.229l0.584-0.123
	l0.123,0.581l-0.292,0.063l-0.29,0.062L28.163,44.229z M18.517,44.445l-0.288-0.079l0.16-0.575l0.574,0.16l-0.16,0.574
	L18.517,44.445z M29.538,43.909l0.286-0.081l0.288-0.083l0.162,0.574L29.7,44.482L29.538,43.909z M17.129,44.009L17.129,44.009
	l-0.28-0.1l0.199-0.563l0.562,0.199l-0.198,0.563L17.129,44.009z M30.888,43.498l0.56-0.203l0.202,0.562l-0.279,0.101l-0.283,0.102
	L30.888,43.498z M15.778,43.478l-0.274-0.118l0.238-0.548l0.546,0.237l-0.238,0.546L15.778,43.478z M32.204,42.992l0.272-0.119
	l0.271-0.12l0.241,0.545l-0.546,0.241L32.204,42.992z M14.467,42.854l-0.265-0.137l0.274-0.53l0.529,0.274l-0.274,0.53
	L14.467,42.854z M33.483,42.398l0.527-0.277l0.277,0.529l-0.263,0.139l-0.265,0.138L33.483,42.398z M13.2,42.144l-0.256-0.153
	l0.31-0.512l0.51,0.311l-0.308,0.509L13.2,42.144z M11.984,41.349l-0.241-0.172l0.342-0.487l0.488,0.343l-0.344,0.487L11.984,41.349
	z M10.829,40.473l-0.232-0.188l0.375-0.462l0.463,0.376L11.06,40.66L10.829,40.473z M9.734,39.521L9.734,39.521l-0.219-0.204
	l0.407-0.437l0.218,0.203l0.219,0.204l-0.407,0.437L9.734,39.521z M8.707,38.495l-0.205-0.217l0.435-0.407l0.408,0.434l-0.436,0.408
	L8.707,38.495z M7.751,37.404l-0.188-0.231l0.463-0.378l0.376,0.463l-0.463,0.376L7.751,37.404z M6.873,36.248l-0.171-0.243
	l0.486-0.344l0.344,0.485l-0.486,0.345L6.873,36.248z M6.079,35.035L5.924,34.78l0.51-0.311l0.309,0.512l-0.51,0.309L6.079,35.035z
	 M5.367,33.771l-0.135-0.265l0.53-0.274l0.273,0.531l-0.531,0.271L5.367,33.771z M4.746,32.46l-0.119-0.274l0.549-0.235l0.236,0.546
	l-0.548,0.237L4.746,32.46z M4.216,31.109l-0.099-0.282l0.562-0.198l0.2,0.562L4.315,31.39L4.216,31.109z M3.78,29.725L3.78,29.725
	l-0.079-0.286l0.574-0.161l0.161,0.575l-0.577,0.158L3.78,29.725z M3.441,28.312l-0.059-0.29l0.582-0.119l0.121,0.583l-0.584,0.12
	L3.441,28.312z M44.307,28.338l0.117-0.583l0.584,0.115l-0.115,0.585L44.307,28.338z M3.273,27.398L3.273,27.398l-0.047-0.295
	l0.588-0.094L3.91,27.6l-0.59,0.094L3.273,27.398z M44.556,26.948l0.036-0.295l0.039-0.297l0.591,0.076l-0.075,0.592L44.556,26.948z
	 M3.092,25.958l-0.029-0.297l0.594-0.055l0.028,0.297l0.027,0.298l-0.593,0.055L3.092,25.958z M44.705,25.548l0.036-0.598
	l0.594,0.034l-0.018,0.3h0.002l-0.019,0.298L44.705,25.548z M3.007,24.509L3,24.211l0.597-0.015l0.013,0.597l-0.595,0.015
	L3.007,24.509z M44.755,23.838l-0.003-0.297l0.596-0.008l0.005,0.598l-0.594,0.005L44.755,23.838z M3.009,23.356l0.014-0.299
	l0.015-0.298l0.595,0.028L3.62,23.085l-0.013,0.298L3.009,23.356z M44.69,22.43l-0.023-0.297l0.595-0.048l0.025,0.297h-0.002
	l0.023,0.297l-0.593,0.048L44.69,22.43z M3.104,21.907l0.035-0.296l0.034-0.297l0.593,0.069l-0.069,0.593L3.104,21.907z
	 M3.299,20.468l0.11-0.588l0.585,0.109l-0.107,0.586L3.299,20.468z M3.595,19.044l0.147-0.577l0.578,0.149l-0.149,0.577
	L3.595,19.044z M43.931,18.272l-0.083-0.287l0.572-0.167l0.166,0.575l-0.573,0.166L43.931,18.272z M3.987,17.645l0.188-0.565
	l0.565,0.188l-0.187,0.565L3.987,17.645z M43.49,16.933l-0.103-0.281l0.561-0.205l0.103,0.28l0.103,0.28l-0.56,0.205L43.49,16.933z
	 M42.961,15.626l-0.122-0.273l0.544-0.244l0.243,0.545l-0.544,0.243L42.961,15.626z M42.34,14.359l-0.141-0.263l0.527-0.281
	l0.279,0.527l-0.525,0.281L42.34,14.359z M5.722,13.656l0.3-0.514l0.516,0.299l-0.299,0.516L5.722,13.656z M41.635,13.139
	l-0.158-0.253l0.506-0.316l0.315,0.506l-0.506,0.315L41.635,13.139z M6.479,12.417l0.167-0.246l0.166-0.248l0.494,0.335
	l-0.333,0.494L6.479,12.417z M40.846,11.97L40.846,11.97l-0.175-0.241l0.483-0.351l0.175,0.242h0.002l0.173,0.24l-0.481,0.352
	L40.846,11.97z M7.316,11.232l0.368-0.469l0.468,0.367l-0.367,0.469L7.316,11.232z M39.981,10.858h-0.003l-0.19-0.228l0.458-0.383
	l0.19,0.23l0.193,0.227l-0.458,0.383L39.981,10.858z M8.231,10.106L8.63,9.662l0.444,0.399l-0.197,0.223v-0.002l-0.2,0.223
	L8.231,10.106z M39.039,9.808l-0.205-0.214l0.431-0.415l0.412,0.43l-0.431,0.414L39.039,9.808z M9.225,9.048L9.437,8.84h0.001
	l0.213-0.209l0.416,0.429L9.641,9.474L9.225,9.048z M38.028,8.824l-0.22-0.201l0.4-0.441l0.441,0.401l-0.4,0.442L38.028,8.824z
	 M10.285,8.057l0.456-0.386l0.384,0.456l-0.454,0.385L10.285,8.057z M36.953,7.911l-0.234-0.184l0.371-0.468l0.234,0.184
	l0.232,0.185l-0.371,0.469L36.953,7.911z M11.411,7.143l0.48-0.354l0.354,0.481l-0.48,0.353L11.411,7.143z M35.818,7.074
	l-0.247-0.17l0.339-0.491l0.491,0.338l-0.337,0.491L35.818,7.074z M12.597,6.307l0.504-0.319l0.319,0.504l-0.505,0.319L12.597,6.307
	z M34.629,6.314h-0.002l-0.256-0.151l0.305-0.512l0.256,0.151l0.258,0.151l-0.305,0.514L34.629,6.314z M13.838,5.556l0.526-0.286
	l0.282,0.526l-0.524,0.285L13.838,5.556z M33.39,5.64l-0.267-0.134l0.267-0.532l0.533,0.266l-0.267,0.533L33.39,5.64z M15.128,4.892
	l0.271-0.123l0.271-0.125l0.249,0.543l-0.544,0.248L15.128,4.892z M32.107,5.05l-0.276-0.113l0.23-0.55l0.55,0.228l-0.229,0.551
	L32.107,5.05z M16.461,4.317l0.56-0.209l0.209,0.559l-0.56,0.209L16.461,4.317z M30.786,4.551l-0.28-0.097l0.192-0.564l0.28,0.096
	l0.283,0.096l-0.192,0.565L30.786,4.551z M17.832,3.836l0.286-0.085l0.285-0.084l0.171,0.571l-0.571,0.17L17.832,3.836z
	 M29.437,4.143L29.437,4.143l-0.289-0.077L29.3,3.489l0.577,0.153L29.724,4.22L29.437,4.143z M19.231,3.45l0.582-0.131l0.13,0.582
	l-0.582,0.132L19.231,3.45z M28.059,3.829L28.059,3.829l-0.291-0.058l0.111-0.585l0.585,0.113l-0.111,0.587L28.059,3.829z
	 M20.653,3.161l0.589-0.09l0.092,0.588l-0.296,0.045h0.002l-0.297,0.047L20.653,3.161z M26.665,3.61l-0.296-0.036l0.072-0.592
	l0.593,0.072l-0.072,0.591L26.665,3.61z M22.093,2.969l0.297-0.026l0.297-0.025l0.05,0.594l-0.594,0.05L22.093,2.969z M25.26,3.489
	L25.26,3.489l-0.3-0.015l0.033-0.596l0.297,0.015l0.299,0.015l-0.03,0.597L25.26,3.489z M23.541,2.874l0.596-0.011l0.01,0.596
	L23.552,3.47L23.541,2.874z"/>
<g>
	<defs>
		<rect id="SVGID_1_" width="50" height="50"/>
	</defs>
	<clipPath id="SVGID_2_">
		<use xlink:href="#SVGID_1_"  style="overflow:visible;"/>
	</clipPath>
	<path style="clip-path:url(#SVGID_2_);fill:#FFFFFF;" d="M32.078,23.277l1.235-1.236h1.195v-0.667h-1.334
		c-0.088,0-0.173,0.035-0.235,0.099l-1.234,1.235h-1.562c-0.426-0.42-1.011-0.677-1.652-0.667c-0.083-0.751-0.445-1.421-0.981-1.9
		v-1.295l1.902-1.902c0.063-0.061,0.097-0.146,0.097-0.235V13.71h-0.666v2.861l-1.9,1.902c-0.063,0.062-0.098,0.148-0.098,0.235
		v0.98c-0.209-0.104-0.435-0.182-0.667-0.235v-1.606l0.901-0.902c0.063-0.062,0.099-0.147,0.099-0.236V13.71h-0.666v2.861
		l-0.902,0.902c-0.063,0.062-0.098,0.147-0.098,0.235v1.668c-0.229,0-0.452,0.029-0.668,0.078V13.71h-0.665v5.981
		c-0.241,0.119-0.467,0.271-0.669,0.452v-2.435c0-0.088-0.034-0.173-0.097-0.235l-0.901-0.902V13.71h-0.666v2.999
		c0,0.089,0.034,0.174,0.097,0.236l0.903,0.902v2.9c-0.11-0.022-0.222-0.039-0.334-0.039c-0.115,0-0.225,0.015-0.333,0.037v-2.037
		c0-0.087-0.036-0.173-0.097-0.235l-1.903-1.902V13.71h-0.666v2.999c0,0.089,0.034,0.174,0.098,0.236l1.902,1.902v2.202
		c-0.326,0.246-0.563,0.603-0.64,1.021c-0.119-0.02-0.24-0.029-0.362-0.029c-0.437,0-0.843,0.122-1.194,0.333h-2.333l-0.903-0.901
		c-0.061-0.064-0.146-0.099-0.234-0.099h-1.333v0.667h1.194l0.903,0.902c0.061,0.063,0.147,0.098,0.236,0.098h1.754
		c-0.142,0.201-0.252,0.425-0.324,0.666h-3.763v0.666h3.666c0,0.232,0.034,0.456,0.097,0.668H17.18
		c-0.088,0-0.175,0.034-0.236,0.097l-1.236,1.235h-1.194v0.666h1.333c0.088,0,0.173-0.035,0.234-0.097l1.236-1.236h1.284
		c0.422,0.604,1.121,1,1.91,1h1.002v1.527l-1.902,1.902c-0.064,0.063-0.098,0.147-0.098,0.235v3.333h0.666v-3.195l1.903-1.901
		c0.061-0.063,0.097-0.146,0.097-0.235v-1.666h0.667v2.528l-0.903,0.901c-0.063,0.063-0.097,0.147-0.097,0.235v3.333h0.666v-3.195
		l0.901-0.901c0.063-0.063,0.097-0.146,0.097-0.235v-2.666h0.669v6.998h0.665v-6.998h0.668v2.666c0,0.089,0.034,0.173,0.098,0.235
		l0.902,0.901v3.195h0.666v-3.333c0-0.088-0.036-0.173-0.099-0.235l-0.901-0.901v-2.528h0.667v1.666
		c0,0.089,0.034,0.173,0.098,0.235l1.9,1.901v3.195h0.666v-3.333c0-0.088-0.034-0.173-0.097-0.235l-1.902-1.902v-1.527h1
		c0.634,0,1.208-0.255,1.63-0.667h1.898l0.901,0.903c0.063,0.062,0.147,0.097,0.235,0.097h1.334v-0.666h-1.195l-0.902-0.902
		c-0.061-0.063-0.147-0.097-0.235-0.097h-1.561c0.1-0.207,0.168-0.432,0.202-0.667h3.691V24.04h-3.691
		c-0.034-0.235-0.103-0.459-0.202-0.666h1.227C31.933,23.374,32.017,23.339,32.078,23.277 M28.51,26.039h-7.999
		c-0.917,0-1.665-0.746-1.665-1.666c0-0.918,0.748-1.665,1.665-1.665c0.19,0,0.382,0.033,0.565,0.101
		c0.109,0.039,0.228,0.02,0.318-0.05c0.092-0.071,0.138-0.181,0.128-0.294l-0.009-0.091c0-0.551,0.448-1,0.999-1
		c0.153,0,0.309,0.04,0.456,0.117c0.081,0.042,0.173,0.049,0.258,0.022c0.085-0.029,0.155-0.089,0.194-0.169
		c0.399-0.804,1.198-1.303,2.092-1.303c1.286,0,2.331,1.047,2.331,2.324v0.039c0,0.098,0.043,0.192,0.117,0.255
		c0.075,0.063,0.175,0.091,0.271,0.073c0.1-0.016,0.191-0.024,0.278-0.024c0.918,0,1.666,0.747,1.666,1.665
		C30.176,25.293,29.428,26.039,28.51,26.039"/>
	<path style="clip-path:url(#SVGID_2_);fill:#FFFFFF;" d="M42.347,43.939C46.198,38.859,47,37.803,47,35.217
		c0-4.005-3.257-7.264-7.264-7.264s-7.264,3.259-7.264,7.264c0,2.589,0.798,3.643,4.639,8.703l0.115,0.154
		c0.644,0.846,1.371,1.807,2.196,2.905c0.074,0.099,0.191,0.157,0.313,0.157c0.121,0,0.241-0.06,0.315-0.158
		c0.848-1.133,1.596-2.118,2.255-2.987L42.347,43.939z M39.879,45.898l-0.143,0.19l-0.143-0.19c-0.687-0.912-1.299-1.72-1.852-2.448
		c-3.8-5.008-4.482-5.909-4.482-8.233c0-3.57,2.904-6.476,6.477-6.476s6.477,2.905,6.477,6.476c0,2.32-0.687,3.225-4.491,8.243
		C41.169,44.188,40.56,44.992,39.879,45.898"/>
	<path style="clip-path:url(#SVGID_2_);fill:#FFFFFF;" d="M39.736,31.389c-2.111,0-3.828,1.717-3.828,3.828s1.717,3.829,3.828,3.829
		s3.83-1.718,3.83-3.829S41.848,31.389,39.736,31.389 M39.736,38.258c-1.677,0-3.043-1.363-3.043-3.041
		c0-1.676,1.366-3.041,3.043-3.041s3.041,1.365,3.041,3.041C42.777,36.895,41.413,38.258,39.736,38.258"/>
	<path style="clip-path:url(#SVGID_2_);fill:#FFFFFF;" d="M45.795,20.406v-0.401c-0.413-0.029-0.744-0.359-0.773-0.773H44.62
		c-0.028,0.414-0.358,0.744-0.772,0.773v0.401c0.414,0.03,0.744,0.361,0.772,0.773h0.401C45.051,20.767,45.382,20.435,45.795,20.406
		 M45.123,20.253c-0.098,0.073-0.183,0.158-0.254,0.254l-0.049,0.064l-0.047-0.064c-0.07-0.096-0.157-0.181-0.255-0.254
		l-0.063-0.048l0.063-0.048c0.098-0.071,0.183-0.157,0.255-0.254l0.047-0.064l0.049,0.064c0.071,0.097,0.156,0.183,0.254,0.254
		l0.063,0.048L45.123,20.253z"/>
	<path style="clip-path:url(#SVGID_2_);fill:#FFFFFF;" d="M6.495,15.514v-0.536c-0.603-0.057-1.085-0.538-1.14-1.141H4.818
		c-0.056,0.603-0.537,1.084-1.14,1.141v0.536c0.603,0.056,1.084,0.536,1.14,1.139h0.537C5.41,16.05,5.892,15.57,6.495,15.514
		 M5.551,15.341c-0.141,0.104-0.263,0.228-0.369,0.369l-0.096,0.129L4.99,15.71c-0.105-0.141-0.228-0.265-0.369-0.369l-0.128-0.095
		l0.128-0.095c0.141-0.105,0.265-0.229,0.369-0.371l0.096-0.128l0.096,0.128c0.104,0.142,0.228,0.266,0.369,0.37l0.13,0.096
		L5.551,15.341z"/>
	<path style="clip-path:url(#SVGID_2_);fill:#FFFFFF;" d="M21.669,44.72v-0.371c-0.388-0.028-0.697-0.338-0.726-0.725h-0.371
		c-0.029,0.387-0.339,0.696-0.726,0.725v0.371c0.387,0.028,0.697,0.34,0.726,0.726h0.371C20.972,45.06,21.281,44.748,21.669,44.72
		 M21.044,44.581c-0.092,0.068-0.171,0.148-0.239,0.238l-0.047,0.064l-0.049-0.063c-0.066-0.091-0.147-0.171-0.238-0.239
		l-0.065-0.047l0.065-0.048c0.091-0.067,0.172-0.147,0.238-0.237l0.049-0.063l0.047,0.063c0.068,0.09,0.147,0.17,0.239,0.237
		l0.063,0.048L21.044,44.581z"/>
</g>
</svg>
