<?xml version="1.0" encoding="iso-8859-1"?>
<!-- Generator: Adobe Illustrator 15.1.0, SVG Export Plug-In . SVG Version: 6.00 Build 0)  -->
<!DOCTYPE svg PUBLIC "-//W3C//DTD SVG 1.1//EN" "http://www.w3.org/Graphics/SVG/1.1/DTD/svg11.dtd">
<svg version="1.1" id="Layer_1" xmlns="http://www.w3.org/2000/svg" xmlns:xlink="http://www.w3.org/1999/xlink" x="0px" y="0px"
	 width="50px" height="50px" viewBox="0 0 50 50" style="enable-background:new 0 0 50 50;" xml:space="preserve">
<polygon style="fill:#FFFFFF;" points="31.46,45.047 31.667,45.62 31.952,45.518 32.239,45.413 32.034,44.842 "/>
<rect x="6.666" y="12.941" transform="matrix(-0.8298 -0.558 0.558 -0.8298 5.3633 28.1268)" style="fill:#FFFFFF;" width="0.609" height="0.608"/>
<rect x="32.901" y="44.383" transform="matrix(-0.4032 -0.9151 0.9151 -0.4032 5.6992 93.0929)" style="fill:#FFFFFF;" width="0.61" height="0.61"/>
<polygon style="fill:#FFFFFF;" points="41.447,12.625 41.626,12.871 41.805,13.117 42.298,12.759 42.118,12.513 41.938,12.268 "/>
<rect x="28.737" y="45.723" transform="matrix(-0.2047 -0.9788 0.9788 -0.2047 -10.0654 83.8786)" style="fill:#FFFFFF;" width="0.611" height="0.61"/>
<polygon style="fill:#FFFFFF;" points="34.381,43.785 34.111,43.927 34.394,44.466 34.934,44.184 34.648,43.645 "/>
<polygon style="fill:#FFFFFF;" points="30.083,45.469 30.249,46.055 30.544,45.97 30.835,45.887 30.669,45.301 "/>
<polygon style="fill:#FFFFFF;" points="21.435,46.572 21.737,46.611 22.039,46.652 22.119,46.048 21.517,45.967 "/>
<rect x="27.299" y="45.978" transform="matrix(-0.1394 -0.9902 0.9902 -0.1394 -14.3787 80.0691)" style="fill:#FFFFFF;" width="0.609" height="0.61"/>
<polygon style="fill:#FFFFFF;" points="5.276,34.852 5.416,35.12 5.556,35.393 6.096,35.113 5.816,34.572 "/>
<rect x="25.847" y="46.136" transform="matrix(-0.0739 -0.9973 0.9973 -0.0739 -18.2304 75.95)" style="fill:#FFFFFF;" width="0.608" height="0.608"/>
<polygon style="fill:#FFFFFF;" points="4.661,33.503 4.781,33.784 4.902,34.062 5.461,33.822 5.218,33.262 "/>
<rect x="24.386" y="46.192" style="fill:#FFFFFF;" width="0.61" height="0.608"/>
<polygon style="fill:#FFFFFF;" points="39.85,39.644 40.298,40.057 40.504,39.834 40.71,39.608 40.263,39.196 "/>
<rect x="38.95" y="40.361" transform="matrix(-0.6868 -0.7268 0.7268 -0.6868 36.6593 97.1273)" style="fill:#FFFFFF;" width="0.61" height="0.61"/>
<polygon style="fill:#FFFFFF;" points="5.777,14.592 6.303,14.898 6.456,14.634 6.456,14.636 6.609,14.372 6.083,14.066 "/>
<rect x="40.927" y="38.214" transform="matrix(-0.7791 -0.6268 0.6268 -0.7791 49.2125 94.3761)" style="fill:#FFFFFF;" width="0.609" height="0.609"/>
<polygon style="fill:#FFFFFF;" points="40.547,11.501 40.741,11.736 40.937,11.97 41.405,11.579 41.013,11.111 "/>
<polygon style="fill:#FFFFFF;" points="39.57,10.444 39.78,10.664 39.992,10.883 40.431,10.462 40.01,10.023 "/>
<polygon style="fill:#FFFFFF;" points="5.095,15.907 5.64,16.177 5.775,15.903 5.91,15.631 5.363,15.362 "/>
<rect x="4.595" y="16.795" transform="matrix(-0.924 -0.3823 0.3823 -0.924 2.8906 34.7745)" style="fill:#FFFFFF;" width="0.609" height="0.609"/>
<rect x="36.702" y="42.219" transform="matrix(-0.5818 -0.8133 0.8133 -0.5818 23.9529 97.3631)" style="fill:#FFFFFF;" width="0.608" height="0.61"/>
<polygon style="fill:#FFFFFF;" points="4.101,18.373 4.005,18.662 4.583,18.855 4.775,18.277 4.197,18.085 "/>
<rect x="37.859" y="41.329" transform="matrix(-0.6356 -0.772 0.772 -0.6356 30.2779 97.5592)" style="fill:#FFFFFF;" width="0.608" height="0.611"/>
<polygon style="fill:#FFFFFF;" points="5.981,36.151 6.141,36.412 6.299,36.673 6.818,36.355 6.66,36.095 6.662,36.095 
	6.501,35.837 "/>
<rect x="10.558" y="8.606" transform="matrix(-0.6449 -0.7643 0.7643 -0.6449 11.0579 22.9606)" style="fill:#FFFFFF;" width="0.609" height="0.611"/>
<rect x="9.475" y="9.589" transform="matrix(-0.6991 -0.7151 0.7151 -0.6991 9.5442 23.8028)" style="fill:#FFFFFF;" width="0.611" height="0.608"/>
<polygon style="fill:#FFFFFF;" points="9.648,40.781 9.871,40.99 10.094,41.197 10.508,40.751 10.286,40.544 10.064,40.336 "/>
<polygon style="fill:#FFFFFF;" points="10.753,41.771 10.988,41.961 11.225,42.153 11.608,41.682 11.136,41.298 "/>
<polygon style="fill:#FFFFFF;" points="3.063,26.844 3.092,27.147 3.12,27.451 3.726,27.395 3.67,26.789 "/>
<polygon style="fill:#FFFFFF;" points="7.655,38.593 7.85,38.827 8.041,39.064 8.511,38.679 8.128,38.209 "/>
<polygon style="fill:#FFFFFF;" points="3.229,28.316 3.276,28.617 3.325,28.917 3.927,28.819 3.83,28.219 "/>
<rect x="7.526" y="11.759" transform="matrix(-0.788 -0.6157 0.6157 -0.788 6.5736 26.3909)" style="fill:#FFFFFF;" width="0.609" height="0.609"/>
<rect x="8.463" y="10.639" transform="matrix(-0.7437 -0.6685 0.6685 -0.7437 7.9731 24.9455)" style="fill:#FFFFFF;" width="0.611" height="0.61"/>
<rect x="3.355" y="20.993" transform="matrix(-0.9833 -0.1819 0.1819 -0.9833 3.3837 42.9071)" style="fill:#FFFFFF;" width="0.609" height="0.61"/>
<polygon style="fill:#FFFFFF;" points="8.614,39.721 8.823,39.945 9.031,40.166 9.475,39.751 9.059,39.304 "/>
<polygon style="fill:#FFFFFF;" points="15.761,44.906 16.041,45.027 16.321,45.149 16.563,44.59 16.004,44.348 "/>
<polygon style="fill:#FFFFFF;" points="19.977,46.302 20.275,46.365 20.573,46.425 20.696,45.829 20.1,45.706 "/>
<polygon style="fill:#FFFFFF;" points="18.541,45.935 18.834,46.016 19.126,46.098 19.291,45.511 18.704,45.347 "/>
<polygon style="fill:#FFFFFF;" points="17.132,45.469 17.419,45.568 17.707,45.671 17.91,45.097 17.336,44.895 "/>
<polygon style="fill:#FFFFFF;" points="11.922,42.68 12.169,42.855 12.419,43.03 12.77,42.532 12.521,42.359 12.272,42.182 "/>
<rect x="35.485" y="43.029" transform="matrix(-0.5244 -0.8515 0.8515 -0.5244 17.659 96.5292)" style="fill:#FFFFFF;" width="0.609" height="0.608"/>
<polygon style="fill:#FFFFFF;" points="22.91,46.737 23.211,46.756 23.516,46.777 23.555,46.17 23.25,46.148 23.25,46.149 
	22.946,46.131 "/>
<polygon style="fill:#FFFFFF;" points="3.387,29.254 3.448,29.55 3.51,29.849 4.107,29.729 3.984,29.131 "/>
<polygon style="fill:#FFFFFF;" points="3.715,30.697 3.797,30.992 3.877,31.285 4.464,31.122 4.301,30.535 "/>
<polygon style="fill:#FFFFFF;" points="13.148,43.509 13.409,43.667 13.671,43.826 13.985,43.305 13.466,42.989 "/>
<polygon style="fill:#FFFFFF;" points="4.139,32.117 4.24,32.404 4.341,32.691 4.915,32.488 4.713,31.915 "/>
<polygon style="fill:#FFFFFF;" points="14.432,44.254 14.702,44.393 14.972,44.532 15.252,43.991 14.71,43.711 "/>
<rect x="14.168" y="6.143" transform="matrix(-0.4765 -0.8792 0.8792 -0.4765 15.7001 22.2422)" style="fill:#FFFFFF;" width="0.609" height="0.608"/>
<polygon style="fill:#FFFFFF;" points="6.776,37.4 6.952,37.65 7.129,37.898 7.626,37.547 7.275,37.049 "/>
<polygon style="fill:#FFFFFF;" points="45.342,21.814 45.387,22.114 45.431,22.415 46.034,22.326 45.944,21.723 "/>
<polygon style="fill:#FFFFFF;" points="37.414,8.539 37.653,8.728 37.891,8.917 38.269,8.439 37.791,8.062 "/>
<polygon style="fill:#FFFFFF;" points="16.737,5.06 16.952,5.629 17.236,5.523 17.521,5.417 17.309,4.847 "/>
<rect x="15.477" y="5.492" transform="matrix(-0.4131 -0.9107 0.9107 -0.4131 17.0212 22.5623)" style="fill:#FFFFFF;" width="0.607" height="0.61"/>
<polygon style="fill:#FFFFFF;" points="38.524,9.455 38.751,9.659 38.974,9.865 39.385,9.414 38.935,9.004 "/>
<polygon style="fill:#FFFFFF;" points="18.427,4.481 18.136,4.568 18.31,5.153 18.602,5.065 18.893,4.98 18.72,4.396 "/>
<polygon style="fill:#FFFFFF;" points="44.688,19.011 44.773,19.302 44.858,19.595 45.443,19.424 45.358,19.133 45.271,18.84 "/>
<polygon style="fill:#FFFFFF;" points="45.525,23.242 45.551,23.544 45.574,23.849 46.181,23.8 46.133,23.193 "/>
<rect x="19.624" y="4.101" transform="matrix(-0.2198 -0.9755 0.9755 -0.2198 20.01 24.8154)" style="fill:#FFFFFF;" width="0.609" height="0.61"/>
<polygon style="fill:#FFFFFF;" points="45.063,20.4 45.127,20.697 45.193,20.996 45.788,20.864 45.722,20.568 45.657,20.271 "/>
<polygon style="fill:#FFFFFF;" points="33.742,6.273 34.015,6.41 34.287,6.546 34.558,6.001 34.015,5.729 "/>
<polygon style="fill:#FFFFFF;" points="42.268,13.806 42.431,14.063 42.591,14.323 43.107,13.999 42.784,13.482 "/>
<polygon style="fill:#FFFFFF;" points="32.425,5.691 32.706,5.808 32.986,5.927 33.223,5.363 32.659,5.129 "/>
<polygon style="fill:#FFFFFF;" points="3,25.364 3.006,25.668 3.014,25.972 3.623,25.957 3.607,25.35 "/>
<rect x="12.909" y="6.88" transform="matrix(-0.5372 -0.8435 0.8435 -0.5372 14.2509 22.1892)" style="fill:#FFFFFF;" width="0.609" height="0.609"/>
<polygon style="fill:#FFFFFF;" points="35.018,6.945 35.279,7.099 35.541,7.254 35.852,6.73 35.326,6.419 "/>
<polygon style="fill:#FFFFFF;" points="31.07,5.2 31.359,5.298 31.358,5.298 31.646,5.396 31.843,4.82 31.555,4.722 31.554,4.722 
	31.267,4.625 "/>
<polygon style="fill:#FFFFFF;" points="36.242,7.701 36.493,7.874 36.744,8.045 37.088,7.543 36.587,7.199 "/>
<rect x="11.704" y="7.704" transform="matrix(-0.591 -0.8067 0.8067 -0.591 12.6442 22.4282)" style="fill:#FFFFFF;" width="0.609" height="0.608"/>
<rect x="3.022" y="23.895" transform="matrix(-0.999 -0.0449 0.0449 -0.999 5.5616 48.5244)" style="fill:#FFFFFF;" width="0.609" height="0.609"/>
<rect x="3.138" y="22.441" transform="matrix(-0.9938 -0.1115 0.1115 -0.9938 4.3285 45.7323)" style="fill:#FFFFFF;" width="0.609" height="0.609"/>
<rect x="42.594" y="35.818" transform="matrix(-0.8589 -0.5121 0.5121 -0.8589 61.2449 89.1172)" style="fill:#FFFFFF;" width="0.608" height="0.608"/>
<polygon style="fill:#FFFFFF;" points="43.006,15.04 43.149,15.308 43.293,15.577 43.831,15.291 43.688,15.021 43.544,14.753 "/>
<rect x="41.802" y="37.045" transform="matrix(-0.821 -0.5709 0.5709 -0.821 55.3556 92.0517)" style="fill:#FFFFFF;" width="0.609" height="0.608"/>
<polygon style="fill:#FFFFFF;" points="44.888,30.682 44.809,30.974 45.396,31.135 45.555,30.547 44.969,30.387 "/>
<polygon style="fill:#FFFFFF;" points="44.219,17.649 44.323,17.934 44.428,18.221 45.001,18.012 44.792,17.438 "/>
<polygon style="fill:#FFFFFF;" points="43.943,33.401 43.825,33.682 44.385,33.919 44.506,33.64 44.622,33.359 44.063,33.12 "/>
<polygon style="fill:#FFFFFF;" points="43.658,16.324 43.782,16.601 43.906,16.878 44.463,16.631 44.215,16.076 "/>
<polygon style="fill:#FFFFFF;" points="43.335,34.705 43.335,34.704 43.196,34.977 43.74,35.252 44.015,34.71 43.473,34.435 "/>
<rect x="44.445" y="31.852" transform="matrix(-0.9443 -0.3291 0.3291 -0.9443 76.4236 77.25)" style="fill:#FFFFFF;" width="0.611" height="0.608"/>
<polygon style="fill:#FFFFFF;" points="25.413,4.199 25.716,4.214 26.021,4.229 26.053,3.623 25.445,3.59 "/>
<rect x="45.21" y="29.033" transform="matrix(-0.9808 -0.1952 0.1952 -0.9808 84.4283 66.9947)" style="fill:#FFFFFF;" width="0.61" height="0.608"/>
<polygon style="fill:#FFFFFF;" points="24.268,3.581 23.962,3.586 23.974,4.194 24.278,4.188 24.582,4.184 24.573,3.576 "/>
<polygon style="fill:#FFFFFF;" points="45.41,28.158 46.015,28.234 46.054,27.933 46.092,27.631 45.487,27.554 "/>
<polygon style="fill:#FFFFFF;" points="22.485,3.683 22.536,4.289 22.84,4.263 23.143,4.237 23.091,3.63 "/>
<rect x="21.059" y="3.83" transform="matrix(-0.1544 -0.988 0.988 -0.1544 20.5757 25.8794)" style="fill:#FFFFFF;" width="0.607" height="0.609"/>
<g>
	<defs>
		<rect id="SVGID_1_" width="50" height="50"/>
	</defs>
	<clipPath id="SVGID_2_">
		<use xlink:href="#SVGID_1_"  style="overflow:visible;"/>
	</clipPath>
	<path style="clip-path:url(#SVGID_2_);fill:#FFFFFF;" d="M46.211,24.91h-0.408c-0.03,0.422-0.367,0.759-0.789,0.789v0.408
		c0.422,0.031,0.759,0.368,0.789,0.789h0.408c0.03-0.421,0.368-0.758,0.789-0.789v-0.408C46.579,25.669,46.241,25.332,46.211,24.91
		 M46.315,25.951c-0.1,0.073-0.188,0.16-0.26,0.26l-0.049,0.065l-0.049-0.065c-0.072-0.099-0.16-0.187-0.26-0.26l-0.064-0.05
		l0.065-0.049c0.099-0.072,0.186-0.159,0.259-0.257l0.049-0.067l0.049,0.067c0.072,0.099,0.161,0.185,0.26,0.257l0.065,0.049
		L46.315,25.951z"/>
	<path style="clip-path:url(#SVGID_2_);fill:#FFFFFF;" d="M28.098,6.072h0.547c0.058-0.615,0.549-1.105,1.164-1.163V4.361
		c-0.615-0.057-1.106-0.549-1.164-1.163h-0.547c-0.059,0.614-0.549,1.106-1.164,1.163v0.548C27.549,4.967,28.039,5.457,28.098,6.072
		 M27.896,4.537c0.144-0.105,0.27-0.232,0.377-0.377l0.098-0.131l0.098,0.131c0.106,0.145,0.233,0.272,0.377,0.377l0.131,0.098
		l-0.132,0.097c-0.142,0.107-0.269,0.234-0.376,0.377L28.371,5.24l-0.098-0.131c-0.107-0.143-0.234-0.27-0.376-0.377l-0.132-0.097
		L27.896,4.537z"/>
	<path style="clip-path:url(#SVGID_2_);fill:#FFFFFF;" d="M3.18,19.695v0.377c0.396,0.03,0.712,0.347,0.742,0.742h0.377
		c0.031-0.395,0.346-0.712,0.742-0.742v-0.377c-0.396-0.029-0.711-0.346-0.742-0.741H3.922C3.893,19.349,3.576,19.666,3.18,19.695
		 M4.11,19.527l0.049,0.064c0.068,0.094,0.151,0.176,0.243,0.244l0.065,0.048l-0.065,0.05c-0.092,0.069-0.175,0.15-0.243,0.242
		L4.11,20.241l-0.049-0.066c-0.068-0.092-0.149-0.173-0.243-0.242l-0.065-0.05l0.066-0.048c0.093-0.068,0.174-0.15,0.242-0.244
		L4.11,19.527z"/>
	<path style="clip-path:url(#SVGID_2_);fill:#FFFFFF;" d="M14.473,32.76v0.92c0,0.142,0.054,0.27,0.142,0.368
		c-0.088,0.099-0.142,0.226-0.142,0.367v1.106c0,0.304,0.246,0.551,0.551,0.551H21.1c0.304,0,0.552-0.247,0.552-0.551v-1.106
		c0-0.142-0.056-0.269-0.144-0.367c0.088-0.099,0.144-0.227,0.144-0.368v-1.105c0-0.141-0.056-0.27-0.144-0.368
		c0.088-0.098,0.144-0.225,0.144-0.367v-0.166v-0.938c0-0.305-0.248-0.553-0.552-0.553h-0.57h-2.419
		c0.148-0.413,0.227-0.847,0.227-1.288c0-2.132-1.733-3.866-3.865-3.866c-2.133,0-3.868,1.734-3.868,3.866S12.34,32.76,14.473,32.76
		 M10.983,29.077h1.839c0.025,0.565,0.149,1.096,0.32,1.568c-0.426,0.157-0.823,0.389-1.171,0.688
		C11.396,30.743,11.029,29.952,10.983,29.077 M12.244,31.587c0.309-0.26,0.658-0.462,1.034-0.599
		c0.259,0.601,0.575,1.081,0.792,1.377C13.382,32.286,12.752,32.01,12.244,31.587 M14.473,32.282
		c-0.192-0.246-0.546-0.749-0.836-1.403c0.271-0.066,0.551-0.099,0.836-0.099v1.059c0,0.031,0.003,0.063,0.007,0.095
		c0.001,0.004,0.001,0.009,0.003,0.013c0.001,0.009,0.004,0.018,0.007,0.026c0.004,0.016,0.009,0.032,0.014,0.049
		c0.003,0.007,0.006,0.017,0.01,0.024c0.002,0.009,0.007,0.017,0.009,0.023c0.005,0.01,0.011,0.021,0.018,0.032
		c0.006,0.011,0.012,0.024,0.021,0.036c0.001,0.005,0.005,0.011,0.009,0.015C14.534,32.201,14.501,32.245,14.473,32.282
		 M14.579,30.409c-0.368-0.01-0.733,0.032-1.083,0.123c-0.163-0.441-0.282-0.933-0.307-1.455h2.564
		c-0.017,0.359-0.077,0.729-0.188,1.104h-0.541C14.841,30.182,14.68,30.272,14.579,30.409 M13.189,28.709
		c0.023-0.486,0.129-0.948,0.277-1.368c0.323,0.095,0.661,0.146,1.007,0.146c0.342,0,0.68-0.05,1.006-0.146
		c0.146,0.42,0.252,0.882,0.274,1.368H13.189z M21.284,35.521c0,0.101-0.084,0.183-0.184,0.183h-6.076
		c-0.102,0-0.184-0.082-0.184-0.183v-1.106c0-0.101,0.082-0.183,0.184-0.183H21.1c0.1,0,0.184,0.082,0.184,0.183V35.521z
		 M21.284,33.68c0,0.101-0.084,0.184-0.184,0.184h-6.076c-0.102,0-0.184-0.083-0.184-0.184v-1.105c0-0.001,0.001-0.002,0.001-0.002
		c0.002-0.1,0.083-0.182,0.183-0.182H21.1c0.1,0,0.184,0.082,0.184,0.184V33.68z M20.805,30.551H21.1c0.1,0,0.184,0.081,0.184,0.184
		v0.453v0.651c0,0.103-0.084,0.185-0.184,0.185h-6.076c-0.045,0-0.087-0.02-0.12-0.047c-0.005-0.004-0.01-0.008-0.014-0.015
		c-0.014-0.014-0.025-0.028-0.033-0.048c-0.002-0.004-0.003-0.008-0.004-0.011c-0.008-0.021-0.013-0.042-0.013-0.064v-1.104
		c0-0.103,0.082-0.184,0.184-0.184H20.805z M17.723,30.182h-1.779c0.103-0.374,0.161-0.743,0.177-1.104h1.841
		C17.941,29.456,17.864,29.827,17.723,30.182 M17.961,28.708h-1.84c-0.022-0.534-0.135-1.037-0.293-1.487
		c0.428-0.175,0.82-0.431,1.155-0.756C17.554,27.055,17.914,27.84,17.961,28.708 M16.714,26.212
		c-0.296,0.285-0.642,0.508-1.019,0.66c-0.264-0.635-0.594-1.143-0.823-1.452C15.569,25.5,16.203,25.784,16.714,26.212
		 M15.345,26.993c-0.282,0.078-0.575,0.124-0.872,0.124c-0.299,0-0.592-0.046-0.873-0.124c0.295-0.697,0.672-1.231,0.873-1.49
		C14.671,25.762,15.049,26.296,15.345,26.993 M14.07,25.42c-0.226,0.31-0.556,0.817-0.823,1.452
		c-0.375-0.152-0.721-0.375-1.017-0.66C12.74,25.784,13.375,25.5,14.07,25.42 M11.959,26.465c0.336,0.325,0.729,0.581,1.156,0.756
		c-0.158,0.45-0.27,0.955-0.293,1.488h-1.839C11.028,27.84,11.391,27.055,11.959,26.465"/>
	<rect x="20.548" y="31.102" style="clip-path:url(#SVGID_2_);fill:#FFFFFF;" width="0.367" height="0.368"/>
	<rect x="15.209" y="31.102" style="clip-path:url(#SVGID_2_);fill:#FFFFFF;" width="3.129" height="0.368"/>
	<rect x="20.548" y="32.943" style="clip-path:url(#SVGID_2_);fill:#FFFFFF;" width="0.367" height="0.368"/>
	<rect x="15.209" y="32.943" style="clip-path:url(#SVGID_2_);fill:#FFFFFF;" width="3.129" height="0.368"/>
	<rect x="20.548" y="34.784" style="clip-path:url(#SVGID_2_);fill:#FFFFFF;" width="0.367" height="0.368"/>
	<rect x="15.209" y="34.784" style="clip-path:url(#SVGID_2_);fill:#FFFFFF;" width="3.129" height="0.368"/>
	<polygon style="clip-path:url(#SVGID_2_);fill:#FFFFFF;" points="18.338,27.235 18.338,27.604 18.707,27.604 18.707,27.479 
		18.707,27.235 18.579,27.235 	"/>
	<polygon style="clip-path:url(#SVGID_2_);fill:#FFFFFF;" points="20.179,27.605 20.179,27.236 19.812,27.236 19.812,27.351 
		19.812,27.605 19.968,27.605 	"/>
	<rect x="20.548" y="27.236" style="clip-path:url(#SVGID_2_);fill:#FFFFFF;" width="0.367" height="0.369"/>
	<rect x="20.548" y="27.972" style="clip-path:url(#SVGID_2_);fill:#FFFFFF;" width="0.367" height="0.369"/>
	<rect x="13.736" y="34.784" style="clip-path:url(#SVGID_2_);fill:#FFFFFF;" width="0.368" height="0.368"/>
	<rect x="12.999" y="34.784" style="clip-path:url(#SVGID_2_);fill:#FFFFFF;" width="0.368" height="0.368"/>
	<rect x="12.263" y="34.784" style="clip-path:url(#SVGID_2_);fill:#FFFFFF;" width="0.368" height="0.368"/>
	<rect x="12.263" y="34.049" style="clip-path:url(#SVGID_2_);fill:#FFFFFF;" width="0.368" height="0.367"/>
	<rect x="12.263" y="33.312" style="clip-path:url(#SVGID_2_);fill:#FFFFFF;" width="0.368" height="0.367"/>
	<rect x="12.263" y="32.575" style="clip-path:url(#SVGID_2_);fill:#FFFFFF;" width="0.368" height="0.368"/>
	<path style="clip-path:url(#SVGID_2_);fill:#FFFFFF;" d="M26.388,31.477c-0.03,0.038-0.06,0.076-0.09,0.116h0.09V31.477z"/>
	<path style="clip-path:url(#SVGID_2_);fill:#FFFFFF;" d="M28.083,29.868h0.638c1.981-2.692,2.385-3.616,2.385-5.443
		c0-1.472-0.507-2.912-1.428-4.064h-0.663c-0.138,0-0.275-0.012-0.412-0.033c1.102,1.077,1.724,2.544,1.724,4.097
		c0,1.622-0.378,2.467-2.243,4.998V29.868z"/>
	<path style="clip-path:url(#SVGID_2_);fill:#FFFFFF;" d="M27.526,29.989v-0.022c-0.005,0.006-0.012,0.014-0.017,0.022H27.526z"/>
	<path style="clip-path:url(#SVGID_2_);fill:#FFFFFF;" d="M20.425,29.835v-0.512h0.589c-0.03-0.042-0.061-0.083-0.091-0.125h-0.498
		v-0.611h0.058c-0.227-0.321-0.419-0.605-0.582-0.86H19.69v-0.342c-0.044-0.072-0.086-0.146-0.125-0.216v0.558h-0.577
		C19.308,28.269,19.751,28.917,20.425,29.835"/>
	<path style="clip-path:url(#SVGID_2_);fill:#FFFFFF;" d="M23.148,33.447c0.021-0.006,0.044-0.008,0.065-0.008h0.278v-0.393h-0.278
		c-0.186,0-0.338-0.153-0.338-0.34c0-0.188,0.152-0.339,0.338-0.339h0.095l-0.472-0.62c-0.721-0.952-1.311-1.731-1.799-2.394v0.58
		H20.5c0.029,0.041,0.06,0.082,0.091,0.125H21.1c0.371,0,0.674,0.302,0.674,0.674v0.899l0.443,0.584
		C22.507,32.601,22.818,33.01,23.148,33.447"/>
	<path style="clip-path:url(#SVGID_2_);fill:#FFFFFF;" d="M18.654,27.114h0.174v0.333c0.039,0.071,0.081,0.146,0.124,0.221v-0.554
		h0.581c-0.51-0.922-0.689-1.639-0.689-2.689c0-3.165,2.577-5.74,5.743-5.74c0.762,0,1.522,0.155,2.223,0.45
		c-0.182-0.291-0.304-0.614-0.358-0.957c-0.604-0.18-1.231-0.272-1.865-0.272c-3.595,0-6.52,2.925-6.52,6.519
		C18.067,25.511,18.228,26.25,18.654,27.114"/>
	<rect x="19.074" y="27.236" style="clip-path:url(#SVGID_2_);fill:#FFFFFF;" width="0.369" height="0.369"/>
	<polygon style="clip-path:url(#SVGID_2_);fill:#FFFFFF;" points="20.548,29.077 20.915,29.077 20.915,28.981 20.915,28.709 
		20.719,28.709 20.548,28.709 	"/>
	<rect x="20.548" y="29.446" style="clip-path:url(#SVGID_2_);fill:#FFFFFF;" width="0.367" height="0.368"/>
	<path style="clip-path:url(#SVGID_2_);fill:#FFFFFF;" d="M27.919,24.424c0-1.837-1.495-3.331-3.332-3.331
		c-1.838,0-3.333,1.494-3.333,3.331c0,1.837,1.495,3.332,3.333,3.332C26.424,27.756,27.919,26.262,27.919,24.424 M21.789,24.424
		c0-1.542,1.254-2.797,2.798-2.797c1.542,0,2.797,1.255,2.797,2.797c0,1.542-1.255,2.798-2.797,2.798
		C23.043,27.223,21.789,25.966,21.789,24.424"/>
	<path style="clip-path:url(#SVGID_2_);fill:#FFFFFF;" d="M35.33,38.726v-4.019c0.36-0.153,0.615-0.512,0.615-0.928
		c0-0.12-0.098-0.219-0.217-0.219H35.33v-0.638h0.398c0.119,0,0.217-0.096,0.217-0.216c0-0.121-0.098-0.217-0.217-0.217H35.33
		v-0.504c0-0.218-0.176-0.394-0.393-0.394h-2.516v-1.17h0.439c0.12,0,0.218-0.097,0.218-0.216c0-0.122-0.098-0.218-0.218-0.218
		h-0.709v-1.665h0.014c0.12,0,0.218-0.099,0.218-0.217c0-0.121-0.098-0.218-0.218-0.218h-0.034
		c-0.021-0.071-0.055-0.144-0.104-0.216c-0.051-0.074-0.095-0.113-0.137-0.15c-0.019-0.018-0.039-0.034-0.064-0.06
		c-0.038-0.038-0.073-0.08-0.108-0.125v-0.236c0-0.119-0.097-0.218-0.217-0.218s-0.217,0.099-0.217,0.218v0.231
		c-0.035,0.046-0.073,0.091-0.113,0.13c-0.024,0.025-0.044,0.042-0.063,0.06c-0.042,0.037-0.087,0.076-0.138,0.15
		c-0.049,0.072-0.083,0.145-0.104,0.216h-0.034c-0.12,0-0.218,0.097-0.218,0.218c0,0.118,0.098,0.217,0.218,0.217h0.014v1.665
		h-2.065h-0.821v-0.607v-1.058h0.016c0.119,0,0.217-0.099,0.217-0.217c0-0.121-0.098-0.218-0.217-0.218H27.94
		c-0.02-0.071-0.054-0.144-0.103-0.216c-0.051-0.074-0.095-0.113-0.138-0.15c-0.019-0.018-0.039-0.034-0.063-0.06
		c-0.038-0.038-0.075-0.08-0.108-0.125v-0.236c0-0.119-0.098-0.218-0.218-0.218c-0.119,0-0.217,0.099-0.217,0.218v0.231
		c-0.036,0.046-0.073,0.091-0.113,0.13c-0.024,0.025-0.044,0.042-0.063,0.06c-0.043,0.037-0.086,0.076-0.137,0.15
		c-0.049,0.072-0.083,0.145-0.103,0.216h-0.036c-0.119,0-0.217,0.097-0.217,0.218c0,0.118,0.098,0.217,0.217,0.217h0.016v1.665
		h-0.575c-0.119,0-0.217,0.096-0.217,0.218c0,0.119,0.098,0.216,0.217,0.216h0.305v1.053v0.117h-0.09h-2.293
		c-0.217,0-0.393,0.176-0.393,0.394v0.504h-0.059h-0.339c-0.119,0-0.217,0.096-0.217,0.217c0,0.12,0.098,0.216,0.217,0.216h0.398
		v0.638h-0.398c-0.04,0-0.076,0.014-0.107,0.03c-0.067,0.037-0.11,0.108-0.11,0.188c0,0.416,0.254,0.774,0.615,0.928v4.019
		c0,0.119,0.097,0.218,0.218,0.218h11.282C35.232,38.943,35.33,38.845,35.33,38.726 M27.207,27.847
		c0.021-0.019,0.048-0.043,0.081-0.074c0.007-0.008,0.014-0.016,0.021-0.022c0.008,0.007,0.014,0.015,0.021,0.022
		c0.033,0.031,0.06,0.056,0.081,0.074c0.021,0.02,0.034,0.029,0.045,0.043h-0.293C27.175,27.876,27.187,27.866,27.207,27.847
		 M27.093,28.324h0.434v1.642v0.023H27.51h-0.417V28.324z M26.822,30.423h0.361h0.343v1.17h-0.704v-0.69V30.423z M24.047,32.027
		h1.922h0.419v1.139v0.395h-0.299h-1.236v-0.058v-0.58h0.437h0.33c0.12,0,0.217-0.096,0.217-0.216c0-0.121-0.097-0.217-0.217-0.217
		h-0.002h-1.571V32.027z M24.047,32.923h0.37v0.638h-0.054h-0.316v-0.419V32.923z M25.761,33.996h0.627v0.356h-0.896h-1.484
		c-0.241,0-0.446-0.147-0.532-0.356H25.761z M24.853,35.143v-0.355h0.312h1.223v0.88c-0.209-0.173-0.477-0.277-0.768-0.277
		c-0.292,0-0.56,0.104-0.767,0.277V35.143z M27.526,38.508h-3.479v-3.669v-0.052h0.37v0.402v2.73c0,0.121,0.098,0.218,0.219,0.218
		c0.119,0,0.217-0.097,0.217-0.218v-1.329c0-0.423,0.343-0.767,0.767-0.767c0.423,0,0.768,0.344,0.768,0.767v1.329
		c0,0.121,0.098,0.218,0.217,0.218c0.12,0,0.218-0.097,0.218-0.218v-0.73h0.704V38.508z M27.526,36.753h-0.704v-2.758h0.704V36.753z
		 M27.526,33.561h-0.704v-0.969v-0.564h0.429h0.275V33.561z M29.979,38.508h-1.186v-2.549c0-0.327,0.267-0.592,0.592-0.592
		c0.328,0,0.594,0.265,0.594,0.592V38.508z M30.848,38.508h-0.436v-2.549c0-0.566-0.46-1.027-1.027-1.027
		c-0.565,0-1.025,0.461-1.025,1.027v2.549h-0.398v-4.512h2.887V38.508z M30.848,33.561h-0.643v-0.854
		c0-0.121-0.098-0.217-0.218-0.217s-0.217,0.096-0.217,0.217v0.854h-0.697v-0.854c0-0.121-0.097-0.217-0.217-0.217
		s-0.218,0.096-0.218,0.217v0.854h-0.678v-1.533h2.887V33.561z M30.848,31.593h-2.887v-0.505v-0.665h0.499h2.388V31.593z
		 M32.422,32.027h2.474v0.463h-1.573c-0.12,0-0.218,0.096-0.218,0.217c0,0.12,0.098,0.216,0.218,0.216h0.664v0.638h-1.564V32.027z
		 M34.896,33.561h-0.475v-0.638h0.475V33.561z M32.422,34.787h1.535v0.88c-0.208-0.173-0.476-0.277-0.767-0.277
		c-0.292,0-0.561,0.104-0.769,0.277V34.787z M31.398,27.847c0.021-0.019,0.048-0.043,0.08-0.074L31.5,27.75l0.021,0.022
		c0.032,0.031,0.06,0.056,0.08,0.074c0.021,0.02,0.033,0.029,0.045,0.043h-0.293C31.364,27.876,31.378,27.866,31.398,27.847
		 M31.282,28.324h0.436v1.665h-0.436V28.324z M31.282,30.423h0.706v1.17h-0.706V30.423z M31.282,32.027h0.706v1.533h-0.706V32.027z
		 M31.282,33.996h0.706v2.759h-0.706V33.996z M34.896,38.508h-3.613v-1.318h0.706v0.73c0,0.121,0.097,0.218,0.217,0.218
		s0.217-0.097,0.217-0.218v-1.329c0-0.423,0.345-0.767,0.769-0.767c0.423,0,0.767,0.344,0.767,0.767v1.329
		c0,0.121,0.098,0.218,0.218,0.218s0.217-0.097,0.217-0.218v-3.133h0.504V38.508z M32.422,34.353v-0.356h3.046
		c-0.086,0.209-0.291,0.356-0.532,0.356H32.422z"/>
	<path style="clip-path:url(#SVGID_2_);fill:#FFFFFF;" d="M26.562,18.085c0.069,0.529,0.307,1.008,0.656,1.377
		c0.256,0.269,0.57,0.481,0.924,0.615c0.271,0.103,0.564,0.162,0.873,0.162h0.722h3.359v0.121h0.743V20.24h4.081
		c1.365,0,2.477-1.111,2.477-2.475c0-1.366-1.111-2.476-2.477-2.476h-0.129l-0.013-0.109c-0.18-1.629-1.556-2.86-3.198-2.86
		c-1.112,0-2.13,0.563-2.721,1.504l-0.049,0.078l-0.09-0.025c-0.157-0.049-0.318-0.072-0.479-0.072
		c-0.836,0-1.553,0.595-1.706,1.416l-0.021,0.117l-0.117-0.019c-0.128-0.02-0.256-0.03-0.383-0.03c-1.365,0-2.477,1.11-2.477,2.476
		C26.538,17.873,26.548,17.979,26.562,18.085 M29.015,15.787c0.226,0,0.451,0.041,0.67,0.119c0.081,0.029,0.17,0.016,0.238-0.037
		c0.068-0.052,0.104-0.134,0.096-0.219l-0.013-0.111c0-0.682,0.554-1.236,1.235-1.236c0.19,0,0.379,0.048,0.564,0.144
		c0.059,0.03,0.129,0.036,0.192,0.016c0.063-0.022,0.117-0.067,0.146-0.127c0.462-0.936,1.396-1.517,2.436-1.517
		c1.498,0,2.72,1.215,2.72,2.709c-0.001,0.017-0.002,0.036-0.002,0.044c0,0.073,0.032,0.143,0.088,0.19
		c0.058,0.047,0.131,0.067,0.204,0.055c0.119-0.02,0.228-0.03,0.33-0.03c1.091,0,1.977,0.887,1.977,1.978
		c0,1.089-0.886,1.976-1.977,1.976h-8.632h-0.273c-0.91,0-1.677-0.618-1.906-1.456c-0.045-0.167-0.07-0.34-0.07-0.52
		C27.038,16.674,27.924,15.787,29.015,15.787"/>
	<rect x="37.671" y="16.773" style="clip-path:url(#SVGID_2_);fill:#FFFFFF;" width="0.499" height="0.498"/>
	<rect x="37.671" y="18.256" style="clip-path:url(#SVGID_2_);fill:#FFFFFF;" width="0.499" height="0.499"/>
	<rect x="36.187" y="18.256" style="clip-path:url(#SVGID_2_);fill:#FFFFFF;" width="0.499" height="0.499"/>
</g>
</svg>
