<?xml version="1.0" encoding="iso-8859-1"?>
<!-- Generator: Adobe Illustrator 15.1.0, SVG Export Plug-In . SVG Version: 6.00 Build 0)  -->
<!DOCTYPE svg PUBLIC "-//W3C//DTD SVG 1.1//EN" "http://www.w3.org/Graphics/SVG/1.1/DTD/svg11.dtd">
<svg version="1.1" id="Layer_1" xmlns="http://www.w3.org/2000/svg" xmlns:xlink="http://www.w3.org/1999/xlink" x="0px" y="0px"
	 width="50px" height="50px" viewBox="0 0 50 50" style="enable-background:new 0 0 50 50;" xml:space="preserve">
<path style="fill:#FFFFFF;" d="M24.779,46.397l0.604-0.002l0.003,0.602L24.783,47L24.779,46.397z M23.619,46.955L23.619,46.955
	l-0.3-0.019l0.04-0.602l0.599,0.038l-0.038,0.603L23.619,46.955z M26.204,46.363l0.601-0.045l0.045,0.599l-0.602,0.045
	L26.204,46.363z M22.161,46.813l-0.299-0.041l0.08-0.597l0.597,0.078l-0.08,0.599L22.161,46.813z M27.624,46.229l0.595-0.084
	l0.086,0.596l-0.597,0.085L27.624,46.229z M20.715,46.567l-0.295-0.061l0.12-0.59l0.59,0.121l-0.12,0.589L20.715,46.567z
	 M29.03,46.001l0.589-0.126l0.125,0.59l-0.589,0.125L29.03,46.001z M19.289,46.224l-0.291-0.08l0.162-0.58l0.58,0.16l-0.162,0.582
	L19.289,46.224z M30.418,45.678l0.289-0.081l0.289-0.082l0.164,0.577l-0.578,0.165L30.418,45.678z M17.89,45.783l-0.284-0.101
	l0.201-0.567l0.567,0.199l-0.202,0.568L17.89,45.783z M31.778,45.264l0.567-0.205l0.204,0.565l-0.566,0.204L31.778,45.264z
	 M16.526,45.247l-0.278-0.12l0.24-0.552l0.553,0.239l-0.24,0.552L16.526,45.247z M33.108,44.752l0.553-0.242l0.24,0.553l-0.55,0.242
	L33.108,44.752z M15.2,44.618L15.2,44.618l-0.267-0.138l0.278-0.535l0.533,0.277l-0.277,0.535L15.2,44.618z M34.401,44.153
	l0.532-0.281l0.28,0.535l-0.267,0.139h0.001l-0.268,0.141L34.401,44.153z M13.922,43.902l-0.258-0.157l0.312-0.514l0.515,0.312
	l-0.313,0.516L13.922,43.902z M35.647,43.468l0.512-0.316l0.316,0.511l-0.511,0.316L35.647,43.468z M12.695,43.1l-0.246-0.174
	l0.347-0.492l0.492,0.347l-0.346,0.493L12.695,43.1z M36.844,42.695l0.489-0.352l0.351,0.491l-0.49,0.351L36.844,42.695z
	 M11.526,42.215l-0.234-0.188l0.38-0.469l0.233,0.19l0.234,0.189l-0.379,0.469L11.526,42.215z M37.984,41.843l0.463-0.383
	l0.385,0.463l-0.466,0.386L37.984,41.843z M10.42,41.255l-0.221-0.205l0.412-0.441l0.44,0.41l-0.41,0.44L10.42,41.255z
	 M39.063,40.916L39.5,40.5l0.414,0.438l-0.217,0.207l-0.22,0.207L39.063,40.916z M9.383,40.22L9.177,40l0.439-0.412l0.412,0.44
	l-0.44,0.412L9.383,40.22z M8.418,39.118L8.418,39.118l-0.189-0.234l0.466-0.38l0.381,0.466L8.61,39.35L8.418,39.118z M7.531,37.95
	L7.531,37.95l-0.173-0.246l0.492-0.347l0.347,0.492l-0.491,0.349L7.531,37.95z M41.891,37.719l0.344-0.493l0.494,0.343l-0.345,0.494
	L41.891,37.719z M6.729,36.728L6.572,36.47l0.514-0.313l0.313,0.514l-0.514,0.314L6.729,36.728z M42.679,36.534l0.155-0.259
	l0.154-0.258l0.518,0.308l-0.312,0.519L42.679,36.534z M6.01,35.45L6.01,35.45l-0.139-0.267l0.537-0.276l0.137,0.267l0.139,0.268
	L6.15,35.718L6.01,35.45z M5.382,34.126l-0.12-0.275l0.554-0.239l0.239,0.553l-0.554,0.239L5.382,34.126z M44.008,34.014
	l0.236-0.555l0.554,0.237l-0.236,0.555L44.008,34.014z M4.847,32.764l-0.101-0.285l0.567-0.199l0.202,0.567l-0.568,0.201
	L4.847,32.764z M44.54,32.693l0.198-0.57l0.568,0.198l-0.099,0.284l-0.1,0.286L44.54,32.693z M4.407,31.365l-0.081-0.29l0.582-0.161
	l0.159,0.58l-0.579,0.161L4.407,31.365z M44.979,31.336l0.157-0.58l0.583,0.158l-0.158,0.58L44.979,31.336z M4.063,29.94
	L4.063,29.94l-0.061-0.295l0.59-0.12l0.121,0.589l-0.59,0.122L4.063,29.94z M45.326,29.954l0.117-0.591l0.591,0.117l-0.117,0.592
	L45.326,29.954z M3.892,29.008L3.892,29.008l-0.048-0.297l0.595-0.094l0.095,0.593L3.94,29.306L3.892,29.008z M45.574,28.551
	l0.076-0.598l0.599,0.076l-0.038,0.299l-0.038,0.299L45.574,28.551z M3.708,27.555L3.708,27.555L3.68,27.254l0.601-0.055l0.055,0.6
	l-0.6,0.056L3.708,27.555z M45.727,27.135l0.035-0.602l0.602,0.035l-0.017,0.301l-0.019,0.3L45.727,27.135z M3.624,26.091
	l-0.007-0.302l0.602-0.012l0.008,0.3l0.007,0.301l-0.603,0.016L3.624,26.091z M45.776,25.41l-0.003-0.301l0.603-0.007l0.007,0.602
	l-0.602,0.008L45.776,25.41z M3.625,24.927l0.028-0.602l0.602,0.027l-0.028,0.602L3.625,24.927z M45.713,23.988l-0.024-0.302
	l0.601-0.046l0.048,0.6l-0.602,0.048L45.713,23.988z M3.722,23.464l0.069-0.598l0.598,0.068L4.32,23.533L3.722,23.464z
	 M45.551,22.571L45.551,22.571l-0.045-0.297l0.596-0.089l0.045,0.298l0.045,0.298l-0.597,0.089L45.551,22.571z M3.92,22.01
	l0.108-0.593l0.593,0.111L4.512,22.12L3.92,22.01z M45.295,21.17l-0.065-0.293l0.589-0.129l0.127,0.588l-0.587,0.129L45.295,21.17z
	 M4.217,20.573l0.15-0.582l0.584,0.15l-0.15,0.582L4.217,20.573z M44.943,19.791l-0.084-0.29l0.578-0.169l0.168,0.579l-0.579,0.169
	L44.943,19.791z M44.499,18.437l-0.104-0.283l0.566-0.206l0.207,0.565l-0.565,0.206L44.499,18.437z M43.963,17.118l-0.123-0.275
	l0.549-0.246l0.246,0.55l-0.549,0.246L43.963,17.118z M5.688,16.435l0.267-0.54l0.541,0.267l-0.267,0.54L5.688,16.435z
	 M43.337,15.84l-0.143-0.266l0.532-0.283l0.283,0.531l-0.531,0.283L43.337,15.84z M6.364,15.135l0.302-0.521l0.522,0.302
	l-0.303,0.521L6.364,15.135z M42.623,14.608l-0.159-0.256l0.511-0.319l0.16,0.255l0.16,0.256l-0.512,0.319L42.623,14.608z
	 M7.126,13.883l0.339-0.499l0.498,0.338l-0.338,0.499L7.126,13.883z M41.828,13.429L41.828,13.429l-0.176-0.244l0.488-0.354
	l0.177,0.243l0.177,0.245l-0.488,0.352L41.828,13.429z M7.973,12.686l0.185-0.236l0.186-0.238l0.475,0.371l-0.372,0.474
	L7.973,12.686z M40.954,12.305l-0.194-0.231l0.463-0.387l0.387,0.463l-0.463,0.387L40.954,12.305z M8.9,11.551l0.401-0.449
	l0.447,0.403l-0.199,0.224l-0.202,0.223L8.9,11.551z M40.004,11.244l-0.209-0.216l0.435-0.417l0.417,0.435l-0.435,0.417
	L40.004,11.244z M9.899,10.48l0.433-0.421l0.42,0.433l-0.433,0.42L9.899,10.48z M38.983,10.252l-0.223-0.202l0.405-0.446
	l0.444,0.404l-0.403,0.447L38.983,10.252z M10.971,9.48l0.459-0.389l0.389,0.46L11.36,9.94L10.971,9.48z M37.896,9.33L37.896,9.33
	l-0.234-0.186l0.373-0.472l0.473,0.373l-0.375,0.472L37.896,9.33z M12.108,8.556L12.594,8.2l0.356,0.485l-0.485,0.356L12.108,8.556z
	 M36.75,8.486L36.75,8.486l-0.248-0.171l0.342-0.497l0.496,0.341l-0.341,0.496L36.75,8.486z M13.305,7.713l0.254-0.161v0.001
	l0.256-0.162l0.322,0.508l-0.51,0.323L13.305,7.713z M35.549,7.72L35.29,7.567l0.306-0.519l0.26,0.153l0.258,0.153l-0.305,0.519
	L35.549,7.72z M14.558,6.954l0.266-0.144l0.264-0.143l0.286,0.53l-0.528,0.287L14.558,6.954z M34.297,7.039l-0.269-0.137
	l0.271-0.536l0.27,0.134V6.499l0.269,0.136l-0.269,0.538L34.297,7.039z M15.861,6.284l0.549-0.25l0.248,0.548l-0.547,0.249
	L15.861,6.284z M33.004,6.444L33.004,6.444l-0.278-0.117l0.232-0.556l0.277,0.116v0.001l0.278,0.116l-0.232,0.555L33.004,6.444z
	 M17.207,5.704l0.565-0.21l0.211,0.563l-0.565,0.211L17.207,5.704z M31.671,5.939l-0.284-0.098l0.193-0.569l0.57,0.193l-0.195,0.57
	L31.671,5.939z M18.59,5.219l0.577-0.173l0.173,0.578l-0.578,0.172L18.59,5.219z M30.307,5.526L30.307,5.526L30.015,5.45
	l0.154-0.583l0.583,0.154l-0.155,0.583L30.307,5.526z M20.002,4.829l0.295-0.066l0.293-0.066l0.132,0.588l-0.588,0.133L20.002,4.829
	z M28.916,5.209L28.916,5.209l-0.294-0.056l0.112-0.592l0.296,0.056h0.001l0.295,0.058l-0.113,0.591L28.916,5.209z M21.44,4.537
	l0.593-0.091l0.092,0.593l-0.593,0.093L21.44,4.537z M27.51,4.989l-0.3-0.037l0.073-0.597l0.596,0.073l-0.072,0.598L27.51,4.989z
	 M26.09,4.867l-0.303-0.016l0.031-0.601l0.303,0.015l0.301,0.016l-0.031,0.602L26.09,4.867z"/>
<g>
	<defs>
		<rect id="SVGID_1_" width="50" height="50"/>
	</defs>
	<clipPath id="SVGID_2_">
		<use xlink:href="#SVGID_1_"  style="overflow:visible;"/>
	</clipPath>
	<path style="clip-path:url(#SVGID_2_);fill:#FFFFFF;" d="M6.182,18.497v-0.405c-0.416-0.029-0.75-0.363-0.78-0.78H4.996
		c-0.029,0.417-0.362,0.751-0.779,0.78v0.405c0.417,0.03,0.75,0.363,0.779,0.78h0.406C5.432,18.86,5.766,18.527,6.182,18.497
		 M5.504,18.343c-0.098,0.072-0.185,0.159-0.257,0.256l-0.048,0.065L5.15,18.599c-0.072-0.097-0.158-0.183-0.255-0.256L4.83,18.294
		l0.065-0.048c0.097-0.072,0.183-0.159,0.255-0.256l0.049-0.065l0.048,0.065c0.072,0.098,0.159,0.184,0.257,0.256l0.065,0.048
		L5.504,18.343z"/>
	<path style="clip-path:url(#SVGID_2_);fill:#FFFFFF;" d="M25.404,4.692V4.15C24.796,4.094,24.309,3.608,24.252,3h-0.541
		c-0.057,0.608-0.541,1.094-1.151,1.15v0.542c0.61,0.057,1.094,0.543,1.151,1.151h0.541C24.309,5.235,24.796,4.749,25.404,4.692
		 M24.451,4.518c-0.142,0.105-0.267,0.23-0.372,0.373L23.982,5.02l-0.096-0.129c-0.107-0.143-0.232-0.269-0.372-0.373l-0.131-0.097
		l0.131-0.096c0.14-0.106,0.265-0.231,0.372-0.372l0.096-0.131l0.097,0.131c0.105,0.141,0.23,0.266,0.372,0.372l0.131,0.096
		L24.451,4.518z"/>
	<path style="clip-path:url(#SVGID_2_);fill:#FFFFFF;" d="M44.65,35.363V34.99c-0.389-0.029-0.702-0.342-0.731-0.733h-0.374
		c-0.029,0.392-0.342,0.704-0.733,0.733v0.373c0.392,0.029,0.704,0.343,0.733,0.733h0.374C43.948,35.706,44.262,35.393,44.65,35.363
		 M44.021,35.225c-0.092,0.068-0.174,0.149-0.241,0.24l-0.048,0.065l-0.049-0.065c-0.067-0.091-0.148-0.172-0.24-0.24l-0.065-0.048
		l0.065-0.048c0.092-0.068,0.173-0.149,0.24-0.24l0.049-0.065l0.048,0.065c0.067,0.092,0.149,0.172,0.241,0.24l0.064,0.048
		L44.021,35.225z"/>
	<path style="clip-path:url(#SVGID_2_);fill:#FFFFFF;" d="M27.385,32.522c0.012-0.017,0.023-0.032,0.035-0.047h-0.035V32.522z"/>
	<path style="clip-path:url(#SVGID_2_);fill:#FFFFFF;" d="M29.936,29.101c0.031-0.047,0.062-0.091,0.095-0.135h-0.095V29.101z"/>
	<path style="clip-path:url(#SVGID_2_);fill:#FFFFFF;" d="M22.481,33.016c-0.022-0.027-0.041-0.054-0.063-0.081
		c0.003,0.012,0.004,0.021,0.004,0.031v1.045c0,0.096-0.078,0.175-0.175,0.175H16.5c-0.097,0-0.176-0.079-0.176-0.175v-1.045
		c0-0.001,0.002-0.002,0.002-0.002c0.002-0.094,0.079-0.171,0.174-0.171h5.747c0.029,0,0.055,0.007,0.078,0.019
		c-0.094-0.125-0.188-0.248-0.278-0.367H16.5c-0.045,0-0.083-0.019-0.113-0.046c-0.006-0.004-0.01-0.007-0.015-0.012
		c-0.012-0.013-0.022-0.029-0.03-0.046c-0.002-0.003-0.003-0.007-0.004-0.01c-0.008-0.021-0.014-0.04-0.014-0.062v-1.046
		c0-0.096,0.079-0.174,0.176-0.174h4.495c-0.089-0.117-0.176-0.234-0.26-0.348H19.42c0.141-0.393,0.215-0.801,0.215-1.221
		c0-0.105-0.006-0.212-0.015-0.316c-0.192-0.274-0.365-0.531-0.524-0.776c0.102,0.291,0.165,0.6,0.181,0.92h-1.74
		c-0.021-0.506-0.127-0.981-0.277-1.41c0.404-0.162,0.776-0.404,1.094-0.714c0.031,0.031,0.06,0.064,0.089,0.098
		c-0.142-0.273-0.259-0.531-0.357-0.784c-0.597-0.423-1.323-0.673-2.109-0.673c-2.017,0-3.659,1.64-3.659,3.656
		c0,2.018,1.642,3.659,3.659,3.659v0.87c0,0.135,0.052,0.256,0.136,0.35c-0.085,0.092-0.136,0.214-0.136,0.348v1.045
		c0,0.288,0.234,0.523,0.523,0.523h5.747c0.288,0,0.523-0.235,0.523-0.523v-1.045c0-0.134-0.051-0.256-0.136-0.348
		c0.085-0.094,0.136-0.215,0.136-0.35v-0.613c-0.094-0.125-0.189-0.249-0.28-0.369L22.481,33.016z M17.537,29.657h1.742
		c-0.019,0.358-0.092,0.71-0.226,1.045H17.37C17.467,30.348,17.523,29.998,17.537,29.657 M18.098,26.946
		c-0.28,0.27-0.608,0.479-0.962,0.625c-0.251-0.603-0.566-1.081-0.78-1.374C17.016,26.272,17.615,26.542,18.098,26.946
		 M17.191,29.309h-2.427c0.021-0.46,0.121-0.897,0.262-1.295c0.304,0.09,0.625,0.138,0.951,0.138c0.326,0,0.646-0.048,0.953-0.138
		C17.068,28.411,17.169,28.849,17.191,29.309 M16.802,27.685c-0.266,0.075-0.543,0.118-0.825,0.118c-0.283,0-0.56-0.043-0.825-0.118
		c0.279-0.658,0.635-1.166,0.825-1.41C16.166,26.519,16.523,27.026,16.802,27.685 M15.598,26.197
		c-0.215,0.293-0.528,0.771-0.779,1.374c-0.356-0.146-0.684-0.355-0.963-0.625C14.338,26.542,14.94,26.272,15.598,26.197
		 M13.6,27.185c0.317,0.31,0.689,0.552,1.093,0.714c-0.148,0.429-0.255,0.905-0.277,1.41h-1.74
		C12.719,28.486,13.063,27.742,13.6,27.185 M12.676,29.657h1.74c0.023,0.535,0.14,1.037,0.303,1.482
		c-0.404,0.149-0.779,0.368-1.109,0.652C13.067,31.234,12.72,30.486,12.676,29.657 M13.868,32.032
		c0.293-0.246,0.624-0.438,0.979-0.567c0.246,0.569,0.544,1.023,0.751,1.304C14.945,32.694,14.35,32.431,13.868,32.032
		 M15.977,32.689c-0.181-0.231-0.517-0.709-0.789-1.328c0.255-0.063,0.52-0.094,0.789-0.094v1.002c0,0.029,0.004,0.06,0.008,0.088
		c0,0.006,0,0.01,0.001,0.015c0.002,0.008,0.006,0.016,0.008,0.023c0.003,0.016,0.008,0.03,0.013,0.045
		c0.003,0.01,0.005,0.019,0.009,0.026c0.003,0.007,0.007,0.014,0.01,0.021c0.004,0.011,0.009,0.021,0.015,0.031
		c0.008,0.012,0.013,0.023,0.021,0.035c0.003,0.004,0.005,0.009,0.008,0.014C16.035,32.613,16.004,32.656,15.977,32.689
		 M16.078,30.918c-0.348-0.01-0.694,0.03-1.024,0.116c-0.154-0.417-0.267-0.885-0.29-1.377h2.426
		c-0.016,0.34-0.074,0.688-0.178,1.045H16.5C16.326,30.702,16.174,30.788,16.078,30.918 M22.422,35.753
		c0,0.097-0.078,0.175-0.175,0.175H16.5c-0.097,0-0.176-0.078-0.176-0.175v-1.045c0-0.096,0.079-0.174,0.176-0.174h5.747
		c0.097,0,0.175,0.078,0.175,0.174V35.753z"/>
	<path style="clip-path:url(#SVGID_2_);fill:#FFFFFF;" d="M22.77,31.224c0-0.286-0.234-0.521-0.522-0.521h-0.779
		c0.085,0.114,0.172,0.229,0.262,0.348h0.517c0.096,0,0.174,0.078,0.174,0.174v0.741c0.108,0.143,0.217,0.287,0.33,0.436
		c0.01-0.042,0.018-0.085,0.018-0.131V31.224z"/>
	<rect x="16.674" y="31.572" style="clip-path:url(#SVGID_2_);fill:#FFFFFF;" width="2.961" height="0.349"/>
	<rect x="21.725" y="33.315" style="clip-path:url(#SVGID_2_);fill:#FFFFFF;" width="0.35" height="0.348"/>
	<rect x="16.674" y="33.315" style="clip-path:url(#SVGID_2_);fill:#FFFFFF;" width="2.961" height="0.348"/>
	<rect x="21.725" y="35.057" style="clip-path:url(#SVGID_2_);fill:#FFFFFF;" width="0.35" height="0.349"/>
	<rect x="16.674" y="35.057" style="clip-path:url(#SVGID_2_);fill:#FFFFFF;" width="2.961" height="0.349"/>
	<path style="clip-path:url(#SVGID_2_);fill:#FFFFFF;" d="M19.983,27.915h-0.349v0.229c0.026,0.041,0.051,0.08,0.078,0.12h0.271
		V27.915z"/>
	<rect x="20.332" y="27.915" style="clip-path:url(#SVGID_2_);fill:#FFFFFF;" width="0.348" height="0.349"/>
	<rect x="21.029" y="27.915" style="clip-path:url(#SVGID_2_);fill:#FFFFFF;" width="0.348" height="0.349"/>
	<rect x="21.725" y="27.915" style="clip-path:url(#SVGID_2_);fill:#FFFFFF;" width="0.35" height="0.349"/>
	<rect x="21.725" y="28.612" style="clip-path:url(#SVGID_2_);fill:#FFFFFF;" width="0.35" height="0.348"/>
	<rect x="21.725" y="29.309" style="clip-path:url(#SVGID_2_);fill:#FFFFFF;" width="0.35" height="0.349"/>
	<rect x="21.725" y="30.006" style="clip-path:url(#SVGID_2_);fill:#FFFFFF;" width="0.35" height="0.348"/>
	<rect x="15.279" y="35.057" style="clip-path:url(#SVGID_2_);fill:#FFFFFF;" width="0.35" height="0.349"/>
	<rect x="14.584" y="35.057" style="clip-path:url(#SVGID_2_);fill:#FFFFFF;" width="0.348" height="0.349"/>
	<rect x="13.887" y="35.057" style="clip-path:url(#SVGID_2_);fill:#FFFFFF;" width="0.348" height="0.349"/>
	<rect x="13.887" y="34.36" style="clip-path:url(#SVGID_2_);fill:#FFFFFF;" width="0.348" height="0.348"/>
	<rect x="13.887" y="33.663" style="clip-path:url(#SVGID_2_);fill:#FFFFFF;" width="0.348" height="0.348"/>
	<rect x="13.887" y="32.966" style="clip-path:url(#SVGID_2_);fill:#FFFFFF;" width="0.348" height="0.349"/>
	<path style="clip-path:url(#SVGID_2_);fill:#FFFFFF;" d="M22.325,32.812c0.031,0.041,0.062,0.081,0.093,0.124
		C22.408,32.881,22.373,32.836,22.325,32.812"/>
	<path style="clip-path:url(#SVGID_2_);fill:#FFFFFF;" d="M29.471,29.744c-0.039,0.053-0.078,0.105-0.118,0.159l0.118,0.203V29.744z
		"/>
	<path style="clip-path:url(#SVGID_2_);fill:#FFFFFF;" d="M26.572,34.568c0.021-0.026,0.038-0.052,0.058-0.078h-0.058V34.568z"/>
	<path style="clip-path:url(#SVGID_2_);fill:#FFFFFF;" d="M19.62,29.165c0.319,0.458,0.69,0.966,1.115,1.537h0.734
		c-0.737-0.982-1.312-1.77-1.756-2.438h-0.078v-0.12c-1.101-1.68-1.368-2.614-1.368-4.107c0-1.605,0.558-3.081,1.485-4.25h-0.238
		h-0.493c-0.844,1.205-1.341,2.671-1.341,4.25c0,0.931,0.103,1.67,0.406,2.462C18.941,27.102,19.525,28.065,19.62,29.165"/>
	<path style="clip-path:url(#SVGID_2_);fill:#FFFFFF;" d="M25.98,34.49c-0.027,0-0.054-0.003-0.081-0.008
		c-0.177,0.235-0.355,0.475-0.544,0.724l-0.24,0.319l-0.241-0.319c-0.713-0.947-1.349-1.787-1.924-2.543
		c-0.069-0.09-0.133-0.176-0.199-0.263c-0.021,0.081-0.062,0.156-0.118,0.218c0.085,0.093,0.136,0.214,0.136,0.349v0.431
		c0.628,0.826,1.325,1.749,2.11,2.794c0.055,0.073,0.144,0.117,0.236,0.117s0.18-0.044,0.234-0.118
		c0.263-0.349,0.513-0.683,0.756-1.005V34.49H25.98z"/>
	<path style="clip-path:url(#SVGID_2_);fill:#FFFFFF;" d="M25.115,17.19c3.775,0,6.846,3.07,6.846,6.846
		c0,0.914-0.1,1.619-0.432,2.416l0.996-1.724c0.017-0.221,0.023-0.45,0.023-0.692c0-4.099-3.334-7.434-7.434-7.434
		c-0.371,0-0.735,0.028-1.092,0.081c0.131,0.165,0.234,0.351,0.305,0.553C24.586,17.207,24.848,17.19,25.115,17.19"/>
	<path style="clip-path:url(#SVGID_2_);fill:#FFFFFF;" d="M21.469,30.702h-0.733c0.084,0.114,0.171,0.229,0.259,0.348h0.736
		C21.641,30.931,21.554,30.816,21.469,30.702"/>
	<path style="clip-path:url(#SVGID_2_);fill:#FFFFFF;" d="M22.634,32.618c0.056-0.061,0.097-0.136,0.118-0.218
		c-0.113-0.148-0.222-0.293-0.33-0.436v0.305c0,0.097-0.078,0.175-0.175,0.175h-0.2c0.09,0.119,0.184,0.243,0.278,0.367
		c0.048,0.023,0.083,0.068,0.093,0.124c0.022,0.026,0.041,0.053,0.063,0.08l0.009,0.013c0.091,0.121,0.186,0.244,0.28,0.369v-0.432
		C22.77,32.832,22.719,32.711,22.634,32.618"/>
	<path style="clip-path:url(#SVGID_2_);fill:#FFFFFF;" d="M19.096,28.39c0.159,0.244,0.332,0.501,0.524,0.775
		c-0.094-1.1-0.678-2.063-1.534-2.668c0.098,0.254,0.215,0.512,0.358,0.785C18.729,27.602,18.952,27.977,19.096,28.39"/>
	<rect x="21.725" y="31.572" style="clip-path:url(#SVGID_2_);fill:#FFFFFF;" width="0.35" height="0.349"/>
	<path style="clip-path:url(#SVGID_2_);fill:#FFFFFF;" d="M19.635,28.264h0.078c-0.027-0.04-0.053-0.08-0.078-0.12V28.264z"/>
	<path style="clip-path:url(#SVGID_2_);fill:#FFFFFF;" d="M28.979,24.037c0-2.131-1.733-3.864-3.863-3.864
		c-2.131,0-3.864,1.733-3.864,3.864c0,2.129,1.733,3.863,3.864,3.863C27.245,27.899,28.979,26.166,28.979,24.037 M25.115,27.313
		c-1.807,0-3.277-1.47-3.277-3.276c0-1.807,1.47-3.276,3.277-3.276c1.806,0,3.275,1.469,3.275,3.276
		C28.391,25.843,26.921,27.313,25.115,27.313"/>
	<path style="clip-path:url(#SVGID_2_);fill:#FFFFFF;" d="M27.761,36.535c0.129,0,0.233-0.104,0.233-0.233v-0.829
		c0-0.13-0.104-0.233-0.233-0.233c-0.127,0-0.231,0.104-0.231,0.233v0.829C27.529,36.432,27.634,36.535,27.761,36.535"/>
	<path style="clip-path:url(#SVGID_2_);fill:#FFFFFF;" d="M29.203,36.535c0.129,0,0.232-0.104,0.232-0.233v-0.829
		c0-0.13-0.104-0.233-0.232-0.233s-0.232,0.104-0.232,0.233v0.829C28.971,36.432,29.074,36.535,29.203,36.535"/>
	<path style="clip-path:url(#SVGID_2_);fill:#FFFFFF;" d="M37.504,35.472v0.83c0,0.129,0.104,0.233,0.232,0.233
		s0.232-0.104,0.232-0.233v-0.83c0-0.129-0.104-0.232-0.232-0.232S37.504,35.343,37.504,35.472"/>
	<path style="clip-path:url(#SVGID_2_);fill:#FFFFFF;" d="M38.945,35.472v0.83c0,0.129,0.104,0.233,0.232,0.233
		c0.128,0,0.232-0.104,0.232-0.233v-0.83c0-0.129-0.104-0.232-0.232-0.232C39.049,35.239,38.945,35.343,38.945,35.472"/>
	<path style="clip-path:url(#SVGID_2_);fill:#FFFFFF;" d="M32.424,35.142c0.044-0.044,0.068-0.104,0.068-0.166
		c0-0.061-0.024-0.121-0.068-0.164c-0.043-0.044-0.104-0.067-0.165-0.067s-0.12,0.023-0.163,0.067
		c-0.045,0.043-0.069,0.104-0.069,0.164c0,0.063,0.024,0.122,0.067,0.165C32.182,35.228,32.338,35.228,32.424,35.142"/>
	<path style="clip-path:url(#SVGID_2_);fill:#FFFFFF;" d="M33.634,35.142c0.044-0.044,0.069-0.104,0.069-0.166
		c0-0.061-0.025-0.121-0.069-0.164c-0.043-0.044-0.103-0.067-0.163-0.067c-0.063,0-0.122,0.023-0.165,0.067
		c-0.044,0.043-0.067,0.104-0.067,0.164c0,0.063,0.023,0.122,0.067,0.165C33.393,35.228,33.548,35.228,33.634,35.142"/>
	<path style="clip-path:url(#SVGID_2_);fill:#FFFFFF;" d="M34.844,35.142c0.043-0.044,0.068-0.104,0.068-0.166
		c0-0.061-0.025-0.121-0.068-0.164c-0.043-0.044-0.104-0.067-0.164-0.067c-0.063,0-0.122,0.023-0.165,0.066
		c-0.044,0.044-0.069,0.104-0.069,0.165c0,0.063,0.025,0.122,0.069,0.166C34.602,35.228,34.758,35.228,34.844,35.142"/>
	<path style="clip-path:url(#SVGID_2_);fill:#FFFFFF;" d="M31.972,27.457c-0.128,0-0.233,0.104-0.233,0.233
		c0,0.128,0.105,0.232,0.233,0.232h0.363c0.128,0,0.233-0.104,0.233-0.232c0-0.13-0.105-0.233-0.233-0.233H31.972z"/>
	<path style="clip-path:url(#SVGID_2_);fill:#FFFFFF;" d="M33.289,27.923h0.363c0.127,0,0.232-0.104,0.232-0.233
		s-0.105-0.232-0.232-0.232h-0.363c-0.129,0-0.234,0.104-0.234,0.232S33.16,27.923,33.289,27.923"/>
	<path style="clip-path:url(#SVGID_2_);fill:#FFFFFF;" d="M34.604,27.923h0.364c0.128,0,0.233-0.104,0.233-0.233
		s-0.105-0.232-0.233-0.232h-0.364c-0.128,0-0.232,0.104-0.232,0.232S34.476,27.923,34.604,27.923"/>
	<path style="clip-path:url(#SVGID_2_);fill:#FFFFFF;" d="M32.994,26.847c0.128,0,0.232-0.104,0.232-0.233
		c0-0.128-0.104-0.231-0.232-0.231H32.63c-0.128,0-0.233,0.104-0.233,0.231c0,0.13,0.105,0.233,0.233,0.233H32.994z"/>
	<path style="clip-path:url(#SVGID_2_);fill:#FFFFFF;" d="M34.309,26.847c0.129,0,0.234-0.104,0.234-0.233
		c0-0.128-0.105-0.231-0.234-0.231h-0.362c-0.128,0-0.232,0.104-0.232,0.231c0,0.13,0.104,0.233,0.232,0.233H34.309z"/>
	<path style="clip-path:url(#SVGID_2_);fill:#FFFFFF;" d="M33.652,25.687c0.127,0,0.232-0.104,0.232-0.232
		c0-0.129-0.105-0.232-0.232-0.232h-0.363c-0.129,0-0.234,0.104-0.234,0.232c0,0.128,0.105,0.232,0.234,0.232H33.652z"/>
	<path style="clip-path:url(#SVGID_2_);fill:#FFFFFF;" d="M26.019,32.476h0.901v0.454c0,0.054,0.018,0.102,0.049,0.141
		c0.102-0.134,0.202-0.266,0.301-0.396c0.039-0.052,0.076-0.102,0.115-0.152v-0.047h0.035c0.121-0.16,0.238-0.315,0.353-0.466
		h-0.896l-0.125,0.215c-0.066,0.115-0.213,0.154-0.33,0.087c-0.105-0.062-0.146-0.191-0.099-0.302H25.98
		c-0.233,0-0.428,0.191-0.428,0.428v1.625c0,0.208,0.15,0.382,0.347,0.42c0.118-0.155,0.233-0.308,0.346-0.457h-0.227V32.476z"/>
	<path style="clip-path:url(#SVGID_2_);fill:#FFFFFF;" d="M29.898,28.501c-0.236,0-0.428,0.191-0.428,0.428v0.815
		c0.166-0.227,0.32-0.441,0.465-0.645v-0.134h0.095c0.737-1.044,1.208-1.815,1.499-2.514l-1.186,2.049H29.898z"/>
	<path style="clip-path:url(#SVGID_2_);fill:#FFFFFF;" d="M30.435,29.41c0,0.128,0.104,0.231,0.233,0.231
		c0.127,0,0.232-0.104,0.232-0.231v-0.444h0.656v0.444c0,0.128,0.104,0.231,0.232,0.231c0.127,0,0.232-0.104,0.232-0.231v-0.444
		h0.654v0.444c0,0.128,0.105,0.231,0.233,0.231c0.13,0,0.233-0.104,0.233-0.231v-0.444h0.655v0.444c0,0.128,0.104,0.231,0.233,0.231
		c0.127,0,0.231-0.104,0.231-0.231v-0.444h0.655v0.444c0,0.128,0.104,0.231,0.233,0.231c0.128,0,0.233-0.104,0.233-0.231v-0.444
		h0.654v0.444c0,0.128,0.104,0.231,0.232,0.231s0.232-0.104,0.232-0.231v-0.444h0.5v1.682h-7.068v-0.547
		c-0.084,0.117-0.172,0.235-0.262,0.358l0.715,1.24v-0.587h6.161v0.705l0.919-1.585v-1.304c0-0.236-0.191-0.428-0.428-0.428h-0.447
		l-1.195-2.069c-0.064-0.111-0.207-0.149-0.317-0.085c-0.056,0.031-0.094,0.082-0.108,0.142c-0.017,0.061-0.008,0.123,0.024,0.177
		l1.06,1.836h-4.999C30.872,28.784,30.666,29.084,30.435,29.41L30.435,29.41z"/>
	<path style="clip-path:url(#SVGID_2_);fill:#FFFFFF;" d="M33.471,24.028l0.846,1.464c0.064,0.111,0.207,0.149,0.318,0.085
		c0.055-0.031,0.094-0.081,0.108-0.142c0.017-0.06,0.008-0.122-0.023-0.176l-0.95-1.644c-0.014-0.024-0.031-0.047-0.051-0.069
		l0.044-0.041h-0.586l0.044,0.041c-0.02,0.022-0.037,0.045-0.051,0.068l-0.645,1.114c-0.033,0.473-0.107,0.908-0.239,1.344
		L33.471,24.028z"/>
	<path style="clip-path:url(#SVGID_2_);fill:#FFFFFF;" d="M42.492,39.89h-0.681v-1.034c0-0.468-0.421-0.842-0.907-0.747
		l-0.071,0.016v-0.521c0-0.128-0.104-0.233-0.232-0.233c-0.129,0-0.233,0.105-0.233,0.233l-0.005,0.94
		c-0.026,0.06-0.046,0.122-0.057,0.185l-0.011,0.063l-0.063-0.016c-0.113-0.027-0.239-0.027-0.354,0l-0.063,0.016l-0.011-0.063
		c-0.062-0.367-0.376-0.633-0.747-0.633c-0.284,0-0.542,0.158-0.674,0.411l-0.024,0.047l-0.049-0.019
		c-0.081-0.028-0.165-0.044-0.251-0.044c-0.418,0-0.758,0.342-0.758,0.762v0.638h-0.756V34.49h3.82v1.862
		c0,0.129,0.104,0.233,0.233,0.233c0.128,0,0.232-0.104,0.232-0.233V34.49h0.126c0.234,0,0.428-0.191,0.428-0.428v-1.626
		c0-0.235-0.193-0.427-0.428-0.427h-0.342l0.039,0.065c0.066,0.115,0.026,0.264-0.089,0.329c-0.038,0.023-0.079,0.032-0.12,0.032
		c-0.083,0-0.163-0.043-0.209-0.12l-0.177-0.307h-3.046v-0.035l-0.18,0.311c-0.066,0.115-0.215,0.154-0.329,0.088
		c-0.116-0.067-0.155-0.215-0.088-0.329l0.02-0.034h-0.481c-0.236,0-0.429,0.191-0.429,0.428v0.685h-4.117v-0.685
		c0-0.236-0.191-0.428-0.428-0.428h-0.415l0.004,0.005c0.066,0.115,0.026,0.263-0.088,0.33c-0.039,0.021-0.08,0.032-0.121,0.032
		c-0.084,0-0.164-0.043-0.209-0.12l-0.23-0.4v0.153H28.51c-0.114,0.15-0.231,0.306-0.353,0.466h0.093v0.454
		c0,0.129,0.104,0.23,0.232,0.23c0.128,0,0.232-0.102,0.232-0.23v-0.454h0.865v0.454c0,0.129,0.104,0.23,0.233,0.23
		c0.127,0,0.231-0.102,0.231-0.23v-0.454h0.9v1.55h-3.963c-0.115,0.152-0.232,0.307-0.353,0.465h3.763v0.612
		c0,0.128,0.104,0.232,0.232,0.232c0.129,0,0.232-0.104,0.232-0.232V34.49h0.126c0.236,0,0.428-0.191,0.428-0.428v-0.476h4.117
		v0.476c0,0.236,0.192,0.428,0.429,0.428h0.123v5.399h-1.174v-2.293c0-0.79-0.645-1.434-1.436-1.434
		c-0.793,0-1.438,0.644-1.438,1.434v2.293h-1.175v-3.498c0-0.128-0.104-0.232-0.232-0.232c-0.128,0-0.232,0.104-0.232,0.232v3.498
		h-0.839v-1.034c0-0.42-0.34-0.761-0.759-0.761c-0.37,0-0.684,0.266-0.747,0.633l-0.011,0.063l-0.063-0.016
		c-0.113-0.027-0.24-0.027-0.353,0l-0.063,0.016l-0.011-0.063c-0.063-0.367-0.377-0.633-0.748-0.633
		c-0.053,0-0.105,0.005-0.156,0.016l-0.072,0.016v-3.558c-0.151,0.2-0.308,0.406-0.467,0.617v3.365l-0.078-0.024
		c-0.074-0.023-0.15-0.036-0.225-0.036c-0.417,0-0.757,0.342-0.757,0.762v0.638h-0.6c-0.127,0-0.233,0.104-0.233,0.232
		s0.106,0.232,0.233,0.232h18.046c0.129,0,0.233-0.104,0.233-0.232S42.621,39.89,42.492,39.89 M29.088,39.89h-3.576v-0.638
		c0-0.163,0.131-0.296,0.291-0.296c0.112,0,0.213,0.064,0.263,0.167c0.048,0.099,0.155,0.15,0.263,0.127
		c0.105-0.024,0.18-0.117,0.18-0.229v-0.166c0-0.163,0.131-0.296,0.293-0.296s0.292,0.133,0.292,0.296v0.43
		c0,0.11,0.074,0.203,0.182,0.228c0.106,0.023,0.214-0.028,0.262-0.126c0.05-0.103,0.149-0.167,0.263-0.167
		c0.111,0,0.213,0.064,0.262,0.167c0.047,0.098,0.154,0.149,0.262,0.126c0.106-0.024,0.181-0.117,0.181-0.228v-0.43
		c0-0.163,0.132-0.296,0.292-0.296c0.162,0,0.293,0.133,0.293,0.296V39.89z M32.85,39.89h-0.351v-2.293
		c0-0.237,0.087-0.465,0.245-0.642l0.105-0.118V39.89z M33.626,36.7c-0.001,0.009-0.002,0.018-0.002,0.027v3.162h-0.309v-3.162
		c0-0.009,0-0.018-0.002-0.026l-0.007-0.061l0.061-0.006c0.067-0.008,0.137-0.008,0.205,0l0.061,0.006L33.626,36.7z M34.439,39.89
		h-0.35v-3.053l0.104,0.118c0.159,0.178,0.245,0.404,0.245,0.642V39.89z M35.994,34.025v-1.55h0.9v0.454
		c0,0.129,0.104,0.23,0.232,0.23s0.232-0.102,0.232-0.23v-0.454h0.865v0.454c0,0.129,0.104,0.23,0.232,0.23s0.232-0.102,0.232-0.23
		v-0.454h0.865v0.454c0,0.129,0.105,0.23,0.232,0.23c0.129,0,0.233-0.102,0.233-0.23v-0.454h0.9v1.55H35.994z M41.346,39.89H37.77
		v-0.638c0-0.163,0.13-0.296,0.291-0.296c0.113,0,0.213,0.064,0.263,0.167l0.442-0.102v-0.166c0-0.163,0.131-0.296,0.293-0.296
		c0.16,0,0.292,0.133,0.292,0.296v0.43c0,0.11,0.074,0.203,0.181,0.228c0.107,0.023,0.215-0.028,0.263-0.126
		c0.049-0.103,0.149-0.167,0.263-0.167c0.112,0,0.211,0.064,0.262,0.167c0.047,0.098,0.154,0.149,0.262,0.126
		c0.106-0.024,0.181-0.117,0.181-0.228v-0.43c0-0.163,0.132-0.296,0.292-0.296c0.162,0,0.293,0.133,0.293,0.296V39.89z"/>
	<path style="clip-path:url(#SVGID_2_);fill:#FFFFFF;" d="M26.572,34.49h0.058c0.12-0.158,0.237-0.313,0.353-0.465h-0.737
		c-0.112,0.149-0.228,0.302-0.346,0.457c0.027,0.005,0.054,0.008,0.081,0.008h0.125v0.695c0.159-0.211,0.315-0.417,0.467-0.617
		V34.49z"/>
	<path style="clip-path:url(#SVGID_2_);fill:#FFFFFF;" d="M27.42,32.476h0.737c0.121-0.16,0.238-0.315,0.353-0.466h-0.737
		C27.658,32.16,27.541,32.315,27.42,32.476"/>
	<path style="clip-path:url(#SVGID_2_);fill:#FFFFFF;" d="M29.471,29.744v0.362l0.203,0.353c0.09-0.123,0.178-0.241,0.262-0.358
		V29.1C29.791,29.304,29.637,29.518,29.471,29.744"/>
	<path style="clip-path:url(#SVGID_2_);fill:#FFFFFF;" d="M26.969,33.07c0.042,0.057,0.107,0.091,0.184,0.091
		c0.129,0,0.232-0.103,0.232-0.231v-0.407c-0.039,0.051-0.076,0.101-0.115,0.152C27.171,32.804,27.07,32.937,26.969,33.07"/>
	<path style="clip-path:url(#SVGID_2_);fill:#FFFFFF;" d="M30.03,28.966h0.404v0.443c0.231-0.325,0.437-0.626,0.623-0.908h-0.175
		l1.403-2.428c0.132-0.437,0.206-0.871,0.239-1.344l-0.996,1.723C31.238,27.15,30.768,27.922,30.03,28.966"/>
	<polygon style="clip-path:url(#SVGID_2_);fill:#FFFFFF;" points="30.389,32.01 30.568,32.01 30.389,31.699 	"/>
	<path style="clip-path:url(#SVGID_2_);fill:#FFFFFF;" d="M28.656,28.698c-0.043-0.073-0.122-0.119-0.208-0.119
		s-0.165,0.046-0.208,0.119l-1.905,3.284c-0.005,0.008-0.009,0.019-0.012,0.027h0.554l1.57-2.71l0.593,1.024
		c0.108-0.144,0.212-0.284,0.313-0.421L28.656,28.698z"/>
	<path style="clip-path:url(#SVGID_2_);fill:#FFFFFF;" d="M29.868,31.11c-0.209-0.014-0.374-0.18-0.394-0.384
		c-0.038,0.051-0.076,0.101-0.114,0.153l0.563,0.977v-0.741L29.868,31.11z"/>
	<path style="clip-path:url(#SVGID_2_);fill:#FFFFFF;" d="M29.471,30.106l-0.118-0.202c-0.101,0.136-0.204,0.276-0.313,0.421
		l0.32,0.554c0.038-0.051,0.076-0.102,0.114-0.152c-0.002-0.015-0.004-0.027-0.004-0.042V30.106z"/>
	<path style="clip-path:url(#SVGID_2_);fill:#FFFFFF;" d="M26.422,32.312c0.116,0.067,0.264,0.028,0.33-0.088l0.125-0.215h-0.554
		C26.276,32.12,26.317,32.25,26.422,32.312"/>
	<path style="clip-path:url(#SVGID_2_);fill:#FFFFFF;" d="M30.389,31.699l-0.715-1.24c-0.065,0.087-0.133,0.178-0.199,0.268
		c0.02,0.204,0.186,0.369,0.394,0.384l0.056,0.005v0.741l0.23,0.4c0.045,0.077,0.125,0.12,0.209,0.12
		c0.041,0,0.082-0.01,0.121-0.032c0.114-0.067,0.154-0.215,0.088-0.33l-0.004-0.005h-0.18V31.699z"/>
	<path style="clip-path:url(#SVGID_2_);fill:#FFFFFF;" d="M29.471,30.685c0,0.014,0.002,0.027,0.004,0.042
		c0.066-0.09,0.134-0.181,0.199-0.268l-0.203-0.353V30.685z"/>
	<polygon style="clip-path:url(#SVGID_2_);fill:#FFFFFF;" points="36.55,31.818 36.438,32.009 36.55,32.009 	"/>
	<path style="clip-path:url(#SVGID_2_);fill:#FFFFFF;" d="M37.071,31.11l-0.056,0.005v0.86l1.516-2.615l1.53,2.649h0.556
		l-1.876-3.25c-0.044-0.074-0.123-0.121-0.209-0.121h-0.001c-0.086,0-0.165,0.046-0.208,0.12l-0.854,1.474v0.452
		C37.469,30.908,37.295,31.095,37.071,31.11"/>
	<path style="clip-path:url(#SVGID_2_);fill:#FFFFFF;" d="M36.55,32.01h-0.111l-0.02,0.033c-0.067,0.115-0.028,0.263,0.088,0.329
		c0.114,0.068,0.263,0.028,0.329-0.087l0.18-0.31v-0.86l0.055-0.005c0.225-0.016,0.398-0.202,0.398-0.426v-0.452l-0.919,1.586V32.01
		z"/>
	<path style="clip-path:url(#SVGID_2_);fill:#FFFFFF;" d="M40.238,32.316c0.045,0.078,0.126,0.121,0.209,0.121
		c0.041,0,0.082-0.01,0.12-0.033c0.115-0.065,0.155-0.213,0.089-0.329l-0.039-0.065h-0.556L40.238,32.316z"/>
	<path style="clip-path:url(#SVGID_2_);fill:#FFFFFF;" d="M24.438,17.871c0-0.222-0.04-0.435-0.11-0.634
		c-0.187,0.021-0.371,0.05-0.553,0.086c0.074,0.168,0.116,0.353,0.116,0.548c0,0.755-0.614,1.368-1.368,1.368h-2.287
		c-0.17,0.174-0.332,0.356-0.485,0.547h2.772C23.58,19.786,24.438,18.928,24.438,17.871"/>
	<path style="clip-path:url(#SVGID_2_);fill:#FFFFFF;" d="M15.957,19.239c-0.754,0-1.368-0.613-1.368-1.368
		c0-0.755,0.614-1.368,1.368-1.368c0.156,0,0.312,0.028,0.465,0.083c0.088,0.032,0.185,0.017,0.26-0.041
		c0.074-0.057,0.114-0.148,0.105-0.242l-0.01-0.074c0-0.452,0.369-0.821,0.822-0.821c0.126,0,0.253,0.034,0.375,0.097
		c0.065,0.034,0.141,0.04,0.212,0.017c0.069-0.023,0.126-0.074,0.16-0.139c0.325-0.659,0.983-1.068,1.715-1.068
		c1.056,0,1.916,0.858,1.916,1.907c-0.002,0.006-0.002,0.026-0.002,0.032c0,0.081,0.035,0.158,0.097,0.21
		c0.062,0.051,0.143,0.073,0.222,0.06c0.083-0.014,0.158-0.021,0.229-0.021c0.326,0,0.625,0.115,0.86,0.305
		c0.21-0.05,0.423-0.093,0.64-0.124c-0.351-0.443-0.892-0.728-1.5-0.728h-0.014c-0.138-1.23-1.182-2.189-2.448-2.189
		c-0.856,0-1.633,0.435-2.083,1.152c-0.124-0.038-0.251-0.057-0.379-0.057c-0.669,0-1.228,0.482-1.346,1.118
		c-0.097-0.016-0.196-0.024-0.296-0.024c-1.056,0-1.916,0.859-1.916,1.915c0,1.056,0.86,1.915,1.916,1.915h3.01h0.054
		c0.131-0.189,0.273-0.372,0.42-0.547H15.957z"/>
	<path style="clip-path:url(#SVGID_2_);fill:#FFFFFF;" d="M23.775,17.322c0.182-0.036,0.366-0.064,0.553-0.085
		c-0.072-0.203-0.174-0.389-0.305-0.554c-0.218,0.032-0.431,0.075-0.641,0.125C23.551,16.945,23.688,17.12,23.775,17.322"/>
	<path style="clip-path:url(#SVGID_2_);fill:#FFFFFF;" d="M19.752,19.786c0.152-0.191,0.314-0.374,0.484-0.547h-0.795
		c-0.147,0.175-0.289,0.358-0.419,0.547h0.492H19.752z"/>
	<path style="clip-path:url(#SVGID_2_);fill:#FFFFFF;" d="M22.25,17.05v0.127c0.106-0.044,0.215-0.086,0.324-0.127H22.25z"/>
	<polygon style="clip-path:url(#SVGID_2_);fill:#FFFFFF;" points="22.797,17.598 22.797,17.596 22.79,17.598 	"/>
	<path style="clip-path:url(#SVGID_2_);fill:#FFFFFF;" d="M22.574,17.05c-0.109,0.041-0.218,0.083-0.324,0.127v0.421h0.54
		c0.001-0.001,0.005-0.002,0.007-0.003V17.05H22.574z"/>
	<rect x="22.25" y="18.144" style="clip-path:url(#SVGID_2_);fill:#FFFFFF;" width="0.547" height="0.548"/>
	<path style="clip-path:url(#SVGID_2_);fill:#FFFFFF;" d="M21.156,18.691h0.546v-0.548h-0.069c-0.163,0.098-0.323,0.203-0.477,0.313
		V18.691z"/>
	<path style="clip-path:url(#SVGID_2_);fill:#FFFFFF;" d="M21.156,18.456c0.154-0.11,0.314-0.215,0.477-0.312h-0.477V18.456z"/>
</g>
</svg>
