<?xml version="1.0" encoding="iso-8859-1"?>
<!-- Generator: Adobe Illustrator 15.1.0, SVG Export Plug-In . SVG Version: 6.00 Build 0)  -->
<!DOCTYPE svg PUBLIC "-//W3C//DTD SVG 1.1//EN" "http://www.w3.org/Graphics/SVG/1.1/DTD/svg11.dtd">
<svg version="1.1" id="Layer_1" xmlns="http://www.w3.org/2000/svg" xmlns:xlink="http://www.w3.org/1999/xlink" x="0px" y="0px"
	 width="50px" height="50px" viewBox="0 0 50 50" style="enable-background:new 0 0 50 50;" xml:space="preserve">
<path style="fill:#FFFFFF;" d="M22.082,45.748l-0.319-0.045l0.093-0.634l0.635,0.09l-0.092,0.636L22.082,45.748z M20.544,45.468
	l-0.314-0.069l0.139-0.625l0.627,0.138l-0.14,0.626L20.544,45.468z M19.032,45.075l-0.307-0.092l0.184-0.613l0.613,0.185
	l-0.182,0.613L19.032,45.075z M16.113,43.966v0.002l-0.291-0.137l0.271-0.583l0.582,0.272l-0.272,0.581L16.113,43.966z
	 M33.709,43.506l0.58-0.272l0.271,0.581l-0.582,0.272L33.709,43.506z M14.723,43.255l-0.279-0.157l0.311-0.558l0.559,0.311
	l-0.311,0.561L14.723,43.255z M35.066,42.837l0.561-0.313l0.313,0.559l-0.561,0.313L35.066,42.837z M13.387,42.446L13.387,42.446
	l-0.267-0.176l0.35-0.536l0.537,0.352l-0.352,0.535L13.387,42.446z M36.372,42.07l0.535-0.353l0.354,0.534l-0.536,0.354
	L36.372,42.07z M12.113,41.541L12.113,41.541l-0.254-0.194l0.389-0.509l0.508,0.39l-0.387,0.509L12.113,41.541z M37.618,41.209
	l0.509-0.392l0.391,0.509l-0.508,0.392L37.618,41.209z M10.909,40.55l-0.241-0.213l0.426-0.479l0.24,0.213l0.241,0.213l-0.425,0.479
	L10.909,40.55z M38.799,40.262l0.479-0.428l0.426,0.478l-0.478,0.428L38.799,40.262z M9.779,39.471l-0.225-0.229l0.459-0.448
	l0.448,0.459l-0.46,0.447L9.779,39.471z M39.907,39.229l0.446-0.46l0.461,0.446l-0.446,0.46L39.907,39.229z M8.73,38.314
	l-0.207-0.243l0.49-0.414l0.413,0.491l-0.49,0.412L8.73,38.314z M40.939,38.119l0.412-0.491l0.489,0.411L41.43,38.53L40.939,38.119z
	 M7.77,37.086l-0.189-0.259L8.1,36.449l0.376,0.521l-0.518,0.376L7.77,37.086z M41.887,36.938l0.375-0.52l0.521,0.373l-0.376,0.521
	L41.887,36.938z M6.898,35.789L6.73,35.519l0.545-0.338l0.339,0.546l-0.547,0.336L6.898,35.789z M42.748,35.69l0.336-0.546
	l0.547,0.336l-0.338,0.546L42.748,35.69z M6.128,34.435l-0.15-0.285l0.568-0.296l0.297,0.567l-0.568,0.298L6.128,34.435z
	 M43.517,34.385l0.296-0.57l0.568,0.297l-0.148,0.284l-0.148,0.285L43.517,34.385z M5.457,33.025l-0.128-0.296l0.589-0.254
	l0.254,0.589l-0.589,0.254L5.457,33.025z M44.188,33.026l0.127-0.295l0.127-0.295l0.59,0.255l-0.254,0.589L44.188,33.026z
	 M4.889,31.569l-0.105-0.302l0.605-0.211L5.6,31.662l-0.605,0.21L4.889,31.569z M44.76,31.621l0.211-0.604l0.605,0.21l-0.211,0.604
	L44.76,31.621z M4.43,30.077L4.43,30.077l-0.084-0.31l0.619-0.166l0.167,0.619l-0.62,0.167L4.43,30.077z M45.229,30.181l0.165-0.619
	l0.62,0.165l-0.167,0.62L45.229,30.181z M4.08,28.557l-0.062-0.314l0.631-0.122l0.121,0.629l-0.631,0.123L4.08,28.557z
	 M45.589,28.71l0.12-0.632l0.629,0.12l-0.119,0.63L45.589,28.71z M3.962,27.894L3.962,27.894l-0.05-0.317l0.632-0.101l0.102,0.633
	L4.014,28.21L3.962,27.894z M45.842,27.214l0.073-0.637l0.636,0.074l-0.073,0.635L45.842,27.214z M3.771,26.345l-0.029-0.32
	l0.638-0.056l0.057,0.639l-0.639,0.057L3.771,26.345z M45.983,25.705l0.028-0.64l0.64,0.027l-0.027,0.641L45.983,25.705z
	 M3.689,24.786l-0.004-0.322l0.64-0.009l0.01,0.641l-0.64,0.009L3.689,24.786z M46.006,23.872l-0.011-0.321l0.642-0.02l0.01,0.32
	l0.01,0.32l-0.641,0.021L46.006,23.872z M3.707,23.544l0.036-0.641L4.38,22.94l-0.035,0.64L3.707,23.544z M45.904,22.359
	l-0.033-0.319l0.637-0.067l0.066,0.638l-0.637,0.065L45.904,22.359z M45.694,20.857l-0.056-0.316l0.631-0.11l0.111,0.631
	l-0.632,0.11L45.694,20.857z M45.377,19.376l-0.078-0.312l0.622-0.154l0.157,0.62l-0.623,0.156L45.377,19.376z M4.417,18.918
	l0.175-0.616l0.616,0.175l-0.174,0.617L4.417,18.918z M44.955,17.922L44.955,17.922l-0.102-0.305l0.609-0.202l0.1,0.306h0.002
	l0.101,0.304l-0.61,0.201L44.955,17.922z M4.876,17.426l0.219-0.603L5.7,17.044l-0.221,0.601L4.876,17.426z M44.426,16.503
	l-0.121-0.298l0.592-0.245l0.124,0.296H45.02l0.123,0.297l-0.594,0.245L44.426,16.503z M5.445,15.972l0.263-0.585l0.584,0.262
	l-0.263,0.586L5.445,15.972z M6.118,14.561l0.303-0.562l0.564,0.305L6.68,14.866L6.118,14.561z M6.889,13.205l0.172-0.271
	l0.174-0.271l0.54,0.346l-0.346,0.54L6.889,13.205z M42.245,12.528l-0.184-0.261l0.524-0.37l0.186,0.263l0.183,0.263l-0.524,0.368
	L42.245,12.528z M7.757,11.905l0.384-0.513l0.512,0.382l-0.382,0.514L7.757,11.905z M41.331,11.321L41.331,11.321l-0.201-0.248
	l0.497-0.406l0.403,0.497l-0.495,0.406L41.331,11.321z M8.716,10.674l0.42-0.485l0.484,0.419l-0.208,0.243l-0.211,0.242
	L8.716,10.674z M40.332,10.185l-0.221-0.233l0.467-0.44l0.441,0.466l-0.467,0.439L40.332,10.185z M9.763,9.516l0.453-0.454
	l0.454,0.454l-0.454,0.453L9.763,9.516z M39.252,9.122l-0.236-0.217l0.432-0.472l0.475,0.433l-0.434,0.472L39.252,9.122z
	 M10.89,8.434l0.485-0.419l0.42,0.485l-0.485,0.42L10.89,8.434z M38.098,8.141l-0.252-0.199l0.398-0.504l0.251,0.2l0.253,0.197
	L38.35,8.338L38.098,8.141z M12.091,7.439l0.515-0.384l0.382,0.514l-0.256,0.193V7.762l-0.258,0.192L12.091,7.439z M36.878,7.245
	l-0.267-0.18l0.361-0.53l0.266,0.179h-0.002l0.266,0.181l-0.36,0.53L36.878,7.245z M13.363,6.535l0.541-0.346l0.344,0.542
	l-0.541,0.343L13.363,6.535z M35.594,6.439l-0.279-0.16l0.322-0.556l0.555,0.32L35.871,6.6L35.594,6.439z M14.697,5.724l0.564-0.304
	l0.304,0.564l-0.564,0.305L14.697,5.724z M34.255,5.729L34.255,5.729l-0.288-0.14l0.279-0.577l0.289,0.14l0.288,0.14l-0.279,0.577
	L34.255,5.729z M16.087,5.014l0.586-0.264l0.262,0.587L16.35,5.598L16.087,5.014z M32.869,5.118L32.869,5.118l-0.297-0.119
	l0.236-0.596l0.595,0.238l-0.238,0.595L32.869,5.118z M17.525,4.405l0.302-0.109l0.301-0.11l0.219,0.603l-0.601,0.218L17.525,4.405z
	 M31.441,4.607L31.441,4.607l-0.305-0.097l0.191-0.61l0.306,0.096l0.306,0.096l-0.193,0.612L31.441,4.607z M19.005,3.905
	l0.618-0.175l0.173,0.618L19.18,4.521L19.005,3.905z M29.981,4.205L29.981,4.205l-0.313-0.075l0.148-0.625l0.313,0.075l0.313,0.074
	l-0.148,0.624L29.981,4.205z M20.517,3.513l0.63-0.129l0.129,0.628l-0.629,0.13L20.517,3.513z M28.494,3.908l-0.316-0.051
	l0.102-0.634l0.633,0.103L28.81,3.958L28.494,3.908z M22.053,3.23l0.635-0.085l0.085,0.637l-0.637,0.084L22.053,3.23z M26.99,3.722
	l-0.319-0.028l0.055-0.638l0.641,0.055l-0.058,0.638L26.99,3.722z M23.605,3.06l0.639-0.038l0.039,0.64L23.644,3.7L23.605,3.06z
	 M25.479,3.645l-0.32-0.003L25.166,3l0.641,0.009l-0.008,0.641L25.479,3.645z"/>
<g>
	<defs>
		<rect id="SVGID_1_" width="50" height="50"/>
	</defs>
	<clipPath id="SVGID_2_">
		<use xlink:href="#SVGID_1_"  style="overflow:visible;"/>
	</clipPath>
	<path style="clip-path:url(#SVGID_2_);fill:#FFFFFF;" d="M5.436,21.083v-0.432c-0.445-0.031-0.8-0.387-0.831-0.831H4.174
		c-0.032,0.444-0.387,0.8-0.83,0.831v0.432c0.443,0.031,0.798,0.386,0.83,0.83h0.431C4.636,21.469,4.991,21.114,5.436,21.083
		 M4.713,20.918c-0.104,0.078-0.195,0.169-0.273,0.272l-0.051,0.07l-0.052-0.07c-0.077-0.103-0.169-0.194-0.272-0.272l-0.07-0.052
		l0.07-0.051c0.103-0.077,0.195-0.169,0.272-0.273l0.052-0.069l0.051,0.069c0.078,0.104,0.169,0.196,0.273,0.273l0.068,0.051
		L4.713,20.918z"/>
	<path style="clip-path:url(#SVGID_2_);fill:#FFFFFF;" d="M43.362,14.237c-0.067,0.078-0.141,0.15-0.218,0.218
		c0.077,0.068,0.15,0.141,0.218,0.219c0.068-0.078,0.141-0.151,0.219-0.219C43.503,14.387,43.431,14.315,43.362,14.237"/>
	<path style="clip-path:url(#SVGID_2_);fill:#FFFFFF;" d="M43.65,12.941h-0.576c-0.061,0.647-0.578,1.165-1.226,1.226v0.577
		c0.647,0.06,1.165,0.577,1.226,1.224h0.576c0.061-0.647,0.576-1.164,1.225-1.224v-0.577C44.227,14.106,43.711,13.588,43.65,12.941
		 M43.861,14.559c-0.15,0.111-0.283,0.244-0.396,0.396l-0.103,0.139l-0.103-0.139c-0.113-0.152-0.246-0.285-0.396-0.396
		l-0.139-0.103l0.139-0.103c0.15-0.112,0.283-0.245,0.396-0.397l0.103-0.138l0.103,0.138c0.113,0.152,0.246,0.285,0.396,0.397
		L44,14.456L43.861,14.559z"/>
	<path style="clip-path:url(#SVGID_2_);fill:#FFFFFF;" d="M18.562,44.552v-0.396c-0.417-0.032-0.749-0.366-0.78-0.781h-0.399
		c-0.031,0.415-0.363,0.749-0.78,0.781v0.396c0.417,0.031,0.749,0.364,0.78,0.78h0.399C17.813,44.916,18.145,44.583,18.562,44.552
		 M17.889,44.405c-0.098,0.071-0.184,0.157-0.256,0.255l-0.051,0.068l-0.051-0.068c-0.074-0.098-0.16-0.184-0.257-0.255
		l-0.069-0.053l0.069-0.052c0.097-0.071,0.183-0.157,0.257-0.255l0.051-0.07l0.051,0.07c0.072,0.098,0.158,0.184,0.256,0.255
		l0.069,0.052L17.889,44.405z"/>
	<path style="clip-path:url(#SVGID_2_);fill:#FFFFFF;" d="M22.677,30.606c0,0.106-0.087,0.193-0.193,0.193h-6.388
		c-0.107,0-0.193-0.087-0.193-0.193v-1.162v-0.002c0.002-0.105,0.087-0.19,0.193-0.19h6.07c-0.099-0.131-0.197-0.26-0.293-0.388
		h-5.777c-0.049,0-0.092-0.019-0.126-0.049c-0.005-0.005-0.011-0.01-0.017-0.015c-0.012-0.014-0.024-0.031-0.033-0.05
		c-0.002-0.004-0.003-0.008-0.005-0.013c-0.008-0.021-0.012-0.043-0.012-0.067V27.51c0-0.106,0.086-0.193,0.193-0.193h4.614
		c-0.098-0.133-0.194-0.262-0.286-0.387h-1.082c0.137-0.383,0.217-0.779,0.234-1.185c-0.15-0.218-0.289-0.424-0.417-0.62
		c0.011,0.084,0.019,0.169,0.024,0.256h-1.935c-0.023-0.562-0.14-1.09-0.306-1.566c0.42-0.17,0.81-0.419,1.148-0.731
		c-0.1-0.277-0.176-0.549-0.23-0.827c-0.663-0.469-1.472-0.746-2.346-0.746c-2.24,0-4.064,1.822-4.064,4.064
		c0,2.24,1.824,4.063,4.064,4.063v0.968c0,0.149,0.059,0.284,0.152,0.388c-0.093,0.103-0.152,0.238-0.152,0.387v1.161
		c0,0.32,0.262,0.581,0.582,0.581h6.388c0.319,0,0.58-0.261,0.58-0.581v-1.161c0-0.148-0.059-0.284-0.151-0.387
		c0.093-0.104,0.151-0.238,0.151-0.388v-0.171c-0.132-0.175-0.261-0.345-0.387-0.512V30.606z M17.248,25.768h1.937
		c-0.022,0.399-0.103,0.789-0.251,1.162h-1.871C17.172,26.535,17.233,26.146,17.248,25.768 M17.872,22.756
		c-0.312,0.3-0.674,0.533-1.069,0.694c-0.279-0.667-0.627-1.202-0.866-1.527C16.669,22.007,17.335,22.306,17.872,22.756
		 M16.864,25.381h-2.697c0.024-0.512,0.136-0.998,0.29-1.438c0.34,0.099,0.697,0.152,1.057,0.152c0.363,0,0.719-0.053,1.059-0.152
		C16.727,24.383,16.84,24.869,16.864,25.381 M16.432,23.577c-0.295,0.083-0.604,0.131-0.918,0.131c-0.313,0-0.619-0.048-0.915-0.131
		c0.309-0.733,0.706-1.296,0.915-1.567C15.725,22.281,16.122,22.844,16.432,23.577 M15.094,21.923
		c-0.239,0.325-0.586,0.86-0.865,1.527c-0.396-0.161-0.76-0.394-1.072-0.694C13.695,22.306,14.362,22.007,15.094,21.923
		 M12.873,23.021c0.354,0.343,0.767,0.612,1.216,0.794c-0.167,0.476-0.284,1.004-0.308,1.566h-1.934
		C11.895,24.466,12.276,23.64,12.873,23.021 M11.847,25.768h1.934c0.024,0.595,0.155,1.153,0.336,1.648
		c-0.449,0.165-0.866,0.409-1.232,0.725C12.281,27.521,11.895,26.689,11.847,25.768 M13.172,28.407
		c0.326-0.272,0.692-0.486,1.088-0.63c0.273,0.633,0.604,1.137,0.834,1.448C14.369,29.143,13.707,28.85,13.172,28.407
		 M15.514,29.139c-0.2-0.259-0.571-0.788-0.876-1.477c0.286-0.07,0.58-0.104,0.876-0.104v1.112c0,0.034,0.005,0.066,0.01,0.099
		c0.002,0.006,0.002,0.01,0.002,0.016c0.002,0.009,0.005,0.018,0.007,0.026c0.006,0.018,0.01,0.034,0.016,0.051
		c0.003,0.01,0.006,0.019,0.01,0.028c0.003,0.008,0.007,0.016,0.01,0.023c0.005,0.011,0.011,0.021,0.018,0.034
		c0.007,0.013,0.013,0.026,0.022,0.038c0.003,0.006,0.006,0.011,0.009,0.016C15.58,29.053,15.545,29.1,15.514,29.139 M15.628,27.169
		c-0.387-0.011-0.77,0.032-1.139,0.129c-0.171-0.463-0.297-0.981-0.322-1.53h2.696c-0.017,0.379-0.082,0.767-0.199,1.162h-0.568
		C15.903,26.93,15.734,27.025,15.628,27.169 M22.677,32.542c0,0.107-0.087,0.193-0.193,0.193h-6.388
		c-0.107,0-0.193-0.086-0.193-0.193v-1.161c0-0.106,0.086-0.192,0.193-0.192h6.388c0.106,0,0.193,0.086,0.193,0.192V32.542z"/>
	<path style="clip-path:url(#SVGID_2_);fill:#FFFFFF;" d="M19.45,24.554c-0.153-0.589-0.435-1.126-0.813-1.579
		C18.815,23.454,19.077,23.958,19.45,24.554"/>
	<path style="clip-path:url(#SVGID_2_);fill:#FFFFFF;" d="M22.913,29.059c0.093-0.103,0.15-0.238,0.15-0.388v-1.16
		c0-0.321-0.26-0.58-0.58-0.58h-1.37c0.092,0.125,0.189,0.253,0.287,0.385h1.083c0.107,0,0.194,0.087,0.194,0.195v1.16
		c0,0.081-0.05,0.149-0.119,0.18c0.14,0.185,0.284,0.374,0.434,0.572l0.012,0.016c0.019,0.026,0.039,0.053,0.059,0.078v-0.072
		C23.063,29.297,23.005,29.161,22.913,29.059"/>
	<path style="clip-path:url(#SVGID_2_);fill:#FFFFFF;" d="M22.289,28.284v-0.387h-0.387v0.086c0.074,0.098,0.15,0.2,0.227,0.301
		H22.289z"/>
	<rect x="16.289" y="27.897" style="clip-path:url(#SVGID_2_);fill:#FFFFFF;" width="3.291" height="0.387"/>
	<rect x="21.902" y="29.832" style="clip-path:url(#SVGID_2_);fill:#FFFFFF;" width="0.387" height="0.388"/>
	<rect x="16.289" y="29.832" style="clip-path:url(#SVGID_2_);fill:#FFFFFF;" width="3.291" height="0.388"/>
	<rect x="21.902" y="31.767" style="clip-path:url(#SVGID_2_);fill:#FFFFFF;" width="0.387" height="0.388"/>
	<rect x="16.289" y="31.767" style="clip-path:url(#SVGID_2_);fill:#FFFFFF;" width="3.291" height="0.388"/>
	<rect x="19.58" y="23.832" style="clip-path:url(#SVGID_2_);fill:#FFFFFF;" width="0.387" height="0.388"/>
	<rect x="20.354" y="23.832" style="clip-path:url(#SVGID_2_);fill:#FFFFFF;" width="0.388" height="0.388"/>
	<rect x="21.129" y="23.832" style="clip-path:url(#SVGID_2_);fill:#FFFFFF;" width="0.387" height="0.388"/>
	<rect x="21.902" y="23.832" style="clip-path:url(#SVGID_2_);fill:#FFFFFF;" width="0.387" height="0.388"/>
	<rect x="21.902" y="24.607" style="clip-path:url(#SVGID_2_);fill:#FFFFFF;" width="0.387" height="0.387"/>
	<rect x="21.902" y="25.381" style="clip-path:url(#SVGID_2_);fill:#FFFFFF;" width="0.387" height="0.387"/>
	<rect x="21.902" y="26.155" style="clip-path:url(#SVGID_2_);fill:#FFFFFF;" width="0.387" height="0.387"/>
	<rect x="14.74" y="31.767" style="clip-path:url(#SVGID_2_);fill:#FFFFFF;" width="0.389" height="0.388"/>
	<rect x="13.967" y="31.767" style="clip-path:url(#SVGID_2_);fill:#FFFFFF;" width="0.387" height="0.388"/>
	<rect x="13.191" y="31.767" style="clip-path:url(#SVGID_2_);fill:#FFFFFF;" width="0.387" height="0.388"/>
	<rect x="13.191" y="30.994" style="clip-path:url(#SVGID_2_);fill:#FFFFFF;" width="0.387" height="0.387"/>
	<rect x="13.191" y="30.219" style="clip-path:url(#SVGID_2_);fill:#FFFFFF;" width="0.387" height="0.388"/>
	<rect x="13.191" y="29.444" style="clip-path:url(#SVGID_2_);fill:#FFFFFF;" width="0.387" height="0.388"/>
	<path style="clip-path:url(#SVGID_2_);fill:#FFFFFF;" d="M23.063,29.518v0.918c0.461,0.605,0.956,1.263,1.493,1.977v-0.921
		C24.018,30.774,23.521,30.12,23.063,29.518"/>
	<path style="clip-path:url(#SVGID_2_);fill:#FFFFFF;" d="M18.637,22.975c-0.27-0.722-0.354-1.388-0.354-2.232
		c0-3.803,3.094-6.897,6.899-6.897c3.803,0,6.896,3.094,6.896,6.897c0,0.469-0.025,0.884-0.096,1.284
		c0.175-0.236,0.389-0.436,0.629-0.594c0.016-0.22,0.022-0.448,0.022-0.69c0-4.108-3.344-7.451-7.452-7.451
		c-4.11,0-7.453,3.343-7.453,7.451c0,0.555,0.037,1.043,0.131,1.514C18.149,22.462,18.41,22.703,18.637,22.975"/>
	<path style="clip-path:url(#SVGID_2_);fill:#FFFFFF;" d="M19.45,24.554c0.085,0.326,0.13,0.668,0.13,1.021
		c0,0.056-0.002,0.112-0.004,0.169c0.249,0.362,0.53,0.754,0.848,1.187h0.689C20.398,25.968,19.857,25.206,19.45,24.554"/>
	<path style="clip-path:url(#SVGID_2_);fill:#FFFFFF;" d="M21.113,26.931h-0.689c0.091,0.125,0.187,0.254,0.286,0.386h0.69
		C21.301,27.185,21.205,27.056,21.113,26.931"/>
	<path style="clip-path:url(#SVGID_2_);fill:#FFFFFF;" d="M23.004,29.438l-0.012-0.016c-0.15-0.198-0.294-0.388-0.434-0.572
		c-0.024,0.009-0.048,0.014-0.075,0.014h-0.61c0.096,0.127,0.194,0.256,0.293,0.388h0.317c0.107,0,0.194,0.087,0.194,0.192v0.48
		c0.126,0.166,0.255,0.336,0.387,0.511v-0.918C23.043,29.491,23.024,29.465,23.004,29.438"/>
	<path style="clip-path:url(#SVGID_2_);fill:#FFFFFF;" d="M18.156,23.021c0.541,0.561,0.904,1.291,1.003,2.103
		c0.128,0.197,0.267,0.403,0.417,0.62c0.002-0.057,0.004-0.113,0.004-0.17c0-0.352-0.045-0.695-0.13-1.02
		c-0.373-0.596-0.635-1.1-0.814-1.579c-0.226-0.272-0.488-0.514-0.777-0.718c0.055,0.277,0.13,0.549,0.231,0.827
		C18.111,23.063,18.135,23.042,18.156,23.021"/>
	<path style="clip-path:url(#SVGID_2_);fill:#FFFFFF;" d="M22.129,28.284c-0.077-0.101-0.153-0.203-0.227-0.301v0.301H22.129z"/>
	<path style="clip-path:url(#SVGID_2_);fill:#FFFFFF;" d="M29.046,20.743c0-2.131-1.733-3.864-3.864-3.864
		c-2.131,0-3.866,1.733-3.866,3.864s1.734,3.865,3.866,3.865C27.313,24.608,29.046,22.874,29.046,20.743 M21.87,20.743
		c0-1.825,1.485-3.309,3.312-3.309c1.824,0,3.311,1.484,3.311,3.309c0,1.826-1.486,3.31-3.311,3.31
		C23.355,24.053,21.87,22.569,21.87,20.743"/>
	<path style="clip-path:url(#SVGID_2_);fill:#FFFFFF;" d="M29.52,26.561c0.014-0.019,0.027-0.038,0.042-0.058
		c-0.05-0.01-0.1-0.024-0.147-0.039C29.449,26.495,29.485,26.528,29.52,26.561"/>
	<path style="clip-path:url(#SVGID_2_);fill:#FFFFFF;" d="M28.852,26.113c-0.154-0.16-0.271-0.358-0.334-0.579v0.468
		C28.633,26.03,28.744,26.066,28.852,26.113"/>
	<path style="clip-path:url(#SVGID_2_);fill:#FFFFFF;" d="M36.437,23.233h-0.015c-0.138-1.236-1.188-2.2-2.46-2.2
		c-0.493,0-0.958,0.144-1.351,0.401c-0.021,0.286-0.056,0.557-0.109,0.823c0.359-0.423,0.887-0.674,1.46-0.674
		c1.062,0,1.925,0.863,1.925,1.917c-0.001,0.007-0.002,0.025-0.002,0.032c0,0.08,0.036,0.159,0.098,0.21
		c0.063,0.052,0.144,0.074,0.225,0.061c0.082-0.014,0.158-0.02,0.229-0.02c0.759,0,1.374,0.617,1.374,1.375
		c0,0.758-0.615,1.375-1.374,1.375h-6.21c-0.113,0.155-0.232,0.317-0.354,0.483c0.013,0.022,0.024,0.044,0.036,0.065h2.955h0.549
		h3.024c1.061,0,1.925-0.863,1.925-1.924C38.361,24.096,37.497,23.233,36.437,23.233"/>
	<path style="clip-path:url(#SVGID_2_);fill:#FFFFFF;" d="M31.488,22.133c-0.673,0-1.232,0.485-1.352,1.124
		c-0.1-0.017-0.198-0.024-0.299-0.024c-0.858,0-1.586,0.564-1.833,1.341c0.005,0,0.01-0.002,0.015-0.002
		c0.217,0,0.399,0.14,0.469,0.334c0.117-0.638,0.678-1.123,1.35-1.123c0.158,0,0.314,0.028,0.467,0.083
		c0.088,0.032,0.186,0.016,0.262-0.041c0.074-0.057,0.113-0.15,0.105-0.243l-0.01-0.075c0-0.454,0.371-0.824,0.826-0.824
		c0.104,0,0.21,0.024,0.314,0.068c0.078-0.242,0.137-0.48,0.18-0.723c-0.039,0.052-0.078,0.106-0.112,0.162
		C31.744,22.153,31.617,22.133,31.488,22.133"/>
	<path style="clip-path:url(#SVGID_2_);fill:#FFFFFF;" d="M31.982,22.027c-0.043,0.243-0.102,0.481-0.18,0.723
		c0.02,0.009,0.041,0.018,0.063,0.029c0.064,0.034,0.142,0.04,0.211,0.017c0.071-0.023,0.129-0.074,0.162-0.139
		c0.072-0.147,0.162-0.28,0.264-0.4c0.054-0.266,0.089-0.537,0.109-0.824C32.371,21.591,32.158,21.792,31.982,22.027"/>
	<path style="clip-path:url(#SVGID_2_);fill:#FFFFFF;" d="M29.562,26.503c-0.015,0.02-0.028,0.04-0.042,0.058
		c0.137,0.136,0.256,0.288,0.353,0.455c0.122-0.166,0.241-0.328,0.354-0.483h-0.389C29.743,26.532,29.65,26.521,29.562,26.503"/>
	<rect x="36.162" y="24.332" style="clip-path:url(#SVGID_2_);fill:#FFFFFF;" width="0.549" height="0.55"/>
	<rect x="36.162" y="25.432" style="clip-path:url(#SVGID_2_);fill:#FFFFFF;" width="0.549" height="0.55"/>
	<rect x="35.061" y="25.432" style="clip-path:url(#SVGID_2_);fill:#FFFFFF;" width="0.551" height="0.55"/>
	<path style="clip-path:url(#SVGID_2_);fill:#FFFFFF;" d="M28.518,25.534v-0.463c0-0.058-0.012-0.113-0.029-0.165
		c-0.016,0.081-0.024,0.166-0.024,0.251C28.464,25.288,28.483,25.414,28.518,25.534"/>
	<path style="clip-path:url(#SVGID_2_);fill:#FFFFFF;" d="M29.824,27.081c-0.208,0.281-0.43,0.579-0.668,0.897
		c0.002,0.034,0.005,0.068,0.005,0.104v1.023l-0.405-0.16c-0.088-0.034-0.178-0.06-0.268-0.083c-0.218,0.289-0.447,0.59-0.688,0.908
		l-0.023,0.032c-0.008,0.009-0.014,0.018-0.021,0.025c0.21-0.05,0.431-0.036,0.634,0.045l2.092,0.824v3.404h-4.928v-1.357
		c-0.051,0.068-0.101,0.135-0.151,0.202c-0.053,0.07-0.136,0.111-0.222,0.111c-0.088,0-0.17-0.041-0.223-0.111
		c-0.137-0.182-0.269-0.358-0.402-0.535v1.69h-1.149c-0.275,0-0.498,0.223-0.498,0.498v11.902c0,0.275,0.223,0.498,0.498,0.498
		h9.222c0.274,0,0.498-0.223,0.498-0.498V34.6c0-0.275-0.224-0.498-0.498-0.498H31.48v-3.742c0-0.205-0.125-0.389-0.316-0.465
		l-1.006-0.396v-1.416c0-0.361-0.09-0.702-0.25-1.001h-0.07C29.834,27.081,29.829,27.081,29.824,27.081 M28.477,46.003h-0.914
		v-0.437h0.914V46.003z M32.131,35.099v10.904h-2.658v-0.935c0-0.273-0.224-0.498-0.498-0.498h-1.91
		c-0.276,0-0.499,0.225-0.499,0.498v0.935h-2.659V35.099H32.131z"/>
	<path style="clip-path:url(#SVGID_2_);fill:#FFFFFF;" d="M29.414,26.464c-0.168-0.145-0.356-0.264-0.562-0.351
		C29.006,26.271,29.197,26.394,29.414,26.464"/>
	<path style="clip-path:url(#SVGID_2_);fill:#FFFFFF;" d="M26.771,30.209c0.203-0.267,0.398-0.525,0.588-0.774
		c0.164-0.216,0.32-0.422,0.475-0.625c-0.203,0.018-0.403,0.063-0.596,0.141l-0.361,0.145v-1.013c0-0.631,0.512-1.142,1.143-1.142
		c0.363,0,0.686,0.171,0.895,0.435c0.104-0.137,0.203-0.27,0.299-0.4c-0.754-0.26-1.299-0.976-1.299-1.817
		c0-0.203,0.031-0.4,0.091-0.583c-0.269,0.008-0.484,0.226-0.484,0.497v0.931c-0.94,0.226-1.64,1.072-1.64,2.08v1.411l-1.009,0.403
		c-0.19,0.075-0.315,0.259-0.315,0.463v1.132c0.121,0.159,0.242,0.32,0.367,0.485l0.256,0.342l0.258-0.342
		c0.039-0.052,0.078-0.103,0.117-0.155v-1.124L26.771,30.209z"/>
	<path style="clip-path:url(#SVGID_2_);fill:#FFFFFF;" d="M25.182,33.058c0.086,0,0.169-0.041,0.222-0.111
		c0.05-0.067,0.101-0.134,0.151-0.201v-0.924c-0.039,0.053-0.078,0.104-0.117,0.155l-0.258,0.342l-0.256-0.342
		c-0.125-0.165-0.246-0.326-0.367-0.485v0.92c0.133,0.177,0.266,0.354,0.402,0.535C25.012,33.017,25.094,33.058,25.182,33.058"/>
	<path style="clip-path:url(#SVGID_2_);fill:#FFFFFF;" d="M28.914,27.375c0.135,0.169,0.221,0.377,0.242,0.604
		c0.238-0.317,0.46-0.616,0.668-0.897c-0.213-0.001-0.418-0.04-0.611-0.106C29.117,27.104,29.019,27.238,28.914,27.375"/>
	<path style="clip-path:url(#SVGID_2_);fill:#FFFFFF;" d="M27.833,28.811c-0.153,0.202-0.31,0.408-0.474,0.625
		c-0.189,0.249-0.385,0.507-0.588,0.773l0.838-0.335c0.048-0.019,0.098-0.034,0.147-0.045c0.007-0.009,0.013-0.018,0.02-0.026
		l0.024-0.032c0.24-0.317,0.469-0.618,0.688-0.907C28.273,28.811,28.053,28.792,27.833,28.811"/>
	<path style="clip-path:url(#SVGID_2_);fill:#FFFFFF;" d="M29.824,27.081c0.005,0,0.01,0,0.014,0h0.07
		c-0.012-0.021-0.023-0.043-0.036-0.064C29.855,27.038,29.841,27.06,29.824,27.081"/>
	<path style="clip-path:url(#SVGID_2_);fill:#FFFFFF;" d="M28.852,26.113c-0.107-0.047-0.219-0.083-0.334-0.111v-0.468
		c-0.034-0.119-0.054-0.246-0.054-0.377c0-0.085,0.009-0.169,0.024-0.251c-0.069-0.194-0.252-0.334-0.469-0.334
		c-0.005,0-0.01,0.002-0.015,0.002c-0.06,0.184-0.09,0.38-0.09,0.583c0,0.842,0.544,1.559,1.298,1.817
		c0.105-0.141,0.208-0.279,0.307-0.414c-0.034-0.032-0.07-0.065-0.105-0.097C29.197,26.394,29.006,26.271,28.852,26.113"/>
	<path style="clip-path:url(#SVGID_2_);fill:#FFFFFF;" d="M29.52,26.561c-0.099,0.135-0.201,0.272-0.307,0.414
		c0.193,0.066,0.398,0.105,0.611,0.106c0.017-0.022,0.031-0.043,0.048-0.065C29.775,26.849,29.656,26.696,29.52,26.561"/>
	<path style="clip-path:url(#SVGID_2_);fill:#FFFFFF;" d="M27.064,32.711c-0.082,0-0.16,0.032-0.217,0.09
		c-0.058,0.057-0.091,0.136-0.091,0.216c0,0.081,0.033,0.16,0.091,0.218c0.113,0.115,0.32,0.114,0.432,0.001
		c0.058-0.059,0.091-0.138,0.091-0.219c0-0.08-0.033-0.159-0.091-0.216C27.223,32.743,27.145,32.711,27.064,32.711"/>
	<path style="clip-path:url(#SVGID_2_);fill:#FFFFFF;" d="M29.189,33.234c0.058-0.058,0.091-0.137,0.091-0.218
		c0-0.08-0.033-0.159-0.089-0.216c-0.059-0.057-0.137-0.09-0.219-0.09c-0.078,0-0.16,0.033-0.215,0.09
		c-0.057,0.057-0.089,0.136-0.089,0.216c0,0.081,0.032,0.16,0.089,0.218C28.871,33.349,29.078,33.348,29.189,33.234"/>
	<path style="clip-path:url(#SVGID_2_);fill:#FFFFFF;" d="M27.279,31.656c0.058-0.058,0.091-0.137,0.091-0.217
		c0-0.081-0.033-0.159-0.091-0.217c-0.057-0.057-0.135-0.089-0.215-0.089c-0.082,0-0.16,0.032-0.217,0.089
		c-0.058,0.058-0.091,0.136-0.091,0.217c0,0.08,0.033,0.159,0.091,0.216C26.961,31.771,27.167,31.77,27.279,31.656"/>
	<path style="clip-path:url(#SVGID_2_);fill:#FFFFFF;" d="M29.189,31.656c0.058-0.058,0.091-0.137,0.091-0.217
		c0-0.081-0.033-0.159-0.091-0.217c-0.057-0.057-0.135-0.089-0.217-0.089c-0.078,0-0.16,0.032-0.215,0.089
		c-0.057,0.058-0.089,0.136-0.089,0.217c0,0.08,0.032,0.159,0.089,0.216C28.87,31.77,29.078,31.769,29.189,31.656"/>
	<path style="clip-path:url(#SVGID_2_);fill:#FFFFFF;" d="M26.303,37.415c0.057-0.056,0.091-0.138,0.091-0.217
		c0-0.081-0.033-0.159-0.09-0.216c-0.058-0.058-0.136-0.091-0.216-0.091s-0.16,0.033-0.217,0.09c-0.057,0.058-0.09,0.136-0.09,0.217
		c0,0.079,0.033,0.161,0.09,0.217C25.985,37.528,26.191,37.527,26.303,37.415"/>
	<path style="clip-path:url(#SVGID_2_);fill:#FFFFFF;" d="M28.215,37.415c0.057-0.057,0.09-0.138,0.09-0.217
		c0-0.081-0.032-0.159-0.09-0.216c-0.057-0.058-0.136-0.091-0.217-0.091c-0.08,0-0.159,0.033-0.215,0.09
		c-0.059,0.058-0.091,0.136-0.091,0.217c0,0.08,0.033,0.159,0.089,0.217C27.896,37.529,28.102,37.528,28.215,37.415"/>
	<path style="clip-path:url(#SVGID_2_);fill:#FFFFFF;" d="M26.303,39.159c0.058-0.058,0.091-0.136,0.091-0.218
		c0-0.078-0.034-0.159-0.09-0.215c-0.058-0.059-0.136-0.091-0.216-0.091s-0.16,0.032-0.217,0.09c-0.057,0.057-0.09,0.137-0.09,0.216
		c0,0.081,0.033,0.16,0.09,0.218C25.984,39.272,26.191,39.272,26.303,39.159"/>
	<path style="clip-path:url(#SVGID_2_);fill:#FFFFFF;" d="M28.215,39.159c0.058-0.058,0.09-0.136,0.09-0.218
		c0-0.078-0.033-0.159-0.089-0.215c-0.058-0.059-0.137-0.091-0.218-0.091c-0.08,0-0.159,0.032-0.215,0.09
		c-0.058,0.057-0.091,0.138-0.091,0.216c0,0.081,0.033,0.16,0.091,0.217C27.896,39.273,28.102,39.273,28.215,39.159"/>
	<path style="clip-path:url(#SVGID_2_);fill:#FFFFFF;" d="M26.303,40.903c0.058-0.058,0.091-0.137,0.091-0.217
		s-0.034-0.161-0.09-0.216c-0.056-0.057-0.137-0.09-0.216-0.09c-0.08,0-0.16,0.032-0.217,0.089c-0.057,0.056-0.09,0.137-0.09,0.217
		s0.033,0.159,0.09,0.215C25.984,41.017,26.191,41.016,26.303,40.903"/>
	<path style="clip-path:url(#SVGID_2_);fill:#FFFFFF;" d="M28.215,40.902c0.058-0.057,0.09-0.136,0.09-0.216
		s-0.033-0.161-0.089-0.215c-0.058-0.059-0.137-0.091-0.218-0.091c-0.08,0-0.159,0.032-0.215,0.089
		c-0.058,0.056-0.091,0.137-0.091,0.217s0.032,0.159,0.089,0.215C27.896,41.018,28.102,41.017,28.215,40.902"/>
	<path style="clip-path:url(#SVGID_2_);fill:#FFFFFF;" d="M26.303,42.647c0.058-0.057,0.091-0.135,0.091-0.216
		s-0.033-0.16-0.09-0.215c-0.056-0.059-0.137-0.09-0.216-0.09c-0.08,0-0.16,0.031-0.215,0.088c-0.059,0.057-0.092,0.136-0.092,0.217
		s0.033,0.16,0.09,0.215C25.986,42.762,26.189,42.762,26.303,42.647"/>
	<path style="clip-path:url(#SVGID_2_);fill:#FFFFFF;" d="M28.215,42.647c0.058-0.057,0.09-0.135,0.09-0.216
		s-0.032-0.159-0.089-0.215c-0.058-0.059-0.137-0.09-0.218-0.09c-0.08,0-0.159,0.031-0.215,0.088
		c-0.059,0.058-0.091,0.136-0.091,0.217s0.032,0.159,0.089,0.215C27.896,42.764,28.102,42.762,28.215,42.647"/>
	<path style="clip-path:url(#SVGID_2_);fill:#FFFFFF;" d="M30.166,37.415c0.058-0.057,0.091-0.138,0.091-0.217
		c0-0.081-0.032-0.159-0.089-0.215c-0.057-0.058-0.138-0.092-0.217-0.092c-0.082,0-0.16,0.033-0.217,0.09
		c-0.058,0.058-0.09,0.136-0.09,0.217c0,0.08,0.032,0.159,0.09,0.217C29.848,37.528,30.055,37.527,30.166,37.415"/>
	<path style="clip-path:url(#SVGID_2_);fill:#FFFFFF;" d="M30.166,39.159c0.058-0.058,0.091-0.137,0.091-0.218
		c0-0.08-0.032-0.158-0.089-0.215c-0.058-0.059-0.137-0.091-0.217-0.091c-0.082,0-0.16,0.032-0.217,0.09
		c-0.057,0.057-0.09,0.138-0.09,0.216c0,0.082,0.032,0.16,0.089,0.217C29.848,39.273,30.053,39.273,30.166,39.159"/>
	<path style="clip-path:url(#SVGID_2_);fill:#FFFFFF;" d="M30.166,40.902c0.059-0.057,0.091-0.136,0.091-0.216
		s-0.033-0.161-0.089-0.215c-0.057-0.058-0.138-0.091-0.217-0.091c-0.082,0-0.16,0.032-0.217,0.089
		c-0.057,0.056-0.09,0.137-0.09,0.217s0.032,0.159,0.09,0.215C29.848,41.017,30.055,41.016,30.166,40.902"/>
	<path style="clip-path:url(#SVGID_2_);fill:#FFFFFF;" d="M30.166,42.647c0.059-0.057,0.091-0.135,0.091-0.216
		s-0.032-0.16-0.089-0.215c-0.057-0.059-0.138-0.09-0.217-0.09c-0.082,0-0.16,0.031-0.217,0.088c-0.058,0.057-0.09,0.136-0.09,0.217
		s0.032,0.159,0.089,0.215C29.848,42.763,30.053,42.762,30.166,42.647"/>
</g>
</svg>
