<?xml version="1.0" encoding="iso-8859-1"?>
<!-- Generator: Adobe Illustrator 15.1.0, SVG Export Plug-In . SVG Version: 6.00 Build 0)  -->
<!DOCTYPE svg PUBLIC "-//W3C//DTD SVG 1.1//EN" "http://www.w3.org/Graphics/SVG/1.1/DTD/svg11.dtd">
<svg version="1.1" id="Layer_1" xmlns="http://www.w3.org/2000/svg" xmlns:xlink="http://www.w3.org/1999/xlink" x="0px" y="0px"
	 width="50px" height="50px" viewBox="0 0 50 50" style="enable-background:new 0 0 50 50;" xml:space="preserve">
<path style="fill:#FFFFFF;" d="M24.768,46.381l0.62-0.004l0.003,0.62L24.771,47L24.768,46.381z M23.574,46.954L23.574,46.954
	l-0.31-0.02l0.041-0.619l0.309,0.021l0.308,0.019l-0.04,0.619L23.574,46.954z M26.232,46.343l0.619-0.044l0.045,0.617l-0.617,0.046
	L26.232,46.343z M22.072,46.806l-0.307-0.041l0.083-0.615l0.614,0.082l-0.082,0.615L22.072,46.806z M27.693,46.208l0.613-0.088
	l0.086,0.614l-0.306,0.043l-0.307,0.044L27.693,46.208z M20.584,46.554L20.584,46.554L20.28,46.49l0.125-0.605l0.608,0.124
	l-0.126,0.606L20.584,46.554z M29.141,45.972l0.607-0.127l0.127,0.606l-0.606,0.129L29.141,45.972z M30.567,45.642l0.597-0.169
	l0.17,0.596l-0.597,0.17L30.567,45.642z M17.679,45.745h-0.002l-0.291-0.104l0.207-0.583l0.584,0.205l-0.207,0.585L17.679,45.745z
	 M31.97,45.214l0.582-0.21l0.211,0.583l-0.584,0.21L31.97,45.214z M16.275,45.193L16.275,45.193l-0.286-0.123l0.247-0.568
	l0.569,0.247l-0.247,0.567L16.275,45.193z M33.338,44.69l0.568-0.25l0.249,0.567l-0.567,0.25L33.338,44.69z M14.911,44.547
	l-0.275-0.144l0.285-0.55l0.551,0.284l-0.286,0.551L14.911,44.547z M34.668,44.072l0.549-0.287l0.288,0.549l-0.55,0.289
	L34.668,44.072z M13.596,43.809l-0.265-0.161l0.321-0.528l0.53,0.32l-0.321,0.529L13.596,43.809z M35.949,43.368l0.528-0.325
	l0.324,0.526l-0.262,0.162l-0.264,0.162L35.949,43.368z M12.335,42.982L12.335,42.982l-0.254-0.179l0.358-0.507l0.252,0.18v-0.001
	l0.253,0.18l-0.357,0.507L12.335,42.982z M37.181,42.574l0.504-0.361l0.361,0.505l-0.252,0.181l-0.252,0.18L37.181,42.574z
	 M11.132,42.072L11.132,42.072l-0.24-0.194l0.39-0.482l0.48,0.392l-0.389,0.48L11.132,42.072z M38.354,41.697l0.478-0.394
	l0.396,0.478l-0.479,0.395L38.354,41.697z M9.994,41.084L9.994,41.084l-0.227-0.211l0.423-0.454l0.454,0.423l-0.423,0.453
	L9.994,41.084z M39.466,40.743l0.45-0.427l0.426,0.45l-0.45,0.426L39.466,40.743z M8.927,40.02l-0.212-0.228l0.453-0.423
	l0.423,0.451l-0.452,0.425L8.927,40.02z M40.509,39.714l0.211-0.229h-0.001l0.21-0.228l0.456,0.421l-0.211,0.228l-0.209,0.228
	L40.509,39.714z M7.935,38.885l-0.196-0.24l0.48-0.392l0.392,0.479l-0.48,0.393L7.935,38.885z M41.48,38.617l0.388-0.483
	l0.484,0.387l-0.389,0.484L41.48,38.617z M7.024,37.683L6.845,37.43l0.505-0.356l0.18,0.253l0.179,0.253l-0.506,0.357L7.024,37.683z
	 M42.375,37.455l0.353-0.508l0.51,0.353l-0.354,0.509L42.375,37.455z M6.196,36.425L6.196,36.425l-0.16-0.268l0.53-0.319
	l0.322,0.529l-0.53,0.322L6.196,36.425z M43.188,36.235l0.318-0.531l0.532,0.318l-0.16,0.267v-0.002l-0.159,0.267L43.188,36.235z
	 M5.459,35.11l-0.142-0.274l0.55-0.285l0.284,0.55l-0.55,0.284L5.459,35.11z M43.917,34.963l0.28-0.552l0.553,0.281l-0.282,0.552
	L43.917,34.963z M4.814,33.748L4.814,33.748l-0.123-0.285l0.567-0.245l0.247,0.568l-0.569,0.246L4.814,33.748z M44.556,33.644
	l0.242-0.57l0.57,0.243l-0.243,0.57L44.556,33.644z M4.263,32.345L4.16,32.052l0.584-0.206l0.206,0.585l-0.584,0.206L4.263,32.345z
	 M45.103,32.282l0.202-0.584l0.587,0.203l-0.203,0.585L45.103,32.282z M3.811,30.906L3.811,30.906l-0.083-0.298l0.597-0.167
	l0.082,0.298l0.082,0.3l-0.596,0.166L3.811,30.906z M45.556,30.889l0.162-0.597l0.598,0.162l-0.16,0.598L45.556,30.889z
	 M3.458,29.439l-0.064-0.303l0.607-0.125l0.126,0.608l-0.608,0.124L3.458,29.439z M45.912,29.466l0.121-0.607l0.607,0.12
	l-0.12,0.609L45.912,29.466z M3.282,28.49L3.282,28.49l-0.048-0.307l0.611-0.099l0.099,0.611l-0.612,0.1L3.282,28.49z
	 M46.169,28.021l0.039-0.307l0.04-0.308l0.615,0.078l-0.08,0.615L46.169,28.021z M3.094,26.994L3.094,26.994l-0.028-0.31
	l0.617-0.057l0.057,0.617l-0.618,0.058L3.094,26.994z M46.326,26.564l0.035-0.617l0.619,0.035l-0.035,0.618L46.326,26.564z
	 M3.007,25.487L3,25.179l0.619-0.015l0.014,0.618l-0.62,0.016L3.007,25.487z M46.377,24.792L46.377,24.792l-0.002-0.31l0.62-0.007
	l0.006,0.619l-0.621,0.007L46.377,24.792z M3.008,24.289l0.029-0.619l0.62,0.029l-0.015,0.31l-0.013,0.309L3.008,24.289z
	 M46.311,23.327L46.311,23.327l-0.023-0.309l0.617-0.048l0.024,0.309l0.024,0.309l-0.617,0.049L46.311,23.327z M3.108,22.785
	l0.036-0.308l0.034-0.307l0.617,0.07l-0.036,0.308H3.76l-0.036,0.307L3.108,22.785z M46.145,21.871l-0.046-0.306l0.614-0.091
	l0.045,0.307l0.045,0.305l-0.613,0.092L46.145,21.871z M45.881,20.429l-0.066-0.303l0.606-0.132l0.132,0.605l-0.605,0.133
	L45.881,20.429z M45.52,19.009l-0.087-0.297l0.596-0.174l0.174,0.595l-0.596,0.174L45.52,19.009z M4.023,18.357l0.196-0.587
	l0.588,0.196l-0.196,0.587L4.023,18.357z M45.063,17.616l-0.105-0.29l0.582-0.213l0.213,0.581l-0.582,0.213L45.063,17.616z
	 M4.529,16.936l0.118-0.287l0.118-0.286l0.573,0.235l-0.235,0.575L4.529,16.936z M44.512,16.259L44.512,16.259l-0.127-0.282
	l0.567-0.254l0.252,0.565l-0.566,0.255L44.512,16.259z M5.131,15.553l0.275-0.556l0.556,0.274L5.825,15.55l-0.138,0.277
	L5.131,15.553z M43.868,14.944l-0.146-0.274l0.547-0.291l0.146,0.273l0.146,0.274l-0.549,0.291L43.868,14.944z M5.827,14.214
	l0.311-0.535l0.536,0.311l-0.312,0.537L5.827,14.214z M43.135,13.676l-0.164-0.263l0.525-0.328l0.329,0.526l-0.526,0.328
	L43.135,13.676z M6.611,12.927l0.348-0.514l0.513,0.348l-0.347,0.512L6.611,12.927z M42.317,12.461l-0.183-0.249l0.501-0.365
	L43,12.349l-0.501,0.364L42.317,12.461z M7.483,11.696l0.38-0.489l0.489,0.381L7.97,12.075L7.483,11.696z M41.416,11.307
	l-0.198-0.238l0.477-0.397l0.396,0.474l-0.475,0.399L41.416,11.307z M8.435,10.526l0.414-0.461l0.461,0.414L8.896,10.94
	L8.435,10.526z M40.439,10.216l-0.214-0.225l0.446-0.428l0.214,0.224V9.786l0.214,0.225l-0.445,0.428L40.439,10.216z M9.464,9.425
	l0.445-0.433l0.432,0.446L9.897,9.869L9.464,9.425z M10.567,8.396l0.236-0.2l0.238-0.2l0.4,0.473L10.967,8.87L10.567,8.396z
	 M11.737,7.446l0.499-0.367l0.367,0.5l-0.499,0.366L11.737,7.446z M37.092,7.375l-0.255-0.177l0.351-0.511l0.512,0.351l-0.351,0.512
	L37.092,7.375z M12.969,6.579l0.262-0.166l0.262-0.167l0.331,0.525l-0.523,0.331L12.969,6.579z M35.856,6.587L35.59,6.43
	l0.315-0.533l0.534,0.315l-0.316,0.532L35.856,6.587z M14.258,5.798l0.545-0.295l0.295,0.545l-0.545,0.295L14.258,5.798z
	 M34.569,5.886L34.569,5.886l-0.276-0.139l0.276-0.554l0.555,0.278l-0.278,0.553L34.569,5.886z M15.599,5.108l0.281-0.128
	l0.283-0.129l0.257,0.563l-0.565,0.258L15.599,5.108z M33.237,5.274L33.237,5.274l-0.286-0.121l0.238-0.571l0.287,0.12l0.286,0.119
	l-0.24,0.573L33.237,5.274z M16.984,4.512l0.291-0.108V4.402l0.29-0.107l0.217,0.58l-0.58,0.217L16.984,4.512z M31.867,4.754
	l-0.294-0.1l0.199-0.587l0.587,0.2L32.16,4.853L31.867,4.754z M18.407,4.012l0.297-0.088l0.297-0.089l0.176,0.595l-0.594,0.175
	L18.407,4.012z M30.462,4.33L30.163,4.25l0.159-0.6l0.599,0.158L30.762,4.41L30.462,4.33z M19.86,3.612l0.605-0.136l0.137,0.604
	l-0.606,0.137L19.86,3.612z M29.033,4.003l-0.305-0.058l0.116-0.608l0.61,0.117l-0.118,0.609L29.033,4.003z M21.339,3.311
	l0.612-0.095l0.094,0.612l-0.612,0.094L21.339,3.311z M27.584,3.777l-0.308-0.038l0.073-0.614l0.616,0.074l-0.074,0.614
	L27.584,3.777z M22.832,3.11l0.311-0.027l0.308-0.026l0.052,0.618L23.194,3.7l-0.309,0.027L22.832,3.11z M26.124,3.651l-0.31-0.016
	l0.032-0.62l0.618,0.033l-0.032,0.618L26.124,3.651z M24.338,3.012l0.31-0.006L24.958,3l0.01,0.62l-0.619,0.011L24.338,3.012z"/>
<g>
	<defs>
		<rect id="SVGID_1_" width="50" height="50"/>
	</defs>
	<clipPath id="SVGID_2_">
		<use xlink:href="#SVGID_1_"  style="overflow:visible;"/>
	</clipPath>
	<path style="clip-path:url(#SVGID_2_);fill:#FFFFFF;" d="M32.622,18.699c0.09-0.007,0.182-0.014,0.274-0.018V19.8h-0.354
		c-0.025,0.191-0.059,0.377-0.099,0.563h1.859V19.8H33.46v-1.119c1.672,0.072,2.814,0.769,2.814,1.4
		c0,0.665-1.271,1.408-3.096,1.408c-0.374,0-0.726-0.032-1.046-0.087c-0.068,0.173-0.145,0.35-0.229,0.529
		c0.396,0.078,0.823,0.121,1.274,0.121c1.319,0,2.454-0.36,3.096-0.91v0.628c0,0.666-1.271,1.407-3.096,1.407
		c-0.688,0-1.298-0.106-1.789-0.272c-0.094,0.158-0.193,0.321-0.299,0.49c0.588,0.218,1.304,0.345,2.088,0.345
		c1.319,0,2.454-0.36,3.096-0.91v0.629c0,0.666-1.271,1.407-3.096,1.407c-1.15,0-2.079-0.293-2.61-0.678
		c-0.102,0.149-0.209,0.303-0.319,0.461c0.661,0.476,1.716,0.78,2.93,0.78c1.319,0,2.454-0.36,3.096-0.91v0.627
		c0,0.666-1.271,1.408-3.096,1.408c-1.825,0-3.097-0.742-3.097-1.408v-0.261c-0.154,0.214-0.316,0.439-0.487,0.673
		c0.343,0.9,1.795,1.558,3.584,1.558c2.052,0,3.659-0.864,3.659-1.97v-5.066c0-1.053-1.463-1.888-3.378-1.963h-0.563
		c-0.094,0.004-0.188,0.01-0.279,0.017c0.003,0.098,0.007,0.194,0.007,0.293C32.624,18.52,32.623,18.61,32.622,18.699"/>
	<path style="clip-path:url(#SVGID_2_);fill:#FFFFFF;" d="M21.914,32.022c0,0.12-0.098,0.218-0.218,0.218h-7.164
		c-0.12,0-0.217-0.098-0.217-0.218V30.72c0-0.119,0.097-0.217,0.217-0.217h6.978c-0.111-0.147-0.221-0.292-0.329-0.435h-6.649
		c-0.12,0-0.217-0.097-0.217-0.217v-1.303c0-0.001,0-0.003,0-0.003c0.003-0.118,0.099-0.215,0.217-0.215h5.332
		c-0.111-0.146-0.221-0.292-0.329-0.434h-5.003c-0.055,0-0.103-0.021-0.141-0.056c-0.007-0.005-0.012-0.01-0.018-0.016
		c-0.015-0.017-0.029-0.035-0.038-0.056c-0.002-0.005-0.004-0.011-0.005-0.015c-0.009-0.023-0.015-0.049-0.015-0.075v-1.303
		c0-0.12,0.097-0.217,0.217-0.217h3.699c-0.157-0.212-0.307-0.416-0.451-0.613c-0.02,0.061-0.042,0.119-0.065,0.179h-2.098
		c0.121-0.442,0.19-0.877,0.208-1.302h1.152c-0.103-0.149-0.202-0.294-0.296-0.434h-0.856c-0.026-0.631-0.159-1.224-0.345-1.757
		c0.04-0.016,0.079-0.033,0.119-0.051c-0.067-0.134-0.13-0.266-0.187-0.395c-0.03,0.012-0.058,0.026-0.088,0.037
		c-0.313-0.749-0.703-1.349-0.971-1.713c0.191,0.022,0.377,0.058,0.558,0.105c-0.029-0.154-0.054-0.308-0.074-0.466
		c-0.309-0.066-0.629-0.102-0.956-0.102c-2.515,0-4.56,2.045-4.56,4.559c0,2.514,2.045,4.561,4.56,4.561v1.084
		c0,0.168,0.065,0.318,0.168,0.435c-0.103,0.115-0.168,0.267-0.168,0.434v1.303c0,0.358,0.292,0.651,0.651,0.651h7.164
		c0.36,0,0.652-0.293,0.652-0.651v-0.411c-0.147-0.195-0.293-0.386-0.434-0.574V32.022z M15.392,23.991h-3.024
		c0.027-0.576,0.152-1.121,0.326-1.613c0.381,0.11,0.781,0.17,1.187,0.17c0.405,0,0.804-0.059,1.186-0.17
		C15.24,22.87,15.366,23.415,15.392,23.991 M14.909,21.966c-0.332,0.093-0.677,0.147-1.028,0.147c-0.353,0-0.697-0.054-1.029-0.147
		c0.348-0.821,0.793-1.453,1.029-1.758C14.115,20.513,14.561,21.145,14.909,21.966 M13.407,20.111
		c-0.268,0.364-0.657,0.964-0.97,1.713c-0.444-0.182-0.851-0.443-1.202-0.778C11.839,20.541,12.587,20.205,13.407,20.111
		 M10.917,21.344c0.396,0.384,0.86,0.685,1.364,0.89c-0.187,0.532-0.32,1.126-0.346,1.757H9.766
		C9.82,22.964,10.247,22.038,10.917,21.344 M9.766,24.424h2.169c0.028,0.667,0.175,1.292,0.377,1.849
		c-0.502,0.185-0.971,0.46-1.381,0.812C10.252,26.391,9.82,25.457,9.766,24.424 M11.253,27.384c0.364-0.306,0.776-0.544,1.219-0.706
		c0.307,0.708,0.678,1.275,0.935,1.625C12.595,28.21,11.853,27.88,11.253,27.384 M13.881,28.206
		c-0.226-0.292-0.644-0.885-0.985-1.657c0.32-0.078,0.65-0.116,0.985-0.116v1.248c0,0.037,0.003,0.074,0.01,0.11
		c0.001,0.005,0.001,0.012,0.002,0.016c0.002,0.012,0.006,0.021,0.009,0.031c0.005,0.02,0.01,0.038,0.016,0.057
		c0.004,0.011,0.007,0.021,0.011,0.031c0.004,0.01,0.008,0.018,0.013,0.026c0.005,0.013,0.012,0.026,0.02,0.038
		c0.007,0.016,0.015,0.03,0.024,0.043c0.004,0.006,0.007,0.013,0.011,0.018C13.954,28.109,13.915,28.162,13.881,28.206
		 M14.007,25.996c-0.435-0.013-0.865,0.037-1.278,0.145c-0.192-0.52-0.333-1.103-0.361-1.716h3.024
		c-0.02,0.424-0.092,0.859-0.222,1.302h-0.638C14.316,25.727,14.126,25.833,14.007,25.996"/>
	<rect x="14.803" y="26.758" style="clip-path:url(#SVGID_2_);fill:#FFFFFF;" width="3.691" height="0.435"/>
	<rect x="14.749" y="28.983" style="clip-path:url(#SVGID_2_);fill:#FFFFFF;" width="3.691" height="0.434"/>
	<rect x="20.978" y="31.23" style="clip-path:url(#SVGID_2_);fill:#FFFFFF;" width="0.435" height="0.434"/>
	<rect x="14.748" y="31.154" style="clip-path:url(#SVGID_2_);fill:#FFFFFF;" width="3.691" height="0.434"/>
	<polygon style="clip-path:url(#SVGID_2_);fill:#FFFFFF;" points="13.066,31.534 13.446,31.589 13.446,31.154 13.066,31.1 	"/>
	<polygon style="clip-path:url(#SVGID_2_);fill:#FFFFFF;" points="12.198,31.534 12.578,31.589 12.578,31.154 12.198,31.1 	"/>
	<rect x="11.33" y="31.1" style="clip-path:url(#SVGID_2_);fill:#FFFFFF;" width="0.434" height="0.435"/>
	<rect x="11.33" y="30.231" style="clip-path:url(#SVGID_2_);fill:#FFFFFF;" width="0.434" height="0.434"/>
	<rect x="11.33" y="29.363" style="clip-path:url(#SVGID_2_);fill:#FFFFFF;" width="0.434" height="0.434"/>
	<polygon style="clip-path:url(#SVGID_2_);fill:#FFFFFF;" points="11.33,28.929 11.764,28.929 11.708,28.549 11.274,28.549 	"/>
	<path style="clip-path:url(#SVGID_2_);fill:#FFFFFF;" d="M29.519,20.082v3.209c0.275-0.409,0.51-0.778,0.709-1.122
		c-0.096-0.131-0.146-0.266-0.146-0.399v-0.627c0.146,0.124,0.318,0.239,0.511,0.342c0.086-0.176,0.161-0.348,0.228-0.516
		c-0.468-0.259-0.738-0.581-0.738-0.887c0-0.388,0.433-0.8,1.155-1.078c0.01-0.185,0.014-0.376,0.014-0.575
		c0-0.01-0.001-0.019-0.001-0.029C30.203,18.743,29.519,19.359,29.519,20.082"/>
	<path style="clip-path:url(#SVGID_2_);fill:#FFFFFF;" d="M17.912,23.36c0.161,0.237,0.336,0.488,0.525,0.754
		c-0.031-1.558-0.847-2.925-2.067-3.724c0.093,0.334,0.221,0.671,0.391,1.031c0.027-0.027,0.055-0.052,0.082-0.078
		C17.373,21.893,17.75,22.588,17.912,23.36"/>
	<path style="clip-path:url(#SVGID_2_);fill:#FFFFFF;" d="M22.167,28.136c0.104-0.115,0.17-0.268,0.17-0.435v-1.302
		c0-0.359-0.293-0.651-0.652-0.651h-2.076c0.105,0.141,0.214,0.285,0.326,0.435h1.75c0.12,0,0.217,0.098,0.217,0.217v1.302
		c0,0.12-0.097,0.217-0.217,0.217h-0.437c0.069,0.092,0.14,0.186,0.211,0.28c0.039,0.051,0.079,0.103,0.118,0.155h0.108
		c0.12,0,0.217,0.097,0.217,0.217v0.211c0.142,0.187,0.286,0.378,0.435,0.573V28.57C22.336,28.402,22.271,28.252,22.167,28.136"/>
	<rect x="21.033" y="26.834" style="clip-path:url(#SVGID_2_);fill:#FFFFFF;" width="0.434" height="0.433"/>
	<rect x="18.439" y="22.253" style="clip-path:url(#SVGID_2_);fill:#FFFFFF;" width="0.435" height="0.435"/>
	<rect x="19.308" y="22.253" style="clip-path:url(#SVGID_2_);fill:#FFFFFF;" width="0.435" height="0.435"/>
	<rect x="20.177" y="22.253" style="clip-path:url(#SVGID_2_);fill:#FFFFFF;" width="0.434" height="0.435"/>
	<path style="clip-path:url(#SVGID_2_);fill:#FFFFFF;" d="M21.045,22.688h0.421c-0.145-0.077-0.285-0.16-0.421-0.25V22.688z"/>
	<rect x="21.097" y="23.069" style="clip-path:url(#SVGID_2_);fill:#FFFFFF;" width="0.435" height="0.435"/>
	<polygon style="clip-path:url(#SVGID_2_);fill:#FFFFFF;" points="21.045,24.424 21.531,24.372 21.479,23.99 21.045,23.99 	"/>
	<polygon style="clip-path:url(#SVGID_2_);fill:#FFFFFF;" points="21.045,25.293 21.531,25.24 21.479,24.859 21.045,24.859 	"/>
	<path style="clip-path:url(#SVGID_2_);fill:#FFFFFF;" d="M27.516,26.384l0.024-0.019v-0.009h0.011l0.018-0.014
		c0.291-0.227,0.576-0.43,0.825-0.587l0.028-0.018v-0.899c-0.453,0.617-0.976,1.313-1.577,2.109
		C27.089,26.73,27.316,26.542,27.516,26.384"/>
	<path style="clip-path:url(#SVGID_2_);fill:#FFFFFF;" d="M25.593,29.555c0.285-0.543,0.603-1.069,0.942-1.562l-0.095-0.079
		c-0.483,0.491-0.936,1.021-1.346,1.575l-0.072,0.098"/>
	<path style="clip-path:url(#SVGID_2_);fill:#FFFFFF;" d="M29.457,25.539c-0.042-0.129-0.063-0.261-0.008-0.446v-1.455
		c-0.175,0.227-0.302,0.409-0.439,0.601v1.104l0.294-0.031v0.437C29.355,25.678,29.406,25.607,29.457,25.539"/>
	<path style="clip-path:url(#SVGID_2_);fill:#FFFFFF;" d="M31.085,15.638c-0.079,0-0.16-0.004-0.24-0.013
		c0.328,0.832,0.505,1.708,0.526,2.607c0.348-0.101,0.722-0.172,1.117-0.209c-0.038-0.816-0.187-1.617-0.444-2.385H31.085z"/>
	<path style="clip-path:url(#SVGID_2_);fill:#FFFFFF;" d="M30.081,24.886c0.058-0.08,0.112-0.158,0.167-0.236
		c-0.059-0.042-0.114-0.085-0.167-0.129V24.886z"/>
	<path style="clip-path:url(#SVGID_2_);fill:#FFFFFF;" d="M28.923,12.809c0.104-0.374,0.302-0.719,0.578-0.996
		c-1.61-1.414-3.667-2.192-5.808-2.192c-4.856,0-8.806,3.952-8.806,8.807c0,0.454,0.02,0.854,0.062,1.22
		c0.43,0.1,0.841,0.262,1.226,0.478c-0.113-0.5-0.162-1.026-0.162-1.698c0-4.235,3.445-7.681,7.68-7.681
		C25.646,10.747,27.495,11.478,28.923,12.809"/>
	<path style="clip-path:url(#SVGID_2_);fill:#FFFFFF;" d="M22.969,32.103c0.167-0.39,0.35-0.771,0.549-1.142
		c-0.346-0.46-0.675-0.896-0.992-1.314v0.15c0,0.155-0.047,0.305-0.136,0.435c0.089,0.129,0.136,0.278,0.136,0.434v0.851
		C22.671,31.708,22.819,31.903,22.969,32.103"/>
	<path style="clip-path:url(#SVGID_2_);fill:#FFFFFF;" d="M30.593,21.484c0.366,0.197,0.813,0.35,1.312,0.447
		c0.084-0.179,0.161-0.356,0.228-0.53c-0.484-0.083-0.946-0.23-1.313-0.433C30.753,21.136,30.679,21.309,30.593,21.484"/>
	<path style="clip-path:url(#SVGID_2_);fill:#FFFFFF;" d="M32.106,20.308h0.393c0.04-0.186,0.072-0.372,0.099-0.563h-0.491V20.308z"
		/>
	<path style="clip-path:url(#SVGID_2_);fill:#FFFFFF;" d="M31.251,18.428c0,0.2-0.006,0.39-0.016,0.576
		c0.387-0.149,0.855-0.258,1.386-0.305c0.002-0.089,0.003-0.179,0.003-0.271c0-0.099-0.004-0.195-0.007-0.293
		c-0.499,0.04-0.96,0.131-1.368,0.264C31.249,18.409,31.251,18.418,31.251,18.428"/>
	<path style="clip-path:url(#SVGID_2_);fill:#FFFFFF;" d="M30.081,24.521c0.053,0.044,0.108,0.087,0.167,0.129
		c0.111-0.158,0.219-0.312,0.32-0.461c-0.313-0.227-0.487-0.483-0.487-0.73v-0.628c0.262,0.224,0.605,0.416,1.01,0.565
		c0.105-0.169,0.205-0.332,0.299-0.491c-0.555-0.188-0.96-0.453-1.162-0.736c-0.199,0.344-0.434,0.713-0.709,1.123v1.856
		c0,0.142,0.026,0.279,0.076,0.412c0.171-0.234,0.333-0.459,0.486-0.674V24.521z"/>
	<path style="clip-path:url(#SVGID_2_);fill:#FFFFFF;" d="M19.62,25.727h-1.447c0.173-0.489,0.266-0.997,0.266-1.519
		c0-0.031-0.002-0.062-0.002-0.093c-0.189-0.266-0.364-0.517-0.525-0.754c0.042,0.205,0.071,0.414,0.083,0.629h-1.314
		c0.094,0.141,0.193,0.286,0.295,0.434h1.019c-0.02,0.386-0.09,0.761-0.215,1.125c0.144,0.196,0.294,0.4,0.451,0.611h1.715
		C19.834,26.013,19.726,25.868,19.62,25.727"/>
	<path style="clip-path:url(#SVGID_2_);fill:#FFFFFF;" d="M22.167,30.307c0.104-0.115,0.17-0.267,0.17-0.435v-0.518
		c-0.149-0.194-0.293-0.387-0.435-0.573v1.091c0,0.12-0.097,0.218-0.217,0.218h-0.516c0.109,0.143,0.218,0.287,0.33,0.435h0.186
		c0.12,0,0.217,0.097,0.217,0.217v0.315c0.142,0.188,0.287,0.381,0.435,0.576v-0.892C22.336,30.574,22.271,30.423,22.167,30.307"/>
	<path style="clip-path:url(#SVGID_2_);fill:#FFFFFF;" d="M21.459,28.198c-0.072-0.095-0.143-0.188-0.212-0.28h-1.724
		c0.107,0.143,0.218,0.287,0.33,0.436h1.724C21.538,28.301,21.498,28.249,21.459,28.198"/>
	<path style="clip-path:url(#SVGID_2_);fill:#FFFFFF;" d="M16.579,20.991c-0.327,0.313-0.704,0.561-1.113,0.74
		c0.058,0.131,0.12,0.261,0.188,0.396c0.424-0.187,0.816-0.443,1.161-0.761c-0.17-0.359-0.297-0.696-0.391-1.03
		c-0.46-0.302-0.978-0.522-1.532-0.641c0.02,0.158,0.044,0.313,0.074,0.466C15.567,20.316,16.117,20.603,16.579,20.991"/>
	<rect x="21.033" y="29.005" style="clip-path:url(#SVGID_2_);fill:#FFFFFF;" width="0.434" height="0.434"/>
	<path style="clip-path:url(#SVGID_2_);fill:#FFFFFF;" d="M23.693,13.804c-2.549,0-4.623,2.075-4.623,4.624
		c0,1.434,0.663,2.773,1.79,3.649l0.185,0.176l0.243,0.099l0.378,0.228c0.628,0.307,1.327,0.469,2.027,0.469
		c2.549,0,4.623-2.073,4.623-4.621C28.315,15.879,26.242,13.804,23.693,13.804 M23.693,22.048c-1.997,0-3.621-1.624-3.621-3.62
		c0-1.997,1.624-3.621,3.621-3.621c1.997,0,3.622,1.624,3.622,3.621C27.314,20.424,25.689,22.048,23.693,22.048"/>
	<path style="clip-path:url(#SVGID_2_);fill:#FFFFFF;" d="M21.479,22.253h-0.434v0.185c0.136,0.09,0.276,0.173,0.421,0.25h0.013
		V22.253z"/>
	<path style="clip-path:url(#SVGID_2_);fill:#FFFFFF;" d="M28.716,30.176h-0.294v0.463h0.294v10.112h-0.713V27.692
		c-0.149,0.197-0.304,0.402-0.463,0.613v1.281h-0.972c-0.115,0.153-0.232,0.307-0.352,0.464h1.323v3.029l-2.057-2.058
		c-0.334,0.442-0.685,0.905-1.05,1.395c-0.473,1.589-0.712,3.275-0.712,5.041c0,1.474,0.293,2.645,0.468,3.213l0.025,0.08h-1.273
		l-0.014-0.042c-0.152-0.456-0.505-1.682-0.505-3.251c0-1.621,0.285-3.18,0.849-4.66c-0.048-0.036-0.091-0.078-0.127-0.128
		c-0.067-0.09-0.132-0.176-0.199-0.265c-0.655,1.604-0.987,3.295-0.987,5.053c0,1.474,0.293,2.645,0.469,3.213l0.024,0.08h-0.432
		v-0.062l-0.022,0.525h7.239v-0.464H29.18V30.639h0.587v-0.463H29.18v-4.051c-0.148,0.2-0.303,0.407-0.464,0.623V30.176z
		 M24.683,33.33c0.15-0.606,0.335-1.204,0.55-1.779l0.033-0.091l1.946,1.947h-2.549L24.683,33.33z M24.196,36.868
		c0.028-0.864,0.119-1.719,0.271-2.544l0.021-0.116l2.725,2.725h-3.019L24.196,36.868z M24.704,40.751l-0.015-0.042
		c-0.13-0.39-0.439-1.446-0.495-2.824l-0.006-0.158l3.025,3.024H24.704z M27.54,40.424l-3.027-3.027h3.027V40.424z M27.54,36.605
		l-2.733-2.735h2.733V36.605z"/>
	<path style="clip-path:url(#SVGID_2_);fill:#FFFFFF;" d="M28.477,23.07v1.714c0.163-0.223,0.317-0.436,0.464-0.639V23.07H28.477z"
		/>
	<path style="clip-path:url(#SVGID_2_);fill:#FFFFFF;" d="M24.567,29.507l-0.018,0.026h-1.361v0.464h1.045l-0.061,0.094
		c-0.18,0.284-0.349,0.57-0.507,0.86c0.027,0.035,0.054,0.072,0.083,0.108c0.818-1.087,1.548-2.052,2.208-2.922
		c0.334-0.439,0.647-0.854,0.943-1.244C26.2,27.517,25.361,28.384,24.567,29.507"/>
	<path style="clip-path:url(#SVGID_2_);fill:#FFFFFF;" d="M28.886,25.48V24.2c-0.146,0.203-0.3,0.417-0.464,0.639v0.9l-0.029,0.018
		c-0.248,0.156-0.533,0.36-0.825,0.588l-0.017,0.013H27.54v0.008l-0.024,0.02c-0.2,0.159-0.427,0.347-0.671,0.564
		c-0.295,0.39-0.609,0.805-0.943,1.245c-0.659,0.87-1.391,1.834-2.208,2.921c-0.028-0.036-0.055-0.071-0.083-0.108
		c-0.25,0.457-0.471,0.926-0.664,1.399c0.066,0.089,0.131,0.175,0.198,0.266c0.036,0.049,0.079,0.091,0.127,0.128
		c0.358-0.94,0.827-1.848,1.408-2.72l0.019-0.027h0.644l-0.041,0.088c-0.346,0.734-0.635,1.493-0.868,2.278
		c0.367-0.489,0.717-0.953,1.05-1.396l-0.029-0.029l0.016-0.039c0.123-0.294,0.257-0.586,0.396-0.868l0.018-0.034h0.335
		c0.119-0.158,0.236-0.313,0.352-0.464h-0.45l0.05-0.092c0.378-0.691,0.802-1.346,1.261-1.943l0.111-0.146v0.898
		c0.158-0.21,0.313-0.415,0.464-0.613v-0.833l0.016-0.018c0.205-0.229,0.41-0.436,0.593-0.601l0.104-0.094v0.601
		c0.161-0.216,0.315-0.423,0.464-0.622V25.45L28.886,25.48z"/>
	<path style="clip-path:url(#SVGID_2_);fill:#FFFFFF;" d="M38.561,11.277h-0.073l-0.006-0.056c-0.154-1.389-1.325-2.436-2.724-2.436
		c-0.949,0-1.815,0.48-2.318,1.282l-0.025,0.039l-0.045-0.013c-0.136-0.042-0.275-0.062-0.415-0.062
		c-0.722,0-1.339,0.514-1.471,1.222l-0.01,0.059l-0.061-0.009c-0.108-0.017-0.22-0.026-0.327-0.026
		c-0.538,0-1.028,0.202-1.402,0.534c0.124,0.112,0.243,0.227,0.36,0.345c0.281-0.237,0.645-0.38,1.042-0.38
		c0.184,0,0.369,0.033,0.549,0.097c0.08,0.031,0.169,0.016,0.236-0.036c0.068-0.053,0.104-0.135,0.097-0.221l-0.011-0.082
		c-0.001-0.557,0.447-1.005,0.997-1.005c0.153,0,0.308,0.04,0.455,0.117c0.06,0.03,0.13,0.037,0.193,0.016
		c0.063-0.021,0.117-0.067,0.146-0.127c0.382-0.772,1.151-1.251,2.01-1.251c1.236,0,2.241,1.002,2.241,2.234
		c-0.001,0.011-0.001,0.03-0.001,0.036c0,0.074,0.033,0.144,0.089,0.191c0.056,0.047,0.13,0.067,0.202,0.056
		c0.099-0.017,0.188-0.025,0.271-0.025c0.894,0,1.62,0.727,1.62,1.619c0,0.893-0.727,1.618-1.62,1.618h-6.616
		c0.068,0.165,0.13,0.332,0.189,0.5h2.378v0.063h0.623v-0.063h3.426c1.168,0,2.119-0.95,2.119-2.118S39.729,11.277,38.561,11.277"/>
	<path style="clip-path:url(#SVGID_2_);fill:#FFFFFF;" d="M29.476,13.57c-0.151-0.18-0.311-0.353-0.479-0.518
		c-0.019,0.112-0.03,0.226-0.03,0.344c0,1.016,0.72,1.868,1.679,2.071c-0.093-0.217-0.196-0.431-0.308-0.636
		C29.868,14.585,29.534,14.119,29.476,13.57"/>
	<path style="clip-path:url(#SVGID_2_);fill:#FFFFFF;" d="M31.085,15.014c-0.27,0-0.523-0.066-0.748-0.183
		c0.112,0.205,0.216,0.419,0.309,0.636c0.142,0.03,0.289,0.047,0.439,0.047h1.049c-0.06-0.168-0.121-0.335-0.189-0.5H31.085z"/>
	<path style="clip-path:url(#SVGID_2_);fill:#FFFFFF;" d="M28.997,13.052c0.167,0.166,0.328,0.338,0.479,0.518
		c-0.007-0.057-0.011-0.115-0.011-0.174c0-0.497,0.225-0.942,0.578-1.24c-0.118-0.118-0.237-0.233-0.359-0.345
		C29.327,12.127,29.078,12.561,28.997,13.052"/>
	<rect x="38.31" y="12.523" style="clip-path:url(#SVGID_2_);fill:#FFFFFF;" width="0.5" height="0.499"/>
	<rect x="38.31" y="13.769" style="clip-path:url(#SVGID_2_);fill:#FFFFFF;" width="0.5" height="0.5"/>
	<rect x="37.065" y="13.769" style="clip-path:url(#SVGID_2_);fill:#FFFFFF;" width="0.5" height="0.5"/>
	<path style="clip-path:url(#SVGID_2_);fill:#FFFFFF;" d="M26.011,25.208v-0.417c-0.429-0.03-0.771-0.374-0.802-0.802h-0.417
		c-0.031,0.428-0.375,0.772-0.803,0.802v0.417c0.428,0.031,0.772,0.374,0.803,0.803h0.417
		C25.239,25.582,25.582,25.239,26.011,25.208 M25.313,25.049c-0.101,0.075-0.189,0.164-0.264,0.265l-0.049,0.065l-0.05-0.065
		c-0.074-0.101-0.163-0.189-0.264-0.265L24.621,25l0.066-0.051c0.101-0.074,0.189-0.162,0.264-0.262l0.05-0.068l0.049,0.068
		c0.076,0.1,0.163,0.188,0.264,0.262L25.38,25L25.313,25.049z"/>
	<path style="clip-path:url(#SVGID_2_);fill:#FFFFFF;" d="M26.463,25.278v-0.557c-0.627-0.059-1.126-0.559-1.185-1.184h-0.557
		c-0.059,0.625-0.559,1.125-1.185,1.184v0.557c0.626,0.059,1.126,0.559,1.185,1.185h0.557
		C25.337,25.837,25.836,25.337,26.463,25.278 M25.481,25.1c-0.145,0.107-0.272,0.236-0.383,0.384l-0.1,0.133L24.9,25.483
		c-0.108-0.147-0.237-0.276-0.382-0.384L24.384,25l0.134-0.099c0.146-0.109,0.275-0.238,0.382-0.383l0.099-0.135l0.1,0.135
		c0.109,0.145,0.238,0.274,0.383,0.383L25.616,25L25.481,25.1z"/>
	<path style="clip-path:url(#SVGID_2_);fill:#FFFFFF;" d="M25.733,25.14v-0.28c-0.313-0.029-0.564-0.28-0.594-0.593H24.86
		c-0.029,0.313-0.279,0.564-0.594,0.593v0.28c0.315,0.028,0.565,0.279,0.594,0.594h0.279C25.169,25.419,25.42,25.168,25.733,25.14
		 M25.242,25.049c-0.073,0.055-0.138,0.119-0.192,0.192L25,25.308l-0.05-0.066c-0.055-0.073-0.119-0.138-0.192-0.192l-0.067-0.05
		l0.067-0.05c0.073-0.053,0.137-0.118,0.192-0.192L25,24.691l0.05,0.066c0.055,0.074,0.119,0.139,0.192,0.192l0.066,0.05
		L25.242,25.049z"/>
</g>
</svg>
