<?xml version="1.0" encoding="iso-8859-1"?>
<!-- Generator: Adobe Illustrator 15.1.0, SVG Export Plug-In . SVG Version: 6.00 Build 0)  -->
<!DOCTYPE svg PUBLIC "-//W3C//DTD SVG 1.1//EN" "http://www.w3.org/Graphics/SVG/1.1/DTD/svg11.dtd">
<svg version="1.1" id="Layer_1" xmlns="http://www.w3.org/2000/svg" xmlns:xlink="http://www.w3.org/1999/xlink" x="0px" y="0px"
	 width="50px" height="50px" viewBox="0 0 50 50" style="enable-background:new 0 0 50 50;" xml:space="preserve">
<polygon style="fill:#FFFFFF;" points="33.921,5.974 34.195,6.111 34.469,6.249 34.742,5.701 34.469,5.564 34.195,5.427 "/>
<polygon style="fill:#FFFFFF;" points="26.987,3.992 27.29,4.028 27.595,4.065 27.667,3.456 27.062,3.383 "/>
<polygon style="fill:#FFFFFF;" points="31.233,4.894 31.524,4.993 31.813,5.091 32.01,4.511 31.431,4.314 "/>
<polygon style="fill:#FFFFFF;" points="29.841,4.496 30.138,4.574 30.432,4.653 30.59,4.059 29.997,3.903 "/>
<polygon style="fill:#FFFFFF;" points="32.596,5.388 32.878,5.507 33.159,5.624 33.397,5.06 33.114,4.942 32.831,4.823 "/>
<polygon style="fill:#FFFFFF;" points="24.392,3.266 24.085,3.271 24.094,3.884 24.402,3.879 24.707,3.873 24.697,3.261 "/>
<rect x="19.719" y="3.791" transform="matrix(-0.22 -0.9755 0.9755 -0.22 20.4343 24.533)" style="fill:#FFFFFF;" width="0.613" height="0.612"/>
<polygon style="fill:#FFFFFF;" points="35.202,6.649 35.468,6.804 35.729,6.96 36.042,6.432 35.777,6.276 35.514,6.121 "/>
<polygon style="fill:#FFFFFF;" points="25.544,3.888 25.849,3.903 26.155,3.918 26.187,3.308 25.881,3.291 25.881,3.292 
	25.575,3.275 "/>
<rect x="22.622" y="3.342" transform="matrix(-0.0885 -0.9961 0.9961 -0.0885 21.324 26.8083)" style="fill:#FFFFFF;" width="0.612" height="0.611"/>
<polygon style="fill:#FFFFFF;" points="21.12,3.568 21.214,4.173 21.517,4.126 21.818,4.078 21.724,3.473 "/>
<polygon style="fill:#FFFFFF;" points="28.422,4.193 28.723,4.251 29.024,4.309 29.139,3.708 28.537,3.592 "/>
<polygon style="fill:#FFFFFF;" points="45.309,20.18 45.375,20.48 45.438,20.778 46.038,20.647 45.973,20.347 45.906,20.05 "/>
<polygon style="fill:#FFFFFF;" points="44.933,18.783 45.019,19.076 45.104,19.37 45.691,19.198 45.52,18.611 "/>
<polygon style="fill:#FFFFFF;" points="42.497,13.548 42.66,13.807 42.822,14.067 43.34,13.742 43.015,13.222 "/>
<polygon style="fill:#FFFFFF;" points="44.461,17.413 44.565,17.701 44.67,17.989 45.247,17.777 45.141,17.49 45.14,17.49 
	45.035,17.202 "/>
<polygon style="fill:#FFFFFF;" points="45.59,21.602 45.636,21.903 45.681,22.208 46.285,22.117 46.196,21.511 "/>
<rect x="18.298" y="4.161" transform="matrix(-0.2866 -0.958 0.958 -0.2866 19.6566 23.5714)" style="fill:#FFFFFF;" width="0.612" height="0.612"/>
<polygon style="fill:#FFFFFF;" points="39.783,10.167 39.994,10.389 40.207,10.609 40.648,10.186 40.227,9.743 "/>
<polygon style="fill:#FFFFFF;" points="37.613,8.251 37.853,8.442 38.093,8.632 38.475,8.151 38.234,7.961 37.994,7.771 "/>
<polygon style="fill:#FFFFFF;" points="41.67,12.36 41.851,12.607 42.03,12.854 42.527,12.496 42.167,12 "/>
<polygon style="fill:#FFFFFF;" points="38.731,9.172 38.957,9.378 39.185,9.583 39.596,9.131 39.142,8.72 "/>
<polygon style="fill:#FFFFFF;" points="36.436,7.409 36.688,7.582 36.939,7.755 37.286,7.251 36.781,6.904 "/>
<polygon style="fill:#FFFFFF;" points="40.764,11.231 40.961,11.467 41.156,11.701 41.628,11.309 41.234,10.837 "/>
<polygon style="fill:#FFFFFF;" points="45.66,27.983 46.269,28.06 46.307,27.756 46.346,27.452 45.737,27.375 "/>
<polygon style="fill:#FFFFFF;" points="43.239,14.789 43.384,15.058 43.527,15.329 44.068,15.041 43.779,14.5 "/>
<polygon style="fill:#FFFFFF;" points="15.843,44.836 16.125,44.958 16.405,45.079 16.647,44.517 16.086,44.273 "/>
<polygon style="fill:#FFFFFF;" points="17.223,45.4 17.51,45.502 17.801,45.604 18.003,45.026 17.716,44.925 17.427,44.823 "/>
<polygon style="fill:#FFFFFF;" points="23.032,46.676 23.338,46.695 23.642,46.715 23.682,46.104 23.072,46.065 "/>
<polygon style="fill:#FFFFFF;" points="18.639,45.869 18.933,45.951 19.228,46.033 19.392,45.442 18.803,45.279 "/>
<polygon style="fill:#FFFFFF;" points="21.551,46.508 21.854,46.548 22.158,46.589 22.239,45.983 21.632,45.901 "/>
<polygon style="fill:#FFFFFF;" points="43.896,16.081 44.021,16.359 44.146,16.639 44.704,16.39 44.456,15.832 "/>
<polygon style="fill:#FFFFFF;" points="20.083,46.239 20.383,46.3 20.684,46.361 20.807,45.762 20.206,45.639 "/>
<polygon style="fill:#FFFFFF;" points="45.814,26.542 46.427,26.577 46.443,26.273 46.461,25.966 45.849,25.931 "/>
<polygon style="fill:#FFFFFF;" points="13.216,43.431 13.478,43.59 13.737,43.75 14.058,43.224 13.795,43.067 13.533,42.907 "/>
<rect x="45.461" y="28.863" transform="matrix(-0.9814 -0.1918 0.1918 -0.9814 85.0884 66.5758)" style="fill:#FFFFFF;" width="0.611" height="0.612"/>
<rect x="44.691" y="31.698" transform="matrix(-0.9446 -0.3281 0.3281 -0.9446 77.0002 77.0023)" style="fill:#FFFFFF;" width="0.613" height="0.613"/>
<polygon style="fill:#FFFFFF;" points="45.135,30.519 45.054,30.816 45.645,30.976 45.725,30.68 45.727,30.68 45.806,30.385 
	45.215,30.225 "/>
<polygon style="fill:#FFFFFF;" points="44.187,33.256 44.188,33.256 44.067,33.537 44.631,33.776 44.748,33.495 44.75,33.495 
	44.868,33.214 44.308,32.974 "/>
<polygon style="fill:#FFFFFF;" points="14.505,44.179 14.778,44.318 15.049,44.46 15.33,43.915 14.785,43.634 "/>
<rect x="40.196" y="39.212" transform="matrix(-0.7352 -0.6778 0.6778 -0.7352 43.4948 96.0271)" style="fill:#FFFFFF;" width="0.612" height="0.613"/>
<rect x="39.167" y="40.26" transform="matrix(-0.6901 -0.7237 0.7237 -0.6901 37.3564 97.1271)" style="fill:#FFFFFF;" width="0.611" height="0.611"/>
<rect x="38.066" y="41.233" transform="matrix(-0.637 -0.7708 0.7708 -0.637 30.7986 97.5791)" style="fill:#FFFFFF;" width="0.613" height="0.612"/>
<rect x="36.902" y="42.129" transform="matrix(-0.5841 -0.8117 0.8117 -0.5841 24.4991 97.4224)" style="fill:#FFFFFF;" width="0.614" height="0.611"/>
<rect x="16.906" y="4.629" transform="matrix(-0.3531 -0.9356 0.9356 -0.3531 18.6734 22.7787)" style="fill:#FFFFFF;" width="0.611" height="0.611"/>
<rect x="24.519" y="46.125" style="fill:#FFFFFF;" width="0.613" height="0.612"/>
<polygon style="fill:#FFFFFF;" points="11.98,42.599 12.231,42.773 12.481,42.95 12.835,42.45 12.333,42.098 "/>
<rect x="41.155" y="38.101" transform="matrix(-0.7812 -0.6243 0.6243 -0.7812 49.8708 94.2913)" style="fill:#FFFFFF;" width="0.61" height="0.611"/>
<rect x="34.407" y="43.669" transform="matrix(-0.465 -0.8853 0.8853 -0.465 11.9242 95.1539)" style="fill:#FFFFFF;" width="0.611" height="0.611"/>
<rect x="28.895" y="45.655" transform="matrix(-0.2075 -0.9782 0.9782 -0.2075 -9.7013 84.0612)" style="fill:#FFFFFF;" width="0.612" height="0.611"/>
<rect x="27.448" y="45.911" transform="matrix(-0.1434 -0.9897 0.9897 -0.1434 -14.0043 80.3126)" style="fill:#FFFFFF;" width="0.613" height="0.612"/>
<rect x="25.988" y="46.068" transform="matrix(-0.0718 -0.9974 0.9974 -0.0718 -18.072 75.9314)" style="fill:#FFFFFF;" width="0.612" height="0.613"/>
<polygon style="fill:#FFFFFF;" points="30.249,45.396 30.415,45.985 30.71,45.902 31.005,45.817 30.838,45.229 "/>
<rect x="31.718" y="44.851" transform="matrix(-0.3391 -0.9408 0.9408 -0.3391 0.4006 90.5949)" style="fill:#FFFFFF;" width="0.613" height="0.612"/>
<rect x="33.084" y="44.307" transform="matrix(-0.4032 -0.9151 0.9151 -0.4032 6.0247 93.1538)" style="fill:#FFFFFF;" width="0.61" height="0.611"/>
<rect x="35.681" y="42.944" transform="matrix(-0.5271 -0.8498 0.8498 -0.5271 18.2035 96.6266)" style="fill:#FFFFFF;" width="0.611" height="0.61"/>
<polygon style="fill:#FFFFFF;" points="10.805,41.683 11.042,41.875 11.278,42.069 11.665,41.592 11.189,41.206 "/>
<rect x="3.678" y="19.346" transform="matrix(-0.9678 -0.2515 0.2515 -0.9678 2.8953 39.6743)" style="fill:#FFFFFF;" width="0.611" height="0.612"/>
<rect x="3.358" y="20.782" transform="matrix(-0.983 -0.1839 0.1839 -0.983 3.3905 42.4901)" style="fill:#FFFFFF;" width="0.613" height="0.612"/>
<polygon style="fill:#FFFFFF;" points="4.012,18.436 4.594,18.629 4.691,18.34 4.787,18.05 4.205,17.855 "/>
<rect x="3.024" y="23.7" transform="matrix(-0.9989 -0.0471 0.0471 -0.9989 5.5245 48.1429)" style="fill:#FFFFFF;" width="0.612" height="0.612"/>
<rect x="3.142" y="22.236" transform="matrix(-0.9934 -0.1143 0.1143 -0.9934 4.2957 45.3293)" style="fill:#FFFFFF;" width="0.611" height="0.611"/>
<polygon style="fill:#FFFFFF;" points="3.065,26.665 3.092,26.969 3.122,27.274 3.731,27.218 3.674,26.607 "/>
<polygon style="fill:#FFFFFF;" points="3,25.177 3.007,25.482 3.015,25.788 3.626,25.775 3.614,25.162 "/>
<polygon style="fill:#FFFFFF;" points="4.629,16.75 4.512,17.033 5.078,17.265 5.312,16.7 4.746,16.465 "/>
<polygon style="fill:#FFFFFF;" points="15.729,5.218 15.448,5.343 15.703,5.9 15.982,5.774 16.26,5.647 16.006,5.089 "/>
<rect x="8.497" y="10.369" transform="matrix(-0.744 -0.6682 0.6682 -0.744 8.2187 24.4997)" style="fill:#FFFFFF;" width="0.612" height="0.612"/>
<polygon style="fill:#FFFFFF;" points="12.851,6.797 13.179,7.315 13.436,7.151 13.694,6.987 13.369,6.468 "/>
<polygon style="fill:#FFFFFF;" points="14.394,5.881 14.125,6.027 14.416,6.564 14.956,6.272 14.664,5.735 "/>
<polygon style="fill:#FFFFFF;" points="3.231,28.146 3.28,28.447 3.33,28.75 3.934,28.653 3.837,28.048 "/>
<rect x="6.688" y="12.681" transform="matrix(-0.8272 -0.5619 0.5619 -0.8272 5.4836 27.6617)" style="fill:#FFFFFF;" width="0.613" height="0.613"/>
<rect x="7.554" y="11.494" transform="matrix(-0.7866 -0.6175 0.6175 -0.7866 6.7559 25.936)" style="fill:#FFFFFF;" width="0.612" height="0.612"/>
<polygon style="fill:#FFFFFF;" points="5.949,14.079 5.793,14.343 6.323,14.65 6.632,14.121 6.102,13.813 "/>
<rect x="5.211" y="15.22" transform="matrix(-0.8974 -0.4411 0.4411 -0.8974 3.619 31.8941)" style="fill:#FFFFFF;" width="0.612" height="0.613"/>
<rect x="9.515" y="9.31" transform="matrix(-0.6975 -0.7166 0.7166 -0.6975 9.7804 23.3613)" style="fill:#FFFFFF;" width="0.613" height="0.613"/>
<polygon style="fill:#FFFFFF;" points="6.004,36.035 6.164,36.296 6.323,36.556 6.845,36.238 6.528,35.716 "/>
<polygon style="fill:#FFFFFF;" points="4.149,31.976 4.252,32.265 4.354,32.554 4.93,32.35 4.728,31.773 "/>
<polygon style="fill:#FFFFFF;" points="3.722,30.549 3.804,30.844 3.885,31.14 4.477,30.977 4.313,30.384 "/>
<polygon style="fill:#FFFFFF;" points="5.294,34.727 5.435,34.998 5.435,34.997 5.575,35.27 6.12,34.988 5.839,34.443 "/>
<polygon style="fill:#FFFFFF;" points="4.675,33.371 4.795,33.651 4.917,33.933 5.479,33.689 5.237,33.127 "/>
<polygon style="fill:#FFFFFF;" points="8.654,39.624 8.863,39.846 9.072,40.071 9.52,39.652 9.1,39.205 "/>
<polygon style="fill:#FFFFFF;" points="7.688,38.488 7.882,38.726 8.076,38.961 8.551,38.574 8.163,38.103 "/>
<polygon style="fill:#FFFFFF;" points="6.804,37.289 6.981,37.539 7.158,37.789 7.657,37.438 7.305,36.938 "/>
<polygon style="fill:#FFFFFF;" points="3.392,29.096 3.454,29.396 3.455,29.396 3.515,29.694 4.117,29.57 4.053,29.271 
	3.992,28.973 "/>
<g>
	<defs>
		<rect id="SVGID_1_" width="50" height="50"/>
	</defs>
	<clipPath id="SVGID_2_">
		<use xlink:href="#SVGID_1_"  style="overflow:visible;"/>
	</clipPath>
	<path style="clip-path:url(#SVGID_2_);fill:#FFFFFF;" d="M10.83,40.72c-0.423-0.029-0.762-0.368-0.792-0.793H9.625
		c-0.029,0.425-0.369,0.764-0.791,0.793v0.412c0.422,0.03,0.762,0.369,0.791,0.793h0.413c0.03-0.424,0.369-0.763,0.792-0.793V40.72z
		 M10.142,40.976c-0.1,0.073-0.187,0.161-0.262,0.261l-0.049,0.065l-0.049-0.065c-0.073-0.1-0.16-0.188-0.26-0.261l-0.067-0.051
		l0.067-0.048c0.099-0.074,0.186-0.161,0.26-0.259l0.049-0.067l0.049,0.066c0.075,0.099,0.163,0.186,0.262,0.26l0.065,0.048
		L10.142,40.976z"/>
	<path style="clip-path:url(#SVGID_2_);fill:#FFFFFF;" d="M11.063,9.279h0.55c0.059-0.619,0.552-1.111,1.171-1.17V7.558
		c-0.619-0.057-1.112-0.551-1.171-1.169h-0.55c-0.058,0.618-0.551,1.112-1.171,1.169v0.551C10.511,8.168,11.004,8.66,11.063,9.279
		 M10.86,7.736c0.145-0.107,0.271-0.235,0.379-0.379l0.097-0.132l0.099,0.131c0.108,0.146,0.236,0.273,0.379,0.38l0.132,0.098
		l-0.132,0.098c-0.142,0.106-0.271,0.234-0.379,0.379l-0.099,0.133l-0.097-0.133c-0.108-0.144-0.235-0.273-0.378-0.379l-0.132-0.098
		L10.86,7.736z"/>
	<path style="clip-path:url(#SVGID_2_);fill:#FFFFFF;" d="M46.254,23.027h-0.38c-0.03,0.397-0.35,0.715-0.746,0.745v0.38
		c0.396,0.03,0.716,0.348,0.746,0.746h0.38c0.031-0.398,0.348-0.716,0.746-0.746v-0.38C46.602,23.742,46.285,23.424,46.254,23.027
		 M46.357,24.011c-0.094,0.069-0.176,0.151-0.244,0.244l-0.05,0.066l-0.049-0.066c-0.069-0.093-0.151-0.175-0.245-0.244
		l-0.065-0.049l0.065-0.049c0.094-0.069,0.176-0.152,0.245-0.244l0.049-0.067l0.05,0.067c0.068,0.092,0.15,0.175,0.244,0.244
		l0.066,0.049L46.357,24.011z"/>
	<path style="clip-path:url(#SVGID_2_);fill:#FFFFFF;" d="M21.639,28.743c0.133,0.18,0.276,0.369,0.424,0.567v-0.098
		C22.063,28.969,21.875,28.769,21.639,28.743"/>
	<path style="clip-path:url(#SVGID_2_);fill:#FFFFFF;" d="M21.747,30.162c0,0.089-0.071,0.16-0.157,0.16h-5.228
		c-0.039,0-0.075-0.017-0.103-0.041c-0.005-0.003-0.009-0.007-0.012-0.013c-0.012-0.012-0.022-0.024-0.029-0.041
		c-0.002-0.002-0.002-0.006-0.003-0.01c-0.007-0.017-0.012-0.035-0.012-0.056v-0.949c0-0.087,0.071-0.158,0.159-0.158h4.879
		c-0.081-0.108-0.159-0.214-0.235-0.317h-1.988c0.127-0.356,0.195-0.728,0.195-1.107c0-1.834-1.493-3.327-3.327-3.327
		c-1.833,0-3.325,1.493-3.325,3.327c0,1.833,1.492,3.325,3.325,3.325v0.793c0,0.122,0.048,0.232,0.124,0.316
		c-0.076,0.084-0.124,0.193-0.124,0.315v0.951c0,0.262,0.214,0.475,0.476,0.475h5.228c0.26,0,0.473-0.213,0.473-0.475V32.38
		c0-0.122-0.047-0.231-0.123-0.315c0.076-0.084,0.123-0.194,0.123-0.316v-0.952c0-0.121-0.047-0.231-0.123-0.315
		c0.076-0.086,0.123-0.194,0.123-0.318v-0.014c-0.108-0.144-0.213-0.282-0.316-0.418V30.162z M18.684,28.737h-1.53
		c0.088-0.322,0.139-0.641,0.152-0.949h1.583C18.872,28.114,18.806,28.432,18.684,28.737 M18.889,27.471h-1.583
		c-0.019-0.46-0.117-0.893-0.252-1.281c0.368-0.149,0.705-0.368,0.994-0.649C18.538,26.047,18.85,26.724,18.889,27.471
		 M17.815,25.323c-0.256,0.245-0.552,0.436-0.876,0.567c-0.228-0.546-0.512-0.983-0.709-1.249
		C16.831,24.71,17.376,24.955,17.815,25.323 M16.99,27.472h-2.207c0.02-0.42,0.112-0.817,0.238-1.178
		c0.278,0.08,0.569,0.124,0.865,0.124c0.297,0,0.588-0.043,0.866-0.124C16.878,26.654,16.971,27.052,16.99,27.472 M16.638,25.994
		c-0.243,0.066-0.495,0.106-0.752,0.106c-0.256,0-0.508-0.04-0.751-0.106c0.255-0.6,0.58-1.059,0.751-1.282
		C16.058,24.935,16.383,25.395,16.638,25.994 M15.54,24.642c-0.194,0.265-0.478,0.703-0.707,1.249
		c-0.322-0.132-0.62-0.322-0.876-0.567C14.396,24.955,14.942,24.71,15.54,24.642 M13.725,25.54c0.289,0.281,0.627,0.5,0.995,0.649
		c-0.136,0.389-0.233,0.822-0.252,1.282h-1.582C12.925,26.724,13.236,26.047,13.725,25.54 M12.886,27.788h1.582
		c0.02,0.486,0.127,0.942,0.275,1.348c-0.367,0.136-0.708,0.336-1.008,0.595C13.24,29.222,12.925,28.541,12.886,27.788
		 M13.97,29.947c0.266-0.223,0.567-0.397,0.889-0.516c0.224,0.518,0.494,0.931,0.681,1.186C14.95,30.549,14.407,30.31,13.97,29.947
		 M15.886,30.546c-0.164-0.212-0.47-0.645-0.718-1.208c0.234-0.057,0.474-0.085,0.718-0.085v0.909c0,0.028,0.004,0.055,0.008,0.082
		c0,0.004,0.001,0.008,0.002,0.011c0.001,0.008,0.004,0.015,0.006,0.024c0.004,0.012,0.007,0.026,0.012,0.04
		c0.002,0.008,0.005,0.016,0.008,0.022c0.002,0.007,0.006,0.012,0.009,0.02c0.004,0.01,0.009,0.019,0.015,0.027
		c0.006,0.011,0.011,0.021,0.017,0.031c0.003,0.005,0.006,0.009,0.009,0.013C15.939,30.476,15.912,30.514,15.886,30.546
		 M15.979,28.934c-0.317-0.009-0.631,0.027-0.931,0.106c-0.141-0.38-0.243-0.804-0.265-1.252h2.207
		c-0.014,0.308-0.067,0.627-0.162,0.949h-0.466C16.204,28.737,16.064,28.815,15.979,28.934 M21.747,33.331
		c0,0.087-0.071,0.159-0.157,0.159h-5.228c-0.088,0-0.159-0.072-0.159-0.159V32.38c0-0.088,0.071-0.157,0.159-0.157h5.228
		c0.086,0,0.157,0.069,0.157,0.157V33.331z M21.747,31.748c0,0.086-0.071,0.157-0.157,0.157h-5.228
		c-0.088,0-0.159-0.071-0.159-0.157v-0.952l0.001-0.001c0.001-0.087,0.072-0.157,0.158-0.157h5.228c0.086,0,0.157,0.071,0.157,0.158
		V31.748z"/>
	<rect x="21.115" y="29.53" style="clip-path:url(#SVGID_2_);fill:#FFFFFF;" width="0.315" height="0.317"/>
	<rect x="16.52" y="29.53" style="clip-path:url(#SVGID_2_);fill:#FFFFFF;" width="2.693" height="0.317"/>
	<rect x="21.114" y="31.113" style="clip-path:url(#SVGID_2_);fill:#FFFFFF;" width="0.315" height="0.316"/>
	<rect x="16.52" y="31.113" style="clip-path:url(#SVGID_2_);fill:#FFFFFF;" width="2.693" height="0.316"/>
	<rect x="21.114" y="32.697" style="clip-path:url(#SVGID_2_);fill:#FFFFFF;" width="0.315" height="0.317"/>
	<rect x="16.52" y="32.697" style="clip-path:url(#SVGID_2_);fill:#FFFFFF;" width="2.693" height="0.317"/>
	<path style="clip-path:url(#SVGID_2_);fill:#FFFFFF;" d="M19.213,26.204v0.316h0.276c-0.063-0.108-0.122-0.215-0.176-0.316H19.213z
		"/>
	<path style="clip-path:url(#SVGID_2_);fill:#FFFFFF;" d="M20.163,26.204h-0.276c0.059,0.102,0.121,0.207,0.189,0.316h0.087V26.204z
		"/>
	<rect x="20.48" y="26.205" style="clip-path:url(#SVGID_2_);fill:#FFFFFF;" width="0.316" height="0.316"/>
	<rect x="21.114" y="26.205" style="clip-path:url(#SVGID_2_);fill:#FFFFFF;" width="0.315" height="0.316"/>
	<rect x="21.114" y="26.838" style="clip-path:url(#SVGID_2_);fill:#FFFFFF;" width="0.315" height="0.316"/>
	<rect x="21.114" y="27.471" style="clip-path:url(#SVGID_2_);fill:#FFFFFF;" width="0.315" height="0.317"/>
	<path style="clip-path:url(#SVGID_2_);fill:#FFFFFF;" d="M21.43,28.104h-0.264c0.076,0.104,0.154,0.208,0.234,0.317h0.03V28.104z"
		/>
	<rect x="15.252" y="32.697" style="clip-path:url(#SVGID_2_);fill:#FFFFFF;" width="0.317" height="0.317"/>
	<rect x="14.619" y="32.697" style="clip-path:url(#SVGID_2_);fill:#FFFFFF;" width="0.318" height="0.317"/>
	<rect x="13.986" y="32.697" style="clip-path:url(#SVGID_2_);fill:#FFFFFF;" width="0.316" height="0.317"/>
	<rect x="13.986" y="32.064" style="clip-path:url(#SVGID_2_);fill:#FFFFFF;" width="0.316" height="0.315"/>
	<rect x="13.986" y="31.43" style="clip-path:url(#SVGID_2_);fill:#FFFFFF;" width="0.316" height="0.318"/>
	<rect x="13.986" y="30.796" style="clip-path:url(#SVGID_2_);fill:#FFFFFF;" width="0.316" height="0.317"/>
	<path style="clip-path:url(#SVGID_2_);fill:#FFFFFF;" d="M25.052,32.74l-0.196,0.261l-0.196-0.261
		c-0.596-0.792-1.128-1.493-1.609-2.128c-0.361-0.475-0.688-0.905-0.987-1.303v0.839c0.186,0.244,0.379,0.5,0.584,0.771l0.04,0.053
		c0.574,0.758,1.224,1.615,1.966,2.603c0.047,0.063,0.123,0.102,0.202,0.102c0.079,0,0.155-0.039,0.203-0.103
		c0.578-0.771,1.097-1.458,1.567-2.079v-0.839C26.153,31.28,25.632,31.969,25.052,32.74"/>
	<path style="clip-path:url(#SVGID_2_);fill:#FFFFFF;" d="M21.639,28.743c-0.082-0.111-0.162-0.218-0.239-0.322h-0.285v-0.316h0.051
		c-0.452-0.619-0.811-1.135-1.089-1.584h-0.231v-0.316h0.042c-0.595-1.035-0.751-1.754-0.751-2.802c0-0.55,0.079-1.082,0.224-1.586
		h-0.524c-0.134,0.506-0.207,1.038-0.207,1.586c0,1.058,0.158,1.82,0.683,2.802h0.216v0.316h-0.04
		c0.357,0.608,0.848,1.313,1.517,2.217h0.584C21.605,28.737,21.622,28.741,21.639,28.743"/>
	<path style="clip-path:url(#SVGID_2_);fill:#FFFFFF;" d="M23.169,17.937c0.533-0.164,1.099-0.253,1.686-0.253
		c3.153,0,5.719,2.565,5.719,5.718c0,1.929-0.532,2.743-3.375,6.5h0.496c0.044,0,0.083,0.011,0.115,0.029
		c1.814-2.402,2.671-3.61,3.034-4.771l-0.07-0.391c-0.021-0.064,0-0.128,0.043-0.172c0.043-0.063,0.107-0.085,0.171-0.085h0.011
		c0.058-0.345,0.081-0.706,0.081-1.11c0-3.432-2.793-6.225-6.225-6.225c-0.742,0-1.453,0.132-2.114,0.371
		C22.899,17.66,23.044,17.791,23.169,17.937"/>
	<path style="clip-path:url(#SVGID_2_);fill:#FFFFFF;" d="M21.639,28.743c-0.017-0.002-0.033-0.006-0.049-0.006h-0.584
		c0.076,0.104,0.154,0.209,0.235,0.318h0.349c0.086,0,0.157,0.07,0.157,0.157v0.518c0.102,0.136,0.208,0.274,0.316,0.418v-0.838
		C21.915,29.112,21.771,28.923,21.639,28.743"/>
	<path style="clip-path:url(#SVGID_2_);fill:#FFFFFF;" d="M19.529,26.204h-0.216c0.054,0.102,0.113,0.208,0.176,0.316h0.04V26.204z"
		/>
	<path style="clip-path:url(#SVGID_2_);fill:#FFFFFF;" d="M19.846,26.204v0.316h0.23c-0.067-0.109-0.129-0.215-0.188-0.316H19.846z"
		/>
	<path style="clip-path:url(#SVGID_2_);fill:#FFFFFF;" d="M21.114,28.104v0.317h0.285c-0.08-0.109-0.158-0.214-0.233-0.317H21.114z"
		/>
	<path style="clip-path:url(#SVGID_2_);fill:#FFFFFF;" d="M22.098,21.706c-0.306,0.494-0.482,1.075-0.482,1.696
		c0,1.786,1.454,3.239,3.239,3.239c1.786,0,3.238-1.453,3.238-3.239c0-1.785-1.452-3.238-3.238-3.238
		c-0.477,0-0.93,0.104-1.337,0.29C23.242,21.047,22.728,21.506,22.098,21.706 M24.855,20.67c1.507,0,2.734,1.226,2.734,2.732
		c0,1.508-1.227,2.734-2.734,2.734c-1.506,0-2.733-1.226-2.733-2.734C22.122,21.896,23.349,20.67,24.855,20.67"/>
	<path style="clip-path:url(#SVGID_2_);fill:#FFFFFF;" d="M22.098,21.706c0.337-0.546,0.832-0.984,1.42-1.252
		c0.14-0.301,0.22-0.634,0.22-0.988c0-0.584-0.214-1.117-0.568-1.529c-0.198,0.061-0.391,0.133-0.579,0.215
		c0.356,0.326,0.581,0.794,0.581,1.314c0,0.984-0.801,1.783-1.784,1.783h-1.831c-0.075,0.184-0.14,0.374-0.196,0.567h2.027
		C21.635,21.816,21.873,21.777,22.098,21.706"/>
	<path style="clip-path:url(#SVGID_2_);fill:#FFFFFF;" d="M13.118,21.249c-0.983,0-1.785-0.799-1.785-1.783
		c0-0.984,0.802-1.784,1.785-1.784c0.202,0,0.407,0.036,0.605,0.108c0.092,0.033,0.193,0.018,0.27-0.042s0.118-0.153,0.109-0.25
		l-0.011-0.091c-0.001-0.612,0.49-1.103,1.093-1.103c0.169,0,0.338,0.043,0.502,0.127c0.067,0.035,0.146,0.043,0.219,0.019
		c0.072-0.025,0.132-0.076,0.165-0.144c0.422-0.851,1.271-1.381,2.215-1.381c1.365,0,2.475,1.106,2.475,2.464
		c-0.001,0.013-0.003,0.033-0.003,0.041c0,0.084,0.037,0.163,0.101,0.216c0.064,0.055,0.148,0.076,0.231,0.063
		c0.11-0.019,0.207-0.027,0.298-0.027c0.251,0,0.487,0.052,0.705,0.146c0.21-0.106,0.426-0.2,0.65-0.28
		c-0.384-0.272-0.851-0.433-1.355-0.433h-0.073l-0.007-0.054c-0.17-1.541-1.469-2.702-3.022-2.702c-1.05,0-2.011,0.531-2.569,1.421
		l-0.025,0.04l-0.045-0.013c-0.149-0.047-0.305-0.07-0.462-0.07c-0.799,0-1.488,0.571-1.632,1.357l-0.012,0.059l-0.059-0.009
		c-0.12-0.019-0.243-0.029-0.363-0.029c-1.297,0-2.351,1.054-2.351,2.351c0,1.296,1.054,2.35,2.351,2.35h3.791v0.061h0.688v-0.061
		h1.239c0.051-0.192,0.11-0.382,0.178-0.567H13.118z"/>
	<path style="clip-path:url(#SVGID_2_);fill:#FFFFFF;" d="M19.557,21.249h-0.542c-0.069,0.185-0.128,0.375-0.179,0.567h0.525
		C19.416,21.623,19.482,21.433,19.557,21.249"/>
	<path style="clip-path:url(#SVGID_2_);fill:#FFFFFF;" d="M22.59,18.152c0.188-0.082,0.381-0.153,0.579-0.215
		c-0.125-0.146-0.269-0.277-0.428-0.389c-0.223,0.081-0.44,0.174-0.65,0.28C22.276,17.907,22.443,18.018,22.59,18.152"/>
	<path style="clip-path:url(#SVGID_2_);fill:#FFFFFF;" d="M22.098,21.706c0.63-0.2,1.144-0.659,1.42-1.252
		C22.93,20.722,22.435,21.16,22.098,21.706"/>
	<path style="clip-path:url(#SVGID_2_);fill:#FFFFFF;" d="M21.671,19.06v-0.405c-0.186,0.124-0.363,0.26-0.532,0.405H21.671z"/>
	<path style="clip-path:url(#SVGID_2_);fill:#FFFFFF;" d="M21.671,18.655v-0.161h-0.567v0.566h0.035
		C21.309,18.916,21.485,18.78,21.671,18.655"/>
	<rect x="21.104" y="19.871" style="clip-path:url(#SVGID_2_);fill:#FFFFFF;" width="0.567" height="0.567"/>
	<path style="clip-path:url(#SVGID_2_);fill:#FFFFFF;" d="M20.292,20.438v-0.48c-0.116,0.154-0.226,0.314-0.327,0.48H20.292z"/>
	<polygon style="clip-path:url(#SVGID_2_);fill:#FFFFFF;" points="19.726,19.871 19.726,19.881 19.732,19.871 	"/>
	<path style="clip-path:url(#SVGID_2_);fill:#FFFFFF;" d="M19.726,19.881v0.558h0.239c0.101-0.166,0.211-0.326,0.327-0.48v-0.088
		h-0.56C19.73,19.875,19.728,19.879,19.726,19.881"/>
	<path style="clip-path:url(#SVGID_2_);fill:#FFFFFF;" d="M26.626,30.114v0.541c0.009-0.01,0.018-0.021,0.026-0.033
		c0.19-0.252,0.373-0.492,0.547-0.722h-0.358C26.712,29.9,26.626,29.986,26.626,30.114"/>
	<path style="clip-path:url(#SVGID_2_);fill:#FFFFFF;" d="M43.135,29.9H42.28c-0.129,0-0.213,0.086-0.213,0.214v0.385h-0.601v-0.385
		c0-0.128-0.085-0.214-0.214-0.214h-0.769c-0.13,0-0.215,0.086-0.215,0.214v0.385h-0.599v-0.385c0-0.128-0.086-0.214-0.214-0.214
		h-0.642V26.8l0.363-2.053c0.022-0.064,0-0.128-0.043-0.171c-0.043-0.042-0.106-0.085-0.172-0.085h-1.003
		c-0.129,0-0.215,0.085-0.215,0.214v0.492h-0.77v-0.471c0-0.129-0.086-0.214-0.214-0.214h-1.111c-0.13,0-0.215,0.085-0.215,0.214
		v0.471h-0.149V22.48c0.128-0.043,0.343-0.086,0.578-0.086c-0.043,0.107-0.021,0.214,0.042,0.279c0.106,0.107,0.32,0.15,0.62,0.15
		c0.449,0,1.069-0.129,1.562-0.322c0.833-0.363,1.219-0.042,1.24-0.042c0.063,0.064,0.171,0.064,0.256,0.021
		c0.086-0.064,0.108-0.15,0.086-0.257c0-0.021-0.171-0.491-0.535-0.769c0.086-0.043,0.214-0.064,0.364-0.086
		c0.085,0,0.149-0.064,0.193-0.149c0.02-0.085,0-0.171-0.065-0.236c-0.043-0.021-0.918-0.727-2.246-0.17
		c-0.47,0.192-0.684,0.214-0.769,0.214v-0.107c0-0.065-0.043-0.129-0.086-0.172c-0.021-0.021-0.599-0.406-1.22-0.213v-0.193
		c0-0.128-0.085-0.214-0.214-0.214c-0.128,0-0.213,0.086-0.213,0.214v4.854h-0.193v-0.471c0-0.129-0.086-0.214-0.213-0.214H33.32
		c-0.128,0-0.215,0.085-0.215,0.214v0.471h-0.792v-0.471c0-0.129-0.085-0.214-0.213-0.214H31c-0.037,0.219-0.088,0.434-0.155,0.648
		l0.294,1.662V29.9h-0.642c-0.129,0-0.214,0.086-0.214,0.214v0.385h-0.599v-0.385c0-0.128-0.086-0.214-0.214-0.214h-0.749
		c-0.129,0-0.214,0.086-0.214,0.214v0.385h-0.599v-0.385c0-0.084-0.037-0.148-0.1-0.184c-0.105,0.14-0.215,0.285-0.327,0.434v0.349
		c0,0.128,0.085,0.214,0.213,0.214h1.026c0.129,0,0.215-0.086,0.215-0.214v-0.385h0.32v0.385c0,0.128,0.086,0.214,0.214,0.214h1.026
		c0.128,0,0.214-0.086,0.214-0.214v-0.385h0.428v6.371h-4.085v-5.771c0,0.001,0,0.001-0.001,0.001
		c-0.137,0.182-0.28,0.371-0.427,0.564v5.42c0,0.128,0.086,0.214,0.215,0.214h16.272c0.129,0,0.214-0.086,0.214-0.214v-6.8
		C43.349,29.986,43.242,29.9,43.135,29.9 M36.591,22.289v-0.771c0.214,0,0.514-0.085,0.921-0.256
		c0.557-0.234,1.005-0.192,1.325-0.106c-0.192,0.085-0.299,0.192-0.341,0.256c-0.064,0.064-0.064,0.15-0.043,0.214
		c0.021,0.085,0.105,0.128,0.191,0.128c0.128,0,0.235,0.086,0.342,0.171c-0.276-0.021-0.619,0-1.068,0.193
		c-0.513,0.234-1.048,0.299-1.37,0.299C36.591,22.395,36.591,22.331,36.591,22.289 M36.185,21.114v0.897
		c-0.043,0-0.086,0-0.127-0.022h-0.021c-0.278-0.021-0.535,0-0.707,0.044v-0.984h-0.021C35.651,20.878,36.014,21.028,36.185,21.114
		 M34.773,36.699h-1.347c0.021-0.598,0.15-2.395,1.347-3.72V36.699z M35.201,36.699v-3.72c1.177,1.325,1.326,3.122,1.347,3.72
		H35.201z M38.389,30.114v6.585h-1.434c0-0.704-0.171-2.929-1.839-4.403c-0.086-0.064-0.193-0.064-0.278,0
		c-1.668,1.454-1.839,3.699-1.839,4.403h-1.432v-9.663h6.821V30.114z M38.41,26.606h-6.864l-0.3-1.688h0.641v0.492
		c0,0.128,0.086,0.214,0.214,0.214h1.22c0.128,0,0.214-0.086,0.214-0.214V24.94h0.727v0.471c0,0.128,0.086,0.214,0.214,0.214h1.197
		c0.128,0,0.214-0.086,0.214-0.214V24.94h0.685v0.471c0,0.128,0.085,0.214,0.214,0.214h1.197c0.129,0,0.215-0.086,0.215-0.214V24.94
		h0.533L38.41,26.606z M42.901,36.699h-4.086v-6.371h0.428v0.385c0,0.128,0.086,0.214,0.214,0.214h1.027
		c0.127,0,0.213-0.086,0.213-0.214v-0.385h0.32v0.385c0,0.128,0.086,0.214,0.214,0.214h1.026c0.129,0,0.214-0.086,0.214-0.214
		v-0.385h0.43V36.699z"/>
	<path style="clip-path:url(#SVGID_2_);fill:#FFFFFF;" d="M27.055,30.929v-0.601h0.428v0.036c0.112-0.148,0.222-0.294,0.328-0.434
		c-0.032-0.019-0.07-0.03-0.115-0.03h-0.496c-0.174,0.229-0.356,0.47-0.547,0.722c-0.009,0.012-0.018,0.023-0.026,0.033v0.839
		c0.147-0.193,0.29-0.383,0.427-0.564C27.055,30.93,27.055,30.93,27.055,30.929"/>
	<path style="clip-path:url(#SVGID_2_);fill:#FFFFFF;" d="M30.818,24.597c-0.044,0.043-0.064,0.107-0.044,0.172l0.07,0.391
		c0.067-0.215,0.118-0.429,0.155-0.648h-0.011C30.924,24.512,30.86,24.534,30.818,24.597"/>
	<path style="clip-path:url(#SVGID_2_);fill:#FFFFFF;" d="M28.551,33.557h1.092c0.128,0,0.213-0.085,0.213-0.213v-0.941
		c0-0.406-0.343-0.748-0.77-0.748c-0.428,0-0.75,0.342-0.75,0.748v0.941C28.336,33.472,28.422,33.557,28.551,33.557 M28.765,32.402
		c0-0.192,0.15-0.32,0.321-0.32c0.192,0,0.32,0.15,0.32,0.32v0.727h-0.642V32.402z"/>
	<path style="clip-path:url(#SVGID_2_);fill:#FFFFFF;" d="M40.868,31.654c-0.428,0-0.748,0.342-0.748,0.748v0.941
		c0,0.128,0.086,0.213,0.214,0.213h1.09c0.129,0,0.214-0.085,0.214-0.213v-0.941C41.617,31.996,41.275,31.654,40.868,31.654
		 M41.168,33.13h-0.642v-0.728c0-0.192,0.148-0.32,0.32-0.32c0.193,0,0.321,0.15,0.321,0.32V33.13z"/>
</g>
</svg>
