<?xml version="1.0" encoding="iso-8859-1"?>
<!-- Generator: Adobe Illustrator 15.1.0, SVG Export Plug-In . SVG Version: 6.00 Build 0)  -->
<!DOCTYPE svg PUBLIC "-//W3C//DTD SVG 1.1//EN" "http://www.w3.org/Graphics/SVG/1.1/DTD/svg11.dtd">
<svg version="1.1" id="Layer_1" xmlns="http://www.w3.org/2000/svg" xmlns:xlink="http://www.w3.org/1999/xlink" x="0px" y="0px"
	 width="50px" height="50px" viewBox="0 0 50 50" style="enable-background:new 0 0 50 50;" xml:space="preserve">
<path style="fill:#FFFFFF;" d="M24.366,47.215l0.646-0.004l0.003,0.646L24.37,47.86L24.366,47.215z M23.122,47.813l-0.323-0.021
	l0.041-0.645l0.644,0.041l-0.041,0.645L23.122,47.813z M25.894,47.176l0.645-0.048l0.046,0.646l-0.643,0.048L25.894,47.176z
	 M27.415,47.034l0.642-0.092l0.089,0.64l-0.64,0.091L27.415,47.034z M28.923,46.788l0.633-0.133l0.134,0.632l-0.632,0.134
	L28.923,46.788z M18.475,47.028l-0.311-0.088l0.174-0.621l0.623,0.172l-0.173,0.623L18.475,47.028z M30.411,46.444l0.621-0.179
	l0.178,0.623l-0.622,0.177L30.411,46.444z M16.976,46.555l-0.303-0.107l0.215-0.609l0.609,0.216l-0.215,0.607L16.976,46.555z
	 M31.871,45.996l0.608-0.219l0.22,0.608l-0.609,0.218L31.871,45.996z M15.514,45.979l-0.296-0.127l0.255-0.593l0.593,0.257
	l-0.257,0.592L15.514,45.979z M33.299,45.45l0.59-0.26l0.262,0.591l-0.592,0.261L33.299,45.45z M14.093,45.307L14.093,45.307
	l-0.288-0.148l0.297-0.573l0.575,0.296l-0.298,0.573L14.093,45.307z M34.684,44.807l0.572-0.3l0.3,0.571l-0.571,0.301L34.684,44.807
	z M12.722,44.537l-0.277-0.168l0.335-0.553l0.552,0.337l-0.334,0.551L12.722,44.537z M36.02,44.07l0.55-0.34l0.34,0.551
	l-0.551,0.339L36.02,44.07z M11.407,43.678l-0.265-0.187l0.372-0.527l0.528,0.37l-0.372,0.528L11.407,43.678z M37.303,43.244
	l0.525-0.376l0.376,0.524l-0.263,0.188l-0.261,0.188L37.303,43.244z M10.153,42.73l-0.252-0.204l0.407-0.502l0.503,0.407
	l-0.407,0.502L10.153,42.73z M38.524,42.33l0.499-0.411l0.411,0.498l-0.497,0.411L38.524,42.33z M8.968,41.698l-0.237-0.219
	l0.439-0.475l0.473,0.441l-0.44,0.473L8.968,41.698z M39.684,41.335l0.468-0.443l0.446,0.469l-0.471,0.443L39.684,41.335z
	 M7.853,40.59l-0.22-0.236l0.471-0.442l0.444,0.472l-0.473,0.441L7.853,40.59z M6.819,39.406h0.002l-0.204-0.25l0.499-0.408
	l0.408,0.5l-0.499,0.408L6.819,39.406z M5.87,38.156L5.87,38.156l-0.187-0.264l0.529-0.373l0.373,0.528l-0.529,0.371L5.87,38.156z
	 M5.007,36.845l-0.168-0.277l0.553-0.335l0.335,0.551l-0.552,0.335L5.007,36.845z M4.238,35.475L4.09,35.188l0.573-0.298
	l0.149,0.287l0.148,0.286l-0.573,0.298L4.238,35.475z M3.564,34.056L3.564,34.056l-0.128-0.298l0.594-0.256l0.255,0.594
	l-0.592,0.256L3.564,34.056z M2.99,32.593L2.99,32.593l-0.107-0.305l0.609-0.216l0.214,0.609l-0.608,0.215L2.99,32.593z
	 M45.557,32.518l0.211-0.61l0.611,0.212l-0.211,0.609L45.557,32.518z M2.518,31.094l-0.086-0.313l0.622-0.171l0.172,0.621
	l-0.621,0.174L2.518,31.094z M46.029,31.063l0.169-0.624l0.623,0.17l-0.084,0.312V30.92l-0.085,0.313L46.029,31.063z M2.15,29.567
	L2.15,29.567l-0.066-0.316l0.632-0.132l0.131,0.634l-0.633,0.13L2.15,29.567z M46.399,29.581l0.126-0.634l0.633,0.125l-0.125,0.634
	L46.399,29.581z M1.967,28.566L1.967,28.566l-0.052-0.319l0.638-0.101l0.101,0.636l-0.637,0.104L1.967,28.566z M46.667,28.076
	l0.082-0.641l0.641,0.082l-0.042,0.319l-0.04,0.32L46.667,28.076z M1.768,27.007H1.77l-0.031-0.32l0.644-0.061l0.059,0.645
	l-0.643,0.059L1.768,27.007z M46.829,26.558l0.037-0.646l0.645,0.037l-0.018,0.322l-0.02,0.323L46.829,26.558z M1.678,25.439
	l-0.007-0.323l0.646-0.016l0.015,0.646l-0.646,0.016L1.678,25.439z M46.884,24.708l-0.004-0.321l0.645-0.009l0.008,0.647
	l-0.644,0.007L46.884,24.708z M1.681,24.189l0.03-0.644l0.644,0.028l-0.013,0.323l-0.015,0.323L1.681,24.189z M46.813,23.181
	l-0.025-0.321l0.644-0.051l0.052,0.643l-0.644,0.051L46.813,23.181z M1.785,22.621l0.073-0.641l0.643,0.072l-0.075,0.643
	L1.785,22.621z M1.996,21.063l0.118-0.636l0.634,0.117L2.63,21.179L1.996,21.063z M2.314,19.521l0.162-0.625l0.625,0.162
	l-0.163,0.625L2.314,19.521z M45.989,18.68l-0.09-0.31l0.619-0.179l0.182,0.62l-0.621,0.18L45.989,18.68z M2.737,18.006l0.205-0.612
	l0.614,0.204L3.351,18.21L2.737,18.006z M45.514,17.23l-0.112-0.304l0.606-0.222l0.223,0.608l-0.607,0.221L45.514,17.23z
	 M3.266,16.525l0.246-0.598l0.596,0.247l-0.245,0.598L3.266,16.525z M44.937,15.815l-0.13-0.294l0.588-0.263l0.264,0.588
	l-0.59,0.264L44.937,15.815z M3.892,15.083l0.143-0.289l0.145-0.29l0.578,0.286l-0.144,0.29h0.002l-0.144,0.29L3.892,15.083z
	 M44.266,14.443l-0.15-0.284l0.569-0.303l0.303,0.57l-0.57,0.304L44.266,14.443z M4.617,13.688l0.325-0.558l0.559,0.326
	l-0.326,0.557L4.617,13.688z M43.502,13.125l-0.171-0.275l0.547-0.341l0.172,0.273l0.172,0.274l-0.549,0.343L43.502,13.125z
	 M5.435,12.346l0.363-0.535l0.535,0.362L6.151,12.44l-0.18,0.268L5.435,12.346z M42.648,11.859l-0.189-0.262l0.522-0.38l0.38,0.523
	l-0.523,0.38L42.648,11.859z M6.344,11.063l0.397-0.509l0.508,0.397l-0.397,0.512L6.344,11.063z M41.711,10.654l-0.207-0.248
	l0.495-0.414l0.415,0.495l-0.496,0.415L41.711,10.654z M40.69,9.518l-0.224-0.235l0.468-0.447l0.447,0.467l-0.468,0.448L40.69,9.518
	z M8.409,8.697l0.463-0.45L9.321,8.71L8.857,9.159L8.409,8.697z M39.599,8.453l-0.24-0.218l0.434-0.479l0.478,0.435L39.836,8.67
	L39.599,8.453z M9.557,7.625l0.494-0.416L10.468,7.7L9.973,8.116L9.557,7.625z M38.432,7.464l-0.251-0.201l0.399-0.506l0.507,0.402
	l-0.4,0.506L38.432,7.464z M10.776,6.634l0.262-0.191h-0.002l0.262-0.191l0.383,0.521L11.16,7.155L10.776,6.634z M37.204,6.558
	L37.204,6.558l-0.267-0.183l0.365-0.532l0.267,0.182l0.267,0.183L37.47,6.74L37.204,6.558z M12.061,5.73l0.546-0.346l0.345,0.546
	l-0.545,0.346L12.061,5.73z M35.914,5.737l-0.278-0.164l0.329-0.556l0.557,0.327l-0.328,0.557L35.914,5.737z M13.403,4.917
	l0.285-0.155l0.284-0.153l0.307,0.568L13.995,5.33l-0.284,0.155L13.403,4.917z M34.573,5.006L34.573,5.006l-0.289-0.145l0.291-0.578
	l0.576,0.29l-0.29,0.578L34.573,5.006z M14.802,4.196l0.587-0.267l0.268,0.588l-0.588,0.268L14.802,4.196z M33.186,4.367
	L33.186,4.367l-0.299-0.124l0.25-0.596l0.596,0.249l-0.249,0.597L33.186,4.367z M16.245,3.575l0.303-0.113l0.302-0.114l0.227,0.606
	L16.472,4.18L16.245,3.575z M31.756,3.826l-0.307-0.103l0.209-0.612l0.61,0.208L32.062,3.93L31.756,3.826z M17.728,3.055
	l0.619-0.184l0.183,0.618l-0.618,0.185L17.728,3.055z M30.292,3.385L29.98,3.302l0.165-0.624l0.625,0.165l-0.166,0.624L30.292,3.385
	z M19.242,2.636l0.315-0.07v0.001l0.316-0.071l0.142,0.629L19.7,3.196l-0.315,0.071L19.242,2.636z M28.805,3.045l-0.318-0.061
	l0.122-0.634l0.633,0.121l-0.12,0.634L28.805,3.045z M20.784,2.322l0.638-0.098l0.098,0.639l-0.639,0.098L20.784,2.322z
	 M27.291,2.808l-0.319-0.038l0.077-0.641l0.642,0.078l-0.078,0.641L27.291,2.808z M22.339,2.113l0.646-0.055l0.054,0.644
	l-0.644,0.056L22.339,2.113z M25.771,2.677l-0.323-0.016l0.034-0.646l0.645,0.034l-0.034,0.644L25.771,2.677z M23.91,2.01L24.556,2
	l0.01,0.646L23.92,2.657L23.91,2.01z"/>
<g>
	<defs>
		<rect id="SVGID_1_" x="32.269" y="27.014" width="14.117" height="14.85"/>
	</defs>
	<clipPath id="SVGID_2_">
		<use xlink:href="#SVGID_1_"  style="overflow:visible;"/>
	</clipPath>
	<path style="clip-path:url(#SVGID_2_);fill:#FFFFFF;" d="M45.14,39.389h-8.723l-1.681-6.006c-0.03-0.106-0.128-0.182-0.239-0.182
		h-0.788c-0.102-0.288-0.374-0.495-0.697-0.495c-0.408,0-0.743,0.333-0.743,0.743s0.335,0.743,0.743,0.743
		c0.323,0,0.596-0.208,0.697-0.495h0.601l1.682,6.005c0.029,0.108,0.128,0.182,0.238,0.182h0.749
		c-0.156,0.207-0.254,0.463-0.254,0.742c0,0.684,0.555,1.237,1.238,1.237c0.682,0,1.237-0.554,1.237-1.237
		c0-0.279-0.098-0.535-0.255-0.742h3.23c-0.156,0.207-0.252,0.463-0.252,0.742c0,0.684,0.555,1.237,1.236,1.237
		c0.683,0,1.237-0.554,1.237-1.237c0-0.279-0.096-0.535-0.253-0.742h0.995V39.389z M33.012,33.697c-0.137,0-0.247-0.111-0.247-0.248
		s0.11-0.248,0.247-0.248s0.248,0.111,0.248,0.248S33.148,33.697,33.012,33.697 M37.963,41.369c-0.41,0-0.743-0.333-0.743-0.743
		c0-0.409,0.333-0.742,0.743-0.742c0.408,0,0.742,0.333,0.742,0.742C38.705,41.036,38.371,41.369,37.963,41.369 M43.16,41.369
		c-0.409,0-0.742-0.333-0.742-0.743c0-0.409,0.333-0.742,0.742-0.742s0.742,0.333,0.742,0.742
		C43.902,41.036,43.569,41.369,43.16,41.369"/>
	<path style="clip-path:url(#SVGID_2_);fill:#FFFFFF;" d="M46.325,33.295c-0.047-0.059-0.119-0.094-0.195-0.094H44.15v-1.484
		c0-0.972-1.414-1.732-3.218-1.732c-1.805,0-3.218,0.761-3.218,1.732v1.484h-1.98c-0.076,0-0.146,0.035-0.194,0.094
		c-0.047,0.061-0.063,0.138-0.047,0.212l1.238,5.197c0.026,0.111,0.126,0.189,0.241,0.189h7.919c0.115,0,0.215-0.078,0.243-0.189
		l1.236-5.198C46.389,33.433,46.371,33.355,46.325,33.295 M40.933,30.479c1.604,0,2.722,0.651,2.722,1.237s-1.117,1.237-2.722,1.237
		s-2.722-0.651-2.722-1.237S39.328,30.479,40.933,30.479 M38.211,32.648c0.563,0.484,1.561,0.801,2.722,0.801
		s2.158-0.316,2.722-0.801v0.553c0,0.586-1.117,1.238-2.722,1.238s-2.722-0.652-2.722-1.238V32.648z M38.211,34.134
		c0.563,0.484,1.561,0.8,2.722,0.8s2.158-0.315,2.722-0.8v0.553c0,0.585-1.117,1.237-2.722,1.237s-2.722-0.652-2.722-1.237V34.134z
		 M38.211,35.619c0.563,0.483,1.561,0.801,2.722,0.801s2.158-0.317,2.722-0.801v0.552c0,0.586-1.117,1.238-2.722,1.238
		s-2.722-0.652-2.722-1.238V35.619z M44.697,38.398h-7.529l-1.12-4.701h1.667v2.474c0,0.972,1.413,1.733,3.218,1.733
		c1.804,0,3.218-0.762,3.218-1.733v-2.474h1.666L44.697,38.398z"/>
</g>
<rect x="41.675" y="31.47" style="fill:#FFFFFF;" width="0.496" height="0.495"/>
<rect x="40.684" y="31.47" style="fill:#FFFFFF;" width="0.496" height="0.495"/>
<rect x="39.695" y="31.47" style="fill:#FFFFFF;" width="0.494" height="0.495"/>
<g>
	<defs>
		<rect id="SVGID_3_" width="50" height="50"/>
	</defs>
	<clipPath id="SVGID_4_">
		<use xlink:href="#SVGID_3_"  style="overflow:visible;"/>
	</clipPath>
	<path style="clip-path:url(#SVGID_4_);fill:#FFFFFF;" d="M41.747,28.077l-0.566,0.567v-1.631h-0.495v1.631l-0.568-0.567
		l-0.349,0.349l0.988,0.991c0.048,0.048,0.112,0.072,0.176,0.072c0.063,0,0.127-0.024,0.175-0.072l0.99-0.991L41.747,28.077z"/>
	<path style="clip-path:url(#SVGID_4_);fill:#FFFFFF;" d="M8.921,10.016V9.581C8.475,9.55,8.117,9.191,8.085,8.745H7.65
		C7.619,9.191,7.26,9.55,6.815,9.581v0.435c0.445,0.031,0.804,0.389,0.835,0.835h0.435C8.117,10.405,8.475,10.047,8.921,10.016
		 M8.194,9.85c-0.104,0.078-0.196,0.17-0.275,0.275l-0.051,0.069l-0.052-0.07C7.739,10.02,7.646,9.929,7.542,9.85l-0.07-0.052
		l0.07-0.052c0.105-0.078,0.198-0.17,0.275-0.274l0.052-0.07l0.051,0.069C7.999,9.577,8.09,9.669,8.194,9.746l0.07,0.052L8.194,9.85
		z"/>
	<path style="clip-path:url(#SVGID_4_);fill:#FFFFFF;" d="M48.328,21.228v-0.581c-0.652-0.061-1.171-0.582-1.233-1.233h-0.581
		c-0.061,0.651-0.581,1.172-1.234,1.233v0.581c0.653,0.061,1.174,0.583,1.234,1.234h0.581
		C47.157,21.811,47.676,21.289,48.328,21.228 M47.308,21.041c-0.15,0.112-0.285,0.247-0.398,0.4l-0.104,0.139l-0.104-0.139
		c-0.113-0.153-0.248-0.288-0.399-0.4l-0.141-0.104l0.141-0.103c0.151-0.113,0.286-0.248,0.399-0.399l0.104-0.14l0.104,0.14
		c0.112,0.151,0.247,0.286,0.398,0.399l0.14,0.103L47.308,21.041z"/>
	<path style="clip-path:url(#SVGID_4_);fill:#FFFFFF;" d="M21.901,47.214v-0.4c-0.419-0.032-0.755-0.368-0.786-0.786h-0.402
		c-0.032,0.418-0.366,0.754-0.785,0.786v0.4c0.419,0.032,0.753,0.367,0.785,0.786h0.402C21.146,47.581,21.482,47.246,21.901,47.214
		 M21.224,47.064c-0.098,0.073-0.185,0.159-0.257,0.258l-0.053,0.07l-0.051-0.07c-0.074-0.098-0.16-0.185-0.258-0.258l-0.069-0.051
		l0.07-0.053c0.097-0.073,0.183-0.159,0.257-0.257l0.051-0.07l0.053,0.07c0.072,0.098,0.159,0.185,0.257,0.257l0.07,0.053
		L21.224,47.064z"/>
	<path style="clip-path:url(#SVGID_4_);fill:#FFFFFF;" d="M20.492,32.306c-0.008,0.078-0.032,0.151-0.069,0.217
		c0.108,0.028,0.214,0.066,0.318,0.109c-0.082-0.106-0.163-0.213-0.242-0.317C20.497,32.311,20.495,32.308,20.492,32.306"/>
	<path style="clip-path:url(#SVGID_4_);fill:#FFFFFF;" d="M29.391,23.758c0,2.422-0.712,3.361-4.659,8.569
		c-0.57,0.75-1.201,1.582-1.905,2.518l-0.207,0.273l-0.207-0.273c-0.045-0.061-0.089-0.117-0.133-0.178
		c0.011,0.097,0.018,0.192,0.018,0.29c0,0.246-0.035,0.483-0.102,0.708c0.052,0.07,0.104,0.139,0.158,0.21
		c0.062,0.084,0.162,0.133,0.266,0.133s0.205-0.05,0.268-0.133c0.9-1.202,1.684-2.233,2.372-3.144
		c3.973-5.236,4.798-6.326,4.798-8.973c0-0.415-0.036-0.821-0.103-1.217h-0.677C29.351,22.937,29.391,23.342,29.391,23.758"/>
	<path style="clip-path:url(#SVGID_4_);fill:#FFFFFF;" d="M15.851,23.758c0-3.732,3.036-6.77,6.77-6.77
		c1.519,0,2.922,0.504,4.053,1.352c0.144-0.175,0.312-0.328,0.494-0.459c-1.258-0.977-2.835-1.559-4.547-1.559
		c-4.101,0-7.437,3.336-7.437,7.436c0,1.603,0.303,2.634,1.414,4.351h0.798C16.144,26.261,15.851,25.316,15.851,23.758"/>
	<path style="clip-path:url(#SVGID_4_);fill:#FFFFFF;" d="M22.62,19.873c-2.143,0-3.885,1.743-3.885,3.886
		c0,2.141,1.742,3.884,3.885,3.884c2.144,0,3.886-1.743,3.886-3.884C26.506,21.616,24.764,19.873,22.62,19.873 M22.62,26.976
		c-1.774,0-3.218-1.443-3.218-3.217c0-1.775,1.444-3.218,3.218-3.218c1.775,0,3.219,1.443,3.219,3.218
		C25.839,25.532,24.395,26.976,22.62,26.976"/>
	<rect x="13.646" y="29.552" style="clip-path:url(#SVGID_4_);fill:#FFFFFF;" width="0.359" height="0.36"/>
	<rect x="14.367" y="29.552" style="clip-path:url(#SVGID_4_);fill:#FFFFFF;" width="0.36" height="0.36"/>
	<rect x="13.646" y="28.83" style="clip-path:url(#SVGID_4_);fill:#FFFFFF;" width="0.359" height="0.36"/>
	<rect x="14.367" y="28.83" style="clip-path:url(#SVGID_4_);fill:#FFFFFF;" width="0.36" height="0.36"/>
	<rect x="15.088" y="29.552" style="clip-path:url(#SVGID_4_);fill:#FFFFFF;" width="0.361" height="0.36"/>
	<rect x="15.088" y="28.83" style="clip-path:url(#SVGID_4_);fill:#FFFFFF;" width="0.361" height="0.36"/>
	<rect x="15.81" y="29.552" style="clip-path:url(#SVGID_4_);fill:#FFFFFF;" width="0.359" height="0.36"/>
	<rect x="15.81" y="28.83" style="clip-path:url(#SVGID_4_);fill:#FFFFFF;" width="0.359" height="0.36"/>
	<rect x="16.53" y="29.552" style="clip-path:url(#SVGID_4_);fill:#FFFFFF;" width="0.36" height="0.36"/>
	<rect x="16.53" y="28.83" style="clip-path:url(#SVGID_4_);fill:#FFFFFF;" width="0.36" height="0.36"/>
	<path style="clip-path:url(#SVGID_4_);fill:#FFFFFF;" d="M19.775,29.731V29.01c0-0.1-0.081-0.18-0.18-0.18h-1.623
		c-0.024,0-0.047,0.005-0.066,0.013c0.079,0.112,0.164,0.229,0.25,0.347h1.259v0.361H18.42c0.086,0.117,0.175,0.237,0.267,0.361
		h0.908C19.694,29.912,19.775,29.831,19.775,29.731"/>
	<path style="clip-path:url(#SVGID_4_);fill:#FFFFFF;" d="M18.152,29.552V29.19h0.004c-0.086-0.119-0.171-0.235-0.25-0.347
		c-0.067,0.025-0.114,0.09-0.114,0.167v0.722c0,0.099,0.08,0.179,0.18,0.179h0.715c-0.092-0.123-0.181-0.243-0.267-0.359H18.152z"/>
	<rect x="13.646" y="31.714" style="clip-path:url(#SVGID_4_);fill:#FFFFFF;" width="0.359" height="0.36"/>
	<rect x="14.367" y="31.714" style="clip-path:url(#SVGID_4_);fill:#FFFFFF;" width="0.36" height="0.36"/>
	<rect x="13.646" y="30.993" style="clip-path:url(#SVGID_4_);fill:#FFFFFF;" width="0.359" height="0.359"/>
	<rect x="14.367" y="30.993" style="clip-path:url(#SVGID_4_);fill:#FFFFFF;" width="0.36" height="0.359"/>
	<rect x="15.088" y="31.714" style="clip-path:url(#SVGID_4_);fill:#FFFFFF;" width="0.361" height="0.36"/>
	<rect x="15.088" y="30.993" style="clip-path:url(#SVGID_4_);fill:#FFFFFF;" width="0.361" height="0.359"/>
	<rect x="15.81" y="31.714" style="clip-path:url(#SVGID_4_);fill:#FFFFFF;" width="0.359" height="0.36"/>
	<rect x="15.81" y="30.993" style="clip-path:url(#SVGID_4_);fill:#FFFFFF;" width="0.359" height="0.359"/>
	<rect x="16.53" y="31.714" style="clip-path:url(#SVGID_4_);fill:#FFFFFF;" width="0.36" height="0.36"/>
	<rect x="16.53" y="30.993" style="clip-path:url(#SVGID_4_);fill:#FFFFFF;" width="0.36" height="0.359"/>
	<path style="clip-path:url(#SVGID_4_);fill:#FFFFFF;" d="M19.775,31.173c0-0.1-0.081-0.181-0.18-0.181H19.5
		c0.089,0.12,0.182,0.24,0.276,0.367V31.173z"/>
	<path style="clip-path:url(#SVGID_4_);fill:#FFFFFF;" d="M18.152,31.714v-0.361h0.782c-0.093-0.123-0.182-0.242-0.271-0.36h-0.691
		c-0.1,0-0.18,0.081-0.18,0.181v0.722c0,0.1,0.08,0.18,0.18,0.18h1.508c-0.093-0.121-0.184-0.243-0.273-0.36H18.152z"/>
	<path style="clip-path:url(#SVGID_4_);fill:#FFFFFF;" d="M18.935,31.353h0.48v0.361h-0.208c0.089,0.117,0.181,0.238,0.274,0.36
		h0.115c0.099,0,0.18-0.081,0.18-0.18v-0.536c-0.094-0.126-0.187-0.246-0.277-0.366h-0.835
		C18.751,31.11,18.842,31.229,18.935,31.353"/>
	<rect x="13.646" y="33.877" style="clip-path:url(#SVGID_4_);fill:#FFFFFF;" width="0.359" height="0.36"/>
	<rect x="14.367" y="33.877" style="clip-path:url(#SVGID_4_);fill:#FFFFFF;" width="0.36" height="0.36"/>
	<rect x="13.646" y="33.156" style="clip-path:url(#SVGID_4_);fill:#FFFFFF;" width="0.359" height="0.359"/>
	<rect x="14.367" y="33.156" style="clip-path:url(#SVGID_4_);fill:#FFFFFF;" width="0.36" height="0.359"/>
	<rect x="15.088" y="33.877" style="clip-path:url(#SVGID_4_);fill:#FFFFFF;" width="0.361" height="0.36"/>
	<rect x="15.088" y="33.156" style="clip-path:url(#SVGID_4_);fill:#FFFFFF;" width="0.361" height="0.359"/>
	<rect x="15.81" y="33.877" style="clip-path:url(#SVGID_4_);fill:#FFFFFF;" width="0.359" height="0.36"/>
	<rect x="15.81" y="33.156" style="clip-path:url(#SVGID_4_);fill:#FFFFFF;" width="0.359" height="0.359"/>
	<rect x="16.53" y="33.877" style="clip-path:url(#SVGID_4_);fill:#FFFFFF;" width="0.36" height="0.36"/>
	<rect x="16.53" y="33.156" style="clip-path:url(#SVGID_4_);fill:#FFFFFF;" width="0.36" height="0.359"/>
	<path style="clip-path:url(#SVGID_4_);fill:#FFFFFF;" d="M20.496,30.812c0-0.138-0.054-0.264-0.14-0.36
		c0.086-0.096,0.14-0.221,0.14-0.358v-1.444c0-0.297-0.242-0.54-0.54-0.54h-2.561c0.079,0.117,0.161,0.236,0.248,0.361h2.313
		c0.099,0,0.181,0.08,0.181,0.179v1.444c0,0.099-0.082,0.179-0.181,0.179h-1c0.088,0.117,0.178,0.237,0.27,0.36h0.73
		c0.099,0,0.181,0.081,0.181,0.18v1.023c0.115,0.152,0.234,0.31,0.355,0.471c0.002-0.018,0.004-0.034,0.004-0.051V30.812z"/>
	<path style="clip-path:url(#SVGID_4_);fill:#FFFFFF;" d="M21.51,36.242c-0.097,0.134-0.21,0.256-0.337,0.363v0.001
		c-0.037,0.03-0.074,0.058-0.112,0.087c-0.36,0.267-0.803,0.427-1.286,0.427c-1.192,0-2.163-0.969-2.163-2.163
		c0-0.056,0.005-0.109,0.009-0.165v-0.001c0.011-0.139,0.034-0.274,0.069-0.406h0.001c0.199-0.721,0.763-1.289,1.472-1.5
		c0.009-0.003,0.019-0.005,0.029-0.008c0.055-0.016,0.11-0.029,0.166-0.041c0.025-0.005,0.053-0.009,0.078-0.013
		c0.042-0.006,0.084-0.013,0.126-0.017c0.071-0.008,0.142-0.012,0.213-0.012c0.056,0,0.11,0.004,0.164,0.009
		c0.033,0.003,0.066,0.006,0.103,0.01l-0.077-0.103c-0.073-0.094-0.142-0.184-0.21-0.275h-6.289c-0.1,0-0.18-0.081-0.18-0.181
		v-1.443c0-0.1,0.08-0.18,0.18-0.18h4.926c-0.092-0.122-0.181-0.243-0.268-0.359h-4.658c-0.1,0-0.18-0.081-0.18-0.18v-1.443
		c0-0.099,0.08-0.18,0.18-0.18h3.37c-0.084-0.124-0.162-0.243-0.239-0.36h-3.131c-0.298,0-0.541,0.242-0.541,0.54v1.443
		c0,0.138,0.055,0.264,0.141,0.358c-0.086,0.097-0.141,0.222-0.141,0.36v1.443c0,0.139,0.055,0.264,0.141,0.359
		c-0.086,0.096-0.141,0.222-0.141,0.361v1.441c0,0.299,0.243,0.54,0.541,0.54h3.786c0,1.393,1.132,2.524,2.523,2.524
		c0.493,0,0.95-0.145,1.339-0.389l1.665,1.665c0.106,0.106,0.249,0.166,0.398,0.166c0.311,0,0.564-0.253,0.564-0.563
		c0-0.147-0.061-0.293-0.165-0.397l-1.665-1.666c0.122-0.194,0.219-0.406,0.284-0.632c-0.095-0.128-0.189-0.254-0.283-0.378
		C21.857,35.641,21.716,35.968,21.51,36.242 M17.334,34.328c-0.022,0.083-0.038,0.167-0.051,0.253
		c-0.001,0.006-0.003,0.012-0.003,0.017h-3.814c-0.1,0-0.18-0.08-0.18-0.181v-1.441c0-0.101,0.08-0.181,0.18-0.181h5.015
		c-0.555,0.333-0.97,0.871-1.141,1.512C17.338,34.314,17.336,34.321,17.334,34.328 M23.321,38.218
		c0.037,0.038,0.059,0.09,0.059,0.143c0,0.111-0.091,0.202-0.203,0.202c-0.053,0-0.104-0.021-0.142-0.059l-1.626-1.626
		c0.019-0.017,0.037-0.034,0.056-0.052c0.063-0.056,0.122-0.116,0.178-0.178c0.018-0.02,0.035-0.037,0.052-0.056L23.321,38.218z"/>
	<path style="clip-path:url(#SVGID_4_);fill:#FFFFFF;" d="M20.741,32.632c0.47,0.62,0.981,1.294,1.538,2.036
		C22.173,33.746,21.568,32.977,20.741,32.632"/>
	<path style="clip-path:url(#SVGID_4_);fill:#FFFFFF;" d="M17.644,28.469c-0.088-0.125-0.17-0.243-0.248-0.359h-0.798
		c0.076,0.117,0.154,0.235,0.238,0.359H17.644z"/>
	<path style="clip-path:url(#SVGID_4_);fill:#FFFFFF;" d="M22.279,34.668c-0.557-0.741-1.068-1.416-1.538-2.036
		c-0.105-0.043-0.21-0.081-0.318-0.109c0.037-0.065,0.061-0.139,0.069-0.217c-0.121-0.161-0.24-0.318-0.356-0.471v0.42
		c0,0.1-0.082,0.181-0.18,0.181h-0.201c0.068,0.092,0.137,0.182,0.21,0.276l0.077,0.102c0.003,0,0.005,0,0.007,0.001h0.001
		c1.063,0.136,1.888,1.044,1.888,2.143c0,0.112-0.01,0.223-0.026,0.33c0.094,0.124,0.188,0.25,0.283,0.378
		c0.067-0.225,0.103-0.462,0.103-0.708C22.298,34.859,22.292,34.764,22.279,34.668"/>
	<path style="clip-path:url(#SVGID_4_);fill:#FFFFFF;" d="M18.956,30.272h-0.832c0.087,0.116,0.177,0.236,0.269,0.359h0.834
		C19.134,30.509,19.044,30.389,18.956,30.272"/>
	<path style="clip-path:url(#SVGID_4_);fill:#FFFFFF;" d="M18.011,34.845c-0.052,0.066-0.052,0.16,0,0.226
		c0.033,0.04,0.792,0.969,1.764,0.969c0.97,0,1.732-0.929,1.763-0.969c0.053-0.065,0.053-0.159,0-0.226
		c-0.031-0.039-0.793-0.968-1.763-0.968C18.803,33.877,18.044,34.806,18.011,34.845 M21.154,34.957
		c-0.219,0.229-0.764,0.723-1.379,0.723c-0.616,0-1.161-0.493-1.381-0.723c0.22-0.227,0.765-0.72,1.381-0.72
		C20.39,34.237,20.935,34.73,21.154,34.957"/>
	<path style="clip-path:url(#SVGID_4_);fill:#FFFFFF;" d="M20.497,34.958c0-0.101-0.08-0.18-0.18-0.18s-0.18-0.081-0.18-0.182
		c0-0.022,0.004-0.046,0.013-0.068c0.038-0.092-0.005-0.196-0.097-0.235c-0.088-0.037-0.181-0.056-0.277-0.056
		c-0.398,0-0.721,0.323-0.721,0.721s0.323,0.721,0.721,0.721C20.172,35.679,20.497,35.355,20.497,34.958 M19.775,35.318
		c-0.199,0-0.36-0.162-0.36-0.36c0-0.199,0.161-0.361,0.36-0.361c0,0.226,0.138,0.418,0.333,0.499
		C20.053,35.226,19.924,35.318,19.775,35.318"/>
	<path style="clip-path:url(#SVGID_4_);fill:#FFFFFF;" d="M17.071,36.22c-0.397,0-0.721-0.323-0.721-0.722
		c0-0.1-0.08-0.18-0.181-0.18c-0.098,0-0.18,0.08-0.18,0.18c0,0.398-0.322,0.722-0.72,0.722c-0.099,0-0.181,0.081-0.181,0.181
		s0.082,0.18,0.181,0.18c0.398,0,0.72,0.323,0.72,0.72c0,0.101,0.082,0.182,0.18,0.182c0.101,0,0.181-0.081,0.181-0.182
		c0-0.396,0.324-0.72,0.721-0.72c0.1,0,0.181-0.08,0.181-0.18S17.171,36.22,17.071,36.22 M16.169,36.704
		c-0.079-0.12-0.183-0.224-0.302-0.304c0.119-0.081,0.223-0.185,0.302-0.305c0.081,0.12,0.185,0.224,0.306,0.305
		C16.354,36.48,16.25,36.584,16.169,36.704"/>
	<path style="clip-path:url(#SVGID_4_);fill:#FFFFFF;" d="M26.71,19.972c0-0.468,0.166-0.899,0.444-1.235
		c-0.154-0.14-0.314-0.272-0.48-0.396c-0.366,0.444-0.586,1.012-0.586,1.631c0,1.417,1.151,2.57,2.568,2.57h0.622
		c-0.038-0.212-0.087-0.421-0.144-0.625h-0.479C27.583,21.917,26.71,21.045,26.71,19.972"/>
	<path style="clip-path:url(#SVGID_4_);fill:#FFFFFF;" d="M37.687,17.403h-0.078l-0.007-0.058c-0.187-1.683-1.607-2.952-3.302-2.952
		c-1.148,0-2.198,0.581-2.809,1.553l-0.026,0.041l-0.049-0.014c-0.162-0.049-0.332-0.075-0.502-0.075
		c-0.876,0-1.627,0.625-1.786,1.484l-0.011,0.063l-0.063-0.011c-0.132-0.02-0.265-0.031-0.397-0.031
		c-0.554,0-1.066,0.178-1.488,0.478c0.172,0.132,0.338,0.273,0.497,0.419c0.291-0.172,0.629-0.274,0.991-0.274
		c0.222,0,0.444,0.04,0.661,0.117c0.099,0.037,0.21,0.02,0.296-0.045c0.085-0.066,0.13-0.169,0.119-0.276l-0.012-0.1
		c0-0.666,0.535-1.201,1.193-1.201c0.184,0,0.367,0.047,0.545,0.139c0.074,0.038,0.162,0.046,0.241,0.02
		c0.078-0.027,0.146-0.085,0.183-0.158c0.459-0.929,1.386-1.505,2.417-1.505c1.488,0,2.699,1.205,2.699,2.687
		c-0.002,0.014-0.003,0.037-0.003,0.045c0,0.091,0.04,0.178,0.111,0.237c0.07,0.059,0.164,0.084,0.254,0.069
		c0.118-0.019,0.226-0.029,0.325-0.029c1.072,0,1.946,0.873,1.946,1.945c0,1.074-0.874,1.946-1.946,1.946h-7.86
		c0.053,0.205,0.095,0.413,0.129,0.624h2.841v0.064h0.751v-0.064h4.14c1.416,0,2.568-1.153,2.568-2.57
		C40.255,18.555,39.103,17.403,37.687,17.403"/>
	<path style="clip-path:url(#SVGID_4_);fill:#FFFFFF;" d="M26.674,18.34c0.166,0.125,0.326,0.256,0.479,0.396
		c0.145-0.173,0.317-0.32,0.512-0.436c-0.159-0.146-0.325-0.287-0.497-0.419C26.985,18.012,26.817,18.166,26.674,18.34"/>
	<path style="clip-path:url(#SVGID_4_);fill:#FFFFFF;" d="M29.135,21.917c0.057,0.204,0.105,0.413,0.144,0.625h0.677
		c-0.034-0.212-0.076-0.42-0.129-0.625H29.135z"/>
	<rect x="37.375" y="18.907" style="clip-path:url(#SVGID_4_);fill:#FFFFFF;" width="0.623" height="0.625"/>
	<rect x="37.375" y="20.412" style="clip-path:url(#SVGID_4_);fill:#FFFFFF;" width="0.623" height="0.624"/>
	<rect x="35.869" y="20.412" style="clip-path:url(#SVGID_4_);fill:#FFFFFF;" width="0.623" height="0.624"/>
</g>
</svg>
