<?xml version="1.0" encoding="iso-8859-1"?>
<!-- Generator: Adobe Illustrator 15.1.0, SVG Export Plug-In . SVG Version: 6.00 Build 0)  -->
<!DOCTYPE svg PUBLIC "-//W3C//DTD SVG 1.1//EN" "http://www.w3.org/Graphics/SVG/1.1/DTD/svg11.dtd">
<svg version="1.1" id="Layer_1" xmlns="http://www.w3.org/2000/svg" xmlns:xlink="http://www.w3.org/1999/xlink" x="0px" y="0px"
	 width="50px" height="50px" viewBox="0 0 50 50" style="enable-background:new 0 0 50 50;" xml:space="preserve">
<path style="fill:#FFFFFF;" d="M20.208,43.933l-0.293-0.067l0.136-0.586l0.586,0.136L20.5,44.001L20.208,43.933z M29.911,43.284
	l0.291-0.076l0.291-0.075l0.151,0.582l-0.581,0.151L29.911,43.284z M18.794,43.553L18.794,43.553l-0.287-0.088l0.176-0.574
	l0.287,0.088l0.287,0.089l-0.176,0.573L18.794,43.553z M31.28,42.9l0.285-0.097h-0.001l0.286-0.094l0.189,0.569l-0.569,0.191
	L31.28,42.9z M17.41,43.075L17.41,43.075l-0.281-0.107l0.215-0.562l0.561,0.215l-0.215,0.562L17.41,43.075z M32.619,42.422
	l0.278-0.114l0.276-0.114l0.23,0.556l-0.278,0.115l-0.277,0.114L32.619,42.422z M16.063,42.504l-0.274-0.127l0.254-0.545
	l0.545,0.253l-0.253,0.547L16.063,42.504z M33.921,41.854l0.27-0.133l0.27-0.134l0.267,0.537l-0.269,0.134v0.001l-0.269,0.134
	L33.921,41.854z M14.757,41.841L14.757,41.841l-0.263-0.144l0.29-0.528l0.527,0.291l-0.29,0.526L14.757,41.841z M35.18,41.195
	l0.519-0.305l0.304,0.519l-0.519,0.305L35.18,41.195z M13.501,41.092L13.501,41.092l-0.253-0.163l0.326-0.507l0.252,0.164
	l0.253,0.163l-0.326,0.505L13.501,41.092z M36.391,40.452l0.496-0.339l0.34,0.497l-0.495,0.339L36.391,40.452z M12.298,40.257H12.3
	l-0.242-0.18l0.359-0.482l0.482,0.36l-0.359,0.481L12.298,40.257z M37.548,39.628l0.235-0.188l0.236-0.186l0.372,0.471L37.921,40.1
	L37.548,39.628z M11.157,39.342l-0.228-0.195l0.391-0.457l0.229,0.196l0.228,0.195l-0.391,0.458L11.157,39.342z M10.081,38.352
	L9.867,38.14l0.422-0.428l0.428,0.422l-0.422,0.429L10.081,38.352z M9.075,37.29l-0.199-0.225l0.451-0.399l0.398,0.451l-0.452,0.397
	L9.075,37.29z M40.641,36.7l0.385-0.461l0.461,0.386l-0.191,0.23l-0.193,0.231L40.641,36.7z M8.145,36.161L8.145,36.161
	l-0.183-0.238l0.477-0.366l0.366,0.478l-0.477,0.364L8.145,36.161z M41.53,35.592l0.353-0.486l0.487,0.352l-0.354,0.487
	L41.53,35.592z M7.295,34.972L7.129,34.72l0.502-0.331l0.331,0.5l-0.501,0.333L7.295,34.972z M42.342,34.424l0.319-0.509
	l0.509,0.319l-0.318,0.508L42.342,34.424z M6.53,33.727l-0.149-0.263l0.522-0.296l0.298,0.521l-0.523,0.297L6.53,33.727z
	 M43.071,33.202l0.284-0.53l0.529,0.285l-0.282,0.529L43.071,33.202z M5.852,32.431L5.852,32.431l-0.129-0.271l0.541-0.26
	l0.131,0.271V32.17l0.128,0.273l-0.541,0.258L5.852,32.431z M43.715,31.935l0.247-0.548l0.549,0.246l-0.245,0.547L43.715,31.935z
	 M5.266,31.09l-0.111-0.279l0.558-0.222l0.224,0.559l-0.56,0.222L5.266,31.09z M44.271,30.627l0.104-0.283l0.103-0.282l0.564,0.207
	l-0.104,0.283l-0.104,0.282L44.271,30.627z M4.774,29.711l-0.091-0.285l0.572-0.183l0.184,0.574l-0.573,0.181L4.774,29.711z
	 M44.735,29.28l0.168-0.576l0.577,0.167l-0.083,0.289l-0.083,0.289L44.735,29.28z M4.377,28.304l-0.07-0.292l0.585-0.144
	l0.142,0.585L4.45,28.596L4.377,28.304z M45.105,27.907l0.063-0.294l0.063-0.293l0.588,0.128l-0.127,0.586L45.105,27.907z
	 M4.085,26.903l-0.002,0.002l-0.056-0.329H4.03l-0.042-0.265l0.593-0.095l0.143,0.849l-0.593,0.104L4.085,26.903z M45.38,26.511
	l0.043-0.297l0.043-0.299l0.596,0.087l-0.044,0.297l-0.043,0.299L45.38,26.511z M3.853,25.157l-0.029-0.299l0.599-0.056l0.056,0.6
	L3.88,25.457L3.853,25.157z M45.557,25.102l0.021-0.302l0.022-0.3l0.6,0.046l-0.022,0.3l-0.023,0.3L45.557,25.102z M3.769,23.695
	l-0.007-0.299l0.601-0.015l0.013,0.601l-0.601,0.015L3.769,23.695z M45.634,23.682l0.003-0.602l0.602,0.003l-0.004,0.602
	L45.634,23.682z M3.772,22.533l0.014-0.3l0.013-0.3L4.4,21.959l-0.027,0.603L3.772,22.533z M45.593,21.958l-0.019-0.299l0.601-0.039
	l0.038,0.601l-0.6,0.038L45.593,21.958z M3.869,21.073l0.07-0.597l0.597,0.069l-0.069,0.598L3.869,21.073z M45.455,20.543
	l-0.04-0.298l0.597-0.078l0.079,0.597l-0.596,0.077L45.455,20.543z M4.068,19.622l0.111-0.591l0.592,0.111l-0.112,0.591
	L4.068,19.622z M45.221,19.142l-0.059-0.296l0.589-0.118l0.06,0.294l0.06,0.295l-0.59,0.119L45.221,19.142z M4.368,18.187
	l0.075-0.29l0.077-0.292l0.582,0.153l-0.076,0.291l-0.076,0.29L4.368,18.187z M44.893,17.756l-0.079-0.289l0.579-0.158l0.158,0.579
	l-0.579,0.161L44.893,17.756z M44.469,16.402L44.469,16.402l-0.098-0.285l0.567-0.199l0.198,0.567l-0.567,0.199L44.469,16.402z
	 M6.526,12.763l0.305-0.518l0.52,0.304l-0.305,0.519L6.526,12.763z M42.654,12.551L42.654,12.551l-0.156-0.256l0.515-0.312
	l0.155,0.255l0.156,0.259l-0.515,0.311L42.654,12.551z M7.293,11.516l0.339-0.496l0.496,0.339l-0.17,0.249l-0.169,0.247
	L7.293,11.516z M41.877,11.362l-0.173-0.245l0.49-0.345l0.347,0.49l-0.491,0.346L41.877,11.362z M8.142,10.325l0.372-0.472
	l0.472,0.372l-0.372,0.472L8.142,10.325z M41.018,10.231l-0.189-0.235l0.467-0.378l0.38,0.466l-0.466,0.378L41.018,10.231z
	 M9.07,9.195L9.475,8.75L9.92,9.154L9.518,9.599L9.07,9.195z M40.084,9.159l-0.206-0.22l0.44-0.411l0.41,0.441l-0.438,0.41
	L40.084,9.159z M10.075,8.131l0.433-0.416l0.417,0.432l-0.434,0.418L10.075,8.131z M39.077,8.155L39.077,8.155L38.858,7.95
	l0.41-0.439l0.438,0.408L39.298,8.36L39.077,8.155z M11.148,7.138l0.462-0.386l0.386,0.462l-0.461,0.387L11.148,7.138z
	 M38.006,7.223l-0.232-0.191l0.378-0.466l0.467,0.378l-0.379,0.467L38.006,7.223z M12.289,6.223l0.486-0.354l0.354,0.487
	l-0.244,0.175l-0.243,0.177L12.289,6.223z M36.871,6.365L36.871,6.365l-0.245-0.173L36.972,5.7l0.491,0.347l-0.346,0.491
	L36.871,6.365z M13.49,5.387L14,5.068l0.318,0.511l-0.509,0.319L13.49,5.387z M35.682,5.586l-0.258-0.155l0.312-0.514l0.515,0.312
	l-0.312,0.512L35.682,5.586z M14.744,4.639l0.531-0.284l0.284,0.532l-0.531,0.282L14.744,4.639z M34.44,4.892L34.44,4.892
	l-0.268-0.139l0.276-0.533l0.267,0.137v0.002l0.268,0.136l-0.276,0.533L34.44,4.892z M16.05,3.976l0.549-0.246l0.245,0.55
	l-0.549,0.246L16.05,3.976z M33.154,4.283l-0.276-0.119l0.238-0.553l0.552,0.24l-0.237,0.551L33.154,4.283z M17.398,3.405
	L17.962,3.2l0.207,0.564l-0.564,0.207L17.398,3.405z M31.83,3.766L31.83,3.766l-0.284-0.1l0.199-0.567l0.284,0.099l0.285,0.101
	l-0.2,0.565L31.83,3.766z M18.781,2.933l0.578-0.168l0.167,0.577l-0.577,0.167L18.781,2.933z M30.473,3.34L30.473,3.34l-0.29-0.08
	l0.16-0.579l0.289,0.08l0.29,0.08l-0.16,0.579L30.473,3.34z M20.195,2.552l0.293-0.064l0.294-0.063l0.127,0.589l-0.587,0.127
	L20.195,2.552z M29.088,3.01l-0.294-0.06l0.119-0.59l0.589,0.122L29.383,3.07L29.088,3.01z M21.631,2.272l0.595-0.086l0.087,0.592
	l-0.596,0.088L21.631,2.272z M27.686,2.777L27.686,2.777l-0.299-0.04l0.078-0.594l0.597,0.077l-0.078,0.596L27.686,2.777z
	 M23.082,2.089l0.6-0.048l0.046,0.601l-0.599,0.047L23.082,2.089z M26.27,2.641L26.27,2.641l-0.299-0.018l0.035-0.6l0.601,0.035
	L26.57,2.659L26.27,2.641z M24.543,2.006l0.301-0.004L25.145,2l0.005,0.601l-0.601,0.006L24.543,2.006z"/>
<g>
	<defs>
		<rect id="SVGID_1_" width="50" height="50"/>
	</defs>
	<clipPath id="SVGID_2_">
		<use xlink:href="#SVGID_1_"  style="overflow:visible;"/>
	</clipPath>
	<path style="clip-path:url(#SVGID_2_);fill:#FFFFFF;" d="M5.504,13.713c0,0.636-0.518,1.155-1.154,1.155v0.769
		c0.636,0,1.154,0.519,1.154,1.155h0.77c0-0.636,0.517-1.155,1.155-1.155v-0.769c-0.638,0-1.155-0.519-1.155-1.155H5.504z
		 M5.889,15.65c-0.112-0.151-0.245-0.285-0.396-0.396c0.151-0.114,0.284-0.247,0.396-0.397c0.113,0.15,0.246,0.283,0.396,0.397
		C6.135,15.365,6.001,15.5,5.889,15.65"/>
	<path style="clip-path:url(#SVGID_2_);fill:#FFFFFF;" d="M43.793,13.171c0,0.43-0.351,0.782-0.781,0.782v0.52
		c0.431,0,0.781,0.35,0.781,0.78h0.52c0-0.43,0.351-0.78,0.781-0.78v-0.52c-0.431,0-0.781-0.352-0.781-0.782H43.793z M44.053,14.48
		c-0.076-0.103-0.166-0.192-0.269-0.269c0.103-0.075,0.192-0.165,0.269-0.268c0.076,0.103,0.166,0.193,0.269,0.268
		C44.219,14.289,44.129,14.377,44.053,14.48"/>
	<path style="clip-path:url(#SVGID_2_);fill:#FFFFFF;" d="M39.342,37.142c0,0.479-0.391,0.869-0.87,0.869v0.58
		c0.479,0,0.87,0.39,0.87,0.868h0.579c0-0.479,0.391-0.868,0.869-0.868v-0.58c-0.479,0-0.869-0.391-0.869-0.869H39.342z
		 M39.632,38.6c-0.085-0.113-0.187-0.215-0.3-0.299c0.113-0.084,0.215-0.186,0.3-0.3c0.084,0.114,0.185,0.216,0.299,0.3
		C39.816,38.385,39.716,38.486,39.632,38.6"/>
	<path style="clip-path:url(#SVGID_2_);fill:#FFFFFF;" d="M20.444,28.764l-3.45-3.449v-3.282c0-0.524-0.427-0.95-0.951-0.95
		s-0.951,0.426-0.951,0.95v5.974c0,0.061,0.021,0.12,0.058,0.167l2.387,3.049v2.079c0,0.15,0.122,0.271,0.271,0.271h2.443
		c0.151,0,0.273-0.121,0.273-0.271v-4.344C20.524,28.883,20.496,28.814,20.444,28.764 M19.98,33.029h-1.9v-1.901
		c0-0.061-0.021-0.12-0.058-0.166l-2.386-3.05v-5.88c0-0.225,0.183-0.407,0.407-0.407c0.225,0,0.408,0.182,0.408,0.407v3.395
		c0,0.071,0.028,0.141,0.079,0.191l0.393,0.395c-0.429,0.127-0.745,0.526-0.745,0.995c0,0.279,0.109,0.54,0.305,0.736l1.676,1.675
		l0.384-0.384l-1.675-1.675c-0.095-0.094-0.146-0.219-0.146-0.353c0-0.272,0.223-0.495,0.496-0.495c0.133,0,0.257,0.051,0.351,0.144
		l2.411,2.412V33.029z"/>
	<path style="clip-path:url(#SVGID_2_);fill:#FFFFFF;" d="M33.956,21.082c-0.523,0-0.95,0.426-0.95,0.95v3.282l-3.45,3.449
		c-0.051,0.051-0.08,0.12-0.08,0.193v4.344c0,0.15,0.122,0.271,0.271,0.271h2.444c0.149,0,0.271-0.121,0.271-0.271v-2.079
		l2.387-3.049c0.036-0.047,0.057-0.106,0.057-0.167v-5.974C34.906,21.508,34.48,21.082,33.956,21.082 M34.363,27.912l-2.386,3.05
		c-0.037,0.046-0.058,0.105-0.058,0.166v1.901h-1.901v-3.961l2.412-2.412c0.094-0.093,0.219-0.144,0.35-0.144
		c0.274,0,0.497,0.223,0.497,0.496c0,0.132-0.052,0.257-0.146,0.352l-1.676,1.675l0.385,0.384l1.675-1.675
		c0.196-0.196,0.305-0.457,0.305-0.735c0-0.47-0.314-0.869-0.744-0.996l0.394-0.395c0.051-0.051,0.079-0.12,0.079-0.191v-3.395
		c0-0.224,0.183-0.407,0.407-0.407s0.407,0.183,0.407,0.407V27.912z"/>
	<rect x="24.729" y="28.413" style="clip-path:url(#SVGID_2_);fill:#FFFFFF;" width="0.543" height="0.544"/>
	<rect x="24.729" y="29.5" style="clip-path:url(#SVGID_2_);fill:#FFFFFF;" width="0.543" height="0.543"/>
	<rect x="25.814" y="29.5" style="clip-path:url(#SVGID_2_);fill:#FFFFFF;" width="0.543" height="0.543"/>
	<rect x="23.643" y="29.5" style="clip-path:url(#SVGID_2_);fill:#FFFFFF;" width="0.543" height="0.543"/>
	<rect x="24.729" y="30.585" style="clip-path:url(#SVGID_2_);fill:#FFFFFF;" width="0.543" height="0.543"/>
</g>
<g>
	<defs>
		<rect id="SVGID_3_" x="18.75" y="19.211" width="6.682" height="6.7"/>
	</defs>
	<clipPath id="SVGID_4_">
		<use xlink:href="#SVGID_3_"  style="overflow:visible;"/>
	</clipPath>
	<path style="clip-path:url(#SVGID_4_);fill:#FFFFFF;" d="M25.156,20.55h-0.833v-1.061c0-0.153-0.124-0.277-0.278-0.277h-5.017
		c-0.154,0-0.278,0.124-0.278,0.277v4.821c0,0.154,0.124,0.278,0.278,0.278h2.231v0.751h-0.61c-0.153,0-0.277,0.123-0.277,0.278
		c0,0.154,0.124,0.277,0.277,0.277h1.776c0.154,0,0.278-0.123,0.278-0.277c0-0.155-0.124-0.278-0.278-0.278h-0.609v-0.751h1.245
		v1.029c0,0.154,0.124,0.277,0.278,0.277h1.817c0.153,0,0.277-0.123,0.277-0.277v-4.79C25.434,20.676,25.31,20.55,25.156,20.55
		 M19.307,19.769h4.459v4.263h-4.459V19.769z M24.878,25.34h-1.261v-0.751h0.427c0.154,0,0.278-0.124,0.278-0.277v-3.203h0.554
		v4.231H24.878z"/>
</g>
<g>
	<defs>
		<rect id="SVGID_5_" width="50" height="50"/>
	</defs>
	<clipPath id="SVGID_6_">
		<use xlink:href="#SVGID_5_"  style="overflow:visible;"/>
	</clipPath>
	<path style="clip-path:url(#SVGID_6_);fill:#FFFFFF;" d="M30.908,14.595h-0.54V14.09c0-0.137-0.111-0.248-0.248-0.248h-4.171
		c-0.138,0-0.248,0.111-0.248,0.248v0.505h-0.54c-0.138,0-0.248,0.111-0.248,0.249v10.807c0,0.138,0.11,0.249,0.248,0.249h5.747
		c0.137,0,0.248-0.111,0.248-0.249V14.844C31.156,14.706,31.045,14.595,30.908,14.595 M28.421,25.404h-0.772v-1.705h0.772V25.404z
		 M30.66,25.404h-1.743v-1.952c0-0.138-0.111-0.248-0.248-0.248h-1.27c-0.137,0-0.247,0.11-0.247,0.248v1.952h-1.743V15.091h5.251
		V25.404z M29.872,14.595h-3.676v-0.257h3.676V14.595z"/>
	<path style="clip-path:url(#SVGID_6_);fill:#FFFFFF;" d="M26.558,16.254c-0.137,0-0.247,0.111-0.247,0.248v0.356
		c0,0.136,0.11,0.248,0.247,0.248c0.138,0,0.248-0.112,0.248-0.248v-0.356C26.806,16.365,26.695,16.254,26.558,16.254"/>
	<path style="clip-path:url(#SVGID_6_);fill:#FFFFFF;" d="M27.543,16.254c-0.138,0-0.248,0.111-0.248,0.248v0.356
		c0,0.136,0.11,0.248,0.248,0.248c0.137,0,0.247-0.112,0.247-0.248v-0.356C27.79,16.365,27.68,16.254,27.543,16.254"/>
	<path style="clip-path:url(#SVGID_6_);fill:#FFFFFF;" d="M28.526,16.254c-0.137,0-0.248,0.111-0.248,0.248v0.356
		c0,0.136,0.111,0.248,0.248,0.248s0.248-0.112,0.248-0.248v-0.356C28.774,16.365,28.663,16.254,28.526,16.254"/>
	<path style="clip-path:url(#SVGID_6_);fill:#FFFFFF;" d="M29.511,16.254c-0.137,0-0.248,0.111-0.248,0.248v0.356
		c0,0.136,0.111,0.248,0.248,0.248s0.248-0.112,0.248-0.248v-0.356C29.759,16.365,29.647,16.254,29.511,16.254"/>
	<path style="clip-path:url(#SVGID_6_);fill:#FFFFFF;" d="M26.558,17.479c-0.137,0-0.247,0.111-0.247,0.248v0.356
		c0,0.136,0.11,0.248,0.247,0.248c0.138,0,0.248-0.112,0.248-0.248v-0.356C26.806,17.589,26.695,17.479,26.558,17.479"/>
	<path style="clip-path:url(#SVGID_6_);fill:#FFFFFF;" d="M27.543,17.479c-0.138,0-0.248,0.111-0.248,0.248v0.356
		c0,0.136,0.11,0.248,0.248,0.248c0.137,0,0.247-0.112,0.247-0.248v-0.356C27.79,17.589,27.68,17.479,27.543,17.479"/>
	<path style="clip-path:url(#SVGID_6_);fill:#FFFFFF;" d="M28.526,17.479c-0.137,0-0.248,0.111-0.248,0.248v0.356
		c0,0.136,0.111,0.248,0.248,0.248s0.248-0.112,0.248-0.248v-0.356C28.774,17.589,28.663,17.479,28.526,17.479"/>
	<path style="clip-path:url(#SVGID_6_);fill:#FFFFFF;" d="M29.511,17.479c-0.137,0-0.248,0.111-0.248,0.248v0.356
		c0,0.136,0.111,0.248,0.248,0.248s0.248-0.112,0.248-0.248v-0.356C29.759,17.589,29.647,17.479,29.511,17.479"/>
	<path style="clip-path:url(#SVGID_6_);fill:#FFFFFF;" d="M26.558,18.702c-0.137,0-0.247,0.111-0.247,0.248v0.356
		c0,0.136,0.11,0.247,0.247,0.247c0.138,0,0.248-0.111,0.248-0.247V18.95C26.806,18.813,26.695,18.702,26.558,18.702"/>
	<path style="clip-path:url(#SVGID_6_);fill:#FFFFFF;" d="M27.543,18.702c-0.138,0-0.248,0.111-0.248,0.248v0.356
		c0,0.136,0.11,0.247,0.248,0.247c0.137,0,0.247-0.111,0.247-0.247V18.95C27.79,18.813,27.68,18.702,27.543,18.702"/>
	<path style="clip-path:url(#SVGID_6_);fill:#FFFFFF;" d="M28.526,18.702c-0.137,0-0.248,0.111-0.248,0.248v0.356
		c0,0.136,0.111,0.247,0.248,0.247s0.248-0.111,0.248-0.247V18.95C28.774,18.813,28.663,18.702,28.526,18.702"/>
	<path style="clip-path:url(#SVGID_6_);fill:#FFFFFF;" d="M29.511,18.702c-0.137,0-0.248,0.111-0.248,0.248v0.356
		c0,0.136,0.111,0.247,0.248,0.247s0.248-0.111,0.248-0.247V18.95C29.759,18.813,29.647,18.702,29.511,18.702"/>
	<path style="clip-path:url(#SVGID_6_);fill:#FFFFFF;" d="M26.558,19.927c-0.137,0-0.247,0.111-0.247,0.248v0.356
		c0,0.136,0.11,0.248,0.247,0.248c0.138,0,0.248-0.112,0.248-0.248v-0.356C26.806,20.038,26.695,19.927,26.558,19.927"/>
	<path style="clip-path:url(#SVGID_6_);fill:#FFFFFF;" d="M27.543,19.927c-0.138,0-0.248,0.111-0.248,0.248v0.356
		c0,0.136,0.11,0.248,0.248,0.248c0.137,0,0.247-0.112,0.247-0.248v-0.356C27.79,20.038,27.68,19.927,27.543,19.927"/>
	<path style="clip-path:url(#SVGID_6_);fill:#FFFFFF;" d="M28.526,19.927c-0.137,0-0.248,0.111-0.248,0.248v0.356
		c0,0.136,0.111,0.248,0.248,0.248s0.248-0.112,0.248-0.248v-0.356C28.774,20.038,28.663,19.927,28.526,19.927"/>
	<path style="clip-path:url(#SVGID_6_);fill:#FFFFFF;" d="M29.511,19.927c-0.137,0-0.248,0.111-0.248,0.248v0.356
		c0,0.136,0.111,0.248,0.248,0.248s0.248-0.112,0.248-0.248v-0.356C29.759,20.038,29.647,19.927,29.511,19.927"/>
	<path style="clip-path:url(#SVGID_6_);fill:#FFFFFF;" d="M26.558,21.151c-0.137,0-0.247,0.11-0.247,0.247v0.356
		c0,0.136,0.11,0.248,0.247,0.248c0.138,0,0.248-0.112,0.248-0.248v-0.356C26.806,21.261,26.695,21.151,26.558,21.151"/>
	<path style="clip-path:url(#SVGID_6_);fill:#FFFFFF;" d="M27.543,21.151c-0.138,0-0.248,0.11-0.248,0.247v0.356
		c0,0.136,0.11,0.248,0.248,0.248c0.137,0,0.247-0.112,0.247-0.248v-0.356C27.79,21.261,27.68,21.151,27.543,21.151"/>
	<path style="clip-path:url(#SVGID_6_);fill:#FFFFFF;" d="M28.526,21.151c-0.137,0-0.248,0.11-0.248,0.247v0.356
		c0,0.136,0.111,0.248,0.248,0.248s0.248-0.112,0.248-0.248v-0.356C28.774,21.261,28.663,21.151,28.526,21.151"/>
	<path style="clip-path:url(#SVGID_6_);fill:#FFFFFF;" d="M29.511,21.151c-0.137,0-0.248,0.11-0.248,0.247v0.356
		c0,0.136,0.111,0.248,0.248,0.248s0.248-0.112,0.248-0.248v-0.356C29.759,21.261,29.647,21.151,29.511,21.151"/>
</g>
<g>
	<defs>
		<rect id="SVGID_7_" x="21.205" y="37.892" width="8.312" height="10.108"/>
	</defs>
	<clipPath id="SVGID_8_">
		<use xlink:href="#SVGID_7_"  style="overflow:visible;"/>
	</clipPath>
	<path style="clip-path:url(#SVGID_8_);fill:#FFFFFF;" d="M29.289,39.133c-1.257-0.079-2.543-0.483-3.822-1.203
		c-0.068-0.038-0.151-0.038-0.22,0c-1.279,0.72-2.565,1.124-3.822,1.203c-0.118,0.007-0.21,0.105-0.21,0.224v4.254
		c0,0.704,0.22,1.374,0.652,1.991c0.341,0.484,0.814,0.937,1.404,1.345c0.995,0.686,1.976,1.006,2.017,1.02
		c0.021,0.007,0.046,0.01,0.068,0.01c0.023,0,0.047-0.003,0.069-0.01c0.041-0.014,1.021-0.334,2.017-1.02
		c0.591-0.408,1.063-0.86,1.403-1.345c0.435-0.617,0.653-1.287,0.653-1.991v-4.254C29.499,39.238,29.407,39.14,29.289,39.133
		 M29.051,43.61c0,1.114-0.623,2.11-1.854,2.961c-0.796,0.551-1.604,0.859-1.841,0.944c-0.235-0.084-1.036-0.39-1.832-0.938
		c-1.236-0.853-1.863-1.851-1.863-2.967v-4.046c1.222-0.11,2.463-0.508,3.695-1.183c1.232,0.675,2.474,1.072,3.694,1.183V43.61z"/>
</g>
<g>
	<defs>
		<rect id="SVGID_9_" width="50" height="50"/>
	</defs>
	<clipPath id="SVGID_10_">
		<use xlink:href="#SVGID_9_"  style="overflow:visible;"/>
	</clipPath>
	<path style="clip-path:url(#SVGID_10_);fill:#FFFFFF;" d="M26.193,43.771c-0.031-0.19-0.064-0.386-0.093-0.579
		c0.373-0.248,0.6-0.662,0.6-1.118c0-0.74-0.603-1.344-1.344-1.344c-0.741,0-1.343,0.604-1.343,1.344c0,0.456,0.226,0.87,0.6,1.118
		c-0.03,0.193-0.062,0.389-0.093,0.579c-0.066,0.39-0.133,0.792-0.17,1.19c-0.007,0.063,0.014,0.126,0.057,0.173
		c0.042,0.047,0.103,0.072,0.165,0.072h1.567c0.063,0,0.124-0.025,0.166-0.072c0.043-0.047,0.063-0.109,0.059-0.173
		C26.325,44.563,26.258,44.161,26.193,43.771 M25.635,43.105c0.034,0.247,0.077,0.498,0.117,0.739
		c0.05,0.302,0.102,0.61,0.139,0.915h-1.068c0.038-0.305,0.089-0.613,0.139-0.915c0.04-0.241,0.082-0.492,0.116-0.739
		c0.014-0.096-0.035-0.187-0.121-0.229c-0.305-0.154-0.496-0.461-0.496-0.802c0-0.494,0.403-0.896,0.896-0.896
		c0.494,0,0.896,0.402,0.896,0.896c0,0.341-0.189,0.647-0.495,0.802C25.671,42.919,25.622,43.01,25.635,43.105"/>
	<path style="clip-path:url(#SVGID_10_);fill:#FFFFFF;" d="M25.255,38.941c-0.98,0.501-1.976,0.836-2.956,0.993
		c-0.108,0.018-0.189,0.112-0.189,0.221v3.455c0,0.95,0.55,1.816,1.636,2.575c0.598,0.418,1.214,0.692,1.527,0.819
		c0.026,0.011,0.056,0.017,0.083,0.017c0.029,0,0.058-0.006,0.084-0.017c0.165-0.066,0.423-0.179,0.715-0.33
		c0.109-0.057,0.152-0.192,0.096-0.303c-0.058-0.109-0.192-0.152-0.302-0.094c-0.231,0.119-0.439,0.213-0.593,0.276
		c-0.313-0.131-0.841-0.378-1.354-0.736c-0.959-0.67-1.445-1.412-1.445-2.208v-3.266c0.931-0.171,1.872-0.49,2.798-0.953
		c0.928,0.463,1.867,0.782,2.799,0.953v3.266c0,0.589-0.269,1.153-0.798,1.677c-0.088,0.087-0.089,0.229-0.002,0.317
		c0.088,0.088,0.229,0.088,0.316,0.001c0.618-0.61,0.932-1.281,0.932-1.995v-3.455c0-0.108-0.08-0.203-0.188-0.221
		c-0.98-0.157-1.976-0.492-2.956-0.993C25.395,38.909,25.319,38.909,25.255,38.941"/>
	<path style="clip-path:url(#SVGID_10_);fill:#FFFFFF;" d="M26.673,45.847c-0.007,0.007-0.015,0.014-0.021,0.021
		c-0.088,0.086-0.089,0.229-0.001,0.316c0.043,0.043,0.1,0.065,0.158,0.065c0.057,0,0.113-0.021,0.157-0.064
		c0.008-0.009,0.016-0.016,0.023-0.023c0.088-0.088,0.087-0.23-0.001-0.317C26.902,45.758,26.76,45.759,26.673,45.847"/>
</g>
</svg>
