<?xml version="1.0" encoding="iso-8859-1"?>
<!-- Generator: Adobe Illustrator 15.1.0, SVG Export Plug-In . SVG Version: 6.00 Build 0)  -->
<!DOCTYPE svg PUBLIC "-//W3C//DTD SVG 1.1//EN" "http://www.w3.org/Graphics/SVG/1.1/DTD/svg11.dtd">
<svg version="1.1" id="Layer_1" xmlns="http://www.w3.org/2000/svg" xmlns:xlink="http://www.w3.org/1999/xlink" x="0px" y="0px"
	 width="50px" height="50px" viewBox="0 0 50 50" style="enable-background:new 0 0 50 50;" xml:space="preserve">
<path style="fill:#FFFFFF;" d="M23.075,45.495L23.075,45.495l-0.289-0.006l0.011-0.579l0.289,0.006l0.29,0.006l-0.011,0.579
	L23.075,45.495z M24.167,44.91l0.581-0.029l0.029,0.579l-0.58,0.029L24.167,44.91z M21.665,45.419L21.665,45.419l-0.29-0.027
	l0.053-0.577l0.576,0.053l-0.05,0.577L21.665,45.419z M25.538,44.814l0.577-0.068l0.066,0.577l-0.288,0.033l-0.287,0.035
	L25.538,44.814z M20.263,45.243l-0.287-0.045l0.092-0.573l0.573,0.092l-0.092,0.573L20.263,45.243z M26.898,44.627l0.57-0.107
	l0.107,0.57l-0.57,0.106L26.898,44.627z M18.875,44.973v0.002l-0.284-0.067l0.133-0.564l0.564,0.131l-0.132,0.565L18.875,44.973z
	 M17.512,44.605l-0.279-0.084l0.17-0.555l0.556,0.17l-0.171,0.554L17.512,44.605z M13.613,42.954L13.613,42.954l-0.253-0.139
	l0.28-0.509l0.254,0.14h-0.002l0.256,0.141l-0.281,0.508L13.613,42.954z M12.4,42.231v-0.002l-0.243-0.156l0.313-0.487l0.489,0.315
	l-0.315,0.486L12.4,42.231z M11.241,41.424v0.002l-0.231-0.175l0.346-0.465l0.465,0.347l-0.347,0.465L11.241,41.424z M10.139,40.543
	l-0.221-0.19l0.379-0.439l0.442,0.377l-0.379,0.441L10.139,40.543z M9.1,39.585l-0.207-0.202L9.3,38.969l0.412,0.408L9.307,39.79
	L9.1,39.585z M37.669,39.002l0.402-0.419l0.419,0.403l-0.402,0.417L37.669,39.002z M8.128,38.561l-0.192-0.217l0.436-0.385
	l0.383,0.435l-0.433,0.385L8.128,38.561z M38.598,37.993l0.188-0.224l0.186-0.223l0.444,0.372l-0.185,0.223l-0.186,0.224
	L38.598,37.993z M7.23,37.471L7.23,37.471l-0.177-0.229l0.46-0.354l0.355,0.46l-0.46,0.354L7.23,37.471z M39.456,36.923l0.172-0.234
	l0.17-0.236l0.471,0.342l-0.341,0.469L39.456,36.923z M6.413,36.323L6.413,36.323L6.25,36.082l0.484-0.321l0.322,0.483l-0.483,0.32
	L6.413,36.323z M40.242,35.795l0.307-0.491l0.491,0.307l-0.306,0.492L40.242,35.795z M5.67,35.121L5.67,35.121l-0.143-0.252
	l0.507-0.287l0.286,0.506l-0.506,0.286L5.67,35.121z M40.945,34.617l0.273-0.512l0.512,0.272l-0.273,0.513L40.945,34.617z
	 M5.019,33.871L5.019,33.871l-0.126-0.262l0.524-0.252l0.124,0.263l0.127,0.261l-0.524,0.251L5.019,33.871z M41.568,33.392
	l0.236-0.527l0.531,0.237l-0.238,0.528L41.568,33.392z M4.454,32.577l-0.11-0.27l0.541-0.215l0.108,0.271l0.106,0.27L4.56,32.848
	L4.454,32.577z M42.104,32.13l0.202-0.546l0.544,0.201l-0.2,0.544L42.104,32.13z M3.977,31.247L3.977,31.247l-0.088-0.276
	l0.553-0.177l0.177,0.555l-0.552,0.175L3.977,31.247z M42.553,30.831l0.082-0.278l0.08-0.279l0.557,0.163l-0.162,0.558
	L42.553,30.831z M3.596,29.888L3.596,29.888l-0.07-0.282l0.563-0.138l0.139,0.563L3.665,30.17L3.596,29.888z M42.91,29.506
	l0.123-0.567l0.565,0.122l-0.122,0.567L42.91,29.506z M3.312,28.538L3.312,28.538L3.255,28.22h0.004l-0.043-0.256l0.574-0.092
	l0.088,0.535l0.049,0.285l-0.572,0.1L3.312,28.538z M43.174,28.156l0.082-0.572l0.575,0.083l-0.084,0.573L43.174,28.156z
	 M3.087,26.851l-0.026-0.289l0.577-0.054l0.052,0.578L3.116,27.14L3.087,26.851z M43.344,26.796l0.043-0.578l0.579,0.043
	l-0.042,0.579L43.344,26.796z M3.005,25.439L3.005,25.439L3,25.15l0.581-0.014l0.013,0.581l-0.581,0.012L3.005,25.439z
	 M3.009,24.317l0.027-0.579l0.579,0.028l-0.028,0.579L3.009,24.317z M3.104,22.908l0.033-0.287l0.035-0.29L3.748,22.4L3.68,22.977
	L3.104,22.908z M3.294,21.507l0.109-0.568l0.571,0.106l-0.107,0.569L3.294,21.507z M3.583,20.124l0.147-0.562l0.562,0.146
	l-0.146,0.563L3.583,20.124z M3.968,18.765l0.186-0.551l0.549,0.185L4.52,18.948L3.968,18.765z M4.446,17.434l0.221-0.536
	l0.538,0.221l-0.224,0.536L4.446,17.434z M41.799,17.12l-0.115-0.265l0.531-0.23l0.23,0.532l-0.533,0.23L41.799,17.12z M5.014,16.14
	l0.258-0.521l0.521,0.259l-0.259,0.521L5.014,16.14z M41.213,15.88L41.213,15.88l-0.134-0.258l0.518-0.266l0.132,0.257l0.133,0.258
	l-0.516,0.267L41.213,15.88z M5.668,14.889l0.294-0.501l0.5,0.293l-0.146,0.251l-0.147,0.251L5.668,14.889z M40.543,14.684
	L40.543,14.684l-0.149-0.249l0.495-0.301l0.151,0.248l0.149,0.249l-0.496,0.301L40.543,14.684z M39.79,13.536v-0.001l-0.166-0.236
	l0.476-0.335l0.167,0.238V13.2l0.167,0.238l-0.474,0.336L39.79,13.536z M7.228,12.534l0.36-0.456l0.455,0.361l-0.358,0.456
	L7.228,12.534z M38.965,12.442L38.965,12.442l-0.184-0.224l0.449-0.367l0.184,0.225l0.182,0.225l-0.45,0.367L38.965,12.442z
	 M8.125,11.443l0.391-0.43l0.43,0.389l-0.391,0.432L8.125,11.443z M38.063,11.408l-0.198-0.21l0.424-0.397l0.198,0.212l0.199,0.212
	l-0.424,0.396L38.063,11.408z M9.093,10.416l0.42-0.402l0.401,0.42l-0.418,0.4L9.093,10.416z M37.092,10.44L37.092,10.44
	l-0.213-0.198l0.396-0.425l0.212,0.198v0.001l0.212,0.198l-0.396,0.423L37.092,10.44z M10.13,9.459l0.446-0.373L10.95,9.53
	l-0.222,0.187l-0.224,0.186L10.13,9.459z M36.056,9.539L35.83,9.357l0.365-0.452l0.451,0.367l-0.365,0.451L36.056,9.539z
	 M11.231,8.574l0.471-0.34l0.34,0.468l-0.47,0.342L11.231,8.574z M12.391,7.768l0.246-0.154l0.246-0.154l0.308,0.492l-0.247,0.155
	h0.002L12.699,8.26L12.391,7.768z M33.812,7.961L33.812,7.961L33.563,7.81l0.303-0.495l0.495,0.299l-0.3,0.497L33.812,7.961z
	 M13.602,7.046l0.513-0.274l0.272,0.512l-0.513,0.272L13.602,7.046z M32.613,7.29L32.613,7.29l-0.256-0.133l0.265-0.516l0.259,0.134
	l0.258,0.132l-0.266,0.517L32.613,7.29z M14.863,6.406l0.527-0.237l0.237,0.53l-0.53,0.238L14.863,6.406z M31.373,6.703
	L31.373,6.703l-0.266-0.114l0.229-0.533l0.267,0.115V6.17l0.267,0.115L31.64,6.818L31.373,6.703z M16.164,5.856l0.545-0.2
	l0.199,0.546l-0.546,0.199L16.164,5.856z M30.094,6.204L30.094,6.204L29.82,6.108l0.193-0.549l0.272,0.096l0.274,0.097L30.368,6.3
	L30.094,6.204z M17.5,5.398l0.555-0.162l0.162,0.557l-0.556,0.161L17.5,5.398z M28.785,5.793L28.785,5.793l-0.281-0.077l0.154-0.56
	l0.561,0.155L29.064,5.87L28.785,5.793z M18.863,5.032l0.283-0.059V4.971L19.43,4.91l0.124,0.567L18.986,5.6L18.863,5.032z
	 M27.448,5.473l-0.285-0.057l0.115-0.567l0.569,0.114L27.732,5.53L27.448,5.473z M20.249,4.763l0.575-0.086l0.085,0.574L20.62,5.293
	l-0.288,0.042L20.249,4.763z M26.094,5.248L25.807,5.21l0.075-0.574l0.573,0.075l-0.072,0.575L26.094,5.248z M21.65,4.585
	l0.578-0.045l0.047,0.577l-0.582,0.046L21.65,4.585z M24.727,5.117L24.438,5.1l0.035-0.579l0.288,0.017l0.291,0.019l-0.035,0.578
	L24.727,5.117z M23.061,4.505l0.58-0.006l0.006,0.581l-0.581,0.004L23.061,4.505z"/>
<g>
	<defs>
		<rect id="SVGID_1_" width="50" height="50"/>
	</defs>
	<clipPath id="SVGID_2_">
		<use xlink:href="#SVGID_1_"  style="overflow:visible;"/>
	</clipPath>
	<path style="clip-path:url(#SVGID_2_);fill:#FFFFFF;" d="M7.73,13.68v-0.39c-0.4-0.029-0.721-0.35-0.75-0.751H6.59
		c-0.029,0.401-0.35,0.722-0.75,0.751v0.39c0.4,0.029,0.721,0.351,0.75,0.752h0.39C7.009,14.031,7.33,13.709,7.73,13.68
		 M7.078,13.531c-0.093,0.071-0.176,0.154-0.246,0.248l-0.047,0.063l-0.047-0.063c-0.068-0.094-0.152-0.177-0.246-0.248L6.43,13.484
		l0.062-0.046c0.094-0.069,0.178-0.152,0.246-0.247l0.047-0.062l0.047,0.062c0.07,0.095,0.153,0.178,0.246,0.247l0.062,0.046
		L7.078,13.531z"/>
	<path style="clip-path:url(#SVGID_2_);fill:#FFFFFF;" d="M17.15,43.798v-0.521c-0.585-0.056-1.054-0.522-1.109-1.109H15.52
		c-0.055,0.587-0.522,1.054-1.107,1.109v0.521c0.585,0.055,1.052,0.523,1.107,1.108h0.522C16.096,44.321,16.565,43.853,17.15,43.798
		 M16.233,43.63c-0.137,0.101-0.257,0.222-0.36,0.359l-0.092,0.125l-0.094-0.125c-0.103-0.138-0.223-0.259-0.358-0.359l-0.125-0.093
		l0.125-0.094c0.135-0.101,0.257-0.222,0.358-0.358l0.094-0.125l0.092,0.125c0.103,0.137,0.223,0.258,0.36,0.358l0.125,0.094
		L16.233,43.63z"/>
	<path style="clip-path:url(#SVGID_2_);fill:#FFFFFF;" d="M35.877,8.633V8.272c-0.377-0.028-0.679-0.33-0.707-0.706h-0.359
		c-0.027,0.376-0.33,0.678-0.707,0.706v0.361c0.377,0.028,0.68,0.33,0.707,0.706h0.359C35.198,8.963,35.5,8.661,35.877,8.633
		 M35.268,8.499c-0.088,0.065-0.166,0.144-0.231,0.231l-0.045,0.063L34.944,8.73c-0.066-0.087-0.144-0.166-0.231-0.231l-0.063-0.046
		l0.063-0.047c0.088-0.066,0.165-0.143,0.231-0.231l0.047-0.064l0.045,0.064c0.065,0.089,0.144,0.166,0.231,0.231l0.064,0.047
		L35.268,8.499z"/>
	<path style="clip-path:url(#SVGID_2_);fill:#FFFFFF;" d="M19.279,29.2c0,0.673-1.256,1.422-3.058,1.422
		c-1.803,0-3.059-0.749-3.059-1.422v-0.734l0.096,0.082c0.634,0.543,1.742,0.867,2.963,0.867c1.085,0,2.078-0.257,2.732-0.693
		v-0.549c-0.486,0.448-1.475,0.813-2.732,0.813c-1.803,0-3.059-0.749-3.059-1.422v-0.734l0.096,0.082
		c0.634,0.542,1.742,0.867,2.963,0.867c0.884,0,1.708-0.172,2.337-0.471v-0.488c-0.543,0.31-1.359,0.529-2.337,0.529
		c-1.803,0-3.059-0.749-3.059-1.422v-0.735l0.096,0.082c0.634,0.543,1.742,0.868,2.963,0.868c0.884,0,1.708-0.172,2.337-0.471
		v-0.489c-0.543,0.31-1.359,0.53-2.337,0.53c-1.803,0-3.059-0.749-3.059-1.422c0-0.623,1.064-1.341,2.784-1.415h0.549
		c0.876,0.038,1.582,0.243,2.063,0.516v-0.483c-0.551-0.263-1.265-0.431-2.066-0.463h-0.544c-1.832,0.073-3.216,0.865-3.216,1.845
		v4.91c0,1.039,1.532,1.852,3.489,1.852c1.956,0,3.49-0.813,3.49-1.852v-0.343h-0.432V29.2z"/>
	<path style="clip-path:url(#SVGID_2_);fill:#FFFFFF;" d="M22.698,24.717c0.544,0,0.986-0.441,0.986-0.985
		c0-0.543-0.442-0.986-0.986-0.986s-0.985,0.443-0.985,0.986C21.713,24.275,22.154,24.717,22.698,24.717 M22.698,23.14
		c0.327,0,0.591,0.266,0.591,0.592c0,0.326-0.264,0.591-0.591,0.591c-0.325,0-0.591-0.265-0.591-0.591
		C22.107,23.406,22.373,23.14,22.698,23.14"/>
	<rect x="22.502" y="23.533" style="clip-path:url(#SVGID_2_);fill:#FFFFFF;" width="0.394" height="0.395"/>
	<path style="clip-path:url(#SVGID_2_);fill:#FFFFFF;" d="M30.781,25.702v-1.971h-0.563c-0.034-0.1-0.075-0.196-0.118-0.29
		l0.396-0.397l-1.393-1.395l-0.398,0.399c-0.094-0.045-0.19-0.085-0.289-0.119v-0.564H26.84v-4.731h-8.281v6.274
		c0.143,0.067,0.274,0.141,0.395,0.221v-1.371h6.695l-1.285,1.286l0.398,0.397c-0.045,0.094-0.084,0.19-0.119,0.29h-0.564v1.971
		h0.564c0.035,0.1,0.074,0.196,0.119,0.289l-0.398,0.398l1.285,1.284H19.71v0.395h0.425v0.395H19.71v0.395h0.819v-0.789h4.338v0.789
		h1.576v-0.789h1.973v-0.564c0.099-0.035,0.195-0.075,0.289-0.119l0.398,0.398l1.393-1.394L30.1,25.991
		c0.043-0.094,0.084-0.189,0.118-0.289H30.781z M18.954,17.03h7.49v1.181h-0.393v-0.788h-0.396v0.788h-0.392v-0.788h-0.395v0.788
		h-0.394v-0.788h-0.395v0.788h-0.394v-0.788H23.29v0.788h-4.336V17.03z M18.954,18.605h7.49v1.183h-0.393V19h-0.396v0.789h-0.392V19
		h-0.395v0.789h-0.394V19h-0.395v0.789h-0.394V19H23.29v0.789h-4.336V18.605z M25.263,21.366v-0.788h-0.395v0.788h-0.394v-0.788
		h-0.395v0.788h-0.394v-0.788H23.29v0.788h-4.336v-1.183h7.49v1.183h-0.393v-0.788h-0.396v0.788H25.263z M26.443,21.759v0.171
		c-0.098,0.034-0.194,0.074-0.288,0.119l-0.288-0.29H26.443z M26.051,28.463h-0.788v-0.396h0.788V28.463z M26.443,27.674h-0.576
		l0.288-0.289c0.094,0.044,0.19,0.084,0.288,0.119V27.674z M29.939,26.39l-0.836,0.837l-0.325-0.324l-0.129,0.069
		c-0.151,0.082-0.314,0.148-0.487,0.2l-0.14,0.042v0.46H26.84v-0.46l-0.143-0.042c-0.172-0.052-0.335-0.118-0.486-0.2l-0.129-0.069
		l-0.325,0.324L24.92,26.39l0.326-0.324l-0.07-0.13c-0.082-0.151-0.15-0.315-0.2-0.486l-0.043-0.142h-0.459v-1.182h0.459
		l0.043-0.141c0.05-0.172,0.118-0.336,0.2-0.487l0.07-0.129l-0.326-0.325l0.836-0.837l0.325,0.326l0.129-0.071
		c0.151-0.082,0.314-0.148,0.486-0.2l0.143-0.042v-0.461h1.183v0.461l0.14,0.042c0.173,0.052,0.336,0.119,0.487,0.2l0.129,0.071
		l0.325-0.325l0.836,0.837l-0.326,0.324l0.07,0.129c0.084,0.151,0.151,0.315,0.202,0.487l0.042,0.141h0.461v1.182h-0.461
		l-0.042,0.142c-0.051,0.171-0.118,0.336-0.202,0.486l-0.07,0.13L29.939,26.39z"/>
	<path style="clip-path:url(#SVGID_2_);fill:#FFFFFF;" d="M18.953,27.086c-0.121,0.08-0.252,0.154-0.395,0.222v0.761h0.395v0.104
		c0.174-0.16,0.281-0.331,0.314-0.499h-0.314V27.086z"/>
	<path style="clip-path:url(#SVGID_2_);fill:#FFFFFF;" d="M19.279,28.857v-0.393l-0.095,0.083c-0.071,0.061-0.149,0.118-0.231,0.174
		v0.136H19.279z"/>
	<path style="clip-path:url(#SVGID_2_);fill:#FFFFFF;" d="M18.953,23.676c-0.107-0.1-0.238-0.195-0.395-0.284v1.79
		c0.155-0.087,0.288-0.182,0.395-0.282V23.676z"/>
	<path style="clip-path:url(#SVGID_2_);fill:#FFFFFF;" d="M18.953,25.448c-0.121,0.08-0.252,0.154-0.395,0.223v1.148
		c0.155-0.088,0.288-0.185,0.395-0.283V25.448z"/>
	<path style="clip-path:url(#SVGID_2_);fill:#FFFFFF;" d="M18.953,23.676V23.13c-0.121-0.08-0.252-0.154-0.395-0.222v0.484
		C18.715,23.481,18.846,23.576,18.953,23.676"/>
	<path style="clip-path:url(#SVGID_2_);fill:#FFFFFF;" d="M19.347,28.463v-0.395h0.364v-0.395h-0.443
		c-0.033,0.168-0.141,0.339-0.315,0.499v0.549c0.082-0.056,0.161-0.112,0.232-0.174l0.095-0.083v0.393h0.431v-0.395H19.347z"/>
	<path style="clip-path:url(#SVGID_2_);fill:#FFFFFF;" d="M18.953,24.899c-0.107,0.101-0.24,0.195-0.395,0.282v0.488
		c0.143-0.067,0.274-0.142,0.395-0.222V24.899z"/>
	<path style="clip-path:url(#SVGID_2_);fill:#FFFFFF;" d="M18.953,26.536c-0.107,0.1-0.24,0.195-0.395,0.283v0.487
		c0.143-0.066,0.274-0.141,0.395-0.221V26.536z"/>
	<path style="clip-path:url(#SVGID_2_);fill:#FFFFFF;" d="M27.43,22.942c-0.978,0-1.775,0.796-1.775,1.775
		c0,0.978,0.798,1.774,1.775,1.774c0.979,0,1.775-0.796,1.775-1.774C29.205,23.738,28.409,22.942,27.43,22.942 M28.795,24.914
		c-0.033,0.232-0.125,0.447-0.26,0.627l-0.27-0.268l-0.278,0.279l0.267,0.268c-0.18,0.135-0.394,0.227-0.627,0.261v-0.379h-0.395
		v0.379c-0.232-0.034-0.446-0.126-0.627-0.261l0.268-0.268l-0.279-0.279l-0.267,0.268c-0.137-0.18-0.228-0.395-0.262-0.627h0.378
		V24.52h-0.378c0.034-0.234,0.125-0.448,0.262-0.628l0.267,0.267l0.279-0.278l-0.268-0.269c0.181-0.135,0.395-0.226,0.627-0.259
		v0.378h0.395v-0.378c0.233,0.033,0.447,0.124,0.627,0.259l-0.267,0.269l0.278,0.278l0.27-0.267c0.135,0.18,0.227,0.394,0.26,0.628
		h-0.379v0.394H28.795z"/>
	<path style="clip-path:url(#SVGID_2_);fill:#FFFFFF;" d="M37.257,30.905h-0.374v0.63h0.374v12.818h-0.862V26.717l0.015-0.017
		c0.252-0.28,0.503-0.535,0.728-0.74h-1.232c-0.032,0.025-0.065,0.05-0.099,0.076l-0.015,0.012h-0.029v0.021l-0.021,0.018
		c-0.99,0.781-2.459,2.118-3.824,4.046l-0.018,0.024H30.16v0.632h1.311l-0.057,0.09c-1.825,2.856-2.75,5.989-2.75,9.307
		c0,1.877,0.375,3.369,0.596,4.093l0.022,0.075h-0.519v-0.059l-0.031,0.69h9.229v-0.632h-0.073V31.535h0.747v-0.63h-0.747V25.96
		h-0.631V30.905z M32.69,30.065c0.522-0.705,1.097-1.377,1.708-2l0.091,0.073c-0.435,0.627-0.838,1.295-1.2,1.987l-0.016,0.031
		h-0.651L32.69,30.065z M29.949,44.354l-0.014-0.04c-0.193-0.577-0.641-2.136-0.641-4.128c0-3.365,0.965-6.519,2.867-9.37
		l0.016-0.026h0.777l-0.037,0.083c-1.336,2.826-2.013,5.96-2.013,9.313c0,1.877,0.374,3.369,0.597,4.093l0.023,0.075H29.949z
		 M35.316,35.015h-3.164l0.018-0.072c0.19-0.771,0.426-1.53,0.699-2.26l0.031-0.085L35.316,35.015z M35.316,39.496h-3.768
		l0.002-0.06c0.035-1.096,0.152-2.184,0.344-3.232l0.02-0.109L35.316,39.496z M32.189,44.354l-0.013-0.04
		c-0.165-0.495-0.558-1.836-0.628-3.585l-0.006-0.148l3.773,3.773H32.189z M35.762,43.907l-3.779-3.78h3.779V43.907z M35.762,39.051
		l-3.404-3.406h3.404V39.051z M35.762,34.567l-2.607-2.608l0.016-0.036c0.158-0.375,0.326-0.745,0.5-1.102l0.017-0.032h2.075V34.567
		z M35.762,30.157H34.01l0.047-0.085c0.479-0.88,1.018-1.71,1.601-2.47l0.104-0.135V30.157z"/>
	<rect x="29.785" y="39.496" style="clip-path:url(#SVGID_2_);fill:#FFFFFF;" width="0.631" height="0.631"/>
	<rect x="29.785" y="38.002" style="clip-path:url(#SVGID_2_);fill:#FFFFFF;" width="0.631" height="0.632"/>
	<rect x="29.785" y="40.991" style="clip-path:url(#SVGID_2_);fill:#FFFFFF;" width="0.631" height="0.63"/>
	<rect x="30.16" y="42.485" style="clip-path:url(#SVGID_2_);fill:#FFFFFF;" width="0.63" height="0.632"/>
	<rect x="30.16" y="36.509" style="clip-path:url(#SVGID_2_);fill:#FFFFFF;" width="0.63" height="0.631"/>
	<rect x="30.533" y="35.015" style="clip-path:url(#SVGID_2_);fill:#FFFFFF;" width="0.631" height="0.63"/>
	<path style="clip-path:url(#SVGID_2_);fill:#FFFFFF;" d="M37.257,25.85l-0.097,0.088c-0.008,0.008-0.016,0.016-0.023,0.022h0.12
		V25.85z"/>
	<path style="clip-path:url(#SVGID_2_);fill:#FFFFFF;" d="M44.408,20.775h-0.125l-0.012-0.104c-0.191-1.705-1.629-2.992-3.348-2.992
		c-1.164,0-2.227,0.589-2.846,1.575l-0.047,0.075l-0.086-0.026c-0.164-0.05-0.334-0.075-0.504-0.075
		c-0.875,0-1.629,0.624-1.787,1.485l-0.022,0.112l-0.11-0.018c-0.135-0.021-0.27-0.032-0.402-0.032c-1.43,0-2.592,1.163-2.592,2.593
		c0,1.428,1.162,2.592,2.592,2.592h0.785c0.262-0.2,0.517-0.385,0.754-0.541h-1.539c-1.131,0-2.05-0.919-2.05-2.051
		c0-1.131,0.919-2.051,2.05-2.051c0.234,0,0.469,0.041,0.696,0.124c0.089,0.031,0.184,0.017,0.259-0.041
		c0.073-0.057,0.113-0.146,0.104-0.237l-0.014-0.117c0-0.704,0.574-1.277,1.277-1.277c0.197,0,0.393,0.05,0.584,0.149
		c0.066,0.034,0.141,0.04,0.209,0.017c0.068-0.022,0.127-0.072,0.158-0.138c0.482-0.97,1.452-1.576,2.531-1.576
		c1.559,0,2.824,1.263,2.824,2.815c0,0.016-0.001,0.038-0.001,0.047c0,0.079,0.035,0.154,0.097,0.206
		c0.061,0.05,0.143,0.072,0.221,0.059c0.125-0.021,0.236-0.031,0.344-0.031c1.131,0,2.05,0.92,2.05,2.051
		c0,1.131-0.919,2.051-2.05,2.051h-6.521v0.541h1.489v0.116h0.774V25.96h4.258c1.428,0,2.592-1.164,2.592-2.592
		C47,21.938,45.836,20.775,44.408,20.775"/>
	<path style="clip-path:url(#SVGID_2_);fill:#FFFFFF;" d="M36.658,25.419c-0.237,0.156-0.492,0.341-0.754,0.541h1.232
		c0.008-0.007,0.017-0.015,0.023-0.022l0.097-0.088v0.11h0.63v-0.541H36.658z"/>
	<rect x="44.136" y="22.323" style="clip-path:url(#SVGID_2_);fill:#FFFFFF;" width="0.542" height="0.542"/>
	<rect x="44.136" y="23.87" style="clip-path:url(#SVGID_2_);fill:#FFFFFF;" width="0.542" height="0.543"/>
	<rect x="42.59" y="23.87" style="clip-path:url(#SVGID_2_);fill:#FFFFFF;" width="0.54" height="0.543"/>
</g>
</svg>
