<?xml version="1.0" encoding="iso-8859-1"?>
<!-- Generator: Adobe Illustrator 15.1.0, SVG Export Plug-In . SVG Version: 6.00 Build 0)  -->
<!DOCTYPE svg PUBLIC "-//W3C//DTD SVG 1.1//EN" "http://www.w3.org/Graphics/SVG/1.1/DTD/svg11.dtd">
<svg version="1.1" id="Layer_1" xmlns="http://www.w3.org/2000/svg" xmlns:xlink="http://www.w3.org/1999/xlink" x="0px" y="0px"
	 width="50px" height="50px" viewBox="0 0 50 50" style="enable-background:new 0 0 50 50;" xml:space="preserve">
<path style="fill:#FFFFFF;" d="M22.075,46.154L22.075,46.154l-0.307-0.042l0.082-0.613l0.614,0.083l-0.083,0.613L22.075,46.154z
	 M27.693,45.557l0.615-0.087l0.088,0.613l-0.613,0.087L27.693,45.557z M20.586,45.902l-0.303-0.063l0.124-0.606l0.607,0.124
	l-0.126,0.606L20.586,45.902z M29.142,45.322l0.303-0.064h-0.001l0.305-0.064l0.129,0.605l-0.304,0.064l-0.305,0.064L29.142,45.322z
	 M19.118,45.549L19.118,45.549l-0.298-0.083l0.166-0.597l0.597,0.166l-0.166,0.597L19.118,45.549z M30.569,44.991l0.299-0.085
	l0.297-0.086l0.17,0.599l-0.299,0.083l-0.3,0.085L30.569,44.991z M17.681,45.095l-0.293-0.104l0.206-0.585l0.585,0.208l-0.207,0.583
	L17.681,45.095z M31.971,44.563l0.583-0.211l0.21,0.584l-0.585,0.21L31.971,44.563z M16.277,44.541l-0.285-0.122l0.245-0.569
	l0.571,0.247l-0.247,0.569L16.277,44.541z M33.339,44.038l0.567-0.249l0.251,0.567l-0.568,0.249L33.339,44.038z M14.912,43.896
	l-0.274-0.144l0.286-0.549l0.549,0.283l-0.286,0.55L14.912,43.896z M34.669,43.423l0.55-0.288l0.287,0.548l-0.549,0.287
	L34.669,43.423z M13.599,43.158l-0.264-0.161l0.32-0.529l0.53,0.32l-0.322,0.531L13.599,43.158z M35.95,42.718l0.266-0.163h-0.002
	l0.264-0.164l0.326,0.527l-0.527,0.325L35.95,42.718z M12.336,42.332l-0.255-0.18l0.36-0.506l0.504,0.356L12.59,42.51L12.336,42.332
	z M37.182,41.923l0.251-0.181v0.001l0.252-0.182l0.361,0.503l-0.253,0.182l-0.25,0.182L37.182,41.923z M11.132,41.424L11.132,41.424
	l-0.239-0.196l0.388-0.481l0.482,0.39l-0.39,0.48L11.132,41.424z M38.355,41.048l0.478-0.395l0.395,0.478l-0.478,0.395
	L38.355,41.048z M9.995,40.433L9.77,40.222l0.421-0.454l0.453,0.423l-0.422,0.452L9.995,40.433z M8.928,39.367l-0.212-0.227
	l0.451-0.422l0.424,0.451L9.14,39.593L8.928,39.367z M7.936,38.233l-0.197-0.241L8.22,37.6l0.391,0.482l-0.479,0.392L7.936,38.233z
	 M7.026,37.034L7.026,37.034L6.845,36.78l0.507-0.358l0.357,0.506l-0.505,0.357L7.026,37.034z M4.814,33.097l-0.121-0.284
	l0.567-0.245l0.245,0.567l-0.567,0.246L4.814,33.097z M44.556,32.993l0.243-0.569l0.57,0.243l-0.243,0.568L44.556,32.993z
	 M4.265,31.692l-0.104-0.291l0.584-0.206l0.207,0.585l-0.586,0.205L4.265,31.692z M45.104,31.635l0.202-0.586l0.587,0.201
	l-0.102,0.294l-0.102,0.293L45.104,31.635z M3.811,30.256l-0.082-0.299l0.596-0.166l0.166,0.598l-0.597,0.166L3.811,30.256z
	 M45.557,30.24l0.162-0.6l0.598,0.163l-0.163,0.599L45.557,30.24z M3.457,28.789L3.457,28.789l-0.06-0.301l0.606-0.125l0.123,0.606
	L3.52,29.094L3.457,28.789z M45.912,28.816l0.12-0.607l0.608,0.122l-0.061,0.304l-0.06,0.302L45.912,28.816z M3.284,27.84
	l-0.049-0.306l0.611-0.1l0.099,0.613l-0.613,0.098L3.284,27.84z M46.169,27.372l0.038-0.308l0.041-0.308l0.612,0.079l-0.078,0.613
	L46.169,27.372z M3.096,26.343L3.096,26.343l-0.029-0.308l0.617-0.058l0.028,0.309l0.029,0.309l-0.618,0.057L3.096,26.343z
	 M46.325,25.916l0.035-0.618l0.619,0.036l-0.019,0.309l-0.018,0.31L46.325,25.916z M3.008,24.838L3,24.527l0.619-0.014l0.015,0.62
	l-0.617,0.015L3.008,24.838z M46.377,24.14l-0.004-0.307l0.621-0.008l0.004,0.31h-0.002L47,24.444l-0.619,0.007L46.377,24.14z
	 M3.011,23.639l0.014-0.308l0.014-0.311l0.619,0.028l-0.029,0.619L3.011,23.639z M46.311,22.677L46.311,22.677l-0.023-0.308
	l0.616-0.05l0.049,0.617l-0.617,0.05L46.311,22.677z M3.109,22.134l0.072-0.614l0.613,0.071l-0.069,0.614L3.109,22.134z
	 M46.145,21.221l-0.046-0.307l0.614-0.091l0.09,0.612l-0.612,0.092L46.145,21.221z M3.312,20.638l0.114-0.608l0.608,0.113
	l-0.112,0.609L3.312,20.638z M45.881,19.779L45.881,19.779l-0.066-0.303l0.604-0.132l0.133,0.606l-0.607,0.131L45.881,19.779z
	 M3.617,19.161l0.078-0.301l0.078-0.3l0.6,0.156l-0.154,0.599L3.617,19.161z M45.52,18.358L45.52,18.358l-0.086-0.297l0.594-0.174
	l0.088,0.299v-0.002l0.087,0.299l-0.596,0.173L45.52,18.358z M4.025,17.708l0.097-0.294l0.1-0.295l0.587,0.196L4.711,17.61
	l-0.099,0.294L4.025,17.708z M45.064,16.967L45.064,16.967l-0.106-0.291l0.58-0.213l0.214,0.582l-0.58,0.214L45.064,16.967z
	 M4.53,16.286l0.236-0.573l0.573,0.236l-0.234,0.573L4.53,16.286z M44.512,15.61l-0.127-0.283l0.565-0.254l0.255,0.567l-0.566,0.251
	L44.512,15.61z M5.133,14.904l0.138-0.278l0.136-0.279l0.555,0.275L5.69,15.177L5.133,14.904z M43.868,14.294l-0.146-0.274
	l0.548-0.292l0.289,0.546l-0.546,0.292L43.868,14.294z M5.827,13.565l0.312-0.537l0.536,0.313l-0.313,0.535L5.827,13.565z
	 M43.135,13.026l-0.164-0.263l0.525-0.328l0.328,0.526l-0.523,0.328L43.135,13.026z M6.612,12.276l0.349-0.513l0.513,0.348
	l-0.349,0.514L6.612,12.276z M42.318,11.813h-0.002l-0.181-0.252l0.502-0.363L43,11.699l-0.501,0.363L42.318,11.813z M7.483,11.046
	l0.19-0.245l0.191-0.244l0.489,0.382l-0.19,0.244l-0.192,0.244L7.483,11.046z M41.417,10.658l0.002-0.002l-0.201-0.235l0.476-0.399
	l0.199,0.237l0.197,0.239l-0.474,0.397L41.417,10.658z M8.436,9.877l0.413-0.461l0.462,0.413l-0.414,0.463L8.436,9.877z
	 M40.44,9.566L40.44,9.566l-0.216-0.224l0.448-0.427l0.215,0.222l0.214,0.222l-0.448,0.43L40.44,9.566z M9.466,8.776L9.91,8.344
	l0.432,0.444L9.898,9.22L9.466,8.776z M39.392,8.544l-0.23-0.209l0.416-0.458l0.459,0.418L39.62,8.754L39.392,8.544z M10.567,7.747
	l0.237-0.2l0.236-0.202l0.402,0.475l-0.474,0.4L10.567,7.747z M38.272,7.594l-0.244-0.191l0.386-0.484l0.487,0.382l-0.386,0.487
	L38.272,7.594z M11.736,6.798l0.502-0.369l0.367,0.5l-0.501,0.368L11.736,6.798z M37.095,6.725l-0.258-0.174l0.352-0.512
	l0.511,0.352l-0.35,0.511L37.095,6.725z M12.972,5.93l0.262-0.167l0.261-0.166l0.332,0.524l-0.261,0.166l-0.262,0.166L12.972,5.93z
	 M35.856,5.938L35.856,5.938L35.591,5.78l0.313-0.533l0.535,0.314l-0.315,0.535L35.856,5.938z M14.26,5.149l0.546-0.294l0.295,0.544
	l-0.546,0.293L14.26,5.149z M34.568,5.237V5.235l-0.275-0.138l0.277-0.553l0.277,0.139V4.682l0.278,0.139l-0.28,0.555L34.568,5.237z
	 M15.6,4.458l0.564-0.256l0.256,0.564l-0.562,0.256L15.6,4.458z M16.986,3.862l0.581-0.217l0.217,0.581l-0.581,0.217L16.986,3.862z
	 M18.409,3.364l0.593-0.178L19.18,3.78l-0.297,0.089l-0.297,0.089L18.409,3.364z M30.463,3.68h0.002l-0.301-0.079l0.159-0.597
	l0.299,0.078h0.001l0.299,0.079L30.764,3.76L30.463,3.68z M19.863,2.962l0.605-0.134l0.135,0.603l-0.605,0.135L19.863,2.962z
	 M29.033,3.354L28.73,3.297l0.116-0.61l0.608,0.118l-0.118,0.608L29.033,3.354z M21.34,2.663l0.613-0.097l0.094,0.612l-0.613,0.096
	L21.34,2.663z M27.586,3.128l-0.31-0.038l0.075-0.615l0.616,0.075l-0.076,0.615L27.586,3.128z M22.836,2.462l0.308-0.027
	l0.308-0.027l0.053,0.617l-0.617,0.053L22.836,2.462z M26.126,3.002L26.126,3.002l-0.312-0.016l0.033-0.618l0.308,0.015h0.002
	l0.31,0.017l-0.033,0.618L26.126,3.002z M24.34,2.363l0.619-0.012l0.012,0.62l-0.619,0.011L24.34,2.363z"/>
<g>
	<defs>
		<rect id="SVGID_1_" width="50" height="50"/>
	</defs>
	<clipPath id="SVGID_2_">
		<use xlink:href="#SVGID_1_"  style="overflow:visible;"/>
	</clipPath>
	<path style="clip-path:url(#SVGID_2_);fill:#FFFFFF;" d="M46.401,39.79c0.25-0.001,0.453-0.204,0.453-0.454l-0.008-5.064
		c0-0.25-0.204-0.454-0.453-0.454l-9.019,0.013c-0.122,0-0.234,0.047-0.32,0.132c-0.085,0.086-0.133,0.2-0.133,0.322l0.007,5.065
		c0,0.121,0.048,0.235,0.135,0.321c0.085,0.085,0.199,0.132,0.318,0.132l0.001,0.062l-0.001-0.062L46.401,39.79z M46.025,34.209
		l-4.137,2.876l-4.146-2.864L46.025,34.209z M37.319,39.208l-0.005-4.809l4.462,3.083c0.066,0.047,0.158,0.047,0.223,0l4.457-3.096
		l0.006,4.821l-2.63-2.039c-0.083-0.065-0.211-0.048-0.273,0.034c-0.033,0.041-0.046,0.092-0.04,0.145
		c0.007,0.052,0.033,0.098,0.072,0.13l2.48,1.921l-8.374,0.013l2.494-1.934c0.085-0.066,0.1-0.19,0.035-0.274
		c-0.064-0.082-0.191-0.1-0.274-0.034L37.319,39.208z"/>
	<path style="clip-path:url(#SVGID_2_);fill:#FFFFFF;" d="M6.988,35.027v-0.416c-0.427-0.03-0.771-0.374-0.801-0.803H5.771
		c-0.032,0.429-0.375,0.772-0.804,0.803v0.416c0.429,0.031,0.772,0.374,0.804,0.802h0.416C6.217,35.401,6.561,35.059,6.988,35.027
		 M6.292,34.868c-0.102,0.076-0.19,0.164-0.264,0.264l-0.049,0.067l-0.052-0.067c-0.072-0.1-0.16-0.188-0.262-0.264l-0.066-0.049
		l0.066-0.05c0.1-0.074,0.189-0.163,0.262-0.264l0.052-0.067l0.049,0.067c0.074,0.101,0.162,0.189,0.264,0.264l0.066,0.05
		L6.292,34.868z"/>
	<path style="clip-path:url(#SVGID_2_);fill:#FFFFFF;" d="M26.502,46.465v-0.558c-0.625-0.06-1.125-0.559-1.183-1.184H24.76
		c-0.059,0.625-0.556,1.124-1.183,1.184v0.558c0.627,0.059,1.124,0.559,1.183,1.184h0.559
		C25.377,47.023,25.877,46.523,26.502,46.465 M25.523,46.286c-0.146,0.107-0.274,0.235-0.385,0.383l-0.1,0.134l-0.098-0.134
		c-0.111-0.146-0.24-0.275-0.384-0.383l-0.133-0.1l0.133-0.1c0.146-0.108,0.273-0.238,0.384-0.383l0.098-0.134l0.1,0.134
		c0.11,0.145,0.238,0.274,0.385,0.383l0.133,0.1L25.523,46.286z"/>
	<path style="clip-path:url(#SVGID_2_);fill:#FFFFFF;" d="M33.57,4.297V3.911c-0.401-0.03-0.722-0.352-0.753-0.755h-0.386
		c-0.029,0.403-0.352,0.725-0.754,0.755v0.386c0.402,0.03,0.725,0.351,0.754,0.753h0.386C32.849,4.648,33.169,4.327,33.57,4.297
		 M32.922,4.154c-0.094,0.069-0.177,0.152-0.247,0.246l-0.05,0.067L32.575,4.4c-0.07-0.094-0.152-0.177-0.247-0.246l-0.066-0.05
		l0.066-0.05c0.095-0.07,0.177-0.153,0.247-0.247l0.05-0.067l0.05,0.067c0.07,0.094,0.153,0.177,0.247,0.247l0.068,0.05
		L32.922,4.154z"/>
	<path style="clip-path:url(#SVGID_2_);fill:#FFFFFF;" d="M21.325,22.994c0,0.81-1.518,1.712-3.696,1.712
		c-2.179,0-3.698-0.902-3.698-1.712c0-0.648,0.956-1.378,2.548-1.626c-0.085-0.16-0.149-0.332-0.19-0.512
		c-1.705,0.294-2.894,1.136-2.894,2.138v5.946c0,1.263,1.86,2.252,4.234,2.252s4.234-0.989,4.234-2.252v-5.946
		c0-0.158-0.031-0.31-0.087-0.457h-0.602C21.273,22.688,21.325,22.843,21.325,22.994 M21.325,28.939
		c0,0.812-1.518,1.715-3.696,1.715c-2.179,0-3.698-0.903-3.698-1.715v-0.87l0.102,0.087c0.771,0.658,2.114,1.052,3.596,1.052
		c1.48,0,2.824-0.394,3.594-1.052l0.102-0.087V28.939z M21.325,26.957c0,0.812-1.518,1.715-3.696,1.715
		c-2.179,0-3.698-0.903-3.698-1.715v-0.87l0.102,0.087c0.771,0.658,2.114,1.052,3.596,1.052c1.48,0,2.824-0.394,3.594-1.052
		l0.102-0.087V26.957z M21.325,24.976c0,0.811-1.518,1.714-3.696,1.714c-2.179,0-3.698-0.903-3.698-1.714v-0.871l0.102,0.087
		c0.771,0.658,2.114,1.052,3.596,1.052c1.48,0,2.824-0.394,3.594-1.052l0.102-0.087V24.976z"/>
	<path style="clip-path:url(#SVGID_2_);fill:#FFFFFF;" d="M29.26,25.074c-0.579,0-1.053,0.474-1.053,1.054s0.474,1.052,1.053,1.052
		c0.58,0,1.054-0.472,1.054-1.052S29.84,25.074,29.26,25.074 M29.26,26.759c-0.349,0-0.631-0.283-0.631-0.631
		s0.282-0.632,0.631-0.632c0.348,0,0.632,0.284,0.632,0.632S29.607,26.759,29.26,26.759"/>
	<rect x="29.05" y="25.917" style="clip-path:url(#SVGID_2_);fill:#FFFFFF;" width="0.42" height="0.42"/>
	<path style="clip-path:url(#SVGID_2_);fill:#FFFFFF;" d="M37.891,28.232v-2.104h-0.603c-0.036-0.105-0.079-0.209-0.127-0.309
		l0.426-0.426l-1.489-1.488l-0.424,0.425c-0.1-0.047-0.204-0.09-0.31-0.127v-0.602h-1.683V18.55h-6.387
		c0.175,0.118,0.332,0.259,0.466,0.421h5.498v1.263h-0.42v-0.841h-0.422v0.841h-0.42v-0.841h-0.423v0.841h-0.418v-0.841h-0.422
		v0.841h-0.421v-0.841h-0.422v0.841h-1.637c0.004,0.042,0.007,0.083,0.007,0.126c0,0.099-0.009,0.198-0.021,0.294h5.019v1.264h-0.42
		v-0.842h-0.422v0.842h-0.42v-0.842h-0.423v0.842h-0.418v-0.842h-0.422v0.842h-0.421v-0.842h-0.422v0.842h-2.291
		c-0.179,0.174-0.385,0.316-0.615,0.421h6.273v1.263h-0.42V22.76h-0.422v0.842h-0.42V22.76h-0.423v0.842h-0.418V22.76h-0.422v0.842
		h-0.421V22.76h-0.422v0.842H25.26v-1.066H24.84v8.222h0.419v0.843h1.685v-0.843h4.63v0.843h1.685v-0.843h2.105v-0.602
		c0.105-0.038,0.21-0.08,0.31-0.128l0.424,0.426l1.489-1.488l-0.426-0.425c0.048-0.1,0.091-0.203,0.127-0.309H37.891z
		 M33.259,24.024v0.18c-0.104,0.037-0.208,0.08-0.308,0.127l-0.308-0.307H33.259z M26.524,31.18h-0.843v-0.422h0.843V31.18z
		 M25.26,30.338v-6.314h7.149l-1.371,1.37l0.424,0.426c-0.046,0.1-0.088,0.203-0.125,0.309h-0.603v2.104h0.603
		c0.037,0.105,0.079,0.21,0.127,0.309l-0.426,0.425l1.371,1.372H25.26z M32.839,31.18h-0.842v-0.422h0.842V31.18z M33.259,30.338
		h-0.615l0.308-0.31c0.1,0.049,0.203,0.09,0.308,0.128V30.338z M36.991,28.966l-0.894,0.894l-0.345-0.348l-0.138,0.075
		c-0.163,0.087-0.338,0.159-0.521,0.215l-0.15,0.044v0.492h-1.263v-0.492l-0.151-0.044c-0.186-0.055-0.359-0.128-0.52-0.215
		l-0.139-0.075l-0.347,0.348l-0.894-0.894l0.347-0.346l-0.074-0.139c-0.088-0.162-0.158-0.336-0.214-0.52l-0.044-0.15h-0.49v-1.264
		h0.49l0.044-0.15c0.056-0.183,0.127-0.358,0.214-0.52l0.076-0.138l-0.347-0.347l0.892-0.894l0.347,0.347l0.139-0.074
		c0.162-0.088,0.337-0.16,0.52-0.215l0.151-0.044v-0.49h1.263v0.49l0.15,0.044c0.183,0.055,0.357,0.127,0.521,0.215l0.138,0.074
		l0.345-0.346l0.894,0.893l-0.346,0.348l0.074,0.137c0.088,0.162,0.159,0.338,0.215,0.52l0.044,0.15h0.49v1.264h-0.49l-0.044,0.15
		c-0.056,0.184-0.127,0.357-0.216,0.52l-0.073,0.139L36.991,28.966z"/>
	<path style="clip-path:url(#SVGID_2_);fill:#FFFFFF;" d="M34.312,25.286c-1.045,0-1.896,0.851-1.896,1.894
		c0,1.045,0.851,1.895,1.896,1.895s1.895-0.85,1.895-1.895C36.206,26.137,35.356,25.286,34.312,25.286 M35.77,27.391
		c-0.037,0.249-0.135,0.478-0.278,0.67l-0.285-0.286l-0.299,0.299l0.285,0.285c-0.191,0.145-0.42,0.242-0.669,0.278v-0.404h-0.422
		v0.404c-0.249-0.036-0.479-0.134-0.671-0.278l0.286-0.285l-0.297-0.299l-0.286,0.286c-0.144-0.192-0.241-0.421-0.278-0.67h0.403
		V26.97h-0.403c0.037-0.25,0.135-0.479,0.278-0.671l0.286,0.285l0.297-0.298l-0.286-0.284c0.192-0.145,0.422-0.242,0.671-0.278
		v0.404h0.422v-0.404c0.249,0.036,0.478,0.134,0.669,0.278l-0.285,0.284l0.299,0.298l0.285-0.285
		c0.144,0.192,0.241,0.421,0.278,0.671h-0.405v0.421H35.77z"/>
	<path style="clip-path:url(#SVGID_2_);fill:#FFFFFF;" d="M25.26,22.536h0.824c0.322,0,0.627-0.072,0.901-0.197H25.26V22.536z"/>
	<path style="clip-path:url(#SVGID_2_);fill:#FFFFFF;" d="M17.041,21.303c-0.195,0.015-0.383,0.037-0.562,0.064
		c0.363,0.695,1.091,1.169,1.928,1.169h2.767c-0.116-0.179-0.299-0.355-0.54-0.516h-2.227C17.841,22.02,17.342,21.736,17.041,21.303
		"/>
	<path style="clip-path:url(#SVGID_2_);fill:#FFFFFF;" d="M16.744,20.359c0-0.917,0.747-1.662,1.663-1.662
		c0.19,0,0.378,0.034,0.562,0.1c0.085,0.031,0.177,0.017,0.247-0.039c0.07-0.052,0.107-0.137,0.097-0.226l-0.008-0.086
		c0-0.57,0.459-1.028,1.021-1.028c0.156,0,0.314,0.041,0.468,0.119c0.06,0.032,0.133,0.039,0.199,0.016
		c0.064-0.021,0.119-0.069,0.151-0.131c0.391-0.792,1.181-1.285,2.061-1.285c1.269,0,2.302,1.03,2.302,2.293
		c-0.002,0.012-0.002,0.031-0.002,0.038c0,0.028,0.006,0.056,0.015,0.081h1.775c-0.347-0.232-0.764-0.368-1.211-0.368h-0.072
		l-0.005-0.054c-0.161-1.428-1.365-2.504-2.802-2.504c-0.974,0-1.865,0.491-2.382,1.316l-0.025,0.04l-0.045-0.014
		c-0.14-0.043-0.283-0.063-0.427-0.063c-0.741,0-1.377,0.528-1.512,1.256l-0.01,0.058l-0.06-0.008
		c-0.112-0.018-0.227-0.027-0.337-0.027c-1.202,0-2.179,0.977-2.179,2.178c0,0.17,0.023,0.336,0.061,0.496
		c0.166-0.028,0.338-0.052,0.515-0.07C16.766,20.649,16.744,20.506,16.744,20.359"/>
	<path style="clip-path:url(#SVGID_2_);fill:#FFFFFF;" d="M26.653,21.918h0.947c0.341-0.331,0.571-0.771,0.64-1.264h-0.521
		C27.611,21.24,27.201,21.718,26.653,21.918"/>
	<path style="clip-path:url(#SVGID_2_);fill:#FFFFFF;" d="M21.457,22.02c0.143,0.162,0.251,0.336,0.319,0.517h0.15v0.061h0.639
		v-0.061h2.275V22.02H21.457z"/>
	<path style="clip-path:url(#SVGID_2_);fill:#FFFFFF;" d="M27.739,20.233h0.516c-0.027-0.478-0.206-0.915-0.494-1.263h-0.765
		C27.414,19.247,27.7,19.707,27.739,20.233"/>
	<path style="clip-path:url(#SVGID_2_);fill:#FFFFFF;" d="M20.634,22.02c0.241,0.161,0.424,0.337,0.54,0.517h0.603
		c-0.069-0.181-0.177-0.355-0.32-0.517H20.634z"/>
	<path style="clip-path:url(#SVGID_2_);fill:#FFFFFF;" d="M17.041,21.303c-0.108-0.155-0.187-0.33-0.237-0.518
		c-0.177,0.019-0.349,0.042-0.515,0.071c0.041,0.179,0.106,0.352,0.19,0.511C16.658,21.34,16.846,21.318,17.041,21.303"/>
	<path style="clip-path:url(#SVGID_2_);fill:#FFFFFF;" d="M25.26,22.339h1.726c0.23-0.105,0.437-0.247,0.615-0.421h-0.947
		c-0.177,0.065-0.368,0.102-0.569,0.102H24.84v0.516h0.42V22.339z"/>
	<path style="clip-path:url(#SVGID_2_);fill:#FFFFFF;" d="M27.746,20.359c0,0.101-0.011,0.198-0.027,0.295h0.521
		c0.013-0.097,0.022-0.195,0.022-0.295c0-0.043-0.004-0.084-0.008-0.126h-0.516C27.742,20.275,27.746,20.316,27.746,20.359"/>
	<path style="clip-path:url(#SVGID_2_);fill:#FFFFFF;" d="M25.598,18.666c0.057,0.049,0.134,0.069,0.21,0.057
		c0.102-0.017,0.191-0.026,0.276-0.026c0.337,0,0.65,0.102,0.912,0.274h0.765c-0.134-0.162-0.291-0.303-0.466-0.421H25.52
		C25.535,18.594,25.561,18.635,25.598,18.666"/>
	<rect x="25.826" y="19.461" style="clip-path:url(#SVGID_2_);fill:#FFFFFF;" width="0.516" height="0.517"/>
	<rect x="25.826" y="20.74" style="clip-path:url(#SVGID_2_);fill:#FFFFFF;" width="0.516" height="0.517"/>
	<rect x="24.547" y="20.74" style="clip-path:url(#SVGID_2_);fill:#FFFFFF;" width="0.293" height="0.517"/>
	<rect x="24.839" y="20.74" style="clip-path:url(#SVGID_2_);fill:#FFFFFF;" width="0.223" height="0.517"/>
</g>
</svg>
