<?xml version="1.0" encoding="iso-8859-1"?>
<!-- Generator: Adobe Illustrator 15.1.0, SVG Export Plug-In . SVG Version: 6.00 Build 0)  -->
<!DOCTYPE svg PUBLIC "-//W3C//DTD SVG 1.1//EN" "http://www.w3.org/Graphics/SVG/1.1/DTD/svg11.dtd">
<svg version="1.1" id="Layer_1" xmlns="http://www.w3.org/2000/svg" xmlns:xlink="http://www.w3.org/1999/xlink" x="0px" y="0px"
	 width="50px" height="50px" viewBox="0 0 50 50" style="enable-background:new 0 0 50 50;" xml:space="preserve">
<path style="fill:#FFFFFF;" d="M24.768,46.382l0.62-0.004l0.001,0.619l-0.619,0.002L24.768,46.382z M23.572,46.956l-0.308-0.021
	l0.04-0.619l0.62,0.039l-0.042,0.619L23.572,46.956z M26.232,46.344l0.311-0.021l0.309-0.022l0.045,0.617l-0.617,0.047
	L26.232,46.344z M22.072,46.808L22.072,46.808l-0.306-0.041l0.082-0.616l0.306,0.041l0.309,0.041l-0.083,0.614L22.072,46.808z
	 M27.692,46.208l0.613-0.086l0.088,0.612l-0.612,0.089L27.692,46.208z M20.584,46.555l-0.303-0.062l0.124-0.607l0.607,0.125
	l-0.125,0.607L20.584,46.555z M29.141,45.975l0.606-0.129l0.127,0.605L29.27,46.58L29.141,45.975z M19.116,46.201L19.116,46.201
	l-0.298-0.083l0.166-0.598l0.598,0.166l-0.167,0.596L19.116,46.201z M30.568,45.644l0.597-0.17l0.168,0.596l-0.297,0.085l-0.3,0.084
	L30.568,45.644z M17.679,45.746L17.679,45.746l-0.294-0.103l0.208-0.584l0.583,0.204l-0.207,0.586L17.679,45.746z M16.274,45.194
	l-0.286-0.124l0.248-0.566l0.569,0.245l-0.246,0.568L16.274,45.194z M14.91,44.549l-0.275-0.145l0.285-0.551l0.551,0.286
	l-0.286,0.55L14.91,44.549z M34.666,44.073l0.551-0.287l0.287,0.548l-0.273,0.145l-0.273,0.146L34.666,44.073z M13.595,43.809
	l-0.263-0.159l0.32-0.529l0.53,0.321l-0.323,0.528L13.595,43.809z M35.95,43.368l0.526-0.325l0.326,0.527l-0.528,0.324L35.95,43.368
	z M37.18,42.573l0.504-0.359l0.361,0.505l-0.25,0.179l-0.253,0.181L37.18,42.573z M38.354,41.698l0.477-0.395l0.396,0.48
	l-0.479,0.393L38.354,41.698z M39.465,40.744l0.451-0.427l0.424,0.449l-0.447,0.427L39.465,40.744z M40.508,39.715l0.422-0.455
	l0.456,0.417l-0.21,0.229v0.002l-0.211,0.229L40.508,39.715z M41.48,38.617l0.387-0.483l0.483,0.388l-0.387,0.484L41.48,38.617z
	 M42.374,37.457l0.354-0.509l0.508,0.354l-0.177,0.253l-0.177,0.255L42.374,37.457z M43.187,36.236l0.319-0.531l0.531,0.318
	l-0.318,0.532L43.187,36.236z M43.916,34.964l0.282-0.552l0.55,0.281l-0.281,0.551L43.916,34.964z M4.813,33.748L4.813,33.748
	L4.69,33.464l0.57-0.244l0.121,0.282l0.123,0.285l-0.568,0.245L4.813,33.748z M44.555,33.645l0.243-0.571l0.571,0.244l-0.122,0.285
	v-0.001l-0.122,0.285L44.555,33.645z M4.262,32.345L4.262,32.345L4.16,32.052l0.584-0.206l0.102,0.293l0.103,0.292l-0.585,0.206
	L4.262,32.345z M45.102,32.284l0.205-0.586l0.585,0.204l-0.103,0.292l-0.102,0.292L45.102,32.284z M3.809,30.907L3.809,30.907
	l-0.082-0.299l0.597-0.166L4.49,31.04l-0.598,0.165L3.809,30.907z M45.555,30.89l0.164-0.599l0.599,0.162l-0.163,0.6L45.555,30.89z
	 M3.457,29.44H3.455l-0.06-0.304l0.606-0.123l0.125,0.607L3.52,29.744L3.457,29.44z M45.912,29.467l0.121-0.607l0.607,0.12
	l-0.062,0.303l-0.06,0.305L45.912,29.467z M3.281,28.49l-0.048-0.307l0.613-0.099l0.097,0.612l-0.612,0.099L3.281,28.49z
	 M46.168,28.022l0.041-0.307l0.039-0.309l0.614,0.079l-0.081,0.614L46.168,28.022z M3.094,26.993L3.094,26.993l-0.029-0.308
	l0.617-0.056l0.056,0.616l-0.617,0.056L3.094,26.993z M46.325,26.566l0.018-0.31l0.019-0.31l0.617,0.035l-0.035,0.62L46.325,26.566z
	 M3.006,25.488L3,25.178l0.619-0.014l0.013,0.618l-0.619,0.015L3.006,25.488z M46.377,24.792L46.377,24.792l-0.004-0.309
	l0.619-0.007L47,25.094l-0.619,0.008L46.377,24.792z M3.009,24.291l0.026-0.62l0.62,0.028l-0.026,0.619L3.009,24.291z
	 M46.311,23.327L46.311,23.327l-0.025-0.309l0.618-0.049l0.023,0.309l0.024,0.308l-0.615,0.05L46.311,23.327z M3.108,22.784
	l0.07-0.614l0.615,0.071l-0.07,0.615L3.108,22.784z M46.145,21.872L46.145,21.872L46.1,21.566l0.612-0.093l0.046,0.309h-0.002
	l0.045,0.306l-0.608,0.09L46.145,21.872z M3.31,21.288l0.112-0.608l0.611,0.113l-0.113,0.61L3.31,21.288z M45.881,20.429
	l-0.066-0.302l0.605-0.132l0.066,0.303l0.066,0.302l-0.607,0.132L45.881,20.429z M45.52,19.008l-0.086-0.297l0.596-0.173
	l0.172,0.596l-0.594,0.172L45.52,19.008z M45.063,17.617L45.063,17.617l-0.105-0.292l0.582-0.213l0.105,0.292l0.107,0.291
	l-0.582,0.213L45.063,17.617z M4.529,16.936l0.235-0.573l0.574,0.236l-0.236,0.573L4.529,16.936z M44.51,16.259l-0.125-0.282
	l0.565-0.252l0.253,0.564l-0.564,0.253L44.51,16.259z M5.131,15.554l0.273-0.556l0.557,0.274l-0.275,0.556L5.131,15.554z
	 M43.867,14.943l-0.145-0.273l0.547-0.291l0.291,0.548l-0.549,0.29L43.867,14.943z M5.826,14.215l0.313-0.536l0.535,0.311
	l-0.312,0.536L5.826,14.215z M43.135,13.677L43.135,13.677l-0.164-0.263l0.525-0.328l0.328,0.525l-0.525,0.328L43.135,13.677z
	 M6.611,12.928l0.174-0.257l0.174-0.257l0.514,0.347l-0.348,0.513L6.611,12.928z M42.314,12.462l-0.179-0.25l0.499-0.364
	l0.184,0.251L43,12.349l-0.502,0.364L42.314,12.462z M7.481,11.696l0.381-0.489l0.49,0.382L7.97,12.076L7.481,11.696z
	 M41.416,11.308L41.416,11.308l-0.199-0.239l0.477-0.397l0.397,0.476l-0.476,0.397L41.416,11.308z M8.434,10.527l0.207-0.231
	l0.209-0.23l0.459,0.413l-0.413,0.462L8.434,10.527z M40.438,10.216l-0.215-0.224l0.448-0.429l0.428,0.448l-0.446,0.429
	L40.438,10.216z M9.465,9.425l0.222-0.216l0.219-0.216l0.434,0.446l-0.443,0.43L9.465,9.425z M10.567,8.396l0.473-0.4l0.4,0.473
	l-0.473,0.4L10.567,8.396z M11.736,7.448l0.5-0.368l0.368,0.5l-0.5,0.366L11.736,7.448z M37.091,7.376L36.836,7.2l0.352-0.511
	l0.512,0.351l-0.351,0.511L37.091,7.376z M12.969,6.579l0.523-0.332l0.332,0.525l-0.525,0.331L12.969,6.579z M35.855,6.588
	L35.589,6.43l0.315-0.534l0.533,0.315l-0.315,0.534L35.855,6.588z M14.258,5.799l0.545-0.296l0.295,0.545l-0.545,0.296L14.258,5.799
	z M34.568,5.886l-0.277-0.139l0.277-0.554l0.555,0.278l-0.277,0.554L34.568,5.886z M15.598,5.108l0.564-0.256l0.256,0.563
	l-0.563,0.256L15.598,5.108z M33.236,5.274L33.236,5.274l-0.287-0.12l0.243-0.571l0.284,0.12l0.286,0.119l-0.24,0.571L33.236,5.274z
	 M16.984,4.512l0.581-0.217l0.216,0.581l-0.58,0.216L16.984,4.512z M31.865,4.755l-0.292-0.1l0.198-0.587l0.294,0.1v0.001
	l0.292,0.099l-0.199,0.586L31.865,4.755z M18.407,4.012L19,3.834l0.176,0.596l-0.594,0.176L18.407,4.012z M30.461,4.331
	l-0.299-0.079l0.16-0.6l0.299,0.079L30.92,3.81l-0.158,0.599L30.461,4.331z M19.859,3.612l0.303-0.068l0.303-0.069l0.136,0.606
	l-0.303,0.068l-0.303,0.068L19.859,3.612z M29.033,4.004l-0.305-0.058l0.116-0.608l0.608,0.115l-0.116,0.609L29.033,4.004z
	 M21.338,3.311l0.612-0.093l0.095,0.611l-0.612,0.094L21.338,3.311z M27.582,3.776L27.276,3.74l0.073-0.614l0.309,0.037L27.966,3.2
	l-0.075,0.614L27.582,3.776z M22.833,3.11l0.618-0.053l0.051,0.617l-0.617,0.053L22.833,3.11z M26.123,3.651L26.123,3.651
	l-0.31-0.017l0.032-0.618l0.311,0.017l0.307,0.016l-0.029,0.618L26.123,3.651z M24.338,3.012L24.958,3l0.011,0.619L24.35,3.631
	L24.338,3.012z"/>
<g>
	<defs>
		<rect id="SVGID_1_" x="4.453" y="26.497" width="16.953" height="17.037"/>
	</defs>
	<clipPath id="SVGID_2_">
		<use xlink:href="#SVGID_1_"  style="overflow:visible;"/>
	</clipPath>
	<path style="clip-path:url(#SVGID_2_);fill:#FFFFFF;" d="M18.015,34.85v-2.59c0-0.85-0.33-1.646-0.929-2.247
		c-0.112-0.11-0.29-0.11-0.401,0c-0.598,0.601-0.929,1.397-0.929,2.247v2.663c-0.088,0.026-0.172,0.06-0.256,0.092
		c-0.149-0.368-0.251-0.749-0.297-1.138l-0.377-3.136c-0.137-1.154-0.668-2.242-1.489-3.064l-1.054-1.054
		c-0.111-0.11-0.291-0.11-0.401,0l-1.055,1.055c-0.821,0.821-1.351,1.909-1.487,3.063l-0.378,3.136
		c-0.072,0.598-0.265,1.16-0.552,1.669V32.26c0-0.85-0.331-1.646-0.931-2.247c-0.111-0.11-0.288-0.11-0.399,0
		c-0.6,0.601-0.932,1.397-0.932,2.247v5.466c-0.471,0.451-0.853,0.988-1.122,1.594l-0.548,1.233
		c-0.039,0.086-0.031,0.188,0.02,0.269c0.054,0.078,0.142,0.128,0.238,0.128h5.934v0.432c0,0.887,0.492,1.684,1.287,2.08
		c0.039,0.021,0.082,0.03,0.125,0.03c0.043,0,0.088-0.01,0.127-0.03c0.707-0.352,1.172-1.026,1.265-1.797
		c0.797,1.104,2.09,1.827,3.553,1.827c2.414,0,4.379-1.963,4.379-4.378C21.406,37.038,19.956,35.299,18.015,34.85 M16.32,32.26
		c0-0.599,0.2-1.164,0.565-1.623c0.367,0.459,0.566,1.024,0.566,1.623v2.494c-0.02-0.002-0.039-0.001-0.059-0.002
		c-0.107-0.011-0.213-0.015-0.317-0.016c-0.017,0-0.032-0.003-0.048-0.003c-0.017,0-0.031,0.003-0.047,0.003
		c-0.12,0-0.238,0.005-0.357,0.017c-0.064,0.007-0.126,0.017-0.188,0.025c-0.039,0.005-0.076,0.008-0.115,0.015V32.26z M6.713,32.26
		c0-0.599,0.201-1.164,0.566-1.623c0.367,0.459,0.565,1.024,0.565,1.623v4.07c-0.268,0.297-0.573,0.564-0.921,0.786
		c-0.071,0.045-0.14,0.095-0.21,0.144V32.26z M9.541,40.385v-1.413h3.11c-0.002,0.047-0.002,0.095-0.002,0.142
		c0,0.134,0.007,0.266,0.02,0.397c0.004,0.04,0.008,0.078,0.011,0.119c0.014,0.094,0.028,0.188,0.045,0.283
		c0.008,0.039,0.015,0.078,0.022,0.118c0.025,0.118,0.055,0.236,0.092,0.354H9.541z M11.8,38.405V37.84
		c0-0.155,0.125-0.28,0.282-0.28c0.156,0,0.283,0.125,0.283,0.28v0.565H11.8z M12.93,41.381c0,0.621-0.322,1.188-0.848,1.506
		c-0.527-0.318-0.847-0.885-0.847-1.506v-0.432H11.8v0.564h0.565v-0.564h0.565V41.381z M13.023,37.346
		c-0.026,0.06-0.05,0.12-0.072,0.18c-0.017,0.039-0.033,0.077-0.047,0.116c-0.09-0.371-0.423-0.648-0.822-0.648
		c-0.467,0-0.847,0.381-0.847,0.847v0.565H9.256c-0.155,0-0.282,0.127-0.282,0.283v1.696H5.172l0.37-0.837
		c0.358-0.806,0.942-1.482,1.684-1.954c1.28-0.813,2.116-2.145,2.297-3.649L9.9,30.81c0.123-1.029,0.594-2,1.328-2.732l0.854-0.855
		l0.855,0.854c0.733,0.733,1.203,1.704,1.327,2.732l0.378,3.136c0.053,0.445,0.166,0.881,0.338,1.299
		c-0.052,0.027-0.101,0.058-0.152,0.087c-0.057,0.033-0.114,0.067-0.17,0.104c-0.047,0.03-0.095,0.062-0.141,0.095
		c-0.066,0.046-0.131,0.096-0.195,0.147c-0.045,0.034-0.09,0.068-0.133,0.106c-0.072,0.063-0.143,0.125-0.211,0.193
		c-0.036,0.034-0.072,0.071-0.105,0.107c-0.053,0.056-0.105,0.111-0.153,0.166c-0.033,0.038-0.066,0.075-0.097,0.113
		c-0.068,0.084-0.134,0.172-0.196,0.261c-0.031,0.045-0.06,0.095-0.09,0.141c-0.037,0.056-0.07,0.111-0.103,0.169
		c-0.029,0.05-0.059,0.102-0.087,0.153C13.103,37.172,13.062,37.258,13.023,37.346 M17.027,42.927c-1.621,0-3.004-1.02-3.557-2.446
		c-0.033-0.087-0.067-0.175-0.093-0.263c-0.012-0.038-0.019-0.075-0.03-0.111c-0.021-0.082-0.045-0.164-0.06-0.247
		c-0.013-0.062-0.02-0.123-0.03-0.187c-0.007-0.061-0.021-0.121-0.026-0.183c-0.013-0.123-0.018-0.251-0.018-0.377
		c0-0.115,0.005-0.231,0.016-0.35c0.004-0.035,0.009-0.069,0.013-0.105c0.009-0.077,0.021-0.156,0.035-0.23
		c0.008-0.04,0.014-0.079,0.021-0.118c0.022-0.1,0.047-0.197,0.077-0.292c0.013-0.05,0.031-0.099,0.049-0.149
		c0.019-0.051,0.037-0.104,0.058-0.153c0.02-0.054,0.043-0.107,0.066-0.159c0.02-0.045,0.043-0.092,0.067-0.137
		c0.041-0.082,0.084-0.165,0.132-0.242c0.028-0.05,0.057-0.1,0.088-0.146c0.03-0.046,0.064-0.093,0.098-0.139
		c0.029-0.041,0.059-0.083,0.091-0.125c0.034-0.043,0.068-0.086,0.105-0.127c0.039-0.046,0.08-0.089,0.121-0.135
		c0.053-0.056,0.107-0.11,0.165-0.164c0.046-0.045,0.094-0.088,0.143-0.131c0.041-0.036,0.084-0.067,0.127-0.102
		c0.041-0.033,0.082-0.063,0.125-0.094c0.047-0.033,0.095-0.067,0.143-0.099c0.038-0.024,0.08-0.048,0.119-0.072
		c0.101-0.062,0.207-0.119,0.316-0.171c0.228-0.109,0.469-0.196,0.72-0.259c0.15-0.038,0.301-0.065,0.45-0.085
		c0.005-0.001,0.012-0.002,0.02-0.003c0.152-0.019,0.303-0.028,0.449-0.028c0.112,0,0.222,0.007,0.33,0.017
		c0.107,0.01,0.214,0.023,0.326,0.044h0.002c1.789,0.314,3.156,1.877,3.156,3.755C20.841,41.215,19.131,42.927,17.027,42.927"/>
</g>
<g>
	<defs>
		<rect id="SVGID_3_" width="50" height="50"/>
	</defs>
	<clipPath id="SVGID_4_">
		<use xlink:href="#SVGID_3_"  style="overflow:visible;"/>
	</clipPath>
	<path style="clip-path:url(#SVGID_4_);fill:#FFFFFF;" d="M12.082,30.212c-0.779,0-1.412,0.635-1.412,1.413h0.565
		c0-0.469,0.38-0.847,0.847-0.847s0.849,0.378,0.849,0.847h0.563C13.494,30.847,12.861,30.212,12.082,30.212"/>
	<rect x="11.801" y="32.755" style="clip-path:url(#SVGID_4_);fill:#FFFFFF;" width="0.564" height="0.565"/>
	<rect x="11.801" y="33.885" style="clip-path:url(#SVGID_4_);fill:#FFFFFF;" width="0.564" height="0.565"/>
	<rect x="11.801" y="35.016" style="clip-path:url(#SVGID_4_);fill:#FFFFFF;" width="0.564" height="0.566"/>
	<path style="clip-path:url(#SVGID_4_);fill:#FFFFFF;" d="M16.563,35.896l0.081,0.559c0.519-0.073,1.056,0.006,1.531,0.231
		l0.242-0.511C17.843,35.901,17.193,35.806,16.563,35.896"/>
	<path style="clip-path:url(#SVGID_4_);fill:#FFFFFF;" d="M15.943,36.049c-0.217,0.075-0.424,0.175-0.619,0.295l0.297,0.483
		c0.162-0.1,0.334-0.183,0.51-0.246L15.943,36.049z"/>
	<path style="clip-path:url(#SVGID_4_);fill:#FFFFFF;" d="M19.346,36.795c-0.094-0.094-0.239-0.11-0.35-0.04l-2.261,1.411
		c-0.083,0.052-0.133,0.143-0.133,0.239v0.85c0,0.155,0.128,0.28,0.284,0.28h0.848c0.096,0,0.186-0.05,0.238-0.133l1.413-2.259
		C19.455,37.032,19.438,36.888,19.346,36.795 M17.576,38.972h-0.408v-0.408l1.089-0.682L17.576,38.972z"/>
	<path style="clip-path:url(#SVGID_4_);fill:#FFFFFF;" d="M15.473,39.818c-0.467,0-0.847,0.379-0.847,0.849
		c0,0.468,0.38,0.847,0.847,0.847c0.468,0,0.848-0.379,0.848-0.847C16.321,40.197,15.941,39.818,15.473,39.818 M15.473,40.949
		c-0.155,0-0.283-0.127-0.283-0.282s0.128-0.283,0.283-0.283c0.156,0,0.283,0.128,0.283,0.283S15.629,40.949,15.473,40.949"/>
	<path style="clip-path:url(#SVGID_4_);fill:#FFFFFF;" d="M18.863,39.818c-0.467,0-0.848,0.379-0.848,0.849
		c0,0.468,0.381,0.847,0.848,0.847c0.468,0,0.848-0.379,0.848-0.847C19.711,40.197,19.331,39.818,18.863,39.818 M18.863,40.949
		c-0.155,0-0.282-0.127-0.282-0.282s0.127-0.283,0.282-0.283c0.156,0,0.283,0.128,0.283,0.283S19.02,40.949,18.863,40.949"/>
	<path style="clip-path:url(#SVGID_4_);fill:#FFFFFF;" d="M34.607,45.357v-0.674c-0.642-0.03-1.156-0.548-1.188-1.188h-0.671
		c-0.033,0.64-0.549,1.157-1.189,1.188v0.674c0.641,0.03,1.156,0.548,1.189,1.189h0.671C33.451,45.905,33.966,45.388,34.607,45.357
		 M33.529,45.07c-0.15,0.111-0.284,0.246-0.396,0.396l-0.049,0.066l-0.051-0.066c-0.111-0.15-0.244-0.285-0.396-0.396l-0.066-0.05
		l0.066-0.05c0.152-0.111,0.285-0.245,0.396-0.396l0.051-0.068l0.049,0.068c0.112,0.15,0.246,0.284,0.396,0.396l0.066,0.05
		L33.529,45.07z"/>
	<path style="clip-path:url(#SVGID_4_);fill:#FFFFFF;" d="M39.794,8.732V8.315c-0.428-0.03-0.771-0.374-0.801-0.802h-0.419
		c-0.029,0.428-0.372,0.772-0.801,0.802v0.417c0.429,0.031,0.771,0.374,0.801,0.802h0.419C39.022,9.106,39.366,8.763,39.794,8.732
		 M39.098,8.573c-0.102,0.075-0.188,0.164-0.266,0.264l-0.048,0.067l-0.052-0.067c-0.072-0.099-0.163-0.188-0.264-0.264l-0.066-0.05
		l0.066-0.05c0.101-0.075,0.191-0.163,0.264-0.263l0.052-0.067l0.048,0.067c0.077,0.101,0.164,0.189,0.264,0.263l0.068,0.05
		L39.098,8.573z"/>
	<path style="clip-path:url(#SVGID_4_);fill:#FFFFFF;" d="M5.146,19.056v-0.385c-0.402-0.03-0.724-0.352-0.754-0.754H4.008
		c-0.031,0.402-0.353,0.724-0.754,0.754v0.385c0.401,0.03,0.723,0.353,0.754,0.755h0.384C4.422,19.409,4.744,19.086,5.146,19.056
		 M4.496,18.914c-0.094,0.07-0.177,0.152-0.246,0.247l-0.051,0.067l-0.048-0.067c-0.071-0.094-0.154-0.177-0.249-0.247l-0.066-0.05
		l0.066-0.051c0.095-0.069,0.178-0.152,0.249-0.247L4.199,18.5l0.051,0.066c0.069,0.096,0.152,0.179,0.246,0.247l0.066,0.051
		L4.496,18.914z"/>
	<path style="clip-path:url(#SVGID_4_);fill:#FFFFFF;" d="M31.376,27.03c0.011-0.021,0.021-0.041,0.028-0.062
		C31.395,26.989,31.385,27.01,31.376,27.03"/>
	<path style="clip-path:url(#SVGID_4_);fill:#FFFFFF;" d="M31.848,28.521c0.096,0.083,0.205,0.162,0.323,0.235l0.337-0.337
		c-0.485-0.278-0.763-0.622-0.763-0.949c0-0.454,0.53-0.956,1.452-1.253v-0.426h-0.17c-0.438,0.144-0.81,0.333-1.098,0.559
		c0,0.024,0.004,0.049,0.004,0.073c0,0.566-0.253,1.073-0.646,1.422v1.012c0.018-0.01,0.035-0.017,0.053-0.026l0.139-0.074
		l0.267,0.265v-0.587L31.848,28.521z"/>
	<path style="clip-path:url(#SVGID_4_);fill:#FFFFFF;" d="M35.301,25.5l0.002-0.063h-0.582l0.002,0.063
		c-0.391,0.016-0.762,0.063-1.105,0.133v0.471c0.33-0.075,0.697-0.128,1.099-0.146h0.587c1.838,0.079,2.975,0.846,2.975,1.512
		c0,0.718-1.342,1.518-3.268,1.518c-0.828,0-1.548-0.148-2.102-0.375l-0.351,0.352c0.666,0.308,1.528,0.482,2.452,0.482
		c1.306,0,2.489-0.347,3.163-0.926l0.104-0.087v0.782c0,0.72-1.342,1.521-3.268,1.521c-1.553,0-2.728-0.523-3.121-1.104
		l-0.064,0.063l-0.425-0.425c-0.036,0.018-0.075,0.034-0.112,0.05v3.391c0,1.108,1.636,1.979,3.723,1.979
		c2.09,0,3.727-0.87,3.727-1.979V27.47C38.736,26.424,37.258,25.577,35.301,25.5 M38.277,32.712c0,0.719-1.342,1.52-3.268,1.52
		c-1.924,0-3.265-0.801-3.265-1.52v-0.783l0.103,0.087c0.676,0.58,1.859,0.927,3.162,0.927c1.305,0,2.487-0.347,3.163-0.927
		l0.104-0.087V32.712z M38.277,30.965c0,0.719-1.342,1.519-3.268,1.519c-1.924,0-3.265-0.8-3.265-1.519v-0.783l0.103,0.087
		c0.676,0.58,1.859,0.925,3.162,0.925c1.305,0,2.487-0.345,3.163-0.925l0.104-0.088V30.965z"/>
	<path style="clip-path:url(#SVGID_4_);fill:#FFFFFF;" d="M24.986,24.317c-0.58,0-1.053,0.471-1.053,1.052
		c0,0.581,0.473,1.054,1.053,1.054s1.053-0.473,1.053-1.054C26.039,24.789,25.566,24.317,24.986,24.317 M24.986,26.002
		c-0.349,0-0.632-0.284-0.632-0.633c0-0.348,0.283-0.631,0.632-0.631c0.348,0,0.631,0.283,0.631,0.631
		C25.617,25.718,25.334,26.002,24.986,26.002"/>
	<rect x="24.775" y="25.159" style="clip-path:url(#SVGID_4_);fill:#FFFFFF;" width="0.422" height="0.421"/>
	<path style="clip-path:url(#SVGID_4_);fill:#FFFFFF;" d="M30.821,29.044l-0.15,0.044v0.492h-1.265v-0.492l-0.15-0.044
		c-0.182-0.055-0.357-0.126-0.519-0.213L28.6,28.756l-0.348,0.346l-0.893-0.894l0.345-0.347l-0.073-0.137
		c-0.088-0.163-0.159-0.337-0.215-0.521l-0.045-0.149h-0.49v-1.262h0.49l0.045-0.151c0.056-0.184,0.127-0.359,0.215-0.521
		l0.075-0.139l-0.347-0.345l0.893-0.893L28.6,24.09l0.138-0.075c0.161-0.087,0.337-0.159,0.519-0.214l0.15-0.045v-0.49h1.265v0.49
		l0.15,0.045c0.183,0.055,0.358,0.127,0.519,0.215l0.139,0.074l0.346-0.346l0.895,0.893l-0.348,0.345l0.076,0.139
		c0.088,0.161,0.158,0.338,0.213,0.521l0.045,0.15h0.322c0.186-0.063,0.383-0.115,0.59-0.158v-0.265h-0.602
		c-0.037-0.104-0.08-0.208-0.127-0.309l0.424-0.424l-1.488-1.49l-0.425,0.427c-0.099-0.048-0.202-0.09-0.309-0.128v-0.602h-1.685
		v-5.051h-3.803c0.166,0.12,0.314,0.261,0.439,0.42h2.943v1.263h-0.421v-0.842h-0.421v0.842h-0.422v-0.842h-0.42v0.842h-0.422
		v-0.842H26.46v0.425c0.043,0.175,0.069,0.355,0.069,0.543c0,0.1-0.01,0.199-0.023,0.296h2.48v1.262h-0.421v-0.841h-0.421v0.841
		h-0.422v-0.841h-0.42v0.841h-0.422v-0.841H26.46v0.841h-0.421v-0.164c-0.193,0.24-0.434,0.44-0.707,0.586h3.654v1.262h-0.421
		v-0.842h-0.421v0.842h-0.422v-0.842h-0.42v0.842h-0.422v-0.842H26.46v0.842h-0.421v-0.842h-0.422v0.842h-4.632v-1.003h-0.215
		h-0.204v8.16h0.419v0.843h1.685v-0.843h4.632v0.843h1.684v-0.843h2.104v-0.604c0.067-0.022,0.132-0.049,0.196-0.076v-0.465
		C31.14,28.931,30.984,28.995,30.821,29.044 M28.986,23.266v0.18c-0.105,0.038-0.209,0.08-0.309,0.128l-0.308-0.308H28.986z
		 M22.25,30.422h-0.841v-0.421h0.841V30.422z M20.985,29.58v-6.314h7.15l-1.372,1.371l0.425,0.424
		c-0.046,0.101-0.089,0.204-0.127,0.309H26.46v2.106h0.604c0.036,0.105,0.079,0.208,0.127,0.308l-0.427,0.425l1.372,1.372H20.985z
		 M28.565,30.422h-0.843v-0.421h0.843V30.422z M28.986,29.58H28.37l0.308-0.309c0.1,0.047,0.203,0.09,0.309,0.127V29.58z"/>
	<path style="clip-path:url(#SVGID_4_);fill:#FFFFFF;" d="M25.617,20.49c0.037-0.055,0.069-0.113,0.1-0.172h-0.1V20.49z"/>
	<path style="clip-path:url(#SVGID_4_);fill:#FFFFFF;" d="M33.197,25.791v0.426c0.131-0.043,0.273-0.08,0.42-0.113v-0.47
		c-0.207,0.043-0.404,0.096-0.59,0.157H33.197z"/>
	<path style="clip-path:url(#SVGID_4_);fill:#FFFFFF;" d="M32.171,28.756c0.12,0.075,0.249,0.146,0.387,0.208l0.351-0.351
		c-0.145-0.061-0.279-0.126-0.4-0.194L32.171,28.756z"/>
	<path style="clip-path:url(#SVGID_4_);fill:#FFFFFF;" d="M31.824,29.697l0.064-0.063c-0.096-0.138-0.144-0.279-0.144-0.417v-0.196
		l-0.267-0.265l-0.139,0.075c-0.018,0.009-0.035,0.016-0.053,0.025v0.466c0.037-0.017,0.076-0.032,0.112-0.051L31.824,29.697z"/>
	<path style="clip-path:url(#SVGID_4_);fill:#FFFFFF;" d="M30.039,24.528c-1.046,0-1.895,0.85-1.895,1.894s0.849,1.896,1.895,1.896
		c0.479,0,0.912-0.18,1.248-0.473V27.47c0-0.151,0.031-0.299,0.089-0.439c-0.043,0.097-0.097,0.189-0.159,0.272l-0.285-0.285
		l-0.299,0.298l0.287,0.285c-0.193,0.145-0.421,0.242-0.672,0.278v-0.403h-0.42v0.403c-0.25-0.036-0.476-0.134-0.67-0.278
		l0.284-0.285l-0.297-0.298l-0.284,0.285c-0.146-0.192-0.244-0.421-0.279-0.67h0.404v-0.421h-0.404
		c0.035-0.249,0.134-0.478,0.279-0.671l0.284,0.286l0.297-0.299l-0.284-0.284c0.194-0.145,0.42-0.242,0.67-0.279v0.404h0.42v-0.404
		c0.251,0.036,0.479,0.134,0.672,0.279l-0.287,0.284l0.299,0.299l0.285-0.286c0.145,0.193,0.244,0.422,0.279,0.671h-0.404v0.421
		h0.404c-0.018,0.116-0.049,0.229-0.092,0.336c0.107-0.227,0.287-0.434,0.525-0.619C31.891,25.338,31.06,24.528,30.039,24.528"/>
	<path style="clip-path:url(#SVGID_4_);fill:#FFFFFF;" d="M31.404,26.969c-0.008,0.021-0.018,0.042-0.028,0.062
		c-0.058,0.141-0.089,0.288-0.089,0.439v0.375c0.394-0.349,0.646-0.855,0.646-1.423c0-0.023-0.004-0.048-0.004-0.072
		C31.691,26.535,31.512,26.742,31.404,26.969"/>
	<path style="clip-path:url(#SVGID_4_);fill:#FFFFFF;" d="M16.611,21.2c-0.883,0-1.6-0.717-1.6-1.599c0-0.882,0.717-1.599,1.6-1.599
		c0.184,0,0.365,0.032,0.543,0.096c0.102,0.038,0.217,0.019,0.305-0.047c0.086-0.066,0.131-0.174,0.121-0.283l-0.009-0.086
		c0-0.529,0.43-0.961,0.96-0.961c0.146,0,0.295,0.038,0.437,0.112c0.077,0.041,0.166,0.048,0.248,0.021
		c0.081-0.027,0.149-0.086,0.186-0.162c0.382-0.771,1.151-1.25,2.008-1.25c1.234,0,2.239,1.004,2.239,2.231
		c0,0.008-0.002,0.029-0.002,0.038c0,0.028,0.005,0.054,0.013,0.081h1.943c-0.37-0.269-0.822-0.43-1.313-0.43h-0.018
		c-0.161-1.438-1.382-2.559-2.862-2.559c-1.002,0-1.91,0.509-2.436,1.346c-0.144-0.044-0.293-0.067-0.443-0.067
		c-0.783,0-1.437,0.564-1.574,1.307c-0.115-0.019-0.229-0.027-0.346-0.027c-1.234,0-2.239,1.004-2.239,2.239
		c0,1.235,1.005,2.239,2.239,2.239h3.518h0.437V21.2H16.611z"/>
	<path style="clip-path:url(#SVGID_4_);fill:#FFFFFF;" d="M25.717,20.318h0.322v0.677c0.247-0.31,0.414-0.686,0.467-1.098H25.86
		C25.832,20.046,25.783,20.188,25.717,20.318"/>
	<path style="clip-path:url(#SVGID_4_);fill:#FFFFFF;" d="M25.617,18.711v-0.078h0.422v0.843h0.421V19.06
		c-0.079-0.314-0.222-0.601-0.417-0.847h-0.961C25.297,18.335,25.48,18.506,25.617,18.711"/>
	<path style="clip-path:url(#SVGID_4_);fill:#FFFFFF;" d="M20.985,21.84h3.305c0.376,0,0.73-0.094,1.042-0.259h-4.347V21.84z"/>
	<path style="clip-path:url(#SVGID_4_);fill:#FFFFFF;" d="M24.643,21.16h0.975v-0.669C25.393,20.825,25.047,21.069,24.643,21.16"/>
	<path style="clip-path:url(#SVGID_4_);fill:#FFFFFF;" d="M26.039,19.476v-0.842h-0.422v0.077c0.172,0.255,0.271,0.561,0.271,0.89
		c0,0.102-0.011,0.2-0.028,0.296h0.646c0.014-0.097,0.023-0.195,0.023-0.296c0-0.187-0.026-0.368-0.069-0.542v0.417H26.039z"/>
	<path style="clip-path:url(#SVGID_4_);fill:#FFFFFF;" d="M20.985,21.84v-0.259h4.347c0.273-0.146,0.514-0.345,0.707-0.586v-0.677
		h-0.322c-0.03,0.059-0.063,0.117-0.1,0.172v0.669h-0.975c-0.114,0.026-0.232,0.041-0.352,0.041h-3.724v0.64h0.204H20.985z"/>
	<path style="clip-path:url(#SVGID_4_);fill:#FFFFFF;" d="M23.762,17.955c0.072,0.061,0.165,0.087,0.26,0.072
		c0.096-0.017,0.184-0.025,0.268-0.025c0.288,0,0.558,0.078,0.792,0.211h0.961c-0.125-0.159-0.273-0.301-0.439-0.421H23.66
		C23.676,17.855,23.709,17.912,23.762,17.955"/>
	<rect x="23.969" y="18.641" style="clip-path:url(#SVGID_4_);fill:#FFFFFF;" width="0.64" height="0.64"/>
	<rect x="23.97" y="19.921" style="clip-path:url(#SVGID_4_);fill:#FFFFFF;" width="0.64" height="0.639"/>
	<rect x="22.689" y="19.921" style="clip-path:url(#SVGID_4_);fill:#FFFFFF;" width="0.639" height="0.639"/>
</g>
</svg>
