<?xml version="1.0" encoding="iso-8859-1"?>
<!-- Generator: Adobe Illustrator 15.1.0, SVG Export Plug-In . SVG Version: 6.00 Build 0)  -->
<!DOCTYPE svg PUBLIC "-//W3C//DTD SVG 1.1//EN" "http://www.w3.org/Graphics/SVG/1.1/DTD/svg11.dtd">
<svg version="1.1" id="Layer_1" xmlns="http://www.w3.org/2000/svg" xmlns:xlink="http://www.w3.org/1999/xlink" x="0px" y="0px"
	 width="50px" height="50px" viewBox="0 0 50 50" style="enable-background:new 0 0 50 50;" xml:space="preserve">
<g>
	<defs>
		<rect id="SVGID_1_" width="50" height="50"/>
	</defs>
	<clipPath id="SVGID_2_">
		<use xlink:href="#SVGID_1_"  style="overflow:visible;"/>
	</clipPath>
	<path style="clip-path:url(#SVGID_2_);fill:#FFFFFF;" d="M27.439,16.961c0.135,0,0.244,0.109,0.244,0.246
		c0,0.135-0.109,0.242-0.244,0.242c-0.137,0-0.246-0.107-0.246-0.242C27.193,17.07,27.303,16.961,27.439,16.961 M26.948,16.228
		c0.136,0,0.245,0.108,0.245,0.243c0,0.135-0.109,0.245-0.245,0.245c-0.134,0-0.243-0.11-0.243-0.245
		C26.705,16.336,26.814,16.228,26.948,16.228 M26.46,16.961c0.136,0,0.245,0.109,0.245,0.246c0,0.135-0.109,0.242-0.245,0.242
		s-0.245-0.107-0.245-0.242C26.215,17.07,26.324,16.961,26.46,16.961 M25.973,16.228c0.134,0,0.242,0.108,0.242,0.243
		c0,0.135-0.108,0.245-0.242,0.245c-0.137,0-0.246-0.11-0.246-0.245C25.727,16.336,25.836,16.228,25.973,16.228 M25.482,16.961
		c0.134,0,0.244,0.109,0.244,0.246c0,0.135-0.11,0.242-0.244,0.242c-0.137,0-0.246-0.107-0.246-0.242
		C25.236,17.07,25.346,16.961,25.482,16.961 M24.994,16.228c0.134,0,0.242,0.108,0.242,0.243c0,0.135-0.108,0.245-0.242,0.245
		c-0.136,0-0.245-0.11-0.245-0.245C24.749,16.336,24.858,16.228,24.994,16.228 M24.504,16.961c0.137,0,0.245,0.109,0.245,0.246
		c0,0.135-0.108,0.242-0.245,0.242c-0.133,0-0.245-0.107-0.245-0.242C24.259,17.07,24.371,16.961,24.504,16.961 M24.014,16.228
		c0.136,0,0.245,0.108,0.245,0.243c0,0.135-0.109,0.245-0.245,0.245c-0.133,0-0.242-0.11-0.242-0.245
		C23.772,16.336,23.881,16.228,24.014,16.228 M23.525,16.961c0.137,0,0.247,0.109,0.247,0.246c0,0.135-0.11,0.242-0.247,0.242
		c-0.132,0-0.244-0.107-0.244-0.242C23.281,17.07,23.393,16.961,23.525,16.961 M23.035,16.228c0.137,0,0.246,0.108,0.246,0.243
		c0,0.135-0.109,0.245-0.246,0.245c-0.133,0-0.242-0.11-0.242-0.245C22.793,16.336,22.902,16.228,23.035,16.228 M17.293,15.74
		c0.607,0,1.098,0.491,1.098,1.099s-0.491,1.099-1.098,1.099s-1.101-0.491-1.101-1.099S16.686,15.74,17.293,15.74"/>
	<path style="clip-path:url(#SVGID_2_);fill:#FFFFFF;" d="M17.293,20.872c-0.338,0-0.613,0.274-0.613,0.612
		c0,0.336,0.275,0.611,0.613,0.611c0.335,0,0.61-0.275,0.61-0.611C17.903,21.146,17.628,20.872,17.293,20.872"/>
	<path style="clip-path:url(#SVGID_2_);fill:#FFFFFF;" d="M17.293,17.449c0.335,0,0.61-0.272,0.61-0.61
		c0-0.338-0.275-0.611-0.61-0.611c-0.338,0-0.613,0.273-0.613,0.611C16.68,17.177,16.955,17.449,17.293,17.449"/>
	<path style="clip-path:url(#SVGID_2_);fill:#FFFFFF;" d="M17.293,17.938c0.607,0,1.098-0.491,1.098-1.099S17.9,15.74,17.293,15.74
		s-1.101,0.491-1.101,1.099S16.686,17.938,17.293,17.938 M17.293,16.228c0.335,0,0.61,0.273,0.61,0.611s-0.275,0.61-0.61,0.61
		c-0.338,0-0.613-0.272-0.613-0.61S16.955,16.228,17.293,16.228"/>
	<path style="clip-path:url(#SVGID_2_);fill:#FFFFFF;" d="M26.948,16.716c0.136,0,0.245-0.11,0.245-0.245
		c0-0.135-0.109-0.243-0.245-0.243c-0.134,0-0.243,0.108-0.243,0.243C26.705,16.606,26.814,16.716,26.948,16.716"/>
	<path style="clip-path:url(#SVGID_2_);fill:#FFFFFF;" d="M25.973,16.716c0.133,0,0.242-0.11,0.242-0.245
		c0-0.135-0.109-0.243-0.242-0.243c-0.137,0-0.246,0.108-0.246,0.243C25.727,16.606,25.836,16.716,25.973,16.716"/>
	<path style="clip-path:url(#SVGID_2_);fill:#FFFFFF;" d="M27.438,17.449c0.136,0,0.245-0.107,0.245-0.242
		c0-0.137-0.109-0.246-0.245-0.246s-0.245,0.109-0.245,0.246C27.193,17.342,27.303,17.449,27.438,17.449"/>
	<path style="clip-path:url(#SVGID_2_);fill:#FFFFFF;" d="M26.46,17.449c0.136,0,0.245-0.107,0.245-0.242
		c0-0.137-0.109-0.246-0.245-0.246s-0.245,0.109-0.245,0.246C26.215,17.342,26.324,17.449,26.46,17.449"/>
	<path style="clip-path:url(#SVGID_2_);fill:#FFFFFF;" d="M24.994,16.716c0.134,0,0.242-0.11,0.242-0.245
		c0-0.135-0.108-0.243-0.242-0.243c-0.136,0-0.245,0.108-0.245,0.243C24.749,16.606,24.858,16.716,24.994,16.716"/>
	<path style="clip-path:url(#SVGID_2_);fill:#FFFFFF;" d="M25.482,17.449c0.134,0,0.244-0.107,0.244-0.242
		c0-0.137-0.11-0.246-0.244-0.246c-0.137,0-0.246,0.109-0.246,0.246C25.236,17.342,25.346,17.449,25.482,17.449"/>
	<path style="clip-path:url(#SVGID_2_);fill:#FFFFFF;" d="M24.014,16.716c0.137,0,0.245-0.11,0.245-0.245
		c0-0.135-0.108-0.243-0.245-0.243c-0.133,0-0.242,0.108-0.242,0.243C23.771,16.606,23.881,16.716,24.014,16.716"/>
	<path style="clip-path:url(#SVGID_2_);fill:#FFFFFF;" d="M24.504,17.449c0.137,0,0.245-0.107,0.245-0.242
		c0-0.137-0.108-0.246-0.245-0.246c-0.133,0-0.245,0.109-0.245,0.246C24.259,17.342,24.371,17.449,24.504,17.449"/>
	<path style="clip-path:url(#SVGID_2_);fill:#FFFFFF;" d="M23.035,16.716c0.137,0,0.246-0.11,0.246-0.245
		c0-0.135-0.109-0.243-0.246-0.243c-0.133,0-0.242,0.108-0.242,0.243C22.793,16.606,22.902,16.716,23.035,16.716"/>
	<path style="clip-path:url(#SVGID_2_);fill:#FFFFFF;" d="M23.525,17.449c0.137,0,0.246-0.107,0.246-0.242
		c0-0.137-0.109-0.246-0.246-0.246c-0.133,0-0.244,0.109-0.244,0.246C23.281,17.342,23.393,17.449,23.525,17.449"/>
	<path style="clip-path:url(#SVGID_2_);fill:#FFFFFF;" d="M23.437,26.984v0.003h-0.458V26.53h0.082
		c-0.178-0.252-0.443-0.436-0.758-0.5v-1.979h2.28c0.015-0.181,0.074-0.348,0.169-0.49h-8.899c-0.352,0-0.638-0.286-0.638-0.638
		v-2.879c0-0.353,0.286-0.638,0.638-0.638h12.414c0.314,0,0.574,0.228,0.626,0.526c0.172,0.022,0.338,0.056,0.502,0.102
		c-0.003-0.356-0.175-0.668-0.438-0.872c0.267-0.208,0.438-0.524,0.438-0.884v-2.879c0-0.623-0.504-1.128-1.128-1.128H15.853
		c-0.622,0-1.128,0.505-1.128,1.128v2.879c0,0.36,0.174,0.676,0.436,0.884c-0.262,0.206-0.436,0.522-0.436,0.882v2.879
		c0,0.622,0.506,1.128,1.128,1.128h5.964v1.979c-0.479,0.1-0.857,0.477-0.955,0.954h-5.893c-0.134,0-0.244,0.108-0.244,0.244
		s0.11,0.245,0.244,0.245h5.893c0.115,0.557,0.608,0.978,1.199,0.978c0.592,0,1.082-0.421,1.195-0.978h1.061
		c0.262-0.202,0.553-0.368,0.866-0.489H23.437z M15.214,15.399c0-0.352,0.286-0.638,0.638-0.638h12.414
		c0.351,0,0.638,0.286,0.638,0.638v2.879c0,0.353-0.287,0.638-0.638,0.638H15.853c-0.352,0-0.638-0.285-0.638-0.638V15.399z
		 M22.061,27.962c-0.406,0-0.732-0.329-0.732-0.733c0-0.405,0.326-0.733,0.732-0.733c0.402,0,0.732,0.328,0.732,0.733
		C22.792,27.633,22.462,27.962,22.061,27.962"/>
	<path style="clip-path:url(#SVGID_2_);fill:#FFFFFF;" d="M28.482,26.984h-0.039H28.482z"/>
	<path style="clip-path:url(#SVGID_2_);fill:#FFFFFF;" d="M17.293,20.384c-0.607,0-1.101,0.493-1.101,1.1
		c0,0.608,0.494,1.1,1.101,1.1s1.098-0.492,1.098-1.1C18.391,20.876,17.9,20.384,17.293,20.384 M17.293,22.095
		c-0.338,0-0.613-0.274-0.613-0.611c0-0.338,0.275-0.612,0.613-0.612c0.335,0,0.61,0.274,0.61,0.612
		C17.903,21.821,17.628,22.095,17.293,22.095"/>
	<path style="clip-path:url(#SVGID_2_);fill:#FFFFFF;" d="M25.727,21.117c0,0.042,0.012,0.082,0.031,0.116
		c0.092-0.12,0.193-0.235,0.302-0.342c-0.027-0.011-0.057-0.019-0.087-0.019C25.836,20.872,25.727,20.982,25.727,21.117"/>
	<path style="clip-path:url(#SVGID_2_);fill:#FFFFFF;" d="M25.236,21.117c0-0.135-0.108-0.245-0.242-0.245
		c-0.136,0-0.245,0.11-0.245,0.245c0,0.136,0.109,0.245,0.245,0.245C25.128,21.362,25.236,21.253,25.236,21.117"/>
	<path style="clip-path:url(#SVGID_2_);fill:#FFFFFF;" d="M25.236,21.85c0,0.064,0.025,0.122,0.066,0.164
		c0.057-0.141,0.125-0.275,0.201-0.406c-0.008,0-0.014-0.001-0.021-0.001C25.346,21.607,25.236,21.716,25.236,21.85"/>
	<path style="clip-path:url(#SVGID_2_);fill:#FFFFFF;" d="M24.014,20.872c-0.133,0-0.242,0.109-0.242,0.245
		c0,0.135,0.109,0.245,0.242,0.245c0.137,0,0.245-0.11,0.245-0.245C24.259,20.981,24.151,20.872,24.014,20.872"/>
	<path style="clip-path:url(#SVGID_2_);fill:#FFFFFF;" d="M24.504,21.607c-0.133,0-0.245,0.109-0.245,0.243
		c0,0.135,0.112,0.245,0.245,0.245c0.137,0,0.245-0.11,0.245-0.245C24.749,21.716,24.641,21.607,24.504,21.607"/>
	<path style="clip-path:url(#SVGID_2_);fill:#FFFFFF;" d="M23.035,20.872c-0.133,0-0.242,0.109-0.242,0.245
		c0,0.135,0.109,0.245,0.242,0.245c0.137,0,0.246-0.11,0.246-0.245C23.281,20.981,23.172,20.872,23.035,20.872"/>
	<path style="clip-path:url(#SVGID_2_);fill:#FFFFFF;" d="M23.525,21.607c-0.133,0-0.244,0.109-0.244,0.243
		c0,0.135,0.111,0.245,0.244,0.245c0.137,0,0.246-0.11,0.246-0.245C23.771,21.716,23.663,21.607,23.525,21.607"/>
	<path style="clip-path:url(#SVGID_2_);fill:#FFFFFF;" d="M27.547,24.245c-0.379,0-0.684,0.309-0.684,0.687h0.455
		c0-0.127,0.104-0.23,0.229-0.23c0.129,0,0.229,0.103,0.229,0.23h0.458C28.234,24.554,27.926,24.245,27.547,24.245"/>
	<path style="clip-path:url(#SVGID_2_);fill:#FFFFFF;" d="M28.691,24.932h0.455c0-0.127,0.104-0.23,0.229-0.23
		c0.128,0,0.229,0.103,0.229,0.23h0.459c0-0.378-0.31-0.687-0.688-0.687C29,24.245,28.691,24.554,28.691,24.932"/>
	<path style="clip-path:url(#SVGID_2_);fill:#FFFFFF;" d="M28.463,30.414c-0.504,0-0.916,0.41-0.916,0.914s0.412,0.914,0.916,0.914
		s0.912-0.41,0.912-0.914S28.967,30.414,28.463,30.414 M28.463,31.784c-0.254,0-0.458-0.204-0.458-0.456s0.204-0.458,0.458-0.458
		c0.25,0,0.457,0.206,0.457,0.458S28.713,31.784,28.463,31.784"/>
	<path style="clip-path:url(#SVGID_2_);fill:#FFFFFF;" d="M25.607,23.56h0.111v0.002h1.277c0.347-0.158,0.625-0.393,0.802-0.674
		c0.174,0.229,0.431,0.433,0.755,0.604c0.145-0.074,0.256-0.199,0.313-0.353c-0.545-0.261-0.86-0.611-0.86-0.949
		c0-0.125-0.101-0.229-0.229-0.229c-0.126,0-0.229,0.104-0.229,0.229c0,0.57-0.588,1.043-1.356,1.128
		c0.123-1.148,1.095-2.042,2.271-2.042c0.151,0,0.301,0.014,0.442,0.044v-0.464c-0.145-0.023-0.291-0.038-0.442-0.038
		c-0.457,0-0.89,0.117-1.269,0.317c-0.012,0.127-0.115,0.227-0.245,0.227c-0.032,0-0.063-0.007-0.093-0.019
		c-0.114,0.083-0.224,0.175-0.324,0.277c0.101,0.029,0.174,0.122,0.174,0.231c0,0.135-0.109,0.244-0.245,0.244
		c-0.095,0-0.177-0.054-0.218-0.136c-0.239,0.333-0.409,0.723-0.479,1.145h-0.156c-0.035,0-0.07,0.007-0.104,0.01
		c0.113-1.535,1.396-2.752,2.959-2.752c0.151,0,0.298,0.011,0.442,0.033v-0.351c0-0.037-0.003-0.075-0.012-0.111
		c-0.141-0.018-0.286-0.027-0.431-0.027c-0.934,0-1.783,0.375-2.402,0.985c0.093,0.034,0.155,0.122,0.155,0.226
		c0,0.136-0.109,0.245-0.242,0.245c-0.093,0-0.174-0.052-0.215-0.129c-0.094,0.12-0.178,0.245-0.255,0.375
		c0.125,0.012,0.224,0.116,0.224,0.243c0,0.135-0.11,0.244-0.244,0.244c-0.07,0-0.137-0.03-0.18-0.081
		c-0.164,0.39-0.259,0.815-0.266,1.262c-0.114,0.075-0.208,0.172-0.285,0.286h0.841C25.6,23.562,25.602,23.56,25.607,23.56"/>
	<path style="clip-path:url(#SVGID_2_);fill:#FFFFFF;" d="M33.946,33.155v-2.97c0-1.89-1.54-3.428-3.427-3.428h-0.252
		c0.083-0.07,0.159-0.146,0.232-0.228h0.248c0.629,0,1.141-0.512,1.141-1.142v-0.404c0.277-0.183,0.459-0.498,0.459-0.853
		c0-0.358-0.182-0.671-0.461-0.855c-0.023-1.543-1.072-2.839-2.492-3.242v0.01v0.467c1.113,0.37,1.937,1.387,2.025,2.602
		c-0.034-0.003-0.067-0.009-0.102-0.009h-0.156c-0.166-0.983-0.852-1.789-1.768-2.122v0.493c0.795,0.358,1.352,1.155,1.352,2.08
		c-0.543-0.02-1.022-0.108-1.426-0.236c-0.057,0.149-0.142,0.284-0.254,0.397c0.485,0.169,1.059,0.276,1.682,0.297v0.688
		c0,0.518-0.174,0.989-0.463,1.372h-1.822v0.457h1.365c-0.131,0.099-0.273,0.182-0.426,0.251c-0.291,0.134-0.607,0.2-0.92,0.203
		h0.667c0.136,0,0.245,0.109,0.245,0.244c0,0.136-0.109,0.245-0.245,0.245h-0.044l-0.643,1.287l-0.644-1.287h-0.513l0.786,1.568
		h-0.403l-0.785-1.568h-0.513l0.788,1.568h-1.916c-0.629,0-1.144,0.515-1.144,1.144v2.97h-0.684v-2.97
		c0-1.211,0.728-2.251,1.771-2.712h-0.891c-0.814,0.626-1.338,1.608-1.338,2.712v2.97h-1.37v0.457h13.708v-0.457H33.946z
		 M31.203,23.559h0.115c0.314,0,0.57,0.257,0.57,0.572s-0.256,0.57-0.57,0.57h-0.115V23.559z M31.162,25.158h0.156
		c0.037,0,0.076-0.006,0.113-0.01v0.24c0,0.347-0.259,0.63-0.594,0.675C30.996,25.788,31.107,25.483,31.162,25.158 M29.746,27.216
		h0.403l-0.915,1.826h-0.402L29.746,27.216z M32.348,33.155h-7.77v-2.97c0-0.378,0.308-0.686,0.686-0.686h6.396
		c0.379,0,0.688,0.308,0.688,0.686V33.155z M33.488,33.155h-0.686v-2.97c0-0.629-0.512-1.144-1.143-1.144h-1.914l0.91-1.818
		c1.574,0.07,2.832,1.371,2.832,2.962V33.155z"/>
	<path style="clip-path:url(#SVGID_2_);fill:#FFFFFF;" d="M26.176,24.701v-0.65h-0.457v0.65h-0.111c-0.315,0-0.572-0.255-0.572-0.57
		c0-0.028,0.002-0.054,0.009-0.08h-0.461c-0.003,0.026-0.005,0.053-0.005,0.08c0,0.566,0.459,1.028,1.03,1.028h0.156
		c0.105,0.633,0.43,1.193,0.89,1.599h-0.248c-0.431,0-0.841,0.08-1.223,0.227h3.261c-0.316-0.003-0.629-0.069-0.924-0.203
		C26.73,26.422,26.176,25.627,26.176,24.701"/>
	<path style="clip-path:url(#SVGID_2_);fill:#FFFFFF;" d="M25.719,24.051h0.457v-0.275c0.299-0.026,0.576-0.102,0.82-0.215h-1.277
		V24.051z"/>
	<path style="clip-path:url(#SVGID_2_);fill:#FFFFFF;" d="M28.904,21.319c0.172,0.034,0.334,0.087,0.49,0.156v-0.493
		c-0.158-0.058-0.321-0.099-0.49-0.126V21.319z"/>
	<path style="clip-path:url(#SVGID_2_);fill:#FFFFFF;" d="M28.904,20.044v0.351c0.169,0.024,0.332,0.065,0.49,0.117v-0.468v-0.009
		c-0.164-0.046-0.33-0.08-0.502-0.102C28.901,19.969,28.904,20.006,28.904,20.044"/>
	<path style="clip-path:url(#SVGID_2_);fill:#FFFFFF;" d="M26.267,27.223l0.125,0.25h0.513l-0.128-0.257h0.403l0.127,0.257h0.513
		l-0.063-0.126c0.226,0.063,0.46,0.098,0.706,0.098c0.244,0,0.479-0.034,0.705-0.098l-0.063,0.126h0.044
		c0.136,0,0.245-0.107,0.245-0.244c0-0.136-0.109-0.244-0.245-0.244h-0.667h-0.039h-3.261c-0.313,0.121-0.604,0.287-0.866,0.488
		h0.891C25.533,27.327,25.891,27.24,26.267,27.223"/>
	<path style="clip-path:url(#SVGID_2_);fill:#FFFFFF;" d="M25.594,23.562h-0.842c-0.095,0.142-0.154,0.309-0.169,0.49h0.461
		C25.082,23.778,25.313,23.565,25.594,23.562"/>
	<path style="clip-path:url(#SVGID_2_);fill:#FFFFFF;" d="M28.553,23.492c0.154,0.083,0.33,0.159,0.514,0.224
		c0.112-0.112,0.197-0.247,0.254-0.397c-0.166-0.053-0.318-0.113-0.456-0.18C28.809,23.292,28.697,23.417,28.553,23.492"/>
	<path style="clip-path:url(#SVGID_2_);fill:#FFFFFF;" d="M26.948,21.362c0.13,0,0.233-0.1,0.245-0.228
		c-0.117,0.062-0.232,0.131-0.338,0.209C26.885,21.355,26.916,21.362,26.948,21.362"/>
	<path style="clip-path:url(#SVGID_2_);fill:#FFFFFF;" d="M25.758,21.232c0.041,0.077,0.122,0.129,0.215,0.129
		c0.133,0,0.242-0.109,0.242-0.245c0-0.104-0.063-0.192-0.155-0.226C25.951,20.999,25.85,21.112,25.758,21.232"/>
	<path style="clip-path:url(#SVGID_2_);fill:#FFFFFF;" d="M26.242,21.959c0.041,0.082,0.123,0.136,0.218,0.136
		c0.137,0,0.245-0.11,0.245-0.245c0-0.109-0.073-0.202-0.174-0.231C26.428,21.724,26.329,21.838,26.242,21.959"/>
	<path style="clip-path:url(#SVGID_2_);fill:#FFFFFF;" d="M25.482,22.095c0.134,0,0.244-0.109,0.244-0.245
		c0-0.126-0.099-0.231-0.224-0.242c-0.075,0.132-0.144,0.266-0.2,0.406C25.346,22.065,25.412,22.095,25.482,22.095"/>
	<rect x="31.432" y="31.099" style="clip-path:url(#SVGID_2_);fill:#FFFFFF;" width="0.457" height="1.6"/>
	<rect x="31.432" y="30.186" style="clip-path:url(#SVGID_2_);fill:#FFFFFF;" width="0.457" height="0.458"/>
	<rect x="33.488" y="21.961" style="clip-path:url(#SVGID_2_);fill:#FFFFFF;" width="0.458" height="0.456"/>
	<rect x="33.488" y="22.875" style="clip-path:url(#SVGID_2_);fill:#FFFFFF;" width="0.458" height="0.456"/>
	<rect x="33.488" y="23.789" style="clip-path:url(#SVGID_2_);fill:#FFFFFF;" width="0.458" height="0.456"/>
	<rect x="22.979" y="24.701" style="clip-path:url(#SVGID_2_);fill:#FFFFFF;" width="0.458" height="0.458"/>
	<rect x="22.979" y="25.617" style="clip-path:url(#SVGID_2_);fill:#FFFFFF;" width="0.458" height="0.456"/>
	<path style="clip-path:url(#SVGID_2_);fill:#FFFFFF;" d="M23.061,26.53c0.092,0.134,0.163,0.288,0.195,0.454h0.181V26.53H23.061z"
		/>
	<path style="clip-path:url(#SVGID_2_);fill:#FFFFFF;" d="M23.061,26.53h-0.082v0.457h0.458v-0.003h-0.181
		C23.224,26.818,23.152,26.664,23.061,26.53"/>
	<path style="clip-path:url(#SVGID_2_);fill:#FFFFFF;" d="M14.158,33.02H9.443c-0.116,0-0.211,0.096-0.211,0.214v9.854
		c0,0.119,0.095,0.215,0.211,0.215h1.114c-0.151,0.306-0.208,0.652-0.157,0.994c0.069,0.481,0.342,0.912,0.747,1.183l0.535,0.357
		c0.038,0.023,0.078,0.036,0.119,0.036s0.084-0.013,0.12-0.036l0.536-0.358c0.403-0.27,0.676-0.7,0.746-1.183
		c0.051-0.341-0.008-0.688-0.157-0.993h1.112c0.119,0,0.215-0.097,0.215-0.216v-9.853C14.373,33.115,14.277,33.02,14.158,33.02
		 M12.779,44.236c-0.051,0.36-0.256,0.683-0.561,0.886l-0.417,0.277l-0.416-0.277c-0.307-0.203-0.508-0.525-0.562-0.886
		c-0.047-0.33,0.035-0.666,0.226-0.935h0.109v0.643h0.428v-0.643h0.43v0.643h0.427v-0.643h0.11
		C12.744,43.571,12.828,43.906,12.779,44.236 M13.942,42.872H9.66v-9.423h4.282V42.872z"/>
	<path style="clip-path:url(#SVGID_2_);fill:#FFFFFF;" d="M11.801,33.876c-0.708,0-1.285,0.577-1.285,1.286s0.577,1.284,1.285,1.284
		c0.709,0,1.285-0.575,1.285-1.284S12.51,33.876,11.801,33.876 M11.801,36.02c-0.471,0-0.855-0.386-0.855-0.857
		c0-0.474,0.384-0.857,0.855-0.857c0.475,0,0.858,0.384,0.858,0.857C12.659,35.634,12.276,36.02,11.801,36.02"/>
	<path style="clip-path:url(#SVGID_2_);fill:#FFFFFF;" d="M11.801,36.875c-0.708,0-1.285,0.577-1.285,1.285
		c0,0.709,0.577,1.285,1.285,1.285c0.709,0,1.285-0.576,1.285-1.285C13.086,37.452,12.51,36.875,11.801,36.875 M11.801,39.018
		c-0.471,0-0.855-0.384-0.855-0.857c0-0.472,0.384-0.856,0.855-0.856c0.475,0,0.858,0.385,0.858,0.856
		C12.659,38.634,12.276,39.018,11.801,39.018"/>
</g>
<g>
	<defs>
		<rect id="SVGID_3_" x="5.375" y="33.02" width="12.853" height="12.853"/>
	</defs>
	<clipPath id="SVGID_4_">
		<use xlink:href="#SVGID_3_"  style="overflow:visible;"/>
	</clipPath>
	<path style="clip-path:url(#SVGID_4_);fill:#FFFFFF;" d="M11.801,39.874c-0.708,0-1.285,0.576-1.285,1.284
		c0,0.71,0.577,1.286,1.285,1.286c0.709,0,1.285-0.576,1.285-1.286C13.086,40.45,12.51,39.874,11.801,39.874 M11.801,42.017
		c-0.471,0-0.855-0.386-0.855-0.858s0.384-0.856,0.855-0.856c0.475,0,0.858,0.384,0.858,0.856S12.276,42.017,11.801,42.017"/>
	<path style="clip-path:url(#SVGID_4_);fill:#FFFFFF;" d="M18.176,34.807l-1.502-1.714c-0.081-0.094-0.239-0.094-0.321,0
		l-1.501,1.714c-0.055,0.063-0.069,0.153-0.033,0.229c0.036,0.075,0.113,0.127,0.197,0.127h0.427v1.712
		c0,0.118,0.096,0.215,0.215,0.215h1.713c0.118,0,0.213-0.097,0.213-0.215v-1.712h0.429c0.085,0,0.161-0.052,0.195-0.127
		C18.244,34.96,18.229,34.87,18.176,34.807 M17.371,34.734c-0.119,0-0.215,0.095-0.215,0.214v1.713h-1.285v-1.713
		c0-0.119-0.096-0.214-0.213-0.214h-0.171l1.027-1.176l1.027,1.176H17.371z"/>
</g>
<g>
	<defs>
		<rect id="SVGID_5_" width="50" height="50"/>
	</defs>
	<clipPath id="SVGID_6_">
		<use xlink:href="#SVGID_5_"  style="overflow:visible;"/>
	</clipPath>
	<rect x="15.443" y="37.518" style="clip-path:url(#SVGID_6_);fill:#FFFFFF;" width="2.141" height="0.43"/>
	<rect x="15.443" y="38.375" style="clip-path:url(#SVGID_6_);fill:#FFFFFF;" width="2.141" height="0.429"/>
	<rect x="15.443" y="39.232" style="clip-path:url(#SVGID_6_);fill:#FFFFFF;" width="2.141" height="0.428"/>
	<rect x="15.443" y="40.089" style="clip-path:url(#SVGID_6_);fill:#FFFFFF;" width="2.141" height="0.426"/>
	<rect x="15.443" y="41.802" style="clip-path:url(#SVGID_6_);fill:#FFFFFF;" width="2.141" height="0.43"/>
	<rect x="15.443" y="43.515" style="clip-path:url(#SVGID_6_);fill:#FFFFFF;" width="2.141" height="0.43"/>
</g>
<g>
	<defs>
		<rect id="SVGID_7_" x="5.375" y="33.02" width="12.853" height="12.853"/>
	</defs>
	<clipPath id="SVGID_8_">
		<use xlink:href="#SVGID_7_"  style="overflow:visible;"/>
	</clipPath>
	<rect x="15.443" y="45.229" style="clip-path:url(#SVGID_8_);fill:#FFFFFF;" width="2.141" height="0.43"/>
	<path style="clip-path:url(#SVGID_8_);fill:#FFFFFF;" d="M8.75,40.161L7.25,38.448c-0.082-0.094-0.24-0.094-0.322,0l-1.499,1.713
		c-0.056,0.064-0.071,0.153-0.034,0.229c0.034,0.078,0.111,0.125,0.196,0.125h0.427v1.716c0,0.118,0.096,0.213,0.215,0.213h1.714
		c0.117,0,0.212-0.095,0.212-0.213v-1.716h0.431c0.081,0,0.161-0.047,0.194-0.125C8.818,40.314,8.804,40.226,8.75,40.161
		 M7.946,40.09c-0.12,0-0.216,0.095-0.216,0.212v1.715H6.445v-1.715c0-0.117-0.096-0.212-0.213-0.212H6.06l1.028-1.177l1.027,1.177
		H7.946z"/>
</g>
<g>
	<defs>
		<rect id="SVGID_9_" width="50" height="50"/>
	</defs>
	<clipPath id="SVGID_10_">
		<use xlink:href="#SVGID_9_"  style="overflow:visible;"/>
	</clipPath>
	<rect x="6.018" y="42.872" style="clip-path:url(#SVGID_10_);fill:#FFFFFF;" width="2.141" height="0.43"/>
	<rect x="6.018" y="43.73" style="clip-path:url(#SVGID_10_);fill:#FFFFFF;" width="2.141" height="0.427"/>
	<rect x="6.018" y="44.587" style="clip-path:url(#SVGID_10_);fill:#FFFFFF;" width="2.141" height="0.428"/>
	<rect x="6.018" y="45.443" style="clip-path:url(#SVGID_10_);fill:#FFFFFF;" width="2.141" height="0.428"/>
	<path style="clip-path:url(#SVGID_10_);fill:#FFFFFF;" d="M24.439,46.381l0.619-0.004l0.002,0.619L24.442,47L24.439,46.381z
		 M23.243,46.955L23.243,46.955l-0.308-0.021l0.041-0.619l0.307,0.021l0.312,0.02l-0.041,0.618L23.243,46.955z M25.903,46.345
		l0.619-0.045l0.044,0.616l-0.617,0.045L25.903,46.345z M21.744,46.805l-0.307-0.041l0.081-0.614l0.617,0.083l-0.085,0.613
		L21.744,46.805z M27.365,46.208l0.612-0.089l0.087,0.614l-0.308,0.043l-0.305,0.044L27.365,46.208z M20.254,46.554L20.254,46.554
		l-0.303-0.063l0.123-0.604l0.305,0.061l0.303,0.063l-0.125,0.604L20.254,46.554z M28.811,45.974l0.609-0.13l0.127,0.608
		l-0.607,0.129L28.811,45.974z M18.789,46.199l-0.301-0.082l0.167-0.6l0.597,0.167l-0.166,0.598L18.789,46.199z M34.338,44.072
		l0.549-0.287l0.288,0.549l-0.55,0.289L34.338,44.072z M35.623,43.367l0.524-0.326l0.327,0.528l-0.529,0.324L35.623,43.367z
		 M36.852,42.572l0.503-0.357l0.362,0.502l-0.254,0.181l-0.25,0.18L36.852,42.572z M38.025,41.697l0.479-0.395l0.393,0.478
		l-0.477,0.396L38.025,41.697z M39.137,40.74l0.449-0.425l0.428,0.449l-0.453,0.428L39.137,40.74z M40.18,39.714l0.42-0.456
		l0.457,0.42l-0.42,0.457L40.18,39.714z M41.152,38.614l0.387-0.482l0.484,0.389l-0.389,0.483L41.152,38.614z M6.696,37.684
		L6.696,37.684l-0.18-0.253l0.508-0.358l0.355,0.507l-0.506,0.357L6.696,37.684z M42.045,37.455l0.355-0.508l0.506,0.353
		l-0.175,0.253l-0.177,0.256L42.045,37.455z M5.867,36.422l-0.16-0.265l0.528-0.32l0.325,0.527l-0.531,0.324L5.867,36.422z
		 M42.856,36.234l0.319-0.531l0.531,0.319l-0.318,0.53L42.856,36.234z M5.129,35.109l-0.142-0.275l0.551-0.282l0.284,0.549
		l-0.55,0.285L5.129,35.109z M43.588,34.962l0.139-0.275l0.141-0.275l0.555,0.281l-0.142,0.275l-0.143,0.276L43.588,34.962z
		 M4.484,33.749L4.484,33.749l-0.122-0.286l0.569-0.245l0.245,0.569L4.607,34.03L4.484,33.749z M44.228,33.644l0.243-0.571
		l0.569,0.244l-0.243,0.569L44.228,33.644z M3.934,32.343L3.83,32.052l0.583-0.207L4.62,32.43l-0.583,0.206L3.934,32.343z
		 M44.775,32.282l0.202-0.585l0.585,0.202l-0.205,0.586L44.775,32.282z M3.482,30.905l-0.085-0.298l0.599-0.168l0.164,0.599
		l-0.597,0.166L3.482,30.905z M45.228,30.889l0.161-0.597l0.598,0.16l-0.162,0.599L45.228,30.889z M3.127,29.44l-0.062-0.303
		l0.607-0.126l0.125,0.607L3.19,29.742L3.127,29.44z M45.582,29.466l0.121-0.607l0.609,0.12l-0.12,0.609L45.582,29.466z
		 M2.953,28.489L2.953,28.489l-0.049-0.307l0.612-0.099l0.099,0.612l-0.613,0.101L2.953,28.489z M45.838,28.022l0.081-0.615
		l0.613,0.078l-0.038,0.307L46.453,28.1L45.838,28.022z M2.764,26.994l-0.029-0.311l0.619-0.057l0.054,0.617l-0.616,0.059
		L2.764,26.994z M45.996,26.564l0.035-0.62l0.621,0.038L46.613,26.6L45.996,26.564z M2.678,25.487l-0.009-0.31l0.619-0.015
		l0.016,0.618l-0.621,0.016L2.678,25.487z M46.047,24.791l-0.002-0.31l0.621-0.007l0.002,0.309h-0.002l0.005,0.311l-0.621,0.007
		L46.047,24.791z M2.678,24.289l0.029-0.62l0.619,0.029l-0.014,0.31l-0.013,0.31L2.678,24.289z M2.779,22.785l0.036-0.309
		l0.035-0.308l0.615,0.071l-0.07,0.617L2.779,22.785z M2.98,21.287l0.114-0.608l0.611,0.114l-0.114,0.608L2.98,21.287z
		 M45.551,20.428L45.551,20.428l-0.064-0.303l0.605-0.131l0.064,0.303l0.068,0.302l-0.608,0.132L45.551,20.428z M3.288,19.81
		l0.076-0.299l0.08-0.302l0.598,0.156l-0.155,0.601L3.288,19.81z M45.189,19.008l-0.084-0.298l0.594-0.172l0.174,0.594l-0.597,0.173
		L45.189,19.008z M3.694,18.357l0.098-0.295l0.099-0.294l0.588,0.196l-0.198,0.589L3.694,18.357z M44.734,17.616l-0.106-0.29
		l0.579-0.215l0.217,0.582l-0.582,0.214L44.734,17.616z M4.201,16.935l0.235-0.572l0.573,0.235l-0.237,0.574L4.201,16.935z
		 M44.184,16.258l-0.127-0.282l0.566-0.253l0.254,0.565l-0.568,0.253L44.184,16.258z M4.803,15.553l0.271-0.557l0.559,0.274
		l-0.275,0.557L4.803,15.553z M43.539,14.943l-0.147-0.273l0.548-0.292l0.291,0.546l-0.545,0.292L43.539,14.943z M5.498,14.213
		l0.155-0.267l0.154-0.268l0.537,0.31l-0.311,0.538L5.498,14.213z M42.805,13.675l-0.163-0.263l0.523-0.328l0.167,0.263l0.163,0.263
		l-0.526,0.328L42.805,13.675z M6.281,12.925l0.347-0.513l0.515,0.348l-0.35,0.512L6.281,12.925z M41.988,12.461l-0.183-0.25
		l0.501-0.365l0.365,0.503l-0.504,0.363L41.988,12.461z M7.154,11.693l0.381-0.488l0.488,0.382l-0.382,0.489L7.154,11.693z
		 M41.087,11.305L41.087,11.305l-0.198-0.237l0.473-0.398l0.4,0.476l-0.477,0.397L41.087,11.305z M8.104,10.525l0.208-0.231
		l0.207-0.229l0.464,0.411l-0.416,0.462L8.104,10.525z M40.111,10.216l-0.216-0.225l0.446-0.429l0.217,0.223v0.001l0.215,0.224
		l-0.45,0.428L40.111,10.216z M9.134,9.424l0.444-0.431l0.434,0.443L9.567,9.868L9.134,9.424z M39.06,9.193l-0.229-0.209
		l0.416-0.459l0.229,0.209l0.229,0.208l-0.416,0.459L39.06,9.193z M10.238,8.395l0.473-0.4l0.401,0.474L10.638,8.87L10.238,8.395z
		 M37.943,8.244l-0.244-0.191l0.385-0.485l0.485,0.383l-0.385,0.485L37.943,8.244z M11.406,7.446l0.501-0.367l0.365,0.499
		l-0.248,0.184l-0.25,0.183L11.406,7.446z M36.764,7.375l-0.256-0.178l0.351-0.51l0.509,0.35L37.02,7.55L36.764,7.375z
		 M12.637,6.577l0.266-0.166l0.259-0.167l0.333,0.526L12.97,7.1L12.637,6.577z M35.526,6.587L35.26,6.428l0.315-0.532l0.534,0.315
		l-0.316,0.532L35.526,6.587z M13.929,5.797l0.544-0.295l0.295,0.546l-0.545,0.294L13.929,5.797z M34.241,5.885L34.241,5.885
		l-0.278-0.139l0.278-0.554l0.553,0.278l-0.278,0.555L34.241,5.885z M15.269,5.105l0.565-0.256l0.256,0.564l-0.281,0.13
		l-0.283,0.127L15.269,5.105z M32.908,5.271l-0.289-0.12l0.24-0.57l0.287,0.119l0.289,0.119l-0.242,0.574L32.908,5.271z
		 M31.538,4.753L31.538,4.753l-0.294-0.1l0.199-0.586l0.295,0.1l0.29,0.099l-0.199,0.587L31.538,4.753z M30.132,4.33l-0.296-0.081
		l0.154-0.597l0.6,0.157l-0.158,0.599L30.132,4.33z M19.529,3.611l0.303-0.069l0.303-0.068l0.135,0.605l-0.604,0.136L19.529,3.611z
		 M28.702,4l-0.305-0.056l0.117-0.61l0.61,0.119L29.008,4.06L28.702,4z M21.01,3.31l0.612-0.095l0.093,0.613l-0.609,0.094
		L21.01,3.31z M27.253,3.777h0.003l-0.311-0.038l0.076-0.615l0.615,0.074l-0.074,0.615L27.253,3.777z M22.504,3.109l0.616-0.054
		l0.052,0.62l-0.615,0.052L22.504,3.109z M25.793,3.652h0.002l-0.311-0.017l0.033-0.62l0.618,0.031l-0.032,0.62L25.793,3.652z
		 M24.008,3.011L24.629,3l0.01,0.62L24.02,3.631L24.008,3.011z"/>
	<path style="clip-path:url(#SVGID_10_);fill:#FFFFFF;" d="M18.99,4.664V4.123c-0.531-0.031-0.955-0.456-0.988-0.987h-0.54
		c-0.031,0.531-0.458,0.956-0.99,0.987v0.541c0.532,0.031,0.959,0.457,0.99,0.989h0.54C18.035,5.121,18.459,4.694,18.99,4.664
		 M18.111,4.442c-0.127,0.093-0.237,0.205-0.331,0.329l-0.048,0.066l-0.051-0.066c-0.091-0.124-0.201-0.236-0.326-0.329l-0.068-0.05
		l0.068-0.05C17.48,4.25,17.59,4.14,17.681,4.017l0.051-0.069l0.048,0.067c0.094,0.125,0.204,0.236,0.331,0.328l0.064,0.05
		L18.111,4.442z"/>
	<path style="clip-path:url(#SVGID_10_);fill:#FFFFFF;" d="M47.331,22.519v-0.358c-0.458-0.056-0.819-0.421-0.878-0.879h-0.359
		c-0.054,0.458-0.42,0.823-0.877,0.879v0.358c0.457,0.056,0.823,0.421,0.877,0.879h0.359C46.512,22.94,46.873,22.575,47.331,22.519
		 M46.273,22.644c-0.085-0.116-0.188-0.217-0.305-0.303c0.117-0.087,0.22-0.19,0.305-0.305c0.088,0.115,0.188,0.218,0.305,0.305
		C46.462,22.427,46.361,22.528,46.273,22.644"/>
	<path style="clip-path:url(#SVGID_10_);fill:#FFFFFF;" d="M33.688,45.518v-0.672c-0.64-0.032-1.157-0.547-1.188-1.188h-0.674
		c-0.031,0.642-0.547,1.156-1.189,1.188v0.672c0.643,0.032,1.158,0.548,1.189,1.188H32.5C32.53,46.065,33.048,45.55,33.688,45.518
		 M32.609,45.231c-0.15,0.112-0.284,0.245-0.396,0.396l-0.048,0.067l-0.053-0.067c-0.111-0.15-0.246-0.283-0.395-0.396l-0.068-0.05
		l0.068-0.05c0.148-0.112,0.283-0.247,0.395-0.396l0.053-0.066l0.048,0.066c0.111,0.151,0.245,0.285,0.396,0.396l0.067,0.05
		L32.609,45.231z"/>
</g>
</svg>
