<?xml version="1.0" encoding="iso-8859-1"?>
<!-- Generator: Adobe Illustrator 15.1.0, SVG Export Plug-In . SVG Version: 6.00 Build 0)  -->
<!DOCTYPE svg PUBLIC "-//W3C//DTD SVG 1.1//EN" "http://www.w3.org/Graphics/SVG/1.1/DTD/svg11.dtd">
<svg version="1.1" id="Layer_1" xmlns="http://www.w3.org/2000/svg" xmlns:xlink="http://www.w3.org/1999/xlink" x="0px" y="0px"
	 width="50px" height="50px" viewBox="0 0 50 50" style="enable-background:new 0 0 50 50;" xml:space="preserve">
<path style="fill:#FFFFFF;" d="M24.703,46.064l0.617-0.001l0.004,0.617l-0.619,0.002L24.703,46.064z M23.511,46.637l-0.306-0.02
	l0.039-0.616l0.618,0.04l-0.04,0.616L23.511,46.637z M26.162,46.029l0.311-0.024v0.002l0.308-0.023l0.045,0.616l-0.309,0.023
	l-0.307,0.023L26.162,46.029z M22.016,46.489l-0.306-0.041l0.083-0.61l0.612,0.081l-0.081,0.61L22.016,46.489z M20.533,46.238
	L20.533,46.238l-0.304-0.063l0.125-0.604l0.605,0.124L20.834,46.3L20.533,46.238z M19.068,45.886l-0.296-0.083l0.164-0.595
	l0.596,0.165l-0.164,0.595L19.068,45.886z M30.486,45.329l0.296-0.084l0.298-0.084l0.168,0.594L30.95,45.84l-0.296,0.083
	L30.486,45.329z M17.634,45.432l-0.292-0.103l0.207-0.582l0.583,0.206l-0.206,0.583L17.634,45.432z M31.883,44.902l0.582-0.209
	l0.207,0.582l-0.581,0.208L31.883,44.902z M16.234,44.882L16.234,44.882l-0.284-0.122l0.246-0.567l0.566,0.245l-0.245,0.567
	L16.234,44.882z M33.246,44.38l0.565-0.248l0.251,0.565l-0.284,0.126v-0.002l-0.283,0.124L33.246,44.38z M14.876,44.238
	l-0.275-0.143l0.284-0.549l0.549,0.283l-0.284,0.549L14.876,44.238z M34.571,43.766l0.549-0.287l0.287,0.547l-0.274,0.144
	l-0.272,0.144L34.571,43.766z M13.564,43.502L13.564,43.502l-0.264-0.16l0.322-0.528l0.527,0.321l-0.32,0.527L13.564,43.502z
	 M35.851,43.062l0.264-0.161l0.263-0.163l0.324,0.526l-0.527,0.322L35.851,43.062z M12.308,42.679h-0.002l-0.253-0.178l0.358-0.506
	l0.251,0.178l0.255,0.179l-0.356,0.506L12.308,42.679z M37.077,42.271l0.251-0.18v0.001l0.252-0.181l0.359,0.503l-0.251,0.18
	l-0.251,0.181L37.077,42.271z M11.107,41.771l-0.238-0.193l0.387-0.479l0.479,0.39l-0.388,0.478L11.107,41.771z M38.248,41.397
	l0.477-0.393l0.394,0.476l-0.238,0.196l-0.238,0.197L38.248,41.397z M9.974,40.785l-0.225-0.211l0.42-0.452l0.453,0.422L10.2,40.996
	L9.974,40.785z M8.911,39.724L8.911,39.724L8.7,39.497l0.451-0.421l0.421,0.45l-0.45,0.422L8.911,39.724z M7.92,38.592l-0.195-0.239
	l0.479-0.392l0.391,0.479l-0.479,0.391L7.92,38.592z M7.011,37.396L7.011,37.396l-0.176-0.252l0.503-0.356l0.356,0.504l-0.504,0.356
	L7.011,37.396z M6.188,36.139l-0.16-0.264l0.529-0.321l0.321,0.528l-0.529,0.321L6.188,36.139z M5.452,34.831l-0.141-0.274
	l0.549-0.284l0.285,0.549l-0.551,0.283L5.452,34.831z M4.809,33.471L4.809,33.471l-0.122-0.282l0.566-0.245l0.124,0.283l0.122,0.283
	l-0.567,0.244L4.809,33.471z M4.259,32.072l-0.102-0.291l0.583-0.207l0.206,0.584l-0.583,0.205L4.259,32.072z M3.809,30.639
	l-0.083-0.298l0.596-0.164l0.166,0.594l-0.596,0.165L3.809,30.639z M3.458,29.177l-0.064-0.302l0.605-0.125l0.125,0.605
	l-0.605,0.124L3.458,29.177z M45.781,29.203l0.121-0.605l0.606,0.121l-0.121,0.604L45.781,29.203z M3.284,28.229L3.284,28.229
	l-0.051-0.304l0.612-0.1l0.098,0.611l-0.61,0.097L3.284,28.229z M46.038,27.764l0.079-0.613l0.612,0.077l-0.078,0.615L46.038,27.764
	z M3.093,26.737l-0.028-0.307l0.615-0.057l0.058,0.614l-0.615,0.057L3.093,26.737z M46.195,26.312l0.034-0.616l0.617,0.034
	l-0.036,0.618L46.195,26.312z M3.006,25.236L3,24.928l0.617-0.015l0.016,0.617l-0.619,0.015L3.006,25.236z M46.245,24.542
	L46.245,24.542l-0.003-0.309l0.619-0.006l0.003,0.309l0.004,0.309l-0.619,0.005L46.245,24.542z M3.008,24.042l0.015-0.308
	l0.015-0.309l0.617,0.029l-0.015,0.308L3.627,24.07L3.008,24.042z M46.179,23.083L46.179,23.083l-0.023-0.308l0.615-0.05
	l0.049,0.616l-0.615,0.049L46.179,23.083z M3.108,22.541l0.034-0.306l0.036-0.305l0.615,0.069l-0.072,0.612L3.108,22.541z
	 M46.015,21.632l-0.046-0.308l0.61-0.09l0.048,0.306l0.045,0.307l-0.612,0.089L46.015,21.632z M3.311,21.05l0.113-0.609l0.608,0.115
	l-0.113,0.606L3.311,21.05z M45.752,20.193L45.752,20.193l-0.068-0.301l0.605-0.132l0.132,0.603l-0.604,0.131L45.752,20.193z
	 M3.616,19.576l0.155-0.599l0.598,0.156l-0.156,0.598L3.616,19.576z M4.021,18.128l0.195-0.585l0.587,0.195l-0.195,0.585
	L4.021,18.128z M4.525,16.711l0.236-0.571l0.571,0.235L5.214,16.66l-0.117,0.286L4.525,16.711z M44.386,16.037l-0.126-0.283
	l0.565-0.252l0.25,0.564l-0.563,0.252L44.386,16.037z M5.126,15.332l0.273-0.555l0.554,0.275l-0.273,0.553L5.126,15.332z
	 M43.743,14.724L43.743,14.724l-0.145-0.273l0.546-0.29l0.29,0.545l-0.545,0.29L43.743,14.724z M5.819,13.996l0.155-0.267v0.002
	l0.155-0.267l0.536,0.31l-0.313,0.533L5.819,13.996z M43.014,13.461l-0.164-0.263l0.523-0.327l0.329,0.524l-0.523,0.327
	L43.014,13.461z M42.198,12.251L42.198,12.251L42.016,12l0.502-0.361l0.181,0.248l0.181,0.251l-0.498,0.363L42.198,12.251z
	 M41.301,11.099L41.301,11.099l-0.198-0.238l0.473-0.395l0.199,0.237l0.198,0.237l-0.475,0.396L41.301,11.099z M8.418,10.321
	L8.833,9.86l0.458,0.414l-0.412,0.459L8.418,10.321z M40.326,10.011l-0.213-0.223l0.445-0.427l0.214,0.222l0.215,0.224l-0.446,0.426
	L40.326,10.011z M9.446,9.223l0.442-0.43l0.432,0.442L9.876,9.666L9.446,9.223z M39.279,8.991L39.279,8.991l-0.228-0.207
	l0.413-0.458l0.229,0.209v0.001l0.229,0.207l-0.415,0.458L39.279,8.991z M10.545,8.197l0.235-0.199l0.236-0.201l0.398,0.472
	l-0.47,0.4L10.545,8.197z M38.165,8.047l-0.243-0.193l0.386-0.484l0.485,0.383l-0.386,0.485L38.165,8.047z M11.709,7.251
	l0.499-0.367l0.367,0.498l-0.499,0.365L11.709,7.251z M36.99,7.179l-0.255-0.174l0.35-0.509l0.254,0.174l0.254,0.174l-0.348,0.51
	L36.99,7.179z M12.939,6.385l0.521-0.33l0.333,0.521l-0.262,0.166h0.002L13.27,6.907L12.939,6.385z M35.757,6.393L35.757,6.393
	L35.49,6.237l0.313-0.532l0.535,0.313l-0.316,0.534L35.757,6.393z M14.225,5.605l0.544-0.293l0.294,0.544l-0.545,0.293L14.225,5.605
	z M34.474,5.693l-0.274-0.137l0.276-0.551l0.276,0.137V5.141l0.276,0.138l-0.276,0.554L34.474,5.693z M15.561,4.92l0.564-0.258
	l0.255,0.562l-0.562,0.257L15.561,4.92z M33.146,5.083l-0.284-0.118l0.238-0.57l0.569,0.239l-0.238,0.569L33.146,5.083z
	 M16.943,4.325l0.578-0.219l0.216,0.58l-0.579,0.217L16.943,4.325z M31.778,4.566L31.778,4.566l-0.292-0.099l0.198-0.586l0.587,0.2
	l-0.198,0.585L31.778,4.566z M18.36,3.827l0.296-0.09l0.296-0.088l0.177,0.593l-0.592,0.177L18.36,3.827z M30.381,4.142
	l-0.299-0.078l0.158-0.597l0.298,0.079l0.298,0.08l-0.157,0.596L30.381,4.142z M19.81,3.426l0.302-0.067l0.302-0.067l0.135,0.602
	l-0.301,0.067L19.945,4.03L19.81,3.426z M28.953,3.817L28.652,3.76l0.115-0.608l0.606,0.117l-0.117,0.607L28.953,3.817z
	 M21.284,3.126l0.61-0.094l0.094,0.61l-0.611,0.095L21.284,3.126z M27.509,3.592l-0.307-0.037l0.076-0.614l0.611,0.074l-0.073,0.614
	L27.509,3.592z M22.774,2.928l0.615-0.053l0.053,0.614l-0.616,0.053L22.774,2.928z M26.055,3.466L26.055,3.466l-0.31-0.017
	l0.033-0.615l0.309,0.016l0.309,0.015l-0.032,0.617L26.055,3.466z M24.272,2.828l0.619-0.011l0.011,0.617l-0.619,0.012L24.272,2.828
	z"/>
<g>
	<defs>
		<rect id="SVGID_1_" width="50" height="50"/>
	</defs>
	<clipPath id="SVGID_2_">
		<use xlink:href="#SVGID_1_"  style="overflow:visible;"/>
	</clipPath>
	<path style="clip-path:url(#SVGID_2_);fill:#FFFFFF;" d="M41.832,42.083h-2.245c-0.169,0-0.308-0.14-0.308-0.31v-2.99
		c0-1.126-0.838-2.061-1.923-2.211v0.864c0,0.126-0.075,0.238-0.191,0.286c-0.115,0.048-0.249,0.022-0.337-0.066l-2.316-2.317
		c-0.121-0.121-0.121-0.317,0-0.438l2.316-2.317c0.088-0.089,0.222-0.115,0.337-0.067c0.116,0.048,0.191,0.161,0.191,0.286v0.896
		c0.744,0.046,1.482,0.26,2.134,0.616c0.604-2.022,2.442-3.479,4.574-3.607v-0.896c0-0.125,0.074-0.238,0.188-0.286
		c0.119-0.048,0.249-0.021,0.339,0.067l2.318,2.317C46.968,31.969,47,32.048,47,32.13s-0.032,0.16-0.09,0.219l-2.318,2.317
		c-0.09,0.089-0.22,0.115-0.339,0.068c-0.114-0.049-0.188-0.161-0.188-0.287v-0.866c-1.085,0.151-1.924,1.086-1.924,2.211v5.981
		C42.141,41.943,42.002,42.083,41.832,42.083 M39.898,41.464h1.623v-5.672c0-1.572,1.279-2.85,2.852-2.85
		c0.171,0,0.309,0.138,0.309,0.309V33.7l1.573-1.57l-1.573-1.57v0.448c0,0.171-0.138,0.311-0.309,0.311
		c-2.113,0-3.957,1.488-4.381,3.542c-0.021,0.099-0.09,0.183-0.186,0.223c-0.096,0.039-0.204,0.028-0.289-0.029
		c-0.724-0.48-1.6-0.745-2.473-0.745c-0.169,0-0.308-0.139-0.308-0.31V33.55l-1.57,1.57l1.57,1.569v-0.448
		c0-0.171,0.139-0.309,0.308-0.309c1.573,0,2.854,1.278,2.854,2.851V41.464z"/>
	<path style="clip-path:url(#SVGID_2_);fill:#FFFFFF;" d="M17.725,32.913h-1.081v-0.247c0-0.138-0.111-0.248-0.248-0.248h-0.247
		v-0.51c0.552-0.027,1.083-0.146,1.576-0.342v-0.539c-0.229,0.104-0.467,0.188-0.713,0.252c0.283-0.355,0.527-0.846,0.713-1.435
		v-0.87c0-0.352,0.131-0.679,0.356-0.95c0.032-0.342,0.052-0.695,0.052-1.063c0-0.614-0.051-1.196-0.139-1.736h2.019
		c0.181,0.429,0.298,0.892,0.335,1.375c0.139-0.126,0.295-0.239,0.463-0.34c-0.344-2.404-2.415-4.258-4.911-4.258
		c-2.733,0-4.959,2.226-4.959,4.959c0,2.651,2.092,4.816,4.711,4.947v0.51h-0.247c-0.136,0-0.249,0.11-0.249,0.248v0.247h-3.471
		c-0.137,0-0.249,0.111-0.249,0.247c0,0.138,0.112,0.248,0.249,0.248h3.471v0.249c0,0.137,0.113,0.248,0.249,0.248h0.991
		c0.137,0,0.248-0.111,0.248-0.248v-0.249h1.131c-0.032-0.118-0.05-0.24-0.05-0.366V32.913z M17.492,28.698h-3.184
		c-0.09-0.524-0.145-1.106-0.145-1.737c0-0.629,0.055-1.211,0.145-1.736h3.184c0.09,0.525,0.145,1.107,0.145,1.736
		C17.637,27.592,17.582,28.174,17.492,28.698 M19.76,24.729H17.9c-0.197-0.88-0.505-1.606-0.888-2.085
		C18.182,22.944,19.167,23.708,19.76,24.729 M15.9,22.497c0.561,0,1.164,0.855,1.491,2.232h-2.982
		C14.737,23.352,15.341,22.497,15.9,22.497 M14.79,22.644c-0.385,0.479-0.693,1.205-0.889,2.085H12.04
		C12.635,23.708,13.62,22.944,14.79,22.644 M11.436,26.961c0-0.614,0.125-1.202,0.352-1.736h2.02
		c-0.088,0.54-0.139,1.122-0.139,1.736c0,0.615,0.051,1.198,0.139,1.737h-2.02C11.561,28.164,11.436,27.576,11.436,26.961
		 M12.04,29.192h1.861c0.196,0.882,0.504,1.606,0.889,2.087C13.62,30.978,12.635,30.215,12.04,29.192 M14.409,29.192h2.982
		c-0.327,1.379-0.93,2.232-1.491,2.232C15.341,31.425,14.737,30.571,14.409,29.192 M16.149,33.408h-0.497v-0.495h0.497V33.408z"/>
	<path style="clip-path:url(#SVGID_2_);fill:#FFFFFF;" d="M27.538,24.627c0.709,0,1.285-0.576,1.285-1.285s-0.576-1.285-1.285-1.285
		c-0.708,0-1.283,0.576-1.283,1.285S26.83,24.627,27.538,24.627 M27.538,22.571c0.426,0,0.771,0.346,0.771,0.771
		s-0.346,0.771-0.771,0.771c-0.424,0-0.771-0.346-0.771-0.771S27.114,22.571,27.538,22.571"/>
	<rect x="27.282" y="23.086" style="clip-path:url(#SVGID_2_);fill:#FFFFFF;" width="0.514" height="0.514"/>
	<path style="clip-path:url(#SVGID_2_);fill:#FFFFFF;" d="M38.075,25.911v-2.568h-0.736c-0.046-0.13-0.096-0.256-0.153-0.377
		l0.518-0.519l-1.816-1.817l-0.52,0.519c-0.12-0.058-0.247-0.11-0.375-0.154V20.26h-2.057v-6.168H22.143v11.723
		c0.141-0.017,0.281-0.025,0.428-0.025c0.028,0,0.057,0.003,0.087,0.004v-5.021h8.725l-1.675,1.674l0.52,0.519
		c-0.058,0.121-0.109,0.247-0.155,0.377h-0.734v2.568h0.734c0.046,0.131,0.098,0.256,0.155,0.378l-0.518,0.518l1.673,1.675h-5.009
		c0.128,0.153,0.218,0.326,0.264,0.513h3.728v1.029h2.056v-1.029h2.571V28.26c0.128-0.045,0.255-0.096,0.375-0.155l0.52,0.521
		l1.816-1.818l-0.518-0.518c0.058-0.122,0.107-0.247,0.153-0.378H38.075z M22.658,14.605h9.763v1.542h-0.515V15.12h-0.513v1.028
		H30.88V15.12h-0.515v1.028h-0.513V15.12h-0.515v1.028h-0.515V15.12h-0.515v1.028h-5.651V14.605z M22.658,16.662h9.763v1.541h-0.515
		v-1.027h-0.513v1.027H30.88v-1.027h-0.515v1.027h-0.513v-1.027h-0.515v1.027h-0.515v-1.027h-0.515v1.027h-5.651V16.662z
		 M30.88,20.26v-1.028h-0.515v1.028h-0.513v-1.028h-0.515v1.028h-0.515v-1.028h-0.515v1.028h-5.651v-1.543h9.763v1.543h-0.515
		v-1.028h-0.513v1.028H30.88z M32.421,20.772v0.222c-0.128,0.044-0.254,0.096-0.375,0.154l-0.378-0.376H32.421z M31.906,29.51
		h-1.025v-0.516h1.025V29.51z M32.421,28.481h-0.753l0.378-0.376c0.121,0.059,0.247,0.109,0.375,0.154V28.481z M36.976,26.807
		l-1.089,1.091l-0.424-0.424l-0.168,0.093c-0.196,0.106-0.409,0.193-0.634,0.261l-0.184,0.055v0.6h-1.542v-0.6l-0.184-0.055
		c-0.225-0.066-0.438-0.154-0.634-0.261l-0.17-0.093l-0.423,0.424l-1.09-1.091l0.424-0.422l-0.092-0.169
		c-0.106-0.197-0.195-0.411-0.262-0.635l-0.054-0.183h-0.6v-1.542h0.6l0.054-0.185c0.066-0.223,0.155-0.436,0.262-0.634l0.092-0.168
		l-0.424-0.424l1.09-1.089l0.423,0.423l0.17-0.091c0.196-0.108,0.409-0.194,0.634-0.262l0.184-0.055v-0.599h1.542v0.599l0.184,0.056
		c0.225,0.067,0.438,0.154,0.634,0.261l0.168,0.091l0.424-0.422l1.089,1.089l-0.422,0.423l0.092,0.168
		c0.106,0.198,0.194,0.412,0.262,0.635l0.054,0.184h0.6v1.542h-0.6l-0.056,0.183c-0.065,0.225-0.153,0.438-0.26,0.636l-0.092,0.168
		L36.976,26.807z"/>
	<path style="clip-path:url(#SVGID_2_);fill:#FFFFFF;" d="M33.706,22.314c-1.274,0-2.313,1.038-2.313,2.313s1.038,2.313,2.313,2.313
		c1.275,0,2.313-1.037,2.313-2.313S34.981,22.314,33.706,22.314 M35.484,24.884c-0.043,0.304-0.164,0.584-0.339,0.818l-0.348-0.349
		l-0.364,0.363l0.349,0.35c-0.235,0.176-0.515,0.297-0.818,0.339v-0.493h-0.516v0.493c-0.303-0.042-0.583-0.163-0.817-0.339
		l0.348-0.35l-0.362-0.363l-0.349,0.349c-0.177-0.234-0.296-0.515-0.339-0.818h0.493v-0.513h-0.493
		c0.043-0.304,0.162-0.583,0.339-0.819l0.349,0.349l0.362-0.364l-0.348-0.348c0.234-0.176,0.515-0.295,0.817-0.34v0.494h0.516
		v-0.494c0.304,0.044,0.583,0.164,0.818,0.34l-0.349,0.348l0.364,0.364l0.348-0.349c0.175,0.236,0.296,0.515,0.339,0.819h-0.492
		v0.513H35.484z"/>
	<path style="clip-path:url(#SVGID_2_);fill:#FFFFFF;" d="M25.145,28.132c0.005,0.093,0.072,0.17,0.162,0.187
		c0.163,0.034,0.309,0.09,0.438,0.163h0.629c-0.199-0.238-0.488-0.425-0.837-0.524c-0.163-1.205-1.389-2.13-2.878-2.164v0.405
		C23.995,26.233,25.081,27.068,25.145,28.132"/>
	<path style="clip-path:url(#SVGID_2_);fill:#FFFFFF;" d="M22.143,26.224v-0.409c-0.487,0.058-0.944,0.215-1.332,0.445
		c0.021,0.15,0.036,0.3,0.045,0.453C21.212,26.461,21.659,26.289,22.143,26.224"/>
	<path style="clip-path:url(#SVGID_2_);fill:#FFFFFF;" d="M26.266,29.272c0,0.546-0.574,0.989-1.282,0.989h-5.198
		c-0.062,0-0.124-0.002-0.183-0.008c-0.11,0.125-0.228,0.243-0.351,0.354c0.17,0.039,0.349,0.061,0.534,0.061h5.198
		c0.517,0,0.974-0.195,1.282-0.498v1.135c0,0.546-0.574,0.99-1.282,0.99h-5.198c-0.759,0-1.398-0.4-1.593-0.943
		c-0.15,0.079-0.307,0.149-0.468,0.214v1.347h0.406v-0.904c0.376,0.419,0.976,0.694,1.655,0.694h5.198
		c0.517,0,0.974-0.196,1.282-0.499v1.135c0,0.546-0.574,0.99-1.282,0.99h-5.198c-0.749,0-1.382-0.389-1.585-0.921h-0.425
		c0.204,0.76,1.027,1.328,2.01,1.328h5.198c0.932,0,1.688-0.627,1.688-1.397v-4.066c0-0.096-0.013-0.187-0.034-0.277h-0.425
		C26.247,29.084,26.266,29.177,26.266,29.272"/>
	<path style="clip-path:url(#SVGID_2_);fill:#FFFFFF;" d="M18.171,28.698c0.162-0.578,0.825-1.012,1.614-1.012
		c0.029,0,0.06,0.003,0.088,0.006l0.055,0.005c0.09,0.006,0.166-0.044,0.2-0.123c0.06-0.138,0.139-0.268,0.231-0.389
		c0.003-0.074,0.005-0.149,0.005-0.225c0-0.121-0.005-0.242-0.016-0.361c-0.218,0.199-0.399,0.427-0.531,0.681h-0.032
		c-0.708,0-1.334,0.295-1.704,0.744c-0.023,0.23-0.051,0.456-0.087,0.674H18.171z"/>
	<path style="clip-path:url(#SVGID_2_);fill:#FFFFFF;" d="M18.131,29.976c0.157,0.176,0.357,0.324,0.585,0.441
		c0.112-0.094,0.223-0.191,0.325-0.294c-0.459-0.181-0.794-0.522-0.885-0.931h-0.255c-0.051,0.229-0.111,0.447-0.176,0.652v1.183
		c0.139-0.063,0.274-0.132,0.406-0.208V29.976z"/>
	<path style="clip-path:url(#SVGID_2_);fill:#FFFFFF;" d="M18.716,30.417c0.164,0.083,0.345,0.149,0.536,0.191
		c0.123-0.111,0.24-0.229,0.351-0.354c-0.2-0.017-0.39-0.063-0.562-0.131C18.939,30.226,18.828,30.323,18.716,30.417"/>
	<path style="clip-path:url(#SVGID_2_);fill:#FFFFFF;" d="M18.131,33.042v-0.129h-0.406v0.129c0,0.126,0.018,0.248,0.051,0.366H18.2
		C18.154,33.292,18.131,33.169,18.131,33.042"/>
	<path style="clip-path:url(#SVGID_2_);fill:#FFFFFF;" d="M18.156,29.192c-0.016-0.071-0.025-0.144-0.025-0.218
		c0-0.095,0.014-0.188,0.04-0.276h-0.177c0.036-0.218,0.063-0.442,0.087-0.674c-0.225,0.272-0.357,0.599-0.357,0.95v0.87
		c0.066-0.205,0.125-0.423,0.176-0.652H18.156z"/>
	<path style="clip-path:url(#SVGID_2_);fill:#FFFFFF;" d="M18.131,30.819c-0.132,0.076-0.267,0.146-0.406,0.208v0.539
		c0.161-0.064,0.318-0.135,0.468-0.214c-0.04-0.11-0.062-0.226-0.062-0.346V30.819z"/>
	<path style="clip-path:url(#SVGID_2_);fill:#FFFFFF;" d="M20.364,26.961c0,0.075-0.002,0.15-0.006,0.225
		c0.136-0.178,0.304-0.337,0.497-0.473c-0.009-0.153-0.023-0.303-0.045-0.453c-0.168,0.101-0.323,0.214-0.463,0.34
		C20.358,26.72,20.364,26.84,20.364,26.961"/>
	<path style="clip-path:url(#SVGID_2_);fill:#FFFFFF;" d="M25.744,28.481c0.224,0.128,0.39,0.308,0.469,0.514h0.425
		c-0.046-0.188-0.136-0.36-0.264-0.514H25.744z"/>
	<path style="clip-path:url(#SVGID_2_);fill:#FFFFFF;" d="M22.57,26.196c0.028,0,0.058,0.001,0.087,0.002v-0.405
		c-0.029-0.001-0.059-0.004-0.087-0.004c-0.146,0-0.287,0.009-0.428,0.025v0.409C22.283,26.206,22.424,26.196,22.57,26.196"/>
	<path style="clip-path:url(#SVGID_2_);fill:#FFFFFF;" d="M19.147,31.686c0.112,0,0.204-0.091,0.204-0.203v-0.407
		c0-0.112-0.092-0.203-0.204-0.203s-0.202,0.091-0.202,0.203v0.407C18.945,31.595,19.036,31.686,19.147,31.686"/>
	<path style="clip-path:url(#SVGID_2_);fill:#FFFFFF;" d="M19.962,31.889c0.111,0,0.202-0.09,0.202-0.203v-0.407
		c0-0.111-0.091-0.202-0.202-0.202c-0.114,0-0.204,0.091-0.204,0.202v0.407C19.758,31.799,19.848,31.889,19.962,31.889"/>
	<path style="clip-path:url(#SVGID_2_);fill:#FFFFFF;" d="M20.774,31.889c0.113,0,0.203-0.09,0.203-0.203v-0.407
		c0-0.111-0.09-0.202-0.203-0.202c-0.112,0-0.202,0.091-0.202,0.202v0.407C20.572,31.799,20.663,31.889,20.774,31.889"/>
	<path style="clip-path:url(#SVGID_2_);fill:#FFFFFF;" d="M25.045,31.889c0.226,0,0.408-0.183,0.408-0.406
		c0-0.225-0.183-0.406-0.408-0.406c-0.224,0-0.406,0.182-0.406,0.406C24.639,31.706,24.821,31.889,25.045,31.889"/>
	<path style="clip-path:url(#SVGID_2_);fill:#FFFFFF;" d="M23.826,31.889c0.223,0,0.405-0.183,0.405-0.406
		c0-0.225-0.182-0.406-0.405-0.406c-0.226,0-0.407,0.182-0.407,0.406C23.419,31.706,23.6,31.889,23.826,31.889"/>
	<path style="clip-path:url(#SVGID_2_);fill:#FFFFFF;" d="M19.147,32.906c-0.018,0-0.034,0.002-0.051,0.007h0.104
		C19.184,32.908,19.167,32.906,19.147,32.906"/>
	<path style="clip-path:url(#SVGID_2_);fill:#FFFFFF;" d="M19.147,33.719c0.112,0,0.204-0.091,0.204-0.203v-0.108h-0.406v0.108
		C18.945,33.628,19.036,33.719,19.147,33.719"/>
	<path style="clip-path:url(#SVGID_2_);fill:#FFFFFF;" d="M19.352,33.11c0-0.096-0.065-0.174-0.151-0.197h-0.104
		c-0.088,0.023-0.151,0.102-0.151,0.197v0.298h0.406V33.11z"/>
	<path style="clip-path:url(#SVGID_2_);fill:#FFFFFF;" d="M19.758,33.408v0.311c0,0.112,0.09,0.203,0.204,0.203
		c0.111,0,0.202-0.091,0.202-0.203v-0.314c-0.014,0.003-0.031,0.004-0.047,0.004H19.758z"/>
	<path style="clip-path:url(#SVGID_2_);fill:#FFFFFF;" d="M19.962,33.11c-0.114,0-0.204,0.09-0.204,0.202v0.096h0.359
		c0.016,0,0.032-0.001,0.047-0.004v-0.092C20.164,33.2,20.073,33.11,19.962,33.11"/>
	<path style="clip-path:url(#SVGID_2_);fill:#FFFFFF;" d="M20.774,33.922c0.113,0,0.203-0.091,0.203-0.203v-0.406
		c0-0.112-0.09-0.202-0.203-0.202c-0.112,0-0.202,0.09-0.202,0.202v0.406C20.572,33.831,20.663,33.922,20.774,33.922"/>
	<path style="clip-path:url(#SVGID_2_);fill:#FFFFFF;" d="M25.045,33.922c0.226,0,0.408-0.182,0.408-0.406
		c0-0.226-0.183-0.405-0.408-0.405c-0.224,0-0.406,0.18-0.406,0.405C24.639,33.74,24.821,33.922,25.045,33.922"/>
	<path style="clip-path:url(#SVGID_2_);fill:#FFFFFF;" d="M23.826,33.922c0.223,0,0.405-0.182,0.405-0.406
		c0-0.226-0.182-0.405-0.405-0.405c-0.226,0-0.407,0.18-0.407,0.405C23.419,33.74,23.6,33.922,23.826,33.922"/>
	<path style="clip-path:url(#SVGID_2_);fill:#FFFFFF;" d="M46.226,18.503v-0.416c-0.428-0.029-0.771-0.372-0.799-0.799h-0.416
		c-0.031,0.427-0.374,0.769-0.8,0.799v0.416c0.426,0.03,0.769,0.373,0.8,0.8h0.416C45.455,18.875,45.798,18.533,46.226,18.503
		 M45.53,18.344c-0.101,0.075-0.189,0.164-0.264,0.264l-0.048,0.066l-0.051-0.066c-0.072-0.099-0.161-0.189-0.262-0.264
		l-0.067-0.049l0.067-0.05c0.099-0.074,0.188-0.163,0.262-0.261l0.051-0.068l0.048,0.068c0.074,0.098,0.163,0.187,0.264,0.261
		l0.065,0.05L45.53,18.344z"/>
	<path style="clip-path:url(#SVGID_2_);fill:#FFFFFF;" d="M9.053,12.455v-0.557c-0.625-0.059-1.124-0.556-1.183-1.18H7.316
		c-0.059,0.624-0.556,1.121-1.18,1.18v0.557c0.624,0.058,1.121,0.556,1.18,1.18H7.87C7.929,13.01,8.428,12.512,9.053,12.455
		 M8.074,12.275c-0.145,0.107-0.272,0.235-0.381,0.382l-0.1,0.133l-0.098-0.133c-0.11-0.146-0.238-0.275-0.383-0.382l-0.134-0.1
		l0.134-0.099c0.145-0.109,0.275-0.237,0.383-0.382l0.098-0.133l0.1,0.133c0.109,0.145,0.236,0.273,0.381,0.382l0.134,0.099
		L8.074,12.275z"/>
	<path style="clip-path:url(#SVGID_2_);fill:#FFFFFF;" d="M29.419,46.431v-0.384c-0.4-0.029-0.722-0.351-0.753-0.752h-0.383
		c-0.03,0.401-0.35,0.723-0.751,0.752v0.384c0.401,0.029,0.721,0.351,0.751,0.752h0.383C28.697,46.781,29.019,46.46,29.419,46.431
		 M28.771,46.288c-0.095,0.069-0.178,0.152-0.248,0.246l-0.049,0.066l-0.048-0.066c-0.071-0.093-0.154-0.176-0.248-0.246
		l-0.064-0.05l0.064-0.05c0.094-0.069,0.177-0.152,0.248-0.246l0.048-0.066l0.049,0.066c0.07,0.095,0.153,0.177,0.248,0.246
		l0.066,0.05L28.771,46.288z"/>
</g>
</svg>
