<?xml version="1.0" encoding="iso-8859-1"?>
<!-- Generator: Adobe Illustrator 15.1.0, SVG Export Plug-In . SVG Version: 6.00 Build 0)  -->
<!DOCTYPE svg PUBLIC "-//W3C//DTD SVG 1.1//EN" "http://www.w3.org/Graphics/SVG/1.1/DTD/svg11.dtd">
<svg version="1.1" id="Layer_1" xmlns="http://www.w3.org/2000/svg" xmlns:xlink="http://www.w3.org/1999/xlink" x="0px" y="0px"
	 width="50px" height="50px" viewBox="0 0 50 50" style="enable-background:new 0 0 50 50;" xml:space="preserve">
<path style="fill:#FFFFFF;" d="M23.236,46.255l0.618-0.003l0.004,0.616l-0.619,0.005L23.236,46.255z M22.044,46.826l-0.307-0.02
	l0.039-0.615l0.307,0.02l0.309,0.019l-0.039,0.617L22.044,46.826z M24.697,46.22l0.617-0.046l0.044,0.616l-0.307,0.022l-0.308,0.021
	L24.697,46.22z M20.549,46.679L20.549,46.679l-0.306-0.041l0.082-0.612l0.612,0.081l-0.082,0.613L20.549,46.679z M19.064,46.428
	l-0.303-0.063l0.124-0.604l0.607,0.124l-0.125,0.605L19.064,46.428z M17.602,46.074l-0.297-0.082l0.165-0.596l0.595,0.165
	l-0.166,0.596L17.602,46.074z M29.02,45.519l0.596-0.169l0.167,0.594l-0.595,0.17L29.02,45.519z M16.166,45.622L16.166,45.622
	l-0.291-0.104l0.206-0.582l0.582,0.206l-0.206,0.583L16.166,45.622z M30.417,45.093l0.581-0.211l0.209,0.582l-0.58,0.21
	L30.417,45.093z M14.768,45.071l-0.284-0.123l0.244-0.566l0.567,0.245l-0.245,0.567L14.768,45.071z M31.781,44.568l0.565-0.248
	l0.249,0.566l-0.282,0.123l-0.282,0.126L31.781,44.568z M13.408,44.426l-0.275-0.141l0.284-0.55l0.548,0.284l-0.283,0.548
	L13.408,44.426z M33.107,43.955l0.547-0.288l0.287,0.547l-0.547,0.288L33.107,43.955z M12.096,43.691L12.096,43.691l-0.264-0.161
	l0.321-0.528l0.528,0.32l-0.321,0.528L12.096,43.691z M34.386,43.251l0.525-0.325l0.325,0.526l-0.526,0.324L34.386,43.251z
	 M10.837,42.865l-0.252-0.178l0.356-0.505l0.252,0.18l0.252,0.176l-0.354,0.506L10.837,42.865z M9.639,41.96l-0.239-0.194
	l0.388-0.48l0.48,0.391l-0.389,0.479L9.639,41.96z M8.503,40.974h0.002l-0.228-0.212L8.7,40.31l0.453,0.422L8.73,41.184
	L8.503,40.974z M7.439,39.911l-0.211-0.227l0.451-0.422l0.423,0.452l-0.451,0.422L7.439,39.911z M6.452,38.779L6.255,38.54
	l0.48-0.391l0.389,0.479L6.646,39.02L6.452,38.779z M5.542,37.583L5.542,37.583l-0.178-0.251l0.505-0.357l0.355,0.504l-0.504,0.357
	L5.542,37.583z M4.72,36.327l-0.161-0.266l0.527-0.319l0.322,0.527l-0.529,0.322L4.72,36.327z M3.982,35.018l-0.141-0.274
	l0.547-0.284l0.284,0.55l-0.548,0.282L3.982,35.018z M3.337,33.659l-0.122-0.284l0.568-0.245l0.123,0.284l0.121,0.282l-0.568,0.246
	L3.337,33.659z M2.789,32.259l-0.101-0.291l0.582-0.206l0.205,0.583l-0.583,0.206L2.789,32.259z M2.337,30.826l-0.082-0.299
	l0.595-0.166l0.165,0.596l-0.594,0.166L2.337,30.826z M1.987,29.364l-0.062-0.302l0.605-0.125l0.125,0.604l-0.606,0.124
	L1.987,29.364z M44.318,29.39l0.121-0.605l0.606,0.12l-0.12,0.605L44.318,29.39z M1.813,28.416L1.813,28.416L1.764,28.11l0.61-0.098
	l0.099,0.611l-0.611,0.098L1.813,28.416z M44.576,27.948l0.078-0.612l0.613,0.078l-0.08,0.613L44.576,27.948z M1.624,26.924
	L1.624,26.924l-0.028-0.307l0.615-0.057l0.058,0.614l-0.616,0.057L1.624,26.924z M44.731,26.498l0.036-0.617l0.615,0.035
	l-0.035,0.616L44.731,26.498z M1.538,25.423l-0.007-0.31L2.148,25.1l0.014,0.616l-0.618,0.016L1.538,25.423z M44.783,24.729
	L44.783,24.729l-0.004-0.31l0.617-0.005l0.006,0.617l-0.617,0.007L44.783,24.729z M1.54,24.228l0.013-0.309v0.001l0.014-0.309
	l0.619,0.028l-0.029,0.617L1.54,24.228z M44.717,23.269l-0.025-0.308l0.617-0.05l0.048,0.616l-0.615,0.049L44.717,23.269z
	 M1.639,22.728l0.071-0.614l0.613,0.07l-0.071,0.613L1.639,22.728z M44.551,21.816L44.551,21.816l-0.046-0.306l0.612-0.09
	l0.09,0.611l-0.61,0.091L44.551,21.816z M1.841,21.236l0.112-0.608l0.609,0.113L2.45,21.349L1.841,21.236z M44.286,20.378
	l-0.063-0.302l0.604-0.13l0.132,0.603l-0.604,0.131L44.286,20.378z M2.146,19.763l0.154-0.6l0.598,0.156l-0.155,0.597L2.146,19.763z
	 M2.551,18.313l0.195-0.586l0.587,0.195l-0.195,0.586L2.551,18.313z M3.055,16.895l0.118-0.285h0.001l0.117-0.285l0.571,0.235
	l-0.117,0.285l-0.118,0.286L3.055,16.895z M42.922,16.222l-0.125-0.283l0.564-0.252l0.252,0.564l-0.563,0.253L42.922,16.222z
	 M42.281,14.908l-0.146-0.272l0.546-0.291l0.146,0.272l0.146,0.273l-0.545,0.291L42.281,14.908z M41.551,13.645l-0.166-0.263
	l0.525-0.326l0.328,0.523l-0.525,0.329L41.551,13.645z M5.133,12.896l0.346-0.512l0.512,0.347l-0.347,0.512L5.133,12.896z
	 M40.734,12.435l-0.182-0.25l0.5-0.363l0.181,0.25l0.182,0.25l-0.499,0.362L40.734,12.435z M6,11.67l0.381-0.487l0.488,0.382
	l-0.38,0.485L6,11.67z M39.836,11.283l-0.197-0.238l0.474-0.395l0.397,0.472l-0.475,0.398L39.836,11.283z M6.951,10.503l0.412-0.46
	l0.46,0.413l-0.414,0.46L6.951,10.503z M38.863,10.194L38.863,10.194l-0.215-0.223l0.446-0.426l0.427,0.444l-0.445,0.428
	L38.863,10.194z M7.977,9.407l0.443-0.432l0.432,0.443l-0.445,0.43L7.977,9.407z M37.815,9.175l-0.229-0.208l0.416-0.457
	l0.229,0.208l0.229,0.207l-0.415,0.458L37.815,9.175z M9.077,8.38l0.472-0.398l0.399,0.47L9.475,8.853L9.077,8.38z M36.701,8.229
	l-0.242-0.19l0.383-0.485l0.484,0.383L36.942,8.42L36.701,8.229z M10.243,7.433l0.498-0.366l0.365,0.499l-0.498,0.365L10.243,7.433z
	 M35.524,7.363l-0.256-0.175l0.351-0.51l0.509,0.35l-0.349,0.509L35.524,7.363z M11.469,6.568l0.264-0.166l0.261-0.164l0.33,0.521
	L11.801,7.09L11.469,6.568z M34.292,6.577L34.292,6.577l-0.266-0.158l0.313-0.532l0.268,0.158h-0.001l0.267,0.156L34.56,6.735
	L34.292,6.577z M12.755,5.789L13.3,5.495l0.294,0.543l-0.543,0.295L12.755,5.789z M33.01,5.875l-0.278-0.138l0.278-0.552
	l0.553,0.277l-0.277,0.552L33.01,5.875z M14.092,5.101l0.282-0.127l0.282-0.129l0.256,0.563l-0.564,0.254L14.092,5.101z
	 M31.681,5.267l-0.286-0.119l0.24-0.57l0.57,0.239l-0.238,0.57L31.681,5.267z M15.475,4.507l0.578-0.217l0.217,0.58l-0.291,0.108
	l-0.287,0.108L15.475,4.507z M30.314,4.748L30.314,4.748l-0.293-0.099l0.198-0.585l0.585,0.199l-0.197,0.586L30.314,4.748z
	 M16.893,4.009l0.594-0.177l0.175,0.592l-0.593,0.178L16.893,4.009z M28.913,4.326L28.913,4.326l-0.298-0.079l0.158-0.597
	l0.298,0.078h0.001l0.297,0.081l-0.157,0.596L28.913,4.326z M18.343,3.61l0.301-0.068h0.001l0.301-0.067l0.135,0.601l-0.603,0.136
	L18.343,3.61z M27.488,4l-0.305-0.06l0.118-0.606l0.606,0.117l-0.117,0.607L27.488,4z M19.816,3.309l0.61-0.094l0.094,0.61
	l-0.61,0.093L19.816,3.309z M26.044,3.776l-0.308-0.039l0.076-0.614l0.306,0.038l0.308,0.038l-0.075,0.613L26.044,3.776z
	 M21.308,3.109l0.614-0.052l0.055,0.615l-0.617,0.054L21.308,3.109z M24.587,3.65l-0.309-0.017l0.032-0.617l0.308,0.016l0.311,0.015
	l-0.034,0.618L24.587,3.65z M22.807,3.012L23.426,3l0.01,0.618l-0.617,0.011L22.807,3.012z"/>
<g>
	<defs>
		<rect id="SVGID_1_" width="50" height="50"/>
	</defs>
	<clipPath id="SVGID_2_">
		<use xlink:href="#SVGID_1_"  style="overflow:visible;"/>
	</clipPath>
	<path style="clip-path:url(#SVGID_2_);fill:#FFFFFF;" d="M33.466,29.817c-1.247,0.048-2.2,0.592-2.2,1.278v3.301
		c0,0.721,1.046,1.284,2.384,1.284s2.384-0.563,2.384-1.284v-3.301c0-0.687-0.953-1.23-2.2-1.278 M35.666,34.396
		c0,0.434-0.827,0.917-2.017,0.917c-1.188,0-2.019-0.483-2.019-0.917v-0.41c0.42,0.359,1.158,0.594,2.019,0.594
		s1.599-0.234,2.017-0.594V34.396z M35.666,33.297c0,0.433-0.827,0.916-2.017,0.916c-1.188,0-2.019-0.483-2.019-0.916v-0.409
		c0.42,0.357,1.158,0.593,2.019,0.593s1.599-0.235,2.017-0.593V33.297z M35.666,32.196c0,0.434-0.827,0.917-2.017,0.917
		c-1.188,0-2.019-0.483-2.019-0.917v-0.41c0.42,0.359,1.158,0.593,2.019,0.593s1.599-0.233,2.017-0.593V32.196z M35.666,31.096
		c0,0.434-0.827,0.916-2.017,0.916c-1.188,0-2.019-0.482-2.019-0.916c0-0.41,0.746-0.865,1.835-0.912h0.367
		C34.923,30.23,35.666,30.686,35.666,31.096"/>
	<path style="clip-path:url(#SVGID_2_);fill:#FFFFFF;" d="M44.801,29.817c-1.246,0.048-2.201,0.592-2.201,1.278v3.301
		c0,0.721,1.049,1.284,2.385,1.284c1.337,0,2.385-0.563,2.385-1.284v-3.301c0-0.687-0.953-1.23-2.201-1.278 M47.002,34.396
		c0,0.434-0.829,0.917-2.018,0.917c-1.189,0-2.018-0.483-2.018-0.917v-0.409c0.42,0.358,1.157,0.593,2.018,0.593
		c0.859,0,1.6-0.234,2.018-0.593V34.396z M47.002,33.297c0,0.433-0.829,0.916-2.018,0.916c-1.189,0-2.018-0.483-2.018-0.916v-0.409
		c0.42,0.358,1.157,0.593,2.018,0.593c0.859,0,1.6-0.234,2.018-0.593V33.297z M47.002,32.196c0,0.434-0.829,0.917-2.018,0.917
		c-1.189,0-2.018-0.483-2.018-0.917v-0.41c0.42,0.359,1.157,0.594,2.018,0.594c0.859,0,1.6-0.234,2.018-0.594V32.196z
		 M47.002,31.096c0,0.434-0.829,0.917-2.018,0.917c-1.189,0-2.018-0.483-2.018-0.917c0-0.41,0.745-0.865,1.834-0.912h0.367
		C46.258,30.23,47.002,30.686,47.002,31.096"/>
	<path style="clip-path:url(#SVGID_2_);fill:#FFFFFF;" d="M23.657,25.108c0.578,0,1.05-0.471,1.05-1.05s-0.472-1.051-1.05-1.051
		c-0.579,0-1.05,0.472-1.05,1.051S23.078,25.108,23.657,25.108 M23.657,23.428c0.347,0,0.63,0.283,0.63,0.631
		c0,0.347-0.283,0.63-0.63,0.63s-0.63-0.283-0.63-0.63C23.027,23.711,23.31,23.428,23.657,23.428"/>
	<rect x="23.447" y="23.849" style="clip-path:url(#SVGID_2_);fill:#FFFFFF;" width="0.42" height="0.42"/>
	<path style="clip-path:url(#SVGID_2_);fill:#FFFFFF;" d="M19.669,24.04c-0.138-0.055-0.277-0.103-0.419-0.146v1.465h0.419V24.04z"
		/>
	<polygon style="clip-path:url(#SVGID_2_);fill:#FFFFFF;" points="20.55,29.096 20.089,29.096 20.089,28.75 19.669,28.75 
		19.669,29.126 20.55,29.126 	"/>
	<path style="clip-path:url(#SVGID_2_);fill:#FFFFFF;" d="M19.669,27.996H19.25v0.377h1.488c0.104,0,0.188,0.084,0.188,0.188v0.116
		h0.003v0.419h-0.003v0.219c0,0.104-0.084,0.188-0.188,0.188h-1.069v0.014h1.634v-1.26h-1.634V27.996z"/>
	<path style="clip-path:url(#SVGID_2_);fill:#FFFFFF;" d="M32.265,26.157v-2.099h-0.602c-0.037-0.106-0.079-0.209-0.126-0.308
		l0.423-0.424l-1.483-1.484l-0.424,0.424c-0.1-0.047-0.203-0.089-0.308-0.126v-0.602h-1.679v-5.036H19.25v6.999
		c0.141,0.039,0.281,0.085,0.419,0.135v-1.678h7.127l-1.366,1.368l0.423,0.424c-0.047,0.099-0.089,0.202-0.126,0.308h-0.602v2.099
		h0.602c0.037,0.105,0.079,0.21,0.126,0.308l-0.423,0.423l1.366,1.368h-3.465c0.003,0.021,0.006,0.043,0.008,0.063l-0.373,0.04
		c-0.004-0.035-0.01-0.068-0.014-0.104h-1.274v0.421h4.288v0.839h1.68v-0.839h2.099v-0.603c0.104-0.036,0.208-0.078,0.308-0.125
		l0.424,0.424l1.483-1.485l-0.423-0.423c0.047-0.1,0.089-0.202,0.126-0.308H32.265z M19.669,16.922h7.977v1.26h-0.42v-0.84h-0.421
		v0.84h-0.419v-0.84h-0.42v0.84h-0.42v-0.84h-0.421v0.84h-0.419v-0.84h-0.42v0.84h-4.618V16.922z M19.669,18.602h7.977v1.259h-0.42
		v-0.839h-0.421v0.839h-0.419v-0.839h-0.42v0.839h-0.42v-0.839h-0.421v0.839h-0.419v-0.839h-0.42v0.839h-4.618V18.602z
		 M26.387,21.539v-0.838h-0.42v0.838h-0.42v-0.838h-0.421v0.838h-0.419v-0.838h-0.42v0.838h-4.618v-1.258h7.977v1.258h-0.42v-0.838
		h-0.421v0.838H26.387z M27.646,21.958v0.182c-0.107,0.037-0.209,0.079-0.309,0.126l-0.308-0.308H27.646z M27.227,29.096h-0.841
		v-0.419h0.841V29.096z M27.646,28.256H27.03l0.308-0.307c0.1,0.047,0.201,0.089,0.309,0.127V28.256z M31.367,26.888l-0.891,0.892
		l-0.346-0.346l-0.138,0.074c-0.161,0.087-0.335,0.159-0.519,0.214l-0.15,0.044v0.49h-1.258v-0.49l-0.15-0.044
		c-0.184-0.055-0.358-0.127-0.519-0.214l-0.138-0.074l-0.347,0.346l-0.89-0.892l0.346-0.345l-0.074-0.138
		c-0.088-0.161-0.159-0.336-0.213-0.519l-0.045-0.149h-0.49v-1.259h0.49l0.045-0.151c0.054-0.182,0.125-0.356,0.213-0.517
		l0.074-0.138l-0.346-0.347l0.891-0.889l0.346,0.345l0.138-0.075c0.161-0.087,0.335-0.159,0.519-0.214l0.15-0.043v-0.491h1.258
		v0.491l0.15,0.043c0.184,0.055,0.357,0.127,0.519,0.214l0.138,0.075l0.346-0.345l0.891,0.89l-0.346,0.346l0.075,0.138
		c0.087,0.161,0.158,0.336,0.212,0.517l0.045,0.151h0.49v1.259h-0.49l-0.045,0.149c-0.054,0.184-0.125,0.358-0.212,0.52
		l-0.075,0.137L31.367,26.888z"/>
	<rect x="19.25" y="25.736" style="clip-path:url(#SVGID_2_);fill:#FFFFFF;" width="0.419" height="0.377"/>
	<rect x="19.25" y="26.49" style="clip-path:url(#SVGID_2_);fill:#FFFFFF;" width="0.419" height="0.376"/>
	<rect x="19.25" y="27.242" style="clip-path:url(#SVGID_2_);fill:#FFFFFF;" width="0.419" height="0.377"/>
	<path style="clip-path:url(#SVGID_2_);fill:#FFFFFF;" d="M28.694,23.218c-1.04,0-1.889,0.848-1.889,1.89
		c0,1.041,0.849,1.888,1.889,1.888c1.042,0,1.891-0.847,1.891-1.888C30.585,24.066,29.736,23.218,28.694,23.218 M30.148,25.317
		c-0.036,0.248-0.135,0.477-0.277,0.668l-0.285-0.284l-0.297,0.297l0.284,0.285c-0.192,0.144-0.421,0.241-0.669,0.277v-0.403h-0.42
		v0.403c-0.246-0.036-0.476-0.134-0.667-0.277l0.284-0.285l-0.297-0.297l-0.285,0.284c-0.144-0.191-0.241-0.42-0.277-0.668h0.404
		v-0.419h-0.404c0.036-0.248,0.134-0.477,0.277-0.669l0.285,0.284l0.297-0.296l-0.284-0.285c0.191-0.143,0.421-0.241,0.667-0.277
		v0.403h0.42v-0.403c0.248,0.036,0.477,0.134,0.669,0.277l-0.284,0.285l0.297,0.296l0.285-0.284
		c0.143,0.192,0.241,0.421,0.277,0.669h-0.403v0.419H30.148z"/>
	<path style="clip-path:url(#SVGID_2_);fill:#FFFFFF;" d="M21.349,29.516h-0.046v0.174c0,0.104-0.084,0.188-0.187,0.188h-6.78
		c-0.103,0-0.187-0.084-0.187-0.188v-1.505c0-0.104,0.084-0.188,0.187-0.188h4.914v-0.377h-4.914c-0.103,0-0.187-0.084-0.187-0.188
		v-1.506c0-0.104,0.084-0.189,0.187-0.189h4.914v-0.377h-4.914c-0.31,0-0.563,0.255-0.563,0.566v1.506
		c0,0.145,0.056,0.275,0.145,0.377c-0.089,0.099-0.145,0.23-0.145,0.376v1.505c0,0.146,0.056,0.277,0.145,0.377
		c-0.089,0.101-0.145,0.232-0.145,0.377v1.506c0,0.312,0.253,0.564,0.563,0.564h6.78c0.31,0,0.564-0.253,0.564-0.564v-1.506
		c0-0.145-0.057-0.276-0.147-0.377c0.09-0.1,0.147-0.231,0.147-0.377v-1.013h-0.331V29.516z M21.303,31.949
		c0,0.104-0.084,0.188-0.187,0.188h-6.78c-0.103,0-0.187-0.084-0.187-0.188v-1.506c0-0.104,0.084-0.188,0.187-0.188h6.78
		c0.103,0,0.187,0.084,0.187,0.188V31.949z"/>
	<rect x="19.25" y="27.619" style="clip-path:url(#SVGID_2_);fill:#FFFFFF;" width="0.419" height="0.377"/>
	<polygon style="clip-path:url(#SVGID_2_);fill:#FFFFFF;" points="21.303,28.256 21.303,29.516 21.349,29.516 21.349,28.677 
		21.68,28.677 21.68,28.256 	"/>
	<rect x="19.25" y="25.359" style="clip-path:url(#SVGID_2_);fill:#FFFFFF;" width="0.419" height="0.377"/>
	<rect x="14.525" y="26.866" style="clip-path:url(#SVGID_2_);fill:#FFFFFF;" width="0.376" height="0.376"/>
	<rect x="15.278" y="26.866" style="clip-path:url(#SVGID_2_);fill:#FFFFFF;" width="0.376" height="0.376"/>
	<rect x="14.525" y="26.113" style="clip-path:url(#SVGID_2_);fill:#FFFFFF;" width="0.376" height="0.377"/>
	<rect x="15.278" y="26.113" style="clip-path:url(#SVGID_2_);fill:#FFFFFF;" width="0.376" height="0.377"/>
	<rect x="16.031" y="26.866" style="clip-path:url(#SVGID_2_);fill:#FFFFFF;" width="0.376" height="0.376"/>
	<rect x="16.031" y="26.113" style="clip-path:url(#SVGID_2_);fill:#FFFFFF;" width="0.376" height="0.377"/>
	<rect x="16.785" y="26.866" style="clip-path:url(#SVGID_2_);fill:#FFFFFF;" width="0.376" height="0.376"/>
	<rect x="16.785" y="26.113" style="clip-path:url(#SVGID_2_);fill:#FFFFFF;" width="0.376" height="0.377"/>
	<rect x="17.537" y="26.866" style="clip-path:url(#SVGID_2_);fill:#FFFFFF;" width="0.377" height="0.376"/>
	<rect x="17.537" y="26.113" style="clip-path:url(#SVGID_2_);fill:#FFFFFF;" width="0.377" height="0.377"/>
	<path style="clip-path:url(#SVGID_2_);fill:#FFFFFF;" d="M19.232,26.866V26.49h0.018v-0.377h-0.207
		c-0.104,0-0.188,0.084-0.188,0.188v0.753c0,0.104,0.084,0.188,0.188,0.188h0.207v-0.376H19.232z"/>
	<rect x="19.25" y="26.113" style="clip-path:url(#SVGID_2_);fill:#FFFFFF;" width="0.419" height="0.377"/>
	<rect x="19.25" y="26.866" style="clip-path:url(#SVGID_2_);fill:#FFFFFF;" width="0.419" height="0.376"/>
	<rect x="14.525" y="29.126" style="clip-path:url(#SVGID_2_);fill:#FFFFFF;" width="0.376" height="0.376"/>
	<rect x="15.278" y="29.126" style="clip-path:url(#SVGID_2_);fill:#FFFFFF;" width="0.376" height="0.376"/>
	<rect x="14.525" y="28.373" style="clip-path:url(#SVGID_2_);fill:#FFFFFF;" width="0.376" height="0.377"/>
	<rect x="15.278" y="28.373" style="clip-path:url(#SVGID_2_);fill:#FFFFFF;" width="0.376" height="0.377"/>
	<rect x="16.031" y="29.126" style="clip-path:url(#SVGID_2_);fill:#FFFFFF;" width="0.376" height="0.376"/>
	<rect x="16.031" y="28.373" style="clip-path:url(#SVGID_2_);fill:#FFFFFF;" width="0.376" height="0.377"/>
	<rect x="16.785" y="29.126" style="clip-path:url(#SVGID_2_);fill:#FFFFFF;" width="0.376" height="0.376"/>
	<rect x="16.785" y="28.373" style="clip-path:url(#SVGID_2_);fill:#FFFFFF;" width="0.376" height="0.377"/>
	<rect x="17.537" y="29.126" style="clip-path:url(#SVGID_2_);fill:#FFFFFF;" width="0.377" height="0.376"/>
	<rect x="17.537" y="28.373" style="clip-path:url(#SVGID_2_);fill:#FFFFFF;" width="0.377" height="0.377"/>
	<polygon style="clip-path:url(#SVGID_2_);fill:#FFFFFF;" points="20.089,28.75 20.55,28.75 20.55,29.096 20.926,29.096 
		20.926,28.677 20.089,28.677 	"/>
	<path style="clip-path:url(#SVGID_2_);fill:#FFFFFF;" d="M18.855,28.561v0.754c0,0.104,0.084,0.188,0.187,0.188h0.626v-0.376
		h-0.436v-0.377h0.436v-0.072H19.25v-0.304h-0.208C18.939,28.373,18.855,28.456,18.855,28.561"/>
	<path style="clip-path:url(#SVGID_2_);fill:#FFFFFF;" d="M20.55,29.126h-0.881v0.376h1.069c0.104,0,0.188-0.084,0.188-0.188v-0.219
		H20.55V29.126z"/>
	<path style="clip-path:url(#SVGID_2_);fill:#FFFFFF;" d="M19.669,28.677v0.073h0.42v-0.073h0.837v-0.116
		c0-0.104-0.084-0.188-0.188-0.188H19.25v0.304H19.669z"/>
	<rect x="14.525" y="31.385" style="clip-path:url(#SVGID_2_);fill:#FFFFFF;" width="0.376" height="0.376"/>
	<rect x="15.278" y="31.385" style="clip-path:url(#SVGID_2_);fill:#FFFFFF;" width="0.376" height="0.376"/>
	<rect x="14.525" y="30.632" style="clip-path:url(#SVGID_2_);fill:#FFFFFF;" width="0.376" height="0.376"/>
	<rect x="15.278" y="30.632" style="clip-path:url(#SVGID_2_);fill:#FFFFFF;" width="0.376" height="0.376"/>
	<rect x="16.031" y="31.385" style="clip-path:url(#SVGID_2_);fill:#FFFFFF;" width="0.376" height="0.376"/>
	<rect x="16.031" y="30.632" style="clip-path:url(#SVGID_2_);fill:#FFFFFF;" width="0.376" height="0.376"/>
	<rect x="16.785" y="31.385" style="clip-path:url(#SVGID_2_);fill:#FFFFFF;" width="0.376" height="0.376"/>
	<rect x="16.785" y="30.632" style="clip-path:url(#SVGID_2_);fill:#FFFFFF;" width="0.376" height="0.376"/>
	<rect x="17.537" y="31.385" style="clip-path:url(#SVGID_2_);fill:#FFFFFF;" width="0.377" height="0.376"/>
	<rect x="17.537" y="30.632" style="clip-path:url(#SVGID_2_);fill:#FFFFFF;" width="0.377" height="0.376"/>
	<path style="clip-path:url(#SVGID_2_);fill:#FFFFFF;" d="M20.738,30.632h-1.695c-0.104,0-0.188,0.084-0.188,0.188v0.753
		c0,0.104,0.084,0.188,0.188,0.188h1.695c0.104,0,0.188-0.085,0.188-0.188v-0.753C20.926,30.716,20.842,30.632,20.738,30.632
		 M20.55,31.385h-1.317v-0.377h1.317V31.385z"/>
	<path style="clip-path:url(#SVGID_2_);fill:#FFFFFF;" d="M22.994,28.745c0.002,0.064,0.004,0.128,0.004,0.192
		s-0.002,0.13-0.004,0.195l0.376,0.014c0.003-0.07,0.003-0.139,0.003-0.209c0-0.068,0-0.138-0.003-0.205L22.994,28.745z"/>
	<path style="clip-path:url(#SVGID_2_);fill:#FFFFFF;" d="M22.41,31.355l0.333,0.173c0.063-0.12,0.122-0.247,0.177-0.374
		l-0.345-0.148C22.523,31.126,22.469,31.242,22.41,31.355"/>
	<path style="clip-path:url(#SVGID_2_);fill:#FFFFFF;" d="M22.91,29.899l0.369,0.068c0.026-0.136,0.046-0.274,0.061-0.409
		l-0.375-0.041C22.951,29.645,22.933,29.772,22.91,29.899"/>
	<path style="clip-path:url(#SVGID_2_);fill:#FFFFFF;" d="M22.713,30.646l0.356,0.123c0.044-0.129,0.085-0.263,0.121-0.396
		l-0.364-0.095C22.793,30.401,22.755,30.526,22.713,30.646"/>
	<path style="clip-path:url(#SVGID_2_);fill:#FFFFFF;" d="M22.967,28.359l0.373-0.04c-0.002-0.021-0.005-0.042-0.008-0.063h-0.379
		C22.957,28.291,22.963,28.325,22.967,28.359"/>
	<path style="clip-path:url(#SVGID_2_);fill:#FFFFFF;" d="M12.626,30.273l-0.365,0.096c0.036,0.133,0.075,0.267,0.12,0.396
		l0.357-0.121C12.695,30.522,12.658,30.398,12.626,30.273"/>
	<path style="clip-path:url(#SVGID_2_);fill:#FFFFFF;" d="M12.541,27.975l-0.369-0.068c-0.026,0.137-0.045,0.274-0.061,0.41
		l0.375,0.041C12.5,28.23,12.52,28.102,12.541,27.975"/>
	<path style="clip-path:url(#SVGID_2_);fill:#FFFFFF;" d="M12.738,27.229l-0.355-0.123c-0.045,0.13-0.086,0.264-0.122,0.396
		l0.365,0.096C12.659,27.474,12.697,27.348,12.738,27.229"/>
	<path style="clip-path:url(#SVGID_2_);fill:#FFFFFF;" d="M12.454,28.938c0-0.065,0.001-0.13,0.003-0.194l-0.375-0.014
		c-0.003,0.068-0.004,0.139-0.004,0.208c0,0.068,0.001,0.138,0.004,0.205l0.375-0.013C12.455,29.066,12.454,29.002,12.454,28.938"/>
	<path style="clip-path:url(#SVGID_2_);fill:#FFFFFF;" d="M12.529,31.151c0.054,0.127,0.113,0.253,0.178,0.375l0.334-0.173
		c-0.059-0.114-0.115-0.231-0.166-0.348L12.529,31.151z"/>
	<path style="clip-path:url(#SVGID_2_);fill:#FFFFFF;" d="M12.531,26.72l0.346,0.147c0.05-0.118,0.105-0.235,0.165-0.348
		l-0.335-0.174C12.644,26.467,12.586,26.593,12.531,26.72"/>
	<path style="clip-path:url(#SVGID_2_);fill:#FFFFFF;" d="M12.485,29.515l-0.374,0.041c0.014,0.136,0.035,0.271,0.06,0.41
		l0.37-0.069C12.519,29.771,12.499,29.642,12.485,29.515"/>
	<path style="clip-path:url(#SVGID_2_);fill:#FFFFFF;" d="M17.726,23.289c-1.349,0-2.654,0.485-3.679,1.364l0.246,0.286
		c0.955-0.821,2.174-1.273,3.433-1.273c0.521,0,1.033,0.079,1.524,0.228v-0.392C18.755,23.362,18.245,23.289,17.726,23.289"/>
	<path style="clip-path:url(#SVGID_2_);fill:#FFFFFF;" d="M19.669,23.637c-0.138-0.05-0.277-0.096-0.419-0.135v0.393
		c0.142,0.043,0.281,0.091,0.419,0.145V23.637z"/>
	<path style="clip-path:url(#SVGID_2_);fill:#FFFFFF;" d="M17.726,34.208c-1.075,0-2.122-0.332-2.999-0.941h0.552v-0.376h-1.13
		c-0.105,0-0.19,0.085-0.19,0.188v1.129h0.377v-0.756c0.976,0.731,2.165,1.133,3.39,1.133c1.349,0,2.654-0.484,3.679-1.362
		l-0.246-0.287C20.204,33.757,18.984,34.208,17.726,34.208"/>
	<path style="clip-path:url(#SVGID_2_);fill:#FFFFFF;" d="M5.991,14.766v-0.557c-0.625-0.059-1.123-0.556-1.182-1.18H4.254
		c-0.058,0.624-0.556,1.121-1.181,1.18v0.557c0.625,0.058,1.123,0.556,1.181,1.181h0.555C4.868,15.322,5.366,14.824,5.991,14.766
		 M5.014,14.586c-0.146,0.107-0.274,0.236-0.383,0.384l-0.099,0.133l-0.1-0.133c-0.107-0.148-0.236-0.277-0.382-0.384l-0.134-0.098
		l0.134-0.099c0.146-0.109,0.275-0.238,0.382-0.383l0.1-0.133l0.099,0.133c0.109,0.145,0.237,0.274,0.383,0.383l0.133,0.099
		L5.014,14.586z"/>
	<path style="clip-path:url(#SVGID_2_);fill:#FFFFFF;" d="M45.026,18.022v-0.417c-0.429-0.029-0.771-0.372-0.802-0.8H43.81
		c-0.03,0.428-0.372,0.77-0.8,0.8v0.417c0.428,0.03,0.77,0.371,0.8,0.799h0.415C44.256,18.393,44.598,18.052,45.026,18.022
		 M44.33,17.863c-0.101,0.074-0.189,0.163-0.264,0.264l-0.048,0.066l-0.051-0.066c-0.074-0.1-0.163-0.189-0.263-0.264l-0.066-0.05
		l0.066-0.049c0.1-0.075,0.188-0.163,0.263-0.263l0.051-0.068l0.048,0.068c0.076,0.1,0.163,0.188,0.264,0.263l0.066,0.049
		L44.33,17.863z"/>
	<path style="clip-path:url(#SVGID_2_);fill:#FFFFFF;" d="M28.474,46.249v-0.384c-0.398-0.03-0.72-0.352-0.75-0.752H27.34
		c-0.03,0.4-0.352,0.722-0.751,0.752v0.384c0.399,0.03,0.721,0.35,0.751,0.751h0.384C27.754,46.599,28.075,46.279,28.474,46.249
		 M27.828,46.106c-0.094,0.069-0.177,0.152-0.246,0.246l-0.051,0.065l-0.049-0.065c-0.07-0.093-0.153-0.176-0.247-0.246l-0.066-0.05
		l0.066-0.05c0.094-0.069,0.177-0.151,0.247-0.247l0.049-0.065l0.051,0.065c0.069,0.096,0.152,0.178,0.246,0.247l0.066,0.05
		L27.828,46.106z"/>
	<path style="clip-path:url(#SVGID_2_);fill:#FFFFFF;" d="M48.47,38.712v-2.137c0-0.124-0.101-0.226-0.226-0.226H41.26l-0.084-0.173
		c-0.307-0.636-0.746-0.895-1.514-0.895c-0.766,0-1.206,0.259-1.513,0.895l-0.085,0.173h-6.985c-0.124,0-0.224,0.102-0.224,0.226
		v2.137c0,0.124,0.099,0.222,0.224,0.222h6.386l-0.063,0.361c-0.046,0.264-0.093,0.542-0.143,0.837
		c-0.117,0.692-0.251,1.477-0.411,2.373l-0.045,0.255h-0.881c-0.124,0-0.226,0.101-0.226,0.226c0,0.124,0.102,0.226,0.226,0.226
		h7.479c0.123,0,0.226-0.102,0.226-0.226c0-0.125-0.103-0.226-0.226-0.226h-0.881l-0.046-0.255
		c-0.163-0.911-0.298-1.704-0.416-2.404c-0.048-0.282-0.095-0.55-0.138-0.803l-0.061-0.36h6.383
		C48.369,38.938,48.47,38.836,48.47,38.712 M31.301,38.486v-1.688h6.607l-0.095,0.382c-0.067,0.276-0.139,0.612-0.222,1.055
		l-0.048,0.252H31.301z M41.998,42.396l0.064,0.363h-4.801l0.064-0.363c0.144-0.811,0.268-1.538,0.377-2.182
		c0.324-1.916,0.521-3.071,0.801-3.729c0.242-0.57,0.522-0.753,1.158-0.753c0.637,0,0.918,0.183,1.16,0.751
		c0.277,0.657,0.473,1.808,0.796,3.714C41.729,40.845,41.853,41.579,41.998,42.396 M48.02,38.486H41.78l-0.047-0.252
		c-0.081-0.433-0.151-0.767-0.222-1.051l-0.096-0.383h6.604V38.486z"/>
</g>
</svg>
