<?xml version="1.0" encoding="iso-8859-1"?>
<!-- Generator: Adobe Illustrator 15.1.0, SVG Export Plug-In . SVG Version: 6.00 Build 0)  -->
<!DOCTYPE svg PUBLIC "-//W3C//DTD SVG 1.1//EN" "http://www.w3.org/Graphics/SVG/1.1/DTD/svg11.dtd">
<svg version="1.1" id="Layer_1" xmlns="http://www.w3.org/2000/svg" xmlns:xlink="http://www.w3.org/1999/xlink" x="0px" y="0px"
	 width="50px" height="50px" viewBox="0 0 50 50" style="enable-background:new 0 0 50 50;" xml:space="preserve">
<path style="fill:#FFFFFF;" d="M24.671,46.256l-0.303-0.007l0.012-0.603l0.302,0.006V45.65l0.303,0.007l-0.013,0.606L24.671,46.256z
	 M25.811,45.646l0.605-0.029l0.029,0.604l-0.605,0.029L25.811,45.646z M23.2,46.176l-0.303-0.026l0.056-0.603l0.601,0.054
	l-0.053,0.603L23.2,46.176z M27.239,45.547l0.6-0.07l0.071,0.599l-0.602,0.071L27.239,45.547z M21.74,45.994l-0.3-0.047l0.095-0.597
	l0.598,0.095l-0.094,0.598L21.74,45.994z M20.292,45.713l-0.294-0.068l0.137-0.59l0.588,0.136l-0.137,0.591L20.292,45.713z
	 M18.868,45.329l-0.29-0.089l0.179-0.578l0.579,0.177l-0.177,0.579L18.868,45.329z M17.476,44.849l-0.283-0.108l0.217-0.564
	l0.564,0.217l-0.216,0.564L17.476,44.849z M16.12,44.273l-0.275-0.127l0.255-0.548l0.547,0.255l-0.253,0.548L16.12,44.273z
	 M14.806,43.607L14.806,43.607l-0.265-0.146l0.292-0.528l0.529,0.292l-0.292,0.53L14.806,43.607z M41.753,37.317l0.354-0.489
	l0.489,0.355l-0.356,0.489L41.753,37.317z M7.296,36.693L7.129,36.44l0.505-0.334l0.168,0.252l0.166,0.253l-0.504,0.334
	L7.296,36.693z M42.567,36.144l0.321-0.513l0.515,0.319l-0.322,0.514L42.567,36.144z M6.525,35.44l-0.148-0.264l0.526-0.298
	l0.299,0.525l-0.526,0.299L6.525,35.44z M43.304,34.915l0.285-0.534l0.533,0.284l-0.285,0.534L43.304,34.915z M5.844,34.137
	l-0.13-0.274l0.546-0.261l0.128,0.272v-0.001l0.131,0.274l-0.545,0.262L5.844,34.137z M43.95,33.639l0.249-0.551l0.552,0.246
	l-0.124,0.275l-0.124,0.277L43.95,33.639z M5.254,32.788l-0.113-0.282l0.564-0.224l0.223,0.564l-0.562,0.222L5.254,32.788z
	 M44.512,32.32l0.208-0.567l0.568,0.208l-0.104,0.284l-0.104,0.284L44.512,32.32z M4.759,31.401l-0.091-0.288l0.575-0.184
	l0.185,0.577l-0.579,0.182L4.759,31.401z M44.979,30.968l0.168-0.581l0.581,0.17l-0.168,0.581L44.979,30.968z M45.352,29.584
	l0.127-0.59l0.591,0.128l-0.127,0.593L45.352,29.584z M3.833,26.817l-0.028-0.301l0.602-0.057l0.056,0.604l-0.604,0.055
	L3.833,26.817z M3.747,25.347L3.747,25.347l-0.006-0.303l0.603-0.015l0.014,0.605l-0.604,0.014L3.747,25.347z M45.881,25.331
	l0.005-0.604l0.604,0.002l-0.003,0.605L45.881,25.331z M3.75,24.176l0.015-0.303l0.013-0.302L4.383,23.6l-0.028,0.605L3.75,24.176z
	 M45.841,23.6L45.841,23.6l-0.02-0.304l0.606-0.038l0.018,0.303l0.02,0.301L45.86,23.9L45.841,23.6z M3.847,22.708l0.036-0.302
	l0.035-0.3l0.601,0.07l-0.07,0.601L3.847,22.708z M45.702,22.174L45.702,22.174l-0.04-0.299l0.6-0.081l0.079,0.601l-0.598,0.079
	L45.702,22.174z M4.049,21.247l0.11-0.594l0.597,0.111l-0.113,0.594L4.049,21.247z M45.468,20.764l-0.061-0.297L46,20.348
	l0.06,0.296l0.061,0.295l-0.593,0.12L45.468,20.764z M4.349,19.804l0.078-0.293l0.075-0.293l0.588,0.154l-0.155,0.585L4.349,19.804z
	 M45.136,19.372l-0.08-0.293l0.584-0.159l0.079,0.292V19.21l0.08,0.293l-0.581,0.16L45.136,19.372z M4.75,18.387l0.096-0.288V18.1
	l0.096-0.288l0.575,0.194L5.326,18.58L4.75,18.387z M44.709,18.005l-0.098-0.286l0.57-0.2l0.1,0.286l0.102,0.286l-0.572,0.199
	L44.709,18.005z M5.25,17l0.23-0.56l0.56,0.233l-0.231,0.557L5.25,17z M44.19,16.672l-0.119-0.278l0.556-0.24l0.24,0.557
	l-0.557,0.238L44.19,16.672z M5.84,15.65l0.134-0.271l0.136-0.272l0.541,0.27L6.382,15.92L5.84,15.65z M43.58,15.377L43.58,15.377
	l-0.137-0.269l0.537-0.276l0.276,0.538l-0.537,0.277L43.58,15.377z M6.523,14.346l0.306-0.523l0.521,0.306L7.046,14.65L6.523,14.346
	z M42.885,14.131l-0.158-0.259l0.518-0.313l0.157,0.258l0.155,0.26l-0.518,0.314L42.885,14.131z M7.295,13.089l0.169-0.25
	l0.171-0.248l0.499,0.339l-0.339,0.5L7.295,13.089z M42.101,12.935l-0.174-0.248l0.495-0.347l0.349,0.493l-0.495,0.351
	L42.101,12.935z M8.149,11.892l0.374-0.476L9,11.791L8.81,12.028l-0.186,0.237L8.149,11.892z M41.236,11.796L41.236,11.796
	l-0.188-0.235l0.467-0.383l0.383,0.47l-0.47,0.382L41.236,11.796z M9.083,10.752l0.408-0.447l0.447,0.406L9.531,11.16L9.083,10.752z
	 M40.296,10.717l-0.206-0.22l0.442-0.413l0.412,0.441l-0.44,0.413L40.296,10.717z M10.093,9.684l0.436-0.421l0.42,0.436
	l-0.438,0.421L10.093,9.684z M39.283,9.708L39.063,9.5l0.412-0.441l0.442,0.412l-0.414,0.442L39.283,9.708z M11.175,8.684
	l0.232-0.194l0.232-0.194l0.389,0.463l-0.232,0.195l-0.232,0.194L11.175,8.684z M38.205,8.768L38.205,8.768l-0.234-0.19l0.381-0.47
	l0.471,0.38L38.44,8.958L38.205,8.768z M12.322,7.762l0.489-0.354l0.357,0.488l-0.244,0.178l-0.246,0.178L12.322,7.762z
	 M13.532,6.921l0.512-0.32l0.32,0.512l-0.513,0.322L13.532,6.921z M14.793,6.167l0.536-0.284l0.283,0.535l-0.533,0.283L14.793,6.167
	z M34.616,6.423l-0.268-0.14l0.276-0.536l0.537,0.277l-0.276,0.537L34.616,6.423z M16.107,5.501l0.277-0.124l0.276-0.124
	l0.246,0.554l-0.552,0.247L16.107,5.501z M33.322,5.812L33.046,5.69l0.238-0.555l0.278,0.12l0.277,0.12l-0.239,0.555L33.322,5.812z
	 M17.465,4.929l0.568-0.208l0.208,0.568l-0.285,0.104l-0.283,0.104L17.465,4.929z M31.99,5.291l-0.287-0.101l0.201-0.571
	l0.572,0.201l-0.201,0.572L31.99,5.291z M18.856,4.451l0.582-0.168l0.168,0.581l-0.58,0.167L18.856,4.451z M30.623,4.862
	L30.331,4.78l0.162-0.583l0.582,0.161l-0.16,0.583L30.623,4.862z M20.279,4.07l0.59-0.129l0.129,0.591l-0.591,0.129L20.279,4.07z
	 M29.23,4.529l-0.297-0.06l0.119-0.592l0.594,0.119l-0.12,0.593L29.23,4.529z M21.723,3.788l0.3-0.044L22.322,3.7l0.089,0.597
	l-0.6,0.088L21.723,3.788z M27.818,4.293l-0.301-0.039l0.078-0.599l0.602,0.079l-0.078,0.598L27.818,4.293z M23.185,3.603
	l0.301-0.023l0.303-0.022l0.046,0.601l-0.301,0.024l-0.303,0.023L23.185,3.603z M26.395,4.158l-0.302-0.017l0.036-0.604l0.604,0.036
	l-0.037,0.603L26.395,4.158z M24.656,3.52l0.301-0.004l0.303-0.002l0.006,0.605l-0.604,0.006L24.656,3.52z"/>
<g>
	<defs>
		<rect id="SVGID_1_" width="50" height="50"/>
	</defs>
	<clipPath id="SVGID_2_">
		<use xlink:href="#SVGID_1_"  style="overflow:visible;"/>
	</clipPath>
	<path style="clip-path:url(#SVGID_2_);fill:#FFFFFF;" d="M43.073,43.11c-0.504-0.206-0.719-0.479-0.698-0.887
		c0.021-0.476-0.248-0.824-0.376-0.961c0.077-0.296,0.303-1.319,0-2.207c-0.327-0.952-1.322-2.404-2.35-3.831
		c-0.42-0.587-0.439-1.225-0.462-1.962c-0.022-0.704-0.048-1.502-0.439-2.389c-0.428-0.967-1.285-1.521-2.352-1.521
		c-0.635,0-1.285,0.199-1.787,0.545c-1.026,0.708-0.89,2.252-0.801,3.275c0.014,0.14,0.024,0.271,0.031,0.384
		c0.06,1.001,0.006,1.529-0.066,1.69c-0.045,0.104-0.272,0.401-0.512,0.717c-0.247,0.327-0.528,0.697-0.76,1.042
		c-0.274,0.416-0.496,1.05-0.711,1.662c-0.157,0.449-0.307,0.874-0.449,1.127c-0.275,0.486-0.207,0.941-0.149,1.151
		c-0.104,0.072-0.253,0.214-0.379,0.481c-0.152,0.325-0.464,0.5-1.107,0.624c-0.297,0.061-0.5,0.185-0.608,0.37
		c-0.153,0.269-0.069,0.606,0.007,0.839c0.116,0.339,0.044,0.555-0.085,0.945c-0.03,0.089-0.065,0.19-0.099,0.304
		c-0.054,0.178-0.034,0.34,0.058,0.479c0.243,0.372,0.953,0.504,1.685,0.591c0.437,0.051,0.914,0.226,1.376,0.395
		c0.453,0.165,0.922,0.336,1.347,0.388c0.064,0.008,0.129,0.013,0.19,0.013c0.642,0,0.932-0.426,1.024-0.601
		c0.231-0.048,1.026-0.199,1.847-0.219c0.818-0.023,1.61,0.138,1.836,0.188c0.07,0.136,0.257,0.442,0.553,0.603
		c0.164,0.089,0.39,0.14,0.622,0.14c0.249,0,0.721-0.058,1.093-0.452c0.375-0.393,1.305-0.897,1.985-1.266
		c0.15-0.082,0.292-0.159,0.418-0.229c0.381-0.212,0.589-0.514,0.569-0.829C43.508,43.448,43.337,43.219,43.073,43.11
		 M34.618,43.034c-0.046-0.335-0.478-0.667-0.978-1.052c-0.407-0.313-0.869-0.67-0.996-0.972c-0.265-0.623-0.057-1.717,0.306-2.282
		c0.178-0.281,0.323-0.71,0.465-1.123c0.152-0.447,0.312-0.909,0.488-1.111c0.277-0.316,0.536-0.931,0.582-1.414
		c0.263,0.251,0.666,0.566,1.042,0.566c0.058,0,0.114-0.008,0.166-0.022c0.257-0.074,0.635-0.292,1-0.502
		c0.315-0.184,0.701-0.406,0.847-0.428c0.252,0.36,1.705,3.575,1.854,4.609c0.117,0.816-0.007,1.493-0.07,1.757
		c-0.05-0.006-0.108-0.012-0.171-0.012c-0.405,0-0.513,0.221-0.539,0.353c-0.073,0.343-0.082,1.439-0.082,1.686
		c-0.146,0.187-0.888,1.062-1.949,1.22c-0.434,0.063-0.838,0.094-1.203,0.094c-0.312,0-0.509-0.023-0.591-0.037l-0.535-0.609
		C34.464,43.649,34.674,43.431,34.618,43.034 M35.297,32.957c-0.017,0.007-0.035,0.015-0.051,0.023
		c-0.002-0.037-0.006-0.072-0.011-0.11c-0.058-0.336-0.279-0.578-0.528-0.578c-0.019,0-0.036,0.001-0.058,0.004
		c-0.146,0.024-0.264,0.136-0.327,0.293c0.057-0.346,0.252-0.601,0.483-0.601c0.272,0,0.502,0.367,0.502,0.802
		C35.308,32.846,35.304,32.899,35.297,32.957 M37.412,33.217c0.026-0.079,0.039-0.166,0.039-0.255c0-0.396-0.248-0.703-0.568-0.703
		c-0.311,0-0.565,0.315-0.565,0.703c0,0.025,0,0.053,0.005,0.079c-0.019-0.007-0.034-0.013-0.05-0.019
		c-0.037-0.108-0.055-0.222-0.055-0.338c0-0.472,0.301-0.854,0.672-0.854s0.672,0.382,0.672,0.854
		C37.562,32.881,37.507,33.067,37.412,33.217 M37.142,34.133c-0.006,0.023-0.018,0.034-0.144,0.1
		c-0.063,0.033-0.142,0.074-0.239,0.134l-0.066,0.04c-0.267,0.161-0.887,0.538-1.055,0.561c-0.115,0.015-0.186-0.029-0.345-0.137
		c-0.036-0.025-0.075-0.052-0.115-0.078c-0.287-0.188-0.471-0.396-0.491-0.477c0.094-0.073,0.325-0.254,0.442-0.36
		c0.241-0.225,0.485-0.375,0.604-0.375c0.006,0,0.011,0,0.018,0.002c0.142,0.025,0.49,0.164,0.743,0.265
		c0.117,0.047,0.219,0.087,0.291,0.113C37.011,33.998,37.126,34.097,37.142,34.133 M39.161,44.602
		c0.126-0.571,0.271-1.349,0.248-1.808c-0.004-0.105-0.016-0.218-0.024-0.328c-0.016-0.204-0.042-0.509-0.016-0.601
		c0.005-0.002,0.011-0.004,0.018-0.007c0,0.265,0.058,0.786,0.477,0.969c0.126,0.055,0.267,0.083,0.422,0.083
		c0.42,0,0.885-0.207,1.075-0.396c0.112-0.112,0.207-0.249,0.273-0.358c0.014,0.042,0.022,0.098,0.018,0.169
		c-0.024,0.388,0.164,0.9,0.521,1.09l0.053,0.026c0.128,0.067,0.467,0.245,0.473,0.33c0,0-0.004,0.009-0.023,0.027
		c-0.084,0.078-0.383,0.229-0.671,0.377c-0.513,0.261-1.092,0.557-1.352,0.831c-0.368,0.387-0.784,0.645-1.034,0.645
		c-0.029,0-0.058-0.003-0.082-0.011C39.263,45.555,39.04,45.163,39.161,44.602 M29.885,43.144c-0.028-0.13-0.051-0.232-0.026-0.333
		c0.016-0.073,0.381-0.151,0.535-0.186c0.22-0.048,0.444-0.097,0.591-0.186c0.199-0.121,0.308-0.343,0.402-0.541
		c0.07-0.142,0.142-0.288,0.227-0.337c0.004-0.002,0.012-0.005,0.025-0.005c0.159,0,0.491,0.332,0.685,0.631
		c0.048,0.077,0.139,0.228,0.244,0.402c0.311,0.521,0.737,1.238,0.963,1.477c0.199,0.216,0.524,0.631,0.444,0.986
		c-0.058,0.275-0.37,0.501-0.443,0.549c-0.027,0.006-0.061,0.01-0.099,0.01c-0.427,0-1.272-0.355-1.728-0.547l-0.068-0.028
		c-0.253-0.106-0.668-0.173-1.068-0.238c-0.318-0.05-0.755-0.121-0.827-0.186c-0.06-0.066,0.009-0.28,0.07-0.469
		c0.042-0.135,0.087-0.275,0.111-0.422C29.958,43.487,29.916,43.297,29.885,43.144"/>
</g>
<g>
	<defs>
		<rect id="SVGID_3_" x="7.294" y="36.813" width="8.052" height="7.408"/>
	</defs>
	<clipPath id="SVGID_4_">
		<use xlink:href="#SVGID_3_"  style="overflow:visible;"/>
	</clipPath>
	<path style="clip-path:url(#SVGID_4_);fill:#FFFFFF;" d="M9.693,36.963c-0.462,0-0.832,0.377-0.832,0.842
		c0,0.391,0.268,0.711,0.63,0.804c0.277,0.128,0.684,0.329,0.764,0.493c0.117,0.209,0.214,0.595,0.205,0.89v0.01
		c-0.145,0.202-0.233,0.451-0.233,0.718c0,0.68,0.558,1.237,1.24,1.237c0.68,0,1.238-0.558,1.238-1.237
		c0-0.683-0.558-1.271-1.238-1.239c-0.107,0-0.212,0.013-0.312,0.038c-0.327-0.135-0.536-0.363-0.648-0.542
		c-0.089-0.144-0.075-0.519-0.047-0.823c0.047-0.104,0.076-0.223,0.076-0.348C10.536,37.34,10.159,36.963,9.693,36.963
		 M12.734,36.963c-0.464,0-0.832,0.377-0.832,0.842c0,0.464,0.368,0.832,0.832,0.832c0.465,0,0.832-0.368,0.832-0.832
		C13.566,37.34,13.199,36.963,12.734,36.963 M14.495,39.595c-0.463,0-0.832,0.377-0.832,0.842s0.369,0.832,0.832,0.832
		c0.466,0,0.843-0.367,0.843-0.832C15.338,40.003,14.961,39.595,14.495,39.595 M8.116,39.722c-0.463,0-0.832,0.377-0.832,0.841
		c0,0.465,0.369,0.832,0.832,0.832c0.466,0,0.843-0.367,0.843-0.832C8.959,40.13,8.582,39.753,8.116,39.722 M9.734,42.536
		c-0.465,0-0.843,0.379-0.843,0.844s0.378,0.831,0.843,0.831c0.463,0,0.832-0.366,0.832-0.831S10.197,42.536,9.734,42.536
		 M13.044,42.536c-0.465,0-0.832,0.379-0.832,0.844s0.367,0.831,0.832,0.831s0.832-0.366,0.832-0.831S13.509,42.536,13.044,42.536"
		/>
</g>
<g>
	<defs>
		<rect id="SVGID_5_" width="50" height="50"/>
	</defs>
	<clipPath id="SVGID_6_">
		<use xlink:href="#SVGID_5_"  style="overflow:visible;"/>
	</clipPath>
	<path style="clip-path:url(#SVGID_6_);fill:#FFFFFF;" d="M5.978,29.437V28.78c-0.626-0.03-1.129-0.535-1.161-1.161H4.161
		C4.13,28.245,3.626,28.75,3,28.78v0.656c0.626,0.03,1.13,0.533,1.161,1.161h0.656C4.849,29.97,5.352,29.467,5.978,29.437
		 M4.925,29.157c-0.148,0.108-0.277,0.239-0.388,0.386l-0.049,0.065l-0.047-0.065c-0.11-0.146-0.24-0.276-0.388-0.386l-0.065-0.049
		l0.065-0.048c0.148-0.109,0.278-0.239,0.388-0.388l0.047-0.065l0.049,0.065c0.111,0.148,0.24,0.278,0.388,0.388l0.065,0.048
		L4.925,29.157z"/>
	<path style="clip-path:url(#SVGID_6_);fill:#FFFFFF;" d="M37.635,7.382V6.975c-0.418-0.03-0.754-0.365-0.783-0.783h-0.408
		c-0.029,0.418-0.365,0.753-0.783,0.783v0.407c0.418,0.03,0.754,0.365,0.783,0.784h0.408C36.881,7.747,37.217,7.412,37.635,7.382
		 M36.954,7.227c-0.098,0.073-0.186,0.16-0.259,0.258l-0.047,0.064l-0.048-0.064c-0.073-0.097-0.16-0.184-0.258-0.258l-0.066-0.048
		l0.066-0.049c0.098-0.073,0.184-0.159,0.258-0.257l0.048-0.066l0.047,0.066c0.073,0.098,0.161,0.184,0.259,0.257l0.065,0.049
		L36.954,7.227z"/>
	<path style="clip-path:url(#SVGID_6_);fill:#FFFFFF;" d="M47,27.494v-0.375c-0.392-0.029-0.706-0.344-0.736-0.736h-0.377
		c-0.028,0.393-0.342,0.707-0.735,0.736v0.375c0.394,0.029,0.707,0.344,0.735,0.736h0.377C46.294,27.838,46.608,27.523,47,27.494
		 M46.365,27.355c-0.091,0.067-0.173,0.148-0.241,0.24l-0.049,0.065l-0.048-0.065c-0.067-0.091-0.149-0.172-0.241-0.24l-0.067-0.049
		l0.067-0.048c0.092-0.069,0.174-0.15,0.241-0.241l0.048-0.066l0.049,0.066c0.068,0.091,0.15,0.172,0.241,0.241l0.066,0.048
		L46.365,27.355z"/>
	<path style="clip-path:url(#SVGID_6_);fill:#FFFFFF;" d="M15.627,33.303c-1.88,0-3.191-0.782-3.191-1.483v-0.765l0.099,0.086
		c0.663,0.564,1.817,0.902,3.092,0.902c1.119,0,2.147-0.261,2.827-0.71v-0.051h-0.409v-0.228c-0.566,0.316-1.411,0.54-2.418,0.54
		c-1.88,0-3.191-0.779-3.191-1.48v-0.767l0.099,0.085c0.663,0.566,1.817,0.904,3.092,0.904c0.912,0,1.764-0.175,2.418-0.481v-0.508
		c-0.566,0.316-1.411,0.542-2.418,0.542c-1.88,0-3.191-0.781-3.191-1.482v-0.766l0.099,0.085c0.663,0.565,1.817,0.904,3.092,0.904
		c0.912,0,1.764-0.175,2.418-0.482v-0.507c-0.566,0.315-1.411,0.542-2.418,0.542c-1.88,0-3.191-0.781-3.191-1.483
		c0-0.649,1.11-1.398,2.902-1.476h0.572c0.903,0.039,1.631,0.248,2.135,0.528V25.25c-0.573-0.267-1.312-0.44-2.137-0.472h-0.566
		c-1.911,0.075-3.353,0.901-3.353,1.922v5.119c0,1.084,1.597,1.931,3.638,1.931c1.855,0,3.347-0.702,3.599-1.646h-0.482
		C18.452,32.717,17.253,33.303,15.627,33.303"/>
	<rect x="18.867" y="31.283" style="clip-path:url(#SVGID_6_);fill:#FFFFFF;" width="0.396" height="0.41"/>
	<path style="clip-path:url(#SVGID_6_);fill:#FFFFFF;" d="M18.814,26.701c0,0.218-0.128,0.444-0.36,0.652v0.566
		c0.094-0.062,0.179-0.125,0.26-0.194l0.1-0.085v0.767c0,0.219-0.128,0.444-0.36,0.652v0.567c0.094-0.062,0.179-0.126,0.26-0.194
		l0.1-0.086v0.767c0,0.22-0.128,0.445-0.36,0.653v0.105h0.809v-4.171c0-0.466-0.301-0.891-0.809-1.224v0.566
		C18.688,26.255,18.814,26.482,18.814,26.701"/>
	<path style="clip-path:url(#SVGID_6_);fill:#FFFFFF;" d="M22.36,27.788c0.566,0,1.028-0.461,1.028-1.027s-0.462-1.028-1.028-1.028
		s-1.028,0.462-1.028,1.028S21.794,27.788,22.36,27.788 M22.36,26.145c0.34,0,0.617,0.276,0.617,0.616
		c0,0.341-0.277,0.617-0.617,0.617c-0.339,0-0.615-0.276-0.615-0.617C21.746,26.421,22.021,26.145,22.36,26.145"/>
	<rect x="22.156" y="26.555" style="clip-path:url(#SVGID_6_);fill:#FFFFFF;" width="0.409" height="0.411"/>
	<path style="clip-path:url(#SVGID_6_);fill:#FFFFFF;" d="M26.267,22.65h-0.412v-0.822h-0.411v0.822h-0.412v-0.822h-0.411v0.822
		h-0.41v-0.822H23.8v0.822h-0.411v-0.822h-0.411v0.822h-4.524v-1.234h7.611c-0.241-0.179-0.451-0.397-0.621-0.642v0.231h-0.412
		v-0.821h-0.411v0.821h-0.41v-0.821H23.8v0.821h-0.411v-0.821h-0.411v0.821h-4.524v-1.233h6.568
		c-0.026-0.134-0.043-0.271-0.049-0.411h-6.928v5.888c0.149,0.069,0.285,0.146,0.409,0.228v-0.772h6.981l-1.338,1.339l0.415,0.415
		c-0.046,0.098-0.088,0.197-0.125,0.301H23.8v2.056h0.587c0.037,0.104,0.079,0.204,0.125,0.301l-0.415,0.415l1.338,1.34h-6.171v0.41
		h0.425v0.41h-0.425v0.127c0,0.098-0.014,0.192-0.038,0.285H20.1v-0.822h4.521v0.822h1.646v-0.822h2.055v-0.588
		c0.104-0.036,0.205-0.077,0.301-0.124l0.416,0.416l1.452-1.454l-0.416-0.415c0.049-0.098,0.09-0.197,0.127-0.301h0.588v-2.056
		h-0.588c-0.037-0.104-0.078-0.203-0.127-0.301l0.416-0.415l-1.452-1.453l-0.416,0.415c-0.096-0.046-0.197-0.087-0.301-0.124v-0.588
		h-1.644v-2.536c-0.144-0.056-0.281-0.125-0.411-0.205V22.65z M25.031,24.294v-0.823h-0.411v0.823h-0.41v-0.823H23.8v0.823h-0.411
		v-0.823h-0.411v0.823h-4.524v-1.233h7.813v1.233h-0.412v-0.823h-0.411v0.823H25.031z M26.267,24.706v0.177
		c-0.104,0.036-0.204,0.078-0.302,0.124l-0.301-0.301H26.267z M25.854,31.692h-0.822v-0.41h0.822V31.692z M26.267,30.872h-0.603
		l0.301-0.302c0.098,0.047,0.197,0.088,0.302,0.125V30.872z M26.678,24.706h1.232v0.479l0.147,0.043
		c0.178,0.054,0.349,0.125,0.507,0.209l0.137,0.074l0.337-0.338l0.873,0.872l-0.34,0.339l0.074,0.134
		c0.085,0.158,0.155,0.329,0.208,0.508l0.044,0.147h0.48v1.232h-0.48l-0.044,0.147c-0.053,0.179-0.123,0.349-0.208,0.507
		l-0.074,0.135l0.34,0.338l-0.873,0.871l-0.34-0.338l-0.134,0.074c-0.158,0.085-0.329,0.155-0.507,0.209l-0.147,0.043v0.48h-1.232
		v-0.48l-0.146-0.043c-0.181-0.054-0.35-0.124-0.508-0.209l-0.136-0.074l-0.338,0.338l-0.872-0.871l0.337-0.338l-0.071-0.135
		c-0.086-0.158-0.157-0.329-0.21-0.508l-0.044-0.146h-0.479v-1.232h0.479l0.044-0.148c0.053-0.178,0.124-0.349,0.21-0.507
		l0.071-0.135l-0.337-0.339l0.872-0.872l0.338,0.339l0.136-0.074c0.158-0.084,0.329-0.155,0.508-0.209l0.146-0.043V24.706z"/>
	<path style="clip-path:url(#SVGID_6_);fill:#FFFFFF;" d="M25.755,20.185c0.029,0.062,0.064,0.123,0.1,0.183v-0.183H25.755z"/>
	<path style="clip-path:url(#SVGID_6_);fill:#FFFFFF;" d="M18.454,27.354c-0.112,0.101-0.25,0.198-0.409,0.288v0.507
		c0.146-0.069,0.285-0.145,0.409-0.229V27.354z"/>
	<path style="clip-path:url(#SVGID_6_);fill:#FFFFFF;" d="M19.264,31.693h-0.396v-0.41h0.396v-0.411h-0.81v-0.105
		c-0.112,0.102-0.25,0.198-0.409,0.288v0.229h0.409v0.051c0.095-0.062,0.18-0.126,0.261-0.194l0.1-0.085v0.765
		c0,0.095-0.025,0.189-0.071,0.285h0.482c0.024-0.093,0.038-0.188,0.038-0.285V31.693z"/>
	<path style="clip-path:url(#SVGID_6_);fill:#FFFFFF;" d="M18.454,29.061c-0.112,0.102-0.25,0.197-0.409,0.286v0.509
		c0.146-0.07,0.285-0.146,0.409-0.229V29.061z"/>
	<path style="clip-path:url(#SVGID_6_);fill:#FFFFFF;" d="M18.454,26.044v-0.566c-0.124-0.082-0.261-0.157-0.409-0.228v0.503
		C18.206,25.844,18.342,25.94,18.454,26.044"/>
	<path style="clip-path:url(#SVGID_6_);fill:#FFFFFF;" d="M25.444,27.788c0,1.021,0.829,1.851,1.849,1.851
		c1.021,0,1.851-0.83,1.851-1.851c0-1.02-0.829-1.851-1.851-1.851C26.273,25.938,25.444,26.769,25.444,27.788 M26.423,27.207
		l0.29-0.291l-0.278-0.277c0.188-0.143,0.409-0.237,0.654-0.272v0.395H27.5v-0.395c0.243,0.034,0.467,0.13,0.653,0.272l-0.277,0.277
		l0.29,0.291l0.278-0.278c0.142,0.188,0.237,0.411,0.272,0.653h-0.396v0.412h0.396c-0.035,0.242-0.131,0.467-0.272,0.654
		l-0.278-0.279l-0.29,0.291l0.277,0.279c-0.187,0.141-0.41,0.237-0.653,0.271v-0.395h-0.411v0.395
		c-0.245-0.034-0.467-0.131-0.654-0.271l0.278-0.279l-0.29-0.291l-0.28,0.279c-0.14-0.188-0.236-0.412-0.271-0.654h0.395v-0.412
		h-0.395c0.034-0.242,0.131-0.466,0.271-0.653L26.423,27.207z"/>
	<path style="clip-path:url(#SVGID_6_);fill:#FFFFFF;" d="M37.354,16.544h-0.129l-0.011-0.107c-0.199-1.779-1.699-3.12-3.49-3.12
		c-1.214,0-2.324,0.614-2.968,1.641l-0.048,0.077l-0.088-0.026c-0.173-0.052-0.35-0.079-0.526-0.079
		c-0.915,0-1.698,0.652-1.866,1.551l-0.02,0.115l-0.116-0.019c-0.141-0.021-0.282-0.033-0.42-0.033c-1.49,0-2.703,1.213-2.703,2.703
		c0,0.038,0.002,0.077,0.003,0.114h0.568c-0.002-0.038-0.005-0.075-0.005-0.114c0-1.179,0.958-2.138,2.137-2.138
		c0.245,0,0.489,0.043,0.726,0.129c0.091,0.033,0.194,0.016,0.27-0.043c0.077-0.058,0.117-0.151,0.108-0.248l-0.015-0.12
		c0-0.734,0.599-1.332,1.333-1.332c0.204,0,0.409,0.052,0.608,0.155c0.066,0.035,0.146,0.042,0.217,0.019
		c0.071-0.024,0.133-0.077,0.166-0.144c0.502-1.013,1.513-1.643,2.639-1.643c1.625,0,2.946,1.316,2.946,2.933
		c-0.002,0.017-0.003,0.04-0.003,0.048c0,0.083,0.036,0.162,0.101,0.216c0.063,0.053,0.147,0.076,0.229,0.062
		c0.131-0.021,0.248-0.032,0.356-0.032c1.181,0,2.139,0.959,2.139,2.138c0,1.179-0.958,2.138-2.139,2.138h-9.682
		c-0.358,0-0.698-0.091-0.995-0.248v0.621c0.308,0.124,0.644,0.192,0.995,0.192h9.682c1.492,0,2.705-1.212,2.705-2.703
		C40.06,17.757,38.847,16.544,37.354,16.544"/>
	<path style="clip-path:url(#SVGID_6_);fill:#FFFFFF;" d="M25.854,20.367v0.638h0.412v-0.152
		C26.106,20.713,25.968,20.549,25.854,20.367"/>
	<path style="clip-path:url(#SVGID_6_);fill:#FFFFFF;" d="M25.021,19.772c0.072,0.366,0.219,0.705,0.422,1.002v-0.59h0.312
		c-0.065-0.13-0.115-0.268-0.152-0.412H25.021z"/>
	<path style="clip-path:url(#SVGID_6_);fill:#FFFFFF;" d="M26.267,21.417h-0.202c0.064,0.049,0.133,0.095,0.202,0.137V21.417z"/>
	<path style="clip-path:url(#SVGID_6_);fill:#FFFFFF;" d="M25.603,19.772c-0.033-0.133-0.055-0.27-0.063-0.411h-0.567
		c0.006,0.14,0.024,0.277,0.049,0.411H25.603z"/>
	<path style="clip-path:url(#SVGID_6_);fill:#FFFFFF;" d="M26.267,20.853v0.152h-0.412v-0.638c-0.035-0.059-0.07-0.12-0.1-0.182
		h-0.312v0.589c0.17,0.246,0.38,0.464,0.621,0.643h0.202v0.137c0.13,0.08,0.268,0.148,0.411,0.205v-0.622
		C26.529,21.059,26.391,20.962,26.267,20.853"/>
	<rect x="37.074" y="18.159" style="clip-path:url(#SVGID_6_);fill:#FFFFFF;" width="0.563" height="0.565"/>
	<rect x="37.074" y="19.771" style="clip-path:url(#SVGID_6_);fill:#FFFFFF;" width="0.563" height="0.565"/>
	<rect x="35.459" y="19.771" style="clip-path:url(#SVGID_6_);fill:#FFFFFF;" width="0.565" height="0.565"/>
</g>
</svg>
