<?xml version="1.0" encoding="iso-8859-1"?>
<!-- Generator: Adobe Illustrator 15.1.0, SVG Export Plug-In . SVG Version: 6.00 Build 0)  -->
<!DOCTYPE svg PUBLIC "-//W3C//DTD SVG 1.1//EN" "http://www.w3.org/Graphics/SVG/1.1/DTD/svg11.dtd">
<svg version="1.1" id="Layer_1" xmlns="http://www.w3.org/2000/svg" xmlns:xlink="http://www.w3.org/1999/xlink" x="0px" y="0px"
	 width="50px" height="50px" viewBox="0 0 50 50" style="enable-background:new 0 0 50 50;" xml:space="preserve">
<g>
	<defs>
		<rect id="SVGID_1_" width="50" height="50"/>
	</defs>
	<clipPath id="SVGID_2_">
		<use xlink:href="#SVGID_1_"  style="overflow:visible;"/>
	</clipPath>
	<path style="clip-path:url(#SVGID_2_);fill:#FFFFFF;" d="M27.355,25.475c-0.079-0.011-0.157-0.029-0.231-0.055v0.176h0.307
		C27.404,25.556,27.378,25.516,27.355,25.475"/>
	<path style="clip-path:url(#SVGID_2_);fill:#FFFFFF;" d="M35.535,22.758H35.52c-0.145-1.296-1.245-2.306-2.578-2.306
		c-0.903,0-1.723,0.458-2.194,1.213c-0.132-0.04-0.266-0.06-0.4-0.06c-0.096,0-0.188,0.01-0.279,0.028v0.596
		c0.088-0.031,0.181-0.047,0.279-0.047c0.133,0,0.266,0.033,0.396,0.1c0.068,0.037,0.149,0.042,0.222,0.019
		c0.073-0.024,0.135-0.076,0.169-0.147c0.344-0.693,1.036-1.125,1.809-1.125c1.112,0,2.017,0.906,2.017,2.01
		c0,0.007-0.001,0.027-0.001,0.033c0,0.086,0.038,0.166,0.104,0.221c0.064,0.055,0.149,0.078,0.233,0.064
		c0.088-0.015,0.166-0.023,0.241-0.023c0.795,0,1.443,0.649,1.443,1.443c0,0.793-0.648,1.442-1.443,1.442h-6.287
		c0.35,0.149,0.675,0.343,0.974,0.575h1.566h0.576h3.171c1.113,0,2.019-0.905,2.019-2.017
		C37.554,23.663,36.648,22.758,35.535,22.758"/>
	<rect x="35.247" y="23.911" style="clip-path:url(#SVGID_2_);fill:#FFFFFF;" width="0.577" height="0.578"/>
	<rect x="35.247" y="25.064" style="clip-path:url(#SVGID_2_);fill:#FFFFFF;" width="0.577" height="0.575"/>
	<rect x="34.093" y="25.064" style="clip-path:url(#SVGID_2_);fill:#FFFFFF;" width="0.577" height="0.575"/>
	<path style="clip-path:url(#SVGID_2_);fill:#FFFFFF;" d="M26.756,25.596h-7.097c-1.379,0-2.5-0.874-2.5-1.946v-1.561
		c0.568,0.632,1.473,1.048,2.5,1.048h7.784c0.331-0.237,0.736-0.379,1.173-0.379c0.1,0,0.198,0.009,0.296,0.024
		c0.006-0.004,0.013-0.009,0.02-0.011c0.111-0.573,0.563-1.026,1.136-1.138v-3.679c0-0.905-0.695-1.699-1.717-1.989
		c-0.25-1.855-2.168-3.275-4.483-3.275c-1.818,0-3.458,0.896-4.158,2.254c-0.016-0.001-0.034-0.001-0.05-0.001
		c-1.717,0-3.114,1.147-3.114,2.56v6.147c0,1.411,1.397,2.561,3.114,2.561h6.097c0.317-0.136,0.652-0.236,1-0.294V25.596z
		 M19.659,15.557c0.045,0,0.089,0.005,0.135,0.01l0.079,0.006c0.137,0.01,0.253-0.065,0.305-0.185
		c0.541-1.247,2.023-2.084,3.689-2.084c2.084,0,3.794,1.286,3.893,2.927c0.008,0.139,0.109,0.255,0.245,0.282
		c0.853,0.174,1.448,0.767,1.448,1.441c0,0.825-0.869,1.496-1.938,1.496h-7.856c-1.379,0-2.5-0.873-2.5-1.947
		C17.159,16.43,18.28,15.557,19.659,15.557 M17.159,19.016c0.568,0.632,1.473,1.049,2.5,1.049h7.856
		c0.779,0,1.469-0.297,1.938-0.753v1.715c0,0.825-0.869,1.496-1.938,1.496h-7.856c-1.379,0-2.5-0.873-2.5-1.946V19.016z"/>
	<path style="clip-path:url(#SVGID_2_);fill:#FFFFFF;" d="M29.481,23.047l0.009,0.078c0.006,0.059-0.009,0.116-0.037,0.166v0.81
		c0,0.629-0.508,1.167-1.223,1.387v0.429c0.13,0.021,0.258,0.051,0.386,0.084c0.856-0.341,1.451-1.063,1.451-1.9v-1.872
		C29.727,22.344,29.481,22.667,29.481,23.047"/>
	<path style="clip-path:url(#SVGID_2_);fill:#FFFFFF;" d="M27.432,25.596c0.066,0.097,0.146,0.184,0.233,0.261
		c0.066,0.003,0.13,0.008,0.196,0.013V25.57c-0.112,0.015-0.229,0.025-0.346,0.025H27.432z"/>
	<path style="clip-path:url(#SVGID_2_);fill:#FFFFFF;" d="M28.932,22.771c0.193-0.11,0.37-0.239,0.521-0.387v0.908
		c0.028-0.05,0.043-0.108,0.038-0.167l-0.01-0.078c0-0.38,0.246-0.703,0.587-0.818v-0.596
		C29.494,21.746,29.044,22.197,28.932,22.771"/>
	<path style="clip-path:url(#SVGID_2_);fill:#FFFFFF;" d="M28.913,22.781c-0.099-0.015-0.197-0.023-0.297-0.023
		c-0.438,0-0.843,0.141-1.174,0.378h0.073C28.033,23.136,28.512,23.004,28.913,22.781"/>
	<path style="clip-path:url(#SVGID_2_);fill:#FFFFFF;" d="M27.432,25.596h-0.308v0.273c0.122-0.01,0.245-0.016,0.369-0.016
		c0.057,0,0.114,0,0.172,0.003C27.577,25.779,27.498,25.692,27.432,25.596"/>
	<path style="clip-path:url(#SVGID_2_);fill:#FFFFFF;" d="M18.696,21.601c0.17,0,0.307-0.138,0.307-0.308v-0.614
		c0-0.171-0.137-0.307-0.307-0.307s-0.307,0.136-0.307,0.307v0.614C18.389,21.462,18.526,21.601,18.696,21.601"/>
	<path style="clip-path:url(#SVGID_2_);fill:#FFFFFF;" d="M19.925,21.908c0.17,0,0.308-0.138,0.308-0.308v-0.615
		c0-0.169-0.138-0.306-0.308-0.306s-0.307,0.137-0.307,0.306V21.6C19.618,21.77,19.755,21.908,19.925,21.908"/>
	<path style="clip-path:url(#SVGID_2_);fill:#FFFFFF;" d="M21.155,21.908c0.169,0,0.306-0.138,0.306-0.308v-0.615
		c0-0.169-0.137-0.306-0.306-0.306c-0.17,0-0.308,0.137-0.308,0.306V21.6C20.847,21.77,20.985,21.908,21.155,21.908"/>
	<path style="clip-path:url(#SVGID_2_);fill:#FFFFFF;" d="M27.609,21.908c0.338,0,0.614-0.275,0.614-0.615
		c0-0.339-0.276-0.614-0.614-0.614c-0.34,0-0.615,0.275-0.615,0.614C26.994,21.633,27.27,21.908,27.609,21.908"/>
	<path style="clip-path:url(#SVGID_2_);fill:#FFFFFF;" d="M25.765,21.908c0.339,0,0.614-0.275,0.614-0.615
		c0-0.339-0.275-0.614-0.614-0.614c-0.34,0-0.614,0.275-0.614,0.614C25.15,21.633,25.425,21.908,25.765,21.908"/>
	<path style="clip-path:url(#SVGID_2_);fill:#FFFFFF;" d="M18.696,23.444c-0.17,0-0.307,0.138-0.307,0.308v0.614
		c0,0.17,0.137,0.307,0.307,0.307s0.307-0.137,0.307-0.307v-0.614C19.003,23.583,18.866,23.444,18.696,23.444"/>
	<path style="clip-path:url(#SVGID_2_);fill:#FFFFFF;" d="M19.925,23.752c-0.17,0-0.307,0.137-0.307,0.308v0.613
		c0,0.17,0.137,0.308,0.307,0.308s0.308-0.138,0.308-0.308V24.06C20.233,23.889,20.095,23.752,19.925,23.752"/>
	<path style="clip-path:url(#SVGID_2_);fill:#FFFFFF;" d="M21.155,23.752c-0.17,0-0.308,0.137-0.308,0.308v0.613
		c0,0.17,0.138,0.308,0.308,0.308c0.169,0,0.306-0.138,0.306-0.308V24.06C21.461,23.889,21.324,23.752,21.155,23.752"/>
	<path style="clip-path:url(#SVGID_2_);fill:#FFFFFF;" d="M27.05,24.776c0,0.008,0.001,0.017,0.001,0.025
		c0.111,0.111,0.265,0.179,0.433,0.179c0.341,0,0.615-0.275,0.615-0.614c0-0.339-0.274-0.614-0.615-0.614h-0.005
		C27.214,24.013,27.05,24.376,27.05,24.776"/>
	<path style="clip-path:url(#SVGID_2_);fill:#FFFFFF;" d="M26.87,24.366c0,0.17,0.069,0.324,0.181,0.436
		c0-0.009-0.001-0.018-0.001-0.026c0-0.4,0.164-0.763,0.429-1.024C27.143,23.756,26.87,24.029,26.87,24.366"/>
	<path style="clip-path:url(#SVGID_2_);fill:#FFFFFF;" d="M25.765,23.752c-0.34,0-0.614,0.275-0.614,0.614
		c0,0.339,0.274,0.615,0.614,0.615c0.339,0,0.614-0.276,0.614-0.615C26.379,24.027,26.104,23.752,25.765,23.752"/>
	<path style="clip-path:url(#SVGID_2_);fill:#FFFFFF;" d="M27.309,27.325v2.236c-0.316,0.082-0.552,0.368-0.552,0.711
		c0,0.057,0.007,0.111,0.02,0.165l-1.766,0.962l0.176,0.323l1.761-0.961c0.135,0.15,0.329,0.246,0.546,0.246
		c0.406,0,0.736-0.33,0.736-0.735c0-0.343-0.235-0.629-0.553-0.711v-2.236H27.309z M27.86,30.272c0,0.203-0.165,0.367-0.367,0.367
		c-0.203,0-0.369-0.164-0.369-0.367s0.166-0.369,0.369-0.369C27.695,29.903,27.86,30.069,27.86,30.272"/>
	<path style="clip-path:url(#SVGID_2_);fill:#FFFFFF;" d="M27.757,26.599c-0.087-0.006-0.175-0.01-0.264-0.01
		c-2.031,0-3.684,1.652-3.684,3.684c0,2.03,1.652,3.683,3.684,3.683c1.07,0,2.067-0.461,2.763-1.252V34.4l1.289-1.289l1.473,1.473
		l1.366-1.365l-1.474-1.474l1.289-1.288h-3.028c0.003-0.063,0.005-0.125,0.005-0.185c0-1.606-1.035-2.977-2.473-3.479h-0.087
		C28.309,26.794,28.018,26.724,27.757,26.599 M33.31,30.824l-0.92,0.921l1.473,1.474l-0.845,0.844l-1.473-1.473l-0.921,0.92v-2.686
		H33.31z M30.809,30.272c0,0.059-0.007,0.123-0.011,0.185h-0.542v1.641c-0.618,0.934-1.646,1.488-2.763,1.488
		c-1.828,0-3.314-1.486-3.314-3.313c0-1.828,1.486-3.315,3.314-3.315C29.32,26.957,30.809,28.444,30.809,30.272"/>
	<path style="clip-path:url(#SVGID_2_);fill:#FFFFFF;" d="M28.616,26.794h0.087c-0.3-0.104-0.618-0.171-0.947-0.195
		C28.018,26.724,28.309,26.794,28.616,26.794"/>
	<rect x="31.36" y="28.983" style="clip-path:url(#SVGID_2_);fill:#FFFFFF;" width="0.368" height="0.735"/>
	
		<rect x="29.484" y="29.868" transform="matrix(0.7071 0.7071 -0.7071 0.7071 29.9941 -12.3067)" style="clip-path:url(#SVGID_2_);fill:#FFFFFF;" width="0.737" height="0.369"/>
	<rect x="28.783" y="31.561" style="clip-path:url(#SVGID_2_);fill:#FFFFFF;" width="0.735" height="0.369"/>
	
		<rect x="29.666" y="33.069" transform="matrix(-0.7084 -0.7058 0.7058 -0.7084 27.3991 78.1931)" style="clip-path:url(#SVGID_2_);fill:#FFFFFF;" width="0.369" height="0.737"/>
	<rect x="31.36" y="33.771" style="clip-path:url(#SVGID_2_);fill:#FFFFFF;" width="0.368" height="0.736"/>
	<rect x="33.571" y="31.561" style="clip-path:url(#SVGID_2_);fill:#FFFFFF;" width="0.735" height="0.369"/>
	
		<rect x="32.868" y="29.869" transform="matrix(-0.7064 0.7078 -0.7078 -0.7064 77.9875 27.7601)" style="clip-path:url(#SVGID_2_);fill:#FFFFFF;" width="0.737" height="0.369"/>
	<path style="clip-path:url(#SVGID_2_);fill:#FFFFFF;" d="M26.756,25.596h0.018c-0.005-0.012-0.013-0.023-0.018-0.035V25.596z"/>
	<path style="clip-path:url(#SVGID_2_);fill:#FFFFFF;" d="M31.223,28.688l0.339-0.145c-0.3-0.703-0.766-1.298-1.34-1.749H29.57
		C30.291,27.226,30.878,27.878,31.223,28.688"/>
	<path style="clip-path:url(#SVGID_2_);fill:#FFFFFF;" d="M25.756,26.21c-1.575,0.676-2.684,2.242-2.684,4.063
		c0,2.437,1.983,4.419,4.421,4.419c0.672,0,1.319-0.148,1.922-0.44l-0.161-0.332c-0.553,0.27-1.145,0.404-1.761,0.404
		c-2.235,0-4.052-1.817-4.052-4.051c0-2.143,1.672-3.901,3.779-4.041c-0.007-0.007-0.017-0.014-0.023-0.021H25.756z"/>
	<path style="clip-path:url(#SVGID_2_);fill:#FFFFFF;" d="M28.598,24.38c0-0.396-0.209-0.743-0.524-0.938
		c-0.139,0.056-0.268,0.134-0.381,0.23c0.31,0.087,0.537,0.37,0.537,0.708c0,0.405-0.33,0.735-0.735,0.735
		c-0.104,0-0.202-0.021-0.292-0.06c0.029,0.149,0.082,0.29,0.152,0.419c0.046,0.006,0.092,0.01,0.14,0.01
		c0.128,0,0.252-0.023,0.366-0.064v0.15c0.128-0.018,0.252-0.046,0.369-0.082V25.2C28.455,24.998,28.598,24.705,28.598,24.38"/>
	<path style="clip-path:url(#SVGID_2_);fill:#FFFFFF;" d="M26.389,24.38c0,0.252,0.086,0.484,0.23,0.671
		c-0.012-0.09-0.021-0.182-0.021-0.275c0-0.58,0.247-1.102,0.642-1.471C26.752,23.42,26.389,23.858,26.389,24.38"/>
	<path style="clip-path:url(#SVGID_2_);fill:#FFFFFF;" d="M28.153,26.141c0.146,0.05,0.302,0.078,0.463,0.078h0.633
		c-0.204-0.089-0.416-0.161-0.633-0.218C28.469,26.06,28.314,26.106,28.153,26.141"/>
	<path style="clip-path:url(#SVGID_2_);fill:#FFFFFF;" d="M28.616,26.219c-0.162,0-0.317-0.028-0.462-0.078
		c-0.205,0.044-0.418,0.069-0.639,0.069h-0.317c0.006,0.008,0.016,0.015,0.021,0.021c0.091-0.006,0.183-0.011,0.273-0.011
		c0.748,0,1.461,0.206,2.077,0.573h0.651c-0.299-0.232-0.625-0.426-0.974-0.575H28.616z"/>
	<path style="clip-path:url(#SVGID_2_);fill:#FFFFFF;" d="M27.124,25.42c0.074,0.025,0.152,0.044,0.231,0.055
		c-0.071-0.129-0.124-0.27-0.153-0.419c-0.262-0.114-0.446-0.373-0.446-0.676c0-0.406,0.33-0.737,0.737-0.737
		c0.07,0,0.136,0.01,0.199,0.029c0.113-0.096,0.242-0.174,0.382-0.231c-0.169-0.105-0.368-0.167-0.581-0.167
		c-0.088,0-0.172,0.012-0.254,0.031c-0.395,0.369-0.642,0.891-0.642,1.471c0,0.093,0.01,0.185,0.021,0.275
		c0.042,0.054,0.087,0.104,0.137,0.149v0.36c0.005,0.012,0.012,0.023,0.018,0.035h0.351V25.42z"/>
	<path style="clip-path:url(#SVGID_2_);fill:#FFFFFF;" d="M28.229,25.917v-0.429c-0.117,0.036-0.241,0.064-0.369,0.082v0.299
		c-0.064-0.005-0.13-0.01-0.195-0.013c0.142,0.125,0.307,0.223,0.488,0.284c0.161-0.034,0.315-0.081,0.462-0.14
		C28.488,25.968,28.36,25.938,28.229,25.917"/>
	<path style="clip-path:url(#SVGID_2_);fill:#FFFFFF;" d="M26.773,25.596h-0.017v0.32c-0.349,0.058-0.684,0.158-1,0.294h1.44
		C27.021,26.035,26.876,25.826,26.773,25.596"/>
	<path style="clip-path:url(#SVGID_2_);fill:#FFFFFF;" d="M27.493,25.854c-0.124,0-0.247,0.006-0.369,0.016v-0.273h-0.351
		c0.103,0.23,0.247,0.439,0.425,0.614h0.317c0.221,0,0.435-0.025,0.639-0.069c-0.182-0.062-0.348-0.159-0.489-0.284
		C27.607,25.854,27.55,25.854,27.493,25.854"/>
	<path style="clip-path:url(#SVGID_2_);fill:#FFFFFF;" d="M24.542,46.993l-0.311-0.007l0.012-0.623l0.312,0.006l0.31,0.006
		l-0.012,0.624L24.542,46.993z M25.717,46.363l0.622-0.031l0.029,0.623l-0.623,0.029L25.717,46.363z M23.027,46.91l-0.309-0.027
		l0.056-0.62l0.621,0.056l-0.057,0.619L23.027,46.91z M27.187,46.261l0.308-0.036l0.31-0.035l0.073,0.617l-0.618,0.073
		L27.187,46.261z M21.524,46.724l-0.307-0.051l0.098-0.612l0.615,0.097l-0.098,0.614L21.524,46.724z M28.645,46.061l0.613-0.115
		l0.114,0.612l-0.611,0.115L28.645,46.061z M20.037,46.432l-0.304-0.07l0.141-0.606l0.606,0.141l-0.14,0.605L20.037,46.432z
		 M18.57,46.039l-0.296-0.091l0.181-0.597l0.596,0.183L18.87,46.13L18.57,46.039z M31.505,45.362l0.591-0.196l0.197,0.591
		l-0.591,0.196L31.505,45.362z M17.137,45.545l-0.291-0.113l0.222-0.58l0.583,0.223l-0.224,0.582L17.137,45.545z M32.893,44.868
		l0.575-0.238l0.237,0.575l-0.574,0.238L32.893,44.868z M15.741,44.953l-0.283-0.133l0.263-0.563l0.564,0.262l-0.263,0.564
		L15.741,44.953z M34.24,44.278L34.8,44l0.276,0.559l-0.279,0.139l-0.278,0.14L34.24,44.278z M14.389,44.267l-0.272-0.151l0.3-0.546
		l0.546,0.302l-0.3,0.546L14.389,44.267z M35.545,43.597l0.537-0.314l0.315,0.536l-0.537,0.315L35.545,43.597z M13.088,43.488
		L13.088,43.488l-0.261-0.168l0.337-0.523l0.524,0.337l-0.339,0.522L13.088,43.488z M36.799,42.828l0.514-0.352l0.353,0.514
		l-0.514,0.353L36.799,42.828z M37.997,41.973l0.244-0.192l0.245-0.192l0.386,0.487l-0.487,0.387L37.997,41.973z M39.134,41.036
		l0.461-0.418l0.418,0.461l-0.46,0.418L39.134,41.036z M40.204,40.026l0.431-0.451l0.449,0.431l-0.216,0.226V40.23l-0.215,0.226
		L40.204,40.026z M41.201,38.942l0.399-0.478l0.478,0.398l-0.398,0.478L41.201,38.942z M42.121,37.793l0.185-0.252l0.183-0.252
		l0.504,0.364l-0.366,0.505L42.121,37.793z M6.659,37.15l-0.172-0.259l0.52-0.345l0.172,0.259l0.172,0.259L6.833,37.41L6.659,37.15z
		 M42.964,36.584l0.328-0.528l0.528,0.331l-0.329,0.527L42.964,36.584z M5.868,35.86l-0.155-0.271l0.542-0.309l0.307,0.543
		L6.021,36.13L5.868,35.86z M43.719,35.318l0.294-0.549l0.549,0.292l-0.146,0.275l-0.146,0.275L43.719,35.318z M5.166,34.519
		l-0.134-0.28l0.561-0.27l0.269,0.562l-0.562,0.269L5.166,34.519z M44.387,34.006l0.256-0.568l0.566,0.255l-0.254,0.568
		L44.387,34.006z M4.559,33.132L4.559,33.132l-0.115-0.291l0.579-0.229l0.23,0.579l-0.58,0.229L4.559,33.132z M44.964,32.651
		l0.214-0.587l0.584,0.216l-0.107,0.293l-0.106,0.291L44.964,32.651z M4.048,31.703L4.048,31.703l-0.094-0.299l0.593-0.188
		l0.189,0.594l-0.594,0.188L4.048,31.703z M45.444,31.257l0.173-0.6l0.599,0.175l-0.088,0.299l-0.086,0.299L45.444,31.257z
		 M3.638,30.245L3.638,30.245l-0.073-0.303l0.605-0.148L4.317,30.4l-0.605,0.146L3.638,30.245z M45.826,29.834l0.132-0.609
		l0.609,0.133l-0.132,0.608L45.826,29.834z M3.335,28.796H3.333l-0.057-0.341l0.001-0.001l-0.043-0.272l0.614-0.101l0.095,0.575
		v-0.001l0.052,0.307l-0.612,0.105L3.335,28.796z M46.11,28.388l0.089-0.616l0.617,0.09l-0.089,0.616L46.11,28.388z M3.093,26.984
		l-0.028-0.312l0.62-0.056l0.058,0.621l-0.621,0.056L3.093,26.984z M46.293,26.927l0.047-0.622l0.62,0.046l-0.046,0.621
		L46.293,26.927z M3.007,25.472L3,25.16l0.623-0.016l0.014,0.623l-0.623,0.015L3.007,25.472z M46.373,25.456l0.004-0.622L47,24.836
		l-0.004,0.624L46.373,25.456z M3.01,24.267l0.029-0.622l0.623,0.029l-0.016,0.311l-0.013,0.312L3.01,24.267z M46.332,23.673
		l-0.02-0.311l0.621-0.04l0.02,0.312l0.021,0.309l-0.621,0.041L46.332,23.673z M3.112,22.754l0.071-0.617l0.619,0.07L3.73,22.826
		L3.112,22.754z M46.189,22.206l-0.041-0.308l0.617-0.081l0.082,0.616l-0.617,0.082L46.189,22.206z M3.318,21.251l0.114-0.612
		l0.613,0.115l-0.116,0.612L3.318,21.251z M45.945,20.754l-0.061-0.305l0.61-0.124l0.062,0.305l0.062,0.307l-0.609,0.121
		L45.945,20.754z M3.628,19.767l0.079-0.302l0.078-0.301l0.602,0.156l-0.079,0.302l-0.077,0.302L3.628,19.767z M4.041,18.306
		l0.098-0.295l0.1-0.294l0.59,0.197L4.63,18.505L4.041,18.306z M4.552,16.879l0.238-0.575l0.575,0.239l-0.237,0.575L4.552,16.879z
		 M44.634,16.543L44.634,16.543l-0.122-0.287l0.57-0.245l0.124,0.287l0.121,0.285l-0.57,0.247L44.634,16.543z M5.162,15.491
		l0.278-0.556l0.557,0.277L5.719,15.77L5.162,15.491z M44.006,15.212L44.006,15.212l-0.143-0.277l0.553-0.284l0.285,0.552
		l-0.553,0.286L44.006,15.212z M5.864,14.149l0.158-0.269v-0.001l0.157-0.268l0.537,0.315l-0.315,0.537L5.864,14.149z
		 M43.287,13.927v0.002l-0.161-0.267l0.533-0.323l0.16,0.266l0.162,0.266l-0.533,0.322L43.287,13.927z M6.657,12.857L6.833,12.6
		l0.175-0.258l0.515,0.351l-0.352,0.515L6.657,12.857z M42.481,12.697l-0.179-0.254l0.509-0.36l0.358,0.51l-0.509,0.358
		L42.481,12.697z M7.539,11.623l0.385-0.489l0.489,0.386l-0.386,0.488L7.539,11.623z M41.593,11.525l-0.196-0.242l0.483-0.393
		l0.394,0.482l-0.484,0.394L41.593,11.525z M8.5,10.452l0.209-0.231l0.21-0.231l0.46,0.418L8.961,10.87L8.5,10.452z M40.625,10.415
		L40.625,10.415l-0.212-0.227l0.454-0.425l0.213,0.226l0.212,0.228l-0.453,0.425L40.625,10.415z M9.541,9.351l0.448-0.432
		l0.433,0.447l-0.45,0.433L9.541,9.351z M39.583,9.375V9.373l-0.228-0.21l0.424-0.456l0.457,0.425l-0.425,0.455L39.583,9.375z
		 M10.653,8.321l0.238-0.199V8.121l0.239-0.199l0.4,0.477l-0.478,0.4L10.653,8.321z M38.473,8.409l-0.241-0.196l0.392-0.483
		l0.483,0.391l-0.392,0.484L38.473,8.409z M37.299,7.52l-0.257-0.178l0.359-0.51l0.509,0.359l-0.358,0.507L37.299,7.52z
		 M36.065,6.714l-0.267-0.16l0.321-0.533l0.533,0.323l-0.322,0.532L36.065,6.714z M14.377,5.732l0.549-0.293l0.293,0.549
		L14.671,6.28L14.377,5.732z M34.779,5.995L34.779,5.995l-0.277-0.143l0.286-0.553l0.276,0.143l0.276,0.142l-0.285,0.554
		L34.779,5.995z M15.729,5.046l0.569-0.254l0.252,0.567l-0.283,0.128V5.486l-0.284,0.128L15.729,5.046z M33.447,5.364l-0.286-0.123
		l0.247-0.571l0.571,0.247l-0.246,0.57L33.447,5.364z M17.125,4.456l0.584-0.215l0.214,0.586l-0.584,0.214L17.125,4.456z
		 M32.074,4.829L31.78,4.725l0.208-0.586l0.587,0.205l-0.207,0.588L32.074,4.829z M18.56,3.964l0.598-0.174l0.173,0.601
		l-0.598,0.172L18.56,3.964z M30.669,4.389l-0.301-0.084l0.166-0.601l0.601,0.166l-0.166,0.601L30.669,4.389z M20.022,3.573
		l0.609-0.132l0.131,0.609l-0.608,0.131L20.022,3.573z M29.234,4.047L28.93,3.984l0.125-0.611l0.608,0.124L29.54,4.108L29.234,4.047
		z M21.509,3.281l0.309-0.045l0.308-0.044l0.09,0.616l-0.615,0.09L21.509,3.281z M27.781,3.805l-0.309-0.041l0.081-0.617l0.308,0.04
		l0.311,0.04L28.09,3.844L27.781,3.805z M23.013,3.091l0.312-0.024v0.001l0.309-0.025l0.047,0.622l-0.619,0.048L23.013,3.091z
		 M26.315,3.663h0.002l-0.312-0.018l0.037-0.62l0.621,0.035l-0.038,0.622L26.315,3.663z M24.526,3.005l0.623-0.004l0.006,0.621
		l-0.623,0.006L24.526,3.005z"/>
	<path style="clip-path:url(#SVGID_2_);fill:#FFFFFF;" d="M17.492,39.773c-0.416-0.171-0.594-0.397-0.577-0.734
		c0.018-0.395-0.206-0.683-0.312-0.797c0.064-0.245,0.252-1.093,0-1.829c-0.27-0.789-1.096-1.991-1.946-3.174
		c-0.349-0.487-0.365-1.016-0.385-1.628c-0.018-0.583-0.038-1.243-0.363-1.979c-0.355-0.801-1.065-1.26-1.948-1.26
		c-0.526,0-1.066,0.165-1.481,0.451c-0.851,0.586-0.739,1.866-0.664,2.713c0.01,0.116,0.02,0.226,0.025,0.319
		c0.05,0.83,0.005,1.267-0.054,1.399c-0.038,0.087-0.226,0.334-0.424,0.596c-0.206,0.271-0.439,0.578-0.63,0.863
		c-0.227,0.343-0.412,0.869-0.589,1.378c-0.131,0.371-0.253,0.724-0.373,0.934C7.543,37.43,7.6,37.806,7.646,37.98
		c-0.085,0.06-0.209,0.177-0.314,0.398c-0.126,0.271-0.383,0.415-0.917,0.519C6.17,38.947,6,39.05,5.913,39.203
		c-0.129,0.223-0.059,0.503,0.005,0.694c0.095,0.281,0.036,0.461-0.071,0.784c-0.025,0.074-0.054,0.159-0.081,0.252
		c-0.045,0.147-0.029,0.281,0.047,0.398c0.202,0.308,0.791,0.416,1.396,0.487c0.362,0.044,0.758,0.188,1.141,0.328
		c0.374,0.137,0.762,0.278,1.115,0.321c0.054,0.007,0.107,0.011,0.158,0.011c0.532,0,0.773-0.354,0.849-0.499
		c0.191-0.039,0.851-0.162,1.53-0.18c0.679-0.02,1.335,0.114,1.522,0.155c0.058,0.111,0.213,0.368,0.458,0.499
		c0.135,0.075,0.322,0.117,0.516,0.117c0.206,0,0.596-0.049,0.906-0.375c0.309-0.327,1.08-0.744,1.643-1.049
		c0.126-0.068,0.244-0.133,0.348-0.189c0.315-0.176,0.488-0.427,0.473-0.688C17.854,40.054,17.71,39.863,17.492,39.773
		 M10.486,39.71c-0.039-0.277-0.397-0.552-0.811-0.87c-0.337-0.262-0.72-0.557-0.826-0.807c-0.218-0.516-0.046-1.422,0.254-1.891
		c0.148-0.233,0.269-0.589,0.386-0.932c0.127-0.37,0.257-0.752,0.403-0.92c0.232-0.261,0.446-0.771,0.483-1.172
		c0.217,0.206,0.554,0.469,0.864,0.469c0.048,0,0.094-0.006,0.139-0.02c0.212-0.061,0.525-0.242,0.827-0.415
		c0.261-0.15,0.582-0.337,0.703-0.354c0.207,0.298,1.411,2.963,1.535,3.819c0.098,0.678-0.006,1.237-0.057,1.456
		c-0.041-0.005-0.092-0.01-0.143-0.01c-0.337,0-0.425,0.183-0.448,0.292c-0.059,0.284-0.066,1.192-0.066,1.396
		c-0.122,0.154-0.736,0.881-1.617,1.012c-0.358,0.052-0.693,0.077-0.995,0.077c-0.258,0-0.424-0.02-0.492-0.029l-0.443-0.508
		C10.357,40.22,10.532,40.038,10.486,39.71 M11.047,31.359c-0.014,0.006-0.027,0.013-0.041,0.02c0-0.03-0.004-0.061-0.009-0.092
		c-0.049-0.278-0.233-0.479-0.438-0.479c-0.015,0-0.03,0.001-0.047,0.004c-0.122,0.02-0.219,0.111-0.272,0.242
		c0.047-0.286,0.209-0.497,0.401-0.497c0.226,0,0.417,0.304,0.417,0.664C11.059,31.266,11.055,31.311,11.047,31.359 M12.801,31.574
		c0.022-0.066,0.032-0.138,0.032-0.211c0-0.327-0.206-0.583-0.47-0.583c-0.26,0-0.469,0.261-0.469,0.583
		c0,0.021,0.001,0.043,0.002,0.065c-0.013-0.005-0.026-0.011-0.04-0.016c-0.029-0.09-0.044-0.184-0.044-0.279
		c0-0.392,0.249-0.708,0.556-0.708c0.307,0,0.557,0.316,0.557,0.708C12.925,31.296,12.879,31.45,12.801,31.574 M12.577,32.334
		c-0.004,0.02-0.014,0.029-0.118,0.082c-0.052,0.028-0.118,0.063-0.199,0.112l-0.055,0.033c-0.221,0.133-0.735,0.444-0.874,0.463
		c-0.095,0.013-0.153-0.023-0.285-0.114c-0.03-0.02-0.062-0.041-0.096-0.063c-0.238-0.155-0.39-0.327-0.408-0.395
		c0.078-0.06,0.27-0.21,0.368-0.299c0.2-0.186,0.401-0.311,0.501-0.311c0.005,0,0.009,0,0.015,0.002
		c0.116,0.021,0.404,0.136,0.616,0.219c0.096,0.039,0.18,0.072,0.239,0.094C12.467,32.222,12.564,32.304,12.577,32.334
		 M14.25,41.011c0.105-0.475,0.226-1.12,0.207-1.5c-0.004-0.086-0.012-0.181-0.02-0.271c-0.014-0.169-0.034-0.422-0.013-0.497
		c0.004-0.002,0.009-0.003,0.014-0.003c0,0.216,0.049,0.648,0.395,0.8c0.104,0.046,0.222,0.068,0.351,0.068
		c0.347,0,0.733-0.171,0.89-0.329c0.093-0.092,0.171-0.206,0.227-0.295c0.011,0.034,0.018,0.08,0.014,0.14
		c-0.02,0.319,0.136,0.744,0.432,0.901l0.044,0.023c0.106,0.055,0.385,0.203,0.39,0.272c0,0-0.002,0.008-0.018,0.022
		c-0.07,0.064-0.317,0.19-0.556,0.313c-0.424,0.217-0.905,0.463-1.121,0.689c-0.304,0.32-0.648,0.534-0.856,0.534
		c-0.025,0-0.048-0.003-0.068-0.009C14.335,41.8,14.149,41.475,14.25,41.011 M6.563,39.801c-0.023-0.107-0.041-0.193-0.021-0.275
		c0.014-0.061,0.315-0.126,0.444-0.154c0.181-0.039,0.368-0.079,0.489-0.153c0.166-0.1,0.255-0.284,0.334-0.447
		c0.058-0.118,0.117-0.24,0.187-0.279c0.004-0.002,0.01-0.006,0.021-0.006c0.132,0,0.408,0.276,0.567,0.524
		c0.04,0.063,0.115,0.188,0.202,0.331c0.258,0.434,0.613,1.027,0.798,1.226c0.166,0.179,0.436,0.522,0.37,0.816
		c-0.048,0.23-0.308,0.415-0.369,0.457c-0.022,0.004-0.049,0.007-0.081,0.007c-0.354,0-1.056-0.295-1.432-0.453L8.017,41.37
		c-0.211-0.088-0.554-0.144-0.886-0.197c-0.264-0.043-0.627-0.101-0.686-0.154c-0.049-0.055,0.007-0.231,0.057-0.389
		c0.036-0.112,0.073-0.228,0.093-0.35C6.624,40.086,6.589,39.928,6.563,39.801"/>
	<path style="clip-path:url(#SVGID_2_);fill:#FFFFFF;" d="M46.569,18.657v-0.419c-0.431-0.03-0.775-0.376-0.807-0.805h-0.419
		c-0.03,0.429-0.376,0.775-0.805,0.805v0.419c0.429,0.03,0.774,0.376,0.805,0.807h0.419C45.794,19.033,46.139,18.687,46.569,18.657
		 M45.869,18.497c-0.102,0.076-0.19,0.165-0.266,0.266l-0.05,0.067l-0.05-0.067c-0.074-0.101-0.164-0.19-0.266-0.266l-0.066-0.05
		l0.066-0.05c0.102-0.075,0.19-0.165,0.266-0.264l0.05-0.069l0.05,0.069c0.075,0.1,0.164,0.189,0.266,0.264l0.066,0.05
		L45.869,18.497z"/>
	<path style="clip-path:url(#SVGID_2_);fill:#FFFFFF;" d="M14.186,7.378v-0.56c-0.628-0.058-1.13-0.56-1.189-1.19h-0.561
		c-0.059,0.63-0.56,1.132-1.189,1.19v0.56c0.629,0.059,1.13,0.561,1.189,1.19h0.561C13.056,7.939,13.558,7.437,14.186,7.378
		 M13.202,7.199c-0.146,0.108-0.276,0.237-0.386,0.385l-0.099,0.135l-0.099-0.135c-0.111-0.148-0.241-0.277-0.387-0.385
		l-0.134-0.101l0.134-0.099c0.147-0.109,0.277-0.238,0.387-0.386l0.099-0.134l0.099,0.134c0.11,0.148,0.24,0.277,0.386,0.386
		l0.135,0.099L13.202,7.199z"/>
	<path style="clip-path:url(#SVGID_2_);fill:#FFFFFF;" d="M31.343,46.007V45.62c-0.403-0.03-0.728-0.354-0.758-0.758h-0.387
		c-0.031,0.403-0.354,0.728-0.758,0.758v0.387c0.404,0.03,0.727,0.354,0.758,0.758h0.387C30.615,46.36,30.939,46.037,31.343,46.007
		 M30.69,45.863c-0.095,0.069-0.178,0.154-0.249,0.249l-0.05,0.066l-0.05-0.066c-0.07-0.095-0.154-0.179-0.249-0.249l-0.066-0.05
		l0.066-0.05c0.095-0.07,0.179-0.154,0.249-0.249l0.05-0.066l0.05,0.066c0.071,0.095,0.154,0.18,0.249,0.248l0.067,0.051
		L30.69,45.863z"/>
</g>
</svg>
