<?xml version="1.0" encoding="iso-8859-1"?>
<!-- Generator: Adobe Illustrator 15.1.0, SVG Export Plug-In . SVG Version: 6.00 Build 0)  -->
<!DOCTYPE svg PUBLIC "-//W3C//DTD SVG 1.1//EN" "http://www.w3.org/Graphics/SVG/1.1/DTD/svg11.dtd">
<svg version="1.1" id="Layer_1" xmlns="http://www.w3.org/2000/svg" xmlns:xlink="http://www.w3.org/1999/xlink" x="0px" y="0px"
	 width="50px" height="50px" viewBox="0 0 50 50" style="enable-background:new 0 0 50 50;" xml:space="preserve">
<path style="fill:#FFFFFF;" d="M23.895,46.045l-0.3-0.006l0.012-0.599l0.599,0.012l-0.013,0.6L23.895,46.045z M25.023,45.44
	l0.602-0.03l0.029,0.598l-0.6,0.029L25.023,45.44z M22.436,45.967l-0.299-0.028l0.053-0.598l0.3,0.028h-0.002l0.301,0.026
	l-0.055,0.597L22.436,45.967z M20.986,45.785L20.986,45.785l-0.295-0.047l0.095-0.593l0.591,0.095l-0.094,0.593L20.986,45.785z
	 M19.551,45.506l-0.291-0.068l0.135-0.584l0.586,0.135l-0.136,0.585L19.551,45.506z M29.237,44.857l0.29-0.075l0.29-0.074
	l0.151,0.581l-0.582,0.149L29.237,44.857z M18.141,45.126L18.141,45.126l-0.286-0.088l0.174-0.574l0.576,0.177l-0.177,0.574
	L18.141,45.126z M30.603,44.476l0.284-0.096l0.285-0.097l0.191,0.57l-0.57,0.19L30.603,44.476z M16.758,44.65l-0.279-0.108
	l0.215-0.561l0.562,0.215l-0.216,0.561L16.758,44.65z M31.939,43.998l0.555-0.229l0.229,0.554l-0.554,0.229L31.939,43.998z
	 M15.416,44.08L15.416,44.08l-0.272-0.128l0.253-0.543l0.543,0.253l-0.252,0.544L15.416,44.08z M33.238,43.429l0.27-0.133
	l0.27-0.133l0.266,0.536l-0.27,0.135l-0.268,0.134L33.238,43.429z M14.111,43.417v0.002l-0.259-0.146l0.288-0.525l0.526,0.29
	l-0.291,0.524L14.111,43.417z M34.496,42.774l0.259-0.152h-0.001l0.26-0.151l0.305,0.518l-0.518,0.303L34.496,42.774z M12.858,42.67
	l-0.252-0.163l0.327-0.504l0.503,0.325l-0.325,0.504L12.858,42.67z M11.659,41.837l-0.241-0.181l0.359-0.479l0.243,0.18l0.238,0.179
	l-0.358,0.48L11.659,41.837z M10.52,40.924L10.52,40.924l-0.227-0.195l0.391-0.455l0.455,0.392l-0.393,0.455L10.52,40.924z
	 M9.445,39.936L9.445,39.936l-0.213-0.21l0.42-0.429l0.215,0.21H9.865l0.215,0.212l-0.42,0.428L9.445,39.936z M8.441,38.876
	L8.441,38.876l-0.198-0.225l0.448-0.398l0.398,0.45l-0.448,0.397L8.441,38.876z M7.514,37.749l-0.182-0.238l0.475-0.364l0.365,0.475
	l-0.477,0.366L7.514,37.749z M6.664,36.562L6.5,36.313l0.498-0.333l0.334,0.501l-0.501,0.331L6.664,36.562z M5.9,35.318L5.9,35.318
	l-0.148-0.261l0.523-0.295l0.295,0.521L6.049,35.58L5.9,35.318z M5.225,34.026l-0.129-0.271l0.541-0.261l0.13,0.273l0.13,0.269
	l-0.541,0.259L5.225,34.026z M4.639,32.688L4.528,32.41l0.56-0.223l0.109,0.279l0.112,0.279L4.75,32.967L4.639,32.688z
	 M43.569,32.226l0.104-0.281l0.104-0.282l0.561,0.208l-0.102,0.28l-0.104,0.282L43.569,32.226z M4.149,31.313l-0.091-0.286
	l0.571-0.182l0.182,0.572L4.24,31.601L4.149,31.313z M44.031,30.884l0.168-0.576l0.577,0.169l-0.169,0.574L44.031,30.884z
	 M3.754,29.908L3.754,29.908l-0.072-0.291l0.582-0.144l0.142,0.583L3.826,30.2L3.754,29.908z M44.399,29.513l0.13-0.586l0.588,0.127
	l-0.129,0.586L44.399,29.513z M3.462,28.513H3.46l-0.056-0.328h0.002L3.365,27.92l0.592-0.096l0.141,0.849l-0.591,0.103
	L3.462,28.513z M44.676,28.118l0.086-0.593l0.593,0.085l-0.085,0.595L44.676,28.118z M3.229,26.769L3.201,26.47l0.598-0.056
	l0.056,0.597l-0.598,0.055L3.229,26.769z M44.852,26.711l0.021-0.299l0.023-0.299l0.598,0.044l-0.046,0.599L44.852,26.711z
	 M3.146,25.311L3.146,25.311L3.139,25.01l0.599-0.014l0.014,0.6l-0.6,0.014L3.146,25.311z M44.93,25.294l0.003-0.599l0.599,0.003
	l-0.003,0.6L44.93,25.294z M3.149,24.149l0.028-0.599l0.598,0.027l-0.013,0.301v-0.002l-0.014,0.301L3.149,24.149z M44.889,23.576
	L44.889,23.576l-0.019-0.3l0.599-0.037l0.02,0.299l0.02,0.3l-0.6,0.037L44.889,23.576z M3.246,22.691l0.071-0.595l0.595,0.07
	l-0.07,0.596L3.246,22.691z M44.752,22.164l-0.04-0.297l0.596-0.08l0.077,0.596l-0.595,0.079L44.752,22.164z M3.444,21.243
	l0.112-0.589l0.589,0.112l-0.112,0.588L3.444,21.243z M44.518,20.764L44.518,20.764l-0.059-0.294l0.588-0.119l0.118,0.587
	l-0.589,0.12L44.518,20.764z M44.189,19.383l-0.08-0.289l0.58-0.158l0.158,0.579l-0.578,0.158L44.189,19.383z M43.768,18.029
	l-0.1-0.284l0.566-0.197l0.1,0.283l0.098,0.283l-0.567,0.197L43.768,18.029z M5.221,15.693l0.135-0.268l0.132-0.269l0.537,0.268
	l-0.267,0.538L5.221,15.693z M5.899,14.399l0.152-0.258l0.152-0.259l0.516,0.303l-0.152,0.259l-0.151,0.259L5.899,14.399z
	 M41.954,14.187l-0.155-0.256l0.513-0.311l0.313,0.514l-0.515,0.31L41.954,14.187z M6.662,13.155l0.34-0.496l0.494,0.339
	l-0.338,0.496L6.662,13.155z M41.18,13.002L41.18,13.002l-0.172-0.246l0.488-0.345l0.347,0.489l-0.491,0.347L41.18,13.002z
	 M7.51,11.967l0.185-0.236l0.187-0.236l0.471,0.371l-0.37,0.471L7.51,11.967z M40.323,11.872l-0.19-0.233L40.6,11.26l0.379,0.466
	l-0.467,0.378L40.323,11.872z M8.438,10.838l0.401-0.445l0.446,0.404L8.883,11.24L8.438,10.838z M39.391,10.802L39.391,10.802
	l-0.203-0.218l0.436-0.411l0.41,0.438l-0.438,0.41L39.391,10.802z M9.44,9.776L9.872,9.36l0.417,0.434l-0.433,0.414L9.44,9.776z
	 M38.387,9.801L38.387,9.801l-0.219-0.204l0.408-0.44l0.439,0.409l-0.41,0.44L38.387,9.801z M10.512,8.786l0.23-0.193l0.23-0.193
	l0.386,0.46l-0.23,0.193l-0.231,0.193L10.512,8.786z M37.314,8.869L37.314,8.869l-0.232-0.188l0.377-0.467l0.234,0.19l0.232,0.188
	l-0.378,0.467L37.314,8.869z M11.649,7.872l0.486-0.353l0.353,0.485l-0.484,0.353L11.649,7.872z M36.183,8.015L36.183,8.015
	l-0.245-0.174l0.346-0.491l0.491,0.345L36.43,8.187L36.183,8.015z M12.848,7.037l0.508-0.317l0.32,0.508l-0.256,0.16l-0.255,0.159
	L12.848,7.037z M34.996,7.237l-0.257-0.154l0.312-0.515l0.512,0.311l-0.309,0.514L34.996,7.237z M14.1,6.29l0.531-0.281l0.281,0.528
	l-0.529,0.282L14.1,6.29z M33.758,6.543L33.49,6.406l0.276-0.533l0.267,0.137L34.3,6.147l-0.276,0.535L33.758,6.543z M15.404,5.63
	l0.547-0.246l0.244,0.549l-0.273,0.122l-0.273,0.122L15.404,5.63z M32.475,5.937l-0.276-0.118l0.238-0.552l0.55,0.239l-0.235,0.55
	L32.475,5.937z M16.748,5.061l0.563-0.206l0.207,0.565l-0.565,0.204L16.748,5.061z M31.152,5.421L30.869,5.32l0.199-0.566
	l0.565,0.199L31.436,5.52L31.152,5.421z M18.131,4.588l0.576-0.168l0.167,0.577l-0.579,0.166L18.131,4.588z M29.797,4.996
	L29.797,4.996l-0.289-0.08l0.16-0.579l0.289,0.08l0.289,0.08l-0.16,0.579L29.797,4.996z M19.541,4.21l0.585-0.126l0.127,0.585
	l-0.585,0.127L19.541,4.21z M28.416,4.666L28.416,4.666l-0.294-0.06l0.118-0.588l0.589,0.12l-0.118,0.587L28.416,4.666z
	 M20.973,3.931l0.593-0.088l0.086,0.592l-0.593,0.087L20.973,3.931z M27.016,4.433l-0.297-0.04l0.076-0.594l0.596,0.078
	l-0.078,0.595L27.016,4.433z M22.422,3.747l0.6-0.046L23.067,4.3l-0.299,0.023l-0.299,0.022L22.422,3.747z M25.602,4.3l-0.298-0.021
	l0.036-0.598l0.6,0.037l-0.037,0.598L25.602,4.3z M23.879,3.664l0.602-0.006l0.004,0.602l-0.598,0.004L23.879,3.664z"/>
<g>
	<defs>
		<rect id="SVGID_1_" width="50" height="50"/>
	</defs>
	<clipPath id="SVGID_2_">
		<use xlink:href="#SVGID_1_"  style="overflow:visible;"/>
	</clipPath>
	<path style="clip-path:url(#SVGID_2_);fill:#FFFFFF;" d="M29.053,20.063H19.62c-0.435,0-0.787,0.354-0.787,0.786v2.097
		c0,0.201,0.08,0.385,0.203,0.523c-0.125,0.14-0.203,0.324-0.203,0.525v2.097c0,0.202,0.08,0.386,0.203,0.523
		c-0.125,0.14-0.203,0.322-0.203,0.524v0.216l0.12-0.118c0.112-0.114,0.264-0.173,0.419-0.184c0.036-0.103,0.132-0.176,0.248-0.176
		h9.433c0.145,0,0.263,0.117,0.263,0.262v2.097c0,0.145-0.118,0.262-0.263,0.262H19.62h-0.008c0.082,0.162,0.154,0.33,0.207,0.505
		h1.117c0.054,0,0.108,0.006,0.158,0.021h7.959c0.434,0,0.784-0.354,0.784-0.787v-2.097c0-0.202-0.077-0.385-0.202-0.524
		c0.125-0.138,0.202-0.321,0.202-0.523v-2.097c0-0.201-0.077-0.385-0.202-0.525c0.125-0.138,0.202-0.322,0.202-0.523v-2.097
		C29.837,20.417,29.486,20.063,29.053,20.063 M29.315,26.09c0,0.145-0.118,0.263-0.263,0.263H19.62
		c-0.147,0-0.264-0.118-0.264-0.263v-2.097c0-0.144,0.117-0.262,0.264-0.262h9.433c0.145,0,0.263,0.118,0.263,0.262V26.09z
		 M29.315,22.945c0,0.145-0.118,0.263-0.263,0.263H19.62c-0.147,0-0.264-0.118-0.264-0.263v-2.097c0-0.143,0.117-0.261,0.264-0.261
		h9.433c0.145,0,0.263,0.118,0.263,0.261V22.945z"/>
	<rect x="19.879" y="22.16" style="clip-path:url(#SVGID_2_);fill:#FFFFFF;" width="0.525" height="0.524"/>
	<rect x="20.929" y="22.16" style="clip-path:url(#SVGID_2_);fill:#FFFFFF;" width="0.524" height="0.524"/>
	<rect x="19.879" y="21.111" style="clip-path:url(#SVGID_2_);fill:#FFFFFF;" width="0.525" height="0.524"/>
	<rect x="20.929" y="21.111" style="clip-path:url(#SVGID_2_);fill:#FFFFFF;" width="0.524" height="0.524"/>
	<rect x="21.978" y="22.16" style="clip-path:url(#SVGID_2_);fill:#FFFFFF;" width="0.524" height="0.524"/>
	<rect x="21.978" y="21.111" style="clip-path:url(#SVGID_2_);fill:#FFFFFF;" width="0.524" height="0.524"/>
	<rect x="23.025" y="22.16" style="clip-path:url(#SVGID_2_);fill:#FFFFFF;" width="0.523" height="0.524"/>
	<rect x="23.025" y="21.111" style="clip-path:url(#SVGID_2_);fill:#FFFFFF;" width="0.523" height="0.524"/>
	<rect x="24.074" y="22.16" style="clip-path:url(#SVGID_2_);fill:#FFFFFF;" width="0.523" height="0.524"/>
	<rect x="24.074" y="21.111" style="clip-path:url(#SVGID_2_);fill:#FFFFFF;" width="0.523" height="0.524"/>
	<path style="clip-path:url(#SVGID_2_);fill:#FFFFFF;" d="M28.529,21.11H26.17c-0.145,0-0.262,0.119-0.262,0.263v1.049
		c0,0.143,0.117,0.262,0.262,0.262h2.359c0.146,0,0.262-0.119,0.262-0.262v-1.049C28.791,21.229,28.675,21.11,28.529,21.11
		 M28.267,22.159h-1.834v-0.524h1.834V22.159z"/>
	<rect x="19.879" y="25.304" style="clip-path:url(#SVGID_2_);fill:#FFFFFF;" width="0.525" height="0.523"/>
	<rect x="20.929" y="25.304" style="clip-path:url(#SVGID_2_);fill:#FFFFFF;" width="0.524" height="0.523"/>
	<rect x="19.879" y="24.256" style="clip-path:url(#SVGID_2_);fill:#FFFFFF;" width="0.525" height="0.524"/>
	<rect x="20.929" y="24.256" style="clip-path:url(#SVGID_2_);fill:#FFFFFF;" width="0.524" height="0.524"/>
	<rect x="21.978" y="25.304" style="clip-path:url(#SVGID_2_);fill:#FFFFFF;" width="0.524" height="0.523"/>
	<rect x="21.978" y="24.256" style="clip-path:url(#SVGID_2_);fill:#FFFFFF;" width="0.524" height="0.524"/>
	<rect x="23.025" y="25.304" style="clip-path:url(#SVGID_2_);fill:#FFFFFF;" width="0.523" height="0.523"/>
	<rect x="23.025" y="24.256" style="clip-path:url(#SVGID_2_);fill:#FFFFFF;" width="0.523" height="0.524"/>
	<rect x="24.074" y="25.304" style="clip-path:url(#SVGID_2_);fill:#FFFFFF;" width="0.523" height="0.523"/>
	<rect x="24.074" y="24.256" style="clip-path:url(#SVGID_2_);fill:#FFFFFF;" width="0.523" height="0.524"/>
	<path style="clip-path:url(#SVGID_2_);fill:#FFFFFF;" d="M28.529,24.256H26.17c-0.145,0-0.262,0.117-0.262,0.262v1.048
		c0,0.144,0.117,0.261,0.262,0.261h2.359c0.146,0,0.262-0.117,0.262-0.261v-1.048C28.791,24.373,28.675,24.256,28.529,24.256
		 M28.267,25.304h-1.834v-0.523h1.834V25.304z"/>
	<path style="clip-path:url(#SVGID_2_);fill:#FFFFFF;" d="M20.078,28.973h0.326v-0.331c-0.008,0.008-0.012,0.018-0.021,0.025
		L20.078,28.973z"/>
	<rect x="20.929" y="28.449" style="clip-path:url(#SVGID_2_);fill:#FFFFFF;" width="0.524" height="0.522"/>
	<path style="clip-path:url(#SVGID_2_);fill:#FFFFFF;" d="M20.404,27.762V27.4h-0.356l0.335,0.334
		C20.392,27.742,20.396,27.753,20.404,27.762"/>
	<rect x="20.929" y="27.4" style="clip-path:url(#SVGID_2_);fill:#FFFFFF;" width="0.524" height="0.523"/>
	<rect x="21.978" y="28.449" style="clip-path:url(#SVGID_2_);fill:#FFFFFF;" width="0.524" height="0.522"/>
	<rect x="21.978" y="27.4" style="clip-path:url(#SVGID_2_);fill:#FFFFFF;" width="0.524" height="0.523"/>
	<rect x="23.026" y="28.449" style="clip-path:url(#SVGID_2_);fill:#FFFFFF;" width="0.523" height="0.522"/>
	<rect x="23.026" y="27.4" style="clip-path:url(#SVGID_2_);fill:#FFFFFF;" width="0.523" height="0.523"/>
	<rect x="24.075" y="28.449" style="clip-path:url(#SVGID_2_);fill:#FFFFFF;" width="0.523" height="0.522"/>
	<rect x="24.075" y="27.4" style="clip-path:url(#SVGID_2_);fill:#FFFFFF;" width="0.523" height="0.523"/>
	<path style="clip-path:url(#SVGID_2_);fill:#FFFFFF;" d="M26.17,28.973h2.359c0.146,0,0.262-0.117,0.262-0.261v-1.05
		c0-0.145-0.116-0.262-0.262-0.262H26.17c-0.145,0-0.262,0.117-0.262,0.262v1.05C25.908,28.855,26.025,28.973,26.17,28.973
		 M26.433,27.925h1.834v0.524h-1.834V27.925z"/>
	<path style="clip-path:url(#SVGID_2_);fill:#FFFFFF;" d="M32.193,24.757l-0.524,0.019c0.004,0.087,0.005,0.177,0.005,0.266
		c0,0.091-0.001,0.182-0.005,0.271l0.524,0.02c0.004-0.097,0.005-0.193,0.005-0.29C32.198,24.947,32.197,24.851,32.193,24.757"/>
	<path style="clip-path:url(#SVGID_2_);fill:#FFFFFF;" d="M31.568,21.959c-0.075-0.177-0.156-0.352-0.245-0.522l-0.466,0.242
		c0.082,0.158,0.16,0.322,0.229,0.486L31.568,21.959z"/>
	<path style="clip-path:url(#SVGID_2_);fill:#FFFFFF;" d="M30.855,28.409l0.466,0.24c0.087-0.168,0.171-0.344,0.245-0.521
		l-0.48-0.207C31.016,28.088,30.938,28.251,30.855,28.409"/>
	<path style="clip-path:url(#SVGID_2_);fill:#FFFFFF;" d="M31.551,26.382l0.516,0.096c0.035-0.189,0.063-0.382,0.084-0.571
		l-0.521-0.057C31.609,26.026,31.584,26.205,31.551,26.382"/>
	<path style="clip-path:url(#SVGID_2_);fill:#FFFFFF;" d="M31.279,27.42l0.496,0.171c0.061-0.18,0.117-0.366,0.166-0.552
		l-0.508-0.133C31.389,27.08,31.337,27.253,31.279,27.42"/>
	<path style="clip-path:url(#SVGID_2_);fill:#FFFFFF;" d="M31.434,23.181l0.508-0.133c-0.049-0.184-0.104-0.371-0.165-0.553
		l-0.497,0.171C31.339,22.834,31.391,23.009,31.434,23.181"/>
	<path style="clip-path:url(#SVGID_2_);fill:#FFFFFF;" d="M31.631,24.238l0.521-0.057c-0.021-0.189-0.049-0.381-0.084-0.571
		l-0.516,0.096C31.584,23.883,31.611,24.062,31.631,24.238"/>
	<path style="clip-path:url(#SVGID_2_);fill:#FFFFFF;" d="M17.119,23.702l-0.516-0.095c-0.034,0.19-0.062,0.381-0.083,0.571
		l0.521,0.056C17.06,24.057,17.087,23.879,17.119,23.702"/>
	<path style="clip-path:url(#SVGID_2_);fill:#FFFFFF;" d="M17.393,22.662l-0.497-0.17c-0.061,0.18-0.118,0.366-0.167,0.552
		l0.508,0.134C17.284,23.004,17.334,22.83,17.393,22.662"/>
	<path style="clip-path:url(#SVGID_2_);fill:#FFFFFF;" d="M17.002,25.31c-0.004-0.09-0.006-0.179-0.006-0.268
		c0-0.09,0.002-0.18,0.006-0.271l-0.523-0.019c-0.005,0.096-0.006,0.194-0.006,0.291c0,0.095,0.001,0.19,0.004,0.285L17.002,25.31z"
		/>
	<path style="clip-path:url(#SVGID_2_);fill:#FFFFFF;" d="M17.814,21.675l-0.465-0.241c-0.088,0.169-0.171,0.344-0.246,0.521
		l0.482,0.207C17.657,21.996,17.732,21.833,17.814,21.675"/>
	<path style="clip-path:url(#SVGID_2_);fill:#FFFFFF;" d="M17.064,26.032c-0.009-0.063-0.018-0.124-0.024-0.188l-0.521,0.058
		c0.004,0.041,0.01,0.081,0.016,0.121h0.422C16.994,26.023,17.029,26.026,17.064,26.032"/>
	<path style="clip-path:url(#SVGID_2_);fill:#FFFFFF;" d="M24.336,17.705c1.497,0,2.953,0.463,4.176,1.31h-0.77v0.524h1.572
		c0.145,0,0.264-0.117,0.264-0.263v-1.571h-0.525v1.052c-1.355-1.019-3.013-1.577-4.717-1.577c-1.877,0-3.695,0.674-5.119,1.897
		l0.342,0.399C20.887,18.332,22.584,17.705,24.336,17.705"/>
	<path style="clip-path:url(#SVGID_2_);fill:#FFFFFF;" d="M20.936,32.027h-0.198c1.106,0.571,2.338,0.877,3.598,0.877
		c1.876,0,3.695-0.675,5.12-1.898l-0.343-0.397c-1.329,1.142-3.025,1.771-4.777,1.771c-1,0-1.981-0.209-2.888-0.598
		C21.327,31.932,21.143,32.027,20.936,32.027"/>
	<path style="clip-path:url(#SVGID_2_);fill:#FFFFFF;" d="M20.078,28.973h-0.199v-0.396l-0.524,0.522v0.136
		c0,0.143,0.115,0.26,0.256,0.262c-0.004-0.014-0.01-0.027-0.016-0.039L20.078,28.973z"/>
	<path style="clip-path:url(#SVGID_2_);fill:#FFFFFF;" d="M19.977,27.925l0.109,0.107c0.092,0.092,0.092,0.244,0,0.338l-0.08,0.079
		h0.399v0.192c0.223-0.251,0.223-0.63,0-0.88v0.163H19.977z"/>
	<path style="clip-path:url(#SVGID_2_);fill:#FFFFFF;" d="M19.66,31.604c-0.014,0-0.027,0.005-0.041,0.008v0.768h-0.402
		c-0.022,0.04-0.043,0.082-0.067,0.122c-0.049,0.083-0.035,0.188,0.033,0.255l0.903,0.9c0.092,0.094,0.092,0.245,0,0.338
		l-0.502,0.499c-0.088,0.09-0.246,0.09-0.336,0l-0.9-0.902c-0.069-0.066-0.172-0.081-0.256-0.033
		c-0.231,0.137-0.479,0.239-0.74,0.308c-0.093,0.023-0.156,0.107-0.156,0.204v1.274c0,0.132-0.108,0.237-0.239,0.237h-0.705
		c-0.133,0-0.24-0.105-0.24-0.237V34.07c0-0.097-0.063-0.181-0.157-0.204c-0.26-0.068-0.508-0.171-0.74-0.308
		c-0.033-0.018-0.069-0.027-0.105-0.027c-0.056,0-0.11,0.021-0.15,0.061l-0.899,0.902c-0.092,0.09-0.248,0.09-0.339,0l-0.501-0.499
		c-0.043-0.046-0.068-0.105-0.068-0.169c0-0.064,0.025-0.123,0.068-0.169l0.904-0.9c0.066-0.067,0.081-0.172,0.031-0.255
		c-0.134-0.23-0.238-0.48-0.306-0.739c-0.022-0.093-0.108-0.158-0.203-0.158h-1.275c-0.13,0-0.236-0.106-0.236-0.238v-0.705
		c0-0.132,0.106-0.238,0.236-0.238h1.275c0.097,0,0.181-0.064,0.203-0.158c0.07-0.259,0.172-0.509,0.307-0.739
		c0.049-0.083,0.036-0.188-0.032-0.256l-0.904-0.899c-0.043-0.046-0.066-0.104-0.066-0.169c0-0.063,0.023-0.124,0.066-0.168
		l0.502-0.501c0.09-0.09,0.247-0.09,0.338,0l0.899,0.902c0.068,0.068,0.172,0.081,0.257,0.033c0.23-0.134,0.478-0.238,0.738-0.306
		c0.094-0.024,0.159-0.108,0.159-0.203v-1.277c0-0.131,0.107-0.236,0.238-0.236h0.346c-0.026-0.14-0.046-0.281-0.063-0.422h-0.283
		c-0.365,0-0.66,0.297-0.66,0.658v1.116c-0.19,0.06-0.372,0.136-0.546,0.226l-0.788-0.788c-0.248-0.25-0.685-0.25-0.934,0
		l-0.5,0.499c-0.123,0.124-0.192,0.29-0.192,0.467c0,0.175,0.069,0.342,0.192,0.465l0.791,0.791
		c-0.092,0.173-0.167,0.355-0.226,0.544h-1.117c-0.362,0-0.66,0.296-0.66,0.66v0.705c0,0.364,0.298,0.66,0.66,0.66h1.117
		c0.059,0.188,0.134,0.37,0.226,0.544l-0.791,0.79c-0.123,0.124-0.192,0.29-0.192,0.466c0,0.177,0.069,0.342,0.192,0.467l0.5,0.5
		c0.249,0.248,0.686,0.248,0.934,0l0.788-0.789c0.174,0.09,0.356,0.165,0.546,0.226v1.115c0,0.364,0.297,0.659,0.66,0.659h0.705
		c0.364,0,0.66-0.295,0.66-0.659v-1.115c0.189-0.06,0.371-0.136,0.545-0.226l0.79,0.789c0.249,0.248,0.683,0.248,0.931,0l0.5-0.499
		c0.256-0.258,0.256-0.677,0-0.934l-0.788-0.789c0.09-0.175,0.165-0.356,0.223-0.544h0.919c-0.247-0.127-0.487-0.269-0.721-0.423
		H19.66z"/>
	<path style="clip-path:url(#SVGID_2_);fill:#FFFFFF;" d="M19.355,27.474c0.081-0.021,0.17-0.001,0.23,0.059l0.293,0.295V27.4h0.169
		l-0.165-0.165c-0.134-0.136-0.326-0.194-0.511-0.184c-0.01,0.026-0.016,0.056-0.016,0.086V27.474z"/>
	<path style="clip-path:url(#SVGID_2_);fill:#FFFFFF;" d="M16.757,26.445h0.2c0.131,0,0.239,0.105,0.239,0.236v0.231l0.04-0.012
		c0.045,0.173,0.098,0.347,0.155,0.517l-0.195,0.066v0.473c0,0.042,0.014,0.081,0.035,0.113l0.353-0.15
		c0.055,0.128,0.115,0.257,0.178,0.383c0.113,0.048,0.224,0.103,0.33,0.165c0.084,0.048,0.189,0.035,0.256-0.033l0.484-0.484v-0.597
		l-0.67,0.67c-0.174-0.09-0.356-0.166-0.545-0.226v-1.116c0-0.325-0.24-0.597-0.552-0.649c0.015,0.116,0.033,0.231,0.053,0.346
		L16.757,26.445z"/>
	<path style="clip-path:url(#SVGID_2_);fill:#FFFFFF;" d="M19.363,29.979c0.037,0.094,0.068,0.188,0.094,0.286
		c0.025,0.094,0.107,0.157,0.203,0.157h1.275c0.132,0,0.239,0.107,0.239,0.239v0.705c0,0.098-0.06,0.184-0.145,0.22
		c0.137,0.069,0.277,0.135,0.418,0.196c0.093-0.114,0.148-0.259,0.148-0.416v-0.705c0-0.31-0.213-0.569-0.502-0.64h-1.474
		C19.529,30.021,19.443,30.006,19.363,29.979"/>
	<path style="clip-path:url(#SVGID_2_);fill:#FFFFFF;" d="M19.249,27.532c0.03-0.029,0.067-0.049,0.106-0.059v-0.337
		c0-0.029,0.006-0.058,0.016-0.085c-0.154,0.011-0.307,0.069-0.419,0.184l-0.12,0.118v0.597L19.249,27.532z"/>
	<path style="clip-path:url(#SVGID_2_);fill:#FFFFFF;" d="M19.818,30.001c-0.053-0.175-0.125-0.343-0.207-0.505
		c-0.142-0.003-0.256-0.119-0.256-0.262v-0.136l-0.171,0.171c-0.067,0.068-0.081,0.173-0.032,0.256
		c0.083,0.144,0.154,0.296,0.211,0.453c0.08,0.027,0.166,0.044,0.256,0.044h1.474c-0.05-0.015-0.104-0.021-0.158-0.021H19.818z"/>
	<path style="clip-path:url(#SVGID_2_);fill:#FFFFFF;" d="M20.006,28.449l-0.127,0.126v0.397h0.199l0.305-0.306
		c0.01-0.009,0.014-0.018,0.021-0.025v-0.192H20.006z"/>
	<path style="clip-path:url(#SVGID_2_);fill:#FFFFFF;" d="M20.404,27.925v-0.163c-0.008-0.009-0.012-0.02-0.021-0.027L20.048,27.4
		h-0.169v0.427l0.097,0.098H20.404z"/>
	<path style="clip-path:url(#SVGID_2_);fill:#FFFFFF;" d="M17.391,27.418c-0.057-0.17-0.109-0.344-0.154-0.517l-0.04,0.012v0.571
		L17.391,27.418z"/>
	<path style="clip-path:url(#SVGID_2_);fill:#FFFFFF;" d="M17.353,28.161c0.141,0.037,0.278,0.084,0.409,0.142
		c-0.062-0.126-0.123-0.255-0.178-0.383l-0.353,0.15C17.258,28.114,17.3,28.147,17.353,28.161"/>
	<path style="clip-path:url(#SVGID_2_);fill:#FFFFFF;" d="M16.757,26.445l0.361-0.067c-0.02-0.114-0.038-0.229-0.053-0.346
		c-0.036-0.006-0.072-0.009-0.108-0.009h-0.422c0.017,0.141,0.037,0.282,0.064,0.422H16.757z"/>
	<path style="clip-path:url(#SVGID_2_);fill:#FFFFFF;" d="M20.936,31.604h-0.919c0.233,0.154,0.474,0.296,0.721,0.423h0.198
		c0.207,0,0.391-0.096,0.512-0.245c-0.141-0.062-0.282-0.127-0.418-0.196C21,31.598,20.968,31.604,20.936,31.604"/>
	<path style="clip-path:url(#SVGID_2_);fill:#FFFFFF;" d="M19.457,31.763c-0.057,0.215-0.139,0.421-0.24,0.617h0.402v-0.768
		C19.541,31.628,19.477,31.685,19.457,31.763"/>
	<path style="clip-path:url(#SVGID_2_);fill:#FFFFFF;" d="M16.604,28.964c-0.342,0-0.68,0.086-0.979,0.249
		c-0.103,0.056-0.14,0.183-0.085,0.285s0.184,0.14,0.287,0.084c0.236-0.129,0.506-0.196,0.777-0.196
		c0.898,0,1.629,0.729,1.629,1.628c0,0.896-0.731,1.628-1.629,1.628c-0.897,0-1.629-0.731-1.629-1.628
		c0-0.249,0.056-0.489,0.164-0.711c0.052-0.105,0.008-0.23-0.097-0.281c-0.105-0.052-0.23-0.008-0.282,0.097
		c-0.135,0.279-0.205,0.582-0.205,0.896c0,1.13,0.918,2.05,2.049,2.05s2.052-0.92,2.052-2.05S17.734,28.964,16.604,28.964"/>
	<path style="clip-path:url(#SVGID_2_);fill:#FFFFFF;" d="M46.174,38.942l-0.729-0.829c-0.057-0.064-0.146-0.09-0.229-0.064
		c-0.083,0.027-0.143,0.099-0.152,0.186c-0.018,0.155-0.038,0.305-0.064,0.446c-0.123-0.549-0.335-1.095-0.627-1.635v-3.933
		c0-0.121-0.099-0.218-0.219-0.218c-3.197,0-4.627-1.655-4.641-1.671c-0.041-0.051-0.098-0.083-0.168-0.08
		c-0.064,0-0.127,0.029-0.169,0.078c-0.014,0.018-1.443,1.673-4.641,1.673c-0.122,0-0.219,0.097-0.219,0.218v4.173
		c0,2.279,1.024,4.447,2.742,5.796c0.691,0.544,1.44,0.938,2.224,1.171c0.021,0.005,0.041,0.009,0.063,0.009
		c0.021,0,0.041-0.004,0.063-0.009c0.719-0.214,1.408-0.566,2.053-1.045c0.6,0.674,1.455,1.062,2.355,1.068h0.02
		c0.9,0,1.758-0.384,2.361-1.052C47.275,42.027,47.268,40.187,46.174,38.942 M39.346,43.814c-0.395-0.122-0.78-0.29-1.154-0.499
		c0.037-0.039,0.06-0.09,0.06-0.147c0-0.119-0.097-0.219-0.217-0.219c-0.096,0-0.175,0.063-0.205,0.148
		c-0.171-0.111-0.337-0.229-0.5-0.358l-0.026-0.023c0.023,0.009,0.049,0.016,0.074,0.016c0.121,0,0.219-0.098,0.219-0.219
		c0-0.12-0.098-0.219-0.219-0.219s-0.219,0.099-0.219,0.219c0,0.042,0.016,0.08,0.037,0.113c-0.424-0.352-0.801-0.759-1.122-1.208
		c0.116-0.003,0.21-0.098,0.21-0.217c0-0.12-0.098-0.219-0.217-0.219c-0.09,0-0.167,0.054-0.201,0.132
		c-0.096-0.149-0.186-0.303-0.27-0.461c0.02-0.031,0.033-0.068,0.033-0.108c0-0.112-0.087-0.201-0.197-0.214
		c-0.237-0.505-0.412-1.041-0.527-1.595c0.042-0.04,0.069-0.096,0.069-0.158c0-0.09-0.056-0.168-0.134-0.201
		c-0.045-0.295-0.07-0.593-0.08-0.894c0.119-0.003,0.214-0.097,0.214-0.218c0-0.12-0.099-0.218-0.219-0.218v-0.875
		c0.12,0,0.219-0.097,0.219-0.218s-0.099-0.219-0.219-0.219v-0.874c0.12,0,0.219-0.098,0.219-0.219s-0.099-0.219-0.219-0.219V33.55
		c0.12,0,0.219-0.098,0.219-0.219c0-0.004-0.001-0.009-0.003-0.013c0.319-0.013,0.619-0.043,0.902-0.084
		c-0.016,0.029-0.025,0.061-0.025,0.097c0,0.121,0.098,0.219,0.219,0.219c0.119,0,0.217-0.098,0.217-0.219
		c0-0.062-0.025-0.115-0.066-0.155c0.627-0.121,1.157-0.3,1.599-0.498c0,0.119,0.097,0.217,0.219,0.217
		c0.12,0,0.219-0.098,0.219-0.218c0-0.07-0.036-0.13-0.087-0.17c0.179-0.094,0.336-0.187,0.478-0.277
		c0.015,0.003,0.03,0.01,0.046,0.01c0.11,0,0.199-0.084,0.213-0.19c0.193-0.144,0.342-0.272,0.443-0.369
		c0.467,0.448,1.914,1.59,4.59,1.648v3.088c-0.029-0.016-0.064-0.024-0.1-0.024c-0.063,0-0.123,0.027-0.164,0.075l-0.711,0.809
		c-0.729,0.83-1.132,1.883-1.158,2.949c-0.043-0.101-0.085-0.208-0.127-0.319c-0.051-0.14-0.098-0.281-0.137-0.431
		c-0.021-0.085-0.092-0.147-0.18-0.162c-0.02-0.003-0.043-0.003-0.063,0c-0.063,0.009-0.118,0.046-0.152,0.101
		c-0.004,0.007-0.008,0.015-0.013,0.021c-0.039,0.063-0.076,0.127-0.109,0.193c-0.012,0.023-0.023,0.047-0.035,0.071
		c-0.023,0.051-0.049,0.102-0.07,0.153c-0.013,0.023-0.02,0.05-0.03,0.074c-0.021,0.052-0.04,0.105-0.06,0.159
		c-0.006,0.022-0.016,0.045-0.02,0.067c-0.018,0.059-0.035,0.116-0.049,0.175c-0.006,0.019-0.01,0.037-0.014,0.057
		c-0.015,0.064-0.028,0.13-0.039,0.196c-0.002,0.012-0.004,0.024-0.005,0.038c-0.013,0.074-0.021,0.149-0.026,0.224l-0.002,0.014
		c-0.031,0.412,0.018,0.828,0.146,1.222c0.005,0.018,0.01,0.032,0.016,0.048c0.02,0.059,0.039,0.116,0.063,0.172
		c0.014,0.029,0.025,0.059,0.039,0.087c0.016,0.042,0.035,0.083,0.057,0.124c0.018,0.037,0.037,0.076,0.059,0.113
		c0.016,0.028,0.031,0.057,0.049,0.085c0.025,0.046,0.054,0.092,0.082,0.135c0.005,0.008,0.01,0.015,0.014,0.022
		C40.613,43.295,39.991,43.614,39.346,43.814 M45.872,42.933c-0.522,0.58-1.278,0.912-2.055,0.906
		c-0.781-0.004-1.526-0.346-2.042-0.933c-0.037-0.042-0.071-0.084-0.104-0.127c0-0.002,0-0.003-0.002-0.003
		c-0.073-0.096-0.138-0.193-0.198-0.294c-0.002-0.004-0.003-0.006-0.003-0.009c-0.056-0.094-0.103-0.192-0.146-0.291
		c-0.008-0.015-0.012-0.028-0.018-0.042c-0.039-0.091-0.07-0.184-0.096-0.278c-0.007-0.022-0.014-0.046-0.02-0.07
		c-0.023-0.089-0.041-0.177-0.055-0.266c-0.006-0.031-0.01-0.06-0.013-0.088c-0.011-0.088-0.018-0.176-0.021-0.263v-0.091
		c0-0.09,0.003-0.18,0.012-0.269c0.004-0.025,0.009-0.052,0.011-0.076c0.012-0.095,0.027-0.189,0.05-0.281
		c0.004-0.018,0.009-0.033,0.013-0.051c0.026-0.098,0.056-0.195,0.092-0.291c0-0.004,0.002-0.008,0.003-0.011
		c0.23,0.606,0.52,1.07,0.626,1.229c0.022,0.033,0.04,0.059,0.044,0.063c0.059,0.086,0.17,0.115,0.266,0.076
		c0.095-0.043,0.146-0.145,0.126-0.246l-0.009-0.038c-0.07-0.318-0.101-0.641-0.094-0.962c0.023-0.963,0.389-1.913,1.049-2.665
		l0.53-0.604c0.009,0.017,0.019,0.032,0.028,0.047c0.564,0.951,0.852,1.917,0.852,2.874c0,0.105,0.077,0.196,0.182,0.215
		c0.102,0.019,0.206-0.04,0.242-0.14c0.01-0.024,0.188-0.508,0.309-1.196l0.412,0.471C46.791,40.308,46.803,41.898,45.872,42.933"/>
	<path style="clip-path:url(#SVGID_2_);fill:#FFFFFF;" d="M39.564,32.677c0,0.12-0.098,0.219-0.219,0.219
		c-0.122,0-0.218-0.099-0.218-0.219c0-0.121,0.096-0.219,0.218-0.219C39.467,32.458,39.564,32.556,39.564,32.677"/>
	<path style="clip-path:url(#SVGID_2_);fill:#FFFFFF;" d="M35.629,33.988c0,0.12-0.098,0.218-0.219,0.218
		c-0.12,0-0.218-0.098-0.218-0.218c0-0.122,0.098-0.22,0.218-0.22C35.531,33.769,35.629,33.866,35.629,33.988"/>
	<path style="clip-path:url(#SVGID_2_);fill:#FFFFFF;" d="M36.941,33.988c0,0.12-0.099,0.218-0.221,0.218
		c-0.119,0-0.219-0.098-0.219-0.218c0-0.122,0.1-0.22,0.219-0.22C36.843,33.769,36.941,33.866,36.941,33.988"/>
	<path style="clip-path:url(#SVGID_2_);fill:#FFFFFF;" d="M37.596,33.331c0,0.121-0.098,0.219-0.219,0.219s-0.218-0.098-0.218-0.219
		c0-0.119,0.097-0.218,0.218-0.218S37.596,33.212,37.596,33.331"/>
	<path style="clip-path:url(#SVGID_2_);fill:#FFFFFF;" d="M38.251,33.988c0,0.12-0.097,0.218-0.217,0.218
		c-0.122,0-0.219-0.098-0.219-0.218c0-0.122,0.097-0.22,0.219-0.22C38.154,33.769,38.251,33.866,38.251,33.988"/>
	<path style="clip-path:url(#SVGID_2_);fill:#FFFFFF;" d="M38.908,33.331c0,0.121-0.098,0.219-0.219,0.219s-0.218-0.098-0.218-0.219
		c0-0.119,0.097-0.218,0.218-0.218S38.908,33.212,38.908,33.331"/>
	<path style="clip-path:url(#SVGID_2_);fill:#FFFFFF;" d="M39.564,33.988c0,0.12-0.098,0.218-0.219,0.218
		c-0.122,0-0.218-0.098-0.218-0.218c0-0.122,0.096-0.22,0.218-0.22C39.467,33.769,39.564,33.866,39.564,33.988"/>
	<path style="clip-path:url(#SVGID_2_);fill:#FFFFFF;" d="M35.629,35.298c0,0.121-0.098,0.219-0.219,0.219
		c-0.12,0-0.218-0.098-0.218-0.219c0-0.12,0.098-0.218,0.218-0.218C35.531,35.08,35.629,35.178,35.629,35.298"/>
	<path style="clip-path:url(#SVGID_2_);fill:#FFFFFF;" d="M36.283,34.644c0,0.121-0.098,0.219-0.219,0.219
		c-0.119,0-0.217-0.098-0.217-0.219s0.098-0.219,0.217-0.219C36.186,34.425,36.283,34.522,36.283,34.644"/>
	<path style="clip-path:url(#SVGID_2_);fill:#FFFFFF;" d="M36.941,35.298c0,0.121-0.099,0.219-0.221,0.219
		c-0.119,0-0.219-0.098-0.219-0.219c0-0.12,0.1-0.218,0.219-0.218C36.843,35.08,36.941,35.178,36.941,35.298"/>
	<path style="clip-path:url(#SVGID_2_);fill:#FFFFFF;" d="M37.596,34.644c0,0.121-0.098,0.219-0.219,0.219s-0.218-0.098-0.218-0.219
		s0.097-0.219,0.218-0.219S37.596,34.522,37.596,34.644"/>
	<path style="clip-path:url(#SVGID_2_);fill:#FFFFFF;" d="M38.251,35.298c0,0.121-0.097,0.219-0.217,0.219
		c-0.122,0-0.219-0.098-0.219-0.219c0-0.12,0.097-0.218,0.219-0.218C38.154,35.08,38.251,35.178,38.251,35.298"/>
	<path style="clip-path:url(#SVGID_2_);fill:#FFFFFF;" d="M38.908,34.644c0,0.121-0.098,0.219-0.219,0.219s-0.218-0.098-0.218-0.219
		s0.097-0.219,0.218-0.219S38.908,34.522,38.908,34.644"/>
	<path style="clip-path:url(#SVGID_2_);fill:#FFFFFF;" d="M39.564,35.298c0,0.121-0.098,0.219-0.219,0.219
		c-0.122,0-0.218-0.098-0.218-0.219c0-0.12,0.096-0.218,0.218-0.218C39.467,35.08,39.564,35.178,39.564,35.298"/>
	<path style="clip-path:url(#SVGID_2_);fill:#FFFFFF;" d="M35.629,36.61c0,0.121-0.098,0.219-0.219,0.219
		c-0.12,0-0.218-0.098-0.218-0.219s0.098-0.219,0.218-0.219C35.531,36.392,35.629,36.489,35.629,36.61"/>
	<path style="clip-path:url(#SVGID_2_);fill:#FFFFFF;" d="M36.283,35.955c0,0.121-0.098,0.219-0.219,0.219
		c-0.119,0-0.217-0.098-0.217-0.219s0.098-0.219,0.217-0.219C36.186,35.736,36.283,35.834,36.283,35.955"/>
	<path style="clip-path:url(#SVGID_2_);fill:#FFFFFF;" d="M36.941,36.61c0,0.121-0.099,0.219-0.221,0.219
		c-0.119,0-0.219-0.098-0.219-0.219s0.1-0.219,0.219-0.219C36.843,36.392,36.941,36.489,36.941,36.61"/>
	<path style="clip-path:url(#SVGID_2_);fill:#FFFFFF;" d="M37.596,35.955c0,0.121-0.098,0.219-0.219,0.219s-0.218-0.098-0.218-0.219
		s0.097-0.219,0.218-0.219S37.596,35.834,37.596,35.955"/>
	<path style="clip-path:url(#SVGID_2_);fill:#FFFFFF;" d="M38.251,36.61c0,0.121-0.097,0.219-0.217,0.219
		c-0.122,0-0.219-0.098-0.219-0.219s0.097-0.219,0.219-0.219C38.154,36.392,38.251,36.489,38.251,36.61"/>
	<path style="clip-path:url(#SVGID_2_);fill:#FFFFFF;" d="M38.908,35.955c0,0.121-0.098,0.219-0.219,0.219s-0.218-0.098-0.218-0.219
		s0.097-0.219,0.218-0.219S38.908,35.834,38.908,35.955"/>
	<path style="clip-path:url(#SVGID_2_);fill:#FFFFFF;" d="M39.564,36.61c0,0.121-0.098,0.219-0.219,0.219
		c-0.122,0-0.218-0.098-0.218-0.219s0.096-0.219,0.218-0.219C39.467,36.392,39.564,36.489,39.564,36.61"/>
	<path style="clip-path:url(#SVGID_2_);fill:#FFFFFF;" d="M35.629,37.923c0,0.12-0.098,0.218-0.219,0.218
		c-0.12,0-0.218-0.098-0.218-0.218c0-0.121,0.098-0.22,0.218-0.22C35.531,37.703,35.629,37.802,35.629,37.923"/>
	<path style="clip-path:url(#SVGID_2_);fill:#FFFFFF;" d="M36.283,37.268c0,0.12-0.098,0.217-0.219,0.217
		c-0.119,0-0.217-0.097-0.217-0.217c0-0.122,0.098-0.22,0.217-0.22C36.186,37.048,36.283,37.146,36.283,37.268"/>
	<path style="clip-path:url(#SVGID_2_);fill:#FFFFFF;" d="M36.941,37.923c0,0.12-0.099,0.218-0.221,0.218
		c-0.119,0-0.219-0.098-0.219-0.218c0-0.121,0.1-0.22,0.219-0.22C36.843,37.703,36.941,37.802,36.941,37.923"/>
	<path style="clip-path:url(#SVGID_2_);fill:#FFFFFF;" d="M37.596,37.268c0,0.12-0.098,0.217-0.219,0.217s-0.218-0.097-0.218-0.217
		c0-0.122,0.097-0.22,0.218-0.22S37.596,37.146,37.596,37.268"/>
	<path style="clip-path:url(#SVGID_2_);fill:#FFFFFF;" d="M38.251,37.923c0,0.12-0.097,0.218-0.217,0.218
		c-0.122,0-0.219-0.098-0.219-0.218c0-0.121,0.097-0.22,0.219-0.22C38.154,37.703,38.251,37.802,38.251,37.923"/>
	<path style="clip-path:url(#SVGID_2_);fill:#FFFFFF;" d="M38.908,37.268c0,0.12-0.098,0.217-0.219,0.217s-0.218-0.097-0.218-0.217
		c0-0.122,0.097-0.22,0.218-0.22S38.908,37.146,38.908,37.268"/>
	<path style="clip-path:url(#SVGID_2_);fill:#FFFFFF;" d="M39.564,37.923c0,0.12-0.098,0.218-0.219,0.218
		c-0.122,0-0.218-0.098-0.218-0.218c0-0.121,0.096-0.22,0.218-0.22C39.467,37.703,39.564,37.802,39.564,37.923"/>
	<path style="clip-path:url(#SVGID_2_);fill:#FFFFFF;" d="M35.629,39.233c0,0.121-0.098,0.219-0.219,0.219
		c-0.12,0-0.218-0.098-0.218-0.219c0-0.12,0.098-0.219,0.218-0.219C35.531,39.015,35.629,39.113,35.629,39.233"/>
	<path style="clip-path:url(#SVGID_2_);fill:#FFFFFF;" d="M36.283,38.578c0,0.121-0.098,0.219-0.219,0.219
		c-0.119,0-0.217-0.098-0.217-0.219s0.098-0.219,0.217-0.219C36.186,38.359,36.283,38.457,36.283,38.578"/>
	<path style="clip-path:url(#SVGID_2_);fill:#FFFFFF;" d="M36.941,39.233c0,0.121-0.099,0.219-0.221,0.219
		c-0.119,0-0.219-0.098-0.219-0.219c0-0.12,0.1-0.219,0.219-0.219C36.843,39.015,36.941,39.113,36.941,39.233"/>
	<path style="clip-path:url(#SVGID_2_);fill:#FFFFFF;" d="M37.596,38.578c0,0.121-0.098,0.219-0.219,0.219s-0.218-0.098-0.218-0.219
		s0.097-0.219,0.218-0.219S37.596,38.457,37.596,38.578"/>
	<path style="clip-path:url(#SVGID_2_);fill:#FFFFFF;" d="M38.251,39.233c0,0.121-0.097,0.219-0.217,0.219
		c-0.122,0-0.219-0.098-0.219-0.219c0-0.12,0.097-0.219,0.219-0.219C38.154,39.015,38.251,39.113,38.251,39.233"/>
	<path style="clip-path:url(#SVGID_2_);fill:#FFFFFF;" d="M38.908,38.578c0,0.121-0.098,0.219-0.219,0.219s-0.218-0.098-0.218-0.219
		s0.097-0.219,0.218-0.219S38.908,38.457,38.908,38.578"/>
	<path style="clip-path:url(#SVGID_2_);fill:#FFFFFF;" d="M39.564,39.233c0,0.121-0.098,0.219-0.219,0.219
		c-0.122,0-0.218-0.098-0.218-0.219c0-0.12,0.096-0.219,0.218-0.219C39.467,39.015,39.564,39.113,39.564,39.233"/>
	<path style="clip-path:url(#SVGID_2_);fill:#FFFFFF;" d="M36.283,39.89c0,0.12-0.098,0.219-0.219,0.219
		c-0.119,0-0.217-0.099-0.217-0.219c0-0.121,0.098-0.219,0.217-0.219C36.186,39.671,36.283,39.769,36.283,39.89"/>
	<path style="clip-path:url(#SVGID_2_);fill:#FFFFFF;" d="M36.941,40.546c0,0.121-0.099,0.218-0.221,0.218
		c-0.119,0-0.219-0.097-0.219-0.218s0.1-0.219,0.219-0.219C36.843,40.327,36.941,40.425,36.941,40.546"/>
	<path style="clip-path:url(#SVGID_2_);fill:#FFFFFF;" d="M37.596,39.89c0,0.12-0.098,0.219-0.219,0.219s-0.218-0.099-0.218-0.219
		c0-0.121,0.097-0.219,0.218-0.219S37.596,39.769,37.596,39.89"/>
	<path style="clip-path:url(#SVGID_2_);fill:#FFFFFF;" d="M38.251,40.546c0,0.121-0.097,0.218-0.217,0.218
		c-0.122,0-0.219-0.097-0.219-0.218s0.097-0.219,0.219-0.219C38.154,40.327,38.251,40.425,38.251,40.546"/>
	<path style="clip-path:url(#SVGID_2_);fill:#FFFFFF;" d="M38.908,39.89c0,0.12-0.098,0.219-0.219,0.219s-0.218-0.099-0.218-0.219
		c0-0.121,0.097-0.219,0.218-0.219S38.908,39.769,38.908,39.89"/>
	<path style="clip-path:url(#SVGID_2_);fill:#FFFFFF;" d="M39.564,40.546c0,0.121-0.098,0.218-0.219,0.218
		c-0.122,0-0.218-0.097-0.218-0.218s0.096-0.219,0.218-0.219C39.467,40.327,39.564,40.425,39.564,40.546"/>
	<path style="clip-path:url(#SVGID_2_);fill:#FFFFFF;" d="M36.941,41.856c0,0.12-0.099,0.22-0.221,0.22
		c-0.119,0-0.219-0.1-0.219-0.22c0-0.121,0.1-0.217,0.219-0.217C36.843,41.64,36.941,41.735,36.941,41.856"/>
	<path style="clip-path:url(#SVGID_2_);fill:#FFFFFF;" d="M37.596,41.201c0,0.121-0.098,0.219-0.219,0.219s-0.218-0.098-0.218-0.219
		c0-0.12,0.097-0.219,0.218-0.219S37.596,41.081,37.596,41.201"/>
	<path style="clip-path:url(#SVGID_2_);fill:#FFFFFF;" d="M38.251,41.856c0,0.12-0.097,0.22-0.217,0.22
		c-0.122,0-0.219-0.1-0.219-0.22c0-0.121,0.097-0.217,0.219-0.217C38.154,41.64,38.251,41.735,38.251,41.856"/>
	<path style="clip-path:url(#SVGID_2_);fill:#FFFFFF;" d="M38.908,41.201c0,0.121-0.098,0.219-0.219,0.219s-0.218-0.098-0.218-0.219
		c0-0.12,0.097-0.219,0.218-0.219S38.908,41.081,38.908,41.201"/>
	<path style="clip-path:url(#SVGID_2_);fill:#FFFFFF;" d="M39.564,41.856c0,0.12-0.098,0.22-0.219,0.22
		c-0.122,0-0.218-0.1-0.218-0.22c0-0.121,0.096-0.217,0.218-0.217C39.467,41.64,39.564,41.735,39.564,41.856"/>
	<path style="clip-path:url(#SVGID_2_);fill:#FFFFFF;" d="M38.908,42.513c0,0.121-0.098,0.219-0.219,0.219s-0.218-0.098-0.218-0.219
		c0-0.12,0.097-0.219,0.218-0.219S38.908,42.393,38.908,42.513"/>
	<path style="clip-path:url(#SVGID_2_);fill:#FFFFFF;" d="M39.564,43.168c0,0.12-0.098,0.219-0.219,0.219
		c-0.122,0-0.218-0.099-0.218-0.219c0-0.119,0.096-0.219,0.218-0.219C39.467,42.949,39.564,43.049,39.564,43.168"/>
	<path style="clip-path:url(#SVGID_2_);fill:#FFFFFF;" d="M44.285,15.934v-0.403c-0.416-0.029-0.747-0.362-0.778-0.777h-0.403
		c-0.029,0.415-0.361,0.748-0.776,0.777v0.403c0.415,0.031,0.747,0.363,0.776,0.778h0.403
		C43.538,16.297,43.869,15.965,44.285,15.934 M43.611,15.781c-0.1,0.073-0.185,0.159-0.258,0.255l-0.047,0.065l-0.05-0.065
		c-0.071-0.096-0.157-0.182-0.254-0.255l-0.064-0.049l0.064-0.048c0.097-0.072,0.183-0.158,0.254-0.255l0.05-0.065l0.047,0.065
		c0.073,0.097,0.16,0.183,0.256,0.255l0.066,0.048L43.611,15.781z"/>
	<path style="clip-path:url(#SVGID_2_);fill:#FFFFFF;" d="M5.832,18.572v-0.538c-0.605-0.058-1.09-0.541-1.147-1.148H4.147
		C4.089,17.493,3.606,17.977,3,18.034v0.538c0.606,0.057,1.089,0.541,1.147,1.147h0.538C4.742,19.113,5.227,18.629,5.832,18.572
		 M4.883,18.399c-0.141,0.104-0.264,0.229-0.37,0.371L4.415,18.9l-0.094-0.13c-0.107-0.142-0.232-0.267-0.373-0.371L3.82,18.303
		l0.128-0.096c0.141-0.105,0.266-0.23,0.373-0.371l0.094-0.13l0.098,0.13c0.104,0.141,0.229,0.266,0.37,0.371l0.13,0.096
		L4.883,18.399z"/>
	<path style="clip-path:url(#SVGID_2_);fill:#FFFFFF;" d="M28.358,45.612v-0.373c-0.39-0.029-0.7-0.341-0.729-0.73h-0.373
		c-0.027,0.39-0.341,0.701-0.729,0.73v0.373c0.389,0.029,0.702,0.34,0.729,0.729h0.373C27.658,45.952,27.969,45.642,28.358,45.612
		 M27.73,45.474c-0.091,0.068-0.173,0.148-0.24,0.239l-0.049,0.064l-0.047-0.064c-0.068-0.091-0.147-0.171-0.24-0.239l-0.063-0.048
		l0.063-0.048c0.093-0.068,0.172-0.148,0.24-0.239l0.047-0.065l0.049,0.065c0.067,0.092,0.149,0.171,0.24,0.239l0.063,0.048
		L27.73,45.474z"/>
</g>
</svg>
