<?xml version="1.0" encoding="iso-8859-1"?>
<!-- Generator: Adobe Illustrator 15.1.0, SVG Export Plug-In . SVG Version: 6.00 Build 0)  -->
<!DOCTYPE svg PUBLIC "-//W3C//DTD SVG 1.1//EN" "http://www.w3.org/Graphics/SVG/1.1/DTD/svg11.dtd">
<svg version="1.1" id="Layer_1" xmlns="http://www.w3.org/2000/svg" xmlns:xlink="http://www.w3.org/1999/xlink" x="0px" y="0px"
	 width="50px" height="50px" viewBox="0 0 50 50" style="enable-background:new 0 0 50 50;" xml:space="preserve">
<g>
	<defs>
		<rect id="SVGID_1_" width="50" height="50"/>
	</defs>
	<clipPath id="SVGID_2_">
		<use xlink:href="#SVGID_1_"  style="overflow:visible;"/>
	</clipPath>
	<path style="clip-path:url(#SVGID_2_);fill:#FFFFFF;" d="M30.883,16.727v1.183c-1.522-1.145-3.38-1.772-5.295-1.772
		c-2.105,0-4.146,0.757-5.744,2.131l0.381,0.445c1.494-1.281,3.398-1.987,5.363-1.987c1.682,0,3.315,0.52,4.688,1.471h-0.863v0.588
		h1.766c0.164,0,0.295-0.132,0.295-0.294v-1.765H30.883z"/>
	<path style="clip-path:url(#SVGID_2_);fill:#FFFFFF;" d="M30.951,31.211c-1.492,1.282-3.396,1.988-5.363,1.988
		c-1.679,0-3.313-0.521-4.686-1.472h0.863V31.14H20c-0.164,0-0.295,0.133-0.295,0.294v1.766h0.588v-1.182
		c1.524,1.143,3.382,1.77,5.295,1.77c2.107,0,4.148-0.757,5.748-2.13L30.951,31.211z"/>
	<path style="clip-path:url(#SVGID_2_);fill:#FFFFFF;" d="M24.485,46.779L24.485,46.779l-0.31-0.007l0.013-0.62l0.309,0.006v-0.001
		l0.311,0.007l-0.013,0.621L24.485,46.779z M25.654,46.151l0.622-0.029l0.029,0.62l-0.62,0.03L25.654,46.151z M22.976,46.697
		l-0.31-0.028l0.055-0.618l0.62,0.055l-0.056,0.618L22.976,46.697z M27.12,46.051l0.618-0.073l0.072,0.616l-0.617,0.073
		L27.12,46.051z M21.475,46.511l-0.306-0.049l0.097-0.613l0.615,0.098l-0.099,0.614L21.475,46.511z M19.991,46.22l-0.302-0.069
		l0.14-0.604l0.605,0.141l-0.141,0.604L19.991,46.22z M18.53,45.828l-0.297-0.091l0.181-0.594l0.595,0.181l-0.183,0.595
		L18.53,45.828z M31.428,45.153l0.59-0.195l0.198,0.588l-0.59,0.196L31.428,45.153z M17.1,45.335l-0.289-0.111l0.222-0.58
		l0.58,0.223l-0.222,0.58L17.1,45.335z M32.813,44.66l0.573-0.237l0.237,0.575l-0.575,0.236L32.813,44.66z M15.708,44.744
		l-0.282-0.13l0.263-0.563l0.562,0.262l-0.262,0.563L15.708,44.744z M34.157,44.073l0.558-0.277l0.274,0.556l-0.276,0.14V44.49
		l-0.279,0.139L34.157,44.073z M14.36,44.061l-0.273-0.15l0.302-0.543l0.271,0.15l0.272,0.149l-0.301,0.543L14.36,44.061z
		 M35.457,43.394l0.536-0.314l0.314,0.537l-0.536,0.313L35.457,43.394z M13.063,43.285l-0.262-0.168l0.337-0.521l0.521,0.336
		l-0.335,0.522L13.063,43.285z M36.708,42.626l0.258-0.176l0.255-0.175l0.351,0.513l-0.513,0.351L36.708,42.626z M11.82,42.423
		L11.82,42.423l-0.248-0.185l0.372-0.499l0.496,0.372l-0.371,0.498L11.82,42.423z M37.902,41.773l0.489-0.385l0.383,0.486
		l-0.487,0.386L37.902,41.773z M10.642,41.479l-0.236-0.202l0.405-0.474l0.471,0.406l-0.406,0.471L10.642,41.479z M9.529,40.455
		L9.529,40.455l-0.222-0.218l0.437-0.441l0.441,0.435L9.75,40.673L9.529,40.455z M8.49,39.359l-0.206-0.233l0.466-0.412l0.41,0.467
		l-0.463,0.411L8.49,39.359z M7.53,38.192l-0.191-0.246l0.493-0.379l0.378,0.493l-0.492,0.378L7.53,38.192z M6.653,36.965
		L6.653,36.965l-0.173-0.26l0.517-0.344l0.171,0.259l0.173,0.258l-0.517,0.345L6.653,36.965z M5.861,35.678l-0.154-0.271l0.54-0.305
		l0.306,0.539l-0.539,0.307L5.861,35.678z M5.16,34.34l-0.133-0.28l0.56-0.27l0.269,0.562l-0.561,0.268L5.16,34.34z M4.555,32.954
		l-0.114-0.287l0.577-0.229l0.228,0.577l-0.575,0.229L4.555,32.954z M44.85,32.476l0.108-0.293h-0.002l0.107-0.29l0.583,0.214
		l-0.106,0.292l-0.107,0.292L44.85,32.476z M4.047,31.531l-0.096-0.295l0.594-0.188l0.187,0.591l-0.591,0.188L4.047,31.531z
		 M45.33,31.087l0.172-0.596l0.596,0.173l-0.173,0.596L45.33,31.087z M3.638,30.076L3.638,30.076l-0.073-0.301l0.602-0.147
		l0.148,0.604l-0.603,0.147L3.638,30.076z M45.711,29.668l0.133-0.608l0.605,0.133l-0.133,0.606L45.711,29.668z M3.334,28.631
		l-0.002,0.002l-0.057-0.341H3.28l-0.045-0.273l0.612-0.098l0.094,0.571l0.053,0.305l-0.612,0.105L3.334,28.631z M45.993,28.226
		l0.09-0.616l0.615,0.09l-0.088,0.615L45.993,28.226z M3.094,26.827l-0.028-0.31l0.62-0.058l0.055,0.618l-0.619,0.057L3.094,26.827z
		 M46.175,26.769l0.023-0.31l0.025-0.311l0.618,0.047l-0.023,0.31l-0.023,0.31L46.175,26.769z M3.008,25.316L3.008,25.316L3,25.006
		l0.621-0.014l0.016,0.621l-0.622,0.015L3.008,25.316z M46.256,25.302l0.004-0.621l0.622,0.003l-0.004,0.621L46.256,25.302z
		 M3.011,24.116l0.029-0.621l0.62,0.029l-0.014,0.31l-0.014,0.311L3.011,24.116z M46.216,23.523L46.216,23.523l-0.021-0.31
		l0.62-0.04l0.042,0.621l-0.62,0.039L46.216,23.523z M3.112,22.608l0.072-0.617l0.618,0.072L3.729,22.68L3.112,22.608z
		 M46.072,22.06l-0.041-0.307l0.616-0.081l0.04,0.307l0.041,0.309l-0.616,0.081L46.072,22.06z M3.317,21.109l0.058-0.305
		l0.058-0.306l0.61,0.114l-0.115,0.612L3.317,21.109z M45.831,20.612L45.831,20.612l-0.063-0.305l0.607-0.123l0.124,0.609
		l-0.609,0.123L45.831,20.612z M3.625,19.628l0.158-0.602l0.602,0.157l-0.08,0.3l-0.077,0.301L3.625,19.628z M4.038,18.172
		l0.099-0.295v0.001l0.1-0.294l0.587,0.198l-0.196,0.589L4.038,18.172z M44.521,16.414l-0.122-0.286l0.571-0.246l0.245,0.571
		l-0.57,0.245L44.521,16.414z M43.895,15.085L43.895,15.085l-0.142-0.276l0.552-0.285l0.284,0.553l-0.552,0.285L43.895,15.085z
		 M43.18,13.806l-0.162-0.266l0.53-0.322l0.322,0.532l-0.53,0.321L43.18,13.806z M6.65,12.736l0.174-0.257l0.175-0.256l0.513,0.35
		l-0.349,0.514L6.65,12.736z M42.376,12.577l-0.18-0.254l0.509-0.357l0.357,0.507l-0.507,0.357L42.376,12.577z M7.526,11.506
		l0.192-0.244l0.192-0.244l0.488,0.385L8.014,11.89L7.526,11.506z M41.489,11.409l-0.196-0.242l0.482-0.393l0.195,0.242l0.196,0.241
		l-0.481,0.39L41.489,11.409z M8.487,10.339l0.417-0.461l0.46,0.417l-0.417,0.46L8.487,10.339z M40.523,10.302L40.523,10.302
		l-0.212-0.228l0.455-0.423l0.21,0.227V9.877l0.213,0.226l-0.453,0.426L40.523,10.302z M9.521,9.238l0.449-0.429l0.43,0.447
		l-0.448,0.43L9.521,9.238z M39.484,9.265l-0.227-0.213l0.423-0.455l0.455,0.425l-0.425,0.454L39.484,9.265z M10.633,8.213
		l0.476-0.398l0.399,0.476L11.271,8.49l-0.239,0.199L10.633,8.213z M38.375,8.301l-0.24-0.197l0.392-0.482l0.483,0.392l-0.392,0.481
		L38.375,8.301z M11.811,7.267l0.25-0.181V7.085l0.253-0.183l0.365,0.503l-0.252,0.182L12.176,7.77L11.811,7.267z M37.205,7.414
		l-0.254-0.178l0.357-0.508l0.254,0.179l0.254,0.179l-0.358,0.506L37.205,7.414z M13.05,6.405l0.526-0.329l0.33,0.527l-0.263,0.164
		l-0.262,0.166L13.05,6.405z M35.975,6.611h0.002l-0.268-0.162l0.323-0.53l0.53,0.321L36.24,6.772L35.975,6.611z M14.347,5.63
		l0.549-0.292l0.291,0.549l-0.548,0.292L14.347,5.63z M34.693,5.892L34.418,5.75l0.284-0.55l0.552,0.284L34.97,6.035L34.693,5.892z
		 M15.696,4.947l0.282-0.127l0.284-0.127l0.254,0.569l-0.567,0.254L15.696,4.947z M33.364,5.266L33.08,5.142l0.246-0.57l0.57,0.245
		L33.65,5.389L33.364,5.266z M17.087,4.359l0.585-0.213l0.212,0.581l-0.583,0.215L17.087,4.359z M31.996,4.729l-0.291-0.101
		l0.205-0.587l0.586,0.207l-0.207,0.585L31.996,4.729z M18.517,3.868l0.597-0.172l0.174,0.597L18.69,4.466L18.517,3.868z
		 M30.596,4.291l-0.301-0.083l0.166-0.6l0.599,0.166l-0.166,0.599L30.596,4.291z M19.977,3.477l0.607-0.132l0.132,0.608
		l-0.608,0.132L19.977,3.477z M29.164,3.949L28.86,3.888l0.122-0.61l0.306,0.063l0.304,0.061l-0.122,0.61L29.164,3.949z
		 M21.462,3.186l0.306-0.044l0.307-0.045l0.09,0.613L21.55,3.802L21.462,3.186z M27.715,3.708l-0.308-0.041l0.081-0.615l0.615,0.081
		l-0.079,0.615L27.715,3.708z M22.958,2.997l0.31-0.023l0.311-0.025l0.048,0.62l-0.31,0.024l-0.31,0.024L22.958,2.997z
		 M26.253,3.568l-0.309-0.019l0.037-0.619l0.31,0.018l0.31,0.019l-0.036,0.619L26.253,3.568z M24.47,2.913l0.62-0.007l0.006,0.62
		l-0.622,0.007L24.47,2.913z"/>
	<path style="clip-path:url(#SVGID_2_);fill:#FFFFFF;" d="M18.357,20.202c-2.066,0.081-3.645,0.98-3.645,2.119v5.466
		c0,1.191,1.733,2.127,3.948,2.127c2.216,0,3.948-0.936,3.948-2.127v-5.466c0-1.139-1.578-2.038-3.644-2.119 M22.003,27.787
		c0,0.719-1.374,1.519-3.343,1.519c-1.969,0-3.341-0.8-3.341-1.519V27.11c0.693,0.593,1.917,0.98,3.341,0.98
		c1.426,0,2.649-0.388,3.343-0.98V27.787z M22.003,25.966c0,0.718-1.374,1.518-3.343,1.518c-1.969,0-3.341-0.8-3.341-1.518v-0.678
		c0.693,0.593,1.917,0.981,3.341,0.981c1.426,0,2.649-0.389,3.343-0.981V25.966z M22.003,24.143c0,0.717-1.374,1.519-3.343,1.519
		c-1.969,0-3.341-0.802-3.341-1.519v-0.677c0.693,0.592,1.917,0.98,3.341,0.98c1.426,0,2.649-0.388,3.343-0.98V24.143z
		 M22.003,22.321c0,0.717-1.374,1.519-3.343,1.519c-1.969,0-3.341-0.802-3.341-1.519c0-0.682,1.233-1.436,3.038-1.513h0.607
		C20.768,20.885,22.003,21.639,22.003,22.321"/>
	<path style="clip-path:url(#SVGID_2_);fill:#FFFFFF;" d="M47,36.381v-2.33c0-0.147-0.118-0.267-0.265-0.267h-7.873
		c-0.147,0-0.266,0.119-0.266,0.267v2.33c0,0.181,0.006,0.363,0.018,0.545c0.068,1.04,0.336,2.052,0.795,3.003l0.02,0.039
		c0.007,0.016,0.013,0.03,0.02,0.045c0.055,0.107,0.111,0.211,0.175,0.326l0.021,0.039c0.021,0.042,0.045,0.085,0.07,0.126
		c0.005,0.012,0.013,0.023,0.018,0.036c0.008,0.013,0.015,0.025,0.021,0.038l0.439,0.654c0.672,0.916,1.503,1.667,2.472,2.231
		c0.081,0.048,0.187,0.048,0.268,0C45.443,42,47,39.287,47,36.381 M42.831,42.905l-0.033,0.021l-0.032-0.021
		c-0.914-0.565-1.689-1.312-2.305-2.216c-0.066-0.099-0.131-0.197-0.192-0.298l-0.021-0.037c-0.032-0.05-0.063-0.102-0.094-0.154
		c-0.05-0.086-0.097-0.175-0.144-0.264l-0.032-0.063c-0.029-0.055-0.06-0.109-0.087-0.166c-0.021-0.044-0.041-0.09-0.061-0.136
		l-0.029-0.067c-0.088-0.197-0.169-0.398-0.237-0.594c-0.007-0.02-0.015-0.039-0.021-0.058c-0.011-0.027-0.02-0.052-0.028-0.08
		c-0.034-0.105-0.065-0.211-0.096-0.317l-0.009-0.036c-0.016-0.054-0.03-0.107-0.045-0.162c-0.025-0.099-0.047-0.198-0.068-0.298
		c-0.019-0.08-0.032-0.161-0.047-0.242c-0.017-0.09-0.032-0.18-0.045-0.27c-0.015-0.104-0.025-0.208-0.034-0.312l-0.007-0.066
		c-0.006-0.049-0.011-0.099-0.015-0.147c-0.015-0.201-0.02-0.378-0.02-0.542v-2.064h7.341v2.064
		C46.47,39.018,45.074,41.517,42.831,42.905"/>
	<path style="clip-path:url(#SVGID_2_);fill:#FFFFFF;" d="M44.862,36.858l-2.392,2.394l-1.08-1.082l-0.376,0.375l1.268,1.271
		c0.101,0.1,0.275,0.1,0.376,0l2.58-2.581L44.862,36.858z"/>
	<rect x="39.907" y="35.097" style="clip-path:url(#SVGID_2_);fill:#FFFFFF;" width="0.532" height="0.531"/>
	<rect x="41.222" y="35.097" style="clip-path:url(#SVGID_2_);fill:#FFFFFF;" width="0.53" height="0.531"/>
	<rect x="42.532" y="35.097" style="clip-path:url(#SVGID_2_);fill:#FFFFFF;" width="0.532" height="0.531"/>
	<rect x="43.845" y="35.097" style="clip-path:url(#SVGID_2_);fill:#FFFFFF;" width="0.532" height="0.531"/>
	<rect x="45.157" y="35.097" style="clip-path:url(#SVGID_2_);fill:#FFFFFF;" width="0.532" height="0.531"/>
	<path style="clip-path:url(#SVGID_2_);fill:#FFFFFF;" d="M34.279,27.731c0.318-0.114,0.601-0.253,0.842-0.411
		C34.815,27.408,34.531,27.55,34.279,27.731"/>
	<path style="clip-path:url(#SVGID_2_);fill:#FFFFFF;" d="M32.061,29.306c-1.969,0-3.341-0.8-3.341-1.519V27.11
		c0.692,0.593,1.915,0.98,3.341,0.98c0.596,0,1.154-0.067,1.656-0.19c0.435-0.461,1.014-0.784,1.665-0.894v-0.482
		c-0.047-0.043-0.088-0.093-0.124-0.146c-0.399,0.581-1.603,1.104-3.197,1.104c-1.969,0-3.341-0.8-3.341-1.518v-0.678
		c0.692,0.593,1.915,0.981,3.341,0.981s2.648-0.389,3.341-0.981v0.111c0.13-0.109,0.297-0.175,0.479-0.175
		c0.043,0,0.088,0.006,0.129,0.012v-2.916c0-1.138-1.578-2.038-3.645-2.119h-0.607c-2.065,0.081-3.645,0.981-3.645,2.119v5.466
		c0,1.191,1.735,2.127,3.948,2.127c0.29,0,0.572-0.017,0.842-0.047c0.004-0.215,0.034-0.423,0.083-0.624
		C32.695,29.284,32.386,29.306,32.061,29.306 M31.757,20.809h0.607c1.806,0.077,3.037,0.831,3.037,1.512
		c0,0.717-1.372,1.519-3.341,1.519s-3.341-0.802-3.341-1.519C28.72,21.64,29.953,20.886,31.757,20.809 M28.72,23.466
		c0.692,0.593,1.915,0.98,3.341,0.98s2.648-0.387,3.341-0.98v0.678c0,0.717-1.372,1.518-3.341,1.518s-3.341-0.801-3.341-1.518
		V23.466z"/>
	<path style="clip-path:url(#SVGID_2_);fill:#FFFFFF;" d="M35.382,29.944c0,0.039,0.005,0.075,0.014,0.111l-1.189,0.65l0.118,0.217
		l1.187-0.646c0.092,0.101,0.221,0.165,0.369,0.165c0.273,0,0.496-0.222,0.496-0.497c0-0.23-0.158-0.424-0.372-0.479v-1.507h-0.008
		c-0.028,0.208-0.111,0.408-0.24,0.594v0.913C35.542,29.521,35.382,29.714,35.382,29.944 M36.128,29.944
		c0,0.138-0.111,0.249-0.248,0.249s-0.248-0.111-0.248-0.249c0-0.137,0.111-0.248,0.248-0.248S36.128,29.808,36.128,29.944"/>
	<path style="clip-path:url(#SVGID_2_);fill:#FFFFFF;" d="M35.756,27.958v0.594c0.129-0.186,0.212-0.386,0.24-0.594H35.756z"/>
	<path style="clip-path:url(#SVGID_2_);fill:#FFFFFF;" d="M39.533,30.938l0.868-0.87H38.36c0.002-0.041,0.002-0.083,0.002-0.124
		c0-1.325-1.044-2.408-2.354-2.477v0.248c1.174,0.068,2.106,1.04,2.106,2.229c0,0.041-0.003,0.083-0.007,0.124h-0.365v1.107
		c-0.417,0.63-1.109,1.005-1.862,1.005c-1.233,0-2.237-1.003-2.237-2.236c0-0.069,0.006-0.138,0.011-0.206
		c-0.082,0.021-0.165,0.037-0.251,0.054c-0.002,0.051-0.008,0.102-0.008,0.152c0,1.37,1.115,2.485,2.485,2.485
		c0.723,0,1.395-0.312,1.862-0.847v1.146l0.87-0.869l0.993,0.994l0.922-0.922L39.533,30.938z M38.612,31.508l-0.622,0.621v-1.812
		h1.813l-0.622,0.621l0.993,0.993l-0.568,0.57L38.612,31.508z"/>
	<path style="clip-path:url(#SVGID_2_);fill:#FFFFFF;" d="M35.401,27.762v-0.254c-0.876,0.171-1.586,0.805-1.872,1.635
		c0.103-0.023,0.2-0.05,0.295-0.078C34.106,28.411,34.691,27.917,35.401,27.762"/>
	<path style="clip-path:url(#SVGID_2_);fill:#FFFFFF;" d="M33.824,29.064c-0.095,0.028-0.192,0.055-0.295,0.078
		c-0.069,0.206-0.113,0.424-0.127,0.65c0.086-0.018,0.169-0.034,0.251-0.055C33.676,29.502,33.734,29.274,33.824,29.064"/>
	<path style="clip-path:url(#SVGID_2_);fill:#FFFFFF;" d="M35.401,27.508v0.254c0.154-0.033,0.314-0.052,0.479-0.052
		c0.042,0,0.085,0.003,0.128,0.006v-0.248c-0.043-0.003-0.086-0.007-0.128-0.007C35.716,27.461,35.556,27.478,35.401,27.508"/>
	<rect x="38.486" y="29.075" style="clip-path:url(#SVGID_2_);fill:#FFFFFF;" width="0.25" height="0.497"/>
	
		<rect x="37.221" y="29.673" transform="matrix(0.7081 0.7061 -0.7061 0.7081 31.9782 -17.7602)" style="clip-path:url(#SVGID_2_);fill:#FFFFFF;" width="0.498" height="0.248"/>
	<rect x="36.75" y="30.814" style="clip-path:url(#SVGID_2_);fill:#FFFFFF;" width="0.496" height="0.247"/>
	
		<rect x="37.346" y="31.831" transform="matrix(-0.7071 -0.7071 0.7071 -0.7071 41.2811 81.2584)" style="clip-path:url(#SVGID_2_);fill:#FFFFFF;" width="0.247" height="0.498"/>
	<rect x="38.486" y="32.305" style="clip-path:url(#SVGID_2_);fill:#FFFFFF;" width="0.25" height="0.497"/>
	<rect x="39.978" y="30.815" style="clip-path:url(#SVGID_2_);fill:#FFFFFF;" width="0.498" height="0.248"/>
	
		<rect x="39.629" y="29.549" transform="matrix(0.7071 0.7071 -0.7071 0.7071 32.7131 -19.3826)" style="clip-path:url(#SVGID_2_);fill:#FFFFFF;" width="0.249" height="0.496"/>
	<path style="clip-path:url(#SVGID_2_);fill:#FFFFFF;" d="M32.898,29.944c0,1.644,1.338,2.981,2.981,2.981
		c0.453,0,0.89-0.101,1.296-0.297l-0.107-0.224c-0.374,0.181-0.774,0.272-1.188,0.272c-1.507,0-2.733-1.227-2.733-2.733
		c0-0.037,0.002-0.073,0.002-0.11c-0.081,0.013-0.162,0.023-0.246,0.033C32.902,29.894,32.898,29.918,32.898,29.944"/>
	<path style="clip-path:url(#SVGID_2_);fill:#FFFFFF;" d="M34.279,27.731c-0.178,0.063-0.365,0.121-0.562,0.169
		c-0.354,0.372-0.608,0.831-0.732,1.343c0.09-0.012,0.178-0.026,0.266-0.041C33.42,28.604,33.789,28.087,34.279,27.731"/>
	<path style="clip-path:url(#SVGID_2_);fill:#FFFFFF;" d="M35.401,27.11c-0.086,0.072-0.18,0.143-0.28,0.21
		c0.093-0.027,0.185-0.049,0.28-0.064V27.11z"/>
	<path style="clip-path:url(#SVGID_2_);fill:#FFFFFF;" d="M36.376,25.971c0,0.229-0.156,0.42-0.367,0.478v0.256
		c0.042-0.007,0.081-0.018,0.119-0.031v0.303c-0.04-0.003-0.079-0.003-0.119-0.005v0.246c1.047,0.05,1.973,0.688,2.386,1.659
		l0.229-0.099c-0.402-0.945-1.257-1.604-2.247-1.77v-0.483c0.152-0.137,0.248-0.333,0.248-0.554c0-0.366-0.267-0.671-0.615-0.733
		v0.256C36.22,25.551,36.376,25.742,36.376,25.971"/>
	<path style="clip-path:url(#SVGID_2_);fill:#FFFFFF;" d="M35.382,25.971c0-0.045,0.009-0.088,0.02-0.13v-0.441
		c-0.165,0.137-0.268,0.343-0.268,0.571c0,0.151,0.047,0.291,0.124,0.408c0.07-0.104,0.116-0.208,0.135-0.313
		C35.385,26.036,35.382,26.003,35.382,25.971"/>
	<path style="clip-path:url(#SVGID_2_);fill:#FFFFFF;" d="M35.88,26.965c-0.085,0-0.167,0.004-0.248,0.011v-0.303
		c0.077,0.028,0.16,0.043,0.248,0.043c0.045,0,0.088-0.004,0.129-0.012v-0.256c-0.041,0.012-0.084,0.019-0.129,0.019
		c-0.241,0-0.442-0.172-0.487-0.4c-0.019,0.104-0.064,0.209-0.135,0.313c0.036,0.053,0.077,0.103,0.124,0.146v0.482
		c-0.651,0.109-1.23,0.433-1.665,0.894c0.197-0.048,0.385-0.104,0.563-0.169c0.252-0.182,0.536-0.323,0.842-0.412
		c0.101-0.066,0.194-0.137,0.28-0.209v0.145c0.154-0.027,0.314-0.043,0.479-0.043c0.043,0,0.086,0.003,0.129,0.005v-0.246
		C35.966,26.969,35.923,26.965,35.88,26.965"/>
	<path style="clip-path:url(#SVGID_2_);fill:#FFFFFF;" d="M35.401,25.399v0.441c0.058-0.211,0.25-0.367,0.479-0.367
		c0.044,0,0.087,0.008,0.128,0.02v-0.256c-0.041-0.007-0.086-0.013-0.128-0.013C35.698,25.225,35.531,25.29,35.401,25.399"/>
	<path style="clip-path:url(#SVGID_2_);fill:#FFFFFF;" d="M32.985,29.243c-0.049,0.201-0.078,0.409-0.083,0.624
		c0.084-0.01,0.165-0.02,0.246-0.033c0.009-0.219,0.045-0.43,0.103-0.632C33.163,29.217,33.075,29.231,32.985,29.243"/>
	<path style="clip-path:url(#SVGID_2_);fill:#FFFFFF;" d="M7.133,15.812v-0.559c-0.628-0.058-1.129-0.559-1.188-1.186H5.387
		c-0.058,0.627-0.558,1.128-1.186,1.186v0.559c0.628,0.058,1.128,0.559,1.186,1.186h0.558C6.004,16.371,6.505,15.87,7.133,15.812
		 M6.15,15.633c-0.146,0.107-0.275,0.236-0.384,0.384l-0.099,0.134l-0.1-0.134c-0.109-0.148-0.238-0.277-0.385-0.384l-0.134-0.1
		l0.134-0.1c0.147-0.109,0.276-0.238,0.385-0.385l0.1-0.134l0.099,0.134c0.109,0.147,0.238,0.276,0.384,0.385l0.135,0.1L6.15,15.633
		z"/>
	<path style="clip-path:url(#SVGID_2_);fill:#FFFFFF;" d="M46.788,18.461v-0.418c-0.429-0.031-0.775-0.375-0.806-0.804h-0.414
		c-0.032,0.429-0.376,0.773-0.807,0.804v0.418c0.431,0.029,0.774,0.374,0.807,0.804h0.414C46.013,18.835,46.359,18.49,46.788,18.461
		 M46.089,18.302c-0.101,0.075-0.191,0.163-0.265,0.264l-0.048,0.067l-0.051-0.067c-0.073-0.1-0.164-0.189-0.265-0.264l-0.066-0.051
		l0.066-0.049c0.101-0.075,0.188-0.164,0.265-0.264l0.051-0.068l0.048,0.068c0.075,0.1,0.164,0.189,0.265,0.264l0.066,0.049
		L46.089,18.302z"/>
	<path style="clip-path:url(#SVGID_2_);fill:#FFFFFF;" d="M30.727,46.338v-0.386c-0.401-0.03-0.725-0.353-0.755-0.756h-0.385
		c-0.031,0.403-0.354,0.726-0.757,0.756v0.386c0.402,0.03,0.726,0.353,0.757,0.756h0.385C30.002,46.69,30.325,46.368,30.727,46.338
		 M30.077,46.194c-0.095,0.07-0.178,0.153-0.248,0.248l-0.05,0.065l-0.051-0.065c-0.07-0.094-0.152-0.178-0.248-0.248l-0.066-0.05
		l0.066-0.05c0.096-0.07,0.178-0.153,0.248-0.247l0.051-0.066l0.05,0.066c0.07,0.095,0.153,0.177,0.248,0.247l0.067,0.05
		L30.077,46.194z"/>
</g>
</svg>
