<?xml version="1.0" encoding="iso-8859-1"?>
<!-- Generator: Adobe Illustrator 15.1.0, SVG Export Plug-In . SVG Version: 6.00 Build 0)  -->
<!DOCTYPE svg PUBLIC "-//W3C//DTD SVG 1.1//EN" "http://www.w3.org/Graphics/SVG/1.1/DTD/svg11.dtd">
<svg version="1.1" id="Layer_1" xmlns="http://www.w3.org/2000/svg" xmlns:xlink="http://www.w3.org/1999/xlink" x="0px" y="0px"
	 width="50px" height="50px" viewBox="0 0 50 50" style="enable-background:new 0 0 50 50;" xml:space="preserve">
<g>
	<defs>
		<rect id="SVGID_1_" width="50" height="50"/>
	</defs>
	<clipPath id="SVGID_2_">
		<use xlink:href="#SVGID_1_"  style="overflow:visible;"/>
	</clipPath>
	<path style="clip-path:url(#SVGID_2_);fill:#FFFFFF;" d="M12.484,17.742c-0.04,0.088-0.08,0.176-0.121,0.26l0.504,0.222
		c0.062-0.171,0.149-0.344,0.258-0.515l-0.506-0.254C12.574,17.547,12.529,17.644,12.484,17.742"/>
	<path style="clip-path:url(#SVGID_2_);fill:#FFFFFF;" d="M15.277,14.146l-0.076,0.062c-0.139,0.118-0.262,0.219-0.383,0.336
		l0.398,0.399c0.118-0.113,0.258-0.227,0.428-0.344L15.277,14.146z"/>
	<path style="clip-path:url(#SVGID_2_);fill:#FFFFFF;" d="M13.756,16.662c0.01-0.013,0.018-0.025,0.027-0.037l-0.457-0.343
		c-0.07,0.095-0.132,0.198-0.198,0.307c-0.034,0.057-0.07,0.118-0.108,0.177l0.48,0.283C13.58,16.9,13.673,16.774,13.756,16.662"/>
	<path style="clip-path:url(#SVGID_2_);fill:#FFFFFF;" d="M11.555,20.742l0.564,0.086c0.012-0.182,0.065-0.381,0.12-0.576
		l-0.571-0.114C11.615,20.342,11.582,20.547,11.555,20.742"/>
	<path style="clip-path:url(#SVGID_2_);fill:#FFFFFF;" d="M14.219,15.109c-0.15,0.154-0.295,0.326-0.401,0.459l0.459,0.371
		c0.113-0.141,0.23-0.285,0.37-0.43L14.219,15.109z"/>
	<path style="clip-path:url(#SVGID_2_);fill:#FFFFFF;" d="M11.959,19.083c-0.029,0.093-0.058,0.187-0.086,0.285l0.533,0.142
		c0.033-0.174,0.09-0.342,0.171-0.514l-0.534-0.195C12.016,18.898,11.986,18.99,11.959,19.083"/>
	<path style="clip-path:url(#SVGID_2_);fill:#FFFFFF;" d="M12.674,27.17l0.01,0.021c0.082,0.163,0.168,0.331,0.273,0.494
		l0.516-0.288c-0.116-0.173-0.205-0.322-0.287-0.482L12.674,27.17z"/>
	<path style="clip-path:url(#SVGID_2_);fill:#FFFFFF;" d="M11.443,22.217h0.568c0-0.187,0.002-0.395,0.029-0.608l-0.57-0.031
		C11.443,21.791,11.443,22.007,11.443,22.217"/>
	<path style="clip-path:url(#SVGID_2_);fill:#FFFFFF;" d="M12.825,26.183c-0.032-0.097-0.072-0.192-0.11-0.286
		c-0.032-0.074-0.063-0.151-0.091-0.228l-0.544,0.2c0.056,0.158,0.135,0.347,0.226,0.542L12.825,26.183z"/>
	<path style="clip-path:url(#SVGID_2_);fill:#FFFFFF;" d="M11.479,23.057c0.005,0.195,0.032,0.396,0.058,0.59l0.002,0.01
		l0.568-0.086c-0.035-0.208-0.055-0.389-0.059-0.541L11.479,23.057z"/>
	<path style="clip-path:url(#SVGID_2_);fill:#FFFFFF;" d="M11.84,25.067l0.57-0.144c-0.044-0.135-0.105-0.341-0.144-0.539
		l-0.572,0.114c0.029,0.167,0.074,0.321,0.121,0.483C11.823,25.01,11.832,25.038,11.84,25.067"/>
	<path style="clip-path:url(#SVGID_2_);fill:#FFFFFF;" d="M31.584,18.107l-0.517,0.229c0.03,0.087,0.067,0.177,0.103,0.264
		c0.033,0.081,0.068,0.165,0.098,0.249l0.537-0.197c-0.044-0.095-0.082-0.193-0.118-0.291
		C31.654,18.277,31.621,18.189,31.584,18.107"/>
	<path style="clip-path:url(#SVGID_2_);fill:#FFFFFF;" d="M13.768,28.853l0.429-0.401l-0.341-0.43l-0.459,0.346
		c0.104,0.15,0.226,0.305,0.336,0.44L13.768,28.853z"/>
	<path style="clip-path:url(#SVGID_2_);fill:#FFFFFF;" d="M30.902,16.834l-0.484,0.285c0.105,0.156,0.197,0.305,0.287,0.485
		l0.48-0.254l-0.01-0.022C31.094,17.166,31.008,16.998,30.902,16.834"/>
	<path style="clip-path:url(#SVGID_2_);fill:#FFFFFF;" d="M30,16.461l0.459-0.346c-0.105-0.151-0.228-0.304-0.337-0.441
		l-0.036-0.047L29.656,16C29.771,16.172,29.887,16.318,30,16.461"/>
	<path style="clip-path:url(#SVGID_2_);fill:#FFFFFF;" d="M18.469,12.336l0.199,0.541c0.128-0.041,0.256-0.084,0.385-0.127
		l0.127-0.043l-0.143-0.543c-0.099,0.029-0.192,0.058-0.285,0.086C18.658,12.279,18.567,12.307,18.469,12.336"/>
	<path style="clip-path:url(#SVGID_2_);fill:#FFFFFF;" d="M29.556,15.023l-0.429-0.428L28.73,15.02c0.143,0.121,0.281,0.26,0.4,0.4
		L29.556,15.023z"/>
	<path style="clip-path:url(#SVGID_2_);fill:#FFFFFF;" d="M20.443,11.816c-0.094,0.016-0.187,0.035-0.28,0.055
		c-0.106,0.023-0.214,0.047-0.324,0.063l0.115,0.571c0.194-0.027,0.374-0.058,0.577-0.113L20.443,11.816z"/>
	<path style="clip-path:url(#SVGID_2_);fill:#FFFFFF;" d="M28.673,29.543c-0.144,0.14-0.288,0.26-0.428,0.37l0.368,0.424
		c0.17-0.142,0.32-0.263,0.457-0.37L28.673,29.543z"/>
	<path style="clip-path:url(#SVGID_2_);fill:#FFFFFF;" d="M27.32,13.223c-0.09-0.047-0.182-0.1-0.27-0.151
		c-0.08-0.047-0.164-0.095-0.244-0.138l-0.258,0.513c0.084,0.046,0.162,0.096,0.239,0.144c0.079,0.05,0.16,0.102,0.245,0.148
		L27.32,13.223z"/>
	<path style="clip-path:url(#SVGID_2_);fill:#FFFFFF;" d="M27.692,14.147c0.164,0.112,0.309,0.228,0.448,0.339l0.01,0.008
		l0.37-0.426c-0.187-0.156-0.333-0.27-0.485-0.377L27.692,14.147z"/>
	<path style="clip-path:url(#SVGID_2_);fill:#FFFFFF;" d="M25.818,13.116l0.229-0.511c-0.172-0.086-0.349-0.172-0.541-0.232
		l-0.202,0.545C25.475,12.974,25.647,13.035,25.818,13.116"/>
	<path style="clip-path:url(#SVGID_2_);fill:#FFFFFF;" d="M31.646,24.16l0.579,0.115c0.051-0.17,0.081-0.369,0.085-0.567
		l-0.579-0.089c-0.014,0.084-0.027,0.172-0.04,0.26C31.676,23.974,31.662,24.07,31.646,24.16"/>
	<path style="clip-path:url(#SVGID_2_);fill:#FFFFFF;" d="M25.258,31.602c-0.191,0.054-0.363,0.111-0.529,0.168l-0.018,0.005
		l0.144,0.543c0.059-0.017,0.117-0.034,0.173-0.052c0.134-0.039,0.271-0.08,0.43-0.121L25.258,31.602z"/>
	<path style="clip-path:url(#SVGID_2_);fill:#FFFFFF;" d="M31.307,25.482l0.541,0.199l0.171-0.604l-0.54-0.143
		C31.423,25.142,31.363,25.32,31.307,25.482"/>
	<path style="clip-path:url(#SVGID_2_);fill:#FFFFFF;" d="M30.795,26.737l0.514,0.257c0.084-0.165,0.167-0.343,0.231-0.543
		l-0.513-0.23C30.965,26.391,30.885,26.557,30.795,26.737"/>
	<path style="clip-path:url(#SVGID_2_);fill:#FFFFFF;" d="M30.266,27.658c-0.05,0.077-0.101,0.156-0.156,0.231l0.453,0.341
		l0.151-0.227c0.064-0.096,0.129-0.193,0.192-0.289l-0.486-0.287C30.365,27.502,30.314,27.58,30.266,27.658"/>
	<path style="clip-path:url(#SVGID_2_);fill:#FFFFFF;" d="M30.076,28.877l-0.458-0.371c-0.056,0.066-0.116,0.134-0.176,0.199
		c-0.067,0.074-0.136,0.151-0.198,0.227l0.428,0.401c0.066-0.079,0.139-0.159,0.214-0.242
		C29.947,29.023,30.012,28.951,30.076,28.877"/>
	<path style="clip-path:url(#SVGID_2_);fill:#FFFFFF;" d="M20.6,32.648c0.193,0.028,0.396,0.055,0.6,0.059l0.03-0.579
		c-0.092-0.012-0.191-0.019-0.287-0.026c-0.085-0.007-0.173-0.015-0.257-0.023L20.6,32.648z"/>
	<path style="clip-path:url(#SVGID_2_);fill:#FFFFFF;" d="M19.908,31.982c-0.088-0.026-0.183-0.049-0.274-0.07
		c-0.09-0.021-0.183-0.042-0.271-0.068l-0.139,0.541c0.209,0.068,0.397,0.115,0.569,0.145L19.908,31.982z"/>
	<path style="clip-path:url(#SVGID_2_);fill:#FFFFFF;" d="M15.165,29.459c-0.045-0.043-0.089-0.084-0.133-0.125
		c-0.096-0.09-0.189-0.176-0.272-0.272l-0.424,0.397l0.428,0.428L15.165,29.459z"/>
	<path style="clip-path:url(#SVGID_2_);fill:#FFFFFF;" d="M22.662,12.341c0.172,0.005,0.36,0.031,0.543,0.06l0.087-0.571h-0.008
		c-0.194-0.027-0.395-0.054-0.592-0.058L22.662,12.341z"/>
	<path style="clip-path:url(#SVGID_2_);fill:#FFFFFF;" d="M21.283,11.773l0.03,0.568c0.08-0.002,0.165-0.007,0.255-0.015
		c0.104-0.008,0.209-0.016,0.318-0.018v-0.569c-0.1,0.002-0.201,0.01-0.298,0.016C21.488,11.763,21.386,11.771,21.283,11.773"/>
	<path style="clip-path:url(#SVGID_2_);fill:#FFFFFF;" d="M23.361,32.061l0.086,0.57l0.167-0.024c0.14-0.021,0.276-0.04,0.401-0.062
		l-0.114-0.57c-0.136,0.022-0.28,0.045-0.42,0.065L23.361,32.061z"/>
	<path style="clip-path:url(#SVGID_2_);fill:#FFFFFF;" d="M24.672,12.098c-0.214-0.068-0.402-0.116-0.574-0.145l-0.113,0.571
		c0.197,0.035,0.373,0.09,0.542,0.146L24.672,12.098z"/>
	<path style="clip-path:url(#SVGID_2_);fill:#FFFFFF;" d="M22.614,32.146c-0.198,0.025-0.376,0.027-0.572,0.028v0.567
		c0.099-0.002,0.2-0.01,0.298-0.017c0.099-0.007,0.202-0.015,0.304-0.017L22.614,32.146z"/>
	<path style="clip-path:url(#SVGID_2_);fill:#FFFFFF;" d="M32.02,19.451l-0.539,0.143c0.063,0.195,0.113,0.382,0.144,0.543
		l0.541-0.116c-0.028-0.169-0.073-0.324-0.122-0.487L32.02,19.451z"/>
	<path style="clip-path:url(#SVGID_2_);fill:#FFFFFF;" d="M13.322,22.175c0,4.765,3.877,8.642,8.642,8.642
		c4.765,0,8.642-3.877,8.642-8.642s-3.877-8.642-8.642-8.642C17.199,13.533,13.322,17.41,13.322,22.175 M29.092,25.667
		c-0.809,1.753-2.244,3.124-4.043,3.862l-0.135-0.191c0.824-0.91,1.447-2.172,1.852-3.751l0.023-0.091h2.381L29.092,25.667z
		 M29.457,19.543c0.302,0.91,0.455,1.797,0.455,2.632c0,0.84-0.158,1.75-0.455,2.633L29.43,24.89h-2.512l0.024-0.14
		c0.146-0.864,0.222-1.754,0.222-2.575c0.045-0.844-0.032-1.73-0.221-2.569l-0.033-0.147h2.52L29.457,19.543z M25.052,14.775
		c1.798,0.785,3.232,2.156,4.04,3.859l0.081,0.173h-2.384l-0.023-0.091c-0.38-1.482-1.021-2.779-1.854-3.752L25.052,14.775z
		 M22.293,14.21l0.141,0.024c1.591,0.27,2.98,1.967,3.625,4.427l0.04,0.151h-3.807V14.21z M22.293,19.459h3.971l0.021,0.095
		c0.176,0.797,0.27,1.703,0.27,2.621c0,0.916-0.094,1.823-0.27,2.622l-0.021,0.093h-3.971V19.459z M22.293,25.538h3.809
		l-0.043,0.153c-0.704,2.504-2.06,4.158-3.625,4.426l-0.141,0.023V25.538z M14.432,24.814c-0.304-0.779-0.457-1.667-0.457-2.639
		c0-0.968,0.153-1.856,0.456-2.638l0.03-0.078h2.507l-0.025,0.14c-0.144,0.865-0.222,1.754-0.222,2.576
		c0,0.821,0.078,1.711,0.222,2.575l0.025,0.14h-2.507L14.432,24.814z M18.828,29.575c-1.75-0.786-3.183-2.156-4.037-3.859
		l-0.088-0.173h2.389l0.023,0.09c0.382,1.49,1.024,2.789,1.854,3.754L18.828,29.575z M17.373,22.175c0-0.918,0.094-1.824,0.27-2.621
		l0.021-0.095h3.971v5.427h-3.971l-0.021-0.094C17.467,24,17.373,23.093,17.373,22.175 M21.641,30.146L21.5,30.121
		c-1.592-0.271-2.982-1.967-3.627-4.428l-0.039-0.15h3.807V30.146z M21.5,14.234l0.141-0.024v4.602h-3.807l0.039-0.151
		C18.518,16.201,19.906,14.505,21.5,14.234 M18.879,14.82l0.135,0.193c-0.824,0.91-1.447,2.172-1.852,3.75l-0.023,0.091h-2.382
		l0.079-0.171C15.645,16.929,17.08,15.558,18.879,14.82"/>
	<path style="clip-path:url(#SVGID_2_);fill:#FFFFFF;" d="M6.05,15.21c0.106-0.287,0.251-0.577,0.433-0.862l-0.845-0.424
		c-0.075,0.154-0.151,0.32-0.226,0.48c-0.065,0.145-0.133,0.293-0.201,0.435L6.05,15.21z"/>
	<path style="clip-path:url(#SVGID_2_);fill:#FFFFFF;" d="M7.582,12.521c0.013-0.018,0.025-0.034,0.037-0.051l-0.764-0.574
		c-0.116,0.159-0.221,0.334-0.332,0.518c-0.056,0.094-0.115,0.192-0.177,0.291l0.799,0.471C7.283,12.925,7.441,12.712,7.582,12.521"
		/>
	<path style="clip-path:url(#SVGID_2_);fill:#FFFFFF;" d="M3.809,19.571l0.941,0.144c0.022-0.307,0.11-0.639,0.202-0.967
		l-0.954-0.19C3.909,18.9,3.854,19.243,3.809,19.571"/>
	<path style="clip-path:url(#SVGID_2_);fill:#FFFFFF;" d="M4.503,16.725c-0.048,0.154-0.095,0.31-0.143,0.473l0.89,0.234
		c0.057-0.286,0.152-0.573,0.285-0.855l-0.888-0.329C4.598,16.413,4.551,16.568,4.503,16.725"/>
	<path style="clip-path:url(#SVGID_2_);fill:#FFFFFF;" d="M6.221,31.564l0.861-0.479c-0.193-0.291-0.341-0.541-0.478-0.81
		l-0.858,0.429l0.011,0.021C5.896,31.003,6.041,31.287,6.221,31.564"/>
	<path style="clip-path:url(#SVGID_2_);fill:#FFFFFF;" d="M3.613,22.117h0.951c0-0.314,0.002-0.662,0.046-1.02l-0.95-0.05
		C3.615,21.402,3.613,21.764,3.613,22.117"/>
	<path style="clip-path:url(#SVGID_2_);fill:#FFFFFF;" d="M5.966,28.98c-0.054-0.16-0.121-0.322-0.186-0.479
		c-0.051-0.124-0.104-0.251-0.151-0.38l-0.91,0.335c0.095,0.267,0.226,0.581,0.38,0.906L5.966,28.98z"/>
	<path style="clip-path:url(#SVGID_2_);fill:#FFFFFF;" d="M3.678,23.601c0.008,0.333,0.055,0.673,0.1,1.003l0.949-0.145
		c-0.057-0.345-0.09-0.648-0.098-0.903L3.678,23.601z"/>
	<path style="clip-path:url(#SVGID_2_);fill:#FFFFFF;" d="M4.294,27.041l0.954-0.239c-0.074-0.231-0.174-0.571-0.24-0.902
		l-0.959,0.19c0.051,0.283,0.127,0.545,0.207,0.821C4.269,26.954,4.281,26.998,4.294,27.041"/>
	<path style="clip-path:url(#SVGID_2_);fill:#FFFFFF;" d="M7.618,33.581l0.716-0.671l-0.569-0.721l-0.769,0.579
		c0.179,0.257,0.386,0.517,0.571,0.749L7.618,33.581z"/>
	<path style="clip-path:url(#SVGID_2_);fill:#FFFFFF;" d="M37.706,13.711l-0.01-0.02c-0.14-0.276-0.284-0.562-0.466-0.839
		l-0.808,0.475c0.175,0.261,0.329,0.511,0.48,0.808L37.706,13.711z"/>
	<path style="clip-path:url(#SVGID_2_);fill:#FFFFFF;" d="M35.823,10.766l-0.718,0.623c0.19,0.287,0.385,0.533,0.574,0.772
		l0.77-0.579c-0.18-0.257-0.387-0.516-0.572-0.748L35.823,10.766z"/>
	<path style="clip-path:url(#SVGID_2_);fill:#FFFFFF;" d="M34.169,8.98l-0.663,0.709c0.238,0.203,0.471,0.436,0.672,0.672
		l0.707-0.664L34.169,8.98z"/>
	<path style="clip-path:url(#SVGID_2_);fill:#FFFFFF;" d="M19.144,4.172c-0.156,0.027-0.314,0.061-0.469,0.094
		c-0.177,0.037-0.359,0.076-0.542,0.105l0.192,0.957c0.326-0.046,0.627-0.099,0.966-0.19L19.144,4.172z"/>
	<path style="clip-path:url(#SVGID_2_);fill:#FFFFFF;" d="M30.162,6.107l-0.429,0.857c0.14,0.078,0.272,0.162,0.401,0.244
		c0.131,0.083,0.266,0.169,0.408,0.247l0.48-0.864c-0.152-0.08-0.305-0.168-0.453-0.254C30.437,6.259,30.299,6.179,30.162,6.107"/>
	<path style="clip-path:url(#SVGID_2_);fill:#FFFFFF;" d="M31.711,8.18c0.277,0.191,0.521,0.386,0.76,0.574l0.008,0.006l0.618-0.713
		c-0.269-0.223-0.521-0.423-0.813-0.629L31.711,8.18z"/>
	<path style="clip-path:url(#SVGID_2_);fill:#FFFFFF;" d="M27.582,6.049c0.283,0.095,0.572,0.195,0.858,0.33l0.383-0.853
		c-0.287-0.144-0.583-0.286-0.905-0.389L27.582,6.049z"/>
	<path style="clip-path:url(#SVGID_2_);fill:#FFFFFF;" d="M39.654,24.725l-0.971-0.146c-0.022,0.14-0.045,0.287-0.067,0.433
		c-0.023,0.159-0.049,0.318-0.073,0.469l0.971,0.193C39.598,25.388,39.646,25.058,39.654,24.725"/>
	<path style="clip-path:url(#SVGID_2_);fill:#FFFFFF;" d="M37.957,27.77l0.903,0.332l0.286-1.011l-0.9-0.237
		C38.151,27.197,38.053,27.496,37.957,27.77"/>
	<path style="clip-path:url(#SVGID_2_);fill:#FFFFFF;" d="M37.074,29.941l0.858,0.43c0.14-0.277,0.278-0.574,0.387-0.908
		l-0.856-0.385C37.355,29.361,37.223,29.641,37.074,29.941"/>
	<path style="clip-path:url(#SVGID_2_);fill:#FFFFFF;" d="M20.498,39.283c-0.154-0.021-0.319-0.033-0.48-0.045
		c-0.143-0.012-0.289-0.022-0.428-0.039l-0.146,0.955c0.325,0.047,0.665,0.089,1.003,0.098L20.498,39.283z"/>
	<path style="clip-path:url(#SVGID_2_);fill:#FFFFFF;" d="M9.791,34.449c-0.164-0.152-0.32-0.297-0.461-0.459l-0.709,0.663
		l0.717,0.717l0.67-0.716C9.936,34.584,9.862,34.516,9.791,34.449"/>
	<path style="clip-path:url(#SVGID_2_);fill:#FFFFFF;" d="M23.01,5.045c0.287,0.01,0.602,0.053,0.908,0.1l0.145-0.953
		c-0.33-0.043-0.67-0.09-1.002-0.099L23.01,5.045z"/>
	<path style="clip-path:url(#SVGID_2_);fill:#FFFFFF;" d="M20.626,4.096l0.05,0.951C20.81,5.042,20.951,5.032,21.1,5.02
		c0.173-0.014,0.352-0.028,0.533-0.031V4.037c-0.166,0.004-0.334,0.017-0.498,0.03C20.969,4.078,20.797,4.092,20.626,4.096"/>
	<path style="clip-path:url(#SVGID_2_);fill:#FFFFFF;" d="M24.219,39.164l0.145,0.954c0.088-0.013,0.177-0.026,0.265-0.038
		c0.241-0.035,0.471-0.068,0.683-0.104l-0.19-0.956c-0.23,0.039-0.479,0.077-0.715,0.114L24.219,39.164z"/>
	<path style="clip-path:url(#SVGID_2_);fill:#FFFFFF;" d="M26.445,4.65c-0.355-0.113-0.671-0.193-0.958-0.242l-0.19,0.955
		c0.329,0.059,0.624,0.151,0.908,0.244L26.445,4.65z"/>
	<path style="clip-path:url(#SVGID_2_);fill:#FFFFFF;" d="M21.937,40.313c0.166-0.005,0.334-0.017,0.497-0.028
		c0.167-0.014,0.338-0.025,0.51-0.03l-0.049-0.937c-0.332,0.041-0.631,0.046-0.958,0.047V40.313z"/>
	<path style="clip-path:url(#SVGID_2_);fill:#FFFFFF;" d="M10.582,1.034c-0.111-0.067-0.255-0.03-0.32,0.081L5.248,9.52
		C5.181,9.63,5.219,9.774,5.33,9.839l6.416,3.828c0.111,0.067,0.255,0.03,0.321-0.082l5.013-8.405c0.066-0.11,0.03-0.255-0.081-0.32
		L10.582,1.034z M11.785,13.146L5.769,9.559l4.774-8.004l6.015,3.588L11.785,13.146z"/>
	<path style="clip-path:url(#SVGID_2_);fill:#FFFFFF;" d="M6.307,9.252c-0.066,0.111-0.03,0.255,0.081,0.32l5.091,3.037
		c0.111,0.067,0.256,0.029,0.321-0.081l4.222-7.08c0.066-0.11,0.03-0.255-0.08-0.32L10.85,2.092c-0.111-0.067-0.255-0.031-0.32,0.08
		L6.307,9.252z M10.811,2.613L15.5,5.41l-3.982,6.678L6.829,9.292L10.811,2.613z"/>
	<path style="clip-path:url(#SVGID_2_);fill:#FFFFFF;" d="M13.225,6.053c0.111,0.066,0.254,0.031,0.32-0.08
		c0.067-0.111,0.03-0.255-0.081-0.32L11.566,4.52c-0.112-0.067-0.255-0.029-0.321,0.081c-0.066,0.111-0.031,0.255,0.081,0.321
		L13.225,6.053z"/>
	<path style="clip-path:url(#SVGID_2_);fill:#FFFFFF;" d="M9.967,7.201c-0.111-0.066-0.254-0.029-0.32,0.081
		c-0.067,0.11-0.031,0.255,0.08,0.321l1.898,1.131c0.112,0.067,0.255,0.03,0.321-0.08c0.066-0.111,0.03-0.255-0.081-0.321
		L9.967,7.201z"/>
	<path style="clip-path:url(#SVGID_2_);fill:#FFFFFF;" d="M13.354,7.342c0.111,0.066,0.256,0.031,0.321-0.08
		c0.067-0.111,0.031-0.255-0.081-0.32l-3.223-1.924c-0.111-0.066-0.255-0.03-0.322,0.082C9.983,5.211,10.02,5.354,10.13,5.42
		L13.354,7.342z"/>
	<path style="clip-path:url(#SVGID_2_);fill:#FFFFFF;" d="M9.598,6.314l3.224,1.922c0.11,0.066,0.255,0.029,0.321-0.081
		c0.065-0.111,0.029-0.255-0.082-0.321L9.837,5.913c-0.11-0.067-0.255-0.03-0.32,0.081C9.451,6.104,9.487,6.249,9.598,6.314"/>
	<path style="clip-path:url(#SVGID_2_);fill:#FFFFFF;" d="M17.709,39.279c0.378-0.268,0.468-0.791,0.201-1.169l-3.225-4.564
		c-0.267-0.378-0.791-0.468-1.168-0.2c-0.367,0.258-0.463,0.76-0.224,1.135c-0.538,0.746-1.389,2.056-3.221,3.352l-0.305,0.215
		c-0.303,0.215-0.421,0.596-0.316,0.934c-0.471,0.473-0.55,1.23-0.153,1.793c0.399,0.563,1.139,0.742,1.741,0.455
		c0.244,0.182,0.574,0.22,0.854,0.09l1.509,1.518c0.289,0.291,0.742,0.33,1.078,0.094c0.417-0.295,0.469-0.895,0.11-1.256
		l-1.264-1.279c1.371-0.781,2.274-1.002,3.239-1.284C16.838,39.461,17.344,39.536,17.709,39.279 M13.84,33.801
		c0.126-0.088,0.301-0.059,0.389,0.068l3.226,4.564c0.088,0.125,0.059,0.3-0.068,0.389c-0.125,0.089-0.3,0.059-0.389-0.066
		l-3.225-4.564C13.684,34.064,13.713,33.891,13.84,33.801 M9.755,40.451c-0.21-0.298-0.199-0.687,0-0.969l0.912,1.291
		C10.335,40.867,9.966,40.748,9.755,40.451 M11.704,40.785c-0.126,0.09-0.301,0.06-0.389-0.066l-1.291-1.826
		c-0.089-0.125-0.059-0.301,0.067-0.389l0.304-0.215c0.262-0.186,0.518-0.383,0.769-0.591l1.657,2.345
		c-0.28,0.166-0.553,0.344-0.813,0.527L11.704,40.785z M14.193,42.066c0.117,0.117,0.099,0.311-0.035,0.406
		c-0.113,0.079-0.264,0.066-0.36-0.031l-1.431-1.439c0.15-0.106,0.306-0.211,0.464-0.311L14.193,42.066z M13.309,39.766
		l-1.721-2.436c1.084-0.979,1.571-1.707,2.047-2.367l2.589,3.665C15.466,38.85,14.605,39.064,13.309,39.766"/>
	<path style="clip-path:url(#SVGID_2_);fill:#FFFFFF;" d="M46.23,19.48h-2.338v-3.119c0-0.002-0.002-0.006-0.002-0.008
		c0-0.012-0.004-0.025-0.006-0.037c-0.002-0.004-0.003-0.009-0.006-0.013c-0.006-0.016-0.014-0.032-0.025-0.045l-1.248-1.403
		c-0.014-0.015-0.029-0.025-0.047-0.035c-0.006-0.002-0.01-0.004-0.016-0.006c-0.014-0.006-0.029-0.007-0.044-0.009
		c-0.003,0-0.007-0.002-0.01-0.002h-4.677c-0.43,0-0.779,0.349-0.779,0.779v6.704c0,0.43,0.35,0.779,0.779,0.779h5.285
		c0.313,0.428,0.713,0.796,1.184,1.07c0.024,0.015,0.052,0.021,0.079,0.021c0.026,0,0.054-0.006,0.078-0.021
		c1.202-0.701,1.947-2,1.947-3.391v-1.108C46.386,19.549,46.316,19.48,46.23,19.48 M42.646,15.369l0.339,0.381l0.404,0.456h-0.743
		V15.369z M37.813,22.754c-0.258,0-0.468-0.21-0.468-0.468v-6.704c0-0.258,0.21-0.467,0.468-0.467h4.521v1.246
		c0,0.087,0.069,0.156,0.155,0.156h1.091v2.963h-1.091c-0.086,0-0.155,0.069-0.155,0.156v1.108c0,0.086,0.002,0.174,0.008,0.26
		c0.033,0.502,0.164,0.987,0.381,1.438c0.007,0.013,0.013,0.027,0.02,0.04c0.025,0.053,0.055,0.105,0.083,0.157
		c0.015,0.026,0.028,0.052,0.044,0.079c0.007,0.011,0.013,0.024,0.02,0.036H37.813z M46.074,20.744c0,1.25-0.654,2.42-1.714,3.074
		c-0.438-0.269-0.805-0.629-1.087-1.044c-0.031-0.046-0.062-0.093-0.09-0.139c-0.019-0.031-0.037-0.061-0.055-0.091
		c-0.023-0.041-0.045-0.083-0.067-0.124c-0.019-0.036-0.038-0.072-0.056-0.109c-0.016-0.031-0.029-0.063-0.043-0.094
		c-0.041-0.092-0.079-0.186-0.112-0.282c-0.008-0.021-0.017-0.043-0.023-0.064c-0.017-0.049-0.03-0.1-0.044-0.149
		c-0.01-0.033-0.019-0.063-0.026-0.094c-0.012-0.046-0.022-0.093-0.032-0.14c-0.008-0.039-0.016-0.076-0.021-0.115
		c-0.008-0.042-0.016-0.084-0.021-0.127c-0.007-0.049-0.012-0.098-0.018-0.147c-0.003-0.033-0.007-0.067-0.01-0.101
		c-0.006-0.084-0.009-0.169-0.009-0.254v-0.953h3.429V20.744z"/>
	<path style="clip-path:url(#SVGID_2_);fill:#FFFFFF;" d="M44.204,22.441c0.04,0,0.08-0.015,0.11-0.045l1.247-1.248l-0.221-0.22
		l-1.137,1.137l-0.513-0.513l-0.221,0.22l0.623,0.624C44.125,22.426,44.164,22.441,44.204,22.441"/>
	<rect x="37.969" y="16.985" style="clip-path:url(#SVGID_2_);fill:#FFFFFF;" width="4.988" height="0.312"/>
	<rect x="37.969" y="17.766" style="clip-path:url(#SVGID_2_);fill:#FFFFFF;" width="4.988" height="0.311"/>
	<rect x="37.969" y="18.545" style="clip-path:url(#SVGID_2_);fill:#FFFFFF;" width="4.988" height="0.311"/>
	<rect x="37.969" y="19.324" style="clip-path:url(#SVGID_2_);fill:#FFFFFF;" width="3.741" height="0.312"/>
	<rect x="37.969" y="20.103" style="clip-path:url(#SVGID_2_);fill:#FFFFFF;" width="3.741" height="0.312"/>
	<rect x="37.969" y="20.882" style="clip-path:url(#SVGID_2_);fill:#FFFFFF;" width="3.741" height="0.312"/>
	<rect x="37.969" y="21.663" style="clip-path:url(#SVGID_2_);fill:#FFFFFF;" width="3.741" height="0.312"/>
	<rect x="42.958" y="20.104" style="clip-path:url(#SVGID_2_);fill:#FFFFFF;" width="0.312" height="0.312"/>
	<rect x="43.581" y="20.104" style="clip-path:url(#SVGID_2_);fill:#FFFFFF;" width="0.312" height="0.312"/>
	<rect x="44.204" y="20.104" style="clip-path:url(#SVGID_2_);fill:#FFFFFF;" width="0.312" height="0.312"/>
	<rect x="44.828" y="20.104" style="clip-path:url(#SVGID_2_);fill:#FFFFFF;" width="0.312" height="0.312"/>
	<rect x="45.452" y="20.104" style="clip-path:url(#SVGID_2_);fill:#FFFFFF;" width="0.312" height="0.312"/>
	<path style="clip-path:url(#SVGID_2_);fill:#FFFFFF;" d="M26.025,32.178v11.623c0,0.843,0.687,1.529,1.529,1.529h8.309
		c0.298,2.071,2.08,3.67,4.232,3.67c2.361,0,4.283-1.921,4.283-4.282c0-2.258-1.758-4.108-3.977-4.267v-8.273
		c0-0.844-0.687-1.529-1.529-1.529H27.555C26.712,30.648,26.025,31.334,26.025,32.178 M40.096,41.047
		c2.024,0,3.671,1.646,3.671,3.671s-1.646,3.671-3.671,3.671c-1.928,0-3.51-1.495-3.656-3.387l0.001-0.001
		c-0.007-0.095-0.015-0.188-0.015-0.283C36.426,42.693,38.072,41.047,40.096,41.047 M39.79,32.178v8.269
		c-0.023,0.001-0.046,0.007-0.068,0.009c-0.065,0.005-0.128,0.014-0.192,0.022c-0.076,0.01-0.15,0.021-0.226,0.034
		c-0.063,0.012-0.126,0.026-0.188,0.041c-0.073,0.018-0.146,0.035-0.216,0.057c-0.063,0.018-0.121,0.037-0.182,0.058
		c-0.07,0.024-0.139,0.049-0.207,0.075c-0.059,0.023-0.118,0.049-0.174,0.075c-0.066,0.03-0.132,0.062-0.195,0.095
		c-0.057,0.029-0.113,0.059-0.168,0.09c-0.062,0.036-0.123,0.072-0.184,0.111c-0.053,0.035-0.105,0.07-0.156,0.106
		c-0.059,0.041-0.116,0.084-0.172,0.128c-0.05,0.039-0.1,0.078-0.147,0.119c-0.054,0.047-0.106,0.095-0.157,0.144
		c-0.047,0.044-0.092,0.087-0.135,0.132c-0.051,0.052-0.098,0.105-0.145,0.158c-0.041,0.048-0.083,0.095-0.123,0.145
		c-0.044,0.056-0.086,0.112-0.129,0.172c-0.036,0.051-0.073,0.101-0.108,0.153c-0.041,0.061-0.076,0.124-0.113,0.187
		c-0.031,0.054-0.063,0.106-0.094,0.161c-0.034,0.064-0.064,0.134-0.097,0.202c-0.025,0.055-0.053,0.109-0.076,0.166
		c-0.029,0.07-0.054,0.145-0.08,0.218c-0.02,0.056-0.041,0.11-0.059,0.167c-0.023,0.078-0.041,0.159-0.061,0.238
		c-0.014,0.056-0.029,0.109-0.041,0.164c-0.018,0.09-0.029,0.183-0.042,0.274c-0.006,0.048-0.016,0.093-0.021,0.142
		c-0.014,0.142-0.021,0.284-0.021,0.429h-8.26c-0.506,0-0.917-0.411-0.917-0.917V32.178c0-0.506,0.411-0.918,0.917-0.918h11.318
		C39.379,31.26,39.79,31.672,39.79,32.178"/>
	<path style="clip-path:url(#SVGID_2_);fill:#FFFFFF;" d="M38.261,43.801c0-0.17,0.138-0.307,0.306-0.307
		c0.17,0,0.307,0.137,0.307,0.307v0.305h0.611v-0.305c0-0.506-0.412-0.918-0.918-0.918s-0.918,0.412-0.918,0.918v0.305h0.612V43.801
		z"/>
	<path style="clip-path:url(#SVGID_2_);fill:#FFFFFF;" d="M41.32,43.801c0-0.17,0.137-0.307,0.305-0.307
		c0.17,0,0.307,0.137,0.307,0.307v0.305h0.611v-0.305c0-0.506-0.412-0.918-0.918-0.918s-0.918,0.412-0.918,0.918v0.305h0.613V43.801
		z"/>
	<path style="clip-path:url(#SVGID_2_);fill:#FFFFFF;" d="M38.565,45.33c0,0.843,0.688,1.529,1.53,1.529
		c0.844,0,1.529-0.687,1.529-1.529c0-0.17-0.137-0.307-0.305-0.307h-2.447C38.703,45.023,38.565,45.16,38.565,45.33 M40.961,45.635
		c-0.126,0.357-0.466,0.612-0.865,0.612c-0.398,0-0.739-0.255-0.865-0.612H40.961z"/>
	<path style="clip-path:url(#SVGID_2_);fill:#FFFFFF;" d="M30.92,39.212c2.023,0,3.67-1.646,3.67-3.671
		c0-2.023-1.646-3.67-3.67-3.67s-3.67,1.646-3.67,3.67C27.25,37.565,28.896,39.212,30.92,39.212 M32.988,37.789l-0.648-0.648
		c0.369-0.328,0.623-0.781,0.697-1.293h0.926C33.887,36.613,33.524,37.294,32.988,37.789 M30.92,37.07
		c-0.844,0-1.529-0.686-1.529-1.529c0-0.843,0.686-1.529,1.529-1.529s1.529,0.687,1.529,1.529
		C32.449,36.385,31.764,37.07,30.92,37.07 M33.963,35.236h-0.926c-0.077-0.531-0.347-0.999-0.738-1.33l0.551-0.734
		C33.464,33.672,33.881,34.405,33.963,35.236 M30.92,32.482c0.512,0,0.994,0.129,1.419,0.352l-0.561,0.748
		c-0.263-0.116-0.554-0.182-0.858-0.182c-0.401,0-0.775,0.113-1.097,0.307l-0.663-0.663C29.658,32.691,30.266,32.482,30.92,32.482
		 M28.697,33.445l0.648,0.648c-0.35,0.383-0.566,0.89-0.566,1.447c0,1.181,0.96,2.142,2.141,2.142c0.32,0,0.623-0.073,0.897-0.2
		l0.677,0.678c-0.461,0.277-0.998,0.439-1.574,0.439c-1.687,0-3.059-1.371-3.059-3.059C27.861,34.73,28.182,33.994,28.697,33.445"/>
	<polygon style="clip-path:url(#SVGID_2_);fill:#FFFFFF;" points="37.648,39.212 38.261,39.212 38.261,34.624 38.566,34.624 
		38.566,34.012 38.261,34.012 38.261,32.482 37.648,32.482 37.648,34.012 37.344,34.012 37.344,34.624 37.648,34.624 	"/>
	<polygon style="clip-path:url(#SVGID_2_);fill:#FFFFFF;" points="35.814,39.212 36.426,39.212 36.426,35.848 36.731,35.848 
		36.731,35.236 36.426,35.236 36.426,32.482 35.814,32.482 35.814,35.236 35.508,35.236 35.508,35.848 35.814,35.848 	"/>
	<path style="clip-path:url(#SVGID_2_);fill:#FFFFFF;" d="M30.309,39.824h-2.447c-0.17,0-0.307,0.137-0.307,0.305v1.225
		c0,0.169,0.137,0.306,0.307,0.306h2.447c0.169,0,0.306-0.137,0.306-0.306v-1.225C30.614,39.961,30.478,39.824,30.309,39.824
		 M30.002,41.047h-1.835v-0.611h1.835V41.047z"/>
	<path style="clip-path:url(#SVGID_2_);fill:#FFFFFF;" d="M33.979,39.824h-2.447c-0.169,0-0.306,0.137-0.306,0.305v1.225
		c0,0.169,0.137,0.306,0.306,0.306h2.447c0.17,0,0.307-0.137,0.307-0.306v-1.225C34.285,39.961,34.148,39.824,33.979,39.824
		 M33.673,41.047h-1.835v-0.611h1.835V41.047z"/>
	<path style="clip-path:url(#SVGID_2_);fill:#FFFFFF;" d="M30.309,42.271h-2.447c-0.17,0-0.307,0.137-0.307,0.305v1.225
		c0,0.168,0.137,0.305,0.307,0.305h2.447c0.169,0,0.306-0.137,0.306-0.305v-1.225C30.614,42.408,30.478,42.271,30.309,42.271
		 M30.002,43.494h-1.835v-0.611h1.835V43.494z"/>
	<path style="clip-path:url(#SVGID_2_);fill:#FFFFFF;" d="M33.979,42.271h-2.447c-0.169,0-0.306,0.137-0.306,0.305v1.225
		c0,0.168,0.137,0.305,0.306,0.305h2.447c0.17,0,0.307-0.137,0.307-0.305v-1.225C34.285,42.408,34.148,42.271,33.979,42.271
		 M33.673,43.494h-1.835v-0.611h1.835V43.494z"/>
</g>
</svg>
