<?xml version="1.0" encoding="iso-8859-1"?>
<!-- Generator: Adobe Illustrator 15.1.0, SVG Export Plug-In . SVG Version: 6.00 Build 0)  -->
<!DOCTYPE svg PUBLIC "-//W3C//DTD SVG 1.1//EN" "http://www.w3.org/Graphics/SVG/1.1/DTD/svg11.dtd">
<svg version="1.1" id="Layer_1" xmlns="http://www.w3.org/2000/svg" xmlns:xlink="http://www.w3.org/1999/xlink" x="0px" y="0px"
	 width="50px" height="50px" viewBox="0 0 50 50" style="enable-background:new 0 0 50 50;" xml:space="preserve">
<polygon style="fill:#FFFFFF;" points="13.646,43.137 13.881,43.328 14.118,43.519 14.5,43.048 14.029,42.666 "/>
<polygon style="fill:#FFFFFF;" points="14.811,44.044 15.059,44.219 15.307,44.394 15.656,43.896 15.16,43.548 "/>
<rect x="6.584" y="21" transform="matrix(-0.9685 -0.2492 0.2492 -0.9685 8.248 43.651)" style="fill:#FFFFFF;" width="0.606" height="0.606"/>
<rect x="6.995" y="19.603" transform="matrix(-0.9486 -0.3165 0.3165 -0.9486 7.9214 41.0985)" style="fill:#FFFFFF;" width="0.606" height="0.606"/>
<rect x="7.503" y="18.237" transform="matrix(-0.925 -0.3799 0.3799 -0.925 7.9833 38.6573)" style="fill:#FFFFFF;" width="0.605" height="0.607"/>
<polygon style="fill:#FFFFFF;" points="16.035,44.87 16.294,45.028 16.554,45.186 16.868,44.666 16.349,44.352 "/>
<polygon style="fill:#FFFFFF;" points="8.889,37.538 9.047,37.798 9.205,38.058 9.723,37.742 9.408,37.224 "/>
<polygon style="fill:#FFFFFF;" points="8.185,36.242 8.324,36.511 8.324,36.513 8.463,36.779 9.001,36.503 8.864,36.232 
	8.864,36.233 8.724,35.964 "/>
<polygon style="fill:#FFFFFF;" points="7.57,34.899 7.691,35.178 7.813,35.457 8.367,35.215 8.127,34.659 "/>
<rect x="6.268" y="22.421" transform="matrix(-0.9826 -0.1856 0.1856 -0.9826 8.8107 46.2753)" style="fill:#FFFFFF;" width="0.605" height="0.609"/>
<polygon style="fill:#FFFFFF;" points="10.559,39.972 10.75,40.207 10.75,40.206 10.941,40.441 11.412,40.058 11.029,39.588 "/>
<polygon style="fill:#FFFFFF;" points="9.681,38.783 9.857,39.031 10.031,39.278 10.528,38.93 10.178,38.433 "/>
<polygon style="fill:#FFFFFF;" points="11.514,41.096 11.721,41.317 11.929,41.538 12.372,41.124 11.958,40.682 "/>
<polygon style="fill:#FFFFFF;" points="12.545,42.152 12.767,42.359 12.99,42.566 13.402,42.122 12.958,41.708 "/>
<polygon style="fill:#FFFFFF;" points="36.555,7.746 36.824,7.882 37.098,8.018 37.368,7.476 36.826,7.204 "/>
<polygon style="fill:#FFFFFF;" points="46.438,17.763 46.563,18.039 46.686,18.317 47.24,18.068 47.115,17.792 47.117,17.792 
	46.992,17.515 "/>
<polygon style="fill:#FFFFFF;" points="46.998,19.084 47.102,19.368 47.207,19.653 47.777,19.444 47.569,18.875 "/>
<polygon style="fill:#FFFFFF;" points="35.24,7.167 35.52,7.284 35.802,7.4 36.035,6.84 35.755,6.722 35.475,6.606 "/>
<polygon style="fill:#FFFFFF;" points="8,17.353 8.544,17.62 8.679,17.349 8.813,17.078 8.267,16.809 "/>
<polygon style="fill:#FFFFFF;" points="37.823,8.415 38.086,8.57 38.347,8.724 38.654,8.202 38.396,8.046 38.133,7.893 "/>
<polygon style="fill:#FFFFFF;" points="45.789,16.483 45.931,16.752 46.074,17.019 46.609,16.733 46.324,16.198 "/>
<polygon style="fill:#FFFFFF;" points="48.387,26.092 48.39,26.396 48.393,26.698 49,26.691 48.993,26.086 "/>
<polygon style="fill:#FFFFFF;" points="48.301,24.658 48.325,24.961 48.349,25.265 48.953,25.216 48.905,24.61 "/>
<polygon style="fill:#FFFFFF;" points="48.117,23.236 48.161,23.536 48.207,23.835 48.807,23.746 48.717,23.146 "/>
<polygon style="fill:#FFFFFF;" points="47.465,20.441 47.55,20.732 47.635,21.023 48.216,20.854 48.046,20.271 "/>
<polygon style="fill:#FFFFFF;" points="47.839,21.826 47.902,22.123 47.969,22.418 48.561,22.29 48.431,21.697 "/>
<polygon style="fill:#FFFFFF;" points="39.045,9.169 39.296,9.341 39.545,9.512 39.889,9.011 39.389,8.67 "/>
<polygon style="fill:#FFFFFF;" points="11.436,12.203 11.438,12.203 11.233,12.429 11.686,12.833 12.089,12.383 11.638,11.977 "/>
<polygon style="fill:#FFFFFF;" points="33.891,6.677 34.178,6.775 34.465,6.872 34.66,6.297 34.372,6.201 34.085,6.102 "/>
<rect x="13.444" y="10.076" transform="matrix(-0.6473 -0.7623 0.7623 -0.6473 14.7345 27.5775)" style="fill:#FFFFFF;" width="0.607" height="0.607"/>
<polygon style="fill:#FFFFFF;" points="10.489,13.335 10.301,13.574 10.78,13.948 11.154,13.47 10.675,13.096 "/>
<rect x="9.567" y="14.396" transform="matrix(-0.8288 -0.5595 0.5595 -0.8288 9.8262 32.4038)" style="fill:#FFFFFF;" width="0.606" height="0.605"/>
<rect x="12.367" y="11.054" transform="matrix(-0.6986 -0.7155 0.7155 -0.6986 13.3967 28.3569)" style="fill:#FFFFFF;" width="0.607" height="0.605"/>
<polygon style="fill:#FFFFFF;" points="19.889,6.432 19.606,6.539 19.817,7.106 20.386,6.895 20.173,6.327 "/>
<rect x="18.346" y="6.97" transform="matrix(-0.4145 -0.9101 0.9101 -0.4145 19.7613 27.2607)" style="fill:#FFFFFF;" width="0.608" height="0.606"/>
<rect x="14.587" y="9.174" transform="matrix(-0.5917 -0.8061 0.8061 -0.5917 16.0626 27.0884)" style="fill:#FFFFFF;" width="0.608" height="0.606"/>
<polygon style="fill:#FFFFFF;" points="15.93,8.4 15.673,8.563 15.998,9.075 16.256,8.914 16.254,8.914 16.511,8.751 16.186,8.237 
	"/>
<rect x="17.044" y="7.618" transform="matrix(-0.4753 -0.8798 0.8798 -0.4753 18.6239 26.9488)" style="fill:#FFFFFF;" width="0.606" height="0.607"/>
<polygon style="fill:#FFFFFF;" points="17.313,45.61 17.583,45.75 17.853,45.89 18.13,45.351 17.591,45.071 "/>
<polygon style="fill:#FFFFFF;" points="42.854,40.787 42.648,41.01 43.094,41.422 43.299,41.197 43.505,40.974 43.059,40.563 "/>
<polygon style="fill:#FFFFFF;" points="43.336,12.958 43.53,13.19 43.725,13.423 44.189,13.035 43.997,12.801 43.802,12.568 "/>
<rect x="44.592" y="38.419" transform="matrix(-0.8225 -0.5687 0.5687 -0.8225 59.8022 96.1051)" style="fill:#FFFFFF;" width="0.608" height="0.605"/>
<polygon style="fill:#FFFFFF;" points="43.787,39.698 43.598,39.935 44.07,40.314 44.451,39.842 43.979,39.462 "/>
<polygon style="fill:#FFFFFF;" points="41.846,41.809 41.626,42.019 42.043,42.458 42.484,42.041 42.065,41.601 "/>
<polygon style="fill:#FFFFFF;" points="41.32,10.918 41.545,11.121 41.77,11.325 42.178,10.876 41.729,10.468 "/>
<polygon style="fill:#FFFFFF;" points="40.214,10.004 40.452,10.193 40.689,10.381 41.063,9.905 40.59,9.527 "/>
<rect x="40.661" y="42.69" transform="matrix(-0.6372 -0.7707 0.7707 -0.6372 33.9296 101.9601)" style="fill:#FFFFFF;" width="0.607" height="0.607"/>
<rect x="39.509" y="43.578" transform="matrix(-0.5834 -0.8122 0.8122 -0.5834 27.3961 101.8148)" style="fill:#FFFFFF;" width="0.606" height="0.606"/>
<rect x="47.989" y="30.432" transform="matrix(-0.9812 -0.193 0.193 -0.9812 89.7443 70.2132)" style="fill:#FFFFFF;" width="0.607" height="0.606"/>
<polygon style="fill:#FFFFFF;" points="48.188,29.56 48.789,29.635 48.826,29.335 48.866,29.034 48.264,28.957 "/>
<polygon style="fill:#FFFFFF;" points="48.34,28.132 48.946,28.167 48.963,27.866 48.963,27.865 48.98,27.561 48.375,27.525 "/>
<rect x="47.657" y="31.849" transform="matrix(-0.9648 -0.263 0.263 -0.9648 85.7752 75.7863)" style="fill:#FFFFFF;" width="0.605" height="0.607"/>
<rect x="46.702" y="34.601" transform="matrix(-0.9198 -0.3924 0.3924 -0.9198 76.5461 85.4529)" style="fill:#FFFFFF;" width="0.607" height="0.607"/>
<rect x="46.087" y="35.92" transform="matrix(-0.8912 -0.4536 0.4536 -0.8912 71.3007 89.5511)" style="fill:#FFFFFF;" width="0.607" height="0.608"/>
<polygon style="fill:#FFFFFF;" points="47.143,33.732 47.717,33.931 47.815,33.645 47.916,33.358 47.342,33.159 "/>
<rect x="45.383" y="37.195" transform="matrix(-0.8588 -0.5124 0.5124 -0.8588 65.7073 93.108)" style="fill:#FFFFFF;" width="0.606" height="0.606"/>
<polygon style="fill:#FFFFFF;" points="42.362,11.903 42.574,12.121 42.573,12.121 42.783,12.34 43.221,11.921 42.8,11.484 "/>
<rect x="32.986" y="46.723" transform="matrix(-0.2749 -0.9615 0.9615 -0.2749 -2.7722 91.9622)" style="fill:#FFFFFF;" width="0.607" height="0.607"/>
<rect x="31.572" y="47.073" transform="matrix(-0.2091 -0.9779 0.9779 -0.2091 -7.7884 88.4538)" style="fill:#FFFFFF;" width="0.607" height="0.607"/>
<polygon style="fill:#FFFFFF;" points="30.1,47.372 30.185,47.972 30.486,47.931 30.785,47.888 30.7,47.287 "/>
<rect x="34.372" y="46.276" transform="matrix(-0.3379 -0.9412 0.9412 -0.3379 2.5499 94.954)" style="fill:#FFFFFF;" width="0.607" height="0.607"/>
<rect x="35.723" y="45.737" transform="matrix(-0.4023 -0.9155 0.9155 -0.4023 8.3674 97.5441)" style="fill:#FFFFFF;" width="0.607" height="0.607"/>
<rect x="37.034" y="45.105" transform="matrix(-0.4671 -0.8842 0.8842 -0.4671 14.6259 99.6316)" style="fill:#FFFFFF;" width="0.606" height="0.606"/>
<polygon style="fill:#FFFFFF;" points="38.184,44.588 38.502,45.106 38.76,44.946 39.02,44.786 38.699,44.271 "/>
<polygon style="fill:#FFFFFF;" points="28.973,47.484 28.67,47.507 28.715,48.11 29.018,48.091 29.319,48.066 29.274,47.463 "/>
<polygon style="fill:#FFFFFF;" points="25.762,48.085 26.065,48.104 26.367,48.125 26.405,47.518 25.802,47.479 "/>
<rect x="27.237" y="47.54" style="fill:#FFFFFF;" width="0.605" height="0.607"/>
<polygon style="fill:#FFFFFF;" points="22.841,47.652 23.139,47.713 23.435,47.773 23.558,47.179 22.963,47.058 "/>
<polygon style="fill:#FFFFFF;" points="24.294,47.92 24.596,47.96 24.896,48 24.977,47.397 24.677,47.358 24.375,47.317 "/>
<g>
	<defs>
		<rect id="SVGID_1_" width="50" height="50"/>
	</defs>
	<clipPath id="SVGID_2_">
		<use xlink:href="#SVGID_1_"  style="overflow:visible;"/>
	</clipPath>
	<path style="clip-path:url(#SVGID_2_);fill:#FFFFFF;" d="M46.53,14.293c-0.615,0-1.137-0.432-1.259-1.024l-0.543,0.06
		c0.012,0.615-0.422,1.156-1.023,1.28l0.061,0.543h0.021c0.615,0,1.136,0.432,1.258,1.024l0.543-0.06
		c-0.006-0.298,0.092-0.587,0.281-0.825c0.189-0.236,0.45-0.395,0.742-0.456l-0.06-0.542H46.53z M45.639,14.768
		c-0.129,0.121-0.241,0.26-0.332,0.415l-0.082,0.141l-0.111-0.119c-0.12-0.131-0.261-0.244-0.414-0.333l-0.141-0.083l0.119-0.11
		c0.131-0.121,0.242-0.261,0.332-0.415l0.082-0.141l0.111,0.12c0.121,0.13,0.262,0.242,0.415,0.332l0.141,0.082L45.639,14.768z"/>
	<path style="clip-path:url(#SVGID_2_);fill:#FFFFFF;" d="M8.971,15.002c-0.054,0.39-0.364,0.699-0.752,0.752v0.282
		c0.388,0.053,0.698,0.363,0.752,0.753h0.281c0.053-0.39,0.363-0.7,0.752-0.753v-0.282c-0.389-0.053-0.699-0.362-0.752-0.752H8.971z
		 M9.576,15.896l-0.131,0.098c-0.09,0.066-0.17,0.146-0.236,0.236L9.111,16.36l-0.097-0.131c-0.067-0.09-0.147-0.17-0.237-0.236
		l-0.131-0.098l0.131-0.097c0.09-0.067,0.17-0.146,0.237-0.236l0.097-0.132l0.098,0.131c0.066,0.091,0.146,0.17,0.236,0.237
		L9.576,15.896z"/>
	<path style="clip-path:url(#SVGID_2_);fill:#FFFFFF;" d="M20.225,44.679c-0.059,0.782-0.685,1.408-1.467,1.468v0.748
		c0.782,0.059,1.408,0.685,1.467,1.467h0.748c0.059-0.782,0.686-1.408,1.468-1.467v-0.748c-0.782-0.06-1.409-0.686-1.468-1.468
		H20.225z M21.309,46.521l-0.131,0.098c-0.181,0.135-0.344,0.296-0.481,0.48L20.6,47.229l-0.098-0.131
		c-0.136-0.185-0.298-0.346-0.48-0.48l-0.131-0.098l0.131-0.098c0.182-0.136,0.344-0.299,0.48-0.48l0.098-0.131l0.097,0.131
		c0.136,0.182,0.298,0.345,0.481,0.48L21.309,46.521z"/>
	<rect x="30.736" y="5.489" style="clip-path:url(#SVGID_2_);fill:#FFFFFF;" width="0.52" height="0.521"/>
	<rect x="30.736" y="6.773" style="clip-path:url(#SVGID_2_);fill:#FFFFFF;" width="0.52" height="0.521"/>
	<rect x="29.451" y="6.773" style="clip-path:url(#SVGID_2_);fill:#FFFFFF;" width="0.521" height="0.521"/>
	<path style="clip-path:url(#SVGID_2_);fill:#FFFFFF;" d="M16.848,35.451l0.904-0.905l0.78,0.778l0.941-0.94l1.998,1.998
		l-0.857,0.857l4.014,4.016l0.273-0.272l0.921,0.923l1.095-1.096l1.03,1.031l1.033-1.034l0.398,0.398l4.252-4.252l-0.742-0.742
		l1.817-1.817l0.953,0.953l0.773-0.774l0.905,0.906l1.99-1.992l-6.303-6.304l-0.966,0.965l-0.043-0.039
		c-0.835-0.779-1.859-1.356-2.962-1.669l-0.157-0.045l0.149-0.068c1.652-0.764,2.72-2.431,2.72-4.247
		c0-0.464-0.069-0.911-0.194-1.334c0.552-0.118,0.968-0.609,0.968-1.196c0-0.554-0.378-1.039-0.917-1.18l-0.046-0.011v-1.376
		c0-0.069-0.028-0.136-0.076-0.184l-2.813-2.812v-5.41h0.764v2.629c0,0.069,0.027,0.136,0.075,0.184l5.701,5.7v1.269l-0.045,0.011
		c-0.541,0.141-0.918,0.626-0.918,1.18c0,0.675,0.549,1.223,1.223,1.223c0.676,0,1.224-0.548,1.224-1.223
		c0-0.554-0.377-1.039-0.917-1.18l-0.046-0.011v-1.376c0-0.069-0.027-0.136-0.076-0.184l-5.7-5.701V8.577h1.023
		c1.206,0,2.186-0.98,2.186-2.185s-0.979-2.186-2.186-2.186h-0.072l-0.006-0.054c-0.159-1.433-1.367-2.513-2.811-2.513
		c-0.979,0-1.872,0.494-2.391,1.321l-0.025,0.039l-0.044-0.012c-0.14-0.043-0.283-0.065-0.429-0.065
		c-0.744,0-1.383,0.531-1.517,1.262L23.69,4.242l-0.059-0.009c-0.111-0.018-0.225-0.027-0.338-0.027
		c-1.205,0-2.185,0.981-2.185,2.186s0.98,2.185,2.185,2.185h1.024v2.521l-5.699,5.701c-0.049,0.048-0.078,0.115-0.078,0.184v1.376
		l-0.046,0.011c-0.539,0.141-0.917,0.626-0.917,1.18c0,0.675,0.549,1.223,1.224,1.223c0.674,0,1.223-0.548,1.223-1.223
		c0-0.554-0.377-1.039-0.918-1.18l-0.045-0.011V17.09l5.701-5.7c0.048-0.048,0.076-0.115,0.076-0.184V8.577h0.764v5.41l-2.813,2.812
		c-0.048,0.048-0.076,0.115-0.076,0.184v1.376l-0.046,0.011c-0.54,0.141-0.917,0.626-0.917,1.18c0,0.552,0.368,1.02,0.87,1.171
		c-0.13,0.431-0.202,0.887-0.202,1.359c0,1.813,1.066,3.479,2.715,4.244l0.148,0.069l-0.158,0.044
		c-1.088,0.308-2.106,0.882-2.941,1.659l-0.043,0.039l-0.978-0.979l-6.304,6.304L16.848,35.451z M36.191,19.55
		c0,0.388-0.314,0.702-0.703,0.702c-0.387,0-0.701-0.314-0.701-0.702c0-0.388,0.314-0.702,0.701-0.702
		C35.877,18.848,36.191,19.162,36.191,19.55 M19.503,19.55c0,0.388-0.315,0.702-0.702,0.702c-0.388,0-0.703-0.314-0.703-0.702
		c0-0.388,0.315-0.702,0.703-0.702C19.188,18.848,19.503,19.162,19.503,19.55 M21.448,37.239l1.598-1.598l0.794,0.794l-1.599,1.6
		L21.448,37.239z M22.662,38.455l1.6-1.598l0.754,0.755l-1.599,1.599L22.662,38.455z M24.589,40.382l-0.716-0.716l1.6-1.598
		l0.715,0.714L24.589,40.382z M25.822,41.07l-0.505-0.504l1.054-1.054l0.506,0.505L25.822,41.07z M27.947,41.007l-0.613-0.613
		l0.377-0.376l-0.923-0.923l0.241-0.239l0.426,0.426l-0.003,0.003l1.108,1.109L27.947,41.007z M32.473,35.794l-3.975-3.975
		l-2.769,2.769l-1.598-1.598l1.763-1.764l-0.416-0.417l-2.181,2.181l2.432,2.432l2.769-2.769l4.299,4.3l-0.848,0.849l-1.855-1.855
		l-0.416,0.417l1.854,1.855l-0.873,0.875l-1.856-1.855l-0.418,0.417l1.855,1.855l-0.861,0.861l-1.855-1.855l-0.385,0.385
		l-4.093-4.094l-1.157,1.157l-1.997-1.996l3.727-3.727h6.936l3.734,3.734L32.473,35.794z M33.025,28.017l5.469,5.47l-1.156,1.158
		l-3.918-3.917l-0.416,0.417l3.012,3.012l-0.356,0.356l-4.565-4.565L33.025,28.017z M29.756,27.315
		c0.678,0.298,1.298,0.704,1.841,1.206l0.046,0.043l-1.088,1.088H27.66l2.055-2.355L29.756,27.315z M32.02,19.55
		c0,0.362-0.275,0.66-0.627,0.698c-0.17-0.394-0.392-0.761-0.657-1.091c0.126-0.187,0.341-0.309,0.581-0.309
		C31.704,18.848,32.02,19.162,32.02,19.55 M31.057,17.09v1.269l-0.045,0.011c-0.253,0.067-0.469,0.207-0.628,0.395
		c-0.776-0.771-1.821-1.271-2.979-1.348v-8.84h0.764v5.517c0,0.07,0.027,0.136,0.076,0.184L31.057,17.09z M23.292,8.057
		c-0.918,0-1.664-0.747-1.664-1.665s0.746-1.665,1.664-1.665c0.191,0,0.381,0.033,0.566,0.1c0.083,0.031,0.178,0.015,0.247-0.039
		c0.072-0.054,0.109-0.14,0.1-0.229l-0.01-0.085c0-0.572,0.459-1.031,1.023-1.031c0.158,0,0.317,0.04,0.469,0.12
		c0.061,0.031,0.135,0.037,0.2,0.015c0.066-0.021,0.122-0.069,0.153-0.131c0.393-0.794,1.184-1.288,2.066-1.288
		c1.272,0,2.307,1.031,2.307,2.298c0,0.012-0.001,0.032-0.001,0.038c0,0.078,0.034,0.15,0.093,0.2
		c0.058,0.048,0.135,0.07,0.211,0.057c0.102-0.017,0.193-0.025,0.279-0.025c0.918,0,1.665,0.747,1.665,1.665
		s-0.747,1.665-1.665,1.665H23.292z M23.233,17.09l2.812-2.811c0.049-0.049,0.076-0.116,0.076-0.185V8.577h0.764v8.834
		c-1.173,0.052-2.234,0.538-3.027,1.3c-0.155-0.16-0.352-0.281-0.579-0.341l-0.046-0.011V17.09z M22.27,19.55
		c0-0.388,0.315-0.702,0.703-0.702c0.211,0,0.401,0.094,0.529,0.242c-0.285,0.343-0.521,0.726-0.701,1.141
		C22.496,20.154,22.27,19.878,22.27,19.55 M23.01,21.991c0.01-0.435,0.09-0.855,0.229-1.248c0.197-0.561,0.513-1.068,0.92-1.489
		c0.701-0.726,1.664-1.198,2.726-1.253c0.068-0.004,0.139-0.006,0.208-0.006c0.104,0,0.209,0.006,0.312,0.014
		c1.07,0.081,2.027,0.575,2.709,1.325c0.361,0.397,0.645,0.865,0.828,1.379c0.152,0.428,0.236,0.888,0.236,1.367l-0.002,0.104
		l-0.063-0.002c-2.723-0.072-4.344-1.014-4.914-1.415l-0.054-0.037l0.042-0.051c0.227-0.272,0.353-0.483,0.404-0.578l-0.531-0.258
		c-0.154,0.269-0.947,1.488-2.969,2.207l-0.084,0.029L23.01,21.991z M23.061,22.737l-0.008-0.052l0.049-0.016
		c1.025-0.337,1.898-0.833,2.595-1.474l0.037-0.035l0.04,0.031c0.6,0.445,2.313,1.491,5.273,1.579l0.071,0.003l-0.014,0.069
		c-0.364,1.926-2.052,3.323-4.012,3.323C25.079,26.165,23.384,24.723,23.061,22.737 M25.146,27.045
		c1.249-0.384,2.616-0.389,3.891,0.003l0.089,0.028l-2.033,2.33l-2.036-2.334L25.146,27.045z M22.602,28.509
		c0.542-0.5,1.156-0.902,1.824-1.196l0.041-0.019l2.058,2.358h-2.868l-1.101-1.101L22.602,28.509z M23.098,29.928l-4.566,4.563
		l-0.362-0.36l3.012-3.012l-0.418-0.417l-3.916,3.917L15.69,33.46l5.471-5.47L23.098,29.928z"/>
	<path style="clip-path:url(#SVGID_2_);fill:#FFFFFF;" d="M4.653,22.978l-3.592,3.611c-0.081,0.081-0.08,0.213,0.001,0.293
		l1.436,1.43c0.082,0.081,0.213,0.08,0.293-0.001l0.221-0.222c0.05-0.046,0.074-0.115,0.063-0.186
		c-0.036-0.216,0.035-0.438,0.189-0.593c0.266-0.268,0.699-0.268,0.966-0.003c0.267,0.266,0.268,0.698,0.003,0.966
		c-0.161,0.162-0.392,0.232-0.617,0.188c-0.067-0.014-0.138,0.008-0.187,0.057l-0.212,0.214c-0.081,0.082-0.081,0.213,0,0.294
		l5.068,5.039c0.081,0.081,0.212,0.081,0.292-0.001l1.449-1.455c0.08-0.081,0.08-0.212-0.002-0.293L9.81,32.104
		c-0.05-0.049-0.119-0.07-0.187-0.057c-0.224,0.045-0.456-0.023-0.618-0.185c-0.266-0.266-0.268-0.699-0.003-0.966
		c0.266-0.268,0.7-0.269,0.967-0.003c0.154,0.154,0.227,0.376,0.193,0.592c-0.012,0.069,0.012,0.137,0.061,0.184l0.225,0.223
		c0.08,0.08,0.211,0.08,0.292-0.001l5.02-5.049c0.081-0.08,0.081-0.212,0-0.292l-1.437-1.43c-0.081-0.081-0.212-0.08-0.293,0.001
		l-0.221,0.223c-0.049,0.047-0.074,0.116-0.063,0.184c0.036,0.217-0.035,0.438-0.189,0.594c-0.266,0.268-0.699,0.269-0.966,0.003
		c-0.266-0.266-0.268-0.699-0.003-0.966c0.162-0.162,0.393-0.233,0.617-0.188c0.069,0.014,0.138-0.009,0.187-0.056l0.214-0.215
		c0.08-0.081,0.079-0.212-0.002-0.293l-1.455-1.447c-0.082-0.082-0.213-0.081-0.293,0.001l-1.283,1.29l-0.01-0.011
		c0.017-0.312-0.099-0.619-0.322-0.842c-0.429-0.426-1.125-0.425-1.551,0.005c-0.428,0.429-0.426,1.125,0.004,1.551
		c0.23,0.228,0.546,0.342,0.865,0.315l-1.148,1.155l-1.31-1.302c-0.081-0.08-0.212-0.08-0.293,0.001l-0.213,0.214
		c-0.049,0.049-0.069,0.119-0.056,0.188c0.045,0.225-0.024,0.455-0.185,0.617c-0.266,0.267-0.699,0.269-0.966,0.003
		c-0.266-0.266-0.268-0.699-0.003-0.967c0.155-0.154,0.377-0.226,0.594-0.191c0.068,0.011,0.137-0.014,0.183-0.064L6.383,24.7
		c0.08-0.081,0.08-0.212-0.001-0.293l-1.436-1.429C4.864,22.896,4.733,22.896,4.653,22.978 M10.004,25.406
		c0.081-0.081,0.081-0.213-0.001-0.293L9.79,24.9c-0.048-0.049-0.119-0.07-0.186-0.057C9.378,24.89,9.147,24.82,8.987,24.66
		c-0.268-0.266-0.27-0.7-0.004-0.966c0.265-0.268,0.699-0.269,0.967-0.003c0.154,0.154,0.226,0.376,0.191,0.593
		c-0.01,0.068,0.014,0.135,0.064,0.182l0.222,0.223c0.081,0.08,0.212,0.08,0.293-0.001l1.283-1.29l1.156,1.148
		c-0.32-0.025-0.635,0.09-0.864,0.321c-0.426,0.428-0.424,1.125,0.004,1.551c0.43,0.426,1.125,0.424,1.551-0.005
		c0.223-0.224,0.337-0.531,0.318-0.843l0.009-0.011l0.542,0.539l-0.57,0.573c-0.08,0.081-0.08,0.213,0.001,0.293
		c0.081,0.081,0.212,0.08,0.292-0.001l0.571-0.572l0.308,0.306l-3.299,3.317l-1.145-1.137l0.011-0.011
		c0.312,0.019,0.62-0.098,0.841-0.321c0.428-0.429,0.426-1.125-0.004-1.552c-0.429-0.427-1.125-0.425-1.551,0.005
		c-0.228,0.229-0.343,0.546-0.316,0.864l-1.154-1.148L10.004,25.406z M8.412,27.009l1.309,1.302c0.08,0.081,0.211,0.08,0.293-0.001
		l0.213-0.214c0.049-0.049,0.068-0.119,0.056-0.187c-0.046-0.226,0.024-0.456,0.184-0.618c0.266-0.268,0.699-0.269,0.967-0.003
		c0.266,0.266,0.268,0.699,0.002,0.966c-0.154,0.154-0.376,0.228-0.592,0.192c-0.069-0.011-0.138,0.014-0.183,0.063l-0.223,0.224
		c-0.08,0.081-0.08,0.212,0.002,0.293l1.289,1.283l-1.137,1.144l-0.01-0.01c0.018-0.313-0.099-0.62-0.322-0.842
		c-0.429-0.427-1.125-0.425-1.551,0.004c-0.426,0.429-0.424,1.124,0.004,1.551c0.231,0.229,0.546,0.343,0.866,0.315l-0.563,0.565
		l-0.573-0.57c-0.081-0.081-0.212-0.081-0.292,0c-0.082,0.082-0.081,0.213,0,0.293l0.574,0.571L8.43,33.627l-3.318-3.301
		l1.148-1.154c-0.025,0.318,0.09,0.634,0.32,0.863c0.429,0.426,1.125,0.425,1.551-0.005c0.428-0.429,0.426-1.125-0.004-1.552
		c-0.222-0.222-0.531-0.336-0.842-0.316l-0.011-0.01L8.412,27.009z M5.934,24.563c-0.312-0.018-0.62,0.099-0.842,0.322
		c-0.427,0.429-0.425,1.125,0.004,1.551c0.43,0.427,1.125,0.425,1.552-0.004c0.228-0.229,0.341-0.546,0.315-0.865l1.155,1.149
		l-1.284,1.29c-0.08,0.081-0.08,0.213,0.001,0.293l0.223,0.222c0.047,0.049,0.115,0.073,0.185,0.063
		c0.215-0.037,0.438,0.034,0.593,0.188c0.267,0.266,0.268,0.699,0.002,0.966c-0.265,0.268-0.699,0.269-0.965,0.003
		C6.71,29.579,6.64,29.35,6.684,29.124c0.014-0.067-0.008-0.138-0.057-0.187l-0.214-0.213c-0.082-0.081-0.212-0.08-0.293,0.001
		l-1.301,1.309l-1.156-1.148c0.32,0.024,0.634-0.091,0.863-0.32c0.428-0.429,0.426-1.125-0.004-1.552
		c-0.429-0.427-1.125-0.425-1.551,0.005c-0.223,0.223-0.336,0.531-0.316,0.843l-0.011,0.01l-0.509-0.505l0.571-0.573
		c0.082-0.081,0.081-0.212-0.001-0.292c-0.081-0.082-0.211-0.081-0.292,0l-0.571,0.573L1.5,26.734l3.299-3.317l1.145,1.137
		L5.934,24.563z"/>
	<path style="clip-path:url(#SVGID_2_);fill:#FFFFFF;" d="M14.03,27.378l0.015-0.015c0.081-0.08,0.08-0.212,0-0.293
		c-0.082-0.08-0.213-0.08-0.293,0.001l-0.016,0.016c-0.08,0.081-0.08,0.212,0.001,0.292C13.818,27.46,13.949,27.46,14.03,27.378"/>
	<path style="clip-path:url(#SVGID_2_);fill:#FFFFFF;" d="M8.028,32.054c-0.081-0.08-0.212-0.08-0.293,0.001
		c-0.08,0.081-0.08,0.212,0.001,0.293l0.015,0.015c0.081,0.08,0.212,0.08,0.294-0.001c0.08-0.081,0.08-0.213-0.002-0.293
		L8.028,32.054z"/>
	<path style="clip-path:url(#SVGID_2_);fill:#FFFFFF;" d="M2.824,26.087l-0.015,0.015c-0.081,0.081-0.081,0.212,0,0.293
		s0.212,0.08,0.294-0.001l0.014-0.015c0.082-0.081,0.081-0.212,0-0.293C3.035,26.006,2.904,26.006,2.824,26.087"/>
</g>
</svg>
