<?xml version="1.0" encoding="iso-8859-1"?>
<!-- Generator: Adobe Illustrator 15.1.0, SVG Export Plug-In . SVG Version: 6.00 Build 0)  -->
<!DOCTYPE svg PUBLIC "-//W3C//DTD SVG 1.1//EN" "http://www.w3.org/Graphics/SVG/1.1/DTD/svg11.dtd">
<svg version="1.1" id="Layer_1" xmlns="http://www.w3.org/2000/svg" xmlns:xlink="http://www.w3.org/1999/xlink" x="0px" y="0px"
	 width="50px" height="50px" viewBox="0 0 50 50" style="enable-background:new 0 0 50 50;" xml:space="preserve">
<path style="fill:#FFFFFF;" d="M24.342,47.069l-0.31-0.006l0.013-0.615l0.616,0.01l-0.011,0.618L24.342,47.069z M25.504,46.447
	l0.616-0.03l0.03,0.615l-0.616,0.031L25.504,46.447z M22.843,46.987l-0.307-0.027l0.054-0.613l0.614,0.056l-0.054,0.614
	L22.843,46.987z M26.961,46.347l0.612-0.073l0.072,0.611l-0.306,0.038l-0.307,0.035L26.961,46.347z M21.351,46.803l-0.304-0.048
	l0.096-0.609l0.612,0.098l-0.098,0.609L21.351,46.803z M28.407,46.146l0.304-0.057h-0.002l0.304-0.057l0.115,0.606l-0.304,0.056
	l-0.304,0.057L28.407,46.146z M19.877,46.515l-0.302-0.069l0.141-0.602l0.601,0.14l-0.138,0.602L19.877,46.515z M29.836,45.85
	l0.595-0.155l0.156,0.597l-0.597,0.156L29.836,45.85z M18.427,46.124l-0.296-0.09l0.181-0.59l0.589,0.18l-0.179,0.59L18.427,46.124z
	 M31.24,45.454l0.584-0.195l0.194,0.585l-0.584,0.196L31.24,45.454z M17.006,45.635l-0.287-0.11l0.22-0.577l0.576,0.222
	l-0.221,0.576L17.006,45.635z M32.613,44.963l0.568-0.234l0.238,0.57l-0.572,0.235L32.613,44.963z M15.623,45.048l-0.278-0.13
	l0.257-0.559l0.561,0.259l-0.26,0.56L15.623,45.048z M8.452,39.699l-0.204-0.232l0.463-0.408l0.408,0.463l-0.462,0.409L8.452,39.699
	z M7.499,38.539l-0.188-0.244l0.49-0.376l0.375,0.49l-0.489,0.374L7.499,38.539z M6.626,37.319L6.626,37.319l-0.171-0.257
	l0.516-0.341l0.17,0.257l0.17,0.257l-0.513,0.341L6.626,37.319z M5.842,36.041l-0.153-0.269l0.535-0.304l0.306,0.536l-0.537,0.304
	L5.842,36.041z M43.341,35.506l0.289-0.546l0.544,0.291l-0.289,0.544L43.341,35.506z M5.146,34.712L5.146,34.712l-0.132-0.278
	l0.557-0.267l0.266,0.557L5.28,34.99L5.146,34.712z M44.002,34.204l0.251-0.563l0.564,0.252l-0.254,0.563L44.002,34.204z
	 M4.545,33.337L4.43,33.05l0.575-0.228l0.226,0.574l-0.573,0.227L4.545,33.337z M44.571,32.861l0.105-0.289l0.106-0.29l0.58,0.211
	l-0.214,0.581L44.571,32.861z M4.04,31.922l-0.095-0.293l0.587-0.188l0.189,0.589l-0.587,0.186L4.04,31.922z M45.047,31.481
	l0.173-0.593l0.593,0.173l-0.174,0.593L45.047,31.481z M3.634,30.478l-0.074-0.3l0.599-0.146l0.147,0.598l-0.6,0.148L3.634,30.478z
	 M3.332,29.043L3.332,29.043l-0.058-0.339h0.002l-0.043-0.271l0.61-0.098l0.145,0.871l-0.609,0.106L3.332,29.043z M3.094,27.249
	l-0.028-0.307l0.613-0.057L3.736,27.5l-0.614,0.056L3.094,27.249z M45.889,27.191l0.024-0.308l0.021-0.308l0.616,0.046l-0.025,0.309
	l-0.023,0.308L45.889,27.191z M3.009,25.749L3,25.442l0.618-0.016l0.015,0.616l-0.617,0.016L3.009,25.749z M45.969,25.735
	l0.004-0.617l0.616,0.003l-0.004,0.616L45.969,25.735z M3.013,24.557l0.012-0.309l0.014-0.309l0.616,0.029l-0.026,0.617
	L3.013,24.557z M45.93,23.968l-0.021-0.308l0.614-0.04l0.021,0.308l0.02,0.307l-0.614,0.04L45.93,23.968z M3.111,23.058l0.036-0.307
	l0.034-0.305l0.615,0.071l-0.073,0.614L3.111,23.058z M45.785,22.516l-0.039-0.306l0.61-0.082l0.081,0.613l-0.61,0.08L45.785,22.516
	z M3.316,21.569l0.114-0.606l0.605,0.113l-0.113,0.606L3.316,21.569z M45.547,21.076l-0.063-0.302l0.605-0.122l0.122,0.605
	l-0.605,0.122L45.547,21.076z M3.623,20.097L3.778,19.5l0.596,0.156l-0.077,0.299v-0.001L4.22,20.253L3.623,20.097z M45.207,19.657
	L45.207,19.657l-0.081-0.298l0.595-0.164l0.165,0.596l-0.596,0.163L45.207,19.657z M4.031,18.653l0.099-0.294v0.002l0.097-0.294
	l0.585,0.197l-0.197,0.585L4.031,18.653z M44.774,18.264L44.774,18.264l-0.103-0.292l0.582-0.204l0.103,0.292l0.103,0.291
	l-0.583,0.205L44.774,18.264z M44.246,16.906l-0.122-0.284l0.565-0.245l0.243,0.569l-0.566,0.241L44.246,16.906z M43.624,15.585
	L43.624,15.585l-0.142-0.274l0.55-0.283l0.14,0.276v-0.001l0.143,0.274l-0.551,0.284L43.624,15.585z M5.839,14.532l0.156-0.266
	L6.151,14l0.531,0.312l-0.156,0.267L6.37,14.843L5.839,14.532z M42.911,14.315l-0.16-0.264l0.528-0.32l0.318,0.528l-0.525,0.319
	L42.911,14.315z M6.624,13.252l0.349-0.508L7.48,13.09l-0.346,0.509L6.624,13.252z M42.113,13.094l-0.178-0.251l0.505-0.355
	l0.354,0.503l-0.503,0.356L42.113,13.094z M7.497,12.031l0.383-0.485l0.482,0.382l-0.381,0.484L7.497,12.031z M41.233,11.933
	l-0.194-0.239l0.477-0.39l0.195,0.239h0.002l0.193,0.241l-0.479,0.387L41.233,11.933z M8.449,10.87l0.415-0.457l0.456,0.414
	l-0.413,0.457L8.449,10.87z M40.275,10.834L40.275,10.834l-0.212-0.227l0.45-0.419l0.21,0.225v-0.001l0.211,0.225l-0.451,0.422
	L40.275,10.834z M9.478,9.779l0.446-0.428l0.427,0.444l-0.443,0.429L9.478,9.779z M39.242,9.804l-0.228-0.211l0.422-0.451
	l0.452,0.42l-0.422,0.452L39.242,9.804z M10.582,8.761l0.235-0.198h0.001l0.236-0.198l0.397,0.472l-0.237,0.198l-0.236,0.198
	L10.582,8.761z M38.14,8.846l-0.237-0.195l0.388-0.478l0.479,0.388L38.38,9.04L38.14,8.846z M11.753,7.821l0.248-0.182l0.25-0.181
	l0.362,0.498l-0.25,0.182L12.116,8.32L11.753,7.821z M36.977,7.967L36.977,7.967l-0.252-0.178l0.354-0.504l0.254,0.177l0.251,0.177
	L37.23,8.144L36.977,7.967z M12.983,6.963l0.524-0.327l0.326,0.524L13.31,7.487L12.983,6.963z M35.757,7.168l-0.264-0.161
	l0.317-0.526l0.265,0.158l0.264,0.162L36.02,7.328L35.757,7.168z M14.271,6.193l0.545-0.289l0.289,0.544l-0.543,0.291L14.271,6.193z
	 M34.481,6.454l-0.273-0.141l0.282-0.548l0.548,0.284l-0.282,0.548L34.481,6.454z M15.61,5.515l0.282-0.126l0.282-0.126l0.252,0.564
	l-0.565,0.252L15.61,5.515z M33.163,5.831l-0.284-0.123l0.244-0.566l0.566,0.245l-0.243,0.566L33.163,5.831z M31.803,5.3
	l-0.289-0.103l0.205-0.582l0.58,0.205l-0.205,0.583L31.803,5.3z M30.41,4.863L30.112,4.78l0.165-0.594l0.595,0.164l-0.163,0.595
	L30.41,4.863z M28.991,4.523l-0.302-0.061l0.122-0.604l0.604,0.124l-0.12,0.603L28.991,4.523z M21.338,3.767l0.305-0.045
	l0.305-0.044l0.09,0.611l-0.307,0.044l-0.303,0.044L21.338,3.767z M27.55,4.285l-0.305-0.04l0.079-0.611l0.612,0.08l-0.081,0.61
	L27.55,4.285z M22.829,3.579l0.612-0.046l0.049,0.614l-0.614,0.049L22.829,3.579z M26.098,4.146L25.79,4.127l0.039-0.616
	l0.616,0.037l-0.039,0.616L26.098,4.146z M24.327,3.493l0.309-0.002l0.307-0.003l0.006,0.617l-0.616,0.006L24.327,3.493z"/>
<g>
	<defs>
		<rect id="SVGID_1_" width="50" height="50"/>
	</defs>
	<clipPath id="SVGID_2_">
		<use xlink:href="#SVGID_1_"  style="overflow:visible;"/>
	</clipPath>
	<path style="clip-path:url(#SVGID_2_);fill:#FFFFFF;" d="M38.166,33.345c-3.528,0-6.401,2.873-6.401,6.401s2.873,6.4,6.401,6.4
		s6.401-2.872,6.401-6.4S41.694,33.345,38.166,33.345 M38.166,33.639c3.367,0,6.108,2.74,6.108,6.107
		c0,3.366-2.741,6.108-6.108,6.108c-3.366,0-6.108-2.742-6.108-6.108C32.058,36.379,34.8,33.639,38.166,33.639 M38.166,34.255
		c-1.919,0-3.601,0.978-4.579,2.468c0.127,0.005,0.25,0.016,0.354,0.016c0.573,0,1.466-0.077,1.466-0.077
		c0.295-0.018,0.325,0.428,0.031,0.463c0,0-0.304,0.029-0.633,0.046l2.005,5.938l1.202-3.594l-0.862-2.345
		c-0.297-0.017-0.571-0.046-0.571-0.046c-0.297-0.018-0.265-0.48,0.03-0.463c0,0,0.911,0.077,1.45,0.077
		c0.575,0,1.466-0.077,1.466-0.077c0.298-0.018,0.325,0.428,0.03,0.463c0,0-0.304,0.029-0.632,0.046l1.988,5.893l0.541-1.82
		c0.278-0.714,0.417-1.303,0.417-1.773c0-0.68-0.237-1.146-0.447-1.512c-0.278-0.453-0.541-0.843-0.541-1.296
		c0-0.503,0.387-0.972,0.925-0.972c0.025,0,0.055-0.001,0.078,0C40.906,34.795,39.597,34.255,38.166,34.255 M42.979,37.109
		c0.025,0.175,0.047,0.368,0.047,0.569c0,0.558-0.104,1.177-0.417,1.959l-1.682,4.844c1.631-0.953,2.73-2.711,2.73-4.735
		C43.658,38.791,43.407,37.89,42.979,37.109 M33.153,37.51c-0.305,0.683-0.478,1.44-0.478,2.236c0,2.172,1.269,4.044,3.101,4.935
		L33.153,37.51z M38.26,40.224l-1.635,4.781c0.49,0.145,1.002,0.232,1.541,0.232c0.638,0,1.251-0.124,1.82-0.325
		c-0.013-0.023-0.019-0.035-0.03-0.062L38.26,40.224z"/>
</g>
<g>
	<defs>
		<rect id="SVGID_3_" x="7.921" y="38.536" width="8.212" height="7.554"/>
	</defs>
	<clipPath id="SVGID_4_">
		<use xlink:href="#SVGID_3_"  style="overflow:visible;"/>
	</clipPath>
	<path style="clip-path:url(#SVGID_4_);fill:#FFFFFF;" d="M10.368,38.688c-0.473,0-0.849,0.386-0.849,0.86
		c0,0.399,0.274,0.726,0.642,0.818c0.282,0.131,0.697,0.337,0.779,0.503c0.117,0.213,0.218,0.606,0.207,0.909v0.009
		c-0.145,0.206-0.237,0.461-0.237,0.731c0,0.693,0.569,1.263,1.265,1.263c0.693,0,1.263-0.569,1.263-1.263
		c0-0.695-0.57-1.296-1.263-1.264c-0.11,0-0.215,0.014-0.316,0.039c-0.335-0.139-0.549-0.37-0.661-0.554
		c-0.092-0.146-0.079-0.526-0.051-0.837c0.051-0.107,0.079-0.229,0.079-0.355C11.226,39.073,10.842,38.688,10.368,38.688
		 M13.467,38.688c-0.475,0-0.848,0.386-0.848,0.86c0,0.473,0.373,0.848,0.848,0.848c0.474,0,0.849-0.375,0.849-0.848
		C14.316,39.073,13.941,38.688,13.467,38.688 M15.263,41.373c-0.474,0-0.848,0.385-0.848,0.858c0,0.473,0.374,0.849,0.848,0.849
		s0.859-0.376,0.859-0.849C16.122,41.79,15.737,41.373,15.263,41.373 M8.76,41.502c-0.475,0-0.848,0.385-0.848,0.857
		s0.373,0.848,0.848,0.848c0.474,0,0.858-0.375,0.858-0.848C9.618,41.919,9.234,41.533,8.76,41.502 M10.409,44.373
		c-0.475,0-0.86,0.385-0.86,0.858s0.385,0.849,0.86,0.849c0.473,0,0.848-0.375,0.848-0.849S10.882,44.373,10.409,44.373
		 M13.783,44.373c-0.475,0-0.85,0.385-0.85,0.858s0.375,0.849,0.85,0.849s0.85-0.375,0.85-0.849S14.258,44.373,13.783,44.373"/>
</g>
<g>
	<defs>
		<rect id="SVGID_5_" width="50" height="50"/>
	</defs>
	<clipPath id="SVGID_6_">
		<use xlink:href="#SVGID_5_"  style="overflow:visible;"/>
	</clipPath>
	<path style="clip-path:url(#SVGID_6_);fill:#FFFFFF;" d="M15.748,35.944c-1.916,0-3.251-0.798-3.251-1.513v-0.779l0.101,0.087
		c0.674,0.576,1.853,0.922,3.15,0.922c1.144,0,2.19-0.268,2.886-0.725v-0.052h-0.419v-0.232c-0.578,0.323-1.439,0.552-2.467,0.552
		c-1.916,0-3.251-0.796-3.251-1.512v-0.78l0.101,0.087c0.674,0.577,1.853,0.922,3.15,0.922c0.931,0,1.801-0.179,2.467-0.492v-0.517
		c-0.578,0.322-1.439,0.552-2.467,0.552c-1.916,0-3.251-0.796-3.251-1.511v-0.781l0.101,0.087c0.674,0.578,1.853,0.922,3.15,0.922
		c0.933,0,1.801-0.177,2.467-0.492v-0.517c-0.578,0.323-1.439,0.552-2.467,0.552c-1.916,0-3.251-0.797-3.251-1.511
		c0-0.663,1.132-1.426,2.959-1.504h0.584c0.919,0.039,1.663,0.252,2.175,0.538v-0.513c-0.584-0.271-1.336-0.449-2.179-0.481h-0.577
		c-1.947,0.076-3.419,0.919-3.419,1.96v5.219c0,1.105,1.63,1.969,3.708,1.969c1.895,0,3.412-0.717,3.671-1.678h-0.488
		C18.63,35.347,17.407,35.944,15.748,35.944"/>
	<rect x="19.053" y="33.885" style="clip-path:url(#SVGID_6_);fill:#FFFFFF;" width="0.404" height="0.419"/>
	<path style="clip-path:url(#SVGID_6_);fill:#FFFFFF;" d="M19,29.213c0,0.223-0.129,0.454-0.366,0.666v0.578
		c0.095-0.063,0.183-0.129,0.265-0.198L19,30.171v0.782c0,0.223-0.129,0.454-0.366,0.666v0.577c0.095-0.063,0.183-0.128,0.265-0.197
		L19,31.912v0.781c0,0.223-0.129,0.453-0.366,0.666v0.105h0.823v-4.252c0-0.474-0.306-0.908-0.823-1.247v0.578
		C18.871,28.758,19,28.991,19,29.213"/>
	<path style="clip-path:url(#SVGID_6_);fill:#FFFFFF;" d="M22.617,30.321c0.576,0,1.047-0.47,1.047-1.046
		c0-0.579-0.471-1.049-1.047-1.049c-0.579,0-1.05,0.47-1.05,1.049C21.567,29.852,22.038,30.321,22.617,30.321 M22.617,28.645
		c0.347,0,0.629,0.283,0.629,0.631c0,0.347-0.282,0.628-0.629,0.628s-0.631-0.281-0.631-0.628
		C21.986,28.928,22.27,28.645,22.617,28.645"/>
	<rect x="22.406" y="29.065" style="clip-path:url(#SVGID_6_);fill:#FFFFFF;" width="0.419" height="0.419"/>
	<path style="clip-path:url(#SVGID_6_);fill:#FFFFFF;" d="M26.598,25.083H26.18v-0.839h-0.421v0.839h-0.418v-0.839h-0.419v0.839
		H24.5v-0.839h-0.418v0.839h-0.419v-0.839h-0.418v0.839h-4.612v-1.257h7.758c-0.246-0.183-0.46-0.404-0.633-0.656v0.236h-0.418
		v-0.838h-0.419v0.838H24.5v-0.838h-0.418v0.838h-0.419v-0.838h-0.418v0.838h-4.612v-1.257h6.696
		c-0.027-0.136-0.045-0.276-0.051-0.42h-7.064v6.005c0.152,0.071,0.291,0.148,0.419,0.231V27.18h7.116l-1.365,1.364l0.424,0.424
		c-0.047,0.099-0.09,0.201-0.126,0.308h-0.6v2.094h0.6c0.036,0.106,0.079,0.209,0.126,0.308l-0.424,0.424l1.365,1.364h-6.293v0.42
		h0.435v0.42h-0.435v0.128c0,0.1-0.012,0.196-0.038,0.291h0.891v-0.839h4.612v0.839h1.676v-0.839h2.097v-0.6
		c0.104-0.037,0.207-0.079,0.306-0.126l0.424,0.423l1.482-1.481l-0.424-0.424c0.047-0.099,0.09-0.201,0.127-0.308h0.599v-2.094
		h-0.599c-0.037-0.106-0.08-0.209-0.127-0.308l0.424-0.424l-1.482-1.481L29,27.485c-0.099-0.046-0.201-0.089-0.306-0.125V26.76
		h-1.678v-2.585c-0.146-0.058-0.285-0.127-0.419-0.209V25.083z M25.341,26.76v-0.839h-0.419v0.839H24.5v-0.839h-0.418v0.839h-0.419
		v-0.839h-0.418v0.839h-4.612v-1.257h7.964v1.257H26.18v-0.839h-0.421v0.839H25.341z M26.598,27.18v0.181
		c-0.105,0.036-0.208,0.079-0.307,0.125l-0.308-0.306H26.598z M26.18,34.305h-0.839v-0.42h0.839V34.305z M26.598,33.465h-0.614
		l0.308-0.306c0.099,0.047,0.201,0.089,0.307,0.126V33.465z M27.017,27.18h1.258v0.487l0.149,0.045
		c0.183,0.055,0.357,0.126,0.519,0.213l0.138,0.074l0.344-0.345l0.89,0.89l-0.345,0.345l0.073,0.138
		c0.088,0.162,0.16,0.335,0.214,0.518l0.045,0.149h0.488v1.258h-0.488l-0.045,0.149c-0.054,0.183-0.126,0.357-0.214,0.518
		l-0.073,0.138l0.345,0.345l-0.89,0.889l-0.344-0.345l-0.14,0.074c-0.159,0.088-0.334,0.158-0.517,0.214l-0.149,0.044v0.488h-1.258
		v-0.488l-0.149-0.044c-0.183-0.055-0.357-0.126-0.517-0.214l-0.139-0.074l-0.345,0.345l-0.89-0.889l0.345-0.345l-0.073-0.139
		c-0.088-0.159-0.158-0.334-0.214-0.517l-0.042-0.149H24.5v-1.258h0.492l0.042-0.15c0.056-0.182,0.126-0.355,0.214-0.517
		l0.073-0.138l-0.345-0.345l0.89-0.89l0.345,0.345l0.139-0.074c0.159-0.087,0.334-0.158,0.517-0.213l0.149-0.045V27.18z"/>
	<path style="clip-path:url(#SVGID_6_);fill:#FFFFFF;" d="M26.075,22.568c0.032,0.064,0.066,0.126,0.104,0.187v-0.187H26.075z"/>
	<path style="clip-path:url(#SVGID_6_);fill:#FFFFFF;" d="M18.634,29.878c-0.115,0.104-0.255,0.202-0.419,0.294v0.518
		c0.151-0.072,0.291-0.148,0.419-0.232V29.878z"/>
	<path style="clip-path:url(#SVGID_6_);fill:#FFFFFF;" d="M19.457,34.304h-0.404v-0.419h0.404v-0.419h-0.823v-0.107
		c-0.115,0.104-0.255,0.202-0.419,0.294v0.232h0.419v0.052c0.095-0.063,0.183-0.128,0.265-0.197L19,33.652v0.779
		c0,0.097-0.024,0.194-0.069,0.291h0.488c0.025-0.094,0.038-0.191,0.038-0.291V34.304z"/>
	<path style="clip-path:url(#SVGID_6_);fill:#FFFFFF;" d="M18.634,31.619c-0.115,0.104-0.255,0.201-0.419,0.293v0.517
		c0.151-0.071,0.291-0.148,0.419-0.232V31.619z"/>
	<path style="clip-path:url(#SVGID_6_);fill:#FFFFFF;" d="M18.634,28.544v-0.578c-0.128-0.083-0.268-0.161-0.419-0.231v0.513
		C18.381,28.339,18.519,28.439,18.634,28.544"/>
	<path style="clip-path:url(#SVGID_6_);fill:#FFFFFF;" d="M25.759,30.321c0,1.041,0.847,1.888,1.887,1.888s1.887-0.847,1.887-1.888
		c0-1.038-0.847-1.885-1.887-1.885S25.759,29.283,25.759,30.321 M26.758,29.73l0.295-0.297l-0.284-0.284
		c0.192-0.144,0.421-0.242,0.669-0.277v0.402h0.418v-0.402c0.248,0.035,0.475,0.134,0.667,0.277l-0.284,0.284l0.297,0.297
		l0.283-0.285c0.144,0.192,0.243,0.419,0.278,0.667h-0.402v0.419h0.402c-0.035,0.248-0.135,0.477-0.278,0.668l-0.283-0.284
		l-0.297,0.297l0.284,0.283c-0.192,0.145-0.419,0.242-0.667,0.277v-0.403h-0.418v0.403c-0.248-0.035-0.477-0.133-0.669-0.277
		l0.284-0.283l-0.295-0.297l-0.285,0.284c-0.145-0.191-0.241-0.42-0.277-0.668h0.402v-0.419h-0.402
		c0.036-0.248,0.133-0.475,0.277-0.667L26.758,29.73z"/>
	<path style="clip-path:url(#SVGID_6_);fill:#FFFFFF;" d="M37.904,18.858h-0.132L37.76,18.75c-0.201-1.814-1.731-3.183-3.557-3.183
		c-1.238,0-2.37,0.627-3.025,1.673l-0.051,0.08l-0.09-0.027c-0.176-0.054-0.355-0.08-0.537-0.08c-0.931,0-1.729,0.664-1.9,1.581
		l-0.021,0.117l-0.119-0.018c-0.142-0.022-0.285-0.034-0.428-0.034c-1.518,0-2.756,1.236-2.756,2.755
		c0,0.039,0.002,0.078,0.004,0.116h0.578c-0.001-0.038-0.005-0.077-0.005-0.116c0-1.202,0.978-2.18,2.179-2.18
		c0.25,0,0.5,0.044,0.74,0.132c0.092,0.033,0.198,0.016,0.275-0.043c0.079-0.06,0.12-0.155,0.111-0.253l-0.015-0.123
		c0-0.749,0.607-1.358,1.356-1.358c0.21,0,0.419,0.053,0.622,0.158c0.068,0.035,0.15,0.042,0.223,0.019
		c0.071-0.024,0.135-0.078,0.169-0.147c0.51-1.032,1.541-1.675,2.689-1.675c1.656,0,3.002,1.341,3.002,2.991
		c0,0.017-0.002,0.04-0.002,0.048c0,0.086,0.038,0.166,0.103,0.22c0.064,0.054,0.151,0.079,0.235,0.064
		c0.133-0.023,0.252-0.033,0.363-0.033c1.203,0,2.181,0.978,2.181,2.18c0,1.203-0.978,2.18-2.181,2.18h-9.873
		c-0.366,0-0.711-0.092-1.015-0.253v0.634c0.314,0.126,0.657,0.195,1.015,0.195h9.873c1.521,0,2.758-1.236,2.758-2.756
		C40.662,20.094,39.426,18.858,37.904,18.858"/>
	<path style="clip-path:url(#SVGID_6_);fill:#FFFFFF;" d="M26.18,22.755v0.651h0.418v-0.155
		C26.435,23.108,26.293,22.941,26.18,22.755"/>
	<path style="clip-path:url(#SVGID_6_);fill:#FFFFFF;" d="M25.33,22.149c0.073,0.373,0.221,0.719,0.429,1.021v-0.602h0.316
		c-0.064-0.132-0.117-0.273-0.152-0.419H25.33z"/>
	<path style="clip-path:url(#SVGID_6_);fill:#FFFFFF;" d="M26.598,23.826h-0.206c0.066,0.049,0.135,0.096,0.206,0.139V23.826z"/>
	<path style="clip-path:url(#SVGID_6_);fill:#FFFFFF;" d="M25.923,22.149c-0.036-0.135-0.058-0.275-0.065-0.419h-0.578
		c0.006,0.143,0.023,0.283,0.051,0.419H25.923z"/>
	<path style="clip-path:url(#SVGID_6_);fill:#FFFFFF;" d="M26.598,23.251v0.155H26.18v-0.651c-0.038-0.06-0.072-0.123-0.104-0.187
		h-0.317v0.602c0.173,0.252,0.387,0.474,0.633,0.656h0.206v0.139c0.134,0.082,0.273,0.151,0.419,0.209V23.54
		C26.867,23.46,26.726,23.362,26.598,23.251"/>
	<rect x="37.616" y="20.503" style="clip-path:url(#SVGID_6_);fill:#FFFFFF;" width="0.577" height="0.577"/>
	<rect x="37.616" y="22.148" style="clip-path:url(#SVGID_6_);fill:#FFFFFF;" width="0.577" height="0.577"/>
	<rect x="35.973" y="22.148" style="clip-path:url(#SVGID_6_);fill:#FFFFFF;" width="0.575" height="0.577"/>
	<path style="clip-path:url(#SVGID_6_);fill:#FFFFFF;" d="M20.021,4.658V4.104c-0.623-0.06-1.12-0.557-1.179-1.18h-0.555
		c-0.057,0.623-0.554,1.12-1.179,1.18v0.554c0.625,0.058,1.122,0.555,1.179,1.178h0.555C18.901,5.212,19.398,4.715,20.021,4.658
		 M19.045,4.479c-0.144,0.107-0.271,0.235-0.381,0.382l-0.098,0.133L18.467,4.86c-0.109-0.147-0.237-0.275-0.383-0.382l-0.133-0.099
		l0.133-0.099c0.146-0.107,0.274-0.236,0.383-0.381l0.099-0.133l0.098,0.133c0.109,0.145,0.237,0.274,0.381,0.381l0.133,0.099
		L19.045,4.479z"/>
	<path style="clip-path:url(#SVGID_6_);fill:#FFFFFF;" d="M47,29.415V29c-0.426-0.03-0.768-0.372-0.798-0.799h-0.416
		c-0.029,0.427-0.371,0.769-0.798,0.799v0.415c0.427,0.03,0.769,0.372,0.798,0.798h0.416C46.232,29.787,46.574,29.445,47,29.415
		 M46.307,29.257c-0.101,0.075-0.188,0.163-0.263,0.263l-0.05,0.066l-0.049-0.066c-0.073-0.099-0.163-0.188-0.264-0.263
		l-0.065-0.049l0.066-0.051c0.1-0.073,0.187-0.162,0.263-0.263l0.049-0.065l0.05,0.065c0.074,0.101,0.162,0.189,0.263,0.263
		l0.066,0.051L46.307,29.257z"/>
	<path style="clip-path:url(#SVGID_6_);fill:#FFFFFF;" d="M6.279,16.342v-0.384c-0.399-0.029-0.718-0.35-0.749-0.751H5.147
		c-0.031,0.401-0.352,0.722-0.752,0.751v0.384c0.4,0.03,0.721,0.35,0.752,0.751H5.53C5.561,16.692,5.88,16.372,6.279,16.342
		 M5.634,16.2c-0.094,0.069-0.176,0.152-0.246,0.246l-0.051,0.067l-0.048-0.067c-0.07-0.093-0.153-0.177-0.246-0.246l-0.066-0.05
		l0.066-0.05c0.093-0.069,0.176-0.152,0.246-0.246l0.048-0.066l0.051,0.066c0.07,0.095,0.152,0.177,0.246,0.246L5.7,16.15
		L5.634,16.2z"/>
</g>
</svg>
