<?xml version="1.0" encoding="iso-8859-1"?>
<!-- Generator: Adobe Illustrator 15.1.0, SVG Export Plug-In . SVG Version: 6.00 Build 0)  -->
<!DOCTYPE svg PUBLIC "-//W3C//DTD SVG 1.1//EN" "http://www.w3.org/Graphics/SVG/1.1/DTD/svg11.dtd">
<svg version="1.1" id="Layer_1" xmlns="http://www.w3.org/2000/svg" xmlns:xlink="http://www.w3.org/1999/xlink" x="0px" y="0px"
	 width="50px" height="50px" viewBox="0 0 50 50" style="enable-background:new 0 0 50 50;" xml:space="preserve">
<path style="fill:#FFFFFF;" d="M24.542,46.993l-0.311-0.006l0.014-0.621l0.31,0.006l0.311,0.005L24.855,47L24.542,46.993z
	 M25.716,46.365l0.622-0.031l0.029,0.622l-0.619,0.031L25.716,46.365z M23.029,46.911L23.029,46.911l-0.311-0.028l0.056-0.619
	l0.62,0.056l-0.054,0.62L23.029,46.911z M27.186,46.264l0.311-0.037l0.31-0.036l0.071,0.617l-0.308,0.037l-0.31,0.036L27.186,46.264
	z M21.525,46.725l-0.309-0.049l0.099-0.615l0.616,0.099l-0.098,0.616L21.525,46.725z M28.645,46.063l0.612-0.115l0.115,0.612
	l-0.612,0.114L28.645,46.063z M20.035,46.433L20.035,46.433l-0.303-0.069l0.14-0.607l0.606,0.142l-0.138,0.607L20.035,46.433z
	 M30.088,45.762l0.602-0.157l0.158,0.603l-0.301,0.079l-0.303,0.079L30.088,45.762z M18.57,46.04L18.57,46.04l-0.297-0.092
	l0.183-0.596l0.594,0.183l-0.181,0.595L18.57,46.04z M17.138,45.545l-0.292-0.111l0.224-0.582l0.58,0.224l-0.223,0.582
	L17.138,45.545z M34.242,44.28l0.279-0.139l0.279-0.14l0.275,0.558l-0.278,0.14l-0.278,0.138L34.242,44.28z M35.545,43.6
	l0.539-0.317l0.315,0.538l-0.271,0.158l-0.269,0.157L35.545,43.6z M36.798,42.828l0.259-0.176l0.258-0.175l0.352,0.515l-0.257,0.175
	l-0.259,0.176L36.798,42.828z M37.998,41.974l0.244-0.193l0.245-0.192l0.387,0.489l-0.489,0.386L37.998,41.974z M39.135,41.038
	l0.461-0.42l0.418,0.462l-0.459,0.419L39.135,41.038z M9.545,40.651l-0.222-0.218l0.438-0.443l0.443,0.436L9.767,40.87L9.545,40.651
	z M40.204,40.026l0.432-0.45l0.449,0.431l-0.432,0.449L40.204,40.026z M8.505,39.553l-0.208-0.234l0.467-0.412l0.411,0.467
	l-0.464,0.413L8.505,39.553z M41.201,38.943l0.199-0.238l0.2-0.24l0.478,0.399l-0.198,0.238l-0.2,0.239L41.201,38.943z
	 M7.541,38.383L7.541,38.383l-0.191-0.246l0.496-0.38l0.189,0.248l0.19,0.246L7.731,38.63L7.541,38.383z M42.123,37.794l0.365-0.505
	l0.506,0.365l-0.365,0.505L42.123,37.794z M6.659,37.151l-0.172-0.261l0.519-0.344l0.343,0.519L6.833,37.41L6.659,37.151z
	 M42.964,36.585l0.331-0.529l0.527,0.33l-0.329,0.528L42.964,36.585z M5.867,35.86L5.867,35.86l-0.155-0.271l0.542-0.306
	l0.156,0.271l0.152,0.271L6.02,36.131L5.867,35.86z M43.721,35.32l0.291-0.55l0.551,0.293l-0.293,0.55L43.721,35.32z M5.167,34.52
	l-0.135-0.282l0.562-0.269l0.269,0.562L5.3,34.8L5.167,34.52z M44.389,34.006l0.254-0.566l0.567,0.254l-0.255,0.568L44.389,34.006z
	 M4.558,33.131L4.558,33.131l-0.114-0.29l0.578-0.229l0.23,0.58L4.673,33.42L4.558,33.131z M44.963,32.651l0.107-0.292l0.107-0.294
	l0.586,0.215l-0.217,0.585L44.963,32.651z M4.048,31.703L4.048,31.703l-0.095-0.296l0.594-0.189l0.189,0.594L4.143,32L4.048,31.703z
	 M45.445,31.259l0.086-0.301l0.086-0.299l0.599,0.175l-0.173,0.598L45.445,31.259z M3.638,30.245L3.638,30.245l-0.075-0.303
	l0.607-0.147l0.074,0.302L4.317,30.4l-0.605,0.147L3.638,30.245z M45.828,29.834l0.133-0.607l0.606,0.133l-0.131,0.607
	L45.828,29.834z M3.334,28.797H3.333l-0.055-0.342l0.002-0.001l-0.045-0.273l0.615-0.098l0.094,0.573l0.053,0.306l-0.614,0.107
	L3.334,28.797z M46.111,28.388l0.089-0.617l0.618,0.091l-0.09,0.616L46.111,28.388z M3.093,26.985l-0.027-0.31l0.619-0.058
	l0.057,0.621l-0.621,0.056L3.093,26.985z M46.293,26.928l0.046-0.622l0.622,0.047l-0.023,0.311l-0.023,0.31L46.293,26.928z
	 M3.006,25.472L3,25.161l0.623-0.016l0.013,0.623l-0.623,0.015L3.006,25.472z M46.374,25.457l0.003-0.622L47,24.837l-0.002,0.622
	L46.374,25.457z M3.009,24.268l0.015-0.312l0.015-0.311l0.623,0.028l-0.03,0.623L3.009,24.268z M46.334,23.673l-0.021-0.312
	l0.623-0.038l0.038,0.622l-0.621,0.039L46.334,23.673z M3.112,22.756l0.036-0.31l0.033-0.309l0.62,0.072L3.73,22.828L3.112,22.756z
	 M46.189,22.208L46.15,21.9l0.615-0.083l0.082,0.618l-0.617,0.081L46.189,22.208z M3.318,21.252l0.114-0.611l0.613,0.114
	L3.93,21.367L3.318,21.252z M45.947,20.755l-0.063-0.306l0.611-0.123l0.063,0.306l0.061,0.305l-0.611,0.123L45.947,20.755z
	 M3.628,19.767l0.079-0.302l0.078-0.301l0.601,0.156l-0.155,0.603L3.628,19.767z M45.605,19.321l-0.082-0.299l0.602-0.166l0.082,0.3
	l0.081,0.3l-0.601,0.166L45.605,19.321z M4.039,18.309l0.199-0.592l0.59,0.198l-0.197,0.591L4.039,18.309z M45.167,17.915h0.002
	l-0.103-0.293l0.588-0.206l0.102,0.294l0.103,0.294l-0.587,0.206L45.167,17.915z M4.551,16.881l0.239-0.575l0.577,0.238l-0.24,0.575
	L4.551,16.881z M44.635,16.545l-0.123-0.286l0.571-0.246l0.245,0.572l-0.572,0.244L44.635,16.545z M5.16,15.492l0.277-0.558
	l0.559,0.278l-0.278,0.557L5.16,15.492z M44.006,15.212l-0.143-0.276l0.555-0.286l0.285,0.554l-0.555,0.285L44.006,15.212z
	 M43.289,13.929L43.289,13.929l-0.161-0.267l0.532-0.322l0.16,0.267l0.162,0.266l-0.532,0.323L43.289,13.929z M42.481,12.696
	L42.481,12.696l-0.179-0.253l0.51-0.358l0.18,0.254l0.179,0.254l-0.509,0.359L42.481,12.696z M7.538,11.624l0.385-0.49l0.489,0.387
	l-0.194,0.244l-0.191,0.244L7.538,11.624z M41.594,11.526l-0.197-0.242l0.483-0.394l0.196,0.242l0.197,0.241l-0.482,0.393
	L41.594,11.526z M8.5,10.451l0.418-0.46l0.463,0.417l-0.42,0.462L8.5,10.451z M40.627,10.415l-0.213-0.228l0.453-0.424l0.428,0.454
	l-0.457,0.426L40.627,10.415z M9.541,9.351l0.449-0.433l0.432,0.448L9.97,9.8L9.541,9.351z M39.583,9.375L39.583,9.375l-0.228-0.213
	l0.424-0.455l0.229,0.213l0.229,0.213l-0.424,0.454L39.583,9.375z M10.653,8.322l0.236-0.199l0.241-0.201L11.529,8.4l-0.238,0.199
	L11.052,8.8L10.653,8.322z M38.473,8.408L38.473,8.408L38.23,8.213l0.393-0.484l0.483,0.392l-0.392,0.484L38.473,8.408z
	 M11.834,7.374l0.252-0.183V7.19l0.252-0.182l0.365,0.504l-0.252,0.182L12.2,7.878L11.834,7.374z M13.078,6.508l0.525-0.33
	l0.332,0.528L13.67,6.87l-0.263,0.166L13.078,6.508z M36.064,6.715l-0.267-0.162l0.324-0.532l0.265,0.16l0.268,0.163l-0.322,0.532
	L36.064,6.715z M14.377,5.731l0.55-0.292l0.291,0.548l-0.546,0.294L14.377,5.731z M34.779,5.995l-0.275-0.142l0.284-0.554
	l0.276,0.144l0.276,0.141l-0.286,0.554L34.779,5.995z M15.729,5.046l0.282-0.127l0.287-0.127l0.254,0.569l-0.569,0.254L15.729,5.046
	z M33.447,5.364L33.16,5.241l0.248-0.571l0.572,0.246L33.733,5.49L33.447,5.364z M17.126,4.457l0.583-0.215l0.213,0.584
	l-0.583,0.216L17.126,4.457z M32.076,4.829L32.076,4.829L31.78,4.726l0.208-0.587l0.293,0.102l0.294,0.103l-0.206,0.59L32.076,4.829
	z M18.558,3.965l0.598-0.173l0.174,0.597l-0.598,0.174L18.558,3.965z M30.668,4.388h0.002l-0.301-0.083l0.165-0.6l0.301,0.083
	l0.301,0.082l-0.167,0.601L30.668,4.388z M20.022,3.573l0.305-0.067l0.304-0.065l0.132,0.609l-0.61,0.132L20.022,3.573z
	 M29.236,4.045L29.236,4.045l-0.305-0.061l0.121-0.61l0.307,0.062l0.307,0.06l-0.123,0.612L29.236,4.045z M21.51,3.281l0.308-0.045
	l0.309-0.044l0.09,0.616l-0.309,0.045l-0.307,0.045L21.51,3.281z M27.782,3.805L27.782,3.805l-0.308-0.041l0.08-0.616l0.309,0.039
	l0.308,0.04L28.09,3.845L27.782,3.805z M23.014,3.092l0.621-0.048l0.048,0.622L23.06,3.714L23.014,3.092z M26.316,3.664
	l-0.311-0.019l0.038-0.621l0.31,0.019l0.312,0.018l-0.038,0.623L26.316,3.664z M24.527,3.005l0.312-0.002L25.15,3l0.006,0.623
	l-0.623,0.006L24.527,3.005z"/>
<g>
	<defs>
		<rect id="SVGID_1_" x="8.824" y="38.505" width="8.289" height="7.625"/>
	</defs>
	<clipPath id="SVGID_2_">
		<use xlink:href="#SVGID_1_"  style="overflow:visible;"/>
	</clipPath>
	<path style="clip-path:url(#SVGID_2_);fill:#FFFFFF;" d="M11.293,38.657c-0.477,0-0.856,0.39-0.856,0.868
		c0,0.403,0.276,0.731,0.648,0.826c0.282,0.133,0.704,0.341,0.788,0.508c0.117,0.216,0.219,0.612,0.207,0.917v0.01
		c-0.147,0.208-0.238,0.465-0.238,0.737c0,0.7,0.573,1.275,1.275,1.275c0.7,0,1.275-0.575,1.275-1.275
		c0-0.701-0.575-1.308-1.275-1.275c-0.109,0-0.217,0.014-0.318,0.04c-0.339-0.14-0.554-0.374-0.668-0.559
		c-0.092-0.148-0.078-0.532-0.051-0.846c0.051-0.108,0.081-0.23,0.081-0.358C12.161,39.047,11.772,38.657,11.293,38.657
		 M14.422,38.657c-0.478,0-0.858,0.39-0.858,0.868s0.38,0.855,0.858,0.855s0.856-0.377,0.856-0.855S14.9,38.657,14.422,38.657
		 M16.236,41.368c-0.478,0-0.857,0.389-0.857,0.866c0,0.479,0.379,0.855,0.857,0.855s0.866-0.377,0.866-0.855
		C17.102,41.789,16.714,41.368,16.236,41.368 M9.67,41.498c-0.478,0-0.856,0.388-0.856,0.866c0,0.478,0.378,0.855,0.856,0.855
		s0.867-0.378,0.867-0.855C10.537,41.918,10.148,41.53,9.67,41.498 M11.334,44.396c-0.479,0-0.867,0.388-0.867,0.866
		s0.388,0.856,0.867,0.856c0.478,0,0.857-0.378,0.857-0.856S11.812,44.396,11.334,44.396 M14.741,44.396
		c-0.478,0-0.858,0.388-0.858,0.866s0.38,0.856,0.858,0.856s0.857-0.378,0.857-0.856S15.219,44.396,14.741,44.396"/>
</g>
<g>
	<defs>
		<rect id="SVGID_3_" width="50" height="50"/>
	</defs>
	<clipPath id="SVGID_4_">
		<use xlink:href="#SVGID_3_"  style="overflow:visible;"/>
	</clipPath>
	<path style="clip-path:url(#SVGID_4_);fill:#FFFFFF;" d="M33.864,45.466v-0.561c-0.63-0.059-1.133-0.56-1.19-1.189h-0.561
		c-0.059,0.63-0.561,1.131-1.19,1.189v0.561c0.63,0.06,1.132,0.562,1.19,1.19h0.561C32.731,46.027,33.234,45.525,33.864,45.466
		 M32.878,45.286c-0.146,0.108-0.274,0.238-0.386,0.386l-0.1,0.134l-0.1-0.134c-0.107-0.147-0.238-0.277-0.384-0.386l-0.135-0.101
		l0.135-0.1c0.147-0.108,0.276-0.238,0.384-0.386l0.1-0.134l0.1,0.134c0.109,0.147,0.239,0.277,0.386,0.386l0.136,0.1L32.878,45.286
		z"/>
	<path style="clip-path:url(#SVGID_4_);fill:#FFFFFF;" d="M7.789,13.422v-0.419c-0.431-0.031-0.777-0.376-0.807-0.805H6.563
		c-0.031,0.429-0.374,0.774-0.806,0.805v0.419c0.432,0.03,0.775,0.376,0.806,0.807h0.419C7.012,13.798,7.358,13.452,7.789,13.422
		 M7.087,13.262c-0.101,0.075-0.189,0.165-0.265,0.266l-0.05,0.067l-0.05-0.067c-0.073-0.101-0.163-0.191-0.265-0.266l-0.066-0.05
		l0.068-0.05c0.1-0.075,0.188-0.164,0.263-0.265l0.05-0.067l0.05,0.067c0.076,0.101,0.164,0.191,0.265,0.265l0.068,0.05
		L7.087,13.262z"/>
	<path style="clip-path:url(#SVGID_4_);fill:#FFFFFF;" d="M38.24,7.506V7.119c-0.404-0.03-0.729-0.354-0.76-0.757h-0.387
		c-0.029,0.403-0.353,0.727-0.757,0.757v0.387c0.404,0.03,0.728,0.354,0.757,0.758h0.387C37.512,7.86,37.836,7.536,38.24,7.506
		 M37.586,7.362c-0.094,0.07-0.177,0.154-0.248,0.249l-0.051,0.067l-0.05-0.067c-0.069-0.095-0.151-0.178-0.247-0.249l-0.068-0.05
		l0.068-0.049c0.096-0.071,0.178-0.154,0.247-0.249l0.05-0.067l0.051,0.067c0.071,0.095,0.154,0.178,0.248,0.248l0.068,0.05
		L37.586,7.362z"/>
	<path style="clip-path:url(#SVGID_4_);fill:#FFFFFF;" d="M29.77,26.126c-0.584,0-1.059,0.475-1.059,1.059
		c0,0.582,0.475,1.056,1.059,1.056s1.059-0.474,1.059-1.056C30.828,26.601,30.354,26.126,29.77,26.126 M29.77,27.818
		c-0.35,0-0.634-0.285-0.634-0.634c0-0.351,0.284-0.636,0.634-0.636c0.352,0,0.636,0.285,0.636,0.636
		C30.405,27.533,30.121,27.818,29.77,27.818"/>
	<rect x="29.559" y="26.972" style="clip-path:url(#SVGID_4_);fill:#FFFFFF;" width="0.425" height="0.423"/>
	<path style="clip-path:url(#SVGID_4_);fill:#FFFFFF;" d="M38.444,29.3v-2.115h-0.605c-0.038-0.106-0.081-0.212-0.127-0.311
		l0.427-0.428l-1.496-1.495l-0.428,0.427c-0.1-0.048-0.202-0.09-0.31-0.127v-0.606h-1.692v-5.077h-3.822
		c0.167,0.12,0.313,0.263,0.441,0.423h2.957v1.269h-0.422v-0.845h-0.424v0.845h-0.425v-0.845h-0.421v0.845h-0.423v-0.845H31.25
		v0.427c0.045,0.174,0.07,0.355,0.07,0.544c0,0.1-0.01,0.2-0.021,0.297h2.49v1.27h-0.422v-0.847h-0.424v0.847h-0.425v-0.847h-0.421
		v0.847h-0.423v-0.847H31.25v0.847h-0.422v-0.166c-0.193,0.241-0.435,0.442-0.709,0.588h3.67v1.27h-0.422v-0.846h-0.424v0.846
		h-0.425v-0.846h-0.421v0.846h-0.423v-0.846H31.25v0.846h-0.422v-0.846h-0.423v0.846H25.75v-1.009h-0.217h-0.205v8.202h0.422v0.845
		h1.691v-0.845h4.656v0.845h1.691v-0.845h2.116v-0.605c0.107-0.037,0.21-0.08,0.31-0.127l0.428,0.427l1.496-1.496l-0.427-0.428
		c0.046-0.1,0.089-0.203,0.127-0.309H38.444z M33.789,25.068v0.183c-0.105,0.037-0.209,0.079-0.311,0.127l-0.309-0.31H33.789z
		 M27.019,32.26h-0.846v-0.422h0.846V32.26z M25.75,31.415v-6.347h7.186l-1.379,1.378l0.428,0.428
		c-0.049,0.099-0.092,0.204-0.129,0.311H31.25V29.3h0.607c0.035,0.105,0.078,0.21,0.127,0.309l-0.428,0.428l1.379,1.379H25.75z
		 M33.367,32.26h-0.849v-0.422h0.849V32.26z M33.789,31.415H33.17l0.309-0.31c0.102,0.047,0.205,0.09,0.311,0.128V31.415z
		 M37.54,30.036l-0.897,0.896l-0.349-0.347l-0.138,0.074c-0.163,0.089-0.339,0.16-0.523,0.216l-0.15,0.045v0.494h-1.27v-0.494
		l-0.152-0.045c-0.184-0.055-0.359-0.127-0.521-0.216l-0.14-0.074l-0.35,0.347l-0.896-0.896l0.348-0.349l-0.075-0.138
		c-0.088-0.162-0.159-0.339-0.214-0.522l-0.044-0.151h-0.494v-1.27h0.494l0.044-0.151c0.055-0.184,0.126-0.359,0.214-0.522
		l0.075-0.138l-0.348-0.35l0.896-0.897l0.35,0.35l0.14-0.075c0.161-0.089,0.337-0.161,0.521-0.216l0.151-0.045v-0.493h1.27v0.493
		l0.15,0.045c0.185,0.055,0.36,0.128,0.523,0.216l0.138,0.075l0.349-0.35l0.897,0.898l-0.347,0.349l0.074,0.138
		c0.088,0.163,0.16,0.339,0.215,0.522l0.045,0.151h0.494v1.27h-0.494l-0.045,0.151c-0.055,0.185-0.127,0.36-0.217,0.522
		l-0.074,0.139L37.54,30.036z"/>
	<path style="clip-path:url(#SVGID_4_);fill:#FFFFFF;" d="M34.848,26.338c-1.05,0-1.904,0.854-1.904,1.902
		c0,1.052,0.854,1.904,1.904,1.904c1.051,0,1.901-0.853,1.901-1.904C36.749,27.192,35.898,26.338,34.848,26.338 M36.312,28.453
		c-0.036,0.249-0.134,0.479-0.279,0.674l-0.288-0.287l-0.299,0.299l0.288,0.287c-0.195,0.146-0.425,0.243-0.675,0.279V29.3h-0.423
		v0.405c-0.251-0.036-0.479-0.134-0.673-0.279l0.285-0.287L33.95,28.84l-0.286,0.287c-0.146-0.194-0.246-0.425-0.281-0.674h0.406
		v-0.424h-0.406c0.035-0.251,0.136-0.479,0.281-0.674l0.286,0.287l0.298-0.299l-0.285-0.287c0.193-0.145,0.422-0.243,0.673-0.278
		v0.406h0.423v-0.406c0.25,0.035,0.479,0.134,0.675,0.278l-0.288,0.287l0.299,0.299l0.288-0.287
		c0.146,0.194,0.243,0.423,0.279,0.674h-0.406v0.424H36.312z"/>
	<path style="clip-path:url(#SVGID_4_);fill:#FFFFFF;" d="M18.411,25.696c-2.686,0-4.557-1.11-4.557-2.106
		c0-0.921,1.584-1.985,4.146-2.096h0.822c0.096,0.005,0.193,0.011,0.288,0.019c-0.004-0.042-0.007-0.085-0.007-0.127
		c0-0.195,0.026-0.382,0.073-0.562c-0.118-0.009-0.236-0.016-0.357-0.02l0.003-0.064h-0.819l0.002,0.064
		c-2.763,0.107-4.845,1.306-4.845,2.786v7.357c0,1.569,2.307,2.8,5.251,2.8c2.946,0,5.253-1.23,5.253-2.8v-7.311h-0.697
		C22.91,24.62,21.056,25.696,18.411,25.696 M22.97,30.947c0,0.996-1.872,2.105-4.559,2.105c-2.686,0-4.557-1.109-4.557-2.105V29.9
		l0.101,0.088c0.956,0.818,2.621,1.306,4.456,1.306s3.501-0.487,4.456-1.306L22.97,29.9V30.947z M22.97,28.496
		c0,0.996-1.872,2.105-4.559,2.105c-2.686,0-4.557-1.109-4.557-2.105v-1.049l0.101,0.089c0.956,0.817,2.621,1.306,4.456,1.306
		s3.501-0.488,4.456-1.306l0.103-0.089V28.496z M22.97,26.043c0,0.996-1.872,2.105-4.559,2.105c-2.686,0-4.557-1.109-4.557-2.105
		v-1.047l0.101,0.088c0.956,0.817,2.621,1.306,4.456,1.306s3.501-0.488,4.456-1.306l0.103-0.088V26.043z"/>
	<path style="clip-path:url(#SVGID_4_);fill:#FFFFFF;" d="M19.758,21.582c-0.208-0.03-0.424-0.054-0.648-0.069
		c0.066,1.182,1.044,2.123,2.244,2.123h1.613c0.001-0.016,0.003-0.031,0.003-0.046c0-0.196-0.071-0.399-0.21-0.597h-1.406
		C20.533,22.993,19.856,22.376,19.758,21.582"/>
	<path style="clip-path:url(#SVGID_4_);fill:#FFFFFF;" d="M29.424,22.953h0.981V22.28C30.18,22.616,29.83,22.861,29.424,22.953"/>
	<path style="clip-path:url(#SVGID_4_);fill:#FFFFFF;" d="M25.75,23.636h3.32c0.377,0,0.733-0.094,1.049-0.261H25.75V23.636z"/>
	<path style="clip-path:url(#SVGID_4_);fill:#FFFFFF;" d="M30.405,20.492v-0.077h0.423v0.845h0.422v-0.418
		c-0.076-0.316-0.222-0.604-0.418-0.851h-0.966C30.081,20.115,30.268,20.287,30.405,20.492"/>
	<path style="clip-path:url(#SVGID_4_);fill:#FFFFFF;" d="M30.506,22.106h0.322v0.681c0.248-0.312,0.415-0.69,0.471-1.104h-0.65
		C30.62,21.833,30.572,21.975,30.506,22.106"/>
	<path style="clip-path:url(#SVGID_4_);fill:#FFFFFF;" d="M21.354,19.778c0.184,0,0.367,0.033,0.544,0.098
		c0.103,0.037,0.22,0.019,0.306-0.049c0.087-0.067,0.134-0.173,0.124-0.283l-0.009-0.087c0-0.533,0.433-0.964,0.965-0.964
		c0.146,0,0.295,0.038,0.44,0.112c0.075,0.04,0.167,0.047,0.247,0.021c0.082-0.027,0.151-0.086,0.188-0.163
		c0.383-0.775,1.156-1.257,2.017-1.257c1.24,0,2.251,1.01,2.251,2.242c-0.002,0.008-0.002,0.03-0.002,0.038
		c0,0.028,0.004,0.055,0.011,0.082h1.955c-0.37-0.271-0.826-0.434-1.32-0.434h-0.019c-0.161-1.444-1.39-2.571-2.876-2.571
		c-1.006,0-1.919,0.512-2.447,1.353c-0.145-0.045-0.295-0.067-0.445-0.067c-0.788,0-1.444,0.568-1.581,1.313
		c-0.117-0.018-0.234-0.028-0.349-0.028c-1.048,0-1.926,0.72-2.178,1.69c0.223,0.016,0.438,0.04,0.647,0.069
		C20.032,20.247,20.639,19.778,21.354,19.778"/>
	<path style="clip-path:url(#SVGID_4_);fill:#FFFFFF;" d="M23.547,22.993c0.074,0.192,0.117,0.392,0.117,0.597v0.046h1.225h0.439
		v-0.643H23.547z"/>
	<path style="clip-path:url(#SVGID_4_);fill:#FFFFFF;" d="M28.537,19.731c0.074,0.062,0.169,0.087,0.262,0.072
		c0.099-0.017,0.187-0.025,0.271-0.025c0.289,0,0.56,0.078,0.796,0.213h0.966c-0.128-0.16-0.274-0.303-0.441-0.423h-1.955
		C28.453,19.63,28.488,19.688,28.537,19.731"/>
	<path style="clip-path:url(#SVGID_4_);fill:#FFFFFF;" d="M25.75,23.636v-0.261h4.369c0.275-0.145,0.516-0.346,0.709-0.588v-0.68
		h-0.322c-0.031,0.06-0.063,0.118-0.101,0.174v0.672h-0.981c-0.114,0.026-0.232,0.04-0.354,0.04h-3.742v0.643h0.205H25.75z"/>
	<path style="clip-path:url(#SVGID_4_);fill:#FFFFFF;" d="M30.828,21.26v-0.845h-0.423v0.077c0.172,0.257,0.272,0.564,0.272,0.894
		c0,0.102-0.012,0.201-0.029,0.298h0.65c0.012-0.098,0.021-0.197,0.021-0.298c0-0.188-0.025-0.369-0.07-0.544v0.418H30.828z"/>
	<path style="clip-path:url(#SVGID_4_);fill:#FFFFFF;" d="M23.547,22.993H22.76c0.139,0.198,0.21,0.4,0.21,0.597
		c0,0.015-0.002,0.03-0.003,0.046h0.697V23.59C23.664,23.385,23.621,23.185,23.547,22.993"/>
	<path style="clip-path:url(#SVGID_4_);fill:#FFFFFF;" d="M19.109,21.513c0.225,0.016,0.44,0.039,0.648,0.069
		c-0.007-0.064-0.012-0.13-0.012-0.196c0-0.172,0.026-0.336,0.077-0.492c-0.209-0.029-0.424-0.053-0.647-0.069
		c-0.046,0.179-0.073,0.367-0.073,0.561C19.103,21.428,19.105,21.471,19.109,21.513"/>
	<rect x="28.747" y="20.422" style="clip-path:url(#SVGID_4_);fill:#FFFFFF;" width="0.644" height="0.643"/>
	<rect x="28.747" y="21.707" style="clip-path:url(#SVGID_4_);fill:#FFFFFF;" width="0.644" height="0.644"/>
	<rect x="27.462" y="21.707" style="clip-path:url(#SVGID_4_);fill:#FFFFFF;" width="0.644" height="0.644"/>
</g>
</svg>
