<?xml version="1.0" encoding="iso-8859-1"?>
<!-- Generator: Adobe Illustrator 15.1.0, SVG Export Plug-In . SVG Version: 6.00 Build 0)  -->
<!DOCTYPE svg PUBLIC "-//W3C//DTD SVG 1.1//EN" "http://www.w3.org/Graphics/SVG/1.1/DTD/svg11.dtd">
<svg version="1.1" id="Layer_1" xmlns="http://www.w3.org/2000/svg" xmlns:xlink="http://www.w3.org/1999/xlink" x="0px" y="0px"
	 width="50px" height="50px" viewBox="0 0 50 50" style="enable-background:new 0 0 50 50;" xml:space="preserve">
<path style="fill:#FFFFFF;" d="M24.402,46.852L24.402,46.852l-0.31-0.007l0.013-0.619l0.309,0.007l0.31,0.006l-0.013,0.619
	L24.402,46.852z M25.568,46.226l0.617-0.03l0.032,0.617l-0.619,0.031L25.568,46.226z M22.899,46.77L22.899,46.77l-0.308-0.029
	l0.055-0.615l0.307,0.027l0.309,0.027l-0.056,0.617L22.899,46.77z M27.028,46.125l0.614-0.074l0.072,0.616l-0.306,0.036
	l-0.308,0.037L27.028,46.125z M21.405,46.584l-0.306-0.05l0.098-0.612l0.611,0.099l-0.098,0.612L21.405,46.584z M28.479,45.924
	l0.607-0.114l0.112,0.608l-0.606,0.113L28.479,45.924z M19.926,46.293l-0.302-0.07l0.14-0.602l0.603,0.14l-0.14,0.603L19.926,46.293
	z M29.91,45.625l0.6-0.154l0.156,0.599l-0.6,0.155L29.91,45.625z M18.471,45.902l-0.297-0.091l0.182-0.593l0.592,0.183l-0.181,0.591
	L18.471,45.902z M31.32,45.23l0.587-0.196l0.195,0.588l-0.586,0.195L31.32,45.23z M17.046,45.411L16.757,45.3l0.22-0.577
	l0.578,0.222l-0.22,0.577L17.046,45.411z M32.697,44.74l0.573-0.237l0.236,0.572l-0.572,0.235L32.697,44.74z M15.659,44.824
	L15.659,44.824l-0.281-0.131l0.261-0.561l0.281,0.129l0.281,0.132l-0.26,0.56L15.659,44.824z M34.038,44.154l0.277-0.139
	l0.277-0.138l0.275,0.555l-0.276,0.138l-0.277,0.139L34.038,44.154z M14.317,44.143l-0.271-0.15l0.298-0.542l0.272,0.15l0.269,0.149
	l-0.298,0.541L14.317,44.143z M35.334,43.478l0.534-0.313l0.313,0.534l-0.533,0.313L35.334,43.478z M13.022,43.37l-0.26-0.168
	l0.335-0.52l0.52,0.335l-0.335,0.519L13.022,43.37z M36.581,42.712l0.51-0.349l0.35,0.512l-0.257,0.174h0.002l-0.256,0.174
	L36.581,42.712z M11.785,42.512l-0.248-0.186l0.371-0.498l0.497,0.373l-0.371,0.494L11.785,42.512z M10.612,41.568l-0.236-0.2
	l0.403-0.47l0.469,0.404l-0.404,0.469L10.612,41.568z M9.503,40.55L9.503,40.55l-0.219-0.216l0.434-0.441l0.221,0.217l0.22,0.219
	l-0.435,0.438L9.503,40.55z M8.469,39.457L8.469,39.457l-0.206-0.231l0.465-0.41l0.204,0.232l0.205,0.231l-0.465,0.41L8.469,39.457z
	 M7.512,38.297l-0.188-0.246l0.489-0.377l0.378,0.49L7.7,38.541L7.512,38.297z M6.636,37.071l-0.171-0.258l0.517-0.343l0.342,0.516
	l-0.517,0.342L6.636,37.071z M5.85,35.79l-0.154-0.269l0.537-0.307l0.305,0.538L6,36.06L5.85,35.79z M4.041,31.66l-0.093-0.296
	l0.589-0.187l0.094,0.295l0.094,0.294l-0.59,0.188L4.041,31.66z M45.168,31.217l0.173-0.596l0.594,0.173l-0.172,0.595L45.168,31.217
	z M3.634,30.21L3.634,30.21l-0.073-0.299l0.601-0.147l0.146,0.602l-0.6,0.146L3.634,30.21z M45.549,29.804l0.131-0.606l0.605,0.133
	l-0.132,0.604L45.549,29.804z M3.333,28.771H3.33l-0.056-0.34h0.003L3.233,28.16l0.611-0.1l0.144,0.875L3.38,29.041L3.333,28.771z
	 M45.831,28.364l0.089-0.611l0.612,0.089l-0.044,0.307l-0.045,0.305L45.831,28.364z M3.093,26.972l-0.028-0.308l0.616-0.057
	l0.057,0.616L3.121,27.28L3.093,26.972z M46.014,26.913l0.021-0.308l0.024-0.309l0.616,0.046l-0.046,0.617L46.014,26.913z
	 M3.006,25.469L3,25.159l0.619-0.015l0.014,0.62l-0.619,0.014L3.006,25.469z M46.092,25.453l0.003-0.619l0.619,0.003l-0.003,0.62
	L46.092,25.453z M3.01,24.271l0.028-0.618l0.62,0.028l-0.015,0.31V23.99L3.629,24.3L3.01,24.271z M46.051,23.682L46.051,23.682
	l-0.017-0.308l0.614-0.039l0.039,0.617l-0.616,0.039L46.051,23.682z M3.111,22.77l0.071-0.615l0.616,0.072l-0.071,0.615L3.111,22.77
	z M45.909,22.225l-0.042-0.306l0.615-0.083l0.08,0.615l-0.613,0.082L45.909,22.225z M3.316,21.276l0.113-0.607l0.608,0.114
	l-0.114,0.607L3.316,21.276z M45.667,20.781l-0.061-0.304l0.607-0.122l0.061,0.303l0.062,0.304l-0.606,0.122L45.667,20.781z
	 M3.624,19.8l0.078-0.299l0.078-0.299l0.598,0.157l-0.077,0.299l-0.078,0.299L3.624,19.8z M4.034,18.35l0.097-0.292l0.099-0.294
	l0.587,0.198l-0.198,0.585L4.034,18.35z M4.542,16.934l0.118-0.287l0.118-0.285L5.351,16.6l-0.237,0.57L4.542,16.934z M44.363,16.6
	l-0.121-0.285l0.566-0.244l0.246,0.568l-0.569,0.245L44.363,16.6z M5.147,15.552L5.423,15l0.554,0.274l-0.275,0.555L5.147,15.552z
	 M43.74,15.275L43.599,15l0.549-0.283l0.144,0.275l0.14,0.274l-0.548,0.284L43.74,15.275z M5.846,14.218l0.313-0.534l0.535,0.314
	l-0.315,0.534L5.846,14.218z M43.026,14l-0.161-0.265l0.529-0.321l0.321,0.53l-0.53,0.321L43.026,14z M6.633,12.937l0.174-0.257
	v0.002l0.176-0.256l0.51,0.348l-0.348,0.511L6.633,12.937z M42.227,12.778l-0.178-0.255l0.505-0.356l0.355,0.506l-0.505,0.356
	L42.227,12.778z M7.509,11.709l0.383-0.487l0.485,0.385l-0.383,0.484L7.509,11.709z M41.343,11.611L41.343,11.611l-0.194-0.24
	l0.479-0.391l0.195,0.24l0.196,0.24l-0.48,0.391L41.343,11.611z M8.463,10.546l0.416-0.459l0.458,0.416l-0.414,0.458L8.463,10.546z
	 M40.38,10.509L40.38,10.509l-0.21-0.225l0.452-0.423l0.212,0.226h-0.002l0.212,0.225l-0.452,0.424L40.38,10.509z M9.497,9.451
	L9.72,9.236l0.224-0.215l0.428,0.446L9.927,9.896L9.497,9.451z M39.347,9.477l-0.228-0.211l0.423-0.452l0.453,0.421l-0.423,0.453
	L39.347,9.477z M38.242,8.516L38.242,8.516l-0.239-0.193l0.389-0.483l0.48,0.393l-0.39,0.479L38.242,8.516z M37.076,7.632
	l-0.255-0.177l0.357-0.506l0.253,0.178h-0.001l0.254,0.177l-0.356,0.508L37.076,7.632z M13.012,6.627l0.262-0.163l0.262-0.165
	l0.329,0.525l-0.263,0.164L13.34,7.152L13.012,6.627z M35.851,6.833l-0.265-0.16l0.32-0.528l0.264,0.159v0.001l0.265,0.16
	l-0.32,0.53L35.851,6.833z M14.304,5.856l0.546-0.291l0.29,0.546l-0.544,0.291L14.304,5.856z M34.572,6.117l-0.273-0.141
	l0.282-0.551l0.55,0.284l-0.283,0.55L34.572,6.117z M15.646,5.175l0.282-0.126V5.048l0.283-0.125l0.251,0.565L15.9,5.74
	L15.646,5.175z M33.251,5.492L32.965,5.37l0.246-0.567l0.284,0.121l0.283,0.123l-0.244,0.569L33.251,5.492z M17.034,4.589
	l0.581-0.212l0.212,0.581l-0.582,0.211L17.034,4.589z M31.887,4.959l-0.292-0.103l0.204-0.583l0.585,0.205l-0.206,0.584
	L31.887,4.959z M18.458,4.101l0.592-0.172l0.173,0.595L18.63,4.695L18.458,4.101z M30.489,4.521L30.191,4.44l0.163-0.597
	l0.598,0.164l-0.165,0.598L30.489,4.521z M19.912,3.71l0.605-0.129l0.131,0.604l-0.604,0.131L19.912,3.71z M29.065,4.182
	l-0.305-0.06l0.123-0.607l0.608,0.122l-0.124,0.608L29.065,4.182z M21.39,3.422l0.306-0.045v0.001l0.306-0.046l0.089,0.613
	l-0.611,0.09L21.39,3.422z M27.62,3.941L27.62,3.941l-0.306-0.04l0.081-0.614l0.306,0.041l0.307,0.041l-0.081,0.613L27.62,3.941z
	 M22.884,3.233l0.309-0.024L23.5,3.187l0.047,0.616l-0.615,0.048L22.884,3.233z M26.164,3.802l-0.309-0.019l0.037-0.618l0.31,0.019
	l0.309,0.019l-0.037,0.618L26.164,3.802z M24.388,3.148l0.619-0.006l0.005,0.619l-0.619,0.006L24.388,3.148z"/>
<g>
	<defs>
		<rect id="SVGID_1_" width="50" height="50"/>
	</defs>
	<clipPath id="SVGID_2_">
		<use xlink:href="#SVGID_1_"  style="overflow:visible;"/>
	</clipPath>
	<path style="clip-path:url(#SVGID_2_);fill:#FFFFFF;" d="M31.434,21.733c-0.05,0.054-0.097,0.111-0.143,0.17
		C31.344,21.85,31.392,21.794,31.434,21.733"/>
	<path style="clip-path:url(#SVGID_2_);fill:#FFFFFF;" d="M35.787,23.16h-0.014c-0.141-1.256-1.207-2.232-2.498-2.232
		c-0.41,0-0.804,0.099-1.153,0.279v0.655c0.327-0.24,0.729-0.376,1.153-0.376c1.077,0,1.953,0.875,1.953,1.945
		c0,0.007-0.001,0.027-0.001,0.034c0,0.082,0.037,0.159,0.099,0.213c0.063,0.052,0.146,0.074,0.229,0.06
		c0.084-0.014,0.16-0.021,0.232-0.021c0.77,0,1.396,0.627,1.396,1.396c0,0.77-0.626,1.395-1.396,1.395H29.09
		c-0.666,0-1.224-0.467-1.362-1.092h-0.565c0.146,0.934,0.953,1.65,1.928,1.65h3.068h0.559h3.07c1.077,0,1.954-0.875,1.954-1.953
		C37.741,24.036,36.864,23.16,35.787,23.16"/>
	<rect x="35.507" y="24.275" style="clip-path:url(#SVGID_2_);fill:#FFFFFF;" width="0.56" height="0.559"/>
	<rect x="35.507" y="25.393" style="clip-path:url(#SVGID_2_);fill:#FFFFFF;" width="0.56" height="0.56"/>
	<rect x="34.391" y="25.393" style="clip-path:url(#SVGID_2_);fill:#FFFFFF;" width="0.56" height="0.56"/>
	<path style="clip-path:url(#SVGID_2_);fill:#FFFFFF;" d="M31.077,22.081c0.024,0.007,0.05,0.013,0.074,0.021
		c0.044-0.07,0.091-0.135,0.14-0.199C31.228,21.969,31.155,22.027,31.077,22.081"/>
	<path style="clip-path:url(#SVGID_2_);fill:#FFFFFF;" d="M30.764,22.602c-0.25,0-0.476,0.111-0.629,0.287
		c0.337-0.014,0.65-0.096,0.926-0.227C30.963,22.622,30.863,22.602,30.764,22.602"/>
	<path style="clip-path:url(#SVGID_2_);fill:#FFFFFF;" d="M27.147,24.912h-3.569c-0.277,0-0.539-0.044-0.78-0.121
		c0.03,0.062,0.061,0.125,0.087,0.19l-0.405,0.173c-0.115-0.269-0.254-0.523-0.411-0.762c-0.191-0.162-0.339-0.351-0.431-0.564
		c-0.189-0.212-0.395-0.406-0.617-0.582v0.068c0,0.219,0.042,0.431,0.119,0.63c0.266,0.268,0.496,0.57,0.688,0.897
		c0.457,0.356,1.072,0.575,1.75,0.575h3.583c-0.015-0.099-0.025-0.199-0.025-0.303C27.137,25.045,27.14,24.978,27.147,24.912"/>
	<path style="clip-path:url(#SVGID_2_);fill:#FFFFFF;" d="M21.527,22.033c0.466,0.52,1.208,0.862,2.051,0.862h5.903
		c0.082-0.197,0.208-0.368,0.365-0.506h-6.269c-1.132,0-2.051-0.716-2.051-1.596v-1.282c0.466,0.519,1.208,0.86,2.051,0.86h6.448
		c0.64,0,1.207-0.243,1.592-0.618v1.409c0,0.207-0.068,0.401-0.186,0.572c0.199-0.216,0.433-0.392,0.689-0.527v-2.568
		c0-0.743-0.57-1.393-1.409-1.631c-0.206-1.523-1.781-2.69-3.68-2.69c-1.494,0-2.84,0.737-3.414,1.85
		c-0.015,0-0.027-0.002-0.041-0.002c-1.409,0-2.557,0.944-2.557,2.104v4.425c0.177,0.123,0.346,0.254,0.506,0.397V22.033z
		 M23.578,16.672c0.037,0,0.073,0.004,0.11,0.008l0.066,0.005c0.112,0.008,0.208-0.054,0.25-0.152
		c0.443-1.023,1.66-1.711,3.029-1.711c1.71,0,3.113,1.055,3.194,2.403c0.007,0.114,0.09,0.209,0.201,0.232
		c0.7,0.142,1.189,0.628,1.189,1.182c0,0.678-0.714,1.228-1.592,1.228h-6.448c-1.132,0-2.051-0.716-2.051-1.597
		C21.527,17.389,22.446,16.672,23.578,16.672"/>
	<path style="clip-path:url(#SVGID_2_);fill:#FFFFFF;" d="M31.618,22.412v1.271c0,0.677-0.714,1.229-1.592,1.229H27.71
		c-0.009,0.065-0.016,0.133-0.016,0.201c0,0.104,0.012,0.205,0.033,0.303h2.299c1.155,0,2.096-0.777,2.096-1.733v-1.821
		C31.922,22.008,31.752,22.195,31.618,22.412"/>
	<path style="clip-path:url(#SVGID_2_);fill:#FFFFFF;" d="M27.694,25.113c0-0.068,0.007-0.136,0.016-0.201h-0.563
		c-0.008,0.066-0.011,0.133-0.011,0.201c0,0.104,0.011,0.204,0.025,0.303h0.565C27.706,25.318,27.694,25.218,27.694,25.113"/>
	<path style="clip-path:url(#SVGID_2_);fill:#FFFFFF;" d="M31.434,21.733c-0.042,0.061-0.09,0.116-0.143,0.17
		c-0.049,0.063-0.096,0.129-0.14,0.198c-0.024-0.008-0.05-0.014-0.074-0.02c-0.281,0.191-0.647,0.307-1.051,0.307h-0.18
		c-0.157,0.139-0.283,0.31-0.365,0.506h0.545c0.037,0,0.072-0.004,0.108-0.006c0.152-0.176,0.379-0.287,0.629-0.287
		c0.1,0,0.199,0.02,0.297,0.06c0.211-0.103,0.4-0.233,0.558-0.386v0.137c0.134-0.217,0.304-0.405,0.504-0.55v-0.655
		C31.865,21.341,31.632,21.518,31.434,21.733"/>
	<path style="clip-path:url(#SVGID_2_);fill:#FFFFFF;" d="M22.788,20.623c-0.139,0-0.252,0.113-0.252,0.253v0.505
		c0,0.138,0.113,0.252,0.252,0.252c0.141,0,0.253-0.114,0.253-0.252v-0.505C23.041,20.736,22.929,20.623,22.788,20.623"/>
	<path style="clip-path:url(#SVGID_2_);fill:#FFFFFF;" d="M23.797,20.876c-0.139,0-0.252,0.112-0.252,0.251v0.506
		c0,0.139,0.113,0.252,0.252,0.252c0.141,0,0.252-0.113,0.252-0.252v-0.506C24.049,20.988,23.938,20.876,23.797,20.876"/>
	<path style="clip-path:url(#SVGID_2_);fill:#FFFFFF;" d="M24.807,20.876c-0.14,0-0.252,0.112-0.252,0.251v0.506
		c0,0.139,0.112,0.252,0.252,0.252c0.139,0,0.252-0.113,0.252-0.252v-0.506C25.059,20.988,24.946,20.876,24.807,20.876"/>
	<path style="clip-path:url(#SVGID_2_);fill:#FFFFFF;" d="M30.104,20.876c-0.279,0-0.506,0.226-0.506,0.505
		c0,0.279,0.227,0.504,0.506,0.504c0.278,0,0.504-0.225,0.504-0.504C30.608,21.102,30.383,20.876,30.104,20.876"/>
	<path style="clip-path:url(#SVGID_2_);fill:#FFFFFF;" d="M28.591,20.876c-0.279,0-0.506,0.226-0.506,0.505
		c0,0.279,0.227,0.504,0.506,0.504s0.505-0.225,0.505-0.504C29.096,21.102,28.87,20.876,28.591,20.876"/>
	<path style="clip-path:url(#SVGID_2_);fill:#FFFFFF;" d="M22.788,23.146c-0.139,0-0.252,0.113-0.252,0.252v0.504
		c0,0.14,0.113,0.253,0.252,0.253c0.141,0,0.253-0.113,0.253-0.253v-0.504C23.041,23.259,22.929,23.146,22.788,23.146"/>
	<path style="clip-path:url(#SVGID_2_);fill:#FFFFFF;" d="M23.797,23.398c-0.139,0-0.252,0.113-0.252,0.252v0.505
		c0,0.139,0.113,0.251,0.252,0.251c0.141,0,0.252-0.112,0.252-0.251V23.65C24.049,23.511,23.938,23.398,23.797,23.398"/>
	<path style="clip-path:url(#SVGID_2_);fill:#FFFFFF;" d="M24.807,23.398c-0.14,0-0.252,0.113-0.252,0.252v0.505
		c0,0.139,0.112,0.251,0.252,0.251c0.139,0,0.252-0.112,0.252-0.251V23.65C25.059,23.511,24.946,23.398,24.807,23.398"/>
	<path style="clip-path:url(#SVGID_2_);fill:#FFFFFF;" d="M29.936,23.515c0.009,0.095-0.031,0.188-0.107,0.245
		c-0.063,0.049-0.143,0.067-0.221,0.053c-0.005,0.029-0.009,0.058-0.009,0.09c0,0.278,0.227,0.504,0.506,0.504
		c0.278,0,0.504-0.226,0.504-0.504c0-0.28-0.226-0.504-0.504-0.504c-0.064,0-0.123,0.013-0.178,0.033v0.008L29.936,23.515z"/>
	<path style="clip-path:url(#SVGID_2_);fill:#FFFFFF;" d="M29.607,23.813c0.078,0.014,0.158-0.004,0.221-0.053
		c0.076-0.056,0.116-0.15,0.107-0.245l-0.009-0.075v-0.008C29.763,23.494,29.64,23.637,29.607,23.813"/>
	<path style="clip-path:url(#SVGID_2_);fill:#FFFFFF;" d="M28.591,24.406c0.279,0,0.505-0.226,0.505-0.504
		c0-0.064-0.015-0.126-0.036-0.183c-0.36,0.007-0.688,0.152-0.932,0.385C28.206,24.282,28.384,24.406,28.591,24.406"/>
	<path style="clip-path:url(#SVGID_2_);fill:#FFFFFF;" d="M28.591,23.398c-0.279,0-0.506,0.225-0.506,0.504
		c0,0.072,0.017,0.14,0.043,0.202c0.244-0.233,0.571-0.378,0.932-0.386C28.986,23.531,28.804,23.398,28.591,23.398"/>
	<path style="clip-path:url(#SVGID_2_);fill:#FFFFFF;" d="M18.229,26.203v-2.682h-0.443v2.682c-0.381,0.098-0.662,0.441-0.662,0.852
		c0,0.068,0.01,0.135,0.024,0.197l-2.118,1.154l0.212,0.388l2.111-1.151c0.162,0.18,0.394,0.295,0.654,0.295
		c0.487,0,0.884-0.396,0.884-0.883C18.891,26.645,18.609,26.301,18.229,26.203 M18.007,27.496c-0.243,0-0.441-0.197-0.441-0.441
		s0.198-0.441,0.441-0.441c0.244,0,0.443,0.197,0.443,0.441S18.251,27.496,18.007,27.496"/>
	<path style="clip-path:url(#SVGID_2_);fill:#FFFFFF;" d="M21.141,23.944c-0.801-0.806-1.91-1.307-3.134-1.307
		c-2.434,0-4.417,1.982-4.417,4.417c0,2.436,1.983,4.416,4.417,4.416c1.284,0,2.482-0.553,3.313-1.502v2.036l1.547-1.546
		l1.766,1.766l1.638-1.636l-1.767-1.769l1.545-1.545h-3.631c0.004-0.074,0.007-0.148,0.007-0.221c0-0.807-0.219-1.563-0.597-2.214
		C21.513,24.597,21.272,24.291,21.141,23.944 M24.984,27.718l-1.105,1.103l1.766,1.769l-1.012,1.013l-1.766-1.768l-1.105,1.104
		v-3.221H24.984z M21.971,27.275H21.32v1.968c-0.74,1.12-1.973,1.786-3.313,1.786c-2.191,0-3.974-1.783-3.974-3.975
		s1.783-3.974,3.974-3.974c2.193,0,3.976,1.783,3.976,3.974C21.983,27.127,21.976,27.202,21.971,27.275"/>
	<path style="clip-path:url(#SVGID_2_);fill:#FFFFFF;" d="M21.828,24.841c-0.191-0.327-0.422-0.629-0.687-0.896
		C21.272,24.29,21.513,24.598,21.828,24.841"/>
	<rect x="22.646" y="25.509" style="clip-path:url(#SVGID_2_);fill:#FFFFFF;" width="0.441" height="0.884"/>
	
		<rect x="20.396" y="26.57" transform="matrix(-0.7066 -0.7077 0.7077 -0.7066 16.5996 60.4664)" style="clip-path:url(#SVGID_2_);fill:#FFFFFF;" width="0.882" height="0.443"/>
	<rect x="19.553" y="28.6" style="clip-path:url(#SVGID_2_);fill:#FFFFFF;" width="0.884" height="0.442"/>
	
		<rect x="20.615" y="30.409" transform="matrix(-0.7088 -0.7054 0.7054 -0.7088 13.8402 67.414)" style="clip-path:url(#SVGID_2_);fill:#FFFFFF;" width="0.442" height="0.883"/>
	<rect x="22.646" y="31.25" style="clip-path:url(#SVGID_2_);fill:#FFFFFF;" width="0.441" height="0.884"/>
	<rect x="25.294" y="28.6" style="clip-path:url(#SVGID_2_);fill:#FFFFFF;" width="0.885" height="0.442"/>
	
		<rect x="24.454" y="26.571" transform="matrix(-0.7077 0.7066 -0.7066 -0.7077 61.4435 28.1604)" style="clip-path:url(#SVGID_2_);fill:#FFFFFF;" width="0.883" height="0.441"/>
	<path style="clip-path:url(#SVGID_2_);fill:#FFFFFF;" d="M18.891,21.83v-0.857c0.27-0.243,0.441-0.593,0.441-0.985
		c0-0.73-0.594-1.325-1.325-1.325s-1.324,0.595-1.324,1.325c0,0.391,0.171,0.742,0.441,0.985v0.857
		c-2.503,0.422-4.418,2.604-4.418,5.225c0,2.922,2.378,5.299,5.301,5.299c0.807,0,1.581-0.178,2.306-0.527L20.12,31.43
		c-0.663,0.32-1.373,0.483-2.113,0.483c-2.679,0-4.858-2.179-4.858-4.858s2.179-4.857,4.858-4.857c1.121,0,2.176,0.383,3.015,1.049
		v-0.551C20.391,22.26,19.665,21.961,18.891,21.83 M18.45,21.775c-0.147-0.012-0.294-0.019-0.443-0.019
		c-0.148,0-0.295,0.007-0.441,0.019v-0.539c0.138,0.049,0.287,0.077,0.441,0.077c0.155,0,0.305-0.028,0.443-0.077V21.775z
		 M18.007,20.871c-0.487,0-0.883-0.396-0.883-0.883c0-0.487,0.396-0.883,0.883-0.883s0.884,0.396,0.884,0.883
		C18.891,20.475,18.494,20.871,18.007,20.871"/>
	<path style="clip-path:url(#SVGID_2_);fill:#FFFFFF;" d="M21.639,23.828c-0.071-0.161-0.111-0.333-0.111-0.514v-0.222
		c-0.16-0.143-0.329-0.275-0.506-0.397v0.551C21.243,23.422,21.45,23.616,21.639,23.828"/>
	<path style="clip-path:url(#SVGID_2_);fill:#FFFFFF;" d="M22.48,25.154l0.405-0.173c-0.026-0.065-0.057-0.128-0.087-0.19
		c-0.28-0.09-0.528-0.228-0.729-0.399C22.227,24.631,22.366,24.884,22.48,25.154"/>
	<path style="clip-path:url(#SVGID_2_);fill:#FFFFFF;" d="M47,33.947v-0.761c0-0.608-0.494-1.104-1.104-1.104h-5.464
		c-0.14,0-0.265-0.077-0.328-0.203l-0.33-0.66c-0.188-0.377-0.567-0.61-0.988-0.61h-3.253c-0.609,0-1.105,0.495-1.105,1.105v8.171
		c0,0.6,0.482,1.084,1.084,1.084h2.624v1.107c0,0.609,0.496,1.105,1.105,1.105h2.947c0.609,0,1.105-0.496,1.105-1.105v-1.105h2.603
		c0.61,0,1.104-0.494,1.104-1.104v-5.918V33.947z M42.556,42.076c0,0.203-0.166,0.369-0.368,0.369H39.24
		c-0.203,0-0.368-0.166-0.368-0.369v-2.209c0-0.204,0.165-0.369,0.368-0.369h2.947c0.202,0,0.368,0.165,0.368,0.369V42.076z
		 M39.609,38.762v-1.13c0-0.609,0.496-1.105,1.104-1.105s1.105,0.496,1.105,1.105v1.13H39.609z M46.264,39.867
		c0,0.192-0.148,0.367-0.382,0.367h-2.589v-0.367c0-0.48-0.309-0.89-0.737-1.042v-1.193c0-1.016-0.825-1.842-1.842-1.842
		c-1.016,0-1.842,0.826-1.842,1.842v1.193c-0.429,0.152-0.737,0.562-0.737,1.042v0.367h-2.624c-0.193,0-0.348-0.155-0.348-0.35
		v-5.568h11.101V39.867z M46.264,33.58H35.163v-1.866c0-0.204,0.165-0.368,0.369-0.368h3.253c0.14,0,0.266,0.077,0.328,0.203
		l0.331,0.658c0.188,0.377,0.567,0.611,0.987,0.611h5.464c0.203,0,0.368,0.166,0.368,0.368V33.58z"/>
	<path style="clip-path:url(#SVGID_2_);fill:#FFFFFF;" d="M40.714,40.234c-0.204,0-0.368,0.166-0.368,0.369v0.736
		c0,0.203,0.164,0.369,0.368,0.369c0.203,0,0.369-0.166,0.369-0.369v-0.736C41.083,40.4,40.917,40.234,40.714,40.234"/>
	<path style="clip-path:url(#SVGID_2_);fill:#FFFFFF;" d="M45.159,35.054h-1.498c-0.204,0-0.368,0.164-0.368,0.368
		c0,0.203,0.164,0.368,0.368,0.368h1.498c0.203,0,0.368-0.165,0.368-0.368C45.527,35.218,45.362,35.054,45.159,35.054"/>
	<path style="clip-path:url(#SVGID_2_);fill:#FFFFFF;" d="M45.159,36.526h-1.498c-0.204,0-0.368,0.165-0.368,0.368
		s0.164,0.369,0.368,0.369h1.498c0.203,0,0.368-0.166,0.368-0.369S45.362,36.526,45.159,36.526"/>
	<path style="clip-path:url(#SVGID_2_);fill:#FFFFFF;" d="M46.371,18.629v-0.416c-0.429-0.031-0.772-0.374-0.803-0.801h-0.416
		c-0.03,0.427-0.374,0.77-0.801,0.801v0.416c0.427,0.031,0.771,0.373,0.801,0.801h0.416C45.599,19.001,45.942,18.658,46.371,18.629
		 M45.674,18.471c-0.101,0.074-0.188,0.163-0.264,0.263l-0.05,0.067l-0.05-0.067c-0.074-0.1-0.162-0.189-0.263-0.263L44.98,18.42
		l0.067-0.049c0.101-0.075,0.188-0.163,0.263-0.263l0.05-0.067l0.05,0.067c0.075,0.1,0.164,0.188,0.264,0.263l0.067,0.049
		L45.674,18.471z"/>
	<path style="clip-path:url(#SVGID_2_);fill:#FFFFFF;" d="M12.959,8.042V7.484c-0.624-0.058-1.123-0.557-1.182-1.181H11.22
		c-0.058,0.624-0.557,1.123-1.18,1.181v0.557c0.623,0.058,1.122,0.558,1.18,1.182h0.557C11.836,8.599,12.335,8.099,12.959,8.042
		 M11.982,7.863c-0.146,0.107-0.274,0.236-0.385,0.383L11.5,8.379L11.4,8.246c-0.109-0.147-0.238-0.276-0.383-0.383l-0.134-0.1
		l0.134-0.099c0.145-0.109,0.274-0.237,0.383-0.383L11.5,7.147l0.098,0.134c0.11,0.146,0.239,0.274,0.385,0.383l0.133,0.099
		L11.982,7.863z"/>
	<path style="clip-path:url(#SVGID_2_);fill:#FFFFFF;" d="M6.076,33.973v-0.385c-0.401-0.03-0.722-0.352-0.752-0.754H4.94
		c-0.032,0.402-0.353,0.724-0.754,0.754v0.385c0.401,0.029,0.722,0.352,0.754,0.753h0.384C5.354,34.324,5.675,34.002,6.076,33.973
		 M5.428,33.83c-0.094,0.068-0.177,0.152-0.247,0.246l-0.049,0.066l-0.05-0.066c-0.07-0.094-0.153-0.176-0.248-0.246l-0.067-0.051
		l0.067-0.049c0.095-0.07,0.178-0.153,0.248-0.246l0.05-0.067l0.05,0.067c0.069,0.094,0.152,0.176,0.246,0.246l0.066,0.049
		L5.428,33.83z"/>
</g>
</svg>
