<?xml version="1.0" encoding="iso-8859-1"?>
<!-- Generator: Adobe Illustrator 15.1.0, SVG Export Plug-In . SVG Version: 6.00 Build 0)  -->
<!DOCTYPE svg PUBLIC "-//W3C//DTD SVG 1.1//EN" "http://www.w3.org/Graphics/SVG/1.1/DTD/svg11.dtd">
<svg version="1.1" id="Layer_1" xmlns="http://www.w3.org/2000/svg" xmlns:xlink="http://www.w3.org/1999/xlink" x="0px" y="0px"
	 width="50px" height="50px" viewBox="0 0 50 50" style="enable-background:new 0 0 50 50;" xml:space="preserve">
<path style="fill:#FFFFFF;" d="M24.768,46.663l0.618-0.003l0.004,0.619l-0.618,0.003L24.768,46.663z M23.574,47.237l-0.311-0.021
	l0.04-0.618l0.619,0.04l-0.04,0.618L23.574,47.237z M26.232,46.627l0.619-0.046l0.044,0.618l-0.309,0.024v-0.002l-0.309,0.023
	L26.232,46.627z M22.073,47.089l-0.308-0.041l0.082-0.615l0.615,0.083L22.38,47.13L22.073,47.089z M27.693,46.49L28,46.447
	l0.306-0.044l0.087,0.614l-0.613,0.086L27.693,46.49z M20.585,46.836l-0.304-0.062l0.123-0.607l0.607,0.125l-0.124,0.605
	L20.585,46.836z M31.969,45.496l0.291-0.105l0.291-0.104l0.212,0.583l-0.293,0.105l-0.291,0.104L31.969,45.496z M33.337,44.972
	l0.567-0.249l0.25,0.568l-0.568,0.249L33.337,44.972z M34.667,44.356l0.549-0.288l0.288,0.548l-0.275,0.144l-0.273,0.145
	L34.667,44.356z M35.948,43.649l0.527-0.324l0.325,0.526l-0.526,0.326L35.948,43.649z M37.179,42.857l0.505-0.361l0.36,0.505
	l-0.251,0.179l-0.253,0.182L37.179,42.857z M38.353,41.98l0.479-0.394l0.395,0.477l-0.478,0.396L38.353,41.98z M39.465,41.024
	l0.449-0.425l0.426,0.45l-0.449,0.427L39.465,41.024z M40.507,39.998l0.42-0.456l0.457,0.419l-0.21,0.229l-0.21,0.228L40.507,39.998
	z M41.479,38.899l0.388-0.482l0.483,0.386l-0.388,0.484L41.479,38.899z M42.373,37.739l0.353-0.511l0.511,0.355l-0.355,0.508
	L42.373,37.739z M43.186,36.52l0.319-0.532l0.532,0.317l-0.319,0.531L43.186,36.52z M43.914,35.246l0.141-0.275l0.141-0.276
	l0.553,0.28l-0.282,0.554L43.914,35.246z M4.814,34.032L4.814,34.032l-0.123-0.285l0.569-0.245l0.246,0.569l-0.569,0.244
	L4.814,34.032z M44.553,33.927l0.243-0.57l0.57,0.243l-0.243,0.57L44.553,33.927z M4.262,32.628L4.16,32.335l0.585-0.206
	l0.206,0.584L4.366,32.92L4.262,32.628z M45.101,32.567l0.203-0.585l0.586,0.201l-0.204,0.587L45.101,32.567z M3.812,31.19
	L3.812,31.19l-0.084-0.299l0.597-0.166l0.167,0.598l-0.598,0.165L3.812,31.19z M45.555,31.174l0.161-0.599l0.599,0.161l-0.08,0.3
	v0.001l-0.082,0.298L45.555,31.174z M3.458,29.725L3.458,29.725l-0.062-0.304l0.607-0.123l0.124,0.605L3.52,30.028L3.458,29.725z
	 M45.91,29.75l0.121-0.607l0.605,0.122l-0.059,0.303l-0.062,0.304L45.91,29.75z M3.284,28.772v0.002l-0.049-0.307l0.612-0.099
	l0.097,0.612l-0.611,0.098L3.284,28.772z M46.168,28.305l0.077-0.614l0.614,0.079l-0.038,0.308l-0.04,0.308L46.168,28.305z
	 M3.094,27.277L3.094,27.277l-0.028-0.309l0.617-0.056L3.74,27.53l-0.617,0.056L3.094,27.277z M46.324,26.85l0.035-0.618
	l0.617,0.036l-0.034,0.618L46.324,26.85z M3.007,25.771L3.007,25.771L3,25.462l0.619-0.014l0.009,0.31l0.007,0.31l-0.62,0.015
	L3.007,25.771z M46.375,25.075l-0.003-0.309l0.619-0.006l0.007,0.619l-0.62,0.007L46.375,25.075z M3.01,24.574l0.029-0.619
	l0.618,0.028l-0.014,0.308l-0.014,0.311L3.01,24.574z M46.309,23.611l-0.024-0.308l0.617-0.05l0.025,0.309l0.024,0.308l-0.617,0.05
	L46.309,23.611z M3.109,23.068l0.035-0.306l0.035-0.308l0.617,0.071l-0.071,0.616L3.109,23.068z M46.143,22.155L46.143,22.155
	l-0.046-0.307l0.612-0.091l0.09,0.614l-0.611,0.09L46.143,22.155z M3.311,21.573l0.114-0.608l0.609,0.113L3.92,21.686L3.311,21.573z
	 M45.88,20.713l-0.067-0.303l0.606-0.132l0.131,0.606l-0.604,0.132L45.88,20.713z M3.617,20.096l0.077-0.3h0.001l0.078-0.301
	l0.599,0.155l-0.155,0.601L3.617,20.096z M4.024,18.643l0.197-0.588l0.588,0.196l-0.196,0.588L4.024,18.643z M4.53,17.221
	l0.236-0.572l0.572,0.235l-0.234,0.572L4.53,17.221z M44.509,16.545l-0.125-0.283l0.564-0.254l0.254,0.566l-0.566,0.252
	L44.509,16.545z M43.866,15.228l-0.146-0.274l0.547-0.291l0.146,0.274h-0.002l0.146,0.272l-0.545,0.292L43.866,15.228z
	 M43.133,13.961l-0.163-0.262l0.525-0.33l0.329,0.526l-0.526,0.329L43.133,13.961z M42.314,12.747l-0.183-0.251l0.503-0.363
	l0.181,0.25l0.182,0.252l-0.5,0.362L42.314,12.747z M7.483,11.98l0.191-0.244l0.191-0.245l0.488,0.383l-0.382,0.487L7.483,11.98z
	 M41.415,11.592L41.415,11.592l-0.2-0.237l0.478-0.399l0.397,0.476l-0.476,0.396L41.415,11.592z M8.434,10.811l0.414-0.46
	l0.463,0.413l-0.414,0.461L8.434,10.811z M40.438,10.5L40.438,10.5l-0.215-0.223l0.447-0.428l0.429,0.446l-0.446,0.429L40.438,10.5z
	 M9.465,9.709l0.222-0.215l0.222-0.216l0.432,0.445l-0.444,0.431L9.465,9.709z M39.387,9.48l-0.229-0.21l0.418-0.457l0.457,0.416
	l-0.415,0.459L39.387,9.48z M10.566,8.683l0.474-0.402l0.4,0.474l-0.473,0.398L10.566,8.683z M38.269,8.532l-0.241-0.194
	l0.385-0.485l0.243,0.192l0.242,0.193l-0.385,0.485L38.269,8.532z M11.736,7.733l0.5-0.369l0.368,0.5l-0.5,0.368L11.736,7.733z
	 M37.092,7.66l-0.256-0.176l0.35-0.509l0.257,0.175l0.256,0.175l-0.352,0.511L37.092,7.66z M12.969,6.863l0.523-0.331l0.332,0.524
	l-0.523,0.331L12.969,6.863z M35.854,6.873L35.854,6.873l-0.267-0.158l0.314-0.533l0.534,0.314L36.121,7.03L35.854,6.873z
	 M14.258,6.084l0.272-0.147h0.001l0.271-0.148l0.296,0.544l-0.273,0.149h0.001l-0.274,0.147L14.258,6.084z M34.568,6.171
	l-0.276-0.139l0.277-0.552l0.554,0.277L34.846,6.31L34.568,6.171z M15.6,5.394l0.281-0.129l0.282-0.128l0.256,0.564l-0.563,0.256
	L15.6,5.394z M33.236,5.56L33.236,5.56L32.95,5.44l0.239-0.573l0.571,0.24l-0.239,0.572L33.236,5.56z M16.984,4.797l0.58-0.216
	l0.218,0.579L17.49,5.27V5.269L17.2,5.378L16.984,4.797z M31.864,5.04l-0.293-0.1l0.199-0.585l0.587,0.199l-0.199,0.585L31.864,5.04
	z M18.406,4.298l0.298-0.088L19,4.121l0.177,0.594l-0.298,0.089l-0.295,0.088L18.406,4.298z M30.462,4.615l-0.3-0.079l0.159-0.598
	l0.599,0.159l-0.159,0.596L30.462,4.615z M19.861,3.898l0.604-0.137l0.136,0.605l-0.303,0.069l-0.302,0.066L19.861,3.898z
	 M29.032,4.29l-0.306-0.058l0.117-0.61l0.608,0.117l-0.116,0.609L29.032,4.29z M21.338,3.597l0.306-0.047l0.306-0.049l0.094,0.614
	l-0.306,0.047h0.001l-0.307,0.047L21.338,3.597z M27.583,4.064l-0.309-0.039l0.074-0.614l0.615,0.073l-0.073,0.617L27.583,4.064z
	 M22.833,3.397l0.616-0.054l0.054,0.617l-0.618,0.054L22.833,3.397z M26.124,3.936L26.124,3.936L25.813,3.92l0.032-0.618
	l0.618,0.031l-0.03,0.619L26.124,3.936z M24.337,3.296l0.62-0.009l0.011,0.619l-0.62,0.01L24.337,3.296z"/>
<rect x="28.88" y="16.956" style="fill:#FFFFFF;" width="0.627" height="0.626"/>
<rect x="28.88" y="18.211" style="fill:#FFFFFF;" width="0.627" height="0.628"/>
<rect x="27.624" y="18.211" style="fill:#FFFFFF;" width="0.629" height="0.628"/>
<g>
	<defs>
		<rect id="SVGID_1_" y="1" width="50" height="49"/>
	</defs>
	<clipPath id="SVGID_2_">
		<use xlink:href="#SVGID_1_"  style="overflow:visible;"/>
	</clipPath>
	<path style="clip-path:url(#SVGID_2_);fill:#FFFFFF;" d="M24.486,31.393c-0.41,0-0.759-0.263-0.888-0.628h5.91
		c0.001-0.214,0.018-0.424,0.049-0.627H24.8v-5.336c0-0.173,0.14-0.315,0.313-0.315h7.533c0.174,0,0.313,0.142,0.313,0.315v1.849
		c0.205-0.037,0.414-0.059,0.627-0.064v-1.784c0-0.52-0.422-0.942-0.94-0.942h-3.139v-1.57c0-0.518-0.422-0.94-0.941-0.94h-2.197
		c-0.173,0-0.314-0.141-0.314-0.315v-0.941h3.14c1.212,0,2.196-0.986,2.196-2.197S30.406,15.7,29.194,15.7h-0.018
		c-0.156-1.411-1.356-2.511-2.808-2.511c-0.983,0-1.873,0.499-2.389,1.321c-0.143-0.044-0.288-0.065-0.436-0.065
		c-0.766,0-1.408,0.553-1.543,1.282c-0.112-0.018-0.226-0.027-0.34-0.027c-1.211,0-2.198,0.986-2.198,2.197s0.987,2.197,2.198,2.197
		h2.197v2.511c0,0.174-0.141,0.314-0.314,0.314h-1.255c0-0.519-0.422-0.942-0.942-0.942h-4.394c-0.52,0-0.942,0.423-0.942,0.942
		v8.159c0,0.52,0.422,0.942,0.942,0.942h4.394c0.52,0,0.942-0.423,0.942-0.942v-7.533h1.255c0.519,0,0.942-0.421,0.942-0.94v-2.511
		h0.94v0.941c0,0.52,0.422,0.942,0.942,0.942h2.197c0.173,0,0.313,0.14,0.313,0.313v1.57h-3.767c-0.518,0-0.942,0.422-0.942,0.942
		v5.336h-0.942c-0.172,0-0.313,0.14-0.313,0.313c0,0.865,0.704,1.569,1.57,1.569h5.193c-0.068-0.207-0.111-0.411-0.139-0.628H24.486
		z M21.661,31.078c0,0.173-0.141,0.314-0.314,0.314h-4.394c-0.173,0-0.314-0.142-0.314-0.314v-0.627h5.022V31.078z M21.661,29.823
		h-5.022v-5.649h5.022V29.823z M21.661,23.545h-5.022v-0.626c0-0.174,0.141-0.314,0.314-0.314h4.394c0.173,0,0.314,0.14,0.314,0.314
		V23.545z M21.661,19.466c-0.867,0-1.569-0.703-1.569-1.569c0-0.866,0.702-1.57,1.569-1.57c0.18,0,0.359,0.033,0.533,0.096
		c0.101,0.036,0.213,0.02,0.298-0.048c0.085-0.064,0.13-0.17,0.121-0.276l-0.007-0.054c-0.001-0.011-0.003-0.02-0.004-0.031
		c0-0.52,0.422-0.943,0.942-0.943c0.144,0,0.289,0.038,0.43,0.112c0.075,0.038,0.163,0.046,0.243,0.019
		c0.08-0.026,0.147-0.085,0.184-0.159c0.374-0.756,1.127-1.225,1.968-1.225c1.211,0,2.197,0.985,2.197,2.187
		c0,0.008-0.001,0.029-0.001,0.037c0,0.093,0.041,0.18,0.11,0.24c0.071,0.06,0.164,0.086,0.255,0.07
		c0.097-0.016,0.182-0.025,0.264-0.025c0.865,0,1.569,0.704,1.569,1.57c0,0.866-0.704,1.569-1.569,1.569H21.661z"/>
	<path style="clip-path:url(#SVGID_2_);fill:#FFFFFF;" d="M17.58,26.685h3.139c0.174,0,0.314-0.141,0.314-0.314v-1.255
		c0-0.174-0.14-0.313-0.314-0.313H17.58c-0.173,0-0.314,0.139-0.314,0.313v1.255C17.266,26.544,17.407,26.685,17.58,26.685
		 M17.895,25.43h2.512v0.627h-2.512V25.43z"/>
	<path style="clip-path:url(#SVGID_2_);fill:#FFFFFF;" d="M28.88,25.115h-3.139c-0.173,0-0.314,0.141-0.314,0.314v3.767
		c0,0.173,0.142,0.313,0.314,0.313h3.139c0.174,0,0.314-0.14,0.314-0.313V25.43C29.194,25.256,29.054,25.115,28.88,25.115
		 M28.566,28.882h-2.512v-3.139h2.512V28.882z"/>
	<rect x="17.266" y="27.313" style="clip-path:url(#SVGID_2_);fill:#FFFFFF;" width="3.767" height="0.627"/>
	<rect x="29.822" y="25.115" style="clip-path:url(#SVGID_2_);fill:#FFFFFF;" width="2.51" height="0.628"/>
	<path style="clip-path:url(#SVGID_2_);fill:#FFFFFF;" d="M32.332,26.37h-2.51v0.628h2.065c0.144-0.069,0.293-0.129,0.444-0.183
		V26.37z"/>
	<path style="clip-path:url(#SVGID_2_);fill:#FFFFFF;" d="M30.943,27.626h-1.121v0.627h0.535
		C30.531,28.024,30.728,27.814,30.943,27.626"/>
	<path style="clip-path:url(#SVGID_2_);fill:#FFFFFF;" d="M29.822,28.882v0.311c0.042-0.105,0.091-0.209,0.143-0.311H29.822z"/>
	<rect x="17.266" y="28.567" style="clip-path:url(#SVGID_2_);fill:#FFFFFF;" width="3.767" height="0.629"/>
	<path style="clip-path:url(#SVGID_2_);fill:#FFFFFF;" d="M31.216,28.253h-0.858c-0.148,0.197-0.279,0.407-0.393,0.629h0.744
		C30.854,28.653,31.023,28.442,31.216,28.253"/>
	<path style="clip-path:url(#SVGID_2_);fill:#FFFFFF;" d="M30.391,29.509h-0.568v-0.316c-0.124,0.299-0.214,0.616-0.265,0.945h0.656
		C30.254,29.921,30.313,29.711,30.391,29.509"/>
	<path style="clip-path:url(#SVGID_2_);fill:#FFFFFF;" d="M30.155,30.765h-0.647v0.019c0,0.22,0.009,0.418,0.033,0.609h0.654
		c-0.029-0.191-0.042-0.388-0.042-0.609C30.153,30.777,30.155,30.771,30.155,30.765"/>
	<path style="clip-path:url(#SVGID_2_);fill:#FFFFFF;" d="M32.332,26.998h-0.444c-0.344,0.166-0.661,0.379-0.944,0.628h1.137
		c0.273-0.142,0.57-0.25,0.88-0.316V26.65c-0.215,0.039-0.424,0.095-0.628,0.165V26.998z"/>
	<path style="clip-path:url(#SVGID_2_);fill:#FFFFFF;" d="M33.709,26.582c-0.041,0-0.081,0.002-0.122,0.004v0.646
		c0.041-0.001,0.081-0.004,0.122-0.004c1.961,0,3.557,1.595,3.557,3.555c0,1.275-0.385,1.782-2.517,4.596
		c-0.311,0.409-0.655,0.863-1.04,1.374c-0.386-0.515-0.732-0.971-1.044-1.383c-1.354-1.782-2-2.637-2.292-3.351H29.68
		c0.28,0.857,0.967,1.761,2.47,3.742c0.38,0.5,0.81,1.067,1.303,1.724c0.06,0.081,0.155,0.129,0.257,0.129s0.198-0.048,0.259-0.129
		c0.49-0.653,0.919-1.219,1.296-1.717c2.192-2.89,2.647-3.492,2.647-4.985C37.911,28.467,36.026,26.582,33.709,26.582"/>
	<path style="clip-path:url(#SVGID_2_);fill:#FFFFFF;" d="M30.214,30.138h-0.656c-0.031,0.203-0.049,0.413-0.05,0.627h0.647
		C30.156,30.55,30.177,30.34,30.214,30.138"/>
	<path style="clip-path:url(#SVGID_2_);fill:#FFFFFF;" d="M32.96,27.31c0.204-0.044,0.414-0.07,0.627-0.077v-0.646
		c-0.213,0.006-0.422,0.027-0.627,0.064V27.31z"/>
	<path style="clip-path:url(#SVGID_2_);fill:#FFFFFF;" d="M30.195,31.393h-0.654c0.027,0.217,0.07,0.421,0.139,0.628h0.693
		C30.285,31.806,30.229,31.604,30.195,31.393"/>
	<path style="clip-path:url(#SVGID_2_);fill:#FFFFFF;" d="M32.332,26.815c-0.151,0.054-0.301,0.113-0.444,0.183h0.444V26.815z"/>
	<path style="clip-path:url(#SVGID_2_);fill:#FFFFFF;" d="M32.08,27.626h-1.138c-0.215,0.188-0.412,0.398-0.585,0.627h0.858
		C31.469,28.003,31.761,27.791,32.08,27.626"/>
	<path style="clip-path:url(#SVGID_2_);fill:#FFFFFF;" d="M29.965,28.882c-0.053,0.102-0.101,0.205-0.144,0.311v0.316h0.57
		c0.085-0.221,0.191-0.431,0.316-0.627H29.965z"/>
	<path style="clip-path:url(#SVGID_2_);fill:#FFFFFF;" d="M33.709,29.168c0.892,0,1.618,0.725,1.618,1.615
		c0,0.893-0.727,1.617-1.618,1.617c-0.395,0-0.757-0.144-1.038-0.379h-0.854c0.404,0.615,1.102,1.024,1.893,1.024
		c1.248,0,2.263-1.015,2.263-2.263c0-1.246-1.015-2.261-2.263-2.261c-0.041,0-0.081,0.002-0.122,0.005v0.647
		C33.628,29.172,33.668,29.168,33.709,29.168"/>
	<path style="clip-path:url(#SVGID_2_);fill:#FFFFFF;" d="M32.094,30.783c0-0.006,0-0.013,0.001-0.019h-0.646
		c0,0.006-0.002,0.013-0.002,0.019c0,0.212,0.03,0.414,0.085,0.609h0.682C32.136,31.204,32.094,30.999,32.094,30.783"/>
	<path style="clip-path:url(#SVGID_2_);fill:#FFFFFF;" d="M32.332,29.509h-0.491c-0.13,0.191-0.231,0.402-0.299,0.629h0.687
		c0.148-0.338,0.408-0.613,0.731-0.784v-0.702c-0.228,0.08-0.44,0.196-0.628,0.341V29.509z"/>
	<path style="clip-path:url(#SVGID_2_);fill:#FFFFFF;" d="M32.214,31.393h-0.682c0.063,0.225,0.16,0.438,0.285,0.628h0.854
		C32.472,31.852,32.313,31.638,32.214,31.393"/>
	<path style="clip-path:url(#SVGID_2_);fill:#FFFFFF;" d="M33.587,29.175v-0.647c-0.218,0.013-0.428,0.054-0.627,0.124v0.702
		C33.15,29.254,33.363,29.191,33.587,29.175"/>
	<path style="clip-path:url(#SVGID_2_);fill:#FFFFFF;" d="M32.229,30.138h-0.687c-0.061,0.197-0.093,0.408-0.095,0.627h0.646
		C32.098,30.541,32.146,30.329,32.229,30.138"/>
	<path style="clip-path:url(#SVGID_2_);fill:#FFFFFF;" d="M31.841,29.509h0.491v-0.517C32.144,29.139,31.978,29.313,31.841,29.509"
		/>
	<rect x="6.52" y="36.874" style="clip-path:url(#SVGID_2_);fill:#FFFFFF;" width="0.551" height="0.551"/>
	<rect x="7.621" y="36.874" style="clip-path:url(#SVGID_2_);fill:#FFFFFF;" width="0.551" height="0.551"/>
	<rect x="6.52" y="35.773" style="clip-path:url(#SVGID_2_);fill:#FFFFFF;" width="0.551" height="0.55"/>
	<rect x="7.621" y="35.773" style="clip-path:url(#SVGID_2_);fill:#FFFFFF;" width="0.551" height="0.55"/>
	<rect x="8.723" y="36.874" style="clip-path:url(#SVGID_2_);fill:#FFFFFF;" width="0.551" height="0.551"/>
	<rect x="8.723" y="35.773" style="clip-path:url(#SVGID_2_);fill:#FFFFFF;" width="0.551" height="0.55"/>
	<rect x="9.824" y="36.874" style="clip-path:url(#SVGID_2_);fill:#FFFFFF;" width="0.551" height="0.551"/>
	<rect x="9.824" y="35.773" style="clip-path:url(#SVGID_2_);fill:#FFFFFF;" width="0.551" height="0.55"/>
	<rect x="10.925" y="36.874" style="clip-path:url(#SVGID_2_);fill:#FFFFFF;" width="0.552" height="0.551"/>
	<rect x="10.925" y="35.773" style="clip-path:url(#SVGID_2_);fill:#FFFFFF;" width="0.552" height="0.55"/>
	<rect x="6.52" y="40.178" style="clip-path:url(#SVGID_2_);fill:#FFFFFF;" width="0.551" height="0.55"/>
	<rect x="7.621" y="40.178" style="clip-path:url(#SVGID_2_);fill:#FFFFFF;" width="0.551" height="0.55"/>
	<rect x="6.52" y="39.076" style="clip-path:url(#SVGID_2_);fill:#FFFFFF;" width="0.551" height="0.551"/>
	<rect x="7.621" y="39.076" style="clip-path:url(#SVGID_2_);fill:#FFFFFF;" width="0.551" height="0.551"/>
	<rect x="8.723" y="40.178" style="clip-path:url(#SVGID_2_);fill:#FFFFFF;" width="0.551" height="0.55"/>
	<rect x="8.723" y="39.076" style="clip-path:url(#SVGID_2_);fill:#FFFFFF;" width="0.551" height="0.551"/>
	<rect x="9.824" y="40.178" style="clip-path:url(#SVGID_2_);fill:#FFFFFF;" width="0.551" height="0.55"/>
	<rect x="9.824" y="39.076" style="clip-path:url(#SVGID_2_);fill:#FFFFFF;" width="0.551" height="0.551"/>
	<rect x="10.925" y="40.178" style="clip-path:url(#SVGID_2_);fill:#FFFFFF;" width="0.552" height="0.55"/>
</g>
<g>
	<defs>
		<rect id="SVGID_3_" x="5.419" y="32.193" width="14.325" height="16.52"/>
	</defs>
	<clipPath id="SVGID_4_">
		<use xlink:href="#SVGID_3_"  style="overflow:visible;"/>
	</clipPath>
	<rect x="10.925" y="39.076" style="clip-path:url(#SVGID_4_);fill:#FFFFFF;" width="0.552" height="0.551"/>
	<path style="clip-path:url(#SVGID_4_);fill:#FFFFFF;" d="M19.715,45.854c-0.043-0.103-0.143-0.17-0.255-0.17h-0.825V34.122
		c0-1.063-0.864-1.928-1.927-1.928h-1.653c-1.063,0-1.927,0.864-1.927,1.928v0.55H6.245c-0.456,0-0.826,0.37-0.826,0.826V37.7
		c0,0.212,0.082,0.405,0.214,0.551c-0.132,0.146-0.214,0.339-0.214,0.55v2.202c0,0.213,0.082,0.404,0.214,0.552
		c-0.132,0.146-0.214,0.338-0.214,0.551v2.202c0,0.455,0.37,0.825,0.826,0.825h9.086v0.551h-0.827c-0.11,0-0.211,0.067-0.254,0.17
		c-0.042,0.104-0.019,0.222,0.06,0.301l2.478,2.478c0.054,0.054,0.125,0.081,0.195,0.081s0.141-0.027,0.194-0.081l2.479-2.478
		C19.733,46.075,19.757,45.957,19.715,45.854 M5.969,35.498c0-0.152,0.123-0.276,0.276-0.276h9.086v0.552h-2.203
		c-0.152,0-0.276,0.123-0.276,0.274v1.102c0,0.152,0.124,0.275,0.276,0.275h2.203v0.551H6.245c-0.153,0-0.276-0.124-0.276-0.275
		V35.498z M14.78,34.672v-0.55c0-0.152,0.124-0.276,0.275-0.276c0.152,0,0.276,0.124,0.276,0.276v0.55H14.78z M15.331,36.874h-1.927
		v-0.551h1.927V36.874z M5.969,38.801c0-0.151,0.123-0.273,0.276-0.273h9.086v0.549h-2.203c-0.152,0-0.276,0.123-0.276,0.275v1.101
		c0,0.153,0.124,0.275,0.276,0.275h2.203v0.551H6.245c-0.153,0-0.276-0.123-0.276-0.275V38.801z M15.331,40.178h-1.927v-0.551h1.927
		V40.178z M6.245,44.583c-0.153,0-0.276-0.123-0.276-0.275v-2.202c0-0.152,0.123-0.275,0.276-0.275h9.086v0.551h-2.203
		c-0.152,0-0.276,0.122-0.276,0.275v1.101c0,0.152,0.124,0.275,0.276,0.275h2.203v0.551H6.245z M15.331,43.481h-1.927v-0.55h1.927
		V43.481z M16.983,48.048l-1.813-1.813h0.436c0.152,0,0.275-0.124,0.275-0.276V34.122c0-0.456-0.37-0.827-0.826-0.827
		c-0.454,0-0.826,0.371-0.826,0.827v0.55h-0.55v-0.55c0-0.76,0.617-1.378,1.376-1.378h1.653c0.758,0,1.376,0.618,1.376,1.378v11.837
		c0,0.152,0.123,0.276,0.275,0.276h0.437L16.983,48.048z"/>
</g>
<g>
	<defs>
		<rect id="SVGID_5_" y="1" width="50" height="49"/>
	</defs>
	<clipPath id="SVGID_6_">
		<use xlink:href="#SVGID_5_"  style="overflow:visible;"/>
	</clipPath>
	<rect x="6.52" y="43.481" style="clip-path:url(#SVGID_6_);fill:#FFFFFF;" width="0.551" height="0.551"/>
	<rect x="7.621" y="43.481" style="clip-path:url(#SVGID_6_);fill:#FFFFFF;" width="0.551" height="0.551"/>
	<rect x="6.52" y="42.381" style="clip-path:url(#SVGID_6_);fill:#FFFFFF;" width="0.551" height="0.551"/>
	<rect x="7.621" y="42.381" style="clip-path:url(#SVGID_6_);fill:#FFFFFF;" width="0.551" height="0.551"/>
	<rect x="8.723" y="43.481" style="clip-path:url(#SVGID_6_);fill:#FFFFFF;" width="0.551" height="0.551"/>
	<rect x="8.723" y="42.381" style="clip-path:url(#SVGID_6_);fill:#FFFFFF;" width="0.551" height="0.551"/>
	<rect x="9.824" y="43.481" style="clip-path:url(#SVGID_6_);fill:#FFFFFF;" width="0.551" height="0.551"/>
	<rect x="9.824" y="42.381" style="clip-path:url(#SVGID_6_);fill:#FFFFFF;" width="0.551" height="0.551"/>
	<rect x="10.925" y="43.481" style="clip-path:url(#SVGID_6_);fill:#FFFFFF;" width="0.552" height="0.551"/>
	<rect x="10.925" y="42.381" style="clip-path:url(#SVGID_6_);fill:#FFFFFF;" width="0.552" height="0.551"/>
	<rect x="16.983" y="44.583" style="clip-path:url(#SVGID_6_);fill:#FFFFFF;" width="0.551" height="0.55"/>
	<rect x="16.983" y="43.481" style="clip-path:url(#SVGID_6_);fill:#FFFFFF;" width="0.551" height="0.551"/>
	<rect x="16.983" y="42.381" style="clip-path:url(#SVGID_6_);fill:#FFFFFF;" width="0.551" height="0.551"/>
	<path style="clip-path:url(#SVGID_6_);fill:#FFFFFF;" d="M7.978,14.401v-0.558c-0.625-0.059-1.125-0.558-1.183-1.184H6.237
		c-0.058,0.626-0.558,1.125-1.183,1.184v0.558c0.625,0.059,1.125,0.557,1.183,1.183h0.558C6.853,14.958,7.353,14.459,7.978,14.401
		 M6.999,14.221c-0.145,0.108-0.274,0.237-0.384,0.384l-0.099,0.134l-0.1-0.134c-0.109-0.147-0.237-0.276-0.383-0.384L5.9,14.122
		l0.133-0.099c0.146-0.11,0.275-0.238,0.383-0.385l0.1-0.133l0.099,0.133c0.11,0.147,0.238,0.276,0.384,0.385l0.134,0.099
		L6.999,14.221z"/>
	<path style="clip-path:url(#SVGID_6_);fill:#FFFFFF;" d="M47,18.533v-0.418c-0.429-0.03-0.771-0.373-0.801-0.801h-0.418
		c-0.031,0.428-0.374,0.771-0.802,0.801v0.418c0.428,0.03,0.771,0.374,0.802,0.802h0.418C46.229,18.907,46.571,18.563,47,18.533
		 M46.303,18.374c-0.101,0.075-0.188,0.164-0.264,0.264l-0.049,0.066l-0.05-0.066c-0.074-0.1-0.163-0.189-0.265-0.264l-0.066-0.05
		l0.066-0.05c0.102-0.074,0.19-0.163,0.265-0.262l0.05-0.069l0.049,0.069c0.075,0.099,0.163,0.188,0.264,0.262l0.066,0.05
		L46.303,18.374z"/>
	<path style="clip-path:url(#SVGID_6_);fill:#FFFFFF;" d="M31.147,46.344v-0.385c-0.402-0.029-0.724-0.353-0.754-0.754h-0.385
		c-0.031,0.401-0.354,0.725-0.754,0.754v0.385c0.4,0.03,0.723,0.353,0.754,0.755h0.385C30.424,46.696,30.745,46.374,31.147,46.344
		 M30.498,46.201c-0.094,0.069-0.177,0.152-0.247,0.247L30.2,46.516l-0.05-0.067c-0.069-0.094-0.153-0.177-0.247-0.247l-0.066-0.05
		l0.066-0.05c0.094-0.07,0.178-0.153,0.247-0.247l0.05-0.067l0.051,0.067c0.07,0.095,0.153,0.178,0.247,0.247l0.066,0.05
		L30.498,46.201z"/>
</g>
</svg>
