<?xml version="1.0" encoding="iso-8859-1"?>
<!-- Generator: Adobe Illustrator 15.1.0, SVG Export Plug-In . SVG Version: 6.00 Build 0)  -->
<!DOCTYPE svg PUBLIC "-//W3C//DTD SVG 1.1//EN" "http://www.w3.org/Graphics/SVG/1.1/DTD/svg11.dtd">
<svg version="1.1" id="Layer_1" xmlns="http://www.w3.org/2000/svg" xmlns:xlink="http://www.w3.org/1999/xlink" x="0px" y="0px"
	 width="50px" height="50px" viewBox="0 0 50 50" style="enable-background:new 0 0 50 50;" xml:space="preserve">
<path style="fill:#FFFFFF;" d="M24.543,46.994l-0.312-0.006l0.011-0.622l0.623,0.013L24.853,47L24.543,46.994z M25.715,46.364
	l0.622-0.029l0.032,0.621l-0.623,0.031L25.715,46.364z M23.028,46.911L23.028,46.911l-0.311-0.026l0.056-0.621l0.621,0.056
	l-0.056,0.621L23.028,46.911z M27.186,46.264l0.619-0.073l0.073,0.619l-0.62,0.074L27.186,46.264z M21.524,46.726l-0.309-0.05
	l0.099-0.615l0.616,0.099l-0.098,0.616L21.524,46.726z M28.646,46.062l0.61-0.114l0.114,0.611l-0.61,0.115L28.646,46.062z
	 M20.034,46.434L20.034,46.434l-0.303-0.07l0.142-0.606l0.605,0.141l-0.139,0.606L20.034,46.434z M30.087,45.762l0.602-0.156
	l0.156,0.604l-0.6,0.155L30.087,45.762z M18.571,46.039l-0.301-0.09l0.185-0.596l0.596,0.181l-0.184,0.597L18.571,46.039z
	 M31.504,45.365l0.592-0.198l0.197,0.59l-0.591,0.197L31.504,45.365z M17.137,45.545l-0.292-0.111l0.224-0.58l0.582,0.223
	l-0.224,0.581L17.137,45.545z M32.893,44.87l0.575-0.238l0.238,0.576l-0.575,0.237L32.893,44.87z M15.741,44.953l-0.283-0.13
	l0.263-0.565l0.564,0.264l-0.261,0.564L15.741,44.953z M34.241,44.279l0.279-0.138l0.278-0.139l0.276,0.557l-0.557,0.278
	L34.241,44.279z M14.389,44.267v0.002l-0.274-0.151l0.301-0.545l0.274,0.15l0.272,0.149l-0.301,0.546L14.389,44.267z M36.799,42.829
	l0.515-0.352l0.351,0.514l-0.512,0.351L36.799,42.829z M37.997,41.975l0.245-0.193l0.244-0.193l0.387,0.488l-0.246,0.193
	l-0.244,0.192L37.997,41.975z M39.133,41.039l0.461-0.419l0.419,0.46l-0.462,0.419L39.133,41.039z M40.203,40.026l0.432-0.45
	l0.451,0.432l-0.432,0.45L40.203,40.026z M41.202,38.943l0.198-0.239l0.201-0.239l0.478,0.398l-0.198,0.239l-0.201,0.24
	L41.202,38.943z M42.124,37.794l0.181-0.252l0.185-0.252l0.505,0.366l-0.367,0.505L42.124,37.794z M42.964,36.586l0.331-0.528
	l0.528,0.33l-0.331,0.527L42.964,36.586z M43.719,35.32l0.294-0.55l0.55,0.293l-0.294,0.55L43.719,35.32z M44.387,34.008
	l0.255-0.569l0.569,0.256l-0.255,0.567L44.387,34.008z M4.558,33.131L4.558,33.131l-0.114-0.289l0.576-0.23l0.231,0.581L4.673,33.42
	L4.558,33.131z M44.962,32.651l0.109-0.292l0.107-0.292l0.583,0.215l-0.107,0.29l-0.107,0.293L44.962,32.651z M4.048,31.704
	l-0.095-0.296l0.593-0.19l0.189,0.595L4.141,32L4.048,31.704z M45.445,31.258l0.172-0.599l0.598,0.175l-0.172,0.599L45.445,31.258z
	 M3.638,30.245L3.638,30.245l-0.075-0.303l0.607-0.146L4.316,30.4l-0.604,0.147L3.638,30.245z M45.826,29.835l0.133-0.608
	l0.608,0.133l-0.132,0.608L45.826,29.835z M3.334,28.797H3.333l-0.058-0.342h0.002l-0.043-0.273l0.614-0.098l0.149,0.878
	l-0.614,0.107L3.334,28.797z M46.111,28.388l0.089-0.614l0.616,0.089l-0.09,0.615L46.111,28.388z M3.093,26.985l-0.028-0.31
	l0.619-0.059l0.058,0.622l-0.619,0.057L3.093,26.985z M46.292,26.928l0.048-0.623l0.622,0.048l-0.023,0.311l-0.023,0.312
	L46.292,26.928z M3.006,25.473L3.006,25.473L3,25.161l0.623-0.014l0.014,0.62l-0.623,0.016L3.006,25.473z M46.372,25.458
	l0.006-0.624l0.623,0.004l-0.006,0.624L46.372,25.458z M3.009,24.268l0.015-0.312l0.016-0.31l0.62,0.03l-0.029,0.621L3.009,24.268z
	 M46.331,23.674l-0.02-0.312l0.623-0.038l0.039,0.62l-0.621,0.04L46.331,23.674z M3.11,22.756l0.037-0.31v0.001l0.036-0.31
	L3.8,22.209l-0.071,0.619L3.11,22.756z M46.189,22.208L46.148,21.9l0.618-0.083l0.082,0.618l-0.619,0.082L46.189,22.208z
	 M3.316,21.253L3.43,20.64l0.615,0.116l-0.116,0.61L3.316,21.253z M45.946,20.754L45.946,20.754l-0.061-0.305l0.61-0.124
	l0.122,0.612l-0.61,0.123L45.946,20.754z M3.628,19.768l0.155-0.603l0.603,0.157L4.23,19.924L3.628,19.768z M44.633,16.545
	l-0.122-0.287l0.572-0.245l0.246,0.571l-0.572,0.247L44.633,16.545z M5.16,15.491l0.277-0.556l0.557,0.276L5.718,15.77L5.16,15.491z
	 M44.006,15.211l-0.144-0.275l0.554-0.285l0.143,0.278l0.144,0.275l-0.554,0.285L44.006,15.211z M5.863,14.149l0.315-0.538
	l0.538,0.316l-0.158,0.269L6.4,14.465L5.863,14.149z M43.288,13.929L43.288,13.929l-0.161-0.267l0.531-0.322l0.324,0.533
	l-0.533,0.323L43.288,13.929z M6.657,12.856L6.833,12.6l0.175-0.256l0.514,0.351l-0.35,0.514L6.657,12.856z M42.482,12.697
	L42.482,12.697l-0.18-0.254l0.511-0.359l0.357,0.511l-0.51,0.357L42.482,12.697z M7.536,11.623l0.387-0.489l0.488,0.387
	l-0.194,0.243L8.024,12.01L7.536,11.623z M41.594,11.525L41.594,11.525l-0.196-0.242l0.483-0.393l0.392,0.483l-0.481,0.394
	L41.594,11.525z M8.5,10.453L8.918,9.99l0.46,0.419l-0.417,0.46L8.5,10.453z M40.625,10.416L40.625,10.416l-0.213-0.226l0.457-0.427
	l0.424,0.455l-0.454,0.426L40.625,10.416z M9.537,9.351l0.45-0.433l0.433,0.448L9.97,9.799L9.537,9.351z M39.583,9.375L39.583,9.375
	l-0.227-0.212l0.424-0.455l0.455,0.424l-0.425,0.455L39.583,9.375z M10.653,8.322l0.237-0.2l0.239-0.2l0.401,0.479l-0.24,0.198
	L11.051,8.8L10.653,8.322z M38.474,8.409l-0.244-0.195l0.395-0.485l0.483,0.393l-0.393,0.483L38.474,8.409z M11.833,7.374
	l0.252-0.183l0.251-0.183l0.367,0.503l-0.505,0.366L11.833,7.374z M37.299,7.521L37.299,7.521l-0.256-0.179l0.358-0.511l0.254,0.181
	l0.256,0.179l-0.358,0.508L37.299,7.521z M13.077,6.508l0.526-0.329l0.331,0.527l-0.528,0.33L13.077,6.508z M36.065,6.714
	L36.065,6.714l-0.267-0.16l0.322-0.532l0.533,0.323L36.33,6.876L36.065,6.714z M14.377,5.733l0.549-0.294l0.293,0.55l-0.548,0.292
	L14.377,5.733z M34.78,5.995l-0.278-0.142l0.287-0.554l0.551,0.285l-0.284,0.555L34.78,5.995z M15.729,5.046l0.285-0.128
	l0.285-0.127l0.253,0.569l-0.286,0.127l-0.283,0.128L15.729,5.046z M33.448,5.366L33.448,5.366l-0.287-0.124l0.245-0.572
	l0.573,0.246l-0.247,0.573L33.448,5.366z M17.125,4.456l0.584-0.214l0.215,0.584L17.34,5.041L17.125,4.456z M32.074,4.829
	l-0.293-0.103l0.206-0.587l0.589,0.206l-0.208,0.588L32.074,4.829z M18.559,3.965l0.598-0.173l0.172,0.598l-0.598,0.173
	L18.559,3.965z M30.667,4.388l-0.299-0.083l0.167-0.599l0.299,0.083l0.301,0.083L30.968,4.47L30.667,4.388z M20.021,3.573
	l0.61-0.132l0.13,0.609l-0.607,0.131L20.021,3.573z M29.235,4.047l-0.305-0.063l0.124-0.61l0.304,0.062l0.307,0.062l-0.124,0.611
	L29.235,4.047z M21.509,3.281l0.308-0.045l0.309-0.044l0.089,0.617L21.6,3.898L21.509,3.281z M27.781,3.805l-0.31-0.041l0.082-0.617
	l0.618,0.081l-0.081,0.617L27.781,3.805z M23.013,3.091l0.312-0.023l0.309-0.025l0.047,0.622l-0.62,0.049L23.013,3.091z
	 M26.315,3.663l-0.311-0.018l0.038-0.621l0.31,0.018l0.312,0.019l-0.037,0.623L26.315,3.663z M24.528,3.005l0.31-0.001L25.149,3
	l0.006,0.622l-0.622,0.006L24.528,3.005z"/>
<rect x="27.53" y="18.516" style="fill:#FFFFFF;" width="0.375" height="0.374"/>
<rect x="26.786" y="18.516" style="fill:#FFFFFF;" width="0.373" height="0.374"/>
<rect x="26.039" y="18.516" style="fill:#FFFFFF;" width="0.374" height="0.374"/>
<g>
	<defs>
		<rect id="SVGID_1_" width="50" height="50"/>
	</defs>
	<clipPath id="SVGID_2_">
		<use xlink:href="#SVGID_1_"  style="overflow:visible;"/>
	</clipPath>
	<path style="clip-path:url(#SVGID_2_);fill:#FFFFFF;" d="M23.987,17.024h5.133l0.689,0.862c0.036,0.044,0.09,0.071,0.147,0.071
		h3.729v2.424h-3.543c-0.104,0-0.186,0.083-0.186,0.187v1.324c0,0.093,0.003,0.186,0.009,0.278c0.002,0.031,0.003,0.063,0.007,0.094
		c0.004,0.062,0.012,0.123,0.018,0.185c0.004,0.035,0.01,0.07,0.015,0.104c0.009,0.067,0.02,0.132,0.032,0.197
		c0.006,0.026,0.009,0.051,0.015,0.077c0.018,0.088,0.039,0.176,0.061,0.263c0.007,0.025,0.015,0.048,0.021,0.073
		c0.02,0.069,0.039,0.136,0.063,0.205c0.008,0.022,0.015,0.045,0.023,0.066c0.027,0.081,0.058,0.161,0.09,0.24
		c0.003,0.006,0.005,0.011,0.008,0.017c0.006,0.016,0.012,0.032,0.017,0.047H27.94v0.372h2.578c0.403,0.754,1.009,1.396,1.768,1.84
		c0.031,0.016,0.063,0.024,0.095,0.024s0.064-0.009,0.093-0.024c1.438-0.838,2.331-2.394,2.331-4.058v-1.324
		c0-0.104-0.082-0.187-0.186-0.187h-0.561v-3.543c0-0.514-0.417-0.933-0.932-0.933H28.75l-0.691-1.035
		c-0.034-0.052-0.091-0.083-0.153-0.083h-2.612c-0.063,0-0.12,0.031-0.156,0.083l-0.696,1.046c-0.464,0.054-0.826,0.444-0.826,0.922
		v1.587c0.127,0.042,0.252,0.089,0.372,0.141V17.024z M34.433,20.754v1.138c0,1.496-0.784,2.895-2.052,3.679
		c-0.709-0.437-1.264-1.066-1.618-1.798c-0.008-0.015-0.017-0.031-0.023-0.047c-0.029-0.062-0.056-0.125-0.083-0.189
		c-0.011-0.024-0.02-0.047-0.028-0.071c-0.021-0.055-0.041-0.111-0.06-0.167c-0.012-0.033-0.022-0.064-0.033-0.096
		c-0.017-0.049-0.03-0.099-0.043-0.148c-0.011-0.038-0.021-0.077-0.032-0.115c-0.011-0.045-0.021-0.089-0.03-0.135
		c-0.01-0.042-0.019-0.084-0.025-0.126c-0.009-0.045-0.017-0.089-0.023-0.134c-0.005-0.042-0.013-0.084-0.018-0.126
		c-0.008-0.051-0.011-0.103-0.017-0.155c-0.003-0.036-0.007-0.072-0.009-0.107c-0.005-0.088-0.009-0.176-0.009-0.265v-1.138H34.433z
		 M25.393,15.16h2.412l0.498,0.745h-3.407L25.393,15.16z M24.548,16.278h8.579c0.307,0,0.559,0.251,0.559,0.56v0.745h-3.64
		l-0.69-0.862c-0.036-0.044-0.09-0.07-0.146-0.07h-5.188C24.101,16.434,24.305,16.278,24.548,16.278"/>
	<path style="clip-path:url(#SVGID_2_);fill:#FFFFFF;" d="M32.194,23.924c0.047,0,0.095-0.019,0.131-0.055l1.491-1.491l-0.263-0.264
		l-1.359,1.361l-0.615-0.614l-0.264,0.263l0.747,0.745C32.098,23.905,32.146,23.924,32.194,23.924"/>
	<rect x="30.701" y="21.127" style="clip-path:url(#SVGID_2_);fill:#FFFFFF;" width="0.373" height="0.373"/>
	<rect x="31.448" y="21.127" style="clip-path:url(#SVGID_2_);fill:#FFFFFF;" width="0.372" height="0.373"/>
	<rect x="32.194" y="21.127" style="clip-path:url(#SVGID_2_);fill:#FFFFFF;" width="0.373" height="0.373"/>
	<rect x="32.94" y="21.127" style="clip-path:url(#SVGID_2_);fill:#FFFFFF;" width="0.371" height="0.373"/>
	<rect x="33.686" y="21.127" style="clip-path:url(#SVGID_2_);fill:#FFFFFF;" width="0.373" height="0.373"/>
	<path style="clip-path:url(#SVGID_2_);fill:#FFFFFF;" d="M25.637,19.797c0.379,0.134,0.838,0.211,1.335,0.211
		c0.876,0,1.626-0.239,2.051-0.602v0.415c0,0.442-0.842,0.933-2.051,0.933c-0.308,0-0.591-0.032-0.843-0.087
		c0.048,0.131,0.088,0.265,0.118,0.402c0.228,0.037,0.471,0.058,0.725,0.058c0.876,0,1.626-0.237,2.051-0.603v0.417
		c0,0.4-0.693,0.84-1.725,0.917c0.116,0.107,0.221,0.221,0.307,0.344c0.6-0.085,1.101-0.286,1.418-0.56v0.417
		c0,0.315-0.43,0.656-1.117,0.825c0.022,0.111,0.035,0.224,0.035,0.34v0.036c0.865-0.199,1.456-0.656,1.456-1.201v-3.356
		c0-0.732-1.065-1.306-2.425-1.306c-1.36,0-2.424,0.574-2.424,1.306v0.147C24.978,19.107,25.349,19.43,25.637,19.797 M24.92,18.703
		c0-0.441,0.844-0.934,2.052-0.934c1.209,0,2.051,0.493,2.051,0.934s-0.842,0.932-2.051,0.932
		C25.764,19.635,24.92,19.144,24.92,18.703"/>
	<path style="clip-path:url(#SVGID_2_);fill:#FFFFFF;" d="M29.472,26.493c1.141,0,2.069,0.929,2.069,2.063
		c0,0.006-0.002,0.026-0.002,0.034c0,0.087,0.04,0.17,0.105,0.226c0.066,0.057,0.154,0.08,0.24,0.066
		c0.09-0.016,0.172-0.023,0.249-0.023c0.814,0,1.477,0.664,1.477,1.479c0,0.815-0.662,1.479-1.477,1.479h-7.099
		c-0.513,0-0.964-0.264-1.23-0.662h-0.669c0.316,0.736,1.049,1.253,1.899,1.253h3.255h0.591h3.253c1.143,0,2.069-0.929,2.069-2.07
		s-0.927-2.069-2.069-2.069h-0.016c-0.149-1.329-1.279-2.366-2.646-2.366c-0.562,0-1.093,0.175-1.531,0.484v0.786
		C28.327,26.744,28.877,26.493,29.472,26.493"/>
	<rect x="31.837" y="29.45" style="clip-path:url(#SVGID_2_);fill:#FFFFFF;" width="0.592" height="0.591"/>
	<rect x="31.837" y="30.633" style="clip-path:url(#SVGID_2_);fill:#FFFFFF;" width="0.592" height="0.592"/>
	<rect x="30.653" y="30.633" style="clip-path:url(#SVGID_2_);fill:#FFFFFF;" width="0.593" height="0.592"/>
	<path style="clip-path:url(#SVGID_2_);fill:#FFFFFF;" d="M24.548,18.851c-0.177-0.106-0.363-0.201-0.561-0.284v0.647
		c0.202,0.1,0.389,0.215,0.561,0.341V18.851z"/>
	<path style="clip-path:url(#SVGID_2_);fill:#FFFFFF;" d="M27.343,23.35c-0.017,0.136-0.058,0.266-0.118,0.389h0.716V23.26
		C27.753,23.303,27.552,23.332,27.343,23.35"/>
	<path style="clip-path:url(#SVGID_2_);fill:#FFFFFF;" d="M27.298,21.858c-0.271-0.242-0.612-0.433-1.006-0.545
		c-0.011-0.082-0.027-0.164-0.045-0.244c-0.24-0.039-0.462-0.098-0.662-0.173c0.076,0.215,0.125,0.44,0.14,0.672
		c0.001,0.04,0.012,0.076,0.03,0.111c0.331,0.117,0.744,0.193,1.217,0.193C27.083,21.873,27.193,21.867,27.298,21.858"/>
	<path style="clip-path:url(#SVGID_2_);fill:#FFFFFF;" d="M26.81,27.676c-0.341,0-0.636,0.194-0.784,0.477
		c0.389-0.073,0.739-0.227,1.034-0.436C26.978,27.691,26.894,27.676,26.81,27.676"/>
	<path style="clip-path:url(#SVGID_2_);fill:#FFFFFF;" d="M25.637,19.797c-0.288-0.101-0.534-0.235-0.717-0.391v0.415
		c0,0.02,0.004,0.039,0.008,0.06c0.145,0.145,0.271,0.301,0.381,0.467c0.206,0.134,0.485,0.247,0.82,0.319
		C26.013,20.357,25.846,20.065,25.637,19.797"/>
	<path style="clip-path:url(#SVGID_2_);fill:#FFFFFF;" d="M26.972,22.245c-0.044,0-0.087-0.001-0.132-0.001
		c0.247,0.201,0.417,0.454,0.481,0.732c0.209-0.017,0.406-0.048,0.584-0.092c-0.051-0.244-0.152-0.475-0.301-0.682
		C27.403,22.23,27.192,22.245,26.972,22.245"/>
	<path style="clip-path:url(#SVGID_2_);fill:#FFFFFF;" d="M25.489,30.564h-1.912c0.032,0.215,0.111,0.415,0.227,0.59h1.685
		c1.354,0,2.451-0.909,2.451-2.026v-1.956c-0.127,0.141-0.236,0.3-0.324,0.477c-0.035,0.071-0.097,0.126-0.172,0.15
		c-0.03,0.01-0.063,0.014-0.095,0.013v1.316C27.35,29.92,26.516,30.564,25.489,30.564"/>
	<path style="clip-path:url(#SVGID_2_);fill:#FFFFFF;" d="M26.95,24.11c-0.342,0.335-0.868,0.551-1.461,0.551h-7.548
		c-1.323,0-2.4-0.84-2.4-1.87c0-1.032,1.077-1.869,2.4-1.869c0.043,0,0.086,0.002,0.129,0.007l0.077,0.006
		c0.131,0.01,0.243-0.061,0.292-0.177c0.521-1.198,1.947-2.002,3.547-2.002c0.581,0,1.135,0.105,1.629,0.294v-0.625
		c-0.505-0.167-1.055-0.259-1.629-0.259c-1.75,0-3.323,0.862-3.996,2.166c-0.017-0.001-0.032-0.001-0.049-0.001
		c-1.648,0-2.991,1.102-2.991,2.46v5.904c0,1.355,1.343,2.459,2.991,2.459h5.195c-0.082-0.185-0.135-0.383-0.157-0.59h-5.038
		c-1.323,0-2.4-0.838-2.4-1.869v-1.499c0.546,0.607,1.414,1.007,2.4,1.007h7.436c0.058-0.224,0.163-0.428,0.31-0.599
		c-0.066,0.005-0.131,0.008-0.197,0.008h-7.548c-1.323,0-2.4-0.839-2.4-1.87v-1.499c0.546,0.608,1.414,1.009,2.4,1.009h7.548
		c0.749,0,1.411-0.287,1.86-0.725v1.648c0,0.347-0.159,0.666-0.426,0.914c0.101,0.008,0.198,0.026,0.298,0.056
		c0.19-0.304,0.437-0.56,0.719-0.76V24.11H26.95z"/>
	<path style="clip-path:url(#SVGID_2_);fill:#FFFFFF;" d="M27.225,23.738c-0.068,0.135-0.159,0.26-0.274,0.372h0.99v-0.372H27.225z"
		/>
	<path style="clip-path:url(#SVGID_2_);fill:#FFFFFF;" d="M23.987,19.214v-0.647c-0.12-0.052-0.245-0.099-0.372-0.141v0.625
		C23.744,19.099,23.867,19.153,23.987,19.214"/>
	<path style="clip-path:url(#SVGID_2_);fill:#FFFFFF;" d="M27.604,22.202c-0.086-0.123-0.19-0.237-0.307-0.344
		c-0.105,0.009-0.214,0.014-0.326,0.014c-0.473,0-0.886-0.075-1.217-0.192c0.039,0.081,0.112,0.141,0.204,0.159
		c0.347,0.071,0.647,0.214,0.881,0.405c0.045,0,0.088,0.001,0.132,0.001C27.192,22.245,27.403,22.23,27.604,22.202"/>
	<path style="clip-path:url(#SVGID_2_);fill:#FFFFFF;" d="M26.129,20.667c-0.335-0.072-0.614-0.186-0.82-0.319
		c0.115,0.173,0.206,0.357,0.276,0.548c0.2,0.076,0.422,0.134,0.662,0.173C26.217,20.933,26.177,20.798,26.129,20.667"/>
	<path style="clip-path:url(#SVGID_2_);fill:#FFFFFF;" d="M24.928,19.881c-0.004-0.021-0.008-0.04-0.008-0.06v-0.415
		c0.183,0.156,0.429,0.29,0.717,0.391c-0.288-0.367-0.659-0.689-1.089-0.946v0.704C24.684,19.656,24.812,19.765,24.928,19.881"/>
	<path style="clip-path:url(#SVGID_2_);fill:#FFFFFF;" d="M27.94,23.224c0-0.115-0.013-0.229-0.035-0.34
		c-0.178,0.044-0.375,0.075-0.584,0.093c0.018,0.081,0.028,0.163,0.028,0.247c0,0.043-0.003,0.085-0.007,0.126
		c0.209-0.018,0.41-0.047,0.598-0.09V23.224z"/>
	<path style="clip-path:url(#SVGID_2_);fill:#FFFFFF;" d="M27.221,27.146c-0.099-0.029-0.196-0.048-0.297-0.056
		c-0.303,0.282-0.741,0.474-1.237,0.515c-0.146,0.171-0.252,0.375-0.31,0.599h0.112c0.185,0,0.364-0.018,0.536-0.051
		c0.148-0.282,0.443-0.477,0.784-0.477c0.084,0,0.168,0.016,0.25,0.041c0.104-0.072,0.202-0.151,0.29-0.237v0.332
		c0.032,0.001,0.064-0.003,0.095-0.013c0.075-0.024,0.137-0.079,0.173-0.15c0.087-0.177,0.196-0.336,0.323-0.477v-0.786
		C27.657,26.586,27.412,26.842,27.221,27.146"/>
	<path style="clip-path:url(#SVGID_2_);fill:#FFFFFF;" d="M23.577,30.564h-0.598c0.022,0.207,0.076,0.405,0.157,0.59h0.669
		C23.688,30.979,23.609,30.779,23.577,30.564"/>
	<path style="clip-path:url(#SVGID_2_);fill:#FFFFFF;" d="M17.018,25.545c-0.163,0-0.295,0.133-0.295,0.296v0.591
		c0,0.163,0.132,0.295,0.295,0.295s0.296-0.132,0.296-0.295v-0.591C17.313,25.678,17.181,25.545,17.018,25.545"/>
	<path style="clip-path:url(#SVGID_2_);fill:#FFFFFF;" d="M18.197,25.841c-0.163,0-0.295,0.132-0.295,0.295v0.591
		c0,0.163,0.132,0.296,0.295,0.296s0.296-0.133,0.296-0.296v-0.591C18.493,25.973,18.36,25.841,18.197,25.841"/>
	<path style="clip-path:url(#SVGID_2_);fill:#FFFFFF;" d="M19.379,25.841c-0.163,0-0.295,0.132-0.295,0.295v0.591
		c0,0.163,0.132,0.296,0.295,0.296s0.296-0.133,0.296-0.296v-0.591C19.675,25.973,19.542,25.841,19.379,25.841"/>
	<path style="clip-path:url(#SVGID_2_);fill:#FFFFFF;" d="M26.17,26.432c0-0.327-0.265-0.591-0.591-0.591s-0.591,0.264-0.591,0.591
		c0,0.325,0.265,0.591,0.591,0.591S26.17,26.757,26.17,26.432"/>
	<path style="clip-path:url(#SVGID_2_);fill:#FFFFFF;" d="M23.809,25.841c-0.328,0-0.591,0.264-0.591,0.591
		c0,0.325,0.263,0.591,0.591,0.591c0.326,0,0.589-0.266,0.589-0.591C24.397,26.104,24.135,25.841,23.809,25.841"/>
	<path style="clip-path:url(#SVGID_2_);fill:#FFFFFF;" d="M17.018,28.497c-0.163,0-0.295,0.133-0.295,0.296v0.591
		c0,0.163,0.132,0.295,0.295,0.295s0.296-0.132,0.296-0.295v-0.591C17.313,28.63,17.181,28.497,17.018,28.497"/>
	<path style="clip-path:url(#SVGID_2_);fill:#FFFFFF;" d="M18.197,28.793c-0.163,0-0.295,0.133-0.295,0.295v0.591
		c0,0.162,0.132,0.295,0.295,0.295s0.296-0.133,0.296-0.295v-0.591C18.493,28.926,18.36,28.793,18.197,28.793"/>
	<path style="clip-path:url(#SVGID_2_);fill:#FFFFFF;" d="M19.379,28.793c-0.163,0-0.295,0.133-0.295,0.295v0.591
		c0,0.162,0.132,0.295,0.295,0.295s0.296-0.133,0.296-0.295v-0.591C19.675,28.926,19.542,28.793,19.379,28.793"/>
	<path style="clip-path:url(#SVGID_2_);fill:#FFFFFF;" d="M24.988,29.384c0,0.327,0.265,0.59,0.591,0.59s0.591-0.263,0.591-0.59
		c0-0.225-0.127-0.418-0.313-0.519c-0.011,0.014-0.023,0.027-0.037,0.04c-0.081,0.061-0.187,0.077-0.281,0.042
		c-0.086-0.031-0.174-0.053-0.264-0.067C25.104,28.982,24.988,29.169,24.988,29.384"/>
	<path style="clip-path:url(#SVGID_2_);fill:#FFFFFF;" d="M25.819,28.904c0.014-0.012,0.026-0.025,0.037-0.039
		c-0.082-0.045-0.177-0.072-0.277-0.072c-0.111,0-0.215,0.033-0.305,0.087c0.09,0.015,0.178,0.036,0.264,0.067
		C25.632,28.982,25.738,28.966,25.819,28.904"/>
	<path style="clip-path:url(#SVGID_2_);fill:#FFFFFF;" d="M23.628,28.823c-0.224,0.072-0.391,0.274-0.406,0.521
		C23.329,29.148,23.467,28.974,23.628,28.823"/>
	<path style="clip-path:url(#SVGID_2_);fill:#FFFFFF;" d="M24.397,29.384c0-0.121-0.036-0.232-0.099-0.327
		c-0.329,0.191-0.58,0.507-0.685,0.881c0.06,0.021,0.125,0.036,0.195,0.036C24.134,29.974,24.397,29.711,24.397,29.384"/>
	<path style="clip-path:url(#SVGID_2_);fill:#FFFFFF;" d="M24.299,29.057c-0.105-0.159-0.286-0.264-0.49-0.264
		c-0.065,0-0.124,0.013-0.181,0.03c-0.161,0.15-0.299,0.325-0.406,0.521c-0.002,0.013-0.004,0.024-0.004,0.04
		c0,0.258,0.165,0.474,0.395,0.554C23.719,29.563,23.97,29.248,24.299,29.057"/>
	<path style="clip-path:url(#SVGID_2_);fill:#FFFFFF;" d="M9.496,36.789v-2.863h-0.47v2.863c-0.405,0.106-0.707,0.473-0.707,0.911
		c0,0.072,0.008,0.142,0.025,0.21l-2.262,1.233l0.226,0.415l2.256-1.23c0.172,0.191,0.421,0.315,0.698,0.315
		c0.521,0,0.943-0.423,0.943-0.943C10.205,37.262,9.905,36.896,9.496,36.789 M9.262,38.172c-0.26,0-0.471-0.211-0.471-0.472
		s0.211-0.472,0.471-0.472c0.26,0,0.471,0.211,0.471,0.472S9.521,38.172,9.262,38.172"/>
	<path style="clip-path:url(#SVGID_2_);fill:#FFFFFF;" d="M16.201,39.588l1.652-1.652h-3.88c0.004-0.08,0.008-0.158,0.008-0.235
		c0-2.603-2.118-4.719-4.719-4.719c-2.602,0-4.718,2.116-4.718,4.719s2.116,4.718,4.718,4.718c1.371,0,2.649-0.59,3.54-1.604v2.174
		l1.65-1.651l1.887,1.888l1.751-1.749L16.201,39.588z M12.802,40.039c-0.792,1.193-2.11,1.907-3.54,1.907
		c-2.342,0-4.248-1.904-4.248-4.246c0-2.343,1.906-4.247,4.248-4.247c2.341,0,4.247,1.904,4.247,4.247
		c0,0.076-0.009,0.155-0.013,0.235h-0.694V40.039z M14.452,40.669l-1.178,1.181v-3.442h3.441l-1.18,1.181l1.887,1.887l-1.083,1.083
		L14.452,40.669z"/>
	<rect x="14.216" y="36.049" style="clip-path:url(#SVGID_2_);fill:#FFFFFF;" width="0.473" height="0.943"/>
	
		<rect x="11.812" y="37.183" transform="matrix(0.7066 0.7076 -0.7076 0.7066 30.0824 2.2868)" style="clip-path:url(#SVGID_2_);fill:#FFFFFF;" width="0.943" height="0.472"/>
	<rect x="10.914" y="39.351" style="clip-path:url(#SVGID_2_);fill:#FFFFFF;" width="0.943" height="0.474"/>
	
		<rect x="12.047" y="41.283" transform="matrix(0.7061 0.7081 -0.7081 0.7061 33.179 3.5752)" style="clip-path:url(#SVGID_2_);fill:#FFFFFF;" width="0.472" height="0.944"/>
	<rect x="14.216" y="42.182" style="clip-path:url(#SVGID_2_);fill:#FFFFFF;" width="0.473" height="0.944"/>
	<rect x="17.048" y="39.351" style="clip-path:url(#SVGID_2_);fill:#FFFFFF;" width="0.943" height="0.474"/>
	
		<rect x="16.385" y="36.947" transform="matrix(-0.7061 -0.7081 0.7081 -0.7061 1.8592 75.6086)" style="clip-path:url(#SVGID_2_);fill:#FFFFFF;" width="0.472" height="0.943"/>
	<path style="clip-path:url(#SVGID_2_);fill:#FFFFFF;" d="M9.262,42.89c-2.862,0-5.19-2.329-5.19-5.189
		c0-2.862,2.328-5.191,5.19-5.191c2.086,0,3.962,1.241,4.778,3.161l0.434-0.186c-0.767-1.799-2.385-3.049-4.269-3.365v-0.916
		c0.288-0.26,0.473-0.635,0.473-1.053c0-0.78-0.636-1.416-1.416-1.416S7.846,29.37,7.846,30.15c0,0.418,0.185,0.793,0.473,1.053
		v0.915c-2.675,0.45-4.72,2.78-4.72,5.582c0,3.122,2.541,5.662,5.663,5.662c0.861,0,1.69-0.191,2.464-0.565l-0.206-0.424
		C10.811,42.716,10.052,42.89,9.262,42.89 M9.733,32.059c-0.156-0.012-0.314-0.021-0.471-0.021c-0.159,0-0.315,0.009-0.471,0.021
		v-0.576c0.147,0.053,0.306,0.083,0.471,0.083s0.324-0.03,0.471-0.083V32.059z M9.262,29.207c0.521,0,0.943,0.424,0.943,0.943
		c0,0.521-0.422,0.944-0.943,0.944s-0.943-0.424-0.943-0.944C8.319,29.631,8.741,29.207,9.262,29.207"/>
	<path style="clip-path:url(#SVGID_2_);fill:#FFFFFF;" d="M46.661,18.664v-0.419c-0.432-0.03-0.775-0.376-0.806-0.806h-0.419
		c-0.031,0.43-0.376,0.776-0.808,0.806v0.419c0.432,0.03,0.776,0.376,0.808,0.806h0.419C45.886,19.04,46.229,18.694,46.661,18.664
		 M45.961,18.504c-0.104,0.076-0.19,0.165-0.266,0.266l-0.05,0.067l-0.05-0.067c-0.075-0.101-0.165-0.19-0.266-0.266l-0.067-0.051
		l0.067-0.049c0.101-0.075,0.19-0.165,0.266-0.264l0.05-0.069l0.05,0.069c0.075,0.1,0.165,0.189,0.266,0.264l0.066,0.049
		L45.961,18.504z"/>
	<path style="clip-path:url(#SVGID_2_);fill:#FFFFFF;" d="M6.126,17.541v-0.56c-0.629-0.058-1.131-0.56-1.19-1.19H4.377
		c-0.059,0.63-0.56,1.132-1.189,1.19v0.56c0.629,0.059,1.13,0.561,1.189,1.191h0.559C4.996,18.102,5.498,17.6,6.126,17.541
		 M5.143,17.36c-0.146,0.108-0.276,0.237-0.386,0.385l-0.099,0.136l-0.099-0.136c-0.111-0.147-0.24-0.277-0.385-0.385l-0.136-0.101
		l0.136-0.099c0.145-0.109,0.276-0.237,0.385-0.384l0.099-0.136l0.099,0.136c0.11,0.147,0.239,0.275,0.386,0.384l0.134,0.099
		L5.143,17.36z"/>
	<path style="clip-path:url(#SVGID_2_);fill:#FFFFFF;" d="M36.919,43.923v-0.387c-0.402-0.03-0.727-0.354-0.757-0.758h-0.387
		c-0.03,0.404-0.354,0.728-0.759,0.758v0.387c0.404,0.031,0.729,0.354,0.759,0.759h0.387C36.192,44.277,36.517,43.954,36.919,43.923
		 M36.268,43.78c-0.095,0.069-0.179,0.153-0.249,0.248l-0.05,0.066l-0.05-0.066c-0.07-0.095-0.154-0.179-0.249-0.248l-0.066-0.052
		l0.066-0.049c0.095-0.069,0.179-0.154,0.249-0.249l0.05-0.067l0.05,0.067c0.07,0.096,0.154,0.18,0.249,0.249l0.066,0.049
		L36.268,43.78z"/>
</g>
</svg>
