<?xml version="1.0" encoding="iso-8859-1"?>
<!-- Generator: Adobe Illustrator 15.1.0, SVG Export Plug-In . SVG Version: 6.00 Build 0)  -->
<!DOCTYPE svg PUBLIC "-//W3C//DTD SVG 1.1//EN" "http://www.w3.org/Graphics/SVG/1.1/DTD/svg11.dtd">
<svg version="1.1" id="Layer_1" xmlns="http://www.w3.org/2000/svg" xmlns:xlink="http://www.w3.org/1999/xlink" x="0px" y="0px"
	 width="50px" height="50px" viewBox="0 0 50 50" style="enable-background:new 0 0 50 50;" xml:space="preserve">
<polygon style="fill:#FFFFFF;" points="41.583,9.818 41.786,10.062 41.989,10.305 42.476,9.897 42.069,9.411 "/>
<rect x="40.995" y="38.775" transform="matrix(-0.735 -0.678 0.678 -0.735 45.1728 95.8364)" style="fill:#FFFFFF;" width="0.634" height="0.634"/>
<rect x="41.985" y="37.622" transform="matrix(-0.78 -0.6258 0.6258 -0.78 51.5526 94.0034)" style="fill:#FFFFFF;" width="0.634" height="0.634"/>
<polygon style="fill:#FFFFFF;" points="42.521,10.986 42.707,11.243 42.892,11.499 43.405,11.127 43.034,10.614 "/>
<polygon style="fill:#FFFFFF;" points="37.103,5.863 37.364,6.041 37.627,6.221 37.983,5.697 37.462,5.339 "/>
<polygon style="fill:#FFFFFF;" points="38.323,6.734 38.571,6.931 38.82,7.127 39.212,6.63 38.716,6.237 "/>
<polygon style="fill:#FFFFFF;" points="38.663,41.14 39.065,41.629 39.31,41.427 39.31,41.426 39.556,41.225 39.152,40.736 "/>
<rect x="37.587" y="41.792" transform="matrix(-0.5831 -0.8124 0.8124 -0.5831 25.799 97.4565)" style="fill:#FFFFFF;" width="0.635" height="0.634"/>
<polygon style="fill:#FFFFFF;" points="39.479,7.688 39.711,7.9 39.946,8.113 40.374,7.645 39.905,7.218 "/>
<polygon style="fill:#FFFFFF;" points="40.026,39.946 39.798,40.164 40.233,40.623 40.464,40.405 40.464,40.404 40.694,40.187 
	40.257,39.728 "/>
<polygon style="fill:#FFFFFF;" points="40.567,8.716 40.786,8.946 41.007,9.174 41.464,8.735 41.024,8.279 "/>
<rect x="44.457" y="33.795" transform="matrix(-0.891 -0.454 0.454 -0.891 69.1788 84.8341)" style="fill:#FFFFFF;" width="0.632" height="0.635"/>
<rect x="46.095" y="29.545" transform="matrix(-0.965 -0.2621 0.2621 -0.965 83.3749 70.8441)" style="fill:#FFFFFF;" width="0.633" height="0.634"/>
<polygon style="fill:#FFFFFF;" points="46.286,19.079 46.354,19.389 46.421,19.698 47.04,19.563 46.972,19.254 46.905,18.944 "/>
<polygon style="fill:#FFFFFF;" points="46.448,28.319 46.386,28.63 47.009,28.754 47.069,28.442 47.132,28.132 46.508,28.008 "/>
<rect x="36.324" y="42.634" transform="matrix(-0.5251 -0.851 0.851 -0.5251 19.3283 96.6865)" style="fill:#FFFFFF;" width="0.632" height="0.633"/>
<rect x="45.1" y="32.417" transform="matrix(-0.9199 -0.3921 0.3921 -0.9199 74.3626 80.6528)" style="fill:#FFFFFF;" width="0.633" height="0.634"/>
<polygon style="fill:#FFFFFF;" points="46.577,20.549 46.622,20.862 46.669,21.176 47.296,21.083 47.203,20.455 "/>
<polygon style="fill:#FFFFFF;" points="44.146,13.5 44.292,13.78 44.442,14.059 45.001,13.761 44.704,13.202 "/>
<polygon style="fill:#FFFFFF;" points="44.823,14.835 44.952,15.126 45.081,15.414 45.658,15.155 45.401,14.577 "/>
<polygon style="fill:#FFFFFF;" points="46.827,25.348 46.81,25.663 47.443,25.7 47.478,25.067 46.845,25.03 "/>
<polygon style="fill:#FFFFFF;" points="46.769,22.036 46.791,22.352 46.791,22.353 46.817,22.669 47.449,22.617 47.425,22.302 
	47.399,21.987 "/>
<polygon style="fill:#FFFFFF;" points="43.378,12.216 43.544,12.482 43.714,12.752 44.249,12.416 43.913,11.878 "/>
<rect x="45.647" y="30.998" transform="matrix(-0.9444 -0.3287 0.3287 -0.9444 79.0803 75.9991)" style="fill:#FFFFFF;" width="0.633" height="0.635"/>
<polygon style="fill:#FFFFFF;" points="4.233,32.729 4.358,33.021 4.486,33.311 5.066,33.059 4.939,32.769 4.814,32.477 "/>
<rect x="4.164" y="15.333" transform="matrix(-0.9251 -0.3798 0.3798 -0.9251 2.6811 31.8273)" style="fill:#FFFFFF;" width="0.631" height="0.633"/>
<rect x="3.635" y="16.757" transform="matrix(-0.9481 -0.3179 0.3179 -0.9481 2.2685 34.5186)" style="fill:#FFFFFF;" width="0.631" height="0.634"/>
<rect x="3.201" y="18.216" transform="matrix(-0.9683 -0.2498 0.2498 -0.9683 2.2962 37.3578)" style="fill:#FFFFFF;" width="0.635" height="0.635"/>
<polygon style="fill:#FFFFFF;" points="2.907,28.307 2.972,28.617 3.034,28.928 3.655,28.8 3.528,28.179 "/>
<polygon style="fill:#FFFFFF;" points="3.69,31.286 3.796,31.585 3.902,31.885 4.497,31.672 4.288,31.075 "/>
<rect x="35.003" y="43.386" transform="matrix(-0.465 -0.8853 0.8853 -0.465 13.0525 95.2941)" style="fill:#FFFFFF;" width="0.634" height="0.635"/>
<polygon style="fill:#FFFFFF;" points="2.501,24.25 2.509,24.567 2.516,24.882 3.149,24.868 3.134,24.235 "/>
<polygon style="fill:#FFFFFF;" points="46.858,23.533 46.86,23.85 46.863,24.167 47.499,24.158 47.492,23.525 "/>
<rect x="2.647" y="21.207" transform="matrix(-0.9934 -0.1146 0.1146 -0.9934 3.4434 43.2443)" style="fill:#FFFFFF;" width="0.635" height="0.633"/>
<polygon style="fill:#FFFFFF;" points="2.511,23.341 3.145,23.369 3.159,23.054 3.172,22.737 2.54,22.707 "/>
<rect x="2.872" y="19.702" transform="matrix(-0.9831 -0.1828 0.1828 -0.9831 2.6662 40.2829)" style="fill:#FFFFFF;" width="0.636" height="0.634"/>
<polygon style="fill:#FFFFFF;" points="3.247,29.81 3.332,30.115 3.417,30.42 4.028,30.25 3.944,29.945 3.858,29.64 "/>
<polygon style="fill:#FFFFFF;" points="2.569,25.79 2.599,26.105 2.626,26.421 3.257,26.364 3.201,25.732 "/>
<polygon style="fill:#FFFFFF;" points="23.232,46.497 23.548,46.52 23.548,46.519 23.865,46.538 23.903,45.906 23.271,45.865 "/>
<polygon style="fill:#FFFFFF;" points="25.087,45.93 24.769,45.932 24.772,46.564 25.09,46.563 25.405,46.563 25.403,45.929 "/>
<rect x="27.801" y="45.708" transform="matrix(-0.1419 -0.9899 0.9899 -0.1419 -13.4512 80.3858)" style="fill:#FFFFFF;" width="0.633" height="0.631"/>
<rect x="32.222" y="44.611" transform="matrix(-0.3388 -0.9409 0.9409 -0.3388 1.2919 90.7624)" style="fill:#FFFFFF;" width="0.634" height="0.633"/>
<rect x="33.634" y="44.046" transform="matrix(-0.4041 -0.9147 0.9147 -0.4041 7.0915 93.3462)" style="fill:#FFFFFF;" width="0.633" height="0.634"/>
<rect x="26.291" y="45.871" transform="matrix(-0.0741 -0.9973 0.9973 -0.0741 -17.4815 76.1442)" style="fill:#FFFFFF;" width="0.633" height="0.632"/>
<polygon style="fill:#FFFFFF;" points="2.741,27.323 2.791,27.635 2.84,27.948 3.467,27.849 3.366,27.222 "/>
<polygon style="fill:#FFFFFF;" points="21.7,46.325 22.013,46.367 22.327,46.409 22.411,45.78 22.097,45.738 21.785,45.696 "/>
<rect x="4.791" y="13.945" transform="matrix(-0.8961 -0.4438 0.4438 -0.8961 3.353 29.3102)" style="fill:#FFFFFF;" width="0.632" height="0.635"/>
<polygon style="fill:#FFFFFF;" points="5.552,12.764 5.394,13.038 5.94,13.355 6.259,12.808 5.712,12.49 "/>
<rect x="6.319" y="11.319" transform="matrix(-0.8276 -0.5613 0.5613 -0.8276 5.5961 24.9911)" style="fill:#FFFFFF;" width="0.632" height="0.634"/>
<polygon style="fill:#FFFFFF;" points="12.963,5.06 12.697,5.23 13.037,5.765 13.304,5.595 13.571,5.425 13.231,4.89 "/>
<polygon style="fill:#FFFFFF;" points="19.743,2.195 19.882,2.813 20.19,2.744 20.5,2.675 20.36,2.056 "/>
<polygon style="fill:#FFFFFF;" points="18.56,2.514 18.257,2.604 18.437,3.211 19.044,3.031 18.864,2.424 "/>
<rect x="24.327" y="1.576" transform="matrix(-0.0185 -0.9998 0.9998 -0.0185 23.2083 26.5667)" style="fill:#FFFFFF;" width="0.633" height="0.632"/>
<rect x="22.809" y="1.652" transform="matrix(-0.0818 -0.9967 0.9967 -0.0818 23.0525 25.1791)" style="fill:#FFFFFF;" width="0.633" height="0.636"/>
<polygon style="fill:#FFFFFF;" points="17.098,3.005 16.802,3.115 17.024,3.708 17.616,3.487 17.395,2.893 "/>
<rect x="21.299" y="1.836" transform="matrix(-0.1496 -0.9887 0.9887 -0.1496 22.7217 23.8457)" style="fill:#FFFFFF;" width="0.633" height="0.632"/>
<polygon style="fill:#FFFFFF;" points="42.771,36.8 43.292,37.162 43.472,36.901 43.653,36.642 43.134,36.28 "/>
<rect x="15.486" y="3.564" transform="matrix(-0.4124 -0.911 0.911 -0.4124 18.7848 19.8802)" style="fill:#FFFFFF;" width="0.635" height="0.635"/>
<rect x="7.213" y="10.09" transform="matrix(-0.7884 -0.6152 0.6152 -0.7884 7.0651 23.2442)" style="fill:#FFFFFF;" width="0.634" height="0.634"/>
<rect x="9.244" y="7.83" transform="matrix(-0.697 -0.7171 0.7171 -0.697 10.3823 20.6804)" style="fill:#FFFFFF;" width="0.633" height="0.633"/>
<rect x="8.189" y="8.927" transform="matrix(-0.7456 -0.6664 0.6664 -0.7456 8.6893 21.8028)" style="fill:#FFFFFF;" width="0.635" height="0.631"/>
<polygon style="fill:#FFFFFF;" points="30.278,2.848 30.583,2.929 30.89,3.01 31.052,2.396 30.747,2.315 30.44,2.234 "/>
<polygon style="fill:#FFFFFF;" points="35.827,5.076 36.102,5.237 36.372,5.397 36.694,4.852 36.423,4.69 36.149,4.53 "/>
<polygon style="fill:#FFFFFF;" points="33.13,3.771 33.421,3.893 33.714,4.015 33.958,3.431 33.374,3.186 "/>
<polygon style="fill:#FFFFFF;" points="34.501,4.377 34.784,4.519 35.067,4.661 35.351,4.094 34.785,3.811 "/>
<rect x="43.72" y="35.126" transform="matrix(-0.859 -0.512 0.512 -0.859 63.7177 88.4348)" style="fill:#FFFFFF;" width="0.633" height="0.634"/>
<polygon style="fill:#FFFFFF;" points="46.649,27.153 47.277,27.232 47.319,26.919 47.317,26.919 47.357,26.605 46.729,26.525 "/>
<polygon style="fill:#FFFFFF;" points="31.72,3.259 32.019,3.362 32.318,3.463 32.522,2.863 31.923,2.66 "/>
<rect x="10.369" y="6.809" transform="matrix(-0.6466 -0.7628 0.7628 -0.6466 12.1597 19.8843)" style="fill:#FFFFFF;" width="0.634" height="0.633"/>
<polygon style="fill:#FFFFFF;" points="11.69,5.93 11.69,5.929 11.436,6.117 11.812,6.626 12.321,6.251 11.947,5.743 "/>
<rect x="14.126" y="4.243" transform="matrix(-0.4763 -0.8793 0.8793 -0.4763 17.3118 19.4306)" style="fill:#FFFFFF;" width="0.634" height="0.633"/>
<g>
	<defs>
		<rect id="SVGID_1_" width="50" height="50"/>
	</defs>
	<clipPath id="SVGID_2_">
		<use xlink:href="#SVGID_1_"  style="overflow:visible;"/>
	</clipPath>
	<path style="clip-path:url(#SVGID_2_);fill:#FFFFFF;" d="M15.299,32.572h17.631v-0.588h-1.764v-1.486h3.186
		c0.301,0.41,0.684,0.763,1.135,1.025c0.023,0.014,0.049,0.021,0.076,0.021c0.025,0,0.051-0.007,0.074-0.021
		c1.152-0.671,1.868-1.918,1.868-3.251v-1.062c0-0.083-0.067-0.149-0.149-0.149h-2.24v-2.989c0-0.003-0.002-0.006-0.002-0.009
		c-0.002-0.011-0.004-0.023-0.008-0.034c-0.002-0.005-0.002-0.01-0.004-0.014c-0.006-0.016-0.014-0.03-0.025-0.042l-1.196-1.346
		c-0.013-0.014-0.028-0.024-0.044-0.032c-0.006-0.003-0.01-0.004-0.016-0.006c-0.014-0.006-0.027-0.008-0.043-0.009
		c-0.004-0.001-0.006-0.002-0.01-0.002h-4.482c-0.412,0-0.748,0.335-0.748,0.747v0.809c-0.543-0.241-1.145-0.376-1.777-0.376h-0.32
		c0.104-0.092,0.203-0.19,0.295-0.294h0.318c0.811,0,1.469-0.659,1.469-1.468v-0.518c0.354-0.238,0.588-0.642,0.588-1.099
		c0-0.459-0.234-0.863-0.592-1.1c-0.039-2.396-1.996-4.335-4.404-4.335c-2.404,0-4.363,1.939-4.402,4.335
		c-0.356,0.237-0.592,0.641-0.592,1.1c0,0.729,0.594,1.322,1.322,1.322h0.201c0.137,0.814,0.553,1.533,1.149,2.057h-0.321
		c-2.429,0-4.408,1.977-4.408,4.407v3.819h-1.764V32.572z M29.11,30.163v0.313v1.508h-9.99v-3.819c0-0.485,0.394-0.881,0.881-0.881
		h8.228c0.11,0,0.213,0.021,0.309,0.058c0.113,0.042,0.215,0.105,0.299,0.188c0.169,0.16,0.273,0.386,0.273,0.636V30.163z
		 M24.114,26.334l-0.906-1.816c0.289,0.077,0.593,0.123,0.906,0.123c0.316,0,0.619-0.046,0.91-0.123L24.114,26.334z M25.767,24.347
		h0.52l-1.178,2.35H24.59L25.767,24.347z M23.639,26.696h-0.517l-1.176-2.35h0.517L23.639,26.696z M37.206,27.359v0.913
		c0,1.198-0.627,2.319-1.643,2.948c-0.42-0.26-0.771-0.604-1.043-1.001c-0.029-0.045-0.059-0.089-0.086-0.135
		c-0.018-0.028-0.035-0.058-0.051-0.087c-0.023-0.038-0.045-0.078-0.066-0.118c-0.018-0.035-0.037-0.069-0.053-0.104
		c-0.016-0.03-0.027-0.061-0.041-0.091c-0.039-0.088-0.076-0.178-0.107-0.27c-0.008-0.021-0.016-0.042-0.023-0.062
		c-0.016-0.048-0.029-0.096-0.043-0.144c-0.008-0.03-0.016-0.061-0.023-0.09c-0.012-0.045-0.021-0.09-0.031-0.135
		c-0.008-0.036-0.016-0.072-0.021-0.108c-0.008-0.041-0.014-0.081-0.02-0.122c-0.006-0.048-0.012-0.095-0.018-0.142
		c-0.002-0.032-0.006-0.064-0.008-0.097c-0.006-0.08-0.01-0.162-0.01-0.244v-0.913H37.206z M33.919,23.121l0.326,0.366l0.387,0.436
		h-0.713V23.121z M28.837,23.326c0-0.247,0.201-0.449,0.449-0.449h4.334v1.196c0,0.083,0.066,0.149,0.148,0.149h1.047v2.84h-1.047
		c-0.082,0-0.148,0.066-0.148,0.149v1.062c0,0.083,0.002,0.167,0.008,0.249c0.031,0.481,0.156,0.947,0.365,1.379
		c0.006,0.013,0.013,0.026,0.018,0.039c0.025,0.051,0.053,0.1,0.08,0.149c0.014,0.025,0.027,0.052,0.043,0.076
		c0.006,0.012,0.012,0.022,0.02,0.033h-2.986v-0.747h1.855v-0.299h-1.855v-0.448h1.855v-0.299h-1.855v-0.24
		c0-0.069-0.002-0.139-0.004-0.208h1.859v-0.299h-1.885c-0.018-0.151-0.043-0.301-0.076-0.447h1.961v-0.3h-2.037
		c-0.047-0.152-0.1-0.303-0.16-0.447h3.393v-0.3h-3.531c-0.08-0.154-0.168-0.305-0.264-0.447h3.795v-0.299h-4.016
		c-0.127-0.159-0.266-0.31-0.412-0.448h4.428v-0.3H29.44c-0.189-0.145-0.391-0.275-0.604-0.39V23.326z M26.937,24.354
		c0.576,0.027,1.119,0.182,1.602,0.436c0.104,0.054,0.203,0.113,0.299,0.176c0.217,0.139,0.416,0.301,0.598,0.48
		c0.088,0.086,0.172,0.176,0.25,0.271c0.119,0.141,0.229,0.29,0.326,0.447c0.061,0.098,0.115,0.197,0.166,0.3
		c0.074,0.144,0.137,0.294,0.191,0.447c0.035,0.099,0.064,0.198,0.09,0.3c0.039,0.146,0.068,0.296,0.089,0.447
		c0.013,0.1,0.022,0.198,0.028,0.299c0.002,0.069,0.006,0.139,0.006,0.208v0.24v0.299v0.448v0.299v0.747v0.3v1.486h-0.883v-1.486
		v-0.3v-0.747v-0.299v-0.448v-0.299v-0.24c0-0.07-0.006-0.14-0.016-0.208c-0.016-0.103-0.041-0.202-0.076-0.299
		c-0.135-0.368-0.414-0.667-0.77-0.828c-0.094-0.044-0.193-0.077-0.299-0.101c-0.1-0.021-0.203-0.033-0.309-0.033h-2.463
		L26.937,24.354z M27.937,21.997c0,0.445-0.334,0.81-0.765,0.868c0.204-0.354,0.347-0.746,0.418-1.163h0.198
		c0.052,0,0.1-0.009,0.148-0.015V21.997z M28.522,20.379c0,0.405-0.33,0.735-0.734,0.735h-0.146v-1.47h0.146
		C28.192,19.645,28.522,19.976,28.522,20.379 M20.589,21.114h-0.147c-0.404,0-0.734-0.33-0.734-0.735
		c0-0.404,0.33-0.735,0.734-0.735h0.147V21.114z M20.442,19.058c-0.045,0-0.088,0.009-0.133,0.014
		c0.145-1.976,1.795-3.54,3.805-3.54c2.014,0,3.662,1.564,3.808,3.54c-0.044-0.005-0.087-0.014-0.134-0.014H27.59
		c-0.282-1.665-1.729-2.938-3.476-2.938c-1.742,0-3.19,1.273-3.471,2.938H20.442z M27.054,19.638
		c-2.121-0.075-3.525-0.941-3.525-1.755c0-0.162-0.131-0.294-0.295-0.294c-0.162,0-0.293,0.132-0.293,0.294
		c0,0.734-0.76,1.343-1.746,1.45c0.156-1.473,1.406-2.625,2.92-2.625C25.733,16.708,27.05,18.021,27.054,19.638 M21.176,21.114
		v-1.192c0.918-0.079,1.698-0.522,2.086-1.142c0.614,0.815,2.051,1.388,3.792,1.447v0.887c0,0.661-0.223,1.271-0.592,1.762h-2.348
		v0.588h1.758c-0.17,0.126-0.352,0.235-0.545,0.323c-0.772,0.351-1.651,0.351-2.422,0C21.887,23.326,21.176,22.303,21.176,21.114
		 M17.651,28.165c0-2.046,1.619-3.716,3.643-3.811l1.169,2.342h-2.462c-0.809,0-1.469,0.659-1.469,1.469v3.819h-0.881V28.165z"/>
	<path style="clip-path:url(#SVGID_2_);fill:#FFFFFF;" d="M35.413,29.9c0.039,0,0.076-0.015,0.105-0.044l1.195-1.195l-0.211-0.212
		l-1.09,1.09l-0.492-0.491l-0.211,0.211l0.598,0.598C35.337,29.886,35.376,29.9,35.413,29.9"/>
	<rect x="34.218" y="27.659" style="clip-path:url(#SVGID_2_);fill:#FFFFFF;" width="0.299" height="0.299"/>
	<rect x="34.815" y="27.659" style="clip-path:url(#SVGID_2_);fill:#FFFFFF;" width="0.301" height="0.299"/>
	<rect x="35.413" y="27.659" style="clip-path:url(#SVGID_2_);fill:#FFFFFF;" width="0.299" height="0.299"/>
	<rect x="36.011" y="27.659" style="clip-path:url(#SVGID_2_);fill:#FFFFFF;" width="0.299" height="0.299"/>
	<rect x="36.608" y="27.659" style="clip-path:url(#SVGID_2_);fill:#FFFFFF;" width="0.299" height="0.299"/>
	<path style="clip-path:url(#SVGID_2_);fill:#FFFFFF;" d="M22.94,21.114c0.162,0,0.293,0.132,0.293,0.294h0.59
		c0-0.486-0.397-0.881-0.883-0.881s-0.883,0.395-0.883,0.881h0.588C22.646,21.246,22.778,21.114,22.94,21.114"/>
	<path style="clip-path:url(#SVGID_2_);fill:#FFFFFF;" d="M25.292,21.114c0.162,0,0.293,0.132,0.293,0.294h0.588
		c0-0.486-0.395-0.881-0.881-0.881c-0.486,0-0.883,0.395-0.883,0.881h0.588C24.997,21.246,25.128,21.114,25.292,21.114"/>
	<path style="clip-path:url(#SVGID_2_);fill:#FFFFFF;" d="M24.114,28.459c-0.646,0-1.174,0.527-1.174,1.176
		c0,0.647,0.528,1.176,1.174,1.176c0.65,0,1.178-0.528,1.178-1.176C25.292,28.986,24.764,28.459,24.114,28.459 M24.114,30.223
		c-0.322,0-0.586-0.264-0.586-0.588s0.264-0.588,0.586-0.588c0.324,0,0.59,0.264,0.59,0.588S24.438,30.223,24.114,30.223"/>
	<rect x="27.937" y="29.34" style="clip-path:url(#SVGID_2_);fill:#FFFFFF;" width="0.587" height="2.058"/>
	<rect x="27.937" y="28.166" style="clip-path:url(#SVGID_2_);fill:#FFFFFF;" width="0.587" height="0.587"/>
	<rect x="30.581" y="17.589" style="clip-path:url(#SVGID_2_);fill:#FFFFFF;" width="0.586" height="0.587"/>
	<rect x="30.581" y="18.764" style="clip-path:url(#SVGID_2_);fill:#FFFFFF;" width="0.586" height="0.587"/>
	<rect x="30.581" y="19.939" style="clip-path:url(#SVGID_2_);fill:#FFFFFF;" width="0.586" height="0.588"/>
	<rect x="17.063" y="21.114" style="clip-path:url(#SVGID_2_);fill:#FFFFFF;" width="0.588" height="0.587"/>
	<rect x="17.063" y="22.29" style="clip-path:url(#SVGID_2_);fill:#FFFFFF;" width="0.588" height="0.587"/>
	<rect x="17.063" y="23.465" style="clip-path:url(#SVGID_2_);fill:#FFFFFF;" width="0.588" height="0.587"/>
	<rect x="6.514" y="35.224" style="clip-path:url(#SVGID_2_);fill:#FFFFFF;" width="0.52" height="0.521"/>
	<rect x="7.554" y="35.224" style="clip-path:url(#SVGID_2_);fill:#FFFFFF;" width="0.521" height="0.521"/>
	<rect x="6.514" y="34.185" style="clip-path:url(#SVGID_2_);fill:#FFFFFF;" width="0.52" height="0.521"/>
	<rect x="7.554" y="34.185" style="clip-path:url(#SVGID_2_);fill:#FFFFFF;" width="0.521" height="0.521"/>
	<rect x="8.594" y="35.224" style="clip-path:url(#SVGID_2_);fill:#FFFFFF;" width="0.52" height="0.521"/>
	<rect x="8.594" y="34.185" style="clip-path:url(#SVGID_2_);fill:#FFFFFF;" width="0.52" height="0.521"/>
	<rect x="9.633" y="35.224" style="clip-path:url(#SVGID_2_);fill:#FFFFFF;" width="0.52" height="0.521"/>
	<rect x="9.633" y="34.185" style="clip-path:url(#SVGID_2_);fill:#FFFFFF;" width="0.52" height="0.521"/>
	<rect x="10.672" y="35.224" style="clip-path:url(#SVGID_2_);fill:#FFFFFF;" width="0.52" height="0.521"/>
	<rect x="10.672" y="34.185" style="clip-path:url(#SVGID_2_);fill:#FFFFFF;" width="0.52" height="0.521"/>
	<path style="clip-path:url(#SVGID_2_);fill:#FFFFFF;" d="M13.532,35.744h2.34c0.145,0,0.26-0.117,0.26-0.26v-1.04
		c0-0.144-0.115-0.26-0.26-0.26h-2.34c-0.142,0-0.26,0.116-0.26,0.26v1.04C13.272,35.627,13.39,35.744,13.532,35.744 M13.792,34.704
		h1.82v0.52h-1.82V34.704z"/>
	<rect x="6.514" y="38.343" style="clip-path:url(#SVGID_2_);fill:#FFFFFF;" width="0.52" height="0.521"/>
	<rect x="7.554" y="38.343" style="clip-path:url(#SVGID_2_);fill:#FFFFFF;" width="0.521" height="0.521"/>
	<rect x="6.514" y="37.303" style="clip-path:url(#SVGID_2_);fill:#FFFFFF;" width="0.52" height="0.521"/>
	<rect x="7.554" y="37.303" style="clip-path:url(#SVGID_2_);fill:#FFFFFF;" width="0.521" height="0.521"/>
	<rect x="8.594" y="38.343" style="clip-path:url(#SVGID_2_);fill:#FFFFFF;" width="0.52" height="0.521"/>
	<rect x="8.594" y="37.303" style="clip-path:url(#SVGID_2_);fill:#FFFFFF;" width="0.52" height="0.521"/>
	<rect x="9.633" y="38.343" style="clip-path:url(#SVGID_2_);fill:#FFFFFF;" width="0.52" height="0.521"/>
	<rect x="9.633" y="37.303" style="clip-path:url(#SVGID_2_);fill:#FFFFFF;" width="0.52" height="0.521"/>
	<rect x="10.672" y="37.303" style="clip-path:url(#SVGID_2_);fill:#FFFFFF;" width="0.52" height="0.521"/>
	<rect x="6.515" y="41.462" style="clip-path:url(#SVGID_2_);fill:#FFFFFF;" width="0.52" height="0.521"/>
	<rect x="7.554" y="41.462" style="clip-path:url(#SVGID_2_);fill:#FFFFFF;" width="0.521" height="0.521"/>
	<rect x="6.515" y="40.422" style="clip-path:url(#SVGID_2_);fill:#FFFFFF;" width="0.52" height="0.521"/>
	<rect x="7.554" y="40.422" style="clip-path:url(#SVGID_2_);fill:#FFFFFF;" width="0.521" height="0.521"/>
	<rect x="8.595" y="41.462" style="clip-path:url(#SVGID_2_);fill:#FFFFFF;" width="0.52" height="0.521"/>
	<rect x="8.595" y="40.422" style="clip-path:url(#SVGID_2_);fill:#FFFFFF;" width="0.52" height="0.521"/>
	<rect x="9.634" y="41.462" style="clip-path:url(#SVGID_2_);fill:#FFFFFF;" width="0.52" height="0.521"/>
	<rect x="9.634" y="40.422" style="clip-path:url(#SVGID_2_);fill:#FFFFFF;" width="0.52" height="0.521"/>
	<rect x="10.673" y="41.462" style="clip-path:url(#SVGID_2_);fill:#FFFFFF;" width="0.52" height="0.521"/>
	<path style="clip-path:url(#SVGID_2_);fill:#FFFFFF;" d="M5.473,33.924v2.079c0,0.201,0.08,0.383,0.203,0.521
		c-0.123,0.139-0.203,0.319-0.203,0.52v2.08c0,0.2,0.08,0.381,0.203,0.521c-0.123,0.138-0.203,0.318-0.203,0.519v2.079
		c0,0.431,0.352,0.781,0.782,0.781h8.73l-0.336,0.336c-0.049,0.048-0.076,0.114-0.076,0.183v0.261h-0.26
		c-0.07,0-0.135,0.026-0.183,0.075l-2.862,2.86c-0.101,0.101-0.101,0.266,0,0.367l1.821,1.819C13.139,48.975,13.206,49,13.272,49
		c0.067,0,0.133-0.025,0.184-0.076l2.859-2.858c0.051-0.049,0.076-0.115,0.076-0.185v-0.26h0.262c0.068,0,0.135-0.027,0.184-0.076
		l0.595-0.596l2.514,2.514c0.15,0.151,0.359,0.237,0.574,0.237c0.447,0,0.811-0.363,0.811-0.811c0-0.218-0.084-0.421-0.237-0.573
		l-3.035-3.035l1.821-1.819h0.412c0.105,0,0.201-0.064,0.24-0.163l0.521-1.3c0.037-0.096,0.016-0.207-0.058-0.28l-0.52-0.52
		c-0.074-0.074-0.183-0.096-0.281-0.058l-1.299,0.52c-0.099,0.04-0.164,0.135-0.164,0.242v0.412l-1.558,1.559v-1.712
		c0-0.2-0.079-0.381-0.204-0.519c0.125-0.14,0.204-0.32,0.204-0.521v-2.08c0-0.2-0.079-0.381-0.204-0.52
		c0.125-0.138,0.204-0.319,0.204-0.521v-2.079c0-0.43-0.35-0.779-0.782-0.779H6.255C5.825,33.145,5.473,33.494,5.473,33.924
		 M5.995,37.043c0-0.143,0.115-0.26,0.26-0.26h10.136c0.145,0,0.262,0.117,0.262,0.26v2.08c0,0.144-0.117,0.259-0.262,0.259h-1.039
		v-0.778c0-0.069-0.027-0.135-0.076-0.185l-1.039-1.039c-0.049-0.05-0.115-0.076-0.184-0.076h-1.56c-0.106,0-0.199,0.063-0.24,0.16
		c-0.041,0.098-0.018,0.209,0.056,0.283l1.223,1.224v0.933H12.6l-1.222-1.224c-0.077-0.074-0.188-0.097-0.286-0.057
		c-0.095,0.04-0.16,0.135-0.16,0.24v0.519H6.255c-0.145,0-0.26-0.115-0.26-0.259V37.043z M16.653,40.162v1.712l-1.301-1.299v-0.672
		h1.039C16.536,39.903,16.653,40.02,16.653,40.162 M6.255,42.502c-0.145,0-0.26-0.116-0.26-0.261v-2.079
		c0-0.143,0.115-0.259,0.26-0.259h4.677v0.519c0,0.069,0.028,0.136,0.076,0.185l1.041,1.04c0.049,0.049,0.116,0.076,0.184,0.076
		h1.971l0.781,0.779H6.255z M16.546,45.102h-0.414c-0.143,0-0.26,0.116-0.26,0.26v0.412l-2.6,2.599l-1.451-1.452l2.6-2.599h0.412
		c0.144,0,0.259-0.116,0.259-0.26v-0.412l0.52-0.52l1.453,1.451L16.546,45.102z M19.176,40.606c0.049-0.049,0.077-0.115,0.077-0.185
		v-0.344l0.976-0.39l0.278,0.276l-0.391,0.978h-0.346c-0.068,0-0.135,0.027-0.183,0.076l-1.895,1.896l-0.412-0.412L19.176,40.606z
		 M20.725,46.684c0.057,0.054,0.086,0.128,0.086,0.206c0,0.159-0.131,0.291-0.291,0.291c-0.076,0-0.152-0.031-0.207-0.085
		l-5.816-5.817c-0.049-0.049-0.115-0.076-0.184-0.076h-1.972l-0.889-0.887v-0.412h0.414l0.443,0.443
		c0.049,0.049,0.115,0.075,0.184,0.075h1.299c0.144,0,0.261-0.115,0.261-0.26v-1.299c0-0.069-0.027-0.135-0.076-0.184l-0.857-0.856
		h0.824l0.889,0.888v1.972c0,0.068,0.027,0.136,0.076,0.184L20.725,46.684z M16.653,33.924v2.079c0,0.145-0.117,0.261-0.262,0.261
		H6.255c-0.145,0-0.26-0.116-0.26-0.261v-2.079c0-0.143,0.115-0.26,0.26-0.26h10.136C16.536,33.664,16.653,33.781,16.653,33.924"/>
	
		<rect x="13.663" y="45.873" transform="matrix(-0.7071 -0.7071 0.7071 -0.7071 -9.3191 89.7239)" style="clip-path:url(#SVGID_2_);fill:#FFFFFF;" width="0.519" height="1.838"/>
	
		<rect x="14.833" y="45.254" transform="matrix(-0.7071 -0.7071 0.7071 -0.7071 -6.4936 88.5525)" style="clip-path:url(#SVGID_2_);fill:#FFFFFF;" width="0.519" height="0.735"/>
	<path style="clip-path:url(#SVGID_2_);fill:#FFFFFF;" d="M46.466,15.996h-0.428c-0.031,0.438-0.383,0.79-0.819,0.821v0.426
		c0.437,0.031,0.788,0.382,0.819,0.82h0.428c0.031-0.438,0.381-0.789,0.82-0.82v-0.426C46.847,16.786,46.497,16.434,46.466,15.996
		 M46.573,17.08c-0.104,0.077-0.195,0.167-0.271,0.27l-0.051,0.068L46.2,17.35c-0.074-0.102-0.166-0.193-0.27-0.27l-0.068-0.051
		l0.068-0.051c0.104-0.076,0.193-0.167,0.27-0.269l0.051-0.068l0.051,0.068c0.078,0.103,0.167,0.193,0.271,0.269l0.068,0.051
		L46.573,17.08z"/>
	<path style="clip-path:url(#SVGID_2_);fill:#FFFFFF;" d="M28.054,3.991c0.061-0.64,0.57-1.15,1.211-1.211V2.211
		C28.624,2.15,28.114,1.64,28.054,1h-0.57c-0.059,0.64-0.57,1.15-1.209,1.211V2.78c0.639,0.061,1.15,0.571,1.209,1.211H28.054z
		 M27.138,2.496l0.139-0.102c0.148-0.111,0.279-0.243,0.391-0.392l0.102-0.137l0.102,0.137c0.111,0.149,0.244,0.282,0.393,0.392
		l0.137,0.102l-0.137,0.102c-0.148,0.109-0.281,0.241-0.393,0.391l-0.102,0.137l-0.102-0.137c-0.111-0.15-0.242-0.281-0.391-0.391
		L27.138,2.496z"/>
	<path style="clip-path:url(#SVGID_2_);fill:#FFFFFF;" d="M30.163,44.645c-0.031,0.411-0.359,0.741-0.771,0.772v0.393
		c0.412,0.031,0.74,0.36,0.771,0.771h0.393c0.03-0.411,0.359-0.74,0.771-0.771v-0.393c-0.412-0.031-0.741-0.361-0.771-0.772H30.163z
		 M30.731,45.613l-0.068,0.051c-0.096,0.07-0.18,0.155-0.252,0.252l-0.051,0.068l-0.051-0.068c-0.072-0.096-0.156-0.181-0.254-0.252
		l-0.068-0.051l0.068-0.052c0.098-0.071,0.182-0.155,0.254-0.252l0.051-0.068l0.051,0.068c0.072,0.097,0.156,0.182,0.252,0.252
		L30.731,45.613z"/>
</g>
</svg>
