<?xml version="1.0" encoding="iso-8859-1"?>
<!-- Generator: Adobe Illustrator 15.1.0, SVG Export Plug-In . SVG Version: 6.00 Build 0)  -->
<!DOCTYPE svg PUBLIC "-//W3C//DTD SVG 1.1//EN" "http://www.w3.org/Graphics/SVG/1.1/DTD/svg11.dtd">
<svg version="1.1" id="Layer_1" xmlns="http://www.w3.org/2000/svg" xmlns:xlink="http://www.w3.org/1999/xlink" x="0px" y="0px"
	 width="50px" height="50px" viewBox="0 0 50 50" style="enable-background:new 0 0 50 50;" xml:space="preserve">
<path style="fill:#FFFFFF;" d="M24.987,46.423l0.611-0.004l0.002,0.609l-0.611,0.004L24.987,46.423z M23.812,46.987l-0.304-0.02
	l0.038-0.608l0.61,0.039l-0.039,0.608L23.812,46.987z M26.431,46.387l0.608-0.045l0.045,0.609l-0.608,0.043L26.431,46.387z
	 M22.334,46.842L22.334,46.842l-0.302-0.041l0.081-0.604l0.604,0.081l-0.081,0.604L22.334,46.842z M27.867,46.253l0.604-0.086
	l0.088,0.604l-0.304,0.044l-0.301,0.043L27.867,46.253z M20.87,46.593l-0.3-0.062l0.122-0.598l0.599,0.123l-0.123,0.599
	L20.87,46.593z M19.423,46.244L19.423,46.244l-0.292-0.08l0.163-0.589l0.294,0.081l0.294,0.081l-0.165,0.589L19.423,46.244z
	 M18.007,45.798l-0.287-0.104l0.202-0.574l0.577,0.204l-0.204,0.575L18.007,45.798z M32.077,45.272l0.575-0.205l0.206,0.573
	l-0.573,0.207L32.077,45.272z M16.625,45.254l-0.28-0.121l0.241-0.561l0.562,0.243l-0.244,0.561L16.625,45.254z M33.425,44.758
	l0.558-0.245l0.248,0.558l-0.28,0.123l-0.279,0.123L33.425,44.758z M15.285,44.617l-0.272-0.14l0.281-0.542l0.541,0.28l-0.28,0.54
	L15.285,44.617z M34.734,44.151l0.539-0.284l0.284,0.54L35.02,44.69L34.734,44.151z M13.989,43.891l-0.262-0.158l0.317-0.521
	l0.522,0.316L14.25,44.05L13.989,43.891z M35.996,43.456l0.519-0.321l0.321,0.521l-0.521,0.32L35.996,43.456z M12.748,43.078
	l-0.25-0.176l0.351-0.499l0.499,0.352l-0.351,0.498L12.748,43.078z M37.209,42.676l0.494-0.356l0.357,0.497l-0.25,0.177
	l-0.247,0.177L37.209,42.676z M38.363,41.813l0.473-0.388l0.388,0.47l-0.471,0.388L38.363,41.813z M39.457,40.872l0.442-0.42
	l0.42,0.442l-0.442,0.42L39.457,40.872z M40.484,39.859l0.208-0.224l0.206-0.226l0.448,0.414l-0.206,0.225l-0.206,0.224
	L40.484,39.859z M41.441,38.779l0.381-0.476l0.477,0.381l-0.381,0.476L41.441,38.779z M42.322,37.637l0.348-0.502l0.5,0.348
	l-0.348,0.502L42.322,37.637z M6.705,36.62l-0.158-0.262l0.522-0.315l0.317,0.521l-0.523,0.317L6.705,36.62z M43.122,36.434
	l0.313-0.522l0.524,0.313l-0.314,0.523L43.122,36.434z M5.979,35.328l-0.141-0.272l0.544-0.279l0.278,0.542l-0.541,0.28
	L5.979,35.328z M43.839,35.183l0.278-0.544l0.541,0.276l-0.136,0.272l-0.141,0.271L43.839,35.183z M5.341,33.986l-0.12-0.279
	l0.56-0.243l0.242,0.561l-0.56,0.242L5.341,33.986z M44.469,33.884l0.238-0.562l0.563,0.239l-0.24,0.562L44.469,33.884z
	 M4.799,32.604l-0.099-0.287l0.573-0.203l0.204,0.576l-0.575,0.201L4.799,32.604z M45.008,32.545l0.199-0.577l0.577,0.2
	l-0.199,0.576L45.008,32.545z M4.355,31.188l-0.082-0.294l0.588-0.164l0.163,0.59l-0.588,0.162L4.355,31.188z M45.453,31.172
	l0.08-0.295l0.081-0.295l0.588,0.161l-0.158,0.588L45.453,31.172z M4.007,29.748l-0.062-0.301l0.598-0.123l0.061,0.299l0.062,0.3
	l-0.598,0.122L4.007,29.748z M45.804,29.771l0.06-0.3l0.06-0.299l0.599,0.119l-0.06,0.298v0.002l-0.059,0.299L45.804,29.771z
	 M3.835,28.81L3.835,28.81l-0.048-0.303l0.602-0.096l0.097,0.604L3.883,29.11L3.835,28.81z M46.057,28.35l0.077-0.606l0.606,0.077
	l-0.04,0.303l-0.037,0.303L46.057,28.35z M3.649,27.336L3.649,27.336l-0.027-0.304l0.608-0.056l0.055,0.607l-0.608,0.057
	L3.649,27.336z M46.211,26.916l0.036-0.61l0.607,0.035l-0.035,0.609L46.211,26.916z M3.564,25.854L3.558,25.55l0.61-0.015
	l0.007,0.305H4.172l0.009,0.304L3.57,26.158L3.564,25.854z M46.263,25.169L46.263,25.169l-0.003-0.305l0.609-0.006l0.005,0.608
	l-0.609,0.008L46.263,25.169z M3.566,24.675l0.027-0.609l0.61,0.027l-0.015,0.305l-0.013,0.305L3.566,24.675z M46.196,23.727
	L46.196,23.727l-0.024-0.305l0.607-0.047l0.049,0.608l-0.608,0.049L46.196,23.727z M3.664,23.193l0.07-0.607l0.606,0.07l-0.07,0.606
	L3.664,23.193z M46.033,22.292l-0.046-0.301l0.604-0.091l0.09,0.604l-0.603,0.091L46.033,22.292z M3.864,21.721l0.109-0.599
	l0.601,0.112l-0.112,0.597L3.864,21.721z M4.166,20.265l0.076-0.296l0.076-0.295l0.591,0.153l-0.154,0.59L4.166,20.265z
	 M4.565,18.834l0.191-0.579l0.581,0.193l-0.195,0.579L4.565,18.834z M44.967,18.105l-0.104-0.287l0.574-0.21l0.106,0.286v0.001
	l0.104,0.286l-0.572,0.209L44.967,18.105z M5.063,17.437l0.233-0.566l0.563,0.233l-0.116,0.282l-0.115,0.281L5.063,17.437z
	 M44.425,16.769l-0.123-0.278l0.556-0.249l0.249,0.557l-0.558,0.249L44.425,16.769z M5.655,16.073l0.27-0.547l0.547,0.271
	l-0.27,0.547L5.655,16.073z M43.791,15.472l-0.144-0.268l0.539-0.286l0.144,0.268l0.144,0.27l-0.538,0.287L43.791,15.472z
	 M6.34,14.754l0.306-0.527l0.529,0.309l-0.308,0.526L6.34,14.754z M43.069,14.226l-0.161-0.259l0.517-0.323l0.324,0.517
	l-0.518,0.324L43.069,14.226z M7.113,13.488l0.343-0.505l0.503,0.344l-0.17,0.252L7.62,13.83L7.113,13.488z M42.265,13.031
	l-0.179-0.247l0.494-0.359l0.357,0.494l-0.493,0.36L42.265,13.031z M7.968,12.276l0.376-0.482l0.481,0.376l-0.374,0.481
	L7.968,12.276z M41.377,11.893L41.377,11.893l-0.193-0.234l0.466-0.391l0.197,0.234l0.196,0.234l-0.471,0.391L41.377,11.893z
	 M8.909,11.123l0.202-0.226v0.002l0.204-0.228l0.454,0.407l-0.407,0.456L8.909,11.123z M40.416,10.818l-0.212-0.22l0.439-0.422
	l0.212,0.22h0.002l0.211,0.22l-0.44,0.422L40.416,10.818z M9.92,10.041l0.438-0.426l0.427,0.438l-0.221,0.213l-0.219,0.212
	L9.92,10.041z M39.384,9.813l-0.227-0.205l0.409-0.452l0.452,0.411l-0.409,0.451L39.384,9.813z M11.005,9.029l0.466-0.394
	l0.395,0.466L11.4,9.494L11.005,9.029z M38.282,8.879L38.282,8.879L38.044,8.69l0.378-0.479l0.239,0.19l0.24,0.189l-0.381,0.478
	L38.282,8.879z M12.159,8.092l0.246-0.179l0.245-0.182l0.361,0.492l-0.492,0.361L12.159,8.092z M37.122,8.022L37.122,8.022
	L36.869,7.85l0.345-0.503l0.253,0.174l0.251,0.171l-0.345,0.503L37.122,8.022z M13.373,7.238l0.514-0.327l0.326,0.516L13.7,7.753
	L13.373,7.238z M35.905,7.248L35.905,7.248l-0.264-0.156l0.31-0.524l0.525,0.308l-0.309,0.526L35.905,7.248z M14.64,6.472
	l0.536-0.291l0.291,0.534L15.2,6.861v0.002l-0.269,0.145L14.64,6.472z M34.638,6.556l-0.272-0.137l0.272-0.545l0.545,0.274
	L34.91,6.692L34.638,6.556z M15.96,5.79l0.555-0.251l0.253,0.555l-0.556,0.251L15.96,5.79z M33.325,5.954l-0.281-0.117l0.236-0.564
	l0.563,0.237l-0.236,0.562L33.325,5.954z M17.325,5.204l0.285-0.108l0.287-0.106l0.213,0.572l-0.572,0.214L17.325,5.204z
	 M31.977,5.442l-0.289-0.099l0.195-0.577l0.289,0.099l0.289,0.097l-0.197,0.578L31.977,5.442z M18.725,4.71l0.292-0.087l0.292-0.085
	l0.176,0.584l-0.586,0.174L18.725,4.71z M30.594,5.024L30.594,5.024L30.3,4.947l0.156-0.59l0.295,0.08V4.435l0.293,0.078
	l-0.154,0.59L30.594,5.024z M20.155,4.317l0.596-0.133l0.133,0.594l-0.594,0.135L20.155,4.317z M21.611,4.021l0.602-0.094
	l0.093,0.604l-0.602,0.092L21.611,4.021z M23.083,3.826l0.608-0.054l0.052,0.608l-0.61,0.053L23.083,3.826z M24.564,3.727
	l0.609-0.011l0.011,0.611l-0.609,0.01L24.564,3.727z"/>
<rect x="28.479" y="18.409" style="fill:#FFFFFF;" width="0.624" height="0.626"/>
<rect x="28.479" y="19.658" style="fill:#FFFFFF;" width="0.624" height="0.625"/>
<rect x="27.229" y="19.658" style="fill:#FFFFFF;" width="0.624" height="0.625"/>
<g>
	<defs>
		<rect id="SVGID_1_" width="50" height="50"/>
	</defs>
	<clipPath id="SVGID_2_">
		<use xlink:href="#SVGID_1_"  style="overflow:visible;"/>
	</clipPath>
	<path style="clip-path:url(#SVGID_2_);fill:#FFFFFF;" d="M24.106,32.774c-0.408,0-0.755-0.261-0.884-0.625h5.534
		c0-0.212,0.017-0.419,0.049-0.624h-4.388v-5.309c0-0.173,0.142-0.313,0.313-0.313h7.496c0.172,0,0.313,0.14,0.313,0.313v1.791
		c0.131-0.013,0.264-0.019,0.397-0.019c0.077,0,0.152,0.001,0.228,0.005v-1.777c0-0.516-0.421-0.937-0.938-0.937h-3.123v-1.562
		c0-0.516-0.42-0.936-0.937-0.936h-2.188c-0.172,0-0.312-0.141-0.312-0.313v-0.936h3.123c1.205,0,2.186-0.981,2.186-2.187
		c0-1.205-0.98-2.185-2.186-2.185h-0.017c-0.155-1.404-1.35-2.499-2.795-2.499c-0.977,0-1.865,0.497-2.376,1.313
		c-0.142-0.043-0.287-0.064-0.433-0.064c-0.764,0-1.401,0.552-1.536,1.276c-0.111-0.017-0.225-0.026-0.339-0.026
		c-1.205,0-2.186,0.98-2.186,2.185c0,1.206,0.981,2.187,2.186,2.187h2.188v2.498c0,0.172-0.142,0.312-0.313,0.312H21.92
		c0-0.517-0.422-0.937-0.938-0.937H16.61c-0.517,0-0.937,0.42-0.937,0.937v8.12c0,0.516,0.42,0.937,0.937,0.937h4.372
		c0.516,0,0.938-0.421,0.938-0.937v-7.495h1.249c0.517,0,0.937-0.421,0.937-0.937v-2.498h0.937v0.936
		c0,0.517,0.42,0.937,0.936,0.937h2.188c0.173,0,0.313,0.14,0.313,0.312v1.562H24.73c-0.517,0-0.937,0.421-0.937,0.937v5.309h-0.937
		c-0.172,0-0.312,0.14-0.312,0.313c0,0.861,0.701,1.562,1.562,1.562h4.821c-0.069-0.205-0.112-0.41-0.138-0.625H24.106z
		 M21.294,32.463c0,0.172-0.14,0.312-0.312,0.312H16.61c-0.173,0-0.313-0.14-0.313-0.312v-0.625h4.997V32.463z M21.294,31.214
		h-4.997v-5.621h4.997V31.214z M21.294,24.968h-4.997v-0.625c0-0.172,0.14-0.312,0.313-0.312h4.372c0.172,0,0.312,0.14,0.312,0.312
		V24.968z M21.294,20.908c-0.86,0-1.562-0.701-1.562-1.562c0-0.86,0.702-1.561,1.562-1.561c0.18,0,0.356,0.032,0.53,0.094
		c0.101,0.037,0.214,0.019,0.298-0.047c0.084-0.065,0.129-0.169,0.12-0.275l-0.007-0.052c-0.002-0.012-0.004-0.022-0.004-0.033
		c0-0.515,0.42-0.936,0.938-0.936c0.144,0,0.287,0.037,0.427,0.11c0.076,0.038,0.162,0.046,0.242,0.02
		c0.079-0.027,0.145-0.084,0.184-0.158c0.371-0.754,1.122-1.222,1.957-1.222c1.207,0,2.188,0.982,2.188,2.179
		c-0.001,0.007-0.001,0.029-0.001,0.037c0,0.091,0.039,0.177,0.109,0.237c0.071,0.061,0.164,0.085,0.254,0.07
		c0.096-0.016,0.182-0.024,0.262-0.024c0.861,0,1.563,0.701,1.563,1.561c0,0.861-0.701,1.562-1.563,1.562H21.294z"/>
	<path style="clip-path:url(#SVGID_2_);fill:#FFFFFF;" d="M17.234,28.09h3.124c0.172,0,0.312-0.14,0.312-0.313v-1.248
		c0-0.173-0.14-0.313-0.312-0.313h-3.124c-0.172,0-0.311,0.14-0.311,0.313v1.248C16.923,27.95,17.062,28.09,17.234,28.09
		 M17.547,26.842h2.499v0.624h-2.499V26.842z"/>
	<path style="clip-path:url(#SVGID_2_);fill:#FFFFFF;" d="M28.479,26.529h-3.123c-0.173,0-0.313,0.139-0.313,0.313v3.747
		c0,0.172,0.14,0.312,0.313,0.312h3.123c0.172,0,0.312-0.14,0.312-0.312v-3.747C28.79,26.668,28.65,26.529,28.479,26.529
		 M28.166,30.275h-2.499v-3.122h2.499V30.275z"/>
	<rect x="16.923" y="28.715" style="clip-path:url(#SVGID_2_);fill:#FFFFFF;" width="3.747" height="0.625"/>
	<rect x="29.414" y="26.529" style="clip-path:url(#SVGID_2_);fill:#FFFFFF;" width="2.5" height="0.624"/>
	<path style="clip-path:url(#SVGID_2_);fill:#FFFFFF;" d="M31.914,27.777h-2.5v0.626h1.709c0.251-0.122,0.515-0.218,0.791-0.288
		V27.777z"/>
	<path style="clip-path:url(#SVGID_2_);fill:#FFFFFF;" d="M30.182,29.027h-0.768v0.625h0.187
		C29.772,29.423,29.969,29.214,30.182,29.027"/>
	<rect x="16.923" y="29.965" style="clip-path:url(#SVGID_2_);fill:#FFFFFF;" width="3.747" height="0.624"/>
	<path style="clip-path:url(#SVGID_2_);fill:#FFFFFF;" d="M33.163,27.994v0.646c1.846,0.117,3.311,1.655,3.311,3.529
		c0,1.27-0.382,1.774-2.503,4.571c-0.311,0.408-0.653,0.86-1.035,1.368c-0.386-0.512-0.729-0.966-1.04-1.375
		c-1.347-1.775-1.99-2.623-2.28-3.334h-0.688c0.279,0.854,0.961,1.751,2.456,3.723c0.379,0.498,0.806,1.063,1.297,1.715
		c0.059,0.081,0.155,0.129,0.256,0.129c0.103,0,0.197-0.048,0.257-0.129c0.487-0.649,0.914-1.212,1.289-1.707
		c2.182-2.876,2.636-3.476,2.636-4.961C37.117,29.94,35.363,28.113,33.163,27.994"/>
	<path style="clip-path:url(#SVGID_2_);fill:#FFFFFF;" d="M29.398,32.149h-0.643c0,0.007-0.001,0.014-0.001,0.02
		c0,0.217,0.011,0.416,0.034,0.605h0.65c-0.028-0.189-0.041-0.386-0.041-0.605V32.149z"/>
	<path style="clip-path:url(#SVGID_2_);fill:#FFFFFF;" d="M31.914,28.403h-0.791c-0.343,0.165-0.658,0.376-0.941,0.624h1.133
		c0.373-0.194,0.787-0.323,1.224-0.372v-0.648c-0.214,0.021-0.422,0.058-0.624,0.108V28.403z"/>
	<path style="clip-path:url(#SVGID_2_);fill:#FFFFFF;" d="M29.635,30.9h-0.221v-0.625h0.534c0.146-0.226,0.314-0.436,0.506-0.623
		h-0.854c-0.407,0.538-0.688,1.178-0.796,1.873h0.652C29.499,31.311,29.558,31.102,29.635,30.9"/>
	<path style="clip-path:url(#SVGID_2_);fill:#FFFFFF;" d="M32.538,28.008v0.647c0.131-0.016,0.264-0.023,0.397-0.023
		c0.077,0,0.152,0.004,0.228,0.008v-0.646c-0.075-0.004-0.15-0.005-0.228-0.005C32.802,27.989,32.669,27.995,32.538,28.008"/>
	<path style="clip-path:url(#SVGID_2_);fill:#FFFFFF;" d="M29.457,31.525h-0.652c-0.032,0.205-0.049,0.412-0.049,0.624h0.643
		C29.4,31.937,29.42,31.729,29.457,31.525"/>
	<path style="clip-path:url(#SVGID_2_);fill:#FFFFFF;" d="M29.439,32.774h-0.65c0.026,0.215,0.069,0.42,0.138,0.625h0.688
		C29.527,33.186,29.472,32.984,29.439,32.774"/>
	<path style="clip-path:url(#SVGID_2_);fill:#FFFFFF;" d="M31.914,28.115c-0.276,0.07-0.54,0.166-0.791,0.288h0.791V28.115z"/>
	<path style="clip-path:url(#SVGID_2_);fill:#FFFFFF;" d="M30.182,29.027c-0.213,0.187-0.409,0.396-0.581,0.625h0.853
		c0.254-0.25,0.542-0.46,0.861-0.625H30.182z"/>
	<path style="clip-path:url(#SVGID_2_);fill:#FFFFFF;" d="M29.414,30.275V30.9h0.221c0.084-0.22,0.19-0.428,0.313-0.625H29.414z"/>
	<path style="clip-path:url(#SVGID_2_);fill:#FFFFFF;" d="M31.327,32.169c0-0.006,0.002-0.013,0.002-0.021h-0.644v0.021
		c0,0.21,0.03,0.413,0.084,0.604h0.678C31.37,32.588,31.327,32.384,31.327,32.169"/>
	<path style="clip-path:url(#SVGID_2_);fill:#FFFFFF;" d="M31.914,30.275V30.9h-0.836c-0.131,0.19-0.231,0.4-0.298,0.625h0.684
		c0.197-0.448,0.592-0.789,1.074-0.912v-0.657c-0.296,0.054-0.572,0.164-0.816,0.319H31.914z"/>
	<path style="clip-path:url(#SVGID_2_);fill:#FFFFFF;" d="M34.544,32.169c0,0.887-0.721,1.608-1.608,1.608
		c-0.393,0-0.753-0.143-1.032-0.379h-0.851c0.402,0.616,1.095,1.021,1.883,1.021c1.241,0,2.252-1.009,2.252-2.251
		c0-1.164-0.889-2.124-2.024-2.238v0.648C33.94,30.689,34.544,31.36,34.544,32.169"/>
	<path style="clip-path:url(#SVGID_2_);fill:#FFFFFF;" d="M32.936,30.561c0.077,0,0.152,0.009,0.228,0.019v-0.648
		c-0.075-0.008-0.15-0.012-0.228-0.012c-0.136,0-0.27,0.015-0.397,0.037v0.657C32.664,30.581,32.798,30.561,32.936,30.561"/>
	<path style="clip-path:url(#SVGID_2_);fill:#FFFFFF;" d="M31.447,32.774H30.77c0.063,0.224,0.158,0.435,0.283,0.625h0.851
		C31.704,33.232,31.546,33.019,31.447,32.774"/>
	<path style="clip-path:url(#SVGID_2_);fill:#FFFFFF;" d="M31.464,31.525H30.78c-0.061,0.198-0.093,0.407-0.095,0.624h0.644
		C31.331,31.928,31.38,31.718,31.464,31.525"/>
	<path style="clip-path:url(#SVGID_2_);fill:#FFFFFF;" d="M31.078,30.9h0.836v-0.625h-0.192
		C31.468,30.439,31.249,30.651,31.078,30.9"/>
	<path style="clip-path:url(#SVGID_2_);fill:#FFFFFF;" d="M3.538,37.165C3.357,37.366,3,37.873,3,38.162v3.01
		c0,0.623,0.508,1.13,1.13,1.13h13.546c0.622,0,1.128-0.507,1.128-1.13v-3.01c0-0.289-0.48-0.796-0.658-0.997 M18.052,41.172
		c0,0.208-0.168,0.377-0.376,0.377H4.13c-0.208,0-0.379-0.169-0.379-0.377v-3.01c0-0.207,0.171-0.376,0.379-0.376h13.546
		c0.208,0,0.376,0.169,0.376,0.376V41.172z"/>
	<rect x="4.504" y="40.044" style="clip-path:url(#SVGID_2_);fill:#FFFFFF;" width="0.754" height="0.752"/>
	<rect x="6.011" y="40.044" style="clip-path:url(#SVGID_2_);fill:#FFFFFF;" width="0.753" height="0.752"/>
	<rect x="4.504" y="38.539" style="clip-path:url(#SVGID_2_);fill:#FFFFFF;" width="0.754" height="0.752"/>
	<rect x="6.011" y="38.539" style="clip-path:url(#SVGID_2_);fill:#FFFFFF;" width="0.753" height="0.752"/>
	<rect x="7.515" y="40.044" style="clip-path:url(#SVGID_2_);fill:#FFFFFF;" width="0.753" height="0.752"/>
	<rect x="7.515" y="38.539" style="clip-path:url(#SVGID_2_);fill:#FFFFFF;" width="0.753" height="0.752"/>
	<rect x="9.021" y="40.044" style="clip-path:url(#SVGID_2_);fill:#FFFFFF;" width="0.753" height="0.752"/>
	<rect x="9.021" y="38.539" style="clip-path:url(#SVGID_2_);fill:#FFFFFF;" width="0.753" height="0.752"/>
	<rect x="10.525" y="40.044" style="clip-path:url(#SVGID_2_);fill:#FFFFFF;" width="0.753" height="0.752"/>
	<rect x="10.525" y="38.539" style="clip-path:url(#SVGID_2_);fill:#FFFFFF;" width="0.753" height="0.752"/>
	<path style="clip-path:url(#SVGID_2_);fill:#FFFFFF;" d="M16.923,38.539h-3.388c-0.208,0-0.376,0.167-0.376,0.375v1.506
		c0,0.208,0.168,0.376,0.376,0.376h3.388c0.208,0,0.376-0.168,0.376-0.376v-1.506C17.299,38.706,17.131,38.539,16.923,38.539
		 M16.546,40.044h-2.634v-0.753h2.634V40.044z"/>
	<path style="clip-path:url(#SVGID_2_);fill:#FFFFFF;" d="M47.001,18.728v-0.411c-0.424-0.029-0.761-0.368-0.791-0.79h-0.411
		c-0.03,0.422-0.368,0.761-0.789,0.79v0.411c0.421,0.03,0.759,0.367,0.789,0.789h0.411C46.24,19.094,46.577,18.757,47.001,18.728
		 M46.313,18.57c-0.101,0.074-0.187,0.161-0.26,0.26l-0.049,0.066l-0.05-0.066c-0.072-0.099-0.16-0.186-0.261-0.26l-0.064-0.049
		l0.064-0.049c0.101-0.073,0.187-0.161,0.261-0.259l0.05-0.066l0.049,0.066c0.073,0.099,0.161,0.186,0.26,0.259l0.064,0.049
		L46.313,18.57z"/>
	<path style="clip-path:url(#SVGID_2_);fill:#FFFFFF;" d="M29.405,4.683v-0.55c-0.615-0.057-1.108-0.548-1.165-1.165h-0.549
		c-0.058,0.617-0.551,1.108-1.166,1.165v0.55c0.615,0.057,1.108,0.549,1.166,1.166h0.549C28.297,5.232,28.79,4.74,29.405,4.683
		 M28.44,4.506c-0.144,0.106-0.269,0.233-0.378,0.379l-0.097,0.13l-0.099-0.131c-0.107-0.145-0.233-0.272-0.377-0.378l-0.131-0.098
		l0.131-0.097c0.144-0.108,0.271-0.234,0.377-0.378l0.099-0.132l0.097,0.132c0.106,0.144,0.234,0.271,0.378,0.378l0.133,0.097
		L28.44,4.506z"/>
	<path style="clip-path:url(#SVGID_2_);fill:#FFFFFF;" d="M31.271,46.108v-0.38c-0.396-0.029-0.714-0.346-0.743-0.742h-0.38
		c-0.028,0.396-0.346,0.713-0.742,0.742v0.38c0.396,0.029,0.714,0.347,0.742,0.743h0.38C30.557,46.455,30.874,46.138,31.271,46.108
		 M30.63,45.967c-0.093,0.069-0.174,0.151-0.244,0.244l-0.048,0.065l-0.049-0.065c-0.069-0.093-0.15-0.175-0.243-0.244l-0.066-0.048
		l0.066-0.05c0.093-0.068,0.174-0.15,0.243-0.243l0.049-0.065l0.048,0.065c0.07,0.093,0.151,0.175,0.244,0.243l0.066,0.05
		L30.63,45.967z"/>
</g>
</svg>
