<?xml version="1.0" encoding="iso-8859-1"?>
<!-- Generator: Adobe Illustrator 15.1.0, SVG Export Plug-In . SVG Version: 6.00 Build 0)  -->
<!DOCTYPE svg PUBLIC "-//W3C//DTD SVG 1.1//EN" "http://www.w3.org/Graphics/SVG/1.1/DTD/svg11.dtd">
<svg version="1.1" id="Layer_1" xmlns="http://www.w3.org/2000/svg" xmlns:xlink="http://www.w3.org/1999/xlink" x="0px" y="0px"
	 width="50px" height="50px" viewBox="0 0 50 50" style="enable-background:new 0 0 50 50;" xml:space="preserve">
<path style="fill:#FFFFFF;" d="M24.542,46.994v-0.002l-0.311-0.006l0.012-0.621l0.623,0.011l-0.012,0.623L24.542,46.994z
	 M25.717,46.363l0.622-0.029l0.03,0.621l-0.623,0.031L25.717,46.363z M23.028,46.91l-0.31-0.027l0.055-0.619l0.621,0.055
	l-0.055,0.619L23.028,46.91z M27.186,46.264l0.619-0.074l0.073,0.617l-0.31,0.038l-0.31,0.035L27.186,46.264z M21.525,46.724
	l-0.308-0.049l0.099-0.614l0.615,0.098l-0.098,0.613L21.525,46.724z M28.645,46.061l0.612-0.115l0.115,0.612l-0.611,0.115
	L28.645,46.061z M20.034,46.432l-0.301-0.069l0.14-0.606l0.606,0.142l-0.14,0.604L20.034,46.432z M30.087,45.761l0.604-0.157
	l0.156,0.604l-0.604,0.156L30.087,45.761z M18.57,46.039h0.002l-0.299-0.091l0.183-0.597l0.595,0.183l-0.183,0.596L18.57,46.039z
	 M31.506,45.362l0.589-0.196l0.198,0.59l-0.591,0.198L31.506,45.362z M17.136,45.545l-0.291-0.112l0.225-0.581l0.581,0.223
	l-0.224,0.582L17.136,45.545z M32.892,44.868l0.287-0.119l0.288-0.119l0.238,0.575l-0.574,0.238L32.892,44.868z M15.741,44.953
	L15.46,44.82l0.261-0.564l0.565,0.263l-0.264,0.565L15.741,44.953z M34.24,44.278L34.799,44l0.277,0.559l-0.278,0.139l-0.278,0.14
	L34.24,44.278z M14.389,44.267L14.389,44.267l-0.271-0.151l0.3-0.544l0.272,0.148l0.273,0.15l-0.301,0.547L14.389,44.267z
	 M35.547,43.598l0.536-0.315l0.314,0.536l-0.537,0.315L35.547,43.598z M13.088,43.489L13.088,43.489l-0.261-0.168l0.338-0.524
	l0.522,0.337l-0.337,0.524L13.088,43.489z M36.8,42.828l0.513-0.352l0.353,0.514l-0.258,0.177l-0.258,0.176L36.8,42.828z
	 M11.841,42.625l-0.248-0.186l0.372-0.5l0.499,0.373l-0.372,0.499L11.841,42.625z M37.998,41.974l0.489-0.387l0.385,0.489
	l-0.487,0.386L37.998,41.974z M10.662,41.679l-0.237-0.203l0.407-0.474l0.47,0.406l-0.404,0.474L10.662,41.679z M39.134,41.036
	l0.462-0.418l0.417,0.46l-0.46,0.419L39.134,41.036z M9.545,40.651l-0.22-0.219l0.436-0.443l0.222,0.22l0.222,0.217L9.768,40.87
	L9.545,40.651z M40.204,40.026l0.43-0.451l0.451,0.431l-0.215,0.226h-0.002l-0.215,0.225L40.204,40.026z M8.503,39.551l-0.206-0.232
	l0.468-0.412l0.413,0.467l-0.467,0.411L8.503,39.551z M41.203,38.942l0.197-0.238v-0.001l0.2-0.24l0.478,0.401l-0.398,0.478
	L41.203,38.942z M7.541,38.383l-0.189-0.247l0.493-0.379l0.379,0.493l-0.494,0.38L7.541,38.383z M42.123,37.793l0.365-0.504
	l0.505,0.365l-0.367,0.504L42.123,37.793z M6.662,37.151L6.662,37.151l-0.173-0.26l0.517-0.345l0.346,0.518L6.833,37.41
	L6.662,37.151z M42.964,36.584l0.166-0.264l0.164-0.265l0.526,0.331l-0.329,0.527L42.964,36.584z M5.868,35.86L5.714,35.59
	l0.541-0.31l0.307,0.542L6.021,36.13L5.868,35.86z M43.719,35.318l0.293-0.549l0.55,0.295l-0.294,0.548L43.719,35.318z
	 M44.386,34.006l0.257-0.567l0.567,0.254l-0.255,0.568L44.386,34.006z M44.964,32.651l0.106-0.292l0.107-0.294l0.583,0.214
	l-0.213,0.585L44.964,32.651z M4.048,31.703l-0.094-0.297l0.594-0.189l0.189,0.594l-0.594,0.188L4.048,31.703z M45.444,31.257
	l0.174-0.597l0.598,0.172l-0.174,0.6L45.444,31.257z M3.638,30.245l-0.074-0.303l0.607-0.148L4.317,30.4l-0.604,0.146L3.638,30.245z
	 M45.825,29.834l0.133-0.609l0.61,0.133l-0.132,0.608L45.825,29.834z M3.336,28.796H3.333l-0.058-0.341h0.002l-0.043-0.273
	l0.614-0.099l0.147,0.879l-0.613,0.106L3.336,28.796z M46.11,28.388l0.09-0.616l0.617,0.09l-0.09,0.616L46.11,28.388z M3.092,26.984
	l-0.028-0.31l0.621-0.058l0.058,0.621l-0.621,0.057L3.092,26.984z M46.293,26.927l0.023-0.311l0.023-0.312l0.621,0.048l-0.023,0.31
	l-0.023,0.311L46.293,26.927z M3.005,25.472L3,25.16l0.622-0.016l0.015,0.623l-0.623,0.016L3.005,25.472z M46.373,25.456
	l0.004-0.622L47,24.836l-0.004,0.623L46.373,25.456z M3.009,24.268l0.016-0.312l0.014-0.311l0.623,0.029l-0.029,0.623L3.009,24.268z
	 M46.332,23.674l-0.02-0.312l0.621-0.04l0.02,0.312l0.02,0.309l-0.621,0.041L46.332,23.674z M3.111,22.754l0.072-0.616l0.619,0.071
	L3.73,22.826L3.111,22.754z M46.189,22.206L46.147,21.9l0.618-0.083l0.08,0.617l-0.615,0.081L46.189,22.206z M3.318,21.252
	l0.115-0.613l0.611,0.115l-0.115,0.612L3.318,21.252z M3.628,19.767l0.158-0.603l0.602,0.157l-0.078,0.303v-0.002l-0.079,0.302
	L3.628,19.767z M4.041,18.306l0.199-0.589l0.591,0.199l-0.2,0.59L4.041,18.306z M45.169,17.916l-0.103-0.294l0.587-0.206
	l0.204,0.589l-0.585,0.204L45.169,17.916z M4.552,16.879l0.239-0.575l0.574,0.239l-0.238,0.576L4.552,16.879z M44.633,16.543
	l-0.121-0.285l0.571-0.246l0.245,0.572l-0.571,0.245L44.633,16.543z M5.162,15.492l0.138-0.279l0.14-0.278l0.557,0.277l-0.279,0.559
	L5.162,15.492z M44.006,15.212L44.006,15.212l-0.143-0.277l0.554-0.284l0.284,0.553l-0.553,0.286L44.006,15.212z M5.864,14.148
	l0.158-0.268l0.157-0.268l0.539,0.314l-0.317,0.537L5.864,14.148z M43.289,13.929L43.289,13.929l-0.163-0.266l0.533-0.323
	l0.159,0.266v0.001l0.163,0.264l-0.531,0.322L43.289,13.929z M6.657,12.857l0.176-0.256l0.175-0.259l0.515,0.351l-0.352,0.515
	L6.657,12.857z M42.481,12.697l-0.179-0.254l0.51-0.359l0.359,0.509l-0.51,0.36L42.481,12.697z M7.537,11.623l0.386-0.489
	l0.491,0.386l-0.386,0.488L7.537,11.623z M41.592,11.525L41.592,11.525l-0.195-0.242l0.484-0.393l0.196,0.242l0.196,0.241
	l-0.485,0.394L41.592,11.525z M8.5,10.451L8.917,9.99l0.462,0.419L8.962,10.87L8.5,10.451z M40.625,10.415L40.625,10.415
	l-0.213-0.227l0.456-0.425l0.211,0.226l0.214,0.229l-0.454,0.424L40.625,10.415z M9.541,9.35l0.447-0.431l0.434,0.448L9.97,9.799
	L9.541,9.35z M39.583,9.376l-0.228-0.213l0.424-0.456l0.455,0.425l-0.423,0.455L39.583,9.376z M38.473,8.409l-0.241-0.196
	l0.39-0.483l0.485,0.391l-0.392,0.484L38.473,8.409z M37.298,7.522l-0.256-0.179L37.4,6.832l0.254,0.18l0.257,0.179l-0.358,0.507
	L37.298,7.522z M13.078,6.508l0.528-0.329l0.33,0.528l-0.264,0.164l-0.263,0.166L13.078,6.508z M36.064,6.714v0.002l-0.267-0.163
	l0.322-0.532l0.267,0.162l0.267,0.162l-0.321,0.531L36.064,6.714z M14.376,5.732l0.55-0.293l0.294,0.548l-0.551,0.294L14.376,5.732z
	 M34.779,5.995l-0.276-0.143l0.285-0.553l0.553,0.285l-0.285,0.554L34.779,5.995z M15.729,5.046l0.569-0.254l0.253,0.569
	l-0.567,0.253L15.729,5.046z M33.445,5.365L33.445,5.365l-0.284-0.124l0.247-0.571l0.571,0.247l-0.247,0.57L33.445,5.365z
	 M17.125,4.456l0.292-0.106h0.002l0.291-0.108l0.213,0.585l-0.584,0.215L17.125,4.456z M32.075,4.83L31.78,4.727l0.208-0.588
	l0.588,0.207L32.37,4.934L32.075,4.83z M18.56,3.965l0.598-0.173l0.174,0.599l-0.599,0.172L18.56,3.965z M30.669,4.389l-0.3-0.084
	l0.166-0.601l0.6,0.166l-0.166,0.601L30.669,4.389z M20.022,3.573l0.608-0.132l0.132,0.609l-0.61,0.132L20.022,3.573z M29.235,4.047
	L29.235,4.047L28.93,3.984l0.123-0.611l0.612,0.125l-0.125,0.61L29.235,4.047z M21.509,3.281l0.617-0.089l0.09,0.615l-0.307,0.047
	L21.6,3.898L21.509,3.281z M27.781,3.804l-0.309-0.04l0.081-0.616l0.619,0.08l-0.082,0.616L27.781,3.804z M23.013,3.092l0.31-0.023
	l0.311-0.025l0.049,0.621l-0.311,0.024l-0.311,0.025L23.013,3.092z M26.315,3.663l-0.31-0.018l0.037-0.62l0.621,0.037l-0.037,0.62
	L26.315,3.663z M24.526,3.005l0.312-0.002l0.311-0.002l0.006,0.621l-0.622,0.006L24.526,3.005z"/>
<g>
	<defs>
		<rect id="SVGID_1_" width="50" height="50"/>
	</defs>
	<clipPath id="SVGID_2_">
		<use xlink:href="#SVGID_1_"  style="overflow:visible;"/>
	</clipPath>
	<path style="clip-path:url(#SVGID_2_);fill-rule:evenodd;clip-rule:evenodd;fill:#FFFFFF;" d="M27.691,29.401h0.935
		c0.07,0.017,0.142,0,0.213,0.013c0.468,0.022,0.938,0.066,1.4,0.15c0.047,0.015,0.104,0.014,0.135,0.056
		c0.027,0.047,0.051,0.099,0.067,0.151c0.038,0.129,0.07,0.261,0.062,0.397c-0.083,0.027-0.171,0.005-0.257,0.01
		c-0.157-0.017-0.316-0.02-0.474-0.034c-0.194-0.007-0.387-0.029-0.582-0.039c-0.075-0.013-0.152-0.007-0.229-0.017
		c-0.096-0.009-0.191-0.003-0.285-0.016c-0.128,0-0.254-0.025-0.377-0.002c-0.229,0.327-0.476,0.643-0.708,0.965
		c-0.424,0.584-0.847,1.17-1.219,1.787c-0.063,0.097-0.115,0.197-0.176,0.295c-0.081,0.156-0.173,0.308-0.249,0.466
		c-0.047,0.095-0.098,0.186-0.136,0.282c-0.019,0.037-0.038,0.088-0.087,0.089c-0.224,0.017-0.452,0.042-0.673-0.011
		c0,0.003,0.002,0.008,0.002,0.01c-0.007-0.002-0.022-0.005-0.03-0.007c-0.04-0.009-0.082-0.018-0.12-0.03
		c-0.009-0.014-0.017-0.026-0.026-0.04c0.002-0.035-0.002-0.074,0.016-0.107c0.36-0.73,0.813-1.411,1.289-2.073
		c0.325-0.461,0.667-0.91,0.994-1.372c0.056-0.068,0.106-0.141,0.158-0.213c-0.045-0.013-0.092-0.012-0.139-0.005
		c-0.297,0.009-0.594,0.041-0.89,0.074c-0.305,0.036-0.608,0.088-0.907,0.161c-0.063,0.013-0.133,0-0.185-0.04
		c-0.107-0.088-0.211-0.186-0.313-0.28c-0.058-0.067-0.13-0.138-0.13-0.232c0.012-0.013,0.023-0.024,0.033-0.037
		c0.081-0.025,0.165-0.036,0.248-0.055c0.039-0.007,0.077-0.016,0.116-0.022c0.753-0.141,1.515-0.229,2.279-0.261
		C27.528,29.4,27.612,29.418,27.691,29.401"/>
	<path style="clip-path:url(#SVGID_2_);fill-rule:evenodd;clip-rule:evenodd;fill:#FFFFFF;" d="M33.086,30.168
		c0.059-0.039,0.132-0.034,0.198-0.02c0.163,0.032,0.327,0.077,0.479,0.15c0.036,0.015,0.061,0.044,0.082,0.073
		c0.008,0.033,0.013,0.066,0.015,0.1c-0.028,0.035-0.063,0.066-0.099,0.096c-0.142,0.123-0.282,0.247-0.424,0.37
		c-0.106,0.102-0.22,0.192-0.321,0.298c-0.166,0.149-0.323,0.307-0.478,0.467c-0.081,0.095-0.174,0.179-0.253,0.274
		c-0.089,0.088-0.167,0.188-0.25,0.282c-0.24,0.276-0.465,0.567-0.681,0.863c-0.035,0.049-0.058,0.11-0.045,0.172
		c0.015,0.059,0.077,0.092,0.135,0.093c0.078,0.003,0.155-0.021,0.224-0.06c0.263-0.19,0.51-0.407,0.745-0.634
		c0.116-0.1,0.216-0.218,0.331-0.32c0.146-0.156,0.302-0.304,0.452-0.457c0.094-0.097,0.194-0.188,0.281-0.291
		c0.15-0.13,0.281-0.281,0.429-0.415c0.226-0.217,0.462-0.426,0.707-0.621c0.077-0.068,0.168-0.123,0.243-0.193
		c0.065,0,0.131-0.003,0.195,0.002c0.152,0.012,0.293,0.079,0.432,0.141c0.048,0.021,0.091,0.054,0.119,0.1
		c0.002,0.032,0.002,0.065-0.021,0.09c-0.07,0.063-0.146,0.116-0.222,0.173c-0.166,0.129-0.33,0.262-0.491,0.396
		c-0.115,0.102-0.229,0.204-0.344,0.307c-0.145,0.141-0.289,0.28-0.427,0.427c-0.161,0.183-0.33,0.362-0.477,0.556
		c-0.15,0.182-0.285,0.373-0.42,0.565c-0.047,0.063-0.094,0.132-0.101,0.213c0.008,0.08,0.057,0.151,0.114,0.206
		c0.006-0.017,0.013-0.033,0.018-0.049c-0.002,0.019-0.002,0.036-0.003,0.055c0.057,0.03,0.119,0.053,0.185,0.052
		c0.063-0.006,0.129-0.022,0.184-0.057c0.174-0.109,0.333-0.242,0.476-0.39c0.086-0.086,0.172-0.17,0.25-0.262
		c0.295-0.322,0.565-0.666,0.867-0.979c0.034-0.045,0.076-0.083,0.115-0.123c0.023-0.023,0.047-0.048,0.077-0.06
		c0.231,0.001,0.467,0.039,0.68,0.135c0.021,0.031,0.051,0.064,0.038,0.105c-0.016,0.044-0.055,0.073-0.084,0.108
		c-0.088,0.102-0.188,0.189-0.273,0.292c-0.027,0.03-0.058,0.057-0.084,0.088c-0.065,0.077-0.141,0.144-0.206,0.221
		c-0.104,0.122-0.218,0.236-0.313,0.367c-0.083,0.107-0.168,0.216-0.227,0.338c-0.027,0.051-0.049,0.103-0.072,0.154
		c0.026,0.072,0.12,0.102,0.188,0.073c0.294-0.113,0.567-0.271,0.822-0.455c0.158-0.127,0.306-0.266,0.459-0.399
		c0.072-0.062,0.138-0.134,0.212-0.193c0.055-0.051,0.103-0.108,0.164-0.156c0.075-0.063,0.132-0.144,0.204-0.21
		c0.043-0.044,0.087-0.102,0.152-0.101c0.228,0.018,0.447,0.085,0.66,0.162c0.063,0.027,0.093,0.101,0.066,0.163
		c-0.036,0.04-0.077,0.075-0.118,0.109c-0.178,0.168-0.36,0.328-0.533,0.502c-0.212,0.196-0.412,0.406-0.619,0.609
		c-0.068,0.084-0.148,0.154-0.218,0.235c-0.188,0.196-0.369,0.399-0.546,0.607c-0.06,0.071-0.116,0.146-0.183,0.213
		c0.001,0.015,0.002,0.027,0.002,0.041c0.079,0.003,0.154,0.025,0.23,0.032c0.757,0.141,1.509,0.327,2.213,0.638
		c0.062,0.023,0.092,0.093,0.086,0.154c-0.037,0.104-0.092,0.199-0.155,0.29c-0.025,0.043-0.075,0.065-0.125,0.065
		c-0.061,0.004-0.117-0.03-0.174-0.043c-0.537-0.174-1.081-0.327-1.631-0.452c-0.291-0.06-0.583-0.119-0.878-0.161
		c-0.165,0.213-0.313,0.439-0.46,0.667c-0.083,0.119-0.143,0.255-0.239,0.363c-0.1,0.006-0.199-0.011-0.298-0.021
		c-0.079-0.017-0.16-0.029-0.236-0.058c-0.052-0.02-0.112-0.035-0.141-0.09c0.037-0.11,0.099-0.211,0.148-0.315
		c0.086-0.17,0.181-0.335,0.279-0.497c0.037-0.054,0.071-0.108,0.104-0.164c-0.146-0.018-0.293-0.029-0.438-0.048
		c-0.31-0.022-0.618-0.047-0.928-0.062c-0.07,0.006-0.141-0.014-0.212-0.01c-0.363-0.006-0.729-0.003-1.092-0.003
		c-0.075-0.001-0.15,0-0.226,0.002c-0.066,0.004-0.133-0.005-0.199,0.007c-0.071,0.011-0.141-0.001-0.211,0.009
		c-0.063,0.008-0.127,0.002-0.188,0.01c-0.084,0.013-0.169,0.004-0.256,0.016c-0.591,0.036-1.181,0.097-1.769,0.167
		c-0.195,0.025-0.391,0.044-0.586,0.077c-0.443,0.059-0.885,0.129-1.326,0.197c-0.2,0.038-0.402,0.064-0.602,0.102
		c-0.393,0.066-0.784,0.135-1.176,0.209c-0.083,0.013-0.165,0.033-0.25,0.044c-0.107-0.013-0.213-0.029-0.315-0.068
		c-0.089-0.028-0.166-0.082-0.251-0.121c-0.002-0.004-0.005-0.013-0.007-0.017c-0.007-0.002-0.021-0.006-0.029-0.007
		c-0.043-0.022-0.079-0.053-0.109-0.089v-0.045c0.026-0.06,0.091-0.09,0.151-0.108c0.876-0.23,1.767-0.404,2.661-0.545
		c0.117-0.017,0.234-0.034,0.352-0.052c0.52-0.073,1.041-0.135,1.563-0.182c0.529-0.049,1.057-0.087,1.587-0.108
		c0.086-0.014,0.174-0.003,0.26-0.016c0.115,0.004,0.229-0.008,0.343-0.01c0.072,0.009,0.142-0.01,0.215-0.007h0.451
		c0.091-0.013,0.182-0.007,0.271-0.008c0.08,0.001,0.159-0.005,0.239,0.007c0.165,0.003,0.331,0,0.496,0.001
		C32.8,34.536,32.9,34.52,33,34.531c0.059,0.007,0.118-0.002,0.176,0.006c0.071,0.012,0.143,0,0.215,0.012
		c0.341,0.015,0.682,0.041,1.021,0.072c0.077,0.006,0.154,0.018,0.233,0.02c0.071-0.092,0.14-0.188,0.206-0.283
		c0.024-0.021,0.039-0.045,0.058-0.069c0.053-0.08,0.115-0.153,0.164-0.235c-0.093,0.038-0.179,0.102-0.282,0.111
		c-0.122,0.007-0.25-0.021-0.352-0.094c-0.071-0.046-0.122-0.116-0.17-0.185c-0.026,0.012-0.052,0.027-0.075,0.044
		c-0.213,0.121-0.449,0.202-0.693,0.229c-0.183,0.018-0.376,0.008-0.541-0.078c-0.117-0.057-0.22-0.143-0.31-0.236l0.006,0.008
		c-0.023-0.04-0.058-0.069-0.08-0.107c-0.025-0.039-0.051-0.078-0.065-0.123c-0.011-0.029-0.017-0.062-0.036-0.087
		c-0.044,0.021-0.08,0.055-0.121,0.078c-0.238,0.146-0.492,0.27-0.762,0.348c-0.155,0.04-0.325,0.06-0.479,0.005
		c-0.063-0.017-0.113-0.06-0.167-0.092c-0.03-0.017-0.052-0.042-0.073-0.067c-0.033-0.042-0.066-0.085-0.093-0.131
		c-0.004,0.009-0.01,0.023-0.013,0.031c0.004-0.08-0.051-0.145-0.071-0.22c-0.015,0.004-0.028,0.005-0.041,0.012
		c-0.149,0.108-0.309,0.203-0.471,0.289c-0.067,0.044-0.144,0.073-0.216,0.108c-0.153,0.081-0.316,0.138-0.48,0.19
		c-0.156,0.045-0.318,0.071-0.48,0.051c-0.113-0.036-0.233-0.065-0.32-0.149c-0.04-0.048-0.078-0.096-0.104-0.151
		c-0.1,0.027-0.179,0.098-0.271,0.142c-0.07,0.034-0.143,0.067-0.218,0.089c-0.078,0.009-0.158,0.011-0.234-0.013
		c-0.088-0.021-0.165-0.067-0.243-0.109c-0.06-0.033-0.113-0.079-0.173-0.111c-0.005,0.007-0.018,0.019-0.023,0.024
		c0.009-0.012,0.017-0.022,0.025-0.032c-0.021-0.017-0.044-0.031-0.071-0.033c-0.004-0.006-0.007-0.012-0.01-0.017l-0.005-0.005
		c-0.043-0.079-0.107-0.144-0.149-0.222c-0.059-0.118-0.11-0.243-0.129-0.374c-0.017-0.073-0.012-0.15,0.012-0.221
		c0.018-0.057,0.063-0.097,0.097-0.144c0.095-0.114,0.191-0.226,0.297-0.331c0.038-0.053,0.094-0.088,0.138-0.137
		c0.066-0.071,0.146-0.133,0.217-0.198c0.298-0.251,0.623-0.469,0.973-0.638c0.099-0.044,0.195-0.098,0.304-0.104
		c0.119-0.015,0.24,0.012,0.354,0.049c0.135,0.06,0.248,0.156,0.357,0.253c0.045,0.054,0.101,0.1,0.142,0.159
		c0.059,0.064,0.097,0.145,0.147,0.217c0.016,0.055,0.033,0.109,0.03,0.168c-0.004,0.09,0.011,0.182-0.021,0.269
		c-0.019,0.062-0.062,0.111-0.106,0.159c-0.204,0.206-0.408,0.414-0.63,0.604c-0.03,0.028-0.066,0.062-0.064,0.106
		c-0.004,0.047,0.027,0.088,0.052,0.122c0.021,0.003,0.041,0.008,0.063,0.011l0.032-0.012c0.117-0.029,0.219-0.096,0.315-0.163
		c0.107-0.076,0.211-0.157,0.31-0.245c0.072-0.059,0.138-0.124,0.21-0.184c0.041-0.033,0.076-0.073,0.114-0.109
		c-0.005-0.007-0.011-0.015-0.016-0.021c0.009,0.004,0.019,0.008,0.027,0.013c0.057-0.048,0.104-0.106,0.162-0.151
		c0.176-0.172,0.348-0.349,0.522-0.522c0.049-0.05,0.103-0.098,0.146-0.151c0.074-0.084,0.161-0.155,0.233-0.241
		c0.078-0.087,0.17-0.162,0.244-0.254c0.066-0.072,0.141-0.136,0.203-0.211c0.07-0.076,0.149-0.144,0.215-0.224
		c0.08-0.082,0.163-0.162,0.243-0.243c0.056-0.07,0.123-0.13,0.187-0.193c0.086-0.069,0.154-0.155,0.238-0.228
		C32.91,30.304,32.993,30.227,33.086,30.168 M29.347,32.163c-0.001,0.008-0.004,0.023-0.004,0.03
		c-0.006,0.018-0.017,0.036-0.029,0.052c-0.089,0.128-0.186,0.254-0.299,0.364c-0.019,0.02-0.031,0.045-0.054,0.063
		c-0.065,0.045-0.11,0.113-0.176,0.16c-0.13,0.119-0.275,0.224-0.424,0.32c-0.122,0.078-0.249,0.151-0.381,0.213
		c-0.056,0.022-0.106,0.071-0.173,0.061C28.105,32.711,28.743,32.367,29.347,32.163"/>
	<path style="clip-path:url(#SVGID_2_);fill-rule:evenodd;clip-rule:evenodd;fill:#FFFFFF;" d="M30.551,37.618
		c0.082-0.063,0.193-0.058,0.292-0.043c0.021,0.005,0.041,0.011,0.063,0.017c-0.002,0.042-0.002,0.084,0,0.126
		c-0.072-0.021-0.146-0.042-0.222-0.027c-0.021,0.006-0.035,0.023-0.052,0.037c-0.023,0.075-0.019,0.153-0.021,0.232
		c0.07,0.004,0.142,0.001,0.212,0.001v0.083l0.011-0.005c-0.014,0.01-0.01,0.028-0.012,0.043c-0.069,0.001-0.137,0.001-0.207,0
		c-0.005,0.237,0,0.475-0.002,0.713h-0.161c-0.001-0.238,0-0.476,0-0.713c-0.035,0-0.069,0-0.104,0.003l-0.002-0.009l-0.007,0.01
		c-0.002-0.042-0.001-0.083-0.002-0.124c0.037-0.001,0.076-0.001,0.114-0.001C30.454,37.844,30.449,37.701,30.551,37.618"/>
	<path style="clip-path:url(#SVGID_2_);fill-rule:evenodd;clip-rule:evenodd;fill:#FFFFFF;" d="M35.23,37.582h0.16
		c0.001,0.404,0.001,0.809,0.001,1.213c-0.055,0-0.107-0.001-0.161,0C35.23,38.391,35.229,37.986,35.23,37.582"/>
	<path style="clip-path:url(#SVGID_2_);fill-rule:evenodd;clip-rule:evenodd;fill:#FFFFFF;" d="M31.67,37.643
		c0.125-0.028,0.255-0.002,0.376,0.033c-0.004,0.051,0,0.101-0.002,0.149c-0.058-0.017-0.113-0.04-0.17-0.052
		c-0.083-0.023-0.185-0.023-0.247,0.043c-0.06,0.057-0.043,0.162,0.02,0.212c0.127,0.101,0.29,0.151,0.401,0.273
		c0.101,0.115,0.091,0.308-0.021,0.414c-0.018,0.014-0.034,0.029-0.053,0.044c-0.106,0.064-0.237,0.077-0.358,0.056
		c-0.066-0.007-0.129-0.026-0.193-0.039c-0.001-0.057-0.001-0.112,0-0.169c0.101,0.045,0.206,0.086,0.317,0.09
		c0.092,0.004,0.19-0.053,0.207-0.149c0.006-0.06-0.017-0.125-0.063-0.164c-0.123-0.1-0.282-0.148-0.388-0.269
		c-0.078-0.08-0.085-0.205-0.045-0.304C31.495,37.727,31.576,37.664,31.67,37.643"/>
	<path style="clip-path:url(#SVGID_2_);fill-rule:evenodd;clip-rule:evenodd;fill:#FFFFFF;" d="M35.683,37.655h0.16
		c0.002,0.054,0.001,0.107,0,0.162c-0.053-0.002-0.107-0.002-0.16,0C35.682,37.763,35.683,37.709,35.683,37.655"/>
	<path style="clip-path:url(#SVGID_2_);fill-rule:evenodd;clip-rule:evenodd;fill:#FFFFFF;" d="M24.427,37.655
		c0.12,0.002,0.241-0.007,0.361,0.009c0.106-0.007,0.226,0.019,0.291,0.109c0.02,0.033,0.035,0.07,0.045,0.108
		c0,0.056,0.005,0.112-0.004,0.168c-0.02,0.081-0.064,0.16-0.134,0.208c-0.111,0.083-0.256,0.094-0.389,0.093
		c0.002,0.147,0.001,0.296,0.001,0.444c-0.057-0.001-0.113-0.001-0.169,0C24.426,38.415,24.428,38.035,24.427,37.655 M24.597,37.784
		c0.098,0.002,0.204-0.005,0.293,0.042c0.031,0.016,0.04,0.051,0.054,0.079c0.019,0.084,0.002,0.177-0.057,0.242
		c-0.083,0.063-0.189,0.076-0.29,0.074C24.598,38.074,24.597,37.931,24.597,37.784"/>
	<path style="clip-path:url(#SVGID_2_);fill-rule:evenodd;clip-rule:evenodd;fill:#FFFFFF;" d="M32.336,37.655
		c0.054,0,0.108-0.001,0.161,0c0,0.054,0.002,0.107,0,0.162c-0.054-0.002-0.107-0.002-0.159,0
		C32.336,37.763,32.336,37.709,32.336,37.655"/>
	<path style="clip-path:url(#SVGID_2_);fill-rule:evenodd;clip-rule:evenodd;fill:#FFFFFF;" d="M36.935,37.655h0.162
		c0,0.054,0.001,0.107-0.001,0.161c-0.054,0-0.107,0-0.161-0.001V37.655z"/>
	<path style="clip-path:url(#SVGID_2_);fill-rule:evenodd;clip-rule:evenodd;fill:#FFFFFF;" d="M37.458,37.8
		c0.031,0,0.062,0,0.093-0.007v0.168c0.073,0.002,0.146,0,0.221,0.002c-0.002,0.039-0.002,0.079,0,0.119
		c-0.074,0.001-0.147,0.001-0.221,0c0,0.154-0.002,0.311,0,0.465c0.004,0.066,0.038,0.147,0.114,0.144
		c0.01,0.002,0.019,0.005,0.027,0.007c0.025-0.007,0.052-0.012,0.079-0.016c-0.002,0.036-0.002,0.073,0,0.11
		c-0.021,0.008-0.043,0.012-0.062,0.019c-0.024,0.001-0.05,0.003-0.073,0.009c-0.047-0.012-0.099-0.009-0.14-0.039
		c-0.043-0.025-0.066-0.072-0.09-0.114c-0.006-0.026-0.011-0.055-0.011-0.083c0-0.167,0-0.334,0-0.501
		c-0.035,0.001-0.071,0.001-0.106,0c0.001-0.041,0.001-0.081,0-0.121h0.106c0-0.05,0-0.102,0-0.152
		C37.417,37.809,37.438,37.807,37.458,37.8"/>
	<path style="clip-path:url(#SVGID_2_);fill-rule:evenodd;clip-rule:evenodd;fill:#FFFFFF;" d="M25.42,37.992
		c0.08-0.046,0.179-0.06,0.271-0.046c0.106,0.007,0.206,0.068,0.266,0.157c0.053,0.082,0.077,0.182,0.072,0.28
		c0.004,0.093-0.022,0.187-0.07,0.266c-0.054,0.086-0.146,0.142-0.244,0.16c-0.085,0.006-0.175,0.01-0.256-0.028
		c-0.14-0.055-0.221-0.208-0.225-0.354C25.216,38.266,25.273,38.08,25.42,37.992 M25.526,38.087
		c0.031-0.018,0.069-0.021,0.104-0.027c0.047,0.009,0.099,0.012,0.135,0.046c0.056,0.043,0.077,0.115,0.093,0.182
		c0,0.097,0.012,0.197-0.033,0.287c-0.031,0.065-0.098,0.12-0.175,0.116c-0.004,0-0.014,0.005-0.02,0.007
		c-0.057-0.011-0.123-0.021-0.161-0.07c-0.084-0.113-0.085-0.268-0.052-0.399C25.439,38.172,25.468,38.11,25.526,38.087"/>
	<path style="clip-path:url(#SVGID_2_);fill-rule:evenodd;clip-rule:evenodd;fill:#FFFFFF;" d="M33.687,37.943
		c0.063-0.013,0.134,0,0.187,0.038c0.015,0.011,0.027,0.021,0.041,0.033c0.007,0.016,0.017,0.033,0.027,0.047
		c0.021,0.049,0.022,0.103,0.027,0.155v0.578c-0.054,0-0.107-0.001-0.161,0V38.18c-0.009-0.028-0.02-0.058-0.036-0.085
		c-0.082-0.051-0.177,0.002-0.241,0.059c-0.025,0.025-0.049,0.053-0.073,0.081c0.002,0.188,0,0.374,0,0.561h-0.16v-0.591
		c0.001-0.031-0.012-0.062-0.02-0.091c-0.009-0.007-0.016-0.015-0.024-0.021c-0.056-0.033-0.129-0.018-0.178,0.02
		c-0.051,0.031-0.09,0.077-0.127,0.123v0.56c-0.054-0.001-0.106-0.001-0.16,0c0-0.278-0.001-0.556,0.001-0.834
		c0.054,0.001,0.105,0.001,0.159,0v0.144c0.048-0.063,0.105-0.125,0.182-0.149c0.03-0.013,0.063-0.008,0.094-0.014
		c0.05,0.002,0.104,0.013,0.145,0.045c0.037,0.034,0.066,0.075,0.088,0.121C33.507,38.025,33.588,37.954,33.687,37.943"/>
	<path style="clip-path:url(#SVGID_2_);fill-rule:evenodd;clip-rule:evenodd;fill:#FFFFFF;" d="M34.565,37.961
		c0.038-0.014,0.079-0.016,0.118-0.022c0.039,0.005,0.078,0.008,0.114,0.022c0.091,0.033,0.152,0.118,0.183,0.207
		c0.032,0.106,0.032,0.223,0.01,0.333c-0.026,0.119-0.096,0.243-0.216,0.29c-0.07,0.03-0.147,0.023-0.219,0.014l-0.012,0.013
		c0.001-0.004,0.004-0.014,0.005-0.017c-0.058-0.016-0.105-0.055-0.144-0.099v0.391h-0.154v-1.132c0.053,0.001,0.104,0.001,0.154,0
		c0,0.047-0.001,0.095,0.002,0.143C34.444,38.04,34.497,37.986,34.565,37.961 M34.547,38.104c0.043-0.025,0.093-0.022,0.142-0.022
		c0.035,0.015,0.077,0.028,0.099,0.064c0.041,0.065,0.052,0.145,0.047,0.224c0.005,0.102-0.014,0.222-0.099,0.292
		c-0.031,0.024-0.072,0.026-0.109,0.035c-0.006-0.002-0.017-0.006-0.021-0.008c-0.077-0.002-0.146-0.049-0.2-0.102
		c0.003-0.123,0.001-0.247,0.001-0.371C34.447,38.174,34.489,38.127,34.547,38.104"/>
	<path style="clip-path:url(#SVGID_2_);fill-rule:evenodd;clip-rule:evenodd;fill:#FFFFFF;" d="M36.296,37.978
		c0.109-0.048,0.232-0.04,0.347-0.023c0.022,0.006,0.044,0.011,0.066,0.015c0.001,0.044,0,0.088,0,0.133
		c-0.087-0.026-0.18-0.045-0.271-0.032c-0.084,0.022-0.147,0.095-0.172,0.177c-0.027,0.09-0.025,0.188,0.007,0.277
		c0.032,0.086,0.11,0.155,0.203,0.161c0.085,0.01,0.166-0.021,0.244-0.05c-0.002,0.044-0.002,0.089-0.001,0.134
		c-0.113,0.038-0.236,0.061-0.354,0.035c-0.146-0.036-0.252-0.17-0.284-0.313c-0.017-0.083-0.017-0.169,0.002-0.251
		C36.107,38.126,36.188,38.022,36.296,37.978"/>
	<path style="clip-path:url(#SVGID_2_);fill-rule:evenodd;clip-rule:evenodd;fill:#FFFFFF;" d="M27.643,37.96
		c0.103-0.032,0.229-0.031,0.311,0.046c0.005,0.003,0.015,0.01,0.019,0.013c0.098,0.104,0.114,0.254,0.11,0.389
		c-0.175-0.002-0.35,0.001-0.524,0c0.012,0.077,0.033,0.157,0.089,0.215c0.032,0.03,0.075,0.052,0.12,0.063
		c0.104,0.015,0.21-0.001,0.307-0.042c0.001,0.042,0.003,0.085-0.002,0.128c-0.064,0.019-0.131,0.035-0.198,0.041
		c-0.114,0.015-0.238-0.011-0.326-0.088c-0.03-0.028-0.057-0.059-0.083-0.09c-0.061-0.104-0.082-0.229-0.063-0.348
		C27.418,38.146,27.511,38.013,27.643,37.96 M27.708,38.067c0.034-0.01,0.068-0.003,0.102,0c0.09,0.03,0.11,0.132,0.115,0.215
		c-0.12,0.005-0.24,0.003-0.36,0.002c0.007-0.039,0.013-0.079,0.024-0.115C27.613,38.122,27.652,38.074,27.708,38.067"/>
	<path style="clip-path:url(#SVGID_2_);fill-rule:evenodd;clip-rule:evenodd;fill:#FFFFFF;" d="M28.495,38.095
		c0.056-0.108,0.185-0.177,0.307-0.147v0.146c-0.066-0.02-0.14-0.016-0.199,0.022c-0.054,0.041-0.116,0.099-0.108,0.172
		c0.001,0.17,0.001,0.339,0,0.508c-0.053,0-0.107-0.001-0.16,0c-0.001-0.277,0-0.556-0.001-0.834c0.054,0,0.107,0.001,0.161,0
		C28.494,38.006,28.494,38.051,28.495,38.095"/>
	<path style="clip-path:url(#SVGID_2_);fill-rule:evenodd;clip-rule:evenodd;fill:#FFFFFF;" d="M29.631,37.974
		c0.07-0.03,0.149-0.036,0.224-0.028c0.145,0.007,0.273,0.114,0.316,0.249c0.024,0.075,0.035,0.156,0.029,0.234
		c-0.009,0.057-0.019,0.113-0.041,0.167c-0.045,0.099-0.132,0.179-0.238,0.205c-0.039,0.013-0.081,0.01-0.12,0.017
		c-0.043-0.006-0.088-0.006-0.131-0.018c0.001-0.008,0.002-0.019,0.003-0.026c-0.001,0.007-0.004,0.018-0.005,0.023
		c-0.116-0.033-0.207-0.132-0.243-0.246c-0.032-0.113-0.036-0.236,0.001-0.349C29.459,38.103,29.532,38.015,29.631,37.974
		 M29.676,38.094c0.08-0.045,0.188-0.045,0.263,0.013c0.047,0.04,0.07,0.098,0.083,0.155c0.013,0.076,0.013,0.153,0.001,0.229
		c-0.016,0.075-0.054,0.15-0.126,0.186c-0.07,0.026-0.155,0.024-0.22-0.015c-0.089-0.067-0.108-0.188-0.104-0.291
		C29.568,38.27,29.595,38.16,29.676,38.094"/>
	<path style="clip-path:url(#SVGID_2_);fill-rule:evenodd;clip-rule:evenodd;fill:#FFFFFF;" d="M37.837,37.961
		c0.056,0,0.113,0,0.169,0.002c0.069,0.189,0.143,0.378,0.217,0.567c-0.002,0.013-0.008,0.025-0.01,0.038
		c0.013,0.002,0.023,0.001,0.034-0.004c0.073-0.202,0.161-0.402,0.242-0.604c0.048,0.001,0.097,0.001,0.145,0.001v0.014
		c-0.151,0.373-0.299,0.745-0.447,1.117H38.02c0.045-0.101,0.094-0.201,0.137-0.304c-0.062-0.147-0.116-0.298-0.174-0.445
		c-0.018-0.042-0.028-0.089-0.061-0.123C37.912,38.129,37.86,38.049,37.837,37.961"/>
	<path style="clip-path:url(#SVGID_2_);fill-rule:evenodd;clip-rule:evenodd;fill:#FFFFFF;" d="M26.114,37.964
		c0.052-0.003,0.104-0.001,0.158-0.002c0.059,0.207,0.114,0.416,0.176,0.622c0.067-0.206,0.129-0.414,0.19-0.62
		c0.053-0.003,0.106-0.003,0.159-0.002c0.024,0.078,0.042,0.161,0.066,0.239l-0.021,0.003c0.007,0,0.014,0.001,0.021,0.004
		c0.018,0.058,0.031,0.117,0.048,0.176c0.005,0.021,0.007,0.044,0.031,0.051c-0.005,0-0.014,0.002-0.017,0.002
		c0.015,0.049,0.023,0.102,0.041,0.151c0.034-0.103,0.066-0.208,0.102-0.311c0.021-0.055,0.028-0.115,0.062-0.165
		c0.021-0.008,0.005-0.031,0.006-0.047c0.013-0.036,0.025-0.068,0.036-0.104c0.045,0.001,0.09,0,0.136,0.002
		c-0.09,0.276-0.183,0.552-0.269,0.83c-0.054,0.002-0.107,0.001-0.161,0.002c-0.047-0.173-0.092-0.346-0.142-0.517
		c-0.011-0.009-0.037-0.026-0.005-0.024c-0.009-0.03-0.017-0.058-0.025-0.087c-0.066,0.208-0.13,0.418-0.193,0.627
		c-0.054,0.001-0.106,0-0.159,0.001C26.272,38.518,26.197,38.239,26.114,37.964"/>
	<path style="clip-path:url(#SVGID_2_);fill-rule:evenodd;clip-rule:evenodd;fill:#FFFFFF;" d="M32.336,37.962
		c0.054-0.001,0.107,0.001,0.161-0.001c0.003,0.278,0,0.556,0,0.834c-0.053,0-0.107-0.001-0.16,0
		C32.336,38.518,32.336,38.239,32.336,37.962"/>
	<path style="clip-path:url(#SVGID_2_);fill-rule:evenodd;clip-rule:evenodd;fill:#FFFFFF;" d="M35.683,38.795
		c0-0.278-0.001-0.556,0.001-0.834c0.052,0.002,0.105,0.001,0.159,0c0.003,0.278,0,0.556,0.001,0.834
		C35.79,38.795,35.735,38.794,35.683,38.795"/>
	<path style="clip-path:url(#SVGID_2_);fill-rule:evenodd;clip-rule:evenodd;fill:#FFFFFF;" d="M36.935,37.962
		c0.054-0.001,0.108,0,0.161-0.001c0.002,0.278,0.001,0.556,0.001,0.834c-0.054-0.001-0.107,0-0.162,0
		C36.935,38.517,36.937,38.239,36.935,37.962"/>
	<path style="clip-path:url(#SVGID_2_);fill:#FFFFFF;" d="M15.07,27.052c0-0.593-0.483-1.076-1.077-1.076
		c-0.593,0-1.075,0.483-1.075,1.076s0.482,1.076,1.075,1.076C14.587,28.128,15.07,27.645,15.07,27.052 M13.993,27.749
		c-0.384,0-0.696-0.313-0.696-0.697c0-0.385,0.312-0.696,0.696-0.696c0.384,0,0.697,0.312,0.697,0.696
		C14.69,27.436,14.377,27.749,13.993,27.749"/>
	<path style="clip-path:url(#SVGID_2_);fill:#FFFFFF;" d="M23.204,25.976c-0.593,0-1.075,0.483-1.075,1.076s0.482,1.076,1.075,1.076
		c0.594,0,1.075-0.483,1.075-1.076S23.798,25.976,23.204,25.976 M23.204,27.749c-0.385,0-0.697-0.313-0.697-0.697
		c0-0.385,0.312-0.696,0.697-0.696c0.384,0,0.697,0.312,0.697,0.696C23.901,27.436,23.588,27.749,23.204,27.749"/>
	<path style="clip-path:url(#SVGID_2_);fill:#FFFFFF;" d="M14.581,29.547c-0.419,0.419-0.419,1.103,0,1.521
		c0.21,0.209,0.485,0.314,0.761,0.314c0.276,0,0.552-0.105,0.762-0.314c0.418-0.419,0.418-1.103,0-1.521
		C15.684,29.128,15.002,29.128,14.581,29.547 M15.835,30.801c-0.272,0.271-0.713,0.271-0.985,0c-0.272-0.271-0.272-0.714,0-0.985
		c0.136-0.137,0.314-0.204,0.492-0.204c0.18,0,0.356,0.067,0.493,0.204C16.106,30.087,16.106,30.53,15.835,30.801"/>
	<path style="clip-path:url(#SVGID_2_);fill:#FFFFFF;" d="M18.599,30.581c-0.594,0-1.076,0.481-1.076,1.075
		c0,0.593,0.482,1.076,1.076,1.076c0.594,0,1.076-0.483,1.076-1.076C19.675,31.063,19.192,30.581,18.599,30.581 M18.599,32.354
		c-0.385,0-0.696-0.313-0.696-0.697c0-0.385,0.311-0.697,0.696-0.697c0.385,0,0.697,0.313,0.697,0.697
		C19.295,32.04,18.983,32.354,18.599,32.354"/>
	<path style="clip-path:url(#SVGID_2_);fill:#FFFFFF;" d="M21.095,29.547c-0.419,0.419-0.419,1.103,0,1.521
		c0.209,0.209,0.485,0.314,0.761,0.314c0.275,0,0.551-0.105,0.761-0.314c0.418-0.419,0.418-1.103,0-1.521
		C22.198,29.128,21.515,29.128,21.095,29.547 M22.348,30.801c-0.271,0.271-0.714,0.271-0.984,0c-0.273-0.271-0.273-0.714,0-0.985
		c0.135-0.137,0.313-0.204,0.492-0.204c0.179,0,0.357,0.067,0.492,0.204C22.62,30.087,22.62,30.53,22.348,30.801"/>
	<path style="clip-path:url(#SVGID_2_);fill:#FFFFFF;" d="M21.095,23.034c-0.419,0.42-0.419,1.103,0,1.523
		c0.209,0.209,0.485,0.313,0.761,0.313c0.275,0,0.551-0.104,0.761-0.313c0.418-0.42,0.418-1.103,0-1.523
		c-0.104-0.101-0.222-0.18-0.349-0.232h-0.824C21.317,22.854,21.198,22.933,21.095,23.034 M22.348,24.289
		c-0.22,0.221-0.553,0.259-0.815,0.121c-0.032,0.012-0.066,0.019-0.1,0.019c-0.15,0-0.272-0.121-0.272-0.272V23.82v-0.05v-0.154
		c0-0.101,0.055-0.189,0.138-0.235c0.02-0.028,0.039-0.054,0.065-0.078c0.135-0.136,0.313-0.204,0.492-0.204
		c0.179,0,0.357,0.068,0.492,0.204C22.62,23.574,22.62,24.018,22.348,24.289"/>
	<path style="clip-path:url(#SVGID_2_);fill:#FFFFFF;" d="M15.342,24.87c0.277,0,0.552-0.104,0.762-0.313
		c0.419-0.42,0.419-1.103,0-1.523c-0.42-0.418-1.102-0.418-1.523,0c-0.418,0.42-0.418,1.103,0,1.523
		C14.791,24.766,15.066,24.87,15.342,24.87 M14.85,23.303c0.137-0.136,0.314-0.204,0.492-0.204c0.18,0,0.357,0.068,0.493,0.204
		c0.272,0.271,0.272,0.715,0,0.986c-0.272,0.272-0.713,0.272-0.985,0C14.579,24.018,14.579,23.574,14.85,23.303"/>
	<path style="clip-path:url(#SVGID_2_);fill:#FFFFFF;" d="M19.531,25.479h-1.865c-0.104,0-0.189,0.085-0.189,0.19v2.767
		c0,0.104,0.085,0.189,0.189,0.189h1.865c0.106,0,0.191-0.085,0.191-0.189v-2.767C19.722,25.563,19.637,25.479,19.531,25.479
		 M19.343,28.246h-1.487v-0.573h1.487V28.246z M19.343,27.294h-1.487v-0.485h1.487V27.294z M19.343,26.431h-1.487v-0.572h1.487
		V26.431z"/>
	<path style="clip-path:url(#SVGID_2_);fill:#FFFFFF;" d="M18.789,30.144v-0.908c0-0.104-0.086-0.189-0.19-0.189
		c-0.105,0-0.19,0.085-0.19,0.189v0.908c0,0.104,0.085,0.188,0.19,0.188C18.703,30.332,18.789,30.248,18.789,30.144"/>
	<path style="clip-path:url(#SVGID_2_);fill:#FFFFFF;" d="M16.546,24.732c-0.074-0.074-0.194-0.074-0.268,0
		c-0.073,0.073-0.073,0.192,0,0.267l0.643,0.642c0.037,0.037,0.085,0.056,0.134,0.056c0.049,0,0.097-0.019,0.134-0.056
		c0.075-0.074,0.075-0.194,0-0.269L16.546,24.732z"/>
	<path style="clip-path:url(#SVGID_2_);fill:#FFFFFF;" d="M20.919,29.371c0.073-0.073,0.073-0.192,0-0.267l-0.643-0.642
		c-0.073-0.075-0.193-0.075-0.267,0c-0.074,0.073-0.074,0.193,0,0.268l0.641,0.641c0.039,0.037,0.086,0.056,0.135,0.056
		C20.833,29.427,20.882,29.408,20.919,29.371"/>
	<path style="clip-path:url(#SVGID_2_);fill:#FFFFFF;" d="M15.318,27.052c0,0.104,0.085,0.188,0.188,0.188h0.909
		c0.105,0,0.189-0.084,0.189-0.188c0-0.104-0.084-0.188-0.189-0.188h-0.909C15.403,26.863,15.318,26.948,15.318,27.052"/>
	<path style="clip-path:url(#SVGID_2_);fill:#FFFFFF;" d="M21.69,27.24c0.105,0,0.19-0.085,0.19-0.188
		c0-0.104-0.085-0.189-0.19-0.189h-0.907c-0.106,0-0.191,0.085-0.191,0.189c0,0.104,0.085,0.188,0.191,0.188H21.69z"/>
	<path style="clip-path:url(#SVGID_2_);fill:#FFFFFF;" d="M16.921,28.463l-0.643,0.642c-0.073,0.074-0.073,0.193,0,0.267
		c0.038,0.037,0.086,0.056,0.135,0.056c0.048,0,0.097-0.019,0.133-0.056l0.643-0.641c0.075-0.074,0.075-0.194,0-0.268
		C17.114,28.388,16.995,28.388,16.921,28.463"/>
	<path style="clip-path:url(#SVGID_2_);fill:#FFFFFF;" d="M19.954,25.51c0,0.047,0.018,0.096,0.055,0.132
		c0.036,0.037,0.085,0.056,0.132,0.056c0.049,0,0.098-0.019,0.135-0.056l0.129-0.129h-0.294
		C20.058,25.513,20.006,25.512,19.954,25.51"/>
	<path style="clip-path:url(#SVGID_2_);fill:#FFFFFF;" d="M28.555,21.556c-0.054,0.058-0.104,0.119-0.152,0.183
		C28.458,21.681,28.51,21.62,28.555,21.556"/>
	<path style="clip-path:url(#SVGID_2_);fill:#FFFFFF;" d="M33.234,23.088h-0.017c-0.149-1.347-1.295-2.398-2.683-2.398
		c-0.442,0-0.865,0.107-1.241,0.3v0.704c0.353-0.258,0.784-0.405,1.241-0.405c1.157,0,2.1,0.943,2.1,2.091
		c0,0.008-0.002,0.028-0.002,0.036c0,0.088,0.04,0.172,0.105,0.229c0.068,0.057,0.156,0.082,0.244,0.067
		c0.091-0.017,0.173-0.023,0.252-0.023c0.827,0,1.5,0.672,1.5,1.499c0,0.827-0.673,1.499-1.5,1.499h-7.198
		c-0.717,0-1.315-0.502-1.464-1.174h-0.609c0.157,1.004,1.025,1.774,2.073,1.774h3.299h0.6h3.3c1.158,0,2.1-0.94,2.1-2.1
		C35.334,24.03,34.393,23.088,33.234,23.088"/>
	<rect x="32.933" y="24.288" style="clip-path:url(#SVGID_2_);fill:#FFFFFF;" width="0.601" height="0.6"/>
	<rect x="32.933" y="25.488" style="clip-path:url(#SVGID_2_);fill:#FFFFFF;" width="0.601" height="0.601"/>
	<rect x="31.734" y="25.488" style="clip-path:url(#SVGID_2_);fill:#FFFFFF;" width="0.601" height="0.601"/>
	<path style="clip-path:url(#SVGID_2_);fill:#FFFFFF;" d="M27.835,22.488c-0.269,0-0.511,0.12-0.676,0.308
		c0.362-0.015,0.699-0.103,0.994-0.246C28.049,22.509,27.942,22.488,27.835,22.488"/>
	<path style="clip-path:url(#SVGID_2_);fill:#FFFFFF;" d="M23.947,24.971h-3.01c-0.006,0.01-0.01,0.021-0.018,0.028l-0.514,0.514
		h3.559c-0.017-0.106-0.029-0.214-0.029-0.325C23.935,25.114,23.939,25.042,23.947,24.971"/>
	<path style="clip-path:url(#SVGID_2_);fill:#FFFFFF;" d="M19.207,22.106c-0.246-0.086-0.471-0.206-0.658-0.354
		c-0.204,0.014-0.383,0.117-0.501,0.268c0.32,0.303,0.733,0.536,1.204,0.666c0.028-0.075,0.044-0.155,0.044-0.24
		C19.296,22.323,19.263,22.208,19.207,22.106"/>
	<path style="clip-path:url(#SVGID_2_);fill:#FFFFFF;" d="M20.008,25.373l0.404-0.403h-0.301c-0.496,0-0.954-0.129-1.322-0.345
		v0.242c0,0.105-0.086,0.19-0.191,0.19c-0.104,0-0.189-0.085-0.189-0.19v-0.523c-0.31-0.293-0.496-0.667-0.501-1.074
		c-0.235-0.198-0.386-0.494-0.386-0.824c0-0.464,0.298-0.859,0.709-1.01c-0.204-0.26-0.323-0.565-0.323-0.893v-1.377
		c0.499,0.558,1.298,0.925,2.203,0.925h6.933c0.688,0,1.296-0.261,1.708-0.664v1.513c0,0.222-0.072,0.431-0.197,0.615
		c0.213-0.232,0.464-0.422,0.739-0.565v-2.761c0-0.799-0.612-1.498-1.514-1.754c-0.221-1.637-1.913-2.89-3.956-2.89
		c-1.605,0-3.05,0.791-3.669,1.988c-0.015,0-0.029-0.001-0.044-0.001c-1.515,0-2.746,1.014-2.746,2.261v5.422
		c0,1.202,1.147,2.186,2.589,2.254C19.952,25.46,19.97,25.411,20.008,25.373 M20.111,16.115c0.04,0,0.079,0.004,0.118,0.008
		l0.072,0.005c0.12,0.009,0.222-0.056,0.268-0.162c0.477-1.1,1.785-1.839,3.255-1.839c1.839,0,3.348,1.134,3.434,2.582
		c0.008,0.123,0.098,0.224,0.217,0.25c0.752,0.153,1.277,0.676,1.277,1.27c0,0.728-0.766,1.32-1.708,1.32h-6.933
		c-1.215,0-2.203-0.771-2.203-1.716C17.908,16.886,18.896,16.115,20.111,16.115"/>
	<path style="clip-path:url(#SVGID_2_);fill:#FFFFFF;" d="M19.65,22.222c0.016,0.073,0.024,0.147,0.024,0.225
		c0,0.111-0.016,0.218-0.048,0.319c0.158,0.023,0.319,0.036,0.485,0.036h1.332c0.264-0.108,0.561-0.108,0.824,0h4.188
		c0.089-0.21,0.225-0.394,0.394-0.541h-6.738C19.953,22.261,19.798,22.246,19.65,22.222"/>
	<path style="clip-path:url(#SVGID_2_);fill:#FFFFFF;" d="M28.752,22.285v1.367c0,0.728-0.766,1.319-1.708,1.319h-2.49
		c-0.011,0.071-0.019,0.142-0.019,0.216c0,0.112,0.013,0.221,0.037,0.326h2.472c1.241,0,2.25-0.834,2.25-1.861v-1.958
		C29.081,21.851,28.897,22.052,28.752,22.285"/>
	<path style="clip-path:url(#SVGID_2_);fill:#FFFFFF;" d="M28.172,21.93c0.026,0.006,0.054,0.014,0.08,0.021
		c0.047-0.074,0.098-0.145,0.15-0.212C28.334,21.808,28.256,21.871,28.172,21.93"/>
	<path style="clip-path:url(#SVGID_2_);fill:#FFFFFF;" d="M17.902,22.446c0,0.027,0.002,0.056,0.006,0.082v-0.164
		C17.904,22.391,17.902,22.418,17.902,22.446"/>
	<path style="clip-path:url(#SVGID_2_);fill:#FFFFFF;" d="M21.443,22.802h0.824C22.004,22.694,21.708,22.694,21.443,22.802"/>
	<path style="clip-path:url(#SVGID_2_);fill:#FFFFFF;" d="M19.65,22.222c-0.154-0.025-0.303-0.064-0.443-0.115
		c0.055,0.101,0.089,0.217,0.089,0.34c0,0.085-0.016,0.165-0.044,0.24c0.122,0.032,0.246,0.06,0.374,0.079
		c0.032-0.101,0.048-0.208,0.048-0.319C19.674,22.369,19.667,22.295,19.65,22.222"/>
	<path style="clip-path:url(#SVGID_2_);fill:#FFFFFF;" d="M17.908,22.528c-0.004-0.026-0.006-0.055-0.006-0.082
		c0-0.028,0.002-0.055,0.006-0.082v-0.486c0.043,0.048,0.091,0.096,0.14,0.142c0.118-0.151,0.297-0.254,0.501-0.268
		c-0.121-0.094-0.226-0.202-0.318-0.316c-0.411,0.151-0.709,0.546-0.709,1.01c0,0.33,0.151,0.626,0.386,0.824v-0.015V22.528z"/>
	<path style="clip-path:url(#SVGID_2_);fill:#FFFFFF;" d="M18.409,24.345v0.522c0,0.106,0.085,0.191,0.189,0.191
		c0.105,0,0.191-0.085,0.191-0.191v-0.242C18.649,24.542,18.52,24.449,18.409,24.345"/>
	<path style="clip-path:url(#SVGID_2_);fill:#FFFFFF;" d="M20.938,24.971h-0.525l-0.404,0.402c-0.038,0.038-0.056,0.087-0.054,0.137
		c0.051,0.002,0.103,0.003,0.157,0.003h0.294l0.513-0.514C20.928,24.992,20.932,24.98,20.938,24.971"/>
	<path style="clip-path:url(#SVGID_2_);fill:#FFFFFF;" d="M24.535,25.188c0-0.074,0.008-0.146,0.019-0.217h-0.607
		c-0.008,0.07-0.012,0.144-0.012,0.217c0,0.111,0.012,0.219,0.029,0.325h0.608C24.548,25.408,24.535,25.3,24.535,25.188"/>
	<path style="clip-path:url(#SVGID_2_);fill:#FFFFFF;" d="M28.555,21.556c-0.045,0.064-0.097,0.125-0.152,0.183
		c-0.053,0.067-0.104,0.138-0.15,0.213c-0.026-0.008-0.054-0.016-0.08-0.022c-0.302,0.205-0.697,0.331-1.128,0.331H26.85
		c-0.169,0.147-0.305,0.331-0.394,0.541h0.588c0.038,0,0.076-0.004,0.115-0.006c0.165-0.187,0.407-0.307,0.676-0.307
		c0.107,0,0.214,0.021,0.318,0.062c0.227-0.108,0.43-0.247,0.599-0.412v0.146c0.145-0.233,0.329-0.433,0.542-0.59v-0.704
		C29.019,21.133,28.768,21.324,28.555,21.556"/>
	<path style="clip-path:url(#SVGID_2_);fill:#FFFFFF;" d="M19.263,21.446c0.15,0,0.271-0.121,0.271-0.271v-0.541
		c0-0.151-0.121-0.271-0.271-0.271s-0.271,0.12-0.271,0.271v0.541C18.992,21.325,19.113,21.446,19.263,21.446"/>
	<path style="clip-path:url(#SVGID_2_);fill:#FFFFFF;" d="M20.347,21.719c0.149,0,0.271-0.122,0.271-0.272v-0.542
		c0-0.151-0.122-0.271-0.271-0.271s-0.271,0.12-0.271,0.271v0.542C20.076,21.597,20.198,21.719,20.347,21.719"/>
	<path style="clip-path:url(#SVGID_2_);fill:#FFFFFF;" d="M21.433,21.719c0.148,0,0.271-0.122,0.271-0.272v-0.542
		c0-0.151-0.123-0.271-0.271-0.271c-0.15,0-0.271,0.12-0.271,0.271v0.542C21.162,21.597,21.283,21.719,21.433,21.719"/>
	<path style="clip-path:url(#SVGID_2_);fill:#FFFFFF;" d="M27.126,21.719c0.299,0,0.542-0.244,0.542-0.543
		c0-0.3-0.243-0.542-0.542-0.542c-0.301,0-0.542,0.242-0.542,0.542C26.584,21.475,26.825,21.719,27.126,21.719"/>
	<path style="clip-path:url(#SVGID_2_);fill:#FFFFFF;" d="M25.499,21.719c0.3,0,0.542-0.244,0.542-0.543
		c0-0.3-0.242-0.542-0.542-0.542s-0.543,0.242-0.543,0.542C24.956,21.475,25.199,21.719,25.499,21.719"/>
	<path style="clip-path:url(#SVGID_2_);fill:#FFFFFF;" d="M21.161,23.616v0.154c0.005-0.137,0.052-0.273,0.138-0.389
		C21.216,23.427,21.161,23.514,21.161,23.616"/>
	<path style="clip-path:url(#SVGID_2_);fill:#FFFFFF;" d="M21.161,23.82v0.337c0,0.15,0.121,0.271,0.271,0.271
		c0.035,0,0.069-0.006,0.1-0.018c-0.059-0.032-0.119-0.07-0.169-0.121C21.232,24.159,21.167,23.99,21.161,23.82"/>
	<path style="clip-path:url(#SVGID_2_);fill:#FFFFFF;" d="M26.945,23.47c0.009,0.102-0.034,0.202-0.115,0.265
		c-0.068,0.052-0.154,0.071-0.237,0.056c-0.006,0.032-0.009,0.064-0.009,0.097c0,0.299,0.241,0.541,0.542,0.541
		c0.298,0,0.542-0.242,0.542-0.541c0-0.3-0.244-0.544-0.542-0.544c-0.068,0-0.132,0.015-0.19,0.037c0,0.003-0.001,0.005-0.001,0.008
		L26.945,23.47z"/>
	<path style="clip-path:url(#SVGID_2_);fill:#FFFFFF;" d="M26.593,23.791c0.083,0.015,0.169-0.004,0.237-0.057
		c0.081-0.062,0.124-0.163,0.115-0.264l-0.011-0.081c0-0.003,0.001-0.005,0.001-0.008C26.759,23.447,26.627,23.601,26.593,23.791"/>
	<path style="clip-path:url(#SVGID_2_);fill:#FFFFFF;" d="M25.499,24.429c0.3,0,0.542-0.242,0.542-0.541
		c0-0.07-0.015-0.137-0.037-0.198c-0.389,0.009-0.74,0.165-1.001,0.414C25.086,24.296,25.276,24.429,25.499,24.429"/>
	<path style="clip-path:url(#SVGID_2_);fill:#FFFFFF;" d="M25.499,23.344c-0.3,0-0.543,0.244-0.543,0.544
		c0,0.076,0.017,0.149,0.047,0.216c0.261-0.249,0.612-0.406,1.001-0.414C25.925,23.489,25.729,23.344,25.499,23.344"/>
	<path style="clip-path:url(#SVGID_2_);fill:#FFFFFF;" d="M46.975,20.324v-0.419c-0.431-0.031-0.776-0.376-0.807-0.806h-0.419
		c-0.031,0.43-0.376,0.775-0.806,0.806v0.419c0.43,0.03,0.774,0.375,0.806,0.805h0.419C46.198,20.699,46.544,20.354,46.975,20.324
		 M46.273,20.164c-0.104,0.075-0.191,0.165-0.266,0.266l-0.05,0.066l-0.05-0.066c-0.075-0.101-0.165-0.191-0.266-0.266l-0.065-0.05
		l0.065-0.05c0.101-0.075,0.19-0.164,0.266-0.265l0.05-0.067l0.05,0.067c0.075,0.101,0.165,0.19,0.266,0.265l0.066,0.05
		L46.273,20.164z"/>
	<path style="clip-path:url(#SVGID_2_);fill:#FFFFFF;" d="M12.971,7.923V7.364c-0.628-0.059-1.13-0.56-1.19-1.19h-0.56
		c-0.057,0.63-0.56,1.131-1.189,1.19v0.559c0.629,0.06,1.132,0.562,1.189,1.191h0.56C11.841,8.485,12.343,7.983,12.971,7.923
		 M11.987,7.743c-0.146,0.108-0.275,0.238-0.386,0.386l-0.099,0.135l-0.101-0.135c-0.109-0.148-0.237-0.278-0.385-0.386l-0.133-0.1
		l0.133-0.098c0.148-0.11,0.277-0.239,0.385-0.386l0.101-0.135l0.099,0.135c0.111,0.147,0.24,0.277,0.386,0.386l0.134,0.098
		L11.987,7.743z"/>
	<path style="clip-path:url(#SVGID_2_);fill:#FFFFFF;" d="M6.167,34.023v-0.387c-0.403-0.031-0.727-0.354-0.757-0.758H5.023
		c-0.031,0.404-0.354,0.727-0.758,0.758v0.387c0.404,0.03,0.727,0.354,0.758,0.758h0.387C5.44,34.378,5.765,34.054,6.167,34.023
		 M5.516,33.88c-0.095,0.069-0.18,0.153-0.249,0.248l-0.05,0.067l-0.051-0.067c-0.069-0.094-0.153-0.179-0.248-0.248l-0.066-0.05
		l0.067-0.051c0.094-0.07,0.178-0.153,0.247-0.249l0.051-0.065l0.05,0.065c0.069,0.096,0.154,0.18,0.249,0.249l0.066,0.051
		L5.516,33.88z"/>
</g>
</svg>
