<?xml version="1.0" encoding="iso-8859-1"?>
<!-- Generator: Adobe Illustrator 15.1.0, SVG Export Plug-In . SVG Version: 6.00 Build 0)  -->
<!DOCTYPE svg PUBLIC "-//W3C//DTD SVG 1.1//EN" "http://www.w3.org/Graphics/SVG/1.1/DTD/svg11.dtd">
<svg version="1.1" id="Layer_1" xmlns="http://www.w3.org/2000/svg" xmlns:xlink="http://www.w3.org/1999/xlink" x="0px" y="0px"
	 width="50px" height="50px" viewBox="0 0 50 50" style="enable-background:new 0 0 50 50;" xml:space="preserve">
<g>
	<defs>
		<rect id="SVGID_1_" width="50" height="50"/>
	</defs>
	<clipPath id="SVGID_2_">
		<use xlink:href="#SVGID_1_"  style="overflow:visible;"/>
	</clipPath>
	<path style="clip-path:url(#SVGID_2_);fill:#FFFFFF;" d="M45.633,15.466v-0.419c-0.432-0.031-0.775-0.376-0.807-0.807h-0.419
		c-0.031,0.431-0.376,0.776-0.807,0.807v0.419c0.431,0.03,0.775,0.375,0.807,0.806h0.419C44.857,15.841,45.201,15.496,45.633,15.466
		 M44.933,15.306c-0.103,0.076-0.19,0.165-0.266,0.266l-0.052,0.067l-0.049-0.067c-0.074-0.1-0.163-0.19-0.264-0.266l-0.068-0.05
		l0.068-0.05c0.101-0.075,0.188-0.164,0.264-0.264l0.049-0.068l0.052,0.068c0.075,0.1,0.164,0.19,0.266,0.264l0.066,0.05
		L44.933,15.306z"/>
	<path style="clip-path:url(#SVGID_2_);fill:#FFFFFF;" d="M7.761,13.24v-0.388c-0.404-0.029-0.727-0.354-0.758-0.757H6.616
		c-0.031,0.403-0.353,0.728-0.758,0.757v0.388c0.405,0.03,0.727,0.353,0.758,0.757h0.387C7.034,13.593,7.357,13.27,7.761,13.24
		 M7.108,13.096c-0.094,0.071-0.179,0.154-0.248,0.248L6.81,13.411l-0.05-0.067c-0.069-0.094-0.154-0.177-0.247-0.248l-0.068-0.05
		l0.068-0.05c0.093-0.07,0.178-0.153,0.247-0.249l0.05-0.067l0.051,0.067c0.069,0.096,0.154,0.179,0.248,0.248l0.067,0.051
		L7.108,13.096z"/>
	<path style="clip-path:url(#SVGID_2_);fill:#FFFFFF;" d="M24.542,46.491l-0.311-0.006l0.01-0.624l0.312,0.007l0.312,0.006
		l-0.012,0.624L24.542,46.491z M25.715,45.861l0.622-0.029l0.03,0.622l-0.62,0.028L25.715,45.861z M27.187,45.76l0.619-0.073
		l0.071,0.619l-0.309,0.035l-0.309,0.037L27.187,45.76z M28.646,45.559l0.305-0.057l0.306-0.059l0.115,0.611l-0.611,0.115
		L28.646,45.559z M30.087,45.258l0.603-0.155l0.158,0.604l-0.604,0.155L30.087,45.258z M18.57,45.537l-0.296-0.092l0.181-0.596
		l0.595,0.184l-0.181,0.595L18.57,45.537z M31.506,44.861l0.59-0.197l0.197,0.589l-0.591,0.198L31.506,44.861z M17.136,45.043
		l-0.291-0.112l0.224-0.582l0.58,0.224l-0.221,0.582L17.136,45.043z M32.893,44.367l0.575-0.238l0.237,0.575l-0.287,0.119
		l-0.288,0.119L32.893,44.367z M15.741,44.451l-0.284-0.132l0.264-0.564l0.566,0.262l-0.264,0.564L15.741,44.451z M34.242,43.774
		l0.556-0.275l0.279,0.558l-0.559,0.277L34.242,43.774z M14.39,43.764l-0.273-0.149l0.3-0.546l0.273,0.151l0.273,0.149l-0.3,0.546
		L14.39,43.764z M35.546,43.096l0.537-0.314l0.316,0.536l-0.539,0.314L35.546,43.096z M13.088,42.988L13.088,42.988l-0.262-0.171
		l0.337-0.521l0.524,0.337l-0.338,0.523L13.088,42.988z M36.801,42.327l0.256-0.178l0.259-0.176l0.35,0.515l-0.514,0.351
		L36.801,42.327z M11.842,42.123l-0.25-0.188l0.373-0.498l0.5,0.372l-0.374,0.499L11.842,42.123z M37.998,41.471l0.488-0.386
		l0.387,0.488l-0.488,0.387L37.998,41.471z M10.659,41.176l-0.236-0.203l0.407-0.472l0.472,0.406l-0.406,0.472L10.659,41.176z
		 M9.545,40.148l-0.222-0.217l0.437-0.444l0.222,0.219l0.222,0.219l-0.438,0.444L9.545,40.148z M8.504,39.05l-0.206-0.232
		l0.466-0.413l0.412,0.467l-0.467,0.411L8.504,39.05z M7.539,37.881l-0.188-0.248l0.494-0.379l0.378,0.494l-0.493,0.38L7.539,37.881
		z M6.66,36.648L6.66,36.648L6.486,36.39l0.52-0.346l0.345,0.52l-0.519,0.344L6.66,36.648z M5.865,35.357l-0.153-0.271l0.542-0.307
		l0.307,0.542L6.02,35.629L5.865,35.357z M5.167,34.017L5.167,34.017L5.03,33.735l0.562-0.269l0.134,0.281l0.136,0.28l-0.563,0.269
		L5.167,34.017z M4.556,32.629l-0.113-0.29l0.578-0.229l0.23,0.578l-0.579,0.229L4.556,32.629z M4.047,31.201l-0.093-0.297
		l0.591-0.188l0.19,0.593l-0.593,0.189L4.047,31.201z M3.639,29.742l-0.075-0.303l0.604-0.146l0.148,0.604l-0.604,0.147
		L3.639,29.742z M45.828,29.332l0.132-0.609l0.608,0.132l-0.132,0.609L45.828,29.332z M3.335,28.295H3.332l-0.055-0.343
		l-0.043-0.274l0.615-0.098l0.148,0.881l-0.615,0.106L3.335,28.295z M46.11,27.886l0.09-0.616l0.617,0.09l-0.044,0.308l-0.046,0.308
		L46.11,27.886z M3.093,26.481L3.093,26.481l-0.027-0.309l0.619-0.058l0.056,0.62l-0.62,0.058L3.093,26.481z M46.294,26.424
		l0.046-0.62l0.621,0.046l-0.047,0.621L46.294,26.424z M3.007,24.969L3,24.658l0.622-0.014l0.013,0.623L3.012,25.28L3.007,24.969z
		 M46.375,24.954l0.002-0.622L47,24.336l-0.004,0.622L46.375,24.954z M3.011,23.765l0.013-0.311l0.014-0.311l0.623,0.029
		l-0.015,0.312l-0.015,0.31L3.011,23.765z M46.333,23.17L46.333,23.17l-0.02-0.311l0.623-0.038l0.02,0.31l0.02,0.311l-0.622,0.039
		L46.333,23.17z M3.111,22.253l0.072-0.619l0.619,0.072l-0.073,0.619L3.111,22.253z M46.189,21.705l-0.039-0.309l0.615-0.082
		l0.042,0.309l0.041,0.309l-0.617,0.081L46.189,21.705z M3.317,20.749l0.056-0.306l0.059-0.306l0.612,0.115L3.93,20.864
		L3.317,20.749z M45.947,20.251l-0.063-0.304l0.611-0.124l0.123,0.61l-0.609,0.124L45.947,20.251z M3.627,19.265l0.078-0.302
		l0.078-0.301l0.604,0.157L4.309,19.12L4.23,19.422L3.627,19.265z M45.606,18.819l-0.082-0.3l0.6-0.165l0.165,0.6l-0.6,0.165
		L45.606,18.819z M4.041,17.804l0.197-0.589l0.59,0.199l-0.099,0.293L4.63,18.002L4.041,17.804z M45.168,17.414L45.168,17.414
		l-0.102-0.295l0.588-0.205l0.102,0.294l0.104,0.294l-0.588,0.205L45.168,17.414z M4.55,16.378l0.241-0.576l0.574,0.239
		l-0.238,0.574L4.55,16.378z M5.16,14.989l0.139-0.279l0.14-0.28l0.556,0.279l-0.276,0.558L5.16,14.989z M43.288,13.425
		L43.288,13.425l-0.161-0.265l0.532-0.323l0.323,0.532l-0.533,0.322L43.288,13.425z M42.482,12.194l-0.18-0.254l0.51-0.359
		l0.358,0.509l-0.509,0.359L42.482,12.194z M7.537,11.121l0.387-0.491l0.487,0.387l-0.386,0.488L7.537,11.121z M41.595,11.023
		l-0.198-0.243l0.484-0.393l0.393,0.484l-0.483,0.392L41.595,11.023z M8.5,9.949l0.417-0.462L9.38,9.905l-0.42,0.463L8.5,9.949z
		 M40.625,9.913L40.625,9.913l-0.212-0.227l0.454-0.427l0.425,0.455l-0.454,0.426L40.625,9.913z M9.539,8.848l0.223-0.216
		l0.225-0.217l0.433,0.45l-0.449,0.43L9.539,8.848z M39.583,8.873L39.355,8.66l0.425-0.456l0.455,0.425l-0.424,0.456L39.583,8.873z
		 M10.652,7.82l0.477-0.401l0.4,0.478l-0.478,0.4L10.652,7.82z M38.473,7.906L38.23,7.71l0.394-0.485l0.481,0.392l-0.392,0.486
		L38.473,7.906z M11.833,6.871l0.503-0.366l0.367,0.503l-0.504,0.366L11.833,6.871z M37.298,7.018L37.298,7.018l-0.254-0.18
		l0.357-0.509l0.509,0.359l-0.357,0.508L37.298,7.018z M13.077,6.005L13.34,5.84l0.264-0.166l0.331,0.529L13.67,6.369l-0.264,0.164
		L13.077,6.005z M36.064,6.212l-0.267-0.161l0.323-0.533l0.267,0.161l0.266,0.161l-0.322,0.534L36.064,6.212z M14.377,5.229
		l0.549-0.293l0.293,0.549L14.67,5.778L14.377,5.229z M34.778,5.491L34.502,5.35l0.285-0.555l0.556,0.285l-0.287,0.555L34.778,5.491
		z M15.729,4.545l0.57-0.256l0.252,0.568l-0.283,0.127l-0.284,0.127L15.729,4.545z M33.447,4.862L33.447,4.862L33.161,4.74
		l0.246-0.571l0.287,0.122l0.286,0.124l-0.247,0.571L33.447,4.862z M17.125,3.953l0.292-0.106l0.293-0.108l0.212,0.586L17.34,4.538
		L17.125,3.953z M32.075,4.327L31.78,4.222l0.207-0.588l0.588,0.207l-0.207,0.588L32.075,4.327z M18.558,3.461l0.598-0.172
		l0.173,0.597L18.732,4.06L18.558,3.461z M30.669,3.885l-0.3-0.082l0.164-0.601l0.602,0.166l-0.166,0.601L30.669,3.885z
		 M20.023,3.069l0.608-0.131l0.131,0.608l-0.608,0.132L20.023,3.069z M29.236,3.542l-0.305-0.061l0.123-0.61l0.609,0.124
		l-0.123,0.61L29.236,3.542z M21.509,2.779l0.308-0.045V2.733l0.309-0.044l0.089,0.615l-0.614,0.091L21.509,2.779z M27.781,3.3
		l-0.307-0.039l0.078-0.617l0.619,0.081L28.09,3.341L27.781,3.3z M23.014,2.589l0.31-0.024l0.309-0.023l0.05,0.619L23.06,3.21
		L23.014,2.589z M26.316,3.161l-0.312-0.02l0.037-0.621l0.312,0.021l0.311,0.018L26.626,3.18L26.316,3.161z M24.527,2.503
		l0.623-0.005l0.005,0.622l-0.622,0.005L24.527,2.503z"/>
	<path style="clip-path:url(#SVGID_2_);fill:#FFFFFF;" d="M23.125,46.307v-0.676c-0.645-0.031-1.164-0.55-1.196-1.194h-0.676
		c-0.031,0.645-0.549,1.163-1.193,1.194v0.676c0.644,0.03,1.162,0.549,1.193,1.195h0.676C21.961,46.855,22.48,46.337,23.125,46.307
		 M22.041,46.017c-0.152,0.114-0.286,0.247-0.399,0.399l-0.05,0.067l-0.05-0.067c-0.113-0.152-0.247-0.285-0.398-0.399l-0.068-0.049
		l0.068-0.05c0.151-0.111,0.285-0.245,0.398-0.397l0.05-0.068l0.05,0.068c0.113,0.152,0.247,0.286,0.399,0.397l0.066,0.05
		L22.041,46.017z"/>
	<path style="clip-path:url(#SVGID_2_);fill:#FFFFFF;" d="M46.634,33.444v-2.818c0-0.148-0.121-0.271-0.271-0.271h-9.518
		c-0.151,0-0.271,0.122-0.271,0.271v2.818c0,0.216,0.007,0.437,0.021,0.654c0.083,1.253,0.403,2.468,0.956,3.613
		c0.008,0.016,0.017,0.032,0.023,0.05c0.008,0.017,0.018,0.034,0.024,0.051c0.063,0.124,0.129,0.247,0.209,0.391l0.025,0.046
		c0.027,0.053,0.056,0.104,0.084,0.154c0.01,0.015,0.017,0.03,0.025,0.045c0.008,0.015,0.015,0.029,0.024,0.044l0.529,0.788
		c0.806,1.102,1.806,2.005,2.971,2.684c0.082,0.049,0.189,0.049,0.273,0C44.759,40.203,46.634,36.939,46.634,33.444 M41.669,41.373
		l-0.065,0.041l-0.066-0.041c-1.111-0.687-2.055-1.594-2.801-2.692c-0.084-0.124-0.16-0.242-0.233-0.362l-0.028-0.046
		c-0.037-0.062-0.076-0.124-0.11-0.186c-0.059-0.103-0.114-0.204-0.169-0.308l-0.043-0.082c-0.037-0.069-0.074-0.139-0.107-0.211
		c-0.026-0.055-0.052-0.112-0.076-0.169l-0.034-0.077c-0.107-0.239-0.204-0.481-0.288-0.721c-0.008-0.022-0.017-0.044-0.024-0.066
		c-0.013-0.033-0.025-0.067-0.036-0.102c-0.044-0.134-0.085-0.274-0.115-0.386l-0.016-0.054c-0.018-0.063-0.035-0.125-0.051-0.188
		c-0.031-0.119-0.059-0.241-0.083-0.362c-0.021-0.097-0.04-0.196-0.058-0.295c-0.02-0.108-0.038-0.216-0.054-0.325
		c-0.019-0.127-0.03-0.252-0.044-0.38l-0.007-0.074c-0.008-0.062-0.014-0.124-0.019-0.186c-0.017-0.244-0.025-0.458-0.025-0.658
		v-2.546h8.975v2.546C46.09,36.648,44.396,39.687,41.669,41.373"/>
	<path style="clip-path:url(#SVGID_2_);fill:#FFFFFF;" d="M44.1,34.091l-2.894,2.893L39.9,35.677l-0.384,0.386l1.497,1.496
		c0.104,0.104,0.282,0.104,0.386,0l3.083-3.083L44.1,34.091z"/>
	<rect x="38.158" y="31.941" style="clip-path:url(#SVGID_2_);fill:#FFFFFF;" width="0.544" height="0.544"/>
	<rect x="39.745" y="31.941" style="clip-path:url(#SVGID_2_);fill:#FFFFFF;" width="0.544" height="0.544"/>
	<rect x="41.331" y="31.941" style="clip-path:url(#SVGID_2_);fill:#FFFFFF;" width="0.545" height="0.544"/>
	<rect x="42.918" y="31.941" style="clip-path:url(#SVGID_2_);fill:#FFFFFF;" width="0.543" height="0.544"/>
	<rect x="44.504" y="31.941" style="clip-path:url(#SVGID_2_);fill:#FFFFFF;" width="0.544" height="0.544"/>
	<path style="clip-path:url(#SVGID_2_);fill:#FFFFFF;" d="M22.218,29.02c0,0.996-1.871,2.106-4.558,2.106
		c-2.686,0-4.559-1.11-4.559-2.106v-1.046l0.102,0.088c0.956,0.816,2.622,1.304,4.457,1.304c1.132,0,2.198-0.186,3.073-0.52h-0.551
		v-0.544c-0.703,0.229-1.56,0.371-2.522,0.371c-2.686,0-4.559-1.109-4.559-2.106V25.52l0.102,0.088
		c0.956,0.817,2.622,1.305,4.457,1.305c0.74,0,1.451-0.08,2.099-0.228v-0.713c-0.615,0.156-1.322,0.249-2.099,0.249
		c-2.686,0-4.559-1.11-4.559-2.105v-1.048l0.102,0.088c0.956,0.818,2.622,1.305,4.457,1.305c0.74,0,1.451-0.08,2.099-0.228V23.52
		c-0.615,0.156-1.322,0.249-2.099,0.249c-2.686,0-4.559-1.111-4.559-2.106c0-0.923,1.585-1.986,4.147-2.096h0.821
		c0.624,0.028,1.191,0.111,1.69,0.235v-0.71c-0.522-0.118-1.092-0.194-1.692-0.218l0.002-0.062h-0.817l0.002,0.062
		c-2.764,0.109-4.846,1.308-4.846,2.789v7.357c0,1.569,2.308,2.799,5.252,2.799c2.945,0,5.252-1.229,5.252-2.799v-1.019h-0.694
		V29.02z"/>
	<path style="clip-path:url(#SVGID_2_);fill:#FFFFFF;" d="M22.188,28.001h-0.312v0.246c0.084-0.06,0.166-0.121,0.24-0.186
		L22.188,28.001z"/>
	<path style="clip-path:url(#SVGID_2_);fill:#FFFFFF;" d="M29.068,25.558c-0.036,0.093-0.063,0.191-0.084,0.292
		c0.027,0.006,0.056,0.014,0.084,0.019V25.558z"/>
	<path style="clip-path:url(#SVGID_2_);fill:#FFFFFF;" d="M29.11,25.461h0.382v0.289c0.146-0.408,0.466-0.729,0.867-0.834
		c0.022-0.039,0.042-0.076,0.063-0.11c0.039-0.069,0.073-0.129,0.098-0.19h-0.183v-0.167C29.796,24.557,29.343,24.941,29.11,25.461"
		/>
	<path style="clip-path:url(#SVGID_2_);fill:#FFFFFF;" d="M29.403,26.302c-0.039,0.002-0.081,0.006-0.125,0.006
		c-0.114,0-0.227-0.013-0.336-0.032v1.301h0.461V26.302z"/>
	<path style="clip-path:url(#SVGID_2_);fill:#FFFFFF;" d="M32.564,26.191l0.007,0.007l-0.007,0.008c0,0.014,0.002,0.027,0.002,0.042
		v1.673l-0.094-0.056c-0.076-0.044-0.158-0.087-0.241-0.126l-0.119-0.053c-0.025-0.011-0.051-0.021-0.076-0.031l-0.022-0.008
		c-0.232-0.087-0.475-0.144-0.722-0.169l-0.216,0.217l-0.231-0.231c-0.015,0.001-0.028,0.001-0.044,0.002l-0.021,0.003
		c-0.148,0.009-0.297,0.031-0.441,0.064V28h-1.396v0.288l-0.021,0.019c-0.604,0.587-0.95,1.412-0.95,2.266
		c0,1.718,1.352,3.113,3.015,3.113c1.661,0,3.012-1.396,3.012-3.113c0-0.854-0.346-1.679-0.95-2.266l-0.018-0.019v-2.04
		c0-0.274-0.06-0.542-0.167-0.787h-0.524C32.477,25.674,32.554,25.927,32.564,26.191 M33.536,30.572c0,1.462-1.144,2.651-2.55,2.651
		c-1.407,0-2.551-1.189-2.551-2.651c0-0.954,0.497-1.839,1.302-2.309l0.077-0.043c0.021-0.014,0.047-0.026,0.071-0.038l0.021-0.011
		c0.27-0.131,0.554-0.21,0.848-0.238c0.043-0.004,0.078-0.006,0.113-0.007l0.013-0.001c0.069-0.004,0.142-0.004,0.212,0
		c0.046,0.002,0.082,0.004,0.117,0.008c0.301,0.028,0.586,0.107,0.854,0.238l0.023,0.012c0.023,0.011,0.047,0.023,0.071,0.037
		l0.071,0.04C33.037,28.733,33.536,29.618,33.536,30.572"/>
	<path style="clip-path:url(#SVGID_2_);fill:#FFFFFF;" d="M31.79,30.096c0-0.444-0.36-0.806-0.804-0.806
		c-0.445,0-0.804,0.361-0.804,0.806c0,0.222,0.091,0.436,0.253,0.587l0.027,0.023l-0.216,0.967
		c-0.005,0.017-0.007,0.033-0.007,0.051c0,0.218,0.223,0.384,0.52,0.384h0.454c0.295,0,0.516-0.166,0.516-0.384
		c0-0.018-0.002-0.034-0.005-0.051l-0.216-0.967l0.025-0.024C31.696,30.531,31.79,30.317,31.79,30.096 M30.726,31.645l0.198-0.887
		h0.123l0.197,0.887H30.726z M31.142,30.398c-0.044,0.023-0.079,0.059-0.101,0.104l-0.055,0.112l-0.057-0.112
		c-0.022-0.045-0.057-0.08-0.102-0.104c-0.112-0.059-0.185-0.175-0.185-0.303c0-0.189,0.154-0.344,0.343-0.344
		c0.187,0,0.34,0.154,0.34,0.344C31.326,30.223,31.257,30.34,31.142,30.398"/>
	<path style="clip-path:url(#SVGID_2_);fill:#FFFFFF;" d="M24.202,24.403c0.584,0,1.059-0.473,1.059-1.057s-0.475-1.058-1.059-1.058
		c-0.583,0-1.057,0.474-1.057,1.058S23.619,24.403,24.202,24.403 M24.202,22.711c0.352,0,0.635,0.285,0.635,0.635
		c0,0.35-0.283,0.635-0.635,0.635c-0.349,0-0.634-0.285-0.634-0.635C23.568,22.996,23.853,22.711,24.202,22.711"/>
	<rect x="23.991" y="23.134" style="clip-path:url(#SVGID_2_);fill:#FFFFFF;" width="0.423" height="0.424"/>
	<path style="clip-path:url(#SVGID_2_);fill:#FFFFFF;" d="M20.182,21.23h1.926c-0.073-0.143-0.179-0.286-0.318-0.423h-1.608v-0.886
		c-0.134-0.044-0.276-0.084-0.423-0.12v3.718c0.147-0.038,0.287-0.078,0.423-0.122V21.23z"/>
	<path style="clip-path:url(#SVGID_2_);fill:#FFFFFF;" d="M21.875,28.248c-0.323,0.231-0.709,0.433-1.142,0.598h1.142V28.248z"/>
	<path style="clip-path:url(#SVGID_2_);fill:#FFFFFF;" d="M20.182,26.577c-0.137,0.04-0.278,0.074-0.423,0.107v1.316h0.423v0.301
		c0.148-0.048,0.29-0.099,0.424-0.154v-0.146h0.327c0.262-0.13,0.489-0.273,0.675-0.424h-1.426V26.577z"/>
	<polygon style="clip-path:url(#SVGID_2_);fill:#FFFFFF;" points="22.218,27.973 22.188,28 22.218,28 	"/>
	<path style="clip-path:url(#SVGID_2_);fill:#FFFFFF;" d="M20.182,24.125c-0.137,0.04-0.278,0.075-0.423,0.108v1.739
		c0.147-0.036,0.287-0.078,0.423-0.122V24.125z"/>
	<path style="clip-path:url(#SVGID_2_);fill:#FFFFFF;" d="M32.603,25.258c-0.018,0.002-0.036,0.003-0.053,0.003
		C32.566,25.261,32.585,25.26,32.603,25.258"/>
	<path style="clip-path:url(#SVGID_2_);fill:#FFFFFF;" d="M32.518,25.262h-0.083H32.518z"/>
	<path style="clip-path:url(#SVGID_2_);fill:#FFFFFF;" d="M28.223,19.116H27.8v-0.847h-0.424v0.847h-0.422v-0.847h-0.425v0.847
		h-0.423v-0.847h-0.424v0.847H25.26v-0.847h-0.423v0.847h-4.655v-1.27h7.37c-0.2-0.114-0.38-0.256-0.536-0.423h-0.062v-0.069
		c-0.185-0.214-0.33-0.464-0.425-0.737v0.806h-0.423v-0.846h-0.424v0.846H25.26v-0.846h-0.423v0.846h-4.655v-1.27h6.241
		c-0.01-0.087-0.017-0.175-0.017-0.265c0-0.054,0.004-0.106,0.007-0.157h-6.654v3.361c0.494,0.113,0.947,0.264,1.344,0.447h7.12
		v1.269H27.8v-0.846h-0.424v0.846h-0.422v-0.846h-0.425v0.846h-0.423v-0.846h-0.424v0.846H25.26v-0.846h-0.423v0.846h-2.168
		c0.079,0.136,0.141,0.277,0.183,0.423h4.516l-1.379,1.378l0.426,0.428c-0.047,0.099-0.089,0.203-0.126,0.309h-0.606v2.116h0.606
		c0.037,0.105,0.079,0.209,0.127,0.309l-0.427,0.428l1.379,1.378h-4.456v0.425h3.617v0.845h1.693v-0.845h0.72v-0.425h-0.296v-0.493
		l-0.152-0.045c-0.185-0.055-0.36-0.128-0.522-0.216l-0.139-0.074l-0.348,0.348l-0.897-0.897l0.348-0.348l-0.075-0.139
		c-0.088-0.162-0.16-0.338-0.216-0.523l-0.044-0.149h-0.494v-1.27h0.494l0.045-0.152c0.055-0.184,0.127-0.36,0.215-0.522
		l0.075-0.139l-0.348-0.348l0.897-0.898l0.348,0.348l0.139-0.075c0.163-0.088,0.339-0.159,0.522-0.215l0.152-0.044V21.23h1.269
		v0.494l0.151,0.044c0.184,0.056,0.359,0.127,0.522,0.215l0.139,0.075l0.349-0.348l0.896,0.898l-0.348,0.348l0.075,0.139
		c0.088,0.162,0.16,0.338,0.214,0.523l0.046,0.151h0.493v1.27H31.96l-0.046,0.15c-0.054,0.185-0.126,0.361-0.214,0.522l-0.075,0.139
		l0.348,0.348l-0.896,0.897l-0.349-0.348l-0.139,0.074c-0.163,0.088-0.339,0.161-0.522,0.216l-0.151,0.045v0.493h-0.511v0.345
		l0.093-0.056c0.079-0.045,0.16-0.088,0.251-0.131l0.082-0.036l-0.025-0.057l0.038,0.052l0.016-0.007
		c0.022-0.009,0.046-0.019,0.067-0.028h0.012l0.009-0.008c0.128-0.049,0.26-0.087,0.392-0.117v-0.139
		c0.106-0.037,0.21-0.08,0.31-0.128l0.197,0.197c0.01-0.001,0.019-0.001,0.027-0.002h0.022c0.061-0.002,0.12-0.002,0.183,0h0.021
		c0.024,0.002,0.049,0.003,0.07,0.004l0.022,0.002c0.032,0.002,0.066,0.007,0.101,0.011l1.272-1.272c0-0.005,0-0.01,0-0.015
		l-0.421-0.421c0.048-0.1,0.091-0.203,0.128-0.309h0.067c-0.042-0.067-0.09-0.13-0.142-0.188c-0.039,0.005-0.076,0.011-0.109,0.021
		l-0.018-0.06l-0.019-0.06c0.119-0.036,0.253-0.037,0.383-0.038c0.117,0,0.229-0.001,0.326-0.027l0.017,0.062l0.014,0.06
		c-0.021,0.006-0.045,0.01-0.067,0.014c0.008-0.002,0.016-0.002,0.023-0.004c0.043,0.07,0.081,0.146,0.116,0.221h0.013v-2.116
		h-0.604c-0.036-0.106-0.08-0.21-0.128-0.309l0.428-0.428l-1.495-1.496l-0.429,0.427c-0.1-0.047-0.203-0.089-0.31-0.127v-0.605
		h-1.691v-2.671c-0.146,0-0.288-0.016-0.424-0.042V19.116z M27.911,27.267c0.101,0.048,0.206,0.091,0.312,0.128v0.182h-0.62
		L27.911,27.267z M27.8,28.424h-0.846v-0.423H27.8V28.424z M28.223,21.413c-0.105,0.038-0.211,0.08-0.312,0.127l-0.309-0.309h0.62
		V21.413z"/>
	<path style="clip-path:url(#SVGID_2_);fill:#FFFFFF;" d="M32.295,25.266c-0.024,0.001-0.051,0.002-0.076,0.005
		C32.244,25.268,32.271,25.267,32.295,25.266"/>
	<path style="clip-path:url(#SVGID_2_);fill:#FFFFFF;" d="M32.435,25.262c-0.035,0.001-0.069,0.001-0.104,0.002
		C32.365,25.263,32.399,25.263,32.435,25.262"/>
	<path style="clip-path:url(#SVGID_2_);fill:#FFFFFF;" d="M32.688,25.251c-0.017,0.002-0.033,0.003-0.05,0.004
		C32.654,25.254,32.671,25.253,32.688,25.251"/>
	<path style="clip-path:url(#SVGID_2_);fill:#FFFFFF;" d="M22.108,21.23h0.744c-0.042-0.146-0.104-0.287-0.183-0.423h-0.879
		C21.929,20.944,22.035,21.087,22.108,21.23"/>
	<path style="clip-path:url(#SVGID_2_);fill:#FFFFFF;" d="M20.182,25.85c-0.136,0.044-0.276,0.085-0.423,0.122v0.713
		c0.145-0.033,0.286-0.068,0.423-0.108V25.85z"/>
	<path style="clip-path:url(#SVGID_2_);fill:#FFFFFF;" d="M21.608,27.577c-0.187,0.15-0.414,0.294-0.675,0.424h0.52v0.423h-0.847
		v-0.276c-0.134,0.056-0.276,0.106-0.424,0.154v0.544h0.551c0.432-0.165,0.818-0.366,1.142-0.598v-0.247h0.312l0.031-0.028v0.028
		h0.694v-0.424H21.608z"/>
	<path style="clip-path:url(#SVGID_2_);fill:#FFFFFF;" d="M20.182,19.921v-0.383h0.921c-0.397-0.183-0.85-0.334-1.344-0.447v0.71
		C19.906,19.838,20.048,19.878,20.182,19.921"/>
	<path style="clip-path:url(#SVGID_2_);fill:#FFFFFF;" d="M20.182,23.397c-0.136,0.044-0.276,0.085-0.423,0.123v0.713
		c0.145-0.033,0.286-0.069,0.423-0.108V23.397z"/>
	<polygon style="clip-path:url(#SVGID_2_);fill:#FFFFFF;" points="32.564,26.191 32.564,26.206 32.571,26.198 	"/>
	<path style="clip-path:url(#SVGID_2_);fill:#FFFFFF;" d="M31.292,27.479c-0.034-0.003-0.068-0.009-0.101-0.011l-0.022-0.002
		c-0.021-0.001-0.045-0.002-0.069-0.004h-0.022c-0.063-0.002-0.122-0.002-0.183,0h-0.021c-0.01,0.001-0.018,0.001-0.028,0.002
		l0.231,0.23L31.292,27.479z"/>
	<path style="clip-path:url(#SVGID_2_);fill:#FFFFFF;" d="M32.724,25.245c-0.013,0.002-0.023,0.004-0.036,0.006
		c-0.017,0.002-0.033,0.004-0.05,0.005c-0.011,0.001-0.023,0.002-0.034,0.003c-0.019,0.001-0.037,0.002-0.054,0.002
		c-0.011,0-0.021,0-0.032,0.001h-0.083c-0.034,0.001-0.069,0.001-0.104,0.002c-0.012,0-0.023,0.001-0.035,0.002
		c-0.024,0.001-0.051,0.002-0.076,0.005l-0.021,0.003c0.052,0.059,0.1,0.121,0.142,0.188h0.524c-0.035-0.075-0.073-0.15-0.116-0.221
		C32.739,25.243,32.731,25.243,32.724,25.245"/>
	<path style="clip-path:url(#SVGID_2_);fill:#FFFFFF;" d="M30.338,27.534c-0.132,0.029-0.264,0.067-0.392,0.116l-0.01,0.009h-0.011
		c-0.021,0.009-0.045,0.019-0.066,0.027l-0.017,0.007l-0.038-0.052l0.026,0.057l-0.082,0.036c-0.092,0.043-0.173,0.086-0.251,0.131
		l-0.094,0.056v-0.344h-0.462v0.424h1.396V27.534z"/>
	<path style="clip-path:url(#SVGID_2_);fill:#FFFFFF;" d="M32.777,25.172l-0.017-0.062c-0.097,0.026-0.209,0.027-0.326,0.027
		c-0.13,0.001-0.264,0.002-0.383,0.038l0.019,0.06c0.119-0.037,0.257-0.035,0.394-0.036L32.777,25.172z"/>
	<path style="clip-path:url(#SVGID_2_);fill:#FFFFFF;" d="M32.219,25.271c0.025-0.004,0.051-0.005,0.077-0.006
		c0.011-0.001,0.022-0.002,0.034-0.002c0.035-0.001,0.069-0.001,0.104-0.002h0.082c0.011-0.001,0.022-0.001,0.033-0.002
		c0.017,0,0.035-0.001,0.053-0.002c0.013-0.001,0.024-0.002,0.035-0.003c0.018-0.001,0.033-0.002,0.05-0.004
		c0.013-0.002,0.023-0.004,0.036-0.005c0.022-0.004,0.046-0.009,0.068-0.015l-0.016-0.061c-0.097,0.025-0.204,0.028-0.313,0.029
		l-0.394,0.035l0.019,0.06c0.033-0.01,0.069-0.017,0.108-0.021c0-0.001,0-0.001-0.002-0.001
		C32.203,25.272,32.212,25.272,32.219,25.271"/>
	<path style="clip-path:url(#SVGID_2_);fill:#FFFFFF;" d="M32.195,25.272c0.002,0,0.002,0,0.002,0.001l0.021-0.003
		C32.212,25.271,32.203,25.271,32.195,25.272"/>
	<path style="clip-path:url(#SVGID_2_);fill:#FFFFFF;" d="M32.33,25.264c-0.012,0-0.023,0.001-0.035,0.002
		C32.307,25.265,32.318,25.264,32.33,25.264"/>
	<path style="clip-path:url(#SVGID_2_);fill:#FFFFFF;" d="M32.638,25.256c-0.011,0.001-0.023,0.002-0.035,0.003
		C32.614,25.258,32.627,25.257,32.638,25.256"/>
	<path style="clip-path:url(#SVGID_2_);fill:#FFFFFF;" d="M32.724,25.245c-0.013,0.002-0.023,0.004-0.036,0.006
		C32.7,25.249,32.711,25.247,32.724,25.245"/>
	<path style="clip-path:url(#SVGID_2_);fill:#FFFFFF;" d="M32.55,25.261c-0.011,0-0.022,0-0.033,0.001
		C32.527,25.261,32.539,25.261,32.55,25.261"/>
	<path style="clip-path:url(#SVGID_2_);fill:#FFFFFF;" d="M32.07,25.235l0.394-0.036C32.326,25.2,32.189,25.198,32.07,25.235"/>
	<path style="clip-path:url(#SVGID_2_);fill:#FFFFFF;" d="M32.777,25.172l-0.313,0.027C32.572,25.198,32.68,25.195,32.777,25.172"/>
	<path style="clip-path:url(#SVGID_2_);fill:#FFFFFF;" d="M31.185,24.403c0-1.049-0.854-1.903-1.905-1.903
		c-1.049,0-1.903,0.854-1.903,1.903c0,0.935,0.677,1.713,1.566,1.873v-0.027c0-0.138,0.015-0.27,0.043-0.398
		c-0.218-0.044-0.419-0.134-0.59-0.262l0.287-0.287l-0.301-0.299l-0.285,0.287c-0.146-0.194-0.244-0.424-0.28-0.674h0.406v-0.422
		h-0.406c0.036-0.251,0.134-0.48,0.28-0.674l0.285,0.286l0.301-0.298l-0.287-0.288c0.193-0.144,0.423-0.243,0.674-0.28v0.407h0.423
		v-0.407c0.25,0.037,0.479,0.136,0.674,0.28l-0.288,0.288l0.301,0.298l0.285-0.286c0.146,0.194,0.244,0.423,0.281,0.674h-0.407
		v0.256c0.075-0.015,0.15-0.026,0.228-0.03c-0.004,0.074-0.02,0.136-0.044,0.196h0.224c-0.037,0.25-0.136,0.48-0.281,0.674
		l-0.285-0.287l-0.301,0.299l0.288,0.287c-0.194,0.146-0.424,0.244-0.674,0.28V25.75c-0.057,0.156-0.088,0.324-0.088,0.498v0.053
		C30.396,26.236,31.185,25.411,31.185,24.403"/>
	<path style="clip-path:url(#SVGID_2_);fill:#FFFFFF;" d="M29.068,25.558c0.014-0.033,0.027-0.064,0.042-0.096h-0.042V25.558z"/>
	<path style="clip-path:url(#SVGID_2_);fill:#FFFFFF;" d="M30.521,24.615c0.024-0.06,0.04-0.123,0.044-0.197
		c-0.077,0.004-0.152,0.016-0.228,0.03v0.167H30.521z"/>
	<path style="clip-path:url(#SVGID_2_);fill:#FFFFFF;" d="M29.492,25.75v-0.289H29.11c-0.015,0.033-0.028,0.063-0.042,0.097v0.311
		c-0.028-0.005-0.056-0.012-0.084-0.019c-0.027,0.129-0.042,0.262-0.042,0.398v0.027c0.11,0.02,0.222,0.032,0.337,0.032
		c0.042,0,0.084-0.004,0.124-0.007v-0.053C29.403,26.074,29.435,25.906,29.492,25.75"/>
	<path style="clip-path:url(#SVGID_2_);fill:#FFFFFF;" d="M28.223,17.846h-0.671c0.206,0.116,0.432,0.202,0.671,0.249V17.846z"/>
	<path style="clip-path:url(#SVGID_2_);fill:#FFFFFF;" d="M26.423,16.152c0.021,0.161,0.056,0.316,0.106,0.464v-0.04h0.425v0.778
		c0.02,0.023,0.04,0.046,0.062,0.068h0.36v-0.567c-0.153-0.203-0.259-0.442-0.303-0.703H26.423z"/>
	<path style="clip-path:url(#SVGID_2_);fill:#FFFFFF;" d="M36.373,13.637h-0.018c-0.16-1.445-1.388-2.571-2.875-2.571
		c-1.007,0-1.919,0.51-2.447,1.352c-0.146-0.045-0.296-0.067-0.447-0.067c-0.786,0-1.441,0.568-1.581,1.313
		c-0.115-0.018-0.231-0.027-0.349-0.027c-1.188,0-2.16,0.925-2.243,2.094h0.646c0.079-0.813,0.765-1.451,1.598-1.451
		c0.184,0,0.368,0.032,0.546,0.098c0.104,0.037,0.22,0.019,0.307-0.049c0.088-0.067,0.134-0.174,0.122-0.283l-0.009-0.088
		c0-0.532,0.433-0.964,0.964-0.964c0.148,0,0.298,0.039,0.44,0.114c0.077,0.039,0.166,0.046,0.249,0.02
		c0.082-0.028,0.15-0.086,0.189-0.163c0.382-0.776,1.154-1.257,2.016-1.257c1.24,0,2.25,1.01,2.25,2.242
		c0,0.007-0.002,0.03-0.002,0.038c0,0.095,0.042,0.185,0.114,0.246c0.072,0.06,0.168,0.087,0.262,0.071
		c0.097-0.017,0.186-0.025,0.269-0.025c0.887,0,1.608,0.722,1.608,1.607c0,0.888-0.722,1.608-1.608,1.608h-7.717h-0.011v0.642
		c0.004,0,0.008,0.001,0.011,0.001h3.538h0.644h3.535c1.242,0,2.25-1.009,2.25-2.251C38.623,14.646,37.615,13.637,36.373,13.637"/>
	<path style="clip-path:url(#SVGID_2_);fill:#FFFFFF;" d="M27.8,17.422h0.379c-0.135-0.042-0.262-0.103-0.379-0.177V17.422z"/>
	<path style="clip-path:url(#SVGID_2_);fill:#FFFFFF;" d="M26.423,16.152h0.65c-0.016-0.086-0.024-0.175-0.024-0.265
		c0-0.053,0.004-0.106,0.009-0.157h-0.644c-0.004,0.051-0.008,0.104-0.008,0.157C26.406,15.978,26.414,16.065,26.423,16.152"/>
	<path style="clip-path:url(#SVGID_2_);fill:#FFFFFF;" d="M28.18,17.422H27.8v-0.177c-0.165-0.104-0.308-0.237-0.424-0.39v0.567
		h-0.359c0.155,0.167,0.335,0.31,0.535,0.423h0.672v0.249c0.135,0.027,0.277,0.042,0.423,0.042v-0.642
		C28.483,17.495,28.327,17.469,28.18,17.422"/>
	<path style="clip-path:url(#SVGID_2_);fill:#FFFFFF;" d="M26.528,16.577v0.04c0.097,0.273,0.24,0.523,0.426,0.737v-0.777H26.528z"
		/>
	<rect x="36.051" y="14.923" style="clip-path:url(#SVGID_2_);fill:#FFFFFF;" width="0.646" height="0.644"/>
	<rect x="36.051" y="16.208" style="clip-path:url(#SVGID_2_);fill:#FFFFFF;" width="0.646" height="0.644"/>
	<rect x="34.766" y="16.208" style="clip-path:url(#SVGID_2_);fill:#FFFFFF;" width="0.644" height="0.644"/>
</g>
</svg>
