<?xml version="1.0" encoding="iso-8859-1"?>
<!-- Generator: Adobe Illustrator 15.1.0, SVG Export Plug-In . SVG Version: 6.00 Build 0)  -->
<!DOCTYPE svg PUBLIC "-//W3C//DTD SVG 1.1//EN" "http://www.w3.org/Graphics/SVG/1.1/DTD/svg11.dtd">
<svg version="1.1" id="Layer_1" xmlns="http://www.w3.org/2000/svg" xmlns:xlink="http://www.w3.org/1999/xlink" x="0px" y="0px"
	 width="50px" height="50px" viewBox="0 0 50 50" style="enable-background:new 0 0 50 50;" xml:space="preserve">
<path style="fill:#FFFFFF;" d="M23.408,45.756L23.408,45.756l-0.294-0.007l0.011-0.588l0.59,0.011l-0.012,0.59L23.408,45.756z
	 M24.52,45.159l0.59-0.027l0.029,0.588l-0.589,0.029L24.52,45.159z M21.974,45.678l-0.293-0.025l0.051-0.588l0.589,0.052
	l-0.052,0.588L21.974,45.678z M25.913,45.064l0.294-0.035l0.292-0.035l0.068,0.587l-0.293,0.035l-0.293,0.033L25.913,45.064z
	 M20.55,45.501l-0.291-0.046l0.093-0.583l0.583,0.094l-0.094,0.583L20.55,45.501z M19.139,45.225l-0.287-0.066l0.134-0.574
	l0.574,0.134l-0.133,0.574L19.139,45.225z M17.75,44.852l-0.282-0.086l0.174-0.563l0.564,0.172l-0.173,0.565L17.75,44.852z
	 M30.005,44.212l0.56-0.187l0.187,0.559l-0.279,0.093l-0.279,0.096L30.005,44.212z M16.393,44.383l-0.274-0.105l0.211-0.55
	l0.55,0.212l-0.211,0.55L16.393,44.383z M31.319,43.743l0.543-0.226l0.228,0.547l-0.546,0.225L31.319,43.743z M15.07,43.823
	l-0.267-0.124l0.25-0.536l0.534,0.25l-0.248,0.535L15.07,43.823z M32.597,43.185l0.265-0.131l0.264-0.132l0.263,0.528l-0.264,0.133
	l-0.265,0.13L32.597,43.185z M13.79,43.173L13.79,43.173l-0.258-0.142l0.285-0.517l0.517,0.284l-0.286,0.517L13.79,43.173z
	 M33.832,42.539l0.509-0.299l0.299,0.51l-0.509,0.299L33.832,42.539z M12.559,42.437h-0.002l-0.248-0.159l0.319-0.497l0.25,0.16
	h-0.001l0.248,0.161l-0.319,0.495L12.559,42.437z M11.378,41.618L11.378,41.618l-0.237-0.176l0.353-0.474l0.473,0.354l-0.354,0.472
	L11.378,41.618z M10.258,40.721l-0.224-0.192l0.384-0.447l0.449,0.384l-0.385,0.448L10.258,40.721z M9.203,39.749l-0.212-0.207
	l0.416-0.421l0.419,0.415l-0.415,0.419L9.203,39.749z M8.213,38.707L8.213,38.707L8.02,38.484l0.441-0.39l0.391,0.441l-0.441,0.391
	L8.213,38.707z M7.303,37.599l-0.18-0.233l0.467-0.359l0.179,0.235v-0.002l0.18,0.234l-0.467,0.359L7.303,37.599z M6.468,36.432
	l-0.163-0.246l0.491-0.325l0.164,0.246H6.958l0.164,0.245l-0.493,0.325L6.468,36.432z M5.716,35.21l-0.144-0.257l0.512-0.291
	l0.291,0.513l-0.512,0.291L5.716,35.21z M5.052,33.939l-0.128-0.268l0.533-0.254l0.254,0.531L5.18,34.204L5.052,33.939z
	 M4.477,32.623L4.477,32.623L4.368,32.35l0.548-0.219l0.218,0.55l-0.55,0.217L4.477,32.623z M3.994,31.272l-0.09-0.282l0.562-0.18
	l0.18,0.563l-0.563,0.179L3.994,31.272z M3.604,29.889l-0.07-0.286l0.573-0.141l0.14,0.573l-0.574,0.141L3.604,29.889z
	 M43.572,29.499l0.125-0.574l0.577,0.125l-0.125,0.576L43.572,29.499z M3.316,28.517L3.316,28.517l-0.055-0.323l0.002-0.001
	l-0.042-0.259l0.583-0.092l0.088,0.542l0.051,0.29l-0.58,0.102L3.316,28.517z M43.841,28.13l0.085-0.584l0.583,0.086l-0.083,0.583
	L43.841,28.13z M3.09,26.802L3.09,26.802l-0.027-0.294l0.587-0.055l0.054,0.588l-0.587,0.055L3.09,26.802z M44.014,26.746
	l0.044-0.588l0.589,0.044l-0.044,0.589L44.014,26.746z M3.007,25.368L3.007,25.368L3,25.073l0.589-0.015l0.015,0.59l-0.59,0.014
	L3.007,25.368z M44.09,25.354l0.004-0.588l0.591,0.001l-0.004,0.59L44.09,25.354z M3.01,24.227l0.028-0.589l0.589,0.028
	l-0.013,0.293L3.6,24.253L3.01,24.227z M44.051,23.664l-0.019-0.294l0.59-0.039l0.019,0.296l0.019,0.295l-0.589,0.035L44.051,23.664
	z M3.105,22.794l0.069-0.586l0.586,0.068l-0.034,0.292l-0.034,0.293L3.105,22.794z M43.915,22.274l-0.038-0.292l0.585-0.078
	l0.039,0.293l0.039,0.293l-0.585,0.077L43.915,22.274z M3.302,21.371l0.109-0.581l0.579,0.108L3.88,21.48L3.302,21.371z
	 M43.686,20.898l-0.059-0.288l0.578-0.118l0.117,0.579l-0.579,0.117L43.686,20.898z M3.594,19.962l0.076-0.284v-0.001l0.075-0.284
	l0.571,0.148l-0.074,0.286L4.24,19.826l-0.074,0.285L3.594,19.962z M3.986,18.58l0.094-0.279l0.094-0.279l0.56,0.187l-0.19,0.56
	L3.986,18.58z M4.47,17.23l0.227-0.546l0.546,0.225l-0.228,0.544L4.47,17.23z M42.442,16.909l-0.118-0.27l0.544-0.234l0.115,0.272
	l0.117,0.271l-0.542,0.233L42.442,16.909z M5.047,15.913l0.263-0.528l0.527,0.263l-0.261,0.529L5.047,15.913z M41.847,15.648
	L41.847,15.648l-0.135-0.261l0.524-0.272l0.271,0.525l-0.524,0.271L41.847,15.648z M5.713,14.641l0.15-0.255l0.148-0.254
	l0.509,0.299l-0.148,0.254l-0.151,0.254L5.713,14.641z M41.167,14.432L41.167,14.432l-0.153-0.252l0.505-0.306l0.306,0.504
	l-0.504,0.307L41.167,14.432z M6.466,13.416l0.333-0.484l0.487,0.33l-0.333,0.487L6.466,13.416z M40.404,13.266l-0.17-0.242
	l0.481-0.338l0.34,0.481l-0.481,0.341L40.404,13.266z M7.299,12.248l0.366-0.464l0.462,0.365l-0.365,0.464L7.299,12.248z
	 M39.562,12.155l-0.186-0.229l0.456-0.373l0.374,0.458l-0.458,0.372L39.562,12.155z M8.21,11.14l0.199-0.219H8.408l0.198-0.22
	l0.438,0.398l-0.396,0.435L8.21,11.14z M38.645,11.105L38.645,11.105l-0.202-0.217l0.432-0.403l0.201,0.216l0.202,0.215
	l-0.431,0.404L38.645,11.105z M9.196,10.095l0.425-0.409l0.41,0.424l-0.214,0.206l-0.212,0.205L9.196,10.095z M37.656,10.118
	l-0.214-0.201l0.402-0.431l0.214,0.201l0.217,0.2l-0.402,0.432L37.656,10.118z M36.604,9.202l-0.228-0.185l0.372-0.458l0.459,0.372
	l-0.372,0.457L36.604,9.202z M35.492,8.361L35.492,8.361l-0.241-0.169l0.339-0.483l0.242,0.17l0.241,0.17l-0.34,0.482L35.492,8.361z
	 M12.546,7.403l0.249-0.156V7.246l0.25-0.155l0.315,0.499l-0.501,0.312L12.546,7.403z M34.323,7.598l-0.251-0.154l0.305-0.504
	l0.505,0.307L34.576,7.75L34.323,7.598z M13.778,6.667l0.521-0.278l0.279,0.52l-0.523,0.28L13.778,6.667z M33.106,6.917
	L33.106,6.917L32.844,6.78l0.271-0.523l0.522,0.27l-0.269,0.525L33.106,6.917z M15.06,6.017l0.538-0.24l0.24,0.538l-0.537,0.242
	L15.06,6.017z M31.844,6.319l-0.271-0.117l0.234-0.541l0.542,0.234l-0.234,0.541L31.844,6.319z M16.38,5.459l0.555-0.203
	l0.203,0.554l-0.555,0.203L16.38,5.459z M30.545,5.812l-0.279-0.098l0.197-0.558l0.556,0.197l-0.195,0.556L30.545,5.812z
	 M17.74,4.994l0.567-0.165l0.165,0.566l-0.569,0.164L17.74,4.994z M29.213,5.394l-0.284-0.08l0.156-0.567l0.569,0.156l-0.157,0.569
	L29.213,5.394z M19.126,4.622l0.576-0.126l0.126,0.578L19.25,5.198L19.126,4.622z M27.854,5.07l-0.289-0.059l0.117-0.578
	l0.578,0.118l-0.117,0.576L27.854,5.07z M20.537,4.345l0.292-0.041l0.291-0.043l0.086,0.584L20.622,4.93L20.537,4.345z
	 M26.477,4.842L26.477,4.842l-0.292-0.04l0.077-0.584l0.292,0.038l0.293,0.038L26.77,4.879L26.477,4.842z M21.959,4.166l0.588-0.046
	l0.047,0.589l-0.589,0.046L21.959,4.166z M25.09,4.708l-0.295-0.019l0.036-0.588l0.293,0.017h0.001l0.293,0.019l-0.035,0.589
	L25.09,4.708z M23.394,4.085l0.591-0.007l0.004,0.591l-0.59,0.006L23.394,4.085z"/>
<path style="fill:#FFFFFF;" d="M33.645,35.827l-0.005-4.342l5.345-0.727v5.068H33.645z M39.874,30.63l7.124-1.037v6.234h-7.124
	V30.63z M47,36.718l-0.002,6.234l-7.124-1.003v-5.231H47z M38.984,41.836l-5.341-0.731v-4.387h5.341V41.836z"/>
<g>
	<defs>
		<rect id="SVGID_1_" width="50" height="50"/>
	</defs>
	<clipPath id="SVGID_2_">
		<use xlink:href="#SVGID_1_"  style="overflow:visible;"/>
	</clipPath>
	<path style="clip-path:url(#SVGID_2_);fill:#FFFFFF;" d="M34.482,23.969h-0.016c-0.14-1.257-1.208-2.238-2.502-2.238
		c-0.414,0-0.808,0.1-1.157,0.281v0.656c0.328-0.241,0.729-0.378,1.157-0.378c1.08,0,1.958,0.88,1.958,1.951
		c0,0.007-0.001,0.027-0.001,0.034c0,0.083,0.036,0.16,0.1,0.214c0.063,0.052,0.146,0.076,0.227,0.062
		c0.086-0.015,0.162-0.021,0.234-0.021c0.773,0,1.399,0.626,1.399,1.398s-0.626,1.399-1.399,1.399h-6.717
		c-0.666,0-1.226-0.47-1.364-1.096h-0.568c0.146,0.937,0.957,1.655,1.933,1.655h3.079h0.561h3.077c1.08,0,1.96-0.878,1.96-1.959
		C36.442,24.849,35.563,23.969,34.482,23.969"/>
	<path style="clip-path:url(#SVGID_2_);fill:#FFFFFF;" d="M30.117,22.538c-0.05,0.055-0.098,0.112-0.144,0.172
		C30.027,22.655,30.075,22.599,30.117,22.538"/>
	<rect x="34.203" y="25.09" style="clip-path:url(#SVGID_2_);fill:#FFFFFF;" width="0.561" height="0.559"/>
	<rect x="34.203" y="26.208" style="clip-path:url(#SVGID_2_);fill:#FFFFFF;" width="0.561" height="0.561"/>
	<rect x="33.084" y="26.208" style="clip-path:url(#SVGID_2_);fill:#FFFFFF;" width="0.56" height="0.561"/>
	<path style="clip-path:url(#SVGID_2_);fill:#FFFFFF;" d="M19.677,23.011v0.751c0.052-0.114,0.083-0.241,0.083-0.376
		C19.76,23.251,19.729,23.125,19.677,23.011"/>
	<path style="clip-path:url(#SVGID_2_);fill:#FFFFFF;" d="M29.444,23.41c-0.25,0-0.476,0.111-0.63,0.287
		c0.338-0.015,0.651-0.095,0.928-0.228C29.644,23.431,29.545,23.41,29.444,23.41"/>
	<path style="clip-path:url(#SVGID_2_);fill:#FFFFFF;" d="M25.818,25.726h-3.579c-1.134,0-2.057-0.718-2.057-1.602v-0.467
		c-0.059,0.289-0.211,0.545-0.423,0.736v0.264c0.08,0.254,0.219,0.49,0.4,0.697c0.681,0.167,1.316,0.466,1.877,0.871
		c0.067,0.005,0.135,0.007,0.203,0.007h3.594c-0.015-0.1-0.026-0.199-0.026-0.304C25.807,25.859,25.811,25.793,25.818,25.726"/>
	<path style="clip-path:url(#SVGID_2_);fill:#FFFFFF;" d="M30.301,23.22v1.275c0,0.679-0.715,1.231-1.594,1.231h-2.323
		c-0.01,0.066-0.017,0.134-0.017,0.202c0,0.104,0.013,0.206,0.034,0.304h2.306c1.158,0,2.101-0.779,2.101-1.737v-1.827
		C30.607,22.816,30.436,23,30.301,23.22"/>
	<path style="clip-path:url(#SVGID_2_);fill:#FFFFFF;" d="M20.182,23.111V22.84c0.467,0.52,1.211,0.862,2.057,0.862h5.92
		c0.083-0.195,0.209-0.367,0.367-0.505h-6.287c-1.134,0-2.057-0.719-2.057-1.603v-1.283c0.467,0.519,1.211,0.863,2.057,0.863h6.468
		c0.641,0,1.209-0.245,1.595-0.62v1.411c0,0.207-0.067,0.402-0.185,0.573c0.198-0.216,0.434-0.393,0.69-0.526v-2.575
		c0-0.746-0.573-1.399-1.413-1.638c-0.206-1.527-1.785-2.697-3.69-2.697c-1.497,0-2.847,0.738-3.423,1.856
		c-0.014-0.001-0.028-0.001-0.042-0.001c-1.413,0-2.563,0.945-2.563,2.108v3.246C19.93,22.505,20.115,22.787,20.182,23.111
		 M22.239,17.463c0.037,0,0.075,0.003,0.11,0.007l0.067,0.005c0.112,0.009,0.208-0.053,0.251-0.151
		c0.445-1.027,1.666-1.716,3.037-1.716c1.715,0,3.122,1.059,3.204,2.409c0.007,0.115,0.09,0.211,0.202,0.233
		c0.7,0.144,1.191,0.631,1.191,1.187c0,0.677-0.716,1.23-1.595,1.23h-6.468c-1.134,0-2.057-0.72-2.057-1.602
		C20.182,18.182,21.105,17.463,22.239,17.463"/>
	<path style="clip-path:url(#SVGID_2_);fill:#FFFFFF;" d="M29.759,22.888c0.024,0.007,0.05,0.013,0.076,0.021
		c0.043-0.069,0.09-0.135,0.139-0.199C29.909,22.775,29.838,22.833,29.759,22.888"/>
	<path style="clip-path:url(#SVGID_2_);fill:#FFFFFF;" d="M30.117,22.538c-0.042,0.061-0.09,0.117-0.144,0.172
		c-0.049,0.063-0.096,0.13-0.139,0.198c-0.026-0.008-0.052-0.014-0.076-0.02c-0.282,0.191-0.647,0.309-1.052,0.309h-0.181
		c-0.158,0.138-0.284,0.31-0.367,0.505h0.548c0.036,0,0.072-0.004,0.107-0.005c0.154-0.176,0.38-0.287,0.63-0.287
		c0.101,0,0.199,0.021,0.298,0.059c0.212-0.102,0.401-0.232,0.559-0.386v0.137c0.135-0.219,0.307-0.405,0.507-0.552v-0.656
		C30.55,22.144,30.315,22.322,30.117,22.538"/>
	<path style="clip-path:url(#SVGID_2_);fill:#FFFFFF;" d="M26.367,25.928c0-0.068,0.007-0.136,0.017-0.202h-0.565
		c-0.008,0.067-0.012,0.134-0.012,0.202c0,0.104,0.012,0.204,0.026,0.304h0.568C26.38,26.134,26.367,26.031,26.367,25.928"/>
	<path style="clip-path:url(#SVGID_2_);fill:#FFFFFF;" d="M21.447,21.426c-0.141,0-0.253,0.113-0.253,0.253v0.506
		c0,0.139,0.112,0.253,0.253,0.253c0.14,0,0.253-0.114,0.253-0.253v-0.506C21.7,21.539,21.587,21.426,21.447,21.426"/>
	<path style="clip-path:url(#SVGID_2_);fill:#FFFFFF;" d="M22.459,21.679c-0.14,0-0.253,0.112-0.253,0.252v0.507
		c0,0.139,0.113,0.253,0.253,0.253c0.141,0,0.254-0.114,0.254-0.253v-0.507C22.713,21.791,22.6,21.679,22.459,21.679"/>
	<path style="clip-path:url(#SVGID_2_);fill:#FFFFFF;" d="M23.471,21.679c-0.14,0-0.253,0.112-0.253,0.252v0.507
		c0,0.139,0.113,0.253,0.253,0.253s0.253-0.114,0.253-0.253v-0.507C23.724,21.791,23.611,21.679,23.471,21.679"/>
	<path style="clip-path:url(#SVGID_2_);fill:#FFFFFF;" d="M28.784,21.679c-0.279,0-0.507,0.226-0.507,0.506
		c0,0.279,0.228,0.506,0.507,0.506s0.506-0.227,0.506-0.506C29.29,21.905,29.063,21.679,28.784,21.679"/>
	<path style="clip-path:url(#SVGID_2_);fill:#FFFFFF;" d="M27.267,21.679c-0.279,0-0.507,0.226-0.507,0.506
		c0,0.279,0.228,0.506,0.507,0.506c0.278,0,0.504-0.227,0.504-0.506C27.771,21.905,27.545,21.679,27.267,21.679"/>
	<path style="clip-path:url(#SVGID_2_);fill:#FFFFFF;" d="M21.447,23.955c-0.141,0-0.253,0.112-0.253,0.253v0.506
		c0,0.14,0.112,0.254,0.253,0.254c0.14,0,0.253-0.114,0.253-0.254v-0.506C21.7,24.067,21.587,23.955,21.447,23.955"/>
	<path style="clip-path:url(#SVGID_2_);fill:#FFFFFF;" d="M22.459,24.208c-0.14,0-0.253,0.113-0.253,0.253v0.507
		c0,0.14,0.113,0.253,0.253,0.253c0.141,0,0.254-0.113,0.254-0.253v-0.507C22.713,24.321,22.6,24.208,22.459,24.208"/>
	<path style="clip-path:url(#SVGID_2_);fill:#FFFFFF;" d="M23.471,24.208c-0.14,0-0.253,0.113-0.253,0.253v0.507
		c0,0.14,0.113,0.253,0.253,0.253s0.253-0.113,0.253-0.253v-0.507C23.724,24.321,23.611,24.208,23.471,24.208"/>
	<path style="clip-path:url(#SVGID_2_);fill:#FFFFFF;" d="M28.615,24.325c0.009,0.095-0.032,0.188-0.107,0.247
		c-0.063,0.049-0.145,0.066-0.221,0.053c-0.006,0.028-0.01,0.058-0.01,0.089c0,0.28,0.228,0.507,0.507,0.507
		s0.506-0.228,0.506-0.507c0-0.28-0.227-0.506-0.506-0.506c-0.064,0-0.123,0.013-0.177,0.033c0,0.003-0.001,0.006-0.001,0.008
		L28.615,24.325z"/>
	<path style="clip-path:url(#SVGID_2_);fill:#FFFFFF;" d="M28.287,24.625c0.076,0.014,0.157-0.004,0.221-0.053
		c0.075-0.058,0.116-0.152,0.107-0.247l-0.009-0.076c0-0.002,0.001-0.005,0.001-0.008C28.441,24.304,28.318,24.447,28.287,24.625"/>
	<path style="clip-path:url(#SVGID_2_);fill:#FFFFFF;" d="M27.267,25.221c0.278,0,0.504-0.227,0.504-0.507
		c0-0.064-0.013-0.126-0.035-0.183c-0.361,0.008-0.688,0.153-0.933,0.386C26.881,25.096,27.06,25.221,27.267,25.221"/>
	<path style="clip-path:url(#SVGID_2_);fill:#FFFFFF;" d="M27.267,24.208c-0.279,0-0.507,0.227-0.507,0.506
		c0,0.072,0.016,0.14,0.043,0.203c0.244-0.233,0.571-0.378,0.933-0.387C27.663,24.342,27.479,24.208,27.267,24.208"/>
	<path style="clip-path:url(#SVGID_2_);fill:#FFFFFF;" d="M19.083,29.735v-2.74h-0.452v2.74c-0.388,0.101-0.677,0.451-0.677,0.87
		c0,0.07,0.009,0.138,0.024,0.203l-2.163,1.179l0.216,0.396l2.157-1.175c0.165,0.184,0.402,0.301,0.668,0.301
		c0.498,0,0.903-0.404,0.903-0.903C19.759,30.187,19.47,29.836,19.083,29.735 M18.856,31.058c-0.249,0-0.451-0.202-0.451-0.452
		c0-0.248,0.202-0.451,0.451-0.451s0.452,0.203,0.452,0.451C19.309,30.855,19.105,31.058,18.856,31.058"/>
	<path style="clip-path:url(#SVGID_2_);fill:#FFFFFF;" d="M27.074,30.832h-3.711c0.004-0.076,0.007-0.151,0.007-0.227
		c0-2.488-2.024-4.513-4.514-4.513c-2.487,0-4.512,2.024-4.512,4.513c0,2.489,2.025,4.514,4.512,4.514
		c1.313,0,2.535-0.565,3.386-1.535v2.08l1.579-1.58l1.805,1.806l1.674-1.674l-1.806-1.805L27.074,30.832z M22.242,32.843
		c-0.757,1.144-2.017,1.825-3.386,1.825c-2.239,0-4.061-1.822-4.061-4.063c0-2.238,1.822-4.061,4.061-4.061
		c2.241,0,4.063,1.822,4.063,4.061c0,0.073-0.008,0.151-0.013,0.227h-0.664V32.843z M26.662,34.216l-1.036,1.036l-1.805-1.807
		l-1.128,1.129v-3.291h3.292l-1.128,1.128L26.662,34.216z"/>
	<rect x="23.596" y="29.028" style="clip-path:url(#SVGID_2_);fill:#FFFFFF;" width="0.452" height="0.9"/>
	
		<rect x="21.296" y="30.112" transform="matrix(-0.7068 -0.7074 0.7074 -0.7068 15.6587 67.1644)" style="clip-path:url(#SVGID_2_);fill:#FFFFFF;" width="0.903" height="0.451"/>
	<rect x="20.437" y="32.186" style="clip-path:url(#SVGID_2_);fill:#FFFFFF;" width="0.902" height="0.451"/>
	
		<rect x="21.52" y="34.033" transform="matrix(-0.7076 -0.7066 0.7066 -0.7076 12.7688 74.253)" style="clip-path:url(#SVGID_2_);fill:#FFFFFF;" width="0.452" height="0.904"/>
	<rect x="23.596" y="34.894" style="clip-path:url(#SVGID_2_);fill:#FFFFFF;" width="0.452" height="0.903"/>
	<rect x="26.304" y="32.186" style="clip-path:url(#SVGID_2_);fill:#FFFFFF;" width="0.903" height="0.451"/>
	
		<rect x="25.443" y="30.112" transform="matrix(0.7066 -0.7076 0.7076 0.7066 -13.8697 27.2265)" style="clip-path:url(#SVGID_2_);fill:#FFFFFF;" width="0.904" height="0.451"/>
	<path style="clip-path:url(#SVGID_2_);fill:#FFFFFF;" d="M20.16,25.354c-0.132-0.032-0.265-0.062-0.4-0.085v-0.613
		c-0.055-0.171-0.083-0.348-0.083-0.532v-0.362c-0.142,0.31-0.456,0.526-0.82,0.526c-0.497,0-0.902-0.405-0.902-0.902
		s0.405-0.903,0.902-0.903c0.364,0,0.678,0.217,0.82,0.528v-0.7c-0.228-0.174-0.512-0.28-0.82-0.28
		c-0.746,0-1.354,0.609-1.354,1.355c0,0.399,0.175,0.758,0.452,1.007v0.875c-2.558,0.43-4.513,2.659-4.513,5.337
		c0,2.986,2.429,5.416,5.415,5.416c0.824,0,1.616-0.181,2.355-0.54l-0.197-0.405c-0.677,0.328-1.403,0.494-2.158,0.494
		c-2.737,0-4.964-2.227-4.964-4.965c0-2.735,2.227-4.964,4.964-4.964c1.995,0,3.789,1.187,4.569,3.022l0.416-0.177
		c-0.394-0.926-1.026-1.698-1.805-2.263C21.264,26.174,20.587,25.842,20.16,25.354 M19.309,25.211
		c-0.15-0.012-0.3-0.021-0.452-0.021c-0.152,0-0.302,0.009-0.451,0.021V24.66c0.141,0.051,0.293,0.079,0.451,0.079
		c0.158,0,0.309-0.028,0.452-0.079V25.211z"/>
	<path style="clip-path:url(#SVGID_2_);fill:#FFFFFF;" d="M20.183,23.111v0.545c0.018-0.087,0.028-0.178,0.028-0.271
		C20.21,23.292,20.202,23.199,20.183,23.111"/>
	<path style="clip-path:url(#SVGID_2_);fill:#FFFFFF;" d="M19.76,23.386c0,0.135-0.031,0.262-0.083,0.376v0.362
		c0,0.184,0.028,0.362,0.083,0.533v-0.264c0.212-0.192,0.363-0.447,0.423-0.736v-0.545c-0.068-0.325-0.252-0.607-0.506-0.801v0.7
		C19.729,23.125,19.76,23.251,19.76,23.386"/>
	<path style="clip-path:url(#SVGID_2_);fill:#FFFFFF;" d="M22.036,26.225c-0.561-0.405-1.195-0.704-1.877-0.871
		C20.588,25.842,21.264,26.174,22.036,26.225"/>
	<path style="clip-path:url(#SVGID_2_);fill:#FFFFFF;" d="M44.311,18.585v-0.396c-0.408-0.028-0.734-0.357-0.764-0.765H43.15
		c-0.029,0.408-0.355,0.737-0.765,0.765v0.396c0.409,0.03,0.735,0.357,0.765,0.764h0.396C43.576,18.942,43.902,18.616,44.311,18.585
		 M43.646,18.435c-0.095,0.071-0.18,0.157-0.251,0.251l-0.047,0.064l-0.048-0.064c-0.07-0.094-0.154-0.179-0.251-0.251l-0.063-0.048
		l0.063-0.047c0.096-0.071,0.181-0.155,0.251-0.251l0.048-0.063l0.047,0.063c0.071,0.097,0.157,0.18,0.251,0.251l0.064,0.047
		L43.646,18.435z"/>
	<path style="clip-path:url(#SVGID_2_);fill:#FFFFFF;" d="M12.689,8.728V8.197c-0.596-0.056-1.072-0.532-1.127-1.126h-0.531
		c-0.056,0.594-0.531,1.07-1.127,1.126v0.531c0.596,0.057,1.071,0.531,1.127,1.127h0.531C11.617,9.259,12.093,8.785,12.689,8.728
		 M11.756,8.558c-0.139,0.102-0.261,0.226-0.365,0.365l-0.095,0.126l-0.095-0.126c-0.103-0.139-0.226-0.263-0.364-0.365
		l-0.128-0.096l0.128-0.094c0.138-0.103,0.261-0.226,0.364-0.366l0.095-0.127l0.095,0.127c0.103,0.14,0.226,0.263,0.365,0.366
		l0.127,0.094L11.756,8.558z"/>
	<path style="clip-path:url(#SVGID_2_);fill:#FFFFFF;" d="M29.178,45.204v-0.365c-0.383-0.03-0.689-0.337-0.718-0.719h-0.367
		c-0.029,0.382-0.335,0.688-0.717,0.719v0.365c0.382,0.028,0.688,0.335,0.717,0.719h0.367
		C28.488,45.539,28.795,45.232,29.178,45.204 M28.56,45.068c-0.09,0.066-0.169,0.146-0.235,0.235l-0.048,0.063l-0.048-0.063
		c-0.065-0.089-0.146-0.169-0.234-0.235l-0.064-0.048l0.064-0.048c0.089-0.066,0.169-0.146,0.234-0.234l0.048-0.064l0.048,0.064
		c0.066,0.089,0.146,0.168,0.235,0.234l0.063,0.048L28.56,45.068z"/>
</g>
</svg>
