<?xml version="1.0" encoding="iso-8859-1"?>
<!-- Generator: Adobe Illustrator 15.1.0, SVG Export Plug-In . SVG Version: 6.00 Build 0)  -->
<!DOCTYPE svg PUBLIC "-//W3C//DTD SVG 1.1//EN" "http://www.w3.org/Graphics/SVG/1.1/DTD/svg11.dtd">
<svg version="1.1" id="Layer_1" xmlns="http://www.w3.org/2000/svg" xmlns:xlink="http://www.w3.org/1999/xlink" x="0px" y="0px"
	 width="50px" height="50px" viewBox="0 0 50 50" style="enable-background:new 0 0 50 50;" xml:space="preserve">
<path style="fill:#FFFFFF;" d="M24.399,45.767l0.608-0.003l0.004,0.608l-0.306,0.001l-0.304,0.002L24.399,45.767z M23.226,46.33
	L23.226,46.33l-0.305-0.02l0.038-0.607l0.611,0.039L23.53,46.35L23.226,46.33z M21.75,46.186l-0.302-0.043l0.082-0.602l0.603,0.08
	l-0.08,0.604L21.75,46.186z M20.287,45.938l-0.297-0.062l0.121-0.597l0.597,0.123l-0.124,0.596L20.287,45.938z M28.697,45.367
	l0.596-0.127l0.127,0.597l-0.597,0.126L28.697,45.367z M18.845,45.588v0.002l-0.294-0.082l0.163-0.587l0.586,0.163l-0.163,0.588
	L18.845,45.588z M30.102,45.04l0.294-0.083l0.294-0.084l0.165,0.588l-0.293,0.082l-0.294,0.083L30.102,45.04z M17.431,45.143
	L17.431,45.143l-0.288-0.102l0.204-0.574l0.573,0.202l-0.203,0.576L17.431,45.143z M31.478,44.619l0.575-0.205l0.205,0.572
	l-0.571,0.207L31.478,44.619z M16.048,44.6L16.048,44.6L15.77,44.48l0.242-0.561l0.559,0.242l-0.242,0.559L16.048,44.6z
	 M32.824,44.106l0.557-0.246l0.248,0.558l-0.279,0.123l-0.28,0.121L32.824,44.106z M14.708,43.965l-0.27-0.141l0.281-0.541
	l0.542,0.28l-0.282,0.541L14.708,43.965z M34.131,43.5l0.541-0.285l0.281,0.54l-0.539,0.284L34.131,43.5z M13.416,43.238
	l-0.259-0.157l0.316-0.522l0.52,0.317l-0.315,0.521L13.416,43.238z M35.392,42.805l0.26-0.16l0.258-0.159l0.32,0.517l-0.518,0.322
	L35.392,42.805z M12.174,42.427L12.174,42.427l-0.247-0.176l0.351-0.497l0.496,0.35l-0.349,0.498L12.174,42.427z M36.602,42.025
	l0.248-0.177l0.247-0.179l0.354,0.496l-0.495,0.354L36.602,42.025z M10.995,41.533l-0.237-0.193l0.385-0.473l0.472,0.383
	l-0.383,0.475L10.995,41.533z M9.875,40.559l-0.221-0.207l0.412-0.445l0.447,0.415l-0.415,0.446L9.875,40.559z M8.827,39.514
	L8.827,39.514l-0.209-0.223l0.445-0.417l0.417,0.445l-0.443,0.416L8.827,39.514z M7.852,38.396L7.659,38.16l0.473-0.383l0.385,0.471
	l-0.473,0.385L7.852,38.396z M6.957,37.217L6.78,36.969l0.498-0.353l0.349,0.499l-0.495,0.352L6.957,37.217z M6.143,35.979
	l-0.158-0.26l0.521-0.316l0.318,0.521l-0.522,0.315L6.143,35.979z M5.417,34.688l-0.14-0.27l0.541-0.281l0.28,0.541l-0.54,0.281
	L5.417,34.688z M4.783,33.348L4.783,33.348l-0.121-0.279l0.561-0.242l0.24,0.56l-0.559,0.242L4.783,33.348z M4.242,31.969
	L4.14,31.682l0.575-0.203l0.203,0.574l-0.575,0.201L4.242,31.969z M44.392,31.908l0.1-0.287h-0.002l0.1-0.287l0.576,0.2
	l-0.099,0.288l-0.1,0.287L44.392,31.908z M3.795,30.555L3.714,30.26l0.587-0.162l0.162,0.588l-0.586,0.162L3.795,30.555z
	 M44.836,30.538l0.159-0.589l0.589,0.161l-0.162,0.588L44.836,30.538z M3.45,29.115L3.45,29.115l-0.061-0.3l0.597-0.122l0.122,0.596
	l-0.598,0.123L3.45,29.115z M45.186,29.141l0.119-0.6l0.597,0.119l-0.059,0.299l-0.06,0.299L45.186,29.141z M3.276,28.178
	l-0.046-0.3l0.6-0.097l0.097,0.602l-0.601,0.096L3.276,28.178z M45.438,27.72l0.037-0.302l0.039-0.303l0.605,0.078l-0.079,0.604
	L45.438,27.72z M3.092,26.709L3.092,26.709l-0.028-0.305l0.607-0.056l0.027,0.305v-0.001l0.028,0.303l-0.605,0.056L3.092,26.709z
	 M45.591,26.287l0.036-0.607l0.608,0.034L46.2,26.322L45.591,26.287z M3.007,25.229L3,24.924l0.61-0.015l0.014,0.609l-0.611,0.014
	L3.007,25.229z M45.643,24.545h-0.002L45.64,24.24l0.608-0.007l0.004,0.304l0.003,0.305l-0.61,0.007L45.643,24.545z M3.009,24.051
	l0.014-0.305l0.013-0.304l0.608,0.027l-0.026,0.607L3.009,24.051z M45.577,23.104L45.577,23.104l-0.025-0.303l0.607-0.049
	l0.05,0.608l-0.607,0.046L45.577,23.104z M3.105,22.57l0.069-0.603l0.606,0.068l-0.07,0.606L3.105,22.57z M45.413,21.672
	l-0.044-0.301l0.604-0.09l0.089,0.604l-0.602,0.088L45.413,21.672z M3.305,21.1l0.111-0.598l0.6,0.111l-0.11,0.598L3.305,21.1z
	 M45.155,20.254L45.155,20.254l-0.064-0.297l0.593-0.129l0.065,0.297l0.064,0.297l-0.595,0.131L45.155,20.254z M3.605,19.647
	l0.153-0.588l0.59,0.15l-0.151,0.59L3.605,19.647z M44.801,18.859L44.801,18.859l-0.086-0.293l0.586-0.169l0.084,0.292l0.085,0.293
	l-0.584,0.17L44.801,18.859z M4.006,18.219l0.096-0.289l0.096-0.289l0.579,0.192l-0.097,0.289L4.584,18.41L4.006,18.219z
	 M4.502,16.82l0.117-0.281h0.002l0.115-0.281l0.562,0.232l-0.115,0.282l-0.116,0.281L4.502,16.82z M43.177,14.862l-0.144-0.268
	l0.537-0.287l0.287,0.539l-0.54,0.285L43.177,14.862z M42.456,13.617l-0.162-0.259l0.517-0.323l0.324,0.518l-0.519,0.322
	L42.456,13.617z M6.55,12.879l0.342-0.504l0.506,0.342l-0.344,0.504L6.55,12.879z M41.651,12.424h-0.002l-0.178-0.247l0.495-0.358
	l0.355,0.494l-0.493,0.355L41.651,12.424z M7.408,11.668l0.186-0.239l0.188-0.24l0.48,0.376l-0.376,0.479L7.408,11.668z
	 M40.767,11.287L40.767,11.287l-0.196-0.234l0.469-0.391l0.39,0.468l-0.467,0.392L40.767,11.287z M8.343,10.52l0.405-0.453
	l0.455,0.407l-0.408,0.453L8.343,10.52z M39.805,10.214L39.805,10.214l-0.21-0.22l0.438-0.422l0.212,0.221l0.21,0.221l-0.438,0.421
	L39.805,10.214z M9.356,9.437l0.436-0.425l0.424,0.438L9.78,9.873L9.356,9.437z M38.774,9.209L38.774,9.209l-0.227-0.204
	l0.408-0.452l0.228,0.207l0.227,0.203l-0.411,0.451L38.774,9.209z M10.439,8.426L10.67,8.23l0.233-0.197l0.393,0.463l-0.465,0.395
	L10.439,8.426z M37.674,8.278l-0.238-0.19l0.377-0.478l0.479,0.38l-0.377,0.477L37.674,8.278z M11.588,7.492l0.491-0.361
	l0.361,0.492L11.95,7.985L11.588,7.492z M36.515,7.422L36.264,7.25l0.346-0.503l0.251,0.172h-0.002l0.251,0.174l-0.342,0.502
	L36.515,7.422z M12.799,6.639l0.258-0.162l0.259-0.164l0.325,0.513L13.383,6.99l-0.257,0.163L12.799,6.639z M35.299,6.648
	l-0.26-0.154l0.308-0.525l0.264,0.154h-0.002l0.264,0.154l-0.31,0.526L35.299,6.648z M14.067,5.872l0.536-0.29l0.29,0.536
	l-0.538,0.29L14.067,5.872z M34.034,5.959L34.034,5.959l-0.271-0.138l0.271-0.544l0.545,0.273l-0.272,0.545L34.034,5.959z
	 M15.384,5.194l0.554-0.252l0.253,0.554l-0.554,0.252L15.384,5.194z M32.725,5.358l-0.28-0.12l0.233-0.561l0.564,0.235l-0.236,0.562
	L32.725,5.358z M16.748,4.607l0.571-0.213l0.214,0.571L16.96,5.177L16.748,4.607z M31.377,4.846L31.377,4.846l-0.289-0.099
	l0.196-0.576l0.576,0.196l-0.194,0.576L31.377,4.846z M18.146,4.117l0.292-0.087l0.292-0.087l0.173,0.584l-0.582,0.172L18.146,4.117
	z M29.997,4.428L29.997,4.428L29.703,4.35l0.154-0.588l0.296,0.078l0.294,0.078l-0.156,0.589L29.997,4.428z M19.575,3.723
	l0.594-0.134l0.134,0.594l-0.593,0.134L19.575,3.723z M28.592,4.108l-0.299-0.057l0.114-0.6l0.6,0.116l-0.116,0.598L28.592,4.108z
	 M21.027,3.427l0.603-0.095l0.093,0.604l-0.602,0.093L21.027,3.427z M27.168,3.885L27.168,3.885l-0.305-0.036l0.074-0.605
	l0.605,0.072l-0.072,0.606L27.168,3.885z M22.499,3.229l0.606-0.052l0.052,0.606l-0.608,0.053L22.499,3.229z M25.732,3.761
	L25.732,3.761l-0.305-0.017l0.032-0.607l0.305,0.015l0.303,0.016l-0.03,0.609L25.732,3.761z M23.978,3.131l0.608-0.008l0.011,0.609
	l-0.608,0.009L23.978,3.131z"/>
<g>
	<defs>
		<rect id="SVGID_1_" width="50" height="50"/>
	</defs>
	<clipPath id="SVGID_2_">
		<use xlink:href="#SVGID_1_"  style="overflow:visible;"/>
	</clipPath>
	<path style="clip-path:url(#SVGID_2_);fill:#FFFFFF;" d="M41.318,31.618c-3.132,0-5.682,2.548-5.682,5.681
		c0,3.131,2.55,5.68,5.682,5.68S47,40.43,47,37.299C47,34.166,44.45,31.618,41.318,31.618 M41.318,31.878
		c2.987,0,5.421,2.433,5.421,5.421c0,2.986-2.434,5.42-5.421,5.42s-5.422-2.434-5.422-5.42
		C35.896,34.311,38.331,31.878,41.318,31.878 M41.318,32.426c-1.704,0-3.194,0.867-4.066,2.189c0.115,0.004,0.223,0.014,0.315,0.014
		c0.511,0,1.301-0.068,1.301-0.068c0.262-0.016,0.289,0.379,0.027,0.41c0,0-0.27,0.026-0.562,0.041l1.779,5.272l1.068-3.19
		l-0.766-2.082c-0.264-0.015-0.508-0.041-0.508-0.041c-0.264-0.015-0.235-0.426,0.026-0.41c0,0,0.809,0.068,1.287,0.068
		c0.51,0,1.302-0.068,1.302-0.068c0.264-0.016,0.289,0.379,0.027,0.41c0,0-0.27,0.026-0.563,0.041l1.768,5.23l0.479-1.617
		c0.246-0.632,0.369-1.155,0.369-1.573c0-0.603-0.211-1.017-0.397-1.341c-0.246-0.402-0.479-0.748-0.479-1.15
		c0-0.447,0.342-0.863,0.822-0.863c0.021,0,0.046-0.001,0.067,0C43.749,32.904,42.586,32.426,41.318,32.426 M45.59,34.958
		c0.021,0.155,0.041,0.327,0.041,0.507c0,0.494-0.093,1.043-0.371,1.737l-1.491,4.299c1.447-0.846,2.423-2.406,2.423-4.202
		C46.191,36.451,45.969,35.651,45.59,34.958 M36.869,35.314c-0.271,0.605-0.424,1.277-0.424,1.984c0,1.928,1.125,3.588,2.751,4.38
		L36.869,35.314z M41.4,37.722l-1.451,4.243c0.437,0.129,0.891,0.205,1.369,0.205c0.566,0,1.109-0.109,1.615-0.286
		c-0.011-0.021-0.017-0.03-0.027-0.055L41.4,37.722z"/>
	<rect x="15.331" y="26.93" style="clip-path:url(#SVGID_2_);fill:#FFFFFF;" width="0.365" height="0.364"/>
	<rect x="14.602" y="26.93" style="clip-path:url(#SVGID_2_);fill:#FFFFFF;" width="0.365" height="0.364"/>
	<rect x="13.872" y="26.93" style="clip-path:url(#SVGID_2_);fill:#FFFFFF;" width="0.364" height="0.364"/>
	<path style="clip-path:url(#SVGID_2_);fill:#FFFFFF;" d="M21.351,28.753h-3.466c-0.1,0-0.182,0.081-0.182,0.183v1.297
		c0,0.09,0.004,0.181,0.009,0.271c0.002,0.029,0.005,0.061,0.007,0.091c0.006,0.061,0.01,0.121,0.018,0.182
		c0.003,0.034,0.009,0.067,0.014,0.102c0.009,0.065,0.019,0.13,0.032,0.193c0.004,0.025,0.007,0.05,0.013,0.075
		c0.017,0.085,0.039,0.172,0.06,0.256c0.007,0.023,0.014,0.048,0.022,0.072c0.017,0.066,0.039,0.135,0.06,0.2
		c0.007,0.021,0.014,0.044,0.023,0.065c0.027,0.078,0.058,0.157,0.088,0.233c0.001,0.005,0.005,0.011,0.007,0.017
		c0.004,0.016,0.012,0.031,0.017,0.046h-5.661c-0.302,0-0.547-0.245-0.547-0.546v-6.021h5.021l0.674,0.844
		c0.035,0.044,0.087,0.069,0.143,0.069h1.227c-0.027-0.12-0.043-0.241-0.048-0.365H17.79l-0.675-0.844
		c-0.035-0.044-0.087-0.069-0.142-0.069h-5.075c0.076-0.211,0.277-0.363,0.514-0.363h6.466v-0.365h-2.356l-0.674-1.014
		c-0.034-0.05-0.091-0.08-0.152-0.08h-2.554c-0.061,0-0.118,0.03-0.152,0.08l-0.683,1.025c-0.453,0.052-0.807,0.434-0.807,0.901
		v6.203c0,0.502,0.409,0.911,0.912,0.911h5.841c0.393,0.735,0.986,1.365,1.728,1.799c0.03,0.017,0.061,0.024,0.091,0.024
		c0.032,0,0.065-0.008,0.093-0.024c1.407-0.819,2.281-2.341,2.281-3.968v-1.297c0-0.102-0.082-0.183-0.181-0.183h-0.549v-0.255
		c-0.124-0.01-0.245-0.026-0.365-0.049V28.753z M13.239,23.644h2.36l0.486,0.731h-3.331L13.239,23.644z M22.081,29.118v1.114
		c0,1.463-0.766,2.831-2.009,3.598c-0.69-0.428-1.235-1.043-1.58-1.758c-0.008-0.016-0.015-0.033-0.021-0.048
		c-0.031-0.062-0.056-0.122-0.082-0.185c-0.009-0.021-0.018-0.046-0.028-0.068c-0.02-0.055-0.042-0.109-0.06-0.164
		c-0.01-0.031-0.021-0.063-0.032-0.094c-0.014-0.049-0.029-0.096-0.042-0.145c-0.011-0.037-0.022-0.075-0.031-0.113
		c-0.011-0.043-0.021-0.087-0.03-0.131c-0.009-0.041-0.018-0.082-0.025-0.123c-0.009-0.045-0.016-0.088-0.021-0.132
		c-0.008-0.041-0.015-0.082-0.02-0.124c-0.005-0.05-0.01-0.101-0.014-0.149c-0.004-0.036-0.007-0.071-0.009-0.106
		c-0.006-0.086-0.009-0.172-0.009-0.258v-1.114H22.081z"/>
	<path style="clip-path:url(#SVGID_2_);fill:#FFFFFF;" d="M19.893,32.219c0.047,0,0.093-0.018,0.129-0.054l1.46-1.459l-0.259-0.259
		l-1.33,1.332l-0.602-0.602l-0.257,0.258l0.729,0.729C19.799,32.201,19.845,32.219,19.893,32.219"/>
	<rect x="18.433" y="29.482" style="clip-path:url(#SVGID_2_);fill:#FFFFFF;" width="0.365" height="0.364"/>
	<rect x="19.161" y="29.482" style="clip-path:url(#SVGID_2_);fill:#FFFFFF;" width="0.367" height="0.364"/>
	<rect x="19.893" y="29.482" style="clip-path:url(#SVGID_2_);fill:#FFFFFF;" width="0.363" height="0.364"/>
	<rect x="20.621" y="29.482" style="clip-path:url(#SVGID_2_);fill:#FFFFFF;" width="0.365" height="0.364"/>
	<rect x="21.351" y="29.482" style="clip-path:url(#SVGID_2_);fill:#FFFFFF;" width="0.365" height="0.364"/>
	<path style="clip-path:url(#SVGID_2_);fill:#FFFFFF;" d="M14.783,25.834c-1.33,0-2.371,0.561-2.371,1.277v3.283
		c0,0.716,1.041,1.277,2.371,1.277s2.371-0.562,2.371-1.277v-3.283C17.154,26.395,16.113,25.834,14.783,25.834 M16.79,30.395
		c0,0.432-0.824,0.912-2.007,0.912s-2.007-0.48-2.007-0.912v-0.408c0.417,0.357,1.153,0.591,2.007,0.591
		c0.856,0,1.59-0.233,2.007-0.591V30.395z M16.79,29.3c0,0.432-0.824,0.911-2.007,0.911s-2.007-0.479-2.007-0.911v-0.407
		c0.417,0.357,1.153,0.59,2.007,0.59c0.856,0,1.59-0.232,2.007-0.59V29.3z M16.79,28.205c0,0.432-0.824,0.913-2.007,0.913
		s-2.007-0.481-2.007-0.913v-0.406c0.417,0.355,1.153,0.59,2.007,0.59c0.856,0,1.59-0.234,2.007-0.59V28.205z M14.783,28.023
		c-1.183,0-2.007-0.48-2.007-0.912s0.824-0.912,2.007-0.912s2.007,0.48,2.007,0.912S15.966,28.023,14.783,28.023"/>
	<path style="clip-path:url(#SVGID_2_);fill:#FFFFFF;" d="M30.104,28.518c-0.021,0-0.041-0.005-0.061-0.007
		c-0.009,0-0.016,0.001-0.024,0.001h-0.652c0.179,0.211,0.441,0.344,0.737,0.344c0.356,0,0.668-0.195,0.835-0.485
		c-0.223,0.069-0.459,0.116-0.705,0.133C30.19,28.512,30.148,28.518,30.104,28.518"/>
	<path style="clip-path:url(#SVGID_2_);fill:#FFFFFF;" d="M38.336,26.933c-0.53,0-0.961,0.432-0.961,0.96
		c0,0.531,0.431,0.963,0.961,0.963s0.963-0.432,0.963-0.963C39.299,27.364,38.866,26.933,38.336,26.933 M38.336,28.518
		c-0.344,0-0.623-0.279-0.623-0.625c0-0.342,0.279-0.621,0.623-0.621s0.623,0.279,0.623,0.621
		C38.959,28.238,38.68,28.518,38.336,28.518"/>
	<path style="clip-path:url(#SVGID_2_);fill:#FFFFFF;" d="M30.629,30.125c-0.374,0.375-0.374,0.984,0,1.36
		c0.188,0.187,0.433,0.282,0.68,0.282c0.246,0,0.493-0.096,0.681-0.282c0.375-0.376,0.375-0.985,0-1.36
		C31.613,29.749,31.005,29.749,30.629,30.125 M31.75,31.246c-0.243,0.242-0.639,0.242-0.881,0c-0.244-0.244-0.244-0.64,0-0.882
		c0.121-0.122,0.279-0.183,0.439-0.183c0.159,0,0.319,0.061,0.441,0.183C31.992,30.606,31.992,31.002,31.75,31.246"/>
	<path style="clip-path:url(#SVGID_2_);fill:#FFFFFF;" d="M34.22,31.049c-0.53,0-0.961,0.432-0.961,0.961
		c0,0.53,0.431,0.962,0.961,0.962s0.962-0.432,0.962-0.962C35.182,31.48,34.75,31.049,34.22,31.049 M34.22,32.633
		c-0.344,0-0.623-0.279-0.623-0.623c0-0.342,0.279-0.623,0.623-0.623s0.623,0.281,0.623,0.623
		C34.843,32.354,34.563,32.633,34.22,32.633"/>
	<path style="clip-path:url(#SVGID_2_);fill:#FFFFFF;" d="M36.45,30.125c-0.375,0.375-0.375,0.984,0,1.36
		c0.189,0.187,0.433,0.282,0.681,0.282c0.246,0,0.491-0.096,0.68-0.282c0.374-0.376,0.374-0.985,0-1.36
		C37.436,29.749,36.824,29.749,36.45,30.125 M37.57,31.246c-0.242,0.242-0.637,0.242-0.879,0c-0.244-0.244-0.244-0.64,0-0.882
		c0.121-0.122,0.279-0.183,0.439-0.183c0.158,0,0.318,0.061,0.439,0.183C37.814,30.606,37.814,31.002,37.57,31.246"/>
	<path style="clip-path:url(#SVGID_2_);fill:#FFFFFF;" d="M37.131,25.944c0.246,0,0.491-0.095,0.68-0.282
		c0.374-0.375,0.374-0.983,0-1.359c-0.375-0.375-0.986-0.375-1.36,0c-0.375,0.376-0.375,0.984,0,1.359
		C36.64,25.85,36.884,25.944,37.131,25.944 M36.691,24.543c0.121-0.121,0.279-0.184,0.439-0.184c0.158,0,0.318,0.063,0.439,0.184
		c0.244,0.242,0.244,0.638,0,0.881c-0.242,0.242-0.637,0.242-0.879,0C36.447,25.181,36.447,24.786,36.691,24.543"/>
	<path style="clip-path:url(#SVGID_2_);fill:#FFFFFF;" d="M34.22,24.739c0.53,0,0.962-0.432,0.962-0.962
		c0-0.53-0.432-0.961-0.962-0.961s-0.961,0.431-0.961,0.961C33.259,24.307,33.689,24.739,34.22,24.739 M34.22,23.154
		c0.344,0,0.623,0.279,0.623,0.623c0,0.344-0.279,0.623-0.623,0.623s-0.623-0.279-0.623-0.623
		C33.597,23.433,33.876,23.154,34.22,23.154"/>
	<path style="clip-path:url(#SVGID_2_);fill:#FFFFFF;" d="M35.055,26.488h-1.67c-0.093,0-0.169,0.075-0.169,0.168v2.475
		c0,0.094,0.076,0.169,0.169,0.169h1.67c0.093,0,0.169-0.075,0.169-0.169v-2.475C35.224,26.563,35.147,26.488,35.055,26.488
		 M34.886,28.961h-1.33v-0.512h1.33V28.961z M34.886,28.111h-1.33v-0.435h1.33V28.111z M34.886,27.338h-1.33v-0.512h1.33V27.338z"/>
	<path style="clip-path:url(#SVGID_2_);fill:#FFFFFF;" d="M34.051,25.13v0.813c0,0.093,0.074,0.169,0.169,0.169
		s0.169-0.076,0.169-0.169V25.13c0-0.093-0.074-0.169-0.169-0.169S34.051,25.037,34.051,25.13"/>
	<path style="clip-path:url(#SVGID_2_);fill:#FFFFFF;" d="M34.389,30.657v-0.813c0-0.093-0.074-0.169-0.169-0.169
		s-0.169,0.076-0.169,0.169v0.813c0,0.093,0.074,0.169,0.169,0.169S34.389,30.75,34.389,30.657"/>
	<path style="clip-path:url(#SVGID_2_);fill:#FFFFFF;" d="M32.61,26.045v0.324c0,0.049-0.005,0.098-0.009,0.146l0.117,0.117
		c0.034,0.033,0.078,0.051,0.121,0.051s0.086-0.018,0.119-0.051c0.066-0.064,0.066-0.173,0-0.238L32.61,26.045z"/>
	<path style="clip-path:url(#SVGID_2_);fill:#FFFFFF;" d="M36.294,29.967c0.066-0.065,0.066-0.173,0-0.238l-0.575-0.573
		c-0.065-0.066-0.173-0.066-0.238,0c-0.066,0.065-0.066,0.172,0,0.237l0.573,0.574c0.034,0.033,0.076,0.051,0.121,0.051
		C36.218,30.018,36.26,30,36.294,29.967"/>
	<path style="clip-path:url(#SVGID_2_);fill:#FFFFFF;" d="M31.599,28.063h0.67c0.093,0,0.169-0.076,0.169-0.17
		c0-0.093-0.076-0.168-0.169-0.168h-0.246C31.898,27.851,31.756,27.963,31.599,28.063"/>
	<path style="clip-path:url(#SVGID_2_);fill:#FFFFFF;" d="M36.983,27.725h-0.812c-0.094,0-0.17,0.075-0.17,0.168
		c0,0.094,0.076,0.17,0.17,0.17h0.812c0.092,0,0.169-0.076,0.169-0.17C37.152,27.8,37.075,27.725,36.983,27.725"/>
	<path style="clip-path:url(#SVGID_2_);fill:#FFFFFF;" d="M32.719,29.154l-0.573,0.574c-0.065,0.065-0.065,0.173,0,0.237
		c0.034,0.034,0.077,0.052,0.121,0.052c0.043,0,0.086-0.018,0.119-0.052l0.573-0.573c0.066-0.065,0.066-0.172,0-0.238
		C32.894,29.089,32.785,29.089,32.719,29.154"/>
	<path style="clip-path:url(#SVGID_2_);fill:#FFFFFF;" d="M35.6,26.684c0.045,0,0.087-0.018,0.119-0.051l0.575-0.573
		c0.066-0.065,0.066-0.174,0-0.239c-0.065-0.066-0.174-0.066-0.238,0l-0.575,0.574c-0.066,0.065-0.066,0.174,0,0.238
		C35.513,26.666,35.557,26.684,35.6,26.684"/>
	<path style="clip-path:url(#SVGID_2_);fill:#FFFFFF;" d="M19.501,25.91v-1.17h-0.623v1.17c0,0.036,0.002,0.072,0.004,0.106h0.627
		C19.507,25.98,19.501,25.946,19.501,25.91"/>
	<path style="clip-path:url(#SVGID_2_);fill:#FFFFFF;" d="M21.351,25.287c0-0.301-0.245-0.547-0.546-0.547h-0.843
		c0.391,0.283,0.865,0.488,1.389,0.586V25.287z"/>
	<path style="clip-path:url(#SVGID_2_);fill:#FFFFFF;" d="M29.143,27.887H22.04c-0.11,0-0.216-0.007-0.324-0.018v0.629
		c0.108,0.01,0.214,0.014,0.324,0.014h7.327c-0.141-0.167-0.226-0.383-0.226-0.619C29.141,27.892,29.143,27.89,29.143,27.887"/>
	<path style="clip-path:url(#SVGID_2_);fill:#FFFFFF;" d="M29.48,27.887v0.006c0,0.324,0.247,0.588,0.563,0.618
		c0.064-0.001,0.126-0.003,0.19-0.008c0.281-0.061,0.493-0.31,0.493-0.61c0-0.036-0.005-0.07-0.011-0.105
		c-0.217,0.063-0.452,0.1-0.697,0.1H29.48z"/>
	<path style="clip-path:url(#SVGID_2_);fill:#FFFFFF;" d="M32.146,25.82c0.066-0.066,0.173-0.066,0.24,0l0.225,0.225v-5.918
		c0-0.919-0.707-1.722-1.743-2.019c-0.255-1.883-2.203-3.327-4.553-3.327c-1.85,0-3.514,0.911-4.225,2.289
		c-0.015-0.001-0.034-0.001-0.05-0.001c-1.745,0-3.162,1.167-3.162,2.601v4.705H19.5v-0.048c0.017,0.017,0.033,0.033,0.047,0.048
		h0.981c-0.621-0.36-1.028-0.936-1.028-1.583v-1.586c0.578,0.642,1.497,1.064,2.539,1.064h7.979c0.792,0,1.491-0.301,1.967-0.765
		v1.744c0,0.31-0.121,0.597-0.329,0.839c0.121,0.046,0.234,0.119,0.333,0.215c0.375,0.376,0.375,0.984,0,1.359
		c-0.002,0.002-0.002,0.003-0.004,0.004v0.703c0,0.549-0.381,1.031-0.949,1.297c0.019,0.073,0.029,0.148,0.029,0.227
		c0,0.174-0.047,0.337-0.127,0.478c0.238-0.075,0.461-0.18,0.66-0.308h-0.142c-0.095,0-0.171-0.076-0.171-0.17
		c0-0.093,0.076-0.168,0.171-0.168h0.565c0.331-0.334,0.542-0.753,0.579-1.209l-0.456-0.456
		C32.081,25.994,32.081,25.886,32.146,25.82 M30.019,21.646H22.04c-1.401,0-2.539-0.886-2.539-1.976
		c0-1.089,1.138-1.976,2.539-1.976c0.046,0,0.091,0.004,0.137,0.009l0.082,0.006c0.138,0.01,0.255-0.065,0.309-0.187
		c0.548-1.266,2.055-2.117,3.747-2.117c2.115,0,3.852,1.306,3.953,2.973c0.007,0.141,0.11,0.259,0.247,0.287
		c0.867,0.177,1.471,0.778,1.471,1.462C31.985,20.965,31.103,21.646,30.019,21.646"/>
	<path style="clip-path:url(#SVGID_2_);fill:#FFFFFF;" d="M30.773,25.295c0.423-0.109,0.801-0.308,1.102-0.567
		c-0.03-0.068-0.071-0.13-0.125-0.185c-0.111-0.111-0.256-0.17-0.402-0.179c-0.165,0.117-0.354,0.214-0.563,0.283
		C30.659,24.844,30.655,25.094,30.773,25.295"/>
	<path style="clip-path:url(#SVGID_2_);fill:#FFFFFF;" d="M19.578,26.382H18.93c0.229,1.025,1.191,1.842,2.42,2.067v-0.639
		C20.476,27.619,19.795,27.07,19.578,26.382"/>
	<path style="clip-path:url(#SVGID_2_);fill:#FFFFFF;" d="M30.019,25.391c0.139,0,0.275-0.01,0.407-0.027
		c-0.084-0.197-0.1-0.416-0.046-0.623c-0.118,0.016-0.237,0.026-0.361,0.026H22.04c-0.177,0-0.35-0.015-0.519-0.042
		c0.122,0.155,0.195,0.35,0.195,0.562v0.089c0.108,0.01,0.214,0.016,0.324,0.016H30.019z"/>
	<path style="clip-path:url(#SVGID_2_);fill:#FFFFFF;" d="M19.509,26.017h-0.627c0.005,0.124,0.022,0.245,0.048,0.365h0.648
		C19.54,26.264,19.518,26.141,19.509,26.017"/>
	<rect x="18.878" y="24.375" style="clip-path:url(#SVGID_2_);fill:#FFFFFF;" width="0.623" height="0.365"/>
	<path style="clip-path:url(#SVGID_2_);fill:#FFFFFF;" d="M21.351,27.811v0.639c0.12,0.021,0.241,0.039,0.365,0.048v-0.628
		C21.592,27.856,21.471,27.837,21.351,27.811"/>
	<path style="clip-path:url(#SVGID_2_);fill:#FFFFFF;" d="M19.962,24.74h0.843c0.301,0,0.546,0.246,0.546,0.547v0.039
		c0.12,0.023,0.241,0.039,0.365,0.049v-0.088c0-0.213-0.073-0.407-0.195-0.563c-0.366-0.059-0.703-0.181-0.993-0.349h-0.98
		C19.672,24.507,19.811,24.63,19.962,24.74"/>
	<path style="clip-path:url(#SVGID_2_);fill:#FFFFFF;" d="M30.043,28.511c-0.315-0.03-0.562-0.294-0.562-0.618v-0.006h-0.339
		c0,0.003-0.002,0.005-0.002,0.006c0,0.236,0.085,0.452,0.226,0.619h0.652C30.027,28.512,30.034,28.511,30.043,28.511"/>
	<path style="clip-path:url(#SVGID_2_);fill:#FFFFFF;" d="M31.036,27.666c-0.102,0.047-0.208,0.088-0.32,0.121
		c0.006,0.035,0.011,0.069,0.011,0.105c0,0.301-0.212,0.55-0.493,0.61c0.246-0.017,0.482-0.063,0.705-0.133
		c0.08-0.142,0.127-0.304,0.127-0.478C31.065,27.814,31.055,27.739,31.036,27.666"/>
	<path style="clip-path:url(#SVGID_2_);fill:#FFFFFF;" d="M30.426,25.363c0.119-0.016,0.235-0.039,0.348-0.068
		c-0.118-0.201-0.114-0.452,0.012-0.648c-0.128,0.043-0.265,0.074-0.405,0.094C30.326,24.947,30.342,25.166,30.426,25.363"/>
	<path style="clip-path:url(#SVGID_2_);fill:#FFFFFF;" d="M31.348,24.364c0.146,0.009,0.291,0.067,0.402,0.179
		c0.054,0.054,0.095,0.117,0.125,0.184c0.037-0.032,0.076-0.065,0.11-0.1v1.039c0.002-0.001,0.002-0.002,0.004-0.004
		c0.375-0.375,0.375-0.984,0-1.36c-0.099-0.096-0.212-0.168-0.333-0.214C31.568,24.189,31.464,24.281,31.348,24.364"/>
	<path style="clip-path:url(#SVGID_2_);fill:#FFFFFF;" d="M32.61,26.045l-0.225-0.225c-0.067-0.066-0.174-0.066-0.24,0
		c-0.065,0.065-0.065,0.174,0,0.239l0.456,0.456c0.004-0.049,0.009-0.098,0.009-0.146V26.045z"/>
	<path style="clip-path:url(#SVGID_2_);fill:#FFFFFF;" d="M31.286,27.893c0,0.094,0.076,0.17,0.171,0.17h0.141
		c0.158-0.1,0.301-0.212,0.425-0.338h-0.565C31.362,27.725,31.286,27.8,31.286,27.893"/>
	<path style="clip-path:url(#SVGID_2_);fill:#FFFFFF;" d="M21.063,23.83c0.173,0,0.312-0.14,0.312-0.312v-0.624
		c0-0.171-0.139-0.312-0.312-0.312s-0.313,0.141-0.313,0.312v0.624C20.75,23.69,20.89,23.83,21.063,23.83"/>
	<path style="clip-path:url(#SVGID_2_);fill:#FFFFFF;" d="M22.311,24.143c0.173,0,0.312-0.14,0.312-0.312v-0.625
		c0-0.17-0.139-0.311-0.312-0.311s-0.312,0.141-0.312,0.311v0.625C21.999,24.002,22.138,24.143,22.311,24.143"/>
	<path style="clip-path:url(#SVGID_2_);fill:#FFFFFF;" d="M23.559,24.143c0.173,0,0.313-0.14,0.313-0.312v-0.625
		c0-0.17-0.14-0.311-0.313-0.311s-0.312,0.141-0.312,0.311v0.625C23.247,24.002,23.386,24.143,23.559,24.143"/>
	<path style="clip-path:url(#SVGID_2_);fill:#FFFFFF;" d="M30.114,24.143c0.344,0,0.623-0.279,0.623-0.625
		c0-0.344-0.279-0.623-0.623-0.623c-0.346,0-0.625,0.279-0.625,0.623C29.489,23.864,29.769,24.143,30.114,24.143"/>
	<path style="clip-path:url(#SVGID_2_);fill:#FFFFFF;" d="M28.241,24.143c0.344,0,0.623-0.279,0.623-0.625
		c0-0.344-0.279-0.623-0.623-0.623c-0.346,0-0.625,0.279-0.625,0.623C27.616,23.864,27.896,24.143,28.241,24.143"/>
	<path style="clip-path:url(#SVGID_2_);fill:#FFFFFF;" d="M20.749,26.382v0.258c0,0.172,0.141,0.312,0.313,0.312
		c0.13,0,0.243-0.08,0.289-0.195v-0.374H20.749z"/>
	<path style="clip-path:url(#SVGID_2_);fill:#FFFFFF;" d="M21.063,25.702c-0.173,0-0.313,0.14-0.313,0.312v0.002h0.601v-0.117
		C21.305,25.783,21.192,25.702,21.063,25.702"/>
	<path style="clip-path:url(#SVGID_2_);fill:#FFFFFF;" d="M20.749,26.017v0.365h0.602v0.374c0.014-0.036,0.023-0.075,0.023-0.116
		v-0.625c0-0.04-0.009-0.081-0.023-0.116v0.118H20.749z"/>
	<path style="clip-path:url(#SVGID_2_);fill:#FFFFFF;" d="M22.311,26.015c-0.173,0-0.312,0.14-0.312,0.312v0.625
		c0,0.173,0.139,0.313,0.312,0.313s0.312-0.14,0.312-0.313v-0.625C22.623,26.154,22.483,26.015,22.311,26.015"/>
	<path style="clip-path:url(#SVGID_2_);fill:#FFFFFF;" d="M23.559,26.015c-0.173,0-0.312,0.14-0.312,0.312v0.625
		c0,0.173,0.139,0.313,0.312,0.313s0.313-0.14,0.313-0.313v-0.625C23.872,26.154,23.731,26.015,23.559,26.015"/>
	<path style="clip-path:url(#SVGID_2_);fill:#FFFFFF;" d="M30.575,27.057c0.1-0.111,0.162-0.256,0.162-0.417
		c0-0.345-0.279-0.625-0.623-0.625c-0.346,0-0.625,0.28-0.625,0.625c0,0.157,0.061,0.3,0.156,0.409
		c0.136-0.074,0.292-0.116,0.458-0.116C30.274,26.933,30.435,26.979,30.575,27.057"/>
	<path style="clip-path:url(#SVGID_2_);fill:#FFFFFF;" d="M30.114,27.264c0.184,0,0.347-0.081,0.461-0.207
		c-0.141-0.078-0.301-0.124-0.472-0.124c-0.166,0-0.322,0.042-0.458,0.116C29.761,27.18,29.927,27.264,30.114,27.264"/>
	<path style="clip-path:url(#SVGID_2_);fill:#FFFFFF;" d="M28.241,26.015c-0.346,0-0.625,0.28-0.625,0.625s0.279,0.624,0.625,0.624
		c0.344,0,0.623-0.279,0.623-0.624S28.585,26.015,28.241,26.015"/>
	<path style="clip-path:url(#SVGID_2_);fill:#FFFFFF;" d="M7.35,14.671v-0.548c-0.615-0.059-1.108-0.549-1.164-1.165H5.638
		c-0.058,0.616-0.549,1.106-1.165,1.165v0.548c0.616,0.057,1.107,0.548,1.165,1.163h0.548C6.242,15.219,6.735,14.728,7.35,14.671
		 M6.385,14.494C6.242,14.6,6.116,14.726,6.01,14.872l-0.099,0.131l-0.097-0.131C5.707,14.728,5.58,14.6,5.438,14.494l-0.132-0.098
		l0.132-0.097c0.142-0.106,0.269-0.234,0.376-0.377l0.097-0.131l0.099,0.131c0.106,0.144,0.232,0.271,0.375,0.377l0.132,0.097
		L6.385,14.494z"/>
	<path style="clip-path:url(#SVGID_2_);fill:#FFFFFF;" d="M45.178,16.961v-0.408c-0.422-0.03-0.76-0.367-0.788-0.789h-0.411
		c-0.03,0.422-0.367,0.759-0.787,0.789v0.408c0.42,0.032,0.757,0.368,0.787,0.789h0.411C44.418,17.329,44.756,16.993,45.178,16.961
		 M44.493,16.806c-0.101,0.073-0.187,0.161-0.261,0.259l-0.05,0.066l-0.048-0.066c-0.073-0.098-0.16-0.186-0.26-0.259l-0.066-0.048
		l0.066-0.049c0.1-0.074,0.187-0.162,0.26-0.259l0.048-0.067l0.05,0.067c0.074,0.097,0.16,0.186,0.261,0.259l0.065,0.049
		L44.493,16.806z"/>
	<path style="clip-path:url(#SVGID_2_);fill:#FFFFFF;" d="M27.873,46.135v-0.376c-0.396-0.03-0.713-0.347-0.741-0.743h-0.377
		c-0.03,0.396-0.348,0.713-0.743,0.743v0.376c0.396,0.031,0.713,0.347,0.743,0.742h0.377C27.16,46.481,27.478,46.166,27.873,46.135
		 M27.233,45.996c-0.091,0.068-0.173,0.15-0.242,0.242l-0.05,0.066l-0.048-0.066c-0.067-0.092-0.149-0.174-0.242-0.242l-0.066-0.049
		l0.066-0.049c0.093-0.068,0.175-0.15,0.242-0.243l0.048-0.065l0.05,0.065c0.069,0.093,0.151,0.175,0.242,0.243l0.066,0.049
		L27.233,45.996z"/>
</g>
</svg>
