<?xml version="1.0" encoding="iso-8859-1"?>
<!-- Generator: Adobe Illustrator 15.1.0, SVG Export Plug-In . SVG Version: 6.00 Build 0)  -->
<!DOCTYPE svg PUBLIC "-//W3C//DTD SVG 1.1//EN" "http://www.w3.org/Graphics/SVG/1.1/DTD/svg11.dtd">
<svg version="1.1" id="Layer_1" xmlns="http://www.w3.org/2000/svg" xmlns:xlink="http://www.w3.org/1999/xlink" x="0px" y="0px"
	 width="50px" height="50px" viewBox="0 0 50 50" style="enable-background:new 0 0 50 50;" xml:space="preserve">
<g>
	<defs>
		<rect id="SVGID_1_" width="50" height="50"/>
	</defs>
	<clipPath id="SVGID_2_">
		<use xlink:href="#SVGID_1_"  style="overflow:visible;"/>
	</clipPath>
	<path style="clip-path:url(#SVGID_2_);fill:#FFFFFF;" d="M30.535,16.065H19.959c-0.582,0-1.058,0.474-1.058,1.058v8.035
		c0,0.584,0.476,1.058,1.058,1.058h3.96L23.6,27.484h-0.256c-0.585,0-1.057,0.475-1.057,1.058c0,0.117,0.094,0.212,0.21,0.212h5.499
		c0.117,0,0.211-0.095,0.211-0.212c0-0.583-0.474-1.058-1.057-1.058h-0.258l-0.317-1.269h3.96c0.582,0,1.057-0.474,1.057-1.058
		v-8.035C31.592,16.539,31.117,16.065,30.535,16.065 M26.728,27.908h0.423c0.275,0,0.511,0.177,0.598,0.423h-5.004
		c0.087-0.246,0.322-0.423,0.6-0.423H26.728z M24.036,27.484l0.32-1.269h1.783l0.317,1.269H24.036z M31.168,25.158
		c0,0.351-0.283,0.635-0.633,0.635H19.959c-0.35,0-0.635-0.284-0.635-0.635v-0.633h11.844V25.158z M31.168,24.102H19.324V18.18
		h11.844V24.102z M31.168,17.757H19.324v-0.634c0-0.35,0.285-0.636,0.635-0.636h10.576c0.35,0,0.633,0.286,0.633,0.636V17.757z"/>
	<rect x="21.651" y="16.911" style="clip-path:url(#SVGID_2_);fill:#FFFFFF;" width="0.423" height="0.422"/>
	<rect x="20.805" y="16.911" style="clip-path:url(#SVGID_2_);fill:#FFFFFF;" width="0.423" height="0.422"/>
	<rect x="19.959" y="16.911" style="clip-path:url(#SVGID_2_);fill:#FFFFFF;" width="0.423" height="0.422"/>
	<path style="clip-path:url(#SVGID_2_);fill:#FFFFFF;" d="M26.728,18.602h-2.96c-0.119,0-0.212,0.095-0.212,0.211v4.654
		c0,0.116,0.093,0.211,0.212,0.211h2.96c0.116,0,0.209-0.095,0.209-0.211v-4.654C26.937,18.697,26.844,18.602,26.728,18.602
		 M26.516,23.256h-2.537v-4.23h2.537V23.256z"/>
	<rect x="24.4" y="21.563" style="clip-path:url(#SVGID_2_);fill:#FFFFFF;" width="1.691" height="0.424"/>
	<path style="clip-path:url(#SVGID_2_);fill:#FFFFFF;" d="M30.535,18.602h-2.963c-0.115,0-0.211,0.095-0.211,0.211v4.654
		c0,0.116,0.096,0.211,0.211,0.211h2.963c0.115,0,0.211-0.095,0.211-0.211v-4.654C30.746,18.697,30.65,18.602,30.535,18.602
		 M30.323,23.256h-2.539v-4.23h2.539V23.256z"/>
	<path style="clip-path:url(#SVGID_2_);fill:#FFFFFF;" d="M29.053,19.448c-0.465,0-0.846,0.38-0.846,0.847
		c0,0.466,0.381,0.845,0.846,0.845c0.467,0,0.847-0.379,0.847-0.845C29.899,19.828,29.52,19.448,29.053,19.448 M29.053,20.718
		c-0.233,0-0.422-0.189-0.422-0.423c0-0.233,0.188-0.424,0.422-0.424s0.424,0.191,0.424,0.424
		C29.477,20.529,29.286,20.718,29.053,20.718"/>
	<rect x="28.207" y="21.563" style="clip-path:url(#SVGID_2_);fill:#FFFFFF;" width="1.692" height="0.424"/>
	<rect x="24.4" y="22.408" style="clip-path:url(#SVGID_2_);fill:#FFFFFF;" width="1.691" height="0.424"/>
	<rect x="28.207" y="22.408" style="clip-path:url(#SVGID_2_);fill:#FFFFFF;" width="1.692" height="0.424"/>
	<path style="clip-path:url(#SVGID_2_);fill:#FFFFFF;" d="M22.92,18.602h-2.961c-0.115,0-0.211,0.095-0.211,0.211v4.654
		c0,0.116,0.096,0.211,0.211,0.211h2.961c0.117,0,0.211-0.095,0.211-0.211v-4.654C23.131,18.697,23.037,18.602,22.92,18.602
		 M22.708,23.256h-2.537v-4.23h2.537V23.256z"/>
	<rect x="20.593" y="21.563" style="clip-path:url(#SVGID_2_);fill:#FFFFFF;" width="1.694" height="0.424"/>
	<rect x="20.593" y="22.408" style="clip-path:url(#SVGID_2_);fill:#FFFFFF;" width="1.694" height="0.424"/>
	<path style="clip-path:url(#SVGID_2_);fill:#FFFFFF;" d="M22.264,20.834l-0.635-1.268c-0.072-0.144-0.306-0.144-0.378,0
		l-0.635,1.268c-0.033,0.066-0.03,0.144,0.01,0.206c0.038,0.062,0.105,0.1,0.179,0.1h1.27c0.072,0,0.141-0.038,0.179-0.1
		C22.292,20.978,22.296,20.9,22.264,20.834 M21.146,20.718l0.293-0.585l0.293,0.585H21.146z"/>
	<path style="clip-path:url(#SVGID_2_);fill:#FFFFFF;" d="M26.031,20.146l-0.636-0.635c-0.083-0.083-0.216-0.083-0.299,0
		l-0.634,0.635c-0.082,0.082-0.082,0.216,0,0.298l0.634,0.634c0.042,0.041,0.097,0.062,0.149,0.062c0.055,0,0.108-0.021,0.149-0.062
		l0.636-0.634C26.113,20.362,26.113,20.228,26.031,20.146 M25.246,20.631l-0.336-0.336l0.336-0.336l0.336,0.336L25.246,20.631z"/>
	<rect x="25.035" y="24.947" style="clip-path:url(#SVGID_2_);fill:#FFFFFF;" width="0.423" height="0.423"/>
	<path style="clip-path:url(#SVGID_2_);fill:#FFFFFF;" d="M26.234,46.107l0.309-0.022l0.309-0.022l0.046,0.616l-0.618,0.046
		L26.234,46.107z M22.074,46.567L22.074,46.567l-0.306-0.041l0.081-0.613l0.615,0.083l-0.083,0.613L22.074,46.567z M27.693,45.971
		l0.309-0.044l0.305-0.043l0.088,0.613l-0.613,0.087L27.693,45.971z M20.584,46.316L20.584,46.316l-0.303-0.062l0.123-0.607
		l0.608,0.125l-0.123,0.604L20.584,46.316z M29.141,45.737l0.605-0.13l0.13,0.607l-0.606,0.127L29.141,45.737z M19.117,45.962
		l-0.298-0.082l0.165-0.598l0.599,0.166l-0.167,0.597L19.117,45.962z M30.569,45.404l0.595-0.169l0.169,0.597L30.737,46
		L30.569,45.404z M17.68,45.508l-0.294-0.103l0.208-0.585l0.291,0.104l0.294,0.103l-0.208,0.584L17.68,45.508z M31.97,44.976
		l0.583-0.209l0.21,0.583l-0.292,0.104l-0.291,0.106L31.97,44.976z M16.274,44.956l-0.284-0.124l0.246-0.567l0.569,0.245
		l-0.246,0.569L16.274,44.956z M33.338,44.452l0.566-0.25l0.252,0.568l-0.284,0.125l-0.284,0.124L33.338,44.452z M14.91,44.309
		l-0.275-0.142l0.286-0.549l0.55,0.283l-0.283,0.551L14.91,44.309z M34.668,43.836l0.274-0.144h0.001l0.273-0.144l0.287,0.547
		l-0.547,0.289L34.668,43.836z M13.597,43.57l-0.267-0.159l0.322-0.531l0.53,0.323l-0.321,0.528L13.597,43.57z M35.95,43.128
		l0.527-0.322l0.326,0.526l-0.527,0.325L35.95,43.128z M12.334,42.745l-0.253-0.178l0.358-0.507l0.506,0.356l-0.357,0.507
		L12.334,42.745z M37.182,42.336l0.502-0.359l0.363,0.504l-0.505,0.36L37.182,42.336z M11.132,41.836L11.132,41.836l-0.241-0.195
		l0.39-0.481l0.483,0.39l-0.391,0.481L11.132,41.836z M38.354,41.461l0.479-0.395l0.395,0.478l-0.479,0.396L38.354,41.461z
		 M9.995,40.846l-0.227-0.211l0.422-0.453l0.453,0.422l-0.422,0.454L9.995,40.846z M8.928,39.78L8.928,39.78l-0.212-0.226
		l0.452-0.423l0.212,0.227l0.212,0.225l-0.453,0.425L8.928,39.78z M7.936,38.646l-0.198-0.239l0.482-0.393l0.393,0.479l-0.482,0.393
		L7.936,38.646z M7.026,37.447l-0.181-0.254l0.507-0.358l0.356,0.507l-0.505,0.357L7.026,37.447z M6.197,36.187L6.035,35.92
		l0.532-0.32l0.322,0.528L6.358,36.45L6.197,36.187z M5.459,34.873l-0.142-0.274l0.55-0.285l0.284,0.55l-0.549,0.285L5.459,34.873z
		 M4.814,33.512V33.51l-0.123-0.283L5.26,32.98l0.123,0.284l0.121,0.284l-0.568,0.245L4.814,33.512z M4.262,32.107L4.262,32.107
		l-0.103-0.293l0.585-0.206l0.207,0.584l-0.586,0.207L4.262,32.107z M45.104,32.045l0.202-0.585l0.586,0.203l-0.203,0.586
		L45.104,32.045z M3.811,30.669l-0.084-0.3l0.597-0.165l0.166,0.598l-0.597,0.165L3.811,30.669z M45.557,30.652l0.082-0.3v0.001
		l0.08-0.3l0.599,0.162l-0.163,0.599L45.557,30.652z M3.456,29.204l-0.061-0.305l0.606-0.124l0.126,0.605l-0.608,0.126L3.456,29.204
		z M45.912,29.23l0.121-0.609l0.607,0.121L46.52,29.35L45.912,29.23z M3.282,28.252L3.282,28.252l-0.048-0.306l0.61-0.099
		l0.099,0.612l-0.612,0.098L3.282,28.252z M46.168,27.785l0.079-0.616l0.615,0.079l-0.04,0.308l-0.039,0.307L46.168,27.785z
		 M3.094,26.755L3.094,26.755l-0.029-0.307l0.617-0.057l0.057,0.615l-0.616,0.057L3.094,26.755z M46.326,26.328l0.036-0.619
		l0.618,0.036l-0.02,0.309l-0.016,0.311L46.326,26.328z M3.008,25.25L3,24.941l0.619-0.015l0.014,0.619L3.015,25.56L3.008,25.25z
		 M46.379,24.553l-0.005-0.31l0.62-0.005l0.003,0.309L47,24.857l-0.618,0.006L46.379,24.553z M3.01,24.052l0.014-0.309l0.013-0.311
		l0.619,0.029l-0.028,0.619L3.01,24.052z M46.311,23.088L46.311,23.088l-0.024-0.308l0.618-0.049l0.049,0.617l-0.618,0.05
		L46.311,23.088z M3.108,22.545l0.072-0.613l0.613,0.07L3.76,22.31l-0.037,0.309L3.108,22.545z M3.311,21.051l0.113-0.608
		l0.609,0.112L3.92,21.164L3.311,21.051z M3.617,19.574l0.155-0.603l0.599,0.156l-0.154,0.601L3.617,19.574z M45.521,18.771
		l-0.087-0.298l0.596-0.172l0.172,0.595l-0.594,0.173L45.521,18.771z M4.024,18.121l0.195-0.588l0.588,0.196l-0.195,0.587
		L4.024,18.121z M45.064,17.378l-0.106-0.292l0.581-0.211l0.106,0.291l0.106,0.291l-0.58,0.212L45.064,17.378z M4.529,16.698
		l0.119-0.286l0.118-0.286l0.573,0.235l-0.118,0.286l-0.117,0.286L4.529,16.698z M44.513,16.022l-0.128-0.283l0.566-0.253
		l0.253,0.565l-0.565,0.253L44.513,16.022z M43.868,14.706l-0.146-0.274l0.548-0.291l0.291,0.546l-0.547,0.293L43.868,14.706z
		 M43.135,13.439l-0.164-0.263l0.525-0.328l0.329,0.524L43.299,13.7L43.135,13.439z M42.317,12.224l-0.183-0.25l0.503-0.363
		L43,12.112l-0.502,0.362L42.317,12.224z M7.483,11.458l0.191-0.245l0.189-0.244l0.489,0.382l-0.381,0.488L7.483,11.458z
		 M41.416,11.069l-0.197-0.238l0.475-0.398l0.396,0.477l-0.474,0.396L41.416,11.069z M8.435,10.289l0.413-0.461l0.462,0.414
		l-0.413,0.462L8.435,10.289z M40.439,9.978L40.439,9.978l-0.214-0.224l0.446-0.428l0.216,0.222l0.214,0.224l-0.447,0.43
		L40.439,9.978z M9.465,9.188l0.443-0.432l0.433,0.446l-0.445,0.43L9.465,9.188z M39.391,8.957l-0.229-0.21l0.416-0.458l0.457,0.418
		l-0.416,0.459L39.391,8.957z M10.567,8.159l0.474-0.4l0.401,0.471l-0.475,0.401L10.567,8.159z M38.271,8.007L38.271,8.007
		l-0.242-0.192l0.385-0.485l0.487,0.384L38.516,8.2L38.271,8.007z M11.736,7.209l0.499-0.368l0.369,0.5l-0.5,0.368L11.736,7.209z
		 M37.094,7.136L37.094,7.136l-0.256-0.175l0.35-0.509L37.699,6.8l-0.352,0.513L37.094,7.136z M12.969,6.341l0.262-0.167
		l0.262-0.166l0.332,0.524l-0.524,0.332L12.969,6.341z M35.855,6.35L35.59,6.192l0.314-0.534l0.535,0.315l-0.316,0.533L35.855,6.35z
		 M14.257,5.561l0.273-0.148l0.274-0.147l0.294,0.545l-0.546,0.295L14.257,5.561z M34.57,5.648l-0.279-0.14l0.279-0.552l0.554,0.277
		l-0.278,0.554L34.57,5.648z M15.599,4.871l0.563-0.256l0.258,0.563l-0.564,0.256L15.599,4.871z M33.236,5.038l-0.285-0.121
		l0.241-0.572l0.571,0.239l-0.241,0.572L33.236,5.038z M16.984,4.274l0.29-0.11l0.291-0.108l0.217,0.581l-0.581,0.216L16.984,4.274z
		 M31.867,4.518l-0.295-0.1l0.2-0.586l0.295,0.098l0.292,0.1L32.16,4.616L31.867,4.518z M18.406,3.774L19,3.597l0.178,0.593
		l-0.595,0.178L18.406,3.774z M30.463,4.091L30.463,4.091l-0.299-0.079l0.158-0.598l0.6,0.159L30.763,4.17L30.463,4.091z
		 M19.859,3.375l0.303-0.068l0.302-0.068l0.137,0.604l-0.605,0.136L19.859,3.375z M29.033,3.766l-0.305-0.057L28.846,3.1
		l0.609,0.116l-0.118,0.609L29.033,3.766z M21.338,3.073l0.613-0.095l0.095,0.612l-0.308,0.047l-0.306,0.047L21.338,3.073z
		 M27.584,3.541l-0.308-0.038l0.075-0.615l0.307,0.037l0.308,0.037l-0.075,0.615L27.584,3.541z M22.833,2.873l0.617-0.053
		l0.054,0.618L22.885,3.49L22.833,2.873z M26.125,3.414l-0.311-0.016l0.031-0.619l0.619,0.032l-0.033,0.618L26.125,3.414z
		 M24.338,2.773l0.619-0.011l0.012,0.621l-0.619,0.01L24.338,2.773z"/>
	<path style="clip-path:url(#SVGID_2_);fill:#FFFFFF;" d="M20.178,30.353l-3.84-3.838v-3.652c0-0.583-0.475-1.058-1.058-1.058
		s-1.057,0.475-1.057,1.058v6.646c0,0.068,0.022,0.133,0.063,0.187l2.656,3.393V35.4c0,0.166,0.135,0.302,0.302,0.302h2.72
		c0.167,0,0.302-0.136,0.302-0.302v-4.834C20.266,30.486,20.234,30.41,20.178,30.353 M19.662,35.098h-2.115v-2.114
		c0-0.068-0.024-0.132-0.065-0.187l-2.655-3.393v-6.542c0-0.25,0.202-0.454,0.453-0.454s0.454,0.204,0.454,0.454v3.776
		c0,0.08,0.032,0.156,0.088,0.214l0.438,0.438c-0.477,0.143-0.828,0.586-0.828,1.11c0,0.309,0.12,0.6,0.338,0.818l1.866,1.862
		l0.426-0.426l-1.865-1.864c-0.105-0.104-0.162-0.243-0.162-0.391c0-0.305,0.248-0.553,0.553-0.553c0.147,0,0.285,0.057,0.39,0.16
		l2.684,2.684V35.098z"/>
	<path style="clip-path:url(#SVGID_2_);fill:#FFFFFF;" d="M35.213,21.804c-0.583,0-1.057,0.475-1.057,1.058v3.652l-3.84,3.838
		c-0.057,0.057-0.09,0.134-0.09,0.214V35.4c0,0.166,0.137,0.302,0.303,0.302h2.721c0.166,0,0.301-0.136,0.301-0.302v-2.313
		l2.656-3.393c0.041-0.054,0.063-0.119,0.063-0.188v-6.646C36.27,22.279,35.795,21.804,35.213,21.804 M35.665,29.404l-2.653,3.393
		c-0.042,0.055-0.064,0.118-0.064,0.187v2.114h-2.115v-4.406l2.684-2.684c0.104-0.104,0.242-0.16,0.389-0.16
		c0.305,0,0.553,0.248,0.553,0.553c0,0.147-0.057,0.286-0.162,0.391l-1.863,1.864l0.427,0.426l1.864-1.862
		c0.219-0.22,0.339-0.51,0.339-0.818c0-0.524-0.351-0.968-0.829-1.11l0.439-0.438c0.056-0.058,0.088-0.134,0.088-0.214v-3.776
		c0-0.25,0.203-0.454,0.453-0.454s0.452,0.204,0.452,0.454V29.404z"/>
	<rect x="24.945" y="29.962" style="clip-path:url(#SVGID_2_);fill:#FFFFFF;" width="0.604" height="0.604"/>
	<rect x="24.945" y="31.17" style="clip-path:url(#SVGID_2_);fill:#FFFFFF;" width="0.604" height="0.604"/>
	<rect x="26.154" y="31.17" style="clip-path:url(#SVGID_2_);fill:#FFFFFF;" width="0.604" height="0.604"/>
	<rect x="23.736" y="31.17" style="clip-path:url(#SVGID_2_);fill:#FFFFFF;" width="0.604" height="0.604"/>
	<rect x="24.945" y="32.379" style="clip-path:url(#SVGID_2_);fill:#FFFFFF;" width="0.604" height="0.604"/>
	<path style="clip-path:url(#SVGID_2_);fill:#FFFFFF;" d="M46.793,35.781v-2.325c0-0.146-0.119-0.266-0.265-0.266h-7.855
		c-0.146,0-0.267,0.119-0.267,0.266v2.325c0,0.179,0.007,0.361,0.019,0.543c0.069,1.039,0.336,2.047,0.794,2.996l0.02,0.04
		c0.006,0.016,0.014,0.03,0.021,0.045c0.052,0.106,0.109,0.21,0.172,0.322l0.021,0.041c0.023,0.042,0.047,0.084,0.07,0.126
		c0.008,0.012,0.013,0.024,0.02,0.035c0.007,0.013,0.014,0.026,0.021,0.039l0.437,0.652c0.67,0.915,1.501,1.664,2.465,2.228
		c0.081,0.046,0.187,0.046,0.269,0C45.238,41.389,46.793,38.68,46.793,35.781 M42.633,42.29L42.6,42.311l-0.032-0.021
		c-0.912-0.563-1.687-1.308-2.3-2.21c-0.065-0.099-0.131-0.197-0.192-0.298l-0.021-0.036c-0.03-0.052-0.063-0.103-0.093-0.155
		c-0.051-0.086-0.096-0.173-0.143-0.261l-0.034-0.063c-0.029-0.056-0.058-0.109-0.085-0.166c-0.021-0.044-0.04-0.089-0.061-0.136
		l-0.028-0.066c-0.089-0.198-0.169-0.397-0.237-0.593c-0.008-0.021-0.014-0.039-0.021-0.058c-0.01-0.027-0.02-0.054-0.029-0.08
		c-0.034-0.104-0.063-0.211-0.094-0.316l-0.01-0.035c-0.016-0.055-0.03-0.108-0.045-0.162c-0.025-0.099-0.047-0.198-0.067-0.298
		c-0.018-0.08-0.032-0.16-0.048-0.241c-0.016-0.09-0.031-0.18-0.044-0.27C39,36.743,38.99,36.64,38.979,36.535l-0.006-0.066
		c-0.006-0.049-0.01-0.099-0.014-0.147c-0.015-0.201-0.021-0.377-0.021-0.54v-2.061h7.325v2.061
		C46.263,38.412,44.872,40.907,42.633,42.29"/>
	<path style="clip-path:url(#SVGID_2_);fill:#FFFFFF;" d="M44.659,36.257l-2.387,2.388l-1.077-1.078l-0.376,0.375l1.266,1.267
		c0.101,0.1,0.274,0.1,0.376-0.001l2.574-2.574L44.659,36.257z"/>
	<rect x="39.715" y="34.5" style="clip-path:url(#SVGID_2_);fill:#FFFFFF;" width="0.532" height="0.53"/>
	<rect x="41.025" y="34.5" style="clip-path:url(#SVGID_2_);fill:#FFFFFF;" width="0.531" height="0.53"/>
	<rect x="42.334" y="34.5" style="clip-path:url(#SVGID_2_);fill:#FFFFFF;" width="0.531" height="0.53"/>
	<rect x="43.645" y="34.5" style="clip-path:url(#SVGID_2_);fill:#FFFFFF;" width="0.529" height="0.53"/>
	<rect x="44.953" y="34.5" style="clip-path:url(#SVGID_2_);fill:#FFFFFF;" width="0.531" height="0.53"/>
	<path style="clip-path:url(#SVGID_2_);fill:#FFFFFF;" d="M8.063,14.29v-0.557c-0.625-0.059-1.125-0.559-1.184-1.184H6.322
		c-0.058,0.625-0.558,1.125-1.183,1.184v0.557c0.625,0.059,1.125,0.558,1.183,1.184h0.557C6.938,14.847,7.438,14.349,8.063,14.29
		 M7.084,14.11c-0.146,0.107-0.273,0.236-0.385,0.384L6.6,14.627l-0.099-0.133c-0.108-0.148-0.237-0.277-0.382-0.384l-0.135-0.1
		l0.134-0.099c0.146-0.109,0.275-0.237,0.383-0.383L6.6,13.395l0.099,0.134c0.111,0.146,0.239,0.275,0.385,0.383l0.135,0.099
		L7.084,14.11z"/>
	<path style="clip-path:url(#SVGID_2_);fill:#FFFFFF;" d="M46.965,20.158v-0.417c-0.43-0.03-0.773-0.374-0.804-0.803h-0.417
		c-0.029,0.429-0.374,0.772-0.801,0.803v0.417c0.427,0.031,0.771,0.374,0.801,0.802h0.417
		C46.191,20.532,46.535,20.188,46.965,20.158 M46.266,19.999c-0.1,0.075-0.188,0.164-0.263,0.265l-0.05,0.065l-0.049-0.065
		c-0.074-0.1-0.163-0.19-0.264-0.265l-0.067-0.05l0.067-0.05c0.101-0.075,0.189-0.163,0.264-0.263l0.049-0.067l0.05,0.067
		c0.075,0.1,0.163,0.189,0.263,0.263l0.067,0.05L46.266,19.999z"/>
	<path style="clip-path:url(#SVGID_2_);fill:#FFFFFF;" d="M25.408,46.483v-0.385c-0.402-0.029-0.725-0.352-0.754-0.754H24.27
		c-0.03,0.402-0.352,0.725-0.754,0.754v0.385c0.402,0.03,0.724,0.352,0.754,0.753h0.384C24.684,46.835,25.006,46.514,25.408,46.483
		 M24.758,46.341c-0.093,0.069-0.177,0.152-0.246,0.246l-0.049,0.066l-0.051-0.066c-0.068-0.093-0.152-0.177-0.246-0.246
		l-0.067-0.05l0.067-0.049c0.094-0.07,0.178-0.153,0.246-0.247l0.051-0.068l0.049,0.068c0.069,0.094,0.153,0.177,0.246,0.247
		l0.067,0.049L24.758,46.341z"/>
</g>
</svg>
