<?xml version="1.0" encoding="utf-8"?>
<!-- Generator: Adobe Illustrator 15.1.0, SVG Export Plug-In  -->
<!DOCTYPE svg PUBLIC "-//W3C//DTD SVG 1.1//EN" "http://www.w3.org/Graphics/SVG/1.1/DTD/svg11.dtd" [
	<!ENTITY ns_flows "http://ns.adobe.com/Flows/1.0/">
]>
<svg version="1.1"
	 xmlns="http://www.w3.org/2000/svg" xmlns:xlink="http://www.w3.org/1999/xlink" xmlns:a="http://ns.adobe.com/AdobeSVGViewerExtensions/3.0/"
	 x="0px" y="0px" width="500px" height="500px" viewBox="-72.478 -71.648 500 500" enable-background="new -72.478 -71.648 500 500"
	 xml:space="preserve">
<defs>
</defs>
<path stroke="#000000" d="M243.669,161.523h-28.328V123.75c0-0.037-0.019-0.069-0.021-0.108c-0.01-0.147-0.037-0.289-0.079-0.433
	c-0.021-0.061-0.03-0.121-0.056-0.18c-0.08-0.189-0.181-0.372-0.322-0.532l-15.108-16.997c-0.163-0.181-0.36-0.313-0.567-0.418
	c-0.063-0.03-0.123-0.05-0.188-0.074c-0.175-0.065-0.355-0.104-0.542-0.115c-0.038-0.003-0.074-0.026-0.114-0.026h-56.657
	c-5.206,0-9.442,4.235-9.442,9.441v81.208c0,5.207,4.236,9.444,9.442,9.444h64.026c3.797,5.185,8.637,9.635,14.342,12.961
	c0.295,0.172,0.622,0.258,0.949,0.258c0.331,0,0.66-0.086,0.955-0.258c14.555-8.492,23.598-24.237,23.598-41.086v-13.424
	C245.556,162.366,244.712,161.523,243.669,161.523L243.669,161.523z M200.229,111.722l4.112,4.626l4.901,5.516h-9.014V111.722z
	 M141.686,201.182c-3.123,0-5.665-2.542-5.665-5.666v-81.208c0-3.123,2.542-5.665,5.665-5.665h54.769v15.107
	c0,1.045,0.846,1.89,1.889,1.89h13.221v35.883h-13.221c-1.043,0-1.889,0.843-1.889,1.888v13.424c0,1.053,0.037,2.106,0.105,3.15
	c0.4,6.077,1.979,11.961,4.613,17.424c0.08,0.162,0.151,0.328,0.232,0.49c0.314,0.639,0.658,1.265,1.005,1.889
	c0.177,0.322,0.349,0.646,0.532,0.962c0.084,0.143,0.153,0.291,0.24,0.431H141.686z M241.778,176.835
	c0,15.142-7.932,29.313-20.775,37.253c-5.298-3.276-9.742-7.624-13.158-12.653c-0.381-0.561-0.746-1.127-1.1-1.702
	c-0.221-0.361-0.441-0.721-0.654-1.09c-0.288-0.496-0.554-1.001-0.82-1.506c-0.228-0.435-0.463-0.865-0.675-1.307
	c-0.186-0.382-0.345-0.771-0.52-1.158c-0.497-1.111-0.952-2.242-1.358-3.394c-0.092-0.262-0.197-0.523-0.283-0.787
	c-0.196-0.598-0.369-1.206-0.539-1.813c-0.106-0.378-0.215-0.753-0.313-1.134c-0.142-0.561-0.269-1.128-0.388-1.697
	c-0.099-0.46-0.187-0.923-0.271-1.386c-0.091-0.511-0.178-1.022-0.248-1.536c-0.085-0.591-0.15-1.184-0.207-1.781
	c-0.041-0.408-0.09-0.816-0.121-1.225c-0.07-1.021-0.117-2.05-0.117-3.085V165.3h41.549V176.835z M241.778,176.835"/>
<path stroke="#000000" d="M232.89,179.073l-13.773,13.775l-6.219-6.221l-2.67,2.672l7.553,7.554
	c0.371,0.368,0.854,0.554,1.336,0.554c0.484,0,0.967-0.186,1.336-0.554l15.107-15.108L232.89,179.073z M232.89,179.073"/>
<rect x="143.575" y="131.308" stroke="#000000" width="60.432" height="3.776"/>
<rect x="143.575" y="140.75" stroke="#000000" width="60.432" height="3.776"/>
<rect x="143.575" y="150.192" stroke="#000000" width="60.432" height="3.776"/>
<rect x="143.575" y="159.635" stroke="#000000" width="45.324" height="3.776"/>
<rect x="143.575" y="169.077" stroke="#000000" width="45.324" height="3.777"/>
<rect x="143.575" y="178.519" stroke="#000000" width="45.324" height="3.777"/>
<rect x="143.575" y="187.962" stroke="#000000" width="45.324" height="3.777"/>
<rect x="204.007" y="169.077" stroke="#000000" width="3.777" height="3.777"/>
<rect x="211.563" y="169.077" stroke="#000000" width="3.777" height="3.777"/>
<rect x="219.116" y="169.077" stroke="#000000" width="3.777" height="3.777"/>
<rect x="226.671" y="169.077" stroke="#000000" width="3.777" height="3.777"/>
<rect x="234.226" y="169.077" stroke="#000000" width="3.775" height="3.777"/>
<circle fill="#FFFFFF" cx="126.522" cy="204.686" r="40"/>
<path fill="none" stroke="#010101" stroke-width="5" stroke-linecap="square" stroke-linejoin="round" stroke-dasharray="0,12" d="
	M4.744,205.28C-10.595,109.859,54.329,20.086,149.757,4.74c95.422-15.323,185.2,49.604,200.526,145.028
	c15.335,95.409-49.588,185.198-145.009,200.538C109.854,365.637,20.076,300.703,4.744,205.28z"/>
<path stroke="#FFFFFF" stroke-width="2" d="M27.351,70.055c0,5.293-4.311,9.6-9.6,9.6v6.403c5.289,0,9.6,4.308,9.6,9.601h6.4
	c0-5.293,4.307-9.601,9.602-9.601v-6.403c-5.295,0-9.602-4.307-9.602-9.6H27.351L27.351,70.055z M30.551,86.157
	c-0.935-1.258-2.04-2.367-3.296-3.3c1.256-0.935,2.361-2.042,3.296-3.3c0.937,1.258,2.042,2.365,3.3,3.3
	C32.593,83.79,31.487,84.899,30.551,86.157L30.551,86.157z M30.551,86.157"/>
<path stroke="#FFFFFF" d="M301.589,48.65c0,3.6-2.929,6.528-6.522,6.528v4.35c3.594,0,6.522,2.924,6.522,6.524h4.352
	c0-3.6,2.927-6.524,6.524-6.524v-4.35c-3.598,0-6.524-2.928-6.524-6.528H301.589L301.589,48.65z M303.769,59.595
	c-0.64-0.858-1.389-1.605-2.246-2.243c0.857-0.635,1.606-1.387,2.246-2.242c0.633,0.855,1.389,1.607,2.239,2.242
	C305.157,57.989,304.401,58.737,303.769,59.595L303.769,59.595z M303.769,59.595"/>
<path stroke="#FFFFFF" d="M200.352,342.182c0,3.362-2.739,6.104-6.103,6.104v4.066c3.363,0,6.103,2.737,6.103,6.104h4.067
	c0-3.366,2.739-6.104,6.104-6.104v-4.066c-3.364,0-6.104-2.741-6.104-6.104H200.352L200.352,342.182z M202.386,352.415
	c-0.594-0.798-1.299-1.502-2.098-2.097c0.799-0.593,1.504-1.297,2.098-2.097c0.594,0.8,1.297,1.504,2.098,2.097
	C203.683,350.913,202.979,351.617,202.386,352.415L202.386,352.415z M202.386,352.415"/>
<path stroke="#000000" stroke-width="0.5" d="M321.862,297.246h-15.677c-1.181,0-2.143,0.961-2.143,2.143v4.808
	c0,1.182,0.962,2.143,2.143,2.143h15.677c1.181,0,2.143-0.961,2.143-2.143v-4.808C324.005,298.207,323.043,297.246,321.862,297.246
	L321.862,297.246z M321.25,303.584h-14.451V300h14.451V303.584z M321.25,303.584"/>
<path stroke="#000000" stroke-width="0.5" d="M348.864,285.338l0.022-0.01l-10.33-20.421c-0.834-1.65-2.502-2.676-4.352-2.676
	h-1.963v-1.897c0-0.761-0.615-1.377-1.377-1.377h-33.684c-0.76,0-1.377,0.617-1.377,1.377v1.897h-1.963
	c-1.849,0-3.516,1.026-4.352,2.676l-10.328,20.421l0.021,0.01c-0.441,0.729-0.697,1.583-0.697,2.497v21.573
	c0,2.661,2.164,4.824,4.824,4.824h61.428c2.66,0,4.824-2.164,4.824-4.824v-21.573C349.563,286.921,349.307,286.067,348.864,285.338
	L348.864,285.338z M332.242,265.292h1.963c0.689,0,1.311,0.381,1.621,0.997l8.458,16.722h-5.751v-5.145
	c0-0.761-0.617-1.377-1.377-1.377h-1.705v-7.389c0-0.761-0.616-1.378-1.377-1.378h-1.832V265.292z M335.778,279.242v3.768h-7.269
	c-1.247,0-2.384,0.735-2.896,1.872l-1.984,4.401c-0.019,0.042-0.061,0.068-0.106,0.068h-18.998c-0.045,0-0.087-0.026-0.104-0.068
	l-1.986-4.401c-0.512-1.137-1.648-1.872-2.895-1.872h-7.27v-3.768H335.778z M298.561,261.71h30.928v6.011h-30.928V261.71z
	 M332.697,270.476v6.012h-37.346v-6.012H332.697z M292.221,266.288c0.313-0.615,0.934-0.997,1.621-0.997h1.963v2.429h-1.831
	c-0.761,0-1.377,0.617-1.377,1.377v7.389h-1.704c-0.762,0-1.377,0.617-1.377,1.377v5.146h-5.752L292.221,266.288z M344.738,311.171
	h-61.428c-0.973,0-1.764-0.791-1.764-1.763v-21.573c0-0.972,0.791-1.764,1.764-1.764h16.229c0.045,0,0.086,0.027,0.105,0.069
	l1.984,4.402c0.513,1.137,1.649,1.871,2.896,1.871h18.998c1.247,0,2.384-0.734,2.896-1.871l1.984-4.402
	c0.02-0.042,0.061-0.069,0.106-0.069h16.228c0.973,0,1.763,0.792,1.763,1.764v21.573C346.5,310.38,345.71,311.171,344.738,311.171
	L344.738,311.171z M344.738,311.171"/>
<rect x="298.561" y="261.71" fill="#FFFFFF" stroke="#000000" stroke-width="0.5" width="30.928" height="6.011"/>
<rect x="295.352" y="270.476" fill="#FFFFFF" stroke="#000000" stroke-width="0.5" width="37.346" height="6.012"/>
<path fill="#FFFFFF" stroke="#000000" stroke-width="0.5" d="M289.516,277.865c0-0.761,0.615-1.377,1.377-1.377h1.704v-7.389
	c0-0.76,0.616-1.377,1.377-1.377h1.831v-2.429h-1.963c-0.688,0-1.309,0.381-1.621,0.997l-8.457,16.722h5.752V277.865z"/>
<path fill="#FFFFFF" stroke="#000000" stroke-width="0.5" d="M292.27,283.01h7.27c1.246,0,2.383,0.735,2.895,1.872l1.986,4.401
	c0.018,0.042,0.06,0.068,0.104,0.068h18.998c0.046,0,0.088-0.026,0.106-0.068l1.984-4.401c0.513-1.137,1.649-1.872,2.896-1.872
	h7.269v-3.768H292.27V283.01z"/>
<path fill="#FFFFFF" stroke="#000000" stroke-width="0.5" d="M335.451,269.099v7.389h1.705c0.76,0,1.377,0.616,1.377,1.377v5.145
	h5.751l-8.458-16.722c-0.311-0.615-0.932-0.997-1.621-0.997h-1.963v2.43h1.832C334.835,267.721,335.451,268.338,335.451,269.099z"/>
<path fill="#FFFFFF" stroke="#000000" stroke-width="0.5" d="M344.737,286.071H328.51c-0.046,0-0.087,0.027-0.106,0.069
	l-1.984,4.402c-0.513,1.137-1.649,1.871-2.896,1.871h-18.998c-1.246,0-2.383-0.734-2.896-1.871l-1.984-4.402
	c-0.02-0.042-0.061-0.069-0.105-0.069h-16.229c-0.973,0-1.764,0.792-1.764,1.764v21.573c0,0.972,0.791,1.763,1.764,1.763h61.428
	c0.972,0,1.762-0.791,1.762-1.763v-21.573C346.5,286.862,345.71,286.071,344.737,286.071z M324.005,304.196
	c0,1.182-0.962,2.143-2.143,2.143h-15.677c-1.181,0-2.143-0.961-2.143-2.143v-4.808c0-1.181,0.962-2.143,2.143-2.143h15.677
	c1.181,0,2.143,0.961,2.143,2.143V304.196z"/>
<rect x="306.799" y="300" fill="#FFFFFF" stroke="#000000" stroke-width="0.5" width="14.451" height="3.583"/>
<path d="M162.554,230.128c5.082-7.072,8.078-15.743,8.078-25.115c0-23.791-19.285-43.076-43.076-43.076
	c-23.79,0-43.074,19.285-43.074,43.075s19.284,43.075,43.074,43.075c9.51,0,18.294-3.083,25.419-8.297l30.728,30.725l9.619-9.619
	L162.554,230.128z M142.556,240.527c-4.747,2.006-9.794,3.026-15,3.026c-5.203,0-10.252-1.02-14.999-3.026
	c-4.589-1.94-8.711-4.724-12.251-8.264c-3.543-3.541-6.322-7.659-8.263-12.25c-2.009-4.749-3.028-9.795-3.028-15.001
	c0-5.204,1.02-10.25,3.028-15c1.94-4.589,4.72-8.71,8.261-12.252c3.542-3.54,7.664-6.319,12.253-8.26
	c4.747-2.008,9.796-3.028,14.999-3.028c5.206,0,10.253,1.02,15,3.028c4.59,1.942,8.711,4.72,12.253,8.26
	c3.54,3.542,6.32,7.664,8.261,12.252c2.01,4.75,3.029,9.797,3.029,15.001c0,5.205-1.02,10.252-3.029,15
	c-1.94,4.59-4.721,8.708-8.261,12.25C151.269,235.804,147.146,238.587,142.556,240.527L142.556,240.527z M156.506,236.907
	c1.122-1.016,2.185-2.092,3.191-3.222l27.214,27.21l-3.209,3.208L156.506,236.907z M156.506,236.907"/>
<path d="M145.724,228.039c0-0.003-0.002-0.011-0.002-0.017h-0.004L145.724,228.039z M145.724,228.039"/>
<path d="M107.117,193.332c0,0.004,0.001,0.01,0.003,0.019L107.117,193.332z M107.117,193.332"/>
<path d="M152.496,207.285h-6.865c0.033-0.747,0.053-1.503,0.053-2.267c0-0.694-0.02-1.37-0.053-2.027
	c5.866-2.815,6.803-8.715,6.843-8.979l-0.004-0.002c0.018-0.108,0.026-0.217,0.026-0.33c0-1.253-1.013-2.267-2.269-2.267
	c-1.137,0-2.078,0.842-2.238,1.936c-0.006,0.033-0.451,2.825-2.99,4.74c-1.256-5.765-4.209-9.644-8.576-11.706l4.436-7.409
	l-0.002-0.002c0.204-0.341,0.323-0.737,0.323-1.164c0-1.253-1.015-2.267-2.267-2.267c-0.826,0-1.547,0.443-1.943,1.104l-0.002-0.001
	l-4.994,8.343c-1.381-0.25-2.855-0.376-4.418-0.376c-1.555,0-3.021,0.125-4.399,0.374l-4.991-8.34l-0.002,0.002
	c-0.396-0.662-1.119-1.104-1.943-1.104c-1.252,0-2.268,1.016-2.268,2.268c0,0.425,0.119,0.822,0.323,1.163l-0.001,0.002l4.43,7.4
	c-4.376,2.063-7.335,5.944-8.594,11.717c-2.419-1.83-2.941-4.469-2.99-4.742h-0.002c-0.16-1.095-1.102-1.937-2.24-1.937
	c-1.252,0-2.269,1.015-2.269,2.267c0,0.113,0.011,0.223,0.026,0.331l-0.002,0.001c0.039,0.265,0.979,6.165,6.848,8.982
	c-0.035,0.656-0.051,1.331-0.051,2.024c0,0.764,0.016,1.52,0.049,2.267h-6.865c-1.252,0-2.267,1.016-2.267,2.268
	c0,1.252,1.015,2.267,2.267,2.267h7.285c0.349,2.382,0.896,4.619,1.662,6.653c-5.698,2.85-6.617,8.626-6.655,8.889h0.005
	c-0.018,0.106-0.029,0.219-0.029,0.332c0,1.25,1.018,2.266,2.269,2.266c1.14,0,2.079-0.844,2.24-1.937h0.002
	c0.007-0.037,0.583-3.657,4.176-5.478c2.911,4.577,7.461,7.414,13.987,7.414s11.078-2.837,13.988-7.414
	c3.451,1.753,4.125,5.185,4.178,5.478h0.002c0.159,1.093,1.1,1.937,2.239,1.937c1.252,0,2.265-1.016,2.265-2.266
	c0-0.112-0.006-0.226-0.026-0.332h0.004c-0.037-0.262-0.957-6.038-6.653-8.889c0.764-2.034,1.314-4.271,1.66-6.653h7.285
	c1.252,0,2.268-1.014,2.268-2.267C154.765,208.3,153.749,207.285,152.496,207.285L152.496,207.285z M125.29,225.265
	c-3.39-0.495-5.969-2.169-7.843-5.073c-2.278-3.529-3.482-8.777-3.482-15.174c0-1.637,0.106-3.149,0.313-4.535h11.012V225.265z
	 M115.515,195.947c0.541-1.254,1.224-2.334,2.046-3.228c2.181-2.371,5.544-3.573,9.995-3.573c4.453,0,7.816,1.202,9.998,3.573
	c0.821,0.892,1.504,1.972,2.045,3.228H115.515z M137.664,220.192c-1.874,2.903-4.452,4.578-7.841,5.073v-24.782h11.011
	c0.208,1.386,0.315,2.898,0.315,4.535C141.149,211.415,139.942,216.663,137.664,220.192L137.664,220.192z M137.664,220.192"/>
</svg>
