<?xml version="1.0" encoding="utf-8"?>
<!-- Generator: Adobe Illustrator 15.1.0, SVG Export Plug-In  -->
<!DOCTYPE svg PUBLIC "-//W3C//DTD SVG 1.1//EN" "http://www.w3.org/Graphics/SVG/1.1/DTD/svg11.dtd" [
	<!ENTITY ns_flows "http://ns.adobe.com/Flows/1.0/">
]>
<svg version="1.1"
	 xmlns="http://www.w3.org/2000/svg" xmlns:xlink="http://www.w3.org/1999/xlink" xmlns:a="http://ns.adobe.com/AdobeSVGViewerExtensions/3.0/"
	 x="0px" y="0px" width="500px" height="500px" viewBox="-69.616 -55.77 500 500" enable-background="new -69.616 -55.77 500 500"
	 xml:space="preserve">
<defs>
</defs>
<path stroke="#FFFFFF" stroke-width="2" d="M76.434,50.465l-6.025-6.7c-2.241,1.99-4.611,4.433-6.867,6.464l6.196,6.261
	C71.541,54.33,73.801,52.298,76.434,50.465L76.434,50.465z M76.434,50.465"/>
<path stroke="#FFFFFF" stroke-width="2" d="M121.453,25.318l-2.787-8.798c-3.307,1.117-6.051,1.951-8.967,3.22l3.548,8.141
	C115.572,26.83,118.316,25.995,121.453,25.318L121.453,25.318z M121.453,25.318"/>
<path stroke="#FFFFFF" stroke-width="2" d="M89.416,40.615l-4.701-7.635c-2.479,1.44-4.722,3.429-7.373,5.307l5.463,6.979
	C85.064,43.233,87.526,41.836,89.416,40.615L89.416,40.615z M89.416,40.615"/>
<path stroke="#FFFFFF" stroke-width="2" d="M53.618,76.635l-7.679-4.93c-1.975,2.597-3.561,5.346-5.101,8.112l7.831,4.539
	C49.664,81.828,51.639,79.231,53.618,76.635L53.618,76.635z M53.618,76.635"/>
<path stroke="#FFFFFF" stroke-width="2" d="M105.124,31.384l-3.938-8.295c-2.915,1.273-5.986,2.935-8.465,4.376l4.547,8.029
	C99.729,34.095,102.209,32.655,105.124,31.384L105.124,31.384z M105.124,31.384"/>
<path stroke="#FFFFFF" stroke-width="2" d="M63.697,63.279l-6.789-6.041c-1.977,2.597-3.783,4.758-5.757,7.352l7.114,5.214
	C59.65,67.428,61.455,65.266,63.697,63.279L63.697,63.279z M63.697,63.279"/>
<path stroke="#FFFFFF" stroke-width="2" d="M33.016,160.96l-8.974,0.805c0.288,2.982,0.513,5.992,1.238,9.143l9.147-1.239
	C33.702,166.518,33.26,163.926,33.016,160.96L33.016,160.96z M33.016,160.96"/>
<path stroke="#FFFFFF" stroke-width="2" d="M41.031,100.08c0.977-2.486,2.125-5.406,3.708-8.156l-8.158-3.709
	c-1.581,2.748-2.729,5.67-3.878,8.593l-0.172,0.436l8.328,3.272L41.031,100.08z M41.031,100.08"/>
<path stroke="#FFFFFF" stroke-width="2" d="M32.238,143.338l-9.086-0.196c-0.146,2.811-0.029,6.229,0.196,9.239l8.804-0.367
	C32.379,149.132,32.09,146.151,32.238,143.338L32.238,143.338z M32.238,143.338"/>
<path stroke="#FFFFFF" stroke-width="2" d="M38.023,109.015l-8.484-2.88c-1.147,2.921-1.857,6.016-2.615,9.092l8.827,2.007
	C36.293,114.577,37.047,111.5,38.023,109.015L38.023,109.015z M38.023,109.015"/>
<path stroke="#FFFFFF" stroke-width="2" d="M34.119,126.258l-8.98-1.616c-0.713,3.093-0.859,5.904-1.181,9.151l9.151,1.18
	C33.259,132.162,33.578,128.913,34.119,126.258L34.119,126.258z M34.119,126.258"/>
<path stroke="#FFFFFF" stroke-width="2" d="M288.176,150.984l9.085,0.197c-0.289-2.982,0.032-6.229-0.196-9.239l-8.801,0.368
	C288.097,145.164,288.325,148.172,288.176,150.984L288.176,150.984z M288.176,150.984"/>
<path stroke="#FFFFFF" stroke-width="2" d="M35.666,177.405l-8.643,2.394c0.68,3.138,1.779,6.488,2.614,9.229l8.532-3.39
	L35.666,177.405z M35.666,177.405"/>
<path stroke="#FFFFFF" stroke-width="2" d="M287.398,133.362l8.58-0.959c-0.288-2.982-0.515-5.988-1.237-9.143l-8.755,1.392
	C286.713,127.807,287.17,130.351,287.398,133.362L287.398,133.362z M287.398,133.362"/>
<path stroke="#FFFFFF" stroke-width="2" d="M284.484,116.309l8.643-2.394c-0.682-3.135-1.779-6.487-2.614-9.232l-8.36,2.957
	C282.798,110.865,283.65,113.565,284.484,116.309L284.484,116.309z M284.484,116.309"/>
<path stroke="#FFFFFF" stroke-width="2" d="M172.826,19.478l1.027-8.758c-3.248-0.321-6.059-0.468-9.306-0.788l-0.196,9.084
	C167.145,19.208,170.018,19.329,172.826,19.478L172.826,19.478z M172.826,19.478"/>
<path stroke="#FFFFFF" stroke-width="2" d="M278.98,99.7l8.53-3.395l-3.784-8.683l-8.293,3.937
	C276.859,94.083,278.129,97,278.98,99.7L278.98,99.7z M278.98,99.7"/>
<path stroke="#FFFFFF" stroke-width="2" d="M190.565,22.121l2.007-8.826c-3.094-0.713-6.341-1.031-9.414-1.787l-1.616,8.98
	C184.663,21.258,187.318,21.8,190.565,22.121L190.565,22.121z M190.565,22.121"/>
<path stroke="#FFFFFF" stroke-width="2" d="M263.248,56.469l-6.699,6.025c1.99,2.242,3.432,4.721,5.465,6.981l7.132-5.857
	C267.115,61.36,265.236,58.708,263.248,56.469L263.248,56.469z M263.248,56.469"/>
<path stroke="#FFFFFF" stroke-width="2" d="M274.65,71.52l-7.636,4.701c1.835,2.634,3.26,5.157,4.7,7.637l7.857-4.11
	C277.908,76.676,276.467,74.196,274.65,71.52L274.65,71.52z M274.65,71.52"/>
<path stroke="#FFFFFF" stroke-width="2" d="M250.039,43.578l-6.037,6.787c2.158,1.806,4.362,3.63,6.35,5.87l6.305-6.181
	C254.626,47.795,252.593,45.536,250.039,43.578L250.039,43.578z M250.039,43.578"/>
<path stroke="#FFFFFF" stroke-width="2" d="M267.295,216.423l7.676,4.93c1.806-2.158,3.389-4.908,4.537-7.832l-7.832-4.539
	C270.247,211.341,268.707,214.11,267.295,216.423L267.295,216.423z M267.295,216.423"/>
<path stroke="#FFFFFF" stroke-width="2" d="M256.889,230.604l6.789,6.041c1.975-2.596,3.953-5.193,5.928-7.787l-7.112-5.211
	C260.541,226.306,258.738,228.464,256.889,230.604L256.889,230.604z M256.889,230.604"/>
<path stroke="#FFFFFF" stroke-width="2" d="M244.74,243.2l6.027,6.697c2.241-1.986,4.455-4.037,6.477-6.617l-6.18-6.303
	C249.197,239.163,246.999,241.169,244.74,243.2L244.74,243.2z M244.74,243.2"/>
<path stroke="#FFFFFF" stroke-width="2" d="M231.014,253.663l4.701,7.637c2.635-1.836,5.332-3.695,7.963-5.531l-5.463-6.977
	C235.735,250.233,233.494,252.222,231.014,253.663L231.014,253.663z M231.014,253.663"/>
<path stroke="#FFFFFF" stroke-width="2" d="M215.674,262.085l3.941,8.291c2.48-1.441,5.395-2.711,8.464-4.375l-4.548-8.027
	C221.07,259.372,218.154,260.642,215.674,262.085L215.674,262.085z M215.674,262.085"/>
<path stroke="#FFFFFF" stroke-width="2" d="M41.606,194.188l-8.532,3.392l3.786,8.688l8.292-3.941
	C43.882,199.409,42.438,196.931,41.606,194.188L41.606,194.188z M41.606,194.188"/>
<path stroke="#FFFFFF" stroke-width="2" d="M218.604,23.018l-3.711,8.157c2.487,0.977,5.238,2.56,7.61,3.948l4.539-7.832
	C224.273,25.751,221.523,24.165,218.604,23.018L218.604,23.018z M218.604,23.018"/>
<path stroke="#FFFFFF" stroke-width="2" d="M198.657,24.844c2.483,0.977,5.577,1.689,8.499,2.838l3.273-8.329
	c-2.923-1.148-6.016-1.86-8.938-3.009L198.657,24.844z M198.657,24.844"/>
<path stroke="#FFFFFF" stroke-width="2" d="M234.873,31.829l-4.928,7.675c2.748,1.585,4.91,3.39,7.113,5.214l5.365-7.506
	C240.219,35.388,237.625,33.413,234.873,31.829L234.873,31.829z M234.873,31.829"/>
<path fill="#FFFFFF" stroke="#FFFFFF" stroke-width="2" d="M295.383,200.026c-2.621,6.672-10.154,9.953-16.824,7.332
	c-6.672-2.623-9.956-10.152-7.334-16.825c2.621-6.67,10.154-9.952,16.826-7.331C294.72,185.824,298.005,193.356,295.383,200.026
	L295.383,200.026z M295.383,200.026"/>
<path stroke="#FFFFFF" stroke-width="2" d="M294.883,169.526c0.713-3.094,0.861-5.903,1.18-9.152l-8.759-1.025
	c-0.146,2.813-0.468,6.06-1.023,8.759L294.883,169.526z M294.883,169.526"/>
<path fill="#FFFFFF" stroke="#FFFFFF" stroke-width="2" d="M149.811,22.967c-2.621,6.672-10.155,9.956-16.826,7.335
	c-6.67-2.622-9.955-10.156-7.332-16.828c2.62-6.669,10.154-9.953,16.826-7.331C149.148,8.764,152.432,16.298,149.811,22.967
	L149.811,22.967z M149.811,22.967"/>
<path fill="#FFFFFF" stroke="#FFFFFF" stroke-width="2" d="M69.233,237.763c-2.621,6.67-10.155,9.955-16.825,7.334
	c-6.671-2.621-9.955-10.156-7.334-16.826c2.622-6.672,10.156-9.955,16.828-7.334C68.571,223.558,71.855,231.093,69.233,237.763
	L69.233,237.763z M69.233,237.763"/>
<path stroke="#FFFFFF" stroke-width="2" d="M137.42,1.81c0.584,5.261-3.225,10.017-8.482,10.601l0.707,6.364
	c5.258-0.584,10.017,3.222,10.601,8.482l6.362-0.706c-0.585-5.261,3.221-10.018,8.482-10.602l-0.706-6.364
	c-5.263,0.585-10.018-3.221-10.603-8.481L137.42,1.81L137.42,1.81z M142.377,17.46c-1.067-1.147-2.289-2.127-3.64-2.917
	c1.145-1.067,2.121-2.29,2.911-3.643c1.07,1.146,2.291,2.125,3.645,2.916C144.146,14.882,143.169,16.107,142.377,17.46
	L142.377,17.46z M142.377,17.46"/>
<path stroke="#FFFFFF" stroke-width="2" d="M260.205,53.517c0,3.455-2.813,6.267-6.267,6.267v4.18c3.453,0,6.267,2.813,6.267,6.268
	h4.179c0-3.455,2.811-6.268,6.268-6.268v-4.18c-3.457,0-6.268-2.812-6.268-6.267H260.205L260.205,53.517z M262.294,64.027
	c-0.61-0.82-1.332-1.545-2.151-2.154c0.819-0.609,1.541-1.332,2.151-2.153c0.611,0.821,1.333,1.544,2.154,2.153
	C263.628,62.482,262.906,63.207,262.294,64.027L262.294,64.027z M262.294,64.027"/>
<path stroke="#FFFFFF" stroke-width="2" d="M286.14,179.459c-1.223,3.62-5.166,5.569-8.783,4.346l-1.48,4.38
	c3.617,1.223,5.57,5.164,4.346,8.785l4.379,1.479c1.223-3.621,5.164-5.571,8.785-4.348l1.48-4.379
	c-3.621-1.225-5.572-5.164-4.348-8.785L286.14,179.459L286.14,179.459z M284.607,191.211c-0.349-1.075-0.849-2.091-1.491-3.018
	c1.074-0.351,2.087-0.852,3.017-1.496c0.351,1.077,0.851,2.09,1.493,3.021C286.552,190.063,285.538,190.568,284.607,191.211
	L284.607,191.211z M284.607,191.211"/>
<path stroke="#FFFFFF" stroke-width="2" d="M226.467,96.917c-2.229-2.622-5.479-4.124-8.916-4.124h-11.285v-3.529
	c0-4.368-3.555-7.922-7.922-7.922h-76.525c-4.367,0-7.922,3.554-7.922,7.922v3.529h-11.285c-3.439,0-6.689,1.502-8.918,4.124
	c-2.207,2.593-3.158,5.999-2.613,9.344c2.964,18.232,14.439,34.341,30.723,43.176c1.488,3.578,3.174,6.967,5.052,10.122
	c5.992,10.087,13.444,17.058,21.647,20.429c0.83,8.405-4.762,16.368-13.185,18.264c-0.018,0.007-0.03,0.012-0.048,0.016
	c-1.643,0.394-2.868,1.866-2.868,3.63v17.151h-6.935c-6.184,0-11.215,5.03-11.215,11.213v8.852c0,2.063,1.676,3.738,3.739,3.738
	h84.536c2.063,0,3.738-1.676,3.738-3.738v-8.852c0-6.183-5.03-11.213-11.215-11.213h-6.936v-17.148c0-1.77-1.229-3.245-2.875-3.635
	c-0.017-0.004-0.031-0.007-0.047-0.014c-8.486-1.909-14.089-9.951-13.171-18.419c8.058-3.425,15.382-10.333,21.286-20.271
	c1.877-3.158,3.562-6.547,5.05-10.125c16.285-8.836,27.759-24.943,30.724-43.176C229.626,102.917,228.673,99.51,226.467,96.917
	L226.467,96.917z M98.459,105.061c-0.196-1.194,0.135-2.366,0.93-3.301c0.806-0.947,1.98-1.491,3.221-1.491h11.287v6.877
	c0,10.784,1.377,21.229,3.984,30.783C107.63,129.828,100.571,118.06,98.459,105.061L98.459,105.061z M195.051,226.525
	c2.062,0,3.738,1.677,3.738,3.739v5.11h-77.061v-5.11c0-2.063,1.677-3.739,3.738-3.739H195.051z M180.639,205.64v13.41h-40.76
	v-13.41H180.639z M149.682,198.163c0.924-1.018,1.77-2.12,2.525-3.3c2.489-3.892,3.797-8.314,3.855-12.832
	c1.328,0.181,2.67,0.278,4.021,0.278c1.469,0,2.926-0.112,4.367-0.326c0.087,6.068,2.449,11.812,6.42,16.179H149.682z
	 M198.789,107.146c0,18.416-4.229,35.674-11.908,48.597c-7.315,12.311-16.834,19.09-26.799,19.09
	c-9.968,0-19.486-6.779-26.802-19.09c-7.679-12.922-11.907-30.179-11.907-48.595V89.264c0-0.247,0.199-0.446,0.445-0.446h76.523
	c0.248,0,0.447,0.199,0.447,0.446V107.146z M221.702,105.061c-2.113,12.999-9.171,24.765-19.421,32.868
	c2.607-9.553,3.984-19.999,3.984-30.783v-6.877h11.285c1.242,0,2.416,0.544,3.222,1.491
	C221.567,102.695,221.896,103.867,221.702,105.061L221.702,105.061z M221.702,105.061"/>
<path stroke="#FFFFFF" stroke-width="2" d="M182.317,120.146c-0.439-1.353-1.61-2.339-3.019-2.544l-11.278-1.639l-5.045-10.221
	c-0.63-1.276-1.929-2.084-3.352-2.084s-2.723,0.808-3.351,2.084l-5.045,10.221l-11.282,1.639c-1.407,0.205-2.577,1.191-3.017,2.544
	c-0.439,1.354-0.072,2.839,0.947,3.833l8.162,7.955l-1.927,11.234c-0.243,1.402,0.335,2.819,1.486,3.655
	c1.15,0.836,2.677,0.948,3.937,0.285l10.089-5.302l10.089,5.302c0.547,0.287,1.145,0.428,1.739,0.428
	c0.774,0,1.547-0.24,2.196-0.713c1.152-0.836,1.728-2.253,1.488-3.656l-1.928-11.233l8.162-7.955
	C182.391,122.985,182.758,121.499,182.317,120.146L182.317,120.146z M166.585,127.952c-0.881,0.859-1.285,2.095-1.075,3.31
	l0.979,5.706l-5.125-2.694c-0.543-0.287-1.141-0.43-1.739-0.43c-0.597,0-1.194,0.143-1.74,0.43l-5.124,2.694l0.979-5.706
	c0.208-1.213-0.193-2.451-1.074-3.31l-4.146-4.042l5.729-0.831c1.217-0.178,2.271-0.942,2.815-2.045l2.562-5.191l2.562,5.191
	c0.546,1.103,1.598,1.868,2.816,2.045l5.728,0.831L166.585,127.952z M166.585,127.952"/>
<path stroke="#FFFFFF" d="M160.225,328.417c-8.336,0.014-15.107,6.809-15.094,15.148c0.014,8.336,6.81,15.107,15.145,15.094
	s15.107-6.81,15.094-15.145C175.355,335.173,168.56,328.403,160.225,328.417L160.225,328.417z M160.266,352.609
	c-5.003,0.008-9.08-4.054-9.088-9.057c-0.007-5.002,4.055-9.076,9.057-9.085c5-0.01,9.08,4.053,9.088,9.057
	C169.33,348.524,165.266,352.599,160.266,352.609L160.266,352.609z M160.266,352.609"/>
<path stroke="#FFFFFF" d="M226.633,258.757l-0.051-30.239c-0.002-1.221-0.742-2.324-1.873-2.791c-0.377-0.159-0.768-0.2-1.157-0.2
	v-0.028L96.55,225.715v0.024c-0.392,0-0.784,0.053-1.159,0.209c-1.129,0.469-1.863,1.576-1.861,2.796l0.053,30.234
	c0.001,0.806,0.318,1.575,0.889,2.14l47.576,47.415l0.025,14.81c-5.545,4.993-9.051,12.211-9.037,20.242
	c0.023,15.005,12.256,27.192,27.261,27.169c15.005-0.024,27.194-12.255,27.167-27.263c-0.014-8.031-3.543-15.236-9.104-20.211
	l-0.025-14.808l47.415-47.575C226.317,260.328,226.635,259.557,226.633,258.757z M220.555,242.394l-52.827,53.009l-3.289-3.276
	l56.106-56.3L220.555,242.394z M192.111,255.788l-31.956,32.07l-32.067-31.961L192.111,255.788z M122.031,249.861l-6.059-6.038
	l88.215-0.148l-6.039,6.059L122.031,249.861z M216.262,231.557l-6.037,6.063l-100.309,0.167l-6.06-6.039L216.262,231.557z
	 M99.59,236.03l19.729,19.665l22.543,22.303l-0.082,0.083l26.223,26.134l-6.568,0.011l-31.544-31.437v-0.027l-21.616-21.388
	l0.066-0.065l-8.74-8.711L99.59,236.03z M172.289,310.257l0.016,8.919c-3.654-1.815-7.753-2.861-12.102-2.853
	c-4.348,0.008-8.443,1.066-12.09,2.893l-0.017-8.917L172.289,310.257z M129.916,287.908v-0.057l-25.275-25.007l0.063-0.064
	l-5.076-5.061l-0.014-6.568l11.948,11.904c-0.009,0.004-0.016,0.005-0.022,0.005l26.688,26.407l-0.083,0.084l14.738,14.687
	l-6.568,0.015L129.916,287.908z M181.416,343.504c0.02,11.672-9.457,21.18-21.131,21.201c-11.672,0.02-21.184-9.457-21.203-21.13
	c-0.02-11.672,9.459-21.183,21.132-21.202C171.889,322.351,181.396,331.83,181.416,343.504z M175.301,302.95l-3.29-3.276
	l48.56-48.729l0.01,6.568L175.301,302.95z"/>
<path fill="#FFFFFF" stroke="#FFFFFF" stroke-width="3" d="M232.164,280.519c8.109,0,14.709,6.603,14.709,14.714
	c0,3.169,2.578,5.747,5.752,5.747c3.168,0,5.746-2.578,5.746-5.747v-7.379c-10.496-4.941-21.157-9.068-31.959-12.373v6.211
	C228.18,280.939,230.123,280.519,232.164,280.519z"/>
<path fill="#FFFFFF" stroke="#FFFFFF" stroke-width="3" d="M62.613,295.232c0,3.169,2.583,5.747,5.752,5.747
	c3.167,0,5.751-2.578,5.751-5.747c0-8.111,6.597-14.714,14.71-14.714c2.039,0,3.982,0.421,5.751,1.173v-6.211
	c-10.802,3.305-21.464,7.432-31.964,12.373V295.232z"/>
<path fill="#FFFFFF" stroke="#FFFFFF" stroke-width="3" d="M94.573,295.232c0-3.173-2.578-5.75-5.747-5.75
	c-3.168,0-5.751,2.577-5.751,5.75c0,8.11-6.602,14.711-14.71,14.711c-8.115,0-14.716-6.601-14.716-14.711v-30.707H24.738
	l18.955,23.402c1.116,1.379,1.313,3.291,0.504,4.872l-11.87,23.096h24.614c37.636,0,37.636-5.014,37.636-17.131h-0.004V295.232z"/>
<path fill="#FFFFFF" stroke="#FFFFFF" stroke-width="3" d="M258.371,248.988c-31.412-14.779-64.324-22.272-97.876-22.272
	c-33.554,0-66.47,7.493-97.882,22.272v28.969c31.461-14.179,64.355-21.366,97.882-21.366c33.521,0,66.416,7.188,97.876,21.366
	V248.988z"/>
<path fill="#FFFFFF" stroke="#FFFFFF" stroke-width="3" d="M267.334,284.986c0,0.006,0.005,0.009,0.005,0.018v10.229
	c0,8.114-6.601,14.717-14.714,14.717c-8.115,0-14.715-6.603-14.715-14.717c0-3.167-2.578-5.747-5.746-5.747
	c-3.17,0-5.752,2.58-5.752,5.747v3.532c0,12.117,0,17.131,37.635,17.131h24.615l-11.87-23.096c-0.81-1.581-0.612-3.486,0.504-4.872
	l18.955-23.402h-28.917V284.986z"/>
<path stroke="#FFFFFF" stroke-width="3" d="M309.279,257.888c-0.745-1.559-2.32-2.552-4.045-2.552h-38.313v-9.397
	c0-1.719-0.981-3.288-2.524-4.037c-33.404-16.174-68.501-24.377-104.315-24.377c-35.819,0-70.915,8.203-104.314,24.377
	c-1.546,0.749-2.53,2.318-2.53,4.033v9.401H14.928c-1.729,0-3.301,0.993-4.044,2.552c-0.744,1.562-0.525,3.409,0.56,4.752
	l23.029,28.431l-13.891,27.031c-0.713,1.387-0.652,3.051,0.16,4.381c0.816,1.336,2.265,2.149,3.826,2.149h31.96
	c34.961,0,46.599-3.773,46.599-26.096v-25.843c18.667-4.894,37.705-7.367,56.954-7.367s38.288,2.474,56.954,7.367v25.843
	c0,22.322,11.633,26.096,46.594,26.096h31.964c1.562,0,3.011-0.813,3.825-2.149c0.814-1.33,0.875-2.994,0.162-4.381l-13.893-27.031
	l23.026-28.436C309.804,261.297,310.023,259.449,309.279,257.888L309.279,257.888z M94.164,298.536c0,12.117,0,17.132-37.636,17.132
	H31.914l11.869-23.097c0.811-1.579,0.613-3.492-0.504-4.872l-18.955-23.401h28.912v30.707c0,8.11,6.601,14.71,14.715,14.71
	c8.109,0,14.711-6.6,14.711-14.71c0-3.173,2.582-5.751,5.75-5.751c3.169,0,5.747,2.578,5.747,5.751v3.531H94.164z M94.164,281.465
	c-1.768-0.754-3.713-1.175-5.752-1.175c-8.113,0-14.709,6.603-14.709,14.715c0,3.169-2.584,5.746-5.752,5.746
	c-3.169,0-5.752-2.577-5.752-5.746v-7.379c10.5-4.941,21.162-9.068,31.965-12.373V281.465z M62.199,277.73v-28.97
	c31.413-14.78,64.329-22.272,97.882-22.272c33.552,0,66.464,7.492,97.876,22.272v28.97c-31.459-14.18-64.354-21.367-97.876-21.367
	C126.556,256.363,93.66,263.551,62.199,277.73L62.199,277.73z M257.957,287.626v7.379c0,3.169-2.578,5.746-5.746,5.746
	c-3.173,0-5.751-2.577-5.751-5.746c0-8.112-6.601-14.715-14.71-14.715c-2.039,0-3.983,0.421-5.751,1.175v-6.212
	C236.801,278.558,247.462,282.685,257.957,287.626L257.957,287.626z M276.883,287.699c-1.117,1.387-1.314,3.293-0.504,4.872
	l11.869,23.097h-24.614c-37.635,0-37.635-5.015-37.635-17.132v-3.531c0-3.166,2.581-5.746,5.751-5.746
	c3.168,0,5.746,2.58,5.746,5.746c0,8.115,6.601,14.718,14.715,14.718s14.715-6.603,14.715-14.718v-10.229
	c0-0.008-0.005-0.013-0.005-0.018v-20.461h28.917L276.883,287.699z M276.883,287.699"/>
<rect x="41.779" y="180.427" fill="#FFFFFF" width="10.084" height="2.884"/>
<polygon fill="#FFFFFF" points="54.746,192.703 47.835,200.599 61.655,200.599 "/>
<polygon fill="#FFFFFF" points="51.57,191.951 37.75,191.951 44.66,199.85 "/>
<polygon fill="#FFFFFF" points="71.74,191.951 57.92,191.951 64.832,199.85 "/>
<polygon fill="#FFFFFF" points="81.826,200.599 74.916,192.703 68.008,200.599 "/>
<path fill="#FFFFFF" d="M4.318,171.784h51.869c0.795,0,1.439-0.648,1.439-1.442v-11.524c0-0.794-0.645-1.44-1.439-1.44H4.318
	c-0.795,0-1.439,0.646-1.439,1.44v11.524C2.879,171.136,3.523,171.784,4.318,171.784z M38.896,161.697
	c0-0.794,0.645-1.44,1.441-1.44h12.967c0.797,0,1.441,0.646,1.441,1.44v5.765c0,0.797-0.645,1.44-1.441,1.44H40.338
	c-0.797,0-1.441-0.644-1.441-1.44V161.697z M28.813,160.257h2.881v2.885h-2.881V160.257z M28.813,166.02h2.881v2.883h-2.881V166.02z
	 M23.049,160.257h2.882v2.885h-2.882V160.257z M23.049,166.02h2.882v2.883h-2.882V166.02z M17.287,160.257h2.881v2.885h-2.881
	V160.257z M17.287,166.02h2.881v2.883h-2.881V166.02z M11.523,160.257h2.881v2.885h-2.881V160.257z M11.523,166.02h2.881v2.883
	h-2.881V166.02z M5.762,160.257h2.88v2.885h-2.88V160.257z M5.762,166.02h2.88v2.883h-2.88V166.02z"/>
<rect x="41.779" y="163.142" fill="#FFFFFF" width="10.084" height="2.878"/>
<path fill="#FFFFFF" d="M4.318,189.073h51.869c0.795,0,1.439-0.646,1.439-1.439v-11.528c0-0.793-0.645-1.44-1.439-1.44H4.318
	c-0.795,0-1.439,0.647-1.439,1.44v11.528C2.879,188.427,3.523,189.073,4.318,189.073z M38.896,178.988
	c0-0.796,0.645-1.441,1.441-1.441h12.967c0.797,0,1.441,0.646,1.441,1.441v5.762c0,0.796-0.645,1.442-1.441,1.442H40.338
	c-0.797,0-1.441-0.646-1.441-1.442V178.988z M28.813,177.547h2.881v2.88h-2.881V177.547z M28.813,183.311h2.881v2.882h-2.881
	V183.311z M23.049,177.547h2.882v2.88h-2.882V177.547z M23.049,183.311h2.882v2.882h-2.882V183.311z M17.287,177.547h2.881v2.88
	h-2.881V177.547z M17.287,183.311h2.881v2.882h-2.881V183.311z M11.523,177.547h2.881v2.88h-2.881V177.547z M11.523,183.311h2.881
	v2.882h-2.881V183.311z M5.762,177.547h2.88v2.88h-2.88V177.547z M5.762,183.311h2.88v2.882h-2.88V183.311z"/>
<polygon fill="#FFFFFF" points="27.666,200.599 41.484,200.599 34.575,192.703 "/>
<polygon fill="#FFFFFF" points="46.541,203.479 54.746,233.956 62.951,203.479 "/>
<polygon fill="#FFFFFF" points="57.911,233.285 81.984,203.479 65.936,203.479 "/>
<path fill="#FFFFFF" d="M23.049,203.479v-2.881h0.787l7.564-8.647H4.318c-0.795,0-1.439,0.649-1.439,1.442v11.526
	c0,0.795,0.645,1.44,1.439,1.44h21.811l-2.327-2.881H23.049z M23.049,194.835h2.882v2.882h-2.882V194.835z M8.642,203.479h-2.88
	v-2.881h2.88V203.479z M8.642,197.717h-2.88v-2.882h2.88V197.717z M14.404,203.479h-2.881v-2.881h2.881V203.479z M14.404,197.717
	h-2.881v-2.882h2.881V197.717z M20.168,203.479h-2.881v-2.881h2.881V203.479z M20.168,197.717h-2.881v-2.882h2.881V197.717z"/>
<polygon fill="#FFFFFF" points="27.506,203.479 51.581,233.285 43.555,203.479 "/>
<rect x="5.763" y="166.06" width="2.88" height="2.881"/>
<rect x="11.525" y="166.06" width="2.882" height="2.881"/>
<rect x="5.763" y="160.298" width="2.88" height="2.882"/>
<rect x="11.525" y="160.298" width="2.882" height="2.882"/>
<rect x="17.289" y="166.06" width="2.881" height="2.881"/>
<rect x="17.289" y="160.298" width="2.881" height="2.882"/>
<rect x="23.051" y="166.06" width="2.881" height="2.881"/>
<rect x="23.051" y="160.298" width="2.881" height="2.882"/>
<rect x="28.814" y="166.06" width="2.882" height="2.881"/>
<rect x="28.814" y="160.298" width="2.882" height="2.882"/>
<path d="M53.307,160.298H40.34c-0.797,0-1.44,0.646-1.44,1.439v5.765c0,0.795,0.644,1.438,1.44,1.438h12.967
	c0.797,0,1.441-0.644,1.441-1.438v-5.765C54.748,160.943,54.104,160.298,53.307,160.298L53.307,160.298z M51.865,166.06H41.781
	v-2.88h10.084V166.06z M51.865,166.06"/>
<rect x="5.763" y="183.35" width="2.88" height="2.881"/>
<rect x="11.525" y="183.35" width="2.882" height="2.881"/>
<rect x="5.763" y="177.585" width="2.88" height="2.881"/>
<rect x="11.525" y="177.585" width="2.882" height="2.881"/>
<rect x="17.289" y="183.35" width="2.881" height="2.881"/>
<rect x="17.289" y="177.585" width="2.881" height="2.881"/>
<rect x="23.051" y="183.35" width="2.881" height="2.881"/>
<rect x="23.051" y="177.585" width="2.881" height="2.881"/>
<rect x="28.814" y="183.35" width="2.882" height="2.881"/>
<rect x="28.814" y="177.585" width="2.882" height="2.881"/>
<path d="M53.307,177.585H40.34c-0.797,0-1.44,0.647-1.44,1.441v5.763c0,0.798,0.644,1.441,1.44,1.441h12.967
	c0.797,0,1.441-0.644,1.441-1.441v-5.763C54.748,178.232,54.104,177.585,53.307,177.585L53.307,177.585z M51.865,183.35H41.781
	v-2.884h10.084V183.35z M51.865,183.35"/>
<path d="M86.089,201.128l-10.085-11.525c-0.277-0.312-0.67-0.489-1.086-0.489H60.246c0.161-0.453,0.265-0.934,0.265-1.44v-11.527
	c0-1.111-0.434-2.114-1.123-2.883c0.689-0.766,1.123-1.769,1.123-2.882v-11.523c0-2.384-1.94-4.323-4.321-4.323H4.322
	c-2.384,0-4.322,1.939-4.322,4.323v11.523c0,1.113,0.433,2.116,1.124,2.882C0.433,174.031,0,175.034,0,176.146v11.527
	c0,1.109,0.433,2.114,1.124,2.881C0.433,191.319,0,192.326,0,193.435v11.524c0,2.384,1.938,4.322,4.322,4.322h24.136l25.169,31.164
	c0.021,0.023,0.056,0.033,0.08,0.061c0.102,0.105,0.215,0.199,0.343,0.271c0.048,0.024,0.091,0.053,0.139,0.076
	c0.175,0.074,0.36,0.125,0.56,0.125c0.197,0,0.385-0.051,0.559-0.125c0.049-0.023,0.092-0.05,0.139-0.076
	c0.131-0.071,0.242-0.165,0.344-0.271c0.023-0.027,0.059-0.037,0.081-0.061l30.255-37.462
	C86.565,202.439,86.55,201.656,86.089,201.128L86.089,201.128z M81.828,200.638H68.01l6.908-7.896L81.828,200.638z M71.743,191.992
	l-6.909,7.896l-6.912-7.896H71.743z M37.752,191.992h13.82l-6.91,7.896L37.752,191.992z M41.486,200.638H27.668l6.91-7.896
	L41.486,200.638z M54.748,192.741l6.908,7.896H47.838L54.748,192.741z M2.881,158.857c0-0.796,0.646-1.44,1.441-1.44h51.867
	c0.794,0,1.44,0.645,1.44,1.44v11.523c0,0.797-0.646,1.443-1.44,1.443H4.322c-0.795,0-1.441-0.646-1.441-1.443V158.857z
	 M2.881,176.146c0-0.795,0.646-1.441,1.441-1.441h51.867c0.794,0,1.44,0.646,1.44,1.441v11.527c0,0.793-0.646,1.44-1.44,1.44H4.322
	c-0.795,0-1.441-0.647-1.441-1.44V176.146z M4.322,206.4c-0.795,0-1.441-0.647-1.441-1.441v-11.524c0-0.795,0.646-1.442,1.441-1.442
	h27.08l-7.563,8.646h-0.788v2.883h0.754l2.325,2.88H4.322z M27.508,203.521h16.051l8.024,29.805L27.508,203.521z M54.748,233.995
	l-8.205-30.475h16.41L54.748,233.995z M57.913,233.325l8.024-29.805h16.049L57.913,233.325z M57.913,233.325"/>
<rect x="5.763" y="200.638" width="2.88" height="2.883"/>
<rect x="11.525" y="200.638" width="2.882" height="2.883"/>
<rect x="5.763" y="194.874" width="2.88" height="2.882"/>
<rect x="11.525" y="194.874" width="2.882" height="2.882"/>
<rect x="17.289" y="200.638" width="2.881" height="2.883"/>
<rect x="17.289" y="194.874" width="2.881" height="2.882"/>
<rect x="23.051" y="194.874" width="2.881" height="2.882"/>
<path stroke="#FFFFFF" stroke-width="2" d="M55.613,349.503c0,6.687-5.444,12.127-12.127,12.127v8.089
	c6.683,0,12.127,5.441,12.127,12.128h8.086c0-6.687,5.439-12.128,12.129-12.128v-8.089c-6.689,0-12.129-5.44-12.129-12.127H55.613
	L55.613,349.503z M59.656,369.844c-1.182-1.589-2.578-2.991-4.164-4.169c1.586-1.181,2.982-2.579,4.164-4.168
	c1.184,1.589,2.58,2.987,4.168,4.168C62.236,366.853,60.84,368.255,59.656,369.844L59.656,369.844z M59.656,369.844"/>
</svg>
