<?xml version="1.0" encoding="utf-8"?>
<!-- Generator: Adobe Illustrator 15.1.0, SVG Export Plug-In  -->
<!DOCTYPE svg PUBLIC "-//W3C//DTD SVG 1.1//EN" "http://www.w3.org/Graphics/SVG/1.1/DTD/svg11.dtd" [
	<!ENTITY ns_flows "http://ns.adobe.com/Flows/1.0/">
]>
<svg version="1.1"
	 xmlns="http://www.w3.org/2000/svg" xmlns:xlink="http://www.w3.org/1999/xlink" xmlns:a="http://ns.adobe.com/AdobeSVGViewerExtensions/3.0/"
	 x="0px" y="0px" width="500px" height="500px" viewBox="-61.639 -84.747 500 500" enable-background="new -61.639 -84.747 500 500"
	 xml:space="preserve">
<defs>
</defs>
<path fill="none" stroke="#010101" stroke-width="5" stroke-linecap="square" stroke-linejoin="round" stroke-dasharray="0,12" d="
	M4.744,205.252C-10.593,109.846,54.323,20.082,149.736,4.739c95.407-15.321,185.176,49.595,200.498,145.008
	c15.339,95.395-49.573,185.174-144.988,200.51C109.841,365.587,20.072,300.663,4.744,205.252z"/>
<path stroke="#FFFFFF" stroke-width="2" d="M22.798,75.029c0,5.293-4.311,9.6-9.6,9.6v6.403c5.289,0,9.6,4.308,9.6,9.601h6.4
	c0-5.293,4.307-9.601,9.602-9.601v-6.403c-5.295,0-9.602-4.307-9.602-9.6H22.798L22.798,75.029z M25.998,91.131
	c-0.935-1.258-2.04-2.367-3.296-3.3c1.256-0.935,2.361-2.042,3.296-3.3c0.937,1.258,2.042,2.365,3.3,3.3
	C28.04,88.764,26.935,89.873,25.998,91.131L25.998,91.131z M25.998,91.131"/>
<path stroke="#FFFFFF" d="M341.335,113.09c0,3.58-2.912,6.492-6.49,6.492v4.328c3.578,0,6.49,2.91,6.49,6.49h4.328
	c0-3.58,2.911-6.49,6.492-6.49v-4.328c-3.581,0-6.492-2.912-6.492-6.492H341.335L341.335,113.09z M343.499,123.975
	c-0.632-0.85-1.381-1.596-2.23-2.23c0.85-0.631,1.599-1.379,2.23-2.23c0.633,0.852,1.381,1.6,2.231,2.23
	C344.88,122.379,344.132,123.125,343.499,123.975L343.499,123.975z M343.499,123.975"/>
<path stroke="#FFFFFF" d="M203.072,342.156c0,3.362-2.739,6.104-6.103,6.104v4.066c3.363,0,6.103,2.737,6.103,6.104h4.067
	c0-3.366,2.739-6.104,6.104-6.104v-4.066c-3.364,0-6.104-2.741-6.104-6.104H203.072L203.072,342.156z M205.106,352.389
	c-0.594-0.798-1.299-1.502-2.098-2.097c0.799-0.593,1.504-1.297,2.098-2.097c0.594,0.8,1.297,1.504,2.098,2.097
	C206.403,350.887,205.7,351.591,205.106,352.389L205.106,352.389z M205.106,352.389"/>
<path d="M176.84,190.479c1.323,0,2.394-1.072,2.394-2.396V173.71c0-1.325-1.07-2.396-2.394-2.396c-1.325,0-2.396,1.071-2.396,2.396
	v14.372C174.444,189.406,175.515,190.479,176.84,190.479L176.84,190.479z M176.84,190.479"/>
<path d="M186.421,190.479c1.323,0,2.395-1.072,2.395-2.396V173.71c0-1.325-1.071-2.396-2.395-2.396
	c-1.324,0-2.396,1.071-2.396,2.396v14.372C184.024,189.406,185.098,190.479,186.421,190.479L186.421,190.479z M186.421,190.479"/>
<path d="M196.003,190.479c1.324,0,2.395-1.072,2.395-2.396V173.71c0-1.325-1.07-2.396-2.395-2.396c-1.326,0-2.396,1.071-2.396,2.396
	v14.372C193.606,189.406,194.677,190.479,196.003,190.479L196.003,190.479z M196.003,190.479"/>
<path d="M251.097,180.895c0,2.646-2.145,4.791-4.791,4.791s-4.791-2.145-4.791-4.791c0-2.646,2.145-4.789,4.791-4.789
	S251.097,178.249,251.097,180.895L251.097,180.895z M251.097,180.895"/>
<path d="M236.724,180.895c0,2.646-2.145,4.791-4.79,4.791c-2.647,0-4.792-2.145-4.792-4.791c0-2.646,2.145-4.789,4.792-4.789
	C234.579,176.105,236.724,178.249,236.724,180.895L236.724,180.895z M236.724,180.895"/>
<path d="M176.84,204.85c-1.325,0-2.396,1.072-2.396,2.396v14.372c0,1.324,1.07,2.396,2.396,2.396c1.323,0,2.394-1.072,2.394-2.396
	v-14.372C179.233,205.922,178.163,204.85,176.84,204.85L176.84,204.85z M176.84,204.85"/>
<path d="M186.421,204.85c-1.324,0-2.396,1.072-2.396,2.396v14.372c0,1.324,1.072,2.396,2.396,2.396c1.323,0,2.395-1.072,2.395-2.396
	v-14.372C188.815,205.922,187.744,204.85,186.421,204.85L186.421,204.85z M186.421,204.85"/>
<path d="M196.003,204.85c-1.326,0-2.396,1.072-2.396,2.396v14.372c0,1.324,1.07,2.396,2.396,2.396c1.324,0,2.395-1.072,2.395-2.396
	v-14.372C198.397,205.922,197.327,204.85,196.003,204.85L196.003,204.85z M196.003,204.85"/>
<path d="M265.466,210.89v-6.04c0-2.876-1.296-5.43-3.308-7.186c2.012-1.759,3.308-4.312,3.308-7.188v-19.163
	c0-5.284-4.294-9.581-9.58-9.581h-86.233c-5.283,0-9.581,4.297-9.581,9.581v19.163c0,2.876,1.301,5.429,3.311,7.188
	c-2.01,1.756-3.311,4.31-3.311,7.186v19.164c0,5.283,4.298,9.581,9.581,9.581h52.821c1.215,13.409,12.506,23.954,26.227,23.954
	c14.528-0.001,26.35-11.821,26.35-26.349C275.05,223.035,271.315,215.727,265.466,210.89L265.466,210.89z M164.861,171.313
	c0-2.64,2.151-4.79,4.791-4.79h86.233c2.642,0,4.792,2.15,4.792,4.79v19.163c0,2.642-2.15,4.791-4.792,4.791h-86.233
	c-2.64,0-4.791-2.149-4.791-4.791V171.313z M169.652,228.803c-2.64,0-4.791-2.149-4.791-4.789V204.85
	c0-2.642,2.151-4.791,4.791-4.791h86.233c2.642,0,4.792,2.149,4.792,4.791v2.909c-3.598-1.847-7.663-2.909-11.978-2.909
	c-13.721,0-25.012,10.545-26.227,23.953H169.652z M248.7,252.756c-11.887,0-21.559-9.67-21.559-21.556
	c0-11.889,9.672-21.56,21.559-21.56c11.889,0,21.561,9.671,21.561,21.56C270.261,243.086,260.589,252.756,248.7,252.756
	L248.7,252.756z M248.7,252.756"/>
<path d="M242.844,228.401c1.101-0.734,1.398-2.22,0.663-3.322c-0.733-1.104-2.222-1.399-3.321-0.664l-2.226,1.483
	c1.961-3.953,6.038-6.676,10.74-6.676c3.987,0,7.699,1.975,9.936,5.281c0.737,1.096,2.23,1.387,3.323,0.645
	c1.098-0.741,1.386-2.229,0.644-3.325c-3.125-4.63-8.322-7.392-13.902-7.392c-9.242,0-16.767,7.522-16.767,16.769
	c0,0.882,0.485,1.694,1.265,2.112c0.353,0.188,0.74,0.282,1.13,0.282c0.466,0,0.929-0.136,1.328-0.402L242.844,228.401z
	 M242.844,228.401"/>
<path d="M264.202,229.087c-0.777-0.417-1.727-0.37-2.458,0.119l-7.185,4.791c-1.104,0.734-1.4,2.219-0.666,3.32
	c0.73,1.101,2.215,1.394,3.322,0.666l2.223-1.485c-1.959,3.954-6.035,6.677-10.738,6.677c-3.986,0-7.698-1.973-9.936-5.281
	c-0.738-1.097-2.232-1.385-3.324-0.644c-1.094,0.74-1.383,2.229-0.643,3.324c3.125,4.63,8.324,7.393,13.902,7.393
	c9.247,0,16.766-7.524,16.766-16.769C265.466,230.314,264.982,229.503,264.202,229.087L264.202,229.087z M264.202,229.087"/>
<path d="M193.226,124.953c-1.936-14.31-16.728-25.272-34.576-25.272c-14.03,0-26.674,6.921-32.073,17.386
	c-0.127-0.005-0.257-0.007-0.387-0.007c-13.238,0-24.011,8.859-24.011,19.754v47.402c0,10.89,10.772,19.749,24.011,19.749h60.592
	c10.853,0,19.683-7.301,19.683-16.273v-47.402C206.464,133.304,201.103,127.192,193.226,124.953L193.226,124.953z M201.723,187.692
	c0,6.359-6.702,11.532-14.941,11.532h-60.592c-10.626,0-19.271-6.733-19.271-15.009V172.18c4.377,4.877,11.354,8.084,19.271,8.084
	h60.592c6.009,0,11.329-2.284,14.941-5.804V187.692z M201.723,163.989c0,6.361-6.702,11.534-14.941,11.534h-60.592
	c-10.626,0-19.271-6.733-19.271-15.009v-12.037c4.377,4.878,11.354,8.086,19.271,8.086h60.592c6.009,0,11.329-2.286,14.941-5.807
	V163.989z M186.781,151.823h-60.592c-10.626,0-19.271-6.733-19.271-15.01c0-8.279,8.646-15.013,19.271-15.013
	c0.353,0,0.696,0.034,1.042,0.066l0.617,0.05c1.051,0.08,1.945-0.496,2.343-1.421c4.171-9.614,15.606-16.076,28.458-16.076
	c16.069,0,29.257,9.917,30.016,22.576c0.064,1.071,0.84,1.968,1.89,2.181c6.576,1.34,11.168,5.908,11.168,11.112
	C201.723,146.65,195.021,151.823,186.781,151.823L186.781,151.823z M186.781,151.823"/>
<path d="M118.77,158.933c-1.31,0-2.37,1.061-2.37,2.371v4.74c0,1.31,1.061,2.369,2.37,2.369c1.309,0,2.37-1.06,2.37-2.369v-4.74
	C121.14,159.993,120.078,158.933,118.77,158.933L118.77,158.933z M118.77,158.933"/>
<path d="M128.25,161.304c-1.312,0-2.371,1.06-2.371,2.367v4.742c0,1.31,1.06,2.37,2.371,2.37c1.311,0,2.37-1.061,2.37-2.37v-4.742
	C130.62,162.363,129.561,161.304,128.25,161.304L128.25,161.304z M128.25,161.304"/>
<path d="M137.73,161.304c-1.311,0-2.371,1.06-2.371,2.367v4.742c0,1.31,1.061,2.37,2.371,2.37c1.31,0,2.37-1.061,2.37-2.37v-4.742
	C140.101,162.363,139.04,161.304,137.73,161.304L137.73,161.304z M137.73,161.304"/>
<path d="M192.243,166.044c0,2.615-2.122,4.739-4.74,4.739s-4.74-2.124-4.74-4.739c0-2.618,2.122-4.74,4.74-4.74
	S192.243,163.426,192.243,166.044L192.243,166.044z M192.243,166.044"/>
<path d="M178.022,166.044c0,2.615-2.123,4.739-4.74,4.739s-4.74-2.124-4.74-4.739c0-2.618,2.123-4.74,4.74-4.74
	S178.022,163.426,178.022,166.044L178.022,166.044z M178.022,166.044"/>
<path d="M118.77,182.634c-1.31,0-2.37,1.061-2.37,2.37v4.74c0,1.31,1.061,2.369,2.37,2.369c1.309,0,2.37-1.06,2.37-2.369v-4.74
	C121.14,183.694,120.078,182.634,118.77,182.634L118.77,182.634z M118.77,182.634"/>
<path d="M128.25,185.004c-1.312,0-2.371,1.062-2.371,2.371v4.738c0,1.312,1.06,2.371,2.371,2.371c1.311,0,2.37-1.06,2.37-2.371
	v-4.738C130.62,186.065,129.561,185.004,128.25,185.004L128.25,185.004z M128.25,185.004"/>
<path d="M137.73,185.004c-1.311,0-2.371,1.062-2.371,2.371v4.738c0,1.312,1.061,2.371,2.371,2.371c1.31,0,2.37-1.06,2.37-2.371
	v-4.738C140.101,186.065,139.04,185.004,137.73,185.004L137.73,185.004z M137.73,185.004"/>
<path d="M192.243,189.744c0,2.619-2.122,4.74-4.74,4.74s-4.74-2.121-4.74-4.74c0-2.617,2.122-4.74,4.74-4.74
	S192.243,187.127,192.243,189.744L192.243,189.744z M192.243,189.744"/>
<path d="M178.022,189.744c0,2.619-2.123,4.74-4.74,4.74s-4.74-2.121-4.74-4.74c0-2.617,2.123-4.74,4.74-4.74
	S178.022,187.127,178.022,189.744L178.022,189.744z M178.022,189.744"/>
<path fill="#FFFFFF" d="M126.284,156.563c-7.918,0-14.895-3.207-19.271-8.085v12.036c0,8.277,8.645,15.01,19.271,15.01h60.592
	c8.24,0,14.942-5.173,14.942-11.535v-13.231c-3.613,3.521-8.933,5.806-14.942,5.806H126.284z M121.235,166.045
	c0,1.309-1.062,2.368-2.371,2.368c-1.309,0-2.371-1.06-2.371-2.368v-4.741c0-1.31,1.063-2.371,2.371-2.371
	c1.31,0,2.371,1.062,2.371,2.371V166.045z M130.715,168.413c0,1.31-1.061,2.37-2.37,2.37c-1.311,0-2.369-1.061-2.369-2.37v-4.74
	c0-1.31,1.059-2.369,2.369-2.369c1.31,0,2.37,1.06,2.37,2.369V168.413z M140.195,168.413c0,1.31-1.06,2.37-2.369,2.37
	s-2.371-1.061-2.371-2.37v-4.74c0-1.31,1.062-2.369,2.371-2.369s2.369,1.06,2.369,2.369V168.413z M173.378,170.783
	c-2.617,0-4.741-2.122-4.741-4.738c0-2.619,2.124-4.741,4.741-4.741c2.616,0,4.74,2.122,4.74,4.741
	C178.118,168.661,175.994,170.783,173.378,170.783z M192.338,166.045c0,2.616-2.122,4.738-4.739,4.738
	c-2.619,0-4.741-2.122-4.741-4.738c0-2.619,2.122-4.741,4.741-4.741C190.216,161.304,192.338,163.426,192.338,166.045z"/>
<path fill="#FFFFFF" d="M190.65,129.179c-1.05-0.213-1.826-1.109-1.891-2.183c-0.759-12.659-13.945-22.575-30.015-22.575
	c-12.85,0-24.287,6.461-28.458,16.076c-0.397,0.924-1.292,1.5-2.345,1.422l-0.615-0.052c-0.347-0.031-0.69-0.066-1.043-0.066
	c-10.626,0-19.271,6.735-19.271,15.013s8.645,15.011,19.271,15.011h60.592c8.24,0,14.942-5.174,14.942-11.534
	C201.818,135.085,197.226,130.518,190.65,129.179z"/>
<path fill="#FFFFFF" d="M126.284,180.265c-7.918,0-14.895-3.207-19.271-8.085v12.036c0,8.275,8.645,15.01,19.271,15.01h60.592
	c8.24,0,14.942-5.174,14.942-11.533v-13.231c-3.613,3.519-8.933,5.804-14.942,5.804H126.284z M121.235,189.745
	c0,1.31-1.062,2.37-2.371,2.37c-1.309,0-2.371-1.061-2.371-2.37v-4.74c0-1.311,1.063-2.371,2.371-2.371
	c1.31,0,2.371,1.061,2.371,2.371V189.745z M130.715,192.115c0,1.31-1.061,2.37-2.37,2.37c-1.311,0-2.369-1.061-2.369-2.37v-4.74
	c0-1.309,1.059-2.37,2.369-2.37c1.31,0,2.37,1.062,2.37,2.37V192.115z M140.195,192.115c0,1.31-1.06,2.37-2.369,2.37
	s-2.371-1.061-2.371-2.37v-4.74c0-1.309,1.062-2.37,2.371-2.37s2.369,1.062,2.369,2.37V192.115z M173.378,194.485
	c-2.617,0-4.741-2.122-4.741-4.74c0-2.617,2.124-4.74,4.741-4.74c2.616,0,4.74,2.123,4.74,4.74
	C178.118,192.363,175.994,194.485,173.378,194.485z M192.338,189.745c0,2.618-2.122,4.74-4.739,4.74
	c-2.619,0-4.741-2.122-4.741-4.74c0-2.617,2.122-4.74,4.741-4.74C190.216,185.005,192.338,187.128,192.338,189.745z"/>
<circle fill="#FFFFFF" cx="320.09" cy="271.575" r="38.339"/>
<path d="M321.41,233.114c-21.049,0-38.125,17.118-38.125,38.126c0,21.007,17.118,38.126,38.125,38.126s38.126-17.119,38.126-38.126
	C359.536,250.19,342.46,233.114,321.41,233.114L321.41,233.114z M347.49,250.951l-11.074,11.074
	c-1.354-2.197-3.171-4.058-5.284-5.452l11.032-11.033C344.15,247.104,345.927,248.964,347.49,250.951L347.49,250.951z
	 M321.41,283.794c-6.932,0-12.553-5.622-12.553-12.554s5.621-12.554,12.553-12.554c6.934,0,12.555,5.622,12.555,12.554
	S328.342,283.794,321.41,283.794L321.41,283.794z M337.896,242.625l-11.667,11.665c-1.521-0.422-3.128-0.676-4.818-0.676
	c-1.774,0-3.508,0.254-5.156,0.76l-11.624-11.623c4.946-2.916,10.653-4.564,16.78-4.564
	C327.413,238.187,333.034,239.792,337.896,242.625L337.896,242.625z M300.403,245.711l11.033,11.031
	c-2.114,1.437-3.891,3.339-5.2,5.579l-11.074-11.117C296.684,249.176,298.459,247.316,300.403,245.711L300.403,245.711z
	 M292.33,255.559l11.877,11.878c-0.254,1.227-0.422,2.492-0.422,3.804c0,1.69,0.252,3.297,0.676,4.818l-11.666,11.666
	c-2.833-4.86-4.438-10.482-4.438-16.484C288.356,265.575,289.795,260.207,292.33,255.559L292.33,255.559z M295.711,291.993
	l10.99-11.031c1.437,2.113,3.297,3.932,5.453,5.284l-11.032,11.073C299.135,295.756,297.275,293.979,295.711,291.993
	L295.711,291.993z M305.433,300.193l11.751-11.751c0.042-0.041,0.042-0.084,0.085-0.084c1.354,0.338,2.747,0.507,4.184,0.507
	c1.312,0,2.579-0.169,3.806-0.423l11.877,11.877c-4.692,2.537-10.018,3.975-15.683,3.975
	C315.62,304.294,310.166,302.813,305.433,300.193L305.433,300.193z M341.447,297.489l-11.118-11.117
	c2.198-1.311,4.1-3.086,5.579-5.199l11.031,11.032C345.334,294.191,343.476,295.968,341.447,297.489L341.447,297.489z
	 M349.899,288.021l-11.622-11.624c0.506-1.649,0.758-3.339,0.758-5.156c0-1.438-0.168-2.831-0.506-4.143l11.835-11.835
	c2.62,4.734,4.142,10.187,4.142,15.978C354.463,277.368,352.816,283.075,349.899,288.021L349.899,288.021z M349.899,288.021"/>
</svg>
