<?xml version="1.0" encoding="utf-8"?>
<!-- Generator: Adobe Illustrator 15.1.0, SVG Export Plug-In  -->
<!DOCTYPE svg PUBLIC "-//W3C//DTD SVG 1.1//EN" "http://www.w3.org/Graphics/SVG/1.1/DTD/svg11.dtd" [
	<!ENTITY ns_flows "http://ns.adobe.com/Flows/1.0/">
]>
<svg version="1.1"
	 xmlns="http://www.w3.org/2000/svg" xmlns:xlink="http://www.w3.org/1999/xlink" xmlns:a="http://ns.adobe.com/AdobeSVGViewerExtensions/3.0/"
	 x="0px" y="0px" width="500px" height="500px" viewBox="-69.006 25.088 500 500" enable-background="new -69.006 25.088 500 500"
	 xml:space="preserve">
<defs>
</defs>
<path stroke="#FFFFFF" d="M264.417,268.638c-15.99,0.629-28.205,7.593-28.205,16.39v42.307c0,9.224,13.42,16.453,30.555,16.453
	c17.135,0,30.555-7.229,30.555-16.453v-42.307c0-8.797-12.217-15.761-28.203-16.39 M292.618,327.334
	c0,5.559-10.615,11.75-25.851,11.75s-25.855-6.191-25.855-11.75v-5.244c5.365,4.592,14.831,7.594,25.855,7.594
	c11.024,0,20.489-3.002,25.851-7.594V327.334z M292.618,313.232c0,5.56-10.615,11.75-25.851,11.75s-25.855-6.19-25.855-11.75v-5.244
	c5.365,4.592,14.831,7.594,25.855,7.594c11.024,0,20.489-3.002,25.851-7.594V313.232z M292.618,299.13
	c0,5.559-10.615,11.751-25.851,11.751s-25.855-6.192-25.855-11.751v-5.242c5.365,4.592,14.831,7.591,25.855,7.591
	c11.024,0,20.489-2.999,25.851-7.591V299.13z M292.618,285.027c0,5.559-10.615,11.752-25.851,11.752s-25.855-6.193-25.855-11.752
	c0-5.267,9.541-11.093,23.505-11.691h4.702C283.078,273.935,292.618,279.761,292.618,285.027L292.618,285.027z"/>
<circle fill="#FFFFFF" cx="232.634" cy="278.355" r="22.078"/>
<path fill="none" stroke="#010101" stroke-width="5" stroke-linecap="square" stroke-linejoin="round" stroke-dasharray="0,12" d="
	M4.744,306.171c-15.337-95.406,49.581-185.169,144.994-200.513c95.408-15.32,185.176,49.596,200.498,145.009
	c15.338,95.396-49.575,185.174-144.988,200.511C109.841,466.508,20.073,401.582,4.744,306.171z"/>
<path stroke="#FFFFFF" d="M142.029,438.157c0,5.291-4.31,9.604-9.604,9.604v6.398c5.294,0,9.604,4.308,9.604,9.604h6.4
	c0-5.297,4.311-9.604,9.604-9.604v-6.398c-5.293,0-9.604-4.313-9.604-9.604H142.029L142.029,438.157z M145.229,454.259
	c-0.935-1.256-2.043-2.363-3.301-3.299c1.258-0.934,2.366-2.041,3.301-3.3c0.935,1.259,2.042,2.366,3.301,3.3
	C147.271,451.896,146.164,453.003,145.229,454.259L145.229,454.259z M145.229,454.259"/>
<path d="M74.585,328.527c-1.591,0-2.881,1.29-2.881,2.875c0,1.592,1.29,2.881,2.881,2.881h8.802
	c1.237-2.163,2.816-4.104,4.669-5.756H74.585L74.585,328.527z M74.585,328.527"/>
<path d="M74.585,335.783c-1.591,0-2.881,1.289-2.881,2.873c0,1.593,1.29,2.883,2.881,2.883h6.151
	c0.368-2.024,1.005-3.953,1.868-5.756H74.585L74.585,335.783z M74.585,335.783"/>
<path d="M74.585,321.271c-1.591,0-2.881,1.291-2.881,2.882c0,1.585,1.29,2.875,2.881,2.875h15.328
	c2.553-1.849,5.486-3.196,8.67-3.874c-0.401-1.092-1.448-1.883-2.69-1.883H74.585L74.585,321.271z M74.585,321.271"/>
<path d="M95.893,319.773c1.591,0,2.88-1.29,2.88-2.877c0-1.59-1.289-2.88-2.88-2.88H74.585c-1.591,0-2.881,1.29-2.881,2.875
	c0,1.592,1.29,2.882,2.881,2.882H95.893L95.893,319.773z M95.893,319.773"/>
<path d="M74.585,343.039c-1.591,0-2.881,1.289-2.881,2.875c0,1.591,1.29,2.881,2.881,2.881h5.993
	c-0.138-1.026-0.236-2.059-0.236-3.118c0-0.895,0.064-1.77,0.164-2.638H74.585L74.585,343.039z M74.585,343.039"/>
<path d="M74.585,350.295c-1.591,0-2.881,1.289-2.881,2.874c0,1.593,1.29,2.882,2.881,2.882h8.256
	c-0.916-1.803-1.619-3.724-2.032-5.756H74.585L74.585,350.295z M74.585,350.295"/>
<path d="M74.585,357.551c-1.591,0-2.881,1.282-2.881,2.875c0,1.59,1.29,2.881,2.881,2.881h13.998
	c-1.94-1.632-3.584-3.578-4.907-5.756H74.585L74.585,357.551z M74.585,357.551"/>
<path d="M132.144,348.314c1.592,0,2.882-1.289,2.882-2.88c0-1.586-1.29-2.876-2.882-2.876h-5.986c0.138,1.02,0.23,2.06,0.23,3.118
	c0,0.896-0.058,1.77-0.157,2.638H132.144L132.144,348.314z M132.144,348.314"/>
<path d="M132.144,355.571c1.592,0,2.882-1.29,2.882-2.882c0-1.586-1.29-2.876-2.882-2.876H126c-0.369,2.026-1.012,3.947-1.875,5.758
	H132.144L132.144,355.571z M132.144,355.571"/>
<path d="M132.144,341.06c1.592,0,2.882-1.29,2.882-2.882c0-1.586-1.29-2.874-2.882-2.874h-8.25c0.916,1.796,1.612,3.722,2.027,5.756
	H132.144L132.144,341.06z M132.144,341.06"/>
<path d="M132.144,333.804c1.592,0,2.882-1.29,2.882-2.882c0-1.585-1.29-2.875-2.882-2.875h-13.997
	c1.94,1.632,3.591,3.579,4.907,5.757H132.144L132.144,333.804z M132.144,333.804"/>
<path d="M132.144,362.826c1.592,0,2.882-1.289,2.882-2.881c0-1.586-1.29-2.875-2.882-2.875h-8.794
	c-1.245,2.164-2.822,4.099-4.67,5.756H132.144L132.144,362.826z M132.144,362.826"/>
<path d="M132.144,370.082c1.592,0,2.882-1.289,2.882-2.882c0-1.592-1.29-2.874-2.882-2.874h-15.327
	c-2.553,1.842-5.479,3.189-8.67,3.868c0.408,1.098,1.454,1.888,2.691,1.888H132.144L132.144,370.082z M132.144,370.082"/>
<path d="M110.838,371.582c-1.585,0-2.874,1.282-2.874,2.875c0,1.591,1.289,2.88,2.874,2.88h21.306c1.592,0,2.882-1.289,2.882-2.88
	c0-1.593-1.29-2.875-2.882-2.875H110.838L110.838,371.582z M110.838,371.582"/>
<path d="M103.365,325.528c-11.111,0-20.142,9.038-20.142,20.148s9.031,20.143,20.142,20.143c11.109,0,20.149-9.032,20.149-20.143
	S114.475,325.528,103.365,325.528L103.365,325.528z M103.365,360.063c-7.934,0-14.387-6.454-14.387-14.387
	s6.453-14.394,14.387-14.394c7.934,0,14.392,6.461,14.392,14.394S111.299,360.063,103.365,360.063L103.365,360.063z
	 M103.365,360.063"/>
<text transform="matrix(1 0 0 1 96.894 354.0176)" font-family="'Arial-Black'" font-size="17.8433">₹</text>
<rect x="71.107" y="384.439" fill="#FFFFFF" width="51.049" height="24.562"/>
<text transform="matrix(1 0 0 1 33.0903 20.0879)" font-family="'MyriadPro-Regular'" font-size="24">Budget VPS</text>
<path stroke="#FFFFFF" d="M335.575,200.388c0,3.58-2.912,6.492-6.49,6.492v4.328c3.578,0,6.49,2.91,6.49,6.49h4.328
	c0-3.58,2.911-6.49,6.492-6.49v-4.328c-3.581,0-6.492-2.912-6.492-6.492H335.575L335.575,200.388z M337.739,211.272
	c-0.632-0.85-1.381-1.596-2.23-2.23c0.85-0.631,1.599-1.379,2.23-2.23c0.633,0.852,1.381,1.6,2.231,2.23
	C339.12,209.677,338.372,210.423,337.739,211.272L337.739,211.272z M337.739,211.272"/>
<path stroke="#FFFFFF" d="M28.526,173.498c0,3.362-2.739,6.104-6.103,6.104v4.066c3.363,0,6.103,2.737,6.103,6.104h4.067
	c0-3.366,2.739-6.104,6.104-6.104v-4.066c-3.364,0-6.104-2.741-6.104-6.104H28.526L28.526,173.498z M30.56,183.73
	c-0.594-0.798-1.299-1.502-2.098-2.097c0.799-0.593,1.504-1.297,2.098-2.097c0.594,0.8,1.297,1.504,2.098,2.097
	C31.857,182.229,31.154,182.933,30.56,183.73L30.56,183.73z M30.56,183.73"/>
<path d="M185.884,259.594c-4.682,0-8.492,3.809-8.492,8.492c0,4.683,3.81,8.492,8.492,8.492c4.683,0,8.494-3.81,8.494-8.492
	C194.378,263.402,190.567,259.594,185.884,259.594L185.884,259.594z M185.884,273.182c-2.809,0-5.094-2.287-5.094-5.096
	s2.286-5.096,5.094-5.096c2.81,0,5.096,2.287,5.096,5.096S188.694,273.182,185.884,273.182L185.884,273.182z M185.884,273.182"/>
<rect x="184.187" y="266.388" width="3.397" height="3.396"/>
<path d="M255.522,285.07v-16.984h-4.859c-0.299-0.854-0.642-1.687-1.024-2.488l3.43-3.431l-12.009-12.011l-3.432,3.432
	c-0.803-0.383-1.634-0.724-2.487-1.023v-4.86h-13.588v-40.763h-71.335v98.511h3.397v6.794h13.587v-6.794h37.366v6.794h13.587v-6.794
	h16.985v-4.859c0.854-0.3,1.686-0.642,2.487-1.024l3.432,3.431l12.009-12.009l-3.43-3.432c0.382-0.804,0.724-1.635,1.024-2.488
	H255.522z M153.615,210.339h64.541v10.19h-3.396v-6.794h-3.397v6.794h-3.396v-6.794h-3.397v6.794h-3.396v-6.794h-3.397v6.794h-3.396
	v-6.794h-3.397v6.794h-37.366V210.339z M153.615,223.927h64.541v10.19h-3.396v-6.795h-3.397v6.795h-3.396v-6.795h-3.397v6.795
	h-3.396v-6.795h-3.397v6.795h-3.396v-6.795h-3.397v6.795h-37.366V223.927z M153.615,237.514h64.541v10.19h-3.396v-6.794h-3.397
	v6.794h-3.396v-6.794h-3.397v6.794h-3.396v-6.794h-3.397v6.794h-3.396v-6.794h-3.397v6.794h-37.366V237.514z M218.155,251.102v1.463
	c-0.854,0.298-1.686,0.641-2.488,1.023l-2.487-2.486H218.155z M163.805,308.849h-6.794v-3.396h6.794V308.849z M153.615,302.055
	v-50.953h57.676l-11.065,11.065l3.43,3.431c-0.382,0.803-0.724,1.634-1.024,2.488h-4.858v16.984h4.86
	c0.298,0.854,0.642,1.687,1.024,2.488l-3.432,3.432l11.064,11.064H153.615z M214.759,308.849h-6.794v-3.396h6.794V308.849z
	 M218.155,302.055h-4.975l2.487-2.484c0.803,0.382,1.634,0.723,2.488,1.024V302.055z M248.266,290.99l-7.207,7.206l-2.796-2.796
	l-1.115,0.603c-1.302,0.707-2.713,1.286-4.193,1.728l-1.213,0.361v3.963h-10.19v-3.963l-1.215-0.361
	c-1.479-0.439-2.891-1.021-4.193-1.728l-1.115-0.603l-2.796,2.796l-7.207-7.206l2.796-2.796l-0.603-1.115
	c-0.707-1.302-1.286-2.714-1.728-4.192l-0.36-1.213h-3.962v-10.19h3.962l0.361-1.216c0.441-1.479,1.021-2.89,1.728-4.192
	l0.604-1.114l-2.796-2.797l7.207-7.206l2.796,2.796l1.114-0.603c1.304-0.707,2.714-1.285,4.194-1.728l1.213-0.36v-3.962h10.19v3.962
	l1.214,0.361c1.479,0.441,2.892,1.021,4.194,1.728l1.114,0.604l2.796-2.796l7.207,7.207l-2.796,2.796l0.604,1.113
	c0.706,1.303,1.286,2.715,1.728,4.193l0.359,1.214h3.963v10.19h-3.963l-0.361,1.214c-0.44,1.479-1.021,2.892-1.728,4.193
	l-0.603,1.114L248.266,290.99z M248.266,290.99"/>
<path d="M226.647,261.292c-8.428,0-15.286,6.858-15.286,15.286s6.858,15.287,15.286,15.287s15.287-6.859,15.287-15.287
	S235.075,261.292,226.647,261.292L226.647,261.292z M238.401,278.277c-0.289,2.008-1.081,3.854-2.246,5.407l-2.303-2.304
	l-2.402,2.402l2.304,2.303c-1.554,1.165-3.399,1.957-5.408,2.246v-3.262h-3.397v3.262c-2.009-0.289-3.854-1.081-5.408-2.246
	l2.303-2.303l-2.401-2.402l-2.303,2.304c-1.166-1.554-1.957-3.399-2.246-5.407h3.261v-3.397h-3.261
	c0.289-2.01,1.08-3.854,2.246-5.408l2.303,2.303l2.401-2.401l-2.303-2.303c1.554-1.166,3.398-1.955,5.408-2.245v3.261h3.397v-3.261
	c2.008,0.288,3.854,1.079,5.408,2.245l-2.304,2.303l2.402,2.401l2.303-2.303c1.165,1.555,1.956,3.398,2.246,5.408h-3.261v3.397
	H238.401z M238.401,278.277"/>
<path fill="#FFFFFF" d="M181.192,203.579h-0.142c-1.289-11.602-11.151-20.649-23.089-20.649c-8.079,0-15.406,4.103-19.643,10.858
	c-1.173-0.356-2.375-0.534-3.587-0.534c-6.312,0-11.581,4.553-12.692,10.547c-0.925-0.147-1.859-0.222-2.796-0.222
	c-9.964,0-18.07,8.104-18.07,18.069c0,9.962,8.105,18.067,18.07,18.067h28.394h5.161h28.394c9.963,0,18.069-8.105,18.069-18.067
	C199.261,211.683,191.156,203.579,181.192,203.579z"/>
<path d="M151.868,239.605h28.394c9.963,0,18.069-8.104,18.069-18.067c0-9.964-8.105-18.069-18.069-18.069h-0.142
	c-1.29-11.602-11.152-20.649-23.09-20.649c-8.079,0-15.406,4.104-19.643,10.859c-1.174-0.356-2.375-0.535-3.588-0.535
	c-6.311,0-11.58,4.554-12.691,10.546c-0.925-0.146-1.86-0.221-2.797-0.221c-9.963,0-18.069,8.105-18.069,18.069
	c0,9.963,8.106,18.067,18.069,18.067h28.395 M118.312,234.443c-7.117,0-12.906-5.788-12.906-12.905
	c0-7.115,5.789-12.908,12.906-12.908c1.475,0,2.948,0.265,4.378,0.783c0.83,0.303,1.759,0.156,2.457-0.386
	c0.7-0.537,1.074-1.397,0.991-2.277l-0.083-0.698c0-4.27,3.476-7.746,7.746-7.746c1.19,0,2.382,0.307,3.539,0.906
	c0.615,0.319,1.337,0.379,1.993,0.164c0.657-0.219,1.202-0.689,1.509-1.309c3.077-6.222,9.279-10.085,16.19-10.085
	c9.962,0,18.068,8.103,18.068,17.997c-0.004,0.063-0.012,0.242-0.012,0.307c0,0.758,0.335,1.48,0.916,1.971
	c0.581,0.488,1.341,0.698,2.098,0.574c0.783-0.134,1.49-0.201,2.162-0.201c7.116,0,12.906,5.793,12.906,12.908
	c0,7.117-5.79,12.905-12.906,12.905H118.312z M190.586,278.323"/>
<rect x="177.679" y="213.794" width="5.163" height="5.162"/>
<rect x="177.679" y="224.118" width="5.163" height="5.163"/>
<rect x="167.355" y="224.118" width="5.163" height="5.163"/>
<rect x="222.814" y="280.434" fill="#FFFFFF" width="3.397" height="5.426"/>
<rect x="39.994" y="383.088" fill="#FFFFFF" width="18.854" height="27.283"/>
<path d="M161.184,381.147c-1.691-1.422-3.905-2.016-6.082-1.642l-45.262,7.871l-12.858-12.859c-0.427-0.428-1.007-0.668-1.614-0.668
	H38.303c-1.259,0-2.281,1.023-2.281,2.282v36.52c0,1.262,1.022,2.284,2.281,2.284h31.956c1.261,0,2.283-1.022,2.283-2.284v-2.28
	h6.31l24.402,12.202c1.058,0.525,2.199,0.789,3.337,0.789c1.3,0,2.594-0.341,3.757-1.018l49.792-29.047
	c2.283-1.332,3.703-3.802,3.703-6.444C163.843,384.648,162.875,382.567,161.184,381.147L161.184,381.147z M58.847,410.371h-18.26
	v-31.957h18.26V410.371z M67.979,410.371h-4.567v-31.957h4.567V410.371z M157.845,389.354l-49.795,29.046
	c-0.847,0.493-1.875,0.523-2.753,0.09L80.41,406.046c-0.314-0.159-0.665-0.241-1.018-0.241h-6.85v-27.391h21.88l17.982,17.982
	c0.79,0.791,1.225,1.838,1.225,2.951c0,2.303-1.872,4.176-4.175,4.176c-1.115,0-2.162-0.434-2.951-1.224l-11.805-11.805
	l-3.227,3.228l11.802,11.805c1.653,1.652,3.847,2.562,6.18,2.562c4.82,0,8.74-3.921,8.74-8.741c0-2.333-0.91-4.527-2.563-6.18
	l-1.845-1.846L155.888,384c0.844-0.146,1.704,0.084,2.36,0.637c0.654,0.553,1.032,1.359,1.032,2.217
	C159.28,387.879,158.73,388.835,157.845,389.354L157.845,389.354z M157.845,389.354"/>
</svg>
