<?xml version="1.0" encoding="utf-8"?>
<!-- Generator: Adobe Illustrator 15.1.0, SVG Export Plug-In  -->
<!DOCTYPE svg PUBLIC "-//W3C//DTD SVG 1.1//EN" "http://www.w3.org/Graphics/SVG/1.1/DTD/svg11.dtd" [
	<!ENTITY ns_flows "http://ns.adobe.com/Flows/1.0/">
]>
<svg version="1.1"
	 xmlns="http://www.w3.org/2000/svg" xmlns:xlink="http://www.w3.org/1999/xlink" xmlns:a="http://ns.adobe.com/AdobeSVGViewerExtensions/3.0/"
	 x="0px" y="0px" width="500px" height="500px" viewBox="-70.025 -63.659 500 500" enable-background="new -70.025 -63.659 500 500"
	 xml:space="preserve">
<defs>
</defs>
<path fill="#FFFFFF" stroke="#FFFFFF" d="M207.479,200.101c4.904-2.99,8.187-8.391,8.187-14.545v-13.039
	c0-8.496-6.257-15.558-14.403-16.824V143.1c0-1.036-0.839-1.874-1.875-1.874h-20.083V133.7c0-6.692-5.444-12.137-12.136-12.137
	h-29.237c-6.691,0-12.137,5.445-12.137,12.137v7.525h-20.082c-1.036,0-1.875,0.838-1.875,1.874v66.555
	c0,1.038,0.839,1.875,1.875,1.875h16.533c0.275,0,0.534-0.063,0.77-0.168h4.707c0.237,0.106,0.497,0.17,0.772,0.17h43.865
	c-4.55,5.543-7.3,12.452-7.3,19.808v9.924c0,1.033,0.839,1.874,1.875,1.874h14.278c0.071,0,0.138-0.013,0.207-0.021h5.834
	c0.069,0.008,0.137,0.021,0.207,0.021h42.884c1.034,0,1.875-0.84,1.875-1.874v-9.926
	C232.219,216.856,221.553,204.101,207.479,200.101z"/>
<path fill="none" stroke="#010101" stroke-width="5" stroke-linecap="square" stroke-linejoin="round" stroke-dasharray="0,12" d="
	M4.744,205.264C-10.595,109.852,54.328,20.085,149.746,4.74c95.411-15.323,185.186,49.598,200.51,145.016
	c15.34,95.4-49.577,185.183-144.998,200.524C109.846,365.609,20.073,300.681,4.744,205.264z"/>
<path stroke="#FFFFFF" d="M238.567,212.735c-1.104-1.104-1.104-2.895,0-3.998l31.069-31.067l-2.335,0.262
	c-1.557,0.173-2.946-0.943-3.12-2.495c-0.172-1.552,0.949-2.949,2.499-3.123l10.308-1.149c0.534-0.071,1.113,0.01,1.622,0.255
	c1.021,0.49,1.646,1.541,1.646,2.661v0.003c0,0.065-0.057,0.133-0.062,0.197l-1.206,10.353c-0.173,1.552-1.569,2.669-3.123,2.494
	c-1.551-0.174-2.669-1.571-2.494-3.121l0.261-2.339l-31.067,31.068c-0.554,0.551-1.275,0.827-1.998,0.827
	C239.841,213.563,239.12,213.286,238.567,212.735L238.567,212.735z M276.474,220.341v52.978c0,1.561-1.278,2.699-2.839,2.699H226.26
	c-1.56,0-2.917-1.139-2.917-2.699v-23.256c0-1.56,1.357-2.872,2.917-2.872h18.441c1.562,0,2.945,1.313,2.945,2.872v20.304h8.761
	v-33.067H243.69v2.379c0,1.561-1.266,2.826-2.827,2.826c-1.56,0-2.825-1.266-2.825-2.826v-5.092c0-1.561,1.127-2.938,2.687-2.938
	h18.443c1.56,0,2.893,1.378,2.893,2.938v35.78h8.76v-47.198h-12.718v0.886c0,1.563-1.264,2.827-2.825,2.827
	c-1.563,0-2.827-1.265-2.827-2.827v-3.713c0-1.56,1.181-2.824,2.741-2.824h18.443C275.195,217.517,276.474,218.781,276.474,220.341
	L276.474,220.341z M241.995,252.843h-13.001v17.523h13.001V252.843z"/>
<rect x="33.505" y="208.314" width="5.162" height="5.158"/>
<rect x="43.827" y="208.314" width="5.16" height="5.158"/>
<rect x="54.147" y="208.314" width="5.16" height="5.158"/>
<path fill="#FFFFFF" d="M110.127,299.717c14.021,0,23.795-5.702,23.795-10.818c0-4.849-8.781-10.211-21.632-10.762v8.599h4.327
	v4.328h-12.98v-4.328h4.328v-8.599c-12.854,0.551-21.634,5.913-21.634,10.762C86.331,294.015,96.104,299.717,110.127,299.717z"/>
<path fill="#FFFFFF" d="M110.127,312.697c14.021,0,23.795-5.702,23.795-10.817v-4.828c-4.936,4.226-13.648,6.991-23.795,6.991
	c-10.149,0-18.861-2.765-23.796-6.991v4.828C86.331,306.995,96.104,312.697,110.127,312.697z"/>
<path fill="#FFFFFF" d="M77.713,243.506c0.167,3.581,1.11,11.012,5.829,15.731c4.72,4.72,12.15,5.662,15.732,5.83
	c-0.167-3.582-1.11-11.013-5.83-15.733C88.727,244.617,81.296,243.674,77.713,243.506z"/>
<path fill="#FFFFFF" d="M133.922,327.838v-4.828c-4.936,4.227-13.648,6.992-23.795,6.992c-10.149,0-18.861-2.765-23.796-6.992v4.828
	c0,5.117,9.773,10.817,23.796,10.817C124.148,338.655,133.922,332.955,133.922,327.838z"/>
<path fill="#FFFFFF" d="M159.882,267.265h4.328v4.327h-4.328V267.265z M159.882,275.919h4.328v4.327h-4.328V275.919z
	 M159.882,284.572h4.328v4.327h-4.328V284.572z M159.882,293.227h4.328v4.326h-4.328V293.227z M151.23,275.919h4.326v4.327h-4.326
	V275.919z M151.23,284.572h4.326v4.327h-4.326V284.572z M49.553,351.636h-4.327v-4.327h4.327V351.636z M58.206,351.636H53.88v-4.327
	h4.326V351.636z M66.859,351.636h-4.327v-4.327h4.327V351.636z M149.067,351.636h-77.88v-4.327h36.778v-4.381
	c-14.719-0.582-25.962-6.99-25.962-15.089v-38.939c0-7.571,9.832-13.667,23.146-14.901l-4.567-4.565h-0.042
	c-3.28,0-13.481-0.561-20.055-7.135c-7.753-7.753-7.144-20.552-7.113-21.093c0.06-1.102,0.939-1.981,2.039-2.041
	c0.541-0.043,13.34-0.642,21.092,7.111c6.619,6.618,7.14,16.886,7.133,20.095l4.328,4.327v-14.248c0-0.576,0.226-1.125,0.633-1.529
	l5.856-5.855c-0.004-3.208,0.516-13.479,7.133-20.096c7.753-7.756,20.548-7.156,21.093-7.11c1.098,0.058,1.98,0.937,2.04,2.039
	c0.027,0.542,0.64,13.339-7.113,21.094c-6.576,6.574-16.775,7.134-20.057,7.134h-0.041l-5.22,5.219v16.467
	c14.716,0.58,25.959,6.99,25.959,15.087v38.939c0,8.099-11.243,14.507-25.959,15.089v4.381h36.777V351.636z M146.902,284.572v4.327
	h-4.327v-4.327H146.902z M151.23,293.227h4.326v4.326h-4.326V293.227z M157.721,351.636h-4.328v-4.327h4.328V351.636z
	 M159.882,301.879h4.328v4.325h-4.328V301.879z M166.373,351.636h-4.326v-4.327h4.326V351.636z M175.026,351.636h-4.327v-4.327
	h4.327V351.636z"/>
<path fill="#FFFFFF" d="M140.383,226.199c-3.58,0.168-11.015,1.107-15.739,5.829c-4.74,4.74-5.672,12.159-5.834,15.732
	c3.58-0.167,11.015-1.106,15.739-5.828C139.289,237.191,140.221,229.773,140.383,226.199z"/>
<path fill="#FFFFFF" d="M110.127,325.675c14.021,0,23.795-5.699,23.795-10.816v-4.829c-4.936,4.227-13.648,6.993-23.795,6.993
	c-10.149,0-18.861-2.766-23.796-6.993v4.829C86.331,319.977,96.104,325.675,110.127,325.675z"/>
<rect x="143.139" y="287.529" width="4.382" height="4.382"/>
<rect x="151.902" y="287.529" width="4.38" height="4.382"/>
<rect x="151.902" y="296.293" width="4.38" height="4.381"/>
<rect x="151.902" y="278.768" width="4.38" height="4.382"/>
<rect x="160.663" y="287.529" width="4.381" height="4.382"/>
<rect x="160.663" y="296.293" width="4.381" height="4.381"/>
<rect x="160.663" y="305.056" width="4.381" height="4.38"/>
<rect x="160.663" y="278.768" width="4.381" height="4.382"/>
<rect x="160.663" y="270.004" width="4.381" height="4.382"/>
<path d="M112.47,351.058v-4.437c14.902-0.589,26.287-7.078,26.287-15.279v-39.431c0-8.199-11.385-14.69-26.287-15.277v-16.676
	l5.286-5.285h0.041c3.323,0,13.651-0.567,20.31-7.224c7.852-7.853,7.231-20.812,7.203-21.36c-0.061-1.115-0.953-2.007-2.065-2.064
	c-0.552-0.046-13.508-0.653-21.359,7.2c-6.701,6.7-7.229,17.101-7.223,20.35l-5.931,5.929c-0.413,0.409-0.642,0.966-0.642,1.549
	v14.428l-4.383-4.382c0.007-3.248-0.521-13.646-7.223-20.349c-7.851-7.851-20.811-7.243-21.358-7.2
	c-1.114,0.06-2.005,0.949-2.064,2.065c-0.032,0.548-0.649,13.508,7.202,21.359c6.657,6.657,16.986,7.225,20.309,7.225h0.042
	l4.625,4.624c-13.482,1.249-23.438,7.422-23.438,15.089v39.431c0,8.201,11.386,14.69,26.289,15.279v4.437H70.849v4.382h78.862
	v-4.382H112.47z M124.979,234.321c4.783-4.78,12.313-5.731,15.938-5.902c-0.164,3.62-1.108,11.132-5.908,15.932
	c-4.783,4.782-12.312,5.733-15.938,5.902C119.236,246.634,120.181,239.121,124.979,234.321L124.979,234.321z M83.358,261.875
	c-4.777-4.779-5.732-12.305-5.901-15.93c3.628,0.17,11.152,1.124,15.93,5.901c4.779,4.779,5.733,12.304,5.903,15.932
	C95.663,267.608,88.139,266.655,83.358,261.875L83.358,261.875z M108.09,281.013v8.708h-4.383v4.382h13.145v-4.382h-4.382v-8.708
	c13.014,0.559,21.906,5.988,21.906,10.898c0,5.182-9.897,10.954-24.097,10.954s-24.097-5.772-24.097-10.954
	C86.183,287.001,95.074,281.571,108.09,281.013L108.09,281.013z M86.183,300.166c4.998,4.28,13.819,7.08,24.097,7.08
	c10.276,0,19.099-2.8,24.097-7.08v4.89c0,5.18-9.897,10.954-24.097,10.954s-24.097-5.774-24.097-10.954V300.166z M86.183,313.309
	c4.998,4.281,13.819,7.081,24.097,7.081c10.276,0,19.099-2.8,24.097-7.081v4.891c0,5.182-9.897,10.953-24.097,10.953
	s-24.097-5.771-24.097-10.953V313.309z M86.183,331.342v-4.889c4.998,4.28,13.819,7.08,24.097,7.08c10.276,0,19.099-2.8,24.097-7.08
	v4.889c0,5.182-9.897,10.953-24.097,10.953S86.183,336.523,86.183,331.342L86.183,331.342z M86.183,331.342"/>
<rect id="SVGID_3_" x="44.56" y="223.673" fill="none" width="131.438" height="132.096"/>
<rect x="154.092" y="351.058" width="4.382" height="4.382"/>
<rect x="162.854" y="351.058" width="4.381" height="4.382"/>
<rect x="171.616" y="351.058" width="4.382" height="4.382"/>
<rect x="44.56" y="351.058" width="4.382" height="4.382"/>
<rect x="53.323" y="351.058" width="4.381" height="4.382"/>
<rect x="62.085" y="351.058" width="4.382" height="4.382"/>
<path stroke="#FFFFFF" stroke-width="2" d="M334.296,233.771c0.584,5.262-3.225,10.018-8.482,10.602l0.707,6.364
	c5.258-0.584,10.017,3.222,10.601,8.482l6.362-0.706c-0.585-5.261,3.221-10.018,8.482-10.602l-0.706-6.364
	c-5.263,0.585-10.018-3.221-10.603-8.481L334.296,233.771L334.296,233.771z M339.253,249.422c-1.067-1.147-2.289-2.128-3.64-2.917
	c1.145-1.066,2.121-2.289,2.911-3.643c1.07,1.146,2.291,2.125,3.645,2.916C341.023,246.844,340.045,248.069,339.253,249.422
	L339.253,249.422z M339.253,249.422"/>
<path stroke="#FFFFFF" stroke-width="2" d="M272.486,24.003c0,3.455-2.813,6.267-6.267,6.267v4.18c3.453,0,6.267,2.813,6.267,6.268
	h4.179c0-3.455,2.811-6.268,6.268-6.268v-4.18c-3.457,0-6.268-2.812-6.268-6.267H272.486L272.486,24.003z M274.575,34.514
	c-0.609-0.82-1.332-1.545-2.15-2.154c0.818-0.609,1.541-1.332,2.15-2.153c0.611,0.821,1.334,1.544,2.154,2.153
	C275.909,32.969,275.187,33.693,274.575,34.514L274.575,34.514z M274.575,34.514"/>
<path stroke="#FFFFFF" stroke-width="2" d="M71.167,23.107c0,5.239-4.266,9.502-9.502,9.502v6.338c5.236,0,9.502,4.264,9.502,9.503
	h6.336c0-5.239,4.263-9.503,9.504-9.503V32.61c-5.241,0-9.504-4.263-9.504-9.502H71.167L71.167,23.107z M74.335,39.046
	c-0.926-1.245-2.02-2.344-3.263-3.267c1.243-0.925,2.337-2.021,3.263-3.266c0.928,1.245,2.021,2.341,3.266,3.266
	C76.356,36.702,75.263,37.801,74.335,39.046L74.335,39.046z M74.335,39.046"/>
<path d="M206.438,198.234c5.057-3.083,8.441-8.653,8.441-14.998v-13.445c0-8.761-6.451-16.043-14.853-17.348v-12.985
	c0-1.068-0.865-1.933-1.933-1.933h-20.708v-7.76c0-6.9-5.614-12.515-12.514-12.515h-30.148c-6.9,0-12.516,5.615-12.516,12.515v7.76
	h-20.708c-1.067,0-1.933,0.864-1.933,1.933v68.628c0,1.069,0.865,1.933,1.933,1.933h17.049c1.067,0,1.934-0.864,1.934-1.933
	c0-1.066-0.866-1.932-1.934-1.932h-15.115V167.12c3.354,5.092,8.647,8.828,14.895,10.095v2.119c0,3.412,2.775,6.186,6.187,6.186
	c3.411,0,6.185-2.775,6.185-6.186v-1.64h14.931c1.068,0,1.934-0.864,1.934-1.933c0-1.068-0.865-1.933-1.934-1.933h-14.931v-4.731
	c0-1.067-0.865-1.933-1.932-1.933h-8.506c-1.068,0-1.933,0.865-1.933,1.933v4.162c-8.63-2.118-14.895-9.931-14.895-19.009V141.39
	h92.729v10.881c-0.115,0.007-0.229,0.021-0.344,0.031c-0.132,0.012-0.265,0.022-0.396,0.036c-0.16,0.017-0.318,0.038-0.478,0.06
	c-0.128,0.019-0.255,0.035-0.382,0.054c-0.161,0.026-0.32,0.057-0.48,0.085c-0.121,0.023-0.244,0.044-0.364,0.069
	c-0.166,0.035-0.327,0.074-0.49,0.113c-0.114,0.028-0.229,0.053-0.341,0.081c-0.173,0.046-0.344,0.097-0.515,0.146
	c-0.101,0.03-0.202,0.057-0.3,0.087c-0.193,0.062-0.382,0.128-0.571,0.194c-0.076,0.027-0.152,0.051-0.227,0.079
	c-0.53,0.194-1.047,0.414-1.551,0.656c-0.053,0.025-0.104,0.053-0.156,0.079c-0.197,0.097-0.395,0.196-0.588,0.301
	c-0.08,0.043-0.155,0.089-0.234,0.132c-0.163,0.094-0.328,0.184-0.487,0.282c-0.087,0.053-0.174,0.109-0.259,0.164
	c-0.148,0.093-0.297,0.186-0.443,0.282c-0.09,0.061-0.177,0.125-0.267,0.188c-0.138,0.096-0.276,0.191-0.409,0.291
	c-0.091,0.068-0.181,0.138-0.271,0.207c-0.129,0.1-0.257,0.199-0.383,0.302c-0.091,0.073-0.177,0.15-0.266,0.224
	c-0.122,0.104-0.242,0.207-0.361,0.315c-0.089,0.078-0.174,0.161-0.26,0.241c-0.116,0.108-0.23,0.215-0.342,0.326
	c-0.085,0.084-0.169,0.17-0.252,0.256c-0.109,0.111-0.217,0.224-0.322,0.338c-0.084,0.088-0.164,0.179-0.244,0.27
	c-0.102,0.117-0.203,0.232-0.302,0.352c-0.078,0.093-0.156,0.188-0.233,0.283c-0.097,0.12-0.192,0.241-0.285,0.363
	c-0.075,0.097-0.148,0.196-0.221,0.296c-0.09,0.123-0.181,0.249-0.267,0.374c-0.069,0.102-0.139,0.205-0.208,0.308
	c-0.083,0.128-0.167,0.256-0.247,0.385c-0.065,0.106-0.131,0.212-0.194,0.319c-0.078,0.131-0.154,0.264-0.229,0.397
	c-0.063,0.109-0.122,0.218-0.182,0.328c-0.07,0.136-0.14,0.273-0.208,0.41c-0.057,0.112-0.113,0.225-0.167,0.338
	c-0.065,0.139-0.127,0.278-0.189,0.419c-0.05,0.115-0.103,0.23-0.149,0.348c-0.06,0.141-0.116,0.286-0.171,0.429
	c-0.045,0.118-0.091,0.237-0.134,0.355c-0.052,0.146-0.102,0.293-0.151,0.442c-0.039,0.12-0.08,0.24-0.116,0.359
	c-0.045,0.15-0.087,0.304-0.131,0.456c-0.031,0.121-0.067,0.241-0.098,0.364c-0.038,0.154-0.073,0.311-0.109,0.468
	c-0.027,0.121-0.056,0.243-0.081,0.365c-0.032,0.163-0.059,0.326-0.088,0.489c-0.02,0.12-0.043,0.239-0.062,0.358
	c-0.025,0.172-0.045,0.348-0.065,0.522c-0.014,0.113-0.031,0.226-0.042,0.339c-0.018,0.193-0.031,0.389-0.044,0.583
	c-0.006,0.097-0.016,0.193-0.021,0.29c-0.015,0.293-0.023,0.588-0.023,0.886v3.776c-0.896,0.147-1.801,0.233-2.708,0.256v-4.726
	c0-1.067-0.866-1.933-1.932-1.933h-8.505c-1.066,0-1.934,0.865-1.934,1.933v4.731h-12.613c-1.066,0-1.932,0.865-1.932,1.933
	c0,1.067,0.865,1.933,1.932,1.933h12.613v1.64c0,3.412,2.775,6.186,6.185,6.186c3.411,0,6.186-2.775,6.186-6.186v-1.646
	c0.905-0.018,1.81-0.09,2.708-0.211v5.76c0,0.293,0.008,0.586,0.022,0.875c0.007,0.114,0.018,0.226,0.026,0.34
	c0.013,0.175,0.023,0.352,0.04,0.527c0.014,0.14,0.033,0.277,0.05,0.418c0.018,0.143,0.036,0.29,0.055,0.435
	c0.023,0.154,0.053,0.308,0.079,0.462c0.022,0.124,0.043,0.25,0.068,0.375c0.033,0.167,0.07,0.331,0.109,0.497
	c0.026,0.11,0.048,0.219,0.076,0.328c0.044,0.179,0.093,0.353,0.143,0.528c0.027,0.094,0.052,0.189,0.08,0.28
	c0.058,0.191,0.119,0.377,0.184,0.564c0.025,0.076,0.05,0.15,0.076,0.226c0.074,0.206,0.152,0.408,0.231,0.609
	c0.022,0.054,0.042,0.107,0.064,0.161c0.091,0.224,0.189,0.445,0.289,0.667c0.013,0.025,0.025,0.051,0.037,0.078
	c1.471,3.165,3.854,5.824,6.813,7.628c-5.37,1.527-10.258,4.289-14.286,7.919h-48.927c-1.069,0-1.934,0.866-1.934,1.935
	c0,1.067,0.865,1.933,1.934,1.933h45.231c-4.692,5.716-7.527,12.84-7.527,20.424v10.234c0,1.065,0.865,1.932,1.934,1.932h14.724
	c1.065,0,1.931-0.865,1.931-1.932c0-1.068-0.866-1.933-1.931-1.933h-12.792v-8.301c0-7.722,3.293-15.103,9.276-20.787
	c0.06-0.056,0.121-0.112,0.181-0.169c0.231-0.215,0.467-0.428,0.704-0.637c0.018-0.018,0.036-0.034,0.055-0.048
	c0.469-0.413,0.949-0.809,1.439-1.193c0.089-0.069,0.179-0.136,0.268-0.206c0.132-0.1,0.264-0.198,0.396-0.296
	s0.261-0.193,0.395-0.288c0.056-0.039,0.112-0.08,0.169-0.12c2.745-1.94,5.776-3.446,8.944-4.456l3.138,6.097l-4.192,18.2
	c-0.156,0.68,0.065,1.39,0.58,1.859l8.104,7.419c0.369,0.338,0.836,0.507,1.303,0.507c0.468,0,0.938-0.17,1.307-0.507l8.104-7.419
	c0.514-0.469,0.735-1.179,0.578-1.859l-4.192-18.2l3.137-6.097c4.63,1.475,8.97,4.009,12.552,7.413
	c5.98,5.684,9.276,13.065,9.276,20.785v8.301h-42.287c-1.069,0-1.934,0.866-1.934,1.935c0,1.065,0.865,1.932,1.934,1.932h44.219
	c1.067,0,1.934-0.867,1.934-1.932v-10.235C231.947,215.512,220.949,202.359,206.438,198.234L206.438,198.234z M122.194,175.582
	v-4.551h4.639v8.303c0,1.279-1.041,2.321-2.319,2.321c-1.279,0-2.321-1.042-2.321-2.321v-3.752H122.194z M166.603,137.525H132.99
	v-6.373c0-1.764,1.434-3.198,3.197-3.198h27.218c1.763,0,3.197,1.435,3.197,3.198V137.525z M173.521,137.525h-3.053v-6.373
	c0-3.895-3.168-7.063-7.063-7.063h-27.218c-3.894,0-7.063,3.167-7.063,7.063v6.373h-3.051v-7.76c0-4.77,3.881-8.649,8.649-8.649
	h30.148c4.767,0,8.65,3.879,8.65,8.649V137.525z M173.19,175.762v3.572c0,1.279-1.042,2.322-2.321,2.322
	c-1.277,0-2.319-1.042-2.319-2.322v-8.303h4.64V175.762z M183.638,169.783c0-7.31,5.761-13.299,12.98-13.665
	c0.232-0.013,0.466-0.02,0.702-0.02c0.221,0,0.44,0.008,0.658,0.018c0.009,0,0.014,0,0.021,0c0.003,0.002,0.006,0,0.01,0
	c0.005,0.002,0.011,0,0.017,0.002c7.219,0.365,12.979,6.355,12.979,13.665v4.603c-6.235-1.158-8.758-7.496-8.871-7.786
	c-0.267-0.705-0.919-1.184-1.672-1.239c-0.751-0.052-1.467,0.339-1.831,0.996c-0.175,0.318-4.206,7.375-14.992,8.143V169.783z
	 M203.288,226.312l-5.968,5.463l-5.967-5.463l3.753-16.291h4.431L203.288,226.312z M192.235,201.276
	c0.169-0.032,0.339-0.061,0.508-0.088c0.121-0.021,0.241-0.041,0.36-0.059c0.212-0.033,0.423-0.064,0.634-0.093
	c0.276-0.037,0.551-0.07,0.829-0.099c0.111-0.013,0.222-0.022,0.333-0.033c0.026-0.003,0.052-0.006,0.079-0.007
	c0.286-0.026,0.574-0.049,0.86-0.068c0.117-0.008,0.232-0.016,0.348-0.021h0.001c0.232-0.012,0.466-0.019,0.699-0.026
	c0.145,0.005,0.288,0.01,0.433,0.01c0.147,0,0.291-0.005,0.435-0.01c0.234,0.007,0.466,0.014,0.7,0.026
	c0.075,0.004,0.15,0.006,0.225,0.011c0.339,0.021,0.676,0.047,1.015,0.079c0.127,0.013,0.253,0.025,0.379,0.04
	c0.281,0.029,0.562,0.062,0.843,0.1c0.205,0.028,0.412,0.06,0.62,0.091c0.12,0.02,0.243,0.04,0.364,0.061
	c0.169,0.028,0.337,0.056,0.505,0.088l-2.509,4.877h-5.15L192.235,201.276z M198.121,196.902c-0.04,0-0.08-0.001-0.12,0
	c-0.049,0.003-0.096,0.007-0.146,0.009c-0.014,0-0.029,0.001-0.042,0.001c-0.156-0.003-0.31-0.01-0.465-0.011h-0.054
	c-0.154,0-0.311,0.008-0.463,0.011c-7.055-0.252-12.828-6.009-13.183-12.994c-0.012-0.227-0.018-0.454-0.018-0.682v-4.862
	c8.741-0.536,13.88-4.649,16.417-7.484c1.787,2.79,5.246,6.666,10.967,7.415v4.932C211.014,190.517,205.301,196.486,198.121,196.902
	L198.121,196.902z M198.121,196.902"/>
<path d="M370.47,121.314l-3.965-4.053c1.446-0.188,2.846-0.829,3.966-1.925c2.746-2.686,2.795-7.105,0.11-9.85
	c-1.619-1.654-3.403-2.297-5.621-2.017c-1.854,0.233-3.917,1.099-6.52,2.193c1.154-2.576,2.064-4.621,2.34-6.47
	c0.33-2.208-0.271-4.008-1.89-5.662c-2.686-2.745-7.104-2.795-9.851-0.11c-1.121,1.096-1.791,2.48-2.013,3.923l-3.964-4.055
	c-1.611-1.646-4.263-1.678-5.91-0.066l-1.994,1.948c-1.297,1.271-1.591,3.186-0.867,4.749l-15.246,14.908
	c-1.647,1.611-1.678,4.263-0.067,5.911l23.509,24.039c1.611,1.647,4.264,1.676,5.913,0.065l15.245-14.907
	c1.546,0.756,3.465,0.507,4.767-0.763l1.992-1.949C372.052,125.614,372.081,122.964,370.47,121.314L370.47,121.314z M359.435,108.27
	c5.364-2.26,7.156-2.877,9.153-0.835c1.61,1.648,1.582,4.301-0.064,5.91c-1.648,1.611-4.302,1.583-5.913-0.065l-4.398-4.496
	C358.641,108.604,359.047,108.432,359.435,108.27L359.435,108.27z M356.897,95.481c1.998,2.042,1.34,3.82-1.038,9.131
	c-0.173,0.382-0.354,0.788-0.542,1.211l-4.396-4.497c-1.611-1.648-1.583-4.3,0.066-5.912
	C352.636,93.804,355.287,93.833,356.897,95.481L356.897,95.481z M328.83,126.827l-7.859-8.037c-0.536-0.548-0.526-1.433,0.024-1.969
	l15.074-14.743l8.831,9.033L328.83,126.827z M346.894,109.164l-9.807-10.029c-0.537-0.55-0.528-1.432,0.023-1.97l1.991-1.948
	c0.549-0.537,1.433-0.529,1.972,0.021l9.806,10.028L346.894,109.164z M334.677,132.803l-3.898-3.984l22.049-21.562l3.896,3.985
	L334.677,132.803z M346.452,142.854c-0.55,0.538-1.433,0.526-1.973-0.022l-7.857-8.036l16.071-15.714l8.834,9.031L346.452,142.854z
	 M366.462,127.181c-0.549,0.537-1.431,0.527-1.969-0.021l-9.808-10.029l3.986-3.896l9.806,10.028
	c0.536,0.549,0.526,1.433-0.023,1.97L366.462,127.181z M366.462,127.181"/>
<path fill="#FFFFFF" d="M336.055,102.154l-15.075,14.743c-0.55,0.537-0.559,1.422-0.023,1.97l7.859,8.037l16.07-15.716
	L336.055,102.154z"/>
<rect x="328.318" y="117.32" transform="matrix(0.7149 -0.6992 0.6992 0.7149 14.0065 274.57)" fill="#FFFFFF" width="30.838" height="5.575"/>
<path fill="#FFFFFF" d="M346.879,109.24l3.985-3.896l-9.806-10.028c-0.538-0.551-1.423-0.559-1.973-0.022l-1.991,1.95
	c-0.551,0.536-0.561,1.419-0.023,1.968L346.879,109.24z"/>
<path fill="#FFFFFF" d="M355.303,105.9c0.188-0.424,0.369-0.828,0.542-1.212c2.378-5.311,3.035-7.088,1.037-9.13
	c-1.609-1.649-4.261-1.677-5.908-0.067c-1.648,1.613-1.678,4.263-0.067,5.912L355.303,105.9z"/>
<path fill="#FFFFFF" d="M359.421,108.346c-0.388,0.164-0.795,0.336-1.224,0.514l4.398,4.498c1.612,1.647,4.265,1.676,5.913,0.065
	c1.646-1.61,1.675-4.264,0.064-5.91C366.576,105.469,364.784,106.088,359.421,108.346z"/>
<path fill="#FFFFFF" d="M354.671,117.208l9.808,10.029c0.537,0.549,1.42,0.557,1.969,0.021l1.993-1.95
	c0.549-0.537,0.559-1.42,0.021-1.969l-9.805-10.028L354.671,117.208z"/>
<path fill="#FFFFFF" d="M336.607,134.873l7.857,8.034c0.54,0.55,1.423,0.562,1.973,0.023l15.074-14.742l-8.833-9.031
	L336.607,134.873z"/>
</svg>
