<?xml version="1.0" encoding="utf-8"?>
<!-- Generator: Adobe Illustrator 15.1.0, SVG Export Plug-In  -->
<!DOCTYPE svg PUBLIC "-//W3C//DTD SVG 1.1//EN" "http://www.w3.org/Graphics/SVG/1.1/DTD/svg11.dtd" [
	<!ENTITY ns_flows "http://ns.adobe.com/Flows/1.0/">
]>
<svg version="1.1"
	 xmlns="http://www.w3.org/2000/svg" xmlns:xlink="http://www.w3.org/1999/xlink" xmlns:a="http://ns.adobe.com/AdobeSVGViewerExtensions/3.0/"
	 x="0px" y="0px" width="500px" height="500px" viewBox="-69.813 -63 500 500" enable-background="new -69.813 -63 500 500"
	 xml:space="preserve">
<defs>
</defs>
<path fill="none" stroke="#010101" stroke-width="5" stroke-linecap="square" stroke-linejoin="round" stroke-dasharray="0,12" d="
	M11.963,206.473C-3.374,111.066,61.547,21.304,156.966,5.96c95.413-15.321,185.186,49.595,200.51,145.009
	c15.339,95.396-49.577,185.173-144.997,200.51C117.066,366.81,27.293,301.884,11.963,206.473z"/>
<path stroke="#FFFFFF" d="M343.217,97.648c0,3.58-2.912,6.492-6.491,6.492v4.328c3.579,0,6.491,2.91,6.491,6.49h4.328
	c0-3.58,2.912-6.49,6.492-6.49v-4.328c-3.581,0-6.492-2.912-6.492-6.492H343.217L343.217,97.648z M345.381,108.533
	c-0.631-0.85-1.38-1.596-2.229-2.23c0.85-0.631,1.598-1.379,2.229-2.23c0.633,0.852,1.381,1.6,2.232,2.23
	C346.762,106.938,346.014,107.684,345.381,108.533L345.381,108.533z M345.381,108.533"/>
<path stroke="#FFFFFF" d="M229.854,0.5c0,3.362-2.739,6.104-6.103,6.104v4.066c3.364,0,6.103,2.737,6.103,6.104h4.068
	c0-3.366,2.739-6.104,6.103-6.104V6.604c-3.364,0-6.103-2.741-6.103-6.104H229.854L229.854,0.5z M231.887,10.732
	c-0.594-0.798-1.298-1.502-2.098-2.097c0.799-0.593,1.504-1.297,2.098-2.097c0.594,0.8,1.297,1.504,2.098,2.097
	C233.185,9.23,232.481,9.935,231.887,10.732L231.887,10.732z M231.887,10.732"/>
<path stroke="#FFFFFF" stroke-width="2" d="M10.6,200.416c0,5.293-4.31,9.6-9.6,9.6v6.403c5.29,0,9.6,4.308,9.6,9.601h6.401
	c0-5.293,4.306-9.601,9.602-9.601v-6.403c-5.295,0-9.602-4.307-9.602-9.6H10.6L10.6,200.416z M13.8,216.517
	c-0.935-1.258-2.041-2.367-3.296-3.3c1.255-0.935,2.361-2.042,3.296-3.3c0.937,1.258,2.042,2.365,3.299,3.3
	C15.843,214.15,14.737,215.259,13.8,216.517L13.8,216.517z M13.8,216.517"/>
<rect x="36.592" y="231.562" width="5.737" height="5.732"/>
<rect x="48.064" y="231.562" width="5.735" height="5.732"/>
<rect x="59.535" y="231.562" width="5.735" height="5.732"/>
<path stroke="#FFFFFF" stroke-width="2" d="M256.706,238.073l-3.039-1.219c15.281-16.997,23.669-38.831,23.669-61.777
	c0-18.773-5.676-36.835-16.017-52.02c-0.125-0.247-0.281-0.468-0.462-0.663c-4.529-6.529-9.921-12.518-16.11-17.782
	c-1.229-1.044-3.07-0.896-4.117,0.333c-1.043,1.227-0.895,3.07,0.332,4.117c4.965,4.222,9.385,8.941,13.218,14.051
	c-6.182,2.416-13.601,4.462-21.883,6.078c-2.288-6.812-5.097-13.165-8.4-18.896c-4.453-7.723-9.575-13.944-15.156-18.519
	c8.687,2.483,16.962,6.332,24.556,11.462c1.337,0.901,3.152,0.552,4.055-0.785c0.903-1.337,0.552-3.152-0.784-4.055
	c-15.293-10.331-33.173-15.794-51.702-15.794c-24.701,0-47.921,9.618-65.387,27.083c-17.466,17.466-27.083,40.688-27.083,65.387
	c0,22.976,8.399,44.812,23.704,61.816l-3,1.174c-1.106,0.399-10.5,4.148-10.5,16.093v10.462c0,1.615,1.307,2.926,2.92,2.926h42.982
	c0.141,0,0.279-0.015,0.413-0.034c0.136,0.019,0.273,0.034,0.415,0.034h11.882c1.612,0,2.919-1.307,2.919-2.922
	c0-1.612-1.308-2.92-2.919-2.92h-8.962v-10.17c0-10.729,8.427-13.816,8.768-13.935c0.046-0.016,0.09-0.033,0.134-0.05l14.221-5.566
	c0.03,0.031,0.06,0.066,0.092,0.097l7.558,7.363c0.546,0.53,1.276,0.826,2.037,0.826c0.016,0,0.032,0,0.046,0
	c0.778-0.012,1.519-0.334,2.057-0.894l7.258-7.529l14.2,5.694c0.053,0.023,0.087,0.037,0.14,0.052
	c0.358,0.127,8.787,3.213,8.787,13.943v10.17h-47.208c-1.612,0-2.919,1.309-2.919,2.92c0,1.615,1.307,2.922,2.919,2.922h93.939
	c1.611,0,2.918-1.329,2.918-2.942V254.16C267.195,242.261,257.871,238.496,256.706,238.073L256.706,238.073z M247.872,234.529
	l-2.878-1.153v-1.662c3.18-1.866,5.626-4.854,6.788-8.417c4.248-0.337,7.604-3.893,7.604-8.227c0-2.578-1.188-4.881-3.043-6.397
	v-5.188c0-10.006-7.508-18.287-17.186-19.516c0.109-1.979,0.187-3.974,0.224-5.973h32.063
	C270.74,199.134,262.437,219.1,247.872,234.529L247.872,234.529z M237.328,227.955h-2.663c-5.159,0-9.357-4.197-9.357-9.356v-7.726
	c3.805-0.414,10.542-1.742,15.733-6.078c1.162,1.995,2.961,4.151,5.646,5.411v8.393
	C246.687,223.757,242.489,227.955,237.328,227.955L237.328,227.955z M239.154,233.682v1.62l-3.255,3.376l-3.058-2.978v-2.018
	c0.6,0.073,1.206,0.113,1.825,0.113h2.663C237.947,233.795,238.554,233.755,239.154,233.682L239.154,233.682z M222.398,205.222
	h-0.01c-0.101,0-0.199,0.006-0.298,0.015c-0.032,0.004-0.062,0.011-0.093,0.014c-0.066,0.009-0.133,0.017-0.196,0.03
	c-0.044,0.008-0.087,0.021-0.13,0.032c-0.049,0.013-0.101,0.023-0.148,0.04c-0.031,0.01-0.062,0.023-0.093,0.034v-1.903
	c0-7.633,6.208-13.838,13.838-13.838h1.397c7.632,0,13.838,6.206,13.838,13.838v1.88c-0.055-0.018-0.111-0.032-0.167-0.046
	c-0.026-0.007-0.053-0.016-0.079-0.023c-4.073-0.926-5.402-6.36-5.413-6.401c-0.254-1.118-1.14-1.986-2.264-2.215
	c-1.125-0.231-2.278,0.218-2.95,1.149C234.341,205.138,222.552,205.222,222.398,205.222L222.398,205.222z M252.526,217.038v-3.935
	c0.614,0.44,1.017,1.156,1.017,1.967C253.543,215.88,253.141,216.598,252.526,217.038L252.526,217.038z M257.607,128.028
	c8.459,13.067,13.302,28.279,13.833,44.128h-32.063c-0.238-13.144-2.073-25.821-5.349-37.367
	C243.006,133.006,251.011,130.726,257.607,128.028L257.607,128.028z M233.537,172.156H203.65c-0.004,0-0.007,0-0.009,0
	c-3.984-4.404-9.584-7.313-15.856-7.798v-25.11c14.331-0.143,28.158-1.335,40.48-3.406
	C231.489,147.009,233.296,159.337,233.537,172.156L233.537,172.156z M207.777,202.649c0,1.719-1.16,3.167-2.737,3.612v-7.224
	C206.617,199.483,207.777,200.931,207.777,202.649L207.777,202.649z M187.785,88.608c11.621,1.242,22.555,9.863,31.053,24.605
	c2.982,5.173,5.543,10.888,7.655,17.019c-11.775,1.928-24.987,3.037-38.708,3.175V88.608z M185.933,170.121
	c9.948,0,18.04,8.092,18.04,18.04v3.567c-0.02-0.015-0.041-0.028-0.06-0.044c-0.042-0.034-0.085-0.065-0.13-0.097
	c-0.034-0.023-0.068-0.046-0.104-0.067c-0.044-0.028-0.088-0.056-0.132-0.082c-0.043-0.023-0.085-0.044-0.128-0.064
	c-0.042-0.021-0.083-0.041-0.123-0.061c-0.051-0.022-0.104-0.042-0.157-0.062c-0.037-0.014-0.072-0.028-0.109-0.041
	c-0.06-0.019-0.12-0.033-0.18-0.049c-0.026-0.01-0.053-0.019-0.081-0.023c-5.547-1.263-7.303-8.494-7.319-8.558
	c-0.252-1.119-1.138-1.986-2.263-2.215c-1.123-0.231-2.279,0.218-2.951,1.149c-6.837,9.454-21.944,9.549-22.144,9.549h-0.01
	c-0.101,0-0.201,0.005-0.298,0.016c-0.03,0.003-0.059,0.009-0.091,0.015c-0.066,0.008-0.133,0.016-0.198,0.029
	c-0.042,0.01-0.083,0.021-0.123,0.033c-0.053,0.012-0.106,0.024-0.156,0.041c-0.047,0.014-0.093,0.033-0.139,0.049
	c-0.042,0.016-0.087,0.03-0.129,0.048c-0.053,0.021-0.104,0.049-0.155,0.073c-0.034,0.016-0.067,0.03-0.1,0.047
	c-0.052,0.028-0.102,0.062-0.153,0.092c-0.028,0.02-0.058,0.035-0.087,0.055c-0.046,0.032-0.092,0.067-0.136,0.102
	c-0.031,0.021-0.06,0.042-0.088,0.065c-0.026,0.021-0.053,0.047-0.08,0.071v-3.641c0-9.948,8.092-18.04,18.04-18.04H185.933z
	 M136.194,172.156c0.24-12.821,2.049-25.153,5.276-36.318c12.337,2.072,26.181,3.266,40.476,3.411v25.14
	c-6.123,0.574-11.578,3.464-15.481,7.787c-0.107-0.011-0.216-0.019-0.325-0.019H136.194z M165.16,199.007v7.285
	c-1.638-0.404-2.855-1.882-2.855-3.643S163.522,199.413,165.16,199.007L165.16,199.007z M181.946,88.608v44.799
	c-13.687-0.14-26.91-1.252-38.702-3.184c2.109-6.126,4.67-11.838,7.651-17.01C159.392,98.471,170.326,89.85,181.946,88.608
	L181.946,88.608z M160.959,91.804c-5.57,4.572-10.682,10.783-15.125,18.492c-3.304,5.729-6.113,12.078-8.399,18.888
	c-8.271-1.614-15.68-3.655-21.849-6.062C126.771,108.247,142.628,97.074,160.959,91.804L160.959,91.804z M112.151,128.042
	c6.579,2.69,14.586,4.96,23.555,6.741c-3.277,11.547-5.115,24.227-5.351,37.374H98.29
	C98.831,155.935,103.849,140.831,112.151,128.042L112.151,128.042z M130.966,233.682c0.601,0.073,1.208,0.113,1.824,0.113h2.665
	c0.615,0,1.224-0.04,1.822-0.113v1.62l-3.252,3.376l-3.059-2.978V233.682z M135.455,227.955h-2.665
	c-5.159,0-9.356-4.197-9.356-9.356v-7.723c3.802-0.411,10.538-1.743,15.732-6.081c1.162,1.995,2.961,4.151,5.646,5.411v8.393
	C144.812,223.757,140.614,227.955,135.455,227.955L135.455,227.955z M142.968,198.894c-0.254-1.12-1.139-1.986-2.262-2.215
	c-1.125-0.231-2.281,0.218-2.951,1.147c-5.293,7.315-17.091,7.395-17.232,7.395h-0.011c-0.101,0-0.199,0.006-0.298,0.015
	c-0.03,0.004-0.06,0.011-0.089,0.014c-0.067,0.009-0.134,0.017-0.199,0.03c-0.041,0.008-0.082,0.021-0.124,0.031
	c-0.052,0.014-0.104,0.024-0.155,0.041c-0.032,0.01-0.062,0.023-0.092,0.034v-1.903c0-7.633,6.207-13.838,13.839-13.838h1.397
	c7.63,0,13.838,6.206,13.838,13.838v1.88h-0.002c-0.056-0.02-0.113-0.032-0.171-0.047c-0.025-0.006-0.051-0.017-0.076-0.022
	C144.31,204.369,142.977,198.935,142.968,198.894L142.968,198.894z M98.29,177.996h32.063c0.037,2.013,0.114,4.022,0.226,6.013
	c-9.522,1.37-16.865,9.579-16.865,19.475v5.167c-1.873,1.515-3.074,3.828-3.074,6.418c0,4.365,3.408,7.939,7.701,8.229
	c1.163,3.563,3.607,6.549,6.787,8.415v1.644l-3.191,1.248C107.322,219.165,98.991,199.179,98.29,177.996L98.29,177.996z
	 M117.592,213.038v4.064c-0.669-0.431-1.113-1.18-1.113-2.032C116.479,214.217,116.923,213.468,117.592,213.038L117.592,213.038z
	 M146.408,251.537v10.17H108.44v-7.546c0-8.141,6.363-10.5,6.61-10.588c0.046-0.015,0.092-0.031,0.136-0.047l11.012-4.314l5.854,5.7
	c0.545,0.53,1.275,0.827,2.037,0.827c0.014,0,0.03,0,0.046,0c0.776-0.012,1.517-0.333,2.057-0.892l5.528-5.737l6.833,2.739
	C147.256,244.499,146.408,247.711,146.408,251.537L146.408,251.537z M174.582,226.021l-15.498,6.068
	c-1.974,0.68-4.706,2.246-7.129,4.829l-8.837-3.542v-1.662c3.181-1.866,5.626-4.854,6.789-8.417
	c4.248-0.337,7.605-3.893,7.605-8.227c0-2.578-1.189-4.881-3.044-6.397v-5.188c0-10.302-7.956-18.773-18.047-19.606
	c-0.111-1.949-0.189-3.914-0.226-5.882h26.392c-1.459,3.086-2.278,6.531-2.278,10.165v6.812c-2.333,1.752-3.844,4.54-3.844,7.676
	c0,5.242,4.226,9.512,9.448,9.593c1.371,4.629,4.527,8.497,8.67,10.8V226.021z M150.651,217.038v-3.936
	c0.616,0.438,1.018,1.157,1.018,1.968C151.669,215.88,151.267,216.598,150.651,217.038L150.651,217.038z M189.778,228.058v0.189
	l-4.783,4.964l-4.574-4.454v-3.674c0.98,0.164,1.988,0.253,3.015,0.253h3.329c1.027,0,2.032-0.089,3.013-0.253V228.058z
	 M186.765,219.497h-3.329c-6.858,0-12.435-5.577-12.435-12.435v-10.309c4.66-0.429,13.875-2.05,20.606-8.092
	c1.421,2.688,3.803,5.81,7.593,7.429v10.972C199.2,213.92,193.623,219.497,186.765,219.497L186.765,219.497z M217.857,236.938
	c-2.423-2.59-5.157-4.161-7.137-4.844l-15.102-6.058v-2.995c4.145-2.303,7.3-6.173,8.67-10.802c5.167-0.144,9.328-4.389,9.328-9.59
	c0-3.116-1.496-5.891-3.805-7.646v-6.843c0-3.634-0.82-7.079-2.277-10.165h26.002c-0.04,1.978-0.117,3.949-0.228,5.907
	c-9.937,0.986-17.722,9.39-17.722,19.582v5.167c-1.873,1.515-3.072,3.829-3.072,6.418c0,4.365,3.406,7.942,7.7,8.231
	c1.162,3.56,3.605,6.546,6.787,8.413v1.644L217.857,236.938z M219.469,213.038v4.064c-0.668-0.431-1.113-1.18-1.113-2.032
	C218.356,214.217,218.8,213.468,219.469,213.038L219.469,213.038z M261.355,261.707h-37.969v-10.17c0-3.811-0.841-7.013-2.129-9.656
	l6.818-2.67l5.852,5.7c0.545,0.53,1.275,0.827,2.038,0.827c0.014,0,0.029,0,0.045,0c0.775-0.012,1.517-0.333,2.057-0.892
	l5.527-5.737l10.99,4.405c0.053,0.021,0.081,0.032,0.134,0.052c0.27,0.095,6.637,2.455,6.637,10.595V261.707z M261.355,261.707"/>
<path stroke="#FFFFFF" stroke-width="2" d="M191.104,234.457c-1.611,0-2.899,1.291-2.899,2.9c0,1.873-1.522,3.367-3.37,3.367
	c-0.702,0-1.347-0.205-1.874-0.584c-0.117-0.117-0.264-0.234-0.411-0.324c-0.673-0.615-1.083-1.494-1.083-2.488
	c0-1.611-1.289-2.9-2.899-2.9c-1.611,0-2.899,1.289-2.899,2.9c0,2.342,0.879,4.449,2.314,6.09l-1.962,43.232
	c-0.03,0.879,0.322,1.699,0.967,2.285l6.121,5.508c0.556,0.498,1.26,0.76,1.934,0.76c0.702,0,1.375-0.234,1.932-0.732l6.034-5.418
	c0.645-0.586,0.997-1.406,0.966-2.283l-1.875-43.76c1.231-1.553,1.963-3.516,1.963-5.625
	C194.004,235.775,192.686,234.457,191.104,234.457L191.104,234.457z M185.012,288.437l-3.164-2.842l1.758-39.102
	c0.382,0.059,0.791,0.088,1.171,0.088c0.528,0,1.055-0.059,1.582-0.146l1.699,39.248L185.012,288.437z M185.012,288.437"/>
<path fill="#FFFFFF" stroke="#FFFFFF" d="M313.098,298.888c-4.913-0.297-9.582-0.583-13.242-1.078
	c-0.398,0.625-0.687,1.115-0.932,1.532c-0.677,1.16-1.143,1.909-2.228,2.967c-0.159,6.021-3.142,10.221-8.509,11.886
	c-2.142,0.664-4.181,0.266-5.758-1.108c-3.679-3.222-3.915-11.012-3.172-15.514l-11.759,8.386
	c3.428,7.504,6.892,17.253,9.061,23.684c1.172,0.157,3.015,0.5,5.014,0.878c2.729,0.52,5.818,1.104,7.458,1.238
	c11.641,0.907,24.567,1.183,26.544,1.107c1.654-0.055,4.564-0.831,5.842-1.741c0.375-0.269,0.65-0.497,0.872-0.708
	c-4.851-0.665-11.638-2.008-13.925-2.47c-1.273-0.26-2.099-1.501-1.841-2.776c0.254-1.272,1.5-2.098,2.776-1.839
	c1.926,0.388,11.767,2.353,16.143,2.709c0.024,0.003,0.044,0.009,0.068,0.013c0.009,0.001,0.018-0.002,0.027,0
	c1.262,0.153,2.016-0.588,2.444-1.229c0.669-1.021,0.867-2.35,0.578-3.516c-5.214-0.581-15.168-2.641-15.278-2.662
	c-1.271-0.266-2.086-1.521-1.817-2.793c0.272-1.27,1.513-2.085,2.793-1.816c2.313,0.489,12.455,2.505,16.062,2.705
	c0.041,0.002,0.079,0.014,0.121,0.017c0.018,0.003,0.036-0.003,0.055,0c0.797,0.102,2.152-0.704,2.936-2.2
	c0.254-0.476,0.695-1.552,0.318-2.542c-4.733-0.567-17.216-2.924-18.766-3.215c-1.278-0.243-2.122-1.473-1.878-2.755
	c0.24-1.277,1.473-2.119,2.753-1.873c6.555,1.234,17.026,3.117,19.304,3.251c0.822-0.062,1.667-0.98,1.952-2.137
	c0.203-0.811,0.282-2.316-1.482-3.288C332.061,300.037,321.986,299.428,313.098,298.888z"/>
<path fill="#FFFFFF" stroke="#FFFFFF" d="M243.803,311.499l21.773,30.532l8.185-5.837c-1.785-5.519-7.825-23.713-12.795-32.833
	C257.714,303.91,250.313,307.593,243.803,311.499z"/>
<path fill="#FFFFFF" stroke="#FFFFFF" d="M296.74,281.967c-8.948,1.806-11.048,5.656-12.832,16.333
	c-0.751,4.486,0.022,9.844,1.625,11.242c0.233,0.203,0.524,0.384,1.264,0.156c2.322-0.709,5.374-2.363,5.196-8.349
	c-0.021-0.704,0.272-1.376,0.804-1.84c1.198-1.052,1.416-1.428,2.068-2.542c0.43-0.727,0.969-1.657,1.928-3.046
	c0.516-0.745,1.423-1.135,2.326-0.981c3.592,0.602,8.777,0.915,14.265,1.249c8.327,0.506,16.89,1.033,22.051,2.681l1.828-4.858
	c-6.18-4.501-15.283-10.835-21.434-14.701C313.343,278.016,305.232,280.253,296.74,281.967z"/>
<path fill="#FFFFFF" stroke="#FFFFFF" d="M344.501,291.532l8.152-5.813l-21.857-30.648c-8.967,6.72-14.034,12.907-16.252,15.985
	C322.088,275.298,338.462,286.905,344.501,291.532z"/>
<path stroke="#FFFFFF" d="M330.011,249.915c-15.051,10.733-20.653,20.541-20.889,20.951c-0.33,0.589-0.391,1.288-0.173,1.921
	c0.196,0.561,0.6,1.012,1.115,1.293c-3.681,0.969-8.868,2.257-14.206,3.33c-9.121,1.842-12.907,5.967-15.07,13.39l-15.337,10.938
	c-0.354-0.667-0.706-1.303-1.051-1.892c-0.367-0.619-0.992-1.042-1.701-1.134c-5.506-0.771-19.362,7.59-23.479,10.171
	c-0.564,0.364-0.938,0.9-1.062,1.538c-0.125,0.635,0.018,1.296,0.394,1.825l24.607,34.505c0.753,1.057,2.226,1.305,3.284,0.55
	l11.501-8.203c0.827-0.589,1.182-1.65,0.875-2.622c-0.046-0.146-0.237-0.755-0.548-1.72c0.758,0.139,1.598,0.301,2.472,0.465
	c2.983,0.566,6.067,1.154,7.967,1.303c11.399,0.886,24.581,1.22,27.091,1.122c2.073-0.077,6.043-0.939,8.398-2.619
	c1.89-1.349,3.033-2.821,3.438-4.385c1.722-0.436,3.258-1.526,4.325-3.154c1.263-1.918,1.727-4.301,1.362-6.53
	c1.741-0.756,3.309-2.214,4.317-4.124c0.986-1.871,1.251-3.848,0.817-5.625c1.583-1.01,2.771-2.671,3.273-4.712
	c0.683-2.748-0.122-5.435-2.068-7.293l1.582-4.206c0.704,0.537,1.298,0.998,1.752,1.367c0.822,0.667,1.989,0.705,2.852,0.088
	l11.501-8.2c1.057-0.755,1.304-2.228,0.55-3.285l-24.605-34.502C332.537,249.401,331.069,249.16,330.011,249.915z M273.81,336.262
	l-8.185,5.836l-21.773-30.531c6.509-3.906,13.91-7.589,17.162-8.14C265.984,312.546,272.024,330.743,273.81,336.262z
	 M337.161,305.356c-0.286,1.158-1.133,2.079-1.958,2.136c-2.3-0.14-12.753-2.017-19.298-3.251c-1.279-0.246-2.513,0.594-2.75,1.876
	c-0.246,1.278,0.598,2.509,1.876,2.752c1.55,0.291,14.043,2.649,18.784,3.221c0.371,0.989-0.082,2.062-0.336,2.537
	c-0.784,1.497-2.139,2.302-2.936,2.199c-0.032-0.003-0.063-0.002-0.093-0.005c-0.028-0.004-0.054-0.012-0.083-0.013
	c-3.608-0.201-13.749-2.215-16.062-2.703c-1.28-0.269-2.52,0.546-2.792,1.818c-0.27,1.27,0.545,2.523,1.816,2.791
	c0.11,0.021,10.062,2.082,15.279,2.663c0.288,1.168,0.09,2.495-0.579,3.515c-0.429,0.641-1.183,1.382-2.444,1.229
	c-0.013,0-0.026,0-0.04-0.001c-0.02-0.004-0.036-0.01-0.054-0.01c-4.377-0.357-14.215-2.32-16.144-2.71
	c-1.275-0.258-2.521,0.568-2.775,1.839c-0.257,1.276,0.568,2.517,1.841,2.777c2.288,0.462,9.081,1.806,13.93,2.47
	c-0.222,0.208-0.506,0.442-0.877,0.707c-1.278,0.911-4.188,1.687-5.842,1.742c-1.977,0.076-14.904-0.201-26.545-1.108
	c-1.638-0.134-4.729-0.718-7.456-1.236c-2-0.378-3.84-0.72-5.015-0.878c-2.168-6.431-5.629-16.18-9.059-23.685l11.757-8.384
	c-0.742,4.5-0.506,12.292,3.173,15.513c1.578,1.375,3.617,1.772,5.756,1.105c5.368-1.663,8.352-5.863,8.51-11.885
	c1.086-1.056,1.551-1.806,2.229-2.966c0.246-0.417,0.535-0.906,0.933-1.532c3.66,0.496,8.328,0.781,13.242,1.078
	c8.886,0.539,18.962,1.148,22.531,3.112C337.44,303.038,337.363,304.545,337.161,305.356z M335.487,296.929
	c-5.163-1.646-13.732-2.168-22.054-2.673c-5.488-0.333-10.672-0.646-14.265-1.249c-0.903-0.153-1.809,0.239-2.326,0.981
	c-0.959,1.389-1.498,2.32-1.928,3.046c-0.652,1.113-0.87,1.489-2.069,2.542c-0.531,0.464-0.824,1.137-0.804,1.84
	c0.178,5.985-2.874,7.64-5.196,8.348c-0.74,0.228-1.031,0.048-1.263-0.154c-1.602-1.397-2.377-6.757-1.625-11.242
	c1.783-10.677,3.884-14.528,12.832-16.333c8.474-1.708,16.583-3.944,19.09-4.656c6.151,3.866,15.255,10.2,21.434,14.699
	L335.487,296.929z M352.701,285.786l-8.151,5.813c-6.04-4.626-22.413-16.233-29.958-20.476c2.218-3.08,7.285-9.266,16.253-15.985
	L352.701,285.786z"/>
<rect x="190.468" y="327.824" transform="matrix(0.9079 0.4193 -0.4193 0.9079 156.409 -52.2487)" fill="#FFFFFF" width="13.22" height="3.808"/>
<path fill="#FFFFFF" d="M180.813,340.194c0.443-0.959,1.54-1.363,2.5-0.919c0.958,0.442,1.362,1.54,0.919,2.498l-0.943,2.041
	l12.002,5.544l0.943-2.04c0.442-0.96,1.541-1.362,2.499-0.919c0.958,0.441,1.361,1.539,0.917,2.497l-0.942,2.04l11.293,5.218
	l5.429-11.752l-12.668-5.853c-0.146-0.015-0.27-0.07-0.396-0.129c-0.124-0.058-0.25-0.117-0.354-0.218l-14.67-6.776
	c-0.146-0.015-0.27-0.071-0.394-0.129c-0.126-0.06-0.25-0.117-0.356-0.218l-12.67-5.854l-5.429,11.753l11.377,5.256L180.813,340.194
	z"/>
<path fill="#FFFFFF" d="M196.244,356.272c-0.444,0.961-1.54,1.364-2.498,0.922s-1.362-1.54-0.919-2.501l0.886-1.915l-12.003-5.545
	l-0.885,1.915c-0.443,0.961-1.542,1.364-2.5,0.922s-1.363-1.54-0.919-2.5l0.884-1.916l-11.376-5.257l-5.43,11.753l41.593,19.213
	l5.429-11.752l-11.377-5.255L196.244,356.272z"/>
<path d="M158.218,354.789l44.969,20.772c0.959,0.444,2.055,0.038,2.497-0.92l14.017-30.343c0.443-0.957,0.04-2.052-0.919-2.495
	l-13.046-6.025l2.368-5.127c0.443-0.96,0.041-2.055-0.917-2.497l-15.421-7.124c-0.958-0.443-2.057-0.041-2.5,0.919l-2.386,5.165
	l-13.084-6.044c-0.958-0.443-2.057-0.037-2.499,0.921l-14.017,30.34C156.897,353.266,157.301,354.364,158.218,354.789
	L158.218,354.789z M191.897,325.236l12.001,5.544l-1.598,3.459l-12.001-5.545L191.897,325.236z M173.942,325.237l12.67,5.852
	c0.106,0.102,0.23,0.157,0.357,0.217c0.123,0.057,0.248,0.114,0.393,0.132l14.671,6.775c0.104,0.101,0.23,0.158,0.354,0.216
	c0.125,0.059,0.25,0.116,0.396,0.131l12.668,5.853l-5.429,11.752l-11.295-5.217l0.943-2.042c0.443-0.959,0.041-2.053-0.918-2.497
	c-0.958-0.443-2.056-0.04-2.499,0.92l-0.943,2.04l-12.002-5.544l0.943-2.041c0.443-0.96,0.039-2.056-0.92-2.499
	c-0.958-0.443-2.057-0.04-2.5,0.919l-0.942,2.041l-11.377-5.255L173.942,325.237z M166.935,340.406l11.376,5.256l-0.886,1.917
	c-0.442,0.958-0.038,2.057,0.921,2.5c0.958,0.442,2.056,0.038,2.499-0.921l0.885-1.916l12.002,5.545l-0.886,1.916
	c-0.443,0.959-0.038,2.057,0.92,2.5c0.958,0.441,2.054,0.037,2.497-0.921l0.886-1.918l11.377,5.257l-5.43,11.753l-41.592-19.215
	L166.935,340.406z M166.935,340.406"/>
<path fill="#FFFFFF" d="M44.153,313.763c-1.887,0-3.423,1.534-3.423,3.42c0,0.915,0.357,1.773,1.004,2.42l11.546,11.546
	l-2.646,2.649L39.087,322.25c-1.354-1.352-2.098-3.152-2.098-5.066c0-3.245,2.168-5.994,5.132-6.869l-2.713-2.715
	c-0.353-0.35-0.548-0.826-0.548-1.321v-23.391c0-1.549-1.26-2.809-2.808-2.809s-2.806,1.26-2.806,2.809v40.521L49.69,344.42
	c0.258,0.33,0.396,0.732,0.396,1.151v13.099h13.099v-27.294l-16.618-16.619C45.92,314.115,45.064,313.763,44.153,313.763z"/>
<path fill="#FFFFFF" d="M85.64,285.693c12.129,0,20.583-4.931,20.583-9.356c0-4.194-7.595-8.832-18.713-9.308v7.437h3.743v3.742
	H80.026v-3.742h3.743v-7.437c-11.118,0.476-18.712,5.114-18.712,9.308C65.058,280.762,73.511,285.693,85.64,285.693z"/>
<path fill="#FFFFFF" d="M85.64,308.148c12.129,0,20.583-4.931,20.583-9.356v-4.175c-4.27,3.656-11.805,6.046-20.583,6.046
	c-8.778,0-16.313-2.39-20.583-6.046v4.175C65.058,303.217,73.511,308.148,85.64,308.148z"/>
<path fill="#FFFFFF" d="M85.64,319.375c12.129,0,20.583-4.928,20.583-9.356v-4.174c-4.27,3.657-11.805,6.045-20.583,6.045
	c-8.778,0-16.313-2.388-20.583-6.045v4.174C65.058,314.447,73.511,319.375,85.64,319.375z"/>
<path fill="#FFFFFF" d="M85.64,296.922c12.129,0,20.583-4.931,20.583-9.357v-4.175c-4.27,3.658-11.805,6.045-20.583,6.045
	c-8.778,0-16.313-2.387-20.583-6.045v4.175C65.058,291.991,73.511,296.922,85.64,296.922z"/>
<path fill="#FFFFFF" d="M117.451,250.141h3.743v3.742h-3.743V250.141z M109.965,250.141h3.743v3.742h-3.743V250.141z
	 M102.481,250.141h3.742v3.742h-3.742V250.141z M65.058,250.141h3.741v3.742h-3.741V250.141z M83.77,263.286v-9.403H72.541v-3.742
	h26.197v3.742H87.51v9.403c12.73,0.503,22.455,6.046,22.455,13.051v33.682c0,7.345-10.685,13.1-24.325,13.1
	c-13.641,0-24.326-5.754-24.326-13.1v-33.682C61.314,269.333,71.04,263.789,83.77,263.286z M57.572,250.141h3.743v3.742h-3.743
	V250.141z M50.086,250.141h3.743v3.742h-3.743V250.141z M66.928,360.543c0,1.031-0.839,1.87-1.871,1.87H48.215
	c-1.032,0-1.87-0.839-1.87-1.87v-14.326L29.9,325.206c-0.256-0.329-0.396-0.734-0.396-1.152v-41.167c0-3.612,2.938-6.55,6.549-6.55
	c3.612,0,6.55,2.938,6.55,6.55v22.615l23.777,23.777c0.351,0.35,0.548,0.828,0.548,1.324V360.543z M80.026,338.088h-3.743v-3.744
	h3.743V338.088z M87.511,360.543H83.77v-3.745h3.742V360.543z M87.511,353.059H83.77v-3.744h3.742V353.059z M87.511,345.573H83.77
	v-3.744h3.742V345.573z M87.511,338.088H83.77v-3.744h3.742V338.088z M87.511,330.603H83.77v-3.744h3.742V330.603z M94.996,338.088
	h-3.743v-3.744h3.743V338.088z M141.776,324.054c0,0.418-0.141,0.823-0.396,1.152l-16.444,21.012v14.326
	c0,1.031-0.839,1.87-1.871,1.87h-16.841c-1.033,0-1.871-0.839-1.871-1.87v-29.94c0-0.496,0.197-0.974,0.548-1.324l23.777-23.777
	v-22.615c0-3.612,2.938-6.55,6.551-6.55c3.611,0,6.548,2.938,6.548,6.55V324.054z"/>
<path fill="#FFFFFF" d="M135.228,280.079c-1.548,0-2.808,1.26-2.808,2.809v23.391c0,0.496-0.196,0.972-0.548,1.321l-2.713,2.715
	c2.964,0.875,5.133,3.624,5.133,6.869c0,1.915-0.745,3.712-2.099,5.066l-11.547,11.549l-2.646-2.649l11.547-11.546
	c0.647-0.647,1.003-1.505,1.003-2.42c0-1.886-1.535-3.42-3.423-3.42c-0.909,0-1.767,0.352-2.412,0.995l-16.62,16.619v27.294h13.099
	v-13.099c0-0.418,0.139-0.821,0.396-1.151l16.444-21.012v-40.521C138.034,281.338,136.775,280.079,135.228,280.079z"/>
<path d="M66.38,329.279l-23.777-23.777v-22.615c0-3.612-2.938-6.55-6.55-6.55c-3.611,0-6.549,2.938-6.549,6.55v41.167
	c0,0.418,0.141,0.823,0.396,1.152l16.445,21.012v14.326c0,1.031,0.838,1.87,1.87,1.87h16.842c1.032,0,1.871-0.839,1.871-1.87v-29.94
	C66.928,330.107,66.731,329.629,66.38,329.279L66.38,329.279z M63.185,358.67H50.086v-13.099c0-0.418-0.138-0.821-0.396-1.151
	l-16.444-21.012v-40.521c0-1.549,1.259-2.809,2.806-2.809s2.808,1.26,2.808,2.809v23.391c0,0.496,0.196,0.972,0.548,1.321
	l2.713,2.715c-2.964,0.875-5.132,3.624-5.132,6.869c0,1.915,0.744,3.714,2.098,5.066l11.547,11.549l2.646-2.649l-11.546-11.546
	c-0.647-0.647-1.004-1.505-1.004-2.42c0-1.886,1.536-3.42,3.423-3.42c0.911,0,1.767,0.352,2.414,0.995l16.618,16.619V358.67z
	 M63.185,358.67"/>
<path d="M135.228,276.337c-3.613,0-6.551,2.938-6.551,6.55v22.615L104.9,329.279c-0.351,0.35-0.548,0.828-0.548,1.324v29.94
	c0,1.031,0.838,1.87,1.871,1.87h16.841c1.032,0,1.871-0.839,1.871-1.87v-14.326l16.444-21.012c0.256-0.329,0.396-0.734,0.396-1.152
	v-41.167C141.776,279.275,138.839,276.337,135.228,276.337L135.228,276.337z M138.034,323.409L121.59,344.42
	c-0.257,0.33-0.396,0.732-0.396,1.151v13.099h-13.099v-27.294l16.62-16.619c0.645-0.643,1.502-0.995,2.412-0.995
	c1.888,0,3.423,1.534,3.423,3.42c0,0.915-0.356,1.773-1.003,2.42l-11.547,11.546l2.646,2.649l11.547-11.549
	c1.354-1.354,2.099-3.152,2.099-5.066c0-3.245-2.169-5.994-5.133-6.869l2.713-2.715c0.353-0.35,0.548-0.826,0.548-1.321v-23.391
	c0-1.549,1.26-2.809,2.808-2.809c1.547,0,2.806,1.26,2.806,2.809V323.409z M138.034,323.409"/>
<rect x="102.481" y="250.141" width="3.742" height="3.742"/>
<rect x="109.965" y="250.141" width="3.743" height="3.742"/>
<rect x="117.451" y="250.141" width="3.743" height="3.742"/>
<rect x="50.086" y="250.141" width="3.743" height="3.742"/>
<rect x="57.572" y="250.141" width="3.743" height="3.742"/>
<rect x="65.058" y="250.141" width="3.741" height="3.742"/>
<path d="M87.51,263.286v-9.403h11.228v-3.742H72.541v3.742H83.77v9.403c-12.73,0.503-22.455,6.046-22.455,13.051v33.682
	c0,7.345,10.685,13.1,24.326,13.1c13.641,0,24.325-5.754,24.325-13.1v-33.682C109.965,269.333,100.24,263.789,87.51,263.286
	L87.51,263.286z M106.223,310.019c0,4.428-8.454,9.356-20.583,9.356c-12.129,0-20.583-4.928-20.583-9.356v-4.174
	c4.269,3.657,11.804,6.045,20.583,6.045c8.778,0,16.313-2.388,20.583-6.045V310.019z M106.223,298.792
	c0,4.425-8.454,9.356-20.583,9.356c-12.129,0-20.583-4.931-20.583-9.356v-4.175c4.269,3.656,11.804,6.046,20.583,6.046
	c8.778,0,16.313-2.39,20.583-6.046V298.792z M106.223,287.564c0,4.427-8.454,9.357-20.583,9.357
	c-12.129,0-20.583-4.931-20.583-9.357v-4.175c4.269,3.658,11.804,6.045,20.583,6.045c8.778,0,16.313-2.387,20.583-6.045V287.564z
	 M85.64,285.693c-12.129,0-20.583-4.931-20.583-9.356c0-4.194,7.594-8.832,18.712-9.308v7.437h-3.743v3.742h11.227v-3.742H87.51
	v-7.437c11.118,0.476,18.713,5.114,18.713,9.308C106.223,280.762,97.769,285.693,85.64,285.693L85.64,285.693z M85.64,285.693"/>
<rect x="83.77" y="326.859" width="3.742" height="3.744"/>
<rect x="83.77" y="334.345" width="3.742" height="3.744"/>
<rect x="91.253" y="334.345" width="3.743" height="3.744"/>
<rect x="76.284" y="334.345" width="3.743" height="3.744"/>
<rect x="83.77" y="341.83" width="3.742" height="3.744"/>
<rect x="83.77" y="349.314" width="3.742" height="3.744"/>
<rect x="83.77" y="356.799" width="3.742" height="3.745"/>
</svg>
