<?xml version="1.0" encoding="utf-8"?>
<!-- Generator: Adobe Illustrator 15.1.0, SVG Export Plug-In  -->
<!DOCTYPE svg PUBLIC "-//W3C//DTD SVG 1.1//EN" "http://www.w3.org/Graphics/SVG/1.1/DTD/svg11.dtd" [
	<!ENTITY ns_flows "http://ns.adobe.com/Flows/1.0/">
]>
<svg version="1.1"
	 xmlns="http://www.w3.org/2000/svg" xmlns:xlink="http://www.w3.org/1999/xlink" xmlns:a="http://ns.adobe.com/AdobeSVGViewerExtensions/3.0/"
	 x="0px" y="0px" width="500px" height="500px" viewBox="-72.424 -72.49 500 500" enable-background="new -72.424 -72.49 500 500"
	 xml:space="preserve">
<defs>
</defs>
<path fill="none" stroke="#010101" stroke-width="5" stroke-linecap="square" stroke-linejoin="round" stroke-dasharray="0,12" d="
	M4.744,205.264C-10.594,109.852,54.327,20.083,149.746,4.739c95.413-15.322,185.187,49.599,200.51,145.018
	c15.34,95.399-49.577,185.185-144.998,200.521C109.847,365.609,20.073,300.681,4.744,205.264z"/>
<path stroke="#FFFFFF" stroke-width="2" d="M18.156,82.254c0,5.293-4.311,9.6-9.6,9.6v6.403c5.289,0,9.6,4.308,9.6,9.601h6.4
	c0-5.293,4.307-9.601,9.602-9.601v-6.403c-5.295,0-9.602-4.307-9.602-9.6H18.156L18.156,82.254z M21.356,98.355
	c-0.935-1.258-2.04-2.367-3.296-3.3c1.256-0.935,2.361-2.042,3.296-3.3c0.937,1.258,2.042,2.365,3.3,3.3
	C23.398,95.988,22.293,97.098,21.356,98.355L21.356,98.355z M21.356,98.355"/>
<path stroke="#FFFFFF" d="M325.478,81.132c0,3.58-2.912,6.492-6.49,6.492v4.328c3.578,0,6.49,2.91,6.49,6.49h4.328
	c0-3.58,2.911-6.49,6.492-6.49v-4.328c-3.581,0-6.492-2.912-6.492-6.492H325.478L325.478,81.132z M327.642,92.017
	c-0.632-0.85-1.381-1.596-2.23-2.23c0.85-0.631,1.599-1.379,2.23-2.23c0.633,0.852,1.381,1.6,2.231,2.23
	C329.022,90.421,328.274,91.167,327.642,92.017L327.642,92.017z M327.642,92.017"/>
<path stroke="#FFFFFF" d="M143.025,341.771c0,3.362-2.739,6.104-6.103,6.104v4.066c3.363,0,6.103,2.737,6.103,6.104h4.067
	c0-3.366,2.739-6.104,6.104-6.104v-4.066c-3.364,0-6.104-2.741-6.104-6.104H143.025L143.025,341.771z M145.06,352.004
	c-0.594-0.798-1.299-1.502-2.098-2.097c0.799-0.593,1.504-1.297,2.098-2.097c0.594,0.8,1.297,1.504,2.098,2.097
	C146.356,350.502,145.653,351.206,145.06,352.004L145.06,352.004z M145.06,352.004"/>
<path d="M90.37,210.071c0-4.354-3.541-7.894-7.894-7.894c-4.352,0-7.893,3.54-7.893,7.894c0,4.352,3.54,7.892,7.893,7.892
	S90.37,214.423,90.37,210.071L90.37,210.071z M82.477,215.185c-2.82,0-5.114-2.294-5.114-5.113c0-2.82,2.294-5.115,5.114-5.115
	c2.819,0,5.113,2.295,5.113,5.115C87.59,212.891,85.296,215.185,82.477,215.185L82.477,215.185z M82.477,215.185"/>
<path d="M150.05,202.178c-4.353,0-7.893,3.54-7.893,7.894c0,4.352,3.54,7.892,7.893,7.892c4.352,0,7.893-3.54,7.893-7.892
	C157.942,205.718,154.401,202.178,150.05,202.178L150.05,202.178z M150.05,215.185c-2.82,0-5.114-2.294-5.114-5.113
	c0-2.82,2.294-5.115,5.114-5.115c2.818,0,5.113,2.295,5.113,5.115C155.163,212.891,152.868,215.185,150.05,215.185L150.05,215.185z
	 M150.05,215.185"/>
<path d="M86.792,228.381c-3.077,3.077-3.077,8.085,0,11.162c1.538,1.538,3.559,2.308,5.58,2.308s4.043-0.77,5.581-2.308
	c3.077-3.077,3.077-8.085,0-11.162C94.876,225.302,89.868,225.303,86.792,228.381L86.792,228.381z M95.989,237.577
	c-1.995,1.994-5.239,1.994-7.232,0c-1.994-1.994-1.994-5.238,0-7.231c0.996-0.997,2.307-1.497,3.615-1.497
	c1.31,0,2.62,0.5,3.617,1.497C97.982,232.339,97.982,235.583,95.989,237.577L95.989,237.577z M95.989,237.577"/>
<path d="M116.263,235.964c-4.353,0-7.893,3.541-7.893,7.894c0,4.351,3.54,7.892,7.893,7.892s7.893-3.541,7.893-7.892
	C124.155,239.505,120.615,235.964,116.263,235.964L116.263,235.964z M116.263,248.972c-2.82,0-5.113-2.295-5.113-5.114
	s2.293-5.114,5.113-5.114c2.819,0,5.114,2.295,5.114,5.114S119.082,248.972,116.263,248.972L116.263,248.972z M116.263,248.972"/>
<path d="M134.572,228.381c-3.078,3.077-3.078,8.085,0,11.162c1.54,1.538,3.561,2.308,5.581,2.308c2.021,0,4.043-0.77,5.581-2.308
	c3.077-3.077,3.077-8.085,0-11.162C142.657,225.302,137.649,225.302,134.572,228.381L134.572,228.381z M143.77,237.577
	c-1.994,1.994-5.238,1.994-7.232,0s-1.994-5.238,0-7.231c0.997-0.997,2.308-1.497,3.616-1.497c1.31,0,2.62,0.5,3.617,1.497
	C145.764,232.339,145.764,235.583,143.77,237.577L143.77,237.577z M143.77,237.577"/>
<path d="M140.153,194.069c2.021,0,4.043-0.77,5.581-2.309c3.077-3.076,3.077-8.084,0-11.162s-8.085-3.078-11.162,0
	c-3.078,3.078-3.078,8.086,0,11.162C136.112,193.3,138.133,194.069,140.153,194.069L140.153,194.069z M136.537,182.563
	c0.997-0.996,2.308-1.495,3.616-1.495c1.31,0,2.62,0.499,3.617,1.495c1.993,1.994,1.993,5.238,0,7.233
	c-1.995,1.993-5.237,1.993-7.233,0C134.543,187.802,134.543,184.559,136.537,182.563L136.537,182.563z M136.537,182.563"/>
<path d="M116.263,184.177c4.353,0,7.893-3.541,7.893-7.893c0.001-4.353-3.54-7.893-7.893-7.893s-7.893,3.54-7.893,7.893
	C108.37,180.636,111.91,184.177,116.263,184.177L116.263,184.177z M116.263,171.17c2.819,0,5.114,2.295,5.114,5.114
	s-2.295,5.114-5.114,5.114c-2.82,0-5.113-2.295-5.113-5.114S113.442,171.17,116.263,171.17L116.263,171.17z M116.263,171.17"/>
<path d="M92.372,194.069c2.021,0,4.043-0.77,5.581-2.309c3.077-3.076,3.077-8.084,0-11.162s-8.085-3.078-11.161,0
	c-3.077,3.078-3.077,8.086,0,11.162C88.33,193.3,90.351,194.069,92.372,194.069L92.372,194.069z M88.757,182.563
	c0.996-0.996,2.307-1.495,3.615-1.495c1.31,0,2.62,0.499,3.617,1.495c1.993,1.994,1.993,5.238,0,7.233
	c-1.995,1.993-5.238,1.993-7.232,0C86.763,187.802,86.763,184.559,88.757,182.563L88.757,182.563z M88.757,182.563"/>
<path d="M123.108,198.53h-13.689c-0.769,0-1.39,0.62-1.39,1.389v20.303c0,0.768,0.621,1.391,1.39,1.391h13.689
	c0.767,0,1.389-0.623,1.389-1.391v-20.303C124.497,199.15,123.875,198.53,123.108,198.53L123.108,198.53z M121.719,218.833h-10.911
	v-4.2h10.911V218.833z M121.719,211.854h-10.911v-3.565h10.911V211.854z M121.719,205.51h-10.911v-4.201h10.911V205.51z
	 M121.719,205.51"/>
<path d="M114.874,187.388v6.661c0,0.769,0.621,1.391,1.389,1.391s1.39-0.622,1.39-1.391v-6.661c0-0.767-0.622-1.39-1.39-1.39
	S114.874,186.621,114.874,187.388L114.874,187.388z M114.874,187.388"/>
<path d="M117.652,232.753v-6.662c0-0.768-0.622-1.389-1.39-1.389s-1.389,0.621-1.389,1.389v6.662c0,0.768,0.621,1.39,1.389,1.39
	S117.652,233.521,117.652,232.753L117.652,232.753z M117.652,232.753"/>
<path d="M101.206,193.05c-0.543-0.543-1.422-0.543-1.964,0c-0.543,0.543-0.543,1.421,0,1.964l4.71,4.712
	c0.271,0.27,0.628,0.406,0.982,0.406c0.355,0,0.711-0.137,0.982-0.406c0.543-0.543,0.543-1.424,0-1.965L101.206,193.05z
	 M101.206,193.05"/>
<path d="M133.285,227.093c0.542-0.543,0.542-1.423,0-1.965l-4.711-4.711c-0.543-0.543-1.423-0.543-1.966,0
	c-0.541,0.541-0.541,1.422,0,1.965l4.711,4.711c0.272,0.271,0.627,0.406,0.982,0.406
	C132.658,227.499,133.013,227.363,133.285,227.093L133.285,227.093z M133.285,227.093"/>
<path d="M92.19,210.071c0,0.767,0.623,1.389,1.391,1.389h6.661c0.769,0,1.39-0.622,1.39-1.389c0-0.769-0.621-1.391-1.39-1.391
	h-6.661C92.813,208.681,92.19,209.303,92.19,210.071L92.19,210.071z M92.19,210.071"/>
<path d="M138.945,208.681h-6.661c-0.768,0-1.39,0.622-1.39,1.391c0,0.767,0.622,1.389,1.39,1.389h6.661
	c0.768,0,1.39-0.622,1.39-1.389C140.335,209.303,139.713,208.681,138.945,208.681L138.945,208.681z M138.945,208.681"/>
<path d="M103.952,220.417l-4.712,4.711c-0.541,0.543-0.541,1.422,0,1.965c0.272,0.271,0.628,0.406,0.984,0.406
	c0.354,0,0.71-0.136,0.981-0.406l4.711-4.711c0.543-0.543,0.543-1.424,0-1.965C105.375,219.874,104.495,219.874,103.952,220.417
	L103.952,220.417z M103.952,220.417"/>
<path d="M127.592,200.132c0.354,0,0.711-0.137,0.982-0.406l4.711-4.712c0.542-0.543,0.542-1.423,0-1.964
	c-0.542-0.543-1.422-0.543-1.965,0l-4.71,4.711c-0.543,0.542-0.543,1.422,0,1.965C126.88,199.995,127.236,200.132,127.592,200.132
	L127.592,200.132z M127.592,200.132"/>
<path fill="#FFFFFF" d="M258.791,135.065h-0.129c-1.171-10.548-10.137-18.772-20.99-18.772c-7.345,0-14.006,3.729-17.858,9.871
	c-1.066-0.324-2.158-0.485-3.26-0.485c-5.739,0-10.528,4.139-11.539,9.588c-0.841-0.134-1.69-0.201-2.542-0.201
	c-9.059,0-16.428,7.366-16.428,16.427c0,9.057,7.369,16.426,16.428,16.426h25.814h4.691h25.813c9.058,0,16.427-7.369,16.427-16.426
	C275.218,142.432,267.849,135.065,258.791,135.065z"/>
<path d="M232.132,167.817h25.813c9.059,0,16.427-7.368,16.427-16.426s-7.368-16.427-16.427-16.427h-0.128
	c-1.172-10.547-10.139-18.772-20.99-18.772c-7.346,0-14.007,3.731-17.857,9.872c-1.068-0.324-2.159-0.486-3.262-0.486
	c-5.738,0-10.527,4.14-11.538,9.588c-0.842-0.133-1.691-0.201-2.543-0.201c-9.058,0-16.427,7.369-16.427,16.427
	s7.369,16.426,16.427,16.426h25.813 M201.626,163.124c-6.47,0-11.733-5.262-11.733-11.732c0-6.468,5.264-11.734,11.733-11.734
	c1.341,0,2.68,0.24,3.98,0.712c0.755,0.275,1.599,0.142,2.233-0.351c0.637-0.488,0.976-1.271,0.901-2.07l-0.077-0.635
	c0-3.882,3.161-7.042,7.043-7.042c1.081,0,2.164,0.278,3.216,0.823c0.56,0.29,1.216,0.345,1.813,0.149
	c0.597-0.199,1.092-0.627,1.371-1.189c2.798-5.656,8.437-9.168,14.72-9.168c9.055,0,16.426,7.365,16.426,16.361
	c-0.005,0.057-0.012,0.22-0.012,0.278c0,0.688,0.305,1.346,0.832,1.792c0.528,0.443,1.22,0.635,1.908,0.521
	c0.711-0.121,1.354-0.183,1.964-0.183c6.47,0,11.733,5.267,11.733,11.734c0,6.471-5.264,11.732-11.733,11.732H201.626z
	 M267.33,203.016"/>
<rect x="255.598" y="144.352" width="4.692" height="4.693"/>
<rect x="255.598" y="153.737" width="4.692" height="4.694"/>
<rect x="246.211" y="153.737" width="4.695" height="4.694"/>
<path stroke="#FFFFFF" stroke-width="2" d="M330.685,241.322h-54.503h-7.268h-25.438c-2.004,0-3.632,1.623-3.632,3.632v25.825
	c0,2.028,0.068,4.056,0.202,6.064c0.771,11.69,3.807,23.015,8.877,33.523c0.154,0.313,0.291,0.631,0.444,0.945
	c0.607,1.228,1.27,2.431,1.936,3.633c0.339,0.619,0.669,1.24,1.023,1.852c0.161,0.273,0.296,0.558,0.462,0.829l4.868,7.267
	c7.308,9.976,16.619,18.539,27.593,24.938c0.566,0.332,1.199,0.497,1.829,0.497c0.632,0,1.265-0.165,1.833-0.497
	c28.005-16.337,45.403-46.63,45.403-79.052v-25.825C334.315,242.945,332.689,241.322,330.685,241.322z M327.049,270.779
	c0,29.137-15.261,56.399-39.97,71.679c-10.196-6.305-18.749-14.671-25.321-24.343c-0.73-1.082-1.437-2.171-2.115-3.276
	c-0.422-0.694-0.848-1.388-1.258-2.096c-0.553-0.956-1.065-1.928-1.577-2.898c-0.439-0.839-0.892-1.663-1.3-2.516
	c-0.356-0.735-0.665-1.483-0.998-2.23c-0.957-2.136-1.833-4.312-2.615-6.527c-0.176-0.505-0.378-1.005-0.543-1.514
	c-0.379-1.151-0.711-2.319-1.037-3.489c-0.207-0.729-0.415-1.447-0.604-2.181c-0.274-1.077-0.518-2.17-0.746-3.265
	c-0.188-0.885-0.359-1.773-0.521-2.666c-0.175-0.982-0.341-1.967-0.48-2.955c-0.162-1.136-0.285-2.278-0.399-3.426
	c-0.077-0.786-0.171-1.572-0.229-2.359c-0.136-1.965-0.225-3.941-0.225-5.938v-22.191h79.939V270.779z"/>
<path stroke="#FFFFFF" stroke-width="2" d="M309.944,275.09l-26.499,26.5l-11.966-11.97l-5.136,5.141l14.533,14.532
	c0.709,0.709,1.641,1.066,2.568,1.066c0.934,0,1.86-0.357,2.572-1.066l29.063-29.068L309.944,275.09z M309.944,275.09"/>
<rect x="254.375" y="255.857" stroke="#FFFFFF" stroke-width="2" width="7.27" height="7.266"/>
<rect x="268.914" y="255.857" stroke="#FFFFFF" stroke-width="2" width="7.268" height="7.266"/>
<rect x="283.445" y="255.857" stroke="#FFFFFF" stroke-width="2" width="7.271" height="7.266"/>
<rect x="297.981" y="255.857" stroke="#FFFFFF" stroke-width="2" width="7.268" height="7.266"/>
<rect x="312.516" y="255.857" stroke="#FFFFFF" stroke-width="2" width="7.266" height="7.266"/>
<path fill="#FFFFFF" stroke="#FFFFFF" stroke-width="2" d="M247.109,270.779c0,1.996,0.089,3.973,0.225,5.938
	c0.059,0.787,0.152,1.573,0.229,2.359c0.114,1.147,0.237,2.29,0.399,3.426c0.14,0.988,0.306,1.973,0.48,2.955
	c0.162,0.893,0.333,1.781,0.521,2.666c0.229,1.095,0.472,2.188,0.746,3.265c0.188,0.733,0.396,1.452,0.604,2.181
	c0.326,1.17,0.658,2.338,1.037,3.489c0.165,0.509,0.367,1.009,0.543,1.514c0.782,2.216,1.658,4.392,2.615,6.527
	c0.333,0.747,0.642,1.495,0.998,2.23c0.408,0.853,0.86,1.677,1.3,2.516c0.512,0.971,1.024,1.942,1.577,2.898
	c0.41,0.708,0.836,1.401,1.258,2.096c0.679,1.105,1.385,2.194,2.115,3.276c6.572,9.672,15.125,18.038,25.321,24.343
	c24.709-15.279,39.97-42.542,39.97-71.679v-22.191h-79.939V270.779z M312.516,255.857h7.266v7.266h-7.266V255.857z M297.981,255.857
	h7.268v7.266h-7.268V255.857z M283.445,255.857h7.271v7.266h-7.271V255.857z M268.914,255.857h7.268v7.266h-7.268V255.857z
	 M271.479,289.62l11.966,11.97l26.499-26.5l5.136,5.135l-29.063,29.068c-0.712,0.709-1.639,1.066-2.572,1.066
	c-0.928,0-1.859-0.357-2.568-1.066l-14.533-14.532L271.479,289.62z M254.375,255.857h7.27v7.266h-7.27V255.857z"/>
<path d="M207.065,144.782c-1.805-13.347-15.602-23.572-32.248-23.572c-13.088,0-24.881,6.456-29.917,16.217
	c-0.118-0.005-0.238-0.006-0.36-0.006c-12.348,0-22.395,8.263-22.395,18.425v44.212c0,10.158,10.047,18.421,22.395,18.421h56.516
	c10.122,0,18.358-6.81,18.358-15.179v-44.213C219.414,152.572,214.413,146.871,207.065,144.782L207.065,144.782z M214.991,203.301
	c0,5.932-6.25,10.757-13.936,10.757H144.54c-9.911,0-17.975-6.28-17.975-14v-11.226c4.082,4.549,10.59,7.54,17.975,7.54h56.516
	c5.604,0,10.566-2.131,13.936-5.413V203.301z M214.991,181.192c0,5.934-6.25,10.758-13.936,10.758H144.54
	c-9.911,0-17.975-6.279-17.975-13.999v-11.227c4.082,4.549,10.59,7.541,17.975,7.541h56.516c5.604,0,10.566-2.131,13.936-5.415
	V181.192z M201.056,169.845H144.54c-9.911,0-17.975-6.28-17.975-13.999c0-7.723,8.063-14.003,17.975-14.003
	c0.328,0,0.649,0.032,0.973,0.062l0.574,0.047c0.981,0.073,1.815-0.464,2.187-1.326c3.89-8.967,14.557-14.994,26.544-14.994
	c14.988,0,27.287,9.25,27.995,21.057c0.06,1,0.784,1.836,1.763,2.035c6.134,1.249,10.416,5.511,10.416,10.364
	C214.991,165.02,208.741,169.845,201.056,169.845L201.056,169.845z M201.056,169.845"/>
<path d="M137.619,176.477c-1.222,0-2.211,0.988-2.211,2.211v4.421c0,1.222,0.989,2.211,2.211,2.211s2.211-0.989,2.211-2.211v-4.421
	C139.83,177.465,138.841,176.477,137.619,176.477L137.619,176.477z M137.619,176.477"/>
<path d="M146.462,178.688c-1.223,0-2.211,0.988-2.211,2.209v4.423c0,1.222,0.988,2.21,2.211,2.21s2.211-0.988,2.211-2.21v-4.423
	C148.673,179.676,147.685,178.688,146.462,178.688L146.462,178.688z M146.462,178.688"/>
<path d="M155.305,178.688c-1.222,0-2.212,0.988-2.212,2.209v4.423c0,1.222,0.99,2.21,2.212,2.21s2.21-0.988,2.21-2.21v-4.423
	C157.515,179.676,156.526,178.688,155.305,178.688L155.305,178.688z M155.305,178.688"/>
<path d="M206.149,183.108c0,2.44-1.979,4.421-4.42,4.421c-2.443,0-4.423-1.98-4.423-4.421c0-2.442,1.979-4.421,4.423-4.421
	C204.17,178.688,206.149,180.666,206.149,183.108L206.149,183.108z M206.149,183.108"/>
<path d="M192.886,183.108c0,2.44-1.98,4.421-4.421,4.421c-2.441,0-4.421-1.98-4.421-4.421c0-2.442,1.979-4.421,4.421-4.421
	C190.905,178.688,192.886,180.666,192.886,183.108L192.886,183.108z M192.886,183.108"/>
<path d="M137.619,198.582c-1.222,0-2.211,0.99-2.211,2.211v4.422c0,1.221,0.989,2.21,2.211,2.21s2.211-0.989,2.211-2.21v-4.422
	C139.83,199.572,138.841,198.582,137.619,198.582L137.619,198.582z M137.619,198.582"/>
<path d="M146.462,200.793c-1.223,0-2.211,0.99-2.211,2.212v4.42c0,1.223,0.988,2.211,2.211,2.211s2.211-0.988,2.211-2.211v-4.42
	C148.673,201.783,147.685,200.793,146.462,200.793L146.462,200.793z M146.462,200.793"/>
<path d="M155.305,200.793c-1.222,0-2.212,0.99-2.212,2.212v4.42c0,1.223,0.99,2.211,2.212,2.211s2.21-0.988,2.21-2.211v-4.42
	C157.515,201.783,156.526,200.793,155.305,200.793L155.305,200.793z M155.305,200.793"/>
<path d="M206.149,205.215c0,2.442-1.979,4.421-4.42,4.421c-2.443,0-4.423-1.979-4.423-4.421c0-2.441,1.979-4.422,4.423-4.422
	C204.17,200.793,206.149,202.773,206.149,205.215L206.149,205.215z M206.149,205.215"/>
<path d="M192.886,205.215c0,2.442-1.98,4.421-4.421,4.421c-2.441,0-4.421-1.979-4.421-4.421c0-2.441,1.979-4.422,4.421-4.422
	C190.905,200.793,192.886,202.773,192.886,205.215L192.886,205.215z M192.886,205.215"/>
<path fill="#FFFFFF" d="M144.629,174.266c-7.385,0-13.893-2.99-17.974-7.54v11.227c0,7.721,8.063,13.999,17.974,13.999h56.516
	c7.685,0,13.937-4.824,13.937-10.759v-12.341c-3.371,3.283-8.332,5.414-13.937,5.414H144.629z M139.919,183.11
	c0,1.22-0.989,2.209-2.211,2.209s-2.212-0.989-2.212-2.209v-4.423c0-1.221,0.99-2.211,2.212-2.211s2.211,0.99,2.211,2.211V183.11z
	 M148.761,185.319c0,1.222-0.988,2.21-2.21,2.21c-1.223,0-2.211-0.988-2.211-2.21v-4.422c0-1.222,0.988-2.21,2.211-2.21
	c1.222,0,2.21,0.988,2.21,2.21V185.319z M157.604,185.319c0,1.222-0.988,2.21-2.21,2.21c-1.221,0-2.211-0.988-2.211-2.21v-4.422
	c0-1.222,0.99-2.21,2.211-2.21c1.222,0,2.21,0.988,2.21,2.21V185.319z M188.554,187.529c-2.441,0-4.422-1.979-4.422-4.419
	c0-2.443,1.98-4.423,4.422-4.423s4.422,1.979,4.422,4.423C192.976,185.551,190.995,187.529,188.554,187.529z M206.238,183.11
	c0,2.44-1.979,4.419-4.421,4.419c-2.442,0-4.422-1.979-4.422-4.419c0-2.443,1.979-4.423,4.422-4.423
	C204.259,178.688,206.238,180.667,206.238,183.11z"/>
<path fill="#FFFFFF" d="M204.664,148.724c-0.979-0.198-1.702-1.034-1.763-2.036c-0.708-11.807-13.008-21.057-27.996-21.057
	c-11.985,0-22.653,6.027-26.543,14.996c-0.371,0.861-1.205,1.397-2.188,1.326l-0.574-0.049c-0.322-0.029-0.643-0.062-0.972-0.062
	c-9.911,0-17.974,6.282-17.974,14.003c0,7.72,8.063,14,17.974,14h56.516c7.685,0,13.937-4.826,13.937-10.758
	C215.081,154.233,210.798,149.973,204.664,148.724z"/>
<path fill="#FFFFFF" d="M144.629,196.373c-7.385,0-13.893-2.992-17.974-7.541v11.227c0,7.719,8.063,14,17.974,14h56.516
	c7.685,0,13.937-4.825,13.937-10.758v-12.342c-3.371,3.282-8.332,5.414-13.937,5.414H144.629z M139.919,205.216
	c0,1.221-0.989,2.21-2.211,2.21s-2.212-0.989-2.212-2.21v-4.421c0-1.223,0.99-2.212,2.212-2.212s2.211,0.989,2.211,2.212V205.216z
	 M148.761,207.426c0,1.222-0.988,2.211-2.21,2.211c-1.223,0-2.211-0.989-2.211-2.211v-4.421c0-1.221,0.988-2.21,2.211-2.21
	c1.222,0,2.21,0.989,2.21,2.21V207.426z M157.604,207.426c0,1.222-0.988,2.211-2.21,2.211c-1.221,0-2.211-0.989-2.211-2.211v-4.421
	c0-1.221,0.99-2.21,2.211-2.21c1.222,0,2.21,0.989,2.21,2.21V207.426z M188.554,209.637c-2.441,0-4.422-1.979-4.422-4.421
	s1.98-4.421,4.422-4.421s4.422,1.979,4.422,4.421S190.995,209.637,188.554,209.637z M206.238,205.216
	c0,2.441-1.979,4.421-4.421,4.421c-2.442,0-4.422-1.979-4.422-4.421s1.979-4.421,4.422-4.421
	C204.259,200.795,206.238,202.774,206.238,205.216z"/>
<circle fill="#FFFFFF" cx="216.701" cy="182.885" r="4.125"/>
<circle fill="#FFFFFF" cx="217.195" cy="212.541" r="21.801"/>
<path stroke="#000000" d="M218.26,208.866v-11.209h-1.847v11.209c-1.589,0.412-2.77,1.845-2.77,3.563
	c0,0.283,0.038,0.558,0.101,0.824l-8.851,4.826l0.884,1.621l8.825-4.813c0.675,0.752,1.646,1.233,2.734,1.233
	c2.035,0,3.692-1.657,3.692-3.692C221.029,210.711,219.848,209.278,218.26,208.866L218.26,208.866z M217.337,214.273
	c-1.019,0-1.847-0.827-1.847-1.845c0-1.019,0.828-1.847,1.847-1.847s1.846,0.828,1.846,1.847
	C219.183,213.446,218.355,214.273,217.337,214.273L217.337,214.273z M217.337,214.273"/>
<path stroke="#000000" d="M244.492,219.814l6.462-6.464h-15.179c0.016-0.311,0.025-0.62,0.025-0.922
	c0-10.182-8.283-18.465-18.464-18.465c-10.182,0-18.464,8.283-18.464,18.465c0,10.181,8.282,18.463,18.464,18.463
	c5.368,0,10.366-2.311,13.847-6.281v8.51l6.463-6.462l7.386,7.386l6.845-6.846L244.492,219.814z M231.184,221.579
	c-3.096,4.678-8.249,7.467-13.847,7.467c-9.163,0-16.618-7.456-16.618-16.617c0-9.164,7.455-16.619,16.618-16.619
	c9.162,0,16.617,7.455,16.617,16.619c0,0.298-0.032,0.612-0.05,0.922h-2.721V221.579z M237.646,224.047l-4.615,4.616v-13.467h13.465
	l-4.615,4.618l7.385,7.384l-4.233,4.234L237.646,224.047z M237.646,224.047"/>
<rect x="236.724" y="205.966" stroke="#000000" width="1.847" height="3.693"/>
<path stroke="#000000" d="M229.813,213.286l-2.61-2.611l1.305-1.305l2.611,2.611L229.813,213.286z M229.813,213.286"/>
<rect x="223.799" y="218.89" stroke="#000000" width="3.693" height="1.847"/>
<path stroke="#000000" d="M228.506,230.255l-1.305-1.306l2.609-2.611l1.307,1.306L228.506,230.255z M228.506,230.255"/>
<rect x="236.724" y="229.968" stroke="#000000" width="1.847" height="3.693"/>
<rect x="247.803" y="218.89" stroke="#000000" width="3.691" height="1.847"/>
<path stroke="#000000" d="M246.784,209.37l1.305,1.307l-2.61,2.61l-1.307-1.305L246.784,209.37z M246.784,209.37"/>
<path stroke="#000000" d="M217.337,232.737c-11.199,0-20.311-9.111-20.311-20.309c0-11.2,9.111-20.312,20.311-20.312
	c8.16,0,15.498,4.854,18.695,12.364l1.698-0.724c-2.997-7.04-9.332-11.929-16.701-13.168v-3.587
	c1.131-1.015,1.847-2.482,1.847-4.117c0-3.056-2.484-5.54-5.539-5.54c-3.056,0-5.54,2.484-5.54,5.54
	c0,1.635,0.717,3.102,1.847,4.117v3.582c-10.465,1.764-18.464,10.885-18.464,21.844c0,12.216,9.939,22.156,22.157,22.156
	c3.369,0,6.611-0.744,9.634-2.207l-0.804-1.664C223.396,232.058,220.426,232.737,217.337,232.737L217.337,232.737z M219.183,190.353
	c-0.611-0.049-1.226-0.081-1.846-0.081c-0.623,0-1.237,0.032-1.847,0.083v-2.253c0.578,0.206,1.198,0.323,1.847,0.323
	c0.647,0,1.267-0.118,1.846-0.323V190.353z M217.337,179.193c2.035,0,3.692,1.656,3.692,3.692s-1.657,3.693-3.692,3.693
	c-2.037,0-3.693-1.657-3.693-3.693S215.3,179.193,217.337,179.193L217.337,179.193z M217.337,179.193"/>
</svg>
