<?xml version="1.0" encoding="utf-8"?>
<!-- Generator: Adobe Illustrator 15.1.0, SVG Export Plug-In  -->
<!DOCTYPE svg PUBLIC "-//W3C//DTD SVG 1.1//EN" "http://www.w3.org/Graphics/SVG/1.1/DTD/svg11.dtd" [
	<!ENTITY ns_flows "http://ns.adobe.com/Flows/1.0/">
]>
<svg version="1.1"
	 xmlns="http://www.w3.org/2000/svg" xmlns:xlink="http://www.w3.org/1999/xlink" xmlns:a="http://ns.adobe.com/AdobeSVGViewerExtensions/3.0/"
	 x="0px" y="0px" width="500px" height="500px" viewBox="-61.137 -74.467 500 500" enable-background="new -61.137 -74.467 500 500"
	 xml:space="preserve">
<defs>
</defs>
<path fill="none" stroke="#010101" stroke-width="5" stroke-linecap="square" stroke-linejoin="round" stroke-dasharray="0,12" d="
	M4.732,204.233C-10.527,109.307,54.064,19.995,148.997,4.729c94.927-15.244,184.245,49.346,199.489,144.279
	c15.262,94.915-49.324,184.242-144.258,199.502C109.301,363.763,19.984,299.165,4.732,204.233z"/>
<path stroke="#FFFFFF" d="M340.202,116.115c0,3.58-2.912,6.492-6.49,6.492v4.328c3.578,0,6.49,2.91,6.49,6.49h4.328
	c0-3.58,2.911-6.49,6.492-6.49v-4.328c-3.581,0-6.492-2.912-6.492-6.492H340.202L340.202,116.115z M342.366,127
	c-0.632-0.85-1.381-1.596-2.23-2.23c0.85-0.631,1.599-1.379,2.23-2.23c0.633,0.852,1.381,1.6,2.231,2.23
	C343.747,125.404,342.999,126.15,342.366,127L342.366,127z M342.366,127"/>
<path stroke="#FFFFFF" stroke-width="2" d="M73.542,20.847c0,5.293-4.311,9.6-9.6,9.6v6.403c5.289,0,9.6,4.308,9.6,9.601h6.4
	c0-5.293,4.307-9.601,9.602-9.601v-6.403c-5.295,0-9.602-4.307-9.602-9.6H73.542L73.542,20.847z M76.743,36.948
	c-0.935-1.258-2.04-2.367-3.296-3.3c1.256-0.935,2.361-2.042,3.296-3.3c0.937,1.258,2.042,2.365,3.3,3.3
	C78.785,34.581,77.679,35.69,76.743,36.948L76.743,36.948z M76.743,36.948"/>
<path stroke="#FFFFFF" d="M164.909,342.604c0,3.362-2.739,6.104-6.103,6.104v4.066c3.363,0,6.103,2.737,6.103,6.104h4.067
	c0-3.366,2.739-6.104,6.104-6.104v-4.066c-3.364,0-6.104-2.741-6.104-6.104H164.909L164.909,342.604z M166.943,352.836
	c-0.594-0.798-1.299-1.502-2.098-2.097c0.799-0.593,1.504-1.297,2.098-2.097c0.594,0.8,1.297,1.504,2.098,2.097
	C168.24,351.334,167.537,352.038,166.943,352.836L166.943,352.836z M166.943,352.836"/>
<path fill="#FFFFFF" d="M221.958,157.544h-0.122c-1.11-9.993-9.606-17.789-19.891-17.789c-6.959,0-13.272,3.534-16.921,9.354
	c-1.012-0.306-2.045-0.46-3.09-0.46c-5.437,0-9.976,3.923-10.934,9.086c-0.796-0.127-1.601-0.19-2.408-0.19
	c-8.584,0-15.567,6.981-15.567,15.565c0,8.583,6.983,15.564,15.567,15.564h24.46h4.446h24.46c8.583,0,15.566-6.981,15.566-15.564
	C237.523,164.525,230.541,157.544,221.958,157.544z"/>
<path d="M196.695,188.58h24.46c8.584,0,15.566-6.982,15.566-15.564c0-8.584-6.982-15.567-15.566-15.567h-0.122
	c-1.11-9.993-9.607-17.788-19.891-17.788c-6.96,0-13.272,3.535-16.921,9.354c-1.012-0.307-2.046-0.46-3.091-0.46
	c-5.437,0-9.975,3.923-10.933,9.085c-0.796-0.126-1.602-0.191-2.409-0.191c-8.583,0-15.566,6.983-15.566,15.567
	c0,8.582,6.983,15.564,15.566,15.564h24.46 M167.788,184.133c-6.131,0-11.118-4.986-11.118-11.117c0-6.13,4.987-11.12,11.118-11.12
	c1.271,0,2.54,0.228,3.771,0.675c0.715,0.261,1.516,0.134,2.117-0.332c0.603-0.464,0.925-1.205,0.853-1.962l-0.072-0.603
	c0-3.678,2.995-6.672,6.672-6.672c1.025,0,2.052,0.263,3.049,0.78c0.53,0.274,1.151,0.325,1.716,0.141
	c0.566-0.188,1.036-0.595,1.301-1.126c2.65-5.36,7.993-8.688,13.947-8.688c8.582,0,15.566,6.979,15.566,15.503
	c-0.005,0.055-0.011,0.21-0.011,0.265c0,0.653,0.289,1.275,0.789,1.697c0.5,0.422,1.155,0.603,1.808,0.494
	c0.675-0.114,1.284-0.172,1.862-0.172c6.13,0,11.118,4.99,11.118,11.12c0,6.131-4.988,11.117-11.118,11.117H167.788z
	 M230.05,221.934"/>
<rect x="218.931" y="166.344" width="4.448" height="4.447"/>
<rect x="218.931" y="175.237" width="4.448" height="4.449"/>
<rect x="210.037" y="175.237" width="4.448" height="4.449"/>
<path d="M177.23,105.154c-1.812-13.403-15.667-23.673-32.386-23.673c-13.143,0-24.985,6.483-30.043,16.286
	c-0.119-0.004-0.241-0.006-0.362-0.006c-12.401,0-22.492,8.297-22.492,18.502v44.402c0,10.201,10.091,18.5,22.492,18.5h56.755
	c10.166,0,18.438-6.84,18.438-15.246v-44.4C189.632,112.978,184.61,107.252,177.23,105.154L177.23,105.154z M185.19,163.922
	c0,5.957-6.277,10.802-13.996,10.802h-56.755c-9.954,0-18.051-6.306-18.051-14.058v-11.275c4.1,4.568,10.635,7.572,18.051,7.572
	h56.755c5.628,0,10.612-2.139,13.996-5.437V163.922z M185.19,141.719c0,5.959-6.277,10.805-13.996,10.805h-56.755
	c-9.954,0-18.051-6.307-18.051-14.059V127.19c4.1,4.567,10.635,7.571,18.051,7.571h56.755c5.628,0,10.612-2.139,13.996-5.436
	V141.719z M171.194,130.324h-56.755c-9.954,0-18.051-6.308-18.051-14.061c0-7.755,8.097-14.063,18.051-14.063
	c0.33,0,0.652,0.033,0.975,0.063l0.578,0.048c0.986,0.072,1.824-0.466,2.196-1.332c3.907-9.006,14.619-15.059,26.657-15.059
	c15.052,0,27.404,9.29,28.115,21.147c0.061,1.003,0.788,1.843,1.772,2.043c6.159,1.254,10.459,5.533,10.459,10.408
	C185.19,125.478,178.914,130.324,171.194,130.324L171.194,130.324z M171.194,130.324"/>
<path d="M107.489,136.983c-1.228,0-2.221,0.993-2.221,2.22v4.441c0,1.226,0.993,2.219,2.221,2.219c1.227,0,2.219-0.993,2.219-2.219
	v-4.441C109.708,137.977,108.715,136.983,107.489,136.983L107.489,136.983z M107.489,136.983"/>
<path d="M116.369,139.203c-1.228,0-2.22,0.992-2.22,2.219v4.441c0,1.227,0.993,2.221,2.22,2.221s2.221-0.994,2.221-2.221v-4.441
	C118.589,140.195,117.596,139.203,116.369,139.203L116.369,139.203z M116.369,139.203"/>
<path d="M125.25,139.203c-1.228,0-2.221,0.992-2.221,2.219v4.441c0,1.227,0.993,2.221,2.221,2.221c1.227,0,2.219-0.994,2.219-2.221
	v-4.441C127.469,140.195,126.476,139.203,125.25,139.203L125.25,139.203z M125.25,139.203"/>
<path d="M176.311,143.645c0,2.449-1.988,4.439-4.439,4.439c-2.454,0-4.441-1.99-4.441-4.439c0-2.453,1.987-4.441,4.441-4.441
	C174.323,139.203,176.311,141.191,176.311,143.645L176.311,143.645z M176.311,143.645"/>
<path d="M162.99,143.645c0,2.449-1.988,4.439-4.44,4.439c-2.451,0-4.438-1.99-4.438-4.439c0-2.453,1.987-4.441,4.438-4.441
	C161.002,139.203,162.99,141.191,162.99,143.645L162.99,143.645z M162.99,143.645"/>
<path d="M107.489,159.184c-1.228,0-2.221,0.993-2.221,2.221v4.439c0,1.227,0.993,2.221,2.221,2.221c1.227,0,2.219-0.994,2.219-2.221
	v-4.439C109.708,160.177,108.715,159.184,107.489,159.184L107.489,159.184z M107.489,159.184"/>
<path d="M116.369,161.404c-1.228,0-2.22,0.994-2.22,2.22v4.44c0,1.227,0.993,2.219,2.22,2.219s2.221-0.992,2.221-2.219v-4.44
	C118.589,162.398,117.596,161.404,116.369,161.404L116.369,161.404z M116.369,161.404"/>
<path d="M125.25,161.404c-1.228,0-2.221,0.994-2.221,2.22v4.44c0,1.227,0.993,2.219,2.221,2.219c1.227,0,2.219-0.992,2.219-2.219
	v-4.44C127.469,162.398,126.476,161.404,125.25,161.404L125.25,161.404z M125.25,161.404"/>
<path d="M176.311,165.844c0,2.453-1.988,4.439-4.439,4.439c-2.454,0-4.441-1.986-4.441-4.439c0-2.451,1.987-4.439,4.441-4.439
	C174.323,161.404,176.311,163.393,176.311,165.844L176.311,165.844z M176.311,165.844"/>
<path d="M162.99,165.844c0,2.453-1.988,4.439-4.44,4.439c-2.451,0-4.438-1.986-4.438-4.439c0-2.451,1.987-4.439,4.438-4.439
	C161.002,161.404,162.99,163.393,162.99,165.844L162.99,165.844z M162.99,165.844"/>
<path fill="#FFFFFF" d="M114.528,134.762c-7.417,0-13.952-3.002-18.052-7.571v11.274c0,7.754,8.098,14.059,18.052,14.059h56.756
	c7.717,0,13.995-4.845,13.995-10.805v-12.393c-3.384,3.298-8.367,5.436-13.995,5.436H114.528z M109.798,143.646
	c0,1.225-0.994,2.218-2.22,2.218s-2.221-0.993-2.221-2.218v-4.442c0-1.226,0.995-2.22,2.221-2.22s2.22,0.994,2.22,2.22V143.646z
	 M118.678,145.863c0,1.227-0.993,2.221-2.221,2.221c-1.227,0-2.22-0.994-2.22-2.221v-4.439c0-1.229,0.993-2.221,2.22-2.221
	c1.228,0,2.221,0.992,2.221,2.221V145.863z M127.558,145.863c0,1.227-0.994,2.221-2.22,2.221c-1.227,0-2.221-0.994-2.221-2.221
	v-4.439c0-1.229,0.994-2.221,2.221-2.221c1.226,0,2.22,0.992,2.22,2.221V145.863z M158.639,148.084
	c-2.452,0-4.439-1.988-4.439-4.438c0-2.454,1.988-4.442,4.439-4.442c2.453,0,4.44,1.988,4.44,4.442
	C163.08,146.096,161.092,148.084,158.639,148.084z M176.4,143.646c0,2.45-1.988,4.438-4.439,4.438c-2.453,0-4.441-1.988-4.441-4.438
	c0-2.454,1.988-4.442,4.441-4.442C174.412,139.203,176.4,141.191,176.4,143.646z"/>
<path fill="#FFFFFF" d="M174.819,109.111c-0.983-0.197-1.71-1.038-1.771-2.043c-0.711-11.857-13.063-21.146-28.116-21.146
	c-12.037,0-22.75,6.052-26.657,15.059c-0.373,0.866-1.209,1.403-2.196,1.332l-0.576-0.049c-0.324-0.029-0.646-0.063-0.976-0.063
	c-9.954,0-18.052,6.309-18.052,14.063c0,7.755,8.098,14.061,18.052,14.061h56.756c7.717,0,13.995-4.847,13.995-10.803
	C185.279,114.645,180.979,110.367,174.819,109.111z"/>
<path fill="#FFFFFF" d="M114.528,156.965c-7.417,0-13.952-3.005-18.052-7.574v11.275c0,7.752,8.098,14.059,18.052,14.059h56.756
	c7.717,0,13.995-4.846,13.995-10.803v-12.393c-3.384,3.295-8.367,5.436-13.995,5.436H114.528z M109.798,165.846
	c0,1.227-0.994,2.219-2.22,2.219s-2.221-0.992-2.221-2.219v-4.439c0-1.229,0.995-2.222,2.221-2.222s2.22,0.993,2.22,2.222V165.846z
	 M118.678,168.064c0,1.227-0.993,2.221-2.221,2.221c-1.227,0-2.22-0.994-2.22-2.221v-4.44c0-1.226,0.993-2.218,2.22-2.218
	c1.228,0,2.221,0.992,2.221,2.218V168.064z M127.558,168.064c0,1.227-0.994,2.221-2.22,2.221c-1.227,0-2.221-0.994-2.221-2.221
	v-4.44c0-1.226,0.994-2.218,2.221-2.218c1.226,0,2.22,0.992,2.22,2.218V168.064z M158.639,170.285c-2.452,0-4.439-1.988-4.439-4.439
	s1.988-4.439,4.439-4.439c2.453,0,4.44,1.988,4.44,4.439S161.092,170.285,158.639,170.285z M176.4,165.846
	c0,2.451-1.988,4.439-4.439,4.439c-2.453,0-4.441-1.988-4.441-4.439s1.988-4.439,4.441-4.439
	C174.412,161.406,176.4,163.395,176.4,165.846z"/>
<path stroke="#FFFFFF" stroke-width="2" d="M102.842,232.197H53.289h-6.606H23.555c-1.822,0-3.302,1.476-3.302,3.303v23.479
	c0,1.843,0.063,3.686,0.184,5.513c0.702,10.629,3.461,20.924,8.071,30.479c0.139,0.284,0.264,0.574,0.404,0.859
	c0.553,1.115,1.153,2.211,1.76,3.303c0.308,0.563,0.608,1.128,0.931,1.683c0.145,0.25,0.268,0.509,0.418,0.755l4.426,6.607
	c6.644,9.069,15.109,16.854,25.086,22.673c0.516,0.302,1.09,0.451,1.664,0.451c0.575,0,1.149-0.149,1.666-0.451
	c25.461-14.854,41.28-42.394,41.28-71.871V235.5C106.144,233.673,104.664,232.197,102.842,232.197z M99.537,258.979
	c0,26.488-13.876,51.275-36.339,65.167c-9.271-5.732-17.047-13.338-23.021-22.133c-0.665-0.981-1.307-1.973-1.924-2.978
	c-0.383-0.632-0.772-1.261-1.144-1.906c-0.503-0.868-0.968-1.751-1.434-2.634c-0.398-0.762-0.809-1.513-1.181-2.287
	c-0.325-0.67-0.605-1.349-0.909-2.027c-0.869-1.942-1.665-3.921-2.376-5.936c-0.159-0.459-0.343-0.913-0.495-1.376
	c-0.343-1.047-0.646-2.108-0.943-3.172c-0.187-0.662-0.376-1.316-0.548-1.983c-0.25-0.979-0.47-1.973-0.678-2.968
	c-0.171-0.804-0.327-1.612-0.475-2.424c-0.158-0.894-0.31-1.788-0.437-2.687c-0.147-1.033-0.259-2.072-0.362-3.114
	c-0.071-0.715-0.157-1.43-0.21-2.146c-0.122-1.785-0.204-3.585-0.204-5.397v-20.176h72.679V258.979z"/>
<path stroke="#FFFFFF" stroke-width="2" d="M83.986,262.896l-24.093,24.095l-10.878-10.882l-4.67,4.674l13.213,13.212
	c0.646,0.644,1.492,0.97,2.335,0.97c0.849,0,1.691-0.326,2.338-0.97l26.425-26.429L83.986,262.896z M83.986,262.896"/>
<rect x="33.464" y="245.412" stroke="#FFFFFF" stroke-width="2" width="6.609" height="6.605"/>
<rect x="46.683" y="245.412" stroke="#FFFFFF" stroke-width="2" width="6.606" height="6.605"/>
<rect x="59.894" y="245.412" stroke="#FFFFFF" stroke-width="2" width="6.609" height="6.605"/>
<rect x="73.11" y="245.412" stroke="#FFFFFF" stroke-width="2" width="6.606" height="6.605"/>
<rect x="86.323" y="245.412" stroke="#FFFFFF" stroke-width="2" width="6.608" height="6.605"/>
<path fill="#FFFFFF" stroke="#FFFFFF" stroke-width="2" d="M26.857,258.979c0,1.813,0.082,3.612,0.204,5.397
	c0.054,0.716,0.139,1.431,0.21,2.146c0.103,1.042,0.214,2.081,0.362,3.114c0.127,0.898,0.278,1.793,0.437,2.687
	c0.148,0.812,0.303,1.62,0.475,2.424c0.208,0.995,0.428,1.989,0.678,2.968c0.172,0.667,0.361,1.321,0.548,1.983
	c0.297,1.063,0.6,2.125,0.943,3.172c0.151,0.463,0.335,0.917,0.495,1.376c0.711,2.015,1.507,3.993,2.376,5.936
	c0.304,0.679,0.583,1.357,0.909,2.027c0.372,0.774,0.782,1.525,1.181,2.287c0.466,0.883,0.931,1.766,1.434,2.634
	c0.372,0.646,0.761,1.274,1.144,1.906c0.617,1.005,1.259,1.996,1.924,2.978c5.974,8.795,13.75,16.4,23.021,22.133
	c22.463-13.892,36.339-38.679,36.339-65.167v-20.176H26.857V258.979z M86.323,245.412h6.608v6.605h-6.608V245.412z M73.11,245.412
	h6.606v6.605H73.11V245.412z M59.894,245.412h6.609v6.605h-6.609V245.412z M46.683,245.412h6.606v6.605h-6.606V245.412z
	 M49.016,276.109l10.878,10.882l24.093-24.095l4.67,4.67l-26.425,26.429c-0.646,0.644-1.489,0.97-2.338,0.97
	c-0.843,0-1.69-0.326-2.335-0.97l-13.213-13.212L49.016,276.109z M33.464,245.412h6.609v6.605h-6.609V245.412z"/>
<circle fill="#FFFFFF" cx="193.418" cy="235.03" r="34.937"/>
<path d="M195.124,229.144v-17.966h-2.96v17.966c-2.545,0.659-4.438,2.955-4.438,5.707c0,0.454,0.062,0.894,0.162,1.32l-14.184,7.734
	l1.415,2.598l14.143-7.712c1.082,1.205,2.638,1.977,4.382,1.977c3.262,0,5.917-2.654,5.917-5.917
	C199.562,232.099,197.669,229.803,195.124,229.144L195.124,229.144z M193.645,237.808c-1.632,0-2.959-1.327-2.959-2.957
	c0-1.633,1.327-2.959,2.959-2.959c1.631,0,2.958,1.326,2.958,2.959C196.603,236.48,195.276,237.808,193.645,237.808L193.645,237.808
	z M193.645,237.808"/>
<path d="M237.161,246.686l10.356-10.357h-24.324c0.025-0.499,0.041-0.994,0.041-1.478c0-16.317-13.274-29.59-29.589-29.59
	s-29.589,13.272-29.589,29.59c0,16.313,13.273,29.587,29.589,29.587c8.604,0,16.614-3.703,22.191-10.066v13.639l10.356-10.354
	l11.835,11.835l10.969-10.971L237.161,246.686z M215.836,249.516c-4.962,7.495-13.221,11.963-22.191,11.963
	c-14.684,0-26.63-11.947-26.63-26.628c0-14.685,11.947-26.632,26.63-26.632s26.629,11.947,26.629,26.632
	c0,0.477-0.051,0.982-0.079,1.478h-4.359V249.516z M226.192,253.47l-7.397,7.397v-21.58h21.579l-7.397,7.398l11.835,11.834
	l-6.785,6.786L226.192,253.47z M226.192,253.47"/>
<rect x="224.713" y="224.494" width="2.958" height="5.917"/>
<path d="M213.639,236.225l-4.184-4.185l2.092-2.091l4.184,4.185L213.639,236.225z M213.639,236.225"/>
<rect x="204" y="245.205" width="5.918" height="2.959"/>
<path d="M211.544,263.418l-2.092-2.092l4.184-4.186l2.093,2.093L211.544,263.418z M211.544,263.418"/>
<rect x="224.713" y="262.957" width="2.958" height="5.92"/>
<rect x="242.466" y="245.205" width="5.918" height="2.959"/>
<path d="M240.834,229.95l2.092,2.093l-4.184,4.184l-2.093-2.092L240.834,229.95z M240.834,229.95"/>
<path d="M193.645,267.396c-17.948,0-32.548-14.602-32.548-32.546c0-17.948,14.601-32.55,32.548-32.55
	c13.077,0,24.836,7.779,29.96,19.814l2.722-1.16c-4.803-11.281-14.955-19.115-26.765-21.102v-5.748
	c1.811-1.626,2.959-3.977,2.959-6.599c0-4.896-3.981-8.877-8.876-8.877c-4.896,0-8.877,3.981-8.877,8.877
	c0,2.62,1.148,4.972,2.959,6.599v5.74c-16.77,2.827-29.588,17.443-29.588,35.005c0,19.577,15.928,35.506,35.506,35.506
	c5.399,0,10.595-1.192,15.439-3.536l-1.288-2.667C203.354,266.307,198.595,267.396,193.645,267.396L193.645,267.396z
	 M196.603,199.475c-0.979-0.08-1.965-0.132-2.958-0.132c-0.998,0-1.982,0.052-2.959,0.134v-3.611c0.927,0.33,1.92,0.52,2.959,0.52
	c1.039,0,2.031-0.189,2.958-0.52V199.475z M193.645,181.591c3.262,0,5.917,2.653,5.917,5.916c0,3.265-2.655,5.919-5.917,5.919
	c-3.263,0-5.918-2.654-5.918-5.919C187.727,184.244,190.381,181.591,193.645,181.591L193.645,181.591z M193.645,181.591"/>
<circle fill="#FFFFFF" cx="193.53" cy="187.365" r="5.833"/>
</svg>
