<?xml version="1.0" encoding="utf-8"?>
<!-- Generator: Adobe Illustrator 15.1.0, SVG Export Plug-In  -->
<!DOCTYPE svg PUBLIC "-//W3C//DTD SVG 1.1//EN" "http://www.w3.org/Graphics/SVG/1.1/DTD/svg11.dtd" [
	<!ENTITY ns_flows "http://ns.adobe.com/Flows/1.0/">
]>
<svg version="1.1"
	 xmlns="http://www.w3.org/2000/svg" xmlns:xlink="http://www.w3.org/1999/xlink" xmlns:a="http://ns.adobe.com/AdobeSVGViewerExtensions/3.0/"
	 x="0px" y="0px" width="500px" height="500px" viewBox="-67.52 -61.198 500 500" enable-background="new -67.52 -61.198 500 500"
	 xml:space="preserve">
<defs>
</defs>
<path d="M158.94,236.269c0-2.392-1.946-4.338-4.337-4.338h-23.47c1.159-3.256,1.778-6.647,1.778-10.123
	c0-16.744-13.622-30.368-30.368-30.368s-30.368,13.624-30.368,30.368s13.622,30.368,30.368,30.368v7.231
	c0,1.115,0.436,2.123,1.127,2.893c-0.693,0.768-1.127,1.776-1.127,2.891v8.677c0,2.393,1.947,4.339,4.339,4.339h47.72
	c2.392,0,4.337-1.946,4.337-4.339v-8.677c0-1.115-0.436-2.123-1.128-2.891c0.694-0.77,1.128-1.778,1.128-2.893v-8.677
	c0-1.115-0.436-2.122-1.128-2.891c0.694-0.771,1.128-1.778,1.128-2.893V236.269z M129.945,220.362h-14.449
	c-0.174-4.2-1.06-8.148-2.298-11.698c3.356-1.362,6.443-3.368,9.08-5.927C126.744,207.358,129.588,213.533,129.945,220.362
	L129.945,220.362z M129.953,223.254c-0.157,2.979-0.764,5.892-1.871,8.677h-13.973c0.805-2.945,1.27-5.846,1.388-8.677H129.953z
	 M120.158,200.749c-2.331,2.239-5.048,3.984-7.998,5.189c-2.086-4.991-4.682-8.984-6.467-11.411
	C111.162,195.155,116.146,197.387,120.158,200.749L120.158,200.749z M112.613,220.364h-20.14c0.175-3.825,1.01-7.458,2.166-10.745
	c2.544,0.738,5.201,1.133,7.904,1.133c2.703,0,5.359-0.393,7.903-1.133C111.601,212.904,112.438,216.537,112.613,220.364
	L112.613,220.364z M109.395,206.882c-2.212,0.619-4.508,0.977-6.852,0.977s-4.64-0.358-6.852-0.977
	c2.318-5.469,5.286-9.681,6.852-11.705C104.109,197.201,107.077,201.413,109.395,206.882L109.395,206.882z M99.392,194.527
	c-1.783,2.427-4.379,6.42-6.465,11.411c-2.95-1.206-5.668-2.95-7.999-5.189C88.942,197.387,93.925,195.155,99.392,194.527
	L99.392,194.527z M82.808,202.737c2.637,2.559,5.724,4.564,9.08,5.927c-1.239,3.55-2.124,7.5-2.299,11.699H75.141
	C75.498,213.533,78.341,207.358,82.808,202.737L82.808,202.737z M75.141,223.254h14.449c0.184,4.441,1.158,8.611,2.507,12.314
	c-3.346,1.235-6.463,3.06-9.195,5.416C78.379,236.353,75.5,230.134,75.141,223.254L75.141,223.254z M85.043,242.974
	c2.427-2.039,5.172-3.63,8.121-4.706c2.04,4.722,4.512,8.49,6.228,10.821C93.979,248.467,89.038,246.28,85.043,242.974
	L85.043,242.974z M102.543,248.443c-1.5-1.94-4.284-5.895-6.554-11.033c2.131-0.525,4.329-0.777,6.554-0.778v8.315
	c0,0.249,0.027,0.492,0.069,0.735c0.005,0.037,0.009,0.073,0.015,0.11c0.015,0.071,0.041,0.136,0.06,0.205
	c0.031,0.126,0.065,0.252,0.106,0.374c0.025,0.071,0.045,0.141,0.073,0.211c0.025,0.06,0.056,0.114,0.082,0.171
	c0.041,0.088,0.086,0.173,0.134,0.256c0.053,0.099,0.102,0.197,0.163,0.289c0.024,0.04,0.049,0.079,0.075,0.117
	C103.034,247.801,102.775,248.146,102.543,248.443L102.543,248.443z M103.387,233.721c-2.894-0.081-5.759,0.246-8.511,0.968
	c-1.28-3.462-2.217-7.342-2.405-11.435h20.138c-0.129,2.819-0.608,5.722-1.479,8.677h-4.247
	C105.444,231.931,104.177,232.641,103.387,233.721L103.387,233.721z M156.048,273.868c0,0.799-0.648,1.446-1.446,1.446h-47.72
	c-0.798,0-1.448-0.647-1.448-1.446v-8.677c0-0.797,0.65-1.445,1.448-1.445h47.72c0.797,0,1.446,0.648,1.446,1.445V273.868z
	 M156.048,259.407c0,0.797-0.648,1.445-1.446,1.445h-47.72c-0.798,0-1.448-0.647-1.448-1.445v-8.677
	c0-0.008,0.005-0.016,0.005-0.023c0.014-0.785,0.659-1.423,1.443-1.423h47.72c0.797,0,1.446,0.649,1.446,1.447V259.407z
	 M156.048,244.947c0,0.798-0.648,1.445-1.446,1.445h-47.72c-0.364,0-0.687-0.146-0.94-0.369c-0.041-0.033-0.081-0.067-0.118-0.105
	c-0.103-0.112-0.189-0.237-0.253-0.375c-0.014-0.031-0.024-0.063-0.035-0.093c-0.06-0.159-0.102-0.326-0.102-0.502v-8.678
	c0-0.798,0.65-1.445,1.448-1.445h47.72c0.797,0,1.446,0.647,1.446,1.445V244.947z M156.048,244.947"/>
<rect x="150.264" y="239.161" width="2.893" height="2.894"/>
<rect x="108.327" y="239.161" width="24.583" height="2.894"/>
<rect x="150.264" y="253.623" width="2.893" height="2.892"/>
<rect x="108.327" y="253.623" width="24.583" height="2.892"/>
<rect x="150.264" y="268.084" width="2.893" height="2.892"/>
<rect x="108.327" y="268.084" width="24.583" height="2.892"/>
<rect x="132.911" y="208.794" width="2.893" height="2.893"/>
<rect x="138.695" y="208.794" width="2.892" height="2.893"/>
<rect x="144.48" y="208.794" width="2.892" height="2.893"/>
<rect x="150.264" y="208.794" width="2.893" height="2.893"/>
<rect x="150.264" y="214.578" width="2.893" height="2.892"/>
<rect x="150.264" y="220.362" width="2.893" height="2.892"/>
<rect x="150.264" y="226.147" width="2.893" height="2.892"/>
<rect x="96.758" y="268.084" width="2.893" height="2.892"/>
<rect x="90.974" y="268.084" width="2.893" height="2.892"/>
<rect x="85.19" y="268.084" width="2.892" height="2.892"/>
<rect x="85.19" y="262.3" width="2.892" height="2.891"/>
<rect x="85.19" y="256.515" width="2.892" height="2.893"/>
<rect x="85.19" y="250.73" width="2.892" height="2.893"/>
<path stroke="#FFFFFF" stroke-width="5" d="M178.402,112.372c-35.41,0-64.217,28.807-64.217,64.215
	c0,22.861,6.953,32.025,40.367,76.077c5.802,7.648,12.376,16.313,19.899,26.343c0.932,1.242,2.396,1.977,3.952,1.977
	s3.019-0.735,3.952-1.978c7.478-9.975,14.024-18.609,19.799-26.227c33.495-44.178,40.466-53.371,40.466-76.191
	C242.62,141.179,213.811,112.372,178.402,112.372L178.402,112.372z M194.281,246.812c-4.744,6.254-10.005,13.196-15.881,21.008
	c-5.913-7.862-11.206-14.839-15.977-21.126c-32.502-42.85-38.359-50.568-38.359-70.106c0-29.961,24.376-54.336,54.338-54.336
	s54.337,24.375,54.337,54.336C232.74,196.086,226.867,203.83,194.281,246.812L194.281,246.812z M194.281,246.812"/>
<path stroke="#FFFFFF" stroke-width="5" d="M178.402,142.01c-19.069,0-34.578,15.512-34.578,34.578
	c0,19.067,15.509,34.578,34.578,34.578c19.066,0,34.578-15.511,34.578-34.578C212.98,157.521,197.468,142.01,178.402,142.01
	L178.402,142.01z M178.402,201.287c-13.62,0-24.698-11.079-24.698-24.699s11.079-24.697,24.698-24.697
	c13.618,0,24.698,11.076,24.698,24.697S192.021,201.287,178.402,201.287L178.402,201.287z M178.402,201.287"/>
<path fill="#FFFFFF" d="M178.402,121.428c-29.961,0-54.338,24.375-54.338,54.337c0,19.537,5.857,27.256,38.359,70.105
	c4.771,6.289,10.063,13.265,15.977,21.126c5.876-7.811,11.137-14.752,15.881-21.007c32.586-42.981,38.459-50.726,38.459-70.224
	C232.74,145.803,208.364,121.428,178.402,121.428z M178.402,210.342c-19.069,0-34.578-15.512-34.578-34.578
	s15.509-34.577,34.578-34.577c19.066,0,34.578,15.511,34.578,34.577S197.468,210.342,178.402,210.342z"/>
<path fill="#FFFFFF" d="M178.402,151.067c-13.62,0-24.698,11.077-24.698,24.697s11.079,24.699,24.698,24.699
	c13.618,0,24.698-11.079,24.698-24.699S192.021,151.067,178.402,151.067z"/>
<path fill="none" stroke="#010101" stroke-width="5" stroke-linecap="square" stroke-linejoin="round" stroke-dasharray="0,12" d="
	M4.744,217.537c-15.339-95.412,49.583-185.18,145.002-200.524C245.158,1.69,334.932,66.61,350.255,162.03
	c15.34,95.4-49.576,185.184-144.997,200.521C109.847,377.883,20.074,312.955,4.744,217.537z"/>
<path stroke="#FFFFFF" d="M10.964,122.324c0,3.58-2.912,6.492-6.49,6.492v4.328c3.578,0,6.49,2.91,6.49,6.49h4.328
	c0-3.58,2.912-6.49,6.492-6.49v-4.328c-3.58,0-6.492-2.912-6.492-6.492H10.964L10.964,122.324z M13.128,133.209
	c-0.631-0.85-1.38-1.596-2.229-2.23c0.85-0.631,1.599-1.379,2.229-2.23c0.633,0.852,1.381,1.6,2.232,2.23
	C14.509,131.613,13.761,132.359,13.128,133.209L13.128,133.209z M13.128,133.209"/>
<path stroke="#FFFFFF" stroke-width="2" d="M159.855,1c0,5.293-4.31,9.6-9.6,9.6v6.403c5.29,0,9.6,4.308,9.6,9.601h6.401
	c0-5.293,4.306-9.601,9.602-9.601V10.6c-5.296,0-9.602-4.307-9.602-9.6H159.855L159.855,1z M163.057,17.102
	c-0.936-1.258-2.041-2.367-3.297-3.3c1.256-0.935,2.361-2.042,3.297-3.3c0.936,1.258,2.042,2.365,3.299,3.3
	C165.099,14.734,163.992,15.844,163.057,17.102L163.057,17.102z M163.057,17.102"/>
<path stroke="#FFFFFF" d="M327.976,262.008c0,3.362-2.739,6.104-6.104,6.104v4.066c3.364,0,6.104,2.737,6.104,6.104h4.067
	c0-3.366,2.739-6.104,6.103-6.104v-4.066c-3.363,0-6.103-2.741-6.103-6.104H327.976L327.976,262.008z M330.009,272.24
	c-0.594-0.798-1.299-1.502-2.098-2.097c0.799-0.593,1.504-1.297,2.098-2.097c0.594,0.8,1.297,1.504,2.098,2.097
	C331.306,270.738,330.603,271.442,330.009,272.24L330.009,272.24z M330.009,272.24"/>
<path fill="#FFFFFF" d="M322.674,307.71h-5.167v-8.088c0-3.76-3.044-6.816-6.79-6.816c-0.455,0-0.897,0.049-1.326,0.134v-3.717
	c0-0.341-0.073-0.666-0.2-0.963v-8.453c0.126-0.295,0.2-0.619,0.2-0.962v-14.959h0.537c2.235,0,4.054-1.817,4.054-4.054v-13.492
	c0-2.234-1.819-4.054-4.054-4.054h-2.52l-15.442-26.742c-0.449-0.778-1.279-1.258-2.177-1.258c0,0-0.001,0-0.002,0
	c-0.897,0-1.726,0.478-2.177,1.254l-6.147,10.603v-8.936c0-2.236-1.818-4.054-4.054-4.054h-3.415l-9.791-16.927
	c-0.012-0.022-0.031-0.039-0.044-0.062l-5.529-9.549c-0.02-0.039-0.032-0.08-0.054-0.119l-7.896-13.649
	c-0.142-0.244-0.309-0.464-0.487-0.663h-4.862c-0.18,0.199-0.346,0.417-0.487,0.661l-23.316,40.308h-3.414
	c-2.234,0-4.055,1.818-4.055,4.054v7.888l-5.805-10.054c-0.449-0.778-1.278-1.257-2.177-1.258c-0.001,0-0.001,0-0.003,0
	c-0.897,0-1.727,0.478-2.176,1.254l-15.8,27.251h-2.502c-2.235,0-4.053,1.818-4.053,4.053v13.491c0,2.237,1.818,4.054,4.053,4.054
	h0.537v32.527c-0.644-0.203-1.321-0.317-2.014-0.317c-3.746,0-6.791,3.056-6.791,6.814v4.801h-4.476
	c-1.346,0-2.433,1.088-2.433,2.432c0,1.343,1.087,2.433,2.433,2.433h149.822c1.343,0,2.433-1.089,2.433-2.433
	C325.107,308.798,324.017,307.71,322.674,307.71z"/>
<path stroke="#FFFFFF" d="M200.374,269.1c-1.343,0-2.432,1.088-2.432,2.433v6.893c0,1.343,1.089,2.433,2.432,2.433
	c1.346,0,2.433-1.09,2.433-2.433v-6.893C202.807,270.188,201.72,269.1,200.374,269.1L200.374,269.1z M200.374,269.1"/>
<path stroke="#FFFFFF" d="M212.339,269.1c-1.342,0-2.432,1.088-2.432,2.433v6.893c0,1.343,1.089,2.433,2.432,2.433
	c1.343,0,2.434-1.09,2.434-2.433v-6.893C214.773,270.188,213.682,269.1,212.339,269.1L212.339,269.1z M212.339,269.1"/>
<path stroke="#FFFFFF" d="M283.184,269.1c-1.343,0-2.433,1.088-2.433,2.433v6.893c0,1.343,1.09,2.433,2.433,2.433
	c1.345,0,2.433-1.09,2.433-2.433v-6.893C285.616,270.188,284.528,269.1,283.184,269.1L283.184,269.1z M283.184,269.1"/>
<path stroke="#FFFFFF" d="M295.149,269.1c-1.344,0-2.433,1.088-2.433,2.433v6.893c0,1.343,1.089,2.433,2.433,2.433
	c1.344,0,2.431-1.09,2.431-2.433v-6.893C297.58,270.188,296.493,269.1,295.149,269.1L295.149,269.1z M295.149,269.1"/>
<path stroke="#FFFFFF" d="M239.437,265.695c-0.451-0.452-1.08-0.712-1.72-0.712c-0.639,0-1.268,0.26-1.719,0.712
	c-0.453,0.453-0.713,1.08-0.713,1.721c0,0.64,0.26,1.269,0.713,1.719c0.452,0.453,1.08,0.713,1.719,0.713
	c0.64,0,1.269-0.26,1.72-0.713c0.454-0.454,0.713-1.08,0.713-1.719C240.15,266.775,239.891,266.148,239.437,265.695L239.437,265.695
	z M239.437,265.695"/>
<path stroke="#FFFFFF" d="M249.48,265.695c-0.451-0.452-1.079-0.712-1.718-0.712c-0.64,0-1.268,0.26-1.721,0.712
	c-0.454,0.453-0.711,1.08-0.711,1.721c0,0.64,0.257,1.269,0.711,1.719c0.453,0.453,1.081,0.713,1.721,0.713
	c0.642,0,1.267-0.26,1.718-0.713c0.454-0.454,0.715-1.08,0.715-1.719C250.196,266.778,249.935,266.148,249.48,265.695
	L249.48,265.695z M249.48,265.695"/>
<path stroke="#FFFFFF" d="M259.525,265.695c-0.452-0.452-1.081-0.712-1.719-0.712c-0.639,0-1.268,0.26-1.718,0.712
	c-0.454,0.453-0.716,1.08-0.716,1.721c0,0.64,0.262,1.265,0.716,1.719c0.451,0.453,1.079,0.713,1.718,0.713
	c0.639,0,1.268-0.26,1.719-0.713c0.455-0.454,0.712-1.08,0.712-1.719C260.238,266.775,259.98,266.148,259.525,265.695
	L259.525,265.695z M259.525,265.695"/>
<path stroke="#FFFFFF" d="M238.345,204.491h-3.02c-1.343,0-2.433,1.09-2.433,2.434c0,1.345,1.09,2.432,2.433,2.432h3.02
	c1.343,0,2.433-1.087,2.433-2.432C240.777,205.582,239.688,204.491,238.345,204.491L238.345,204.491z M238.345,204.491"/>
<path stroke="#FFFFFF" d="M249.272,204.491h-3.02c-1.344,0-2.434,1.09-2.434,2.434c0,1.345,1.089,2.432,2.434,2.432h3.02
	c1.344,0,2.432-1.087,2.432-2.432C251.704,205.582,250.616,204.491,249.272,204.491L249.272,204.491z M249.272,204.491"/>
<path stroke="#FFFFFF" d="M260.199,204.491h-3.021c-1.343,0-2.432,1.09-2.432,2.434c0,1.345,1.089,2.432,2.432,2.432h3.021
	c1.344,0,2.432-1.087,2.432-2.432C262.63,205.582,261.542,204.491,260.199,204.491L260.199,204.491z M260.199,204.491"/>
<path stroke="#FFFFFF" d="M243.809,195.555h-3.02c-1.344,0-2.432,1.089-2.432,2.432c0,1.344,1.088,2.433,2.432,2.433h3.02
	c1.342,0,2.432-1.089,2.432-2.433C246.241,196.644,245.151,195.555,243.809,195.555L243.809,195.555z M243.809,195.555"/>
<path stroke="#FFFFFF" d="M254.735,195.555h-3.019c-1.344,0-2.432,1.089-2.432,2.432c0,1.344,1.088,2.433,2.432,2.433h3.019
	c1.344,0,2.432-1.089,2.432-2.433C257.167,196.644,256.079,195.555,254.735,195.555L254.735,195.555z M254.735,195.555"/>
<path stroke="#FFFFFF" d="M249.272,185.929h-3.02c-1.344,0-2.434,1.089-2.434,2.433c0,1.345,1.089,2.432,2.434,2.432h3.02
	c1.344,0,2.432-1.087,2.432-2.432C251.704,187.019,250.616,185.929,249.272,185.929L249.272,185.929z M249.272,185.929"/>
<path stroke="#FFFFFF" d="M245.331,172.184c-0.18,0.199-0.346,0.417-0.487,0.661l-23.316,40.308h-3.414
	c-2.234,0-4.055,1.818-4.055,4.054v14.58c0,2.138,1.666,3.891,3.767,4.041v6.46h-32.23c-2.235,0-4.053,1.818-4.053,4.053v13.491
	c0,2.237,1.818,4.054,4.053,4.054h0.537v32.527c-0.644-0.203-1.321-0.317-2.014-0.317c-3.746,0-6.791,3.056-6.791,6.814v4.801
	h-4.476c-1.346,0-2.433,1.088-2.433,2.432c0,1.343,1.087,2.433,2.433,2.433h149.822c1.343,0,2.433-1.089,2.433-2.433
	c0-1.344-1.09-2.432-2.433-2.432l0,0h-5.167v-8.088c0-3.76-3.044-6.816-6.79-6.816c-0.455,0-0.897,0.049-1.326,0.134v-3.717
	c0-1.342-1.09-2.432-2.432-2.432c-1.346,0-2.434,1.089-2.434,2.432v7.604c-0.234,0.52-0.406,1.07-0.504,1.648
	c-1.027-0.25-2.145-0.25-3.172,0c-0.543-3.215-3.338-5.67-6.696-5.67c-2.616,0-4.894,1.495-6.028,3.68
	c-0.715-0.256-1.475-0.393-2.251-0.393c-3.745,0-6.792,3.057-6.792,6.816v4.801h-5.275v-43.825h30.719v14.959
	c0,1.345,1.088,2.433,2.434,2.433c1.342,0,2.432-1.088,2.432-2.433v-14.959h0.537c2.235,0,4.054-1.817,4.054-4.054v-13.492
	c0-2.234-1.819-4.054-4.054-4.054h-32.23v-6.459c2.1-0.15,3.766-1.902,3.766-4.041v-14.58c0-2.236-1.818-4.054-4.054-4.054h-3.415
	l-9.791-16.927c-0.672-1.162-2.162-1.56-3.324-0.888c-1.162,0.673-1.561,2.162-0.887,3.324l8.382,14.491H227.15l20.613-35.635
	l6.604,11.414c0.672,1.162,2.161,1.56,3.322,0.889c1.165-0.674,1.562-2.163,0.889-3.325l-7.896-13.649
	c-0.142-0.244-0.309-0.464-0.487-0.663 M218.924,218.017h3.144v3.183c0,1.342,1.089,2.432,2.432,2.432
	c1.344,0,2.433-1.09,2.433-2.432v-3.183h4.44v3.183c0,1.342,1.089,2.432,2.432,2.432c1.344,0,2.434-1.09,2.434-2.432v-3.183h4.439
	v3.183c0,1.342,1.088,2.432,2.434,2.432c1.342,0,2.432-1.09,2.432-2.432v-3.183h4.438v3.183c0,1.342,1.09,2.432,2.433,2.432
	c1.344,0,2.432-1.09,2.432-2.432v-3.183h4.44v3.183c0,1.342,1.089,2.432,2.433,2.432c1.344,0,2.433-1.09,2.433-2.432v-3.183h4.439
	v3.183c0,1.342,1.091,2.432,2.433,2.432c1.345,0,2.433-1.09,2.433-2.432v-3.183h3.143v12.959h-57.674V218.017z M227.119,242.287
	h-4.428v-6.447h50.14v6.447h-4.426c-2.235,0-4.053,1.818-4.053,4.053v5.179h-33.179v-5.179
	C231.173,244.105,229.355,242.287,227.119,242.287L227.119,242.287z M186.408,247.151h6.473v3.273c0,1.342,1.089,2.432,2.433,2.432
	c1.342,0,2.432-1.089,2.432-2.432v-3.273h6.179v3.273c0,1.342,1.088,2.432,2.432,2.432c1.342,0,2.432-1.089,2.432-2.432v-3.273
	h6.179v3.273c0,1.342,1.09,2.432,2.433,2.432c1.344,0,2.432-1.089,2.432-2.432v-3.273h6.476v11.869h-39.901V247.151z
	 M210.888,307.71h-28.695v-4.801c0-1.076,0.865-1.952,1.926-1.952c0.74,0,1.402,0.423,1.73,1.103c0.49,1.024,1.623,1.57,2.731,1.319
	c1.106-0.252,1.893-1.237,1.893-2.37v-1.387c0-1.076,0.864-1.952,1.926-1.952s1.925,0.876,1.925,1.952v3.578
	c0,1.135,0.786,2.118,1.893,2.373c1.106,0.25,2.243-0.297,2.733-1.32c0.326-0.682,0.99-1.102,1.73-1.102
	c0.741,0,1.402,0.42,1.73,1.102c0.491,1.022,1.623,1.57,2.731,1.32c1.106-0.253,1.892-1.238,1.892-2.373v-3.578
	c0-1.076,0.865-1.952,1.928-1.952c1.061,0,1.925,0.876,1.925,1.952V307.71z M242.116,307.71h-1.911v-18.538
	c0-1.917,0.723-3.668,1.911-5V307.71z M248.545,281.954v25.756h-1.565v-25.756c0-0.092-0.007-0.185-0.018-0.274
	c0.263-0.028,0.528-0.042,0.8-0.042c0.269,0,0.535,0.015,0.798,0.042C248.552,281.769,248.545,281.861,248.545,281.954
	L248.545,281.954z M255.318,307.71h-1.909v-23.537c1.187,1.332,1.909,3.083,1.909,5V307.71z M268.942,307.71h-8.76v-18.538
	c0-6.837-5.571-12.402-12.42-12.402c-6.85,0-12.421,5.564-12.421,12.402v18.538h-8.759v-28.541c0-1.342-1.09-2.432-2.432-2.432
	c-1.346,0-2.433,1.09-2.433,2.432v28.541h-5.964v-8.088c0-3.76-3.047-6.816-6.791-6.816c-3.357,0-6.152,2.455-6.696,5.67
	c-1.027-0.251-2.144-0.251-3.172,0c-0.544-3.215-3.339-5.67-6.695-5.67c-0.479,0-0.949,0.05-1.401,0.147v-29.068h30.719v4.583
	c0,1.342,1.087,2.432,2.433,2.432c1.342,0,2.432-1.09,2.432-2.432v-4.583h0.537c2.236,0,4.054-1.817,4.054-4.054v-3.446h33.179
	v3.446c0,2.237,1.818,4.054,4.053,4.054h0.537V307.71z M269.215,247.151h6.475v3.273c0,1.342,1.088,2.432,2.433,2.432
	c1.343,0,2.432-1.089,2.432-2.432v-3.273h6.179v3.273c0,1.342,1.09,2.432,2.434,2.432c1.344,0,2.432-1.089,2.432-2.432v-3.273h6.179
	v3.273c0,1.342,1.09,2.432,2.433,2.432c1.344,0,2.432-1.089,2.432-2.432v-3.273h6.476v11.869h-39.903V247.151z M283.948,307.71
	v-4.801c0-1.076,0.863-1.952,1.927-1.952c0.738,0,1.403,0.423,1.729,1.103c0.493,1.024,1.626,1.57,2.733,1.319
	c1.106-0.252,1.893-1.237,1.893-2.37v-1.387c0-1.076,0.863-1.952,1.925-1.952c1.063,0,1.927,0.876,1.927,1.952v3.578
	c0,1.135,0.786,2.118,1.893,2.373c1.109,0.25,2.242-0.297,2.734-1.32c0.326-0.682,0.988-1.102,1.729-1.102
	c0.738,0,1.402,0.42,1.728,1.102c0.492,1.022,1.626,1.569,2.733,1.32c1.107-0.253,1.893-1.238,1.893-2.373v-3.578
	c0-1.076,0.862-1.952,1.925-1.952s1.924,0.876,1.924,1.952v8.088H283.948z M283.948,307.71"/>
<polyline fill="none" stroke="#000000" stroke-width="4" stroke-linecap="round" stroke-linejoin="round" stroke-miterlimit="10" points="
	190.265,243.567 206.074,216.298 221.975,243.833 "/>
<polyline fill="none" stroke="#000000" stroke-width="4" stroke-linecap="round" stroke-linejoin="round" stroke-miterlimit="10" points="
	273.977,244.07 289.788,216.802 305.688,244.337 "/>
<path fill="#FFFFFF" d="M156.229,109.047h-0.122c-1.112-10.012-9.623-17.82-19.926-17.82c-6.972,0-13.295,3.541-16.951,9.371
	c-1.013-0.307-2.05-0.461-3.096-0.461c-5.446,0-9.994,3.929-10.953,9.102c-0.798-0.126-1.604-0.191-2.414-0.191
	c-8.597,0-15.592,6.994-15.592,15.593c0,8.597,6.996,15.592,15.592,15.592h24.504h4.455h24.503c8.598,0,15.593-6.995,15.593-15.592
	C171.822,116.041,164.827,109.047,156.229,109.047z"/>
<path d="M131.906,141.302h24.986c8.766,0,15.899-7.133,15.899-15.899c0-8.768-7.133-15.9-15.899-15.9h-0.125
	c-1.134-10.208-9.813-18.171-20.318-18.171c-7.109,0-13.557,3.611-17.285,9.556c-1.033-0.313-2.09-0.47-3.157-0.47
	c-5.554,0-10.189,4.006-11.168,9.28c-0.813-0.129-1.636-0.195-2.461-0.195c-8.767,0-15.9,7.132-15.9,15.9
	c0,8.767,7.133,15.899,15.9,15.899h24.986 M102.378,136.758c-6.262,0-11.356-5.094-11.356-11.356s5.094-11.358,11.356-11.358
	c1.298,0,2.594,0.232,3.854,0.688c0.73,0.267,1.546,0.138,2.162-0.338c0.615-0.474,0.944-1.23,0.872-2.005l-0.074-0.615
	c0-3.757,3.058-6.815,6.815-6.815c1.047,0,2.097,0.269,3.114,0.797c0.541,0.283,1.176,0.334,1.753,0.144
	c0.579-0.192,1.059-0.606,1.328-1.152c2.708-5.474,8.165-8.874,14.247-8.874c8.767,0,15.9,7.131,15.9,15.837
	c-0.005,0.056-0.012,0.213-0.012,0.27c0,0.666,0.295,1.303,0.806,1.734c0.511,0.429,1.18,0.615,1.846,0.504
	c0.689-0.117,1.312-0.175,1.902-0.175c6.261,0,11.356,5.096,11.356,11.358s-5.095,11.356-11.356,11.356H102.378z M165.977,175.372"
	/>
<rect x="154.62" y="118.588" width="4.542" height="4.543"/>
<rect x="154.62" y="127.672" width="4.542" height="4.544"/>
<rect x="145.535" y="127.672" width="4.543" height="4.544"/>
</svg>
