<?xml version="1.0" encoding="utf-8"?>
<!-- Generator: Adobe Illustrator 15.1.0, SVG Export Plug-In  -->
<!DOCTYPE svg PUBLIC "-//W3C//DTD SVG 1.1//EN" "http://www.w3.org/Graphics/SVG/1.1/DTD/svg11.dtd" [
	<!ENTITY ns_flows "http://ns.adobe.com/Flows/1.0/">
]>
<svg version="1.1"
	 xmlns="http://www.w3.org/2000/svg" xmlns:xlink="http://www.w3.org/1999/xlink" xmlns:a="http://ns.adobe.com/AdobeSVGViewerExtensions/3.0/"
	 x="0px" y="0px" width="500px" height="500px" viewBox="-74.262 25.088 500 500" enable-background="new -74.262 25.088 500 500"
	 xml:space="preserve">
<defs>
</defs>
<path fill="none" stroke="#010101" stroke-width="5" stroke-linecap="square" stroke-linejoin="round" stroke-dasharray="0,12" d="
	M4.744,307.82c-15.337-95.406,49.58-185.17,144.992-200.513c95.407-15.321,185.176,49.595,200.498,145.008
	c15.34,95.395-49.573,185.174-144.988,200.51C109.841,468.155,20.074,403.231,4.744,307.82z"/>
<path d="M243.711,273.663l10.355-10.354h10.018v-5.588H252.91c-0.74,0-1.453,0.294-1.975,0.818l-10.355,10.355h-13.089
	c-3.567-3.515-8.46-5.668-13.841-5.586c-0.699-6.302-3.74-11.906-8.227-15.928v-10.853l15.941-15.941
	c0.526-0.521,0.818-1.23,0.818-1.972v-25.14h-5.586v23.983l-15.941,15.941c-0.525,0.522-0.818,1.234-0.818,1.974v8.213
	c-1.754-0.875-3.633-1.528-5.587-1.972v-13.46l7.562-7.563c0.525-0.526,0.818-1.236,0.818-1.978v-25.14h-5.586v23.983l-7.562,7.561
	c-0.526,0.523-0.818,1.234-0.818,1.977v13.966c-1.913,0-3.777,0.247-5.589,0.658v-48.145h-5.586v50.14
	c-2.021,1.005-3.9,2.269-5.586,3.785v-20.404c0-0.742-0.293-1.453-0.818-1.977l-7.563-7.561v-23.983h-5.586v25.14
	c0,0.741,0.294,1.451,0.818,1.975l7.563,7.562v24.315c-0.922-0.198-1.852-0.332-2.795-0.332c-0.956,0-1.887,0.12-2.793,0.305
	v-17.065c0-0.739-0.293-1.451-0.818-1.974l-15.939-15.941v-23.983h-5.588v25.14c0,0.741,0.295,1.451,0.818,1.975l15.941,15.941
	v18.457c-2.729,2.065-4.707,5.07-5.355,8.563c-1-0.163-2.01-0.243-3.024-0.243c-3.665,0-7.083,1.03-10.019,2.793h-19.551
	l-7.562-7.563c-0.522-0.524-1.233-0.818-1.974-0.818H96.486v5.588h10.016l7.563,7.561c0.522,0.525,1.234,0.819,1.975,0.819h14.704
	c-1.183,1.687-2.104,3.565-2.708,5.586H96.486v5.586h30.727c0,1.942,0.291,3.815,0.822,5.587h-9.203
	c-0.739,0-1.453,0.294-1.975,0.818l-10.355,10.355H96.486v5.586h11.174c0.74,0,1.451-0.293,1.974-0.818l10.356-10.354h10.753
	c3.538,5.058,9.397,8.378,16.021,8.378h8.38v12.811l-15.941,15.942c-0.523,0.521-0.818,1.232-0.818,1.974v27.934h5.588v-26.776
	l15.939-15.942c0.525-0.522,0.818-1.233,0.818-1.974v-13.968h5.588v21.19l-7.563,7.563c-0.524,0.521-0.818,1.232-0.818,1.974v27.934
	h5.586v-26.776l7.563-7.563c0.525-0.522,0.818-1.233,0.818-1.976v-22.346h5.586v58.66h5.586v-58.66h5.589v22.346
	c0,0.742,0.292,1.453,0.818,1.976l7.562,7.563v26.776h5.586v-27.934c0-0.741-0.293-1.452-0.818-1.974l-7.562-7.563v-21.19h5.587
	v13.968c0,0.74,0.293,1.451,0.818,1.974l15.941,15.942v26.776h5.586v-27.934c0-0.741-0.292-1.452-0.818-1.974l-15.941-15.942
	v-12.811h8.379c5.314,0,10.133-2.136,13.66-5.586h15.91l7.563,7.562c0.521,0.525,1.234,0.818,1.975,0.818h11.174v-5.586h-10.018
	l-7.563-7.562c-0.521-0.526-1.234-0.818-1.975-0.818h-13.086c0.83-1.738,1.406-3.614,1.69-5.587h30.95v-5.588h-30.95
	c-0.284-1.971-0.86-3.846-1.688-5.586h10.291C242.478,274.481,243.188,274.189,243.711,273.663L243.711,273.663z M213.803,296.828
	h-67.038c-7.7,0-13.966-6.266-13.966-13.967c0-7.7,6.266-13.966,13.966-13.966c1.595,0,3.19,0.284,4.737,0.845
	c0.904,0.328,1.902,0.172,2.659-0.415c0.759-0.584,1.163-1.514,1.073-2.467l-0.09-0.756c0-4.62,3.76-8.381,8.379-8.381
	c1.289,0,2.58,0.331,3.83,0.981c0.669,0.347,1.442,0.407,2.157,0.176c0.712-0.235,1.302-0.747,1.636-1.416
	c3.329-6.732,10.04-10.913,17.519-10.913c10.782,0,19.552,8.77,19.552,19.477c-0.004,0.067-0.014,0.262-0.014,0.329
	c0,0.821,0.365,1.604,0.992,2.136c0.629,0.53,1.458,0.759,2.271,0.618c0.845-0.144,1.611-0.214,2.336-0.214
	c7.703,0,13.967,6.266,13.967,13.966C227.77,290.563,221.506,296.828,213.803,296.828L213.803,296.828z M213.803,296.828"/>
<path stroke="#FFFFFF" stroke-width="3" d="M307.898,311.374c-34.4,0-62.386,27.985-62.386,62.385
	c0,22.209,6.756,31.109,39.218,73.906c5.635,7.431,12.022,15.848,19.331,25.59c0.904,1.208,2.326,1.921,3.837,1.921
	s2.933-0.713,3.842-1.921c7.262-9.69,13.623-18.079,19.233-25.479c32.539-42.916,39.311-51.849,39.311-74.017
	C370.284,339.359,342.299,311.374,307.898,311.374L307.898,311.374z M323.324,441.979c-4.608,6.075-9.72,12.819-15.428,20.408
	c-5.745-7.638-10.887-14.416-15.521-20.523c-31.575-41.628-37.266-49.125-37.266-68.105c0-29.108,23.682-52.787,52.788-52.787
	c29.107,0,52.788,23.679,52.788,52.787C360.687,392.7,354.98,400.224,323.324,441.979L323.324,441.979z M323.324,441.979"/>
<path stroke="#FFFFFF" stroke-width="3" d="M307.898,340.166c-18.524,0-33.592,15.069-33.592,33.593
	c0,18.521,15.067,33.59,33.592,33.59c18.522,0,33.592-15.068,33.592-33.59C341.49,355.235,326.421,340.166,307.898,340.166
	L307.898,340.166z M307.898,397.753c-13.229,0-23.994-10.762-23.994-23.994s10.765-23.993,23.994-23.993
	c13.231,0,23.994,10.761,23.994,23.993S321.13,397.753,307.898,397.753L307.898,397.753z M307.898,397.753"/>
<path fill="#FFFFFF" stroke="#FFFFFF" stroke-width="3" stroke-miterlimit="10" d="M307.898,320.171
	c-29.106,0-52.788,23.681-52.788,52.788c0,18.978,5.69,26.478,37.266,68.104c4.634,6.109,9.775,12.889,15.521,20.523
	c5.708-7.587,10.819-14.33,15.428-20.406c31.656-41.756,37.362-49.279,37.362-68.222
	C360.687,343.852,337.006,320.171,307.898,320.171z M307.898,406.55c-18.524,0-33.592-15.069-33.592-33.591
	c0-18.523,15.067-33.592,33.592-33.592c18.522,0,33.592,15.068,33.592,33.592C341.49,391.48,326.421,406.55,307.898,406.55z"/>
<path fill="#FFFFFF" stroke="#FFFFFF" stroke-width="3" stroke-miterlimit="10" d="M307.898,348.967
	c-13.229,0-23.994,10.76-23.994,23.992c0,13.231,10.765,23.994,23.994,23.994c13.231,0,23.994-10.763,23.994-23.994
	C331.893,359.727,321.13,348.967,307.898,348.967z"/>
<text transform="matrix(1 0 0 1 6.7383 20.0879)" font-family="'MyriadPro-Regular'" font-size="24">Content Delivery Network Services</text>
<path stroke="#FFFFFF" d="M348.355,239.268c0,3.58-2.912,6.492-6.49,6.492v4.328c3.578,0,6.49,2.91,6.49,6.49h4.328
	c0-3.58,2.911-6.49,6.492-6.49v-4.328c-3.581,0-6.492-2.912-6.492-6.492H348.355L348.355,239.268z M350.52,250.152
	c-0.632-0.85-1.381-1.596-2.23-2.23c0.85-0.631,1.599-1.379,2.23-2.23c0.633,0.852,1.381,1.6,2.231,2.23
	C351.9,248.557,351.152,249.303,350.52,250.152L350.52,250.152z M350.52,250.152"/>
<path stroke="#FFFFFF" stroke-width="2" d="M14.27,200.54c0,5.293-4.311,9.6-9.6,9.6v6.403c5.289,0,9.6,4.308,9.6,9.601h6.4
	c0-5.293,4.307-9.601,9.602-9.601v-6.403c-5.295,0-9.602-4.307-9.602-9.6H14.27L14.27,200.54z M17.471,216.642
	c-0.936-1.258-2.041-2.367-3.297-3.3c1.256-0.935,2.361-2.042,3.297-3.3c0.936,1.258,2.041,2.365,3.299,3.3
	C19.512,214.274,18.406,215.384,17.471,216.642L17.471,216.642z M17.471,216.642"/>
<path stroke="#FFFFFF" d="M146.789,443.724c0,3.362-2.739,6.104-6.103,6.104v4.066c3.363,0,6.103,2.737,6.103,6.104h4.067
	c0-3.366,2.739-6.104,6.104-6.104v-4.066c-3.364,0-6.104-2.741-6.104-6.104H146.789L146.789,443.724z M148.824,453.956
	c-0.595-0.798-1.3-1.502-2.099-2.097c0.799-0.593,1.504-1.297,2.099-2.097c0.593,0.8,1.296,1.504,2.097,2.097
	C150.12,452.454,149.417,453.158,148.824,453.956L148.824,453.956z M148.824,453.956"/>
</svg>
