<?xml version="1.0" encoding="utf-8"?>
<!-- Generator: Adobe Illustrator 15.1.0, SVG Export Plug-In  -->
<!DOCTYPE svg PUBLIC "-//W3C//DTD SVG 1.1//EN" "http://www.w3.org/Graphics/SVG/1.1/DTD/svg11.dtd" [
	<!ENTITY ns_flows "http://ns.adobe.com/Flows/1.0/">
]>
<svg version="1.1"
	 xmlns="http://www.w3.org/2000/svg" xmlns:xlink="http://www.w3.org/1999/xlink" xmlns:a="http://ns.adobe.com/AdobeSVGViewerExtensions/3.0/"
	 x="0px" y="0px" width="500px" height="500px" viewBox="-67.682 -63.48 500 500" enable-background="new -67.682 -63.48 500 500"
	 xml:space="preserve">
<defs>
</defs>
<path fill="none" stroke="#010101" stroke-width="5" stroke-linecap="square" stroke-linejoin="round" stroke-dasharray="0,12" d="
	M4.744,205.265C-10.594,109.853,54.329,20.084,149.747,4.74c95.412-15.322,185.188,49.598,200.509,145.017
	c15.34,95.4-49.577,185.184-144.996,200.522C109.847,365.61,20.073,300.682,4.744,205.265z"/>
<path d="M157.065,132.527c-3.901,0-7.077,3.174-7.077,7.075h4.72c0-1.299,1.057-2.359,2.357-2.359c1.304,0,2.359,1.06,2.359,2.359
	h4.719C164.144,135.701,160.967,132.527,157.065,132.527L157.065,132.527z M157.065,132.527"/>
<path d="M175.937,132.527c-3.899,0-7.077,3.174-7.077,7.075h4.719c0-1.299,1.056-2.359,2.358-2.359c1.304,0,2.36,1.06,2.36,2.359
	h4.717C183.014,135.701,179.84,132.527,175.937,132.527L175.937,132.527z M175.937,132.527"/>
<path d="M166.501,196.214c-5.202,0-9.436,4.232-9.436,9.436c0,5.202,4.233,9.435,9.436,9.435c5.204,0,9.436-4.233,9.436-9.435
	C175.937,200.446,171.705,196.214,166.501,196.214L166.501,196.214z M166.501,210.367c-2.602,0-4.719-2.117-4.719-4.717
	c0-2.602,2.117-4.719,4.719-4.719s4.72,2.117,4.72,4.719C171.221,208.25,169.103,210.367,166.501,210.367L166.501,210.367z
	 M166.501,210.367"/>
<path d="M223.115,224.52v-30.666c0-19.508-15.873-35.382-35.385-35.382h-2.569c0.84-0.738,1.631-1.524,2.38-2.357h2.548
	c6.505,0,11.795-5.292,11.795-11.794v-4.157c2.842-1.905,4.717-5.146,4.717-8.817c0-3.685-1.889-6.929-4.745-8.833
	c-0.314-19.241-16.037-34.805-35.354-34.805c-19.315,0-35.04,15.564-35.354,34.805c-2.854,1.904-4.747,5.148-4.747,8.833
	c0,5.853,4.763,10.614,10.617,10.614h1.605c1.104,6.539,4.442,12.309,9.218,16.512h-2.569c-19.51,0-35.383,15.874-35.383,35.382
	v30.666H95.737v4.717h141.529v-4.717H223.115z M197.166,144.32c0,3.578-2.68,6.512-6.129,6.979c1.633-2.842,2.781-5.992,3.342-9.339
	h1.609c0.402,0,0.786-0.074,1.178-0.118V144.32z M201.884,131.346c0,3.25-2.646,5.897-5.896,5.897h-1.181v-11.793h1.181
	C199.238,125.449,201.884,128.096,201.884,131.346L201.884,131.346z M138.195,137.243h-1.178c-3.253,0-5.9-2.647-5.9-5.897
	s2.647-5.896,5.9-5.896h1.178V137.243z M137.018,120.732c-0.367,0-0.712,0.071-1.068,0.107
	c1.161-15.858,14.405-28.415,30.552-28.415c16.147,0,29.391,12.557,30.554,28.415c-0.358-0.037-0.703-0.107-1.066-0.107h-1.609
	c-2.255-13.366-13.881-23.587-27.878-23.587s-25.622,10.222-27.878,23.587H137.018z M190.087,125.39
	c-17.023-0.6-28.305-7.561-28.305-14.093c0-1.302-1.052-2.359-2.357-2.359c-1.305,0-2.359,1.057-2.359,2.359
	c0,5.894-6.095,10.778-14.015,11.645c1.256-11.831,11.295-21.081,23.45-21.081C179.486,101.86,190.054,112.413,190.087,125.39
	L190.087,125.39z M142.914,137.243v-9.567c7.366-0.639,13.616-4.19,16.737-9.166c4.937,6.537,16.467,11.14,30.438,11.608v7.124
	c0,5.315-1.786,10.205-4.762,14.154h-18.826v4.718h14.093c-1.355,1.013-2.814,1.885-4.371,2.594c-6.189,2.813-13.255,2.813-19.448,0
	C148.614,154.996,142.914,146.783,142.914,137.243L142.914,137.243z M159.211,164.563c2.329,0.623,4.769,0.986,7.29,0.986
	c2.524,0,4.96-0.363,7.293-0.986l-7.293,14.582L159.211,164.563z M162.685,182.06h-4.16l-9.437-18.869h4.161L162.685,182.06z
	 M179.754,163.191h4.161l-9.438,18.869h-4.159L179.754,163.191z M121.683,193.854v30.666h-7.077v-30.666
	c0-16.427,13-29.839,29.243-30.59l9.4,18.796h-19.772C126.975,182.06,121.683,187.352,121.683,193.854L121.683,193.854z
	 M206.601,224.52h-80.2v-30.666c0-3.901,3.174-7.075,7.076-7.075h66.05c3.901,0,7.074,3.173,7.074,7.075V224.52z M218.396,224.52
	h-7.078v-30.666c0-6.502-5.291-11.794-11.792-11.794h-19.772l9.398-18.796c16.244,0.75,29.244,14.163,29.244,30.59V224.52z
	 M218.396,224.52"/>
<rect x="197.166" y="203.291" width="4.718" height="16.511"/>
<rect x="197.166" y="193.854" width="4.718" height="4.718"/>
<rect x="218.396" y="108.938" width="4.719" height="4.716"/>
<rect x="218.396" y="118.373" width="4.719" height="4.718"/>
<rect x="218.396" y="127.809" width="4.719" height="4.718"/>
<rect x="109.889" y="137.243" width="4.717" height="4.717"/>
<rect x="109.889" y="146.679" width="4.717" height="4.718"/>
<rect x="109.889" y="156.115" width="4.717" height="4.717"/>
<path stroke="#FFFFFF" stroke-width="2" d="M186.293,343.511c0,3.943-3.21,7.151-7.151,7.151v4.77c3.941,0,7.151,3.209,7.151,7.152
	h4.769c0-3.943,3.208-7.152,7.153-7.152v-4.77c-3.945,0-7.153-3.208-7.153-7.151H186.293L186.293,343.511z M188.677,355.506
	c-0.695-0.938-1.519-1.764-2.454-2.458c0.936-0.697,1.759-1.521,2.454-2.458c0.699,0.938,1.522,1.761,2.458,2.458
	C190.199,353.743,189.376,354.569,188.677,355.506L188.677,355.506z M188.677,355.506"/>
<path stroke="#FFFFFF" d="M42.314,47.517c0,5.291-4.31,9.604-9.604,9.604v6.398c5.294,0,9.604,4.308,9.604,9.604h6.4
	c0-5.297,4.311-9.604,9.604-9.604v-6.398c-5.293,0-9.604-4.313-9.604-9.604H42.314L42.314,47.517z M45.515,63.618
	c-0.935-1.256-2.043-2.363-3.301-3.299c1.258-0.934,2.366-2.041,3.301-3.3c0.935,1.259,2.042,2.366,3.301,3.3
	C47.557,61.255,46.449,62.362,45.515,63.618L45.515,63.618z M45.515,63.618"/>
<path d="M100.813,202.618c-4.477-0.73-9.063,0.748-12.267,3.951c-5.503,5.504-5.503,14.463,0,19.967
	c0.392,0.39,0.905,0.587,1.417,0.587c0.513,0,1.027-0.197,1.418-0.587c0.782-0.783,0.782-2.051,0-2.834
	c-3.942-3.943-3.942-10.357,0-14.3c2.294-2.295,5.579-3.351,8.787-2.829c1.094,0.177,2.123-0.563,2.302-1.657
	C102.647,203.826,101.907,202.796,100.813,202.618L100.813,202.618z M100.813,202.618"/>
<path d="M108.501,206.553l-0.021-0.021c-0.787-0.78-2.052-0.769-2.831,0.017c-0.778,0.787-0.769,2.06,0.018,2.84l0.022,0.021
	c0.391,0.386,0.897,0.579,1.404,0.579c0.516,0,1.033-0.199,1.426-0.597C109.298,208.604,109.288,207.332,108.501,206.553
	L108.501,206.553z M108.501,206.553"/>
<path d="M98.532,194.816c-11.936,0-21.645,9.71-21.645,21.645c0,11.935,9.709,21.645,21.645,21.645
	c11.934,0,21.645-9.709,21.645-21.645C120.177,204.526,110.466,194.816,98.532,194.816L98.532,194.816z M98.532,234.096
	c-9.725,0-17.637-7.911-17.637-17.636c0-9.724,7.912-17.636,17.637-17.636c9.724,0,17.636,7.912,17.636,17.636
	C116.168,226.186,108.256,234.096,98.532,234.096L98.532,234.096z M98.532,234.096"/>
<path d="M143.51,246.169c0.021-0.322,0.032-0.647,0.032-0.972c0-7.483-5.4-13.725-12.507-15.047
	c1.924-4.433,2.936-9.27,2.936-14.132c0-19.54-15.897-35.438-35.438-35.438c-8.329,0-15.994,2.889-22.05,7.716
	c-2.078-3.481-5.88-5.705-10.035-5.705c-5.351,0-9.919,3.634-11.269,8.618c-0.191-0.014-0.384-0.022-0.575-0.022
	c-4.068,0.001-7.378,3.311-7.378,7.379c0,0.822,0.137,1.634,0.405,2.413c0.28,0.807,1.04,1.348,1.896,1.348h16.319
	c-1.771,4.215-2.753,8.84-2.753,13.692c0,8.103,2.805,16.021,7.9,22.305c0.01,0.011,0.018,0.024,0.026,0.036l15.729,20.16
	c-4.462,0.779-8.355,1.988-11.396,3.556c-5.523,2.848-6.682,6.078-6.682,8.288c0,3.774,3.351,7.156,9.438,9.521
	c5.486,2.131,12.739,3.306,20.424,3.306c7.683,0,14.936-1.174,20.422-3.306c6.087-2.364,9.438-5.746,9.438-9.521
	c0-2.21-1.158-5.44-6.681-8.288c-3.039-1.566-6.933-2.777-11.393-3.556l2.331-2.986h35.177c1.076,0,1.96-0.849,2.003-1.923
	c0.005-0.099,0.008-0.198,0.008-0.297C149.837,249.639,147.069,246.599,143.51,246.169L143.51,246.169z M51.243,198.319
	c0.127-1.744,1.584-3.123,3.36-3.123c0.477,0,0.938,0.098,1.374,0.292c0.6,0.27,1.294,0.226,1.855-0.114
	c0.563-0.34,0.923-0.936,0.964-1.591c0.249-4.028,3.61-7.185,7.651-7.185c2.998,0,5.718,1.763,6.96,4.449
	c-2.152,2.167-4.029,4.61-5.569,7.271H51.243z M74.234,235.962c-0.024-0.035-0.05-0.07-0.077-0.102
	c-4.551-5.583-7.056-12.629-7.056-19.842c0-17.331,14.099-31.43,31.431-31.43c17.331,0,31.431,14.099,31.431,31.43
	c0,4.907-1.1,9.596-3.262,13.948c-6.562,0.657-11.964,5.482-13.402,11.846c-0.448-0.065-0.903-0.097-1.362-0.097
	c-5.182,0-9.397,4.214-9.397,9.395c0,1.049,0.174,2.083,0.517,3.073c0.28,0.809,1.04,1.35,1.895,1.35h2.615l-9.033,11.573
	L74.234,235.962z M124.385,270.363c0,1.949-2.573,4.11-6.88,5.783c-5.037,1.957-11.775,3.035-18.973,3.035
	c-7.199,0-13.936-1.079-18.972-3.035c-4.31-1.673-6.88-3.836-6.88-5.783c0-2.97,6.293-6.779,16.891-8.227l7.381,9.459
	c0.38,0.487,0.963,0.771,1.58,0.771s1.2-0.285,1.58-0.771l7.384-9.46C118.092,263.584,124.385,267.393,124.385,270.363
	L124.385,270.363z M106.563,251.524c-0.011-0.138-0.016-0.275-0.016-0.414c0-2.97,2.417-5.387,5.389-5.387
	c0.763,0,1.503,0.157,2.198,0.469c0.6,0.269,1.293,0.226,1.856-0.115c0.563-0.34,0.922-0.935,0.963-1.59
	c0.367-5.939,5.321-10.59,11.277-10.59c6.231,0,11.303,5.071,11.303,11.302c0,0.899-0.108,1.795-0.318,2.666
	c-0.168,0.697,0.048,1.43,0.568,1.925c0.519,0.492,1.263,0.671,1.949,0.468c0.295-0.088,0.601-0.132,0.907-0.132
	c1.096,0,2.064,0.555,2.639,1.399H106.563z M106.563,251.524"/>
<path fill="#FFFFFF" d="M107.614,255.377h-2.613c-0.854,0-1.615-0.541-1.895-1.349c-0.344-0.992-0.518-2.025-0.518-3.074
	c0-5.181,4.217-9.395,9.398-9.395c0.459,0,0.913,0.032,1.362,0.096c1.438-6.363,6.841-11.188,13.402-11.845
	c2.162-4.352,3.261-9.041,3.261-13.947c0-17.332-14.1-31.43-31.43-31.43c-17.333,0-31.432,14.098-31.432,31.43
	c0,7.211,2.506,14.258,7.056,19.84c0.027,0.033,0.053,0.067,0.078,0.102l24.298,31.144L107.614,255.377z M76.938,216.304
	c0-11.934,9.709-21.645,21.645-21.645c11.934,0,21.644,9.71,21.644,21.645c0,11.935-9.71,21.645-21.644,21.645
	C86.647,237.949,76.938,228.239,76.938,216.304z"/>
<path fill="#FFFFFF" d="M116.218,216.304c0-9.724-7.911-17.636-17.635-17.636c-9.726,0-17.637,7.912-17.637,17.636
	c0,9.726,7.911,17.636,17.637,17.636C108.307,233.94,116.218,226.03,116.218,216.304z M105.699,206.393
	c0.779-0.786,2.044-0.797,2.831-0.018l0.021,0.021c0.786,0.779,0.796,2.052,0.019,2.839c-0.394,0.396-0.91,0.596-1.426,0.596
	c-0.509,0-1.016-0.192-1.405-0.579l-0.021-0.021C104.931,208.453,104.921,207.18,105.699,206.393z M91.433,226.38
	c-0.392,0.391-0.905,0.587-1.418,0.587s-1.025-0.196-1.417-0.587c-5.505-5.504-5.505-14.463,0-19.967
	c3.204-3.204,7.79-4.682,12.267-3.951c1.094,0.178,1.834,1.208,1.655,2.299c-0.178,1.093-1.207,1.834-2.3,1.656
	c-3.209-0.522-6.493,0.534-8.787,2.829c-3.943,3.943-3.943,10.357,0,14.3C92.215,224.329,92.215,225.598,91.433,226.38z"/>
<path fill="#FFFFFF" d="M73.459,190.893c-1.243-2.686-3.962-4.45-6.961-4.45c-4.041,0-7.402,3.157-7.651,7.185
	c-0.04,0.656-0.401,1.25-0.963,1.591c-0.563,0.34-1.256,0.383-1.855,0.113c-0.436-0.194-0.897-0.292-1.375-0.292
	c-1.775,0-3.232,1.379-3.361,3.123h16.597C69.429,195.503,71.305,193.061,73.459,190.893z"/>
<path fill="#FFFFFF" d="M142.691,249.969c-0.307,0-0.612,0.044-0.907,0.132c-0.687,0.204-1.431,0.025-1.95-0.468
	c-0.521-0.495-0.736-1.229-0.567-1.925c0.21-0.871,0.317-1.767,0.317-2.667c0-6.231-5.071-11.302-11.302-11.302
	c-5.956,0-10.91,4.651-11.277,10.59c-0.041,0.656-0.4,1.251-0.964,1.59c-0.563,0.341-1.256,0.384-1.856,0.115
	c-0.695-0.311-1.435-0.469-2.197-0.469c-2.972,0-5.389,2.419-5.389,5.388c0,0.139,0.005,0.276,0.016,0.414h38.715
	C144.756,250.524,143.787,249.969,142.691,249.969z"/>
<path fill="#FFFFFF" d="M100.163,271.44c-0.381,0.486-0.963,0.771-1.58,0.771s-1.2-0.285-1.58-0.771l-7.381-9.459
	c-10.6,1.448-16.893,5.256-16.893,8.227c0,1.947,2.572,4.111,6.881,5.783c5.036,1.957,11.773,3.035,18.973,3.035
	c7.197,0,13.935-1.078,18.973-3.035c4.307-1.672,6.879-3.835,6.879-5.783c0-2.97-6.293-6.779-16.889-8.227L100.163,271.44z"/>
<polygon fill="#FFFFFF" points="236.389,89.998 336.411,49.438 337.36,135.043 "/>
<g>
	<defs>
		<rect id="SVGID_6_" x="231.043" y="41.829" width="111.015" height="111.275"/>
	</defs>
	<clipPath id="SVGID_8_">
		<use xlink:href="#SVGID_6_"  overflow="visible"/>
	</clipPath>
	<path clip-path="url(#SVGID_8_)" d="M340.989,42.27c-0.611-0.402-1.384-0.464-2.055-0.171L232.339,88.826
		c-0.788,0.344-1.296,1.123-1.296,1.983c0,0.861,0.508,1.64,1.296,1.984l52.002,22.795v23.39c0,0.875,0.526,1.667,1.337,2.002
		c0.269,0.11,0.55,0.165,0.828,0.165c0.564,0,1.119-0.22,1.531-0.634l16.221-16.193l34.677,15.202
		c0.278,0.122,0.574,0.181,0.87,0.181c0.416,0,0.828-0.119,1.185-0.352c0.613-0.399,0.983-1.083,0.983-1.814V44.082
		C341.973,43.35,341.603,42.668,340.989,42.27L340.989,42.27z M285.185,111.226l-5.848-2.562l20.496-26.526
		c0.732-0.948,0.558-2.308-0.39-3.041c-0.948-0.73-2.308-0.555-3.039,0.392l-21.157,27.381l-36.641-16.062L332.9,49.475
		L285.185,111.226z M288.674,133.754v-16.265l11.321,4.961L288.674,133.754z M337.639,134.221l-48.363-21.201l48.363-62.59V134.221z
		 M337.639,134.221"/>
</g>
<path d="M305.491,131.789c-0.946-0.73-2.307-0.557-3.039,0.391l-13.269,17.174c-0.732,0.946-0.558,2.307,0.388,3.039
	c0.395,0.305,0.861,0.454,1.323,0.454c0.648,0,1.291-0.29,1.716-0.844l13.271-17.173
	C306.612,133.882,306.438,132.521,305.491,131.789L305.491,131.789z M305.491,131.789"/>
<path d="M260.758,148.947c-0.947-0.732-2.308-0.559-3.039,0.386l-0.015,0.018c-0.733,0.949-0.56,2.309,0.387,3.041
	c0.396,0.307,0.861,0.455,1.325,0.455c0.647,0,1.286-0.29,1.714-0.843l0.015-0.017C261.877,151.04,261.703,149.677,260.758,148.947
	L260.758,148.947z M260.758,148.947"/>
<path d="M277.536,127.229c-0.948-0.732-2.308-0.556-3.038,0.39l-12.525,16.21c-0.733,0.946-0.557,2.307,0.39,3.038
	c0.395,0.306,0.861,0.453,1.322,0.453c0.647,0,1.289-0.289,1.717-0.842l12.524-16.21
	C278.656,129.322,278.482,127.959,277.536,127.229L277.536,127.229z M277.536,127.229"/>
<path d="M304.378,72.715c-0.946-0.732-2.307-0.558-3.041,0.389l-0.025,0.034c-0.732,0.946-0.559,2.307,0.387,3.039
	c0.396,0.305,0.863,0.452,1.326,0.452c0.646,0,1.287-0.288,1.715-0.839l0.027-0.034C305.497,74.808,305.324,73.449,304.378,72.715
	L304.378,72.715z M304.378,72.715"/>
<circle fill="#FFFFFF" cx="261.163" cy="316.299" r="23.798"/>
<g>
	<defs>
		<rect id="SVGID_3_" x="230.467" y="290.931" width="61.493" height="50.694"/>
	</defs>
	<clipPath id="SVGID_10_">
		<use xlink:href="#SVGID_3_"  overflow="visible"/>
	</clipPath>
	<path clip-path="url(#SVGID_10_)" d="M245.071,298.488c-0.469-0.468-1.229-0.469-1.696,0c-0.017,0.016-0.034,0.033-0.048,0.049
		c-0.443,0.493-0.403,1.252,0.089,1.694c0.229,0.207,0.518,0.308,0.804,0.308c0.316,0,0.632-0.125,0.866-0.371
		C245.538,299.7,245.534,298.952,245.071,298.488L245.071,298.488z M245.071,298.488"/>
	<path clip-path="url(#SVGID_10_)" d="M291.019,299.618c-1.696-3.384-5.719-5.294-11.33-5.377c-0.666-0.01-1.207,0.52-1.218,1.183
		c-0.009,0.662,0.52,1.208,1.183,1.218c4.671,0.069,7.945,1.507,9.22,4.051c1.429,2.851,0.433,6.972-2.8,11.659
		c-0.819-5.227-3.258-10.046-7.07-13.858c-4.212-4.212-9.795-6.802-15.721-7.292c-5.856-0.486-11.723,1.09-16.513,4.44
		c-0.543,0.38-0.676,1.127-0.296,1.67c0.38,0.543,1.128,0.677,1.67,0.295c6.697-4.681,15.139-5.311,22.25-2.163
		c-0.799,1.128-1.238,2.482-1.238,3.897c0,3.721,3.026,6.749,6.747,6.749c1.761,0,3.401-0.667,4.638-1.841
		c2.036,3.255,3.213,6.972,3.412,10.873c-1.544,1.831-3.353,3.652-5.408,5.437l-4.807-8.327c-0.16-0.276-0.422-0.478-0.729-0.56
		c-0.292-0.078-0.602-0.042-0.867,0.098c-0.014,0.006-0.027,0.013-0.043,0.021l-19.463,11.239c-0.575,0.33-0.771,1.064-0.439,1.639
		l2.255,3.906l-3.272,1.887c-0.574,0.333-0.771,1.066-0.439,1.641c0.223,0.385,0.625,0.6,1.04,0.6c0.204,0,0.41-0.052,0.599-0.162
		l3.272-1.889l1.438,2.494c-2.896,1.051-5.684,1.817-8.321,2.287c-1.318-0.862-2.56-1.865-3.7-3.004
		c-7.611-7.612-8.85-19.652-2.942-28.63c0.364-0.553,0.21-1.298-0.343-1.661c-0.554-0.366-1.299-0.212-1.662,0.342
		c-2.763,4.199-4.196,9.176-4.125,14.205c-0.04,0.039-0.079,0.08-0.115,0.125c-0.379,0.474-0.744,0.953-1.085,1.425
		c-4.299,5.935-5.441,11.322-3.221,15.169c1.877,3.251,5.907,4.972,11.51,4.972c1.028,0,2.108-0.058,3.238-0.175
		c0.638-0.066,1.283-0.15,1.938-0.252c3.866,2.319,8.301,3.556,12.927,3.556c6.729,0,13.056-2.62,17.814-7.379
		c4.759-4.759,7.38-11.086,7.38-17.816c0-0.119-0.002-0.239-0.004-0.357c0.42-0.523,0.821-1.046,1.201-1.571
		C291.71,308.676,292.931,303.433,291.019,299.618L291.019,299.618z M275.902,303.689c-2.397,0-4.349-1.952-4.349-4.349
		c0-1.031,0.361-2.014,1.013-2.79c0.021,0.011,0.041,0.022,0.061,0.033c1.676,0.976,3.251,2.178,4.679,3.606
		c0.649,0.649,1.253,1.33,1.813,2.041c0.005,0.007,0.01,0.015,0.015,0.021C278.317,303.162,277.155,303.689,275.902,303.689
		L275.902,303.689z M233.651,332.204c-1.624-2.815-0.655-7.143,2.651-11.944c0.829,5.225,3.306,10.102,7.068,13.865
		c0.622,0.623,1.272,1.208,1.947,1.756C239.508,336.341,235.277,335.017,233.651,332.204L233.651,332.204z M272.835,315.468
		l4.574,7.922l-7.24-1.939L272.835,315.468z M276.788,325.708l-14.445,8.341l2.038-7.609l2.538,0.266
		c0.042,0.005,0.085,0.007,0.125,0.007c0.47,0,0.902-0.276,1.096-0.712l1.039-2.331L276.788,325.708z M270.097,315.718l-3.794,8.51
		l-9.268-0.969L270.097,315.718z M255.45,325.506l6.515,0.68l-1.94,7.241L255.45,325.506z M277.306,332.427
		c-4.305,4.306-10.029,6.678-16.118,6.678c-3.208,0-6.313-0.659-9.163-1.911c2.032-0.495,4.131-1.143,6.283-1.942l1.087,1.883
		c0.223,0.386,0.626,0.602,1.04,0.602c0.204,0,0.41-0.052,0.599-0.161l19.463-11.238c0.574-0.331,0.771-1.064,0.439-1.64
		l-1.17-2.026c1.476-1.264,2.839-2.547,4.079-3.844C283.282,323.964,281.012,328.721,277.306,332.427L277.306,332.427z
		 M277.306,332.427"/>
</g>
<path d="M252.786,299.272c-4.764,0-8.638,3.875-8.638,8.639s3.874,8.638,8.638,8.638s8.639-3.875,8.639-8.638
	S257.55,299.272,252.786,299.272L252.786,299.272z M252.786,314.149c-3.439,0-6.238-2.799-6.238-6.238
	c0-3.441,2.799-6.24,6.238-6.24c3.44,0,6.238,2.799,6.238,6.24C259.024,311.35,256.227,314.149,252.786,314.149L252.786,314.149z
	 M252.786,314.149"/>
<path d="M250.606,327.934c-0.332-0.574-1.064-0.77-1.639-0.438l-2.281,1.316c-0.574,0.333-0.771,1.065-0.44,1.64
	c0.224,0.385,0.626,0.601,1.04,0.601c0.204,0,0.41-0.053,0.6-0.163l2.281-1.316C250.741,329.242,250.937,328.508,250.606,327.934
	L250.606,327.934z M250.606,327.934"/>
<path stroke="#000000" stroke-width="0.5" d="M266.301,207.915h-0.045c-0.715,0-1.293,0.579-1.293,1.293s0.578,1.293,1.293,1.293
	h0.051c0.714-0.002,1.29-0.583,1.288-1.298C267.592,208.49,267.013,207.915,266.301,207.915L266.301,207.915z M266.301,207.915"/>
<path stroke="#000000" stroke-width="0.5" d="M266.252,188.253h-0.002c-3.852,0.001-6.984,3.135-6.982,6.986
	c0,1.866,0.727,3.621,2.047,4.939s3.072,2.045,4.938,2.045h0.002c3.852-0.002,6.984-3.136,6.983-6.988
	C273.236,191.385,270.104,188.253,266.252,188.253L266.252,188.253z M266.254,199.636h-0.002c-1.175,0-2.278-0.457-3.109-1.287
	c-0.83-0.83-1.288-1.935-1.288-3.109c-0.001-2.425,1.972-4.397,4.396-4.398h0.001c2.424,0,4.397,1.972,4.398,4.396
	C270.65,197.663,268.678,199.635,266.254,199.636L266.254,199.636z M266.254,199.636"/>
<path stroke="#000000" stroke-width="0.5" d="M276.9,194.324c-0.24-0.24-0.574-0.379-0.915-0.379s-0.673,0.139-0.914,0.379
	s-0.379,0.574-0.379,0.915c0,0.34,0.138,0.674,0.379,0.914c0.241,0.241,0.573,0.379,0.914,0.379s0.675-0.138,0.915-0.379
	c0.24-0.24,0.379-0.574,0.379-0.914C277.279,194.898,277.141,194.564,276.9,194.324L276.9,194.324z M276.9,194.324"/>
<path stroke="#000000" stroke-width="0.5" d="M257.434,194.324c-0.24-0.24-0.575-0.379-0.914-0.379
	c-0.341,0-0.675,0.139-0.915,0.379c-0.241,0.24-0.38,0.574-0.38,0.915c0,0.34,0.139,0.674,0.38,0.914
	c0.24,0.241,0.574,0.379,0.915,0.379c0.339,0,0.674-0.138,0.914-0.379c0.24-0.24,0.379-0.574,0.379-0.914
	C257.813,194.898,257.674,194.564,257.434,194.324L257.434,194.324z M257.434,194.324"/>
<path stroke="#000000" stroke-width="0.5" d="M262.3,185.894c-0.241-0.241-0.573-0.379-0.915-0.379c-0.34,0-0.673,0.138-0.914,0.379
	c-0.241,0.24-0.378,0.574-0.378,0.914s0.137,0.675,0.378,0.914c0.24,0.242,0.574,0.38,0.914,0.38c0.342,0,0.674-0.138,0.915-0.38
	c0.241-0.239,0.378-0.574,0.378-0.914S262.541,186.134,262.3,185.894L262.3,185.894z M262.3,185.894"/>
<path stroke="#000000" stroke-width="0.5" d="M272.033,202.753c-0.241-0.24-0.574-0.378-0.915-0.378
	c-0.34,0-0.673,0.138-0.915,0.378c-0.24,0.24-0.377,0.572-0.377,0.915c0,0.34,0.137,0.674,0.377,0.914
	c0.242,0.241,0.575,0.379,0.915,0.379c0.341,0,0.674-0.138,0.915-0.379c0.242-0.24,0.378-0.574,0.378-0.914
	C272.411,203.328,272.275,202.994,272.033,202.753L272.033,202.753z M272.033,202.753"/>
<path stroke="#000000" stroke-width="0.5" d="M262.3,202.753c-0.241-0.24-0.573-0.378-0.915-0.378c-0.34,0-0.673,0.138-0.914,0.378
	s-0.378,0.572-0.378,0.915c0,0.34,0.137,0.674,0.378,0.914c0.241,0.241,0.574,0.379,0.914,0.379c0.342,0,0.674-0.138,0.915-0.379
	c0.241-0.24,0.38-0.574,0.38-0.914C262.68,203.328,262.541,202.994,262.3,202.753L262.3,202.753z M262.3,202.753"/>
<path stroke="#000000" stroke-width="0.5" d="M272.033,185.894c-0.24-0.241-0.574-0.379-0.914-0.379
	c-0.341,0-0.674,0.138-0.916,0.379c-0.24,0.24-0.379,0.574-0.379,0.914s0.139,0.675,0.379,0.914c0.242,0.242,0.575,0.38,0.916,0.38
	c0.34,0,0.674-0.138,0.914-0.38c0.242-0.239,0.379-0.574,0.379-0.914S272.275,186.134,272.033,185.894L272.033,185.894z
	 M272.033,185.894"/>
<path stroke="#000000" stroke-width="0.5" d="M275.597,189.457c-0.241-0.24-0.575-0.377-0.915-0.377s-0.674,0.137-0.914,0.377
	c-0.241,0.24-0.379,0.574-0.379,0.916c0,0.34,0.138,0.673,0.379,0.915c0.24,0.24,0.574,0.377,0.914,0.377s0.674-0.137,0.915-0.377
	c0.24-0.242,0.378-0.575,0.378-0.915C275.975,190.031,275.837,189.699,275.597,189.457L275.597,189.457z M275.597,189.457"/>
<path stroke="#000000" stroke-width="0.5" d="M258.736,199.191c-0.24-0.242-0.573-0.379-0.914-0.379
	c-0.34,0-0.674,0.137-0.914,0.379c-0.241,0.239-0.379,0.572-0.379,0.915c0,0.341,0.138,0.673,0.379,0.914
	c0.24,0.241,0.574,0.379,0.914,0.379c0.341,0,0.674-0.138,0.914-0.379c0.241-0.241,0.379-0.573,0.379-0.914
	C259.115,199.763,258.978,199.431,258.736,199.191L258.736,199.191z M258.736,199.191"/>
<path stroke="#000000" stroke-width="0.5" d="M258.736,189.457c-0.24-0.24-0.573-0.377-0.914-0.377c-0.34,0-0.674,0.137-0.914,0.377
	c-0.241,0.242-0.379,0.574-0.379,0.916c0,0.34,0.138,0.673,0.379,0.915c0.24,0.24,0.574,0.377,0.914,0.377
	c0.341,0,0.674-0.137,0.914-0.377c0.241-0.242,0.379-0.575,0.379-0.915C259.115,190.031,258.978,189.697,258.736,189.457
	L258.736,189.457z M258.736,189.457"/>
<path stroke="#000000" stroke-width="0.5" d="M275.597,199.191c-0.241-0.242-0.575-0.379-0.915-0.379s-0.674,0.137-0.914,0.379
	c-0.241,0.24-0.379,0.572-0.379,0.915c0,0.341,0.138,0.673,0.379,0.914c0.24,0.241,0.574,0.379,0.914,0.379s0.674-0.138,0.915-0.379
	c0.24-0.241,0.378-0.573,0.378-0.914C275.975,199.763,275.837,199.431,275.597,199.191L275.597,199.191z M275.597,199.191"/>
<path stroke="#000000" stroke-width="0.5" d="M267.167,204.058c-0.241-0.241-0.575-0.381-0.915-0.381s-0.674,0.14-0.914,0.381
	c-0.24,0.24-0.379,0.574-0.379,0.914s0.139,0.674,0.379,0.914c0.24,0.241,0.574,0.379,0.914,0.379s0.674-0.138,0.915-0.379
	c0.24-0.24,0.379-0.574,0.379-0.914S267.407,204.298,267.167,204.058L267.167,204.058z M267.167,204.058"/>
<path stroke="#000000" stroke-width="0.5" d="M267.167,184.591c-0.241-0.24-0.575-0.38-0.915-0.38s-0.674,0.14-0.914,0.38
	c-0.24,0.239-0.379,0.572-0.379,0.914c0,0.341,0.139,0.674,0.379,0.915c0.24,0.24,0.574,0.378,0.914,0.378s0.674-0.138,0.915-0.378
	c0.24-0.241,0.379-0.574,0.379-0.915C267.546,185.164,267.407,184.831,267.167,184.591L267.167,184.591z M267.167,184.591"/>
<path stroke="#000000" stroke-width="0.5" d="M279.43,185.969c0,2.817,2.291,5.107,5.107,5.107h9.631
	c2.865,0,5.197-2.331,5.197-5.196v-3.508c0-6.958-5.66-12.618-12.617-12.618h-40.992c-6.957,0-12.617,5.66-12.617,12.618v3.508
	c0,2.865,2.332,5.197,5.197,5.197h9.631c2.816,0,5.107-2.291,5.107-5.107v-2.829c0-0.314,0.258-0.57,0.573-0.57h4.101
	c-4.076,2.743-6.761,7.4-6.76,12.673c0.001,0.822,0.069,1.635,0.197,2.43l-8.188,3.241c-3.632,1.438-5.979,4.892-5.979,8.798v16.696
	h-2.587c-0.714,0-1.294,0.58-1.294,1.294c0,0.713,0.58,1.293,1.294,1.293h63.64c0.715,0,1.293-0.58,1.293-1.293
	c0-0.714-0.578-1.294-1.293-1.294h-2.587v-16.711c0-3.896-2.338-7.346-5.958-8.789l-8.203-3.272
	c0.125-0.787,0.191-1.589,0.191-2.401c-0.002-5.269-2.687-9.922-6.76-12.664h4.102c0.314,0,0.572,0.256,0.572,0.57V185.969z
	 M292.898,221.236h-22.637c-0.715,0-1.293,0.579-1.293,1.293c0,0.715,0.578,1.293,1.293,1.293h22.637v2.587h-53.293v-7.761h53.293
	V221.236z M278.928,195.235c0.002,5.017-2.962,9.569-7.549,11.601c-0.652,0.29-0.949,1.054-0.659,1.706
	c0.289,0.653,1.054,0.948,1.706,0.66c3.961-1.755,6.916-5.069,8.27-9.031l7.875,3.141c2.629,1.049,4.328,3.555,4.328,6.387v6.364
	h-53.293v-6.35c0-2.839,1.706-5.348,4.346-6.393l7.87-3.115c1.36,3.947,4.309,7.249,8.259,8.997
	c0.169,0.076,0.347,0.111,0.521,0.111c0.496,0,0.971-0.288,1.184-0.771c0.289-0.652-0.006-1.416-0.66-1.706
	c-4.584-2.029-7.549-6.58-7.549-11.595c-0.002-3.385,1.316-6.568,3.71-8.963c2.293-2.296,5.313-3.602,8.54-3.707h0.85
	C273.468,182.794,278.926,188.389,278.928,195.235L278.928,195.235z M278.857,179.983h-25.21c-1.743,0-3.159,1.417-3.159,3.158
	v0.323h-10.623c-0.715,0-1.293,0.58-1.293,1.294c0,0.716,0.578,1.294,1.293,1.294h10.619c-0.045,1.352-1.154,2.438-2.518,2.438
	h-9.631c-1.439,0-2.61-1.17-2.61-2.609v-3.508c0-5.531,4.501-10.03,10.03-10.03h40.992c5.53,0,10.031,4.499,10.031,10.03v3.508
	c0,1.439-1.172,2.609-2.611,2.609h-9.631c-1.362,0-2.473-1.086-2.518-2.438h10.361c0.715,0,1.293-0.578,1.293-1.294
	c0-0.714-0.578-1.294-1.293-1.294h-10.365v-0.323C282.016,181.4,280.6,179.983,278.857,179.983L278.857,179.983z M278.857,179.983"
	/>
<path stroke="#000000" stroke-width="0.5" d="M266.262,221.615c-0.241-0.241-0.574-0.379-0.916-0.379
	c-0.339,0-0.673,0.138-0.914,0.379c-0.24,0.24-0.379,0.573-0.379,0.914c0,0.34,0.139,0.673,0.379,0.914
	c0.241,0.241,0.575,0.379,0.914,0.379c0.342,0,0.675-0.138,0.916-0.379c0.24-0.241,0.379-0.574,0.379-0.914
	C266.641,222.188,266.502,221.855,266.262,221.615L266.262,221.615z M266.262,221.615"/>
</svg>
