<?xml version="1.0" encoding="utf-8"?>
<!-- Generator: Adobe Illustrator 15.1.0, SVG Export Plug-In  -->
<!DOCTYPE svg PUBLIC "-//W3C//DTD SVG 1.1//EN" "http://www.w3.org/Graphics/SVG/1.1/DTD/svg11.dtd" [
	<!ENTITY ns_flows "http://ns.adobe.com/Flows/1.0/">
]>
<svg version="1.1"
	 xmlns="http://www.w3.org/2000/svg" xmlns:xlink="http://www.w3.org/1999/xlink" xmlns:a="http://ns.adobe.com/AdobeSVGViewerExtensions/3.0/"
	 x="0px" y="0px" width="500px" height="500px" viewBox="-67.215 -76.457 500 500" enable-background="new -67.215 -76.457 500 500"
	 xml:space="preserve">
<defs>
</defs>
<path fill="none" stroke="#010101" stroke-width="5" stroke-linecap="square" stroke-linejoin="round" stroke-dasharray="0,12" d="
	M4.744,205.265C-10.594,109.853,54.327,20.084,149.746,4.74c95.413-15.322,185.187,49.598,200.51,145.017
	c15.34,95.4-49.577,185.184-144.998,200.522C109.847,365.61,20.073,300.682,4.744,205.265z"/>
<path stroke="#FFFFFF" d="M45.799,51.701c0,3.58-2.912,6.492-6.492,6.492v4.328c3.58,0,6.492,2.91,6.492,6.49h4.326
	c0-3.58,2.912-6.49,6.492-6.49v-4.328c-3.58,0-6.492-2.912-6.492-6.492H45.799L45.799,51.701z M47.961,62.585
	c-0.631-0.85-1.379-1.596-2.229-2.23c0.85-0.631,1.598-1.379,2.229-2.23c0.635,0.852,1.381,1.6,2.232,2.23
	C49.342,60.99,48.596,61.736,47.961,62.585L47.961,62.585z M47.961,62.585"/>
<path stroke="#FFFFFF" stroke-width="2" d="M346.176,133.796c0,5.293-4.309,9.6-9.6,9.6v6.403c5.291,0,9.6,4.308,9.6,9.601h6.402
	c0-5.293,4.305-9.601,9.602-9.601v-6.403c-5.297,0-9.602-4.307-9.602-9.6H346.176L346.176,133.796z M349.377,149.898
	c-0.936-1.258-2.041-2.367-3.297-3.3c1.256-0.935,2.361-2.042,3.297-3.3c0.936,1.258,2.043,2.365,3.299,3.3
	C351.42,147.531,350.313,148.64,349.377,149.898L349.377,149.898z M349.377,149.898"/>
<path stroke="#FFFFFF" d="M150.922,340.338c0,3.362-2.738,6.104-6.102,6.104v4.066c3.363,0,6.102,2.737,6.102,6.104h4.068
	c0-3.366,2.738-6.104,6.104-6.104v-4.066c-3.365,0-6.104-2.741-6.104-6.104H150.922L150.922,340.338z M152.957,350.571
	c-0.594-0.798-1.299-1.502-2.098-2.097c0.799-0.593,1.504-1.297,2.098-2.097c0.594,0.8,1.297,1.504,2.098,2.097
	C154.254,349.069,153.551,349.773,152.957,350.571L152.957,350.571z M152.957,350.571"/>
<path stroke="#FFFFFF" stroke-width="4" d="M162.162,108.862c-32.849,0-59.572,26.723-59.572,59.571
	c0,21.208,6.451,29.706,37.449,70.573c5.38,7.095,11.48,15.133,18.459,24.436c0.863,1.153,2.222,1.833,3.664,1.833
	s2.801-0.681,3.668-1.833c6.935-9.254,13.008-17.264,18.366-24.331c31.071-40.98,37.538-49.51,37.538-70.678
	C221.734,135.585,195.011,108.862,162.162,108.862L162.162,108.862z M176.892,233.577c-4.399,5.802-9.28,12.241-14.731,19.488
	c-5.486-7.293-10.396-13.766-14.82-19.599c-30.151-39.75-35.585-46.909-35.585-65.033c0-27.795,22.613-50.407,50.407-50.407
	c27.795,0,50.407,22.611,50.407,50.407C212.569,186.521,207.121,193.705,176.892,233.577L176.892,233.577z M176.892,233.577"/>
<path stroke="#FFFFFF" stroke-width="4" d="M162.162,136.355c-17.688,0-32.076,14.39-32.076,32.078
	c0,17.687,14.388,32.075,32.076,32.075c17.688,0,32.076-14.388,32.076-32.075C194.238,150.746,179.85,136.355,162.162,136.355
	L162.162,136.355z M162.162,191.345c-12.633,0-22.912-10.277-22.912-22.912c0-12.636,10.279-22.911,22.912-22.911
	c12.635,0,22.912,10.275,22.912,22.911C185.074,181.068,174.797,191.345,162.162,191.345L162.162,191.345z M162.162,191.345"/>
<path fill="#FFFFFF" stroke="#FFFFFF" stroke-width="4" stroke-miterlimit="10" d="M162.162,117.262
	c-27.794,0-50.407,22.613-50.407,50.408c0,18.122,5.434,25.283,35.585,65.033c4.425,5.834,9.334,12.308,14.82,19.597
	c5.451-7.244,10.332-13.683,14.731-19.485c30.229-39.872,35.678-47.057,35.678-65.145
	C212.569,139.875,189.957,117.262,162.162,117.262z M162.162,199.746c-17.688,0-32.076-14.39-32.076-32.076
	c0-17.688,14.388-32.077,32.076-32.077c17.688,0,32.076,14.389,32.076,32.077C194.238,185.355,179.85,199.746,162.162,199.746z"/>
<path fill="#FFFFFF" stroke="#FFFFFF" stroke-width="4" stroke-miterlimit="10" d="M162.162,144.759
	c-12.633,0-22.912,10.274-22.912,22.91c0,12.635,10.279,22.912,22.912,22.912c12.635,0,22.912-10.277,22.912-22.912
	C185.074,155.034,174.797,144.759,162.162,144.759z"/>
<path fill="#FFFFFF" d="M304.205,239.366c12.419,0,21.077-5.049,21.077-9.58c0-4.531-8.658-9.58-21.077-9.58
	c-12.42,0-21.075,5.048-21.075,9.58C283.13,234.316,291.785,239.366,304.205,239.366z M309.954,227.868h3.832v3.834h-3.832V227.868z
	 M302.29,227.868h3.832v3.834h-3.832V227.868z M294.625,227.868h3.834v3.834h-3.834V227.868z"/>
<path fill="#FFFFFF" d="M304.205,250.862c12.419,0,21.077-5.048,21.077-9.581v-4.276c-4.373,3.744-12.089,6.193-21.077,6.193
	c-8.987,0-16.704-2.449-21.075-6.193v4.276C283.13,245.813,291.785,250.862,304.205,250.862z"/>
<path fill="#FFFFFF" d="M321.45,304.511c3.17,0,5.749-2.579,5.749-5.748c0-3.17-2.579-5.749-5.749-5.749s-5.749,2.579-5.749,5.749
	C315.701,301.932,318.28,304.511,321.45,304.511z"/>
<path fill="#FFFFFF" d="M242.894,241.281c-1.056,0-1.918,0.859-1.918,1.917c0,1.058,0.862,1.917,1.918,1.917
	c1.055,0,1.915-0.859,1.915-1.917C244.809,242.14,243.948,241.281,242.894,241.281z"/>
<path fill="#FFFFFF" d="M281.213,304.511c3.169,0,5.747-2.579,5.747-5.748c0-3.17-2.578-5.749-5.747-5.749
	c-3.168,0-5.748,2.579-5.748,5.749C275.465,301.932,278.045,304.511,281.213,304.511z"/>
<path fill="#FFFFFF" d="M329.114,264.274c0,7.521-10.94,13.414-24.909,13.414c-13.968,0-24.907-5.892-24.907-13.414v-19.16h-12.903
	l8.667,36.404h58.287l8.668-36.404h-12.902V264.274z"/>
<path fill="#FFFFFF" d="M304.205,262.358c12.419,0,21.077-5.049,21.077-9.581V248.5c-4.373,3.746-12.089,6.195-21.077,6.195
	c-8.987,0-16.704-2.449-21.075-6.195v4.277C283.13,257.309,291.785,262.358,304.205,262.358z"/>
<path fill="#FFFFFF" d="M304.205,273.855c12.419,0,21.077-5.049,21.077-9.581v-4.276c-4.373,3.743-12.089,6.192-21.077,6.192
	c-8.987,0-16.704-2.449-21.075-6.192v4.276C283.13,268.806,291.785,273.855,304.205,273.855z"/>
<g>
	<defs>
		<rect id="SVGID_3_" x="236.86" y="193.645" width="109.272" height="114.962"/>
	</defs>
	<clipPath id="SVGID_6_">
		<use xlink:href="#SVGID_3_"  overflow="visible"/>
	</clipPath>
	<path clip-path="url(#SVGID_6_)" d="M336.493,289.447h-67.524l-13.021-46.502c-0.232-0.826-0.985-1.4-1.844-1.4h-6.102
		c-0.792-2.224-2.901-3.832-5.395-3.832c-3.171,0-5.748,2.579-5.748,5.748s2.577,5.75,5.748,5.75c2.493,0,4.603-1.608,5.395-3.833
		h4.649l13.019,46.503c0.232,0.825,0.987,1.397,1.845,1.397h5.798c-1.215,1.607-1.965,3.584-1.965,5.749
		c0,5.282,4.297,9.58,9.579,9.58c5.284,0,9.581-4.298,9.581-9.58c0-2.165-0.749-4.142-1.966-5.749h25.006
		c-1.214,1.607-1.963,3.584-1.963,5.749c0,5.282,4.297,9.58,9.581,9.58c5.28,0,9.58-4.298,9.58-9.58
		c0-2.165-0.752-4.142-1.967-5.749h7.713V289.447z M242.608,245.378c-1.057,0-1.917-0.859-1.917-1.917
		c0-1.058,0.86-1.917,1.917-1.917c1.055,0,1.915,0.859,1.915,1.917C244.523,244.52,243.663,245.378,242.608,245.378L242.608,245.378
		z M280.928,304.775c-3.168,0-5.748-2.579-5.748-5.748c0-3.169,2.58-5.749,5.748-5.749c3.169,0,5.749,2.58,5.749,5.749
		C286.677,302.196,284.097,304.775,280.928,304.775L280.928,304.775z M321.167,304.775c-3.17,0-5.75-2.579-5.75-5.748
		c0-3.169,2.58-5.749,5.75-5.749c3.168,0,5.747,2.58,5.747,5.749C326.914,302.196,324.335,304.775,321.167,304.775L321.167,304.775z
		 M321.167,304.775"/>
	<path clip-path="url(#SVGID_6_)" d="M345.663,242.272c-0.365-0.458-0.919-0.727-1.505-0.727h-15.329V230.05
		c0-7.521-10.939-13.412-24.908-13.412c-13.968,0-24.908,5.892-24.908,13.412v11.495h-15.328c-0.587,0-1.139,0.269-1.505,0.73
		c-0.364,0.458-0.495,1.06-0.359,1.632l9.579,40.236c0.206,0.861,0.978,1.471,1.865,1.471h61.313c0.889,0,1.658-0.61,1.865-1.474
		l9.581-40.236C346.159,243.333,346.026,242.734,345.663,242.272L345.663,242.272z M303.921,220.47
		c12.419,0,21.075,5.049,21.075,9.58s-8.656,9.581-21.075,9.581s-21.075-5.049-21.075-9.581S291.502,220.47,303.921,220.47
		L303.921,220.47z M282.846,237.27c4.37,3.744,12.087,6.192,21.075,6.192s16.705-2.448,21.075-6.192v4.275
		c0,4.533-8.656,9.581-21.075,9.581s-21.075-5.048-21.075-9.581V237.27z M282.846,248.764c4.37,3.746,12.087,6.195,21.075,6.195
		s16.705-2.449,21.075-6.195v4.277c0,4.531-8.656,9.581-21.075,9.581s-21.075-5.05-21.075-9.581V248.764z M282.846,260.262
		c4.37,3.744,12.087,6.192,21.075,6.192s16.705-2.449,21.075-6.192v4.277c0,4.532-8.656,9.581-21.075,9.581
		s-21.075-5.048-21.075-9.581V260.262z M333.065,281.783h-58.288l-8.667-36.404h12.902v19.16c0,7.521,10.94,13.413,24.908,13.413
		c13.969,0,24.908-5.892,24.908-13.413v-19.16h12.903L333.065,281.783z M333.065,281.783"/>
</g>
<rect x="309.668" y="228.133" width="3.834" height="3.833"/>
<rect x="302.005" y="228.133" width="3.832" height="3.833"/>
<rect x="294.341" y="228.133" width="3.832" height="3.833"/>
<path d="M310.231,201.871l-4.395,4.394v-12.62h-3.832v12.62l-4.393-4.394l-2.71,2.708l7.664,7.665
	c0.373,0.373,0.864,0.561,1.354,0.561s0.98-0.188,1.354-0.561l7.665-7.665L310.231,201.871z M310.231,201.871"/>
<rect x="92.693" y="213.28" width="2.79" height="2.791"/>
<rect x="98.274" y="213.28" width="2.79" height="2.791"/>
<rect x="92.693" y="207.698" width="2.79" height="2.791"/>
<rect x="98.274" y="207.698" width="2.79" height="2.791"/>
<rect x="103.855" y="213.28" width="2.792" height="2.791"/>
<rect x="103.855" y="207.698" width="2.792" height="2.791"/>
<rect x="109.437" y="213.28" width="2.791" height="2.791"/>
<rect x="109.437" y="207.698" width="2.791" height="2.791"/>
<rect x="115.02" y="213.28" width="2.791" height="2.791"/>
<rect x="115.02" y="207.698" width="2.791" height="2.791"/>
<path d="M138.741,207.698h-12.559c-0.771,0-1.395,0.624-1.395,1.396v5.582c0,0.772,0.624,1.395,1.395,1.395h12.559
	c0.771,0,1.394-0.623,1.394-1.395v-5.582C140.135,208.322,139.512,207.698,138.741,207.698L138.741,207.698z M137.346,213.28h-9.768
	v-2.791h9.768V213.28z M137.346,213.28"/>
<rect x="92.693" y="230.025" width="2.79" height="2.79"/>
<rect x="98.274" y="230.025" width="2.79" height="2.79"/>
<rect x="92.693" y="224.443" width="2.79" height="2.79"/>
<rect x="98.274" y="224.443" width="2.79" height="2.79"/>
<rect x="103.855" y="230.025" width="2.792" height="2.79"/>
<rect x="103.855" y="224.443" width="2.792" height="2.79"/>
<rect x="109.437" y="230.025" width="2.791" height="2.79"/>
<rect x="109.437" y="224.443" width="2.791" height="2.79"/>
<rect x="115.02" y="230.025" width="2.791" height="2.79"/>
<rect x="115.02" y="224.443" width="2.791" height="2.79"/>
<path d="M138.741,224.443h-12.559c-0.771,0-1.395,0.624-1.395,1.396v5.581c0,0.771,0.624,1.395,1.395,1.395h12.559
	c0.771,0,1.394-0.623,1.394-1.395v-5.581C140.135,225.067,139.512,224.443,138.741,224.443L138.741,224.443z M137.346,230.025
	h-9.768v-2.792h9.768V230.025z M137.346,230.025"/>
<rect x="92.693" y="246.77" width="2.79" height="2.791"/>
<rect x="98.274" y="246.77" width="2.79" height="2.791"/>
<rect x="92.693" y="241.188" width="2.79" height="2.79"/>
<rect x="98.274" y="241.188" width="2.79" height="2.79"/>
<rect x="103.855" y="246.77" width="2.792" height="2.791"/>
<rect x="103.855" y="241.188" width="2.792" height="2.79"/>
<rect x="109.437" y="246.77" width="2.791" height="2.791"/>
<rect x="109.437" y="241.188" width="2.791" height="2.79"/>
<rect x="115.02" y="246.77" width="2.791" height="2.791"/>
<rect x="115.02" y="241.188" width="2.791" height="2.79"/>
<path d="M169.561,278.406l-12.896-12.895c1.895-3.011,3.008-6.558,3.008-10.369c0-9.036-6.177-16.639-14.525-18.86
	c0.354-0.613,0.572-1.314,0.572-2.071v-11.163c0-1.076-0.42-2.049-1.09-2.792c0.67-0.742,1.09-1.714,1.09-2.791v-11.163
	c0-2.308-1.879-4.186-4.186-4.186H91.297c-2.309,0-4.186,1.878-4.186,4.186v11.163c0,1.077,0.421,2.049,1.088,2.791
	c-0.667,0.743-1.088,1.715-1.088,2.792v11.163c0,1.076,0.421,2.048,1.088,2.791c-0.667,0.743-1.088,1.715-1.088,2.791v11.163
	c0,2.309,1.877,4.187,4.186,4.187h29.306c0,10.773,8.761,19.536,19.532,19.536c3.813,0,7.361-1.113,10.37-3.009l12.895,12.897
	c0.823,0.823,1.919,1.275,3.081,1.275c2.4,0,4.355-1.953,4.355-4.354C170.836,280.338,170.369,279.217,169.561,278.406
	L169.561,278.406z M89.902,206.303c0-0.771,0.625-1.395,1.395-1.395h50.236c0.768,0,1.395,0.624,1.395,1.395v11.163
	c0,0.771-0.627,1.396-1.395,1.396H91.297c-0.77,0-1.395-0.625-1.395-1.396V206.303z M89.902,223.048
	c0-0.771,0.625-1.396,1.395-1.396h50.236c0.768,0,1.395,0.625,1.395,1.396v11.163c0,0.771-0.627,1.396-1.395,1.396H91.297
	c-0.77,0-1.395-0.625-1.395-1.396V223.048z M121.241,250.265c-0.166,0.642-0.298,1.296-0.397,1.962
	c-0.008,0.043-0.02,0.082-0.026,0.124H91.297c-0.77,0-1.395-0.625-1.395-1.396v-11.163c0-0.771,0.625-1.396,1.395-1.396h38.83
	c-4.295,2.578-7.512,6.747-8.842,11.695C121.271,250.149,121.258,250.208,121.241,250.265L121.241,250.265z M150.964,267.893
	c-0.003,0.003-0.006,0.005-0.008,0.007c-0.278,0.237-0.571,0.456-0.859,0.673c-2.79,2.073-6.229,3.314-9.962,3.314
	c-9.231,0-16.743-7.512-16.743-16.745c0-0.433,0.033-0.857,0.064-1.281c0-0.005,0.003-0.005,0.003-0.008
	c0.083-1.082,0.269-2.135,0.549-3.148c0-0.001,0.002-0.005,0.002-0.006c1.54-5.572,5.908-9.971,11.391-11.607
	c0.073-0.022,0.148-0.037,0.223-0.058c0.424-0.12,0.854-0.23,1.287-0.316c0.2-0.039,0.404-0.063,0.605-0.092
	c0.322-0.052,0.645-0.11,0.971-0.143c0.546-0.055,1.095-0.085,1.648-0.085c0.431,0,0.851,0.032,1.271,0.065
	c0.272,0.024,0.542,0.047,0.848,0.085h0.01c8.23,1.051,14.617,8.084,14.617,16.595c0,3.725-1.238,7.16-3.305,9.945
	C152.813,266.122,151.939,267.064,150.964,267.893L150.964,267.893z M166.48,283.049c-0.418,0-0.811-0.161-1.107-0.456
	l-12.586-12.588c0.148-0.127,0.286-0.266,0.432-0.398c0.483-0.438,0.943-0.899,1.384-1.384c0.131-0.144,0.271-0.282,0.397-0.431
	l12.587,12.585c0.291,0.293,0.456,0.695,0.456,1.108C168.043,282.348,167.344,283.049,166.48,283.049L166.48,283.049z
	 M166.48,283.049"/>
<path d="M153.781,254.265c-0.247-0.305-6.128-7.495-13.646-7.495c-7.516,0-13.396,7.19-13.645,7.495
	c-0.411,0.514-0.411,1.241,0,1.753c0.248,0.306,6.129,7.497,13.645,7.497c7.519,0,13.399-7.191,13.646-7.497
	C154.193,255.506,154.193,254.779,153.781,254.265L153.781,254.265z M140.135,260.725c-4.766,0-8.983-3.815-10.679-5.583
	c1.695-1.767,5.913-5.581,10.679-5.581c4.769,0,8.986,3.814,10.684,5.581C149.121,256.909,144.903,260.725,140.135,260.725
	L140.135,260.725z M140.135,260.725"/>
<path d="M144.322,253.747c-0.768,0-1.395-0.625-1.395-1.396c0-0.184,0.037-0.364,0.105-0.536c0.298-0.71-0.038-1.528-0.748-1.825
	c-0.684-0.284-1.408-0.429-2.15-0.429c-3.077,0-5.58,2.502-5.58,5.581c0,3.079,2.503,5.583,5.58,5.583
	c3.08,0,5.584-2.503,5.584-5.583C145.719,254.37,145.094,253.747,144.322,253.747L144.322,253.747z M140.135,257.934
	c-1.536,0-2.789-1.252-2.789-2.792c0-1.539,1.253-2.791,2.789-2.791c0,1.737,1.067,3.232,2.578,3.866
	C142.29,257.222,141.296,257.934,140.135,257.934L140.135,257.934z M140.135,257.934"/>
<path d="M119.204,264.91c-3.077,0-5.581-2.503-5.581-5.581c0-0.773-0.623-1.395-1.396-1.395c-0.769,0-1.394,0.622-1.394,1.395
	c0,3.078-2.504,5.581-5.582,5.581c-0.771,0-1.396,0.624-1.396,1.395s0.626,1.396,1.396,1.396c3.078,0,5.582,2.503,5.582,5.581
	c0,0.771,0.625,1.396,1.394,1.396c0.772,0,1.396-0.624,1.396-1.396c0-3.078,2.504-5.581,5.581-5.581
	c0.772,0,1.398-0.625,1.398-1.396S119.977,264.91,119.204,264.91L119.204,264.91z M112.228,268.659
	c-0.618-0.932-1.421-1.732-2.354-2.354c0.933-0.619,1.732-1.421,2.354-2.354c0.62,0.933,1.423,1.733,2.354,2.354
	C113.65,266.925,112.848,267.727,112.228,268.659L112.228,268.659z M112.228,268.659"/>
<rect x="127.578" y="227.233" fill="#FFFFFF" width="9.768" height="2.792"/>
<path fill="#FFFFFF" d="M134.555,255.142c0-3.079,2.503-5.581,5.58-5.581c-4.766,0-8.983,3.814-10.679,5.581
	c1.695,1.767,5.913,5.583,10.679,5.583C137.058,260.725,134.555,258.221,134.555,255.142z"/>
<path fill="#FFFFFF" d="M91.297,218.862h50.236c0.768,0,1.395-0.625,1.395-1.396v-11.163c0-0.771-0.627-1.395-1.395-1.395H91.297
	c-0.77,0-1.395,0.624-1.395,1.395v11.163C89.902,218.237,90.527,218.862,91.297,218.862z M124.788,209.094
	c0-0.772,0.624-1.396,1.395-1.396h12.559c0.771,0,1.394,0.624,1.394,1.396v5.582c0,0.772-0.623,1.395-1.394,1.395h-12.559
	c-0.771,0-1.395-0.623-1.395-1.395V209.094z M115.02,207.698h2.791v2.791h-2.791V207.698z M115.02,213.28h2.791v2.791h-2.791V213.28
	z M109.437,207.698h2.791v2.791h-2.791V207.698z M109.437,213.28h2.791v2.791h-2.791V213.28z M103.855,207.698h2.792v2.791h-2.792
	V207.698z M103.855,213.28h2.792v2.791h-2.792V213.28z M98.274,207.698h2.79v2.791h-2.79V207.698z M98.274,213.28h2.79v2.791h-2.79
	V213.28z M92.693,207.698h2.79v2.791h-2.79V207.698z M92.693,213.28h2.79v2.791h-2.79V213.28z"/>
<path fill="#FFFFFF" d="M130.127,238.397h-38.83c-0.77,0-1.395,0.625-1.395,1.396v11.163c0,0.77,0.625,1.396,1.395,1.396h29.521
	c0.007-0.042,0.019-0.081,0.026-0.124c0.1-0.666,0.231-1.32,0.397-1.962c0.017-0.057,0.029-0.116,0.044-0.173
	C122.615,245.144,125.832,240.975,130.127,238.397z M95.483,249.561h-2.79v-2.791h2.79V249.561z M95.483,243.978h-2.79v-2.79h2.79
	V243.978z M101.064,249.561h-2.79v-2.791h2.79V249.561z M101.064,243.978h-2.79v-2.79h2.79V243.978z M106.647,249.561h-2.792v-2.791
	h2.792V249.561z M106.647,243.978h-2.792v-2.79h2.792V243.978z M112.228,249.561h-2.791v-2.791h2.791V249.561z M112.228,243.978
	h-2.791v-2.79h2.791V243.978z M117.811,249.561h-2.791v-2.791h2.791V249.561z M117.811,243.978h-2.791v-2.79h2.791V243.978z"/>
<path fill="#FFFFFF" d="M91.297,235.607h50.236c0.768,0,1.395-0.625,1.395-1.396v-11.163c0-0.771-0.627-1.396-1.395-1.396H91.297
	c-0.77,0-1.395,0.625-1.395,1.396v11.163C89.902,234.982,90.527,235.607,91.297,235.607z M124.788,225.839
	c0-0.772,0.624-1.396,1.395-1.396h12.559c0.771,0,1.394,0.624,1.394,1.396v5.581c0,0.771-0.623,1.395-1.394,1.395h-12.559
	c-0.771,0-1.395-0.623-1.395-1.395V225.839z M115.02,224.443h2.791v2.79h-2.791V224.443z M115.02,230.025h2.791v2.79h-2.791V230.025
	z M109.437,224.443h2.791v2.79h-2.791V224.443z M109.437,230.025h2.791v2.79h-2.791V230.025z M103.855,224.443h2.792v2.79h-2.792
	V224.443z M103.855,230.025h2.792v2.79h-2.792V230.025z M98.274,224.443h2.79v2.79h-2.79V224.443z M98.274,230.025h2.79v2.79h-2.79
	V230.025z M92.693,224.443h2.79v2.79h-2.79V224.443z M92.693,230.025h2.79v2.79h-2.79V230.025z"/>
<rect x="127.578" y="210.489" fill="#FFFFFF" width="9.768" height="2.791"/>
<path fill="#FFFFFF" d="M112.228,263.951c-0.621,0.933-1.421,1.735-2.354,2.354c0.933,0.622,1.735,1.422,2.354,2.354
	c0.62-0.932,1.423-1.734,2.354-2.354C113.65,265.684,112.848,264.883,112.228,263.951z"/>
<path fill="#FFFFFF" d="M155,267.793c-0.127,0.149-0.267,0.287-0.397,0.431c-0.44,0.485-0.9,0.946-1.384,1.384
	c-0.146,0.132-0.283,0.271-0.432,0.398l12.586,12.588c0.297,0.295,0.689,0.456,1.107,0.456c0.863,0,1.563-0.701,1.563-1.562
	c0-0.413-0.165-0.815-0.456-1.108L155,267.793z"/>
<path fill="#FFFFFF" d="M140.135,249.561c0.742,0,1.467,0.145,2.15,0.429c0.71,0.297,1.046,1.115,0.748,1.825
	c-0.068,0.172-0.105,0.352-0.105,0.536c0,0.771,0.627,1.396,1.395,1.396c0.771,0,1.396,0.624,1.396,1.396
	c0,3.079-2.504,5.583-5.584,5.583c4.769,0,8.986-3.815,10.684-5.583C149.121,253.375,144.903,249.561,140.135,249.561z"/>
<path fill="#FFFFFF" d="M140.135,252.351c-1.536,0-2.789,1.252-2.789,2.791c0,1.54,1.253,2.792,2.789,2.792
	c1.161,0,2.155-0.712,2.578-1.717C141.202,255.583,140.135,254.088,140.135,252.351z"/>
<path fill="#FFFFFF" d="M156.881,255.142c0-8.511-6.387-15.543-14.617-16.595h-0.01c-0.306-0.038-0.575-0.061-0.848-0.085
	c-0.421-0.033-0.841-0.065-1.271-0.065c-0.554,0-1.103,0.03-1.648,0.085c-0.326,0.033-0.648,0.091-0.971,0.143
	c-0.201,0.03-0.405,0.053-0.605,0.092c-0.434,0.086-0.863,0.196-1.287,0.316c-0.074,0.021-0.149,0.035-0.223,0.058
	c-5.482,1.637-9.851,6.035-11.391,11.607c0,0.001-0.002,0.004-0.002,0.006c-0.28,1.013-0.466,2.067-0.549,3.148
	c0,0.003-0.003,0.003-0.003,0.008c-0.031,0.424-0.064,0.849-0.064,1.281c0,9.233,7.512,16.745,16.743,16.745
	c3.733,0,7.172-1.242,9.962-3.314c0.288-0.217,0.581-0.436,0.859-0.673c0.002-0.002,0.005-0.004,0.008-0.007
	c0.976-0.828,1.849-1.771,2.612-2.805C155.643,262.302,156.881,258.867,156.881,255.142z M140.135,263.515
	c-7.516,0-13.396-7.191-13.645-7.497c-0.411-0.512-0.411-1.239,0-1.753c0.248-0.305,6.129-7.495,13.645-7.495
	c7.519,0,13.399,7.19,13.646,7.495c0.412,0.514,0.412,1.241,0,1.753C153.534,256.324,147.653,263.515,140.135,263.515z"/>
<path fill="#FFFFFF" stroke="#FFFFFF" d="M277.942,118.15h-0.156c-1.427-12.839-12.339-22.852-25.552-22.852
	c-8.94,0-17.048,4.541-21.736,12.017c-1.3-0.393-2.628-0.592-3.971-0.592c-6.982,0-12.814,5.038-14.046,11.673
	c-1.021-0.165-2.057-0.247-3.094-0.247c-11.024,0-19.995,8.967-19.995,19.995c0,11.024,8.971,19.994,19.995,19.994h31.422h5.713
	h31.42c11.026,0,19.995-8.97,19.995-19.994C297.938,127.117,288.969,118.15,277.942,118.15z"/>
<path stroke="#FFFFFF" d="M246.752,159.51h32.039c11.242,0,20.389-9.146,20.389-20.389c0-11.243-9.146-20.389-20.389-20.389h-0.158
	c-1.453-13.09-12.584-23.299-26.055-23.299c-9.116,0-17.384,4.63-22.164,12.252c-1.324-0.402-2.68-0.603-4.049-0.603
	c-7.121,0-13.066,5.137-14.32,11.9c-1.044-0.166-2.098-0.251-3.155-0.251c-11.242,0-20.389,9.146-20.389,20.389
	c0,11.242,9.146,20.389,20.389,20.389h32.039 M208.89,153.684c-8.03,0-14.563-6.531-14.563-14.562s6.532-14.564,14.563-14.564
	c1.663,0,3.325,0.298,4.94,0.882c0.937,0.341,1.982,0.177,2.773-0.433c0.789-0.61,1.21-1.578,1.117-2.571l-0.096-0.789
	c0-4.818,3.923-8.739,8.74-8.739c1.343,0,2.689,0.344,3.994,1.021c0.692,0.363,1.508,0.43,2.248,0.185
	c0.74-0.246,1.357-0.777,1.703-1.476c3.473-7.019,10.47-11.38,18.268-11.38c11.24,0,20.391,9.145,20.391,20.309
	c-0.008,0.073-0.018,0.273-0.018,0.345c0,0.855,0.379,1.672,1.033,2.224c0.657,0.551,1.515,0.789,2.369,0.647
	c0.884-0.149,1.682-0.225,2.438-0.225c8.031,0,14.564,6.533,14.564,14.564s-6.533,14.562-14.564,14.562H208.89z M290.441,203.199"/>
<rect x="275.88" y="130.383" stroke="#FFFFFF" width="5.824" height="5.827"/>
<rect x="275.88" y="142.032" stroke="#FFFFFF" width="5.824" height="5.827"/>
<rect x="264.229" y="142.032" stroke="#FFFFFF" width="5.826" height="5.827"/>
</svg>
