<?xml version="1.0" encoding="utf-8"?>
<!-- Generator: Adobe Illustrator 15.1.0, SVG Export Plug-In  -->
<!DOCTYPE svg PUBLIC "-//W3C//DTD SVG 1.1//EN" "http://www.w3.org/Graphics/SVG/1.1/DTD/svg11.dtd" [
	<!ENTITY ns_flows "http://ns.adobe.com/Flows/1.0/">
]>
<svg version="1.1"
	 xmlns="http://www.w3.org/2000/svg" xmlns:xlink="http://www.w3.org/1999/xlink" xmlns:a="http://ns.adobe.com/AdobeSVGViewerExtensions/3.0/"
	 x="0px" y="0px" width="500px" height="500px" viewBox="-65.18 -75.56 500 500" enable-background="new -65.18 -75.56 500 500"
	 xml:space="preserve">
<defs>
</defs>
<path fill="none" stroke="#010101" stroke-width="5" stroke-linecap="square" stroke-linejoin="round" stroke-dasharray="0,12" d="
	M10.078,205.253C-5.26,109.846,59.658,20.083,155.071,4.74c95.407-15.321,185.177,49.594,200.498,145.008
	c15.339,95.395-49.574,185.173-144.987,200.51C115.174,365.588,25.407,300.664,10.078,205.253z"/>
<path stroke="#FFFFFF" stroke-width="5" d="M175.87,93.135c-37.106,0-67.293,30.186-67.293,67.292
	c0,23.955,7.286,33.556,42.301,79.717c6.08,8.015,12.968,17.095,20.851,27.604c0.977,1.303,2.51,2.071,4.141,2.071
	c1.63,0,3.162-0.768,4.141-2.071c7.835-10.454,14.695-19.501,20.747-27.485c35.099-46.291,42.404-55.925,42.404-79.836
	C243.162,123.321,212.975,93.135,175.87,93.135L175.87,93.135z M192.509,234.014c-4.971,6.553-10.483,13.826-16.642,22.013
	c-6.195-8.238-11.742-15.549-16.741-22.138c-34.059-44.903-40.196-52.989-40.196-73.461c0-31.397,25.543-56.941,56.94-56.941
	c31.396,0,56.938,25.543,56.938,56.941C232.809,180.857,226.655,188.973,192.509,234.014L192.509,234.014z M192.509,234.014"/>
<path stroke="#FFFFFF" stroke-width="5" d="M175.87,124.192c-19.982,0-36.234,16.254-36.234,36.236
	c0,19.978,16.252,36.231,36.234,36.231c19.979,0,36.233-16.253,36.233-36.231C212.104,140.446,195.849,124.192,175.87,124.192
	L175.87,124.192z M175.87,186.309c-14.272,0-25.882-11.61-25.882-25.881c0-14.274,11.609-25.88,25.882-25.88
	c14.271,0,25.881,11.606,25.881,25.88C201.751,174.699,190.141,186.309,175.87,186.309L175.87,186.309z M175.87,186.309"/>
<path fill="#FFFFFF" stroke="#FFFFFF" stroke-width="5" stroke-miterlimit="10" d="M175.87,102.625
	c-31.396,0-56.94,25.543-56.94,56.938c0,20.473,6.137,28.563,40.196,73.463c4.999,6.59,10.546,13.901,16.741,22.137
	c6.158-8.184,11.671-15.458,16.642-22.012c34.146-45.039,40.3-53.155,40.3-73.588C232.809,128.168,207.266,102.625,175.87,102.625z
	 M175.87,195.797c-19.982,0-36.234-16.254-36.234-36.235c0-19.977,16.252-36.232,36.234-36.232
	c19.979,0,36.233,16.255,36.233,36.232C212.104,179.543,195.849,195.797,175.87,195.797z"/>
<path fill="#FFFFFF" stroke="#FFFFFF" stroke-width="5" stroke-miterlimit="10" d="M175.87,133.685
	c-14.272,0-25.882,11.606-25.882,25.878c0,14.273,11.609,25.884,25.882,25.884c14.271,0,25.881-11.61,25.881-25.884
	C201.751,145.291,190.141,133.685,175.87,133.685z"/>
<path stroke="#FFFFFF" d="M352.473,127.753c0,3.58-2.912,6.492-6.491,6.492v4.328c3.579,0,6.491,2.91,6.491,6.49h4.328
	c0-3.58,2.912-6.49,6.492-6.49v-4.328c-3.581,0-6.492-2.912-6.492-6.492H352.473L352.473,127.753z M354.637,138.638
	c-0.631-0.85-1.38-1.596-2.229-2.23c0.85-0.631,1.598-1.379,2.229-2.23c0.633,0.852,1.381,1.6,2.232,2.23
	C356.018,137.042,355.27,137.788,354.637,138.638L354.637,138.638z M354.637,138.638"/>
<path stroke="#FFFFFF" stroke-width="2" d="M275.05,15.983c0,5.293-4.31,9.6-9.6,9.6v6.403c5.29,0,9.6,4.308,9.6,9.601h6.401
	c0-5.293,4.306-9.601,9.602-9.601v-6.403c-5.295,0-9.602-4.307-9.602-9.6H275.05L275.05,15.983z M278.25,32.084
	c-0.935-1.258-2.041-2.367-3.296-3.3c1.255-0.935,2.361-2.042,3.296-3.3c0.937,1.258,2.042,2.365,3.299,3.3
	C280.293,29.717,279.187,30.827,278.25,32.084L278.25,32.084z M278.25,32.084"/>
<path stroke="#FFFFFF" d="M6.603,187.945c0,3.362-2.739,6.104-6.103,6.104v4.066c3.364,0,6.103,2.737,6.103,6.104h4.068
	c0-3.366,2.739-6.104,6.103-6.104v-4.066c-3.364,0-6.103-2.741-6.103-6.104H6.603L6.603,187.945z M8.637,198.178
	c-0.594-0.798-1.298-1.502-2.098-2.097c0.799-0.593,1.504-1.297,2.098-2.097c0.594,0.8,1.297,1.504,2.098,2.097
	C9.934,196.676,9.23,197.38,8.637,198.178L8.637,198.178z M8.637,198.178"/>
<path fill="#FFFFFF" d="M274.206,111.342h-0.131c-1.194-10.755-10.337-19.143-21.404-19.143c-7.491,0-14.283,3.805-18.211,10.067
	c-1.088-0.329-2.202-0.497-3.326-0.497c-5.851,0-10.735,4.222-11.765,9.78c-0.857-0.137-1.724-0.207-2.593-0.207
	c-9.235,0-16.75,7.514-16.75,16.75c0,9.235,7.515,16.751,16.75,16.751h26.323h4.785h26.322c9.237,0,16.75-7.516,16.75-16.751
	C290.956,118.856,283.442,111.342,274.206,111.342z"/>
<path d="M248.076,145.992h26.841c9.417,0,17.08-7.665,17.08-17.081c0-9.418-7.663-17.081-17.08-17.081h-0.134
	c-1.218-10.967-10.542-19.519-21.826-19.519c-7.637,0-14.563,3.878-18.568,10.264c-1.11-0.335-2.245-0.504-3.392-0.504
	c-5.966,0-10.947,4.303-11.998,9.969c-0.874-0.14-1.757-0.21-2.643-0.21c-9.418,0-17.081,7.662-17.081,17.081
	c0,9.416,7.663,17.081,17.081,17.081h26.841 M216.357,141.11c-6.727,0-12.2-5.472-12.2-12.199c0-6.727,5.473-12.201,12.2-12.201
	c1.394,0,2.786,0.25,4.139,0.739c0.786,0.286,1.662,0.147,2.323-0.364c0.662-0.509,1.014-1.322,0.937-2.153l-0.08-0.66
	c0-4.036,3.286-7.322,7.321-7.322c1.124,0,2.252,0.289,3.346,0.855c0.581,0.305,1.263,0.36,1.882,0.155
	c0.622-0.205,1.138-0.651,1.427-1.237c2.909-5.879,8.771-9.533,15.304-9.533c9.418,0,17.08,7.661,17.08,17.014
	c-0.004,0.062-0.012,0.23-0.012,0.29c0,0.715,0.316,1.4,0.866,1.864c0.549,0.459,1.268,0.66,1.984,0.541
	c0.739-0.126,1.409-0.188,2.042-0.188c6.726,0,12.2,5.474,12.2,12.201c0,6.727-5.474,12.199-12.2,12.199H216.357z M284.677,182.591"
	/>
<rect x="272.477" y="121.591" width="4.88" height="4.88"/>
<rect x="272.477" y="131.349" width="4.88" height="4.883"/>
<rect x="262.718" y="131.349" width="4.88" height="4.883"/>
<path d="M130.063,184.862c-15.868,0.625-27.991,7.534-27.991,16.267v41.985c0,9.155,13.319,16.328,30.324,16.328
	c17.003,0,30.322-7.173,30.322-16.328v-41.985c0-8.731-12.123-15.641-27.991-16.267 M158.053,243.114
	c0,5.516-10.539,11.662-25.657,11.662c-15.121,0-25.659-6.146-25.659-11.662v-5.202c5.323,4.555,14.717,7.535,25.659,7.535
	c10.94,0,20.334-2.98,25.657-7.535V243.114z M158.053,229.12c0,5.516-10.539,11.662-25.657,11.662
	c-15.121,0-25.659-6.146-25.659-11.662v-5.204c5.323,4.557,14.717,7.535,25.659,7.535c10.94,0,20.334-2.978,25.657-7.535V229.12z
	 M158.053,215.125c0,5.516-10.539,11.661-25.657,11.661c-15.121,0-25.659-6.145-25.659-11.661v-5.204
	c5.323,4.558,14.717,7.535,25.659,7.535c10.94,0,20.334-2.977,25.657-7.535V215.125z M158.053,201.129
	c0,5.517-10.539,11.662-25.657,11.662c-15.121,0-25.659-6.146-25.659-11.662c0-5.227,9.467-11.008,23.326-11.604v9.272h-6.997v4.665
	h18.659v-4.665h-6.997v-9.272C148.585,190.121,158.053,195.902,158.053,201.129L158.053,201.129z"/>
<path fill="#FFFFFF" d="M106.077,223.916v5.204c0,5.516,10.538,11.662,25.659,11.662c15.119,0,25.657-6.146,25.657-11.662v-5.204
	c-5.323,4.557-14.717,7.535-25.657,7.535C120.793,231.451,111.399,228.473,106.077,223.916z"/>
<path fill="#FFFFFF" d="M106.077,209.921v5.204c0,5.516,10.538,11.661,25.659,11.661c15.119,0,25.657-6.145,25.657-11.661v-5.204
	c-5.323,4.558-14.717,7.535-25.657,7.535C120.793,217.456,111.399,214.479,106.077,209.921z"/>
<path fill="#FFFFFF" d="M106.077,237.912v5.202c0,5.516,10.538,11.662,25.659,11.662c15.119,0,25.657-6.146,25.657-11.662v-5.202
	c-5.323,4.555-14.717,7.535-25.657,7.535C120.793,245.447,111.399,242.467,106.077,237.912z"/>
<path fill="#FFFFFF" d="M134.066,189.525v9.272h6.998v4.665h-18.66v-4.665h6.998v-9.272c-13.858,0.595-23.325,6.377-23.325,11.604
	c0,5.517,10.538,11.662,25.659,11.662c15.119,0,25.657-6.146,25.657-11.662C157.392,195.902,147.925,190.121,134.066,189.525z"/>
<path fill="#FFFFFF" d="M261.562,250.042c-4.236-1.72-8.133-4.251-11.461-7.482c-5.639,5.833-9.227,13.626-9.678,22.249h18.238
	C258.881,259.508,259.998,254.522,261.562,250.042z"/>
<path fill="#FFFFFF" d="M258.661,268.458h-18.238c0.454,8.684,4.087,16.532,9.795,22.378c3.447-2.973,7.382-5.276,11.606-6.835
	C260.123,279.327,258.894,274.063,258.661,268.458z"/>
<path fill="#FFFFFF" d="M252.922,293.349c5.041,4.171,11.28,6.933,18.11,7.718c-2.165-2.941-5.285-7.7-7.859-13.658
	C259.45,288.767,255.985,290.774,252.922,293.349z"/>
<path fill="#FFFFFF" d="M271.033,232.197c-6.9,0.792-13.19,3.609-18.256,7.854c2.942,2.825,6.373,5.027,10.096,6.549
	C265.505,240.3,268.782,235.26,271.033,232.197z"/>
<path fill="#FFFFFF" d="M275.69,298.442c-0.06-0.106-0.117-0.213-0.168-0.323c-0.032-0.073-0.071-0.141-0.102-0.217
	c-0.035-0.087-0.06-0.176-0.092-0.266c-0.053-0.153-0.095-0.313-0.136-0.472c-0.023-0.088-0.056-0.169-0.074-0.259
	c-0.009-0.047-0.013-0.092-0.02-0.139c-0.053-0.307-0.088-0.615-0.088-0.929v-10.495c-2.81,0.002-5.583,0.319-8.273,0.982
	c2.867,6.487,6.38,11.478,8.273,13.926c0.292-0.374,0.62-0.81,0.98-1.297c-0.033-0.048-0.063-0.097-0.094-0.148
	C275.819,298.691,275.759,298.567,275.69,298.442z"/>
<path fill="#FFFFFF" d="M275.011,252.676c-3.413,0-6.766-0.499-9.978-1.43c-1.458,4.149-2.513,8.735-2.733,13.563h25.421
	c-0.22-4.831-1.277-9.416-2.736-13.563C281.775,252.179,278.423,252.676,275.011,252.676z"/>
<path fill="#FFFFFF" d="M291.361,264.806h18.238c-0.451-8.62-4.039-16.414-9.678-22.247c-3.327,3.231-7.225,5.762-11.462,7.481
	C290.024,254.522,291.142,259.505,291.361,264.806z"/>
<path fill="#FFFFFF" d="M289.61,279.41h17.637c1.398-3.515,2.165-7.191,2.361-10.952h-18.247
	C291.213,272.03,290.627,275.693,289.61,279.41z"/>
<path fill="#FFFFFF" d="M285.85,279.41c1.099-3.729,1.704-7.394,1.867-10.952h-25.419c0.237,5.166,1.42,10.063,3.036,14.433
	c3.473-0.912,7.09-1.324,10.741-1.221c1-1.364,2.598-2.26,4.414-2.26H285.85z"/>
<path fill="#FFFFFF" d="M275.011,249.025c2.957,0,5.855-0.453,8.648-1.233c-2.925-6.903-6.671-12.22-8.648-14.774
	c-1.978,2.555-5.722,7.871-8.648,14.774C269.155,248.572,272.053,249.025,275.011,249.025z"/>
<path fill="#FFFFFF" d="M297.246,240.05c-5.065-4.244-11.356-7.062-18.258-7.854c2.253,3.063,5.529,8.104,8.163,14.403
	C290.873,245.077,294.303,242.875,297.246,240.05z"/>
<path fill="#FFFFFF" d="M340.723,319.567h-60.235c-1.007,0-1.827,0.818-1.827,1.824v10.953c0,1.009,0.82,1.826,1.827,1.826h60.235
	c1.006,0,1.826-0.817,1.826-1.826v-10.953C342.549,320.385,341.729,319.567,340.723,319.567z M313.344,328.693h-31.031v-3.65h31.031
	V328.693z M338.898,328.693h-3.65v-3.65h3.65V328.693z"/>
<path fill="#FFFFFF" d="M340.723,283.061h-60.235c-1.007,0-1.827,0.817-1.827,1.825v10.953c0,0.223,0.053,0.435,0.128,0.635
	c0.014,0.038,0.026,0.077,0.044,0.116c0.08,0.175,0.19,0.333,0.319,0.474c0.046,0.049,0.097,0.092,0.148,0.135
	c0.321,0.281,0.728,0.464,1.187,0.464h60.235c1.006,0,1.826-0.816,1.826-1.824v-10.953
	C342.549,283.877,341.729,283.061,340.723,283.061z M313.344,292.188h-31.031v-3.652h31.031V292.188z M338.898,292.188h-3.65v-3.652
	h3.65V292.188z"/>
<path fill="#FFFFFF" d="M340.723,301.313h-60.235c-0.989,0-1.803,0.806-1.822,1.796c0,0.008-0.005,0.02-0.005,0.028v10.954
	c0,1.006,0.82,1.823,1.827,1.823h60.235c1.006,0,1.826-0.817,1.826-1.823v-10.954C342.549,302.132,341.729,301.313,340.723,301.313z
	 M313.344,310.44h-31.031v-3.65h31.031V310.44z M338.898,310.44h-3.65v-3.65h3.65V310.44z"/>
<path fill="#FFFFFF" d="M335.248,250.205h3.65v3.651h-3.65V250.205z M335.248,257.504h3.65v3.652h-3.65V257.504z M335.248,264.806
	h3.65v3.651h-3.65V264.806z M335.248,272.109h3.65v3.65h-3.65V272.109z M327.945,250.205h3.651v3.651h-3.651V250.205z
	 M320.644,250.205h3.65v3.651h-3.65V250.205z M313.344,250.205h3.65v3.651h-3.65V250.205z M256.758,328.693h-3.65v-3.65h3.65
	V328.693z M256.758,321.391h-3.65v-3.649h3.65V321.391z M256.758,314.091h-3.65v-3.651h3.65V314.091z M256.758,306.79h-3.65v-3.652
	h3.65V306.79z M264.059,328.693h-3.651v-3.65h3.651V328.693z M271.361,328.693h-3.651v-3.65h3.651V328.693z M346.198,295.838
	c0,1.408-0.547,2.679-1.423,3.652c0.875,0.97,1.423,2.242,1.423,3.647v10.954c0,1.407-0.547,2.679-1.423,3.65
	c0.875,0.971,1.423,2.243,1.423,3.649v10.953c0,3.02-2.456,5.477-5.475,5.477h-60.235c-3.02,0-5.477-2.457-5.477-5.477v-10.953
	c0-1.406,0.548-2.679,1.423-3.649c-0.873-0.971-1.423-2.244-1.423-3.65v-9.128c-21.138,0-38.332-17.196-38.332-38.332
	c0-21.134,17.194-38.331,38.332-38.331c21.137,0,38.333,17.197,38.333,38.331c0,4.389-0.784,8.668-2.246,12.779h29.625
	c3.019,0,5.475,2.456,5.475,5.476V295.838z"/>
<path d="M346.198,284.885c0-3.02-2.456-5.476-5.475-5.476h-29.625c1.462-4.11,2.246-8.39,2.246-12.779
	c0-21.134-17.196-38.331-38.333-38.331c-21.138,0-38.332,17.197-38.332,38.331c0,21.136,17.194,38.332,38.332,38.332v9.128
	c0,1.407,0.55,2.679,1.423,3.65c-0.875,0.971-1.423,2.243-1.423,3.649v10.953c0,3.02,2.458,5.477,5.477,5.477h60.235
	c3.019,0,5.475-2.457,5.475-5.477v-10.953c0-1.406-0.549-2.679-1.423-3.649c0.876-0.971,1.423-2.244,1.423-3.65v-10.954
	c0-1.406-0.549-2.678-1.423-3.647c0.876-0.973,1.423-2.244,1.423-3.652V284.885z M309.599,264.806h-18.238
	c-0.219-5.301-1.336-10.284-2.901-14.766c4.237-1.719,8.135-4.25,11.462-7.481C305.561,248.392,309.148,256.186,309.599,264.806
	L309.599,264.806z M309.608,268.458c-0.196,3.761-0.963,7.437-2.361,10.952H289.61c1.017-3.717,1.603-7.38,1.751-10.952H309.608z
	 M297.246,240.05c-2.942,2.825-6.373,5.027-10.095,6.549c-2.633-6.299-5.91-11.34-8.163-14.403
	C285.89,232.989,292.181,235.806,297.246,240.05L297.246,240.05z M287.722,264.809h-25.421c0.22-4.828,1.275-9.414,2.733-13.563
	c3.212,0.932,6.565,1.43,9.978,1.43c3.412,0,6.764-0.497,9.975-1.43C286.444,255.393,287.502,259.978,287.722,264.809
	L287.722,264.809z M283.659,247.792c-2.792,0.781-5.691,1.233-8.648,1.233c-2.958,0-5.856-0.453-8.648-1.233
	c2.926-6.903,6.671-12.22,8.648-14.774C276.988,235.572,280.734,240.888,283.659,247.792L283.659,247.792z M271.033,232.197
	c-2.251,3.063-5.527,8.104-8.16,14.403c-3.723-1.522-7.154-3.724-10.096-6.549C257.843,235.806,264.132,232.989,271.033,232.197
	L271.033,232.197z M250.101,242.56c3.328,3.231,7.225,5.762,11.461,7.482c-1.564,4.48-2.681,9.467-2.901,14.767h-18.238
	C240.874,256.186,244.462,248.392,250.101,242.56L250.101,242.56z M240.423,268.458h18.238c0.232,5.605,1.462,10.869,3.164,15.543
	c-4.224,1.56-8.159,3.863-11.606,6.835C244.51,284.99,240.877,277.141,240.423,268.458L240.423,268.458z M252.922,293.349
	c3.063-2.575,6.527-4.582,10.251-5.94c2.574,5.958,5.694,10.716,7.859,13.658C264.202,300.282,257.963,297.52,252.922,293.349
	L252.922,293.349z M275.011,300.251c-1.894-2.448-5.407-7.439-8.273-13.926c2.691-0.664,5.464-0.98,8.273-0.982v10.495
	c0,0.313,0.035,0.622,0.088,0.929c0.007,0.047,0.011,0.091,0.02,0.139c0.018,0.089,0.05,0.171,0.074,0.259
	c0.041,0.159,0.083,0.318,0.136,0.472c0.032,0.09,0.057,0.178,0.092,0.266c0.031,0.076,0.07,0.144,0.102,0.217
	c0.052,0.11,0.109,0.217,0.168,0.323c0.068,0.125,0.129,0.249,0.207,0.364c0.031,0.051,0.062,0.1,0.094,0.148
	C275.631,299.442,275.304,299.877,275.011,300.251L275.011,300.251z M276.075,281.669c-3.651-0.103-7.269,0.31-10.741,1.221
	c-1.615-4.371-2.798-9.268-3.036-14.433h25.419c-0.163,3.558-0.768,7.223-1.867,10.952h-5.362
	C278.673,279.41,277.074,280.306,276.075,281.669L276.075,281.669z M342.549,332.344c0,1.009-0.82,1.826-1.826,1.826h-60.235
	c-1.007,0-1.827-0.817-1.827-1.826v-10.953c0-1.006,0.82-1.824,1.827-1.824h60.235c1.006,0,1.826,0.818,1.826,1.824V332.344z
	 M342.549,314.091c0,1.006-0.82,1.823-1.826,1.823h-60.235c-1.007,0-1.827-0.817-1.827-1.823v-10.954
	c0-0.009,0.005-0.02,0.005-0.028c0.019-0.99,0.833-1.796,1.822-1.796h60.235c1.006,0,1.826,0.819,1.826,1.825V314.091z
	 M342.549,295.838c0,1.007-0.82,1.824-1.826,1.824h-60.235c-0.459,0-0.866-0.184-1.187-0.464c-0.051-0.043-0.102-0.085-0.148-0.135
	c-0.129-0.141-0.239-0.298-0.319-0.474c-0.018-0.039-0.03-0.078-0.044-0.116c-0.075-0.201-0.128-0.413-0.128-0.635v-10.953
	c0-1.008,0.82-1.825,1.827-1.825h60.235c1.006,0,1.826,0.817,1.826,1.825V295.838z M342.549,295.838"/>
<rect x="335.248" y="288.536" width="3.65" height="3.652"/>
<rect x="282.313" y="288.536" width="31.031" height="3.652"/>
<rect x="335.248" y="306.79" width="3.65" height="3.65"/>
<rect x="282.313" y="306.79" width="31.031" height="3.65"/>
<rect x="335.248" y="325.042" width="3.65" height="3.65"/>
<rect x="282.313" y="325.042" width="31.031" height="3.65"/>
<rect x="313.344" y="250.205" width="3.65" height="3.651"/>
<rect x="320.644" y="250.205" width="3.65" height="3.651"/>
<rect x="327.945" y="250.205" width="3.651" height="3.651"/>
<rect x="335.248" y="250.205" width="3.65" height="3.651"/>
<rect x="335.248" y="257.504" width="3.65" height="3.652"/>
<rect x="335.248" y="264.806" width="3.65" height="3.651"/>
<rect x="335.248" y="272.109" width="3.65" height="3.65"/>
<rect x="267.71" y="325.042" width="3.651" height="3.65"/>
<rect x="260.408" y="325.042" width="3.651" height="3.65"/>
<rect x="253.107" y="325.042" width="3.65" height="3.65"/>
<rect x="253.107" y="317.742" width="3.65" height="3.649"/>
<rect x="253.107" y="310.44" width="3.65" height="3.651"/>
<rect x="253.107" y="303.137" width="3.65" height="3.652"/>
</svg>
