<?xml version="1.0" encoding="utf-8"?>
<!-- Generator: Adobe Illustrator 15.1.0, SVG Export Plug-In  -->
<!DOCTYPE svg PUBLIC "-//W3C//DTD SVG 1.1//EN" "http://www.w3.org/Graphics/SVG/1.1/DTD/svg11.dtd" [
	<!ENTITY ns_flows "http://ns.adobe.com/Flows/1.0/">
]>
<svg version="1.1"
	 xmlns="http://www.w3.org/2000/svg" xmlns:xlink="http://www.w3.org/1999/xlink" xmlns:a="http://ns.adobe.com/AdobeSVGViewerExtensions/3.0/"
	 x="0px" y="0px" width="500px" height="500px" viewBox="-80.039 24.182 500 500" enable-background="new -80.039 24.182 500 500"
	 xml:space="preserve">
<defs>
</defs>
<text transform="matrix(1 0 0 1 88.1431 20.0879)" font-family="'MyriadPro-Regular'" font-size="24">dedicated servers</text>
<path stroke="#FFFFFF" d="M66.549,141.247c0,4.407-3.586,7.992-7.991,7.992v5.328c4.405,0,7.991,3.583,7.991,7.99h5.327
	c0-4.407,3.585-7.99,7.992-7.99v-5.328c-4.407,0-7.992-3.585-7.992-7.992H66.549L66.549,141.247z M69.211,154.647
	c-0.776-1.047-1.697-1.965-2.744-2.746c1.047-0.777,1.968-1.697,2.744-2.746c0.78,1.049,1.701,1.969,2.748,2.746
	C70.913,152.683,69.992,153.601,69.211,154.647L69.211,154.647z M69.211,154.647"/>
<path stroke="#FFFFFF" d="M240.967,414.545c0,5.291-4.31,9.604-9.604,9.604v6.398c5.294,0,9.604,4.308,9.604,9.604h6.4
	c0-5.297,4.311-9.604,9.604-9.604v-6.398c-5.293,0-9.604-4.313-9.604-9.604H240.967L240.967,414.545z M244.167,430.646
	c-0.934-1.256-2.043-2.363-3.301-3.299c1.258-0.934,2.367-2.041,3.301-3.3c0.935,1.259,2.042,2.366,3.301,3.3
	C246.209,428.283,245.102,429.391,244.167,430.646L244.167,430.646z M244.167,430.646"/>
<path fill="none" stroke="#010101" stroke-width="5" stroke-linecap="square" stroke-linejoin="round" stroke-dasharray="0,12" d="
	M4.744,301.041c-15.337-95.407,49.581-185.169,144.994-200.513c95.408-15.321,185.176,49.595,200.498,145.009
	c15.338,95.395-49.575,185.174-144.988,200.51C109.841,461.377,20.073,396.452,4.744,301.041z"/>
<path stroke="#FFFFFF" stroke-width="2" d="M339.41,252.891c0,3.943-3.211,7.151-7.152,7.151v4.77c3.941,0,7.152,3.209,7.152,7.152
	h4.768c0-3.943,3.209-7.152,7.154-7.152v-4.77c-3.945,0-7.154-3.208-7.154-7.151H339.41L339.41,252.891z M341.792,264.886
	c-0.695-0.938-1.519-1.764-2.453-2.458c0.935-0.697,1.758-1.521,2.453-2.458c0.699,0.938,1.522,1.761,2.459,2.458
	C343.315,263.122,342.492,263.948,341.792,264.886L341.792,264.886z M341.792,264.886"/>
<path d="M122.019,221.14c-4.928,0-8.937,4.007-8.937,8.936c0,4.938,4.008,8.946,8.937,8.946c4.939,0,8.946-4.007,8.946-8.946
	C130.965,225.147,126.958,221.14,122.019,221.14L122.019,221.14z M122.019,235.043c-2.736,0-4.967-2.223-4.967-4.967
	c0-2.736,2.231-4.968,4.967-4.968c2.746,0,4.968,2.232,4.968,4.968C126.987,232.821,124.765,235.043,122.019,235.043
	L122.019,235.043z M122.019,235.043"/>
<path d="M202.505,227.097c0,1.097-0.893,1.99-1.988,1.99c-1.098,0-1.99-0.893-1.99-1.99c0-1.096,0.893-1.989,1.99-1.989
	C201.613,225.108,202.505,226,202.505,227.097L202.505,227.097z M202.505,227.097"/>
<path d="M194.558,227.097c0,1.097-0.892,1.99-1.988,1.99s-1.989-0.893-1.989-1.99c0-1.096,0.893-1.989,1.989-1.989
	S194.558,226,194.558,227.097L194.558,227.097z M194.558,227.097"/>
<path d="M206.474,233.064c0,1.097-0.883,1.979-1.979,1.979c-1.105,0-1.989-0.882-1.989-1.979c0-1.106,0.883-1.989,1.989-1.989
	C205.59,231.075,206.474,231.958,206.474,233.064L206.474,233.064z M206.474,233.064"/>
<path d="M198.527,233.064c0,1.097-0.883,1.979-1.989,1.979c-1.095,0-1.979-0.882-1.979-1.979c0-1.106,0.884-1.989,1.979-1.989
	C197.644,231.075,198.527,231.958,198.527,233.064L198.527,233.064z M198.527,233.064"/>
<path d="M186.603,227.097c0,1.097-0.882,1.99-1.98,1.99c-1.105,0-1.988-0.893-1.988-1.99c0-1.096,0.883-1.989,1.988-1.989
	C185.72,225.108,186.603,226,186.603,227.097L186.603,227.097z M186.603,227.097"/>
<path d="M190.581,233.064c0,1.097-0.894,1.979-1.989,1.979c-1.097,0-1.989-0.882-1.989-1.979c0-1.106,0.892-1.989,1.989-1.989
	C189.687,231.075,190.581,231.958,190.581,233.064L190.581,233.064z M190.581,233.064"/>
<path d="M178.656,227.097c0,1.097-0.884,1.99-1.99,1.99c-1.096,0-1.979-0.893-1.979-1.99c0-1.096,0.884-1.989,1.979-1.989
	C177.772,225.108,178.656,226,178.656,227.097L178.656,227.097z M178.656,227.097"/>
<path d="M182.634,233.064c0,1.097-0.893,1.979-1.99,1.979c-1.096,0-1.988-0.882-1.988-1.979c0-1.106,0.892-1.989,1.988-1.989
	C181.741,231.075,182.634,231.958,182.634,233.064L182.634,233.064z M182.634,233.064"/>
<path d="M170.708,227.097c0,1.097-0.893,1.99-1.989,1.99c-1.096,0-1.989-0.893-1.989-1.99c0-1.096,0.894-1.989,1.989-1.989
	C169.816,225.108,170.708,226,170.708,227.097L170.708,227.097z M170.708,227.097"/>
<path d="M174.687,233.064c0,1.097-0.892,1.979-1.989,1.979s-1.99-0.882-1.99-1.979c0-1.106,0.893-1.989,1.99-1.989
	S174.687,231.958,174.687,233.064L174.687,233.064z M174.687,233.064"/>
<path d="M220.388,241.787v-23.413c0-5.055-4.105-9.16-9.162-9.16H110.318c-5.055,0-9.16,4.104-9.16,9.16v23.413
	c0,2.92,1.396,5.493,3.532,7.17c-2.135,1.679-3.532,4.251-3.532,7.171v23.413c0,5.055,4.105,9.16,9.16,9.16h48.466v16.097
	c-3.881,0.795-6.957,3.861-7.744,7.753h-47.893c-1.097,0-1.99,0.881-1.99,1.978c0,1.106,0.893,1.99,1.99,1.99h47.893
	c0.923,4.53,4.929,7.946,9.732,7.946c4.802,0,8.81-3.416,9.733-7.946h47.893c1.096,0,1.989-0.884,1.989-1.99
	c0-1.097-0.893-1.978-1.989-1.978h-47.893c-0.787-3.892-3.863-6.958-7.744-7.753v-16.097h48.464c5.057,0,9.162-4.104,9.162-9.16
	v-23.413c0-2.92-1.397-5.492-3.532-7.171C218.991,247.28,220.388,244.708,220.388,241.787L220.388,241.787z M166.73,314.53
	c0,3.289-2.669,5.968-5.957,5.968c-3.289,0-5.957-2.679-5.957-5.968c0-3.279,2.668-5.957,5.957-5.957
	C164.061,308.573,166.73,311.25,166.73,314.53L166.73,314.53z M216.41,256.128v23.413c0,2.861-2.32,5.181-5.184,5.181H110.318
	c-2.862,0-5.182-2.32-5.182-5.181v-23.413c0-2.862,2.32-5.181,5.182-5.181h100.908C214.09,250.947,216.41,253.267,216.41,256.128
	L216.41,256.128z M110.318,246.968c-2.862,0-5.182-2.318-5.182-5.181v-23.413c0-2.861,2.32-5.18,5.182-5.18h100.908
	c2.864,0,5.184,2.319,5.184,5.18v23.413c0,2.863-2.32,5.181-5.184,5.181H110.318z M110.318,246.968"/>
<path d="M122.019,276.775c4.939,0,8.946-4.006,8.946-8.936c0-4.938-4.007-8.945-8.946-8.945c-4.928,0-8.937,4.007-8.937,8.945
	C113.083,272.769,117.091,276.775,122.019,276.775L122.019,276.775z M122.019,262.873c2.746,0,4.968,2.222,4.968,4.967
	c0,2.736-2.222,4.969-4.968,4.969c-2.736,0-4.967-2.233-4.967-4.969C117.052,265.094,119.283,262.873,122.019,262.873
	L122.019,262.873z M122.019,262.873"/>
<path d="M202.505,264.852c0,1.105-0.893,1.989-1.988,1.989c-1.098,0-1.99-0.883-1.99-1.989c0-1.096,0.893-1.979,1.99-1.979
	C201.613,262.873,202.505,263.755,202.505,264.852L202.505,264.852z M202.505,264.852"/>
<path d="M194.558,264.852c0,1.105-0.892,1.989-1.988,1.989s-1.989-0.883-1.989-1.989c0-1.096,0.893-1.979,1.989-1.979
	S194.558,263.755,194.558,264.852L194.558,264.852z M194.558,264.852"/>
<path d="M206.474,270.819c0,1.096-0.883,1.99-1.979,1.99c-1.105,0-1.989-0.894-1.989-1.99c0-1.097,0.883-1.99,1.989-1.99
	C205.59,268.829,206.474,269.722,206.474,270.819L206.474,270.819z M206.474,270.819"/>
<path d="M198.527,270.819c0,1.096-0.883,1.99-1.989,1.99c-1.095,0-1.979-0.894-1.979-1.99c0-1.097,0.884-1.99,1.979-1.99
	C197.644,268.829,198.527,269.722,198.527,270.819L198.527,270.819z M198.527,270.819"/>
<path d="M186.603,264.852c0,1.105-0.882,1.989-1.98,1.989c-1.105,0-1.988-0.883-1.988-1.989c0-1.096,0.883-1.979,1.988-1.979
	C185.72,262.873,186.603,263.755,186.603,264.852L186.603,264.852z M186.603,264.852"/>
<path d="M190.581,270.819c0,1.096-0.894,1.99-1.989,1.99c-1.097,0-1.989-0.894-1.989-1.99c0-1.097,0.892-1.99,1.989-1.99
	C189.687,268.829,190.581,269.722,190.581,270.819L190.581,270.819z M190.581,270.819"/>
<path d="M178.656,264.852c0,1.105-0.884,1.989-1.99,1.989c-1.096,0-1.979-0.883-1.979-1.989c0-1.096,0.884-1.979,1.979-1.979
	C177.772,262.873,178.656,263.755,178.656,264.852L178.656,264.852z M178.656,264.852"/>
<path d="M182.634,270.819c0,1.096-0.893,1.99-1.99,1.99c-1.096,0-1.988-0.894-1.988-1.99c0-1.097,0.892-1.99,1.988-1.99
	C181.741,268.829,182.634,269.722,182.634,270.819L182.634,270.819z M182.634,270.819"/>
<path d="M170.708,264.852c0,1.105-0.893,1.989-1.989,1.989c-1.096,0-1.989-0.883-1.989-1.989c0-1.096,0.894-1.979,1.989-1.979
	C169.816,262.873,170.708,263.755,170.708,264.852L170.708,264.852z M170.708,264.852"/>
<path d="M174.687,270.819c0,1.096-0.892,1.99-1.989,1.99s-1.99-0.894-1.99-1.99c0-1.097,0.893-1.99,1.99-1.99
	S174.687,269.722,174.687,270.819L174.687,270.819z M174.687,270.819"/>
<path fill="#FFFFFF" d="M212.06,317.409c3.939,1.789,8.433,1.789,12.37,0c0.99-0.451,1.918-1.005,2.781-1.65h-8.964v-3h11.974
	c1.892-2.513,3.029-5.622,3.029-9.004v-4.53c-8.886-0.299-16.222-3.225-19.36-7.385c-1.987,3.165-5.96,5.425-10.648,5.832v6.084
	C203.242,309.823,206.869,315.048,212.06,317.409z M224.249,300.755c2.482,0,4.502,2.02,4.502,4.501h-3.002
	c0-0.827-0.671-1.502-1.5-1.502s-1.501,0.675-1.501,1.502h-3C219.747,302.774,221.766,300.755,224.249,300.755z M212.244,300.755
	c2.481,0,4.502,2.02,4.502,4.501h-3c0-0.827-0.673-1.502-1.501-1.502c-0.827,0-1.5,0.675-1.5,1.502h-3.001
	C207.744,302.774,209.762,300.755,212.244,300.755z"/>
<polygon fill="#FFFFFF" points="207.17,320.26 213.172,332.263 215.818,332.263 209.816,320.26 "/>
<path fill="#FFFFFF" d="M218.247,281.249c-7.733,0-14.118,5.883-14.918,13.409c5.039-0.551,8.916-3.659,8.916-7.408
	c0-0.826,0.672-1.5,1.501-1.5c0.829,0,1.5,0.674,1.5,1.5c0,4.156,7.175,8.584,18.002,8.964
	C233.228,287.96,226.505,281.249,218.247,281.249z"/>
<polygon fill="#FFFFFF" points="229.322,320.26 226.677,320.26 220.674,332.263 223.321,332.263 "/>
<path fill="#FFFFFF" d="M235.98,306.755c-0.359,2.129-1.089,4.132-2.128,5.941c2.196-0.299,3.9-2.164,3.9-4.44v-1.576
	c-0.249,0.028-0.496,0.075-0.75,0.075H235.98z"/>
<path fill="#FFFFFF" d="M236.251,296.253v7.501h0.75c2.068,0,3.75-1.682,3.75-3.75c0-2.067-1.682-3.751-3.75-3.751H236.251z"/>
<path fill="#FFFFFF" d="M195.74,300.004c0,2.068,1.682,3.75,3.752,3.75h0.75v-7.501h-0.75
	C197.421,296.253,195.74,297.937,195.74,300.004z"/>
<path fill="#FFFFFF" d="M218.247,278.249c8.904,0,16.3,6.502,17.733,15.003h1.021c0.232,0,0.452,0.045,0.679,0.068
	c-0.74-10.087-9.164-18.073-19.434-18.073s-18.693,7.986-19.434,18.073c0.226-0.023,0.446-0.068,0.679-0.068h1.022
	C201.947,284.751,209.344,278.249,218.247,278.249z"/>
<path fill="#FFFFFF" d="M222.883,321.133c-1.481,0.395-3.031,0.626-4.637,0.626s-3.155-0.231-4.637-0.626l4.637,9.274
	L222.883,321.133z"/>
<path fill="#FFFFFF" d="M239.251,335.264H197.24c-2.48,0-4.501,2.02-4.501,4.5v19.505h51.015v-19.505
	C243.753,337.284,241.734,335.264,239.251,335.264z M218.247,353.269c-3.31,0-6.002-2.692-6.002-6.001
	c0-3.309,2.693-6.002,6.002-6.002c3.311,0,6.002,2.693,6.002,6.002C224.249,350.577,221.557,353.269,218.247,353.269z
	 M240.751,356.269h-3v-10.502h3V356.269z M240.751,342.765h-3v-3h3V342.765z"/>
<path fill="#FFFFFF" d="M232.655,320.307l-5.978,11.956h12.574c4.138,0,7.503,3.366,7.503,7.502v19.505h4.502v-19.505
	C251.256,329.315,242.988,320.784,232.655,320.307z"/>
<path fill="#FFFFFF" d="M251.256,285.75h3v3h-3V285.75z M251.256,291.752h3v3.001h-3V291.752z M251.256,297.754h3v3h-3V297.754z
	 M182.237,303.754h3v3.001h-3V303.754z M182.237,309.757h3v3.001h-3V309.757z M182.237,315.759h3v3h-3V315.759z M263.259,362.271
	h-90.024v-3.001h9.002v-19.505c0-12.41,10.095-22.506,22.505-22.506h1.636c-3.038-2.673-5.161-6.345-5.864-10.503h-1.022
	c-3.724,0-6.753-3.029-6.753-6.751c0-2.343,1.204-4.408,3.02-5.619c0.2-12.239,10.202-22.138,22.488-22.138
	s22.288,9.899,22.487,22.138c1.817,1.211,3.02,3.276,3.02,5.619c0,2.335-1.193,4.396-3.002,5.609v2.644
	c0,4.137-3.364,7.502-7.502,7.502h-1.621c-0.476,0.53-0.978,1.03-1.513,1.5h1.636c12.409,0,22.504,10.096,22.504,22.506v19.505
	h9.003V362.271z"/>
<path fill="#FFFFFF" d="M218.247,344.266c-1.655,0-3,1.346-3,3.001c0,1.654,1.345,3,3,3c1.654,0,3.001-1.346,3.001-3
	C221.248,345.612,219.9,344.266,218.247,344.266z"/>
<path fill="#FFFFFF" d="M209.816,332.263l-5.978-11.956c-10.333,0.477-18.601,9.008-18.601,19.458v19.505h4.502v-19.505
	c0-4.136,3.366-7.502,7.5-7.502H209.816z"/>
<path d="M211.93,296.639c-2.738,0-4.964,2.228-4.964,4.965h3.31c0-0.912,0.742-1.657,1.654-1.657c0.914,0,1.656,0.745,1.656,1.657
	h3.31C216.896,298.867,214.667,296.639,211.93,296.639L211.93,296.639z M211.93,296.639"/>
<path d="M225.171,296.639c-2.738,0-4.966,2.228-4.966,4.965h3.31c0-0.912,0.742-1.657,1.656-1.657c0.914,0,1.654,0.745,1.654,1.657
	h3.311C230.137,298.867,227.909,296.639,225.171,296.639L225.171,296.639z M225.171,296.639"/>
<path d="M218.551,341.323c-3.65,0-6.621,2.97-6.621,6.62s2.97,6.62,6.621,6.62c3.652,0,6.621-2.969,6.621-6.62
	S222.203,341.323,218.551,341.323L218.551,341.323z M218.551,351.251c-1.826,0-3.31-1.484-3.31-3.309
	c0-1.826,1.484-3.311,3.31-3.311c1.824,0,3.311,1.484,3.311,3.311C221.862,349.767,220.375,351.251,218.551,351.251L218.551,351.251
	z M218.551,351.251"/>
<path d="M258.27,361.182v-21.514c0-13.688-11.135-24.824-24.823-24.824h-1.804c0.589-0.519,1.144-1.07,1.668-1.654h1.788
	c4.564,0,8.275-3.713,8.275-8.275v-2.916c1.995-1.338,3.311-3.61,3.311-6.187c0-2.585-1.326-4.862-3.331-6.198
	c-0.22-13.5-11.252-24.418-24.804-24.418s-24.584,10.918-24.805,24.418c-2.003,1.336-3.331,3.613-3.331,6.198
	c0,4.106,3.341,7.447,7.448,7.447h1.127c0.775,4.586,3.117,8.637,6.468,11.585h-1.804c-13.688,0-24.823,11.136-24.823,24.824v21.514
	h-9.93v3.311H268.2v-3.311H258.27z M240.065,304.914c0,2.511-1.879,4.568-4.302,4.897c1.146-1.995,1.951-4.205,2.348-6.553h1.127
	c0.28,0,0.553-0.052,0.827-0.083V304.914z M243.374,295.811c0,2.281-1.855,4.136-4.136,4.136h-0.827v-8.274h0.827
	C241.519,291.673,243.374,293.531,243.374,295.811L243.374,295.811z M198.691,299.947h-0.827c-2.283,0-4.138-1.855-4.138-4.136
	c0-2.28,1.855-4.138,4.138-4.138h0.827V299.947z M197.864,288.364c-0.255,0-0.5,0.05-0.748,0.076
	c0.816-11.126,10.106-19.935,21.435-19.935s20.62,8.809,21.436,19.935c-0.25-0.026-0.494-0.076-0.749-0.076h-1.127
	c-1.581-9.377-9.739-16.549-19.56-16.549c-9.82,0-17.979,7.172-19.56,16.549H197.864z M235.098,291.631
	c-11.943-0.419-19.857-5.304-19.857-9.888c0-0.911-0.741-1.654-1.655-1.654c-0.915,0-1.656,0.743-1.656,1.654
	c0,4.135-4.276,7.563-9.834,8.171c0.882-8.301,7.925-14.79,16.455-14.79C227.661,275.124,235.076,282.527,235.098,291.631
	L235.098,291.631z M202,299.947v-6.711c5.17-0.449,9.553-2.941,11.745-6.432c3.461,4.589,11.553,7.816,21.354,8.146v4.997
	c0,3.731-1.254,7.161-3.341,9.932h-13.207v3.31h9.887c-0.952,0.711-1.976,1.323-3.067,1.82c-4.343,1.973-9.299,1.973-13.644,0
	C206,312.405,202,306.641,202,299.947L202,299.947z M213.436,319.117c1.635,0.436,3.344,0.691,5.115,0.691s3.48-0.255,5.115-0.691
	l-5.115,10.23L213.436,319.117z M215.872,331.393h-2.918l-6.62-13.239h2.919L215.872,331.393z M227.85,318.154h2.917l-6.619,13.239
	h-2.919L227.85,318.154z M187.107,339.667v21.514h-4.966v-21.514c0-11.525,9.119-20.936,20.518-21.462l6.594,13.187H195.38
	C190.819,331.393,187.107,335.105,187.107,339.667L187.107,339.667z M246.685,361.182h-56.27v-21.514
	c0-2.736,2.229-4.964,4.965-4.964h46.339c2.738,0,4.966,2.228,4.966,4.964V361.182z M254.961,361.182h-4.966v-21.514
	c0-4.563-3.711-8.275-8.276-8.275H227.85l6.593-13.187c11.397,0.526,20.518,9.937,20.518,21.462V361.182z M254.961,361.182"/>
<rect x="240.065" y="346.287" width="3.309" height="11.584"/>
<rect x="240.065" y="339.667" width="3.309" height="3.31"/>
<rect x="254.961" y="280.089" width="3.309" height="3.31"/>
<rect x="254.961" y="286.709" width="3.309" height="3.31"/>
<rect x="254.961" y="293.33" width="3.309" height="3.31"/>
<rect x="178.832" y="299.947" width="3.31" height="3.311"/>
<rect x="178.832" y="306.569" width="3.31" height="3.311"/>
<rect x="178.832" y="313.189" width="3.31" height="3.31"/>
<rect x="18.33" y="338.667" fill="#FFFFFF" width="78.784" height="74.9"/>
<rect x="66.906" y="394.389" fill="#FFFFFF" width="39.194" height="31.059"/>
<g>
	<defs>
		<rect id="SVGID_3_" x="7.444" y="325.553" width="108.852" height="109.396"/>
	</defs>
	<clipPath id="SVGID_6_">
		<use xlink:href="#SVGID_3_"  overflow="visible"/>
	</clipPath>
	<path clip-path="url(#SVGID_6_)" d="M94.525,379.186v-16.637c0-5.449-2.123-10.569-5.975-14.423c-0.709-0.709-1.856-0.709-2.565,0
		c-3.851,3.855-5.973,8.977-5.973,14.424v17.104c-0.558,0.172-1.101,0.379-1.646,0.584c-0.954-2.357-1.606-4.801-1.904-7.296
		l-2.416-20.138c-0.889-7.411-4.285-14.399-9.563-19.676l-6.772-6.773c-0.708-0.708-1.855-0.708-2.565,0l-6.774,6.775
		c-5.277,5.277-8.673,12.266-9.563,19.676l-2.416,20.138c-0.458,3.833-1.704,7.445-3.548,10.707V362.55
		c0-5.448-2.124-10.569-5.974-14.423c-0.709-0.709-1.856-0.709-2.566,0c-3.853,3.854-5.975,8.975-5.975,14.423v35.106
		c-3.027,2.894-5.487,6.343-7.212,10.222l-3.518,7.92c-0.25,0.563-0.195,1.211,0.137,1.726c0.335,0.514,0.906,0.825,1.521,0.825
		h38.098v2.772c0,5.697,3.164,10.816,8.26,13.366c0.254,0.126,0.533,0.19,0.812,0.19c0.277,0,0.557-0.064,0.811-0.19
		c4.543-2.272,7.535-6.593,8.133-11.541c5.111,7.09,13.416,11.731,22.805,11.731c15.506,0,28.12-12.615,28.12-28.119
		C116.296,393.237,106.977,382.075,94.525,379.186L94.525,379.186z M83.64,362.55c0-3.832,1.278-7.466,3.628-10.421
		c2.351,2.955,3.629,6.59,3.629,10.421v16.025c-0.124-0.012-0.252-0.009-0.378-0.019c-0.687-0.062-1.363-0.094-2.033-0.104
		c-0.106-0.001-0.206-0.016-0.311-0.016c-0.104,0-0.202,0.014-0.304,0.014c-0.768,0.007-1.53,0.041-2.296,0.116
		c-0.403,0.038-0.799,0.102-1.197,0.156c-0.245,0.036-0.49,0.061-0.739,0.101V362.55z M21.957,362.55
		c0-3.832,1.278-7.466,3.629-10.421c2.352,2.955,3.629,6.59,3.629,10.421v26.137c-1.724,1.912-3.684,3.632-5.911,5.049
		c-0.46,0.294-0.901,0.613-1.347,0.927V362.55z M40.1,414.721v-9.072H60.07c-0.009,0.305-0.014,0.608-0.014,0.908
		c0,0.858,0.052,1.708,0.128,2.557c0.023,0.255,0.054,0.51,0.085,0.765c0.073,0.611,0.165,1.216,0.279,1.821
		c0.048,0.255,0.089,0.512,0.144,0.763c0.162,0.758,0.349,1.511,0.577,2.258H40.1z M54.613,402.021v-3.629
		c0-0.999,0.813-1.813,1.814-1.813c1.001,0,1.813,0.814,1.813,1.813v3.629H54.613z M61.869,421.121c0,4.002-2.063,7.628-5.441,9.671
		c-3.379-2.043-5.443-5.669-5.443-9.674v-2.77h3.628v3.628h3.627v-3.628h3.628V421.121z M62.469,395.209
		c-0.17,0.379-0.32,0.768-0.472,1.155c-0.098,0.25-0.205,0.497-0.295,0.75c-0.582-2.384-2.716-4.163-5.274-4.163
		c-3.001,0-5.443,2.441-5.443,5.441v3.629H38.286c-1.003,0-1.814,0.813-1.814,1.813v10.886H12.05l2.387-5.367
		c2.3-5.173,6.04-9.518,10.817-12.556c8.209-5.224,13.583-13.76,14.742-23.422l2.417-20.137c0.792-6.608,3.819-12.84,8.525-17.543
		l5.49-5.492l5.49,5.488c4.706,4.707,7.733,10.937,8.524,17.544l2.417,20.137c0.343,2.854,1.072,5.653,2.171,8.34
		c-0.332,0.176-0.649,0.372-0.972,0.561c-0.369,0.214-0.731,0.431-1.086,0.66c-0.307,0.198-0.61,0.398-0.908,0.608
		c-0.43,0.301-0.848,0.616-1.257,0.941c-0.286,0.225-0.572,0.452-0.847,0.69c-0.466,0.396-0.918,0.807-1.357,1.233
		c-0.234,0.229-0.461,0.463-0.688,0.7c-0.333,0.347-0.658,0.705-0.975,1.069c-0.208,0.239-0.42,0.474-0.62,0.721
		c-0.438,0.54-0.854,1.099-1.25,1.67c-0.206,0.296-0.395,0.603-0.589,0.907c-0.224,0.353-0.445,0.711-0.653,1.076
		c-0.19,0.332-0.381,0.659-0.559,0.999C62.984,394.093,62.717,394.647,62.469,395.209L62.469,395.209z M88.176,431.048
		c-10.406,0-19.293-6.534-22.835-15.705c-0.216-0.561-0.427-1.125-0.601-1.693c-0.071-0.232-0.12-0.474-0.183-0.709
		c-0.144-0.527-0.29-1.055-0.396-1.587c-0.077-0.39-0.123-0.792-0.18-1.188c-0.06-0.392-0.135-0.781-0.173-1.174
		c-0.08-0.802-0.123-1.613-0.123-2.434c0-0.731,0.046-1.484,0.115-2.242c0.021-0.226,0.047-0.452,0.075-0.676
		c0.06-0.499,0.137-0.994,0.225-1.483c0.048-0.253,0.086-0.508,0.141-0.759c0.136-0.634,0.297-1.259,0.482-1.874
		c0.097-0.319,0.21-0.631,0.32-0.946c0.117-0.335,0.236-0.668,0.366-0.998c0.137-0.343,0.276-0.684,0.427-1.02
		c0.133-0.296,0.278-0.586,0.424-0.875c0.264-0.535,0.549-1.057,0.854-1.568c0.185-0.311,0.366-0.625,0.563-0.926
		c0.2-0.305,0.414-0.6,0.626-0.896c0.194-0.269,0.391-0.535,0.595-0.797c0.218-0.277,0.438-0.555,0.668-0.823
		c0.25-0.294,0.513-0.575,0.778-0.856c0.342-0.364,0.694-0.718,1.059-1.063c0.3-0.282,0.603-0.563,0.916-0.833
		c0.267-0.226,0.543-0.442,0.821-0.658c0.262-0.205,0.529-0.404,0.801-0.6c0.301-0.216,0.603-0.431,0.916-0.633
		c0.249-0.161,0.506-0.31,0.761-0.462c0.657-0.394,1.333-0.758,2.032-1.092c1.469-0.704,3.016-1.263,4.629-1.663
		c0.964-0.24,1.926-0.418,2.879-0.541c0.042-0.005,0.083-0.016,0.125-0.021c0.976-0.121,1.941-0.185,2.891-0.185
		c0.719,0,1.426,0.048,2.129,0.107c0.676,0.064,1.37,0.155,2.094,0.283h0.002c11.495,2.012,20.266,12.041,20.266,24.102
		C112.667,420.061,101.68,431.048,88.176,431.048L88.176,431.048z M88.176,431.048"/>
</g>
<path d="M56.428,349.409c-5.002,0-9.071,4.07-9.071,9.071h3.628c0-3.001,2.442-5.442,5.443-5.442c3,0,5.441,2.441,5.441,5.442h3.63
	C65.499,353.479,61.429,349.409,56.428,349.409L56.428,349.409z M56.428,349.409"/>
<rect x="54.613" y="365.737" width="3.627" height="3.63"/>
<rect x="54.613" y="372.994" width="3.627" height="3.628"/>
<rect x="54.613" y="380.251" width="3.627" height="3.628"/>
<path d="M85.197,385.904l0.513,3.591c3.339-0.477,6.792,0.031,9.848,1.483l1.555-3.278
	C93.413,385.943,89.241,385.323,85.197,385.904L85.197,385.904z M85.197,385.904"/>
<path d="M81.222,386.88c-1.387,0.493-2.726,1.132-3.975,1.902l1.903,3.091c1.032-0.638,2.137-1.166,3.279-1.571L81.222,386.88z
	 M81.222,386.88"/>
<path d="M103.065,391.668c-0.599-0.598-1.527-0.701-2.244-0.256l-14.515,9.07c-0.529,0.332-0.853,0.914-0.853,1.54v5.442
	c0,1.001,0.811,1.814,1.814,1.814h5.443c0.625,0,1.205-0.322,1.538-0.853l9.071-14.513
	C103.77,393.195,103.661,392.265,103.065,391.668L103.065,391.668z M91.704,405.649h-2.621v-2.623l6.993-4.373L91.704,405.649z
	 M91.704,405.649"/>
<path d="M78.198,411.092c-3.001,0-5.442,2.441-5.442,5.443c0,3,2.441,5.441,5.442,5.441s5.442-2.441,5.442-5.441
	C83.64,413.533,81.199,411.092,78.198,411.092L78.198,411.092z M78.198,418.349c-1.002,0-1.815-0.814-1.815-1.813
	c0-1,0.813-1.814,1.815-1.814c1.001,0,1.814,0.813,1.814,1.814C80.012,417.535,79.199,418.349,78.198,418.349L78.198,418.349z
	 M78.198,418.349"/>
<path d="M99.968,411.092c-3,0-5.442,2.441-5.442,5.443c0,3,2.442,5.441,5.442,5.441c3.001,0,5.443-2.441,5.443-5.441
	C105.411,413.533,102.969,411.092,99.968,411.092L99.968,411.092z M99.968,418.349c-1.002,0-1.813-0.814-1.813-1.813
	c0-1,0.812-1.814,1.813-1.814s1.814,0.813,1.814,1.814C101.782,417.535,100.97,418.349,99.968,418.349L99.968,418.349z
	 M99.968,418.349"/>
</svg>
