<?xml version="1.0" encoding="utf-8"?>
<!-- Generator: Adobe Illustrator 15.1.0, SVG Export Plug-In  -->
<!DOCTYPE svg PUBLIC "-//W3C//DTD SVG 1.1//EN" "http://www.w3.org/Graphics/SVG/1.1/DTD/svg11.dtd" [
	<!ENTITY ns_flows "http://ns.adobe.com/Flows/1.0/">
]>
<svg version="1.1"
	 xmlns="http://www.w3.org/2000/svg" xmlns:xlink="http://www.w3.org/1999/xlink" xmlns:a="http://ns.adobe.com/AdobeSVGViewerExtensions/3.0/"
	 x="0px" y="0px" width="500px" height="500px" viewBox="-68.372 24.181 500 500" enable-background="new -68.372 24.181 500 500"
	 xml:space="preserve">
<defs>
</defs>
<text transform="matrix(1 0 0 1 109.791 20.0879)" font-family="'MyriadPro-Regular'" font-size="24">dedicated servers</text>
<path fill="none" stroke="#010101" stroke-width="5" stroke-linecap="square" stroke-linejoin="round" stroke-dasharray="0,12" d="
	M12.49,302.816C-2.847,207.41,62.071,117.647,157.484,102.304c95.408-15.321,185.176,49.595,200.498,145.009
	c15.338,95.395-49.575,185.174-144.988,200.51C117.588,463.153,27.819,398.228,12.49,302.816z"/>
<path stroke="#FFFFFF" d="M116.527,103.482c0,4.407-3.586,7.992-7.991,7.992v5.328c4.405,0,7.991,3.583,7.991,7.99h5.327
	c0-4.407,3.585-7.99,7.992-7.99v-5.328c-4.407,0-7.992-3.585-7.992-7.992H116.527L116.527,103.482z M119.189,116.883
	c-0.776-1.047-1.697-1.965-2.744-2.746c1.047-0.777,1.968-1.697,2.744-2.746c0.78,1.049,1.701,1.969,2.748,2.746
	C120.891,114.918,119.97,115.836,119.189,116.883L119.189,116.883z M119.189,116.883"/>
<path stroke="#FFFFFF" stroke-width="2" d="M8.628,252.107c0,3.943-3.211,7.151-7.152,7.151v4.77c3.941,0,7.152,3.209,7.152,7.152
	h4.768c0-3.943,3.209-7.152,7.154-7.152v-4.77c-3.945,0-7.154-3.208-7.154-7.151H8.628L8.628,252.107z M11.011,264.103
	c-0.695-0.938-1.519-1.764-2.453-2.458c0.935-0.697,1.758-1.521,2.453-2.458c0.699,0.938,1.522,1.761,2.459,2.458
	C12.534,262.339,11.71,263.165,11.011,264.103L11.011,264.103z M11.011,264.103"/>
<path stroke="#FFFFFF" d="M333.775,179.803c0,5.291-4.31,9.604-9.604,9.604v6.398c5.294,0,9.604,4.308,9.604,9.604h6.4
	c0-5.297,4.311-9.604,9.604-9.604v-6.398c-5.293,0-9.604-4.313-9.604-9.604H333.775L333.775,179.803z M336.976,195.904
	c-0.935-1.256-2.043-2.363-3.301-3.299c1.258-0.934,2.366-2.041,3.301-3.3c0.935,1.259,2.042,2.366,3.301,3.3
	C339.018,193.541,337.91,194.648,336.976,195.904L336.976,195.904z M336.976,195.904"/>
<rect y="359.203" fill="#FFFFFF" width="135" height="77.118"/>
<g>
	<defs>
		<rect id="SVGID_3_" x="19.48" y="336.181" width="111.614" height="111.614"/>
	</defs>
	<clipPath id="SVGID_6_">
		<use xlink:href="#SVGID_3_"  overflow="visible"/>
	</clipPath>
	<path clip-path="url(#SVGID_6_)" d="M92.031,336.181c-10.038,0-19.753,3.952-27.01,10.905c-0.553-1.041-0.894-2.207-0.894-3.463
		c0-1.029-0.834-1.861-1.86-1.861c-1.028,0-1.861,0.832-1.861,1.861c0,4.103-3.337,7.44-7.44,7.44c-1.028,0-1.86,0.833-1.86,1.86
		c0,1.029,0.833,1.86,1.86,1.86c1.842,0,3.506,0.697,4.806,1.809c-3.137,5.74-4.806,12.152-4.806,18.654
		c0,10.102,3.885,19.292,10.202,26.234l-6.481,6.48l-2.405-2.405c-0.728-0.728-1.903-0.728-2.631,0l-31.624,31.624
		c-0.728,0.727-0.728,1.903,0,2.63l7.44,7.44c0.364,0.363,0.839,0.546,1.315,0.546c0.477,0,0.952-0.183,1.315-0.546l31.625-31.624
		c0.726-0.726,0.726-1.902,0-2.63l-2.406-2.405l6.48-6.48c6.942,6.313,16.132,10.202,26.234,10.202
		c21.541,0,39.064-17.526,39.064-39.065C131.095,353.706,113.572,336.181,92.031,336.181L92.031,336.181z M28.782,443.304
		l-4.81-4.811L52.966,409.5l4.811,4.811L28.782,443.304z M62.267,349.785c0.324,0.488,0.714,0.925,1.108,1.354
		c0.024,0.03,0.034,0.068,0.061,0.096c0.024,0.028,0.055,0.05,0.082,0.078c0.154,0.162,0.317,0.306,0.48,0.458
		c0.391,0.367,0.8,0.705,1.23,1.007c0.063,0.042,0.113,0.103,0.176,0.145c-0.624,0.415-1.203,0.891-1.73,1.42
		c-0.107,0.108-0.187,0.242-0.291,0.354c-0.397,0.433-0.79,0.874-1.117,1.365c-0.146-0.22-0.34-0.4-0.499-0.608
		c-0.094-0.123-0.176-0.25-0.277-0.369c-0.016-0.021-0.045-0.026-0.062-0.044c-0.679-0.799-1.424-1.532-2.299-2.115
		C60.371,352.097,61.44,351.027,62.267,349.785L62.267,349.785z M92.031,410.59c-19.491,0-35.345-15.854-35.345-35.344
		c0-5.199,1.169-10.34,3.402-15.055c0.026,0.089,0.059,0.172,0.082,0.263c0.041,0.157,0.077,0.313,0.105,0.474
		c0.076,0.423,0.132,0.853,0.132,1.297c0,1.028,0.833,1.86,1.861,1.86c1.025,0,1.86-0.832,1.86-1.86
		c0-3.012,1.806-5.598,4.385-6.768c-0.42,0.977-0.665,1.993-0.665,3.047v33.484c0,7.302,10.622,13.022,24.183,13.022
		c13.561,0,24.182-5.72,24.182-13.022v-33.484c0-7.301-10.622-13.021-24.182-13.021c-8.451,0-15.755,2.221-20.063,5.661
		c-0.134-0.031-0.258-0.081-0.4-0.081c-0.458,0-0.901-0.056-1.336-0.135c-0.129-0.025-0.257-0.057-0.385-0.086
		c-0.309-0.074-0.608-0.17-0.9-0.281c-0.132-0.049-0.266-0.093-0.394-0.15c-0.346-0.154-0.678-0.337-0.993-0.54
		c-0.015-0.008-0.033-0.017-0.048-0.028c6.626-6.425,15.26-9.94,24.519-9.94c19.489,0,35.345,15.855,35.345,35.344
		C127.375,394.735,111.52,410.59,92.031,410.59L92.031,410.59z M92.031,371.525c8.727,0,16.217-2.377,20.461-6.013v4.152
		c0,4.399-8.404,9.301-20.461,9.301c-12.059,0-20.463-4.902-20.463-9.301v-4.152C75.812,369.148,83.304,371.525,92.031,371.525
		L92.031,371.525z M71.568,358.503c0-4.399,8.404-9.301,20.463-9.301c12.057,0,20.461,4.901,20.461,9.301
		c0,4.401-8.404,9.301-20.461,9.301C79.972,367.805,71.568,362.904,71.568,358.503L71.568,358.503z M92.031,382.687
		c8.727,0,16.217-2.377,20.461-6.012v4.152c0,4.398-8.404,9.301-20.461,9.301c-12.059,0-20.463-4.903-20.463-9.301v-4.152
		C75.812,380.309,83.304,382.687,92.031,382.687L92.031,382.687z M92.031,393.848c8.727,0,16.217-2.376,20.461-6.012v4.152
		c0,4.4-8.404,9.301-20.461,9.301c-12.059,0-20.463-4.9-20.463-9.301v-4.152C75.812,391.471,83.304,393.848,92.031,393.848
		L92.031,393.848z M92.031,393.848"/>
</g>
<path d="M45.525,386.407c-4.104,0-7.441-3.337-7.441-7.441c0-1.029-0.834-1.86-1.86-1.86s-1.859,0.831-1.859,1.86
	c0,4.104-3.338,7.441-7.442,7.441c-1.026,0-1.859,0.831-1.859,1.86s0.833,1.861,1.859,1.861c4.104,0,7.442,3.338,7.442,7.44
	c0,1.028,0.833,1.861,1.859,1.861s1.86-0.833,1.86-1.861c0-4.103,3.337-7.44,7.441-7.44c1.026,0,1.859-0.832,1.859-1.861
	S46.551,386.407,45.525,386.407L45.525,386.407z M36.223,391.405c-0.825-1.241-1.896-2.312-3.138-3.138
	c1.242-0.826,2.313-1.895,3.138-3.138c0.825,1.243,1.896,2.311,3.138,3.138C38.12,389.094,37.051,390.164,36.223,391.405
	L36.223,391.405z M36.223,391.405"/>
<rect x="60.406" y="425.472" width="3.721" height="3.721"/>
<rect x="67.848" y="425.472" width="3.72" height="3.721"/>
<rect x="75.288" y="425.472" width="3.72" height="3.721"/>
<rect x="82.729" y="425.472" width="3.721" height="3.721"/>
<rect x="90.17" y="425.472" width="3.72" height="3.721"/>
<rect x="97.611" y="425.472" width="3.721" height="3.721"/>
<rect x="105.052" y="425.472" width="3.721" height="3.721"/>
<rect x="112.492" y="425.472" width="3.721" height="3.721"/>
<rect x="119.934" y="425.472" width="3.721" height="3.721"/>
<rect x="127.375" y="425.472" width="3.719" height="3.721"/>
<rect x="60.406" y="432.913" width="3.721" height="3.721"/>
<rect x="52.966" y="432.913" width="3.72" height="3.721"/>
<rect x="67.848" y="432.913" width="3.72" height="3.721"/>
<rect x="75.288" y="432.913" width="3.72" height="3.721"/>
<rect x="82.729" y="432.913" width="3.721" height="3.721"/>
<rect x="90.17" y="432.913" width="3.72" height="3.721"/>
<rect x="97.611" y="432.913" width="3.721" height="3.721"/>
<rect x="105.052" y="432.913" width="3.721" height="3.721"/>
<rect x="112.492" y="432.913" width="3.721" height="3.721"/>
<rect x="119.934" y="432.913" width="3.721" height="3.721"/>
<rect x="127.375" y="432.913" width="3.719" height="3.721"/>
<rect x="25.063" y="360.363" width="3.719" height="3.721"/>
<rect x="32.503" y="360.363" width="3.72" height="3.721"/>
<rect x="39.944" y="360.363" width="3.721" height="3.721"/>
<path d="M131.283,220.101c-4.892,0-8.871,3.977-8.871,8.87c0,4.902,3.979,8.88,8.871,8.88c4.903,0,8.879-3.978,8.879-8.88
	C140.163,224.078,136.186,220.101,131.283,220.101L131.283,220.101z M131.283,233.901c-2.716,0-4.931-2.207-4.931-4.931
	c0-2.716,2.215-4.932,4.931-4.932c2.726,0,4.932,2.216,4.932,4.932C136.215,231.695,134.009,233.901,131.283,233.901
	L131.283,233.901z M131.283,233.901"/>
<path d="M211.175,226.013c0,1.089-0.886,1.975-1.973,1.975c-1.089,0-1.976-0.886-1.976-1.975c0-1.088,0.886-1.974,1.976-1.974
	C210.289,224.039,211.175,224.925,211.175,226.013L211.175,226.013z M211.175,226.013"/>
<path d="M203.287,226.013c0,1.089-0.885,1.975-1.974,1.975s-1.975-0.886-1.975-1.975c0-1.088,0.886-1.974,1.975-1.974
	S203.287,224.925,203.287,226.013L203.287,226.013z M203.287,226.013"/>
<path d="M215.114,231.937c0,1.089-0.876,1.965-1.965,1.965c-1.097,0-1.974-0.876-1.974-1.965c0-1.098,0.877-1.975,1.974-1.975
	C214.237,229.962,215.114,230.838,215.114,231.937L215.114,231.937z M215.114,231.937"/>
<path d="M207.226,231.937c0,1.089-0.876,1.965-1.975,1.965c-1.088,0-1.965-0.876-1.965-1.965c0-1.098,0.877-1.975,1.965-1.975
	C206.35,229.962,207.226,230.838,207.226,231.937L207.226,231.937z M207.226,231.937"/>
<path d="M195.389,226.013c0,1.089-0.875,1.975-1.965,1.975c-1.098,0-1.974-0.886-1.974-1.975c0-1.088,0.876-1.974,1.974-1.974
	C194.514,224.039,195.389,224.925,195.389,226.013L195.389,226.013z M195.389,226.013"/>
<path d="M199.338,231.937c0,1.089-0.887,1.965-1.975,1.965c-1.089,0-1.974-0.876-1.974-1.965c0-1.098,0.885-1.975,1.974-1.975
	C198.451,229.962,199.338,230.838,199.338,231.937L199.338,231.937z M199.338,231.937"/>
<path d="M187.501,226.013c0,1.089-0.877,1.975-1.975,1.975c-1.088,0-1.964-0.886-1.964-1.975c0-1.088,0.876-1.974,1.964-1.974
	C186.625,224.039,187.501,224.925,187.501,226.013L187.501,226.013z M187.501,226.013"/>
<path d="M191.45,231.937c0,1.089-0.886,1.965-1.975,1.965s-1.974-0.876-1.974-1.965c0-1.098,0.886-1.975,1.974-1.975
	S191.45,230.838,191.45,231.937L191.45,231.937z M191.45,231.937"/>
<path d="M179.613,226.013c0,1.089-0.886,1.975-1.975,1.975c-1.087,0-1.974-0.886-1.974-1.975c0-1.088,0.887-1.974,1.974-1.974
	C178.727,224.039,179.613,224.925,179.613,226.013L179.613,226.013z M179.613,226.013"/>
<path d="M183.563,231.937c0,1.089-0.885,1.965-1.975,1.965c-1.089,0-1.975-0.876-1.975-1.965c0-1.098,0.886-1.975,1.975-1.975
	C182.677,229.962,183.563,230.838,183.563,231.937L183.563,231.937z M183.563,231.937"/>
<path d="M228.925,240.595v-23.241c0-5.018-4.075-9.092-9.094-9.092H119.667c-5.017,0-9.092,4.074-9.092,9.092v23.241
	c0,2.899,1.387,5.452,3.506,7.118c-2.119,1.666-3.506,4.219-3.506,7.118v23.241c0,5.018,4.075,9.092,9.092,9.092h48.109v15.978
	c-3.852,0.789-6.906,3.833-7.686,7.697h-47.539c-1.089,0-1.976,0.874-1.976,1.963c0,1.098,0.887,1.976,1.976,1.976h47.539
	c0.916,4.497,4.893,7.887,9.661,7.887c4.767,0,8.744-3.391,9.661-7.887h47.54c1.088,0,1.974-0.877,1.974-1.976
	c0-1.089-0.886-1.963-1.974-1.963h-47.54c-0.781-3.864-3.835-6.908-7.687-7.697v-15.978h48.106c5.02,0,9.094-4.074,9.094-9.092
	v-23.241c0-2.898-1.387-5.452-3.505-7.118C227.539,246.047,228.925,243.494,228.925,240.595L228.925,240.595z M175.664,312.801
	c0,3.265-2.649,5.923-5.913,5.923c-3.265,0-5.913-2.659-5.913-5.923c0-3.255,2.648-5.914,5.913-5.914
	C173.015,306.888,175.664,309.546,175.664,312.801L175.664,312.801z M224.977,254.831v23.241c0,2.84-2.303,5.143-5.146,5.143
	H119.667c-2.841,0-5.143-2.303-5.143-5.143v-23.241c0-2.841,2.302-5.143,5.143-5.143h100.164
	C222.674,249.688,224.977,251.99,224.977,254.831L224.977,254.831z M119.667,245.738c-2.841,0-5.143-2.301-5.143-5.143v-23.241
	c0-2.84,2.302-5.142,5.143-5.142h100.164c2.843,0,5.146,2.302,5.146,5.142v23.241c0,2.842-2.303,5.143-5.146,5.143H119.667z
	 M119.667,245.738"/>
<path d="M131.283,275.325c4.903,0,8.879-3.978,8.879-8.87c0-4.902-3.977-8.879-8.879-8.879c-4.892,0-8.871,3.977-8.871,8.879
	C122.412,271.348,126.391,275.325,131.283,275.325L131.283,275.325z M131.283,261.525c2.726,0,4.932,2.205,4.932,4.93
	c0,2.716-2.206,4.933-4.932,4.933c-2.716,0-4.931-2.217-4.931-4.933C126.352,263.729,128.567,261.525,131.283,261.525
	L131.283,261.525z M131.283,261.525"/>
<path d="M211.175,263.489c0,1.098-0.886,1.974-1.973,1.974c-1.089,0-1.976-0.876-1.976-1.974c0-1.088,0.886-1.964,1.976-1.964
	C210.289,261.525,211.175,262.401,211.175,263.489L211.175,263.489z M211.175,263.489"/>
<path d="M203.287,263.489c0,1.098-0.885,1.974-1.974,1.974s-1.975-0.876-1.975-1.974c0-1.088,0.886-1.964,1.975-1.964
	S203.287,262.401,203.287,263.489L203.287,263.489z M203.287,263.489"/>
<path d="M215.114,269.412c0,1.088-0.876,1.976-1.965,1.976c-1.097,0-1.974-0.887-1.974-1.976c0-1.089,0.877-1.975,1.974-1.975
	C214.237,267.438,215.114,268.323,215.114,269.412L215.114,269.412z M215.114,269.412"/>
<path d="M207.226,269.412c0,1.088-0.876,1.976-1.975,1.976c-1.088,0-1.965-0.887-1.965-1.976c0-1.089,0.877-1.975,1.965-1.975
	C206.35,267.438,207.226,268.323,207.226,269.412L207.226,269.412z M207.226,269.412"/>
<path d="M195.389,263.489c0,1.098-0.875,1.974-1.965,1.974c-1.098,0-1.974-0.876-1.974-1.974c0-1.088,0.876-1.964,1.974-1.964
	C194.514,261.525,195.389,262.401,195.389,263.489L195.389,263.489z M195.389,263.489"/>
<path d="M199.338,269.412c0,1.088-0.887,1.976-1.975,1.976c-1.089,0-1.974-0.887-1.974-1.976c0-1.089,0.885-1.975,1.974-1.975
	C198.451,267.438,199.338,268.323,199.338,269.412L199.338,269.412z M199.338,269.412"/>
<path d="M187.501,263.489c0,1.098-0.877,1.974-1.975,1.974c-1.088,0-1.964-0.876-1.964-1.974c0-1.088,0.876-1.964,1.964-1.964
	C186.625,261.525,187.501,262.401,187.501,263.489L187.501,263.489z M187.501,263.489"/>
<path d="M191.45,269.412c0,1.088-0.886,1.976-1.975,1.976s-1.974-0.887-1.974-1.976c0-1.089,0.886-1.975,1.974-1.975
	S191.45,268.323,191.45,269.412L191.45,269.412z M191.45,269.412"/>
<path d="M179.613,263.489c0,1.098-0.886,1.974-1.975,1.974c-1.087,0-1.974-0.876-1.974-1.974c0-1.088,0.887-1.964,1.974-1.964
	C178.727,261.525,179.613,262.401,179.613,263.489L179.613,263.489z M179.613,263.489"/>
<path d="M183.563,269.412c0,1.088-0.885,1.976-1.975,1.976c-1.089,0-1.975-0.887-1.975-1.976c0-1.089,0.886-1.975,1.975-1.975
	C182.677,267.438,183.563,268.323,183.563,269.412L183.563,269.412z M183.563,269.412"/>
<path fill="#FFFFFF" d="M213.805,309.198c4.84,2.197,10.361,2.197,15.198,0c1.217-0.554,2.357-1.236,3.417-2.028h-11.013v-3.687
	h14.711c2.324-3.087,3.721-6.907,3.721-11.063v-5.565c-10.917-0.367-19.93-3.963-23.786-9.074
	c-2.441,3.888-7.323,6.665-13.082,7.165v7.475C202.972,299.877,207.427,306.297,213.805,309.198z M228.781,288.736
	c3.05,0,5.531,2.48,5.531,5.53h-3.688c0-1.016-0.825-1.846-1.843-1.846s-1.845,0.83-1.845,1.846h-3.687
	C223.25,291.216,225.731,288.736,228.781,288.736z M214.032,288.736c3.048,0,5.532,2.48,5.532,5.53h-3.687
	c0-1.016-0.827-1.846-1.845-1.846c-1.016,0-1.842,0.83-1.842,1.846h-3.687C208.503,291.216,210.982,288.736,214.032,288.736z"/>
<polygon fill="#FFFFFF" points="207.798,312.701 215.172,327.448 218.423,327.448 211.05,312.701 "/>
<path fill="#FFFFFF" d="M221.407,264.77c-9.501,0-17.347,7.229-18.329,16.474c6.191-0.676,10.954-4.495,10.954-9.101
	c0-1.015,0.826-1.843,1.845-1.843c1.018,0,1.844,0.828,1.844,1.843c0,5.106,8.814,10.547,22.118,11.015
	C239.814,273.016,231.555,264.77,221.407,264.77z"/>
<polygon fill="#FFFFFF" points="235.014,312.701 231.765,312.701 224.39,327.448 227.641,327.448 "/>
<path fill="#FFFFFF" d="M243.195,296.108c-0.441,2.616-1.338,5.078-2.615,7.3c2.698-0.367,4.792-2.659,4.792-5.456v-1.937
	c-0.306,0.035-0.609,0.092-0.921,0.092H243.195z"/>
<path fill="#FFFFFF" d="M243.529,283.204v9.216h0.922c2.541,0,4.607-2.067,4.607-4.608c0-2.54-2.066-4.608-4.607-4.608H243.529z"/>
<path fill="#FFFFFF" d="M193.753,287.812c0,2.541,2.067,4.608,4.61,4.608h0.921v-9.216h-0.921
	C195.821,283.204,193.753,285.272,193.753,287.812z"/>
<path fill="#FFFFFF" d="M221.407,261.083c10.938,0,20.026,7.989,21.788,18.434h1.256c0.284,0,0.555,0.055,0.834,0.084
	c-0.909-12.394-11.258-22.205-23.877-22.205s-22.968,9.812-23.877,22.205c0.278-0.029,0.549-0.084,0.834-0.084h1.256
	C201.38,269.072,210.469,261.083,221.407,261.083z"/>
<path fill="#FFFFFF" d="M227.104,313.773c-1.82,0.485-3.724,0.771-5.697,0.771s-3.876-0.285-5.697-0.771l5.697,11.395
	L227.104,313.773z"/>
<path fill="#FFFFFF" d="M247.215,331.135h-51.618c-3.048,0-5.53,2.481-5.53,5.53v23.965h62.679v-23.965
	C252.747,333.617,250.265,331.135,247.215,331.135z M221.407,353.257c-4.066,0-7.375-3.309-7.375-7.375
	c0-4.065,3.31-7.374,7.375-7.374c4.067,0,7.374,3.309,7.374,7.374C228.781,349.949,225.474,353.257,221.407,353.257z
	 M249.058,356.942h-3.686v-12.903h3.686V356.942z M249.058,340.352h-3.686v-3.687h3.686V340.352z"/>
<path fill="#FFFFFF" d="M239.109,312.758l-7.345,14.689h15.451c5.083,0,9.218,4.135,9.218,9.217v23.965h5.531v-23.965
	C261.964,323.827,251.806,313.345,239.109,312.758z"/>
<path fill="#FFFFFF" d="M261.964,270.3h3.686v3.686h-3.686V270.3z M261.964,277.674h3.686v3.688h-3.686V277.674z M261.964,285.049
	h3.686v3.687h-3.686V285.049z M177.164,292.42h3.687v3.688h-3.687V292.42z M177.164,299.796h3.687v3.688h-3.687V299.796z
	 M177.164,307.17h3.687v3.687h-3.687V307.17z M276.711,364.317H166.103v-3.688h11.061v-23.965c0-15.248,12.404-27.652,27.65-27.652
	h2.01c-3.732-3.285-6.341-7.796-7.205-12.905h-1.256c-4.576,0-8.296-3.721-8.296-8.296c0-2.878,1.478-5.415,3.709-6.904
	c0.246-15.037,12.535-27.199,27.63-27.199s27.384,12.162,27.629,27.199c2.233,1.489,3.71,4.025,3.71,6.904
	c0,2.87-1.467,5.402-3.689,6.892v3.248c0,5.083-4.134,9.218-9.218,9.218h-1.992c-0.583,0.651-1.203,1.265-1.858,1.843h2.009
	c15.247,0,27.651,12.404,27.651,27.652v23.965h11.062V364.317z"/>
<path fill="#FFFFFF" d="M221.407,342.195c-2.034,0-3.686,1.654-3.686,3.688c0,2.032,1.652,3.687,3.686,3.687
	c2.031,0,3.688-1.655,3.688-3.687C225.095,343.85,223.438,342.195,221.407,342.195z"/>
<path fill="#FFFFFF" d="M211.05,327.448l-7.346-14.689c-12.696,0.586-22.854,11.068-22.854,23.907v23.965h5.531v-23.965
	c0-5.082,4.136-9.217,9.216-9.217H211.05z"/>
<path d="M214.032,288.736c-3.05,0-5.529,2.48-5.529,5.53h3.687c0-1.016,0.826-1.846,1.842-1.846c1.018,0,1.845,0.83,1.845,1.846
	h3.687C219.563,291.216,217.08,288.736,214.032,288.736L214.032,288.736z M214.032,288.736"/>
<path d="M228.781,288.736c-3.05,0-5.531,2.48-5.531,5.53h3.687c0-1.016,0.827-1.846,1.845-1.846s1.843,0.83,1.843,1.846h3.688
	C234.313,291.216,231.832,288.736,228.781,288.736L228.781,288.736z M228.781,288.736"/>
<path d="M221.407,338.509c-4.066,0-7.375,3.309-7.375,7.374c0,4.066,3.31,7.375,7.375,7.375c4.067,0,7.374-3.309,7.374-7.375
	C228.781,341.817,225.474,338.509,221.407,338.509L221.407,338.509z M221.407,349.569c-2.034,0-3.686-1.655-3.686-3.687
	c0-2.033,1.652-3.688,3.686-3.688c2.031,0,3.688,1.654,3.688,3.688C225.095,347.915,223.438,349.569,221.407,349.569
	L221.407,349.569z M221.407,349.569"/>
<path d="M265.65,360.63v-23.965c0-15.248-12.404-27.652-27.651-27.652h-2.009c0.656-0.578,1.275-1.192,1.858-1.843h1.992
	c5.084,0,9.218-4.135,9.218-9.218v-3.248c2.222-1.49,3.689-4.022,3.689-6.892c0-2.878-1.478-5.415-3.71-6.904
	c-0.245-15.037-12.533-27.199-27.629-27.199s-27.385,12.162-27.63,27.199c-2.231,1.489-3.709,4.025-3.709,6.904
	c0,4.575,3.721,8.296,8.296,8.296h1.256c0.863,5.109,3.472,9.621,7.205,12.905h-2.01c-15.247,0-27.65,12.404-27.65,27.652v23.965
	h-11.061v3.688h110.608v-3.688H265.65z M245.372,297.952c0,2.797-2.093,5.089-4.792,5.456c1.276-2.222,2.173-4.684,2.615-7.3h1.256
	c0.312,0,0.615-0.058,0.921-0.092V297.952z M249.058,287.812c0,2.541-2.066,4.608-4.607,4.608h-0.922v-9.216h0.922
	C246.991,283.204,249.058,285.272,249.058,287.812L249.058,287.812z M199.285,292.42h-0.921c-2.543,0-4.61-2.067-4.61-4.608
	c0-2.54,2.067-4.608,4.61-4.608h0.921V292.42z M198.364,279.518c-0.285,0-0.556,0.055-0.834,0.084
	c0.909-12.394,11.258-22.205,23.877-22.205s22.968,9.812,23.877,22.205c-0.279-0.029-0.55-0.084-0.834-0.084h-1.256
	c-1.761-10.445-10.849-18.434-21.788-18.434s-20.027,7.989-21.788,18.434H198.364z M239.839,283.157
	c-13.303-0.467-22.118-5.908-22.118-11.015c0-1.015-0.827-1.843-1.844-1.843c-1.019,0-1.845,0.828-1.845,1.843
	c0,4.606-4.763,8.425-10.954,9.101c0.982-9.246,8.828-16.474,18.329-16.474C231.555,264.77,239.814,273.016,239.839,283.157
	L239.839,283.157z M202.972,292.42v-7.475c5.759-0.5,10.641-3.276,13.082-7.165c3.856,5.111,12.869,8.707,23.786,9.074v5.565
	c0,4.156-1.397,7.976-3.721,11.063h-14.711v3.687h11.013c-1.06,0.792-2.2,1.474-3.417,2.028c-4.837,2.197-10.358,2.197-15.198,0
	C207.427,306.297,202.972,299.877,202.972,292.42L202.972,292.42z M215.71,313.773c1.821,0.485,3.725,0.771,5.697,0.771
	s3.876-0.285,5.697-0.771l-5.697,11.395L215.71,313.773z M218.423,327.448h-3.251l-7.375-14.747h3.252L218.423,327.448z
	 M231.765,312.701h3.25l-7.373,14.747h-3.251L231.765,312.701z M186.381,336.665v23.965h-5.531v-23.965
	c0-12.838,10.158-23.32,22.854-23.907l7.346,14.689h-15.453C190.517,327.448,186.381,331.583,186.381,336.665L186.381,336.665z
	 M252.747,360.63h-62.679v-23.965c0-3.048,2.481-5.53,5.53-5.53h51.618c3.049,0,5.531,2.481,5.531,5.53V360.63z M261.964,360.63
	h-5.531v-23.965c0-5.082-4.134-9.217-9.218-9.217h-15.451l7.345-14.689c12.696,0.586,22.855,11.068,22.855,23.907V360.63z
	 M261.964,360.63"/>
<rect x="245.372" y="344.039" width="3.686" height="12.903"/>
<rect x="245.372" y="336.665" width="3.686" height="3.687"/>
<rect x="261.964" y="270.3" width="3.686" height="3.686"/>
<rect x="261.964" y="277.674" width="3.686" height="3.688"/>
<rect x="261.964" y="285.049" width="3.686" height="3.687"/>
<rect x="177.164" y="292.42" width="3.687" height="3.688"/>
<rect x="177.164" y="299.796" width="3.687" height="3.688"/>
<rect x="177.164" y="307.17" width="3.687" height="3.687"/>
</svg>
