<?xml version="1.0" encoding="utf-8"?>
<!-- Generator: Adobe Illustrator 15.1.0, SVG Export Plug-In  -->
<!DOCTYPE svg PUBLIC "-//W3C//DTD SVG 1.1//EN" "http://www.w3.org/Graphics/SVG/1.1/DTD/svg11.dtd" [
	<!ENTITY ns_flows "http://ns.adobe.com/Flows/1.0/">
]>
<svg version="1.1"
	 xmlns="http://www.w3.org/2000/svg" xmlns:xlink="http://www.w3.org/1999/xlink" xmlns:a="http://ns.adobe.com/AdobeSVGViewerExtensions/3.0/"
	 x="0px" y="0px" width="500px" height="500px" viewBox="-66.137 24.182 500 500" enable-background="new -66.137 24.182 500 500"
	 xml:space="preserve">
<defs>
</defs>
<text transform="matrix(1 0 0 1 78.0454 20.0879)" font-family="'MyriadPro-Regular'" font-size="24">dedicated servers</text>
<path fill="none" stroke="#010101" stroke-width="5" stroke-linecap="square" stroke-linejoin="round" stroke-dasharray="0,12" d="
	M4.744,302.691c-15.337-95.407,49.581-185.169,144.994-200.513c95.408-15.321,185.176,49.595,200.498,145.009
	c15.338,95.395-49.575,185.174-144.988,200.51C109.841,463.028,20.073,398.103,4.744,302.691z"/>
<path stroke="#FFFFFF" d="M108.781,107.357c0,4.407-3.586,7.992-7.991,7.992v5.328c4.405,0,7.991,3.583,7.991,7.99h5.327
	c0-4.407,3.585-7.99,7.992-7.99v-5.328c-4.407,0-7.992-3.585-7.992-7.992H108.781L108.781,107.357z M111.443,120.758
	c-0.776-1.047-1.697-1.965-2.744-2.746c1.047-0.777,1.968-1.697,2.744-2.746c0.78,1.049,1.701,1.969,2.748,2.746
	C113.144,118.793,112.223,119.711,111.443,120.758L111.443,120.758z M111.443,120.758"/>
<path stroke="#FFFFFF" stroke-width="2" d="M339.41,246.541c0,3.943-3.211,7.151-7.152,7.151v4.77c3.941,0,7.152,3.209,7.152,7.152
	h4.768c0-3.943,3.209-7.152,7.154-7.152v-4.77c-3.945,0-7.154-3.208-7.154-7.151H339.41L339.41,246.541z M341.792,258.536
	c-0.695-0.938-1.519-1.764-2.453-2.458c0.935-0.697,1.758-1.521,2.453-2.458c0.699,0.938,1.522,1.761,2.459,2.458
	C343.315,256.772,342.492,257.599,341.792,258.536L341.792,258.536z M341.792,258.536"/>
<path stroke="#FFFFFF" d="M225.557,430.977c0,5.291-4.31,9.604-9.604,9.604v6.398c5.294,0,9.604,4.308,9.604,9.604h6.4
	c0-5.297,4.311-9.604,9.604-9.604v-6.398c-5.293,0-9.604-4.313-9.604-9.604H225.557L225.557,430.977z M228.757,447.078
	c-0.935-1.256-2.043-2.363-3.301-3.299c1.258-0.934,2.366-2.041,3.301-3.3c0.935,1.259,2.042,2.366,3.301,3.3
	C230.799,444.715,229.692,445.822,228.757,447.078L228.757,447.078z M228.757,447.078"/>
<path d="M125.739,225.079c-4.695,0-8.515,3.816-8.515,8.513c0,4.704,3.819,8.522,8.515,8.522c4.706,0,8.523-3.818,8.523-8.522
	C134.262,228.896,130.445,225.079,125.739,225.079L125.739,225.079z M125.739,238.325c-2.607,0-4.733-2.118-4.733-4.732
	c0-2.607,2.125-4.734,4.733-4.734c2.617,0,4.733,2.127,4.733,4.734C130.472,236.207,128.355,238.325,125.739,238.325
	L125.739,238.325z M125.739,238.325"/>
<path d="M202.419,230.754c0,1.044-0.85,1.895-1.895,1.895c-1.045,0-1.896-0.851-1.896-1.895c0-1.044,0.851-1.896,1.896-1.896
	C201.569,228.858,202.419,229.709,202.419,230.754L202.419,230.754z M202.419,230.754"/>
<path d="M194.848,230.754c0,1.044-0.85,1.895-1.895,1.895s-1.895-0.851-1.895-1.895c0-1.044,0.85-1.896,1.895-1.896
	S194.848,229.709,194.848,230.754L194.848,230.754z M194.848,230.754"/>
<path d="M206.199,236.439c0,1.044-0.842,1.886-1.885,1.886c-1.054,0-1.895-0.841-1.895-1.886c0-1.054,0.841-1.896,1.895-1.896
	C205.357,234.543,206.199,235.385,206.199,236.439L206.199,236.439z M206.199,236.439"/>
<path d="M198.629,236.439c0,1.044-0.842,1.886-1.895,1.886c-1.044,0-1.886-0.841-1.886-1.886c0-1.054,0.841-1.896,1.886-1.896
	C197.787,234.543,198.629,235.385,198.629,236.439L198.629,236.439z M198.629,236.439"/>
<path d="M187.268,230.754c0,1.044-0.84,1.895-1.886,1.895c-1.054,0-1.895-0.851-1.895-1.895c0-1.044,0.841-1.896,1.895-1.896
	C186.427,228.858,187.268,229.709,187.268,230.754L187.268,230.754z M187.268,230.754"/>
<path d="M191.059,236.439c0,1.044-0.852,1.886-1.896,1.886s-1.895-0.841-1.895-1.886c0-1.054,0.851-1.896,1.895-1.896
	S191.059,235.385,191.059,236.439L191.059,236.439z M191.059,236.439"/>
<path d="M179.698,230.754c0,1.044-0.842,1.895-1.896,1.895c-1.044,0-1.886-0.851-1.886-1.895c0-1.044,0.842-1.896,1.886-1.896
	C178.855,228.858,179.698,229.709,179.698,230.754L179.698,230.754z M179.698,230.754"/>
<path d="M183.487,236.439c0,1.044-0.851,1.886-1.896,1.886c-1.044,0-1.894-0.841-1.894-1.886c0-1.054,0.85-1.896,1.894-1.896
	C182.637,234.543,183.487,235.385,183.487,236.439L183.487,236.439z M183.487,236.439"/>
<path d="M172.126,230.754c0,1.044-0.851,1.895-1.895,1.895s-1.896-0.851-1.896-1.895c0-1.044,0.852-1.896,1.896-1.896
	S172.126,229.709,172.126,230.754L172.126,230.754z M172.126,230.754"/>
<path d="M175.916,236.439c0,1.044-0.85,1.886-1.895,1.886c-1.045,0-1.896-0.841-1.896-1.886c0-1.054,0.85-1.896,1.896-1.896
	C175.066,234.543,175.916,235.385,175.916,236.439L175.916,236.439z M175.916,236.439"/>
<path d="M219.456,244.749v-22.305c0-4.817-3.91-8.727-8.729-8.727H114.59c-4.815,0-8.727,3.909-8.727,8.727v22.305
	c0,2.784,1.331,5.234,3.365,6.833c-2.035,1.598-3.365,4.049-3.365,6.832v22.305c0,4.815,3.911,8.727,8.727,8.727h46.174v15.336
	c-3.697,0.756-6.628,3.678-7.377,7.386H107.76c-1.045,0-1.896,0.84-1.896,1.885c0,1.053,0.851,1.896,1.896,1.896h45.628
	c0.879,4.316,4.697,7.57,9.272,7.57s8.394-3.254,9.273-7.57h45.628c1.045,0,1.895-0.843,1.895-1.896c0-1.045-0.85-1.885-1.895-1.885
	h-45.628c-0.75-3.708-3.68-6.63-7.377-7.386v-15.336h46.171c4.819,0,8.729-3.911,8.729-8.727v-22.305
	c0-2.783-1.331-5.234-3.365-6.832C218.125,249.982,219.456,247.532,219.456,244.749L219.456,244.749z M168.335,314.053
	c0,3.133-2.542,5.686-5.675,5.686c-3.133,0-5.676-2.552-5.676-5.686c0-3.125,2.542-5.676,5.676-5.676
	C165.792,308.377,168.335,310.928,168.335,314.053L168.335,314.053z M215.667,258.413v22.305c0,2.726-2.211,4.937-4.94,4.937H114.59
	c-2.727,0-4.937-2.21-4.937-4.937v-22.305c0-2.728,2.21-4.937,4.937-4.937h96.136C213.456,253.477,215.667,255.685,215.667,258.413
	L215.667,258.413z M114.59,249.686c-2.727,0-4.937-2.209-4.937-4.937v-22.305c0-2.726,2.21-4.937,4.937-4.937h96.136
	c2.729,0,4.94,2.21,4.94,4.937v22.305c0,2.728-2.211,4.937-4.94,4.937H114.59z M114.59,249.686"/>
<path d="M125.739,278.083c4.706,0,8.523-3.817,8.523-8.513c0-4.705-3.817-8.522-8.523-8.522c-4.695,0-8.515,3.817-8.515,8.522
	C117.224,274.266,121.043,278.083,125.739,278.083L125.739,278.083z M125.739,264.837c2.617,0,4.733,2.117,4.733,4.732
	c0,2.606-2.116,4.734-4.733,4.734c-2.607,0-4.733-2.128-4.733-4.734C121.006,266.954,123.131,264.837,125.739,264.837
	L125.739,264.837z M125.739,264.837"/>
<path d="M202.419,266.723c0,1.054-0.85,1.896-1.895,1.896c-1.045,0-1.896-0.842-1.896-1.896c0-1.044,0.851-1.885,1.896-1.885
	C201.569,264.837,202.419,265.678,202.419,266.723L202.419,266.723z M202.419,266.723"/>
<path d="M194.848,266.723c0,1.054-0.85,1.896-1.895,1.896s-1.895-0.842-1.895-1.896c0-1.044,0.85-1.885,1.895-1.885
	S194.848,265.678,194.848,266.723L194.848,266.723z M194.848,266.723"/>
<path d="M206.199,272.408c0,1.044-0.842,1.896-1.885,1.896c-1.054,0-1.895-0.852-1.895-1.896s0.841-1.895,1.895-1.895
	C205.357,270.513,206.199,271.363,206.199,272.408L206.199,272.408z M206.199,272.408"/>
<path d="M198.629,272.408c0,1.044-0.842,1.896-1.895,1.896c-1.044,0-1.886-0.852-1.886-1.896s0.841-1.895,1.886-1.895
	C197.787,270.513,198.629,271.363,198.629,272.408L198.629,272.408z M198.629,272.408"/>
<path d="M187.268,266.723c0,1.054-0.84,1.896-1.886,1.896c-1.054,0-1.895-0.842-1.895-1.896c0-1.044,0.841-1.885,1.895-1.885
	C186.427,264.837,187.268,265.678,187.268,266.723L187.268,266.723z M187.268,266.723"/>
<path d="M191.059,272.408c0,1.044-0.852,1.896-1.896,1.896s-1.895-0.852-1.895-1.896s0.851-1.895,1.895-1.895
	S191.059,271.363,191.059,272.408L191.059,272.408z M191.059,272.408"/>
<path d="M179.698,266.723c0,1.054-0.842,1.896-1.896,1.896c-1.044,0-1.886-0.842-1.886-1.896c0-1.044,0.842-1.885,1.886-1.885
	C178.855,264.837,179.698,265.678,179.698,266.723L179.698,266.723z M179.698,266.723"/>
<path d="M183.487,272.408c0,1.044-0.851,1.896-1.896,1.896c-1.044,0-1.894-0.852-1.894-1.896s0.85-1.895,1.894-1.895
	C182.637,270.513,183.487,271.363,183.487,272.408L183.487,272.408z M183.487,272.408"/>
<path d="M172.126,266.723c0,1.054-0.851,1.896-1.895,1.896s-1.896-0.842-1.896-1.896c0-1.044,0.852-1.885,1.896-1.885
	S172.126,265.678,172.126,266.723L172.126,266.723z M172.126,266.723"/>
<path d="M175.916,272.408c0,1.044-0.85,1.896-1.895,1.896c-1.045,0-1.896-0.852-1.896-1.896s0.85-1.895,1.896-1.895
	C175.066,270.513,175.916,271.363,175.916,272.408L175.916,272.408z M175.916,272.408"/>
<text transform="matrix(1 0 0 1 68.6353 373.5698)" font-family="'Arial-Black'" font-size="19.303">₹</text>
<path fill="#FFFFFF" d="M208.545,304.701c4.305,1.955,9.215,1.955,13.517,0c1.082-0.491,2.096-1.099,3.038-1.803h-9.794v-3.278
	h13.084c2.066-2.745,3.31-6.143,3.31-9.838v-4.951c-9.709-0.326-17.725-3.523-21.153-8.068c-2.171,3.458-6.514,5.927-11.634,6.372
	v6.647C198.911,296.412,202.874,302.121,208.545,304.701z M221.863,286.505c2.712,0,4.919,2.207,4.919,4.918h-3.279
	c0-0.904-0.734-1.642-1.64-1.642c-0.905,0-1.641,0.738-1.641,1.642h-3.279C216.944,288.711,219.151,286.505,221.863,286.505z
	 M208.748,286.505c2.71,0,4.919,2.207,4.919,4.918h-3.279c0-0.904-0.735-1.642-1.64-1.642c-0.904,0-1.64,0.738-1.64,1.642h-3.278
	C203.83,288.711,206.035,286.505,208.748,286.505z"/>
<polygon fill="#FFFFFF" points="203.204,307.816 209.761,320.932 212.652,320.932 206.094,307.816 "/>
<path fill="#FFFFFF" d="M215.305,265.192c-8.449,0-15.425,6.429-16.299,14.651c5.505-0.602,9.742-3.997,9.742-8.093
	c0-0.903,0.733-1.64,1.64-1.64c0.906,0,1.639,0.736,1.639,1.64c0,4.541,7.84,9.379,19.67,9.794
	C231.675,272.525,224.33,265.192,215.305,265.192z"/>
<polygon fill="#FFFFFF" points="227.406,307.816 224.517,307.816 217.959,320.932 220.849,320.932 "/>
<path fill="#FFFFFF" d="M234.681,293.061c-0.392,2.327-1.19,4.515-2.325,6.491c2.4-0.326,4.262-2.365,4.262-4.852v-1.722
	c-0.273,0.031-0.541,0.082-0.82,0.082H234.681z"/>
<path fill="#FFFFFF" d="M234.978,281.586v8.196h0.82c2.259,0,4.097-1.838,4.097-4.097c0-2.259-1.838-4.099-4.097-4.099H234.978z"/>
<path fill="#FFFFFF" d="M190.713,285.685c0,2.259,1.838,4.097,4.099,4.097h0.82v-8.196h-0.82
	C192.552,281.586,190.713,283.426,190.713,285.685z"/>
<path fill="#FFFFFF" d="M215.305,261.914c9.728,0,17.81,7.104,19.376,16.394h1.117c0.253,0,0.494,0.049,0.742,0.074
	c-0.809-11.021-10.013-19.747-21.235-19.747s-20.426,8.726-21.234,19.747c0.247-0.025,0.488-0.074,0.741-0.074h1.117
	C197.495,269.019,205.578,261.914,215.305,261.914z"/>
<path fill="#FFFFFF" d="M220.372,308.771c-1.619,0.433-3.313,0.686-5.067,0.686s-3.448-0.253-5.067-0.686l5.067,10.135
	L220.372,308.771z"/>
<path fill="#FFFFFF" d="M238.256,324.211h-45.904c-2.71,0-4.917,2.206-4.917,4.917v21.312h55.74v-21.312
	C243.175,326.417,240.969,324.211,238.256,324.211z M215.305,343.883c-3.615,0-6.558-2.941-6.558-6.558
	c0-3.616,2.942-6.558,6.558-6.558c3.617,0,6.558,2.942,6.558,6.558C221.863,340.942,218.922,343.883,215.305,343.883z
	 M239.895,347.161h-3.277v-11.475h3.277V347.161z M239.895,332.406h-3.277v-3.277h3.277V332.406z"/>
<path fill="#FFFFFF" d="M231.048,307.868l-6.531,13.064h13.74c4.521,0,8.198,3.678,8.198,8.197v21.312h4.919v-21.312
	C251.373,317.711,242.338,308.389,231.048,307.868z"/>
<path fill="#FFFFFF" d="M251.373,270.11h3.278v3.279h-3.278V270.11z M251.373,276.668h3.278v3.278h-3.278V276.668z M251.373,283.227
	h3.278v3.278h-3.278V283.227z M175.96,289.782h3.278v3.279h-3.278V289.782z M175.96,296.341h3.278v3.279h-3.278V296.341z
	 M175.96,302.898h3.278v3.279h-3.278V302.898z M264.488,353.72h-98.364v-3.279h9.836v-21.312c0-13.56,11.03-24.592,24.59-24.592
	h1.787c-3.318-2.921-5.639-6.932-6.407-11.476h-1.117c-4.068,0-7.377-3.309-7.377-7.376c0-2.561,1.314-4.816,3.299-6.14
	c0.219-13.373,11.147-24.189,24.571-24.189s24.353,10.816,24.57,24.189c1.986,1.324,3.3,3.58,3.3,6.14
	c0,2.552-1.304,4.804-3.28,6.128v2.888c0,4.521-3.676,8.198-8.196,8.198h-1.771c-0.52,0.58-1.07,1.126-1.653,1.639h1.787
	c13.56,0,24.591,11.032,24.591,24.592v21.312h9.836V353.72z"/>
<path fill="#FFFFFF" d="M215.305,334.046c-1.808,0-3.278,1.472-3.278,3.279s1.47,3.278,3.278,3.278c1.807,0,3.28-1.471,3.28-3.278
	S217.112,334.046,215.305,334.046z"/>
<path fill="#FFFFFF" d="M206.094,320.932l-6.531-13.064c-11.291,0.521-20.324,9.843-20.324,21.261v21.312h4.919v-21.312
	c0-4.52,3.678-8.197,8.195-8.197H206.094z"/>
<path d="M208.748,286.505c-2.713,0-4.917,2.207-4.917,4.918h3.278c0-0.904,0.736-1.642,1.64-1.642c0.905,0,1.64,0.738,1.64,1.642
	h3.279C213.667,288.711,211.458,286.505,208.748,286.505L208.748,286.505z M208.748,286.505"/>
<path d="M221.863,286.505c-2.712,0-4.919,2.207-4.919,4.918h3.279c0-0.904,0.736-1.642,1.641-1.642c0.905,0,1.64,0.738,1.64,1.642
	h3.279C226.782,288.711,224.576,286.505,221.863,286.505L221.863,286.505z M221.863,286.505"/>
<path d="M215.305,330.768c-3.615,0-6.558,2.942-6.558,6.558c0,3.616,2.942,6.558,6.558,6.558c3.617,0,6.558-2.941,6.558-6.558
	C221.863,333.71,218.922,330.768,215.305,330.768L215.305,330.768z M215.305,340.604c-1.808,0-3.278-1.471-3.278-3.278
	s1.47-3.279,3.278-3.279c1.807,0,3.28,1.472,3.28,3.279S217.112,340.604,215.305,340.604L215.305,340.604z M215.305,340.604"/>
<path d="M254.651,350.44v-21.312c0-13.56-11.031-24.592-24.591-24.592h-1.787c0.583-0.513,1.133-1.059,1.653-1.639h1.771
	c4.521,0,8.196-3.677,8.196-8.198v-2.888c1.976-1.325,3.28-3.577,3.28-6.128c0-2.561-1.314-4.816-3.3-6.14
	c-0.218-13.373-11.146-24.189-24.57-24.189s-24.352,10.816-24.571,24.189c-1.985,1.324-3.299,3.58-3.299,6.14
	c0,4.067,3.309,7.376,7.377,7.376h1.117c0.769,4.544,3.089,8.555,6.407,11.476h-1.787c-13.56,0-24.59,11.032-24.59,24.592v21.312
	h-9.836v3.279h98.364v-3.279H254.651z M236.618,294.701c0,2.487-1.862,4.526-4.262,4.852c1.135-1.977,1.933-4.164,2.325-6.491h1.117
	c0.279,0,0.547-0.051,0.82-0.082V294.701z M239.895,285.685c0,2.259-1.838,4.097-4.097,4.097h-0.82v-8.196h0.82
	C238.057,281.586,239.895,283.426,239.895,285.685L239.895,285.685z M195.633,289.782h-0.82c-2.261,0-4.099-1.838-4.099-4.097
	c0-2.259,1.838-4.099,4.099-4.099h0.82V289.782z M194.813,278.308c-0.253,0-0.494,0.049-0.741,0.074
	c0.808-11.021,10.012-19.747,21.234-19.747s20.426,8.726,21.235,19.747c-0.248-0.025-0.489-0.074-0.742-0.074h-1.117
	c-1.566-9.289-9.648-16.394-19.376-16.394c-9.728,0-17.81,7.104-19.376,16.394H194.813z M231.697,281.544
	c-11.83-0.415-19.67-5.254-19.67-9.794c0-0.903-0.733-1.64-1.639-1.64c-0.907,0-1.64,0.736-1.64,1.64
	c0,4.096-4.237,7.492-9.742,8.093c0.874-8.222,7.851-14.651,16.299-14.651C224.33,265.192,231.675,272.525,231.697,281.544
	L231.697,281.544z M198.911,289.782v-6.647c5.121-0.445,9.463-2.914,11.634-6.372c3.429,4.545,11.444,7.742,21.153,8.068v4.951
	c0,3.696-1.243,7.093-3.31,9.838h-13.084v3.278h9.794c-0.942,0.704-1.956,1.312-3.038,1.803c-4.302,1.955-9.211,1.955-13.517,0
	C202.874,302.121,198.911,296.412,198.911,289.782L198.911,289.782z M210.238,308.771c1.619,0.433,3.313,0.686,5.067,0.686
	s3.448-0.253,5.067-0.686l-5.067,10.135L210.238,308.771z M212.652,320.932h-2.891l-6.558-13.115h2.89L212.652,320.932z
	 M224.517,307.816h2.89l-6.557,13.115h-2.89L224.517,307.816z M184.157,329.129v21.312h-4.919v-21.312
	c0-11.418,9.034-20.74,20.324-21.261l6.531,13.064h-13.741C187.835,320.932,184.157,324.609,184.157,329.129L184.157,329.129z
	 M243.175,350.44h-55.74v-21.312c0-2.712,2.208-4.917,4.917-4.917h45.904c2.712,0,4.919,2.206,4.919,4.917V350.44z M251.373,350.44
	h-4.919v-21.312c0-4.52-3.677-8.197-8.198-8.197h-13.74l6.531-13.064c11.291,0.521,20.325,9.843,20.325,21.261V350.44z
	 M251.373,350.44"/>
<rect x="236.618" y="335.686" width="3.277" height="11.475"/>
<rect x="236.618" y="329.129" width="3.277" height="3.277"/>
<rect x="251.373" y="270.11" width="3.278" height="3.279"/>
<rect x="251.373" y="276.668" width="3.278" height="3.278"/>
<rect x="251.373" y="283.227" width="3.278" height="3.278"/>
<rect x="175.96" y="289.782" width="3.278" height="3.279"/>
<rect x="175.96" y="296.341" width="3.278" height="3.279"/>
<rect x="175.96" y="302.898" width="3.278" height="3.279"/>
<rect x="38.575" y="391.071" fill="#FFFFFF" width="55.226" height="38.571"/>
<path d="M127.082,395.413c-1.582-1.331-3.654-1.887-5.692-1.536l-42.359,7.366l-12.034-12.034c-0.4-0.401-0.942-0.626-1.511-0.626
	H12.081c-1.177,0-2.134,0.958-2.134,2.136v34.178c0,1.181,0.957,2.138,2.134,2.138h29.908c1.18,0,2.137-0.957,2.137-2.138v-2.134
	h5.904l22.838,11.418c0.99,0.492,2.058,0.739,3.124,0.739c1.216,0,2.428-0.318,3.516-0.953l46.599-27.184
	c2.136-1.247,3.464-3.558,3.464-6.03C129.57,398.689,128.665,396.742,127.082,395.413L127.082,395.413z M31.308,422.763H14.219
	v-29.91h17.089V422.763z M39.854,422.763H35.58v-29.91h4.274V422.763z M123.958,403.094l-46.603,27.182
	c-0.792,0.462-1.754,0.49-2.578,0.084l-23.29-11.645c-0.294-0.149-0.622-0.226-0.953-0.226h-6.41v-25.636h20.477l16.829,16.831
	c0.739,0.739,1.146,1.72,1.146,2.762c0,2.155-1.751,3.907-3.907,3.907c-1.043,0-2.023-0.405-2.761-1.145L64.86,404.162l-3.02,3.02
	l11.046,11.047c1.546,1.546,3.6,2.398,5.783,2.398c4.511,0,8.18-3.67,8.18-8.181c0-2.184-0.852-4.237-2.398-5.783l-1.727-1.728
	l39.402-6.852c0.791-0.136,1.595,0.079,2.208,0.596c0.613,0.517,0.966,1.272,0.966,2.075
	C125.3,401.713,124.785,402.608,123.958,403.094L123.958,403.094z M123.958,403.094"/>
<path d="M47.988,351.066c-1.484,0-2.687,1.203-2.687,2.681c0,1.484,1.203,2.686,2.687,2.686h8.208
	c1.154-2.017,2.625-3.828,4.354-5.367H47.988L47.988,351.066z M47.988,351.066"/>
<path d="M47.988,357.833c-1.484,0-2.687,1.202-2.687,2.679c0,1.485,1.203,2.688,2.687,2.688h5.736
	c0.343-1.888,0.938-3.687,1.742-5.368H47.988L47.988,357.833z M47.988,357.833"/>
<path d="M47.988,344.301c-1.484,0-2.687,1.203-2.687,2.688c0,1.478,1.203,2.68,2.687,2.68H62.28c2.381-1.724,5.116-2.98,8.085-3.613
	c-0.375-1.019-1.35-1.755-2.509-1.755H47.988L47.988,344.301z M47.988,344.301"/>
<path d="M67.856,342.903c1.484,0,2.686-1.203,2.686-2.682c0-1.483-1.202-2.686-2.686-2.686H47.988c-1.484,0-2.687,1.203-2.687,2.681
	c0,1.484,1.203,2.687,2.687,2.687H67.856L67.856,342.903z M67.856,342.903"/>
<path d="M47.988,364.599c-1.484,0-2.687,1.202-2.687,2.681c0,1.483,1.203,2.687,2.687,2.687h5.588
	c-0.128-0.957-0.22-1.92-0.22-2.908c0-0.834,0.06-1.65,0.153-2.459H47.988L47.988,364.599z M47.988,364.599"/>
<path d="M47.988,371.365c-1.484,0-2.687,1.203-2.687,2.68c0,1.485,1.203,2.687,2.687,2.687h7.699
	c-0.854-1.681-1.51-3.472-1.896-5.367H47.988L47.988,371.365z M47.988,371.365"/>
<path d="M47.988,378.13c-1.484,0-2.687,1.196-2.687,2.681c0,1.483,1.203,2.688,2.687,2.688h13.053
	c-1.809-1.522-3.343-3.337-4.576-5.369H47.988L47.988,378.13z M47.988,378.13"/>
<path d="M101.661,369.518c1.484,0,2.687-1.202,2.687-2.685c0-1.479-1.203-2.682-2.687-2.682h-5.582
	c0.128,0.95,0.214,1.92,0.214,2.907c0,0.834-0.054,1.65-0.146,2.459H101.661L101.661,369.518z M101.661,369.518"/>
<path d="M101.661,376.285c1.484,0,2.687-1.203,2.687-2.688c0-1.479-1.203-2.681-2.687-2.681h-5.729
	c-0.344,1.89-0.944,3.681-1.75,5.369H101.661L101.661,376.285z M101.661,376.285"/>
<path d="M101.661,362.752c1.484,0,2.687-1.203,2.687-2.687c0-1.479-1.203-2.68-2.687-2.68h-7.693
	c0.854,1.674,1.503,3.471,1.89,5.367H101.661L101.661,362.752z M101.661,362.752"/>
<path d="M101.661,355.986c1.484,0,2.687-1.202,2.687-2.687c0-1.478-1.203-2.68-2.687-2.68H88.608
	c1.809,1.521,3.349,3.337,4.576,5.367H101.661L101.661,355.986z M101.661,355.986"/>
<path d="M101.661,383.05c1.484,0,2.687-1.202,2.687-2.687c0-1.479-1.203-2.681-2.687-2.681H93.46
	c-1.161,2.019-2.632,3.822-4.355,5.367H101.661L101.661,383.05z M101.661,383.05"/>
<path d="M101.661,389.816c1.484,0,2.687-1.202,2.687-2.687c0-1.484-1.203-2.68-2.687-2.68H87.369
	c-2.38,1.717-5.11,2.974-8.085,3.607c0.381,1.023,1.356,1.76,2.509,1.76H101.661L101.661,389.816z M101.661,389.816"/>
<path d="M81.792,391.215c-1.478,0-2.68,1.195-2.68,2.681c0,1.483,1.202,2.686,2.68,2.686h19.869c1.484,0,2.687-1.202,2.687-2.686
	c0-1.485-1.203-2.681-2.687-2.681H81.792L81.792,391.215z M81.792,391.215"/>
<path d="M74.825,348.27c-10.361,0-18.782,8.429-18.782,18.789c0,10.36,8.421,18.783,18.782,18.783
	c10.359,0,18.789-8.422,18.789-18.783C93.614,356.698,85.184,348.27,74.825,348.27L74.825,348.27z M74.825,380.474
	c-7.399,0-13.416-6.019-13.416-13.416c0-7.397,6.017-13.422,13.416-13.422c7.398,0,13.42,6.024,13.42,13.422
	C88.245,374.455,82.223,380.474,74.825,380.474L74.825,380.474z M74.825,380.474"/>
</svg>
