<?xml version="1.0" encoding="utf-8"?>
<!-- Generator: Adobe Illustrator 15.1.0, SVG Export Plug-In  -->
<!DOCTYPE svg PUBLIC "-//W3C//DTD SVG 1.1//EN" "http://www.w3.org/Graphics/SVG/1.1/DTD/svg11.dtd" [
	<!ENTITY ns_flows "http://ns.adobe.com/Flows/1.0/">
]>
<svg version="1.1"
	 xmlns="http://www.w3.org/2000/svg" xmlns:xlink="http://www.w3.org/1999/xlink" xmlns:a="http://ns.adobe.com/AdobeSVGViewerExtensions/3.0/"
	 x="0px" y="0px" width="500px" height="500px" viewBox="-74.039 24.182 500 500" enable-background="new -74.039 24.182 500 500"
	 xml:space="preserve">
<defs>
</defs>
<text transform="matrix(1 0 0 1 62.1431 20.0879)" font-family="'MyriadPro-Regular'" font-size="24">dedicated servers</text>
<path stroke="#FFFFFF" d="M123.245,104.165c0,4.407-3.586,7.992-7.991,7.992v5.328c4.405,0,7.991,3.583,7.991,7.99h5.327
	c0-4.407,3.585-7.99,7.992-7.99v-5.328c-4.407,0-7.992-3.585-7.992-7.992H123.245L123.245,104.165z M125.907,117.565
	c-0.776-1.047-1.697-1.965-2.744-2.746c1.047-0.777,1.968-1.697,2.744-2.746c0.78,1.049,1.701,1.969,2.748,2.746
	C127.608,115.601,126.687,116.519,125.907,117.565L125.907,117.565z M125.907,117.565"/>
<path stroke="#FFFFFF" d="M146.493,416.485c0,5.291-4.31,9.604-9.604,9.604v6.398c5.294,0,9.604,4.308,9.604,9.604h6.4
	c0-5.297,4.311-9.604,9.604-9.604v-6.398c-5.293,0-9.604-4.313-9.604-9.604H146.493L146.493,416.485z M149.693,432.587
	c-0.935-1.256-2.043-2.363-3.301-3.299c1.258-0.934,2.366-2.041,3.301-3.3c0.935,1.259,2.042,2.366,3.301,3.3
	C151.735,430.224,150.627,431.331,149.693,432.587L149.693,432.587z M149.693,432.587"/>
<path fill="none" stroke="#010101" stroke-width="5" stroke-linecap="square" stroke-linejoin="round" stroke-dasharray="0,12" d="
	M4.744,303.041c-15.337-95.407,49.581-185.169,144.994-200.513c95.408-15.321,185.176,49.595,200.498,145.009
	c15.338,95.395-49.575,185.174-144.988,200.51C109.841,463.377,20.073,398.452,4.744,303.041z"/>
<path stroke="#FFFFFF" stroke-width="2" d="M339.41,246.891c0,3.943-3.211,7.151-7.152,7.151v4.77c3.941,0,7.152,3.209,7.152,7.152
	h4.768c0-3.943,3.209-7.152,7.154-7.152v-4.77c-3.945,0-7.154-3.208-7.154-7.151H339.41L339.41,246.891z M341.792,258.886
	c-0.695-0.938-1.519-1.764-2.453-2.458c0.935-0.697,1.758-1.521,2.453-2.458c0.699,0.938,1.522,1.761,2.459,2.458
	C343.315,257.122,342.492,257.948,341.792,258.886L341.792,258.886z M341.792,258.886"/>
<path d="M123.99,227.139c-4.826,0-8.751,3.923-8.751,8.75c0,4.836,3.925,8.76,8.751,8.76c4.836,0,8.759-3.924,8.759-8.76
	C132.749,231.063,128.826,227.139,123.99,227.139L123.99,227.139z M123.99,240.752c-2.68,0-4.864-2.176-4.864-4.864
	c0-2.679,2.185-4.865,4.864-4.865c2.689,0,4.864,2.186,4.864,4.865C128.854,238.576,126.679,240.752,123.99,240.752L123.99,240.752z
	 M123.99,240.752"/>
<path d="M202.8,232.971c0,1.074-0.874,1.948-1.946,1.948c-1.075,0-1.949-0.874-1.949-1.948c0-1.073,0.874-1.947,1.949-1.947
	C201.927,231.024,202.8,231.898,202.8,232.971L202.8,232.971z M202.8,232.971"/>
<path d="M195.02,232.971c0,1.074-0.874,1.948-1.948,1.948c-1.074,0-1.948-0.874-1.948-1.948c0-1.073,0.874-1.947,1.948-1.947
	C194.146,231.024,195.02,231.898,195.02,232.971L195.02,232.971z M195.02,232.971"/>
<path d="M206.687,238.814c0,1.074-0.865,1.938-1.938,1.938c-1.083,0-1.948-0.864-1.948-1.938c0-1.083,0.865-1.948,1.948-1.948
	C205.821,236.866,206.687,237.731,206.687,238.814L206.687,238.814z M206.687,238.814"/>
<path d="M198.905,238.814c0,1.074-0.864,1.938-1.948,1.938c-1.073,0-1.938-0.864-1.938-1.938c0-1.083,0.864-1.948,1.938-1.948
	C198.041,236.866,198.905,237.731,198.905,238.814L198.905,238.814z M198.905,238.814"/>
<path d="M187.229,232.971c0,1.074-0.863,1.948-1.938,1.948c-1.083,0-1.947-0.874-1.947-1.948c0-1.073,0.865-1.947,1.947-1.947
	C186.365,231.024,187.229,231.898,187.229,232.971L187.229,232.971z M187.229,232.971"/>
<path d="M191.124,238.814c0,1.074-0.875,1.938-1.948,1.938c-1.074,0-1.947-0.864-1.947-1.938c0-1.083,0.874-1.948,1.947-1.948
	C190.249,236.866,191.124,237.731,191.124,238.814L191.124,238.814z M191.124,238.814"/>
<path d="M179.448,232.971c0,1.074-0.866,1.948-1.948,1.948c-1.073,0-1.938-0.874-1.938-1.948c0-1.073,0.865-1.947,1.938-1.947
	C178.582,231.024,179.448,231.898,179.448,232.971L179.448,232.971z M179.448,232.971"/>
<path d="M183.343,238.814c0,1.074-0.874,1.938-1.948,1.938c-1.073,0-1.947-0.864-1.947-1.938c0-1.083,0.874-1.948,1.947-1.948
	C182.469,236.866,183.343,237.731,183.343,238.814L183.343,238.814z M183.343,238.814"/>
<path d="M171.666,232.971c0,1.074-0.874,1.948-1.948,1.948c-1.073,0-1.948-0.874-1.948-1.948c0-1.073,0.875-1.947,1.948-1.947
	C170.792,231.024,171.666,231.898,171.666,232.971L171.666,232.971z M171.666,232.971"/>
<path d="M175.562,238.814c0,1.074-0.874,1.938-1.948,1.938s-1.948-0.864-1.948-1.938c0-1.083,0.874-1.948,1.948-1.948
	S175.562,237.731,175.562,238.814L175.562,238.814z M175.562,238.814"/>
<path d="M220.311,247.355V224.43c0-4.95-4.02-8.969-8.971-8.969h-98.808c-4.949,0-8.969,4.019-8.969,8.969v22.925
	c0,2.86,1.367,5.378,3.458,7.022c-2.091,1.643-3.458,4.162-3.458,7.021v22.927c0,4.95,4.02,8.969,8.969,8.969h47.458v15.762
	c-3.8,0.778-6.813,3.781-7.583,7.592h-46.896c-1.074,0-1.948,0.863-1.948,1.937c0,1.083,0.874,1.949,1.948,1.949h46.896
	c0.904,4.436,4.827,7.78,9.53,7.78c4.703,0,8.627-3.345,9.53-7.78h46.896c1.073,0,1.948-0.866,1.948-1.949
	c0-1.074-0.875-1.937-1.948-1.937h-46.896c-0.771-3.811-3.782-6.814-7.583-7.592v-15.762h47.456c4.951,0,8.971-4.019,8.971-8.969
	v-22.927c0-2.859-1.368-5.378-3.458-7.021C218.943,252.734,220.311,250.216,220.311,247.355L220.311,247.355z M167.77,318.585
	c0,3.221-2.613,5.844-5.833,5.844c-3.221,0-5.833-2.623-5.833-5.844c0-3.211,2.612-5.833,5.833-5.833
	C165.157,312.751,167.77,315.374,167.77,318.585L167.77,318.585z M216.416,261.398v22.927c0,2.802-2.271,5.073-5.076,5.073h-98.808
	c-2.803,0-5.074-2.271-5.074-5.073v-22.927c0-2.802,2.271-5.073,5.074-5.073h98.808
	C214.145,256.326,216.416,258.597,216.416,261.398L216.416,261.398z M112.532,252.429c-2.803,0-5.074-2.27-5.074-5.073V224.43
	c0-2.802,2.271-5.073,5.074-5.073h98.808c2.805,0,5.076,2.271,5.076,5.073v22.925c0,2.804-2.271,5.073-5.076,5.073H112.532z
	 M112.532,252.429"/>
<path d="M123.99,281.616c4.836,0,8.759-3.924,8.759-8.75c0-4.835-3.923-8.758-8.759-8.758c-4.826,0-8.751,3.923-8.751,8.758
	C115.239,277.692,119.164,281.616,123.99,281.616L123.99,281.616z M123.99,268.003c2.689,0,4.864,2.175,4.864,4.863
	c0,2.679-2.175,4.866-4.864,4.866c-2.68,0-4.864-2.187-4.864-4.866C119.125,270.178,121.31,268.003,123.99,268.003L123.99,268.003z
	 M123.99,268.003"/>
<path d="M202.8,269.94c0,1.082-0.874,1.947-1.946,1.947c-1.075,0-1.949-0.865-1.949-1.947c0-1.073,0.874-1.938,1.949-1.938
	C201.927,268.003,202.8,268.867,202.8,269.94L202.8,269.94z M202.8,269.94"/>
<path d="M195.02,269.94c0,1.082-0.874,1.947-1.948,1.947c-1.074,0-1.948-0.865-1.948-1.947c0-1.073,0.874-1.938,1.948-1.938
	C194.146,268.003,195.02,268.867,195.02,269.94L195.02,269.94z M195.02,269.94"/>
<path d="M206.687,275.784c0,1.073-0.865,1.948-1.938,1.948c-1.083,0-1.948-0.875-1.948-1.948c0-1.075,0.865-1.949,1.948-1.949
	C205.821,273.835,206.687,274.709,206.687,275.784L206.687,275.784z M206.687,275.784"/>
<path d="M198.905,275.784c0,1.073-0.864,1.948-1.948,1.948c-1.073,0-1.938-0.875-1.938-1.948c0-1.075,0.864-1.949,1.938-1.949
	C198.041,273.835,198.905,274.709,198.905,275.784L198.905,275.784z M198.905,275.784"/>
<path d="M187.229,269.94c0,1.082-0.863,1.947-1.938,1.947c-1.083,0-1.947-0.865-1.947-1.947c0-1.073,0.865-1.938,1.947-1.938
	C186.365,268.003,187.229,268.867,187.229,269.94L187.229,269.94z M187.229,269.94"/>
<path d="M191.124,275.784c0,1.073-0.875,1.948-1.948,1.948c-1.074,0-1.947-0.875-1.947-1.948c0-1.075,0.874-1.949,1.947-1.949
	C190.249,273.835,191.124,274.709,191.124,275.784L191.124,275.784z M191.124,275.784"/>
<path d="M179.448,269.94c0,1.082-0.866,1.947-1.948,1.947c-1.073,0-1.938-0.865-1.938-1.947c0-1.073,0.865-1.938,1.938-1.938
	C178.582,268.003,179.448,268.867,179.448,269.94L179.448,269.94z M179.448,269.94"/>
<path d="M183.343,275.784c0,1.073-0.874,1.948-1.948,1.948c-1.073,0-1.947-0.875-1.947-1.948c0-1.075,0.874-1.949,1.947-1.949
	C182.469,273.835,183.343,274.709,183.343,275.784L183.343,275.784z M183.343,275.784"/>
<path d="M171.666,269.94c0,1.082-0.874,1.947-1.948,1.947c-1.073,0-1.948-0.865-1.948-1.947c0-1.073,0.875-1.938,1.948-1.938
	C170.792,268.003,171.666,268.867,171.666,269.94L171.666,269.94z M171.666,269.94"/>
<path d="M175.562,275.784c0,1.073-0.874,1.948-1.948,1.948s-1.948-0.875-1.948-1.948c0-1.075,0.874-1.949,1.948-1.949
	S175.562,274.709,175.562,275.784L175.562,275.784z M175.562,275.784"/>
<path fill="#FFFFFF" d="M214.938,309.521c4.917,2.232,10.525,2.232,15.439,0c1.236-0.563,2.395-1.255,3.472-2.06h-11.188v-3.745
	h14.945c2.361-3.137,3.78-7.018,3.78-11.239v-5.654c-11.091-0.373-20.247-4.025-24.164-9.218c-2.479,3.95-7.439,6.771-13.29,7.278
	v7.594C203.932,300.052,208.458,306.573,214.938,309.521z M230.152,288.733c3.099,0,5.619,2.521,5.619,5.618h-3.747
	c0-1.032-0.838-1.875-1.872-1.875s-1.874,0.843-1.874,1.875h-3.745C224.533,291.254,227.053,288.733,230.152,288.733z
	 M215.168,288.733c3.097,0,5.619,2.521,5.619,5.618h-3.745c0-1.032-0.84-1.875-1.874-1.875c-1.032,0-1.872,0.843-1.872,1.875h-3.745
	C209.551,291.254,212.07,288.733,215.168,288.733z"/>
<polygon fill="#FFFFFF" points="208.835,313.079 216.327,328.061 219.629,328.061 212.138,313.079 "/>
<path fill="#FFFFFF" d="M222.661,264.387c-9.652,0-17.622,7.344-18.62,16.736c6.289-0.688,11.128-4.566,11.128-9.246
	c0-1.031,0.839-1.872,1.874-1.872c1.034,0,1.873,0.841,1.873,1.872c0,5.188,8.955,10.715,22.47,11.189
	C241.36,272.764,232.969,264.387,222.661,264.387z"/>
<polygon fill="#FFFFFF" points="236.484,313.079 233.183,313.079 225.691,328.061 228.994,328.061 "/>
<path fill="#FFFFFF" d="M244.794,296.223c-0.448,2.658-1.359,5.158-2.656,7.416c2.741-0.373,4.867-2.701,4.867-5.542v-1.968
	c-0.311,0.035-0.618,0.094-0.936,0.094H244.794z"/>
<path fill="#FFFFFF" d="M245.133,283.114v9.362h0.937c2.581,0,4.681-2.1,4.681-4.681c0-2.58-2.1-4.682-4.681-4.682H245.133z"/>
<path fill="#FFFFFF" d="M194.568,287.796c0,2.581,2.1,4.681,4.684,4.681h0.936v-9.362h-0.936
	C196.667,283.114,194.568,285.216,194.568,287.796z"/>
<path fill="#FFFFFF" d="M222.661,260.643c11.112,0,20.345,8.115,22.134,18.727h1.275c0.289,0,0.564,0.056,0.848,0.085
	c-0.924-12.59-11.438-22.558-24.257-22.558s-23.333,9.968-24.257,22.558c0.282-0.029,0.558-0.085,0.848-0.085h1.275
	C202.316,268.758,211.548,260.643,222.661,260.643z"/>
<path fill="#FFFFFF" d="M228.448,314.169c-1.849,0.493-3.783,0.782-5.787,0.782s-3.938-0.289-5.788-0.782l5.788,11.576
	L228.448,314.169z"/>
<path fill="#FFFFFF" d="M248.878,331.807h-52.438c-3.097,0-5.618,2.521-5.618,5.617v24.346h63.675v-24.346
	C254.498,334.327,251.976,331.807,248.878,331.807z M222.661,354.279c-4.131,0-7.492-3.36-7.492-7.491
	c0-4.13,3.361-7.491,7.492-7.491c4.132,0,7.491,3.361,7.491,7.491C230.152,350.919,226.792,354.279,222.661,354.279z
	 M250.75,358.023h-3.745v-13.108h3.745V358.023z M250.75,341.169h-3.745v-3.745h3.745V341.169z"/>
<path fill="#FFFFFF" d="M240.644,313.138l-7.461,14.923h15.695c5.164,0,9.364,4.201,9.364,9.363v24.346h5.619v-24.346
	C263.862,324.382,253.542,313.733,240.644,313.138z"/>
<path fill="#FFFFFF" d="M263.862,270.005h3.744v3.745h-3.744V270.005z M263.862,277.496h3.744v3.746h-3.744V277.496z
	 M263.862,284.988h3.744v3.745h-3.744V284.988z M177.714,292.477h3.745v3.746h-3.745V292.477z M177.714,299.97h3.745v3.746h-3.745
	V299.97z M177.714,307.461h3.745v3.745h-3.745V307.461z M278.843,365.516H166.478v-3.746h11.236v-24.346
	c0-15.489,12.601-28.091,28.09-28.091h2.042c-3.792-3.337-6.442-7.92-7.319-13.11h-1.275c-4.648,0-8.429-3.78-8.429-8.427
	c0-2.925,1.502-5.502,3.769-7.014c0.25-15.276,12.734-27.632,28.069-27.632s27.818,12.355,28.067,27.632
	c2.269,1.512,3.77,4.089,3.77,7.014c0,2.915-1.49,5.487-3.747,7.001v3.3c0,5.163-4.199,9.364-9.364,9.364h-2.023
	c-0.593,0.661-1.222,1.285-1.888,1.872h2.041c15.489,0,28.09,12.602,28.09,28.091v24.346h11.237V365.516z"/>
<path fill="#FFFFFF" d="M222.661,343.042c-2.066,0-3.745,1.681-3.745,3.746c0,2.064,1.679,3.745,3.745,3.745
	c2.063,0,3.746-1.681,3.746-3.745C226.407,344.723,224.724,343.042,222.661,343.042z"/>
<path fill="#FFFFFF" d="M212.138,328.061l-7.462-14.923c-12.897,0.596-23.217,11.244-23.217,24.286v24.346h5.619v-24.346
	c0-5.162,4.201-9.363,9.362-9.363H212.138z"/>
<path d="M215.168,288.733c-3.099,0-5.617,2.521-5.617,5.618h3.745c0-1.032,0.84-1.875,1.872-1.875c1.034,0,1.874,0.843,1.874,1.875
	h3.745C220.788,291.254,218.265,288.733,215.168,288.733L215.168,288.733z M215.168,288.733"/>
<path d="M230.152,288.733c-3.099,0-5.619,2.521-5.619,5.618h3.745c0-1.032,0.84-1.875,1.874-1.875s1.872,0.843,1.872,1.875h3.747
	C235.771,291.254,233.25,288.733,230.152,288.733L230.152,288.733z M230.152,288.733"/>
<path d="M222.661,339.297c-4.131,0-7.492,3.361-7.492,7.491c0,4.131,3.361,7.491,7.492,7.491c4.132,0,7.491-3.36,7.491-7.491
	C230.152,342.658,226.792,339.297,222.661,339.297L222.661,339.297z M222.661,350.533c-2.066,0-3.745-1.681-3.745-3.745
	c0-2.065,1.679-3.746,3.745-3.746c2.063,0,3.746,1.681,3.746,3.746C226.407,348.853,224.724,350.533,222.661,350.533
	L222.661,350.533z M222.661,350.533"/>
<path d="M267.606,361.77v-24.346c0-15.489-12.601-28.091-28.09-28.091h-2.041c0.666-0.587,1.295-1.211,1.888-1.872h2.023
	c5.165,0,9.364-4.201,9.364-9.364v-3.3c2.257-1.514,3.747-4.086,3.747-7.001c0-2.925-1.501-5.502-3.77-7.014
	c-0.249-15.276-12.732-27.632-28.067-27.632s-27.819,12.355-28.069,27.632c-2.267,1.512-3.769,4.089-3.769,7.014
	c0,4.646,3.78,8.427,8.429,8.427h1.275c0.877,5.19,3.527,9.773,7.319,13.11h-2.042c-15.489,0-28.09,12.602-28.09,28.091v24.346
	h-11.236v3.746h112.365v-3.746H267.606z M247.005,298.097c0,2.841-2.126,5.169-4.867,5.542c1.297-2.258,2.208-4.758,2.656-7.416
	h1.275c0.317,0,0.625-0.059,0.936-0.094V298.097z M250.75,287.796c0,2.581-2.1,4.681-4.681,4.681h-0.937v-9.362h0.937
	C248.651,283.114,250.75,285.216,250.75,287.796L250.75,287.796z M200.187,292.477h-0.936c-2.584,0-4.684-2.1-4.684-4.681
	c0-2.58,2.1-4.682,4.684-4.682h0.936V292.477z M199.251,279.369c-0.29,0-0.565,0.056-0.848,0.085
	c0.924-12.59,11.438-22.558,24.257-22.558s23.333,9.968,24.257,22.558c-0.283-0.029-0.559-0.085-0.848-0.085h-1.275
	c-1.789-10.611-11.021-18.727-22.134-18.727s-20.345,8.115-22.134,18.727H199.251z M241.385,283.066
	c-13.515-0.475-22.47-6.002-22.47-11.189c0-1.031-0.839-1.872-1.873-1.872c-1.035,0-1.874,0.841-1.874,1.872
	c0,4.68-4.839,8.559-11.128,9.246c0.998-9.393,8.968-16.736,18.62-16.736C232.969,264.387,241.36,272.764,241.385,283.066
	L241.385,283.066z M203.932,292.477v-7.594c5.851-0.508,10.811-3.328,13.29-7.278c3.917,5.192,13.073,8.845,24.164,9.218v5.654
	c0,4.222-1.419,8.103-3.78,11.239h-14.945v3.745h11.188c-1.077,0.805-2.235,1.497-3.472,2.06c-4.914,2.232-10.522,2.232-15.439,0
	C208.458,306.573,203.932,300.052,203.932,292.477L203.932,292.477z M216.873,314.169c1.85,0.493,3.784,0.782,5.788,0.782
	s3.938-0.289,5.787-0.782l-5.787,11.576L216.873,314.169z M219.629,328.061h-3.303l-7.491-14.981h3.303L219.629,328.061z
	 M233.183,313.079h3.301l-7.49,14.981h-3.303L233.183,313.079z M187.079,337.424v24.346h-5.619v-24.346
	c0-13.042,10.319-23.69,23.217-24.286l7.462,14.923h-15.697C191.28,328.061,187.079,332.262,187.079,337.424L187.079,337.424z
	 M254.498,361.77h-63.675v-24.346c0-3.097,2.521-5.617,5.618-5.617h52.438c3.098,0,5.619,2.521,5.619,5.617V361.77z M263.862,361.77
	h-5.619v-24.346c0-5.162-4.2-9.363-9.364-9.363h-15.695l7.461-14.923c12.897,0.596,23.218,11.244,23.218,24.286V361.77z
	 M263.862,361.77"/>
<rect x="247.005" y="344.915" width="3.745" height="13.108"/>
<rect x="247.005" y="337.424" width="3.745" height="3.745"/>
<rect x="263.862" y="270.005" width="3.744" height="3.745"/>
<rect x="263.862" y="277.496" width="3.744" height="3.746"/>
<rect x="263.862" y="284.988" width="3.744" height="3.745"/>
<rect x="177.714" y="292.477" width="3.745" height="3.746"/>
<rect x="177.714" y="299.97" width="3.745" height="3.746"/>
<rect x="177.714" y="307.461" width="3.745" height="3.745"/>
<rect x="13.337" y="328.828" fill="#FFFFFF" width="88.186" height="102.919"/>
<path d="M70.987,329.681H32.964c-0.956,0-1.729,0.772-1.729,1.727v79.504c0,0.956,0.773,1.729,1.729,1.729h8.961
	c-1.196,2.471-1.662,5.265-1.259,8.029c0.563,3.884,2.76,7.362,6.026,9.541l4.325,2.882c0.289,0.192,0.625,0.289,0.958,0.289
	s0.668-0.097,0.959-0.291l4.325-2.884c3.266-2.175,5.462-5.652,6.026-9.539c0.402-2.764-0.064-5.556-1.26-8.027h8.962
	c0.954,0,1.729-0.774,1.729-1.729v-79.502C72.716,330.453,71.941,329.681,70.987,329.681L70.987,329.681z M59.862,420.172
	c-0.424,2.916-2.069,5.524-4.521,7.16l-3.366,2.241l-3.364-2.241c-2.454-1.634-4.1-4.244-4.525-7.16
	c-0.384-2.658,0.276-5.361,1.825-7.532h0.879v5.185h3.458v-5.185h3.454v5.185h3.458v-5.185h0.879
	C59.587,414.813,60.249,417.514,59.862,420.172L59.862,420.172z M69.259,409.182H34.692v-76.045h34.567V409.182z M69.259,409.182"/>
<path d="M51.975,336.593c-5.719,0-10.369,4.652-10.369,10.371c0,5.718,4.649,10.368,10.369,10.368c5.718,0,10.37-4.65,10.37-10.368
	C62.345,341.245,57.693,336.593,51.975,336.593L51.975,336.593z M51.975,353.877c-3.813,0-6.914-3.102-6.914-6.914
	c0-3.813,3.101-6.914,6.914-6.914s6.914,3.101,6.914,6.914C58.889,350.775,55.788,353.877,51.975,353.877L51.975,353.877z
	 M51.975,353.877"/>
<path d="M51.975,360.79c-5.719,0-10.369,4.65-10.369,10.371c0,5.718,4.649,10.37,10.369,10.37c5.718,0,10.37-4.652,10.37-10.37
	C62.345,365.439,57.693,360.79,51.975,360.79L51.975,360.79z M51.975,378.073c-3.813,0-6.914-3.101-6.914-6.913
	c0-3.814,3.101-6.912,6.914-6.912s6.914,3.098,6.914,6.912C58.889,374.973,55.788,378.073,51.975,378.073L51.975,378.073z
	 M51.975,378.073"/>
<g>
	<defs>
		<rect id="SVGID_6_" x="0.125" y="329.681" width="103.7" height="103.699"/>
	</defs>
	<clipPath id="SVGID_8_">
		<use xlink:href="#SVGID_6_"  overflow="visible"/>
	</clipPath>
	<path clip-path="url(#SVGID_8_)" d="M51.975,384.986c-5.719,0-10.369,4.651-10.369,10.37c0,5.72,4.649,10.371,10.369,10.371
		c5.718,0,10.37-4.651,10.37-10.371C62.345,389.637,57.693,384.986,51.975,384.986L51.975,384.986z M51.975,402.271
		c-3.813,0-6.914-3.102-6.914-6.915s3.101-6.913,6.914-6.913s6.914,3.1,6.914,6.913S55.788,402.271,51.975,402.271L51.975,402.271z
		 M51.975,402.271"/>
	<path clip-path="url(#SVGID_8_)" d="M103.398,344.1L91.3,330.272c-0.659-0.754-1.944-0.754-2.603,0L76.599,344.1
		c-0.445,0.508-0.553,1.231-0.272,1.849c0.28,0.62,0.894,1.015,1.574,1.015h3.457v13.826c0,0.955,0.773,1.729,1.727,1.729h13.828
		c0.955,0,1.728-0.774,1.728-1.729v-13.826h3.458c0.678,0,1.292-0.396,1.573-1.015C103.951,345.331,103.843,344.608,103.398,344.1
		L103.398,344.1z M96.912,343.506c-0.957,0-1.729,0.773-1.729,1.729v13.828h-10.37v-13.828c0-0.956-0.772-1.729-1.729-1.729h-1.375
		l8.289-9.472l8.29,9.472H96.912z M96.912,343.506"/>
</g>
<rect x="81.357" y="365.974" width="17.283" height="3.458"/>
<rect x="81.357" y="372.889" width="17.283" height="3.457"/>
<rect x="81.357" y="379.804" width="17.283" height="3.455"/>
<rect x="81.357" y="386.715" width="17.283" height="3.455"/>
<rect x="81.357" y="400.542" width="17.283" height="3.456"/>
<rect x="81.357" y="414.368" width="17.283" height="3.457"/>
<g>
	<defs>
		<rect id="SVGID_3_" x="0.125" y="329.681" width="103.7" height="103.699"/>
	</defs>
	<clipPath id="SVGID_10_">
		<use xlink:href="#SVGID_3_"  overflow="visible"/>
	</clipPath>
	<rect x="81.357" y="428.196" clip-path="url(#SVGID_10_)" width="17.283" height="3.456"/>
	<path clip-path="url(#SVGID_10_)" d="M27.352,387.307l-12.099-13.828c-0.659-0.754-1.944-0.754-2.603,0L0.553,387.307
		c-0.446,0.51-0.554,1.234-0.272,1.851c0.281,0.619,0.895,1.013,1.573,1.013H5.31v13.828c0,0.956,0.773,1.729,1.73,1.729h13.827
		c0.955,0,1.726-0.773,1.726-1.729V390.17h3.457c0.679,0,1.294-0.394,1.572-1.013C27.905,388.541,27.796,387.816,27.352,387.307
		L27.352,387.307z M20.867,386.715c-0.957,0-1.729,0.773-1.729,1.729v13.828H8.767v-13.828c0-0.956-0.771-1.729-1.727-1.729H5.663
		l8.29-9.474l8.289,9.474H20.867z M20.867,386.715"/>
</g>
<rect x="5.31" y="409.182" width="17.283" height="3.458"/>
<rect x="5.31" y="416.097" width="17.283" height="3.457"/>
<rect x="5.31" y="423.01" width="17.283" height="3.455"/>
<rect x="5.31" y="429.923" width="17.283" height="3.457"/>
</svg>
