<?xml version="1.0" encoding="utf-8"?>
<!-- Generator: Adobe Illustrator 15.1.0, SVG Export Plug-In  -->
<!DOCTYPE svg PUBLIC "-//W3C//DTD SVG 1.1//EN" "http://www.w3.org/Graphics/SVG/1.1/DTD/svg11.dtd" [
	<!ENTITY ns_flows "http://ns.adobe.com/Flows/1.0/">
]>
<svg version="1.1"
	 xmlns="http://www.w3.org/2000/svg" xmlns:xlink="http://www.w3.org/1999/xlink" xmlns:a="http://ns.adobe.com/AdobeSVGViewerExtensions/3.0/"
	 x="0px" y="0px" width="500px" height="500px" viewBox="-82.336 25.088 500 500" enable-background="new -82.336 25.088 500 500"
	 xml:space="preserve">
<defs>
</defs>
<path fill="none" stroke="#010101" stroke-width="5" stroke-linecap="square" stroke-linejoin="round" stroke-dasharray="0,12" d="
	M4.732,296.609c-15.26-94.927,49.33-184.238,144.264-199.505c94.928-15.244,184.244,49.346,199.49,144.279
	c15.262,94.915-49.324,184.242-144.26,199.502C109.301,456.139,19.984,391.541,4.732,296.609z"/>
<rect x="130.666" y="426.09" fill="#FFFFFF" width="80.666" height="36.666"/>
<text transform="matrix(1 0 0 1 35.8428 20.0879)" font-family="'MyriadPro-Regular'" font-size="24">Disaster Recovery Services</text>
<g>
	<g>
		<defs>
			<rect id="SVGID_8_" x="128.107" y="362.775" width="87.473" height="106.358"/>
		</defs>
		<clipPath id="SVGID_10_">
			<use xlink:href="#SVGID_8_"  overflow="visible"/>
		</clipPath>
		<path clip-path="url(#SVGID_10_)" d="M213.184,375.821c-13.228-0.828-26.762-5.088-40.226-12.661
			c-0.718-0.403-1.593-0.403-2.311,0c-13.464,7.574-26.998,11.833-40.226,12.661c-1.241,0.078-2.209,1.108-2.209,2.352v44.767
			c0,7.408,2.313,14.458,6.871,20.953c3.582,5.102,8.549,9.862,14.765,14.148c10.473,7.223,20.798,10.592,21.231,10.731
			c0.234,0.075,0.479,0.114,0.722,0.114c0.244,0,0.487-0.039,0.722-0.114c0.436-0.14,10.759-3.51,21.232-10.731
			c6.216-4.286,11.184-9.047,14.766-14.148c4.559-6.495,6.87-13.545,6.87-20.953v-44.767
			C215.392,376.93,214.424,375.899,213.184,375.821L213.184,375.821z M210.68,422.939c0,11.723-6.563,22.205-19.507,31.159
			c-8.38,5.797-16.886,9.054-19.371,9.938c-2.474-0.879-10.906-4.102-19.277-9.875c-13.005-8.968-19.599-19.472-19.599-31.223
			v-42.583c12.85-1.151,25.912-5.332,38.877-12.447c12.965,7.115,26.026,11.296,38.876,12.447L210.68,422.939L210.68,422.939z
			 M210.68,422.939"/>
	</g>
	<path d="M180.606,424.636c-0.334-2.001-0.677-4.056-0.98-6.093c3.933-2.604,6.313-6.975,6.313-11.776
		c0-7.795-6.342-14.137-14.137-14.137c-7.796,0-14.137,6.342-14.137,14.137c0,4.802,2.381,9.173,6.313,11.776
		c-0.304,2.036-0.646,4.092-0.979,6.093c-0.683,4.097-1.39,8.331-1.79,12.538c-0.063,0.66,0.155,1.316,0.603,1.809
		c0.447,0.49,1.08,0.771,1.743,0.771h16.493c0.664,0,1.298-0.28,1.744-0.771c0.446-0.492,0.664-1.148,0.602-1.809
		C181.994,432.967,181.289,428.732,180.606,424.636L180.606,424.636z M174.733,417.63c0.361,2.604,0.8,5.236,1.225,7.781
		c0.526,3.165,1.068,6.415,1.463,9.63h-11.237c0.395-3.215,0.937-6.465,1.465-9.63c0.424-2.545,0.862-5.177,1.225-7.781
		c0.139-1.001-0.377-1.979-1.279-2.433c-3.218-1.609-5.216-4.84-5.216-8.431c0-5.197,4.228-9.425,9.425-9.425
		c5.196,0,9.426,4.228,9.426,9.425c0,3.591-2,6.821-5.216,8.431C175.108,415.65,174.594,416.629,174.733,417.63L174.733,417.63z
		 M174.733,417.63"/>
	<path d="M170.731,373.811c-10.324,5.272-20.792,8.789-31.111,10.453c-1.143,0.184-1.982,1.17-1.982,2.326v36.35
		c0,10.001,5.792,19.119,17.212,27.101c6.295,4.398,12.771,7.288,16.072,8.619c0.282,0.114,0.582,0.171,0.881,0.171
		c0.3,0,0.599-0.057,0.881-0.171c1.734-0.698,4.447-1.868,7.524-3.47c1.154-0.6,1.604-2.023,1.003-3.178s-2.023-1.603-3.178-1.002
		c-2.432,1.266-4.62,2.244-6.23,2.917c-3.297-1.38-8.857-3.978-14.254-7.749c-10.084-7.048-15.197-14.866-15.197-23.238v-34.364
		c9.801-1.791,19.693-5.159,29.451-10.028c9.758,4.869,19.651,8.237,29.452,10.028v34.364c0,6.203-2.825,12.14-8.398,17.646
		c-0.927,0.915-0.936,2.406-0.021,3.333c0.915,0.925,2.406,0.934,3.332,0.019c6.503-6.424,9.799-13.487,9.799-20.997v-36.35
		c0-1.156-0.839-2.143-1.98-2.326c-10.321-1.664-20.789-5.181-31.111-10.453C172.201,373.465,171.403,373.465,170.731,373.811
		L170.731,373.811z M170.731,373.811"/>
	<path d="M185.65,446.472c-0.073,0.073-0.146,0.146-0.221,0.22c-0.925,0.915-0.932,2.407-0.017,3.331
		c0.461,0.467,1.067,0.699,1.675,0.699c0.599,0,1.198-0.227,1.657-0.682c0.084-0.083,0.167-0.167,0.252-0.251
		c0.916-0.924,0.909-2.416-0.016-3.332C188.059,445.541,186.566,445.547,185.65,446.472L185.65,446.472z M185.65,446.472"/>
</g>
<path stroke="#FFFFFF" stroke-width="2" d="M12.355,188.729c0,5.293-4.311,9.6-9.6,9.6v6.403c5.289,0,9.6,4.308,9.6,9.601h6.4
	c0-5.293,4.307-9.601,9.602-9.601v-6.403c-5.295,0-9.602-4.307-9.602-9.6H12.355L12.355,188.729z M15.556,204.83
	c-0.935-1.258-2.04-2.367-3.296-3.3c1.256-0.935,2.361-2.042,3.296-3.3c0.937,1.258,2.042,2.365,3.3,3.3
	C17.598,202.463,16.492,203.572,15.556,204.83L15.556,204.83z M15.556,204.83"/>
<path stroke="#FFFFFF" d="M328.269,180.766c0,3.58-2.912,6.492-6.49,6.492v4.328c3.578,0,6.49,2.91,6.49,6.49h4.328
	c0-3.58,2.911-6.49,6.492-6.49v-4.328c-3.581,0-6.492-2.912-6.492-6.492H328.269L328.269,180.766z M330.433,191.65
	c-0.632-0.85-1.381-1.596-2.23-2.23c0.85-0.631,1.599-1.379,2.23-2.23c0.633,0.852,1.381,1.6,2.231,2.23
	C331.813,190.055,331.065,190.801,330.433,191.65L330.433,191.65z M330.433,191.65"/>
<path stroke="#FFFFFF" d="M291.63,390.855c0,3.362-2.739,6.104-6.103,6.104v4.066c3.363,0,6.103,2.737,6.103,6.104h4.067
	c0-3.366,2.739-6.104,6.104-6.104v-4.066c-3.364,0-6.104-2.741-6.104-6.104H291.63L291.63,390.855z M293.664,401.088
	c-0.594-0.798-1.299-1.502-2.098-2.097c0.799-0.593,1.504-1.297,2.098-2.097c0.594,0.8,1.297,1.504,2.098,2.097
	C294.961,399.586,294.258,400.29,293.664,401.088L293.664,401.088z M293.664,401.088"/>
<path d="M134.389,314.937l-28.692-28.692v-27.291c0-4.358-3.546-7.902-7.904-7.902c-4.357,0-7.903,3.544-7.903,7.902v49.678
	c0,0.505,0.17,0.993,0.479,1.39l19.846,25.356v17.285c0,1.246,1.011,2.258,2.257,2.258h20.323c1.245,0,2.258-1.012,2.258-2.258
	v-36.129C135.051,315.935,134.813,315.358,134.389,314.937L134.389,314.937z M130.534,350.403h-15.807v-15.806
	c0-0.507-0.168-0.993-0.479-1.392l-19.844-25.354v-48.898c0-1.868,1.519-3.389,3.387-3.389s3.388,1.521,3.388,3.389v28.226
	c0,0.598,0.236,1.175,0.661,1.597l3.274,3.273c-3.576,1.059-6.193,4.376-6.193,8.291c0,2.309,0.898,4.48,2.533,6.113l13.934,13.935
	l3.193-3.193l-13.934-13.934c-0.781-0.781-1.212-1.817-1.212-2.921c0-2.277,1.853-4.129,4.131-4.129c1.101,0,2.132,0.426,2.914,1.2
	l20.053,20.056V350.403z M130.534,350.403"/>
<path d="M246.759,251.051c-4.359,0-7.904,3.544-7.904,7.902v27.291l-28.692,28.692c-0.425,0.422-0.662,0.998-0.662,1.597v36.129
	c0,1.246,1.012,2.258,2.258,2.258h20.323c1.246,0,2.257-1.012,2.257-2.258v-17.285l19.845-25.356
	c0.309-0.396,0.479-0.885,0.479-1.39v-49.678C254.662,254.595,251.116,251.051,246.759,251.051L246.759,251.051z M250.146,307.852
	l-19.845,25.354c-0.31,0.398-0.478,0.885-0.478,1.392v15.806h-15.808v-32.937l20.057-20.056c0.778-0.774,1.813-1.2,2.91-1.2
	c2.278,0,4.131,1.852,4.131,4.129c0,1.104-0.43,2.14-1.211,2.921l-13.934,13.934l3.192,3.193l13.934-13.935
	c1.635-1.635,2.533-3.805,2.533-6.113c0-3.915-2.616-7.232-6.192-8.291l3.273-3.273c0.424-0.422,0.662-0.999,0.662-1.597v-28.226
	c0-1.868,1.52-3.389,3.388-3.389c1.867,0,3.387,1.521,3.387,3.389V307.852z M250.146,307.852"/>
<rect x="170.018" y="312.017" width="4.516" height="4.517"/>
<rect x="170.018" y="321.049" width="4.516" height="4.517"/>
<rect x="179.049" y="321.049" width="4.517" height="4.517"/>
<rect x="160.984" y="321.049" width="4.517" height="4.517"/>
<rect x="170.018" y="330.082" width="4.516" height="4.516"/>
<g>
	<defs>
		<rect id="SVGID_6_" x="117.508" y="235.496" width="55.578" height="55.715"/>
	</defs>
	<clipPath id="SVGID_12_">
		<use xlink:href="#SVGID_6_"  overflow="visible"/>
	</clipPath>
	<path clip-path="url(#SVGID_12_)" d="M170.783,246.625h-6.921v-8.815c0-1.281-1.031-2.313-2.314-2.313h-41.727
		c-1.281,0-2.313,1.032-2.313,2.313v40.083c0,1.282,1.032,2.314,2.313,2.314h18.55v6.239h-5.061c-1.281,0-2.313,1.032-2.313,2.314
		c0,1.281,1.032,2.313,2.313,2.313h14.76c1.281,0,2.314-1.032,2.314-2.313c0-1.282-1.033-2.314-2.314-2.314h-5.061v-6.239h10.348
		v8.554c0,1.281,1.032,2.313,2.314,2.313h15.111c1.282,0,2.314-1.032,2.314-2.313v-39.821
		C173.098,247.669,172.065,246.625,170.783,246.625L170.783,246.625z M122.136,240.125h37.087v35.453h-37.087V240.125z
		 M168.469,286.457h-10.483v-6.24h3.552c1.281,0,2.314-1.032,2.314-2.313v-26.638h4.605v35.191H168.469z M168.469,286.457"/>
</g>
<path d="M218.62,197.107h-4.492v-4.208c0-1.138-0.923-2.061-2.062-2.061h-34.689c-1.139,0-2.061,0.923-2.061,2.061v4.208h-4.492
	c-1.139,0-2.062,0.923-2.062,2.06v89.888c0,1.139,0.923,2.062,2.062,2.062h47.796c1.139,0,2.062-0.923,2.062-2.062v-89.888
	C220.682,198.03,219.759,197.107,218.62,197.107L218.62,197.107z M197.938,286.994h-6.434v-14.177h6.434V286.994z M216.561,286.994
	h-14.5v-16.237c0-1.14-0.924-2.062-2.061-2.062h-10.557c-1.136,0-2.059,0.922-2.059,2.062v16.237h-14.5v-85.766h43.676V286.994z
	 M210.007,194.961v2.146h-30.568v-2.146H210.007z M210.007,194.961"/>
<path d="M182.445,210.9c-1.137,0-2.061,0.922-2.061,2.061v2.959c0,1.139,0.924,2.061,2.061,2.061c1.14,0,2.061-0.922,2.061-2.061
	v-2.959C184.506,211.822,183.585,210.9,182.445,210.9L182.445,210.9z M182.445,210.9"/>
<path d="M190.631,210.9c-1.139,0-2.063,0.922-2.063,2.061v2.959c0,1.139,0.924,2.061,2.063,2.061s2.061-0.922,2.061-2.061v-2.959
	C192.691,211.822,191.77,210.9,190.631,210.9L190.631,210.9z M190.631,210.9"/>
<path d="M198.814,210.9c-1.137,0-2.063,0.922-2.063,2.061v2.959c0,1.139,0.926,2.061,2.063,2.061c1.139,0,2.061-0.922,2.061-2.061
	v-2.959C200.875,211.822,199.953,210.9,198.814,210.9L198.814,210.9z M198.814,210.9"/>
<path d="M206.998,210.9c-1.137,0-2.061,0.922-2.061,2.061v2.959c0,1.139,0.924,2.061,2.061,2.061c1.139,0,2.062-0.922,2.062-2.061
	v-2.959C209.06,211.822,208.137,210.9,206.998,210.9L206.998,210.9z M206.998,210.9"/>
<path d="M182.445,221.082c-1.137,0-2.061,0.922-2.061,2.061v2.958c0,1.137,0.924,2.062,2.061,2.062c1.14,0,2.061-0.925,2.061-2.062
	v-2.958C184.506,222.004,183.585,221.082,182.445,221.082L182.445,221.082z M182.445,221.082"/>
<path d="M190.631,221.082c-1.139,0-2.063,0.922-2.063,2.061v2.958c0,1.137,0.924,2.062,2.063,2.062s2.061-0.925,2.061-2.062v-2.958
	C192.691,222.004,191.77,221.082,190.631,221.082L190.631,221.082z M190.631,221.082"/>
<path d="M198.814,221.082c-1.137,0-2.063,0.922-2.063,2.061v2.958c0,1.137,0.926,2.062,2.063,2.062c1.139,0,2.061-0.925,2.061-2.062
	v-2.958C200.875,222.004,199.953,221.082,198.814,221.082L198.814,221.082z M198.814,221.082"/>
<path d="M206.998,221.082c-1.137,0-2.061,0.922-2.061,2.061v2.958c0,1.137,0.924,2.062,2.061,2.062c1.139,0,2.062-0.925,2.062-2.062
	v-2.958C209.06,222.004,208.137,221.082,206.998,221.082L206.998,221.082z M206.998,221.082"/>
<path d="M182.445,231.263c-1.137,0-2.061,0.923-2.061,2.06v2.958c0,1.14,0.924,2.062,2.061,2.062c1.14,0,2.061-0.922,2.061-2.062
	v-2.958C184.506,232.186,183.585,231.263,182.445,231.263L182.445,231.263z M182.445,231.263"/>
<path d="M190.631,231.263c-1.139,0-2.063,0.923-2.063,2.06v2.958c0,1.14,0.924,2.062,2.063,2.062s2.061-0.922,2.061-2.062v-2.958
	C192.691,232.186,191.77,231.263,190.631,231.263L190.631,231.263z M190.631,231.263"/>
<path d="M198.814,231.263c-1.137,0-2.063,0.923-2.063,2.06v2.958c0,1.14,0.926,2.062,2.063,2.062c1.139,0,2.061-0.922,2.061-2.062
	v-2.958C200.875,232.186,199.953,231.263,198.814,231.263L198.814,231.263z M198.814,231.263"/>
<path d="M206.998,231.263c-1.137,0-2.061,0.923-2.061,2.06v2.958c0,1.14,0.924,2.062,2.061,2.062c1.139,0,2.062-0.922,2.062-2.062
	v-2.958C209.06,232.186,208.137,231.263,206.998,231.263L206.998,231.263z M206.998,231.263"/>
<path d="M182.445,241.442c-1.137,0-2.061,0.925-2.061,2.062v2.958c0,1.14,0.924,2.061,2.061,2.061c1.14,0,2.061-0.921,2.061-2.061
	v-2.958C184.506,242.367,183.585,241.442,182.445,241.442L182.445,241.442z M182.445,241.442"/>
<path d="M190.631,241.442c-1.139,0-2.063,0.925-2.063,2.062v2.958c0,1.14,0.924,2.061,2.063,2.061s2.061-0.921,2.061-2.061v-2.958
	C192.691,242.367,191.77,241.442,190.631,241.442L190.631,241.442z M190.631,241.442"/>
<path d="M198.814,241.442c-1.137,0-2.063,0.925-2.063,2.062v2.958c0,1.14,0.926,2.061,2.063,2.061c1.139,0,2.061-0.921,2.061-2.061
	v-2.958C200.875,242.367,199.953,241.442,198.814,241.442L198.814,241.442z M198.814,241.442"/>
<path d="M206.998,241.442c-1.137,0-2.061,0.925-2.061,2.062v2.958c0,1.14,0.924,2.061,2.061,2.061c1.139,0,2.062-0.921,2.062-2.061
	v-2.958C209.06,242.367,208.137,241.442,206.998,241.442L206.998,241.442z M206.998,241.442"/>
<path d="M182.445,251.625c-1.137,0-2.061,0.922-2.061,2.061v2.959c0,1.139,0.924,2.061,2.061,2.061c1.14,0,2.061-0.922,2.061-2.061
	v-2.959C184.506,252.547,183.585,251.625,182.445,251.625L182.445,251.625z M182.445,251.625"/>
<path d="M190.631,251.625c-1.139,0-2.063,0.922-2.063,2.061v2.959c0,1.139,0.924,2.061,2.063,2.061s2.061-0.922,2.061-2.061v-2.959
	C192.691,252.547,191.77,251.625,190.631,251.625L190.631,251.625z M190.631,251.625"/>
<path d="M198.814,251.625c-1.137,0-2.063,0.922-2.063,2.061v2.959c0,1.139,0.926,2.061,2.063,2.061c1.139,0,2.061-0.922,2.061-2.061
	v-2.959C200.875,252.547,199.953,251.625,198.814,251.625L198.814,251.625z M198.814,251.625"/>
<path d="M206.998,251.625c-1.137,0-2.061,0.922-2.061,2.061v2.959c0,1.139,0.924,2.061,2.061,2.061c1.139,0,2.062-0.922,2.062-2.061
	v-2.959C209.06,252.547,208.137,251.625,206.998,251.625L206.998,251.625z M206.998,251.625"/>
</svg>
