<?xml version="1.0" encoding="utf-8"?>
<!-- Generator: Adobe Illustrator 15.1.0, SVG Export Plug-In  -->
<!DOCTYPE svg PUBLIC "-//W3C//DTD SVG 1.1//EN" "http://www.w3.org/Graphics/SVG/1.1/DTD/svg11.dtd" [
	<!ENTITY ns_flows "http://ns.adobe.com/Flows/1.0/">
]>
<svg version="1.1"
	 xmlns="http://www.w3.org/2000/svg" xmlns:xlink="http://www.w3.org/1999/xlink" xmlns:a="http://ns.adobe.com/AdobeSVGViewerExtensions/3.0/"
	 x="0px" y="0px" width="500px" height="500px" viewBox="-58.846 -72.248 500 500" enable-background="new -58.846 -72.248 500 500"
	 xml:space="preserve">
<defs>
</defs>
<path fill="none" stroke="#010101" stroke-width="5" stroke-linecap="square" stroke-linejoin="round" stroke-dasharray="0,12" d="
	M8.285,205.252C-7.052,109.846,57.865,20.083,153.277,4.74c95.408-15.322,185.176,49.594,200.498,145.008
	c15.339,95.395-49.573,185.173-144.988,200.511C113.381,365.588,23.614,300.664,8.285,205.252z"/>
<path d="M249.515,151.555c-15.452,0.609-27.256,7.336-27.256,15.839v40.881c0,8.914,12.97,15.899,29.527,15.899
	c16.557,0,29.525-6.985,29.525-15.899v-40.881c0-8.502-11.804-15.23-27.254-15.839 M276.768,208.275
	c0,5.371-10.261,11.355-24.982,11.355c-14.723,0-24.984-5.985-24.984-11.355v-5.066c5.184,4.437,14.33,7.337,24.984,7.337
	c10.653,0,19.8-2.9,24.982-7.337V208.275z M276.768,194.648c0,5.372-10.261,11.356-24.982,11.356
	c-14.723,0-24.984-5.984-24.984-11.356v-5.066c5.184,4.437,14.33,7.336,24.984,7.336c10.653,0,19.8-2.9,24.982-7.336V194.648z
	 M276.768,181.022c0,5.37-10.261,11.354-24.982,11.354c-14.723,0-24.984-5.984-24.984-11.354v-5.067
	c5.184,4.438,14.33,7.337,24.984,7.337c10.653,0,19.8-2.899,24.982-7.337V181.022z M276.768,167.395
	c0,5.372-10.261,11.356-24.982,11.356c-14.723,0-24.984-5.984-24.984-11.356c0-5.09,9.219-10.72,22.713-11.299v9.028h-6.814v4.541
	h18.168v-4.541h-6.813v-9.028C267.549,156.674,276.768,162.305,276.768,167.395L276.768,167.395z M224.532,133.328"/>
<path d="M164.407,218.202c0-2.897-2.357-5.255-5.254-5.255h-28.431c1.403-3.944,2.154-8.052,2.154-12.263
	c0-20.283-16.501-36.786-36.787-36.786s-36.786,16.502-36.786,36.786s16.501,36.787,36.786,36.787v8.76
	c0,1.35,0.529,2.571,1.366,3.504c-0.84,0.931-1.366,2.151-1.366,3.502v10.511c0,2.898,2.359,5.255,5.257,5.255h57.807
	c2.896,0,5.254-2.357,5.254-5.255v-10.511c0-1.351-0.527-2.571-1.366-3.502c0.84-0.933,1.366-2.154,1.366-3.504v-10.512
	c0-1.35-0.527-2.57-1.366-3.501c0.84-0.933,1.366-2.154,1.366-3.503V218.202z M129.283,198.933H111.78
	c-0.21-5.088-1.283-9.87-2.784-14.171c4.065-1.65,7.806-4.079,11-7.179C125.406,183.18,128.851,190.66,129.283,198.933
	L129.283,198.933z M129.292,202.437c-0.19,3.609-0.924,7.137-2.267,10.511H110.1c0.976-3.567,1.538-7.083,1.682-10.511H129.292z
	 M117.428,175.174c-2.824,2.712-6.115,4.825-9.688,6.287c-2.527-6.046-5.671-10.883-7.834-13.823
	C106.53,168.398,112.567,171.102,117.428,175.174L117.428,175.174z M108.288,198.936H83.89c0.211-4.634,1.225-9.035,2.624-13.017
	c3.083,0.894,6.301,1.373,9.575,1.373c3.275,0,6.493-0.476,9.573-1.373C107.062,189.899,108.076,194.299,108.288,198.936
	L108.288,198.936z M104.389,182.603c-2.681,0.75-5.462,1.185-8.3,1.185c-2.838,0-5.621-0.435-8.299-1.185
	c2.808-6.625,6.403-11.726,8.299-14.178C97.986,170.877,101.582,175.979,104.389,182.603L104.389,182.603z M92.272,167.637
	c-2.161,2.94-5.306,7.777-7.832,13.823c-3.574-1.461-6.866-3.574-9.689-6.287C79.614,171.102,85.649,168.398,92.272,167.637
	L92.272,167.637z M72.183,177.583c3.195,3.101,6.935,5.529,11,7.18c-1.502,4.3-2.574,9.085-2.785,14.172H62.896
	C63.328,190.66,66.771,183.18,72.183,177.583L72.183,177.583z M62.896,202.437h17.503c0.223,5.379,1.402,10.432,3.036,14.917
	c-4.054,1.496-7.83,3.707-11.139,6.56C66.818,218.303,63.331,210.771,62.896,202.437L62.896,202.437z M74.891,226.324
	c2.939-2.47,6.265-4.396,9.837-5.701c2.471,5.72,5.465,10.285,7.544,13.108C85.716,232.978,79.729,230.329,74.891,226.324
	L74.891,226.324z M96.089,232.949c-1.817-2.35-5.189-7.14-7.939-13.364c2.582-0.637,5.244-0.942,7.939-0.942v10.072
	c0,0.3,0.034,0.596,0.084,0.891c0.007,0.044,0.011,0.088,0.019,0.133c0.019,0.086,0.049,0.165,0.072,0.249
	c0.039,0.152,0.079,0.305,0.13,0.452c0.029,0.086,0.054,0.17,0.087,0.255c0.03,0.073,0.068,0.138,0.099,0.208
	c0.049,0.106,0.104,0.21,0.161,0.311c0.064,0.12,0.124,0.239,0.198,0.349c0.03,0.049,0.059,0.096,0.09,0.143
	C96.684,232.171,96.37,232.59,96.089,232.949L96.089,232.949z M97.111,215.116c-3.506-0.098-6.977,0.297-10.31,1.173
	c-1.551-4.195-2.686-8.895-2.913-13.852h24.395c-0.157,3.415-0.737,6.932-1.792,10.511h-5.145
	C99.604,212.947,98.069,213.807,97.111,215.116L97.111,215.116z M160.904,263.748c0,0.968-0.785,1.751-1.751,1.751h-57.807
	c-0.967,0-1.753-0.784-1.753-1.751v-10.511c0-0.966,0.787-1.751,1.753-1.751h57.807c0.966,0,1.751,0.785,1.751,1.751V263.748z
	 M160.904,246.231c0,0.966-0.785,1.75-1.751,1.75h-57.807c-0.967,0-1.753-0.784-1.753-1.75v-10.512c0-0.009,0.005-0.019,0.005-0.027
	c0.018-0.951,0.799-1.724,1.748-1.724h57.807c0.966,0,1.751,0.785,1.751,1.751V246.231z M160.904,228.714
	c0,0.967-0.785,1.75-1.751,1.75h-57.807c-0.441,0-0.832-0.177-1.14-0.447c-0.049-0.04-0.098-0.081-0.142-0.128
	c-0.124-0.136-0.23-0.287-0.307-0.454c-0.018-0.039-0.029-0.076-0.042-0.112c-0.072-0.192-0.123-0.395-0.123-0.609v-10.512
	c0-0.966,0.787-1.751,1.753-1.751h57.807c0.966,0,1.751,0.785,1.751,1.751V228.714z M160.904,228.714"/>
<rect x="153.897" y="221.706" width="3.503" height="3.505"/>
<rect x="103.096" y="221.706" width="29.779" height="3.505"/>
<rect x="153.897" y="239.223" width="3.503" height="3.504"/>
<rect x="103.096" y="239.223" width="29.779" height="3.504"/>
<rect x="153.897" y="256.741" width="3.503" height="3.503"/>
<rect x="103.096" y="256.741" width="29.779" height="3.503"/>
<rect x="132.875" y="184.92" width="3.504" height="3.504"/>
<rect x="139.882" y="184.92" width="3.504" height="3.504"/>
<rect x="146.891" y="184.92" width="3.503" height="3.504"/>
<rect x="153.897" y="184.92" width="3.503" height="3.504"/>
<rect x="153.897" y="191.926" width="3.503" height="3.504"/>
<rect x="153.897" y="198.933" width="3.503" height="3.503"/>
<rect x="153.897" y="205.941" width="3.503" height="3.501"/>
<rect x="89.082" y="256.741" width="3.504" height="3.503"/>
<rect x="82.075" y="256.741" width="3.504" height="3.503"/>
<rect x="75.068" y="256.741" width="3.503" height="3.503"/>
<rect x="75.068" y="249.735" width="3.503" height="3.502"/>
<rect x="75.068" y="242.727" width="3.503" height="3.504"/>
<rect x="75.068" y="235.719" width="3.503" height="3.504"/>
<path stroke="#FFFFFF" stroke-width="5" d="M175.262,81.999c-39.733,0-72.056,32.323-72.056,72.055
	c0,25.651,7.801,35.933,45.295,85.362c6.51,8.582,13.886,18.305,22.328,29.557c1.045,1.396,2.688,2.218,4.433,2.218
	c1.746,0,3.387-0.823,4.435-2.218c8.39-11.193,15.736-20.881,22.215-29.429c37.584-49.569,45.407-59.885,45.407-85.49
	C247.318,114.322,214.994,81.999,175.262,81.999L175.262,81.999z M193.078,232.849c-5.322,7.017-11.225,14.806-17.818,23.571
	c-6.634-8.821-12.574-16.649-17.928-23.705c-36.469-48.08-43.041-56.739-43.041-78.662c0-33.62,27.352-60.969,60.97-60.969
	c33.619,0,60.97,27.35,60.97,60.969C236.232,175.931,229.643,184.62,193.078,232.849L193.078,232.849z M193.078,232.849"/>
<path stroke="#FFFFFF" stroke-width="5" d="M175.262,115.253c-21.396,0-38.799,17.406-38.799,38.8
	c0,21.394,17.403,38.797,38.799,38.797c21.394,0,38.799-17.403,38.799-38.797C214.061,132.659,196.655,115.253,175.262,115.253
	L175.262,115.253z M175.262,181.767c-15.282,0-27.713-12.431-27.713-27.714c0-15.284,12.432-27.712,27.713-27.712
	c15.281,0,27.714,12.428,27.714,27.712C202.976,169.336,190.542,181.767,175.262,181.767L175.262,181.767z M175.262,181.767"/>
<path fill="#FFFFFF" stroke="#FFFFFF" stroke-width="5" stroke-miterlimit="10" d="M175.262,92.159
	c-33.618,0-60.97,27.351-60.97,60.969c0,21.922,6.572,30.584,43.041,78.663c5.354,7.056,11.293,14.885,17.928,23.704
	c6.594-8.762,12.496-16.552,17.818-23.571c36.564-48.227,43.154-56.917,43.154-78.796C236.232,119.51,208.88,92.159,175.262,92.159z
	 M175.262,191.927c-21.396,0-38.799-17.404-38.799-38.799c0-21.393,17.403-38.798,38.799-38.798
	c21.394,0,38.799,17.405,38.799,38.798C214.061,174.523,196.655,191.927,175.262,191.927z"/>
<path fill="#FFFFFF" stroke="#FFFFFF" stroke-width="5" stroke-miterlimit="10" d="M175.262,125.417
	c-15.282,0-27.713,12.428-27.713,27.711c0,15.285,12.432,27.715,27.713,27.715c15.281,0,27.714-12.43,27.714-27.715
	C202.976,137.845,190.542,125.417,175.262,125.417z"/>
<path stroke="#FFFFFF" d="M161.549,338.42h58.932v-4.741h-0.456v-80.595h4.741v-4.741h-4.741v-38.185l-2.371,0.245v-18.951h-4.741
	v21.31c-1.833,1.157-4.114,2.75-6.696,4.764h-0.416v0.327c-7.029,5.538-16.138,14.156-24.338,25.75h-11.218v4.741h8.022
	c-9.762,15.294-17.504,35.102-17.504,59.26c0,11.92,2.351,21.372,3.8,26.076h-2.806 M197.78,230.953
	c-2.564,3.713-5.157,7.929-7.633,12.65h-3.178C190.539,238.784,194.228,234.564,197.78,230.953L197.78,230.953z M169.548,333.679
	c-1.2-3.597-4.044-13.459-4.044-26.076c0-24.526,8.183-44.344,18.126-59.26h4.146c-7.161,15.175-12.791,34.917-12.791,59.26
	c0,11.92,2.352,21.372,3.801,26.076H169.548z M188.152,260.119l14.296,14.299h-18.72
	C184.989,269.344,186.487,264.576,188.152,260.119L188.152,260.119z M202.451,302.863h-22.635
	c0.236-7.235,1.002-14.062,2.177-20.458L202.451,302.863z M183.771,333.679c-1.088-3.263-3.522-11.689-3.967-22.648l22.647,22.648
	H183.771z M205.801,330.329l-22.721-22.726h22.721V330.329z M205.801,299.511l-20.353-20.353h20.353V299.511z M205.801,271.065
	l-15.746-15.747c1.019-2.433,2.082-4.759,3.173-6.976h12.573V271.065z M205.801,243.603h-10.13
	c3.365-6.176,6.881-11.391,10.13-15.616V243.603z M215.283,248.343h-2.37v4.741h2.37v80.595h-4.741V222.278
	c1.81-2.013,3.417-3.613,4.741-4.81V248.343z M215.283,248.343"/>
<rect x="167.875" y="302.863" stroke="#FFFFFF" width="4.741" height="4.74"/>
<rect x="167.875" y="293.381" stroke="#FFFFFF" width="4.741" height="4.741"/>
<rect x="167.875" y="312.344" stroke="#FFFFFF" width="4.741" height="4.742"/>
<rect x="170.245" y="321.827" stroke="#FFFFFF" width="4.74" height="4.741"/>
<rect x="170.245" y="283.899" stroke="#FFFFFF" width="4.74" height="4.741"/>
<rect x="172.616" y="274.417" stroke="#FFFFFF" width="4.741" height="4.741"/>
<path fill="#FFFFFF" d="M202.611,303.243l-20.457-20.458c-1.175,6.396-1.941,13.223-2.177,20.458H202.611z"/>
<path fill="#FFFFFF" d="M183.931,334.059h18.68l-22.646-22.648C180.409,322.37,182.844,330.795,183.931,334.059z"/>
<path fill="#FFFFFF" d="M197.942,231.333c-3.553,3.611-7.243,7.832-10.812,12.649h3.177
	C192.784,239.262,195.377,235.046,197.942,231.333z"/>
<polygon fill="#FFFFFF" points="205.962,330.709 205.962,307.984 183.241,307.984 "/>
<path fill="#FFFFFF" d="M187.938,248.724h-4.146c-9.944,14.916-18.127,34.734-18.127,59.26c0,12.616,2.845,22.478,4.044,26.075
	h9.238c-1.451-4.704-3.801-14.155-3.801-26.075C175.146,283.641,180.776,263.899,187.938,248.724z M172.777,274.797h4.74v4.742
	h-4.74V274.797z M170.406,284.28h4.74v4.741h-4.74V284.28z M168.036,293.761h4.741v4.741h-4.741V293.761z M168.036,303.243h4.741
	v4.741h-4.741V303.243z M168.036,317.466v-4.742h4.741v4.742H168.036z M175.146,326.947h-4.74v-4.74h4.74V326.947z"/>
<path fill="#FFFFFF" d="M202.61,274.797l-14.297-14.298c-1.665,4.457-3.163,9.225-4.423,14.298H202.61z"/>
<path fill="#FFFFFF" d="M205.962,243.982v-15.616c-3.25,4.225-6.766,9.44-10.13,15.616H205.962z"/>
<path fill="#FFFFFF" d="M210.704,222.659v111.4h4.741v-80.594h-2.371v-4.741h2.371v-30.875
	C214.121,219.045,212.513,220.646,210.704,222.659z"/>
<polygon fill="#FFFFFF" points="205.962,299.891 205.962,279.54 185.609,279.54 "/>
<path fill="#FFFFFF" d="M190.216,255.699l15.747,15.746v-22.722h-12.573C192.298,250.94,191.236,253.266,190.216,255.699z"/>
<path fill="#FFFFFF" d="M296.121,95.962h-0.137c-1.254-11.296-10.857-20.105-22.481-20.105c-7.865,0-14.998,3.995-19.123,10.572
	c-1.144-0.346-2.313-0.52-3.492-0.52c-6.146,0-11.275,4.433-12.358,10.268c-0.899-0.143-1.81-0.215-2.722-0.215
	c-9.7,0-17.593,7.89-17.593,17.592c0,9.699,7.893,17.591,17.593,17.591h27.645h5.025h27.644c9.701,0,17.593-7.892,17.593-17.591
	C313.713,103.852,305.821,95.962,296.121,95.962z"/>
<path stroke="#FFFFFF" d="M267.57,131.039h27.645c9.7,0,17.591-7.893,17.591-17.592c0-9.702-7.892-17.593-17.591-17.593h-0.138
	c-1.256-11.294-10.856-20.104-22.481-20.104c-7.866,0-15,3.995-19.124,10.572c-1.145-0.346-2.312-0.52-3.493-0.52
	c-6.145,0-11.275,4.433-12.356,10.268c-0.901-0.143-1.812-0.216-2.724-0.216c-9.699,0-17.592,7.891-17.592,17.593
	c0,9.699,7.893,17.592,17.592,17.592h27.645 M234.899,126.011c-6.928,0-12.564-5.635-12.564-12.564s5.636-12.567,12.564-12.567
	c1.436,0,2.871,0.257,4.264,0.762c0.808,0.295,1.711,0.152,2.392-0.375c0.682-0.523,1.045-1.361,0.966-2.218l-0.082-0.68
	c0-4.156,3.384-7.541,7.541-7.541c1.158,0,2.319,0.297,3.444,0.881c0.6,0.313,1.302,0.369,1.94,0.16
	c0.64-0.213,1.17-0.671,1.47-1.275c2.996-6.057,9.034-9.818,15.762-9.818c9.699,0,17.592,7.89,17.592,17.522
	c-0.005,0.062-0.012,0.236-0.012,0.299c0,0.737,0.326,1.441,0.891,1.918c0.566,0.475,1.306,0.681,2.044,0.559
	c0.763-0.13,1.45-0.194,2.104-0.194c6.928,0,12.565,5.638,12.565,12.567s-5.638,12.564-12.565,12.564H234.899z M305.266,168.735"/>
<rect x="292.701" y="105.908" stroke="#FFFFFF" width="5.025" height="5.026"/>
<rect x="292.701" y="115.959" stroke="#FFFFFF" width="5.025" height="5.027"/>
<rect x="282.649" y="115.959" stroke="#FFFFFF" width="5.027" height="5.027"/>
<path stroke="#FFFFFF" d="M6.991,135.256c0,3.58-2.912,6.492-6.491,6.492v4.328c3.579,0,6.491,2.91,6.491,6.49h4.327
	c0-3.58,2.911-6.49,6.492-6.49v-4.328c-3.581,0-6.492-2.912-6.492-6.492H6.991L6.991,135.256z M9.154,146.141
	c-0.632-0.85-1.38-1.596-2.229-2.23c0.85-0.631,1.598-1.379,2.229-2.23c0.634,0.852,1.381,1.6,2.231,2.23
	C10.535,144.545,9.788,145.292,9.154,146.141L9.154,146.141z M9.154,146.141"/>
<path stroke="#FFFFFF" stroke-width="2" d="M292.628,34.541c0,5.293-4.311,9.6-9.601,9.6v6.403c5.29,0,9.601,4.308,9.601,9.601h6.4
	c0-5.293,4.307-9.601,9.602-9.601V44.14c-5.295,0-9.602-4.307-9.602-9.6H292.628L292.628,34.541z M295.827,50.642
	c-0.935-1.258-2.04-2.367-3.295-3.3c1.255-0.935,2.36-2.042,3.295-3.3c0.938,1.258,2.043,2.365,3.3,3.3
	C297.87,48.275,296.765,49.384,295.827,50.642L295.827,50.642z M295.827,50.642"/>
<path stroke="#FFFFFF" d="M135.75,341.868c0,2.651-2.16,4.813-4.812,4.813v3.207c2.652,0,4.812,2.158,4.812,4.813h3.208
	c0-2.655,2.159-4.813,4.813-4.813v-3.207c-2.654,0-4.813-2.162-4.813-4.813H135.75L135.75,341.868z M137.353,349.937
	c-0.468-0.63-1.023-1.185-1.654-1.654c0.631-0.467,1.186-1.022,1.654-1.653c0.469,0.631,1.024,1.186,1.655,1.653
	C138.377,348.752,137.822,349.307,137.353,349.937L137.353,349.937z M137.353,349.937"/>
</svg>
