<?xml version="1.0" encoding="utf-8"?>
<!-- Generator: Adobe Illustrator 15.1.0, SVG Export Plug-In  -->
<!DOCTYPE svg PUBLIC "-//W3C//DTD SVG 1.1//EN" "http://www.w3.org/Graphics/SVG/1.1/DTD/svg11.dtd" [
	<!ENTITY ns_flows "http://ns.adobe.com/Flows/1.0/">
]>
<svg version="1.1"
	 xmlns="http://www.w3.org/2000/svg" xmlns:xlink="http://www.w3.org/1999/xlink" xmlns:a="http://ns.adobe.com/AdobeSVGViewerExtensions/3.0/"
	 x="0px" y="0px" width="500px" height="500px" viewBox="-52.956 25.088 500 500" enable-background="new -52.956 25.088 500 500"
	 xml:space="preserve">
<defs>
</defs>
<path fill="none" stroke="#010101" stroke-width="5" stroke-linecap="square" stroke-linejoin="round" stroke-dasharray="0,12" d="
	M4.732,319.764c-15.26-94.927,49.33-184.238,144.264-199.505c94.928-15.244,184.244,49.346,199.49,144.279
	c15.262,94.915-49.324,184.242-144.26,199.502C109.301,479.293,19.984,414.695,4.732,319.764z"/>
<path stroke="#FFFFFF" d="M214.32,460.831h80.02v-6.438h-0.619V344.96h6.438v-6.438h-6.438v-51.848l-3.219,0.332v-25.732h-6.438
	v28.934c-2.488,1.572-5.586,3.736-9.094,6.471h-0.563v0.443c-9.545,7.52-21.914,19.221-33.049,34.963h-15.23v6.438h10.893
	c-13.256,20.766-23.768,47.662-23.768,80.465c0,16.186,3.191,29.02,5.16,35.406h-3.811 M263.518,314.909
	c-3.482,5.041-7.004,10.766-10.367,17.176h-4.314C253.684,325.542,258.693,319.813,263.518,314.909L263.518,314.909z
	 M225.182,454.394c-1.629-4.885-5.49-18.275-5.49-35.406c0-33.303,11.109-60.211,24.611-80.465h5.631
	c-9.725,20.605-17.369,47.41-17.369,80.465c0,16.186,3.193,29.02,5.162,35.406H225.182z M250.443,354.511l19.412,19.416h-25.418
	C246.148,367.036,248.182,360.563,250.443,354.511L250.443,354.511z M269.857,412.55h-30.732c0.32-9.822,1.361-19.092,2.955-27.777
	L269.857,412.55z M244.494,454.394c-1.479-4.432-4.783-15.873-5.387-30.752l30.75,30.752H244.494z M274.408,449.845l-30.852-30.857
	h30.852V449.845z M274.408,407.999l-27.637-27.635h27.637V407.999z M274.408,369.374l-21.381-21.381
	c1.385-3.303,2.826-6.461,4.309-9.471h17.072V369.374z M274.408,332.085h-13.756c4.568-8.387,9.344-15.467,13.756-21.203V332.085z
	 M287.283,338.522h-3.219v6.438h3.219v109.434h-6.438V303.13c2.457-2.732,4.641-4.906,6.438-6.531V338.522z M287.283,338.522"/>
<rect x="222.91" y="412.55" stroke="#FFFFFF" width="6.438" height="6.438"/>
<rect x="222.91" y="399.675" stroke="#FFFFFF" width="6.438" height="6.438"/>
<rect x="222.91" y="425.425" stroke="#FFFFFF" width="6.438" height="6.438"/>
<rect x="226.129" y="438.3" stroke="#FFFFFF" width="6.436" height="6.438"/>
<rect x="226.129" y="386.802" stroke="#FFFFFF" width="6.436" height="6.438"/>
<rect x="229.348" y="373.927" stroke="#FFFFFF" width="6.438" height="6.438"/>
<path fill="#FFFFFF" d="M270.076,413.067l-27.777-27.777c-1.594,8.684-2.635,17.953-2.955,27.777H270.076z"/>
<path fill="#FFFFFF" d="M244.713,454.909h25.363l-30.75-30.752C239.93,439.038,243.234,450.478,244.713,454.909z"/>
<path fill="#FFFFFF" d="M263.736,315.425c-4.824,4.904-9.834,10.635-14.682,17.176h4.314
	C256.732,326.19,260.254,320.468,263.736,315.425z"/>
<polygon fill="#FFFFFF" points="274.627,450.36 274.627,419.503 243.775,419.503 "/>
<path fill="#FFFFFF" d="M250.152,339.038h-5.631c-13.502,20.254-24.611,47.164-24.611,80.465c0,17.131,3.861,30.521,5.49,35.406
	h12.545c-1.969-6.387-5.162-19.221-5.162-35.406C232.783,386.45,240.428,359.644,250.152,339.038z M229.566,374.442h6.438v6.438
	h-6.438V374.442z M226.348,387.317h6.436v6.438h-6.436V387.317z M223.129,400.192h6.438v6.438h-6.438V400.192z M223.129,413.067
	h6.438v6.436h-6.438V413.067z M223.129,432.38v-6.439h6.438v6.439H223.129z M232.783,445.253h-6.436v-6.436h6.436V445.253z"/>
<path fill="#FFFFFF" d="M270.074,374.442l-19.412-19.414c-2.262,6.051-4.295,12.525-6.006,19.414H270.074z"/>
<path fill="#FFFFFF" d="M274.627,332.601v-21.203c-4.412,5.736-9.188,12.818-13.756,21.203H274.627z"/>
<path fill="#FFFFFF" d="M281.064,303.647v151.262h6.438V345.476h-3.219v-6.438h3.219v-41.924
	C285.705,298.741,283.521,300.913,281.064,303.647z"/>
<polygon fill="#FFFFFF" points="274.627,408.515 274.627,380.88 246.99,380.88 "/>
<path fill="#FFFFFF" d="M253.246,348.511l21.381,21.381v-30.854h-17.072C256.072,342.05,254.631,345.208,253.246,348.511z"/>
<text transform="matrix(1 0 0 1 109.6045 20.0879)" font-family="'MyriadPro-Regular'" font-size="24">Dubai VPS Hosting</text>
<path stroke="#FFFFFF" d="M31.435,186.286c0,3.58-2.912,6.492-6.49,6.492v4.328c3.578,0,6.49,2.91,6.49,6.49h4.328
	c0-3.58,2.911-6.49,6.492-6.49v-4.328c-3.581,0-6.492-2.912-6.492-6.492H31.435L31.435,186.286z M33.599,197.171
	c-0.632-0.85-1.381-1.596-2.23-2.23c0.85-0.631,1.599-1.379,2.23-2.23c0.633,0.852,1.381,1.6,2.231,2.23
	C34.979,195.575,34.231,196.321,33.599,197.171L33.599,197.171z M33.599,197.171"/>
<path stroke="#FFFFFF" stroke-width="2" d="M109.894,439.057c0,5.293-4.311,9.6-9.6,9.6v6.403c5.289,0,9.6,4.308,9.6,9.601h6.4
	c0-5.293,4.307-9.601,9.602-9.601v-6.403c-5.295,0-9.602-4.307-9.602-9.6H109.894L109.894,439.057z M113.095,455.158
	c-0.936-1.258-2.041-2.367-3.297-3.3c1.256-0.935,2.361-2.042,3.297-3.3c0.936,1.258,2.041,2.365,3.299,3.3
	C115.136,452.791,114.03,453.9,113.095,455.158L113.095,455.158z M113.095,455.158"/>
<path stroke="#FFFFFF" d="M277.552,143.44c0,3.362-2.739,6.104-6.103,6.104v4.066c3.363,0,6.103,2.737,6.103,6.104h4.067
	c0-3.366,2.739-6.104,6.104-6.104v-4.066c-3.364,0-6.104-2.741-6.104-6.104H277.552L277.552,143.44z M279.586,153.673
	c-0.594-0.798-1.299-1.502-2.098-2.097c0.799-0.593,1.504-1.297,2.098-2.097c0.594,0.8,1.297,1.504,2.098,2.097
	C280.883,152.171,280.18,152.875,279.586,153.673L279.586,153.673z M279.586,153.673"/>
<ellipse fill="#FFFFFF" cx="114.043" cy="286.088" rx="27.407" ry="12.563"/>
<path stroke="#FFFFFF" d="M111.542,269.641c-15.99,0.629-28.205,7.593-28.205,16.39v42.307c0,9.224,13.421,16.453,30.555,16.453
	c17.135,0,30.555-7.229,30.555-16.453V286.03c0-8.797-12.217-15.761-28.203-16.39H111.542z M139.743,314.235
	c0,5.56-10.615,11.75-25.852,11.75c-15.235,0-25.854-6.19-25.854-11.75v-5.244c5.364,4.592,14.831,7.594,25.854,7.594
	c11.025,0,20.49-3.002,25.852-7.594V314.235z M139.743,300.133c0,5.559-10.615,11.751-25.852,11.751
	c-15.235,0-25.854-6.192-25.854-11.751v-5.242c5.364,4.592,14.831,7.591,25.854,7.591c11.025,0,20.49-2.999,25.852-7.591V300.133z
	 M139.743,286.03c0,5.559-10.615,11.752-25.852,11.752c-15.235,0-25.854-6.193-25.854-11.752c0-5.267,9.54-11.093,23.505-11.691
	h4.701C130.204,274.938,139.743,280.764,139.743,286.03L139.743,286.03z M139.743,328.337c0,5.559-10.615,11.75-25.852,11.75
	c-15.235,0-25.854-6.191-25.854-11.75v-5.244c5.364,4.592,14.831,7.594,25.854,7.594c11.025,0,20.49-3.002,25.852-7.594V328.337z"/>
<circle fill="#FFFFFF" cx="210.441" cy="288.485" r="22.079"/>
<rect x="254.622" y="267.563" fill="#FFFFFF" width="3.397" height="5.426"/>
<rect x="137.423" y="269.406" fill="#FFFFFF" width="20.381" height="52.438"/>
<path d="M169.692,272.724c-4.682,0-8.492,3.809-8.492,8.492c0,4.683,3.811,8.492,8.492,8.492c4.683,0,8.493-3.81,8.493-8.492
	C178.186,276.532,174.375,272.724,169.692,272.724L169.692,272.724z M169.692,286.312c-2.809,0-5.095-2.287-5.095-5.096
	s2.286-5.096,5.095-5.096c2.81,0,5.096,2.287,5.096,5.096S172.502,286.312,169.692,286.312L169.692,286.312z M169.692,286.312"/>
<rect x="167.994" y="279.518" width="3.397" height="3.396"/>
<path d="M239.329,298.2v-16.984h-4.859c-0.299-0.854-0.642-1.687-1.023-2.488l3.43-3.431l-12.009-12.011l-3.432,3.432
	c-0.804-0.383-1.634-0.724-2.487-1.023v-4.86H205.36v-40.763h-71.336v98.511h3.398v6.794h13.587v-6.794h37.366v6.794h13.587v-6.794
	h16.985v-4.859c0.854-0.3,1.686-0.642,2.487-1.024l3.432,3.431l12.009-12.009l-3.43-3.432c0.382-0.804,0.724-1.635,1.023-2.488
	H239.329z M137.423,223.469h64.54v10.19h-3.396v-6.794h-3.398v6.794h-3.396v-6.794h-3.396v6.794h-3.396v-6.794h-3.398v6.794h-3.396
	v-6.794h-3.397v6.794h-37.365V223.469z M137.423,237.057h64.54v10.19h-3.396v-6.795h-3.398v6.795h-3.396v-6.795h-3.396v6.795h-3.396
	v-6.795h-3.398v6.795h-3.396v-6.795h-3.397v6.795h-37.365V237.057z M137.423,250.644h64.54v10.19h-3.396v-6.794h-3.398v6.794h-3.396
	v-6.794h-3.396v6.794h-3.396v-6.794h-3.398v6.794h-3.396v-6.794h-3.397v6.794h-37.365V250.644z M201.963,264.231v1.463
	c-0.854,0.298-1.687,0.641-2.488,1.023l-2.487-2.486H201.963z M147.612,321.979h-6.793v-3.396h6.793V321.979z M137.423,315.185
	v-50.953h57.676l-11.065,11.065l3.431,3.431c-0.383,0.803-0.725,1.634-1.024,2.488h-4.858V298.2h4.86
	c0.298,0.854,0.642,1.687,1.024,2.488l-3.432,3.432l11.064,11.064H137.423z M198.567,321.979h-6.795v-3.396h6.795V321.979z
	 M201.963,315.185h-4.976l2.487-2.484c0.804,0.382,1.634,0.723,2.488,1.024V315.185z M232.073,304.12l-7.206,7.206l-2.796-2.796
	l-1.115,0.603c-1.302,0.707-2.713,1.286-4.192,1.728l-1.213,0.361v3.963h-10.19v-3.963l-1.215-0.361
	c-1.479-0.439-2.891-1.021-4.193-1.728l-1.114-0.603l-2.796,2.796l-7.207-7.206l2.797-2.796l-0.604-1.115
	c-0.707-1.302-1.285-2.714-1.727-4.192l-0.361-1.213h-3.961v-10.19h3.961l0.361-1.216c0.441-1.479,1.021-2.89,1.729-4.192
	l0.604-1.114l-2.797-2.797l7.207-7.206l2.796,2.796l1.114-0.603c1.303-0.707,2.714-1.285,4.193-1.728l1.213-0.36v-3.962h10.19v3.962
	l1.214,0.361c1.479,0.441,2.892,1.021,4.193,1.728l1.114,0.604l2.796-2.796l7.207,7.207l-2.797,2.796l0.604,1.113
	c0.707,1.303,1.286,2.715,1.729,4.193l0.359,1.214h3.963v10.19h-3.963l-0.361,1.214c-0.44,1.479-1.021,2.892-1.729,4.193
	l-0.602,1.114L232.073,304.12z M232.073,304.12"/>
<path d="M210.455,274.422c-8.428,0-15.286,6.858-15.286,15.286s6.858,15.287,15.286,15.287s15.286-6.859,15.286-15.287
	S218.883,274.422,210.455,274.422L210.455,274.422z M222.209,291.407c-0.289,2.008-1.081,3.854-2.245,5.407l-2.303-2.304
	l-2.402,2.402l2.303,2.303c-1.554,1.165-3.398,1.957-5.407,2.246V298.2h-3.397v3.262c-2.01-0.289-3.854-1.081-5.408-2.246
	l2.303-2.303l-2.4-2.402l-2.303,2.304c-1.166-1.554-1.957-3.399-2.246-5.407h3.261v-3.397h-3.261c0.289-2.01,1.08-3.854,2.246-5.408
	l2.303,2.303l2.4-2.401l-2.303-2.303c1.555-1.166,3.398-1.955,5.408-2.245v3.261h3.397v-3.261c2.009,0.288,3.854,1.079,5.407,2.245
	l-2.303,2.303l2.402,2.401l2.303-2.303c1.164,1.555,1.955,3.398,2.245,5.408h-3.261v3.397H222.209z M222.209,291.407"/>
<path fill="#FFFFFF" d="M357.914,254.894h-0.183c-1.664-14.983-14.401-26.668-29.82-26.668c-10.434,0-19.896,5.298-25.368,14.023
	c-1.516-0.46-3.067-0.69-4.633-0.69c-8.151,0-14.956,5.88-16.392,13.621c-1.194-0.189-2.401-0.286-3.61-0.286
	c-12.869,0-23.337,10.466-23.337,23.337c0,12.865,10.468,23.334,23.337,23.334h36.67h6.665h36.671
	c12.867,0,23.335-10.469,23.335-23.334C381.249,265.359,370.781,254.894,357.914,254.894z"/>
<path stroke="#FFFFFF" stroke-width="2" d="M320.042,301.422h36.67c12.867,0,23.336-10.467,23.336-23.334
	c0-12.868-10.469-23.337-23.336-23.337h-0.183c-1.666-14.982-14.403-26.668-29.82-26.668c-10.435,0-19.897,5.301-25.368,14.024
	c-1.517-0.46-3.067-0.691-4.634-0.691c-8.15,0-14.955,5.882-16.391,13.62c-1.194-0.188-2.402-0.285-3.612-0.285
	c-12.867,0-23.336,10.469-23.336,23.337c0,12.867,10.469,23.334,23.336,23.334h36.671 M276.704,294.755
	c-9.191,0-16.668-7.476-16.668-16.667c0-9.189,7.477-16.671,16.668-16.671c1.904,0,3.808,0.342,5.654,1.012
	c1.072,0.391,2.271,0.201,3.174-0.499c0.904-0.693,1.387-1.805,1.279-2.94l-0.107-0.902c0-5.514,4.489-10.004,10.003-10.004
	c1.537,0,3.076,0.396,4.57,1.171c0.794,0.412,1.728,0.489,2.573,0.212c0.849-0.282,1.553-0.891,1.949-1.69
	c3.975-8.035,11.984-13.024,20.909-13.024c12.865,0,23.335,10.464,23.335,23.243c-0.006,0.082-0.016,0.313-0.016,0.396
	c0,0.979,0.433,1.912,1.182,2.546c0.75,0.63,1.732,0.901,2.71,0.741c1.012-0.173,1.925-0.26,2.792-0.26
	c9.189,0,16.668,7.481,16.668,16.671c0,9.191-7.479,16.667-16.668,16.667H276.704z M370.046,351.425"/>
<rect x="353.376" y="268.086" stroke="#FFFFFF" stroke-width="2" width="6.668" height="6.667"/>
<rect x="353.376" y="281.42" stroke="#FFFFFF" stroke-width="2" width="6.668" height="6.668"/>
<rect x="340.044" y="281.42" stroke="#FFFFFF" stroke-width="2" width="6.668" height="6.668"/>
</svg>
