<?xml version="1.0" encoding="utf-8"?>
<!-- Generator: Adobe Illustrator 15.1.0, SVG Export Plug-In  -->
<!DOCTYPE svg PUBLIC "-//W3C//DTD SVG 1.1//EN" "http://www.w3.org/Graphics/SVG/1.1/DTD/svg11.dtd" [
	<!ENTITY ns_flows "http://ns.adobe.com/Flows/1.0/">
]>
<svg version="1.1"
	 xmlns="http://www.w3.org/2000/svg" xmlns:xlink="http://www.w3.org/1999/xlink" xmlns:a="http://ns.adobe.com/AdobeSVGViewerExtensions/3.0/"
	 x="0px" y="0px" width="500px" height="500px" viewBox="-72.51 25.088 500 500" enable-background="new -72.51 25.088 500 500"
	 xml:space="preserve">
<defs>
</defs>
<path fill="none" stroke="#010101" stroke-width="5" stroke-linecap="square" stroke-linejoin="round" stroke-dasharray="0,12" d="
	M4.744,305.213c-15.337-95.406,49.579-185.17,144.992-200.513c95.407-15.321,185.176,49.595,200.498,145.008
	c15.339,95.395-49.573,185.174-144.988,200.51C109.841,465.548,20.072,400.624,4.744,305.213z"/>
<path stroke="#FFFFFF" d="M115.336,247.907c-18.14,0.714-31.996,8.613-31.996,18.593v47.993c0,10.464,15.225,18.665,34.662,18.665
	s34.661-8.201,34.661-18.665V266.5c0-9.979-13.858-17.879-31.993-18.593 M147.327,314.493c0,6.306-12.042,13.33-29.325,13.33
	c-17.284,0-29.33-7.024-29.33-13.33v-5.948c6.086,5.208,16.824,8.614,29.33,8.614s23.242-3.406,29.325-8.614V314.493z
	 M147.327,298.497c0,6.306-12.042,13.329-29.325,13.329c-17.284,0-29.33-7.023-29.33-13.329v-5.95
	c6.086,5.209,16.824,8.614,29.33,8.614s23.242-3.405,29.325-8.614V298.497z M147.327,282.498c0,6.307-12.042,13.331-29.325,13.331
	c-17.284,0-29.33-7.024-29.33-13.331v-5.946c6.086,5.208,16.824,8.61,29.33,8.61s23.242-3.402,29.325-8.61V282.498z M147.327,266.5
	c0,6.307-12.042,13.332-29.325,13.332c-17.284,0-29.33-7.025-29.33-13.332c0-5.975,10.822-12.584,26.664-13.262h5.334
	C136.506,253.916,147.327,260.525,147.327,266.5L147.327,266.5z"/>
<text transform="matrix(1 0 0 1 65.2549 20.0879)" font-family="'MyriadPro-Regular'" font-size="24">Email Hosting Solutions</text>
<rect x="274.684" y="353.749" fill="#FFFFFF" width="77.82" height="46.097"/>
<g>
	<defs>
		<rect id="SVGID_6_" x="273.177" y="353.198" width="81.212" height="49.718"/>
	</defs>
	<clipPath id="SVGID_8_">
		<use xlink:href="#SVGID_6_"  overflow="visible"/>
	</clipPath>
	<path clip-path="url(#SVGID_8_)" stroke="#FFFFFF" d="M354.254,357.498c-0.003-2.29-1.867-4.149-4.156-4.149h-0.005l-72.765,0.099
		c-1.11,0.002-2.154,0.437-2.938,1.223c-0.784,0.785-1.214,1.83-1.213,2.939l0.057,40.889c0.002,1.109,0.435,2.152,1.222,2.937
		c0.784,0.782,1.826,1.214,2.934,1.214h0.006l72.765-0.102c2.291-0.003,4.153-1.869,4.15-4.161L354.254,357.498z M345.533,357.51
		l-31.787,22.097l-31.848-22.009L345.533,357.51z M327.188,383.777l18.854,14.62l-64.648,0.088l18.968-14.708
		c0.905-0.703,1.071-2.009,0.368-2.915c-0.703-0.907-2.009-1.072-2.916-0.369l-20.426,15.841l-0.052-36.838l35.233,24.348
		c0.355,0.246,0.769,0.369,1.182,0.369c0.414,0,0.83-0.124,1.186-0.371l35.164-24.445l0.053,36.933l-20.418-15.836
		c-0.906-0.703-2.211-0.538-2.914,0.369C326.116,381.769,326.281,383.074,327.188,383.777L327.188,383.777z M327.188,383.777"/>
	<use xlink:href="#SVGID_6_"  overflow="visible" fill="none" stroke="#FFFFFF"/>
</g>
<path stroke="#FFFFFF" d="M26.849,356.278c0,3.58-2.912,6.492-6.49,6.492v4.328c3.578,0,6.49,2.91,6.49,6.49h4.328
	c0-3.58,2.911-6.49,6.492-6.49v-4.328c-3.581,0-6.492-2.912-6.492-6.492H26.849L26.849,356.278z M29.013,367.163
	c-0.632-0.85-1.381-1.596-2.23-2.23c0.85-0.631,1.599-1.379,2.23-2.23c0.633,0.852,1.381,1.6,2.231,2.23
	C30.394,365.567,29.646,366.313,29.013,367.163L29.013,367.163z M29.013,367.163"/>
<path stroke="#FFFFFF" stroke-width="2" d="M174.602,440.856c0,5.293-4.311,9.6-9.6,9.6v6.403c5.289,0,9.6,4.308,9.6,9.601h6.4
	c0-5.293,4.307-9.601,9.602-9.601v-6.403c-5.295,0-9.602-4.307-9.602-9.6H174.602L174.602,440.856z M177.803,456.958
	c-0.936-1.258-2.041-2.367-3.297-3.3c1.256-0.935,2.361-2.042,3.297-3.3c0.936,1.258,2.041,2.365,3.299,3.3
	C179.844,454.591,178.738,455.7,177.803,456.958L177.803,456.958z M177.803,456.958"/>
<path stroke="#FFFFFF" d="M230.969,105.943c0,3.362-2.739,6.104-6.103,6.104v4.066c3.363,0,6.103,2.737,6.103,6.104h4.067
	c0-3.366,2.739-6.104,6.104-6.104v-4.066c-3.364,0-6.104-2.741-6.104-6.104H230.969L230.969,105.943z M233.003,116.176
	c-0.594-0.798-1.299-1.502-2.098-2.097c0.799-0.593,1.504-1.297,2.098-2.097c0.594,0.8,1.297,1.504,2.098,2.097
	C234.3,114.674,233.597,115.378,233.003,116.176L233.003,116.176z M233.003,116.176"/>
<path d="M211.854,283.304c-4.682,0-8.492,3.809-8.492,8.492c0,4.683,3.811,8.492,8.492,8.492c4.684,0,8.494-3.81,8.494-8.492
	C220.348,287.112,216.537,283.304,211.854,283.304L211.854,283.304z M211.854,296.892c-2.809,0-5.094-2.287-5.094-5.096
	s2.285-5.096,5.094-5.096c2.811,0,5.096,2.287,5.096,5.096S214.664,296.892,211.854,296.892L211.854,296.892z M211.854,296.892"/>
<rect x="210.156" y="290.098" width="3.396" height="3.396"/>
<path d="M281.491,308.78v-16.984h-4.859c-0.3-0.854-0.642-1.687-1.024-2.488l3.43-3.431l-12.008-12.011l-3.432,3.432
	c-0.804-0.383-1.635-0.724-2.488-1.023v-4.86h-13.588v-40.763h-71.335v98.511h3.397v6.794h13.588v-6.794h37.365v6.794h13.588v-6.794
	h16.984v-4.859c0.854-0.3,1.687-0.642,2.488-1.024l3.432,3.431l12.008-12.009l-3.43-3.432c0.383-0.804,0.725-1.635,1.024-2.488
	H281.491z M179.584,234.049h64.541v10.19h-3.396v-6.794h-3.397v6.794h-3.396v-6.794h-3.397v6.794h-3.396v-6.794h-3.397v6.794h-3.396
	v-6.794h-3.398v6.794h-37.365V234.049z M179.584,247.637h64.541v10.19h-3.396v-6.795h-3.397v6.795h-3.396v-6.795h-3.397v6.795
	h-3.396v-6.795h-3.397v6.795h-3.396v-6.795h-3.398v6.795h-37.365V247.637z M179.584,261.224h64.541v10.19h-3.396v-6.794h-3.397
	v6.794h-3.396v-6.794h-3.397v6.794h-3.396v-6.794h-3.397v6.794h-3.396v-6.794h-3.398v6.794h-37.365V261.224z M244.125,274.812v1.463
	c-0.855,0.298-1.687,0.641-2.488,1.023l-2.487-2.486H244.125z M189.774,332.559h-6.794v-3.396h6.794V332.559z M179.584,325.765
	v-50.953h57.676l-11.064,11.065l3.43,3.431c-0.383,0.803-0.724,1.634-1.023,2.488h-4.858v16.984h4.86
	c0.298,0.854,0.641,1.687,1.023,2.488l-3.432,3.432l11.064,11.064H179.584z M240.729,332.559h-6.794v-3.396h6.794V332.559z
	 M244.125,325.765h-4.976l2.487-2.484c0.803,0.382,1.633,0.723,2.488,1.024V325.765z M274.235,314.7l-7.206,7.206l-2.797-2.796
	l-1.114,0.603c-1.302,0.707-2.714,1.286-4.192,1.728l-1.213,0.361v3.963h-10.191v-3.963l-1.215-0.361
	c-1.479-0.439-2.891-1.021-4.192-1.728L241,319.11l-2.797,2.796l-7.206-7.206l2.796-2.796l-0.603-1.115
	c-0.707-1.302-1.286-2.714-1.728-4.192l-0.36-1.213h-3.962v-10.19h3.962l0.361-1.216c0.44-1.479,1.021-2.89,1.728-4.192l0.604-1.114
	l-2.796-2.797l7.206-7.206l2.797,2.796l1.113-0.603c1.304-0.707,2.715-1.285,4.193-1.728l1.213-0.36v-3.962h10.191v3.962
	l1.213,0.361c1.48,0.441,2.893,1.021,4.194,1.728l1.114,0.604l2.795-2.796l7.207,7.207l-2.796,2.796l0.604,1.113
	c0.706,1.303,1.286,2.715,1.728,4.193l0.359,1.214h3.963v10.19h-3.963l-0.361,1.214c-0.439,1.479-1.021,2.892-1.728,4.193
	l-0.603,1.114L274.235,314.7z M274.235,314.7"/>
<path d="M252.617,285.002c-8.428,0-15.286,6.858-15.286,15.286s6.858,15.287,15.286,15.287s15.286-6.859,15.286-15.287
	S261.045,285.002,252.617,285.002L252.617,285.002z M264.371,301.987c-0.289,2.008-1.081,3.854-2.246,5.407l-2.303-2.304
	l-2.402,2.402l2.304,2.303c-1.554,1.165-3.399,1.957-5.407,2.246v-3.262h-3.398v3.262c-2.009-0.289-3.854-1.081-5.407-2.246
	l2.303-2.303l-2.401-2.402l-2.303,2.304c-1.166-1.554-1.957-3.399-2.246-5.407h3.262v-3.397h-3.262
	c0.289-2.01,1.08-3.854,2.246-5.408l2.303,2.303l2.401-2.401l-2.303-2.303c1.554-1.166,3.398-1.955,5.407-2.245v3.261h3.398v-3.261
	c2.008,0.288,3.854,1.079,5.407,2.245l-2.304,2.303l2.402,2.401l2.303-2.303c1.165,1.555,1.955,3.398,2.246,5.408h-3.262v3.397
	H264.371z M264.371,301.987"/>
<path fill="#FFFFFF" stroke="#FFFFFF" d="M187.162,227.289h-0.143c-1.288-11.602-11.15-20.649-23.089-20.649
	c-8.079,0-15.406,4.103-19.644,10.858c-1.173-0.356-2.374-0.534-3.586-0.534c-6.313,0-11.581,4.553-12.692,10.547
	c-0.925-0.147-1.859-0.222-2.796-0.222c-9.965,0-18.07,8.104-18.07,18.069c0,9.962,8.105,18.067,18.07,18.067h28.395h5.16h28.395
	c9.963,0,18.068-8.105,18.068-18.067C205.23,235.393,197.125,227.289,187.162,227.289z"/>
<path stroke="#FFFFFF" d="M157.837,263.315h28.394c9.964,0,18.069-8.104,18.069-18.067c0-9.964-8.105-18.069-18.069-18.069h-0.141
	c-1.29-11.602-11.152-20.649-23.09-20.649c-8.08,0-15.406,4.104-19.643,10.859c-1.175-0.356-2.375-0.535-3.588-0.535
	c-6.312,0-11.58,4.554-12.691,10.546c-0.926-0.146-1.86-0.221-2.797-0.221c-9.963,0-18.069,8.105-18.069,18.069
	c0,9.963,8.106,18.067,18.069,18.067h28.395 M124.281,258.153c-7.117,0-12.906-5.788-12.906-12.905
	c0-7.115,5.789-12.908,12.906-12.908c1.475,0,2.947,0.265,4.378,0.783c0.83,0.303,1.759,0.156,2.457-0.386
	c0.7-0.537,1.073-1.397,0.991-2.277l-0.084-0.698c0-4.27,3.477-7.746,7.746-7.746c1.189,0,2.381,0.307,3.538,0.906
	c0.615,0.319,1.337,0.379,1.993,0.164c0.656-0.219,1.201-0.689,1.509-1.309c3.077-6.222,9.279-10.085,16.19-10.085
	c9.961,0,18.068,8.103,18.068,17.997c-0.005,0.063-0.013,0.242-0.013,0.307c0,0.758,0.335,1.48,0.915,1.971
	c0.581,0.488,1.342,0.698,2.099,0.574c0.783-0.134,1.49-0.201,2.161-0.201c7.116,0,12.906,5.793,12.906,12.908
	c0,7.117-5.79,12.905-12.906,12.905H124.281z M196.555,302.033"/>
<rect x="183.648" y="237.504" stroke="#FFFFFF" width="5.162" height="5.162"/>
<rect x="183.648" y="247.828" stroke="#FFFFFF" width="5.162" height="5.163"/>
<rect x="173.324" y="247.828" stroke="#FFFFFF" width="5.164" height="5.163"/>
<rect x="253.77" y="311.172" fill="#FFFFFF" width="3.398" height="5.426"/>
</svg>
