<?xml version="1.0" encoding="utf-8"?>
<!-- Generator: Adobe Illustrator 15.1.0, SVG Export Plug-In  -->
<!DOCTYPE svg PUBLIC "-//W3C//DTD SVG 1.1//EN" "http://www.w3.org/Graphics/SVG/1.1/DTD/svg11.dtd" [
	<!ENTITY ns_flows "http://ns.adobe.com/Flows/1.0/">
]>
<svg version="1.1"
	 xmlns="http://www.w3.org/2000/svg" xmlns:xlink="http://www.w3.org/1999/xlink" xmlns:a="http://ns.adobe.com/AdobeSVGViewerExtensions/3.0/"
	 x="0px" y="0px" width="500px" height="500px" viewBox="-67.727 25.088 500 500" enable-background="new -67.727 25.088 500 500"
	 xml:space="preserve">
<defs>
</defs>
<path fill="none" stroke="#010101" stroke-width="5" stroke-linecap="square" stroke-linejoin="round" stroke-dasharray="0,12" d="
	M4.744,307.646c-15.337-95.406,49.581-185.169,144.994-200.513c95.408-15.32,185.176,49.596,200.498,145.009
	c15.338,95.396-49.575,185.174-144.988,200.511C109.841,467.983,20.073,403.058,4.744,307.646z"/>
<text transform="matrix(1 0 0 1 32.207 20.0879)" font-family="'MyriadPro-Regular'" font-size="24">Enterprise VPS</text>
<path stroke="#FFFFFF" d="M234.514,428.624c0,5.291-4.31,9.604-9.604,9.604v6.398c5.294,0,9.604,4.308,9.604,9.604h6.4
	c0-5.297,4.311-9.604,9.604-9.604v-6.398c-5.293,0-9.604-4.313-9.604-9.604H234.514L234.514,428.624z M237.714,444.726
	c-0.935-1.256-2.043-2.363-3.301-3.299c1.258-0.934,2.366-2.041,3.301-3.3c0.935,1.259,2.042,2.366,3.301,3.3
	C239.756,442.362,238.648,443.47,237.714,444.726L237.714,444.726z M237.714,444.726"/>
<path stroke="#FFFFFF" d="M286.539,138.284c0,3.58-2.912,6.492-6.49,6.492v4.328c3.578,0,6.49,2.91,6.49,6.49h4.328
	c0-3.58,2.911-6.49,6.492-6.49v-4.328c-3.581,0-6.492-2.912-6.492-6.492H286.539L286.539,138.284z M288.703,149.169
	c-0.632-0.85-1.381-1.596-2.23-2.23c0.85-0.631,1.599-1.379,2.23-2.23c0.633,0.852,1.381,1.6,2.231,2.23
	C290.083,147.573,289.335,148.319,288.703,149.169L288.703,149.169z M288.703,149.169"/>
<path stroke="#FFFFFF" d="M7.646,218.238c0,3.362-2.739,6.104-6.103,6.104v4.066c3.363,0,6.103,2.737,6.103,6.104h4.067
	c0-3.366,2.739-6.104,6.104-6.104v-4.066c-3.364,0-6.104-2.741-6.104-6.104H7.646L7.646,218.238z M9.68,228.471
	c-0.594-0.798-1.299-1.502-2.098-2.097c0.799-0.593,1.504-1.297,2.098-2.097c0.594,0.8,1.297,1.504,2.098,2.097
	C10.977,226.969,10.273,227.673,9.68,228.471L9.68,228.471z M9.68,228.471"/>
<path stroke="#FFFFFF" d="M255.918,283.421c-15.99,0.629-28.205,7.593-28.205,16.39v42.307c0,9.224,13.42,16.453,30.555,16.453
	c17.135,0,30.555-7.229,30.555-16.453v-42.307c0-8.797-12.217-15.761-28.203-16.39 M284.12,342.117
	c0,5.559-10.615,11.75-25.851,11.75s-25.855-6.191-25.855-11.75v-5.244c5.365,4.592,14.831,7.594,25.855,7.594
	c11.024,0,20.489-3.002,25.851-7.594V342.117z M284.12,328.016c0,5.56-10.615,11.75-25.851,11.75s-25.855-6.19-25.855-11.75v-5.244
	c5.365,4.592,14.831,7.594,25.855,7.594c11.024,0,20.489-3.002,25.851-7.594V328.016z M284.12,313.913
	c0,5.559-10.615,11.751-25.851,11.751s-25.855-6.192-25.855-11.751v-5.242c5.365,4.592,14.831,7.591,25.855,7.591
	c11.024,0,20.489-2.999,25.851-7.591V313.913z M284.12,299.811c0,5.559-10.615,11.752-25.851,11.752s-25.855-6.193-25.855-11.752
	c0-5.267,9.541-11.093,23.505-11.691h4.702C274.58,288.718,284.12,294.544,284.12,299.811L284.12,299.811z"/>
<circle fill="#FFFFFF" cx="224.135" cy="293.139" r="22.078"/>
<path d="M177.386,274.377c-4.682,0-8.492,3.809-8.492,8.492c0,4.683,3.81,8.492,8.492,8.492c4.683,0,8.494-3.81,8.494-8.492
	C185.88,278.186,182.069,274.377,177.386,274.377L177.386,274.377z M177.386,287.965c-2.809,0-5.094-2.287-5.094-5.096
	s2.286-5.096,5.094-5.096c2.81,0,5.096,2.287,5.096,5.096S180.196,287.965,177.386,287.965L177.386,287.965z M177.386,287.965"/>
<rect x="175.688" y="281.171" width="3.397" height="3.396"/>
<path d="M247.024,299.854v-16.984h-4.859c-0.299-0.854-0.642-1.687-1.024-2.488l3.43-3.431l-12.009-12.011l-3.432,3.432
	c-0.803-0.383-1.634-0.724-2.487-1.023v-4.86h-13.588v-40.763h-71.335v98.511h3.397v6.794h13.587v-6.794h37.366v6.794h13.587v-6.794
	h16.985v-4.859c0.854-0.3,1.686-0.642,2.487-1.024l3.432,3.431l12.009-12.009l-3.43-3.432c0.382-0.804,0.724-1.635,1.024-2.488
	H247.024z M145.117,225.122h64.541v10.19h-3.396v-6.794h-3.397v6.794h-3.396v-6.794h-3.397v6.794h-3.396v-6.794h-3.397v6.794h-3.396
	v-6.794h-3.397v6.794h-37.366V225.122z M145.117,238.71h64.541v10.19h-3.396v-6.795h-3.397v6.795h-3.396v-6.795h-3.397v6.795h-3.396
	v-6.795h-3.397v6.795h-3.396v-6.795h-3.397v6.795h-37.366V238.71z M145.117,252.297h64.541v10.19h-3.396v-6.794h-3.397v6.794h-3.396
	v-6.794h-3.397v6.794h-3.396v-6.794h-3.397v6.794h-3.396v-6.794h-3.397v6.794h-37.366V252.297z M209.657,265.885v1.463
	c-0.854,0.298-1.686,0.641-2.488,1.023l-2.487-2.486H209.657z M155.307,323.632h-6.794v-3.396h6.794V323.632z M145.117,316.838
	v-50.953h57.676l-11.065,11.065l3.43,3.431c-0.382,0.803-0.724,1.634-1.024,2.488h-4.858v16.984h4.86
	c0.298,0.854,0.642,1.687,1.024,2.488l-3.432,3.432l11.064,11.064H145.117z M206.261,323.632h-6.794v-3.396h6.794V323.632z
	 M209.657,316.838h-4.975l2.487-2.484c0.803,0.382,1.634,0.723,2.488,1.024V316.838z M239.768,305.773l-7.207,7.206l-2.796-2.796
	l-1.115,0.603c-1.302,0.707-2.713,1.286-4.193,1.728l-1.213,0.361v3.963h-10.19v-3.963l-1.215-0.361
	c-1.479-0.439-2.891-1.021-4.193-1.728l-1.115-0.603l-2.796,2.796l-7.207-7.206l2.796-2.796l-0.603-1.115
	c-0.707-1.302-1.286-2.714-1.728-4.192l-0.36-1.213h-3.962v-10.19h3.962l0.361-1.216c0.441-1.479,1.021-2.89,1.728-4.192
	l0.604-1.114l-2.796-2.797l7.207-7.206l2.796,2.796l1.114-0.603c1.304-0.707,2.714-1.285,4.194-1.728l1.213-0.36v-3.962h10.19v3.962
	l1.214,0.361c1.479,0.441,2.892,1.021,4.194,1.728l1.114,0.604l2.796-2.796l7.207,7.207l-2.796,2.796l0.604,1.113
	c0.706,1.303,1.286,2.715,1.728,4.193l0.359,1.214h3.963v10.19h-3.963l-0.361,1.214c-0.44,1.479-1.021,2.892-1.728,4.193
	l-0.603,1.114L239.768,305.773z M239.768,305.773"/>
<path d="M218.149,276.075c-8.428,0-15.286,6.858-15.286,15.286s6.858,15.287,15.286,15.287s15.287-6.859,15.287-15.287
	S226.577,276.075,218.149,276.075L218.149,276.075z M229.903,293.061c-0.289,2.008-1.081,3.854-2.246,5.407l-2.303-2.304
	l-2.402,2.402l2.304,2.303c-1.554,1.165-3.399,1.957-5.408,2.246v-3.262h-3.397v3.262c-2.009-0.289-3.854-1.081-5.408-2.246
	l2.303-2.303l-2.401-2.402l-2.303,2.304c-1.166-1.554-1.957-3.399-2.246-5.407h3.261v-3.397h-3.261
	c0.289-2.01,1.08-3.854,2.246-5.408l2.303,2.303l2.401-2.401l-2.303-2.303c1.554-1.166,3.398-1.955,5.408-2.245v3.261h3.397v-3.261
	c2.008,0.288,3.854,1.079,5.408,2.245l-2.304,2.303l2.402,2.401l2.303-2.303c1.165,1.555,1.956,3.398,2.246,5.408h-3.261v3.397
	H229.903z M229.903,293.061"/>
<path fill="#FFFFFF" d="M172.694,218.362h-0.142c-1.289-11.602-11.151-20.649-23.089-20.649c-8.079,0-15.406,4.103-19.643,10.858
	c-1.173-0.356-2.375-0.534-3.587-0.534c-6.312,0-11.581,4.553-12.692,10.547c-0.925-0.147-1.859-0.222-2.796-0.222
	c-9.964,0-18.07,8.104-18.07,18.069c0,9.962,8.105,18.067,18.07,18.067h28.394h5.161h28.394c9.963,0,18.069-8.105,18.069-18.067
	C190.763,226.466,182.658,218.362,172.694,218.362z"/>
<path d="M143.37,254.389h28.394c9.963,0,18.069-8.104,18.069-18.067c0-9.964-8.105-18.069-18.069-18.069h-0.142
	c-1.29-11.602-11.152-20.649-23.09-20.649c-8.079,0-15.406,4.104-19.643,10.859c-1.174-0.356-2.375-0.535-3.588-0.535
	c-6.311,0-11.58,4.554-12.691,10.546c-0.925-0.146-1.86-0.221-2.797-0.221c-9.963,0-18.069,8.105-18.069,18.069
	c0,9.963,8.106,18.067,18.069,18.067h28.395 M109.813,249.227c-7.117,0-12.906-5.788-12.906-12.905
	c0-7.115,5.789-12.908,12.906-12.908c1.475,0,2.948,0.265,4.378,0.783c0.83,0.303,1.759,0.156,2.457-0.386
	c0.7-0.537,1.074-1.397,0.991-2.277l-0.083-0.698c0-4.27,3.476-7.746,7.746-7.746c1.19,0,2.382,0.307,3.539,0.906
	c0.615,0.319,1.337,0.379,1.993,0.164c0.657-0.219,1.202-0.689,1.509-1.309c3.077-6.222,9.279-10.085,16.19-10.085
	c9.962,0,18.068,8.103,18.068,17.997c-0.004,0.063-0.012,0.242-0.012,0.307c0,0.758,0.335,1.48,0.916,1.971
	c0.581,0.488,1.341,0.698,2.098,0.574c0.783-0.134,1.49-0.201,2.162-0.201c7.116,0,12.906,5.793,12.906,12.908
	c0,7.117-5.79,12.905-12.906,12.905H109.813z M182.088,293.106"/>
<rect x="169.181" y="228.577" width="5.163" height="5.162"/>
<rect x="169.181" y="238.901" width="5.163" height="5.163"/>
<rect x="158.857" y="238.901" width="5.163" height="5.163"/>
<rect x="214.316" y="295.217" fill="#FFFFFF" width="3.397" height="5.426"/>
<rect x="26.273" y="366.421" fill="#FFFFFF" width="52.333" height="59.667"/>
<rect x="52.446" y="323.797" fill="#FFFFFF" width="38.581" height="78.765"/>
<rect x="86.445" y="378.463" fill="#FFFFFF" width="49.248" height="39.026"/>
<g>
	<defs>
		<rect id="SVGID_3_" x="11.728" y="291.968" width="136.776" height="137.46"/>
	</defs>
	<clipPath id="SVGID_6_">
		<use xlink:href="#SVGID_3_"  overflow="visible"/>
	</clipPath>
	<path clip-path="url(#SVGID_6_)" d="M121.149,359.359v-20.905c0-6.847-2.667-13.281-7.507-18.123c-0.892-0.892-2.332-0.892-3.224,0
		c-4.839,4.844-7.506,11.279-7.506,18.125v21.491c-0.701,0.216-1.384,0.476-2.068,0.733c-1.198-2.962-2.018-6.032-2.392-9.167
		l-3.036-25.304c-1.117-9.313-5.385-18.093-12.016-24.725l-8.51-8.511c-0.891-0.89-2.331-0.89-3.224,0l-8.512,8.513
		c-6.631,6.631-10.898,15.412-12.017,24.725l-3.035,25.304c-0.576,4.817-2.141,9.355-4.459,13.454v-26.514
		c0-6.846-2.668-13.281-7.507-18.123c-0.891-0.892-2.332-0.892-3.224,0c-4.842,4.842-7.508,11.277-7.508,18.123v44.112
		c-3.805,3.636-6.895,7.971-9.063,12.845l-4.42,9.951c-0.314,0.707-0.246,1.521,0.172,2.168c0.421,0.646,1.139,1.037,1.912,1.037
		h47.871v3.483c0,7.158,3.976,13.591,10.379,16.794c0.319,0.159,0.67,0.239,1.02,0.239c0.349,0,0.7-0.08,1.019-0.239
		c5.708-2.854,9.468-8.284,10.22-14.501c6.422,8.908,16.857,14.74,28.654,14.74c19.483,0,35.334-15.851,35.334-35.333
		C148.504,377.016,136.795,362.99,121.149,359.359L121.149,359.359z M107.471,338.456c0-4.814,1.605-9.382,4.56-13.095
		c2.954,3.713,4.56,8.28,4.56,13.095v20.136c-0.155-0.016-0.316-0.011-0.475-0.023c-0.863-0.077-1.713-0.118-2.555-0.13
		c-0.133-0.002-0.258-0.02-0.391-0.02c-0.13,0-0.253,0.018-0.382,0.018c-0.964,0.009-1.922,0.051-2.885,0.146
		c-0.507,0.048-1.004,0.128-1.504,0.196c-0.308,0.045-0.616,0.076-0.929,0.127V338.456z M29.964,338.456
		c0-4.814,1.606-9.382,4.56-13.095c2.955,3.713,4.561,8.28,4.561,13.095v32.842c-2.167,2.402-4.629,4.564-7.428,6.344
		c-0.579,0.37-1.133,0.771-1.692,1.165V338.456z M52.761,404.011v-11.398h25.094c-0.011,0.383-0.018,0.764-0.018,1.141
		c0,1.078,0.065,2.146,0.161,3.213c0.029,0.321,0.068,0.641,0.106,0.961c0.092,0.768,0.208,1.528,0.352,2.289
		c0.06,0.32,0.112,0.643,0.181,0.958c0.204,0.952,0.439,1.898,0.725,2.837H52.761z M70.999,388.054v-4.561
		c0-1.256,1.021-2.278,2.279-2.278s2.278,1.022,2.278,2.278v4.561H70.999z M80.116,412.053c0,5.028-2.592,9.585-6.838,12.152
		c-4.246-2.567-6.839-7.124-6.839-12.155v-3.48h4.56v4.559h4.558v-4.559h4.56V412.053z M80.869,379.493
		c-0.213,0.477-0.402,0.965-0.593,1.451c-0.123,0.314-0.257,0.624-0.371,0.942c-0.73-2.995-3.413-5.231-6.627-5.231
		c-3.771,0-6.839,3.068-6.839,6.838v4.561H50.482c-1.261,0-2.279,1.021-2.279,2.278v13.679H17.516l2.998-6.744
		c2.891-6.5,7.59-11.959,13.593-15.776c10.315-6.563,17.067-17.29,18.524-29.431l3.036-25.302
		c0.996-8.304,4.799-16.134,10.712-22.044l6.898-6.9l6.898,6.896c5.913,5.914,9.717,13.742,10.711,22.045l3.037,25.304
		c0.432,3.586,1.347,7.103,2.729,10.479c-0.417,0.221-0.816,0.467-1.222,0.704c-0.464,0.269-0.919,0.542-1.365,0.829
		c-0.386,0.248-0.767,0.5-1.141,0.765c-0.54,0.378-1.064,0.774-1.58,1.183c-0.359,0.282-0.718,0.567-1.063,0.867
		c-0.586,0.497-1.154,1.014-1.706,1.549c-0.294,0.287-0.579,0.582-0.864,0.879c-0.419,0.437-0.826,0.886-1.225,1.344
		c-0.261,0.301-0.528,0.596-0.778,0.906c-0.55,0.678-1.074,1.381-1.571,2.099c-0.258,0.372-0.496,0.758-0.74,1.14
		c-0.282,0.443-0.56,0.894-0.821,1.352c-0.238,0.416-0.479,0.828-0.702,1.255C81.516,378.091,81.18,378.787,80.869,379.493
		L80.869,379.493z M113.17,424.526c-13.076,0-24.242-8.21-28.693-19.733c-0.271-0.705-0.537-1.413-0.755-2.128
		c-0.089-0.292-0.15-0.596-0.229-0.892c-0.181-0.661-0.363-1.325-0.498-1.994c-0.097-0.49-0.154-0.995-0.227-1.493
		c-0.074-0.492-0.17-0.98-0.217-1.475c-0.101-1.009-0.154-2.027-0.154-3.059c0-0.918,0.058-1.865,0.145-2.817
		c0.027-0.284,0.06-0.567,0.095-0.85c0.075-0.626,0.172-1.249,0.283-1.864c0.06-0.318,0.107-0.639,0.177-0.953
		c0.17-0.796,0.373-1.582,0.605-2.354c0.121-0.401,0.265-0.793,0.402-1.188c0.146-0.421,0.296-0.84,0.46-1.254
		c0.172-0.431,0.348-0.859,0.537-1.281c0.167-0.371,0.35-0.735,0.532-1.1c0.332-0.672,0.69-1.328,1.074-1.971
		c0.231-0.391,0.46-0.785,0.708-1.164c0.251-0.383,0.52-0.754,0.787-1.126c0.243-0.338,0.491-0.673,0.747-1.002
		c0.274-0.348,0.55-0.696,0.84-1.034c0.314-0.369,0.645-0.723,0.978-1.076c0.43-0.458,0.872-0.902,1.331-1.336
		c0.376-0.354,0.758-0.708,1.15-1.047c0.336-0.284,0.683-0.556,1.032-0.827c0.329-0.258,0.665-0.508,1.007-0.754
		c0.378-0.271,0.758-0.542,1.15-0.796c0.313-0.202,0.637-0.39,0.956-0.58c0.825-0.495,1.676-0.953,2.554-1.373
		c1.846-0.884,3.789-1.587,5.816-2.09c1.212-0.301,2.421-0.525,3.618-0.68c0.053-0.006,0.104-0.02,0.156-0.025
		c1.227-0.152,2.439-0.232,3.632-0.232c0.903,0,1.792,0.06,2.676,0.135c0.849,0.081,1.721,0.195,2.631,0.355h0.003
		c14.443,2.528,25.465,15.13,25.465,30.285C143.945,410.721,130.139,424.526,113.17,424.526L113.17,424.526z M113.17,424.526"/>
</g>
<path d="M73.278,321.944c-6.285,0-11.398,5.113-11.398,11.398h4.56c0-3.771,3.068-6.839,6.839-6.839s6.838,3.067,6.838,6.839h4.561
	C84.676,327.058,79.562,321.944,73.278,321.944L73.278,321.944z M73.278,321.944"/>
<rect x="70.999" y="342.461" width="4.558" height="4.561"/>
<rect x="70.999" y="351.579" width="4.558" height="4.56"/>
<rect x="70.999" y="360.698" width="4.558" height="4.56"/>
<path d="M109.428,367.801l0.645,4.513c4.196-0.6,8.535,0.039,12.374,1.863l1.954-4.119
	C119.751,367.851,114.509,367.071,109.428,367.801L109.428,367.801z M109.428,367.801"/>
<path d="M104.433,369.028c-1.743,0.619-3.425,1.422-4.995,2.39l2.392,3.884c1.297-0.801,2.686-1.465,4.121-1.974L104.433,369.028z
	 M104.433,369.028"/>
<path d="M131.879,375.044c-0.752-0.751-1.918-0.881-2.819-0.322l-18.238,11.397c-0.665,0.417-1.071,1.147-1.071,1.935v6.838
	c0,1.258,1.02,2.279,2.28,2.279h6.839c0.786,0,1.515-0.404,1.933-1.072l11.398-18.235
	C132.764,376.963,132.628,375.794,131.879,375.044L131.879,375.044z M117.604,392.612h-3.294v-3.296l8.788-5.494L117.604,392.612z
	 M117.604,392.612"/>
<path d="M100.633,399.451c-3.771,0-6.839,3.067-6.839,6.839c0,3.771,3.068,6.838,6.839,6.838s6.838-3.067,6.838-6.838
	C107.471,402.519,104.404,399.451,100.633,399.451L100.633,399.451z M100.633,408.569c-1.259,0-2.28-1.023-2.28-2.279
	c0-1.257,1.021-2.279,2.28-2.279c1.258,0,2.279,1.022,2.279,2.279C102.913,407.546,101.891,408.569,100.633,408.569L100.633,408.569
	z M100.633,408.569"/>
<path d="M127.988,399.451c-3.771,0-6.839,3.067-6.839,6.839c0,3.771,3.068,6.838,6.839,6.838s6.839-3.067,6.839-6.838
	C134.827,402.519,131.758,399.451,127.988,399.451L127.988,399.451z M127.988,408.569c-1.259,0-2.279-1.023-2.279-2.279
	c0-1.257,1.021-2.279,2.279-2.279s2.28,1.022,2.28,2.279C130.268,407.546,129.247,408.569,127.988,408.569L127.988,408.569z
	 M127.988,408.569"/>
</svg>
