<?xml version="1.0" encoding="utf-8"?>
<!-- Generator: Adobe Illustrator 15.1.0, SVG Export Plug-In  -->
<!DOCTYPE svg PUBLIC "-//W3C//DTD SVG 1.1//EN" "http://www.w3.org/Graphics/SVG/1.1/DTD/svg11.dtd" [
	<!ENTITY ns_flows "http://ns.adobe.com/Flows/1.0/">
]>
<svg version="1.1"
	 xmlns="http://www.w3.org/2000/svg" xmlns:xlink="http://www.w3.org/1999/xlink" xmlns:a="http://ns.adobe.com/AdobeSVGViewerExtensions/3.0/"
	 x="0px" y="0px" width="500px" height="500px" viewBox="-63.332 25.088 500 500" enable-background="new -63.332 25.088 500 500"
	 xml:space="preserve">
<defs>
</defs>
<path fill="none" stroke="#010101" stroke-width="5" stroke-linecap="square" stroke-linejoin="round" stroke-dasharray="0,12" d="
	M4.744,306.903c-15.337-95.406,49.579-185.17,144.992-200.513c95.407-15.321,185.176,49.595,200.498,145.008
	c15.339,95.395-49.573,185.174-144.988,200.51C109.841,467.238,20.072,402.314,4.744,306.903z"/>
<text transform="matrix(1 0 0 1 34.9023 20.0879)" font-family="'MyriadPro-Regular'" font-size="24">Global Traffic Director Services</text>
<path fill="#FFFFFF" stroke="#000000" stroke-width="5" stroke-linecap="round" stroke-linejoin="round" stroke-miterlimit="10" d="
	M353.57,338.868l-18.758-18.757v9.681c-18.553,0-34.284,13.109-37.915,30.656c-6.05-4.033-13.511-6.454-21.378-6.454v-9.681
	l-18.756,18.758l18.756,18.756v-9.682c11.294,0,20.57,9.278,20.57,20.571v24.203h18.152v-48.404c0-11.294,9.278-20.571,20.57-20.571
	v9.681L353.57,338.868z M353.57,338.868"/>
<path d="M138.506,345.209h-28.1V343.2c0-1.109-0.896-2.006-2.006-2.006h-2.008v-4.116c21.198-1.056,38.135-18.583,38.135-40.041
	c0-22.133-18.01-40.141-40.143-40.141c-22.131,0-40.14,18.008-40.14,40.144c0,21.455,16.935,38.982,38.134,40.038v4.116h-2.008
	c-1.109,0-2.008,0.897-2.008,2.006v2.009H70.267c-1.11,0-2.009,0.896-2.009,2.007c0,1.109,0.898,2.007,2.009,2.007h28.097v2.007
	c0,1.109,0.898,2.008,2.008,2.008h8.029c1.109,0,2.008-0.898,2.008-2.008v-2.007h28.098c1.11,0,2.008-0.897,2.008-2.007
	C140.514,346.105,139.615,345.209,138.506,345.209L138.506,345.209z M113.375,331.987c3.105-3.885,5.602-9.752,7.186-16.886h15.064
	C130.826,323.37,122.853,329.548,113.375,331.987L113.375,331.987z M117.266,311.088H91.505c-0.735-4.242-1.169-8.954-1.169-14.048
	c0-5.097,0.434-9.81,1.169-14.052h25.761c0.735,4.242,1.17,8.955,1.17,14.052C118.436,302.134,118.001,306.846,117.266,311.088
	L117.266,311.088z M140.514,297.04c0,4.978-1.013,9.728-2.846,14.048H121.33c0.713-4.361,1.121-9.075,1.121-14.048
	c0-4.977-0.408-9.691-1.121-14.052h16.338C139.501,287.31,140.514,292.059,140.514,297.04L140.514,297.04z M135.625,278.976h-15.064
	c-1.584-7.134-4.082-13.002-7.186-16.887C122.853,264.53,130.826,270.707,135.625,278.976L135.625,278.976z M104.385,260.912
	c4.535,0,9.417,6.914,12.066,18.063h-24.13C94.971,267.826,99.852,260.912,104.385,260.912L104.385,260.912z M95.396,262.089
	c-3.103,3.885-5.601,9.752-7.185,16.887H73.146C77.947,270.707,85.92,264.53,95.396,262.089L95.396,262.089z M68.258,297.04
	c0-4.981,1.014-9.73,2.846-14.052h16.338c-0.713,4.36-1.119,9.075-1.119,14.052c0,4.973,0.406,9.687,1.119,14.048H71.104
	C69.271,306.768,68.258,302.018,68.258,297.04L68.258,297.04z M73.146,315.102h15.065c1.584,7.134,4.082,13.001,7.185,16.886
	C85.92,329.548,77.947,323.37,73.146,315.102L73.146,315.102z M92.321,315.102h24.128c-2.647,11.15-7.529,18.063-12.064,18.063
	C99.852,333.165,94.971,326.252,92.321,315.102L92.321,315.102z M106.393,349.223h-4.014v-4.014h4.014V349.223z M106.393,349.223"/>
<path stroke="#FFFFFF" d="M339.48,213.244c0,3.58-2.912,6.492-6.49,6.492v4.328c3.578,0,6.49,2.91,6.49,6.49h4.328
	c0-3.58,2.911-6.49,6.492-6.49v-4.328c-3.581,0-6.492-2.912-6.492-6.492H339.48L339.48,213.244z M341.645,224.129
	c-0.632-0.85-1.381-1.596-2.23-2.23c0.85-0.631,1.599-1.379,2.23-2.23c0.633,0.852,1.381,1.6,2.231,2.23
	C343.025,222.533,342.277,223.279,341.645,224.129L341.645,224.129z M341.645,224.129"/>
<path stroke="#FFFFFF" stroke-width="2" d="M33.959,160.569c0,5.293-4.311,9.6-9.6,9.6v6.403c5.289,0,9.6,4.308,9.6,9.601h6.4
	c0-5.293,4.307-9.601,9.602-9.601v-6.403c-5.295,0-9.602-4.307-9.602-9.6H33.959L33.959,160.569z M37.16,176.671
	c-0.936-1.258-2.041-2.367-3.297-3.3c1.256-0.935,2.361-2.042,3.297-3.3c0.936,1.258,2.041,2.365,3.299,3.3
	C39.201,174.304,38.096,175.413,37.16,176.671L37.16,176.671z M37.16,176.671"/>
<path stroke="#FFFFFF" d="M204.118,444.924c0,3.362-2.739,6.104-6.103,6.104v4.066c3.363,0,6.103,2.737,6.103,6.104h4.067
	c0-3.366,2.739-6.104,6.104-6.104v-4.066c-3.364,0-6.104-2.741-6.104-6.104H204.118L204.118,444.924z M206.152,455.156
	c-0.594-0.798-1.299-1.502-2.098-2.097c0.799-0.593,1.504-1.297,2.098-2.097c0.594,0.8,1.297,1.504,2.098,2.097
	C207.449,453.654,206.746,454.358,206.152,455.156L206.152,455.156z M206.152,455.156"/>
<path fill="#FFFFFF" d="M284.681,278.029c0,19.915-16.141,36.06-36.059,36.06s-36.061-16.145-36.061-36.06
	c0-19.918,16.143-36.063,36.061-36.063S284.681,258.111,284.681,278.029z"/>
<rect x="302.563" y="251.03" fill="#FFFFFF" width="4.161" height="6.645"/>
<rect x="159.062" y="253.288" fill="#FFFFFF" width="24.955" height="64.205"/>
<path d="M198.571,257.35c-5.73,0-10.396,4.662-10.396,10.398c0,5.732,4.666,10.397,10.396,10.397c5.734,0,10.4-4.665,10.4-10.397
	C208.972,262.012,204.306,257.35,198.571,257.35L198.571,257.35z M198.571,273.986c-3.438,0-6.236-2.8-6.236-6.238
	c0-3.439,2.799-6.239,6.236-6.239c3.443,0,6.24,2.8,6.24,6.239C204.812,271.187,202.015,273.986,198.571,273.986L198.571,273.986z
	 M198.571,273.986"/>
<rect x="196.493" y="265.668" width="4.16" height="4.159"/>
<path d="M283.837,288.543v-20.795h-5.949c-0.366-1.047-0.787-2.065-1.254-3.048l4.2-4.2l-14.704-14.707l-4.202,4.202
	c-0.983-0.469-2.001-0.886-3.044-1.253v-5.951h-16.639v-49.91H154.9v120.618h4.161v8.318h16.637v-8.318h45.75v8.318h16.638v-8.318
	h20.798v-5.95c1.043-0.366,2.063-0.785,3.044-1.254l4.202,4.201l14.704-14.704l-4.2-4.202c0.467-0.984,0.888-2.002,1.254-3.047
	H283.837z M159.062,197.04h79.024v12.478h-4.159v-8.318h-4.16v8.318h-4.16v-8.318h-4.158v8.318h-4.158v-8.318h-4.162v8.318h-4.156
	v-8.318h-4.16v8.318h-45.75V197.04z M159.062,213.677h79.024v12.479h-4.159v-8.32h-4.16v8.32h-4.16v-8.32h-4.158v8.32h-4.158v-8.32
	h-4.162v8.32h-4.156v-8.32h-4.16v8.32h-45.75V213.677z M159.062,230.313h79.024v12.478h-4.159v-8.318h-4.16v8.318h-4.16v-8.318
	h-4.158v8.318h-4.158v-8.318h-4.162v8.318h-4.156v-8.318h-4.16v8.318h-45.75V230.313z M238.086,246.95v1.792
	c-1.046,0.364-2.065,0.784-3.048,1.253l-3.045-3.045H238.086z M171.538,317.657h-8.318v-4.158h8.318V317.657z M159.062,309.34
	v-62.39h70.62l-13.551,13.55l4.202,4.2c-0.469,0.982-0.887,2.001-1.255,3.048h-5.95v20.795h5.953
	c0.365,1.045,0.785,2.066,1.254,3.047l-4.201,4.202l13.548,13.548H159.062z M233.927,317.657h-8.32v-4.158h8.32V317.657z
	 M238.086,309.34h-6.093l3.045-3.042c0.984,0.468,2.002,0.885,3.048,1.253V309.34z M274.952,295.792l-8.822,8.822l-3.423-3.423
	l-1.365,0.738c-1.595,0.866-3.323,1.574-5.135,2.115l-1.484,0.443v4.852h-12.478v-4.852l-1.486-0.443
	c-1.811-0.539-3.541-1.249-5.136-2.115l-1.364-0.738l-3.424,3.423l-8.824-8.822l3.425-3.424l-0.739-1.365
	c-0.865-1.594-1.573-3.323-2.113-5.134l-0.443-1.484h-4.85v-12.478h4.85l0.443-1.489c0.54-1.811,1.251-3.538,2.115-5.133l0.74-1.364
	l-3.426-3.425l8.824-8.822l3.425,3.422l1.364-0.736c1.595-0.866,3.322-1.574,5.135-2.115l1.484-0.442v-4.852h12.478v4.852
	l1.485,0.443c1.814,0.54,3.541,1.251,5.137,2.114l1.362,0.739l3.425-3.423l8.822,8.824l-3.424,3.423l0.74,1.363
	c0.864,1.596,1.574,3.325,2.115,5.135l0.441,1.486h4.851v12.478h-4.851l-0.442,1.486c-0.54,1.812-1.253,3.54-2.118,5.135
	l-0.736,1.363L274.952,295.792z M274.952,295.792"/>
<path d="M248.485,259.43c-10.322,0-18.719,8.396-18.719,18.716s8.396,18.717,18.719,18.717c10.316,0,18.715-8.397,18.715-18.717
	S258.802,259.43,248.485,259.43L248.485,259.43z M262.876,280.226c-0.354,2.459-1.325,4.719-2.75,6.62l-2.818-2.819l-2.942,2.94
	l2.819,2.821c-1.903,1.425-4.161,2.394-6.621,2.749v-3.994h-4.159v3.994c-2.46-0.355-4.721-1.324-6.621-2.749l2.819-2.821
	l-2.939-2.94l-2.819,2.819c-1.429-1.901-2.397-4.161-2.751-6.62h3.993v-4.159h-3.993c0.354-2.462,1.322-4.718,2.751-6.622
	l2.819,2.818l2.939-2.939l-2.819-2.818c1.9-1.429,4.161-2.394,6.621-2.75v3.993h4.159v-3.993c2.46,0.353,4.718,1.321,6.621,2.75
	l-2.819,2.818l2.942,2.939l2.818-2.818c1.425,1.904,2.396,4.16,2.75,6.622h-3.992v4.159H262.876z M262.876,280.226"/>
<path stroke="#000000" d="M182.368,305.097c-1.344-9.938-11.614-17.55-24.009-17.55c-9.743,0-18.522,4.807-22.271,12.073
	c-0.089-0.004-0.179-0.005-0.269-0.005c-9.193,0-16.673,6.151-16.673,13.717v32.915c0,7.563,7.479,13.714,16.673,13.714h42.074
	c7.535,0,13.667-5.069,13.667-11.3v-32.916C191.561,310.896,187.839,306.651,182.368,305.097L182.368,305.097z M188.269,348.661
	c0,4.416-4.654,8.008-10.375,8.008h-42.074c-7.379,0-13.382-4.676-13.382-10.422v-8.357c3.04,3.387,7.884,5.613,13.382,5.613h42.074
	c4.172,0,7.867-1.586,10.375-4.029V348.661z M188.269,332.202c0,4.418-4.654,8.01-10.375,8.01h-42.074
	c-7.379,0-13.382-4.676-13.382-10.422v-8.359c3.04,3.388,7.884,5.615,13.382,5.615h42.074c4.172,0,7.867-1.588,10.375-4.032V332.202
	z M177.894,323.755h-42.074c-7.379,0-13.382-4.676-13.382-10.423c0-5.749,6.003-10.425,13.382-10.425
	c0.244,0,0.483,0.023,0.724,0.046l0.429,0.035c0.729,0.055,1.351-0.345,1.627-0.987c2.896-6.676,10.837-11.163,19.761-11.163
	c11.158,0,20.315,6.886,20.842,15.677c0.045,0.744,0.584,1.367,1.313,1.515c4.566,0.931,7.755,4.103,7.755,7.716
	C188.269,320.162,183.614,323.755,177.894,323.755L177.894,323.755z M177.894,323.755"/>
<path stroke="#000000" d="M130.667,328.691c-0.91,0-1.646,0.735-1.646,1.646v3.292c0,0.909,0.736,1.646,1.646,1.646
	c0.908,0,1.646-0.736,1.646-1.646v-3.292C132.313,329.427,131.575,328.691,130.667,328.691L130.667,328.691z M130.667,328.691"/>
<path stroke="#000000" d="M137.25,330.337c-0.911,0-1.646,0.736-1.646,1.645v3.293c0,0.909,0.735,1.646,1.646,1.646
	c0.91,0,1.646-0.736,1.646-1.646v-3.293C138.896,331.073,138.16,330.337,137.25,330.337L137.25,330.337z M137.25,330.337"/>
<path stroke="#000000" d="M143.833,330.337c-0.91,0-1.646,0.736-1.646,1.645v3.293c0,0.909,0.736,1.646,1.646,1.646
	s1.646-0.736,1.646-1.646v-3.293C145.479,331.073,144.743,330.337,143.833,330.337L143.833,330.337z M143.833,330.337"/>
<path stroke="#000000" d="M181.687,333.629c0,1.816-1.475,3.291-3.291,3.291c-1.818,0-3.293-1.475-3.293-3.291
	c0-1.817,1.475-3.292,3.293-3.292C180.212,330.337,181.687,331.812,181.687,333.629L181.687,333.629z M181.687,333.629"/>
<path stroke="#000000" d="M171.812,333.629c0,1.816-1.475,3.291-3.291,3.291c-1.818,0-3.292-1.475-3.292-3.291
	c0-1.817,1.474-3.292,3.292-3.292C170.337,330.337,171.812,331.812,171.812,333.629L171.812,333.629z M171.812,333.629"/>
<path stroke="#000000" d="M130.667,345.149c-0.91,0-1.646,0.736-1.646,1.646v3.291c0,0.909,0.736,1.646,1.646,1.646
	c0.908,0,1.646-0.736,1.646-1.646v-3.291C132.313,345.886,131.575,345.149,130.667,345.149L130.667,345.149z M130.667,345.149"/>
<path stroke="#000000" d="M137.25,346.795c-0.911,0-1.646,0.737-1.646,1.646v3.29c0,0.91,0.735,1.646,1.646,1.646
	c0.91,0,1.646-0.736,1.646-1.646v-3.29C138.896,347.532,138.16,346.795,137.25,346.795L137.25,346.795z M137.25,346.795"/>
<path stroke="#000000" d="M143.833,346.795c-0.91,0-1.646,0.737-1.646,1.646v3.29c0,0.91,0.736,1.646,1.646,1.646
	s1.646-0.736,1.646-1.646v-3.29C145.479,347.532,144.743,346.795,143.833,346.795L143.833,346.795z M143.833,346.795"/>
<path stroke="#000000" d="M181.687,350.086c0,1.819-1.475,3.292-3.291,3.292c-1.818,0-3.293-1.473-3.293-3.292
	c0-1.817,1.475-3.291,3.293-3.291C180.212,346.795,181.687,348.269,181.687,350.086L181.687,350.086z M181.687,350.086"/>
<path stroke="#000000" d="M171.812,350.086c0,1.819-1.475,3.292-3.291,3.292c-1.818,0-3.292-1.473-3.292-3.292
	c0-1.817,1.474-3.291,3.292-3.291C170.337,346.795,171.812,348.269,171.812,350.086L171.812,350.086z M171.812,350.086"/>
<path fill="#FFFFFF" d="M136.281,326.979c-5.387,0-10.134-2.182-13.111-5.5v8.188c0,5.631,5.881,10.211,13.111,10.211h41.223
	c5.605,0,10.166-3.52,10.166-7.848v-9.002c-2.459,2.396-6.078,3.95-10.166,3.95H136.281z M132.846,333.43
	c0,0.891-0.723,1.611-1.613,1.611c-0.892,0-1.613-0.721-1.613-1.611v-3.225c0-0.891,0.722-1.613,1.613-1.613
	c0.891,0,1.613,0.723,1.613,1.613V333.43z M139.295,335.041c0,0.891-0.722,1.612-1.613,1.612s-1.611-0.722-1.611-1.612v-3.225
	c0-0.892,0.72-1.611,1.611-1.611s1.613,0.72,1.613,1.611V335.041z M145.744,335.041c0,0.891-0.721,1.612-1.611,1.612
	s-1.613-0.722-1.613-1.612v-3.225c0-0.892,0.723-1.611,1.613-1.611s1.611,0.72,1.611,1.611V335.041z M168.319,336.653
	c-1.78,0-3.226-1.443-3.226-3.224c0-1.781,1.445-3.225,3.226-3.225s3.226,1.443,3.226,3.225
	C171.545,335.21,170.1,336.653,168.319,336.653z M181.219,333.43c0,1.78-1.443,3.224-3.225,3.224s-3.225-1.443-3.225-3.224
	c0-1.781,1.443-3.225,3.225-3.225S181.219,331.648,181.219,333.43z"/>
<path fill="#FFFFFF" d="M180.07,308.349c-0.715-0.145-1.242-0.754-1.287-1.485c-0.516-8.613-9.486-15.358-20.418-15.358
	c-8.742,0-16.523,4.396-19.361,10.938c-0.271,0.628-0.879,1.02-1.596,0.967l-0.42-0.035c-0.234-0.021-0.469-0.045-0.707-0.045
	c-7.23,0-13.111,4.582-13.111,10.214c0,5.631,5.881,10.212,13.111,10.212h41.223c5.605,0,10.166-3.521,10.166-7.847
	C187.67,312.367,184.545,309.26,180.07,308.349z"/>
<path fill="#FFFFFF" d="M136.281,344.104c-5.387,0-10.134-2.183-13.111-5.501v8.189c0,5.629,5.881,10.211,13.111,10.211h41.223
	c5.605,0,10.166-3.52,10.166-7.847v-9.002c-2.459,2.395-6.078,3.949-10.166,3.949H136.281z M132.846,350.554
	c0,0.892-0.723,1.613-1.613,1.613c-0.892,0-1.613-0.722-1.613-1.613v-3.224c0-0.893,0.722-1.613,1.613-1.613
	c0.891,0,1.613,0.721,1.613,1.613V350.554z M139.295,352.167c0,0.89-0.722,1.611-1.613,1.611s-1.611-0.722-1.611-1.611v-3.226
	c0-0.891,0.72-1.611,1.611-1.611s1.613,0.721,1.613,1.611V352.167z M145.744,352.167c0,0.89-0.721,1.611-1.611,1.611
	s-1.613-0.722-1.613-1.611v-3.226c0-0.891,0.723-1.611,1.613-1.611s1.611,0.721,1.611,1.611V352.167z M168.319,353.778
	c-1.78,0-3.226-1.442-3.226-3.225c0-1.78,1.445-3.224,3.226-3.224s3.226,1.443,3.226,3.224
	C171.545,352.336,170.1,353.778,168.319,353.778z M181.219,350.554c0,1.782-1.443,3.225-3.225,3.225s-3.225-1.442-3.225-3.225
	c0-1.78,1.443-3.224,3.225-3.224S181.219,348.773,181.219,350.554z"/>
</svg>
