<?xml version="1.0" encoding="utf-8"?>
<!-- Generator: Adobe Illustrator 15.1.0, SVG Export Plug-In  -->
<!DOCTYPE svg PUBLIC "-//W3C//DTD SVG 1.1//EN" "http://www.w3.org/Graphics/SVG/1.1/DTD/svg11.dtd" [
	<!ENTITY ns_flows "http://ns.adobe.com/Flows/1.0/">
]>
<svg version="1.1"
	 xmlns="http://www.w3.org/2000/svg" xmlns:xlink="http://www.w3.org/1999/xlink" xmlns:a="http://ns.adobe.com/AdobeSVGViewerExtensions/3.0/"
	 x="0px" y="0px" width="500px" height="500px" viewBox="-85.62 -82.501 500 500" enable-background="new -85.62 -82.501 500 500"
	 xml:space="preserve">
<defs>
</defs>
<path fill="none" stroke="#010101" stroke-width="5" stroke-linecap="square" stroke-linejoin="round" stroke-dasharray="0,12" d="
	M4.744,205.252C-10.593,109.846,54.323,20.082,149.736,4.739c95.407-15.321,185.176,49.595,200.498,145.008
	c15.339,95.395-49.573,185.174-144.988,200.51C109.841,365.587,20.072,300.663,4.744,205.252z"/>
<path stroke="#FFFFFF" stroke-width="2" d="M21.071,81.14c0,5.293-4.311,9.6-9.6,9.6v6.403c5.289,0,9.6,4.308,9.6,9.601h6.4
	c0-5.293,4.307-9.601,9.602-9.601v-6.403c-5.295,0-9.602-4.307-9.602-9.6H21.071L21.071,81.14z M24.271,97.241
	c-0.935-1.258-2.04-2.367-3.296-3.3c1.256-0.935,2.361-2.042,3.296-3.3c0.937,1.258,2.042,2.365,3.3,3.3
	C26.313,94.874,25.208,95.983,24.271,97.241L24.271,97.241z M24.271,97.241"/>
<path stroke="#FFFFFF" d="M341.608,119.2c0,3.58-2.912,6.492-6.49,6.492v4.328c3.578,0,6.49,2.91,6.49,6.49h4.328
	c0-3.58,2.911-6.49,6.492-6.49v-4.328c-3.581,0-6.492-2.912-6.492-6.492H341.608L341.608,119.2z M343.772,130.085
	c-0.632-0.85-1.381-1.596-2.23-2.23c0.85-0.631,1.599-1.379,2.23-2.23c0.633,0.852,1.381,1.6,2.231,2.23
	C345.153,128.489,344.405,129.235,343.772,130.085L343.772,130.085z M343.772,130.085"/>
<path stroke="#FFFFFF" d="M213.346,340.267c0,3.362-2.739,6.104-6.103,6.104v4.066c3.363,0,6.103,2.737,6.103,6.104h4.067
	c0-3.366,2.739-6.104,6.104-6.104v-4.066c-3.364,0-6.104-2.741-6.104-6.104H213.346L213.346,340.267z M215.38,350.499
	c-0.594-0.798-1.299-1.502-2.098-2.097c0.799-0.593,1.504-1.297,2.098-2.097c0.594,0.8,1.297,1.504,2.098,2.097
	C216.677,348.997,215.974,349.701,215.38,350.499L215.38,350.499z M215.38,350.499"/>
<path d="M258.396,216.988c-10.096,0.397-17.808,4.793-17.808,10.349v26.711c0,5.824,8.474,10.389,19.292,10.389
	s19.291-4.564,19.291-10.389v-26.711c0-5.555-7.713-9.951-17.807-10.349 M276.202,254.048c0,3.51-6.703,7.42-16.322,7.42
	c-9.62,0-16.324-3.91-16.324-7.42v-3.311c3.387,2.899,9.363,4.795,16.324,4.795s12.937-1.896,16.322-4.795V254.048z
	 M276.202,245.146c0,3.509-6.703,7.419-16.322,7.419c-9.62,0-16.324-3.91-16.324-7.419v-3.312c3.387,2.899,9.363,4.794,16.324,4.794
	s12.937-1.895,16.322-4.794V245.146z M276.202,236.241c0,3.509-6.703,7.419-16.322,7.419c-9.62,0-16.324-3.91-16.324-7.419v-3.311
	c3.387,2.899,9.363,4.794,16.324,4.794s12.937-1.895,16.322-4.794V236.241z M276.202,227.337c0,3.51-6.703,7.42-16.322,7.42
	c-9.62,0-16.324-3.91-16.324-7.42c0-3.325,6.023-7.004,14.84-7.382h2.969C270.179,220.333,276.202,224.012,276.202,227.337
	L276.202,227.337z"/>
<path d="M350.116,216.988c-10.096,0.398-17.809,4.794-17.809,10.35v26.711c0,5.824,8.475,10.388,19.292,10.388
	c10.818,0,19.291-4.563,19.291-10.388v-26.711c0-5.555-7.712-9.951-17.807-10.35 M367.923,254.049c0,3.509-6.704,7.42-16.323,7.42
	c-9.62,0-16.323-3.911-16.323-7.42v-3.311c3.387,2.899,9.361,4.795,16.323,4.795c6.96,0,12.937-1.896,16.323-4.795V254.049z
	 M367.923,245.146c0,3.509-6.704,7.419-16.323,7.419c-9.62,0-16.323-3.91-16.323-7.419v-3.311c3.387,2.899,9.361,4.794,16.323,4.794
	c6.96,0,12.937-1.895,16.323-4.794V245.146z M367.923,236.241c0,3.51-6.704,7.419-16.323,7.419c-9.62,0-16.323-3.909-16.323-7.419
	v-3.311c3.387,2.9,9.361,4.795,16.323,4.795c6.96,0,12.937-1.895,16.323-4.795V236.241z M367.923,227.338
	c0,3.51-6.704,7.42-16.323,7.42c-9.62,0-16.323-3.91-16.323-7.42c0-3.326,6.023-7.004,14.84-7.383h2.968
	C361.899,220.334,367.923,224.012,367.923,227.338L367.923,227.338z"/>
<path fill="#FFFFFF" d="M367.923,254.049c0,3.509-6.704,7.42-16.323,7.42c-9.62,0-16.323-3.911-16.323-7.42v-3.311
	c3.387,2.899,9.361,4.795,16.323,4.795c6.96,0,12.937-1.896,16.323-4.795V254.049z"/>
<path fill="#FFFFFF" d="M367.923,245.146c0,3.509-6.704,7.419-16.323,7.419c-9.62,0-16.323-3.91-16.323-7.419v-3.311
	c3.387,2.899,9.361,4.794,16.323,4.794c6.96,0,12.937-1.895,16.323-4.794V245.146z"/>
<path fill="#FFFFFF" d="M367.923,236.241c0,3.51-6.704,7.419-16.323,7.419c-9.62,0-16.323-3.909-16.323-7.419v-3.311
	c3.387,2.9,9.361,4.795,16.323,4.795c6.96,0,12.937-1.895,16.323-4.795V236.241z"/>
<path fill="#FFFFFF" d="M367.923,227.338c0,3.51-6.704,7.42-16.323,7.42c-9.62,0-16.323-3.91-16.323-7.42
	c0-3.326,6.023-7.004,14.84-7.383h2.968C361.899,220.334,367.923,224.012,367.923,227.338L367.923,227.338z"/>
<path d="M179.03,161.896c-4.682,0-8.492,3.809-8.492,8.492c0,4.683,3.811,8.492,8.492,8.492c4.684,0,8.494-3.81,8.494-8.492
	C187.524,165.705,183.714,161.896,179.03,161.896L179.03,161.896z M179.03,175.484c-2.809,0-5.094-2.287-5.094-5.096
	s2.285-5.096,5.094-5.096c2.811,0,5.096,2.287,5.096,5.096S181.841,175.484,179.03,175.484L179.03,175.484z M179.03,175.484"/>
<rect x="177.333" y="168.69" width="3.396" height="3.396"/>
<path d="M248.668,187.373v-16.984h-4.859c-0.3-0.854-0.642-1.687-1.024-2.488l3.43-3.431l-12.008-12.011l-3.432,3.432
	c-0.804-0.383-1.635-0.724-2.488-1.023v-4.86h-13.588v-40.763h-71.335v98.511h3.397v6.794h13.588v-6.794h37.365v6.794h13.588v-6.794
	h16.984v-4.859c0.854-0.3,1.687-0.642,2.488-1.024l3.432,3.431l12.008-12.009l-3.43-3.432c0.383-0.804,0.725-1.635,1.024-2.488
	H248.668z M146.761,112.642h64.541v10.19h-3.396v-6.794h-3.397v6.794h-3.396v-6.794h-3.397v6.794h-3.396v-6.794h-3.397v6.794h-3.396
	v-6.794h-3.398v6.794h-37.365V112.642z M146.761,126.229h64.541v10.19h-3.396v-6.795h-3.397v6.795h-3.396v-6.795h-3.397v6.795
	h-3.396v-6.795h-3.397v6.795h-3.396v-6.795h-3.398v6.795h-37.365V126.229z M146.761,139.816h64.541v10.19h-3.396v-6.794h-3.397
	v6.794h-3.396v-6.794h-3.397v6.794h-3.396v-6.794h-3.397v6.794h-3.396v-6.794h-3.398v6.794h-37.365V139.816z M211.302,153.404v1.463
	c-0.855,0.298-1.687,0.641-2.488,1.023l-2.487-2.486H211.302z M156.951,211.151h-6.794v-3.396h6.794V211.151z M146.761,204.357
	v-50.953h57.676l-11.064,11.065l3.43,3.431c-0.383,0.803-0.724,1.634-1.023,2.488h-4.858v16.984h4.86
	c0.298,0.854,0.641,1.687,1.023,2.488l-3.432,3.432l11.064,11.064H146.761z M207.905,211.151h-6.794v-3.396h6.794V211.151z
	 M211.302,204.357h-4.976l2.487-2.484c0.803,0.382,1.633,0.723,2.488,1.024V204.357z M241.412,193.293l-7.206,7.206l-2.797-2.796
	l-1.114,0.603c-1.302,0.707-2.714,1.286-4.192,1.728l-1.213,0.361v3.963h-10.191v-3.963l-1.215-0.361
	c-1.479-0.439-2.891-1.021-4.192-1.728l-1.114-0.603l-2.797,2.796l-7.206-7.206l2.796-2.796l-0.603-1.115
	c-0.707-1.302-1.286-2.714-1.728-4.192l-0.36-1.213h-3.962v-10.19h3.962l0.361-1.216c0.44-1.479,1.021-2.89,1.728-4.192l0.604-1.114
	l-2.796-2.797l7.206-7.206l2.797,2.796l1.113-0.603c1.304-0.707,2.715-1.285,4.193-1.728l1.213-0.36v-3.962h10.191v3.962
	l1.213,0.361c1.48,0.441,2.893,1.021,4.195,1.728l1.113,0.604l2.795-2.796l7.207,7.207l-2.796,2.796l0.604,1.113
	c0.706,1.303,1.286,2.715,1.728,4.193l0.359,1.214h3.963v10.19h-3.963l-0.361,1.214c-0.439,1.479-1.021,2.892-1.728,4.193
	l-0.603,1.114L241.412,193.293z M241.412,193.293"/>
<path d="M219.794,163.595c-8.428,0-15.286,6.858-15.286,15.286s6.858,15.287,15.286,15.287s15.286-6.859,15.286-15.287
	S228.222,163.595,219.794,163.595L219.794,163.595z M231.548,180.58c-0.289,2.008-1.081,3.854-2.246,5.407l-2.303-2.304
	l-2.402,2.402l2.304,2.303c-1.554,1.165-3.399,1.957-5.407,2.246v-3.262h-3.398v3.262c-2.009-0.289-3.854-1.081-5.407-2.246
	l2.303-2.303l-2.401-2.402l-2.303,2.304c-1.166-1.554-1.957-3.399-2.246-5.407h3.262v-3.397h-3.262
	c0.289-2.01,1.08-3.854,2.246-5.408l2.303,2.303l2.401-2.401l-2.303-2.303c1.554-1.166,3.398-1.955,5.407-2.245v3.261h3.398v-3.261
	c2.008,0.288,3.854,1.079,5.407,2.245l-2.304,2.303l2.402,2.401l2.303-2.303c1.165,1.555,1.955,3.398,2.246,5.408h-3.262v3.397
	H231.548z M231.548,180.58"/>
<rect x="290.38" y="272.499" fill="#FFFFFF" width="31" height="52"/>
<path stroke="#FFFFFF" stroke-width="5" d="M377.979,267.358h-54.945c-2.93-6.044-7.334-8.645-14.501-8.645
	c-7.159,0-11.562,2.601-14.493,8.645h-54.953c-2.387,0-4.322,1.935-4.322,4.322v17.289c0,2.387,1.936,4.293,4.322,4.293h48.696
	c-1.224,7.115-2.619,15.609-4.474,25.964h-5.033c-2.387,0-4.322,1.935-4.322,4.321c0,2.388,1.936,4.324,4.322,4.324h60.514
	c2.387,0,4.322-1.937,4.322-4.324c0-2.387-1.936-4.321-4.322-4.321h-5.033c-1.852-10.343-3.248-18.816-4.471-25.935h48.693
	c2.386,0,4.322-1.936,4.322-4.322v-17.289C382.302,269.293,380.365,267.358,377.979,267.358L377.979,267.358z M289.325,284.647
	h-45.943v-8.674h47.768C290.536,278.468,289.943,281.358,289.325,284.647L289.325,284.647z M292.091,319.227
	c4.533-25.473,6.479-40.486,9.369-47.303c1.555-3.669,2.943-4.565,7.073-4.565c4.136,0,5.525,0.893,7.081,4.557
	c2.893,6.816,4.826,21.829,9.361,47.312H292.091z M373.657,284.647h-45.908c-0.617-3.289-1.209-6.149-1.822-8.645h47.73V284.647z
	 M373.657,284.647"/>
<circle fill="#FFFFFF" cx="131.243" cy="212.142" r="44.297"/>
<path d="M163.024,185.497c0-2.52-2.051-4.57-4.568-4.57h-54.842c-2.52,0-4.569,2.051-4.569,4.57v12.188
	c0,1.174,0.458,2.235,1.188,3.047c-0.732,0.809-1.188,1.871-1.188,3.046v12.187c0,1.174,0.458,2.237,1.188,3.047
	c-0.732,0.811-1.188,1.872-1.188,3.047v12.187c0,2.519,2.05,4.57,4.569,4.57h54.842c2.518,0,4.568-2.052,4.568-4.57v-12.187
	c0-1.175-0.459-2.236-1.188-3.047c0.73-0.81,1.188-1.873,1.188-3.047v-12.187c0-1.175-0.459-2.237-1.188-3.046
	c0.73-0.812,1.188-1.873,1.188-3.047V185.497z M159.979,234.244c0,0.839-0.683,1.523-1.522,1.523h-54.842
	c-0.84,0-1.523-0.685-1.523-1.523v-12.187c0-0.84,0.684-1.523,1.523-1.523h54.842c0.84,0,1.522,0.684,1.522,1.523V234.244z
	 M159.979,215.964c0,0.839-0.683,1.523-1.522,1.523h-54.842c-0.84,0-1.523-0.685-1.523-1.523v-12.187
	c0-0.84,0.684-1.523,1.523-1.523h54.842c0.84,0,1.522,0.684,1.522,1.523V215.964z M159.979,197.685c0,0.839-0.683,1.522-1.522,1.522
	h-54.842c-0.84,0-1.523-0.684-1.523-1.522v-12.188c0-0.839,0.684-1.523,1.523-1.523h54.842c0.84,0,1.522,0.685,1.522,1.523V197.685z
	 M159.979,197.685"/>
<rect x="105.138" y="193.114" width="3.047" height="3.046"/>
<rect x="111.231" y="193.114" width="3.047" height="3.046"/>
<rect x="105.138" y="187.021" width="3.047" height="3.047"/>
<rect x="111.231" y="187.021" width="3.047" height="3.047"/>
<rect x="117.323" y="193.114" width="3.048" height="3.046"/>
<rect x="117.323" y="187.021" width="3.048" height="3.047"/>
<rect x="123.418" y="193.114" width="3.048" height="3.046"/>
<rect x="123.418" y="187.021" width="3.048" height="3.047"/>
<rect x="129.512" y="193.114" width="3.046" height="3.046"/>
<rect x="129.512" y="187.021" width="3.046" height="3.047"/>
<path d="M155.407,187.021h-13.709c-0.842,0-1.524,0.682-1.524,1.522v6.094c0,0.841,0.683,1.523,1.524,1.523h13.709
	c0.844,0,1.524-0.683,1.524-1.523v-6.094C156.932,187.702,156.251,187.021,155.407,187.021L155.407,187.021z M153.886,193.114
	h-10.664v-3.047h10.664V193.114z M153.886,193.114"/>
<rect x="105.138" y="211.394" width="3.047" height="3.047"/>
<rect x="111.231" y="211.394" width="3.047" height="3.047"/>
<rect x="105.138" y="205.301" width="3.047" height="3.047"/>
<rect x="111.231" y="205.301" width="3.047" height="3.047"/>
<rect x="117.323" y="211.394" width="3.048" height="3.047"/>
<rect x="117.323" y="205.301" width="3.048" height="3.047"/>
<rect x="123.418" y="211.394" width="3.048" height="3.047"/>
<rect x="123.418" y="205.301" width="3.048" height="3.047"/>
<rect x="129.512" y="211.394" width="3.046" height="3.047"/>
<rect x="129.512" y="205.301" width="3.046" height="3.047"/>
<path d="M155.407,205.301h-13.709c-0.842,0-1.524,0.683-1.524,1.522v6.094c0,0.841,0.683,1.523,1.524,1.523h13.709
	c0.844,0,1.524-0.683,1.524-1.523v-6.094C156.932,205.983,156.251,205.301,155.407,205.301L155.407,205.301z M153.886,211.394
	h-10.664v-3.046h10.664V211.394z M153.886,211.394"/>
<rect x="105.138" y="229.675" width="3.047" height="3.046"/>
<rect x="111.231" y="229.675" width="3.047" height="3.046"/>
<rect x="105.138" y="223.581" width="3.047" height="3.046"/>
<rect x="111.231" y="223.581" width="3.047" height="3.046"/>
<rect x="117.323" y="229.675" width="3.048" height="3.046"/>
<rect x="117.323" y="223.581" width="3.048" height="3.046"/>
<rect x="123.418" y="229.675" width="3.048" height="3.046"/>
<rect x="123.418" y="223.581" width="3.048" height="3.046"/>
<rect x="129.512" y="229.675" width="3.046" height="3.046"/>
<rect x="129.512" y="223.581" width="3.046" height="3.046"/>
<path d="M155.407,223.581h-13.709c-0.842,0-1.524,0.682-1.524,1.522v6.095c0,0.84,0.683,1.522,1.524,1.522h13.709
	c0.844,0,1.524-0.683,1.524-1.522v-6.095C156.932,224.263,156.251,223.581,155.407,223.581L155.407,223.581z M153.886,229.675
	h-10.664v-3.048h10.664V229.675z M153.886,229.675"/>
<path d="M176.704,208.209l-3.043,0.108c0.018,0.518,0.027,1.033,0.027,1.553c0,0.529-0.011,1.055-0.029,1.578l3.044,0.108
	c0.021-0.56,0.032-1.12,0.032-1.687C176.735,209.314,176.726,208.761,176.704,208.209L176.704,208.209z M176.704,208.209"/>
<path d="M171.65,188.914l-2.706,1.401c0.477,0.924,0.926,1.874,1.334,2.828l2.802-1.198
	C172.644,190.924,172.163,189.903,171.65,188.914L171.65,188.914z M171.65,188.914"/>
<path d="M170.271,226.614c-0.413,0.962-0.861,1.912-1.336,2.828l2.705,1.4c0.509-0.98,0.988-1.998,1.43-3.027L170.271,226.614z
	 M170.271,226.614"/>
<path d="M173.431,214.565c-0.111,1.027-0.266,2.065-0.453,3.091l2.996,0.554c0.203-1.098,0.365-2.215,0.485-3.313L173.431,214.565z
	 M173.431,214.565"/>
<path d="M172.298,220.708c-0.267,1.011-0.569,2.017-0.906,2.99l2.881,0.99c0.36-1.045,0.687-2.123,0.971-3.207L172.298,220.708z
	 M172.298,220.708"/>
<path d="M174.282,195.073l-2.885,0.986c0.336,0.984,0.641,1.992,0.903,2.994l2.95-0.773
	C174.967,197.205,174.642,196.126,174.282,195.073L174.282,195.073z M174.282,195.073"/>
<path d="M175.978,201.552l-2.996,0.553c0.189,1.025,0.343,2.065,0.455,3.092l3.027-0.326
	C176.345,203.769,176.179,202.651,175.978,201.552L175.978,201.552z M175.978,201.552"/>
<path d="M89.769,220.688l-2.949,0.772c0.283,1.076,0.607,2.155,0.969,3.208l2.885-0.986
	C90.335,222.696,90.03,221.689,89.769,220.688L89.769,220.688z M89.769,220.688"/>
<path d="M86.097,201.53c-0.203,1.098-0.365,2.215-0.486,3.314l3.029,0.33c0.109-1.025,0.265-2.064,0.453-3.09L86.097,201.53z
	 M86.097,201.53"/>
<path d="M87.796,195.053c-0.359,1.045-0.686,2.125-0.971,3.208l2.947,0.774c0.266-1.012,0.568-2.019,0.904-2.992L87.796,195.053z
	 M87.796,195.053"/>
<path d="M88.409,208.292l-3.043-0.108c-0.021,0.56-0.031,1.122-0.031,1.687c0,0.557,0.009,1.11,0.03,1.662l3.043-0.109
	c-0.018-0.517-0.026-1.032-0.026-1.553C88.382,209.341,88.392,208.816,88.409,208.292L88.409,208.292z M88.409,208.292"/>
<path d="M91.791,226.599l-2.802,1.197c0.437,1.021,0.918,2.042,1.43,3.031l2.706-1.401
	C92.647,228.503,92.199,227.552,91.791,226.599L91.791,226.599z M91.791,226.599"/>
<path d="M90.429,188.897c-0.508,0.98-0.988,1.999-1.43,3.028l2.801,1.2c0.412-0.961,0.859-1.911,1.335-2.827L90.429,188.897z
	 M90.429,188.897"/>
<path d="M88.634,214.545l-3.027,0.329c0.117,1.099,0.281,2.215,0.484,3.315l2.997-0.552
	C88.898,216.611,88.745,215.571,88.634,214.545L88.634,214.545z M88.634,214.545"/>
<path d="M158.456,167.218v6.12c-7.889-5.925-17.512-9.168-27.422-9.168c-10.908,0-21.477,3.919-29.757,11.032l1.984,2.312
	c7.729-6.641,17.591-10.296,27.772-10.296c8.705,0,17.166,2.691,24.271,7.616h-4.467v3.047h9.141c0.843,0,1.523-0.683,1.523-1.524
	v-9.139H158.456z M158.456,167.218"/>
<path d="M158.808,242.228c-7.729,6.641-17.591,10.296-27.773,10.296c-8.704,0-17.164-2.692-24.27-7.616h4.467v-3.047h-9.141
	c-0.843,0-1.522,0.683-1.522,1.523v9.14h3.046v-6.12c7.888,5.925,17.511,9.168,27.42,9.168c10.91,0,21.479-3.918,29.758-11.031
	L158.808,242.228z M158.808,242.228"/>
</svg>
