<?xml version="1.0" encoding="utf-8"?>
<!-- Generator: Adobe Illustrator 15.1.0, SVG Export Plug-In  -->
<!DOCTYPE svg PUBLIC "-//W3C//DTD SVG 1.1//EN" "http://www.w3.org/Graphics/SVG/1.1/DTD/svg11.dtd" [
	<!ENTITY ns_flows "http://ns.adobe.com/Flows/1.0/">
]>
<svg version="1.1"
	 xmlns="http://www.w3.org/2000/svg" xmlns:xlink="http://www.w3.org/1999/xlink" xmlns:a="http://ns.adobe.com/AdobeSVGViewerExtensions/3.0/"
	 x="0px" y="0px" width="500px" height="500px" viewBox="6.077 25.088 500 500" enable-background="new 6.077 25.088 500 500"
	 xml:space="preserve">
<defs>
</defs>
<ellipse fill="#FFFFFF" cx="182.125" cy="307.002" rx="27.407" ry="12.563"/>
<path stroke="#FFFFFF" d="M179.624,290.555c-15.99,0.629-28.205,7.593-28.205,16.39v42.307c0,9.224,13.42,16.453,30.555,16.453
	c17.135,0,30.555-7.229,30.555-16.453v-42.307c0-8.797-12.217-15.761-28.203-16.39H179.624z M207.825,335.149
	c0,5.56-10.615,11.75-25.851,11.75s-25.855-6.19-25.855-11.75v-5.244c5.365,4.592,14.831,7.594,25.855,7.594
	c11.024,0,20.489-3.002,25.851-7.594V335.149z M207.825,321.047c0,5.559-10.615,11.751-25.851,11.751s-25.855-6.192-25.855-11.751
	v-5.242c5.365,4.592,14.831,7.591,25.855,7.591c11.024,0,20.489-2.999,25.851-7.591V321.047z M207.825,306.944
	c0,5.559-10.615,11.752-25.851,11.752s-25.855-6.193-25.855-11.752c0-5.267,9.541-11.093,23.505-11.691h4.702
	C198.286,295.852,207.825,301.678,207.825,306.944L207.825,306.944z M207.825,349.251c0,5.559-10.615,11.75-25.851,11.75
	s-25.855-6.191-25.855-11.75v-5.244c5.365,4.592,14.831,7.594,25.855,7.594c11.024,0,20.489-3.002,25.851-7.594V349.251z"/>
<path fill="none" stroke="#010101" stroke-width="5" stroke-linecap="square" stroke-linejoin="round" stroke-dasharray="0,12" d="
	M88.509,319.581c-15.26-94.927,49.33-184.238,144.264-199.505c94.928-15.244,184.244,49.346,199.49,144.279
	c15.262,94.915-49.324,184.242-144.26,199.502C193.077,479.11,103.761,414.513,88.509,319.581z"/>
<text transform="matrix(1 0 0 1 0 20.0879)" font-family="'MyriadPro-Regular'" font-size="24">Linux VPS Powered by Plesk</text>
<path stroke="#FFFFFF" d="M86.751,314.039c0,5.291-4.31,9.604-9.604,9.604v6.398c5.294,0,9.604,4.308,9.604,9.604h6.4
	c0-5.297,4.311-9.604,9.604-9.604v-6.398c-5.293,0-9.604-4.313-9.604-9.604H86.751L86.751,314.039z M89.952,330.141
	c-0.935-1.256-2.043-2.363-3.301-3.299c1.258-0.934,2.366-2.041,3.301-3.3c0.935,1.259,2.042,2.366,3.301,3.3
	C91.994,327.777,90.886,328.885,89.952,330.141L89.952,330.141z M89.952,330.141"/>
<path stroke="#FFFFFF" d="M358.761,141.939c0,3.58-2.912,6.492-6.49,6.492v4.328c3.579,0,6.49,2.91,6.49,6.49h4.328
	c0-3.58,2.911-6.49,6.492-6.49v-4.328c-3.581,0-6.492-2.912-6.492-6.492H358.761L358.761,141.939z M360.925,152.824
	c-0.632-0.85-1.381-1.596-2.23-2.23c0.85-0.631,1.599-1.379,2.23-2.23c0.633,0.852,1.381,1.6,2.231,2.23
	C362.306,151.229,361.559,151.975,360.925,152.824L360.925,152.824z M360.925,152.824"/>
<path stroke="#FFFFFF" d="M430.551,310.816c0,3.362-2.739,6.104-6.103,6.104v4.066c3.363,0,6.103,2.737,6.103,6.104h4.067
	c0-3.366,2.739-6.104,6.104-6.104v-4.066c-3.364,0-6.104-2.741-6.104-6.104H430.551L430.551,310.816z M432.585,321.049
	c-0.594-0.798-1.299-1.502-2.098-2.097c0.799-0.593,1.504-1.297,2.098-2.097c0.594,0.8,1.297,1.504,2.098,2.097
	C433.882,319.547,433.179,320.251,432.585,321.049L432.585,321.049z M432.585,321.049"/>
<path d="M408.76,442.551c-4.152-1.7-5.928-3.958-5.756-7.324c0.177-3.931-2.053-6.81-3.111-7.946
	c0.639-2.443,2.509-10.896,0.001-18.238c-2.694-7.86-10.92-19.863-19.409-31.661c-3.474-4.847-3.639-10.114-3.828-16.213
	c-0.182-5.816-0.387-12.41-3.63-19.741c-3.528-7.979-10.605-12.557-19.419-12.557c-5.243,0-10.625,1.64-14.767,4.495
	c-8.482,5.854-7.36,18.615-6.619,27.061c0.102,1.155,0.197,2.248,0.254,3.182c0.493,8.27,0.044,12.628-0.544,13.952
	c-0.379,0.866-2.25,3.331-4.231,5.939c-2.05,2.699-4.372,5.757-6.276,8.606c-2.271,3.43-4.104,8.672-5.878,13.738
	c-1.297,3.709-2.522,7.214-3.716,9.307c-2.262,4.027-1.698,7.783-1.228,9.519c-0.857,0.596-2.093,1.767-3.137,3.973
	c-1.262,2.692-3.822,4.14-9.146,5.163c-2.446,0.501-4.134,1.528-5.016,3.058c-1.283,2.224-0.585,5.019,0.054,6.929
	c0.943,2.806,0.355,4.584-0.713,7.811c-0.246,0.744-0.525,1.587-0.807,2.517c-0.446,1.468-0.286,2.802,0.476,3.966
	c2.009,3.073,7.876,4.157,13.915,4.869c3.607,0.429,7.554,1.871,11.371,3.268c3.74,1.367,7.608,2.78,11.124,3.209
	c0.533,0.066,1.063,0.101,1.572,0.101c5.309,0,7.706-3.521,8.467-4.969c1.907-0.39,8.482-1.635,15.26-1.802
	c6.766-0.193,13.313,1.143,15.167,1.559c0.583,1.114,2.121,3.664,4.57,4.978c1.348,0.735,3.221,1.159,5.141,1.159
	c2.051,0,5.951-0.485,9.037-3.732c3.078-3.262,10.771-7.428,16.387-10.469c1.255-0.679,2.427-1.313,3.455-1.887
	c3.154-1.749,4.878-4.248,4.724-6.856C412.375,445.345,410.94,443.443,408.76,442.551L408.76,442.551z M338.91,441.922
	c-0.392-2.766-3.952-5.51-8.073-8.688c-3.37-2.599-7.191-5.542-8.244-8.035c-2.175-5.146-0.46-14.19,2.53-18.85
	c1.477-2.331,2.683-5.868,3.851-9.289c1.26-3.693,2.563-7.511,4.02-9.183c2.308-2.61,4.439-7.689,4.818-11.691
	c2.16,2.063,5.513,4.683,8.611,4.683c0.477,0,0.938-0.063,1.381-0.188c2.118-0.612,5.235-2.412,8.249-4.153
	c2.598-1.502,5.802-3.353,7.008-3.521c2.068,2.968,14.08,29.549,15.307,38.086c0.97,6.753-0.056,12.338-0.572,14.524
	c-0.415-0.057-0.91-0.103-1.43-0.103c-3.346,0-4.231,1.826-4.461,2.915c-0.594,2.836-0.656,11.895-0.663,13.929
	c-1.209,1.538-7.328,8.776-16.111,10.077c-3.577,0.521-6.918,0.783-9.929,0.783c-2.574,0-4.216-0.197-4.898-0.303l-4.414-5.05
	C337.628,447.008,339.369,445.194,338.91,441.922L338.91,441.922z M344.511,358.647c-0.138,0.06-0.274,0.124-0.406,0.192
	c-0.014-0.3-0.044-0.602-0.094-0.908c-0.481-2.771-2.32-4.785-4.372-4.785c-0.151,0-0.305,0.013-0.473,0.038
	c-1.219,0.202-2.176,1.119-2.702,2.419c0.46-2.852,2.077-4.963,3.993-4.963c2.252,0,4.153,3.034,4.153,6.623
	C344.61,357.719,344.579,358.168,344.511,358.647L344.511,358.647z M362.005,360.787c0.206-0.656,0.317-1.366,0.317-2.104
	c0-3.255-2.066-5.808-4.703-5.808c-2.577,0-4.674,2.605-4.674,5.808c0,0.219,0.011,0.438,0.031,0.655
	c-0.136-0.054-0.27-0.104-0.399-0.153c-0.297-0.898-0.447-1.835-0.447-2.792c0-3.894,2.489-7.061,5.547-7.061
	c3.06,0,5.548,3.167,5.548,7.061C363.225,358.014,362.778,359.559,362.005,360.787L362.005,360.787z M359.75,368.365
	c-0.044,0.196-0.137,0.285-1.174,0.823c-0.524,0.272-1.176,0.611-1.992,1.109l-0.546,0.33c-2.19,1.327-7.318,4.438-8.71,4.619
	c-0.945,0.128-1.53-0.239-2.845-1.133c-0.297-0.202-0.613-0.415-0.949-0.633c-2.371-1.555-3.896-3.268-4.068-3.938
	c0.773-0.599,2.689-2.093,3.67-2.979c1.992-1.851,3.995-3.095,4.987-3.095c0.052,0,0.1,0.002,0.148,0.013
	c1.165,0.207,4.04,1.354,6.139,2.189c0.971,0.389,1.808,0.723,2.398,0.934C358.664,367.244,359.632,368.06,359.75,368.365
	L359.75,368.365z M376.436,454.881c1.048-4.726,2.255-11.156,2.059-14.946c-0.044-0.861-0.12-1.798-0.194-2.704
	c-0.138-1.695-0.343-4.213-0.131-4.96c0.041-0.021,0.088-0.036,0.139-0.051c0.01,2.168,0.479,6.489,3.937,7.998
	c1.03,0.448,2.208,0.676,3.498,0.676c3.463,0,7.305-1.698,8.878-3.273c0.928-0.925,1.707-2.059,2.253-2.957
	c0.12,0.351,0.192,0.807,0.153,1.396c-0.205,3.196,1.348,7.436,4.305,8.998l0.429,0.227c1.053,0.553,3.85,2.02,3.894,2.717
	c0,0-0.022,0.082-0.179,0.228c-0.7,0.639-3.165,1.899-5.55,3.116c-4.229,2.16-9.024,4.607-11.177,6.872
	c-3.031,3.189-6.461,5.332-8.53,5.332c-0.25,0-0.477-0.03-0.678-0.096C377.292,462.752,375.442,459.508,376.436,454.881
	L376.436,454.881z M299.789,442.824c-0.228-1.073-0.41-1.922-0.214-2.742c0.141-0.607,3.142-1.259,4.425-1.538
	c1.803-0.392,3.667-0.795,4.885-1.534c1.649-0.998,2.542-2.84,3.329-4.466c0.571-1.175,1.16-2.39,1.859-2.789
	c0.041-0.021,0.1-0.049,0.216-0.049c1.312,0,4.066,2.758,5.653,5.228c0.401,0.623,1.147,1.871,2.01,3.313
	c2.579,4.317,6.111,10.229,7.957,12.208c1.663,1.783,4.354,5.208,3.69,8.145c-0.483,2.279-3.063,4.132-3.672,4.541
	c-0.222,0.052-0.494,0.077-0.815,0.077c-3.531,0-10.521-2.938-14.275-4.517l-0.557-0.233c-2.097-0.879-5.52-1.433-8.831-1.969
	c-2.633-0.427-6.241-1.011-6.839-1.537c-0.483-0.544,0.079-2.312,0.574-3.871c0.356-1.119,0.725-2.279,0.928-3.492
	C300.396,445.664,300.059,444.09,299.789,442.824L299.789,442.824z M299.789,442.824"/>
<path fill="#FFFFFF" d="M339.477,370.047c0.173,0.67,1.697,2.383,4.068,3.938c0.336,0.217,0.652,0.43,0.949,0.633
	c1.315,0.894,1.899,1.26,2.845,1.133c1.392-0.182,6.52-3.292,8.71-4.619l0.545-0.33c0.815-0.498,1.467-0.838,1.992-1.109
	c1.037-0.538,1.13-0.627,1.174-0.823c-0.117-0.306-1.085-1.122-2.943-1.76c-0.59-0.21-1.428-0.546-2.398-0.934
	c-2.099-0.837-4.974-1.983-6.138-2.189c-0.048-0.011-0.096-0.013-0.148-0.013c-0.992,0-2.995,1.244-4.987,3.095
	C342.167,367.954,340.25,369.447,339.477,370.047z"/>
<path fill="#FFFFFF" d="M339.178,353.688c0.168-0.025,0.322-0.038,0.473-0.038c2.051,0,3.89,2.013,4.372,4.786
	c0.05,0.305,0.08,0.607,0.094,0.907c0.132-0.068,0.269-0.133,0.406-0.192c0.068-0.48,0.1-0.929,0.1-1.384
	c0-3.589-1.901-6.624-4.153-6.624c-1.915,0-3.532,2.112-3.993,4.963C337.002,354.807,337.959,353.889,339.178,353.688z"/>
<path fill="#FFFFFF" d="M352.988,359.842c-0.02-0.218-0.031-0.437-0.031-0.654c0-3.203,2.097-5.809,4.673-5.809
	c2.638,0,4.703,2.553,4.703,5.809c0,0.736-0.111,1.446-0.317,2.103c0.773-1.229,1.221-2.773,1.221-4.394
	c0-3.894-2.488-7.061-5.548-7.061c-3.059,0-5.547,3.167-5.547,7.061c0,0.957,0.15,1.894,0.447,2.793
	C352.719,359.737,352.853,359.789,352.988,359.842z"/>
<path fill="#FFFFFF" d="M321.962,438.75c-0.863-1.443-1.608-2.69-2.01-3.313c-1.587-2.47-4.341-5.228-5.652-5.228
	c-0.116,0-0.176,0.027-0.216,0.049c-0.7,0.398-1.289,1.613-1.859,2.789c-0.787,1.626-1.68,3.467-3.329,4.466
	c-1.217,0.739-3.082,1.143-4.885,1.534c-1.282,0.279-4.284,0.931-4.425,1.538c-0.195,0.821-0.014,1.669,0.215,2.742
	c0.271,1.266,0.607,2.84,0.321,4.774c-0.203,1.213-0.571,2.373-0.928,3.492c-0.495,1.56-1.057,3.327-0.574,3.871
	c0.599,0.526,4.206,1.109,6.84,1.537c3.311,0.535,6.733,1.09,8.83,1.969l0.557,0.233c3.754,1.578,10.744,4.517,14.275,4.517
	c0.321,0,0.594-0.025,0.816-0.076c0.609-0.41,3.189-2.263,3.672-4.542c0.663-2.937-2.027-6.36-3.69-8.145
	C328.073,448.979,324.542,443.066,321.962,438.75z"/>
<path fill="#FFFFFF" d="M377.807,426.12c0.516-2.187,1.542-7.771,0.571-14.524c-1.228-8.537-13.239-35.118-15.307-38.086
	c-1.206,0.168-4.41,2.02-7.008,3.521c-3.014,1.741-6.13,3.541-8.249,4.153c-0.442,0.126-0.904,0.188-1.381,0.188
	c-3.098,0-6.451-2.619-8.611-4.682c-0.378,4.002-2.51,9.081-4.818,11.691c-1.457,1.672-2.76,5.489-4.02,9.183
	c-1.168,3.421-2.374,6.958-3.851,9.289c-2.99,4.659-4.705,13.704-2.529,18.85c1.052,2.493,4.874,5.437,8.244,8.036
	c4.121,3.176,7.681,5.921,8.073,8.687c0.459,3.272-1.281,5.086-3.022,5.944l4.414,5.05c0.682,0.104,2.324,0.303,4.898,0.303
	c3.011,0,6.353-0.263,9.93-0.783c8.783-1.301,14.901-8.539,16.11-10.077c0.007-2.034,0.069-11.093,0.663-13.929
	c0.229-1.089,1.115-2.915,4.461-2.915C376.896,426.018,377.393,426.063,377.807,426.12z"/>
<path fill="#FFFFFF" d="M401.773,445.785l-0.429-0.225c-2.958-1.563-4.51-5.803-4.305-8.999c0.04-0.589-0.033-1.045-0.153-1.396
	c-0.545,0.898-1.325,2.031-2.252,2.957c-1.573,1.575-5.415,3.273-8.878,3.273c-1.29,0-2.468-0.229-3.498-0.676
	c-3.457-1.509-3.927-5.83-3.936-7.998c-0.051,0.015-0.098,0.03-0.139,0.051c-0.212,0.747-0.007,3.266,0.131,4.96
	c0.074,0.906,0.15,1.843,0.194,2.704c0.196,3.79-1.012,10.221-2.059,14.946c-0.994,4.627,0.855,7.87,3.105,8.571
	c0.201,0.064,0.428,0.096,0.678,0.096c2.07,0,5.5-2.143,8.531-5.332c2.152-2.265,6.948-4.712,11.176-6.872
	c2.385-1.217,4.85-2.478,5.55-3.116c0.156-0.145,0.179-0.227,0.179-0.227C405.623,447.807,402.826,446.339,401.773,445.785z"/>
<circle fill="#FFFFFF" cx="145.827" cy="422.128" r="33.25"/>
<g>
	<defs>
		<rect id="SVGID_6_" x="113.129" y="390.518" width="66.543" height="61.22"/>
	</defs>
	<clipPath id="SVGID_8_">
		<use xlink:href="#SVGID_6_"  overflow="visible"/>
	</clipPath>
	<path clip-path="url(#SVGID_8_)" d="M132.962,391.744c-3.835,0-6.878,3.12-6.878,6.962c0,3.238,2.211,5.88,5.2,6.639
		c2.281,1.065,5.65,2.729,6.321,4.075c0.955,1.731,1.756,4.913,1.678,7.361c0,0.026,0,0.047,0,0.078
		c-1.189,1.669-1.917,3.728-1.917,5.922c0,5.625,4.606,10.236,10.236,10.236c5.625,0,10.236-4.611,10.236-10.236
		c0-5.631-4.611-10.502-10.236-10.242c-0.878,0-1.741,0.109-2.562,0.322c-2.71-1.123-4.435-2.999-5.355-4.48
		c-0.743-1.191-0.63-4.279-0.401-6.795c0.401-0.873,0.64-1.851,0.64-2.88C139.923,394.864,136.804,391.744,132.962,391.744
		L132.962,391.744z M158.077,391.744c-3.836,0-6.878,3.12-6.878,6.962c0,3.837,3.042,6.878,6.878,6.878
		c3.842,0,6.878-3.041,6.878-6.878C164.955,394.864,161.919,391.744,158.077,391.744L158.077,391.744z M172.633,413.501
		c-3.836,0-6.877,3.119-6.877,6.956c0,3.842,3.041,6.878,6.877,6.878c3.842,0,6.961-3.036,6.961-6.878
		C179.595,416.881,176.475,413.501,172.633,413.501L172.633,413.501z M119.929,414.541c-3.841,0-6.878,3.119-6.878,6.956
		c0,3.842,3.037,6.878,6.878,6.878c3.838,0,6.957-3.036,6.957-6.878C126.885,417.92,123.767,414.801,119.929,414.541
		L119.929,414.541z M133.285,437.815c-3.842,0-6.961,3.119-6.961,6.956c0,3.842,3.119,6.877,6.961,6.877
		c3.835,0,6.877-3.035,6.877-6.877C140.162,440.935,137.121,437.815,133.285,437.815L133.285,437.815z M160.635,437.815
		c-3.838,0-6.878,3.119-6.878,6.956c0,3.842,3.04,6.877,6.878,6.877c3.842,0,6.883-3.035,6.883-6.877
		C167.518,440.935,164.477,437.815,160.635,437.815L160.635,437.815z"/>
</g>
<circle fill="#FFFFFF" cx="284.373" cy="317.713" r="22.078"/>
<rect x="274.554" y="319.791" fill="#FFFFFF" width="3.397" height="5.426"/>
<path d="M237.624,298.951c-4.682,0-8.492,3.809-8.492,8.492c0,4.683,3.81,8.492,8.492,8.492c4.683,0,8.494-3.81,8.494-8.492
	C246.117,302.76,242.307,298.951,237.624,298.951L237.624,298.951z M237.624,312.539c-2.809,0-5.094-2.287-5.094-5.096
	s2.286-5.096,5.094-5.096c2.81,0,5.096,2.287,5.096,5.096S240.434,312.539,237.624,312.539L237.624,312.539z M237.624,312.539"/>
<rect x="235.926" y="305.745" width="3.397" height="3.396"/>
<path d="M307.261,324.428v-16.984h-4.859c-0.299-0.854-0.642-1.687-1.024-2.488l3.43-3.431l-12.009-12.011l-3.432,3.432
	c-0.803-0.383-1.634-0.724-2.487-1.023v-4.86h-13.588v-40.763h-71.335v98.511h3.397v6.794h13.587v-6.794h37.366v6.794h13.587v-6.794
	h16.985v-4.859c0.854-0.3,1.686-0.642,2.487-1.024l3.432,3.431l12.009-12.009l-3.43-3.432c0.382-0.804,0.724-1.635,1.024-2.488
	H307.261z M205.354,249.696h64.541v10.19h-3.396v-6.794h-3.397v6.794h-3.396v-6.794h-3.397v6.794h-3.396v-6.794h-3.397v6.794h-3.396
	v-6.794h-3.397v6.794h-37.366V249.696z M205.354,263.284h64.541v10.19h-3.396v-6.795h-3.397v6.795h-3.396v-6.795h-3.397v6.795
	h-3.396v-6.795h-3.397v6.795h-3.396v-6.795h-3.397v6.795h-37.366V263.284z M205.354,276.871h64.541v10.19h-3.396v-6.794h-3.397
	v6.794h-3.396v-6.794h-3.397v6.794h-3.396v-6.794h-3.397v6.794h-3.396v-6.794h-3.397v6.794h-37.366V276.871z M269.895,290.459v1.463
	c-0.854,0.298-1.686,0.641-2.488,1.023l-2.487-2.486H269.895z M215.544,348.206h-6.794v-3.396h6.794V348.206z M205.354,341.412
	v-50.953h57.676l-11.065,11.065l3.43,3.431c-0.382,0.803-0.724,1.634-1.024,2.488h-4.858v16.984h4.86
	c0.298,0.854,0.642,1.687,1.024,2.488l-3.432,3.432l11.064,11.064H205.354z M266.499,348.206h-6.794v-3.396h6.794V348.206z
	 M269.895,341.412h-4.975l2.487-2.484c0.803,0.382,1.634,0.723,2.488,1.024V341.412z M300.005,330.348l-7.207,7.206l-2.796-2.796
	l-1.115,0.603c-1.302,0.707-2.713,1.286-4.193,1.728l-1.213,0.361v3.963h-10.19v-3.963l-1.215-0.361
	c-1.479-0.439-2.891-1.021-4.193-1.728l-1.115-0.603l-2.796,2.796l-7.207-7.206l2.796-2.796l-0.603-1.115
	c-0.707-1.302-1.286-2.714-1.728-4.192l-0.36-1.213h-3.962v-10.19h3.962l0.361-1.216c0.441-1.479,1.021-2.89,1.728-4.192
	l0.604-1.114l-2.796-2.797l7.207-7.206l2.796,2.796l1.114-0.603c1.304-0.707,2.714-1.285,4.194-1.728l1.213-0.36v-3.962h10.19v3.962
	l1.214,0.361c1.479,0.441,2.892,1.021,4.194,1.728l1.114,0.604l2.796-2.796l7.207,7.207l-2.796,2.796l0.604,1.113
	c0.706,1.303,1.286,2.715,1.728,4.193l0.359,1.214h3.963v10.19h-3.963l-0.361,1.214c-0.44,1.479-1.021,2.892-1.728,4.193
	l-0.603,1.114L300.005,330.348z M300.005,330.348"/>
<path d="M278.387,300.649c-8.428,0-15.286,6.858-15.286,15.286s6.858,15.287,15.286,15.287s15.287-6.859,15.287-15.287
	S286.814,300.649,278.387,300.649L278.387,300.649z M290.141,317.635c-0.289,2.008-1.081,3.854-2.246,5.407l-2.303-2.304
	l-2.402,2.402l2.304,2.303c-1.554,1.165-3.399,1.957-5.408,2.246v-3.262h-3.397v3.262c-2.009-0.289-3.854-1.081-5.408-2.246
	l2.303-2.303l-2.401-2.402l-2.303,2.304c-1.166-1.554-1.957-3.399-2.246-5.407h3.261v-3.397h-3.261
	c0.289-2.01,1.08-3.854,2.246-5.408l2.303,2.303l2.401-2.401l-2.303-2.303c1.554-1.166,3.398-1.955,5.408-2.245v3.261h3.397v-3.261
	c2.008,0.288,3.854,1.079,5.408,2.245l-2.304,2.303l2.402,2.401l2.303-2.303c1.165,1.555,1.956,3.398,2.246,5.408h-3.261v3.397
	H290.141z M290.141,317.635"/>
<rect x="205.354" y="295.634" fill="#FFFFFF" width="20.381" height="45.688"/>
<path fill="#FFFFFF" stroke="#FFFFFF" stroke-width="2" d="M362.732,222.162h-0.183c-1.664-14.983-14.401-26.668-29.82-26.668
	c-10.433,0-19.896,5.298-25.368,14.023c-1.516-0.46-3.067-0.69-4.633-0.69c-8.151,0-14.956,5.88-16.392,13.621
	c-1.194-0.189-2.401-0.286-3.61-0.286c-12.869,0-23.337,10.466-23.337,23.337c0,12.865,10.468,23.334,23.337,23.334h36.67h6.665
	h36.671c12.867,0,23.335-10.469,23.335-23.334C386.068,232.628,375.6,222.162,362.732,222.162z"/>
<path stroke="#FFFFFF" stroke-width="2" d="M324.86,268.69h36.67c12.867,0,23.336-10.467,23.336-23.334
	c0-12.868-10.469-23.337-23.336-23.337h-0.183c-1.666-14.982-14.403-26.668-29.82-26.668c-10.434,0-19.897,5.301-25.368,14.024
	c-1.517-0.46-3.067-0.691-4.634-0.691c-8.15,0-14.955,5.882-16.391,13.62c-1.194-0.188-2.402-0.285-3.612-0.285
	c-12.867,0-23.335,10.469-23.335,23.337c0,12.867,10.469,23.334,23.335,23.334h36.671H324.86z M281.522,262.023
	c-9.191,0-16.667-7.476-16.667-16.667c0-9.189,7.477-16.671,16.667-16.671c1.904,0,3.808,0.342,5.655,1.012
	c1.072,0.391,2.271,0.201,3.173-0.499c0.904-0.693,1.387-1.805,1.279-2.94l-0.108-0.902c0-5.514,4.49-10.004,10.003-10.004
	c1.537,0,3.076,0.396,4.57,1.171c0.794,0.412,1.727,0.489,2.573,0.212c0.849-0.282,1.553-0.891,1.949-1.69
	c3.974-8.035,11.984-13.024,20.909-13.024c12.865,0,23.335,10.464,23.335,23.243c-0.006,0.082-0.016,0.313-0.016,0.396
	c0,0.979,0.433,1.912,1.182,2.546c0.75,0.63,1.732,0.901,2.709,0.741c1.012-0.173,1.925-0.26,2.792-0.26
	c9.189,0,16.667,7.481,16.667,16.671c0,9.191-7.478,16.667-16.667,16.667H281.522z M374.864,318.693"/>
<rect x="358.194" y="235.354" stroke="#FFFFFF" stroke-width="2" width="6.668" height="6.667"/>
<rect x="358.194" y="248.688" stroke="#FFFFFF" stroke-width="2" width="6.668" height="6.668"/>
<rect x="344.862" y="248.688" stroke="#FFFFFF" stroke-width="2" width="6.668" height="6.668"/>
</svg>
