<?xml version="1.0" encoding="utf-8"?>
<!-- Generator: Adobe Illustrator 15.1.0, SVG Export Plug-In  -->
<!DOCTYPE svg PUBLIC "-//W3C//DTD SVG 1.1//EN" "http://www.w3.org/Graphics/SVG/1.1/DTD/svg11.dtd" [
	<!ENTITY ns_flows "http://ns.adobe.com/Flows/1.0/">
]>
<svg version="1.1"
	 xmlns="http://www.w3.org/2000/svg" xmlns:xlink="http://www.w3.org/1999/xlink" xmlns:a="http://ns.adobe.com/AdobeSVGViewerExtensions/3.0/"
	 x="0px" y="0px" width="500px" height="500px" viewBox="-75.368 -83.563 500 500" enable-background="new -75.368 -83.563 500 500"
	 xml:space="preserve">
<defs>
</defs>
<path d="M227.748,143.239c0-3.612-2.939-6.553-6.55-6.553h-78.615c-3.612,0-6.551,2.94-6.551,6.553v17.47
	c0,1.684,0.656,3.205,1.703,4.368c-1.049,1.16-1.703,2.683-1.703,4.366v17.471c0,1.683,0.656,3.206,1.703,4.366
	c-1.049,1.162-1.703,2.685-1.703,4.368v17.47c0,3.611,2.938,6.552,6.551,6.552h78.615c3.61,0,6.55-2.94,6.55-6.552v-17.47
	c0-1.684-0.657-3.206-1.703-4.368c1.049-1.16,1.703-2.684,1.703-4.366v-17.471c0-1.684-0.657-3.206-1.703-4.366
	c1.049-1.163,1.703-2.685,1.703-4.368V143.239z M223.382,213.118c0,1.203-0.979,2.185-2.184,2.185h-78.615
	c-1.205,0-2.185-0.981-2.185-2.185v-17.47c0-1.204,0.979-2.184,2.185-2.184h78.615c1.205,0,2.184,0.979,2.184,2.184V213.118z
	 M223.382,186.914c0,1.202-0.979,2.183-2.184,2.183h-78.615c-1.205,0-2.185-0.98-2.185-2.183v-17.471
	c0-1.203,0.979-2.184,2.185-2.184h78.615c1.205,0,2.184,0.98,2.184,2.184V186.914z M223.382,160.709
	c0,1.203-0.979,2.184-2.184,2.184h-78.615c-1.205,0-2.185-0.98-2.185-2.184v-17.47c0-1.203,0.979-2.185,2.185-2.185h78.615
	c1.205,0,2.184,0.981,2.184,2.185V160.709z M223.382,160.709"/>
<rect x="144.766" y="154.157" width="4.368" height="4.367"/>
<rect x="153.501" y="154.157" width="4.369" height="4.367"/>
<rect x="144.766" y="145.422" width="4.368" height="4.368"/>
<rect x="153.501" y="145.422" width="4.369" height="4.368"/>
<rect x="162.235" y="154.157" width="4.368" height="4.367"/>
<rect x="162.235" y="145.422" width="4.368" height="4.368"/>
<rect x="170.972" y="154.157" width="4.367" height="4.367"/>
<rect x="170.972" y="145.422" width="4.367" height="4.368"/>
<rect x="179.707" y="154.157" width="4.366" height="4.367"/>
<rect x="179.707" y="145.422" width="4.366" height="4.368"/>
<path d="M216.829,145.422h-19.652c-1.207,0-2.186,0.979-2.186,2.184v8.735c0,1.205,0.979,2.184,2.186,2.184h19.652
	c1.208,0,2.185-0.979,2.185-2.184v-8.735C219.014,146.4,218.037,145.422,216.829,145.422L216.829,145.422z M214.646,154.157H199.36
	v-4.367h15.286V154.157z M214.646,154.157"/>
<rect x="144.766" y="180.361" width="4.368" height="4.368"/>
<rect x="153.501" y="180.361" width="4.369" height="4.368"/>
<rect x="144.766" y="171.628" width="4.368" height="4.367"/>
<rect x="153.501" y="171.628" width="4.369" height="4.367"/>
<rect x="162.235" y="180.361" width="4.368" height="4.368"/>
<rect x="162.235" y="171.628" width="4.368" height="4.367"/>
<rect x="170.972" y="180.361" width="4.367" height="4.368"/>
<rect x="170.972" y="171.628" width="4.367" height="4.367"/>
<rect x="179.707" y="180.361" width="4.366" height="4.368"/>
<rect x="179.707" y="171.628" width="4.366" height="4.367"/>
<path d="M216.829,171.628h-19.652c-1.207,0-2.186,0.978-2.186,2.183v8.735c0,1.205,0.979,2.184,2.186,2.184h19.652
	c1.208,0,2.185-0.979,2.185-2.184v-8.735C219.014,172.605,218.037,171.628,216.829,171.628L216.829,171.628z M214.646,180.361
	H199.36v-4.366h15.286V180.361z M214.646,180.361"/>
<rect x="144.766" y="206.567" width="4.368" height="4.367"/>
<rect x="153.501" y="206.567" width="4.369" height="4.367"/>
<rect x="144.766" y="197.832" width="4.368" height="4.367"/>
<rect x="153.501" y="197.832" width="4.369" height="4.367"/>
<rect x="162.235" y="206.567" width="4.368" height="4.367"/>
<rect x="162.235" y="197.832" width="4.368" height="4.367"/>
<rect x="170.972" y="206.567" width="4.367" height="4.367"/>
<rect x="170.972" y="197.832" width="4.367" height="4.367"/>
<rect x="179.707" y="206.567" width="4.366" height="4.367"/>
<rect x="179.707" y="197.832" width="4.366" height="4.367"/>
<path d="M216.829,197.832h-19.652c-1.207,0-2.186,0.979-2.186,2.184v8.736c0,1.204,0.979,2.183,2.186,2.183h19.652
	c1.208,0,2.185-0.979,2.185-2.183v-8.736C219.014,198.811,218.037,197.832,216.829,197.832L216.829,197.832z M214.646,206.567
	H199.36v-4.368h15.286V206.567z M214.646,206.567"/>
<path d="M247.358,175.797l-4.362,0.155c0.024,0.741,0.038,1.481,0.038,2.227c0,0.759-0.015,1.512-0.041,2.262l4.363,0.155
	c0.031-0.802,0.046-1.606,0.046-2.417C247.402,177.381,247.389,176.587,247.358,175.797L247.358,175.797z M247.358,175.797"/>
<path d="M240.113,148.137l-3.879,2.01c0.684,1.323,1.327,2.686,1.911,4.053l4.018-1.717
	C241.536,151.019,240.848,149.556,240.113,148.137L240.113,148.137z M240.113,148.137"/>
<path d="M238.135,202.182c-0.592,1.378-1.233,2.74-1.915,4.054l3.879,2.008c0.729-1.405,1.416-2.864,2.05-4.341L238.135,202.182z
	 M238.135,202.182"/>
<path d="M242.665,184.909c-0.158,1.472-0.38,2.96-0.649,4.431l4.296,0.793c0.29-1.573,0.523-3.174,0.695-4.75L242.665,184.909z
	 M242.665,184.909"/>
<path d="M241.04,193.715c-0.381,1.448-0.814,2.891-1.297,4.285l4.13,1.42c0.516-1.497,0.983-3.044,1.392-4.598L241.04,193.715z
	 M241.04,193.715"/>
<path d="M243.886,156.966l-4.136,1.414c0.482,1.411,0.92,2.855,1.296,4.292l4.229-1.107
	C244.867,160.022,244.402,158.475,243.886,156.966L243.886,156.966z M243.886,156.966"/>
<path d="M246.317,166.254l-4.296,0.791c0.271,1.471,0.491,2.962,0.651,4.434l4.34-0.469
	C246.844,169.431,246.605,167.83,246.317,166.254L246.317,166.254z M246.317,166.254"/>
<path d="M122.733,193.685l-4.228,1.108c0.407,1.541,0.872,3.089,1.39,4.598l4.135-1.414
	C123.547,196.564,123.11,195.121,122.733,193.685L122.733,193.685z M122.733,193.685"/>
<path d="M117.47,166.223c-0.29,1.574-0.523,3.175-0.696,4.752l4.342,0.473c0.158-1.471,0.38-2.96,0.65-4.43L117.47,166.223z
	 M117.47,166.223"/>
<path d="M119.907,156.937c-0.517,1.498-0.983,3.047-1.392,4.6l4.224,1.109c0.382-1.45,0.816-2.894,1.297-4.289L119.907,156.937z
	 M119.907,156.937"/>
<path d="M120.786,175.916l-4.363-0.155c-0.03,0.802-0.045,1.607-0.045,2.418c0,0.797,0.014,1.591,0.044,2.382l4.362-0.156
	c-0.025-0.741-0.039-1.48-0.039-2.226C120.745,177.42,120.761,176.667,120.786,175.916L120.786,175.916z M120.786,175.916"/>
<path d="M125.634,202.158l-4.017,1.716c0.626,1.464,1.315,2.928,2.05,4.346l3.879-2.009
	C126.862,204.888,126.219,203.525,125.634,202.158L125.634,202.158z M125.634,202.158"/>
<path d="M123.681,148.113c-0.728,1.406-1.416,2.865-2.049,4.341l4.014,1.721c0.592-1.378,1.233-2.739,1.914-4.053L123.681,148.113z
	 M123.681,148.113"/>
<path d="M121.108,184.879l-4.341,0.472c0.169,1.575,0.404,3.176,0.695,4.753l4.296-0.791
	C121.487,187.842,121.267,186.351,121.108,184.879L121.108,184.879z M121.108,184.879"/>
<path d="M221.198,117.034v8.774c-11.308-8.493-25.104-13.143-39.309-13.143c-15.638,0-30.788,5.617-42.657,15.814l2.845,3.313
	c11.08-9.52,25.217-14.76,39.813-14.76c12.479,0,24.606,3.859,34.792,10.919h-6.403v4.367h13.104c1.207,0,2.184-0.979,2.184-2.185
	v-13.102H221.198z M221.198,117.034"/>
<path d="M221.702,224.563c-11.078,9.52-25.216,14.76-39.813,14.76c-12.478,0-24.605-3.859-34.791-10.918h6.402v-4.368h-13.103
	c-1.208,0-2.183,0.979-2.183,2.185v13.102h4.367v-8.773c11.307,8.493,25.102,13.142,39.307,13.142
	c15.639,0,30.79-5.616,42.658-15.813L221.702,224.563z M221.702,224.563"/>
<path fill="none" stroke="#010101" stroke-width="5" stroke-linecap="square" stroke-linejoin="round" stroke-dasharray="0,12" d="
	M10.013,204.233C-5.247,109.307,59.345,19.995,154.276,4.729c94.928-15.244,184.246,49.346,199.49,144.279
	c15.262,94.915-49.324,184.242-144.258,199.502C114.581,363.763,25.265,299.165,10.013,204.233z"/>
<path d="M153.558,219.502h-9.297c-0.498-1.568-1.124-3.086-1.879-4.535l6.57-6.578c2.144-2.147,2.144-5.629,0-7.771l-4.16-4.161
	c-2.075-2.073-5.694-2.073-7.77,0l-6.579,6.572c-1.449-0.755-2.967-1.382-4.536-1.879v-9.297c0-3.027-2.463-5.497-5.498-5.497
	h-5.883c-3.036,0-5.497,2.47-5.497,5.497v9.297c-1.571,0.497-3.091,1.124-4.54,1.879l-6.576-6.572c-2.076-2.082-5.697-2.082-7.771,0
	l-4.159,4.161c-1.038,1.039-1.613,2.418-1.613,3.884s0.575,2.85,1.613,3.888l6.569,6.578c-0.755,1.449-1.381,2.967-1.88,4.535
	h-9.296c-3.026,0-5.497,2.47-5.497,5.497v5.886c0,3.035,2.471,5.497,5.497,5.497h9.296c0.499,1.57,1.125,3.086,1.88,4.535
	l-6.569,6.579c-1.038,1.037-1.613,2.42-1.613,3.886c0,1.468,0.575,2.848,1.613,3.886l4.159,4.16c2.073,2.081,5.694,2.081,7.771,0
	l6.576-6.57c1.449,0.755,2.969,1.381,4.54,1.877v9.299c0,3.036,2.471,5.497,5.497,5.497h5.883c3.035,0,5.498-2.461,5.498-5.497
	v-9.299c1.569-0.486,3.087-1.122,4.536-1.877l6.579,6.578c2.075,2.073,5.694,2.073,7.77,0l4.16-4.161
	c2.144-2.143,2.144-5.633,0-7.778l-6.57-6.57c0.755-1.458,1.381-2.974,1.879-4.535h9.297c3.036,0,5.497-2.471,5.497-5.506v-5.886
	C159.055,221.972,156.594,219.502,153.558,219.502L153.558,219.502z M155.539,230.885c0,1.098-0.884,1.987-1.981,1.987h-10.618
	c-0.798,0-1.5,0.54-1.698,1.314c-0.574,2.168-1.433,4.237-2.556,6.158c-0.402,0.684-0.291,1.561,0.274,2.124l7.514,7.505
	c0.771,0.782,0.771,2.044,0,2.815l-4.168,4.157c-0.747,0.748-2.051,0.748-2.806,0l-7.504-7.513c-0.566-0.558-1.44-0.675-2.127-0.275
	c-1.921,1.135-3.997,1.984-6.166,2.557c-0.772,0.197-1.304,0.895-1.304,1.7v10.618c0,1.098-0.893,1.981-1.99,1.981h-5.883
	c-1.098,0-1.992-0.884-1.992-1.981v-10.618c0-0.806-0.529-1.503-1.309-1.7c-2.173-0.572-4.238-1.422-6.16-2.557
	c-0.274-0.151-0.584-0.237-0.882-0.237c-0.455,0-0.909,0.181-1.245,0.513l-7.506,7.513c-0.754,0.748-2.057,0.748-2.812,0
	l-4.161-4.157c-0.369-0.378-0.582-0.877-0.582-1.407s0.213-1.03,0.582-1.408l7.514-7.505c0.557-0.563,0.678-1.44,0.266-2.124
	c-1.121-1.921-1.98-3.999-2.548-6.158c-0.196-0.774-0.898-1.314-1.696-1.314H81.377c-1.098,0-1.979-0.89-1.979-1.987v-5.886
	c0-1.098,0.882-1.979,1.979-1.979h10.618c0.806,0,1.5-0.539,1.696-1.314c0.577-2.168,1.436-4.243,2.557-6.164
	c0.403-0.686,0.292-1.561-0.274-2.127l-7.514-7.504c-0.369-0.378-0.572-0.876-0.572-1.409c0-0.53,0.203-1.026,0.572-1.396
	l4.17-4.169c0.746-0.748,2.057-0.748,2.803,0l7.506,7.514c0.566,0.565,1.44,0.677,2.137,0.274c1.912-1.126,3.985-1.981,6.158-2.548
	c0.771-0.206,1.311-0.9,1.311-1.697v-10.627c0-1.098,0.892-1.983,1.982-1.983h5.883c1.098,0,1.99,0.886,1.99,1.983v10.618
	c0,0.806,0.54,1.5,1.312,1.697c2.17,0.575,4.246,1.431,6.158,2.557c0.687,0.402,1.569,0.291,2.127-0.274l7.513-7.514
	c0.746-0.748,2.059-0.748,2.805,0l4.16,4.16c0.771,0.77,0.771,2.032,0,2.813l-7.504,7.504c-0.567,0.566-0.679,1.441-0.275,2.127
	c1.123,1.921,1.981,3.988,2.547,6.156c0.206,0.783,0.9,1.313,1.698,1.313h10.618c1.098,0,1.99,0.891,1.99,1.988v5.886H155.539z
	 M155.539,230.885"/>
<path d="M117.466,210.858c-2.854,0-5.677,0.72-8.162,2.075c-0.859,0.472-1.169,1.533-0.705,2.385
	c0.462,0.85,1.529,1.164,2.383,0.703c1.976-1.082,4.222-1.646,6.484-1.646c7.488,0,13.569,6.081,13.569,13.568
	c0,7.477-6.081,13.567-13.569,13.567c-7.478,0-13.565-6.091-13.565-13.567c0-2.076,0.454-4.075,1.354-5.928
	c0.428-0.874,0.068-1.921-0.806-2.349c-0.878-0.421-1.921-0.063-2.353,0.814c-1.131,2.333-1.714,4.846-1.714,7.462
	c0,9.414,7.667,17.082,17.083,17.082c9.419,0,17.086-7.668,17.086-17.082C134.552,218.525,126.885,210.858,117.466,210.858
	L117.466,210.858z M117.466,210.858"/>
<path fill="#FFFFFF" d="M153.558,223.011h-10.618c-0.798,0-1.492-0.53-1.698-1.313c-0.565-2.168-1.424-4.235-2.547-6.156
	c-0.403-0.686-0.292-1.561,0.275-2.127l7.504-7.504c0.771-0.781,0.771-2.044,0-2.813l-4.16-4.16c-0.746-0.748-2.059-0.748-2.805,0
	l-7.513,7.514c-0.558,0.565-1.44,0.677-2.127,0.274c-1.912-1.126-3.988-1.981-6.158-2.557c-0.771-0.197-1.312-0.892-1.312-1.697
	v-10.618c0-1.098-0.893-1.983-1.99-1.983h-5.883c-1.091,0-1.982,0.886-1.982,1.983v10.627c0,0.797-0.539,1.491-1.311,1.697
	c-2.173,0.566-4.246,1.422-6.158,2.548c-0.696,0.402-1.57,0.291-2.137-0.274l-7.506-7.514c-0.746-0.748-2.057-0.748-2.803,0
	l-4.17,4.169c-0.369,0.369-0.572,0.865-0.572,1.396c0,0.533,0.203,1.031,0.572,1.409l7.514,7.504
	c0.566,0.566,0.678,1.441,0.274,2.127c-1.121,1.921-1.979,3.996-2.557,6.164c-0.196,0.775-0.891,1.314-1.696,1.314H81.377
	c-1.098,0-1.979,0.882-1.979,1.979v5.886c0,1.098,0.882,1.987,1.979,1.987h10.618c0.798,0,1.5,0.54,1.696,1.314
	c0.567,2.159,1.427,4.237,2.548,6.158c0.412,0.684,0.291,1.561-0.266,2.124l-7.514,7.505c-0.369,0.378-0.582,0.878-0.582,1.408
	s0.213,1.029,0.582,1.407l4.161,4.157c0.755,0.748,2.058,0.748,2.812,0l7.506-7.513c0.336-0.332,0.79-0.513,1.245-0.513
	c0.298,0,0.607,0.086,0.882,0.237c1.922,1.135,3.987,1.984,6.16,2.557c0.779,0.197,1.309,0.895,1.309,1.7v10.618
	c0,1.098,0.895,1.981,1.992,1.981h5.883c1.098,0,1.99-0.884,1.99-1.981v-10.618c0-0.806,0.531-1.503,1.304-1.7
	c2.169-0.572,4.245-1.422,6.166-2.557c0.687-0.399,1.561-0.282,2.127,0.275l7.504,7.513c0.755,0.748,2.059,0.748,2.806,0
	l4.168-4.157c0.771-0.771,0.771-2.033,0-2.815l-7.514-7.505c-0.565-0.563-0.677-1.44-0.274-2.124
	c1.123-1.921,1.981-3.99,2.556-6.158c0.198-0.774,0.9-1.314,1.698-1.314h10.618c1.098,0,1.981-0.89,1.981-1.987h0.009v-5.886
	C155.548,223.901,154.655,223.011,153.558,223.011z M117.466,245.025c-9.416,0-17.083-7.668-17.083-17.082
	c0-2.616,0.583-5.129,1.714-7.462c0.432-0.877,1.475-1.235,2.353-0.814c0.874,0.428,1.233,1.475,0.806,2.349
	c-0.9,1.853-1.354,3.852-1.354,5.928c0,7.477,6.088,13.567,13.565,13.567c7.488,0,13.569-6.091,13.569-13.567
	c0-7.487-6.081-13.568-13.569-13.568c-2.263,0-4.509,0.564-6.484,1.646c-0.854,0.461-1.921,0.146-2.383-0.703
	c-0.464-0.852-0.154-1.913,0.705-2.385c2.485-1.355,5.309-2.075,8.162-2.075c9.419,0,17.086,7.667,17.086,17.085
	C134.552,237.357,126.885,245.025,117.466,245.025z"/>
<path d="M363.858,294.019l-6.066-6.909c-0.472-0.537-1.227-0.751-1.912-0.537c-0.693,0.223-1.183,0.82-1.264,1.538
	c-0.143,1.3-0.328,2.544-0.533,3.722c-1.041-4.574-2.793-9.12-5.229-13.621v-32.776c0-1.005-0.819-1.814-1.823-1.814
	c-26.648,0-38.559-13.787-38.675-13.919c-0.349-0.42-0.81-0.695-1.405-0.66c-0.533,0-1.049,0.24-1.396,0.65
	c-0.115,0.142-12.026,13.929-38.674,13.929c-1.006,0-1.823,0.81-1.823,1.814v34.77c0,19.008,8.547,37.066,22.851,48.307
	c5.772,4.536,12.008,7.82,18.527,9.758c0.169,0.044,0.347,0.073,0.516,0.073c0.179,0,0.356-0.029,0.525-0.073
	c5.994-1.78,11.741-4.715,17.113-8.7c4.99,5.604,12.123,8.841,19.623,8.896h0.167c7.497,0,14.659-3.193,19.675-8.759
	C373.037,319.725,372.958,304.381,363.858,294.019L363.858,294.019z M306.95,334.612c-3.282-1.013-6.492-2.411-9.598-4.151
	c0.303-0.332,0.49-0.748,0.49-1.228c0-1.007-0.81-1.825-1.814-1.825c-0.792,0-1.451,0.516-1.699,1.227
	c-1.414-0.923-2.802-1.913-4.163-2.979c-0.081-0.062-0.15-0.132-0.224-0.195c0.188,0.073,0.402,0.134,0.615,0.134
	c1.005,0,1.824-0.816,1.824-1.824c0-1.003-0.819-1.823-1.824-1.823c-1.006,0-1.815,0.82-1.815,1.823
	c0,0.348,0.125,0.667,0.304,0.942c-3.541-2.935-6.673-6.323-9.357-10.067c0.979-0.025,1.761-0.819,1.761-1.806
	c0-1.006-0.81-1.821-1.814-1.821c-0.747,0-1.388,0.451-1.673,1.092c-0.791-1.246-1.548-2.517-2.25-3.836
	c0.161-0.265,0.276-0.568,0.276-0.905c0-0.933-0.72-1.679-1.637-1.776c-1.976-4.209-3.442-8.676-4.396-13.301
	c0.349-0.329,0.57-0.791,0.57-1.313c0-0.756-0.462-1.396-1.111-1.675c-0.375-2.454-0.597-4.937-0.667-7.444
	c0.987-0.026,1.778-0.815,1.778-1.815c0-1.005-0.818-1.814-1.823-1.814v-7.293c1.005,0,1.823-0.807,1.823-1.814
	c0-1.005-0.818-1.823-1.823-1.823v-7.284c1.005,0,1.823-0.819,1.823-1.824c0-1.006-0.818-1.824-1.823-1.824v-7.284
	c1.005,0,1.823-0.818,1.823-1.823c0-0.036-0.018-0.071-0.026-0.107c2.66-0.115,5.168-0.361,7.524-0.711
	c-0.125,0.249-0.213,0.516-0.213,0.818c0,1.005,0.818,1.823,1.823,1.823s1.814-0.818,1.814-1.823c0-0.516-0.214-0.969-0.552-1.298
	c5.223-1.015,9.643-2.5,13.307-4.154c0.01,0.999,0.818,1.807,1.824,1.807c1.005,0,1.822-0.808,1.822-1.816
	c0-0.586-0.293-1.076-0.711-1.414c1.477-0.774,2.785-1.547,3.958-2.312c0.134,0.026,0.258,0.079,0.392,0.079
	c0.925,0,1.654-0.692,1.779-1.583c1.609-1.191,2.854-2.269,3.689-3.077c3.887,3.735,15.949,13.253,38.248,13.752v25.722
	c-0.248-0.133-0.534-0.205-0.827-0.205c-0.524,0-1.023,0.232-1.37,0.625l-5.923,6.74c-6.075,6.921-9.438,15.693-9.642,24.576
	c-0.366-0.836-0.722-1.733-1.059-2.66c-0.428-1.155-0.818-2.348-1.148-3.592c-0.176-0.704-0.765-1.229-1.484-1.344
	c-0.18-0.027-0.356-0.027-0.533,0c-0.528,0.071-0.996,0.373-1.281,0.836c-0.036,0.053-0.063,0.116-0.106,0.181
	c-0.321,0.522-0.634,1.056-0.917,1.61c-0.099,0.193-0.188,0.389-0.285,0.594c-0.205,0.416-0.409,0.844-0.596,1.271
	c-0.089,0.207-0.16,0.419-0.239,0.623c-0.179,0.438-0.338,0.881-0.49,1.325c-0.062,0.188-0.125,0.374-0.177,0.561
	c-0.152,0.49-0.285,0.97-0.41,1.458c-0.036,0.16-0.071,0.313-0.107,0.472c-0.124,0.543-0.23,1.087-0.318,1.629
	c-0.019,0.108-0.036,0.216-0.054,0.32c-0.099,0.622-0.17,1.245-0.214,1.867l-0.01,0.117c-0.257,3.432,0.145,6.9,1.211,10.191
	c0.044,0.137,0.088,0.258,0.133,0.392c0.159,0.48,0.338,0.961,0.525,1.433c0.105,0.239,0.213,0.479,0.318,0.72
	c0.145,0.349,0.303,0.686,0.473,1.026c0.15,0.316,0.32,0.637,0.49,0.951c0.132,0.237,0.266,0.471,0.399,0.707
	c0.222,0.376,0.453,0.758,0.692,1.122c0.045,0.065,0.081,0.126,0.117,0.187C317.518,330.29,312.341,332.949,306.95,334.612
	L306.95,334.612z M361.351,327.266c-4.367,4.838-10.656,7.605-17.122,7.553c-6.52-0.036-12.72-2.874-17.024-7.772
	c-0.303-0.351-0.588-0.704-0.863-1.062c-0.009-0.009-0.009-0.018-0.018-0.026c-0.605-0.792-1.148-1.602-1.646-2.446
	c-0.009-0.025-0.026-0.045-0.035-0.069c-0.462-0.784-0.854-1.603-1.21-2.421c-0.054-0.125-0.098-0.239-0.151-0.356
	c-0.312-0.755-0.569-1.528-0.799-2.313c-0.055-0.193-0.107-0.389-0.162-0.585c-0.195-0.739-0.346-1.478-0.461-2.225
	c-0.037-0.249-0.072-0.489-0.1-0.728c-0.088-0.731-0.15-1.47-0.169-2.197c-0.008-0.251-0.008-0.5-0.008-0.747
	c0.008-0.749,0.035-1.496,0.106-2.242c0.027-0.214,0.063-0.426,0.09-0.632c0.098-0.791,0.23-1.574,0.418-2.346
	c0.027-0.146,0.07-0.275,0.105-0.422c0.215-0.814,0.463-1.627,0.765-2.425c0.011-0.028,0.02-0.064,0.036-0.089
	c1.904,5.049,4.322,8.912,5.204,10.247c0.187,0.275,0.328,0.485,0.355,0.522c0.498,0.713,1.429,0.96,2.215,0.622
	c0.8-0.347,1.235-1.2,1.059-2.046l-0.071-0.32c-0.587-2.642-0.844-5.326-0.773-8.003c0.187-8.025,3.238-15.939,8.734-22.212
	l4.42-5.035c0.072,0.137,0.151,0.267,0.223,0.393c4.705,7.926,7.107,15.968,7.107,23.943c0,0.881,0.631,1.638,1.502,1.798
	c0.862,0.151,1.719-0.34,2.029-1.163c0.07-0.207,1.557-4.237,2.563-9.974l3.449,3.925
	C368.999,305.393,369.098,318.654,361.351,327.266L361.351,327.266z M361.351,327.266"/>
<path d="M308.774,241.796c0,1.009-0.811,1.824-1.824,1.824c-1.006,0-1.814-0.815-1.814-1.824c0-1.005,0.809-1.822,1.814-1.822
	C307.964,239.974,308.774,240.791,308.774,241.796L308.774,241.796z M308.774,241.796"/>
<path d="M275.988,252.729c0,1.005-0.818,1.813-1.823,1.813s-1.823-0.809-1.823-1.813c0-1.014,0.818-1.823,1.823-1.823
	S275.988,251.715,275.988,252.729L275.988,252.729z M275.988,252.729"/>
<path d="M286.92,252.729c0,1.005-0.819,1.813-1.824,1.813s-1.823-0.809-1.823-1.813c0-1.014,0.818-1.823,1.823-1.823
	S286.92,251.715,286.92,252.729L286.92,252.729z M286.92,252.729"/>
<path d="M292.382,247.258c0,1.005-0.819,1.823-1.824,1.823c-1.006,0-1.822-0.818-1.822-1.823s0.816-1.823,1.822-1.823
	C291.563,245.435,292.382,246.253,292.382,247.258L292.382,247.258z M292.382,247.258"/>
<path d="M297.843,252.729c0,1.005-0.81,1.813-1.814,1.813c-1.014,0-1.824-0.809-1.824-1.813c0-1.014,0.811-1.823,1.824-1.823
	C297.033,250.905,297.843,251.715,297.843,252.729L297.843,252.729z M297.843,252.729"/>
<path d="M303.312,247.258c0,1.005-0.817,1.823-1.822,1.823c-1.006,0-1.824-0.818-1.824-1.823s0.818-1.823,1.824-1.823
	C302.494,245.435,303.312,246.253,303.312,247.258L303.312,247.258z M303.312,247.258"/>
<path d="M308.774,252.729c0,1.005-0.811,1.813-1.824,1.813c-1.006,0-1.814-0.809-1.814-1.813c0-1.014,0.809-1.823,1.814-1.823
	C307.964,250.905,308.774,251.715,308.774,252.729L308.774,252.729z M308.774,252.729"/>
<path d="M275.988,263.65c0,1.006-0.818,1.824-1.823,1.824s-1.823-0.818-1.823-1.824s0.818-1.814,1.823-1.814
	S275.988,262.645,275.988,263.65L275.988,263.65z M275.988,263.65"/>
<path d="M281.449,258.189c0,1.005-0.81,1.824-1.823,1.824c-1.005,0-1.814-0.819-1.814-1.824c0-1.006,0.81-1.824,1.814-1.824
	C280.64,256.365,281.449,257.184,281.449,258.189L281.449,258.189z M281.449,258.189"/>
<path d="M286.92,263.65c0,1.006-0.819,1.824-1.824,1.824s-1.823-0.818-1.823-1.824s0.818-1.814,1.823-1.814
	S286.92,262.645,286.92,263.65L286.92,263.65z M286.92,263.65"/>
<path d="M292.382,258.189c0,1.005-0.819,1.824-1.824,1.824c-1.006,0-1.822-0.819-1.822-1.824c0-1.006,0.816-1.824,1.822-1.824
	C291.563,256.365,292.382,257.184,292.382,258.189L292.382,258.189z M292.382,258.189"/>
<path d="M297.843,263.65c0,1.006-0.81,1.824-1.814,1.824c-1.014,0-1.824-0.818-1.824-1.824s0.811-1.814,1.824-1.814
	C297.033,261.836,297.843,262.645,297.843,263.65L297.843,263.65z M297.843,263.65"/>
<path d="M303.312,258.189c0,1.005-0.817,1.824-1.822,1.824c-1.006,0-1.824-0.819-1.824-1.824c0-1.006,0.818-1.824,1.824-1.824
	C302.494,256.365,303.312,257.184,303.312,258.189L303.312,258.189z M303.312,258.189"/>
<path d="M308.774,263.65c0,1.006-0.811,1.824-1.824,1.824c-1.006,0-1.814-0.818-1.814-1.824s0.809-1.814,1.814-1.814
	C307.964,261.836,308.774,262.645,308.774,263.65L308.774,263.65z M308.774,263.65"/>
<path d="M275.988,274.582c0,1.004-0.818,1.823-1.823,1.823s-1.823-0.819-1.823-1.823c0-1.006,0.818-1.824,1.823-1.824
	S275.988,273.576,275.988,274.582L275.988,274.582z M275.988,274.582"/>
<path d="M281.449,269.121c0,1.008-0.81,1.823-1.823,1.823c-1.005,0-1.814-0.815-1.814-1.823c0-1.005,0.81-1.823,1.814-1.823
	C280.64,267.298,281.449,268.116,281.449,269.121L281.449,269.121z M281.449,269.121"/>
<path d="M286.92,274.582c0,1.004-0.819,1.823-1.824,1.823s-1.823-0.819-1.823-1.823c0-1.006,0.818-1.824,1.823-1.824
	S286.92,273.576,286.92,274.582L286.92,274.582z M286.92,274.582"/>
<path d="M292.382,269.121c0,1.008-0.819,1.823-1.824,1.823c-1.006,0-1.822-0.815-1.822-1.823c0-1.005,0.816-1.823,1.822-1.823
	C291.563,267.298,292.382,268.116,292.382,269.121L292.382,269.121z M292.382,269.121"/>
<path d="M297.843,274.582c0,1.004-0.81,1.823-1.814,1.823c-1.014,0-1.824-0.819-1.824-1.823c0-1.006,0.811-1.824,1.824-1.824
	C297.033,272.758,297.843,273.576,297.843,274.582L297.843,274.582z M297.843,274.582"/>
<path d="M303.312,269.121c0,1.008-0.817,1.823-1.822,1.823c-1.006,0-1.824-0.815-1.824-1.823c0-1.005,0.818-1.823,1.824-1.823
	C302.494,267.298,303.312,268.116,303.312,269.121L303.312,269.121z M303.312,269.121"/>
<path d="M308.774,274.582c0,1.004-0.811,1.823-1.824,1.823c-1.006,0-1.814-0.819-1.814-1.823c0-1.006,0.809-1.824,1.814-1.824
	C307.964,272.758,308.774,273.576,308.774,274.582L308.774,274.582z M308.774,274.582"/>
<path d="M275.988,285.515c0,1.005-0.818,1.821-1.823,1.821s-1.823-0.816-1.823-1.821s0.818-1.825,1.823-1.825
	S275.988,284.51,275.988,285.515L275.988,285.515z M275.988,285.515"/>
<path d="M281.449,280.053c0,1.004-0.81,1.814-1.823,1.814c-1.005,0-1.814-0.811-1.814-1.814c0-1.015,0.81-1.824,1.814-1.824
	C280.64,278.229,281.449,279.038,281.449,280.053L281.449,280.053z M281.449,280.053"/>
<path d="M286.92,285.515c0,1.005-0.819,1.821-1.824,1.821s-1.823-0.816-1.823-1.821s0.818-1.825,1.823-1.825
	S286.92,284.51,286.92,285.515L286.92,285.515z M286.92,285.515"/>
<path d="M292.382,280.053c0,1.004-0.819,1.814-1.824,1.814c-1.006,0-1.822-0.811-1.822-1.814c0-1.015,0.816-1.824,1.822-1.824
	C291.563,278.229,292.382,279.038,292.382,280.053L292.382,280.053z M292.382,280.053"/>
<path d="M297.843,285.515c0,1.005-0.81,1.821-1.814,1.821c-1.014,0-1.824-0.816-1.824-1.821s0.811-1.825,1.824-1.825
	C297.033,283.689,297.843,284.51,297.843,285.515L297.843,285.515z M297.843,285.515"/>
<path d="M303.312,280.053c0,1.004-0.817,1.814-1.822,1.814c-1.006,0-1.824-0.811-1.824-1.814c0-1.015,0.818-1.824,1.824-1.824
	C302.494,278.229,303.312,279.038,303.312,280.053L303.312,280.053z M303.312,280.053"/>
<path d="M308.774,285.515c0,1.005-0.811,1.821-1.824,1.821c-1.006,0-1.814-0.816-1.814-1.821s0.809-1.825,1.814-1.825
	C307.964,283.689,308.774,284.51,308.774,285.515L308.774,285.515z M308.774,285.515"/>
<path d="M275.988,296.445c0,1.008-0.818,1.822-1.823,1.822s-1.823-0.814-1.823-1.822c0-1.002,0.818-1.822,1.823-1.822
	S275.988,295.443,275.988,296.445L275.988,296.445z M275.988,296.445"/>
<path d="M281.449,290.978c0,1.003-0.81,1.823-1.823,1.823c-1.005,0-1.814-0.82-1.814-1.823c0-1.007,0.81-1.817,1.814-1.817
	C280.64,289.16,281.449,289.971,281.449,290.978L281.449,290.978z M281.449,290.978"/>
<path d="M286.92,296.445c0,1.008-0.819,1.822-1.824,1.822s-1.823-0.814-1.823-1.822c0-1.002,0.818-1.822,1.823-1.822
	S286.92,295.443,286.92,296.445L286.92,296.445z M286.92,296.445"/>
<path d="M292.382,290.978c0,1.003-0.819,1.823-1.824,1.823c-1.006,0-1.822-0.82-1.822-1.823c0-1.007,0.816-1.817,1.822-1.817
	C291.563,289.16,292.382,289.971,292.382,290.978L292.382,290.978z M292.382,290.978"/>
<path d="M297.843,296.445c0,1.008-0.81,1.822-1.814,1.822c-1.014,0-1.824-0.814-1.824-1.822c0-1.002,0.811-1.822,1.824-1.822
	C297.033,294.623,297.843,295.443,297.843,296.445L297.843,296.445z M297.843,296.445"/>
<path d="M303.312,290.978c0,1.003-0.817,1.823-1.822,1.823c-1.006,0-1.824-0.82-1.824-1.823c0-1.007,0.818-1.817,1.824-1.817
	C302.494,289.16,303.312,289.971,303.312,290.978L303.312,290.978z M303.312,290.978"/>
<path d="M308.774,296.445c0,1.008-0.811,1.822-1.824,1.822c-1.006,0-1.814-0.814-1.814-1.822c0-1.002,0.809-1.822,1.814-1.822
	C307.964,294.623,308.774,295.443,308.774,296.445L308.774,296.445z M308.774,296.445"/>
<path d="M281.449,301.909c0,1.003-0.81,1.821-1.823,1.821c-1.005,0-1.814-0.818-1.814-1.821c0-1.008,0.81-1.824,1.814-1.824
	C280.64,300.085,281.449,300.901,281.449,301.909L281.449,301.909z M281.449,301.909"/>
<path d="M286.92,307.377c0,1.006-0.819,1.815-1.824,1.815s-1.823-0.81-1.823-1.815c0-1.012,0.818-1.823,1.823-1.823
	S286.92,306.365,286.92,307.377L286.92,307.377z M286.92,307.377"/>
<path d="M292.382,301.909c0,1.003-0.819,1.821-1.824,1.821c-1.006,0-1.822-0.818-1.822-1.821c0-1.008,0.816-1.824,1.822-1.824
	C291.563,300.085,292.382,300.901,292.382,301.909L292.382,301.909z M292.382,301.909"/>
<path d="M297.843,307.377c0,1.006-0.81,1.815-1.814,1.815c-1.014,0-1.824-0.81-1.824-1.815c0-1.012,0.811-1.823,1.824-1.823
	C297.033,305.554,297.843,306.365,297.843,307.377L297.843,307.377z M297.843,307.377"/>
<path d="M303.312,301.909c0,1.003-0.817,1.821-1.822,1.821c-1.006,0-1.824-0.818-1.824-1.821c0-1.008,0.818-1.824,1.824-1.824
	C302.494,300.085,303.312,300.901,303.312,301.909L303.312,301.909z M303.312,301.909"/>
<path d="M308.774,307.377c0,1.006-0.811,1.815-1.824,1.815c-1.006,0-1.814-0.81-1.814-1.815c0-1.012,0.809-1.823,1.814-1.823
	C307.964,305.554,308.774,306.365,308.774,307.377L308.774,307.377z M308.774,307.377"/>
<path d="M286.92,318.3c0,1.006-0.819,1.825-1.824,1.825s-1.823-0.819-1.823-1.825c0-1.005,0.818-1.813,1.823-1.813
	S286.92,317.295,286.92,318.3L286.92,318.3z M286.92,318.3"/>
<path d="M292.382,312.839c0,1.007-0.819,1.823-1.824,1.823c-1.006,0-1.822-0.816-1.822-1.823c0-1.006,0.816-1.821,1.822-1.821
	C291.563,311.018,292.382,311.833,292.382,312.839L292.382,312.839z M292.382,312.839"/>
<path d="M297.843,318.3c0,1.006-0.81,1.825-1.814,1.825c-1.014,0-1.824-0.819-1.824-1.825c0-1.005,0.811-1.813,1.824-1.813
	C297.033,316.486,297.843,317.295,297.843,318.3L297.843,318.3z M297.843,318.3"/>
<path d="M303.312,312.839c0,1.007-0.817,1.823-1.822,1.823c-1.006,0-1.824-0.816-1.824-1.823c0-1.006,0.818-1.821,1.824-1.821
	C302.494,311.018,303.312,311.833,303.312,312.839L303.312,312.839z M303.312,312.839"/>
<path d="M308.774,318.3c0,1.006-0.811,1.825-1.824,1.825c-1.006,0-1.814-0.819-1.814-1.825c0-1.005,0.809-1.813,1.814-1.813
	C307.964,316.486,308.774,317.295,308.774,318.3L308.774,318.3z M308.774,318.3"/>
<path d="M303.312,323.77c0,1.008-0.817,1.824-1.822,1.824c-1.006,0-1.824-0.816-1.824-1.824c0-1.003,0.818-1.823,1.824-1.823
	C302.494,321.946,303.312,322.767,303.312,323.77L303.312,323.77z M303.312,323.77"/>
<path d="M308.774,329.233c0,1.003-0.811,1.821-1.824,1.821c-1.006,0-1.814-0.818-1.814-1.821c0-1.007,0.809-1.825,1.814-1.825
	C307.964,327.408,308.774,328.227,308.774,329.233L308.774,329.233z M308.774,329.233"/>
<path fill="#FFFFFF" d="M357.665,292.084c-1.005,5.737-2.49,9.766-2.563,9.973c-0.311,0.824-1.164,1.314-2.027,1.162
	c-0.871-0.16-1.503-0.915-1.503-1.796c0-7.977-2.401-16.019-7.106-23.945c-0.071-0.124-0.151-0.255-0.223-0.391l-4.421,5.034
	c-5.497,6.272-8.548,14.188-8.734,22.213c-0.07,2.678,0.187,5.36,0.773,8.002l0.071,0.321c0.178,0.845-0.258,1.698-1.058,2.045
	c-0.786,0.338-1.717,0.091-2.215-0.622c-0.027-0.035-0.169-0.246-0.356-0.523c-0.879-1.333-3.299-5.195-5.203-10.246
	c-0.018,0.025-0.027,0.061-0.035,0.088c-0.303,0.799-0.552,1.611-0.766,2.427c-0.035,0.146-0.08,0.276-0.105,0.421
	c-0.188,0.771-0.321,1.555-0.42,2.346c-0.026,0.207-0.062,0.419-0.088,0.632c-0.072,0.747-0.099,1.493-0.107,2.243
	c0,0.248,0,0.496,0.009,0.748c0.019,0.727,0.081,1.465,0.169,2.196c0.027,0.238,0.063,0.479,0.1,0.727
	c0.114,0.748,0.265,1.485,0.461,2.226c0.053,0.195,0.107,0.39,0.16,0.586c0.231,0.781,0.489,1.557,0.802,2.313
	c0.054,0.117,0.098,0.231,0.15,0.356c0.355,0.817,0.747,1.636,1.21,2.421c0.008,0.024,0.025,0.042,0.035,0.068
	c0.499,0.846,1.041,1.654,1.646,2.447c0.009,0.009,0.009,0.018,0.02,0.025c0.274,0.357,0.559,0.711,0.862,1.062
	c4.305,4.898,10.503,7.736,17.023,7.774c6.466,0.051,12.756-2.715,17.122-7.554c7.747-8.611,7.649-21.872-0.231-30.854
	L357.665,292.084z"/>
<path fill="#FFFFFF" d="M321.562,324.984c-0.133-0.237-0.268-0.471-0.399-0.709c-0.169-0.313-0.339-0.635-0.49-0.951
	c-0.169-0.34-0.328-0.677-0.472-1.025c-0.106-0.24-0.213-0.48-0.32-0.721c-0.186-0.472-0.364-0.951-0.523-1.432
	c-0.046-0.135-0.09-0.257-0.135-0.391c-1.066-3.292-1.467-6.762-1.209-10.192l0.009-0.118c0.045-0.622,0.116-1.245,0.213-1.866
	c0.018-0.104,0.036-0.214,0.054-0.32c0.09-0.542,0.195-1.086,0.321-1.629c0.036-0.158,0.071-0.311,0.106-0.471
	c0.124-0.49,0.258-0.971,0.409-1.46c0.054-0.187,0.116-0.372,0.178-0.559c0.151-0.446,0.312-0.888,0.489-1.326
	c0.079-0.205,0.15-0.416,0.239-0.623c0.188-0.428,0.392-0.854,0.596-1.271c0.099-0.205,0.188-0.4,0.286-0.593
	c0.284-0.556,0.595-1.089,0.916-1.611c0.044-0.063,0.07-0.127,0.106-0.182c0.284-0.461,0.754-0.763,1.28-0.834
	c0.179-0.028,0.357-0.028,0.534,0c0.72,0.115,1.308,0.64,1.484,1.342c0.33,1.247,0.722,2.438,1.149,3.595
	c0.336,0.925,0.692,1.822,1.058,2.659c0.204-8.884,3.566-17.656,9.642-24.577l5.924-6.741c0.348-0.391,0.844-0.623,1.37-0.623
	c0.292,0,0.577,0.071,0.827,0.206v-25.725c-22.3-0.497-34.36-10.015-38.247-13.75c-0.835,0.809-2.081,1.885-3.691,3.077
	c-0.124,0.89-0.854,1.582-1.779,1.582c-0.134,0-0.257-0.053-0.392-0.079c-1.173,0.766-2.48,1.539-3.957,2.313
	c0.418,0.339,0.711,0.826,0.711,1.414c0,1.008-0.818,1.814-1.823,1.814c-1.006,0-1.814-0.807-1.823-1.806
	c-3.664,1.655-8.086,3.14-13.308,4.154c0.34,0.329,0.552,0.783,0.552,1.299c0,1.005-0.809,1.823-1.813,1.823
	s-1.824-0.818-1.824-1.823c0-0.303,0.09-0.57,0.214-0.819c-2.357,0.349-4.865,0.598-7.525,0.712c0.009,0.036,0.026,0.07,0.026,0.107
	c0,1.005-0.819,1.823-1.823,1.823v7.284c1.004,0,1.823,0.819,1.823,1.823c0,1.006-0.819,1.824-1.823,1.824v7.283
	c1.004,0,1.823,0.82,1.823,1.824c0,1.007-0.819,1.814-1.823,1.814v7.294c1.004,0,1.823,0.809,1.823,1.813
	c0,0.999-0.791,1.789-1.777,1.815c0.07,2.509,0.291,4.99,0.667,7.444c0.648,0.278,1.11,0.92,1.11,1.675
	c0,0.523-0.223,0.985-0.568,1.313c0.951,4.627,2.419,9.091,4.394,13.302c0.916,0.097,1.638,0.841,1.638,1.776
	c0,0.338-0.116,0.64-0.276,0.906c0.701,1.318,1.459,2.589,2.25,3.834c0.285-0.642,0.925-1.093,1.673-1.093
	c1.005,0,1.813,0.817,1.813,1.822c0,0.987-0.781,1.78-1.76,1.806c2.686,3.744,5.816,7.133,9.357,10.068
	c-0.18-0.275-0.304-0.597-0.304-0.943c0-1.003,0.81-1.822,1.814-1.822c1.006,0,1.824,0.819,1.824,1.822
	c0,1.008-0.818,1.824-1.824,1.824c-0.213,0-0.427-0.061-0.613-0.134c0.071,0.065,0.143,0.134,0.222,0.195
	c1.361,1.067,2.749,2.057,4.164,2.981c0.248-0.713,0.906-1.227,1.698-1.227c1.005,0,1.814,0.816,1.814,1.823
	c0,0.481-0.188,0.896-0.488,1.228c3.104,1.741,6.313,3.141,9.596,4.152c5.391-1.664,10.568-4.322,15.423-7.918
	c-0.035-0.061-0.07-0.121-0.113-0.186C322.017,325.741,321.784,325.359,321.562,324.984z M274.161,297.865
	c-1.004,0-1.822-0.815-1.822-1.824c0-1.002,0.818-1.822,1.822-1.822c1.006,0,1.825,0.82,1.825,1.822
	C275.986,297.05,275.167,297.865,274.161,297.865z M274.161,286.933c-1.004,0-1.822-0.816-1.822-1.822s0.818-1.824,1.822-1.824
	c1.006,0,1.825,0.818,1.825,1.824S275.167,286.933,274.161,286.933z M274.161,276.001c-1.004,0-1.822-0.817-1.822-1.823
	c0-1.004,0.818-1.823,1.822-1.823c1.006,0,1.825,0.819,1.825,1.823C275.986,275.184,275.167,276.001,274.161,276.001z
	 M274.161,265.07c-1.004,0-1.822-0.818-1.822-1.822c0-1.006,0.818-1.816,1.822-1.816c1.006,0,1.825,0.811,1.825,1.816
	C275.986,264.252,275.167,265.07,274.161,265.07z M274.161,254.139c-1.004,0-1.822-0.81-1.822-1.815
	c0-1.013,0.818-1.821,1.822-1.821c1.006,0,1.825,0.809,1.825,1.821C275.986,253.329,275.167,254.139,274.161,254.139z
	 M279.624,303.327c-1.006,0-1.815-0.818-1.815-1.822c0-1.007,0.81-1.823,1.815-1.823c1.014,0,1.822,0.816,1.822,1.823
	C281.446,302.509,280.638,303.327,279.624,303.327z M279.624,292.397c-1.006,0-1.815-0.821-1.815-1.824
	c0-1.007,0.81-1.816,1.815-1.816c1.014,0,1.822,0.81,1.822,1.816C281.446,291.576,280.638,292.397,279.624,292.397z
	 M279.624,281.463c-1.006,0-1.815-0.809-1.815-1.813c0-1.016,0.81-1.824,1.815-1.824c1.014,0,1.822,0.809,1.822,1.824
	C281.446,280.654,280.638,281.463,279.624,281.463z M279.624,270.54c-1.006,0-1.815-0.816-1.815-1.823
	c0-1.004,0.81-1.824,1.815-1.824c1.014,0,1.822,0.82,1.822,1.824C281.446,269.724,280.638,270.54,279.624,270.54z M279.624,259.609
	c-1.006,0-1.815-0.818-1.815-1.824c0-1.004,0.81-1.823,1.815-1.823c1.014,0,1.822,0.819,1.822,1.823
	C281.446,258.791,280.638,259.609,279.624,259.609z M285.094,319.722c-1.005,0-1.824-0.82-1.824-1.825
	c0-1.006,0.819-1.815,1.824-1.815s1.823,0.81,1.823,1.815C286.917,318.901,286.099,319.722,285.094,319.722z M285.094,308.788
	c-1.005,0-1.824-0.811-1.824-1.815c0-1.012,0.819-1.822,1.824-1.822s1.823,0.811,1.823,1.822
	C286.917,307.978,286.099,308.788,285.094,308.788z M285.094,297.865c-1.005,0-1.824-0.815-1.824-1.824
	c0-1.002,0.819-1.822,1.824-1.822s1.823,0.82,1.823,1.822C286.917,297.05,286.099,297.865,285.094,297.865z M285.094,286.933
	c-1.005,0-1.824-0.816-1.824-1.822s0.819-1.824,1.824-1.824s1.823,0.818,1.823,1.824S286.099,286.933,285.094,286.933z
	 M285.094,276.001c-1.005,0-1.824-0.817-1.824-1.823c0-1.004,0.819-1.823,1.824-1.823s1.823,0.819,1.823,1.823
	C286.917,275.184,286.099,276.001,285.094,276.001z M285.094,265.07c-1.005,0-1.824-0.818-1.824-1.822
	c0-1.006,0.819-1.816,1.824-1.816s1.823,0.811,1.823,1.816C286.917,264.252,286.099,265.07,285.094,265.07z M285.094,254.139
	c-1.005,0-1.824-0.81-1.824-1.815c0-1.013,0.819-1.821,1.824-1.821s1.823,0.809,1.823,1.821
	C286.917,253.329,286.099,254.139,285.094,254.139z M290.555,314.259c-1.005,0-1.823-0.817-1.823-1.824
	c0-1.005,0.818-1.822,1.823-1.822c1.006,0,1.824,0.817,1.824,1.822C292.379,313.441,291.561,314.259,290.555,314.259z
	 M290.555,303.327c-1.005,0-1.823-0.818-1.823-1.822c0-1.007,0.818-1.823,1.823-1.823c1.006,0,1.824,0.816,1.824,1.823
	C292.379,302.509,291.561,303.327,290.555,303.327z M290.555,292.397c-1.005,0-1.823-0.821-1.823-1.824
	c0-1.007,0.818-1.816,1.823-1.816c1.006,0,1.824,0.81,1.824,1.816C292.379,291.576,291.561,292.397,290.555,292.397z
	 M290.555,281.463c-1.005,0-1.823-0.809-1.823-1.813c0-1.016,0.818-1.824,1.823-1.824c1.006,0,1.824,0.809,1.824,1.824
	C292.379,280.654,291.561,281.463,290.555,281.463z M290.555,270.54c-1.005,0-1.823-0.816-1.823-1.823
	c0-1.004,0.818-1.824,1.823-1.824c1.006,0,1.824,0.82,1.824,1.824C292.379,269.724,291.561,270.54,290.555,270.54z M290.555,259.609
	c-1.005,0-1.823-0.818-1.823-1.824c0-1.004,0.818-1.823,1.823-1.823c1.006,0,1.824,0.819,1.824,1.823
	C292.379,258.791,291.561,259.609,290.555,259.609z M290.555,248.678c-1.005,0-1.823-0.818-1.823-1.823s0.818-1.824,1.823-1.824
	c1.006,0,1.824,0.819,1.824,1.824S291.561,248.678,290.555,248.678z M296.025,319.722c-1.014,0-1.823-0.82-1.823-1.825
	c0-1.006,0.81-1.815,1.823-1.815c1.005,0,1.814,0.81,1.814,1.815C297.84,318.901,297.03,319.722,296.025,319.722z M296.025,308.788
	c-1.014,0-1.823-0.811-1.823-1.815c0-1.012,0.81-1.822,1.823-1.822c1.005,0,1.814,0.811,1.814,1.822
	C297.84,307.978,297.03,308.788,296.025,308.788z M296.025,297.865c-1.014,0-1.823-0.815-1.823-1.824
	c0-1.002,0.81-1.822,1.823-1.822c1.005,0,1.814,0.82,1.814,1.822C297.84,297.05,297.03,297.865,296.025,297.865z M296.025,286.933
	c-1.014,0-1.823-0.816-1.823-1.822s0.81-1.824,1.823-1.824c1.005,0,1.814,0.818,1.814,1.824S297.03,286.933,296.025,286.933z
	 M296.025,276.001c-1.014,0-1.823-0.817-1.823-1.823c0-1.004,0.81-1.823,1.823-1.823c1.005,0,1.814,0.819,1.814,1.823
	C297.84,275.184,297.03,276.001,296.025,276.001z M296.025,265.07c-1.014,0-1.823-0.818-1.823-1.822c0-1.006,0.81-1.816,1.823-1.816
	c1.005,0,1.814,0.811,1.814,1.816C297.84,264.252,297.03,265.07,296.025,265.07z M296.025,254.139c-1.014,0-1.823-0.81-1.823-1.815
	c0-1.013,0.81-1.821,1.823-1.821c1.005,0,1.814,0.809,1.814,1.821C297.84,253.329,297.03,254.139,296.025,254.139z M301.486,325.189
	c-1.005,0-1.822-0.816-1.822-1.824c0-1.003,0.817-1.822,1.822-1.822s1.824,0.819,1.824,1.822
	C303.311,324.373,302.491,325.189,301.486,325.189z M301.486,314.259c-1.005,0-1.822-0.817-1.822-1.824
	c0-1.005,0.817-1.822,1.822-1.822s1.824,0.817,1.824,1.822C303.311,313.441,302.491,314.259,301.486,314.259z M301.486,303.327
	c-1.005,0-1.822-0.818-1.822-1.822c0-1.007,0.817-1.823,1.822-1.823s1.824,0.816,1.824,1.823
	C303.311,302.509,302.491,303.327,301.486,303.327z M301.486,292.397c-1.005,0-1.822-0.821-1.822-1.824
	c0-1.007,0.817-1.816,1.822-1.816s1.824,0.81,1.824,1.816C303.311,291.576,302.491,292.397,301.486,292.397z M301.486,281.463
	c-1.005,0-1.822-0.809-1.822-1.813c0-1.016,0.817-1.824,1.822-1.824s1.824,0.809,1.824,1.824
	C303.311,280.654,302.491,281.463,301.486,281.463z M301.486,270.54c-1.005,0-1.822-0.816-1.822-1.823
	c0-1.004,0.817-1.824,1.822-1.824s1.824,0.82,1.824,1.824C303.311,269.724,302.491,270.54,301.486,270.54z M301.486,259.609
	c-1.005,0-1.822-0.818-1.822-1.824c0-1.004,0.817-1.823,1.822-1.823s1.824,0.819,1.824,1.823
	C303.311,258.791,302.491,259.609,301.486,259.609z M301.486,248.678c-1.005,0-1.822-0.818-1.822-1.823s0.817-1.824,1.822-1.824
	s1.824,0.819,1.824,1.824S302.491,248.678,301.486,248.678z M306.947,330.65c-1.005,0-1.813-0.818-1.813-1.821
	c0-1.007,0.809-1.823,1.813-1.823c1.015,0,1.824,0.816,1.824,1.823C308.771,329.832,307.962,330.65,306.947,330.65z
	 M306.947,319.722c-1.005,0-1.813-0.82-1.813-1.825c0-1.006,0.809-1.815,1.813-1.815c1.015,0,1.824,0.81,1.824,1.815
	C308.771,318.901,307.962,319.722,306.947,319.722z M306.947,308.788c-1.005,0-1.813-0.811-1.813-1.815
	c0-1.012,0.809-1.822,1.813-1.822c1.015,0,1.824,0.811,1.824,1.822C308.771,307.978,307.962,308.788,306.947,308.788z
	 M306.947,297.865c-1.005,0-1.813-0.815-1.813-1.824c0-1.002,0.809-1.822,1.813-1.822c1.015,0,1.824,0.82,1.824,1.822
	C308.771,297.05,307.962,297.865,306.947,297.865z M306.947,286.933c-1.005,0-1.813-0.816-1.813-1.822s0.809-1.824,1.813-1.824
	c1.015,0,1.824,0.818,1.824,1.824S307.962,286.933,306.947,286.933z M306.947,276.001c-1.005,0-1.813-0.817-1.813-1.823
	c0-1.004,0.809-1.823,1.813-1.823c1.015,0,1.824,0.819,1.824,1.823C308.771,275.184,307.962,276.001,306.947,276.001z
	 M306.947,265.07c-1.005,0-1.813-0.818-1.813-1.822c0-1.006,0.809-1.816,1.813-1.816c1.015,0,1.824,0.811,1.824,1.816
	C308.771,264.252,307.962,265.07,306.947,265.07z M306.947,254.139c-1.005,0-1.813-0.81-1.813-1.815
	c0-1.013,0.809-1.821,1.813-1.821c1.015,0,1.824,0.809,1.824,1.821C308.771,253.329,307.962,254.139,306.947,254.139z
	 M306.947,243.216c-1.005,0-1.813-0.815-1.813-1.823c0-1.005,0.809-1.822,1.813-1.822c1.015,0,1.824,0.817,1.824,1.822
	C308.771,242.4,307.962,243.216,306.947,243.216z"/>
<path stroke="#FFFFFF" d="M338.686,96.264c0,3.58-2.912,6.492-6.49,6.492v4.328c3.578,0,6.49,2.91,6.49,6.49h4.328
	c0-3.58,2.911-6.49,6.492-6.49v-4.328c-3.581,0-6.492-2.912-6.492-6.492H338.686L338.686,96.264z M340.85,107.148
	c-0.632-0.85-1.381-1.596-2.23-2.23c0.85-0.631,1.599-1.379,2.23-2.23c0.633,0.852,1.381,1.6,2.231,2.23
	C342.23,105.553,341.482,106.299,340.85,107.148L340.85,107.148z M340.85,107.148"/>
<path stroke="#FFFFFF" stroke-width="2" d="M10.6,121.536c0,5.293-4.311,9.6-9.6,9.6v6.403c5.289,0,9.6,4.308,9.6,9.601H17
	c0-5.293,4.307-9.601,9.602-9.601v-6.403c-5.295,0-9.602-4.307-9.602-9.6H10.6L10.6,121.536z M13.801,137.638
	c-0.936-1.258-2.041-2.367-3.297-3.3c1.256-0.935,2.361-2.042,3.297-3.3c0.936,1.258,2.041,2.365,3.299,3.3
	C15.842,135.271,14.736,136.38,13.801,137.638L13.801,137.638z M13.801,137.638"/>
<path stroke="#FFFFFF" d="M202.635,338.218c0,3.362-2.739,6.104-6.103,6.104v4.066c3.363,0,6.103,2.737,6.103,6.104h4.067
	c0-3.366,2.739-6.104,6.104-6.104v-4.066c-3.364,0-6.104-2.741-6.104-6.104H202.635L202.635,338.218z M204.669,348.45
	c-0.594-0.798-1.299-1.502-2.098-2.097c0.799-0.593,1.504-1.297,2.098-2.097c0.594,0.8,1.297,1.504,2.098,2.097
	C205.966,346.948,205.263,347.652,204.669,348.45L204.669,348.45z M204.669,348.45"/>
</svg>
