<?xml version="1.0" encoding="utf-8"?>
<!-- Generator: Adobe Illustrator 15.1.0, SVG Export Plug-In  -->
<!DOCTYPE svg PUBLIC "-//W3C//DTD SVG 1.1//EN" "http://www.w3.org/Graphics/SVG/1.1/DTD/svg11.dtd" [
	<!ENTITY ns_flows "http://ns.adobe.com/Flows/1.0/">
]>
<svg version="1.1"
	 xmlns="http://www.w3.org/2000/svg" xmlns:xlink="http://www.w3.org/1999/xlink" xmlns:a="http://ns.adobe.com/AdobeSVGViewerExtensions/3.0/"
	 x="0px" y="0px" width="500px" height="500px" viewBox="-65.656 23.088 500 500" enable-background="new -65.656 23.088 500 500"
	 xml:space="preserve">
<defs>
</defs>
<path d="M224.454,201.705v9.515c-12.262-9.21-27.223-14.253-42.628-14.253c-16.959,0-33.389,6.093-46.261,17.15l3.086,3.594
	c12.015-10.323,27.347-16.006,43.175-16.006c13.532,0,26.684,4.186,37.73,11.84h-6.943v4.737h14.209c1.309,0,2.368-1.062,2.368-2.37
	v-14.207H224.454z M224.454,201.705"/>
<path d="M225.001,318.315c-12.015,10.324-27.346,16.008-43.175,16.008c-13.532,0-26.684-4.187-37.73-11.841h6.943v-4.737h-14.21
	c-1.31,0-2.367,1.061-2.367,2.369v14.209h4.737v-9.516c12.261,9.21,27.221,14.251,42.626,14.251c16.958,0,33.39-6.091,46.261-17.148
	L225.001,318.315z M225.001,318.315"/>
<text transform="matrix(1 0 0 1 63.3438 20.0879)" font-family="'MyriadPro-Regular'" font-size="24">Migration Services</text>
<path stroke="#FFFFFF" stroke-width="2" d="M21.035,170.922c0,5.293-4.311,9.6-9.6,9.6v6.403c5.289,0,9.6,4.308,9.6,9.601h6.4
	c0-5.293,4.307-9.601,9.602-9.601v-6.403c-5.295,0-9.602-4.307-9.602-9.6H21.035L21.035,170.922z M24.235,187.023
	c-0.935-1.258-2.04-2.367-3.296-3.3c1.256-0.935,2.361-2.042,3.296-3.3c0.937,1.258,2.042,2.365,3.3,3.3
	C26.277,184.656,25.172,185.766,24.235,187.023L24.235,187.023z M24.235,187.023"/>
<path stroke="#FFFFFF" d="M341.572,208.982c0,3.58-2.912,6.492-6.49,6.492v4.328c3.578,0,6.49,2.91,6.49,6.49h4.328
	c0-3.58,2.911-6.49,6.492-6.49v-4.328c-3.581,0-6.492-2.912-6.492-6.492H341.572L341.572,208.982z M343.736,219.867
	c-0.632-0.85-1.381-1.596-2.23-2.23c0.85-0.631,1.599-1.379,2.23-2.23c0.633,0.852,1.381,1.6,2.231,2.23
	C345.117,218.271,344.369,219.018,343.736,219.867L343.736,219.867z M343.736,219.867"/>
<path stroke="#FFFFFF" d="M213.31,430.049c0,3.362-2.739,6.104-6.103,6.104v4.066c3.363,0,6.103,2.737,6.103,6.104h4.067
	c0-3.366,2.739-6.104,6.104-6.104v-4.066c-3.364,0-6.104-2.741-6.104-6.104H213.31L213.31,430.049z M215.344,440.281
	c-0.594-0.798-1.299-1.502-2.098-2.097c0.799-0.593,1.504-1.297,2.098-2.097c0.594,0.8,1.297,1.504,2.098,2.097
	C216.641,438.779,215.938,439.483,215.344,440.281L215.344,440.281z M215.344,440.281"/>
<path fill="none" stroke="#010101" stroke-width="5" stroke-linecap="square" stroke-linejoin="round" stroke-dasharray="0,12" d="
	M4.732,294.69c-15.26-94.927,49.33-184.238,144.264-199.505c94.928-15.244,184.244,49.346,199.49,144.279
	c15.262,94.915-49.324,184.242-144.26,199.502C109.301,454.22,19.984,389.622,4.732,294.69z"/>
<path d="M123.606,229.689c-16.636,0.654-29.344,7.898-29.344,17.052v44.015c0,9.597,13.962,17.118,31.789,17.118
	c17.826,0,31.788-7.521,31.788-17.118v-44.015c0-9.153-12.71-16.397-29.342-17.052 M152.946,290.756
	c0,5.783-11.044,12.226-26.895,12.226c-15.852,0-26.899-6.442-26.899-12.226v-5.455c5.581,4.776,15.43,7.9,26.899,7.9
	c11.469,0,21.316-3.124,26.895-7.9V290.756z M152.946,276.086c0,5.783-11.044,12.224-26.895,12.224
	c-15.852,0-26.899-6.44-26.899-12.224v-5.457c5.581,4.777,15.43,7.9,26.899,7.9c11.469,0,21.316-3.123,26.895-7.9V276.086z
	 M152.946,261.413c0,5.783-11.044,12.226-26.895,12.226c-15.852,0-26.899-6.442-26.899-12.226v-5.454
	c5.581,4.777,15.43,7.897,26.899,7.897c11.469,0,21.316-3.12,26.895-7.897V261.413z M152.946,246.741
	c0,5.783-11.044,12.227-26.895,12.227c-15.852,0-26.899-6.443-26.899-12.227c0-5.479,9.926-11.541,24.454-12.163h4.892
	C143.021,235.2,152.946,241.262,152.946,246.741L152.946,246.741z"/>
<path d="M231.481,229.689c-16.637,0.654-29.344,7.898-29.344,17.052v44.015c0,9.597,13.963,17.118,31.79,17.118
	c17.826,0,31.787-7.521,31.787-17.118v-44.015c0-9.153-12.708-16.397-29.341-17.052 M260.822,290.756
	c0,5.783-11.045,12.226-26.895,12.226c-15.851,0-26.899-6.442-26.899-12.226v-5.455c5.58,4.776,15.429,7.9,26.899,7.9
	s21.316-3.124,26.895-7.9V290.756z M260.822,276.086c0,5.783-11.045,12.224-26.895,12.224c-15.851,0-26.899-6.44-26.899-12.224
	v-5.457c5.58,4.777,15.429,7.9,26.899,7.9s21.316-3.123,26.895-7.9V276.086z M260.822,261.413c0,5.783-11.045,12.226-26.895,12.226
	c-15.851,0-26.899-6.442-26.899-12.226v-5.454c5.58,4.777,15.429,7.897,26.899,7.897s21.316-3.12,26.895-7.897V261.413z
	 M260.822,246.741c0,5.783-11.045,12.227-26.895,12.227c-15.851,0-26.899-6.443-26.899-12.227c0-5.479,9.926-11.541,24.453-12.163
	h4.892C250.897,235.2,260.822,241.262,260.822,246.741L260.822,246.741z"/>
<path stroke="#000000" d="M341.225,341.53h-39.613h-5.281h-18.487c-1.457,0-2.64,1.179-2.64,2.641v18.77
	c0,1.473,0.05,2.946,0.147,4.406c0.561,8.497,2.767,16.727,6.452,24.364c0.111,0.228,0.211,0.459,0.323,0.687
	c0.441,0.893,0.921,1.768,1.406,2.641c0.247,0.45,0.486,0.902,0.745,1.345c0.116,0.2,0.214,0.407,0.334,0.604l3.538,5.282
	c5.311,7.25,12.078,13.474,20.054,18.124c0.412,0.241,0.871,0.361,1.33,0.361c0.46,0,0.919-0.12,1.332-0.361
	c20.354-11.874,32.999-33.89,32.999-57.452v-18.77C343.864,342.709,342.682,341.53,341.225,341.53z M338.583,362.94
	c0,21.175-11.093,40.989-29.05,52.093c-7.411-4.581-13.627-10.661-18.402-17.692c-0.532-0.785-1.045-1.576-1.538-2.38
	c-0.307-0.505-0.617-1.008-0.915-1.523c-0.402-0.694-0.774-1.4-1.146-2.106c-0.319-0.608-0.647-1.209-0.944-1.828
	c-0.26-0.534-0.483-1.078-0.727-1.62c-0.694-1.553-1.331-3.134-1.899-4.744c-0.127-0.367-0.274-0.731-0.396-1.101
	c-0.274-0.837-0.516-1.686-0.754-2.535c-0.149-0.529-0.301-1.053-0.438-1.586c-0.2-0.783-0.375-1.577-0.542-2.372
	c-0.137-0.644-0.261-1.29-0.379-1.938c-0.127-0.714-0.248-1.429-0.35-2.147c-0.117-0.826-0.207-1.656-0.289-2.49
	c-0.057-0.57-0.125-1.142-0.168-1.714c-0.098-1.427-0.163-2.865-0.163-4.314v-16.129h58.1V362.94z"/>
<path stroke="#000000" d="M326.151,366.071l-19.259,19.261l-8.696-8.699l-3.733,3.736l10.563,10.563
	c0.516,0.515,1.192,0.774,1.867,0.774c0.678,0,1.352-0.26,1.869-0.774l21.124-21.127L326.151,366.071z M326.151,366.071"/>
<rect x="285.765" y="352.094" stroke="#000000" width="5.283" height="5.281"/>
<rect x="296.331" y="352.094" stroke="#000000" width="5.281" height="5.281"/>
<rect x="306.892" y="352.094" stroke="#000000" width="5.283" height="5.281"/>
<rect x="317.457" y="352.094" stroke="#000000" width="5.281" height="5.281"/>
<rect x="328.02" y="352.094" stroke="#000000" width="5.282" height="5.281"/>
<path fill="#FFFFFF" stroke="#000000" d="M280.483,362.94c0,1.449,0.065,2.888,0.163,4.314c0.043,0.572,0.111,1.144,0.168,1.714
	c0.082,0.834,0.172,1.664,0.289,2.49c0.102,0.719,0.223,1.434,0.35,2.147c0.118,0.648,0.242,1.295,0.379,1.938
	c0.167,0.795,0.343,1.589,0.542,2.372c0.137,0.533,0.289,1.057,0.438,1.586c0.238,0.85,0.479,1.698,0.754,2.535
	c0.121,0.369,0.268,0.733,0.396,1.101c0.568,1.61,1.205,3.191,1.899,4.744c0.243,0.542,0.467,1.086,0.727,1.62
	c0.297,0.619,0.625,1.22,0.944,1.828c0.372,0.706,0.744,1.412,1.146,2.106c0.297,0.516,0.608,1.019,0.915,1.523
	c0.493,0.804,1.006,1.595,1.538,2.38c4.775,7.031,10.991,13.111,18.402,17.692c17.957-11.104,29.05-30.918,29.05-52.093v-16.129
	h-58.1V362.94z M328.02,352.094h5.282v5.281h-5.282V352.094z M317.457,352.094h5.281v5.281h-5.281V352.094z M306.892,352.094h5.283
	v5.281h-5.283V352.094z M296.331,352.094h5.281v5.281h-5.281V352.094z M298.196,376.633l8.696,8.699l19.259-19.261l3.733,3.733
	l-21.124,21.127c-0.517,0.515-1.19,0.774-1.869,0.774c-0.674,0-1.351-0.26-1.867-0.774l-10.563-10.563L298.196,376.633z
	 M285.765,352.094h5.283v5.281h-5.283V352.094z"/>
<circle fill="#FFFFFF" cx="264.511" cy="308.248" r="23.613"/>
<path stroke="#000000" d="M265.664,304.269v-12.142h-2v12.142c-1.72,0.446-3,1.998-3,3.856c0,0.308,0.042,0.604,0.108,0.893
	l-9.585,5.229l0.957,1.755l9.559-5.213c0.731,0.814,1.783,1.336,2.961,1.336c2.205,0,4-1.793,4-4
	C268.664,306.267,267.385,304.715,265.664,304.269L265.664,304.269z M264.665,310.125c-1.103,0-2-0.897-2-2c0-1.104,0.897-2,2-2
	c1.102,0,2,0.896,2,2C266.664,309.228,265.767,310.125,264.665,310.125L264.665,310.125z M264.665,310.125"/>
<path stroke="#000000" d="M294.074,316.124l7-6.999h-16.439c0.017-0.338,0.027-0.672,0.027-1c0-11.027-8.971-19.997-19.998-19.997
	c-11.027,0-19.998,8.97-19.998,19.997s8.97,19.998,19.998,19.998c5.816,0,11.228-2.503,14.998-6.804v9.216l6.999-6.997l7.999,7.999
	l7.414-7.414L294.074,316.124z M279.662,318.035c-3.354,5.068-8.935,8.088-14.998,8.088c-9.924,0-17.998-8.075-17.998-17.998
	c0-9.924,8.073-17.997,17.998-17.997c9.923,0,17.998,8.073,17.998,17.997c0,0.323-0.034,0.665-0.055,1h-2.945V318.035z
	 M286.661,320.709l-4.999,4.999v-14.585h14.584l-5,5.001l8.001,7.999l-4.587,4.586L286.661,320.709z M286.661,320.709"/>
<rect x="285.662" y="301.126" stroke="#000000" width="2" height="4"/>
<path stroke="#000000" d="M278.178,309.056l-2.828-2.829l1.413-1.413l2.828,2.827L278.178,309.056z M278.178,309.056"/>
<rect x="271.664" y="315.123" stroke="#000000" width="4" height="2.001"/>
<path stroke="#000000" d="M276.762,327.432l-1.415-1.413l2.828-2.829l1.414,1.415L276.762,327.432z M276.762,327.432"/>
<rect x="285.662" y="327.121" stroke="#000000" width="2" height="4"/>
<rect x="297.661" y="315.123" stroke="#000000" width="4" height="2.001"/>
<path stroke="#000000" d="M296.558,304.813l1.415,1.415l-2.829,2.827l-1.415-1.413L296.558,304.813z M296.558,304.813"/>
<path stroke="#000000" d="M264.665,330.122c-12.129,0-21.998-9.868-21.998-21.997s9.869-21.998,21.998-21.998
	c8.838,0,16.787,5.257,20.249,13.391l1.84-0.784c-3.246-7.623-10.107-12.917-18.089-14.261v-3.886c1.224-1.098,2-2.686,2-4.457
	c0-3.311-2.691-6.001-5.999-6.001c-3.309,0-6,2.69-6,6.001c0,1.77,0.775,3.358,2,4.457v3.882
	c-11.334,1.909-19.997,11.787-19.997,23.656c0,13.232,10.765,23.997,23.997,23.997c3.649,0,7.161-0.806,10.435-2.391l-0.871-1.802
	C271.228,329.385,268.01,330.122,264.665,330.122L264.665,330.122z M266.664,284.217c-0.663-0.054-1.327-0.088-2-0.088
	c-0.674,0-1.34,0.034-2,0.09v-2.44c0.625,0.224,1.298,0.351,2,0.351s1.373-0.129,2-0.351V284.217z M264.665,272.13
	c2.205,0,4,1.794,4,4c0,2.204-1.795,3.999-4,3.999c-2.206,0-4-1.795-4-3.999C260.665,273.924,262.459,272.13,264.665,272.13
	L264.665,272.13z M264.665,272.13"/>
</svg>
