<?xml version="1.0" encoding="utf-8"?>
<!-- Generator: Adobe Illustrator 15.1.0, SVG Export Plug-In  -->
<!DOCTYPE svg PUBLIC "-//W3C//DTD SVG 1.1//EN" "http://www.w3.org/Graphics/SVG/1.1/DTD/svg11.dtd" [
	<!ENTITY ns_flows "http://ns.adobe.com/Flows/1.0/">
]>
<svg version="1.1"
	 xmlns="http://www.w3.org/2000/svg" xmlns:xlink="http://www.w3.org/1999/xlink" xmlns:a="http://ns.adobe.com/AdobeSVGViewerExtensions/3.0/"
	 x="0px" y="0px" width="500px" height="500px" viewBox="-72.51 -69.687 500 500" enable-background="new -72.51 -69.687 500 500"
	 xml:space="preserve">
<defs>
</defs>
<path fill="none" stroke="#010101" stroke-width="5" stroke-linecap="square" stroke-linejoin="round" stroke-dasharray="0,12" d="
	M4.744,205.253C-10.593,109.846,54.324,20.083,149.737,4.74c95.407-15.321,185.176,49.595,200.499,145.008
	c15.339,95.395-49.574,185.173-144.989,200.51C109.842,365.588,20.073,300.665,4.744,205.253z"/>
<path stroke="#FFFFFF" stroke-width="2" d="M19.318,86.016c0,5.293-4.311,9.6-9.6,9.6v6.403c5.289,0,9.6,4.308,9.6,9.601h6.4
	c0-5.293,4.307-9.601,9.602-9.601v-6.403c-5.295,0-9.602-4.307-9.602-9.6H19.318L19.318,86.016z M22.519,102.118
	c-0.935-1.258-2.04-2.367-3.296-3.3c1.256-0.935,2.361-2.042,3.296-3.3c0.937,1.258,2.042,2.365,3.3,3.3
	C24.561,99.75,23.455,100.86,22.519,102.118L22.519,102.118z M22.519,102.118"/>
<path stroke="#FFFFFF" d="M345.855,124.077c0,3.58-2.912,6.492-6.49,6.492v4.328c3.578,0,6.49,2.91,6.49,6.49h4.328
	c0-3.58,2.911-6.49,6.492-6.49v-4.328c-3.581,0-6.492-2.912-6.492-6.492H345.855L345.855,124.077z M348.02,134.961
	c-0.632-0.85-1.381-1.596-2.23-2.23c0.85-0.631,1.599-1.379,2.23-2.23c0.633,0.852,1.381,1.6,2.231,2.23
	C349.4,133.366,348.652,134.112,348.02,134.961L348.02,134.961z M348.02,134.961"/>
<path stroke="#FFFFFF" d="M204.593,341.143c0,3.362-2.739,6.104-6.103,6.104v4.066c3.363,0,6.103,2.737,6.103,6.104h4.067
	c0-3.366,2.739-6.104,6.104-6.104v-4.066c-3.364,0-6.104-2.741-6.104-6.104H204.593L204.593,341.143z M206.627,351.375
	c-0.594-0.798-1.299-1.502-2.098-2.097c0.799-0.593,1.504-1.297,2.098-2.097c0.594,0.8,1.297,1.504,2.098,2.097
	C207.924,349.874,207.221,350.578,206.627,351.375L206.627,351.375z M206.627,351.375"/>
<path d="M149.59,132.035h4.521v-0.164c-1.509,0-2.925,0-4.521,0V132.035z"/>
<path d="M207.899,107.639c-0.753-0.197-1.549,0.153-1.927,0.839l-8.662,15.88l-12.266-26.068c-0.283-0.6-0.886-0.983-1.551-0.983
	c-0.664,0-1.268,0.383-1.55,0.983l-12.267,26.068l-8.662-15.88c-0.377-0.687-1.17-1.035-1.926-0.839
	c-0.76,0.193-1.291,0.877-1.291,1.661v25.571c1.209,0,2.282,0,3.426,0v-18.853l7.062,12.945c0.311,0.566,0.937,0.904,1.553,0.893
	c0.647-0.021,1.226-0.4,1.503-0.984l12.152-25.828l12.154,25.828c0.275,0.584,0.855,0.963,1.501,0.984
	c0.653,0.003,1.245-0.326,1.554-0.893l7.062-12.945v18.853c1.241,0,2.204,0,3.426,0v-25.571
	C209.19,108.516,208.66,107.832,207.899,107.639z"/>
<rect x="226.441" y="118.472" width="4.52" height="4.521"/>
<rect x="235.481" y="118.472" width="4.521" height="4.521"/>
<rect x="235.481" y="127.514" width="4.521" height="4.521"/>
<rect x="235.481" y="109.431" width="4.521" height="4.521"/>
<rect x="136.029" y="118.472" width="4.519" height="4.521"/>
<rect x="126.987" y="118.472" width="4.521" height="4.521"/>
<rect x="126.987" y="109.431" width="4.521" height="4.521"/>
<rect x="126.987" y="127.514" width="4.521" height="4.521"/>
<path d="M183.494,116.024c-2.636,0-4.781,2.502-4.781,5.579c0,3.076,2.146,5.578,4.781,5.578c2.637,0,4.781-2.501,4.781-5.578
	C188.275,118.526,186.131,116.024,183.494,116.024L183.494,116.024z M183.494,123.993c-0.848,0-1.594-1.117-1.594-2.39
	s0.746-2.391,1.594-2.391c0.849,0,1.594,1.118,1.594,2.391S184.343,123.993,183.494,123.993L183.494,123.993z M183.494,123.993"/>
<path d="M240.002,91.349c-3.738,0-6.78-3.043-6.78-6.782c0-1.25-1.012-2.26-2.261-2.26c-1.25,0-2.26,1.01-2.26,2.26
	c0,3.738-3.043,6.782-6.781,6.782c-1.25,0-2.261,1.01-2.261,2.26c0,1.25,1.011,2.26,2.261,2.26c3.738,0,6.781,3.043,6.781,6.782
	c0,1.25,1.01,2.26,2.26,2.26c1.249,0,2.261-1.01,2.261-2.26c0-3.738,3.042-6.782,6.78-6.782c1.251,0,2.26-1.01,2.26-2.26
	C242.262,92.359,241.253,91.349,240.002,91.349L240.002,91.349z M230.961,95.876c-0.645-0.858-1.408-1.623-2.267-2.267
	c0.858-0.644,1.622-1.409,2.267-2.267c0.644,0.858,1.408,1.623,2.268,2.267C232.369,94.253,231.604,95.018,230.961,95.876
	L230.961,95.876z M230.961,95.876"/>
<path d="M214.657,176.86h-44.302c-0.978,0-1.773,0.795-1.773,1.773s0.796,1.773,1.773,1.773h44.302c0.978,0,1.774-0.795,1.774-1.773
	S215.635,176.86,214.657,176.86L214.657,176.86z M214.657,176.86"/>
<path d="M170.355,166.225h17.721c0.978,0,1.773-0.787,1.773-1.774c0-0.978-0.796-1.765-1.773-1.765h-17.721
	c-0.978,0-1.773,0.787-1.773,1.765C168.582,165.438,169.378,166.225,170.355,166.225L170.355,166.225z M170.355,166.225"/>
<path d="M214.657,191.033h-44.302c-0.978,0-1.773,0.795-1.773,1.773c0,0.978,0.796,1.773,1.773,1.773h44.302
	c0.978,0,1.774-0.795,1.774-1.773C216.432,191.828,215.635,191.033,214.657,191.033L214.657,191.033z M214.657,191.033"/>
<path d="M214.657,205.213h-44.302c-0.978,0-1.773,0.788-1.773,1.775c0,0.976,0.796,1.765,1.773,1.765h44.302
	c0.978,0,1.774-0.789,1.774-1.765C216.432,206.001,215.635,205.213,214.657,205.213L214.657,205.213z M214.657,205.213"/>
<path d="M214.657,219.387h-44.302c-0.978,0-1.773,0.797-1.773,1.773c0,0.979,0.796,1.775,1.773,1.775h44.302
	c0.978,0,1.774-0.796,1.774-1.775C216.432,220.184,215.635,219.387,214.657,219.387L214.657,219.387z M214.657,219.387"/>
<path d="M221.745,158.403v-25.846h-76.196v97.463h8.86v8.861h76.194v-71.619L221.745,158.403z M205.797,147.466l18.758,18.759
	h-18.758V147.466z M149.097,226.473v-90.368h69.108v18.76l-13.447-13.447h-50.349v85.055H149.097z M157.957,235.333v-90.367h44.302
	v24.806h24.807v65.561H157.957z M157.957,235.333"/>
<ellipse fill="#FFFFFF" cx="306.236" cy="284.589" rx="55.746" ry="54.943"/>
<rect x="294.729" y="268.566" width="3.768" height="3.769"/>
<rect x="287.194" y="268.566" width="3.768" height="3.769"/>
<rect x="279.659" y="268.566" width="3.768" height="3.769"/>
<path d="M366.315,287.405h-5.652v-35.793c0-5.194-4.225-9.419-9.419-9.419H307.04l-6.977-10.465
	c-0.35-0.523-0.938-0.838-1.566-0.838h-26.373c-0.631,0-1.218,0.315-1.568,0.838l-7.049,10.574c-4.68,0.545-8.338,4.487-8.338,9.31
	v64.051c0,5.193,4.226,9.419,9.419,9.419h60.31c4.082,7.604,10.195,14.108,17.862,18.581c0.292,0.171,0.622,0.257,0.949,0.257
	c0.328,0,0.658-0.086,0.95-0.257c14.52-8.471,23.54-24.176,23.54-40.985v-13.39C368.199,288.247,367.357,287.405,366.315,287.405
	L366.315,287.405z M273.131,234.657h24.358l5.023,7.535h-34.405L273.131,234.657z M264.588,245.96h86.656
	c3.116,0,5.652,2.536,5.652,5.651v7.536h-36.773l-6.968-8.713c-0.358-0.446-0.898-0.706-1.472-0.706h-52.401
	C260.063,247.542,262.136,245.96,264.588,245.96L264.588,245.96z M264.588,321.314c-3.116,0-5.651-2.536-5.651-5.651v-62.167h51.844
	l6.968,8.712c0.357,0.448,0.898,0.707,1.472,0.707h37.677v24.49h-35.794c-1.041,0-1.883,0.842-1.883,1.883v13.39
	c0,0.935,0.037,1.874,0.095,2.807c0.018,0.315,0.045,0.628,0.071,0.943c0.051,0.625,0.112,1.249,0.188,1.872
	c0.043,0.353,0.085,0.702,0.136,1.053c0.096,0.665,0.209,1.328,0.334,1.989c0.047,0.256,0.086,0.514,0.137,0.77
	c0.181,0.891,0.395,1.774,0.626,2.653c0.064,0.249,0.141,0.493,0.211,0.741c0.195,0.696,0.404,1.384,0.633,2.071
	c0.074,0.225,0.15,0.446,0.228,0.67c0.285,0.818,0.589,1.626,0.917,2.426c0.021,0.057,0.042,0.113,0.067,0.168
	c0.062,0.158,0.118,0.318,0.184,0.472H264.588z M364.432,302.678c0,15.106-7.91,29.24-20.723,37.161
	c-7.149-4.418-12.769-10.777-16.342-18.157c-0.079-0.163-0.153-0.327-0.229-0.489c-0.294-0.626-0.574-1.261-0.839-1.904
	c-0.098-0.239-0.193-0.48-0.287-0.722c-0.219-0.557-0.426-1.12-0.622-1.688c-0.111-0.322-0.221-0.646-0.324-0.972
	c-0.156-0.492-0.302-0.987-0.44-1.484c-0.109-0.389-0.217-0.776-0.314-1.166c-0.113-0.451-0.213-0.902-0.311-1.357
	c-0.092-0.425-0.187-0.851-0.266-1.278c-0.083-0.449-0.15-0.902-0.222-1.354c-0.065-0.426-0.135-0.85-0.189-1.277
	c-0.064-0.515-0.108-1.036-0.152-1.556c-0.032-0.361-0.074-0.723-0.097-1.087c-0.057-0.885-0.089-1.776-0.089-2.67v-11.505h41.445
	V302.678z M364.432,302.678"/>
<path d="M355.563,304.912l-13.738,13.739l-6.203-6.204l-2.664,2.664l7.535,7.536c0.368,0.367,0.85,0.552,1.332,0.552
	s0.964-0.185,1.332-0.552l15.07-15.072L355.563,304.912z M355.563,304.912"/>
<rect x="326.755" y="294.941" width="3.768" height="3.767"/>
<rect x="334.29" y="294.941" width="3.768" height="3.767"/>
<rect x="341.825" y="294.941" width="3.768" height="3.767"/>
<rect x="349.36" y="294.941" width="3.768" height="3.767"/>
<rect x="356.896" y="294.941" width="3.767" height="3.767"/>
<path d="M289.078,257.264c-13.733,0-24.49,5.792-24.49,13.186v33.91c0,7.394,10.757,13.186,24.49,13.186
	c13.732,0,24.489-5.792,24.489-13.186v-33.91C313.567,263.057,302.811,257.264,289.078,257.264L289.078,257.264z M309.8,304.36
	c0,4.455-8.512,9.419-20.722,9.419c-12.211,0-20.723-4.965-20.723-9.419v-4.205c4.3,3.68,11.885,6.088,20.723,6.088
	c8.837,0,16.423-2.408,20.722-6.088V304.36z M309.8,293.056c0,4.456-8.512,9.419-20.722,9.419c-12.211,0-20.723-4.964-20.723-9.419
	v-4.205c4.3,3.682,11.885,6.089,20.723,6.089c8.837,0,16.423-2.408,20.722-6.089V293.056z M309.8,281.754
	c0,4.455-8.512,9.419-20.722,9.419c-12.211,0-20.723-4.964-20.723-9.419v-4.205c4.3,3.681,11.885,6.088,20.723,6.088
	c8.837,0,16.423-2.408,20.722-6.088V281.754z M289.078,279.869c-12.211,0-20.723-4.964-20.723-9.419
	c0-4.454,8.512-9.419,20.723-9.419c12.21,0,20.722,4.965,20.722,9.419C309.8,274.905,301.288,279.869,289.078,279.869
	L289.078,279.869z M289.078,279.869"/>
<path stroke="#000000" stroke-width="0.5" d="M149.853,236.724h-15.677c-1.181,0-2.143,0.961-2.143,2.143v4.808
	c0,1.182,0.962,2.143,2.143,2.143h15.677c1.181,0,2.143-0.961,2.143-2.143v-4.808C151.995,237.686,151.033,236.724,149.853,236.724
	L149.853,236.724z M149.24,243.063h-14.451v-3.583h14.451V243.063z M149.24,243.063"/>
<path stroke="#000000" stroke-width="0.5" d="M176.854,224.816l0.022-0.01l-10.33-20.421c-0.834-1.65-2.502-2.676-4.352-2.676
	h-1.963v-1.897c0-0.761-0.615-1.377-1.377-1.377h-33.684c-0.76,0-1.377,0.617-1.377,1.377v1.897h-1.963
	c-1.849,0-3.516,1.026-4.352,2.676l-10.328,20.421l0.021,0.01c-0.441,0.729-0.697,1.583-0.697,2.497v21.573
	c0,2.661,2.164,4.824,4.824,4.824h61.428c2.66,0,4.824-2.164,4.824-4.824v-21.573C177.553,226.4,177.297,225.545,176.854,224.816
	L176.854,224.816z M160.232,204.77h1.963c0.689,0,1.311,0.381,1.621,0.997l8.458,16.722h-5.751v-5.145
	c0-0.761-0.617-1.377-1.377-1.377h-1.705v-7.389c0-0.761-0.616-1.378-1.377-1.378h-1.832V204.77z M163.769,218.721v3.768H156.5
	c-1.247,0-2.384,0.735-2.896,1.872l-1.984,4.401c-0.019,0.042-0.061,0.068-0.106,0.068h-18.998c-0.045,0-0.087-0.026-0.104-0.068
	l-1.986-4.401c-0.512-1.137-1.648-1.872-2.895-1.872h-7.27v-3.768H163.769z M126.551,201.188h30.928v6.011h-30.928V201.188z
	 M160.688,209.954v6.012h-37.346v-6.012H160.688z M120.211,205.767c0.313-0.615,0.934-0.997,1.621-0.997h1.963v2.429h-1.831
	c-0.761,0-1.377,0.617-1.377,1.377v7.389h-1.704c-0.762,0-1.377,0.617-1.377,1.377v5.146h-5.752L120.211,205.767z M172.729,250.649
	h-61.428c-0.973,0-1.764-0.791-1.764-1.763v-21.573c0-0.972,0.791-1.764,1.764-1.764h16.229c0.045,0,0.086,0.027,0.105,0.069
	l1.984,4.402c0.513,1.137,1.649,1.871,2.896,1.871h18.998c1.247,0,2.384-0.734,2.896-1.871l1.984-4.402
	c0.02-0.042,0.061-0.069,0.106-0.069h16.228c0.973,0,1.763,0.792,1.763,1.764v21.573C174.49,249.859,173.7,250.649,172.729,250.649
	L172.729,250.649z M172.729,250.649"/>
<rect x="126.551" y="201.188" fill="#FFFFFF" stroke="#000000" stroke-width="0.5" width="30.928" height="6.011"/>
<rect x="123.342" y="209.954" fill="#FFFFFF" stroke="#000000" stroke-width="0.5" width="37.346" height="6.012"/>
<path fill="#FFFFFF" stroke="#000000" stroke-width="0.5" d="M117.506,217.343c0-0.761,0.615-1.377,1.377-1.377h1.704v-7.389
	c0-0.76,0.616-1.377,1.377-1.377h1.831v-2.429h-1.963c-0.688,0-1.309,0.381-1.621,0.997l-8.457,16.722h5.752V217.343z"/>
<path fill="#FFFFFF" stroke="#000000" stroke-width="0.5" d="M120.26,222.489h7.27c1.246,0,2.383,0.735,2.895,1.872l1.986,4.401
	c0.018,0.042,0.06,0.068,0.104,0.068h18.998c0.046,0,0.088-0.026,0.106-0.068l1.984-4.401c0.513-1.137,1.649-1.872,2.896-1.872
	h7.269v-3.768H120.26V222.489z"/>
<path fill="#FFFFFF" stroke="#000000" stroke-width="0.5" d="M163.441,208.578v7.389h1.705c0.76,0,1.377,0.616,1.377,1.377v5.145
	h5.751l-8.458-16.722c-0.311-0.615-0.932-0.997-1.621-0.997h-1.963v2.43h1.832C162.825,207.2,163.441,207.816,163.441,208.578z"/>
<path fill="#FFFFFF" stroke="#000000" stroke-width="0.5" d="M172.728,225.549H156.5c-0.046,0-0.087,0.027-0.106,0.069l-1.984,4.402
	c-0.513,1.137-1.649,1.871-2.896,1.871h-18.998c-1.246,0-2.383-0.734-2.896-1.871l-1.984-4.402c-0.02-0.042-0.061-0.069-0.105-0.069
	h-16.229c-0.973,0-1.764,0.792-1.764,1.764v21.573c0,0.972,0.791,1.763,1.764,1.763h61.428c0.972,0,1.762-0.791,1.762-1.763v-21.573
	C174.49,226.341,173.7,225.549,172.728,225.549z M151.995,243.674c0,1.182-0.962,2.143-2.143,2.143h-15.677
	c-1.181,0-2.143-0.961-2.143-2.143v-4.808c0-1.181,0.962-2.143,2.143-2.143h15.677c1.181,0,2.143,0.961,2.143,2.143V243.674z"/>
<rect x="134.789" y="239.479" fill="#FFFFFF" stroke="#000000" stroke-width="0.5" width="14.451" height="3.583"/>
</svg>
