<?xml version="1.0" encoding="utf-8"?>
<!-- Generator: Adobe Illustrator 15.1.0, SVG Export Plug-In  -->
<!DOCTYPE svg PUBLIC "-//W3C//DTD SVG 1.1//EN" "http://www.w3.org/Graphics/SVG/1.1/DTD/svg11.dtd" [
	<!ENTITY ns_flows "http://ns.adobe.com/Flows/1.0/">
]>
<svg version="1.1"
	 xmlns="http://www.w3.org/2000/svg" xmlns:xlink="http://www.w3.org/1999/xlink" xmlns:a="http://ns.adobe.com/AdobeSVGViewerExtensions/3.0/"
	 x="0px" y="0px" width="500px" height="500px" viewBox="-65.946 -74.128 500 500" enable-background="new -65.946 -74.128 500 500"
	 xml:space="preserve">
<defs>
</defs>
<path fill="none" stroke="#010101" stroke-width="5" stroke-linecap="square" stroke-linejoin="round" stroke-dasharray="0,12" d="
	M4.744,210.372C-10.594,114.965,54.324,25.203,149.737,9.859c95.407-15.321,185.175,49.595,200.498,145.008
	c15.339,95.395-49.574,185.173-144.988,200.51C109.84,370.708,20.073,305.783,4.744,210.372z"/>
<path stroke="#FFFFFF" d="M351.021,179.825c0,3.58-2.912,6.492-6.491,6.492v4.328c3.579,0,6.491,2.91,6.491,6.49h4.327
	c0-3.58,2.912-6.49,6.492-6.49v-4.328c-3.58,0-6.492-2.912-6.492-6.492H351.021L351.021,179.825z M353.184,190.71
	c-0.631-0.85-1.379-1.596-2.229-2.23c0.85-0.631,1.598-1.379,2.229-2.23c0.634,0.852,1.381,1.6,2.232,2.23
	C354.565,189.114,353.818,189.86,353.184,190.71L353.184,190.71z M353.184,190.71"/>
<path stroke="#FFFFFF" stroke-width="2" d="M205.152,1c0,5.293-4.31,9.6-9.601,9.6v6.403c5.291,0,9.601,4.308,9.601,9.601h6.401
	c0-5.293,4.306-9.601,9.602-9.601V10.6c-5.296,0-9.602-4.307-9.602-9.6H205.152L205.152,1z M208.352,17.102
	c-0.936-1.258-2.041-2.367-3.296-3.3c1.255-0.935,2.36-2.042,3.296-3.3c0.937,1.258,2.043,2.365,3.299,3.3
	C210.395,14.734,209.289,15.844,208.352,17.102L208.352,17.102z M208.352,17.102"/>
<path d="M153.172,228.159c0-2.501-2.035-4.536-4.536-4.536h-24.539c1.211-3.404,1.859-6.949,1.859-10.583
	c0-17.506-14.243-31.75-31.75-31.75c-17.508,0-31.75,14.244-31.75,31.75s14.242,31.75,31.75,31.75v7.562
	c0,1.165,0.455,2.219,1.179,3.023c-0.726,0.803-1.179,1.857-1.179,3.023v9.071c0,2.501,2.035,4.537,4.536,4.537h49.893
	c2.501,0,4.536-2.035,4.536-4.537v-9.071c0-1.166-0.456-2.22-1.179-3.023c0.725-0.804,1.179-1.858,1.179-3.023v-9.073
	c0-1.165-0.456-2.219-1.179-3.022c0.725-0.806,1.179-1.859,1.179-3.024V228.159z M122.856,211.528H107.75
	c-0.182-4.391-1.107-8.519-2.403-12.231c3.51-1.424,6.738-3.52,9.494-6.196C119.51,197.932,122.483,204.388,122.856,211.528
	L122.856,211.528z M122.864,214.552c-0.163,3.115-0.797,6.16-1.957,9.071h-14.608c0.842-3.078,1.327-6.112,1.451-9.071H122.864z
	 M112.624,191.022c-2.437,2.341-5.278,4.165-8.362,5.426c-2.181-5.218-4.895-9.394-6.761-11.931
	C103.217,185.173,108.428,187.507,112.624,191.022L112.624,191.022z M104.735,211.53H83.678c0.183-3.998,1.057-7.797,2.265-11.234
	c2.661,0.771,5.438,1.185,8.264,1.185c2.826,0,5.603-0.411,8.263-1.185C103.677,203.731,104.553,207.529,104.735,211.53
	L104.735,211.53z M101.37,197.434c-2.313,0.647-4.714,1.022-7.163,1.022c-2.45,0-4.852-0.375-7.164-1.022
	c2.424-5.718,5.526-10.121,7.164-12.237C95.844,187.313,98.947,191.716,101.37,197.434L101.37,197.434z M90.912,184.517
	c-1.865,2.537-4.579,6.712-6.759,11.931c-3.083-1.261-5.926-3.084-8.362-5.426C79.986,187.507,85.196,185.173,90.912,184.517
	L90.912,184.517z M73.574,193.101c2.756,2.676,5.984,4.772,9.493,6.198c-1.295,3.71-2.22,7.841-2.402,12.231H65.558
	C65.931,204.388,68.903,197.932,73.574,193.101L73.574,193.101z M65.558,214.552h15.106c0.192,4.643,1.21,9.003,2.621,12.875
	c-3.499,1.292-6.758,3.2-9.614,5.662C68.943,228.246,65.934,221.745,65.558,214.552L65.558,214.552z M75.91,235.169
	c2.538-2.132,5.407-3.795,8.491-4.92c2.133,4.936,4.718,8.876,6.511,11.313C85.253,240.913,80.086,238.626,75.91,235.169
	L75.91,235.169z M94.207,240.887c-1.569-2.028-4.479-6.163-6.854-11.535c2.229-0.549,4.527-0.813,6.854-0.814v8.693
	c0,0.26,0.029,0.515,0.072,0.769c0.006,0.039,0.009,0.076,0.016,0.115c0.016,0.075,0.042,0.143,0.062,0.215
	c0.033,0.131,0.069,0.263,0.112,0.391c0.026,0.074,0.047,0.146,0.076,0.22c0.026,0.063,0.059,0.12,0.085,0.18
	c0.042,0.092,0.09,0.18,0.14,0.268c0.056,0.103,0.106,0.206,0.169,0.302c0.026,0.042,0.053,0.083,0.079,0.122
	C94.72,240.216,94.449,240.578,94.207,240.887L94.207,240.887z M95.088,225.496c-3.025-0.085-6.021,0.257-8.897,1.012
	c-1.339-3.62-2.319-7.677-2.515-11.956h21.054c-0.134,2.947-0.635,5.982-1.546,9.071h-4.441
	C97.24,223.624,95.916,224.366,95.088,225.496L95.088,225.496z M150.147,267.469c0,0.835-0.678,1.512-1.511,1.512H98.743
	c-0.834,0-1.513-0.677-1.513-1.512v-9.071c0-0.834,0.679-1.511,1.513-1.511h49.893c0.833,0,1.511,0.677,1.511,1.511V267.469z
	 M150.147,252.351c0,0.834-0.678,1.51-1.511,1.51H98.743c-0.834,0-1.513-0.676-1.513-1.51v-9.073c0-0.008,0.004-0.017,0.004-0.024
	c0.015-0.82,0.689-1.488,1.508-1.488h49.893c0.833,0,1.511,0.679,1.511,1.512V252.351z M150.147,237.231
	c0,0.835-0.678,1.511-1.511,1.511H98.743c-0.381,0-0.717-0.153-0.982-0.386c-0.043-0.035-0.085-0.07-0.123-0.11
	c-0.106-0.117-0.199-0.248-0.265-0.393c-0.015-0.033-0.024-0.065-0.037-0.097c-0.061-0.166-0.105-0.341-0.105-0.526v-9.072
	c0-0.834,0.679-1.511,1.513-1.511h49.893c0.833,0,1.511,0.677,1.511,1.511V237.231z M150.147,237.231"/>
<rect x="144.101" y="231.183" width="3.023" height="3.025"/>
<rect x="100.255" y="231.183" width="25.702" height="3.025"/>
<rect x="144.101" y="246.303" width="3.023" height="3.024"/>
<rect x="100.255" y="246.303" width="25.702" height="3.024"/>
<rect x="144.101" y="261.422" width="3.023" height="3.024"/>
<rect x="100.255" y="261.422" width="25.702" height="3.024"/>
<rect x="125.957" y="199.434" width="3.024" height="3.024"/>
<rect x="132.004" y="199.434" width="3.024" height="3.024"/>
<rect x="138.053" y="199.434" width="3.023" height="3.024"/>
<rect x="144.101" y="199.434" width="3.023" height="3.024"/>
<rect x="144.101" y="205.48" width="3.023" height="3.024"/>
<rect x="144.101" y="211.528" width="3.023" height="3.024"/>
<rect x="144.101" y="217.577" width="3.023" height="3.023"/>
<rect x="88.159" y="261.422" width="3.024" height="3.024"/>
<rect x="82.112" y="261.422" width="3.023" height="3.024"/>
<rect x="76.064" y="261.422" width="3.023" height="3.024"/>
<rect x="76.064" y="255.375" width="3.023" height="3.023"/>
<rect x="76.064" y="249.327" width="3.023" height="3.024"/>
<rect x="76.064" y="243.278" width="3.023" height="3.024"/>
<path stroke="#FFFFFF" stroke-width="4" d="M177.271,121.805c-30.072,0-54.535,24.463-54.535,54.533
	c0,19.414,5.904,27.195,34.281,64.605c4.927,6.495,10.509,13.854,16.898,22.37c0.791,1.056,2.034,1.679,3.356,1.679
	c1.32,0,2.563-0.623,3.355-1.679c6.35-8.471,11.909-15.803,16.813-22.273c28.444-37.516,34.365-45.323,34.365-64.702
	C231.804,146.268,207.34,121.805,177.271,121.805L177.271,121.805z M190.754,235.973c-4.027,5.311-8.495,11.207-13.485,17.84
	c-5.022-6.676-9.517-12.601-13.568-17.941c-27.601-36.388-32.574-42.941-32.574-59.533c0-25.444,20.701-46.144,46.145-46.144
	s46.143,20.699,46.143,46.144C223.414,192.896,218.427,199.472,190.754,235.973L190.754,235.973z M190.754,235.973"/>
<path stroke="#FFFFFF" stroke-width="4" d="M177.271,146.974c-16.194,0-29.365,13.172-29.365,29.364
	c0,16.191,13.171,29.363,29.365,29.363c16.191,0,29.364-13.171,29.364-29.363C206.635,160.146,193.462,146.974,177.271,146.974
	L177.271,146.974z M177.271,197.313c-11.567,0-20.975-9.408-20.975-20.975c0-11.567,9.408-20.974,20.975-20.974
	c11.564,0,20.974,9.407,20.974,20.974C198.244,187.904,188.835,197.313,177.271,197.313L177.271,197.313z M177.271,197.313"/>
<path fill="#FFFFFF" stroke="#FFFFFF" stroke-width="4" stroke-miterlimit="10" d="M177.271,129.495
	c-25.444,0-46.145,20.7-46.145,46.144c0,16.591,4.973,23.147,32.574,59.535c4.052,5.34,8.546,11.265,13.568,17.94
	c4.99-6.632,9.458-12.527,13.485-17.839c27.673-36.499,32.66-43.076,32.66-59.635C223.414,150.194,202.714,129.495,177.271,129.495z
	 M177.271,205.002c-16.194,0-29.365-13.172-29.365-29.364c0-16.191,13.171-29.363,29.365-29.363
	c16.191,0,29.364,13.172,29.364,29.363C206.635,191.83,193.462,205.002,177.271,205.002z"/>
<path fill="#FFFFFF" stroke="#FFFFFF" stroke-width="4" stroke-miterlimit="10" d="M177.271,154.665
	c-11.567,0-20.975,9.406-20.975,20.973c0,11.567,9.408,20.976,20.975,20.976c11.564,0,20.974-9.408,20.974-20.976
	C198.244,164.071,188.835,154.665,177.271,154.665z"/>
<path d="M268.771,251.38h-3.27v-5.235h3.27c0.986,0,1.785-0.797,1.785-1.782c0-0.988-0.799-1.786-1.785-1.786h-3.27v-4.146
	c0-1.773-1.444-3.219-3.218-3.219h-20.66v-9.604h3.607c0.985,0,1.784-0.797,1.784-1.784c0-0.985-0.798-1.785-1.784-1.785h-5.827
	v-13.676h0.118c0.985,0,1.784-0.798,1.784-1.783c0-0.986-0.799-1.784-1.784-1.784h-0.287c-0.163-0.593-0.444-1.187-0.845-1.771
	c-0.418-0.609-0.778-0.931-1.126-1.241c-0.157-0.141-0.32-0.284-0.521-0.483c-0.313-0.313-0.611-0.655-0.891-1.021v-1.948
	c0-0.985-0.798-1.785-1.785-1.785c-0.985,0-1.784,0.8-1.784,1.785v1.903c-0.291,0.382-0.601,0.743-0.927,1.067
	c-0.199,0.199-0.362,0.343-0.52,0.483c-0.348,0.31-0.708,0.632-1.126,1.241c-0.401,0.584-0.683,1.179-0.845,1.771h-0.287
	c-0.985,0-1.786,0.798-1.786,1.784c0,0.985,0.8,1.783,1.786,1.783h0.119v13.678h-23.709v-13.678h0.12
	c0.984,0,1.784-0.798,1.784-1.783c0-0.986-0.799-1.784-1.784-1.784h-0.289c-0.162-0.593-0.442-1.187-0.844-1.771
	c-0.417-0.609-0.777-0.931-1.127-1.241c-0.157-0.141-0.32-0.284-0.519-0.483c-0.313-0.313-0.612-0.655-0.891-1.021v-1.948
	c0-0.985-0.799-1.785-1.784-1.785c-0.986,0-1.786,0.8-1.786,1.785v1.903c-0.289,0.382-0.6,0.743-0.926,1.067
	c-0.2,0.199-0.362,0.343-0.52,0.483c-0.349,0.31-0.709,0.632-1.126,1.241c-0.401,0.584-0.682,1.178-0.844,1.771h-0.287
	c-0.986,0-1.785,0.798-1.785,1.784c0,0.985,0.798,1.783,1.785,1.783h0.119v13.678h-4.717c-0.986,0-1.785,0.797-1.785,1.783
	c0,0.986,0.799,1.784,1.785,1.784h2.498v9.604h-19.571c-1.774,0-3.217,1.445-3.217,3.219v4.146h-3.27
	c-0.986,0-1.785,0.798-1.785,1.786c0,0.985,0.799,1.782,1.785,1.782h3.27v5.235h-3.27c-0.986,0-1.785,0.799-1.785,1.785
	c0,3.423,2.086,6.365,5.054,7.627v33.006c0,0.985,0.799,1.783,1.785,1.783h92.659c0.985,0,1.784-0.798,1.784-1.783v-33.006
	c2.967-1.262,5.055-4.205,5.055-7.63C270.556,252.179,269.757,251.38,268.771,251.38L268.771,251.38z M198.797,204.449
	c0.175-0.156,0.394-0.351,0.663-0.62c0.06-0.059,0.118-0.117,0.176-0.177c0.058,0.06,0.116,0.119,0.174,0.177
	c0.27,0.269,0.489,0.463,0.665,0.62c0.167,0.15,0.271,0.245,0.366,0.349h-2.409C198.524,204.693,198.628,204.599,198.797,204.449
	L198.797,204.449z M172.842,238.782h19.221v12.598h-12.607v-5.235h6.304c0.984,0,1.783-0.797,1.783-1.782
	c0-0.988-0.797-1.786-1.783-1.786h-12.917V238.782z M172.842,246.146h3.044v5.235h-3.044V246.146z M168.139,254.949h23.924v2.933
	h-19.557C170.535,257.882,168.843,256.667,168.139,254.949L168.139,254.949z M192.063,261.45v7.226
	c-1.71-1.422-3.91-2.281-6.303-2.281c-2.396,0-4.594,0.859-6.304,2.281v-7.226H192.063z M201.42,292.014h-28.578V261.45h3.044
	v25.731c0,0.985,0.8,1.786,1.785,1.786c0.986,0,1.785-0.8,1.785-1.786v-10.912c0-3.476,2.827-6.305,6.304-6.305
	c3.476,0,6.303,2.829,6.303,6.305v10.912c0,0.985,0.799,1.786,1.785,1.786c0.984,0,1.785-0.8,1.785-1.786v-6.006h5.788V292.014z
	 M201.42,277.605h-5.788v-22.657h5.788V277.605z M201.42,251.38h-5.788v-12.598h5.788V251.38z M201.42,235.213h-5.788v-9.604h5.788
	V235.213z M201.42,222.04h-3.569v-13.676h3.569V222.04z M221.553,292.014h-9.732v-20.94c0-2.683,2.183-4.866,4.865-4.866
	c2.683,0,4.867,2.183,4.867,4.866V292.014z M228.697,292.014h-3.577v-20.94c0-4.65-3.784-8.435-8.435-8.435
	s-8.434,3.783-8.434,8.435v20.94h-3.264v-37.065h23.709V292.014z M228.697,251.38h-5.286v-7.017c0-0.988-0.799-1.786-1.785-1.786
	s-1.784,0.798-1.784,1.786v7.017h-5.717v-7.017c0-0.988-0.797-1.786-1.783-1.786c-0.987,0-1.784,0.798-1.784,1.786v7.017h-5.571
	v-12.598h23.709V251.38z M228.697,235.213h-23.709v-9.604h23.709V235.213z M241.623,238.782h20.309v3.795h-12.916
	c-0.986,0-1.785,0.798-1.785,1.786c0,0.985,0.799,1.782,1.785,1.782h5.457v5.235h-12.85V238.782z M261.934,246.146v5.235h-3.892
	v-5.235H261.934z M241.623,261.45h12.607v7.226c-1.712-1.422-3.909-2.279-6.305-2.279c-2.394,0-4.593,0.857-6.303,2.279V261.45z
	 M233.211,204.449c0.176-0.156,0.394-0.351,0.665-0.621c0.058-0.057,0.117-0.116,0.175-0.176c0.057,0.06,0.116,0.119,0.174,0.177
	c0.269,0.269,0.487,0.463,0.662,0.62c0.17,0.15,0.273,0.245,0.367,0.349h-2.409C232.938,204.693,233.042,204.599,233.211,204.449
	L233.211,204.449z M232.265,208.364h3.568v13.678h-3.568V208.364z M232.265,225.608h5.788v9.604h-5.788V225.608z M232.265,238.782
	h5.788v12.598h-5.788V238.782z M232.265,254.949h5.788v22.66h-5.788V254.949z M261.934,292.014h-29.669v-10.84h5.788v6.007
	c0,0.985,0.8,1.785,1.786,1.785c0.984,0,1.784-0.799,1.784-1.785v-10.913c0-3.476,2.829-6.305,6.303-6.305
	c3.476,0,6.305,2.829,6.305,6.305v10.912c0,0.985,0.798,1.786,1.784,1.786c0.985,0,1.785-0.8,1.785-1.786V261.45h4.135V292.014z
	 M262.268,257.882h-20.645v-2.933h25.014C265.931,256.667,264.238,257.882,262.268,257.882L262.268,257.882z M262.268,257.882"/>
<rect x="197.851" y="208.061" fill="#FFFFFF" width="3.569" height="13.676"/>
<rect x="195.632" y="238.479" fill="#FFFFFF" width="5.788" height="12.599"/>
<rect x="195.632" y="225.306" fill="#FFFFFF" width="5.788" height="9.604"/>
<path fill="#FFFFFF" d="M204.988,291.711h3.264v-20.939c0-4.651,3.784-8.435,8.435-8.435s8.435,3.785,8.435,8.435v20.939h3.577
	v-37.065h-23.709V291.711z"/>
<path fill="#FFFFFF" d="M216.686,265.906c-2.683,0-4.866,2.182-4.866,4.866v20.939h9.732v-20.939
	C221.553,268.087,219.369,265.906,216.686,265.906z"/>
<rect x="195.632" y="254.646" fill="#FFFFFF" width="5.788" height="22.657"/>
<rect x="172.842" y="245.843" fill="#FFFFFF" width="3.045" height="5.234"/>
<path fill="#FFFFFF" d="M187.543,244.06c0,0.985-0.799,1.783-1.784,1.783h-6.304v5.234h12.607v-12.599h-19.221v3.796h12.917
	C186.745,242.274,187.543,243.073,187.543,244.06z"/>
<path fill="#FFFFFF" d="M200.475,204.145c-0.175-0.156-0.395-0.35-0.665-0.619c-0.059-0.058-0.116-0.117-0.175-0.177
	c-0.057,0.06-0.115,0.119-0.175,0.177c-0.27,0.269-0.488,0.463-0.664,0.619c-0.167,0.151-0.273,0.246-0.365,0.349h2.409
	C200.747,204.391,200.643,204.296,200.475,204.145z"/>
<path fill="#FFFFFF" d="M192.063,254.646h-23.924c0.704,1.719,2.396,2.933,4.368,2.933h19.556V254.646z"/>
<path fill="#FFFFFF" d="M195.632,286.878c0,0.985-0.8,1.785-1.784,1.785c-0.985,0-1.785-0.799-1.785-1.785v-10.912
	c0-3.477-2.827-6.305-6.303-6.305c-3.477,0-6.304,2.828-6.304,6.305v10.912c0,0.985-0.799,1.785-1.784,1.785
	s-1.784-0.799-1.784-1.785v-25.732h-3.045v30.565h28.578v-10.839h-5.788V286.878z"/>
<path fill="#FFFFFF" d="M185.759,266.092c2.394,0,4.593,0.859,6.303,2.281v-7.227h-12.607v7.227
	C181.166,266.951,183.364,266.092,185.759,266.092z"/>
<path fill="#FFFFFF" d="M204.988,251.077h5.571v-7.018c0-0.987,0.797-1.785,1.784-1.785c0.985,0,1.783,0.798,1.783,1.785v7.018
	h5.717v-7.018c0-0.987,0.798-1.785,1.784-1.785c0.986,0,1.785,0.798,1.785,1.785v7.018h5.286v-12.599h-23.709V251.077z"/>
<path fill="#FFFFFF" d="M257.8,286.878c0,0.985-0.8,1.785-1.786,1.785c-0.986,0-1.784-0.799-1.784-1.785v-10.912
	c0-3.477-2.828-6.305-6.305-6.305c-3.475,0-6.303,2.828-6.303,6.305v10.913c0,0.986-0.799,1.784-1.784,1.784
	c-0.986,0-1.784-0.799-1.784-1.784v-6.006h-5.789v10.839h29.668v-30.565H257.8V286.878z"/>
<rect x="232.266" y="225.306" fill="#FFFFFF" width="5.789" height="9.604"/>
<rect x="232.266" y="238.479" fill="#FFFFFF" width="5.789" height="12.599"/>
<rect x="232.266" y="254.646" fill="#FFFFFF" width="5.789" height="22.659"/>
<path fill="#FFFFFF" d="M241.623,257.579h20.646c1.97,0,3.662-1.214,4.368-2.933h-25.014V257.579z"/>
<rect x="258.042" y="245.843" fill="#FFFFFF" width="3.892" height="5.234"/>
<rect x="204.988" y="225.306" fill="#FFFFFF" width="23.709" height="9.604"/>
<rect x="232.266" y="208.061" fill="#FFFFFF" width="3.568" height="13.678"/>
<path fill="#FFFFFF" d="M254.473,245.843h-5.457c-0.986,0-1.785-0.798-1.785-1.783c0-0.987,0.799-1.785,1.785-1.785h12.917v-3.796
	h-20.31v12.599h12.85V245.843z"/>
<path fill="#FFFFFF" d="M254.23,268.373v-7.227h-12.608v7.227c1.71-1.422,3.909-2.28,6.303-2.28
	C250.321,266.093,252.519,266.951,254.23,268.373z"/>
<path fill="#FFFFFF" d="M234.888,204.145c-0.175-0.156-0.393-0.35-0.663-0.619c-0.059-0.058-0.117-0.117-0.174-0.177
	c-0.058,0.06-0.117,0.119-0.174,0.175c-0.271,0.271-0.489,0.465-0.665,0.621c-0.168,0.151-0.273,0.246-0.367,0.349h2.41
	C235.161,204.391,235.057,204.296,234.888,204.145z"/>
<path fill="#FFFFFF" stroke="#FFFFFF" stroke-width="2" d="M287.874,100.43h-0.167c-1.521-13.696-13.166-24.379-27.26-24.379
	c-9.538,0-18.188,4.844-23.19,12.82c-1.385-0.419-2.803-0.63-4.235-0.63c-7.451,0-13.671,5.375-14.984,12.451
	c-1.09-0.173-2.194-0.262-3.3-0.262c-11.763,0-21.333,9.568-21.333,21.332c0,11.762,9.57,21.332,21.333,21.332h33.522h6.093h33.522
	c11.762,0,21.332-9.57,21.332-21.332C309.206,109.999,299.636,100.43,287.874,100.43z"/>
<path stroke="#FFFFFF" stroke-width="2" d="M253.252,142.964h33.523c11.761,0,21.332-9.57,21.332-21.331
	c0-11.764-9.571-21.333-21.332-21.333h-0.168c-1.521-13.696-13.165-24.378-27.26-24.378c-9.538,0-18.188,4.844-23.19,12.82
	c-1.387-0.419-2.803-0.63-4.235-0.63c-7.452,0-13.671,5.375-14.985,12.45c-1.092-0.172-2.195-0.262-3.301-0.262
	c-11.762,0-21.333,9.569-21.333,21.333c0,11.761,9.571,21.331,21.333,21.331h33.522 M213.636,136.869
	c-8.402,0-15.237-6.834-15.237-15.236s6.834-15.239,15.237-15.239c1.741,0,3.48,0.312,5.169,0.924c0.98,0.357,2.076,0.185,2.9-0.454
	c0.827-0.636,1.269-1.651,1.171-2.691l-0.099-0.824c0-5.04,4.103-9.145,9.144-9.145c1.404,0,2.812,0.361,4.177,1.069
	c0.726,0.379,1.579,0.448,2.352,0.193c0.776-0.258,1.42-0.813,1.783-1.545c3.632-7.345,10.955-11.905,19.113-11.905
	c11.762,0,21.332,9.566,21.332,21.247c-0.006,0.075-0.015,0.286-0.015,0.362c0,0.894,0.396,1.748,1.081,2.326
	c0.687,0.577,1.583,0.826,2.478,0.678c0.925-0.158,1.758-0.236,2.552-0.236c8.401,0,15.236,6.837,15.236,15.239
	s-6.835,15.236-15.236,15.236H213.636z M298.963,188.676"/>
<rect x="283.726" y="112.491" stroke="#FFFFFF" stroke-width="2" width="6.094" height="6.095"/>
<rect x="283.726" y="124.679" stroke="#FFFFFF" stroke-width="2" width="6.094" height="6.096"/>
<rect x="271.537" y="124.679" stroke="#FFFFFF" stroke-width="2" width="6.096" height="6.096"/>
<path stroke="#FFFFFF" d="M7.086,130.906c0,3.362-2.738,6.104-6.104,6.104v4.066c3.365,0,6.104,2.737,6.104,6.104h4.068
	c0-3.366,2.738-6.104,6.103-6.104v-4.066c-3.364,0-6.103-2.741-6.103-6.104H7.086L7.086,130.906z M9.119,141.139
	c-0.594-0.798-1.298-1.502-2.098-2.097c0.8-0.593,1.504-1.297,2.098-2.097c0.594,0.8,1.298,1.504,2.098,2.097
	C10.417,139.637,9.713,140.341,9.119,141.139L9.119,141.139z M9.119,141.139"/>
</svg>
