<?xml version="1.0" encoding="utf-8"?>
<!-- Generator: Adobe Illustrator 15.1.0, SVG Export Plug-In  -->
<!DOCTYPE svg PUBLIC "-//W3C//DTD SVG 1.1//EN" "http://www.w3.org/Graphics/SVG/1.1/DTD/svg11.dtd" [
	<!ENTITY ns_flows "http://ns.adobe.com/Flows/1.0/">
]>
<svg version="1.1"
	 xmlns="http://www.w3.org/2000/svg" xmlns:xlink="http://www.w3.org/1999/xlink" xmlns:a="http://ns.adobe.com/AdobeSVGViewerExtensions/3.0/"
	 x="0px" y="0px" width="500px" height="500px" viewBox="-92.663 -50.955 500 500" enable-background="new -92.663 -50.955 500 500"
	 xml:space="preserve">
<defs>
</defs>
<path stroke="#FFFFFF" d="M81.666,138.467l-5.152-2.578c-0.869,1.708-1.708,3.716-2.575,5.453l5.151,2.277
	C79.658,141.912,80.527,140.174,81.666,138.467L81.666,138.467z M81.666,138.467"/>
<path stroke="#FFFFFF" d="M102.578,112.973l-3.716-4.584c-1.706,1.438-3.145,2.576-4.583,4.013l4.015,4.016
	C99.433,115.248,100.869,114.109,102.578,112.973L102.578,112.973z M102.578,112.973"/>
<path stroke="#FFFFFF" d="M87.09,129.569l-4.584-3.445c-1.139,1.437-2.008,3.146-3.146,4.883l4.883,2.876
	C85.111,132.145,86.25,130.737,87.09,129.569L87.09,129.569z M87.09,129.569"/>
<path stroke="#FFFFFF" d="M74.208,159.378l-5.724-1.139c-0.567,2.008-0.868,4.015-1.139,6.021l5.723,0.87
	C73.068,163.393,73.637,161.386,74.208,159.378L74.208,159.378z M74.208,159.378"/>
<path stroke="#FFFFFF" d="M94.279,120.401l-4.283-4.016c-1.438,1.439-2.877,3.146-4.016,4.584l4.584,3.715
	C91.703,123.276,92.842,121.839,94.279,120.401L94.279,120.401z M94.279,120.401"/>
<path stroke="#FFFFFF" d="M77.082,149.072l-5.452-2.007c-0.569,2.007-1.139,3.716-1.707,5.722l5.453,1.439
	C75.645,152.487,76.213,150.778,77.082,149.072L77.082,149.072z M77.082,149.072"/>
<path stroke="#FFFFFF" d="M81.666,214.382l-5.152,2.577c0.869,1.707,1.707,3.446,2.875,5.152l5.154-2.877
	C83.375,217.528,82.506,216.09,81.666,214.382L81.666,214.382z M81.666,214.382"/>
<path stroke="#FFFFFF" d="M72.199,176.275c0-1.708,0-3.715,0.3-5.722l-5.723-0.299c-0.299,2.006-0.299,4.014-0.299,6.021v0.299
	h5.722V176.275z M72.199,176.275"/>
<path stroke="#FFFFFF" d="M77.082,204.076l-5.452,2.008c0.569,1.707,1.438,3.714,2.276,5.452l5.154-2.276
	C78.521,207.491,77.652,205.784,77.082,204.076L77.082,204.076z M77.082,204.076"/>
<path stroke="#FFFFFF" d="M72.499,182.296l-5.723,0.27c0,2.007,0.301,4.014,0.569,6.022l5.723-0.869
	C72.77,186.011,72.499,184.003,72.499,182.296L72.499,182.296z M72.499,182.296"/>
<path stroke="#FFFFFF" d="M74.208,193.471l-5.724,1.139c0.3,2.008,0.87,3.715,1.438,5.723l5.722-1.438
	C75.076,197.186,74.507,195.178,74.208,193.471L74.208,193.471z M74.208,193.471"/>
<path stroke="#FFFFFF" d="M231.191,148.772l5.453-2.007c-0.869-1.708-1.438-3.715-2.277-5.453l-5.152,2.277
	C229.783,145.327,230.623,147.064,231.191,148.772L231.191,148.772z M231.191,148.772"/>
<path stroke="#FFFFFF" d="M87.09,223.549l-4.584,3.446c1.139,1.708,2.576,3.444,3.715,4.882l4.284-4.013L87.09,223.549z
	 M87.09,223.549"/>
<path stroke="#FFFFFF" d="M226.607,138.467l4.883-2.578c-0.869-1.707-1.707-3.443-2.875-5.152l-4.885,2.876
	C224.9,135.321,225.768,136.728,226.607,138.467L226.607,138.467z M226.607,138.467"/>
<path stroke="#FFFFFF" d="M220.886,128.999l4.583-3.445c-1.139-1.707-2.576-3.445-3.715-4.883l-4.284,3.715
	C218.608,126.153,219.747,127.561,220.886,128.999L220.886,128.999z M220.886,128.999"/>
<path stroke="#FFFFFF" d="M131.787,97.483l-1.438-5.453c-2.007,0.568-3.715,1.138-5.722,1.707l2.007,5.452
	C128.343,98.651,130.08,98.051,131.787,97.483L131.787,97.483z M131.787,97.483"/>
<path stroke="#FFFFFF" d="M213.726,120.401l4.282-4.016l-4.282-4.282l-4.016,4.282C211.149,117.555,212.587,118.994,213.726,120.401
	L213.726,120.401z M213.726,120.401"/>
<path stroke="#FFFFFF" d="M142.963,94.907l-0.869-5.723c-2.008,0.299-4.016,0.87-6.021,1.139l1.139,5.723
	C139.248,95.774,140.955,95.476,142.963,94.907L142.963,94.907z M142.963,94.907"/>
<path stroke="#FFFFFF" d="M196.828,246.169l2.877,4.883c1.707-1.139,3.445-2.308,5.152-3.445l-3.445-4.584
	C199.975,244.161,198.537,245.329,196.828,246.169L196.828,246.169z M196.828,246.169"/>
<path stroke="#FFFFFF" d="M205.697,239.876l3.714,4.285c1.707-1.438,3.146-2.577,4.584-3.715l-4.016-4.284
	C208.572,237.569,207.134,238.738,205.697,239.876L205.697,239.876z M205.697,239.876"/>
<path stroke="#FFFFFF" d="M194.252,98.352l-2.577,5.152c1.708,0.869,3.146,2.007,4.884,2.876l2.875-5.153
	C197.697,100.358,195.959,99.22,194.252,98.352L194.252,98.352z M194.252,98.352"/>
<path stroke="#FFFFFF" d="M204.559,104.643l-3.445,4.583c1.708,1.138,3.146,2.307,4.584,3.445l3.714-4.283
	C207.703,106.95,206.266,105.811,204.559,104.643L204.559,104.643z M204.559,104.643"/>
<path stroke="#FFFFFF" d="M183.377,93.769l-2.007,5.451c1.707,0.57,3.445,1.14,5.152,2.008l2.307-5.152
	C187.093,95.206,185.354,94.337,183.377,93.769L183.377,93.769z M183.377,93.769"/>
<path stroke="#FFFFFF" d="M186.792,251.32l2.276,5.154c2.008-0.87,3.715-1.708,5.453-2.277l-2.576-5.152
	C190.237,249.913,188.53,250.482,186.792,251.32L186.792,251.32z M186.792,251.32"/>
<path stroke="#FFFFFF" d="M234.068,192.602l5.721,1.138c0.569-1.706,0.868-3.713,0.868-5.721l-5.722-0.87
	C234.637,188.887,234.367,190.895,234.068,192.602L234.068,192.602z M234.068,192.602"/>
<path stroke="#FFFFFF" d="M176.486,255.066l1.438,5.453c2.007-0.569,3.715-1.14,6.021-1.709l-2.007-5.452
	C179.932,253.897,178.195,254.496,176.486,255.066L176.486,255.066z M176.486,255.066"/>
<path stroke="#FFFFFF" d="M231.191,203.477l5.453,2.007c0.568-2.007,1.138-4.015,1.706-6.021l-5.45-1.438
	C232.359,200.063,231.791,201.769,231.191,203.477L231.191,203.477z M231.191,203.477"/>
<path stroke="#FFFFFF" d="M226.906,213.813l5.154,2.576c0.869-1.707,1.707-3.445,2.307-5.453l-5.152-2.307
	C228.615,210.368,227.775,212.075,226.906,213.813L226.906,213.813z M226.906,213.813"/>
<path stroke="#FFFFFF" d="M221.185,223.25l4.583,3.445c1.139-1.708,2.309-3.445,3.445-5.154l-4.883-2.875
	C223.191,220.104,222.322,221.813,221.185,223.25L221.185,223.25z M221.185,223.25"/>
<path stroke="#FFFFFF" d="M214.024,231.85l4.284,4.013c1.139-1.438,2.577-2.875,4.014-4.583l-4.583-3.715
	C216.601,228.972,215.163,230.41,214.024,231.85L214.024,231.85z M214.024,231.85"/>
<path stroke="#FFFFFF" d="M142.393,263.065c2.008,0.3,4.016,0.568,6.023,0.568l0.299-5.723c-1.709-0.299-3.715-0.299-5.453-0.567
	L142.393,263.065z M142.393,263.065"/>
<path stroke="#FFFFFF" d="M130.948,260.788c1.708,0.568,3.717,1.139,5.722,1.438l1.139-5.452c-1.707-0.568-3.715-0.87-5.453-1.438
	L130.948,260.788z M130.948,260.788"/>
<path stroke="#FFFFFF" d="M94.55,232.147l-4.284,4.015l4.284,4.284l4.014-4.284C97.125,234.724,95.687,233.586,94.55,232.147
	L94.55,232.147z M94.55,232.147"/>
<path stroke="#FFFFFF" d="M159.859,88.884l-0.301,5.723c1.709,0,3.717,0.298,5.453,0.57l0.869-5.722
	C163.873,89.185,161.865,88.884,159.859,88.884L159.859,88.884z M159.859,88.884"/>
<path stroke="#FFFFFF" d="M148.416,94.636c1.706,0,3.714-0.299,5.722-0.299v-5.722c-2.008,0-4.016,0.299-6.022,0.299L148.416,94.636
	z M148.416,94.636"/>
<path stroke="#FFFFFF" d="M165.313,257.344l0.867,5.722c2.008-0.302,4.016-0.57,5.723-0.868l-1.139-5.723
	C169.027,256.774,167.02,257.074,165.313,257.344L165.313,257.344z M165.313,257.344"/>
<path stroke="#FFFFFF" d="M171.603,90.323l-1.138,5.72c2.006,0.301,3.715,0.869,5.453,1.439l1.438-5.722
	C175.617,91.191,173.611,90.623,171.603,90.323L171.603,90.323z M171.603,90.323"/>
<path stroke="#FFFFFF" d="M154.437,258.213v5.721c2.007,0,4.016-0.3,6.021-0.3l-0.3-5.723
	C158.151,258.213,156.443,258.213,154.437,258.213L154.437,258.213z M154.437,258.213"/>
<path fill="#FFFFFF" stroke="#FFFFFF" d="M246.95,176.275c0,4.583-3.717,8.298-8.299,8.298c-4.583,0-8.3-3.714-8.3-8.298
	s3.717-8.298,8.3-8.298C243.233,167.977,246.95,171.691,246.95,176.275L246.95,176.275z M246.95,176.275"/>
<path stroke="#FFFFFF" d="M239.52,158.239c-0.299-2.008-0.868-3.715-1.438-5.723l-5.453,1.438c0.57,1.708,1.139,3.716,1.439,5.453
	L239.52,158.239z M239.52,158.239"/>
<path fill="#FFFFFF" stroke="#FFFFFF" d="M118.906,104.941c0,4.584-3.717,8.3-8.299,8.3c-4.584,0-8.3-3.716-8.3-8.3
	c0-4.582,3.716-8.298,8.3-8.298C115.189,96.644,118.906,100.36,118.906,104.941L118.906,104.941z M118.906,104.941"/>
<path fill="#FFFFFF" stroke="#FFFFFF" d="M121.183,251.621c0,4.582-3.716,8.299-8.298,8.299c-4.584,0-8.301-3.717-8.301-8.299
	c0-4.584,3.717-8.3,8.301-8.3C117.467,243.321,121.183,247.037,121.183,251.621L121.183,251.621z M121.183,251.621"/>
<path d="M154.289,248.599c-40.229,0-72.871-32.639-72.871-72.869c0-40.229,32.642-72.87,72.871-72.87
	c40.23,0,72.871,32.641,72.871,72.87C227.16,215.96,194.552,248.599,154.289,248.599L154.289,248.599z M154.289,248.599"/>
<path fill="#FFFFFF" d="M154.289,106.696c-38.223,0-69.033,30.811-69.033,69.033s30.811,69.031,69.033,69.031
	s69.031-30.809,69.031-69.031S192.51,106.696,154.289,106.696L154.289,106.696z M154.289,106.696"/>
<path stroke="#FFFFFF" stroke-width="2" d="M154.289,103.011c-40.084,0-72.719,32.673-72.719,72.719s32.635,72.72,72.719,72.72
	c40.085,0,72.719-32.635,72.719-72.72S194.374,103.011,154.289,103.011L154.289,103.011z M117.192,175.729
	c0-7.411,0.737-14.861,2.212-21.537h31.158v43.034h-31.158C117.93,190.592,117.192,183.142,117.192,175.729L117.192,175.729z
	 M158.014,110.81c13,2.211,24.137,16.337,29.297,36.01h-29.297V110.81z M150.602,110.81v36.01h-29.295
	C126.466,127.107,137.604,113.021,150.602,110.81L150.602,110.81z M150.602,204.677v36.012c-13-2.214-24.136-16.337-29.295-36.012
	H150.602z M158.014,240.649v-36.012h29.297C181.762,224.352,170.975,238.437,158.014,240.649L158.014,240.649z M158.014,197.265
	v-43.072h31.16c1.475,6.673,2.213,14.087,2.213,21.537s-0.738,14.862-2.213,21.535H158.014z M196.585,154.192h18.937
	c2.211,6.676,3.725,14.087,3.725,21.537s-1.475,14.862-3.725,21.537h-18.937c1.126-6.675,1.862-14.087,1.862-21.537
	C198.836,168.318,198.098,160.906,196.585,154.192L196.585,154.192z M212.533,146.78H195.11
	c-3.337-12.999-8.925-23.748-15.599-31.547C193.986,121.558,205.861,132.695,212.533,146.78L212.533,146.78z M129.066,115.621
	c-7.063,7.799-12.264,18.549-15.601,31.549H96.042C102.718,132.695,114.592,121.558,129.066,115.621L129.066,115.621z
	 M92.706,154.192h18.937c-1.126,6.676-1.861,14.087-1.861,21.537s0.735,14.862,1.861,21.537H92.706
	c-2.599-6.675-3.724-14.087-3.724-21.537S90.105,160.906,92.706,154.192L92.706,154.192z M95.655,204.677h17.423
	c3.337,12.999,8.887,23.75,15.599,31.549C114.592,229.899,102.718,218.764,95.655,204.677L95.655,204.677z M179.512,235.836
	c7.063-7.799,12.262-18.547,15.599-31.547h17.423C205.861,218.764,193.986,229.899,179.512,235.836L179.512,235.836z
	 M179.512,235.836"/>
<path stroke="#FFFFFF" stroke-width="2" d="M27.258,110.37l-8.907-4.457c-1.502,2.954-2.953,6.425-4.452,9.426l8.905,3.937
	C23.786,116.325,25.289,113.32,27.258,110.37L27.258,110.37z M27.258,110.37"/>
<path stroke="#FFFFFF" stroke-width="2" d="M63.41,66.296l-6.425-7.925c-2.95,2.486-5.437,4.454-7.924,6.938l6.941,6.942
	C57.971,70.229,60.455,68.261,63.41,66.296L63.41,66.296z M63.41,66.296"/>
<path stroke="#FFFFFF" stroke-width="2" d="M36.633,94.987l-7.924-5.955c-1.969,2.484-3.472,5.438-5.439,8.441l8.441,4.972
	C33.213,99.44,35.182,97.007,36.633,94.987L36.633,94.987z M36.633,94.987"/>
<path stroke="#FFFFFF" stroke-width="2" d="M14.363,146.52l-9.893-1.968c-0.982,3.471-1.502,6.94-1.969,10.409l9.893,1.503
	C12.395,153.46,13.377,149.99,14.363,146.52L14.363,146.52z M14.363,146.52"/>
<path stroke="#FFFFFF" stroke-width="2" d="M49.062,79.139l-7.405-6.942c-2.484,2.488-4.973,5.439-6.94,7.925l7.924,6.422
	C44.607,84.109,46.576,81.625,49.062,79.139L49.062,79.139z M49.062,79.139"/>
<path stroke="#FFFFFF" stroke-width="2" d="M19.334,128.703l-9.428-3.471c-0.982,3.471-1.968,6.424-2.95,9.891l9.427,2.488
	C16.849,134.607,17.83,131.653,19.334,128.703L19.334,128.703z M19.334,128.703"/>
<path stroke="#FFFFFF" stroke-width="2" d="M27.258,241.607l-8.907,4.456c1.503,2.951,2.95,5.956,4.971,8.906l8.91-4.973
	C30.211,247.047,28.709,244.561,27.258,241.607L27.258,241.607z M27.258,241.607"/>
<path stroke="#FFFFFF" stroke-width="2" d="M10.893,175.73c0-2.954,0-6.422,0.518-9.892l-9.894-0.518C1,168.788,1,172.259,1,175.73
	v0.517h9.893V175.73z M10.893,175.73"/>
<path stroke="#FFFFFF" stroke-width="2" d="M19.334,223.791l-9.428,3.472c0.986,2.95,2.488,6.42,3.938,9.426l8.908-3.937
	C21.821,229.695,20.318,226.745,19.334,223.791L19.334,223.791z M19.334,223.791"/>
<path stroke="#FFFFFF" stroke-width="2" d="M11.41,186.139l-9.894,0.467c0,3.47,0.521,6.94,0.985,10.411l9.893-1.503
	C11.878,192.561,11.41,189.09,11.41,186.139L11.41,186.139z M11.41,186.139"/>
<path stroke="#FFFFFF" stroke-width="2" d="M14.363,205.458l-9.893,1.968c0.518,3.471,1.502,6.422,2.485,9.893l9.893-2.485
	C15.865,211.88,14.881,208.408,14.363,205.458L14.363,205.458z M14.363,205.458"/>
<path stroke="#FFFFFF" stroke-width="2" d="M285.749,128.186l9.427-3.471c-1.503-2.951-2.485-6.422-3.938-9.426l-8.905,3.936
	C283.314,122.229,284.766,125.232,285.749,128.186L285.749,128.186z M285.749,128.186"/>
<path stroke="#FFFFFF" stroke-width="2" d="M36.633,257.455l-7.924,5.957c1.967,2.953,4.453,5.955,6.422,8.44l7.406-6.938
	L36.633,257.455z M36.633,257.455"/>
<path stroke="#FFFFFF" stroke-width="2" d="M277.825,110.37l8.44-4.457c-1.502-2.951-2.951-5.953-4.971-8.906l-8.443,4.972
	C274.874,104.931,276.373,107.364,277.825,110.37L277.825,110.37z M277.825,110.37"/>
<path stroke="#FFFFFF" stroke-width="2" d="M267.934,94.001l7.924-5.957c-1.969-2.95-4.454-5.955-6.422-8.441l-7.407,6.422
	C263.996,89.083,265.965,91.516,267.934,94.001L267.934,94.001z M267.934,94.001"/>
<path stroke="#FFFFFF" stroke-width="2" d="M113.904,39.518l-2.484-9.426c-3.471,0.983-6.422,1.968-9.893,2.951l3.471,9.426
	C107.949,41.539,110.954,40.501,113.904,39.518L113.904,39.518z M113.904,39.518"/>
<path stroke="#FFFFFF" stroke-width="2" d="M255.555,79.139l7.404-6.942l-7.404-7.403l-6.941,7.403
	C251.102,74.217,253.587,76.706,255.555,79.139L255.555,79.139z M255.555,79.139"/>
<path stroke="#FFFFFF" stroke-width="2" d="M133.225,35.065l-1.504-9.893c-3.471,0.518-6.941,1.503-10.408,1.968l1.968,9.893
	C126.803,36.564,129.753,36.048,133.225,35.065L133.225,35.065z M133.225,35.065"/>
<path stroke="#FFFFFF" stroke-width="2" d="M221.891,41.021l-4.456,8.907c2.954,1.501,5.438,3.47,8.444,4.973l4.971-8.909
	C227.847,44.489,224.842,42.521,221.891,41.021L221.891,41.021z M221.891,41.021"/>
<path stroke="#FFFFFF" stroke-width="2" d="M239.707,51.896l-5.955,7.923c2.953,1.968,5.438,3.988,7.924,5.957l6.422-7.405
	C245.143,55.884,242.658,53.916,239.707,51.896L239.707,51.896z M239.707,51.896"/>
<path stroke="#FFFFFF" stroke-width="2" d="M203.089,33.098l-3.468,9.423c2.951,0.985,5.956,1.971,8.906,3.471l3.988-8.908
	C209.514,35.582,206.508,34.08,203.089,33.098L203.089,33.098z M203.089,33.098"/>
<path stroke="#FFFFFF" stroke-width="2" d="M290.723,203.955l9.889,1.968c0.986-2.949,1.502-6.42,1.502-9.892l-9.892-1.503
	C291.705,197.534,291.238,201.005,290.723,203.955L290.723,203.955z M290.723,203.955"/>
<path stroke="#FFFFFF" stroke-width="2" d="M285.749,222.754l9.427,3.471c0.982-3.471,1.968-6.941,2.95-10.409l-9.423-2.485
	C287.769,216.854,286.785,219.803,285.749,222.754L285.749,222.754z M285.749,222.754"/>
<path stroke="#FFFFFF" stroke-width="2" d="M278.342,240.625l8.909,4.453c1.503-2.95,2.951-5.956,3.987-9.427l-8.905-3.987
	C281.295,234.67,279.845,237.62,278.342,240.625L278.342,240.625z M278.342,240.625"/>
<path stroke="#FFFFFF" stroke-width="2" d="M132.238,325.771c3.471,0.517,6.941,0.981,10.412,0.981l0.518-9.892
	c-2.955-0.518-6.422-0.518-9.428-0.982L132.238,325.771z M132.238,325.771"/>
<path stroke="#FFFFFF" stroke-width="2" d="M112.453,321.833c2.954,0.982,6.426,1.968,9.893,2.485l1.969-9.426
	c-2.951-0.982-6.422-1.503-9.428-2.485L112.453,321.833z M112.453,321.833"/>
<path stroke="#FFFFFF" stroke-width="2" d="M49.53,272.321l-7.407,6.938l7.407,7.406l6.938-7.406
	C53.982,276.774,51.495,274.807,49.53,272.321L49.53,272.321z M49.53,272.321"/>
<path stroke="#FFFFFF" stroke-width="2" d="M162.436,24.653l-0.521,9.893c2.954,0,6.425,0.516,9.427,0.985l1.502-9.893
	C169.373,25.173,165.901,24.653,162.436,24.653L162.436,24.653z M162.436,24.653"/>
<path stroke="#FFFFFF" stroke-width="2" d="M142.65,34.597c2.951,0,6.421-0.517,9.893-0.517v-9.893
	c-3.472,0-6.941,0.518-10.412,0.518L142.65,34.597z M142.65,34.597"/>
<path stroke="#FFFFFF" stroke-width="2" d="M171.861,315.878l1.5,9.893c3.471-0.521,6.941-0.986,9.892-1.503l-1.968-9.893
	C178.283,314.893,174.813,315.412,171.861,315.878L171.861,315.878z M171.861,315.878"/>
<path stroke="#FFFFFF" stroke-width="2" d="M182.735,27.141l-1.968,9.889c3.469,0.52,6.422,1.503,9.428,2.488l2.484-9.892
	C189.675,28.641,186.207,27.659,182.735,27.141L182.735,27.141z M182.735,27.141"/>
<path stroke="#FFFFFF" stroke-width="2" d="M153.06,317.381v9.889c3.47,0,6.941-0.518,10.409-0.518l-0.518-9.892
	C159.481,317.381,156.529,317.381,153.06,317.381L153.06,317.381z M153.06,317.381"/>
<path stroke="#FFFFFF" stroke-width="2" d="M312.992,175.73c0,7.924-6.425,14.345-14.346,14.345
	c-7.924,0-14.349-6.421-14.349-14.345c0-7.923,6.425-14.345,14.349-14.345C306.567,161.385,312.992,167.807,312.992,175.73
	L312.992,175.73z M312.992,175.73"/>
<path stroke="#FFFFFF" stroke-width="2" d="M300.146,144.551c-0.517-3.471-1.499-6.422-2.485-9.893l-9.426,2.486
	c0.986,2.954,1.968,6.424,2.488,9.426L300.146,144.551z M300.146,144.551"/>
<path stroke="#FFFFFF" stroke-width="2" d="M302.891,156.876c-0.102-0.67-0.205-1.293-0.257-1.968l-9.892,1.502
	c0.051,0.261,0.103,0.568,0.154,0.829c-7.924,2.383-13.518,9.632-13.518,18.49c0,10.875,8.91,19.316,19.318,19.316
	c10.875,0,19.319-8.44,19.319-19.316C317.962,166.354,311.335,158.793,302.891,156.876L302.891,156.876z M298.646,185.157
	c-5.439,0-9.426-4.458-9.426-9.427c0-5.439,4.452-9.426,9.426-9.426c5.436,0,9.426,4.454,9.426,9.426
	C308.072,181.166,303.617,185.157,298.646,185.157L298.646,185.157z M298.646,185.157"/>
<path stroke="#FFFFFF" stroke-width="2" d="M91.635,52.413c0,7.925-6.424,14.349-14.346,14.349c-7.924,0-14.348-6.424-14.348-14.349
	c0-7.921,6.424-14.345,14.348-14.345C85.211,38.067,91.635,44.492,91.635,52.413L91.635,52.413z M91.635,52.413"/>
<path stroke="#FFFFFF" stroke-width="2" d="M95.571,305.985c0,7.922-6.424,14.347-14.345,14.347c-7.924,0-14.35-6.425-14.35-14.347
	c0-7.924,6.426-14.349,14.35-14.349C89.147,291.637,95.571,298.062,95.571,305.985L95.571,305.985z M95.571,305.985"/>
<path stroke="#FFFFFF" stroke-width="2" d="M100.18,307.073c0.105-6.731-3.468-13.209-9.529-16.937
	c-2.951-1.503-5.956-2.484-9.424-2.484c-3.629,0-7.254,1.085-10.361,3.156c-2.742-1.863-5.127-3.729-7.455-5.593l-6.425,7.924
	c2.54,2.125,4.714,3.834,7.096,5.541c-1.862,4.039-2.485,8.393-1.19,12.796c1.502,4.97,4.456,8.906,8.909,11.392
	c2.95,1.503,5.956,2.488,9.427,2.488c6.783,0,13.153-3.368,16.159-8.599c1.448,0.623,3.003,1.242,4.659,1.709l3.471-9.428
	C103.701,308.367,101.941,307.744,100.18,307.073L100.18,307.073z M81.227,314.893c-4.922,0-8.91-3.988-8.91-8.907
	s3.988-8.909,8.91-8.909c4.918,0,8.906,3.99,8.906,8.909C90.184,310.904,86.145,314.893,81.227,314.893L81.227,314.893z
	 M81.227,314.893"/>
<path stroke="#FFFFFF" stroke-width="2" d="M95.055,46.148c0.363-0.208,0.672-0.415,1.033-0.623l-3.936-8.909
	c-0.932,0.413-1.862,0.828-2.744,1.191c-3.264-2.691-7.613-4.194-12.119-4.194c-2.953,0-6.421,0.983-9.426,2.485
	c-8.906,5.439-12.378,17.351-6.941,26.261c2.953,5.955,9.427,9.426,16.316,9.426c3.779,0,14.813-2.488,18.333-14.349
	C96.712,53.553,96.4,49.722,95.055,46.148L95.055,46.148z M77.289,61.685c-5.127,0-9.271-4.145-9.271-9.272s4.145-9.269,9.271-9.269
	c5.128,0,9.27,4.141,9.27,9.269S82.417,61.685,77.289,61.685L77.289,61.685z M77.289,61.685"/>
<path fill="#FFFFFF" d="M109.268,34.481L59.346,4.708L19.732,71.131l49.923,29.773l-0.001-0.001L109.268,34.481z M67.113,96.45
	L24.859,71.251c-0.921-0.549-1.223-1.74-0.674-2.661L59.227,9.834c0.549-0.92,1.74-1.221,2.66-0.673l42.255,25.2
	c0.921,0.548,1.222,1.739,0.673,2.661l-35.04,58.756C69.227,96.698,68.033,97,67.113,96.45z"/>
<path fill="#FFFFFF" d="M61.566,13.489L28.514,68.912l38.92,23.211l33.053-55.422L61.566,13.489z M67.832,29.315l15.752,9.395
	c0.92,0.549,1.224,1.739,0.674,2.66c-0.549,0.921-1.742,1.222-2.662,0.673l-15.75-9.394c-0.922-0.549-1.223-1.74-0.674-2.661
	S66.912,28.768,67.832,29.315z M68.324,64.298l-15.751-9.395c-0.92-0.549-1.222-1.741-0.673-2.662
	c0.551-0.922,1.74-1.222,2.662-0.673l15.751,9.395c0.921,0.55,1.223,1.739,0.673,2.662C70.438,64.544,69.246,64.846,68.324,64.298z
	 M80.912,59.485c-0.55,0.921-1.742,1.222-2.661,0.673L51.497,44.206c-0.921-0.55-1.222-1.743-0.673-2.663
	c0.549-0.919,1.742-1.223,2.662-0.672L80.24,56.824C81.159,57.373,81.46,58.565,80.912,59.485z M85.335,52.068
	c-0.549,0.922-1.741,1.222-2.661,0.674L55.92,36.787c-0.92-0.548-1.221-1.741-0.672-2.661c0.549-0.92,1.74-1.222,2.66-0.672
	l26.754,15.954C85.582,49.957,85.885,51.148,85.335,52.068z"/>
<path d="M113.088,32.035L59.832,0.274c-0.922-0.549-2.113-0.248-2.661,0.672L15.57,70.704c-0.55,0.922-0.248,2.112,0.672,2.662
	l53.256,31.759c0.922,0.549,2.111,0.25,2.661-0.672l41.601-69.757C114.311,33.776,114.008,32.583,113.088,32.035L113.088,32.035z
	 M69.82,100.797L19.897,71.025L59.511,4.602l49.922,29.772L69.82,100.797L69.82,100.797z M69.82,100.797"/>
<path d="M25.023,71.144l42.254,25.2c0.92,0.55,2.113,0.249,2.662-0.672l35.039-58.755c0.55-0.921,0.248-2.112-0.672-2.661
	l-42.256-25.2c-0.92-0.548-2.111-0.247-2.66,0.673l-35.04,58.756C23.802,69.404,24.103,70.596,25.023,71.144L25.023,71.144z
	 M61.73,13.382l38.92,23.211L67.599,92.016L28.678,68.805L61.73,13.382z M61.73,13.382"/>
<path d="M66.01,32.543l15.751,9.394c0.921,0.548,2.113,0.248,2.661-0.674c0.55-0.92,0.247-2.111-0.673-2.66L67.997,29.21
	c-0.921-0.55-2.112-0.25-2.661,0.671C64.787,30.803,65.089,31.993,66.01,32.543L66.01,32.543z M66.01,32.543"/>
<path d="M70.478,60.856l-15.751-9.395c-0.92-0.548-2.111-0.248-2.661,0.674c-0.55,0.919-0.247,2.112,0.673,2.661l15.75,9.395
	c0.922,0.548,2.113,0.246,2.662-0.674C71.701,62.595,71.398,61.406,70.478,60.856L70.478,60.856z M70.478,60.856"/>
<path d="M84.826,49.301L58.072,33.346c-0.92-0.549-2.111-0.248-2.66,0.672c-0.549,0.921-0.248,2.112,0.674,2.662l26.752,15.955
	c0.92,0.549,2.113,0.248,2.662-0.673C86.049,51.042,85.747,49.85,84.826,49.301L84.826,49.301z M84.826,49.301"/>
<path d="M80.403,56.718L53.65,40.763c-0.922-0.549-2.112-0.248-2.661,0.672c-0.55,0.921-0.249,2.113,0.673,2.663l26.752,15.954
	c0.92,0.548,2.112,0.247,2.662-0.673C81.625,58.458,81.324,57.267,80.403,56.718L80.403,56.718z M80.403,56.718"/>
<path fill="#FFFFFF" d="M74.205,331.708l11.885,11.95c0.801,0.806,2.055,0.914,2.981,0.26c1.122-0.793,1.263-2.398,0.297-3.373
	l-11.296-11.412C76.755,329.965,75.464,330.825,74.205,331.708z"/>
<path fill="#FFFFFF" d="M64.225,304.293c-2.08,1.726-4.217,3.37-6.381,4.899l-2.525,1.784c-1.045,0.738-1.293,2.188-0.556,3.231
	l10.706,15.152c0.738,1.044,2.188,1.293,3.232,0.555l2.524-1.784c2.165-1.53,4.429-2.994,6.749-4.379L64.225,304.293z"/>
<path fill="#FFFFFF" d="M67.749,301.242l14.278,20.207c10.763-5.814,17.9-7.6,24.188-9.439l-21.489-30.411
	C80.773,287.068,76.74,293.119,67.749,301.242z"/>
<path fill="#FFFFFF" d="M118.549,317.411c-3.041,2.148-7.229,1.506-9.498-1.399c-8.008,2.345-15.499,4.175-26.885,10.662
	l10.499,10.608c2.978,3.008,2.545,7.977-0.916,10.423c-2.782,1.966-6.546,1.64-8.948-0.775l-12.521-12.592
	c-2.33,1.075-5.061,0.765-7.082-0.745c-4.998,2.379-11.145,0.892-14.445-3.779c-3.301-4.67-2.648-10.961,1.262-14.879
	c-0.869-2.801,0.106-5.965,2.627-7.747l2.525-1.784c15.21-10.746,22.265-21.627,26.734-27.816c-1.98-3.107-1.188-7.271,1.854-9.419
	c3.133-2.214,7.483-1.466,9.697,1.667l26.765,37.88C122.43,310.848,121.682,315.197,118.549,317.411z"/>
<path fill="#FFFFFF" d="M89.663,272.512c-0.738-1.045-2.188-1.294-3.231-0.556c-1.045,0.738-1.295,2.188-0.557,3.232l26.765,37.879
	c0.737,1.044,2.188,1.294,3.233,0.556c1.043-0.738,1.293-2.188,0.555-3.232L89.663,272.512z"/>
<path fill="#FFFFFF" d="M52.539,327.137c1.745,2.47,4.816,3.457,7.574,2.682l-7.571-10.715
	C50.891,321.443,50.796,324.668,52.539,327.137z"/>
<path d="M84.19,268.425c-3.041,2.149-3.835,6.312-1.854,9.418c-4.47,6.19-11.525,17.071-26.733,27.817l-2.525,1.784
	c-2.521,1.781-3.496,4.946-2.628,7.748c-3.911,3.917-4.563,10.207-1.263,14.877c3.301,4.671,9.449,6.159,14.445,3.78
	c2.022,1.51,4.752,1.82,7.082,0.745l12.521,12.592c2.404,2.416,6.166,2.742,8.949,0.775c3.461-2.445,3.894-7.414,0.916-10.424
	l-10.5-10.606c11.387-6.489,18.877-8.318,26.887-10.663c2.267,2.905,6.455,3.548,9.497,1.399c3.132-2.214,3.88-6.563,1.667-9.696
	l-26.766-37.88C91.674,266.959,87.324,266.211,84.19,268.425L84.19,268.425z M60.549,330.075c-2.757,0.776-5.828-0.212-7.572-2.682
	c-1.744-2.469-1.65-5.693,0.002-8.033L60.549,330.075z M89.508,344.175c-0.928,0.655-2.182,0.545-2.982-0.26l-11.884-11.95
	c1.259-0.882,2.55-1.742,3.867-2.575l11.296,11.412C90.77,341.776,90.629,343.383,89.508,344.175L89.508,344.175z M78.411,324.01
	c-2.321,1.383-4.585,2.849-6.749,4.379l-2.525,1.784c-1.044,0.737-2.493,0.488-3.231-0.556l-10.706-15.151
	c-0.738-1.045-0.488-2.495,0.556-3.232l2.524-1.784c2.166-1.529,4.302-3.175,6.383-4.899L78.411,324.01z M106.65,312.267
	c-6.286,1.84-13.424,3.625-24.188,9.439l-14.277-20.207c8.99-8.124,13.024-14.173,16.977-19.645L106.65,312.267z M116.864,310.647
	c0.737,1.044,0.488,2.495-0.556,3.233c-1.045,0.738-2.495,0.487-3.232-0.556l-26.766-37.881c-0.738-1.044-0.488-2.493,0.557-3.232
	c1.045-0.737,2.494-0.488,3.232,0.558L116.864,310.647z M116.864,310.647"/>
<path fill="#FFFFFF" d="M329.412,186.575c-0.238-0.428-0.473-0.858-0.689-1.294c-0.055-0.113-0.104-0.227-0.158-0.336
	c-1.807-3.742-2.887-7.774-3.16-11.936c-0.048-0.716-0.073-1.437-0.073-2.16v-9.195c0-0.714,0.579-1.293,1.294-1.293h9.057v-24.582
	h-9.057c-0.715,0-1.294-0.578-1.294-1.293v-10.351h-37.519c-2.14,0-3.881,1.742-3.881,3.882v55.631c0,2.14,1.741,3.882,3.881,3.882
	h42.127c-0.058-0.097-0.105-0.199-0.163-0.297C329.65,187.017,329.533,186.793,329.412,186.575z M289.106,139.66h41.4v2.587h-41.4
	V139.66z M289.106,146.128h41.4v2.587h-41.4V146.128z M289.106,152.597h41.4v2.587h-41.4V152.597z M320.156,181.06h-31.05v-2.588
	h31.05V181.06z M320.156,174.59h-31.05v-2.588h31.05V174.59z M320.156,168.122h-31.05v-2.588h31.05V168.122z M320.156,161.653
	h-31.05v-2.588h31.05V161.653z"/>
<polygon fill="#FFFFFF" points="330.735,129.412 327.92,126.243 327.92,133.191 334.094,133.191 "/>
<path fill="#FFFFFF" d="M327.92,170.848c0,0.71,0.03,1.415,0.078,2.113c0.021,0.282,0.055,0.56,0.082,0.84
	c0.041,0.409,0.085,0.816,0.142,1.22c0.051,0.351,0.11,0.702,0.172,1.051c0.058,0.318,0.119,0.636,0.186,0.951
	c0.081,0.389,0.168,0.778,0.267,1.163c0.065,0.259,0.141,0.517,0.213,0.776c0.117,0.417,0.235,0.832,0.369,1.242
	c0.061,0.18,0.132,0.359,0.195,0.538c0.277,0.79,0.59,1.564,0.93,2.326c0.119,0.265,0.229,0.532,0.355,0.792
	c0.146,0.304,0.307,0.598,0.464,0.896c0.183,0.346,0.365,0.691,0.562,1.033c0.145,0.252,0.297,0.5,0.447,0.747
	c0.242,0.393,0.494,0.781,0.755,1.166c2.339,3.446,5.384,6.422,9.015,8.668c8.797-5.441,14.23-15.147,14.23-25.522v-7.901H327.92
	V170.848z M351.207,165.534h2.587v2.588h-2.587V165.534z M346.031,165.534h2.588v2.588h-2.588V165.534z M340.856,165.534h2.587
	v2.588h-2.587V165.534z M335.682,165.534h2.588v2.588h-2.588V165.534z M336.597,177.558l4.26,4.259l9.435-9.435l1.83,1.829
	l-10.35,10.35c-0.252,0.252-0.584,0.379-0.915,0.379s-0.663-0.127-0.915-0.379l-5.174-5.176L336.597,177.558z M330.507,165.534
	h2.587v2.588h-2.587V165.534z"/>
<path d="M357.676,160.36H338.27v-25.875c0-0.026-0.012-0.049-0.016-0.075c-0.006-0.101-0.023-0.199-0.053-0.296
	c-0.014-0.041-0.021-0.083-0.039-0.122c-0.053-0.132-0.123-0.256-0.221-0.366l-10.35-11.644c-0.111-0.124-0.246-0.215-0.391-0.286
	c-0.041-0.02-0.082-0.035-0.126-0.051c-0.12-0.045-0.243-0.071-0.37-0.079c-0.028-0.003-0.053-0.019-0.08-0.019h-38.813
	c-3.566,0-6.469,2.902-6.469,6.469v55.631c0,3.567,2.902,6.469,6.469,6.469h43.861c2.602,3.551,5.917,6.601,9.824,8.878
	c0.201,0.12,0.427,0.178,0.652,0.178c0.225,0,0.45-0.058,0.651-0.178c9.973-5.815,16.167-16.602,16.167-28.146v-9.195
	C358.969,160.938,358.39,160.36,357.676,160.36L357.676,160.36z M327.92,126.243l2.815,3.168l3.358,3.779h-6.174V126.243z
	 M287.813,187.529c-2.14,0-3.881-1.742-3.881-3.882v-55.631c0-2.14,1.741-3.882,3.881-3.882h37.519v10.351
	c0,0.716,0.579,1.293,1.294,1.293h9.057v24.582h-9.057c-0.715,0-1.294,0.579-1.294,1.293v9.195c0,0.723,0.025,1.444,0.073,2.16
	c0.273,4.162,1.354,8.194,3.16,11.936c0.055,0.11,0.104,0.223,0.158,0.336c0.217,0.437,0.451,0.866,0.689,1.294
	c0.121,0.219,0.238,0.442,0.364,0.658c0.058,0.098,0.105,0.2,0.163,0.297H287.813z M356.381,170.848
	c0,10.375-5.434,20.081-14.23,25.522c-3.631-2.246-6.676-5.222-9.015-8.668c-0.261-0.384-0.513-0.772-0.755-1.166
	c-0.15-0.247-0.303-0.494-0.447-0.747c-0.196-0.341-0.379-0.687-0.562-1.033c-0.157-0.298-0.317-0.592-0.464-0.896
	c-0.127-0.26-0.236-0.527-0.355-0.792c-0.34-0.762-0.652-1.536-0.93-2.326c-0.063-0.179-0.135-0.358-0.195-0.538
	c-0.134-0.41-0.252-0.825-0.369-1.242c-0.072-0.26-0.147-0.517-0.213-0.776c-0.099-0.385-0.186-0.774-0.267-1.163
	c-0.066-0.314-0.128-0.632-0.186-0.951c-0.062-0.349-0.121-0.7-0.172-1.051c-0.057-0.404-0.101-0.812-0.142-1.22
	c-0.027-0.28-0.062-0.559-0.082-0.84c-0.048-0.698-0.078-1.403-0.078-2.113v-7.901h28.461V170.848z M356.381,170.848"/>
<path d="M350.291,172.382l-9.435,9.435l-4.26-4.259l-1.829,1.828l5.174,5.176c0.252,0.252,0.584,0.379,0.915,0.379
	s0.663-0.127,0.915-0.379l10.35-10.35L350.291,172.382z M350.291,172.382"/>
<rect x="289.106" y="139.66" width="41.4" height="2.587"/>
<rect x="289.106" y="146.128" width="41.4" height="2.587"/>
<rect x="289.106" y="152.597" width="41.4" height="2.587"/>
<rect x="289.106" y="159.065" width="31.05" height="2.588"/>
<rect x="289.106" y="165.534" width="31.05" height="2.588"/>
<rect x="289.106" y="172.002" width="31.05" height="2.588"/>
<rect x="289.106" y="178.472" width="31.05" height="2.588"/>
<rect x="330.507" y="165.534" width="2.587" height="2.588"/>
<rect x="335.682" y="165.534" width="2.588" height="2.588"/>
<rect x="340.856" y="165.534" width="2.587" height="2.588"/>
<rect x="346.031" y="165.534" width="2.588" height="2.588"/>
<rect x="351.207" y="165.534" width="2.587" height="2.588"/>
<path d="M307.303,327.396v-68.665c0-6.998-5.693-12.691-12.691-12.691H200.69c-6.999,0-12.692,5.693-12.692,12.691v96.458
	c0,6.998,5.693,12.691,12.692,12.691h68.942c2.478,17.193,17.264,30.462,35.131,30.462c19.597,0,35.537-15.941,35.537-35.539
	C340.301,344.066,325.713,328.707,307.303,327.396L307.303,327.396z M273.367,346.207c-0.291,0.545-0.546,1.112-0.808,1.672
	c-0.214,0.459-0.438,0.912-0.636,1.382c-0.242,0.591-0.449,1.201-0.661,1.809c-0.163,0.465-0.343,0.919-0.487,1.392
	c-0.199,0.647-0.348,1.315-0.51,1.977c-0.111,0.456-0.242,0.899-0.336,1.36c-0.15,0.747-0.246,1.512-0.348,2.273
	c-0.053,0.395-0.132,0.78-0.172,1.181c-0.119,1.17-0.184,2.354-0.184,3.552H200.69c-4.198,0-7.614-3.416-7.614-7.614v-96.458
	c0-4.198,3.416-7.615,7.614-7.615h93.921c4.197,0,7.614,3.417,7.614,7.615v68.624c-0.194,0.014-0.378,0.052-0.568,0.068
	c-0.538,0.046-1.066,0.119-1.598,0.191c-0.626,0.083-1.253,0.17-1.87,0.286c-0.525,0.1-1.043,0.218-1.559,0.341
	c-0.604,0.143-1.204,0.29-1.793,0.462c-0.51,0.146-1.006,0.314-1.507,0.484c-0.579,0.199-1.149,0.404-1.714,0.628
	c-0.489,0.195-0.971,0.402-1.448,0.621c-0.548,0.249-1.089,0.509-1.622,0.782c-0.469,0.24-0.93,0.493-1.384,0.752
	c-0.518,0.296-1.025,0.605-1.526,0.926c-0.441,0.284-0.879,0.574-1.305,0.876c-0.484,0.342-0.953,0.699-1.422,1.064
	c-0.414,0.323-0.821,0.648-1.221,0.988c-0.449,0.384-0.881,0.785-1.309,1.191c-0.382,0.361-0.76,0.719-1.122,1.097
	c-0.413,0.426-0.806,0.867-1.196,1.313c-0.342,0.393-0.688,0.783-1.014,1.189c-0.371,0.468-0.723,0.952-1.073,1.436
	c-0.302,0.42-0.608,0.833-0.896,1.268c-0.333,0.505-0.637,1.03-0.945,1.554C273.877,345.316,273.608,345.752,273.367,346.207
	L273.367,346.207z M304.764,393.266c-15.999,0-29.127-12.406-30.34-28.101c0-0.004,0.001-0.009,0.001-0.016
	c-0.061-0.775-0.121-1.552-0.121-2.346c0-16.796,13.663-30.459,30.46-30.459s30.461,13.663,30.461,30.459
	C335.225,379.602,321.561,393.266,304.764,393.266L304.764,393.266z M304.764,393.266"/>
<path d="M292.071,347.575c-4.199,0-7.614,3.416-7.614,7.614v2.539h5.076v-2.539c0-1.4,1.138-2.538,2.538-2.538
	c1.402,0,2.54,1.138,2.54,2.538v2.539h5.076v-2.539C299.688,350.991,296.27,347.575,292.071,347.575L292.071,347.575z
	 M292.071,347.575"/>
<path d="M317.455,347.575c-4.199,0-7.615,3.416-7.615,7.614v2.539h5.078v-2.539c0-1.4,1.137-2.538,2.537-2.538
	c1.402,0,2.539,1.138,2.539,2.538v2.539h5.077v-2.539C325.071,350.991,321.654,347.575,317.455,347.575L317.455,347.575z
	 M317.455,347.575"/>
<path d="M314.918,365.344h-20.307c-1.404,0-2.54,1.134-2.54,2.537c0,6.998,5.694,12.692,12.692,12.692s12.691-5.694,12.691-12.692
	C317.455,366.478,316.32,365.344,314.918,365.344L314.918,365.344z M304.764,375.496c-3.31,0-6.133-2.121-7.182-5.076h14.362
	C310.896,373.375,308.074,375.496,304.764,375.496L304.764,375.496z M304.764,375.496"/>
<path d="M228.611,256.193c-16.796,0-30.459,13.664-30.459,30.46c0,16.797,13.663,30.46,30.459,30.46
	c16.798,0,30.461-13.663,30.461-30.46C259.072,269.857,245.409,256.193,228.611,256.193L228.611,256.193z M253.867,284.114h-7.689
	c-0.634-4.4-2.874-8.286-6.119-11.03l4.573-6.099C249.725,271.141,253.18,277.224,253.867,284.114L253.867,284.114z
	 M241.304,286.653c0,6.998-5.694,12.691-12.692,12.691s-12.691-5.693-12.691-12.691s5.693-12.692,12.691-12.692
	S241.304,279.655,241.304,286.653L241.304,286.653z M228.611,261.269c4.25,0,8.254,1.064,11.777,2.918l-4.651,6.202
	c-2.185-0.961-4.591-1.504-7.126-1.504c-3.329,0-6.437,0.937-9.102,2.538l-5.498-5.498
	C218.146,263.003,223.179,261.269,228.611,261.269L228.611,261.269z M228.611,312.036c-13.996,0-25.383-11.385-25.383-25.383
	c0-6.732,2.654-12.842,6.941-17.391l5.383,5.381c-2.911,3.169-4.708,7.377-4.708,12.01c0,9.795,7.972,17.769,17.767,17.769
	c2.66,0,5.177-0.604,7.447-1.657l5.613,5.614C237.851,310.684,233.393,312.036,228.611,312.036L228.611,312.036z M245.775,305.304
	l-5.383-5.383c3.064-2.724,5.176-6.481,5.789-10.728h7.688C253.232,295.548,250.229,301.197,245.775,305.304L245.775,305.304z
	 M245.775,305.304"/>
<path d="M289.533,273.961v-12.692h-5.076v12.692h-2.539v5.077h2.539v38.075h5.076v-38.075h2.538v-5.077H289.533z M289.533,273.961"
	/>
<path d="M274.304,284.114v-22.846h-5.077v22.846h-2.539v5.078h2.539v27.921h5.077v-27.921h2.538v-5.078H274.304z M274.304,284.114"
	/>
<path d="M223.537,322.19h-20.309c-1.404,0-2.538,1.135-2.538,2.538v10.154c0,1.403,1.134,2.538,2.538,2.538h20.309
	c1.403,0,2.537-1.135,2.537-2.538v-10.154C226.074,323.325,224.94,322.19,223.537,322.19L223.537,322.19z M220.997,332.345h-15.229
	v-5.077h15.229V332.345z M220.997,332.345"/>
<path d="M253.996,322.19h-20.307c-1.404,0-2.539,1.135-2.539,2.538v10.154c0,1.403,1.135,2.538,2.539,2.538h20.307
	c1.404,0,2.539-1.135,2.539-2.538v-10.154C256.535,323.325,255.4,322.19,253.996,322.19L253.996,322.19z M251.458,332.345h-15.229
	v-5.077h15.229V332.345z M251.458,332.345"/>
<path d="M223.537,342.498h-20.309c-1.404,0-2.538,1.135-2.538,2.539v10.152c0,1.403,1.134,2.539,2.538,2.539h20.309
	c1.403,0,2.537-1.136,2.537-2.539v-10.152C226.074,343.633,224.94,342.498,223.537,342.498L223.537,342.498z M220.997,352.651
	h-15.229v-5.076h15.229V352.651z M220.997,352.651"/>
<path d="M253.996,342.498h-20.307c-1.404,0-2.539,1.135-2.539,2.539v10.152c0,1.403,1.135,2.539,2.539,2.539h20.307
	c1.404,0,2.539-1.136,2.539-2.539v-10.152C256.535,343.633,255.4,342.498,253.996,342.498L253.996,342.498z M251.458,352.651
	h-15.229v-5.076h15.229V352.651z M251.458,352.651"/>
</svg>
