<?xml version="1.0" encoding="utf-8"?>
<!-- Generator: Adobe Illustrator 15.1.0, SVG Export Plug-In  -->
<!DOCTYPE svg PUBLIC "-//W3C//DTD SVG 1.1//EN" "http://www.w3.org/Graphics/SVG/1.1/DTD/svg11.dtd" [
	<!ENTITY ns_flows "http://ns.adobe.com/Flows/1.0/">
]>
<svg version="1.1"
	 xmlns="http://www.w3.org/2000/svg" xmlns:xlink="http://www.w3.org/1999/xlink" xmlns:a="http://ns.adobe.com/AdobeSVGViewerExtensions/3.0/"
	 x="0px" y="0px" width="500px" height="500px" viewBox="-77.459 -72.82 500 500" enable-background="new -77.459 -72.82 500 500"
	 xml:space="preserve">
<defs>
</defs>
<path d="M152.781,191.128c0-2.497-2.032-4.528-4.528-4.528h-24.497c1.208-3.398,1.855-6.938,1.855-10.566
	c0-17.477-14.219-31.697-31.697-31.697s-31.696,14.22-31.696,31.697c0,17.477,14.218,31.696,31.696,31.696v7.549
	c0,1.164,0.456,2.216,1.177,3.019c-0.724,0.802-1.177,1.854-1.177,3.018v9.057c0,2.497,2.033,4.529,4.529,4.529h49.81
	c2.496,0,4.528-2.032,4.528-4.529v-9.057c0-1.164-0.456-2.216-1.177-3.018c0.724-0.803,1.177-1.855,1.177-3.019v-9.058
	c0-1.163-0.456-2.215-1.177-3.017c0.724-0.805,1.177-1.855,1.177-3.019V191.128z M122.516,174.524h-15.082
	c-0.181-4.384-1.105-8.504-2.398-12.21c3.502-1.422,6.726-3.514,9.478-6.186C119.175,160.951,122.143,167.396,122.516,174.524
	L122.516,174.524z M122.524,177.543c-0.164,3.11-0.797,6.15-1.953,9.057h-14.584c0.841-3.073,1.325-6.102,1.449-9.057H122.524z
	 M112.3,154.052c-2.433,2.337-5.269,4.158-8.348,5.416c-2.178-5.209-4.887-9.377-6.75-11.91
	C102.91,148.213,108.112,150.544,112.3,154.052L112.3,154.052z M104.425,174.526H83.403c0.182-3.992,1.055-7.785,2.26-11.215
	c2.656,0.77,5.429,1.183,8.25,1.183s5.594-0.411,8.249-1.183C103.369,166.74,104.243,170.532,104.425,174.526L104.425,174.526z
	 M101.066,160.454c-2.31,0.646-4.706,1.02-7.152,1.02c-2.446,0-4.843-0.375-7.151-1.02c2.419-5.708,5.517-10.104,7.151-12.217
	C95.55,150.35,98.646,154.746,101.066,160.454L101.066,160.454z M90.625,147.559c-1.861,2.533-4.571,6.701-6.748,11.91
	c-3.079-1.258-5.916-3.079-8.349-5.416C79.718,150.544,84.919,148.213,90.625,147.559L90.625,147.559z M73.315,156.128
	c2.752,2.672,5.975,4.764,9.479,6.187c-1.294,3.705-2.218,7.829-2.4,12.211H65.313C65.686,167.396,68.653,160.951,73.315,156.128
	L73.315,156.128z M65.313,177.543h15.081c0.193,4.636,1.209,8.988,2.617,12.854c-3.493,1.289-6.747,3.194-9.598,5.652
	C68.692,191.214,65.688,184.724,65.313,177.543L65.313,177.543z M75.648,198.126c2.533-2.128,5.398-3.788,8.477-4.912
	c2.13,4.928,4.709,8.862,6.5,11.294C84.977,203.859,79.817,201.577,75.648,198.126L75.648,198.126z M93.914,203.834
	c-1.565-2.024-4.471-6.152-6.841-11.515c2.225-0.548,4.519-0.812,6.841-0.813v8.679c0,0.259,0.029,0.514,0.073,0.768
	c0.006,0.038,0.009,0.076,0.016,0.115c0.016,0.074,0.042,0.142,0.062,0.214c0.033,0.131,0.068,0.263,0.111,0.39
	c0.027,0.074,0.048,0.147,0.076,0.22c0.026,0.063,0.058,0.119,0.085,0.179c0.042,0.092,0.09,0.181,0.139,0.268
	c0.056,0.103,0.107,0.206,0.171,0.301c0.025,0.041,0.051,0.082,0.078,0.122C94.427,203.164,94.157,203.524,93.914,203.834
	L93.914,203.834z M94.795,188.468c-3.021-0.085-6.011,0.256-8.883,1.01c-1.336-3.614-2.314-7.664-2.51-11.936h21.019
	c-0.135,2.942-0.634,5.973-1.544,9.057h-4.434C96.942,186.6,95.62,187.341,94.795,188.468L94.795,188.468z M149.762,230.372
	c0,0.834-0.677,1.509-1.509,1.509h-49.81c-0.833,0-1.511-0.675-1.511-1.509v-9.057c0-0.833,0.678-1.508,1.511-1.508h49.81
	c0.832,0,1.509,0.676,1.509,1.508V230.372z M149.762,215.279c0,0.833-0.677,1.508-1.509,1.508h-49.81
	c-0.833,0-1.511-0.675-1.511-1.508v-9.058c0-0.008,0.006-0.017,0.006-0.024c0.014-0.819,0.687-1.486,1.505-1.486h49.81
	c0.832,0,1.509,0.678,1.509,1.51V215.279z M149.762,200.185c0,0.833-0.677,1.508-1.509,1.508h-49.81
	c-0.38,0-0.716-0.153-0.981-0.385c-0.042-0.035-0.085-0.07-0.123-0.11c-0.106-0.117-0.198-0.247-0.264-0.392
	c-0.015-0.033-0.025-0.065-0.037-0.096c-0.061-0.166-0.105-0.341-0.105-0.525v-9.057c0-0.833,0.678-1.509,1.511-1.509h49.81
	c0.832,0,1.509,0.676,1.509,1.509V200.185z M149.762,200.185"/>
<rect x="143.725" y="194.146" width="3.02" height="3.02"/>
<rect x="99.952" y="194.146" width="25.66" height="3.02"/>
<rect x="143.725" y="209.24" width="3.02" height="3.02"/>
<rect x="99.952" y="209.24" width="25.66" height="3.02"/>
<rect x="143.725" y="224.335" width="3.02" height="3.018"/>
<rect x="99.952" y="224.335" width="25.66" height="3.018"/>
<rect x="125.611" y="162.45" width="3.02" height="3.019"/>
<rect x="131.648" y="162.45" width="3.02" height="3.019"/>
<rect x="137.688" y="162.45" width="3.018" height="3.019"/>
<rect x="143.725" y="162.45" width="3.02" height="3.019"/>
<rect x="143.725" y="168.487" width="3.02" height="3.019"/>
<rect x="143.725" y="174.524" width="3.02" height="3.019"/>
<rect x="143.725" y="180.563" width="3.02" height="3.018"/>
<rect x="87.877" y="224.335" width="3.019" height="3.018"/>
<rect x="81.839" y="224.335" width="3.019" height="3.018"/>
<rect x="75.802" y="224.335" width="3.019" height="3.018"/>
<rect x="75.802" y="218.298" width="3.019" height="3.018"/>
<rect x="75.802" y="212.26" width="3.019" height="3.019"/>
<rect x="75.802" y="206.221" width="3.019" height="3.019"/>
<path stroke="#FFFFFF" stroke-width="5" d="M169.29,77.742c-33.423,0-60.614,27.191-60.614,60.613
	c0,21.579,6.563,30.229,38.102,71.809c5.477,7.219,11.682,15.398,18.783,24.865c0.88,1.172,2.262,1.865,3.729,1.865
	c1.469,0,2.849-0.693,3.73-1.866c7.059-9.416,13.237-17.565,18.688-24.756c31.616-41.7,38.196-50.376,38.196-71.917
	C229.905,104.933,202.713,77.742,169.29,77.742L169.29,77.742z M184.278,204.64c-4.477,5.904-9.444,12.456-14.99,19.83
	c-5.581-7.42-10.578-14.006-15.08-19.941c-30.679-40.446-36.207-47.731-36.207-66.172c0-28.281,23.009-51.289,51.289-51.289
	c28.281,0,51.289,23.007,51.289,51.289C220.579,156.76,215.036,164.07,184.278,204.64L184.278,204.64z M184.278,204.64"/>
<path stroke="#FFFFFF" stroke-width="5" d="M169.29,105.717c-17.998,0-32.638,14.642-32.638,32.638
	c0,17.997,14.64,32.637,32.638,32.637c17.997,0,32.638-14.64,32.638-32.637C201.928,120.359,187.287,105.717,169.29,105.717
	L169.29,105.717z M169.29,161.669c-12.855,0-23.313-10.457-23.313-23.313c0-12.857,10.458-23.312,23.313-23.312
	c12.854,0,23.313,10.455,23.313,23.312C192.604,151.212,182.145,161.669,169.29,161.669L169.29,161.669z M169.29,161.669"/>
<path fill="#FFFFFF" d="M169.29,86.29c-28.28,0-51.289,23.008-51.289,51.289c0,18.441,5.528,25.727,36.207,66.172
	c4.502,5.936,9.499,12.521,15.08,19.941c5.546-7.372,10.513-13.925,14.99-19.829c30.758-40.57,36.301-47.879,36.301-66.284
	C220.579,109.298,197.571,86.29,169.29,86.29z M169.29,170.217c-17.998,0-32.638-14.642-32.638-32.638s14.64-32.638,32.638-32.638
	c17.997,0,32.638,14.642,32.638,32.638S187.287,170.217,169.29,170.217z"/>
<path fill="#FFFFFF" d="M169.29,114.267c-12.855,0-23.313,10.456-23.313,23.312s10.458,23.313,23.313,23.313
	c12.854,0,23.313-10.457,23.313-23.313S182.145,114.267,169.29,114.267z"/>
<path stroke="#FFFFFF" d="M6.991,119.661c0,3.58-2.912,6.492-6.491,6.492v4.328c3.579,0,6.491,2.91,6.491,6.49h4.327
	c0-3.58,2.911-6.49,6.492-6.49v-4.328c-3.581,0-6.492-2.912-6.492-6.492H6.991L6.991,119.661z M9.154,130.546
	c-0.632-0.85-1.38-1.596-2.229-2.23c0.85-0.631,1.598-1.379,2.229-2.23c0.634,0.852,1.381,1.6,2.231,2.23
	C10.535,128.95,9.788,129.696,9.154,130.546L9.154,130.546z M9.154,130.546"/>
<path stroke="#FFFFFF" stroke-width="2" d="M307.868,69.517c0,5.293-4.31,9.6-9.6,9.6v6.403c5.29,0,9.6,4.308,9.6,9.601h6.401
	c0-5.293,4.306-9.601,9.602-9.601v-6.403c-5.296,0-9.602-4.307-9.602-9.6H307.868L307.868,69.517z M311.069,85.618
	c-0.936-1.258-2.041-2.367-3.297-3.3c1.256-0.935,2.361-2.042,3.297-3.3c0.936,1.258,2.042,2.365,3.299,3.3
	C313.111,83.251,312.005,84.36,311.069,85.618L311.069,85.618z M311.069,85.618"/>
<path stroke="#FFFFFF" d="M108.001,314.345c0,3.362-2.738,6.104-6.103,6.104v4.066c3.364,0,6.103,2.737,6.103,6.104h4.068
	c0-3.366,2.738-6.104,6.104-6.104v-4.066c-3.365,0-6.104-2.741-6.104-6.104H108.001L108.001,314.345z M110.035,324.577
	c-0.594-0.798-1.298-1.502-2.098-2.097c0.8-0.593,1.504-1.297,2.098-2.097c0.594,0.8,1.298,1.504,2.098,2.097
	C111.333,323.075,110.629,323.779,110.035,324.577L110.035,324.577z M110.035,324.577"/>
<path fill="#FFFFFF" d="M256.437,157.338h-0.114c-1.05-9.451-9.083-16.82-18.809-16.82c-6.58,0-12.548,3.342-16,8.845
	c-0.956-0.289-1.935-0.435-2.922-0.435c-5.141,0-9.433,3.708-10.338,8.591c-0.753-0.12-1.515-0.181-2.278-0.181
	c-8.115,0-14.718,6.601-14.718,14.718c0,8.115,6.603,14.718,14.718,14.718h23.13h4.204h23.128c8.116,0,14.719-6.603,14.719-14.718
	C271.155,163.939,264.553,157.338,256.437,157.338z"/>
<path d="M233.479,187.783h23.584c8.275,0,15.007-6.732,15.007-15.007c0-8.277-6.732-15.009-15.007-15.009h-0.118
	c-1.07-9.635-9.262-17.151-19.178-17.151c-6.71,0-12.796,3.409-16.315,9.02c-0.976-0.296-1.973-0.444-2.98-0.444
	c-5.241,0-9.618,3.782-10.542,8.76c-0.768-0.122-1.544-0.185-2.322-0.185c-8.275,0-15.008,6.732-15.008,15.009
	c0,8.274,6.732,15.007,15.008,15.007h23.584 M205.607,183.495c-5.911,0-10.72-4.808-10.72-10.719c0-5.911,4.809-10.721,10.72-10.721
	c1.226,0,2.448,0.219,3.638,0.649c0.689,0.251,1.459,0.13,2.04-0.32c0.582-0.447,0.892-1.161,0.824-1.892l-0.07-0.581
	c0-3.545,2.887-6.433,6.433-6.433c0.988,0,1.979,0.254,2.94,0.752c0.511,0.267,1.11,0.315,1.654,0.136
	c0.547-0.181,1-0.573,1.254-1.087c2.556-5.167,7.707-8.376,13.447-8.376c8.274,0,15.007,6.731,15.007,14.949
	c-0.004,0.053-0.011,0.201-0.011,0.255c0,0.629,0.279,1.229,0.761,1.637c0.482,0.405,1.114,0.58,1.743,0.476
	c0.65-0.11,1.237-0.165,1.795-0.165c5.91,0,10.72,4.81,10.72,10.721c0,5.911-4.81,10.719-10.72,10.719H205.607z M265.638,219.943"/>
<rect x="254.918" y="166.344" width="4.288" height="4.288"/>
<rect x="254.918" y="174.918" width="4.288" height="4.289"/>
<rect x="246.343" y="174.918" width="4.289" height="4.289"/>
<path fill="none" stroke="#010101" stroke-width="5" stroke-linecap="square" stroke-linejoin="round" stroke-dasharray="0,12" d="
	M6.301,193.724C-8.166,103.742,53.061,19.083,143.05,4.612c89.98-14.45,174.645,46.774,189.095,136.764
	c14.467,89.969-46.754,174.643-136.743,189.107C105.42,344.941,20.757,283.71,6.301,193.724z"/>
<path fill="#FFFFFF" d="M191.289,205.743c1.929,0,3.822,0.361,5.629,1.074l1.332,0.523v-5.513c0-3.773-3.071-6.845-6.845-6.845
	s-6.845,3.072-6.845,6.845v5.43l1.032-0.413C187.419,206.112,189.335,205.743,191.289,205.743z"/>
<rect x="189.317" y="324.245" fill="#FFFFFF" width="4.179" height="0.859"/>
<path fill="#FFFFFF" d="M207.426,220.718l-13.839-5.457c-1.487-0.586-3.143-0.581-4.625,0.012l-13.578,5.431v21.814h32.041V220.718z
	 M187.983,239.285c-0.832,0.843-2.002,1.331-3.207,1.331c-1.201,0-2.373-0.487-3.211-1.337c-0.842-0.837-1.328-2.008-1.328-3.202
	c0-1.198,0.486-2.37,1.334-3.214c0.838-0.841,2.007-1.327,3.205-1.327c1.199,0,2.369,0.485,3.21,1.329
	c0.844,0.842,1.331,2.014,1.331,3.212C189.317,237.271,188.831,238.441,187.983,239.285z M187.983,228.333
	c-0.832,0.844-2.002,1.332-3.207,1.332c-1.201,0-2.373-0.488-3.211-1.338c-0.842-0.837-1.328-2.006-1.328-3.201
	c0-1.197,0.485-2.369,1.333-3.216c0.842-0.841,2.011-1.324,3.206-1.324c1.198,0,2.367,0.482,3.208,1.324
	c0.847,0.847,1.333,2.019,1.333,3.216C189.317,226.32,188.831,227.49,187.983,228.333z M201.243,239.283
	c-0.838,0.845-2.009,1.333-3.209,1.333c-1.203,0-2.374-0.487-3.212-1.337c-0.84-0.84-1.325-2.009-1.325-3.202
	c0-1.196,0.485-2.368,1.33-3.213c0.839-0.842,2.009-1.327,3.208-1.327c1.197,0,2.367,0.484,3.209,1.327
	c0.846,0.846,1.33,2.017,1.33,3.213C202.573,237.269,202.089,238.438,201.243,239.283z M201.243,228.332
	c-0.838,0.846-2.009,1.333-3.209,1.333c-1.203,0-2.374-0.488-3.212-1.338c-0.84-0.839-1.325-2.008-1.325-3.201
	c0-1.195,0.484-2.367,1.329-3.215c0.843-0.843,2.011-1.325,3.209-1.325c1.195,0,2.364,0.482,3.208,1.323
	c0.847,0.85,1.331,2.022,1.331,3.217C202.573,226.318,202.089,227.487,201.243,228.332z"/>
<path fill="#FFFFFF" d="M163.956,325.104h16.281v-5.398c0-2.503,2.036-4.541,4.539-4.541h13.26c2.501,0,4.537,2.037,4.537,4.541
	v5.398h16.284v-73.506h-54.901V325.104z M201.599,261.876c0.838-0.843,2.009-1.329,3.209-1.329c1.201,0,2.372,0.486,3.21,1.333
	c0.843,0.835,1.329,2.006,1.329,3.207c0,1.203-0.488,2.373-1.338,3.212c-0.831,0.839-2.001,1.325-3.202,1.325
	c-1.199,0-2.37-0.486-3.211-1.331c-0.844-0.844-1.328-2.013-1.328-3.206C200.269,263.89,200.754,262.719,201.599,261.876z
	 M201.602,273.979c0.837-0.841,2.008-1.326,3.207-1.326c1.193,0,2.362,0.485,3.207,1.33c0.845,0.833,1.333,2.004,1.333,3.207
	c0,1.193-0.485,2.363-1.333,3.209c-0.845,0.846-2.014,1.33-3.207,1.33c-1.199,0-2.37-0.485-3.211-1.332
	c-0.843-0.838-1.328-2.01-1.328-3.208C200.269,275.989,200.755,274.82,201.602,273.979z M201.602,286.084
	c0.834-0.842,2.006-1.329,3.207-1.329c1.202,0,2.373,0.488,3.211,1.338c0.84,0.829,1.328,1.999,1.328,3.202
	c0,1.201-0.486,2.372-1.336,3.214c-0.833,0.84-2.003,1.326-3.204,1.326c-1.199,0-2.37-0.485-3.211-1.332
	c-0.843-0.839-1.328-2.01-1.328-3.208C200.269,288.095,200.755,286.924,201.602,286.084z M201.602,298.189
	c0.834-0.842,2.006-1.329,3.207-1.329c1.202,0,2.373,0.487,3.211,1.338c0.84,0.829,1.328,1.999,1.328,3.202
	c0,1.203-0.488,2.373-1.338,3.212c-0.837,0.841-2.008,1.328-3.202,1.328c-1.201,0-2.373-0.487-3.214-1.337
	c-0.839-0.833-1.326-2.003-1.326-3.203S200.755,299.03,201.602,298.189z M188.058,261.875c0.832-0.84,2.002-1.327,3.204-1.327
	c1.202,0,2.372,0.486,3.211,1.333c0.843,0.835,1.328,2.006,1.328,3.207c0,1.203-0.486,2.373-1.337,3.212
	c-0.832,0.839-2.002,1.325-3.202,1.325c-1.201,0-2.37-0.486-3.211-1.333c-0.843-0.838-1.328-2.008-1.328-3.203
	C186.723,263.888,187.208,262.716,188.058,261.875z M188.06,273.978c0.832-0.838,2.001-1.325,3.202-1.325
	c1.2,0,2.37,0.486,3.211,1.333c0.842,0.831,1.328,2.001,1.328,3.204c0,1.2-0.485,2.372-1.335,3.214
	c-0.833,0.84-2.003,1.326-3.204,1.326c-1.201,0-2.37-0.486-3.211-1.333c-0.843-0.843-1.328-2.014-1.328-3.207
	C186.723,275.987,187.209,274.817,188.06,273.978z M188.06,286.083c0.829-0.84,2-1.328,3.202-1.328s2.374,0.488,3.212,1.338
	c0.841,0.829,1.327,1.999,1.327,3.202c0,1.201-0.485,2.372-1.335,3.214c-0.833,0.84-2.003,1.326-3.204,1.326
	c-1.201,0-2.37-0.486-3.211-1.333c-0.843-0.835-1.328-2.006-1.328-3.207C186.723,288.092,187.209,286.922,188.06,286.083z
	 M188.06,298.188c0.829-0.84,2-1.328,3.202-1.328s2.374,0.487,3.212,1.338c0.841,0.829,1.327,1.999,1.327,3.202
	c0,1.203-0.486,2.373-1.337,3.212c-0.829,0.84-2,1.328-3.202,1.328s-2.373-0.488-3.212-1.338c-0.84-0.829-1.327-1.999-1.327-3.202
	C186.723,300.197,187.209,299.027,188.06,298.188z M174.797,261.876c0.838-0.843,2.009-1.329,3.208-1.329
	c1.195,0,2.363,0.485,3.208,1.33c0.844,0.841,1.329,2.012,1.329,3.21c0,1.2-0.486,2.37-1.332,3.21
	c-0.833,0.84-2.004,1.326-3.205,1.326c-1.199,0-2.369-0.486-3.211-1.331c-0.843-0.836-1.328-2.006-1.328-3.206
	C173.466,263.89,173.951,262.719,174.797,261.876z M174.799,273.979c0.838-0.841,2.008-1.326,3.207-1.326
	c1.194,0,2.362,0.485,3.208,1.33c0.843,0.837,1.329,2.006,1.329,3.207c0,1.198-0.485,2.37-1.331,3.211
	c-0.833,0.842-2.005,1.328-3.206,1.328c-1.199,0-2.369-0.485-3.211-1.332c-0.844-0.847-1.328-2.017-1.328-3.208
	C173.466,275.989,173.951,274.82,174.799,273.979z M174.799,286.084c0.836-0.842,2.006-1.329,3.207-1.329
	c1.204,0,2.373,0.488,3.212,1.338c0.838,0.831,1.324,2.001,1.324,3.202c0,1.198-0.485,2.37-1.331,3.212
	c-0.833,0.842-2.005,1.328-3.206,1.328c-1.199,0-2.369-0.485-3.211-1.332c-0.843-0.839-1.328-2.01-1.328-3.208
	C173.466,288.095,173.951,286.924,174.799,286.084z M174.799,298.189c0.836-0.842,2.006-1.329,3.207-1.329
	c1.204,0,2.373,0.487,3.212,1.338c0.838,0.832,1.324,2.002,1.324,3.202s-0.486,2.37-1.332,3.21c-0.84,0.843-2.01,1.33-3.205,1.33
	c-1.2,0-2.371-0.487-3.213-1.337c-0.841-0.833-1.326-2.003-1.326-3.203S173.951,299.03,174.799,298.189z"/>
<path fill="#FFFFFF" d="M227.935,329.644c0,2.504-2.036,4.54-4.537,4.54h-63.981c-2.503,0-4.54-2.036-4.54-4.54v-82.585
	c0-2.503,2.037-4.54,4.54-4.54h6.893V217.63c0-1.869,1.122-3.524,2.857-4.215l6.318-2.528v-9.06c0-7.106,4.641-13.265,11.386-15.261
	v-5.633c0-2.503,2.035-4.541,4.536-4.541c2.504,0,4.54,2.037,4.54,4.541v5.633c6.745,1.997,11.385,8.155,11.385,15.261v9.095
	l6.301,2.485c1.746,0.689,2.874,2.347,2.874,4.223v24.889h6.893c2.501,0,4.537,2.036,4.537,4.54V329.644z"/>
<path stroke="#FFFFFF" stroke-width="3" d="M227.376,242.534h-8.961v-29.186c0-1.598-0.978-3.031-2.461-3.616l-7.851-3.097v-11.049
	c0-7.86-5.466-14.465-12.795-16.22v-7.263c0-2.148-1.74-3.887-3.888-3.887c-2.144,0-3.884,1.739-3.884,3.887v7.263
	c-7.329,1.755-12.795,8.36-12.795,16.22v11.004l-7.867,3.147c-1.477,0.589-2.445,2.019-2.445,3.61v29.186h-8.961
	c-2.147,0-3.887,1.743-3.887,3.887v92.815c0,2.148,1.739,3.888,3.887,3.888h71.908c2.144,0,3.884-1.739,3.884-3.888v-92.815
	C231.261,244.277,229.521,242.534,227.376,242.534L227.376,242.534z M191.421,186.68c4.912,0,8.907,3.995,8.907,8.907v7.981
	l-3.156-1.244c-3.817-1.505-8.022-1.496-11.834,0.029l-2.824,1.129v-7.895C182.514,190.675,186.509,186.68,191.421,186.68
	L191.421,186.68z M172.202,215.98l16.021-6.409c1.965-0.788,4.132-0.791,6.096-0.016l16.321,6.437v26.542h-38.438V215.98z
	 M194.985,335.35h-7.125v-3.395h7.125V335.35z M223.489,335.35h-20.731v-7.282c0-2.147-1.74-3.887-3.885-3.887h-14.901
	c-2.145,0-3.887,1.739-3.887,3.887v7.282h-20.729v-85.041h64.132V335.35z M223.489,335.35"/>
<path stroke="#FFFFFF" stroke-width="3" d="M183.972,230.191c-1.025,0-2.028,0.415-2.746,1.136
	c-0.728,0.725-1.142,1.728-1.142,2.752c0,1.025,0.414,2.021,1.142,2.746c0.718,0.728,1.721,1.142,2.746,1.142
	s2.027-0.414,2.746-1.142c0.728-0.724,1.142-1.721,1.142-2.746c0-1.024-0.415-2.027-1.142-2.752
	C186,230.606,184.997,230.191,183.972,230.191L183.972,230.191z M183.972,230.191"/>
<path stroke="#FFFFFF" stroke-width="3" d="M198.87,230.191c-1.021,0-2.027,0.415-2.745,1.136c-0.725,0.725-1.14,1.721-1.14,2.752
	c0,1.025,0.415,2.021,1.14,2.746c0.718,0.728,1.724,1.142,2.745,1.142c1.025,0,2.027-0.414,2.749-1.142
	c0.725-0.724,1.139-1.727,1.139-2.746c0-1.024-0.414-2.027-1.139-2.752C200.897,230.606,199.896,230.191,198.87,230.191
	L198.87,230.191z M198.87,230.191"/>
<path stroke="#FFFFFF" stroke-width="3" d="M183.972,217.884c-1.025,0-2.028,0.414-2.746,1.132c-0.728,0.728-1.142,1.73-1.142,2.755
	c0,1.021,0.414,2.021,1.142,2.746c0.718,0.727,1.721,1.141,2.746,1.141s2.027-0.414,2.746-1.141
	c0.728-0.725,1.142-1.725,1.142-2.746c0-1.024-0.415-2.027-1.142-2.755C186,218.298,184.997,217.884,183.972,217.884
	L183.972,217.884z M183.972,217.884"/>
<path stroke="#FFFFFF" stroke-width="3" d="M198.87,225.659c1.025,0,2.027-0.414,2.749-1.141c0.725-0.725,1.139-1.725,1.139-2.746
	c0-1.024-0.414-2.027-1.139-2.755c-0.722-0.718-1.724-1.132-2.749-1.132c-1.021,0-2.027,0.414-2.745,1.132
	c-0.725,0.728-1.14,1.73-1.14,2.755c0,1.021,0.415,2.021,1.14,2.746C196.843,225.245,197.849,225.659,198.87,225.659L198.87,225.659
	z M198.87,225.659"/>
<path stroke="#FFFFFF" stroke-width="3" d="M176.362,270.569c1.021,0,2.027-0.415,2.745-1.139c0.725-0.718,1.14-1.724,1.14-2.746
	c0-1.025-0.415-2.028-1.14-2.749c-0.724-0.725-1.724-1.139-2.745-1.139c-1.025,0-2.028,0.414-2.75,1.139
	c-0.724,0.721-1.138,1.724-1.138,2.749c0,1.021,0.414,2.027,1.138,2.746C174.334,270.154,175.337,270.569,176.362,270.569
	L176.362,270.569z M176.362,270.569"/>
<path stroke="#FFFFFF" stroke-width="3" d="M191.26,270.569c1.025,0,2.027-0.415,2.746-1.139c0.727-0.718,1.142-1.724,1.142-2.746
	c0-1.025-0.415-2.028-1.142-2.749c-0.719-0.725-1.721-1.139-2.746-1.139c-1.024,0-2.027,0.414-2.745,1.139
	c-0.728,0.721-1.143,1.724-1.143,2.749c0,1.021,0.415,2.021,1.143,2.746C189.232,270.154,190.235,270.569,191.26,270.569
	L191.26,270.569z M191.26,270.569"/>
<path stroke="#FFFFFF" stroke-width="3" d="M176.362,284.173c1.021,0,2.027-0.414,2.745-1.139c0.725-0.721,1.14-1.724,1.14-2.749
	c0-1.022-0.415-2.027-1.14-2.746c-0.724-0.724-1.724-1.139-2.745-1.139c-1.025,0-2.028,0.415-2.75,1.139
	c-0.724,0.718-1.138,1.724-1.138,2.746c0,1.025,0.414,2.021,1.138,2.749C174.334,283.759,175.337,284.173,176.362,284.173
	L176.362,284.173z M176.362,284.173"/>
<path stroke="#FFFFFF" stroke-width="3" d="M191.26,284.173c1.025,0,2.027-0.414,2.746-1.139c0.727-0.721,1.142-1.724,1.142-2.749
	c0-1.022-0.415-2.027-1.142-2.746c-0.719-0.724-1.721-1.139-2.746-1.139c-1.024,0-2.027,0.415-2.745,1.139
	c-0.728,0.718-1.143,1.724-1.143,2.746c0,1.025,0.415,2.021,1.143,2.749C189.232,283.759,190.235,284.173,191.26,284.173
	L191.26,284.173z M191.26,284.173"/>
<path stroke="#FFFFFF" stroke-width="3" d="M176.362,297.778c1.021,0,2.027-0.415,2.745-1.139c0.725-0.721,1.14-1.724,1.14-2.749
	c0-1.021-0.415-2.027-1.14-2.746c-0.717-0.728-1.724-1.142-2.745-1.142c-1.025,0-2.028,0.414-2.75,1.142
	c-0.724,0.718-1.138,1.724-1.138,2.746c0,1.025,0.414,2.028,1.138,2.749C174.334,297.363,175.337,297.778,176.362,297.778
	L176.362,297.778z M176.362,297.778"/>
<path stroke="#FFFFFF" stroke-width="3" d="M191.26,297.778c1.025,0,2.027-0.415,2.746-1.139c0.727-0.721,1.142-1.724,1.142-2.749
	c0-1.021-0.415-2.027-1.142-2.746c-0.719-0.728-1.721-1.142-2.746-1.142c-1.024,0-2.027,0.414-2.745,1.142
	c-0.728,0.718-1.143,1.724-1.143,2.746c0,1.025,0.415,2.028,1.143,2.749C189.232,297.363,190.235,297.778,191.26,297.778
	L191.26,297.778z M191.26,297.778"/>
<path stroke="#FFFFFF" stroke-width="3" d="M176.362,311.382c1.021,0,2.021-0.414,2.745-1.142c0.725-0.718,1.14-1.721,1.14-2.745
	c0-1.025-0.415-2.028-1.14-2.746c-0.717-0.728-1.724-1.142-2.745-1.142c-1.025,0-2.028,0.414-2.75,1.142
	c-0.724,0.718-1.138,1.72-1.138,2.746c0,1.024,0.414,2.027,1.138,2.745C174.334,310.968,175.337,311.382,176.362,311.382
	L176.362,311.382z M176.362,311.382"/>
<path stroke="#FFFFFF" stroke-width="3" d="M191.26,311.382c1.025,0,2.027-0.414,2.746-1.142c0.727-0.718,1.142-1.721,1.142-2.745
	c0-1.025-0.415-2.028-1.142-2.746c-0.719-0.728-1.721-1.142-2.746-1.142c-1.024,0-2.027,0.414-2.745,1.142
	c-0.728,0.718-1.143,1.72-1.143,2.746c0,1.024,0.415,2.027,1.143,2.745C189.232,310.968,190.235,311.382,191.26,311.382
	L191.26,311.382z M191.26,311.382"/>
<path stroke="#FFFFFF" stroke-width="3" d="M206.483,270.569c1.021,0,2.028-0.415,2.746-1.139c0.728-0.718,1.142-1.724,1.142-2.746
	c0-1.025-0.414-2.028-1.142-2.749c-0.718-0.725-1.725-1.139-2.746-1.139c-1.024,0-2.027,0.414-2.748,1.139
	c-0.725,0.721-1.14,1.724-1.14,2.749c0,1.021,0.415,2.021,1.14,2.746C204.456,270.154,205.459,270.569,206.483,270.569
	L206.483,270.569z M206.483,270.569"/>
<path stroke="#FFFFFF" stroke-width="3" d="M206.483,284.173c1.021,0,2.022-0.414,2.746-1.139c0.728-0.727,1.142-1.724,1.142-2.749
	c0-1.022-0.414-2.027-1.142-2.746c-0.724-0.724-1.725-1.139-2.746-1.139c-1.024,0-2.027,0.415-2.748,1.139
	c-0.725,0.718-1.14,1.724-1.14,2.746c0,1.025,0.415,2.028,1.14,2.749C204.456,283.759,205.459,284.173,206.483,284.173
	L206.483,284.173z M206.483,284.173"/>
<path stroke="#FFFFFF" stroke-width="3" d="M206.483,297.778c1.021,0,2.028-0.415,2.746-1.139c0.728-0.721,1.142-1.724,1.142-2.749
	c0-1.021-0.414-2.027-1.142-2.746c-0.718-0.728-1.725-1.142-2.746-1.142c-1.024,0-2.027,0.414-2.748,1.142
	c-0.725,0.718-1.14,1.724-1.14,2.746c0,1.025,0.415,2.028,1.14,2.749C204.456,297.363,205.459,297.778,206.483,297.778
	L206.483,297.778z M206.483,297.778"/>
<path stroke="#FFFFFF" stroke-width="3" d="M206.483,311.382c1.021,0,2.022-0.414,2.746-1.142c0.728-0.718,1.142-1.721,1.142-2.745
	c0-1.025-0.414-2.028-1.142-2.746c-0.718-0.728-1.725-1.142-2.746-1.142c-1.024,0-2.027,0.414-2.748,1.142
	c-0.725,0.718-1.14,1.72-1.14,2.746c0,1.024,0.415,2.027,1.14,2.745C204.456,310.968,205.459,311.382,206.483,311.382
	L206.483,311.382z M206.483,311.382"/>
</svg>
