<?xml version="1.0" encoding="utf-8"?>
<!-- Generator: Adobe Illustrator 15.1.0, SVG Export Plug-In  -->
<!DOCTYPE svg PUBLIC "-//W3C//DTD SVG 1.1//EN" "http://www.w3.org/Graphics/SVG/1.1/DTD/svg11.dtd" [
	<!ENTITY ns_flows "http://ns.adobe.com/Flows/1.0/">
]>
<svg version="1.1"
	 xmlns="http://www.w3.org/2000/svg" xmlns:xlink="http://www.w3.org/1999/xlink" xmlns:a="http://ns.adobe.com/AdobeSVGViewerExtensions/3.0/"
	 x="0px" y="0px" width="500px" height="500px" viewBox="-61.813 25.088 500 500" enable-background="new -61.813 25.088 500 500"
	 xml:space="preserve">
<defs>
</defs>
<path fill="none" stroke="#010101" stroke-width="5" stroke-linecap="square" stroke-linejoin="round" stroke-dasharray="0,12" d="
	M16.234,302.701c-15.26-94.927,49.33-184.238,144.264-199.505c94.928-15.244,184.244,49.346,199.49,144.279
	c15.262,94.915-49.324,184.242-144.26,199.502C120.803,462.23,31.486,397.633,16.234,302.701z"/>
<text transform="matrix(1 0 0 1 0 20.0879)" font-family="'MyriadPro-Regular'" font-size="24">Plesk Onyx Server Hosting</text>
<circle fill="#FFFFFF" cx="90.938" cy="415.128" r="33.25"/>
<g>
	<defs>
		<rect id="SVGID_6_" x="58.24" y="383.518" width="66.543" height="61.22"/>
	</defs>
	<clipPath id="SVGID_8_">
		<use xlink:href="#SVGID_6_"  overflow="visible"/>
	</clipPath>
	<path clip-path="url(#SVGID_8_)" d="M78.072,384.744c-3.836,0-6.878,3.12-6.878,6.962c0,3.238,2.211,5.88,5.2,6.639
		c2.281,1.065,5.65,2.729,6.321,4.075c0.955,1.731,1.757,4.913,1.678,7.361c0,0.026,0,0.047,0,0.078
		c-1.189,1.669-1.917,3.728-1.917,5.922c0,5.625,4.605,10.236,10.235,10.236c5.625,0,10.236-4.611,10.236-10.236
		c0-5.631-4.611-10.502-10.236-10.242c-0.878,0-1.741,0.109-2.562,0.322c-2.711-1.123-4.436-2.999-5.355-4.48
		c-0.743-1.191-0.63-4.279-0.401-6.795c0.401-0.873,0.64-1.851,0.64-2.88C85.033,387.864,81.914,384.744,78.072,384.744
		L78.072,384.744z M103.188,384.744c-3.836,0-6.878,3.12-6.878,6.962c0,3.837,3.042,6.878,6.878,6.878
		c3.842,0,6.878-3.041,6.878-6.878C110.065,387.864,107.029,384.744,103.188,384.744L103.188,384.744z M117.744,406.501
		c-3.837,0-6.878,3.119-6.878,6.956c0,3.842,3.041,6.878,6.878,6.878c3.842,0,6.961-3.036,6.961-6.878
		C124.705,409.881,121.586,406.501,117.744,406.501L117.744,406.501z M65.039,407.541c-3.841,0-6.878,3.119-6.878,6.956
		c0,3.842,3.037,6.878,6.878,6.878c3.838,0,6.957-3.036,6.957-6.878C71.996,410.92,68.877,407.801,65.039,407.541L65.039,407.541z
		 M78.396,430.815c-3.843,0-6.962,3.119-6.962,6.956c0,3.842,3.119,6.877,6.962,6.877c3.835,0,6.877-3.035,6.877-6.877
		C85.272,433.935,82.23,430.815,78.396,430.815L78.396,430.815z M105.745,430.815c-3.838,0-6.878,3.119-6.878,6.956
		c0,3.842,3.04,6.877,6.878,6.877c3.842,0,6.884-3.035,6.884-6.877C112.629,433.935,109.587,430.815,105.745,430.815
		L105.745,430.815z"/>
</g>
<path stroke="#FFFFFF" stroke-width="2" d="M249.263,423.357c0,5.293-4.311,9.6-9.6,9.6v6.403c5.289,0,9.6,4.308,9.6,9.601h6.4
	c0-5.293,4.307-9.601,9.602-9.601v-6.403c-5.295,0-9.602-4.307-9.602-9.6H249.263L249.263,423.357z M252.464,439.459
	c-0.936-1.258-2.041-2.367-3.297-3.3c1.256-0.935,2.361-2.042,3.297-3.3c0.936,1.258,2.041,2.365,3.299,3.3
	C254.505,437.092,253.399,438.201,252.464,439.459L252.464,439.459z M252.464,439.459"/>
<path stroke="#FFFFFF" d="M40.61,169.788c0,3.58-2.912,6.492-6.49,6.492v4.328c3.578,0,6.49,2.91,6.49,6.49h4.328
	c0-3.58,2.911-6.49,6.492-6.49v-4.328c-3.581,0-6.492-2.912-6.492-6.492H40.61L40.61,169.788z M42.774,180.673
	c-0.632-0.85-1.381-1.596-2.23-2.23c0.85-0.631,1.599-1.379,2.23-2.23c0.633,0.852,1.381,1.6,2.231,2.23
	C44.155,179.077,43.407,179.823,42.774,180.673L42.774,180.673z M42.774,180.673"/>
<path stroke="#FFFFFF" d="M286.728,126.942c0,3.362-2.739,6.104-6.103,6.104v4.066c3.363,0,6.103,2.737,6.103,6.104h4.067
	c0-3.366,2.739-6.104,6.104-6.104v-4.066c-3.364,0-6.104-2.741-6.104-6.104H286.728L286.728,126.942z M288.762,137.175
	c-0.594-0.798-1.299-1.502-2.098-2.097c0.799-0.593,1.504-1.297,2.098-2.097c0.594,0.8,1.297,1.504,2.098,2.097
	C290.059,135.673,289.355,136.377,288.762,137.175L288.762,137.175z M288.762,137.175"/>
<path d="M226.4,284.126c-4.682,0-8.491,3.809-8.491,8.492c0,4.683,3.81,8.492,8.491,8.492c4.684,0,8.494-3.81,8.494-8.492
	C234.895,287.935,231.084,284.126,226.4,284.126L226.4,284.126z M226.4,297.714c-2.809,0-5.094-2.287-5.094-5.096
	s2.285-5.096,5.094-5.096c2.811,0,5.097,2.287,5.097,5.096S229.211,297.714,226.4,297.714L226.4,297.714z M226.4,297.714"/>
<rect x="224.703" y="290.92" width="3.397" height="3.396"/>
<path d="M296.039,309.603v-16.984h-4.859c-0.3-0.854-0.643-1.687-1.025-2.488l3.431-3.431l-12.009-12.011l-3.432,3.432
	c-0.803-0.383-1.634-0.724-2.487-1.023v-4.86h-13.588v-40.763h-71.335v98.511h3.396v6.794h13.588v-6.794h37.365v6.794h13.588v-6.794
	h16.985v-4.859c0.854-0.3,1.687-0.642,2.487-1.024l3.432,3.431l12.009-12.009l-3.431-3.432c0.383-0.804,0.725-1.635,1.025-2.488
	H296.039z M194.131,234.871h64.541v10.19h-3.396v-6.794h-3.396v6.794h-3.396v-6.794h-3.398v6.794h-3.396v-6.794h-3.396v6.794h-3.396
	v-6.794h-3.397v6.794h-37.366V234.871z M194.131,248.459h64.541v10.19h-3.396v-6.795h-3.396v6.795h-3.396v-6.795h-3.398v6.795
	h-3.396v-6.795h-3.396v6.795h-3.396v-6.795h-3.397v6.795h-37.366V248.459z M194.131,262.046h64.541v10.19h-3.396v-6.794h-3.396
	v6.794h-3.396v-6.794h-3.398v6.794h-3.396v-6.794h-3.396v6.794h-3.396v-6.794h-3.397v6.794h-37.366V262.046z M258.672,275.634v1.463
	c-0.854,0.298-1.686,0.641-2.488,1.023l-2.486-2.486H258.672z M204.322,333.381h-6.795v-3.396h6.795V333.381z M194.131,326.587
	v-50.953h57.676l-11.064,11.065l3.43,3.431c-0.382,0.803-0.723,1.634-1.023,2.488h-4.857v16.984h4.859
	c0.299,0.854,0.642,1.687,1.024,2.488l-3.432,3.432l11.063,11.064H194.131z M255.275,333.381h-6.793v-3.396h6.793V333.381z
	 M258.672,326.587h-4.975l2.486-2.484c0.803,0.382,1.634,0.723,2.488,1.024V326.587z M288.783,315.522l-7.207,7.206l-2.796-2.796
	l-1.114,0.603c-1.303,0.707-2.714,1.286-4.193,1.728l-1.213,0.361v3.963h-10.19v-3.963l-1.215-0.361
	c-1.479-0.439-2.891-1.021-4.192-1.728l-1.115-0.603l-2.796,2.796l-7.206-7.206l2.795-2.796l-0.602-1.115
	c-0.707-1.302-1.286-2.714-1.729-4.192l-0.359-1.213h-3.963v-10.19h3.963l0.361-1.216c0.44-1.479,1.021-2.89,1.727-4.192
	l0.604-1.114l-2.795-2.797l7.206-7.206l2.796,2.796l1.113-0.603c1.305-0.707,2.715-1.285,4.194-1.728l1.213-0.36v-3.962h10.19v3.962
	l1.214,0.361c1.479,0.441,2.892,1.021,4.194,1.728l1.113,0.604l2.796-2.796l7.206,7.207l-2.795,2.796l0.604,1.113
	c0.705,1.303,1.285,2.715,1.727,4.193l0.359,1.214h3.963v10.19h-3.963l-0.361,1.214c-0.439,1.479-1.02,2.892-1.727,4.193
	l-0.604,1.114L288.783,315.522z M288.783,315.522"/>
<path d="M267.164,285.824c-8.428,0-15.285,6.858-15.285,15.286s6.857,15.287,15.285,15.287s15.287-6.859,15.287-15.287
	S275.592,285.824,267.164,285.824L267.164,285.824z M278.918,302.81c-0.289,2.008-1.08,3.854-2.246,5.407l-2.303-2.304l-2.402,2.402
	l2.305,2.303c-1.555,1.165-3.4,1.957-5.408,2.246v-3.262h-3.397v3.262c-2.009-0.289-3.854-1.081-5.407-2.246l2.303-2.303
	l-2.402-2.402l-2.303,2.304c-1.166-1.554-1.957-3.399-2.245-5.407h3.261v-3.397h-3.261c0.288-2.01,1.079-3.854,2.245-5.408
	l2.303,2.303l2.402-2.401l-2.303-2.303c1.554-1.166,3.398-1.955,5.407-2.245v3.261h3.397v-3.261
	c2.008,0.288,3.854,1.079,5.408,2.245l-2.305,2.303l2.402,2.401l2.303-2.303c1.166,1.555,1.956,3.398,2.246,5.408h-3.261v3.397
	H278.918z M278.918,302.81"/>
<path stroke="#FFFFFF" d="M131.932,240.886c-22.326,0.878-39.381,10.601-39.381,22.884v59.07c0,12.879,18.738,22.973,42.662,22.973
	s42.662-10.094,42.662-22.973v-59.07c0-12.283-17.059-22.006-39.379-22.884 M171.307,322.84c0,7.761-14.82,16.406-36.094,16.406
	s-36.1-8.646-36.1-16.406v-7.321c7.49,6.41,20.707,10.603,36.1,10.603s28.607-4.192,36.094-10.603V322.84z M171.307,303.151
	c0,7.762-14.82,16.405-36.094,16.405s-36.1-8.644-36.1-16.405v-7.323c7.49,6.411,20.707,10.603,36.1,10.603
	s28.607-4.191,36.094-10.603V303.151z M171.307,283.46c0,7.762-14.82,16.407-36.094,16.407s-36.1-8.646-36.1-16.407v-7.319
	c7.49,6.411,20.707,10.599,36.1,10.599s28.607-4.188,36.094-10.599V283.46z M171.307,263.77c0,7.762-14.82,16.409-36.094,16.409
	s-36.1-8.647-36.1-16.409c0-7.354,13.32-15.488,32.818-16.323h6.564C157.988,248.281,171.307,256.416,171.307,263.77L171.307,263.77
	z"/>
<path fill="#FFFFFF" d="M221.709,228.111h-0.142c-1.288-11.602-11.151-20.649-23.089-20.649c-8.079,0-15.406,4.103-19.644,10.858
	c-1.173-0.356-2.374-0.534-3.587-0.534c-6.312,0-11.58,4.553-12.691,10.547c-0.926-0.147-1.859-0.222-2.797-0.222
	c-9.964,0-18.069,8.104-18.069,18.069c0,9.962,8.105,18.067,18.069,18.067h28.395h5.16h28.395c9.963,0,18.068-8.105,18.068-18.067
	C239.777,236.215,231.672,228.111,221.709,228.111z"/>
<path d="M192.385,264.138h28.394c9.964,0,18.069-8.104,18.069-18.067c0-9.964-8.105-18.069-18.069-18.069h-0.142
	c-1.289-11.602-11.152-20.649-23.09-20.649c-8.079,0-15.406,4.104-19.643,10.859c-1.174-0.356-2.375-0.535-3.588-0.535
	c-6.311,0-11.58,4.554-12.691,10.546c-0.925-0.146-1.859-0.221-2.797-0.221c-9.963,0-18.068,8.105-18.068,18.069
	c0,9.963,8.105,18.067,18.068,18.067h28.395 M158.828,258.976c-7.117,0-12.906-5.788-12.906-12.905
	c0-7.115,5.789-12.908,12.906-12.908c1.475,0,2.948,0.265,4.379,0.783c0.83,0.303,1.758,0.156,2.457-0.386
	c0.699-0.537,1.073-1.397,0.99-2.277l-0.084-0.698c0-4.27,3.477-7.746,7.746-7.746c1.189,0,2.382,0.307,3.539,0.906
	c0.615,0.319,1.337,0.379,1.992,0.164c0.657-0.219,1.202-0.689,1.51-1.309c3.076-6.222,9.279-10.085,16.189-10.085
	c9.962,0,18.068,8.103,18.068,17.997c-0.004,0.063-0.012,0.242-0.012,0.307c0,0.758,0.335,1.48,0.915,1.971
	c0.581,0.488,1.341,0.698,2.099,0.574c0.783-0.134,1.49-0.201,2.161-0.201c7.116,0,12.905,5.793,12.905,12.908
	c0,7.117-5.789,12.905-12.905,12.905H158.828z M231.103,302.855"/>
<rect x="218.195" y="238.326" width="5.163" height="5.162"/>
<rect x="218.195" y="248.65" width="5.163" height="5.163"/>
<rect x="207.872" y="248.65" width="5.163" height="5.163"/>
</svg>
