<?xml version="1.0" encoding="utf-8"?>
<!-- Generator: Adobe Illustrator 15.1.0, SVG Export Plug-In  -->
<!DOCTYPE svg PUBLIC "-//W3C//DTD SVG 1.1//EN" "http://www.w3.org/Graphics/SVG/1.1/DTD/svg11.dtd" [
	<!ENTITY ns_flows "http://ns.adobe.com/Flows/1.0/">
]>
<svg version="1.1"
	 xmlns="http://www.w3.org/2000/svg" xmlns:xlink="http://www.w3.org/1999/xlink" xmlns:a="http://ns.adobe.com/AdobeSVGViewerExtensions/3.0/"
	 x="0px" y="0px" width="500px" height="500px" viewBox="-73.455 25.088 500 500" enable-background="new -73.455 25.088 500 500"
	 xml:space="preserve">
<defs>
</defs>
<path fill="none" stroke="#010101" stroke-width="5" stroke-linecap="square" stroke-linejoin="round" stroke-dasharray="0,12" d="
	M5.471,302.701c-15.26-94.927,49.33-184.238,144.264-199.505c94.928-15.244,184.244,49.346,199.49,144.279
	c15.262,94.915-49.324,184.242-144.26,199.502C110.04,462.23,20.723,397.633,5.471,302.701z"/>
<text transform="matrix(1 0 0 1 0 20.0879)" font-family="'MyriadPro-Regular'" font-size="24">Plesk 12 for WordPress</text>
<circle fill="#FFFFFF" cx="285.963" cy="391.938" r="56.427"/>
<path d="M285.712,340.438c-28.594,0-51.875,23.281-51.875,51.875s23.281,51.875,51.875,51.875s51.875-23.281,51.875-51.875
	S314.306,340.438,285.712,340.438L285.712,340.438z M285.712,342.813c27.281,0,49.5,22.219,49.5,49.5s-22.219,49.5-49.5,49.5
	s-49.5-22.219-49.5-49.5S258.431,342.813,285.712,342.813L285.712,342.813z M285.712,347.813c-15.547,0-29.172,7.922-37.125,20
	c1.047,0.031,2.031,0.125,2.875,0.125c4.656,0,11.875-0.625,11.875-0.625c2.391-0.141,2.641,3.469,0.25,3.75
	c0,0-2.453,0.234-5.125,0.375l16.25,48.125l9.75-29.125l-7-19c-2.391-0.141-4.625-0.375-4.625-0.375
	c-2.406-0.141-2.141-3.891,0.25-3.75c0,0,7.375,0.625,11.75,0.625c4.656,0,11.875-0.625,11.875-0.625
	c2.406-0.141,2.641,3.469,0.25,3.75c0,0-2.453,0.234-5.125,0.375l16.125,47.75l4.375-14.75c2.25-5.781,3.375-10.562,3.375-14.375
	c0-5.5-1.922-9.297-3.625-12.25c-2.25-3.672-4.375-6.828-4.375-10.5c0-4.078,3.125-7.875,7.5-7.875c0.203,0,0.422-0.016,0.625,0
	C307.916,352.188,297.291,347.813,285.712,347.813L285.712,347.813z M324.712,370.938c0.203,1.422,0.375,2.984,0.375,4.625
	c0,4.516-0.844,9.531-3.375,15.875l-13.625,39.25c13.219-7.719,22.125-21.969,22.125-38.375
	C330.212,384.579,328.181,377.267,324.712,370.938L324.712,370.938z M245.087,374.188c-2.469,5.531-3.875,11.672-3.875,18.125
	c0,17.609,10.281,32.781,25.125,40L245.087,374.188z M286.462,396.188l-13.25,38.75c3.984,1.172,8.125,1.875,12.5,1.875
	c5.172,0,10.125-1,14.75-2.625c-0.109-0.188-0.156-0.281-0.25-0.5L286.462,396.188z"/>
<circle fill="#FFFFFF" cx="73.295" cy="414.128" r="33.25"/>
<g>
	<defs>
		<rect id="SVGID_6_" x="40.598" y="382.518" width="66.543" height="61.22"/>
	</defs>
	<clipPath id="SVGID_8_">
		<use xlink:href="#SVGID_6_"  overflow="visible"/>
	</clipPath>
	<path clip-path="url(#SVGID_8_)" d="M60.43,383.744c-3.835,0-6.878,3.12-6.878,6.962c0,3.238,2.211,5.88,5.2,6.639
		c2.281,1.065,5.65,2.729,6.321,4.075c0.955,1.731,1.756,4.913,1.678,7.361c0,0.026,0,0.047,0,0.078
		c-1.189,1.669-1.917,3.728-1.917,5.922c0,5.625,4.606,10.236,10.236,10.236c5.625,0,10.236-4.611,10.236-10.236
		c0-5.631-4.611-10.502-10.236-10.242c-0.878,0-1.741,0.109-2.562,0.322c-2.71-1.123-4.435-2.999-5.355-4.48
		c-0.743-1.191-0.63-4.279-0.401-6.795c0.401-0.873,0.64-1.851,0.64-2.88C67.392,386.864,64.272,383.744,60.43,383.744
		L60.43,383.744z M85.545,383.744c-3.836,0-6.878,3.12-6.878,6.962c0,3.837,3.042,6.878,6.878,6.878
		c3.842,0,6.878-3.041,6.878-6.878C92.423,386.864,89.387,383.744,85.545,383.744L85.545,383.744z M100.102,405.501
		c-3.836,0-6.877,3.119-6.877,6.956c0,3.842,3.041,6.878,6.877,6.878c3.842,0,6.961-3.036,6.961-6.878
		C107.063,408.881,103.943,405.501,100.102,405.501L100.102,405.501z M47.397,406.541c-3.841,0-6.878,3.119-6.878,6.956
		c0,3.842,3.037,6.878,6.878,6.878c3.838,0,6.957-3.036,6.957-6.878C54.354,409.92,51.235,406.801,47.397,406.541L47.397,406.541z
		 M60.753,429.815c-3.842,0-6.961,3.119-6.961,6.956c0,3.842,3.119,6.877,6.961,6.877c3.835,0,6.877-3.035,6.877-6.877
		C67.63,432.935,64.589,429.815,60.753,429.815L60.753,429.815z M88.103,429.815c-3.838,0-6.878,3.119-6.878,6.956
		c0,3.842,3.04,6.877,6.878,6.877c3.842,0,6.883-3.035,6.883-6.877C94.986,432.935,91.945,429.815,88.103,429.815L88.103,429.815z"
		/>
</g>
<path stroke="#FFFFFF" stroke-width="2" d="M123.658,92.875c0,5.293-4.311,9.6-9.6,9.6v6.403c5.289,0,9.6,4.308,9.6,9.601h6.4
	c0-5.293,4.307-9.601,9.602-9.601v-6.403c-5.295,0-9.602-4.307-9.602-9.6H123.658L123.658,92.875z M126.86,108.977
	c-0.936-1.258-2.042-2.367-3.297-3.3c1.256-0.935,2.361-2.042,3.297-3.3c0.935,1.258,2.041,2.365,3.298,3.3
	C128.901,106.609,127.795,107.719,126.86,108.977L126.86,108.977z M126.86,108.977"/>
<path stroke="#FFFFFF" d="M346.984,300.243c0,3.58-2.913,6.492-6.491,6.492v4.328c3.578,0,6.491,2.91,6.491,6.49h4.328
	c0-3.58,2.911-6.49,6.492-6.49v-4.328c-3.581,0-6.492-2.912-6.492-6.492H346.984L346.984,300.243z M349.147,311.128
	c-0.632-0.85-1.381-1.596-2.23-2.23c0.85-0.631,1.599-1.379,2.23-2.23c0.633,0.852,1.381,1.6,2.231,2.23
	C350.528,309.532,349.78,310.278,349.147,311.128L349.147,311.128z M349.147,311.128"/>
<path stroke="#FFFFFF" d="M17.629,192.939c0,3.362-2.739,6.104-6.103,6.104v4.066c3.363,0,6.103,2.737,6.103,6.104h4.067
	c0-3.366,2.739-6.104,6.104-6.104v-4.066c-3.364,0-6.104-2.741-6.104-6.104H17.629L17.629,192.939z M19.664,203.172
	c-0.594-0.798-1.299-1.502-2.098-2.097c0.799-0.593,1.504-1.297,2.098-2.097c0.594,0.8,1.297,1.504,2.098,2.097
	C20.96,201.67,20.257,202.374,19.664,203.172L19.664,203.172z M19.664,203.172"/>
<ellipse fill="#FFFFFF" cx="88.594" cy="285.002" rx="27.407" ry="12.563"/>
<path stroke="#FFFFFF" d="M86.092,268.555c-15.99,0.629-28.205,7.593-28.205,16.39v42.307c0,9.224,13.42,16.453,30.555,16.453
	c17.134,0,30.554-7.229,30.554-16.453v-42.307c0-8.797-12.217-15.761-28.203-16.39H86.092z M114.293,313.149
	c0,5.56-10.615,11.75-25.851,11.75c-15.236,0-25.855-6.19-25.855-11.75v-5.244c5.365,4.592,14.831,7.594,25.855,7.594
	c11.024,0,20.489-3.002,25.851-7.594V313.149z M114.293,299.047c0,5.559-10.615,11.751-25.851,11.751
	c-15.236,0-25.855-6.192-25.855-11.751v-5.242c5.365,4.592,14.831,7.591,25.855,7.591c11.024,0,20.489-2.999,25.851-7.591V299.047z
	 M114.293,284.944c0,5.559-10.615,11.752-25.851,11.752c-15.236,0-25.855-6.193-25.855-11.752c0-5.267,9.541-11.093,23.505-11.691
	h4.702C104.754,273.852,114.293,279.678,114.293,284.944L114.293,284.944z M114.293,327.251c0,5.559-10.615,11.75-25.851,11.75
	c-15.236,0-25.855-6.191-25.855-11.75v-5.244c5.365,4.592,14.831,7.594,25.855,7.594c11.024,0,20.489-3.002,25.851-7.594V327.251z"
	/>
<circle fill="#FFFFFF" cx="190.841" cy="295.713" r="22.078"/>
<rect x="181.022" y="297.791" fill="#FFFFFF" width="3.397" height="5.426"/>
<rect x="111.822" y="273.634" fill="#FFFFFF" width="20.381" height="52.438"/>
<path d="M144.092,276.951c-4.682,0-8.492,3.809-8.492,8.492c0,4.683,3.81,8.492,8.492,8.492c4.683,0,8.494-3.81,8.494-8.492
	C152.585,280.76,148.775,276.951,144.092,276.951L144.092,276.951z M144.092,290.539c-2.809,0-5.094-2.287-5.094-5.096
	s2.286-5.096,5.094-5.096c2.81,0,5.096,2.287,5.096,5.096S146.902,290.539,144.092,290.539L144.092,290.539z M144.092,290.539"/>
<rect x="142.394" y="283.745" width="3.397" height="3.396"/>
<path d="M213.729,302.428v-16.984h-4.859c-0.299-0.854-0.642-1.687-1.024-2.488l3.43-3.431l-12.009-12.011l-3.432,3.432
	c-0.803-0.383-1.634-0.724-2.487-1.023v-4.86H179.76v-40.763h-71.335v98.511h3.397v6.794h13.587v-6.794h37.366v6.794h13.587v-6.794
	h16.985v-4.859c0.854-0.3,1.686-0.642,2.487-1.024l3.432,3.431l12.009-12.009l-3.43-3.432c0.382-0.804,0.724-1.635,1.024-2.488
	H213.729z M111.822,227.696h64.541v10.19h-3.396v-6.794h-3.397v6.794h-3.396v-6.794h-3.397v6.794h-3.396v-6.794h-3.397v6.794h-3.396
	v-6.794h-3.397v6.794h-37.366V227.696z M111.822,241.284h64.541v10.19h-3.396v-6.795h-3.397v6.795h-3.396v-6.795h-3.397v6.795
	h-3.396v-6.795h-3.397v6.795h-3.396v-6.795h-3.397v6.795h-37.366V241.284z M111.822,254.871h64.541v10.19h-3.396v-6.794h-3.397
	v6.794h-3.396v-6.794h-3.397v6.794h-3.396v-6.794h-3.397v6.794h-3.396v-6.794h-3.397v6.794h-37.366V254.871z M176.363,268.459v1.463
	c-0.854,0.298-1.686,0.641-2.488,1.023l-2.487-2.486H176.363z M122.013,326.206h-6.794v-3.396h6.794V326.206z M111.822,319.412
	v-50.953h57.676l-11.065,11.065l3.43,3.431c-0.382,0.803-0.724,1.634-1.024,2.488h-4.858v16.984h4.86
	c0.298,0.854,0.642,1.687,1.024,2.488l-3.432,3.432l11.064,11.064H111.822z M172.967,326.206h-6.794v-3.396h6.794V326.206z
	 M176.363,319.412h-4.975l2.487-2.484c0.803,0.382,1.634,0.723,2.488,1.024V319.412z M206.474,308.348l-7.207,7.206l-2.796-2.796
	l-1.115,0.603c-1.302,0.707-2.713,1.286-4.193,1.728l-1.213,0.361v3.963h-10.19v-3.963l-1.215-0.361
	c-1.479-0.439-2.891-1.021-4.193-1.728l-1.115-0.603l-2.796,2.796l-7.207-7.206l2.796-2.796l-0.603-1.115
	c-0.707-1.302-1.286-2.714-1.728-4.192l-0.36-1.213h-3.962v-10.19h3.962l0.361-1.216c0.441-1.479,1.021-2.89,1.728-4.192
	l0.604-1.114l-2.796-2.797l7.207-7.206l2.796,2.796l1.114-0.603c1.304-0.707,2.714-1.285,4.194-1.728l1.213-0.36v-3.962h10.19v3.962
	l1.214,0.361c1.479,0.441,2.892,1.021,4.194,1.728l1.113,0.604l2.796-2.796l7.207,7.207l-2.796,2.796l0.604,1.113
	c0.706,1.303,1.286,2.715,1.728,4.193l0.359,1.214h3.963v10.19h-3.963l-0.361,1.214c-0.44,1.479-1.021,2.892-1.728,4.193
	l-0.603,1.114L206.474,308.348z M206.474,308.348"/>
<path d="M184.855,278.649c-8.428,0-15.286,6.858-15.286,15.286s6.858,15.287,15.286,15.287s15.287-6.859,15.287-15.287
	S193.283,278.649,184.855,278.649L184.855,278.649z M196.609,295.635c-0.289,2.008-1.081,3.854-2.246,5.407l-2.303-2.304
	l-2.402,2.402l2.304,2.303c-1.554,1.165-3.399,1.957-5.408,2.246v-3.262h-3.397v3.262c-2.009-0.289-3.854-1.081-5.408-2.246
	l2.303-2.303l-2.401-2.402l-2.303,2.304c-1.166-1.554-1.957-3.399-2.246-5.407h3.261v-3.397h-3.261
	c0.289-2.01,1.08-3.854,2.246-5.408l2.303,2.303l2.401-2.401l-2.303-2.303c1.554-1.166,3.398-1.955,5.408-2.245v3.261h3.397v-3.261
	c2.008,0.288,3.854,1.079,5.408,2.245l-2.304,2.303l2.402,2.401l2.303-2.303c1.165,1.555,1.956,3.398,2.246,5.408h-3.261v3.397
	H196.609z M196.609,295.635"/>
<path fill="#FFFFFF" d="M269.201,200.162h-0.183c-1.664-14.983-14.401-26.668-29.82-26.668c-10.433,0-19.896,5.298-25.368,14.023
	c-1.516-0.46-3.067-0.69-4.633-0.69c-8.151,0-14.956,5.88-16.392,13.621c-1.194-0.189-2.401-0.286-3.61-0.286
	c-12.869,0-23.337,10.466-23.337,23.337c0,12.865,10.468,23.334,23.337,23.334h36.67h6.665h36.671
	c12.867,0,23.335-10.469,23.335-23.334C292.536,210.628,282.068,200.162,269.201,200.162z"/>
<path stroke="#FFFFFF" stroke-width="2" d="M231.328,246.69h36.67c12.867,0,23.336-10.467,23.336-23.334
	c0-12.868-10.469-23.337-23.336-23.337h-0.183c-1.666-14.982-14.403-26.668-29.82-26.668c-10.434,0-19.897,5.301-25.368,14.024
	c-1.517-0.46-3.067-0.691-4.634-0.691c-8.15,0-14.955,5.882-16.391,13.62c-1.194-0.188-2.402-0.285-3.612-0.285
	c-12.867,0-23.335,10.469-23.335,23.337c0,12.867,10.469,23.334,23.335,23.334h36.671 M187.991,240.023
	c-9.191,0-16.667-7.476-16.667-16.667c0-9.189,7.477-16.671,16.667-16.671c1.904,0,3.808,0.342,5.655,1.012
	c1.072,0.391,2.271,0.201,3.173-0.499c0.904-0.693,1.387-1.805,1.279-2.94l-0.108-0.902c0-5.514,4.49-10.004,10.003-10.004
	c1.537,0,3.076,0.396,4.57,1.171c0.794,0.412,1.727,0.489,2.573,0.212c0.849-0.282,1.553-0.891,1.949-1.69
	c3.974-8.035,11.984-13.024,20.909-13.024c12.865,0,23.335,10.464,23.335,23.243c-0.006,0.082-0.016,0.313-0.016,0.396
	c0,0.979,0.433,1.912,1.182,2.546c0.75,0.63,1.732,0.901,2.709,0.741c1.012-0.173,1.925-0.26,2.792-0.26
	c9.189,0,16.667,7.481,16.667,16.671c0,9.191-7.478,16.667-16.667,16.667H187.991z M281.332,296.693"/>
<rect x="264.663" y="213.354" stroke="#FFFFFF" stroke-width="2" width="6.668" height="6.667"/>
<rect x="264.663" y="226.688" stroke="#FFFFFF" stroke-width="2" width="6.668" height="6.668"/>
<rect x="251.331" y="226.688" stroke="#FFFFFF" stroke-width="2" width="6.668" height="6.668"/>
</svg>
