<?xml version="1.0" encoding="utf-8"?>
<!-- Generator: Adobe Illustrator 15.1.0, SVG Export Plug-In  -->
<!DOCTYPE svg PUBLIC "-//W3C//DTD SVG 1.1//EN" "http://www.w3.org/Graphics/SVG/1.1/DTD/svg11.dtd" [
	<!ENTITY ns_flows "http://ns.adobe.com/Flows/1.0/">
]>
<svg version="1.1"
	 xmlns="http://www.w3.org/2000/svg" xmlns:xlink="http://www.w3.org/1999/xlink" xmlns:a="http://ns.adobe.com/AdobeSVGViewerExtensions/3.0/"
	 x="0px" y="0px" width="500px" height="500px" viewBox="-87.62 -88.813 500 500" enable-background="new -87.62 -88.813 500 500"
	 xml:space="preserve">
<defs>
</defs>
<path fill="none" stroke="#010101" stroke-width="5" stroke-linecap="square" stroke-linejoin="round" stroke-dasharray="0,12" d="
	M4.732,204.233C-10.527,109.307,54.064,19.995,148.997,4.729c94.927-15.244,184.245,49.346,199.49,144.279
	c15.261,94.915-49.325,184.242-144.258,199.502C109.301,363.763,19.984,299.165,4.732,204.233z"/>
<path stroke="#FFFFFF" d="M342.129,118.794c0,3.58-2.912,6.492-6.49,6.492v4.328c3.578,0,6.49,2.91,6.49,6.49h4.328
	c0-3.58,2.911-6.49,6.492-6.49v-4.328c-3.581,0-6.492-2.912-6.492-6.492H342.129L342.129,118.794z M344.293,129.679
	c-0.632-0.85-1.381-1.596-2.23-2.23c0.85-0.631,1.599-1.379,2.23-2.23c0.633,0.852,1.381,1.6,2.231,2.23
	C345.674,128.083,344.926,128.829,344.293,129.679L344.293,129.679z M344.293,129.679"/>
<path stroke="#FFFFFF" stroke-width="2" d="M68.47,23.525c0,5.293-4.311,9.6-9.6,9.6v6.403c5.289,0,9.6,4.308,9.6,9.601h6.4
	c0-5.293,4.307-9.601,9.602-9.601v-6.403c-5.295,0-9.602-4.307-9.602-9.6H68.47L68.47,23.525z M71.67,39.627
	c-0.935-1.258-2.04-2.367-3.296-3.3c1.256-0.935,2.361-2.042,3.296-3.3c0.937,1.258,2.042,2.365,3.3,3.3
	C73.712,37.26,72.606,38.369,71.67,39.627L71.67,39.627z M71.67,39.627"/>
<path stroke="#FFFFFF" d="M15.175,239.438c0,3.362-2.739,6.104-6.103,6.104v4.066c3.363,0,6.103,2.737,6.103,6.104h4.067
	c0-3.366,2.739-6.104,6.104-6.104v-4.066c-3.364,0-6.104-2.741-6.104-6.104H15.175L15.175,239.438z M17.209,249.671
	c-0.594-0.798-1.299-1.502-2.098-2.097c0.799-0.593,1.504-1.297,2.098-2.097c0.594,0.8,1.297,1.504,2.098,2.097
	C18.506,248.169,17.803,248.873,17.209,249.671L17.209,249.671z M17.209,249.671"/>
<path fill="#FFFFFF" d="M265.747,161.848h-0.124c-1.125-10.136-9.742-18.04-20.172-18.04c-7.058,0-13.459,3.584-17.161,9.486
	c-1.024-0.311-2.074-0.466-3.133-0.466c-5.514,0-10.118,3.977-11.088,9.215c-0.808-0.131-1.624-0.195-2.443-0.195
	c-8.705,0-15.786,7.08-15.786,15.786c0,8.704,7.082,15.784,15.786,15.784h24.807h4.508h24.807c8.705,0,15.786-7.08,15.786-15.784
	C281.533,168.928,274.452,161.848,265.747,161.848z"/>
<path d="M240.127,193.322h24.806c8.705,0,15.786-7.08,15.786-15.784c0-8.706-7.081-15.786-15.786-15.786h-0.124
	c-1.127-10.136-9.742-18.04-20.172-18.04c-7.059,0-13.46,3.585-17.161,9.486c-1.025-0.312-2.074-0.468-3.134-0.468
	c-5.514,0-10.117,3.979-11.087,9.215c-0.808-0.128-1.625-0.193-2.444-0.193c-8.704,0-15.786,7.08-15.786,15.786
	c0,8.704,7.082,15.784,15.786,15.784h24.807 M210.811,188.813c-6.217,0-11.275-5.057-11.275-11.274
	c0-6.217,5.059-11.276,11.275-11.276c1.289,0,2.576,0.23,3.825,0.684c0.726,0.265,1.536,0.137,2.147-0.338
	c0.61-0.469,0.938-1.221,0.865-1.989l-0.073-0.61c0-3.729,3.037-6.767,6.767-6.767c1.04,0,2.081,0.267,3.092,0.791
	c0.538,0.28,1.168,0.332,1.741,0.144c0.574-0.191,1.05-0.602,1.319-1.143c2.688-5.437,8.106-8.811,14.144-8.811
	c8.704,0,15.786,7.078,15.786,15.723c-0.004,0.055-0.011,0.213-0.011,0.268c0,0.662,0.293,1.293,0.8,1.723
	c0.508,0.426,1.172,0.609,1.833,0.5c0.684-0.116,1.302-0.174,1.888-0.174c6.216,0,11.275,5.06,11.275,11.276
	c0,6.218-5.059,11.274-11.275,11.274H210.811z M273.953,227.148"/>
<rect x="262.677" y="170.771" width="4.511" height="4.511"/>
<rect x="262.677" y="179.791" width="4.511" height="4.513"/>
<rect x="253.659" y="179.791" width="4.511" height="4.513"/>
<path d="M223.929,112.028c-1.664-12.308-14.387-21.736-29.736-21.736c-12.068,0-22.942,5.954-27.585,14.953
	c-0.11-0.003-0.221-0.005-0.333-0.005c-11.387,0-20.651,7.619-20.651,16.989v40.769c0,9.366,9.265,16.986,20.651,16.986h52.112
	c9.334,0,16.929-6.279,16.929-13.997v-40.769C235.316,119.211,230.706,113.955,223.929,112.028L223.929,112.028z M231.238,165.988
	c0,5.47-5.764,9.919-12.851,9.919h-52.112c-9.14,0-16.575-5.791-16.575-12.909v-10.352c3.765,4.194,9.765,6.953,16.575,6.953h52.112
	c5.167,0,9.744-1.966,12.851-4.992V165.988z M231.238,145.603c0,5.472-5.764,9.919-12.851,9.919h-52.112
	c-9.14,0-16.575-5.79-16.575-12.907v-10.353c3.765,4.195,9.765,6.953,16.575,6.953h52.112c5.167,0,9.744-1.965,12.851-4.993V145.603
	z M218.387,135.139h-52.112c-9.14,0-16.575-5.791-16.575-12.909c0-7.12,7.435-12.911,16.575-12.911c0.303,0,0.599,0.029,0.896,0.057
	l0.53,0.042c0.905,0.068,1.674-0.427,2.016-1.221c3.587-8.27,13.423-13.827,24.476-13.827c13.82,0,25.162,8.529,25.815,19.417
	c0.055,0.922,0.723,1.692,1.625,1.875c5.656,1.152,9.604,5.081,9.604,9.558C231.238,130.689,225.474,135.139,218.387,135.139
	L218.387,135.139z M218.387,135.139"/>
<path d="M159.893,141.254c-1.127,0-2.039,0.911-2.039,2.038v4.077c0,1.127,0.912,2.038,2.039,2.038c1.126,0,2.039-0.911,2.039-2.038
	v-4.077C161.932,142.165,161.019,141.254,159.893,141.254L159.893,141.254z M159.893,141.254"/>
<path d="M168.046,143.292c-1.127,0-2.039,0.911-2.039,2.037v4.078c0,1.127,0.912,2.038,2.039,2.038c1.127,0,2.039-0.911,2.039-2.038
	v-4.078C170.085,144.203,169.174,143.292,168.046,143.292L168.046,143.292z M168.046,143.292"/>
<path d="M176.201,143.292c-1.127,0-2.038,0.911-2.038,2.037v4.078c0,1.127,0.911,2.038,2.038,2.038c1.126,0,2.038-0.911,2.038-2.038
	v-4.078C178.239,144.203,177.327,143.292,176.201,143.292L176.201,143.292z M176.201,143.292"/>
<path d="M223.085,147.369c0,2.251-1.826,4.076-4.077,4.076c-2.252,0-4.077-1.825-4.077-4.076c0-2.252,1.825-4.077,4.077-4.077
	C221.259,143.292,223.085,145.117,223.085,147.369L223.085,147.369z M223.085,147.369"/>
<path d="M210.854,147.369c0,2.251-1.826,4.076-4.076,4.076c-2.251,0-4.077-1.825-4.077-4.076c0-2.252,1.826-4.077,4.077-4.077
	C209.028,143.292,210.854,145.117,210.854,147.369L210.854,147.369z M210.854,147.369"/>
<path d="M159.893,161.638c-1.127,0-2.039,0.912-2.039,2.039v4.077c0,1.126,0.912,2.038,2.039,2.038c1.126,0,2.039-0.912,2.039-2.038
	v-4.077C161.932,162.55,161.019,161.638,159.893,161.638L159.893,161.638z M159.893,161.638"/>
<path d="M168.046,163.677c-1.127,0-2.039,0.912-2.039,2.038v4.077c0,1.126,0.912,2.038,2.039,2.038c1.127,0,2.039-0.912,2.039-2.038
	v-4.077C170.085,164.589,169.174,163.677,168.046,163.677L168.046,163.677z M168.046,163.677"/>
<path d="M176.201,163.677c-1.127,0-2.038,0.912-2.038,2.038v4.077c0,1.126,0.911,2.038,2.038,2.038c1.126,0,2.038-0.912,2.038-2.038
	v-4.077C178.239,164.589,177.327,163.677,176.201,163.677L176.201,163.677z M176.201,163.677"/>
<path d="M223.085,167.754c0,2.252-1.826,4.076-4.077,4.076c-2.252,0-4.077-1.824-4.077-4.076s1.825-4.077,4.077-4.077
	C221.259,163.677,223.085,165.502,223.085,167.754L223.085,167.754z M223.085,167.754"/>
<path d="M210.854,167.754c0,2.252-1.826,4.076-4.076,4.076c-2.251,0-4.077-1.824-4.077-4.076s1.826-4.077,4.077-4.077
	C209.028,163.677,210.854,165.502,210.854,167.754L210.854,167.754z M210.854,167.754"/>
<path fill="#FFFFFF" d="M166.357,139.216c-6.81,0-12.811-2.759-16.575-6.954v10.354c0,7.118,7.435,12.908,16.575,12.908h52.112
	c7.087,0,12.851-4.449,12.851-9.921v-11.38c-3.107,3.027-7.683,4.993-12.851,4.993H166.357z M162.013,147.37
	c0,1.126-0.912,2.038-2.038,2.038c-1.127,0-2.039-0.912-2.039-2.038v-4.078c0-1.125,0.912-2.038,2.039-2.038
	c1.126,0,2.038,0.913,2.038,2.038V147.37z M170.167,149.408c0,1.126-0.912,2.038-2.039,2.038c-1.127,0-2.039-0.912-2.039-2.038
	v-4.078c0-1.126,0.911-2.038,2.039-2.038c1.127,0,2.039,0.912,2.039,2.038V149.408z M178.321,149.408
	c0,1.126-0.912,2.038-2.039,2.038s-2.039-0.912-2.039-2.038v-4.078c0-1.126,0.912-2.038,2.039-2.038s2.039,0.912,2.039,2.038
	V149.408z M206.859,151.446c-2.251,0-4.077-1.825-4.077-4.076c0-2.252,1.825-4.078,4.077-4.078s4.077,1.826,4.077,4.078
	C210.936,149.621,209.111,151.446,206.859,151.446z M223.167,147.37c0,2.251-1.825,4.076-4.076,4.076
	c-2.252,0-4.078-1.825-4.078-4.076c0-2.252,1.825-4.078,4.078-4.078C221.341,143.292,223.167,145.118,223.167,147.37z"/>
<path fill="#FFFFFF" d="M221.715,115.662c-0.903-0.184-1.57-0.953-1.626-1.876c-0.653-10.888-11.994-19.417-25.815-19.417
	c-11.052,0-20.888,5.559-24.476,13.827c-0.342,0.795-1.11,1.29-2.016,1.223l-0.53-0.044c-0.297-0.027-0.593-0.057-0.896-0.057
	c-9.14,0-16.575,5.793-16.575,12.912c0,7.118,7.435,12.908,16.575,12.908h52.112c7.087,0,12.851-4.449,12.851-9.92
	C231.32,120.743,227.371,116.814,221.715,115.662z"/>
<path fill="#FFFFFF" d="M166.357,159.6c-6.81,0-12.811-2.758-16.575-6.953v10.353c0,7.118,7.435,12.909,16.575,12.909h52.112
	c7.087,0,12.851-4.449,12.851-9.92v-11.379c-3.107,3.026-7.683,4.99-12.851,4.99H166.357z M162.013,167.754
	c0,1.126-0.912,2.039-2.038,2.039c-1.127,0-2.039-0.913-2.039-2.039v-4.075c0-1.128,0.912-2.04,2.039-2.04
	c1.126,0,2.038,0.912,2.038,2.04V167.754z M170.167,169.793c0,1.125-0.912,2.038-2.039,2.038c-1.127,0-2.039-0.913-2.039-2.038
	v-4.077c0-1.125,0.911-2.037,2.039-2.037c1.127,0,2.039,0.912,2.039,2.037V169.793z M178.321,169.793
	c0,1.125-0.912,2.038-2.039,2.038s-2.039-0.913-2.039-2.038v-4.077c0-1.125,0.912-2.037,2.039-2.037s2.039,0.912,2.039,2.037
	V169.793z M206.859,171.831c-2.251,0-4.077-1.825-4.077-4.077c0-2.251,1.825-4.075,4.077-4.075s4.077,1.824,4.077,4.075
	C210.936,170.006,209.111,171.831,206.859,171.831z M223.167,167.754c0,2.252-1.825,4.077-4.076,4.077
	c-2.252,0-4.078-1.825-4.078-4.077c0-2.251,1.825-4.075,4.078-4.075C221.341,163.679,223.167,165.503,223.167,167.754z"/>
<circle fill="#FFFFFF" cx="121.119" cy="193.484" r="42.276"/>
<path d="M123.184,186.36v-21.737h-3.581v21.737c-3.081,0.799-5.37,3.577-5.37,6.905c0,0.551,0.076,1.083,0.195,1.6l-17.163,9.359
	l1.713,3.144l17.112-9.333c1.31,1.458,3.192,2.392,5.304,2.392c3.947,0,7.16-3.212,7.16-7.161
	C128.554,189.938,126.264,187.159,123.184,186.36L123.184,186.36z M121.394,196.846c-1.976,0-3.581-1.606-3.581-3.58
	c0-1.975,1.605-3.58,3.581-3.58c1.974,0,3.58,1.605,3.58,3.58C124.974,195.239,123.368,196.846,121.394,196.846L121.394,196.846z
	 M121.394,196.846"/>
<path d="M174.049,207.587l12.532-12.531h-29.433c0.03-0.604,0.049-1.204,0.049-1.79c0-19.743-16.062-35.803-35.804-35.803
	c-19.744,0-35.805,16.06-35.805,35.803c0,19.742,16.061,35.804,35.805,35.804c10.411,0,20.103-4.481,26.852-12.182v16.503
	l12.532-12.53l14.321,14.321l13.273-13.273L174.049,207.587z M148.246,211.01c-6.003,9.072-15.997,14.479-26.852,14.479
	c-17.769,0-32.224-14.456-32.224-32.224s14.456-32.224,32.224-32.224c17.767,0,32.223,14.456,32.223,32.224
	c0,0.578-0.063,1.189-0.097,1.79h-5.274V211.01z M160.778,215.797l-8.951,8.951v-26.113h26.111l-8.951,8.952l14.322,14.321
	l-8.21,8.211L160.778,215.797z M160.778,215.797"/>
<rect x="158.987" y="180.734" width="3.58" height="7.161"/>
<path d="M145.588,194.93l-5.063-5.063l2.531-2.53l5.063,5.063L145.588,194.93z M145.588,194.93"/>
<rect x="133.924" y="205.796" width="7.161" height="3.581"/>
<path d="M143.053,227.834l-2.532-2.531l5.063-5.064l2.532,2.533L143.053,227.834z M143.053,227.834"/>
<rect x="158.987" y="227.278" width="3.58" height="7.161"/>
<rect x="180.47" y="205.796" width="7.161" height="3.581"/>
<path d="M178.495,187.336l2.532,2.533l-5.063,5.063l-2.532-2.531L178.495,187.336z M178.495,187.336"/>
<path d="M121.394,232.649c-21.717,0-39.386-17.668-39.386-39.384c0-21.717,17.668-39.385,39.386-39.385
	c15.823,0,30.053,9.412,36.252,23.976l3.294-1.403c-5.811-13.65-18.095-23.131-32.386-25.534v-6.956
	c2.191-1.967,3.58-4.812,3.58-7.983c0-5.925-4.817-10.742-10.74-10.742c-5.925,0-10.743,4.817-10.743,10.742
	c0,3.17,1.389,6.015,3.581,7.983v6.947c-20.292,3.42-35.803,21.105-35.803,42.355c0,23.69,19.273,42.965,42.965,42.965
	c6.533,0,12.819-1.442,18.681-4.28l-1.559-3.225C133.143,231.33,127.383,232.649,121.394,232.649L121.394,232.649z M124.974,150.46
	c-1.186-0.097-2.377-0.158-3.58-0.158c-1.207,0-2.4,0.062-3.581,0.16v-4.368c1.121,0.399,2.323,0.627,3.581,0.627
	c1.256,0,2.457-0.229,3.58-0.627V150.46z M121.394,128.82c3.947,0,7.16,3.211,7.16,7.159c0,3.949-3.213,7.161-7.16,7.161
	c-3.949,0-7.162-3.212-7.162-7.161C114.232,132.031,117.445,128.82,121.394,128.82L121.394,128.82z M121.394,128.82"/>
<path d="M352.546,254.925v-6.141c0-4.924-4.006-8.93-8.93-8.93h-44.148c-1.136,0-2.155-0.631-2.663-1.646l-2.663-5.325
	c-1.523-3.045-4.583-4.937-7.987-4.937h-26.289c-4.923,0-8.929,4.006-8.931,8.932v66.031c0,4.852,3.898,8.766,8.759,8.766h21.208
	v8.95c0,4.924,4.008,8.931,8.931,8.931h23.815c4.925,0,8.931-4.007,8.931-8.931v-8.931h21.037c4.923,0,8.929-4.007,8.929-8.931
	v-47.815c0-0.005,0-0.009,0-0.012C352.548,254.933,352.546,254.929,352.546,254.925L352.546,254.925z M316.627,320.625
	c0,1.642-1.335,2.978-2.977,2.978h-23.815c-1.641,0-2.977-1.336-2.977-2.978v-17.861c0-1.642,1.335-2.976,2.977-2.976h23.815
	c1.642,0,2.977,1.334,2.977,2.976V320.625z M292.812,293.833v-9.128c0-4.925,4.007-8.931,8.931-8.931
	c4.925,0,8.931,4.006,8.931,8.931v9.128H292.812z M346.593,302.764c0,1.55-1.204,2.978-3.097,2.978h-20.916v-2.978
	c0-3.881-2.489-7.189-5.954-8.418v-9.641c0-8.206-6.677-14.885-14.885-14.885c-8.207,0-14.884,6.676-14.884,14.885v9.641
	c-3.465,1.229-5.954,4.539-5.954,8.418v2.978h-21.208c-1.559,0-2.805-1.259-2.805-2.832v-44.996h89.703V302.764z M346.593,251.959
	h-89.703v-15.081c0-1.643,1.335-2.977,2.977-2.977h26.289c1.134,0,2.153,0.629,2.661,1.645l2.664,5.325
	c1.521,3.044,4.583,4.938,7.987,4.938h44.148c1.641,0,2.977,1.335,2.977,2.976V251.959z M346.593,251.959"/>
<path d="M301.742,305.741c-1.644,0-2.977,1.334-2.977,2.977v5.954c0,1.646,1.333,2.978,2.977,2.978s2.977-1.332,2.977-2.978v-5.954
	C304.719,307.075,303.386,305.741,301.742,305.741L301.742,305.741z M301.742,305.741"/>
<path d="M337.663,263.867h-12.105c-1.644,0-2.977,1.332-2.977,2.977s1.333,2.977,2.977,2.977h12.105
	c1.645,0,2.977-1.332,2.977-2.977S339.307,263.867,337.663,263.867L337.663,263.867z M337.663,263.867"/>
<path d="M337.663,275.774h-12.105c-1.644,0-2.977,1.332-2.977,2.977c0,1.644,1.333,2.978,2.977,2.978h12.105
	c1.645,0,2.977-1.334,2.977-2.978C340.64,277.106,339.307,275.774,337.663,275.774L337.663,275.774z M337.663,275.774"/>
<path fill="#FFFFFF" d="M343.497,305.741c1.893,0,3.097-1.428,3.097-2.978v-44.851h-89.703v44.996c0,1.573,1.246,2.832,2.805,2.832
	h21.208v-2.978c0-3.879,2.489-7.189,5.954-8.418v-9.641c0-8.209,6.678-14.885,14.884-14.885c8.208,0,14.885,6.679,14.885,14.885
	v9.641c3.464,1.229,5.954,4.537,5.954,8.418v2.978H343.497z M325.557,263.867h12.105c1.645,0,2.977,1.332,2.977,2.977
	s-1.333,2.977-2.977,2.977h-12.105c-1.644,0-2.977-1.332-2.977-2.977S323.914,263.867,325.557,263.867z M325.557,275.774h12.105
	c1.645,0,2.977,1.332,2.977,2.977c0,1.644-1.333,2.978-2.977,2.978h-12.105c-1.644,0-2.977-1.334-2.977-2.978
	C322.581,277.106,323.914,275.774,325.557,275.774z"/>
<path fill="#FFFFFF" d="M286.858,302.764v17.861c0,1.642,1.335,2.978,2.977,2.978h23.815c1.642,0,2.977-1.336,2.977-2.978v-17.861
	c0-1.642-1.335-2.976-2.977-2.976h-23.815C288.193,299.788,286.858,301.122,286.858,302.764z M298.766,308.718
	c0-1.643,1.333-2.977,2.977-2.977s2.977,1.334,2.977,2.977v5.954c0,1.646-1.333,2.978-2.977,2.978s-2.977-1.332-2.977-2.978V308.718
	z"/>
<path fill="#FFFFFF" d="M346.593,248.784c0-1.641-1.336-2.976-2.977-2.976h-44.148c-3.405,0-6.466-1.894-7.987-4.938l-2.664-5.325
	c-0.508-1.016-1.527-1.645-2.661-1.645h-26.289c-1.641,0-2.977,1.334-2.977,2.977v15.081h89.703V248.784z"/>
<path fill="#FFFFFF" d="M301.742,275.774c-4.924,0-8.931,4.006-8.931,8.931v9.128h17.861v-9.128
	C310.673,279.78,306.667,275.774,301.742,275.774z"/>
</svg>
