<?xml version="1.0" encoding="utf-8"?>
<!-- Generator: Adobe Illustrator 15.1.0, SVG Export Plug-In  -->
<!DOCTYPE svg PUBLIC "-//W3C//DTD SVG 1.1//EN" "http://www.w3.org/Graphics/SVG/1.1/DTD/svg11.dtd" [
	<!ENTITY ns_flows "http://ns.adobe.com/Flows/1.0/">
]>
<svg version="1.1"
	 xmlns="http://www.w3.org/2000/svg" xmlns:xlink="http://www.w3.org/1999/xlink" xmlns:a="http://ns.adobe.com/AdobeSVGViewerExtensions/3.0/"
	 x="0px" y="0px" width="500px" height="500px" viewBox="-74.417 -71.648 500 500" enable-background="new -74.417 -71.648 500 500"
	 xml:space="preserve">
<defs>
</defs>
<path stroke="#000000" d="M274.258,174.625H245.93v-37.772c0-0.037-0.019-0.069-0.021-0.108c-0.01-0.147-0.037-0.289-0.079-0.433
	c-0.021-0.061-0.03-0.121-0.056-0.18c-0.08-0.189-0.181-0.372-0.322-0.532l-15.108-16.997c-0.163-0.181-0.36-0.313-0.567-0.418
	c-0.063-0.03-0.123-0.05-0.188-0.074c-0.175-0.065-0.355-0.104-0.542-0.115c-0.038-0.003-0.074-0.026-0.114-0.026h-56.657
	c-5.206,0-9.441,4.235-9.441,9.441v81.208c0,5.207,4.235,9.444,9.441,9.444h64.026c3.797,5.185,8.637,9.635,14.342,12.961
	c0.295,0.172,0.622,0.258,0.949,0.258c0.331,0,0.66-0.086,0.955-0.258c14.555-8.492,23.598-24.237,23.598-41.086v-13.424
	C276.145,175.468,275.301,174.625,274.258,174.625L274.258,174.625z M230.818,124.824l4.112,4.626l4.902,5.516h-9.015V124.824z
	 M172.274,214.284c-3.123,0-5.665-2.542-5.665-5.666V127.41c0-3.123,2.542-5.665,5.665-5.665h54.769v15.107
	c0,1.045,0.846,1.89,1.889,1.89h13.221v35.883h-13.221c-1.043,0-1.889,0.843-1.889,1.888v13.424c0,1.053,0.037,2.106,0.105,3.15
	c0.4,6.077,1.979,11.961,4.613,17.424c0.08,0.162,0.151,0.328,0.232,0.49c0.314,0.639,0.658,1.265,1.005,1.889
	c0.177,0.322,0.349,0.646,0.532,0.962c0.084,0.143,0.153,0.291,0.24,0.431H172.274z M272.367,189.937
	c0,15.142-7.932,29.313-20.775,37.253c-5.298-3.276-9.742-7.624-13.158-12.653c-0.381-0.561-0.746-1.127-1.099-1.702
	c-0.222-0.361-0.442-0.721-0.655-1.09c-0.288-0.496-0.554-1.001-0.82-1.506c-0.228-0.435-0.463-0.865-0.675-1.307
	c-0.186-0.382-0.345-0.771-0.52-1.158c-0.496-1.111-0.952-2.242-1.358-3.394c-0.092-0.262-0.197-0.523-0.283-0.787
	c-0.196-0.598-0.369-1.206-0.539-1.813c-0.106-0.378-0.215-0.753-0.313-1.134c-0.142-0.561-0.269-1.128-0.388-1.697
	c-0.099-0.46-0.187-0.923-0.271-1.386c-0.091-0.511-0.177-1.022-0.248-1.536c-0.085-0.591-0.15-1.184-0.207-1.781
	c-0.041-0.408-0.09-0.816-0.121-1.225c-0.07-1.021-0.117-2.05-0.117-3.085v-11.535h41.549V189.937z M272.367,189.937"/>
<path stroke="#000000" d="M263.479,192.175l-13.773,13.775l-6.219-6.221l-2.67,2.672l7.553,7.554
	c0.371,0.368,0.854,0.554,1.336,0.554c0.484,0,0.967-0.186,1.337-0.554l15.106-15.108L263.479,192.175z M263.479,192.175"/>
<rect x="174.164" y="144.41" stroke="#000000" width="60.432" height="3.776"/>
<rect x="174.164" y="153.852" stroke="#000000" width="60.432" height="3.776"/>
<rect x="174.164" y="163.294" stroke="#000000" width="60.432" height="3.776"/>
<rect x="174.164" y="172.737" stroke="#000000" width="45.324" height="3.776"/>
<rect x="174.164" y="182.179" stroke="#000000" width="45.324" height="3.777"/>
<rect x="174.164" y="191.621" stroke="#000000" width="45.324" height="3.777"/>
<rect x="174.164" y="201.064" stroke="#000000" width="45.324" height="3.777"/>
<rect x="234.596" y="182.179" stroke="#000000" width="3.777" height="3.777"/>
<rect x="242.152" y="182.179" stroke="#000000" width="3.777" height="3.777"/>
<rect x="249.705" y="182.179" stroke="#000000" width="3.777" height="3.777"/>
<rect x="257.26" y="182.179" stroke="#000000" width="3.777" height="3.777"/>
<rect x="264.814" y="182.179" stroke="#000000" width="3.775" height="3.777"/>
<path fill="none" stroke="#010101" stroke-width="5" stroke-linecap="square" stroke-linejoin="round" stroke-dasharray="0,12" d="
	M4.744,205.28C-10.595,109.859,54.329,20.086,149.757,4.74c95.42-15.323,185.201,49.604,200.524,145.028
	c15.337,95.409-49.585,185.198-145.007,200.538C109.854,365.637,20.076,300.703,4.744,205.28z"/>
<path stroke="#FFFFFF" stroke-width="2" d="M16.411,92.055c0,5.293-4.311,9.6-9.6,9.6v6.403c5.289,0,9.6,4.308,9.6,9.601h6.4
	c0-5.293,4.307-9.601,9.602-9.601v-6.403c-5.295,0-9.602-4.307-9.602-9.6H16.411L16.411,92.055z M19.611,108.157
	c-0.935-1.258-2.04-2.367-3.296-3.3c1.256-0.935,2.361-2.042,3.296-3.3c0.937,1.258,2.042,2.365,3.3,3.3
	C21.653,105.79,20.548,106.899,19.611,108.157L19.611,108.157z M19.611,108.157"/>
<path stroke="#FFFFFF" d="M346.948,130.116c0,3.58-2.912,6.492-6.49,6.492v4.328c3.578,0,6.49,2.91,6.49,6.49h4.328
	c0-3.58,2.911-6.49,6.492-6.49v-4.328c-3.581,0-6.492-2.912-6.492-6.492H346.948L346.948,130.116z M349.112,141
	c-0.632-0.85-1.381-1.596-2.23-2.23c0.85-0.631,1.599-1.379,2.23-2.23c0.633,0.852,1.381,1.6,2.231,2.23
	C350.493,139.405,349.745,140.151,349.112,141L349.112,141z M349.112,141"/>
<path stroke="#FFFFFF" d="M218.686,339.182c0,3.362-2.739,6.104-6.103,6.104v4.066c3.363,0,6.103,2.737,6.103,6.104h4.067
	c0-3.366,2.739-6.104,6.104-6.104v-4.066c-3.364,0-6.104-2.741-6.104-6.104H218.686L218.686,339.182z M220.72,349.415
	c-0.594-0.798-1.299-1.502-2.098-2.097c0.799-0.593,1.504-1.297,2.098-2.097c0.594,0.8,1.297,1.504,2.098,2.097
	C222.017,347.913,221.313,348.617,220.72,349.415L220.72,349.415z M220.72,349.415"/>
<path d="M202.913,177.104v-6.141c0-4.924-4.007-8.93-8.931-8.93h-44.147c-1.137,0-2.156-0.631-2.664-1.646l-2.662-5.325
	c-1.523-3.045-4.583-4.937-7.986-4.937h-26.289c-4.924,0-8.93,4.006-8.931,8.932v66.031c0,4.852,3.898,8.766,8.759,8.766h21.209
	v8.95c0,4.924,4.008,8.931,8.93,8.931h23.816c4.924,0,8.93-4.007,8.93-8.931v-8.931h21.037c4.924,0,8.93-4.007,8.93-8.931v-47.815
	c0-0.005,0-0.009,0-0.012C202.915,177.112,202.913,177.108,202.913,177.104L202.913,177.104z M166.993,242.804
	c0,1.642-1.336,2.978-2.977,2.978H140.2c-1.641,0-2.977-1.336-2.977-2.978v-17.861c0-1.642,1.336-2.976,2.977-2.976h23.816
	c1.641,0,2.977,1.334,2.977,2.976V242.804z M143.178,216.012v-9.128c0-4.925,4.007-8.931,8.931-8.931
	c4.926,0,8.931,4.006,8.931,8.931v9.128H143.178z M196.96,224.943c0,1.55-1.205,2.978-3.098,2.978h-20.916v-2.978
	c0-3.881-2.488-7.189-5.953-8.418v-9.641c0-8.206-6.678-14.885-14.885-14.885s-14.885,6.676-14.885,14.885v9.641
	c-3.465,1.229-5.953,4.539-5.953,8.418v2.978h-21.209c-1.559,0-2.805-1.259-2.805-2.832v-44.996h89.703V224.943z M196.96,174.138
	h-89.703v-15.081c0-1.643,1.336-2.977,2.977-2.977h26.289c1.134,0,2.152,0.629,2.66,1.645l2.664,5.325
	c1.521,3.044,4.583,4.938,7.988,4.938h44.147c1.642,0,2.978,1.335,2.978,2.976V174.138z M196.96,174.138"/>
<path d="M152.108,227.92c-1.645,0-2.977,1.334-2.977,2.977v5.954c0,1.646,1.332,2.978,2.977,2.978s2.977-1.332,2.977-2.978v-5.954
	C155.085,229.254,153.753,227.92,152.108,227.92L152.108,227.92z M152.108,227.92"/>
<path d="M188.028,186.046h-12.105c-1.643,0-2.977,1.332-2.977,2.977S174.28,192,175.923,192h12.105c1.645,0,2.978-1.332,2.978-2.977
	S189.673,186.046,188.028,186.046L188.028,186.046z M188.028,186.046"/>
<path d="M188.028,197.954h-12.105c-1.643,0-2.977,1.332-2.977,2.977c0,1.644,1.334,2.978,2.977,2.978h12.105
	c1.645,0,2.978-1.334,2.978-2.978C191.006,199.286,189.673,197.954,188.028,197.954L188.028,197.954z M188.028,197.954"/>
<path fill="#FFFFFF" d="M193.862,227.92c1.893,0,3.098-1.428,3.098-2.978v-44.851h-89.703v44.996c0,1.573,1.246,2.832,2.805,2.832
	h21.209v-2.978c0-3.879,2.488-7.189,5.953-8.418v-9.641c0-8.209,6.678-14.885,14.885-14.885s14.885,6.679,14.885,14.885v9.641
	c3.465,1.229,5.953,4.537,5.953,8.418v2.978H193.862z M175.923,186.046h12.105c1.645,0,2.978,1.332,2.978,2.977
	S189.673,192,188.028,192h-12.105c-1.643,0-2.977-1.332-2.977-2.977S174.28,186.046,175.923,186.046z M175.923,197.954h12.105
	c1.645,0,2.978,1.332,2.978,2.977c0,1.644-1.333,2.978-2.978,2.978h-12.105c-1.643,0-2.977-1.334-2.977-2.978
	C172.946,199.286,174.28,197.954,175.923,197.954z"/>
<path fill="#FFFFFF" d="M137.224,224.943v17.861c0,1.642,1.336,2.978,2.977,2.978h23.816c1.641,0,2.977-1.336,2.977-2.978v-17.861
	c0-1.642-1.336-2.976-2.977-2.976H140.2C138.56,221.967,137.224,223.301,137.224,224.943z M149.132,230.897
	c0-1.643,1.332-2.977,2.977-2.977s2.977,1.334,2.977,2.977v5.954c0,1.646-1.332,2.978-2.977,2.978s-2.977-1.332-2.977-2.978V230.897
	z"/>
<path fill="#FFFFFF" d="M196.96,170.963c0-1.641-1.336-2.976-2.978-2.976h-44.147c-3.405,0-6.467-1.894-7.988-4.938l-2.664-5.325
	c-0.508-1.016-1.526-1.645-2.66-1.645h-26.289c-1.641,0-2.977,1.334-2.977,2.977v15.081h89.703V170.963z"/>
<path fill="#FFFFFF" d="M152.108,197.954c-4.924,0-8.931,4.006-8.931,8.931v9.128h17.861v-9.128
	C161.039,201.959,157.034,197.954,152.108,197.954z"/>
<path stroke="#000000" stroke-width="0.5" d="M316.583,294.352h-15.677c-1.181,0-2.143,0.961-2.143,2.143v4.808
	c0,1.182,0.962,2.143,2.143,2.143h15.677c1.181,0,2.143-0.961,2.143-2.143v-4.808C318.726,295.313,317.764,294.352,316.583,294.352
	L316.583,294.352z M315.971,300.69H301.52v-3.583h14.451V300.69z M315.971,300.69"/>
<path stroke="#000000" stroke-width="0.5" d="M343.585,282.444l0.022-0.01l-10.33-20.421c-0.834-1.65-2.502-2.676-4.352-2.676
	h-1.963v-1.897c0-0.761-0.615-1.377-1.377-1.377h-33.684c-0.76,0-1.377,0.617-1.377,1.377v1.897h-1.963
	c-1.849,0-3.516,1.026-4.352,2.676l-10.328,20.421l0.021,0.01c-0.441,0.729-0.697,1.583-0.697,2.497v21.573
	c0,2.661,2.164,4.824,4.824,4.824h61.428c2.66,0,4.824-2.164,4.824-4.824v-21.573C344.283,284.028,344.027,283.173,343.585,282.444
	L343.585,282.444z M326.963,262.398h1.963c0.689,0,1.311,0.381,1.621,0.997l8.458,16.722h-5.751v-5.145
	c0-0.761-0.617-1.377-1.377-1.377h-1.705v-7.389c0-0.761-0.616-1.378-1.377-1.378h-1.832V262.398z M330.499,276.349v3.768h-7.269
	c-1.247,0-2.384,0.735-2.896,1.872l-1.984,4.401c-0.019,0.042-0.061,0.068-0.106,0.068h-18.998c-0.045,0-0.087-0.026-0.104-0.068
	l-1.986-4.401c-0.512-1.137-1.648-1.872-2.895-1.872h-7.27v-3.768H330.499z M293.281,258.816h30.928v6.011h-30.928V258.816z
	 M327.418,267.582v6.012h-37.346v-6.012H327.418z M286.941,263.395c0.313-0.615,0.934-0.997,1.621-0.997h1.963v2.429h-1.831
	c-0.761,0-1.377,0.617-1.377,1.377v7.389h-1.704c-0.762,0-1.377,0.617-1.377,1.377v5.146h-5.752L286.941,263.395z M339.459,308.277
	h-61.428c-0.973,0-1.764-0.791-1.764-1.763v-21.573c0-0.972,0.791-1.764,1.764-1.764h16.229c0.045,0,0.086,0.027,0.105,0.069
	l1.984,4.402c0.513,1.137,1.649,1.871,2.896,1.871h18.998c1.247,0,2.384-0.734,2.896-1.871l1.984-4.402
	c0.02-0.042,0.061-0.069,0.106-0.069h16.228c0.973,0,1.763,0.792,1.763,1.764v21.573
	C341.221,307.487,340.431,308.277,339.459,308.277L339.459,308.277z M339.459,308.277"/>
<rect x="293.281" y="258.816" fill="#FFFFFF" stroke="#000000" stroke-width="0.5" width="30.928" height="6.011"/>
<rect x="290.072" y="267.582" fill="#FFFFFF" stroke="#000000" stroke-width="0.5" width="37.346" height="6.012"/>
<path fill="#FFFFFF" stroke="#000000" stroke-width="0.5" d="M284.236,274.971c0-0.761,0.615-1.377,1.377-1.377h1.704v-7.389
	c0-0.76,0.616-1.377,1.377-1.377h1.831v-2.429h-1.963c-0.688,0-1.309,0.381-1.621,0.997l-8.457,16.722h5.752V274.971z"/>
<path fill="#FFFFFF" stroke="#000000" stroke-width="0.5" d="M286.99,280.117h7.27c1.246,0,2.383,0.735,2.895,1.872l1.986,4.401
	c0.018,0.042,0.06,0.068,0.104,0.068h18.998c0.046,0,0.088-0.026,0.106-0.068l1.984-4.401c0.513-1.137,1.649-1.872,2.896-1.872
	h7.269v-3.768H286.99V280.117z"/>
<path fill="#FFFFFF" stroke="#000000" stroke-width="0.5" d="M330.172,266.206v7.389h1.705c0.76,0,1.377,0.616,1.377,1.377v5.145
	h5.751l-8.458-16.722c-0.311-0.615-0.932-0.997-1.621-0.997h-1.963v2.43h1.832C329.556,264.828,330.172,265.444,330.172,266.206z"/>
<path fill="#FFFFFF" stroke="#000000" stroke-width="0.5" d="M339.458,283.177H323.23c-0.046,0-0.087,0.027-0.106,0.069
	l-1.984,4.402c-0.513,1.137-1.649,1.871-2.896,1.871h-18.998c-1.246,0-2.383-0.734-2.896-1.871l-1.984-4.402
	c-0.02-0.042-0.061-0.069-0.105-0.069h-16.229c-0.973,0-1.764,0.792-1.764,1.764v21.573c0,0.972,0.791,1.763,1.764,1.763h61.428
	c0.972,0,1.762-0.791,1.762-1.763v-21.573C341.221,283.969,340.431,283.177,339.458,283.177z M318.726,301.302
	c0,1.182-0.962,2.143-2.143,2.143h-15.677c-1.181,0-2.143-0.961-2.143-2.143v-4.808c0-1.181,0.962-2.143,2.143-2.143h15.677
	c1.181,0,2.143,0.961,2.143,2.143V301.302z"/>
<rect x="301.52" y="297.107" fill="#FFFFFF" stroke="#000000" stroke-width="0.5" width="14.451" height="3.583"/>
</svg>
