<?xml version="1.0" encoding="utf-8"?>
<!-- Generator: Adobe Illustrator 15.1.0, SVG Export Plug-In  -->
<!DOCTYPE svg PUBLIC "-//W3C//DTD SVG 1.1//EN" "http://www.w3.org/Graphics/SVG/1.1/DTD/svg11.dtd" [
	<!ENTITY ns_flows "http://ns.adobe.com/Flows/1.0/">
]>
<svg version="1.1"
	 xmlns="http://www.w3.org/2000/svg" xmlns:xlink="http://www.w3.org/1999/xlink" xmlns:a="http://ns.adobe.com/AdobeSVGViewerExtensions/3.0/"
	 x="0px" y="0px" width="500px" height="500px" viewBox="-72.233 -76.672 500 500" enable-background="new -72.233 -76.672 500 500"
	 xml:space="preserve">
<defs>
</defs>
<path fill="none" stroke="#010101" stroke-width="5" stroke-linecap="square" stroke-linejoin="round" stroke-dasharray="0,12" d="
	M4.744,205.265C-10.595,109.854,54.327,20.084,149.745,4.74c95.413-15.322,185.186,49.599,200.511,145.017
	c15.34,95.4-49.577,185.185-144.997,200.522C109.846,365.609,20.073,300.682,4.744,205.265z"/>
<path stroke="#FFFFFF" d="M59.604,299.904c0,3.58-2.912,6.492-6.491,6.492v4.328c3.579,0,6.491,2.91,6.491,6.49h4.327
	c0-3.58,2.912-6.49,6.492-6.49v-4.328c-3.58,0-6.492-2.912-6.492-6.492H59.604L59.604,299.904z M61.767,310.789
	c-0.631-0.85-1.379-1.596-2.229-2.23c0.85-0.631,1.598-1.379,2.229-2.23c0.634,0.852,1.381,1.6,2.232,2.23
	C63.147,309.193,62.4,309.939,61.767,310.789L61.767,310.789z M61.767,310.789"/>
<path stroke="#FFFFFF" stroke-width="2" d="M68.862,22.526c0,5.293-4.311,9.6-9.601,9.6v6.403c5.29,0,9.601,4.308,9.601,9.601h6.4
	c0-5.293,4.307-9.601,9.602-9.601v-6.403c-5.295,0-9.602-4.307-9.602-9.6H68.862L68.862,22.526z M72.062,38.628
	c-0.935-1.258-2.04-2.367-3.295-3.3c1.255-0.935,2.36-2.042,3.295-3.3c0.938,1.258,2.043,2.365,3.3,3.3
	C74.104,36.261,72.999,37.37,72.062,38.628L72.062,38.628z M72.062,38.628"/>
<path stroke="#FFFFFF" d="M348.575,155.889c0,3.362-2.738,6.104-6.104,6.104v4.066c3.365,0,6.104,2.737,6.104,6.104h4.068
	c0-3.366,2.738-6.104,6.103-6.104v-4.066c-3.364,0-6.103-2.741-6.103-6.104H348.575L348.575,155.889z M350.608,166.122
	c-0.594-0.798-1.298-1.502-2.098-2.097c0.8-0.593,1.504-1.297,2.098-2.097c0.594,0.8,1.298,1.504,2.098,2.097
	C351.906,164.62,351.202,165.324,350.608,166.122L350.608,166.122z M350.608,166.122"/>
<path d="M155.642,211.908c0-2.14-1.74-3.88-3.88-3.88h-20.99c1.035-2.911,1.592-5.943,1.592-9.053
	c0-14.976-12.184-27.16-27.161-27.16s-27.159,12.184-27.159,27.16c0,14.975,12.182,27.158,27.159,27.158v6.469
	c0,0.996,0.39,1.898,1.009,2.587c-0.62,0.687-1.009,1.587-1.009,2.585v7.76c0,2.14,1.743,3.88,3.881,3.88h42.679
	c2.14,0,3.88-1.741,3.88-3.88v-7.76c0-0.998-0.39-1.899-1.008-2.585c0.619-0.689,1.008-1.591,1.008-2.587v-7.761
	c0-0.997-0.39-1.898-1.008-2.586c0.619-0.688,1.008-1.59,1.008-2.586V211.908z M129.71,197.681h-12.924
	c-0.155-3.756-0.947-7.287-2.055-10.461c3.002-1.22,5.763-3.013,8.121-5.301C126.848,186.051,129.392,191.574,129.71,197.681
	L129.71,197.681z M129.717,200.269c-0.141,2.665-0.684,5.269-1.674,7.759h-12.496c0.72-2.632,1.135-5.229,1.24-7.759H129.717z
	 M120.956,180.141c-2.085,2.002-4.516,3.563-7.153,4.64c-1.865-4.463-4.186-8.033-5.783-10.204
	C112.91,175.136,117.368,177.134,120.956,180.141L120.956,180.141z M114.208,197.684H96.195c0.157-3.42,0.903-6.671,1.938-9.61
	c2.275,0.66,4.65,1.013,7.069,1.013c2.417,0,4.793-0.352,7.068-1.013C113.304,191.012,114.052,194.261,114.208,197.684
	L114.208,197.684z M111.33,185.625c-1.979,0.553-4.033,0.875-6.128,0.875s-4.15-0.322-6.126-0.875
	c2.072-4.893,4.726-8.659,6.126-10.468C106.604,176.966,109.257,180.733,111.33,185.625L111.33,185.625z M102.383,174.577
	c-1.594,2.17-3.916,5.741-5.781,10.204c-2.637-1.077-5.067-2.638-7.152-4.64C93.037,177.134,97.495,175.136,102.383,174.577
	L102.383,174.577z M87.552,181.919c2.356,2.289,5.12,4.082,8.123,5.301c-1.109,3.174-1.901,6.707-2.058,10.463H80.696
	C81.015,191.574,83.557,186.051,87.552,181.919L87.552,181.919z M80.696,200.269h12.921c0.164,3.972,1.036,7.701,2.241,11.012
	c-2.99,1.104-5.779,2.737-8.224,4.844C83.591,211.982,81.016,206.421,80.696,200.269L80.696,200.269z M89.551,217.905
	c2.172-1.825,4.626-3.247,7.264-4.21c1.825,4.222,4.035,7.593,5.568,9.678C97.544,222.818,93.124,220.861,89.551,217.905
	L89.551,217.905z M105.202,222.796c-1.342-1.736-3.831-5.272-5.862-9.868c1.906-0.469,3.872-0.694,5.862-0.696v7.436
	c0,0.222,0.026,0.441,0.062,0.659c0.004,0.031,0.009,0.066,0.015,0.097c0.013,0.063,0.036,0.123,0.053,0.184
	c0.029,0.113,0.059,0.225,0.096,0.333c0.022,0.064,0.04,0.126,0.064,0.189c0.023,0.053,0.051,0.102,0.072,0.152
	c0.038,0.078,0.077,0.155,0.12,0.229c0.049,0.089,0.092,0.176,0.146,0.258c0.022,0.036,0.045,0.07,0.067,0.106
	C105.641,222.222,105.41,222.53,105.202,222.796L105.202,222.796z M105.957,209.629c-2.588-0.073-5.151,0.22-7.61,0.866
	c-1.146-3.097-1.984-6.566-2.153-10.227h18.012c-0.116,2.521-0.543,5.118-1.324,7.759h-3.798
	C107.797,208.028,106.664,208.663,105.957,209.629L105.957,209.629z M153.055,245.534c0,0.715-0.582,1.294-1.293,1.294h-42.679
	c-0.714,0-1.295-0.579-1.295-1.294v-7.76c0-0.713,0.581-1.293,1.295-1.293h42.679c0.711,0,1.293,0.58,1.293,1.293V245.534z
	 M153.055,232.602c0,0.713-0.582,1.291-1.293,1.291h-42.679c-0.714,0-1.295-0.578-1.295-1.291v-7.761
	c0-0.008,0.005-0.014,0.005-0.021c0.012-0.702,0.59-1.272,1.29-1.272h42.679c0.711,0,1.293,0.581,1.293,1.294V232.602z
	 M153.055,219.668c0,0.714-0.582,1.293-1.293,1.293h-42.679c-0.325,0-0.614-0.132-0.841-0.33c-0.036-0.031-0.072-0.06-0.105-0.096
	c-0.091-0.098-0.168-0.211-0.227-0.334c-0.014-0.029-0.021-0.057-0.029-0.084c-0.054-0.142-0.093-0.291-0.093-0.449v-7.761
	c0-0.714,0.581-1.292,1.295-1.292h42.679c0.711,0,1.293,0.579,1.293,1.292V219.668z M153.055,219.668"/>
<rect x="147.884" y="214.494" width="2.585" height="2.588"/>
<rect x="110.376" y="214.494" width="21.987" height="2.588"/>
<rect x="147.884" y="227.428" width="2.585" height="2.587"/>
<rect x="110.376" y="227.428" width="21.987" height="2.587"/>
<rect x="147.884" y="240.362" width="2.585" height="2.586"/>
<rect x="110.376" y="240.362" width="21.987" height="2.586"/>
<rect x="132.363" y="187.336" width="2.585" height="2.586"/>
<rect x="137.535" y="187.336" width="2.586" height="2.586"/>
<rect x="142.709" y="187.336" width="2.587" height="2.586"/>
<rect x="147.884" y="187.336" width="2.585" height="2.586"/>
<rect x="147.884" y="192.508" width="2.585" height="2.586"/>
<rect x="147.884" y="197.681" width="2.585" height="2.587"/>
<rect x="147.884" y="202.855" width="2.585" height="2.586"/>
<rect x="100.029" y="240.362" width="2.588" height="2.586"/>
<rect x="94.855" y="240.362" width="2.588" height="2.586"/>
<rect x="89.683" y="240.362" width="2.585" height="2.586"/>
<rect x="89.683" y="235.189" width="2.585" height="2.585"/>
<rect x="89.683" y="230.015" width="2.585" height="2.587"/>
<rect x="89.683" y="224.841" width="2.585" height="2.587"/>
<path stroke="#FFFFFF" stroke-width="4" d="M178.438,111.629c-29.133,0-52.831,23.7-52.831,52.83
	c0,18.808,5.719,26.347,33.209,62.587c4.771,6.292,10.18,13.421,16.369,21.673c0.768,1.021,1.972,1.625,3.253,1.625
	c1.279,0,2.481-0.604,3.251-1.626c6.15-8.207,11.536-15.31,16.288-21.577c27.555-36.345,33.29-43.907,33.29-62.682
	C231.267,135.329,207.566,111.629,178.438,111.629L178.438,111.629z M191.5,222.231c-3.902,5.145-8.229,10.858-13.065,17.284
	c-4.865-6.468-9.219-12.209-13.144-17.381c-26.74-35.251-31.558-41.602-31.558-57.675c0-24.648,20.053-44.703,44.704-44.703
	c24.649,0,44.702,20.054,44.702,44.703C223.14,180.501,218.308,186.871,191.5,222.231L191.5,222.231z M191.5,222.231"/>
<path stroke="#FFFFFF" stroke-width="4" d="M178.438,136.013c-15.688,0-28.448,12.76-28.448,28.446
	c0,15.686,12.76,28.446,28.448,28.446c15.686,0,28.444-12.761,28.444-28.446C206.882,148.773,194.123,136.013,178.438,136.013
	L178.438,136.013z M178.438,184.779c-11.205,0-20.32-9.114-20.32-20.32c0-11.206,9.115-20.317,20.32-20.317
	c11.202,0,20.317,9.112,20.317,20.317C198.755,175.666,189.64,184.779,178.438,184.779L178.438,184.779z M178.438,184.779"/>
<path fill="#FFFFFF" stroke="#FFFFFF" stroke-width="5" d="M178.438,119.079c-24.651,0-44.704,20.055-44.704,44.704
	c0,16.072,4.817,22.423,31.558,57.673c3.925,5.174,8.278,10.914,13.144,17.381c4.836-6.425,9.163-12.136,13.065-17.282
	c26.808-35.362,31.64-41.733,31.64-57.772C223.14,139.134,203.087,119.079,178.438,119.079z M178.438,192.229
	c-15.688,0-28.448-12.762-28.448-28.446s12.76-28.446,28.448-28.446c15.686,0,28.444,12.762,28.444,28.446
	S194.123,192.229,178.438,192.229z"/>
<path fill="#FFFFFF" d="M178.438,143.464c-11.205,0-20.32,9.113-20.32,20.319c0,11.204,9.115,20.319,20.32,20.319
	c11.202,0,20.317-9.115,20.317-20.319C198.755,152.577,189.64,143.464,178.438,143.464z"/>
<path fill="#FFFFFF" stroke="#FFFFFF" d="M149.301,112.055h-0.151c-1.378-12.402-11.919-22.074-24.681-22.074
	c-8.637,0-16.468,4.386-20.997,11.608c-1.256-0.379-2.539-0.572-3.835-0.572c-6.745,0-12.379,4.867-13.567,11.276
	c-0.987-0.159-1.987-0.237-2.989-0.237c-10.648,0-19.313,8.661-19.313,19.313c0,10.649,8.665,19.313,19.313,19.313h30.353h5.518
	h30.351c10.65,0,19.314-8.665,19.314-19.313C168.615,120.716,159.951,112.055,149.301,112.055z"/>
<path stroke="#FFFFFF" d="M119.172,152.005h30.948c10.86,0,19.694-8.834,19.694-19.694c0-10.86-8.834-19.694-19.694-19.694h-0.153
	c-1.402-12.644-12.155-22.505-25.167-22.505c-8.806,0-16.791,4.472-21.408,11.835c-1.279-0.388-2.59-0.582-3.912-0.582
	c-6.877,0-12.621,4.962-13.832,11.495c-1.01-0.161-2.027-0.243-3.049-0.243c-10.859,0-19.693,8.834-19.693,19.694
	c0,10.859,8.834,19.694,19.693,19.694h30.949 M82.599,146.377c-7.756,0-14.066-6.309-14.066-14.066s6.311-14.068,14.066-14.068
	c1.607,0,3.213,0.289,4.773,0.853c0.903,0.33,1.915,0.171,2.678-0.418c0.763-0.589,1.17-1.524,1.08-2.483l-0.092-0.762
	c0-4.655,3.788-8.442,8.441-8.442c1.297,0,2.598,0.333,3.858,0.986c0.669,0.351,1.456,0.416,2.172,0.179
	c0.715-0.238,1.312-0.75,1.645-1.426c3.354-6.78,10.114-10.992,17.646-10.992c10.857,0,19.695,8.833,19.695,19.617
	c-0.007,0.071-0.016,0.264-0.016,0.333c0,0.826,0.366,1.615,0.998,2.148c0.635,0.532,1.463,0.762,2.287,0.625
	c0.854-0.144,1.625-0.217,2.355-0.217c7.758,0,14.068,6.311,14.068,14.068s-6.311,14.066-14.068,14.066H82.599z M161.374,194.207"/>
<rect x="147.308" y="123.871" stroke="#FFFFFF" width="5.626" height="5.628"/>
<rect x="147.308" y="135.123" stroke="#FFFFFF" width="5.626" height="5.628"/>
<rect x="136.055" y="135.123" stroke="#FFFFFF" width="5.628" height="5.628"/>
<path fill="#FFFFFF" d="M226.249,224.158c0,1.047-0.699,1.746-1.747,1.746h-8.381c-1.046,0-1.746-0.698-1.746-1.746v-3.143h-2.618
	v3.143c0,1.047-0.7,1.746-1.746,1.746h-8.381c-1.05,0-1.746-0.698-1.746-1.746v-3.143h-3.492v52.033h33.35v-52.033h-3.492V224.158z
	 M219.264,245.634c0,1.048-0.697,1.747-1.745,1.747h-8.907c-1.046,0-1.743-0.698-1.743-1.747v-7.682c0-3.32,2.618-6.112,6.11-6.112
	s6.285,2.792,6.285,6.112V245.634z"/>
<path fill="#FFFFFF" d="M259.425,273.048v-30.382c-9.778,10.826-10.826,25.493-11,30.382H259.425z"/>
<path fill="#FFFFFF" d="M293.822,152.395c-0.874-0.699-1.747-1.398-2.792-1.398c-0.7,0-1.4-0.349-1.573-1.047
	c-0.174-0.524-0.174-1.224,0.349-1.747c0.35-0.524,1.225-1.396,2.794-2.094c-2.619-0.7-6.288-1.048-10.825,0.873
	c-3.318,1.396-5.763,2.095-7.51,2.095v6.287c0,0.349,0,0.872-0.348,1.047c2.619,0,6.984-0.524,11.174-2.444
	C288.759,152.395,291.552,152.219,293.822,152.395z"/>
<path fill="#FFFFFF" d="M212.979,235.332c-1.396,0-2.62,1.048-2.62,2.621v5.936h5.238v-5.936
	C215.597,236.554,214.551,235.332,212.979,235.332z"/>
<path fill="#FFFFFF" d="M233.233,273.048h11.697c0-5.763,1.397-24.097,15.017-35.97c0.698-0.524,1.572-0.524,2.271,0
	c13.617,12.048,15.015,30.207,15.015,35.97h11.699v-53.779v-25.143h-55.699V273.048z"/>
<path fill="#FFFFFF" d="M263.964,153.267c1.397-0.349,3.493-0.524,5.761-0.349h0.176c0.35,0.175,0.698,0.175,1.047,0.175v-7.333
	c-1.396-0.699-4.364-1.921-7.158-0.524h0.175V153.267z"/>
<path fill="#FFFFFF" d="M262.915,273.048h11.002c-0.174-4.889-1.396-19.556-11.002-30.382V273.048z"/>
<path fill="#FFFFFF" d="M329.269,219.269v55.525c0,1.048-0.701,1.746-1.748,1.746H194.646c-1.049,0-1.747-0.698-1.747-1.746v-55.525
	c0-1.049,0.698-1.746,1.747-1.746h6.984c1.046,0,1.745,0.697,1.745,1.746v3.143h4.889v-3.143c0-1.049,0.699-1.746,1.747-1.746h6.11
	c1.047,0,1.747,0.697,1.747,1.746v3.143h4.889v-3.143c0-1.049,0.698-1.746,1.745-1.746h5.239V192.38l-2.968-16.763
	c-0.175-0.524,0-1.049,0.349-1.397c0.349-0.523,0.873-0.698,1.396-0.698h9.08c1.048,0,1.746,0.698,1.746,1.746v3.841h6.459v-3.841
	c0-1.048,0.7-1.746,1.746-1.746h9.431c1.046,0,1.746,0.698,1.746,1.746v3.841h1.571v-39.635c0-1.047,0.697-1.746,1.745-1.746
	s1.746,0.699,1.746,1.746v1.572c5.064-1.572,9.778,1.571,9.954,1.745c0.348,0.349,0.697,0.873,0.697,1.397v0.874
	c0.698,0,2.443-0.176,6.287-1.745c10.824-4.541,17.982,1.22,18.333,1.395c0.523,0.525,0.697,1.223,0.523,1.922
	c-0.35,0.698-0.874,1.221-1.572,1.221c-1.222,0.176-2.271,0.349-2.968,0.699c2.968,2.269,4.366,6.11,4.366,6.285
	c0.174,0.873,0,1.571-0.7,2.096c-0.698,0.349-1.571,0.349-2.096-0.175c-0.173,0-3.316-2.62-10.126,0.349
	c-4.017,1.572-9.079,2.619-12.745,2.619c-2.445,0-4.192-0.35-5.064-1.222c-0.524-0.524-0.7-1.397-0.35-2.271
	c-1.921,0-3.666,0.35-4.715,0.7v22.174h1.222v-3.841c0-1.048,0.7-1.746,1.747-1.746h9.08c1.047,0,1.746,0.698,1.746,1.746v3.841
	h6.285v-4.015c0-1.049,0.698-1.746,1.746-1.746h8.206c0.525,0,1.048,0.35,1.397,0.697c0.351,0.35,0.523,0.875,0.351,1.399
	l-2.968,16.761v25.319h5.236c1.047,0,1.747,0.697,1.747,1.746v3.143h4.888v-3.143c0-1.049,0.699-1.746,1.746-1.746h6.286
	c1.047,0,1.745,0.697,1.745,1.746v3.143h4.891v-3.143c0-1.049,0.698-1.746,1.745-1.746h6.985
	C328.567,217.523,329.442,218.22,329.269,219.269z"/>
<path fill="#FFFFFF" d="M287.361,180.855c0,1.046-0.7,1.746-1.745,1.746h-9.78c-1.047,0-1.745-0.699-1.745-1.746v-3.841h-5.587
	v3.841c0,1.046-0.699,1.746-1.746,1.746h-9.777c-1.049,0-1.747-0.699-1.747-1.746v-3.841h-5.938v3.841
	c0,1.046-0.697,1.746-1.746,1.746h-9.951c-1.047,0-1.748-0.699-1.748-1.746v-4.016h-5.238l2.445,13.793h56.051l2.617-13.619h-4.364
	V180.855z"/>
<path fill="#FFFFFF" d="M322.282,224.158c0,1.047-0.697,1.746-1.745,1.746h-8.382c-1.047,0-1.745-0.698-1.745-1.746v-3.143h-2.619
	v3.143c0,1.047-0.7,1.746-1.747,1.746h-8.381c-1.049,0-1.746-0.698-1.746-1.746v-3.143h-3.49v52.033h33.348v-52.033h-3.492V224.158z
	 M315.474,245.634c0,1.048-0.699,1.747-1.747,1.747h-8.905c-1.047,0-1.746-0.698-1.746-1.747v-7.682c0-3.32,2.62-6.112,6.112-6.112
	c3.317,0,6.11,2.792,6.286,6.112V245.634z"/>
<path fill="#FFFFFF" d="M309.013,235.332c-1.397,0-2.619,1.048-2.619,2.621v5.936h5.237v-5.936
	C311.631,236.554,310.584,235.332,309.013,235.332z"/>
<path d="M327.696,217.523h-6.985c-1.047,0-1.745,0.697-1.745,1.746v3.143h-4.891v-3.143c0-1.049-0.698-1.746-1.745-1.746h-6.286
	c-1.047,0-1.746,0.697-1.746,1.746v3.143h-4.888v-3.143c0-1.049-0.7-1.746-1.747-1.746h-5.236v-25.319l2.968-16.761
	c0.173-0.525,0-1.05-0.351-1.399c-0.35-0.347-0.872-0.697-1.397-0.697h-8.206c-1.048,0-1.746,0.697-1.746,1.746v4.015h-6.285v-3.841
	c0-1.048-0.699-1.746-1.746-1.746h-9.08c-1.047,0-1.747,0.698-1.747,1.746v3.841h-1.222v-22.174c1.049-0.35,2.794-0.7,4.715-0.7
	c-0.351,0.874-0.175,1.747,0.35,2.271c0.872,0.872,2.619,1.222,5.064,1.222c3.666,0,8.729-1.047,12.745-2.619
	c6.81-2.969,9.953-0.349,10.126-0.349c0.524,0.524,1.397,0.524,2.096,0.175c0.7-0.524,0.874-1.223,0.7-2.096
	c0-0.175-1.398-4.017-4.366-6.285c0.697-0.351,1.746-0.523,2.968-0.699c0.698,0,1.223-0.523,1.572-1.221
	c0.174-0.7,0-1.397-0.523-1.922c-0.351-0.175-7.509-5.936-18.333-1.395c-3.844,1.569-5.589,1.745-6.287,1.745v-0.874
	c0-0.524-0.35-1.048-0.697-1.397c-0.176-0.174-4.89-3.317-9.954-1.745v-1.572c0-1.047-0.698-1.746-1.746-1.746
	s-1.745,0.699-1.745,1.746v39.635h-1.571v-3.841c0-1.048-0.7-1.746-1.746-1.746h-9.431c-1.046,0-1.746,0.698-1.746,1.746v3.841
	h-6.459v-3.841c0-1.048-0.698-1.746-1.746-1.746h-9.08c-0.523,0-1.048,0.175-1.396,0.698c-0.349,0.349-0.523,0.874-0.349,1.397
	l2.968,16.763v25.143h-5.239c-1.047,0-1.745,0.697-1.745,1.746v3.143h-4.889v-3.143c0-1.049-0.7-1.746-1.747-1.746h-6.11
	c-1.048,0-1.747,0.697-1.747,1.746v3.143h-4.889v-3.143c0-1.049-0.699-1.746-1.745-1.746h-6.984c-1.049,0-1.747,0.697-1.747,1.746
	v55.525c0,1.048,0.698,1.746,1.747,1.746h132.875c1.047,0,1.748-0.698,1.748-1.746v-55.525
	C329.442,218.22,328.567,217.523,327.696,217.523L327.696,217.523z M274.265,155.363v-6.287c1.747,0,4.191-0.699,7.51-2.095
	c4.537-1.921,8.206-1.573,10.825-0.873c-1.569,0.698-2.444,1.57-2.794,2.094c-0.522,0.523-0.522,1.222-0.349,1.747
	c0.173,0.698,0.873,1.047,1.573,1.047c1.045,0,1.918,0.699,2.792,1.398c-2.271-0.176-5.063,0-8.731,1.571
	c-4.189,1.92-8.555,2.444-11.174,2.444C274.265,156.235,274.265,155.712,274.265,155.363L274.265,155.363z M270.947,145.76v7.333
	c-0.349,0-0.697,0-1.047-0.175h-0.176c-2.268-0.175-4.363,0-5.761,0.349v-8.031h-0.175
	C266.583,143.838,269.551,145.061,270.947,145.76L270.947,145.76z M229.741,273.048h-33.35v-52.033h3.492v3.143
	c0,1.047,0.696,1.746,1.746,1.746h8.381c1.046,0,1.746-0.698,1.746-1.746v-3.143h2.618v3.143c0,1.047,0.7,1.746,1.746,1.746h8.381
	c1.048,0,1.747-0.698,1.747-1.746v-3.143h3.492V273.048z M259.425,273.048h-11c0.174-4.889,1.222-19.556,11-30.382V273.048z
	 M262.915,273.048v-30.382c9.605,10.826,10.828,25.493,11.002,30.382H262.915z M288.933,219.269v53.779h-11.699
	c0-5.763-1.397-23.921-15.015-35.97c-0.699-0.524-1.573-0.524-2.271,0c-13.619,11.873-15.017,30.207-15.017,35.97h-11.697v-78.922
	h55.699V219.269z M289.108,190.633h-56.051l-2.445-13.793h5.238v4.016c0,1.046,0.701,1.746,1.748,1.746h9.951
	c1.049,0,1.746-0.699,1.746-1.746v-3.841h5.938v3.841c0,1.046,0.698,1.746,1.747,1.746h9.777c1.047,0,1.746-0.699,1.746-1.746
	v-3.841h5.587v3.841c0,1.046,0.698,1.746,1.745,1.746h9.78c1.045,0,1.745-0.699,1.745-1.746v-3.841h4.364L289.108,190.633z
	 M292.427,273.048v-52.033h3.49v3.143c0,1.047,0.697,1.746,1.746,1.746h8.381c1.047,0,1.747-0.698,1.747-1.746v-3.143h2.619v3.143
	c0,1.047,0.698,1.746,1.745,1.746h8.382c1.048,0,1.745-0.698,1.745-1.746v-3.143h3.492v52.033H292.427z M292.427,273.048"/>
<path d="M212.979,231.841c-3.492,0-6.11,2.792-6.11,6.112v7.682c0,1.048,0.697,1.747,1.743,1.747h8.907
	c1.048,0,1.745-0.698,1.745-1.747v-7.682C219.264,234.633,216.471,231.841,212.979,231.841L212.979,231.841z M210.358,243.889
	v-5.936c0-1.573,1.225-2.621,2.62-2.621c1.572,0,2.618,1.222,2.618,2.621v5.936H210.358z M210.358,243.889"/>
<path d="M309.188,231.841c-3.492,0-6.112,2.792-6.112,6.112v7.682c0,1.048,0.699,1.747,1.746,1.747h8.905
	c1.048,0,1.747-0.698,1.747-1.747v-7.682C315.298,234.633,312.505,231.841,309.188,231.841L309.188,231.841z M306.394,243.889
	v-5.936c0-1.573,1.222-2.621,2.619-2.621c1.571,0,2.618,1.222,2.618,2.621v5.936H306.394z M306.394,243.889"/>
</svg>
