<?xml version="1.0" encoding="utf-8"?>
<!-- Generator: Adobe Illustrator 15.1.0, SVG Export Plug-In  -->
<!DOCTYPE svg PUBLIC "-//W3C//DTD SVG 1.1//EN" "http://www.w3.org/Graphics/SVG/1.1/DTD/svg11.dtd" [
	<!ENTITY ns_flows "http://ns.adobe.com/Flows/1.0/">
]>
<svg version="1.1"
	 xmlns="http://www.w3.org/2000/svg" xmlns:xlink="http://www.w3.org/1999/xlink" xmlns:a="http://ns.adobe.com/AdobeSVGViewerExtensions/3.0/"
	 x="0px" y="0px" width="500px" height="500px" viewBox="-69.332 -78.656 500 500" enable-background="new -69.332 -78.656 500 500"
	 xml:space="preserve">
<defs>
</defs>
<path stroke="#FFFFFF" stroke-width="2" d="M22.468,76.242c0,5.293-4.311,9.6-9.6,9.6v6.403c5.289,0,9.6,4.308,9.6,9.601h6.4
	c0-5.293,4.307-9.601,9.602-9.601v-6.403c-5.295,0-9.602-4.307-9.602-9.6H22.468L22.468,76.242z M25.668,92.344
	c-0.935-1.258-2.04-2.367-3.296-3.3c1.256-0.935,2.361-2.042,3.296-3.3c0.937,1.258,2.042,2.365,3.3,3.3
	C27.71,89.977,26.604,91.086,25.668,92.344L25.668,92.344z M25.668,92.344"/>
<rect x="208.805" y="110.281" width="5.065" height="5.065"/>
<rect x="208.805" y="120.411" width="5.065" height="5.065"/>
<rect x="198.676" y="120.411" width="5.065" height="5.065"/>
<path d="M254.393,216.651h-7.599v-43.055c0-4.188-3.408-7.597-7.598-7.597H213.87v-12.664c0-4.188-3.408-7.598-7.597-7.598h-17.729
	c-1.396,0-2.533-1.136-2.533-2.533v-7.596h25.327c9.776,0,17.728-7.957,17.728-17.729c0-9.774-7.952-17.729-17.728-17.729h-0.139
	c-1.265-11.382-10.941-20.26-22.655-20.26c-7.927,0-15.116,4.029-19.273,10.655c-1.151-0.35-2.33-0.524-3.52-0.524
	c-6.192,0-11.361,4.469-12.453,10.348c-0.908-0.145-1.824-0.219-2.743-0.219c-9.776,0-17.729,7.955-17.729,17.729
	c0,9.772,7.954,17.729,17.729,17.729h17.728v20.26c0,1.396-1.138,2.531-2.532,2.531h-10.131c0-4.188-3.409-7.597-7.598-7.597
	h-35.457c-4.189,0-7.598,3.408-7.598,7.597v65.849c0,4.19,3.408,7.599,7.598,7.599h35.457c4.189,0,7.598-3.408,7.598-7.599v-60.783
	h10.131c4.189,0,7.597-3.409,7.597-7.597v-20.26h7.597v7.596c0,4.189,3.409,7.599,7.598,7.599h17.729
	c1.396,0,2.532,1.134,2.532,2.532V166h-30.39c-4.189,0-7.6,3.408-7.6,7.597v43.055h-7.597c-1.397,0-2.532,1.132-2.532,2.532
	c0,6.982,5.681,12.664,12.663,12.664h70.913c6.982,0,12.663-5.682,12.663-12.664C256.925,217.783,255.79,216.651,254.393,216.651
	L254.393,216.651z M150.556,224.249c0,1.397-1.137,2.531-2.532,2.531h-35.457c-1.396,0-2.532-1.134-2.532-2.531v-5.065h40.521
	V224.249z M150.556,214.118h-40.521v-45.587h40.521V214.118z M150.556,163.466h-40.521V158.4c0-1.397,1.136-2.531,2.532-2.531
	h35.457c1.396,0,2.532,1.134,2.532,2.531V163.466z M150.556,130.543c-6.982,0-12.663-5.681-12.663-12.663
	s5.681-12.664,12.663-12.664c1.446,0,2.892,0.259,4.295,0.767c0.817,0.294,1.727,0.156,2.411-0.377
	c0.687-0.527,1.053-1.374,0.972-2.237l-0.054-0.433c-0.009-0.087-0.024-0.17-0.028-0.25c0-4.19,3.411-7.601,7.6-7.601
	c1.164,0,2.333,0.3,3.473,0.892c0.603,0.313,1.311,0.371,1.954,0.159c0.645-0.212,1.18-0.679,1.481-1.284
	c3.019-6.105,9.104-9.896,15.884-9.896c9.775,0,17.729,7.954,17.729,17.658c-0.005,0.063-0.012,0.239-0.012,0.3
	c0,0.748,0.329,1.453,0.897,1.935c0.571,0.484,1.323,0.69,2.059,0.563c0.769-0.132,1.462-0.196,2.121-0.196
	c6.982,0,12.663,5.682,12.663,12.664s-5.681,12.663-12.663,12.663H150.556z M175.881,173.597c0-1.399,1.138-2.533,2.534-2.533
	h60.781c1.396,0,2.534,1.134,2.534,2.533v43.055h-65.849V173.597z M244.262,226.78h-70.913c-3.303,0-6.12-2.117-7.165-5.065h85.242
	C250.38,224.663,247.563,226.78,244.262,226.78L244.262,226.78z M244.262,226.78"/>
<path d="M142.958,173.597h-25.326c-1.397,0-2.532,1.132-2.532,2.532v10.131c0,1.4,1.135,2.533,2.532,2.533h25.326
	c1.397,0,2.531-1.133,2.531-2.533v-10.131C145.489,174.729,144.355,173.597,142.958,173.597L142.958,173.597z M140.426,183.728
	h-20.263v-5.065h20.263V183.728z M140.426,183.728"/>
<path d="M208.805,176.129h-25.326c-1.397,0-2.532,1.133-2.532,2.533v30.391c0,1.4,1.135,2.533,2.532,2.533h25.326
	c1.399,0,2.534-1.133,2.534-2.533v-30.391C211.338,177.262,210.204,176.129,208.805,176.129L208.805,176.129z M206.273,206.521
	h-20.261v-25.326h20.261V206.521z M206.273,206.521"/>
<rect x="115.1" y="193.858" width="30.391" height="5.065"/>
<rect x="216.404" y="176.129" width="20.26" height="5.065"/>
<rect x="216.404" y="186.26" width="20.26" height="5.065"/>
<rect x="216.404" y="196.389" width="20.26" height="5.066"/>
<rect x="216.404" y="206.521" width="20.26" height="5.065"/>
<rect x="115.1" y="203.989" width="30.391" height="5.063"/>
<path fill="none" stroke="#010101" stroke-width="5" stroke-linecap="square" stroke-linejoin="round" stroke-dasharray="0,12" d="
	M4.744,205.252C-10.594,109.846,54.325,20.082,149.738,4.739c95.406-15.321,185.176,49.595,200.497,145.008
	c15.339,95.395-49.573,185.174-144.987,200.51C109.84,365.587,20.073,300.663,4.744,205.252z"/>
<path stroke="#FFFFFF" d="M342.005,114.303c0,3.58-2.912,6.492-6.49,6.492v4.328c3.578,0,6.49,2.91,6.49,6.49h4.328
	c0-3.58,2.911-6.49,6.492-6.49v-4.328c-3.581,0-6.492-2.912-6.492-6.492H342.005L342.005,114.303z M344.169,125.188
	c-0.632-0.85-1.381-1.596-2.23-2.23c0.85-0.631,1.599-1.379,2.23-2.23c0.633,0.852,1.381,1.6,2.231,2.23
	C345.55,123.592,344.802,124.338,344.169,125.188L344.169,125.188z M344.169,125.188"/>
<path stroke="#FFFFFF" d="M214.742,339.369c0,3.362-2.739,6.104-6.103,6.104v4.066c3.363,0,6.103,2.737,6.103,6.104h4.067
	c0-3.366,2.739-6.104,6.104-6.104v-4.066c-3.364,0-6.104-2.741-6.104-6.104H214.742L214.742,339.369z M216.776,349.602
	c-0.594-0.798-1.299-1.502-2.098-2.097c0.799-0.593,1.504-1.297,2.098-2.097c0.594,0.8,1.297,1.504,2.098,2.097
	C218.073,348.1,217.37,348.804,216.776,349.602L216.776,349.602z M216.776,349.602"/>
<path d="M247.775,187.969c-18.695,0-33.905,15.209-33.905,33.903c0,12.07,3.67,16.907,21.313,40.166
	c3.063,4.037,6.533,8.612,10.505,13.907c0.492,0.656,1.265,1.043,2.086,1.043c0.821,0,1.593-0.387,2.086-1.043
	c3.948-5.267,7.405-9.826,10.454-13.848c17.684-23.323,21.365-28.178,21.365-40.226C281.679,203.178,266.47,187.969,247.775,187.969
	L247.775,187.969z M256.158,258.947c-2.504,3.303-5.282,6.968-8.384,11.092c-3.122-4.15-5.916-7.834-8.435-11.154
	c-17.16-22.623-20.252-26.697-20.252-37.013c0-15.818,12.87-28.688,28.688-28.688s28.688,12.869,28.688,28.688
	C276.462,232.166,273.362,236.254,256.158,258.947L256.158,258.947z M256.158,258.947"/>
<path d="M247.775,203.616c-10.068,0-18.256,8.188-18.256,18.256c0,10.065,8.188,18.256,18.256,18.256
	c10.066,0,18.256-8.19,18.256-18.256C266.031,211.805,257.841,203.616,247.775,203.616L247.775,203.616z M247.775,234.912
	c-7.191,0-13.04-5.849-13.04-13.04s5.849-13.039,13.04-13.039c7.19,0,13.04,5.848,13.04,13.039S254.965,234.912,247.775,234.912
	L247.775,234.912z M247.775,234.912"/>
<path fill="#FFFFFF" d="M247.775,192.75c-15.819,0-28.688,12.869-28.688,28.687c0,10.315,3.092,14.392,20.252,37.014
	c2.519,3.32,5.313,7.004,8.435,11.154c3.103-4.124,5.88-7.789,8.384-11.091c17.205-22.692,20.305-26.781,20.305-37.077
	C276.462,205.619,263.594,192.75,247.775,192.75z M247.775,239.693c-10.068,0-18.256-8.19-18.256-18.257
	c0-10.065,8.188-18.255,18.256-18.255c10.066,0,18.256,8.189,18.256,18.255C266.031,231.503,257.841,239.693,247.775,239.693z"/>
<path fill="#FFFFFF" d="M247.775,208.397c-7.191,0-13.04,5.849-13.04,13.039c0,7.192,5.849,13.042,13.04,13.042
	c7.19,0,13.04-5.85,13.04-13.042C260.814,214.246,254.965,208.397,247.775,208.397z"/>
<rect x="31.388" y="262.017" width="4.442" height="4.443"/>
<rect x="40.273" y="262.017" width="4.443" height="4.443"/>
<rect x="31.388" y="253.13" width="4.442" height="4.443"/>
<rect x="40.273" y="253.13" width="4.443" height="4.443"/>
<rect x="49.161" y="262.017" width="4.444" height="4.443"/>
<rect x="49.161" y="253.13" width="4.444" height="4.443"/>
<rect x="58.046" y="262.017" width="4.444" height="4.443"/>
<rect x="58.046" y="253.13" width="4.444" height="4.443"/>
<rect x="66.934" y="262.017" width="4.443" height="4.443"/>
<rect x="66.934" y="253.13" width="4.443" height="4.443"/>
<rect x="31.388" y="288.677" width="4.442" height="4.442"/>
<rect x="40.273" y="288.677" width="4.443" height="4.442"/>
<rect x="31.388" y="279.789" width="4.442" height="4.443"/>
<rect x="40.273" y="279.789" width="4.443" height="4.443"/>
<rect x="49.161" y="288.677" width="4.444" height="4.442"/>
<rect x="49.161" y="279.789" width="4.444" height="4.443"/>
<rect x="58.046" y="288.677" width="4.444" height="4.442"/>
<rect x="58.046" y="279.789" width="4.444" height="4.443"/>
<rect x="66.934" y="288.677" width="4.443" height="4.442"/>
<g>
	<defs>
		<rect id="SVGID_6_" x="22.501" y="224.249" width="115.593" height="133.297"/>
	</defs>
	<clipPath id="SVGID_8_">
		<use xlink:href="#SVGID_6_"  overflow="visible"/>
	</clipPath>
	<rect x="66.934" y="279.789" clip-path="url(#SVGID_8_)" width="4.443" height="4.443"/>
	<path clip-path="url(#SVGID_8_)" d="M137.855,334.479c-0.341-0.83-1.155-1.369-2.053-1.369h-6.665v-93.309
		c0-8.573-6.978-15.552-15.551-15.552h-13.329c-8.573,0-15.552,6.979-15.552,15.552v4.443h-55.54c-3.675,0-6.665,2.99-6.665,6.664
		v17.772c0,1.714,0.668,3.263,1.732,4.444c-1.064,1.181-1.732,2.729-1.732,4.443v17.773c0,1.712,0.668,3.26,1.732,4.443
		c-1.064,1.181-1.732,2.729-1.732,4.441V322c0,3.675,2.989,6.666,6.665,6.666h73.313v4.443h-6.665c-0.898,0-1.71,0.539-2.053,1.369
		c-0.344,0.831-0.153,1.787,0.483,2.422l19.994,19.994c0.434,0.433,1.001,0.651,1.571,0.651c0.568,0,1.138-0.219,1.57-0.651
		l19.995-19.994C138.009,336.266,138.2,335.31,137.855,334.479L137.855,334.479z M26.945,250.908c0-1.227,0.996-2.222,2.221-2.222
		h73.313v4.443H84.706c-1.229,0-2.221,0.994-2.221,2.222v8.887c0,1.229,0.993,2.222,2.221,2.222h17.773v4.442H29.166
		c-1.226,0-2.221-0.995-2.221-2.222V250.908z M98.036,244.244v-4.443c0-1.228,0.996-2.223,2.222-2.223
		c1.226,0,2.221,0.995,2.221,2.223v4.443H98.036z M102.479,257.573v4.443H86.928v-4.443H102.479z M26.945,277.568
		c0-1.228,0.996-2.223,2.221-2.223h73.313v4.443H84.706c-1.229,0-2.221,0.992-2.221,2.222v8.887c0,1.229,0.993,2.222,2.221,2.222
		h17.773v4.442H29.166c-1.226,0-2.221-0.995-2.221-2.22V277.568z M102.479,284.232v4.444H86.928v-4.444H102.479z M29.166,324.222
		c-1.226,0-2.221-0.995-2.221-2.222v-17.773c0-1.225,0.996-2.221,2.221-2.221h73.313v4.442H84.706c-1.229,0-2.221,0.993-2.221,2.222
		v8.887c0,1.229,0.993,2.222,2.221,2.222h17.773v4.443H29.166z M102.479,310.893v4.441H86.928v-4.441H102.479z M115.809,352.184
		l-14.632-14.633h3.524c1.229,0,2.221-0.993,2.221-2.221v-95.529c0-3.676-2.99-6.665-6.665-6.665s-6.665,2.989-6.665,6.665v4.443
		h-4.443v-4.443c0-6.125,4.983-11.108,11.108-11.108h13.329c6.125,0,11.108,4.983,11.108,11.108v95.529
		c0,1.228,0.994,2.221,2.223,2.221h3.522L115.809,352.184z M115.809,352.184"/>
</g>
<rect x="31.388" y="315.334" width="4.442" height="4.444"/>
<rect x="40.273" y="315.334" width="4.443" height="4.444"/>
<rect x="31.388" y="306.448" width="4.442" height="4.444"/>
<rect x="40.273" y="306.448" width="4.443" height="4.444"/>
<rect x="49.161" y="315.334" width="4.444" height="4.444"/>
<rect x="49.161" y="306.448" width="4.444" height="4.444"/>
<rect x="58.046" y="315.334" width="4.444" height="4.444"/>
<rect x="58.046" y="306.448" width="4.444" height="4.444"/>
<rect x="66.934" y="315.334" width="4.443" height="4.444"/>
<rect x="66.934" y="306.448" width="4.443" height="4.444"/>
<rect x="115.809" y="324.222" width="4.443" height="4.444"/>
<rect x="115.809" y="315.334" width="4.443" height="4.444"/>
<rect x="115.809" y="306.448" width="4.443" height="4.444"/>
<path fill="#FFFFFF" d="M29.166,270.902h73.313v-4.442H84.706c-1.229,0-2.221-0.993-2.221-2.222v-8.887
	c0-1.228,0.993-2.222,2.221-2.222h17.773v-4.443H29.166c-1.226,0-2.221,0.995-2.221,2.222v17.772
	C26.945,269.907,27.94,270.902,29.166,270.902z M66.934,253.13h4.443v4.443h-4.443V253.13z M66.934,262.017h4.443v4.443h-4.443
	V262.017z M58.046,253.13h4.444v4.443h-4.444V253.13z M58.046,262.017h4.444v4.443h-4.444V262.017z M49.161,253.13h4.444v4.443
	h-4.444V253.13z M49.161,262.017h4.444v4.443h-4.444V262.017z M40.273,253.13h4.443v4.443h-4.443V253.13z M40.273,262.017h4.443
	v4.443h-4.443V262.017z M31.388,253.13h4.442v4.443h-4.442V253.13z M31.388,262.017h4.442v4.443h-4.442V262.017z"/>
<path fill="#FFFFFF" d="M29.166,297.562h73.313v-4.442H84.706c-1.229,0-2.221-0.993-2.221-2.222v-8.887
	c0-1.229,0.993-2.222,2.221-2.222h17.773v-4.443H29.166c-1.226,0-2.221,0.995-2.221,2.223v17.773
	C26.945,296.566,27.94,297.562,29.166,297.562z M66.934,279.789h4.443v4.443h-4.443V279.789z M66.934,288.677h4.443v4.442h-4.443
	V288.677z M58.046,279.789h4.444v4.443h-4.444V279.789z M58.046,288.677h4.444v4.442h-4.444V288.677z M49.161,279.789h4.444v4.443
	h-4.444V279.789z M49.161,288.677h4.444v4.442h-4.444V288.677z M40.273,279.789h4.443v4.443h-4.443V279.789z M40.273,288.677h4.443
	v4.442h-4.443V288.677z M31.388,279.789h4.442v4.443h-4.442V279.789z M31.388,288.677h4.442v4.442h-4.442V288.677z"/>
<path fill="#FFFFFF" d="M102.479,319.778H84.706c-1.229,0-2.221-0.993-2.221-2.222v-8.887c0-1.229,0.993-2.222,2.221-2.222h17.773
	v-4.442H29.166c-1.226,0-2.221,0.996-2.221,2.221V322c0,1.227,0.996,2.222,2.221,2.222h73.313V319.778z M35.831,319.778h-4.442
	v-4.444h4.442V319.778z M35.831,310.893h-4.442v-4.444h4.442V310.893z M44.717,319.778h-4.443v-4.444h4.443V319.778z
	 M44.717,310.893h-4.443v-4.444h4.443V310.893z M53.604,319.778h-4.444v-4.444h4.444V319.778z M53.604,310.893h-4.444v-4.444h4.444
	V310.893z M62.49,319.778h-4.444v-4.444h4.444V319.778z M62.49,310.893h-4.444v-4.444h4.444V310.893z M71.377,319.778h-4.443v-4.444
	h4.443V319.778z M71.377,310.893h-4.443v-4.444h4.443V310.893z"/>
<rect x="86.928" y="284.232" fill="#FFFFFF" width="15.551" height="4.444"/>
<rect x="86.928" y="257.573" fill="#FFFFFF" width="15.551" height="4.443"/>
<path fill="#FFFFFF" d="M102.479,239.801c0-1.228-0.996-2.223-2.221-2.223c-1.226,0-2.222,0.995-2.222,2.223v4.443h4.443V239.801z"
	/>
<rect x="86.928" y="310.893" fill="#FFFFFF" width="15.551" height="4.441"/>
<path fill="#FFFFFF" d="M126.917,337.551c-1.229,0-2.223-0.993-2.223-2.221v-95.529c0-6.125-4.983-11.108-11.108-11.108h-13.329
	c-6.125,0-11.108,4.983-11.108,11.108v4.443h4.443v-4.443c0-3.676,2.99-6.665,6.665-6.665s6.665,2.989,6.665,6.665v95.529
	c0,1.228-0.993,2.221-2.221,2.221h-3.524l14.632,14.633l14.631-14.633H126.917z M120.252,328.666h-4.443v-4.444h4.443V328.666z
	 M120.252,319.778h-4.443v-4.444h4.443V319.778z M120.252,310.893h-4.443v-4.444h4.443V310.893z"/>
</svg>
