<?xml version="1.0" encoding="utf-8"?>
<!-- Generator: Adobe Illustrator 15.1.0, SVG Export Plug-In  -->
<!DOCTYPE svg PUBLIC "-//W3C//DTD SVG 1.1//EN" "http://www.w3.org/Graphics/SVG/1.1/DTD/svg11.dtd" [
	<!ENTITY ns_flows "http://ns.adobe.com/Flows/1.0/">
]>
<svg version="1.1"
	 xmlns="http://www.w3.org/2000/svg" xmlns:xlink="http://www.w3.org/1999/xlink" xmlns:a="http://ns.adobe.com/AdobeSVGViewerExtensions/3.0/"
	 x="0px" y="0px" width="500px" height="500px" viewBox="-72.271 -72.911 500 500" enable-background="new -72.271 -72.911 500 500"
	 xml:space="preserve">
<defs>
</defs>
<path fill="none" stroke="#010101" stroke-width="5" stroke-linecap="square" stroke-linejoin="round" stroke-dasharray="0,12" d="
	M5.232,204.233c-15.26-94.927,49.33-184.238,144.264-199.505c94.928-15.244,184.244,49.346,199.49,144.279
	c15.262,94.915-49.324,184.242-144.26,199.502C109.801,363.763,20.484,299.165,5.232,204.233z"/>
<rect x="197.432" y="124.559" width="2.995" height="2.996"/>
<rect x="191.443" y="124.559" width="2.994" height="2.996"/>
<rect x="185.455" y="124.559" width="2.994" height="2.996"/>
<path d="M254.327,139.532h-4.492v-28.448c0-4.127-3.358-7.486-7.485-7.486h-35.133l-5.545-8.316
	c-0.277-0.416-0.745-0.666-1.245-0.666h-20.962c-0.5,0-0.967,0.25-1.246,0.666l-5.601,8.402c-3.721,0.434-6.628,3.567-6.628,7.4
	v50.906c0,4.128,3.358,7.486,7.486,7.486h47.933c3.244,6.044,8.104,11.212,14.196,14.768c0.232,0.137,0.494,0.204,0.754,0.204
	c0.261,0,0.524-0.067,0.756-0.204c11.539-6.732,18.709-19.215,18.709-32.573v-10.642C255.824,140.2,255.155,139.532,254.327,139.532
	L254.327,139.532z M180.266,97.609h19.359l3.994,5.988h-27.346L180.266,97.609z M173.477,106.593h68.873
	c2.475,0,4.49,2.015,4.49,4.491v5.988h-29.225l-5.537-6.925c-0.286-0.354-0.717-0.56-1.17-0.56H169.26
	C169.881,107.85,171.527,106.593,173.477,106.593L173.477,106.593z M173.477,166.482c-2.477,0-4.492-2.015-4.492-4.492v-49.408
	h41.205l5.537,6.924c0.284,0.355,0.715,0.563,1.171,0.563h29.942v19.464h-28.447c-0.826,0-1.495,0.668-1.495,1.497v10.642
	c0,0.742,0.028,1.489,0.074,2.231c0.015,0.25,0.036,0.498,0.057,0.749c0.04,0.497,0.091,0.992,0.149,1.488
	c0.033,0.28,0.067,0.558,0.107,0.837c0.076,0.527,0.167,1.055,0.266,1.58c0.037,0.205,0.068,0.408,0.109,0.611
	c0.143,0.708,0.313,1.41,0.496,2.109c0.053,0.198,0.113,0.393,0.169,0.588c0.155,0.554,0.321,1.102,0.503,1.646
	c0.059,0.178,0.119,0.355,0.18,0.533c0.228,0.65,0.469,1.292,0.729,1.928c0.016,0.045,0.032,0.089,0.054,0.133
	c0.049,0.128,0.095,0.254,0.146,0.377H173.477z M252.828,151.671c0,12.006-6.285,23.239-16.469,29.534
	c-5.682-3.512-10.146-8.564-12.988-14.431c-0.063-0.129-0.121-0.26-0.18-0.389c-0.234-0.498-0.457-1.002-0.668-1.513
	c-0.078-0.189-0.154-0.383-0.229-0.574c-0.173-0.443-0.339-0.891-0.493-1.342c-0.091-0.256-0.177-0.513-0.259-0.771
	c-0.124-0.392-0.24-0.785-0.35-1.181c-0.087-0.309-0.174-0.617-0.252-0.927c-0.088-0.357-0.168-0.717-0.244-1.078
	c-0.074-0.338-0.15-0.676-0.212-1.016c-0.065-0.357-0.119-0.717-0.177-1.075c-0.051-0.339-0.105-0.676-0.148-1.016
	c-0.053-0.409-0.088-0.823-0.122-1.237c-0.026-0.287-0.061-0.574-0.078-0.863c-0.044-0.703-0.069-1.412-0.069-2.122v-9.145h32.938
	V151.671z M252.828,151.671"/>
<path d="M245.781,153.445l-10.918,10.92l-4.932-4.932l-2.117,2.118l5.99,5.989c0.292,0.292,0.674,0.438,1.059,0.438
	c0.384,0,0.766-0.146,1.059-0.438l11.978-11.979L245.781,153.445z M245.781,153.445"/>
<rect x="222.885" y="145.521" width="2.996" height="2.995"/>
<rect x="228.874" y="145.521" width="2.995" height="2.995"/>
<rect x="234.863" y="145.521" width="2.994" height="2.995"/>
<rect x="240.852" y="145.521" width="2.994" height="2.995"/>
<rect x="246.84" y="145.521" width="2.995" height="2.995"/>
<path d="M192.941,115.576c-10.916,0-19.465,4.604-19.465,10.479v26.951c0,5.877,8.549,10.48,19.465,10.48
	c10.912,0,19.462-4.604,19.462-10.48v-26.951C212.403,120.181,203.854,115.576,192.941,115.576L192.941,115.576z M209.41,153.007
	c0,3.541-6.765,7.487-16.469,7.487c-9.707,0-16.471-3.946-16.471-7.487v-3.342c3.418,2.925,9.445,4.839,16.471,4.839
	c7.021,0,13.052-1.914,16.469-4.839V153.007z M209.41,144.023c0,3.542-6.765,7.485-16.469,7.485c-9.707,0-16.471-3.943-16.471-7.485
	v-3.342c3.418,2.926,9.445,4.839,16.471,4.839c7.021,0,13.052-1.913,16.469-4.839V144.023z M209.41,135.04
	c0,3.54-6.765,7.486-16.469,7.486c-9.707,0-16.471-3.946-16.471-7.486v-3.341c3.418,2.925,9.445,4.838,16.471,4.838
	c7.021,0,13.052-1.913,16.469-4.838V135.04z M192.941,133.543c-9.707,0-16.471-3.945-16.471-7.487c0-3.539,6.764-7.486,16.471-7.486
	c9.704,0,16.469,3.947,16.469,7.486C209.41,129.598,202.646,133.543,192.941,133.543L192.941,133.543z M192.941,133.543"/>
<path stroke="#FFFFFF" d="M340.686,119.405c0,3.58-2.912,6.492-6.49,6.492v4.328c3.578,0,6.49,2.91,6.49,6.49h4.328
	c0-3.58,2.911-6.49,6.492-6.49v-4.328c-3.581,0-6.492-2.912-6.492-6.492H340.686L340.686,119.405z M342.85,130.29
	c-0.632-0.85-1.381-1.596-2.23-2.23c0.85-0.631,1.599-1.379,2.23-2.23c0.633,0.852,1.381,1.6,2.231,2.23
	C344.23,128.694,343.482,129.44,342.85,130.29L342.85,130.29z M342.85,130.29"/>
<path stroke="#FFFFFF" stroke-width="2" d="M10.6,106.678c0,5.293-4.311,9.6-9.6,9.6v6.403c5.289,0,9.6,4.308,9.6,9.601H17
	c0-5.293,4.307-9.601,9.602-9.601v-6.403c-5.295,0-9.602-4.307-9.602-9.6H10.6L10.6,106.678z M13.801,122.779
	c-0.936-1.258-2.041-2.367-3.297-3.3c1.256-0.935,2.361-2.042,3.297-3.3c0.936,1.258,2.041,2.365,3.299,3.3
	C15.842,120.412,14.736,121.521,13.801,122.779L13.801,122.779z M13.801,122.779"/>
<path stroke="#FFFFFF" d="M261.132,318.859c0,3.362-2.739,6.104-6.103,6.104v4.066c3.363,0,6.103,2.737,6.103,6.104h4.067
	c0-3.366,2.739-6.104,6.104-6.104v-4.066c-3.364,0-6.104-2.741-6.104-6.104H261.132L261.132,318.859z M263.166,329.092
	c-0.594-0.798-1.299-1.502-2.098-2.097c0.799-0.593,1.504-1.297,2.098-2.097c0.594,0.8,1.297,1.504,2.098,2.097
	C264.463,327.59,263.76,328.294,263.166,329.092L263.166,329.092z M263.166,329.092"/>
<path fill="#FFFFFF" d="M235.23,202.95h-0.132c-1.185-10.671-10.255-18.992-21.235-18.992c-7.43,0-14.169,3.773-18.065,9.986
	c-1.079-0.327-2.184-0.491-3.298-0.491c-5.806,0-10.65,4.188-11.674,9.7c-0.85-0.136-1.709-0.203-2.57-0.203
	c-9.165,0-16.619,7.452-16.619,16.617c0,9.162,7.454,16.617,16.619,16.617h26.114h4.745h26.115c9.162,0,16.616-7.455,16.616-16.617
	C251.847,210.402,244.393,202.95,235.23,202.95z"/>
<path d="M208.26,236.083h26.113c9.164,0,16.617-7.454,16.617-16.616c0-9.164-7.453-16.618-16.617-16.618h-0.129
	c-1.187-10.67-10.257-18.992-21.236-18.992c-7.432,0-14.169,3.775-18.065,9.988c-1.08-0.328-2.184-0.492-3.3-0.492
	c-5.804,0-10.65,4.188-11.672,9.698c-0.852-0.133-1.711-0.202-2.572-0.202c-9.163,0-16.617,7.454-16.617,16.618
	c0,9.162,7.454,16.616,16.617,16.616h26.115 M177.398,231.335c-6.545,0-11.869-5.323-11.869-11.868s5.324-11.872,11.869-11.872
	c1.356,0,2.711,0.243,4.026,0.721c0.764,0.278,1.618,0.143,2.261-0.355c0.643-0.494,0.986-1.285,0.91-2.094l-0.076-0.643
	c0-3.927,3.197-7.124,7.123-7.124c1.094,0,2.19,0.281,3.254,0.833c0.566,0.294,1.23,0.349,1.834,0.15
	c0.604-0.2,1.104-0.633,1.388-1.203c2.829-5.722,8.534-9.273,14.89-9.273c9.161,0,16.617,7.451,16.617,16.551
	c-0.004,0.059-0.012,0.223-0.012,0.281c0,0.697,0.309,1.362,0.842,1.813c0.535,0.449,1.233,0.643,1.931,0.529
	c0.72-0.123,1.37-0.186,1.987-0.186c6.544,0,11.87,5.327,11.87,11.872s-5.326,11.868-11.87,11.868H177.398z M243.867,271.69"/>
<rect x="231.998" y="212.345" width="4.748" height="4.747"/>
<rect x="231.998" y="221.84" width="4.748" height="4.747"/>
<rect x="222.503" y="221.84" width="4.749" height="4.747"/>
<path d="M187.48,147.02c-1.936-14.31-16.728-25.272-34.576-25.272c-14.03,0-26.674,6.921-32.073,17.386
	c-0.127-0.005-0.257-0.007-0.387-0.007c-13.238,0-24.011,8.859-24.011,19.754v47.402c0,10.89,10.772,19.749,24.011,19.749h60.592
	c10.853,0,19.683-7.301,19.683-16.273v-47.402C200.719,155.37,195.357,149.259,187.48,147.02L187.48,147.02z M195.978,209.759
	c0,6.359-6.702,11.532-14.941,11.532h-60.592c-10.626,0-19.271-6.733-19.271-15.009v-12.036c4.377,4.877,11.354,8.084,19.271,8.084
	h60.592c6.009,0,11.329-2.284,14.941-5.804V209.759z M195.978,186.056c0,6.361-6.702,11.534-14.941,11.534h-60.592
	c-10.626,0-19.271-6.733-19.271-15.009v-12.037c4.377,4.878,11.354,8.086,19.271,8.086h60.592c6.009,0,11.329-2.286,14.941-5.807
	V186.056z M181.036,173.89h-60.592c-10.626,0-19.271-6.733-19.271-15.01c0-8.279,8.646-15.013,19.271-15.013
	c0.353,0,0.696,0.034,1.042,0.066l0.617,0.05c1.051,0.08,1.945-0.496,2.343-1.421c4.171-9.614,15.606-16.076,28.458-16.076
	c16.069,0,29.257,9.917,30.016,22.576c0.064,1.071,0.84,1.968,1.89,2.181c6.576,1.34,11.168,5.908,11.168,11.112
	C195.978,168.717,189.275,173.89,181.036,173.89L181.036,173.89z M181.036,173.89"/>
<path d="M113.024,180.999c-1.31,0-2.37,1.061-2.37,2.371v4.74c0,1.31,1.061,2.369,2.37,2.369c1.309,0,2.37-1.06,2.37-2.369v-4.74
	C115.395,182.06,114.333,180.999,113.024,180.999L113.024,180.999z M113.024,180.999"/>
<path d="M122.505,183.37c-1.312,0-2.371,1.06-2.371,2.367v4.742c0,1.31,1.06,2.37,2.371,2.37c1.311,0,2.37-1.061,2.37-2.37v-4.742
	C124.875,184.43,123.815,183.37,122.505,183.37L122.505,183.37z M122.505,183.37"/>
<path d="M131.985,183.37c-1.311,0-2.371,1.06-2.371,2.367v4.742c0,1.31,1.061,2.37,2.371,2.37c1.31,0,2.37-1.061,2.37-2.37v-4.742
	C134.355,184.43,133.295,183.37,131.985,183.37L131.985,183.37z M131.985,183.37"/>
<path d="M186.498,188.11c0,2.615-2.122,4.739-4.74,4.739s-4.74-2.124-4.74-4.739c0-2.618,2.122-4.74,4.74-4.74
	S186.498,185.492,186.498,188.11L186.498,188.11z M186.498,188.11"/>
<path d="M172.277,188.11c0,2.615-2.123,4.739-4.74,4.739s-4.74-2.124-4.74-4.739c0-2.618,2.123-4.74,4.74-4.74
	S172.277,185.492,172.277,188.11L172.277,188.11z M172.277,188.11"/>
<path d="M113.024,204.7c-1.31,0-2.37,1.061-2.37,2.37v4.74c0,1.31,1.061,2.369,2.37,2.369c1.309,0,2.37-1.06,2.37-2.369v-4.74
	C115.395,205.761,114.333,204.7,113.024,204.7L113.024,204.7z M113.024,204.7"/>
<path d="M122.505,207.07c-1.312,0-2.371,1.062-2.371,2.371v4.738c0,1.312,1.06,2.371,2.371,2.371c1.311,0,2.37-1.06,2.37-2.371
	v-4.738C124.875,208.132,123.815,207.07,122.505,207.07L122.505,207.07z M122.505,207.07"/>
<path d="M131.985,207.07c-1.311,0-2.371,1.062-2.371,2.371v4.738c0,1.312,1.061,2.371,2.371,2.371c1.31,0,2.37-1.06,2.37-2.371
	v-4.738C134.355,208.132,133.295,207.07,131.985,207.07L131.985,207.07z M131.985,207.07"/>
<path d="M186.498,211.811c0,2.619-2.122,4.74-4.74,4.74s-4.74-2.121-4.74-4.74c0-2.617,2.122-4.74,4.74-4.74
	S186.498,209.193,186.498,211.811L186.498,211.811z M186.498,211.811"/>
<path d="M172.277,211.811c0,2.619-2.123,4.74-4.74,4.74s-4.74-2.121-4.74-4.74c0-2.617,2.123-4.74,4.74-4.74
	S172.277,209.193,172.277,211.811L172.277,211.811z M172.277,211.811"/>
<path fill="#FFFFFF" d="M120.539,178.63c-7.918,0-14.895-3.207-19.271-8.085v12.036c0,8.277,8.645,15.01,19.271,15.01h60.592
	c8.24,0,14.942-5.173,14.942-11.535v-13.231c-3.613,3.521-8.933,5.806-14.942,5.806H120.539z M115.49,188.111
	c0,1.309-1.062,2.368-2.371,2.368c-1.309,0-2.371-1.06-2.371-2.368v-4.741c0-1.31,1.063-2.371,2.371-2.371
	c1.31,0,2.371,1.062,2.371,2.371V188.111z M124.97,190.479c0,1.31-1.061,2.37-2.37,2.37c-1.311,0-2.369-1.061-2.369-2.37v-4.74
	c0-1.31,1.059-2.369,2.369-2.369c1.31,0,2.37,1.06,2.37,2.369V190.479z M134.45,190.479c0,1.31-1.06,2.37-2.369,2.37
	s-2.371-1.061-2.371-2.37v-4.74c0-1.31,1.062-2.369,2.371-2.369s2.369,1.06,2.369,2.369V190.479z M167.633,192.85
	c-2.617,0-4.741-2.122-4.741-4.738c0-2.619,2.124-4.741,4.741-4.741c2.616,0,4.74,2.122,4.74,4.741
	C172.373,190.728,170.249,192.85,167.633,192.85z M186.593,188.111c0,2.616-2.122,4.738-4.739,4.738
	c-2.619,0-4.741-2.122-4.741-4.738c0-2.619,2.122-4.741,4.741-4.741C184.471,183.37,186.593,185.492,186.593,188.111z"/>
<path fill="#FFFFFF" d="M184.905,151.245c-1.05-0.213-1.826-1.109-1.891-2.183c-0.759-12.659-13.945-22.575-30.015-22.575
	c-12.85,0-24.287,6.461-28.458,16.076c-0.397,0.924-1.292,1.5-2.345,1.422l-0.615-0.052c-0.347-0.031-0.69-0.066-1.043-0.066
	c-10.626,0-19.271,6.735-19.271,15.013s8.645,15.011,19.271,15.011h60.592c8.24,0,14.942-5.174,14.942-11.534
	C196.073,157.151,191.48,152.584,184.905,151.245z"/>
<path fill="#FFFFFF" d="M120.539,202.331c-7.918,0-14.895-3.207-19.271-8.085v12.036c0,8.275,8.645,15.01,19.271,15.01h60.592
	c8.24,0,14.942-5.174,14.942-11.533v-13.231c-3.613,3.519-8.933,5.804-14.942,5.804H120.539z M115.49,211.812
	c0,1.31-1.062,2.37-2.371,2.37c-1.309,0-2.371-1.061-2.371-2.37v-4.74c0-1.311,1.063-2.371,2.371-2.371
	c1.31,0,2.371,1.061,2.371,2.371V211.812z M124.97,214.182c0,1.31-1.061,2.37-2.37,2.37c-1.311,0-2.369-1.061-2.369-2.37v-4.74
	c0-1.309,1.059-2.37,2.369-2.37c1.31,0,2.37,1.062,2.37,2.37V214.182z M134.45,214.182c0,1.31-1.06,2.37-2.369,2.37
	s-2.371-1.061-2.371-2.37v-4.74c0-1.309,1.062-2.37,2.371-2.37s2.369,1.062,2.369,2.37V214.182z M167.633,216.552
	c-2.617,0-4.741-2.122-4.741-4.74c0-2.617,2.124-4.74,4.741-4.74c2.616,0,4.74,2.123,4.74,4.74
	C172.373,214.43,170.249,216.552,167.633,216.552z M186.593,211.812c0,2.618-2.122,4.74-4.739,4.74c-2.619,0-4.741-2.122-4.741-4.74
	c0-2.617,2.122-4.74,4.741-4.74C184.471,207.071,186.593,209.194,186.593,211.812z"/>
<circle fill="#FFFFFF" cx="50.474" cy="278.813" r="44.73"/>
<path d="M52.658,271.275v-23h-3.789v23c-3.259,0.845-5.682,3.784-5.682,7.307c0,0.582,0.079,1.145,0.208,1.69l-18.16,9.903
	l1.812,3.325l18.107-9.873c1.386,1.542,3.377,2.53,5.611,2.53c4.177,0,7.575-3.399,7.575-7.576
	C58.341,275.06,55.917,272.12,52.658,271.275L52.658,271.275z M50.766,282.369c-2.091,0-3.789-1.699-3.789-3.787
	c0-2.09,1.698-3.788,3.789-3.788c2.088,0,3.786,1.698,3.786,3.788C54.552,280.67,52.854,282.369,50.766,282.369L50.766,282.369z
	 M50.766,282.369"/>
<path d="M106.479,293.735l13.26-13.261H88.596c0.032-0.639,0.053-1.273,0.053-1.893c0-20.891-16.995-37.883-37.883-37.883
	c-20.89,0-37.884,16.992-37.884,37.883c0,20.888,16.994,37.882,37.884,37.882c11.015,0,21.27-4.741,28.41-12.89v17.462
	l13.259-13.258l15.153,15.153l14.044-14.045L106.479,293.735z M79.176,297.357c-6.354,9.597-16.927,15.318-28.41,15.318
	c-18.802,0-34.096-15.296-34.096-34.094c0-18.801,15.294-34.097,34.096-34.097c18.798,0,34.093,15.296,34.093,34.097
	c0,0.611-0.065,1.258-0.102,1.893h-5.581V297.357z M92.435,302.421l-9.471,9.471v-27.629h27.629l-9.471,9.473l15.152,15.151
	l-8.687,8.688L92.435,302.421z M92.435,302.421"/>
<rect x="90.542" y="265.322" width="3.787" height="7.577"/>
<path d="M76.364,280.342l-5.357-5.357l2.679-2.678l5.356,5.357L76.364,280.342z M76.364,280.342"/>
<rect x="64.022" y="291.839" width="7.578" height="3.788"/>
<path d="M73.681,315.158l-2.678-2.68l5.355-5.357l2.68,2.679L73.681,315.158z M73.681,315.158"/>
<rect x="90.542" y="314.568" width="3.787" height="7.578"/>
<rect x="113.272" y="291.839" width="7.575" height="3.788"/>
<path d="M111.182,272.309l2.679,2.679l-5.356,5.357l-2.679-2.679L111.182,272.309z M111.182,272.309"/>
<path d="M50.766,320.251c-22.979,0-41.673-18.693-41.673-41.669c0-22.979,18.693-41.673,41.673-41.673
	c16.741,0,31.797,9.96,38.357,25.368l3.484-1.484c-6.149-14.444-19.147-24.474-34.267-27.018v-7.36
	c2.318-2.081,3.789-5.09,3.789-8.446c0-6.268-5.098-11.366-11.364-11.366c-6.27,0-11.366,5.099-11.366,11.366
	c0,3.354,1.47,6.363,3.788,8.446v7.351c-21.47,3.619-37.882,22.332-37.882,44.816c0,25.064,20.393,45.459,45.46,45.459
	c6.912,0,13.563-1.527,19.766-4.528l-1.649-3.413C63.196,318.856,57.103,320.251,50.766,320.251L50.766,320.251z M54.552,233.289
	c-1.254-0.1-2.516-0.167-3.786-0.167c-1.278,0-2.54,0.067-3.789,0.17v-4.622c1.187,0.422,2.458,0.664,3.789,0.664
	c1.328,0,2.6-0.243,3.786-0.664V233.289z M50.766,210.393c4.177,0,7.575,3.398,7.575,7.576s-3.398,7.577-7.575,7.577
	c-4.18,0-7.578-3.399-7.578-7.577S46.586,210.393,50.766,210.393L50.766,210.393z M50.766,210.393"/>
</svg>
