<?xml version="1.0" encoding="utf-8"?>
<!-- Generator: Adobe Illustrator 15.1.0, SVG Export Plug-In  -->
<!DOCTYPE svg PUBLIC "-//W3C//DTD SVG 1.1//EN" "http://www.w3.org/Graphics/SVG/1.1/DTD/svg11.dtd" [
	<!ENTITY ns_flows "http://ns.adobe.com/Flows/1.0/">
]>
<svg version="1.1"
	 xmlns="http://www.w3.org/2000/svg" xmlns:xlink="http://www.w3.org/1999/xlink" xmlns:a="http://ns.adobe.com/AdobeSVGViewerExtensions/3.0/"
	 x="0px" y="0px" width="500px" height="500px" viewBox="-72.511 -85.024 500 500" enable-background="new -72.511 -85.024 500 500"
	 xml:space="preserve">
<defs>
</defs>
<path fill="none" stroke="#010101" stroke-width="5" stroke-linecap="square" stroke-linejoin="round" stroke-dasharray="0,12" d="
	M4.744,205.252C-10.593,109.846,54.323,20.082,149.736,4.739c95.407-15.321,185.176,49.595,200.498,145.008
	c15.339,95.395-49.573,185.174-144.988,200.51C109.841,365.587,20.073,300.663,4.744,205.252z"/>
<path stroke="#FFFFFF" stroke-width="2" d="M18.181,85.616c0,5.293-4.311,9.6-9.6,9.6v6.403c5.289,0,9.6,4.308,9.6,9.601h6.4
	c0-5.293,4.307-9.601,9.602-9.601v-6.403c-5.295,0-9.602-4.307-9.602-9.6H18.181L18.181,85.616z M21.381,101.718
	c-0.935-1.258-2.04-2.367-3.296-3.3c1.256-0.935,2.361-2.042,3.296-3.3c0.937,1.258,2.042,2.365,3.3,3.3
	C23.423,99.351,22.317,100.46,21.381,101.718L21.381,101.718z M21.381,101.718"/>
<path stroke="#FFFFFF" d="M338.718,123.677c0,3.58-2.912,6.492-6.49,6.492v4.328c3.578,0,6.49,2.91,6.49,6.49h4.328
	c0-3.58,2.911-6.49,6.492-6.49v-4.328c-3.581,0-6.492-2.912-6.492-6.492H338.718L338.718,123.677z M340.882,134.562
	c-0.632-0.85-1.381-1.596-2.23-2.23c0.85-0.631,1.599-1.379,2.23-2.23c0.633,0.852,1.381,1.6,2.232,2.23
	C342.263,132.966,341.515,133.712,340.882,134.562L340.882,134.562z M340.882,134.562"/>
<path stroke="#FFFFFF" d="M210.455,344.743c0,3.362-2.739,6.104-6.103,6.104v4.066c3.363,0,6.103,2.737,6.103,6.104h4.067
	c0-3.366,2.739-6.104,6.104-6.104v-4.066c-3.364,0-6.104-2.741-6.104-6.104H210.455L210.455,344.743z M212.489,354.976
	c-0.594-0.798-1.299-1.502-2.098-2.097c0.799-0.593,1.504-1.297,2.098-2.097c0.594,0.8,1.297,1.504,2.098,2.097
	C213.786,353.474,213.083,354.178,212.489,354.976L212.489,354.976z M212.489,354.976"/>
<rect x="173.364" y="189.831" width="3.925" height="3.925"/>
<rect x="122.347" y="119.19" width="5.887" height="3.926"/>
<rect x="132.158" y="119.19" width="5.886" height="3.926"/>
<rect x="141.97" y="119.19" width="5.885" height="3.926"/>
<rect x="122.347" y="127.041" width="5.887" height="3.924"/>
<rect x="132.158" y="127.041" width="5.886" height="3.924"/>
<rect x="141.97" y="127.041" width="5.885" height="3.924"/>
<path d="M236.157,115.267v-11.773h-39.246v11.773h3.924v3.924h-3.924v7.851h-41.207v-23.548h-41.206v35.32h27.472v45.664
	l-1.488-1.488l-2.197,2.201c-0.078-0.033-0.159-0.066-0.24-0.098v-3.11h-11.772v3.107c-0.081,0.034-0.161,0.064-0.239,0.099
	l-2.198-2.199l-8.325,8.325l2.197,2.197c-0.033,0.083-0.066,0.163-0.101,0.244h-3.107v11.772h3.107l0.101,0.241l-2.197,2.196
	l8.325,8.328l2.198-2.199c0.078,0.032,0.158,0.066,0.239,0.098v3.109h11.772v-3.107c0.081-0.033,0.162-0.065,0.24-0.1l2.197,2.199
	l1.488-1.488v2.496h3.924v7.85h15.699v-7.85h27.469v7.85h15.699v-7.85h1.96v-3.924h-60.827v-2.496l2.914-2.916l-2.197-2.196
	l0.101-0.241h3.107v-11.772h-3.107l-0.101-0.241l2.197-2.199l-2.914-2.914v-10.344h62.791v-31.396h27.473V134.89h-3.927v-3.925
	h3.927V119.19h-3.927v-3.924H236.157z M192.985,217.302h7.85v3.926h-7.85V217.302z M149.818,217.302h7.85v3.926h-7.85V217.302z
	 M155.704,130.965h45.131v3.925h-3.924v7.848h-3.926v-7.848h-3.924v7.848h-3.924v-7.848h-3.924v7.848h-3.925v-7.848h-3.925v7.848
	h-27.471v-3.924h9.811V130.965z M118.423,107.419h33.359v3.923h-33.359V107.419z M145.894,201.604h-2.039l-0.418,1.4
	c-0.24,0.798-0.545,1.551-0.92,2.234l-0.699,1.288l1.441,1.438l-2.777,2.773l-1.436-1.438l-1.289,0.696
	c-0.692,0.375-1.439,0.686-2.233,0.92l-1.403,0.418v2.042h-3.924v-2.042l-1.403-0.415c-0.792-0.235-1.544-0.545-2.236-0.921
	l-1.286-0.698l-1.437,1.438l-2.776-2.773l1.439-1.438l-0.697-1.288c-0.371-0.684-0.682-1.437-0.921-2.234l-0.417-1.4h-2.039v-3.924
	h2.039l0.417-1.402c0.239-0.798,0.548-1.55,0.921-2.234l0.697-1.287l-1.439-1.438l2.776-2.776l1.437,1.438l1.286-0.696
	c0.692-0.374,1.444-0.686,2.236-0.919l1.403-0.42v-2.04h3.924v2.04l1.403,0.416c0.79,0.236,1.541,0.544,2.233,0.922l1.289,0.697
	l1.436-1.439l2.777,2.773l-1.441,1.439l0.699,1.286c0.37,0.687,0.68,1.436,0.92,2.236l0.418,1.403h2.039V201.604z M118.423,134.89
	v-19.623h33.359v19.623H118.423z M204.761,174.133h-11.775v-7.85h-3.924v7.85h-3.924v-7.85h-3.924v7.85h-3.925v-7.85h-3.925v7.85
	h-27.471v-11.771h58.867V174.133z M204.761,158.435h-11.775v-7.848h-3.924v7.848h-3.924v-7.848h-3.924v7.848h-3.925v-7.848h-3.925
	v7.848h-27.471v-11.772h58.867V158.435z M232.23,142.737h-31.396v-3.924h31.396V142.737z M204.761,134.89v-3.925h23.546v3.925
	H204.761z M232.23,127.041h-31.396v-3.925h31.396V127.041z M204.761,119.19v-3.924h23.546v3.924H204.761z M200.835,111.342v-3.923
	h31.396v3.923H200.835z M200.835,111.342"/>
<path d="M165.517,191.793c0,5.41,4.4,9.812,9.811,9.812s9.811-4.401,9.811-9.812s-4.4-9.811-9.811-9.811
	S165.517,186.383,165.517,191.793L165.517,191.793z M181.214,191.793c0,3.245-2.641,5.888-5.887,5.888
	c-3.247,0-5.887-2.643-5.887-5.888s2.64-5.887,5.887-5.887C178.573,185.906,181.214,188.548,181.214,191.793L181.214,191.793z
	 M181.214,191.793"/>
<path d="M132.158,191.793c-4.329,0-7.85,3.52-7.85,7.849c0,4.328,3.521,7.849,7.85,7.849s7.849-3.521,7.849-7.849
	C140.007,195.313,136.487,191.793,132.158,191.793L132.158,191.793z M132.158,203.567c-2.163,0-3.925-1.762-3.925-3.926
	s1.762-3.924,3.925-3.924c2.165,0,3.924,1.76,3.924,3.924S134.323,203.567,132.158,203.567L132.158,203.567z M132.158,203.567"/>
<path d="M204.761,181.982v3.924h-3.926v3.925h3.926v3.925h-3.926v3.925h3.926v3.924h-3.926v3.924h3.926v3.926h3.924v3.924h3.925
	v-3.924h3.925v3.924h3.924v-3.924h3.924v3.924h3.925v-3.924h3.924v-3.926h3.927v-3.924h-3.927v-3.924h3.927v-3.925h-3.927v-3.925
	h3.927v-3.925h-3.927v-3.924h-3.924v-3.925h-3.925v3.925h-3.924v-3.925h-3.924v3.925h-3.925v-3.925h-3.925v3.925H204.761z
	 M228.307,185.906v19.622h-19.622v-19.622H228.307z M228.307,185.906"/>
<path d="M218.495,203.567c4.328,0,7.85-3.521,7.85-7.85c0-4.329-3.521-7.85-7.85-7.85c-4.329,0-7.85,3.521-7.85,7.85
	C210.646,200.046,214.166,203.567,218.495,203.567L218.495,203.567z M218.495,191.793c2.164,0,3.925,1.759,3.925,3.925
	c0,2.163-1.761,3.924-3.925,3.924s-3.924-1.761-3.924-3.924C214.571,193.552,216.331,191.793,218.495,191.793L218.495,191.793z
	 M218.495,191.793"/>
<path stroke="#FFFFFF" d="M118.308,156.021c-22.326,0.878-39.381,10.601-39.381,22.884v59.07c0,12.879,18.738,22.973,42.662,22.973
	s42.662-10.094,42.662-22.973v-59.07c0-12.283-17.059-22.006-39.379-22.884 M157.683,237.976c0,7.761-14.82,16.406-36.094,16.406
	s-36.1-8.646-36.1-16.406v-7.321c7.49,6.41,20.707,10.603,36.1,10.603s28.607-4.192,36.094-10.603V237.976z M157.683,218.287
	c0,7.762-14.82,16.405-36.094,16.405s-36.1-8.644-36.1-16.405v-7.323c7.49,6.411,20.707,10.603,36.1,10.603
	s28.607-4.191,36.094-10.603V218.287z M157.683,198.596c0,7.762-14.82,16.407-36.094,16.407s-36.1-8.646-36.1-16.407v-7.319
	c7.49,6.411,20.707,10.599,36.1,10.599s28.607-4.188,36.094-10.599V198.596z M157.683,178.905c0,7.762-14.82,16.409-36.094,16.409
	s-36.1-8.647-36.1-16.409c0-7.354,13.32-15.488,32.818-16.323h6.564C144.364,163.417,157.683,171.552,157.683,178.905
	L157.683,178.905z"/>
<path fill="#FFFFFF" d="M85.157,210.631v7.323c0,7.762,14.825,16.405,36.099,16.405s36.094-8.644,36.094-16.405v-7.323
	c-7.486,6.411-20.701,10.603-36.094,10.603S92.646,217.042,85.157,210.631z"/>
<path fill="#FFFFFF" d="M85.157,230.321v7.321c0,7.761,14.825,16.406,36.099,16.406s36.094-8.646,36.094-16.406v-7.321
	c-7.486,6.41-20.701,10.603-36.094,10.603S92.646,236.731,85.157,230.321z"/>
<path fill="#FFFFFF" d="M85.157,190.943v7.319c0,7.762,14.825,16.407,36.099,16.407s36.094-8.646,36.094-16.407v-7.319
	c-7.486,6.411-20.701,10.599-36.094,10.599S92.646,197.354,85.157,190.943z"/>
<path fill="#FFFFFF" d="M124.539,162.249h-6.564c-19.498,0.835-32.817,8.97-32.817,16.323c0,7.762,14.825,16.409,36.099,16.409
	s36.094-8.647,36.094-16.409C157.35,171.219,144.032,163.084,124.539,162.249z"/>
<circle fill="#FFFFFF" stroke="#000000" stroke-width="3" stroke-miterlimit="10" cx="312.069" cy="287.74" r="58"/>
<g>
	<defs>
		<rect id="SVGID_6_" x="280.845" y="256.441" width="62.449" height="62.597"/>
	</defs>
	<clipPath id="SVGID_8_">
		<use xlink:href="#SVGID_6_"  overflow="visible"/>
	</clipPath>
	<path clip-path="url(#SVGID_8_)" d="M339.612,303.593c-1.375-0.967-2.973-1.459-4.576-1.49c-5.588-3.668-9.262-6.428-11.416-8.582
		l-5.01-5.01c0.531-0.174,1.002-0.285,1.273-0.285c0.516,0,0.828-0.206,1.035-0.619L342,266.63c1.66-1.662,1.66-4.361,0-6.022
		l-2.806-2.804c-1.66-1.66-4.359-1.66-6.021,0l-21.389,21.285c-0.311,0.311-0.389,0.738-0.234,1.107
		c-0.037,0.229-0.111,0.519-0.211,0.834l-5.162-5.16c-3.831-3.832-6.525-7.457-8.602-11.494c-0.109-2.044-0.928-3.955-2.402-5.43
		c-1.766-1.766-4.258-2.596-6.75-2.389c-0.311,0.104-0.623,0.313-0.727,0.52c-0.207,0.312-0.207,0.727,0,1.039l2.907,5.191
		c-0.624,1.35-2.077,2.18-3.53,2.076l-3.012-4.984c-0.104-0.311-0.518-0.519-0.831-0.519c-0.31-0.104-0.622,0.104-0.83,0.415
		c-2.491,3.738-1.556,8.722,2.182,11.318c1.288,0.919,2.738,1.431,4.207,1.535c0.017,0.007,0.032,0.016,0.049,0.021
		c4.05,2.076,7.685,4.777,11.422,8.514l4.466,4.465l-1.662,1.66c-0.416,0.416-0.416,1.039,0,1.455l1.504,1.505l-18.117,18.118
		l-4.568,3.115c-0.207,0.207-0.415,0.414-0.415,0.727l-0.622,4.984c0,0.311,0.102,0.623,0.311,0.83
		c0.207,0.207,0.415,0.312,0.727,0.312h0.104l4.984-0.623c0.311,0,0.52-0.208,0.727-0.415l2.961-4.341
		c0.055-0.037,0.107-0.077,0.154-0.124l18.121-18.22l1.502,1.504c0.208,0.207,0.416,0.311,0.728,0.311
		c0.311,0,0.622-0.208,0.83-0.311l1.579-1.64l4.338,4.338c2.18,2.178,4.98,6.016,8.713,11.614c0.133,1.999,0.951,3.864,2.399,5.311
		c1.556,1.558,3.632,2.389,5.813,2.389h0.83c0.313,0,0.624-0.208,0.83-0.519c0.209-0.313,0.209-0.728,0-1.039l-3.01-5.088
		c0.727-1.35,2.078-2.181,3.633-2.077l2.908,4.985c0.104,0.31,0.518,0.519,0.832,0.519c0.414-0.104,0.726-0.209,0.934-0.519
		C344.282,311.173,343.245,306.188,339.612,303.593L339.612,303.593z M316.249,287.084c-0.727,0.312-1.661,0.831-2.283,1.452
		c-0.505,0.506-0.788,1.18-0.934,1.872l-3.844-3.844c0.729-0.104,1.454-0.415,1.974-0.934c0.726-0.624,1.454-2.182,1.972-3.635
		l4.57,4.568c-0.343,0.123-0.691,0.262-1.03,0.411C316.534,286.979,316.392,287.013,316.249,287.084L316.249,287.084z
		 M334.627,259.257c0.83-0.83,2.181-0.83,3.012,0l2.804,2.805c0.83,0.83,0.83,2.18,0,3.01l-20.611,20.508l-5.813-5.815
		L334.627,259.257z M283.335,263.099l2.182,3.738c0.207,0.312,0.52,0.521,0.831,0.521h0.519c2.387,0.103,4.568-1.144,5.607-3.22
		l0.205-0.52c0.209-0.311,0.209-0.623,0-0.935l-2.283-3.946c1.246,0.209,2.388,0.831,3.323,1.766
		c1.069,1.16,1.756,2.627,1.796,4.203c-0.02,0.079-0.03,0.164-0.03,0.262c0,0.481-0.059,0.951-0.167,1.402
		c-0.391,1.504-1.33,2.814-2.639,3.686c-2.075,1.35-4.879,1.35-6.955-0.103C283.544,268.395,282.608,265.592,283.335,263.099
		L283.335,263.099z M292.265,272.652c0.519-0.208,1.143-0.521,1.66-0.831c1.56-1.038,2.598-2.389,3.22-4.05
		c1.972,3.322,4.464,6.438,7.581,9.553l5.752,5.754c-0.226,0.429-0.459,0.787-0.665,0.995c-0.624,0.519-2.182,0.415-2.907,0.415
		c-0.252,0-0.502,0.076-0.707,0.228l-4.381-4.381C298.599,277.116,295.587,274.624,292.265,272.652L292.265,272.652z
		 M286.348,316.156l-3.323,0.415l0.414-3.219l3.469-2.347l1.785,1.785L286.348,316.156z M289.979,311.173l-1.453-1.454
		l17.547-17.443l1.455,1.453L289.979,311.173z M311.162,294.353l-5.815-5.816l1.454-1.452l5.778,5.777
		c-0.033,0.053-0.063,0.105-0.087,0.161L311.162,294.353z M315.088,293.604c0.151-0.205,0.226-0.456,0.226-0.707
		c-0.038-0.311-0.076-0.711-0.076-1.12c-0.002-0.684,0.104-1.397,0.492-1.787c0.137-0.158,0.371-0.332,0.664-0.506
		c0.002-0.001,0.004-0.002,0.007-0.004c0.118-0.069,0.243-0.139,0.376-0.208l5.703,5.702c1.863,1.97,5.075,4.454,9.731,7.561
		c-0.681,0.229-1.335,0.547-1.943,0.953c-1.53,1.071-2.665,2.537-3.239,4.229c-0.6-0.877-1.174-1.705-1.728-2.482l1.436-1.436
		c0.414-0.415,0.414-1.037,0-1.453c-0.416-0.414-1.038-0.414-1.454,0l-1.202,1.201c-0.431-0.585-0.849-1.137-1.251-1.655l1-1
		c0.416-0.415,0.416-1.038,0-1.453s-1.04-0.415-1.454,0l-0.841,0.84c-0.744-0.896-1.432-1.658-2.066-2.293L315.088,293.604z
		 M340.753,312.107l-2.182-3.738c-0.207-0.312-0.517-0.52-0.83-0.52h-0.519c-2.388-0.208-4.569,1.142-5.606,3.219l-0.207,0.519
		c-0.209,0.313-0.209,0.623,0,0.936l2.282,3.945c-1.245-0.208-2.388-0.831-3.321-1.765c-1.05-1.138-1.729-2.571-1.793-4.112
		c0.019-0.076,0.027-0.158,0.027-0.249c0-1.167,0.328-2.269,0.892-3.212c0-0.003,0.002-0.003,0.002-0.004
		c0.003-0.005,0.007-0.009,0.009-0.014c0.479-0.774,1.127-1.445,1.9-1.963c0.125-0.086,0.25-0.167,0.378-0.241
		c0.81-0.425,1.74-0.693,2.738-0.693c0.176,0,0.318-0.034,0.447-0.101c1.2,0.029,2.396,0.439,3.394,1.14
		C340.544,306.812,341.479,309.615,340.753,312.107L340.753,312.107z M340.753,312.107"/>
</g>
<path d="M318.533,281.165c0.208,0.209,0.416,0.313,0.728,0.313c0.311,0,0.519-0.104,0.727-0.313l17.651-17.65
	c0.416-0.416,0.416-1.039,0-1.454s-1.04-0.414-1.454,0l-17.651,17.651C318.119,280.128,318.119,280.751,318.533,281.165
	L318.533,281.165z M318.533,281.165"/>
</svg>
