<?xml version="1.0" encoding="utf-8"?>
<!-- Generator: Adobe Illustrator 15.1.0, SVG Export Plug-In  -->
<!DOCTYPE svg PUBLIC "-//W3C//DTD SVG 1.1//EN" "http://www.w3.org/Graphics/SVG/1.1/DTD/svg11.dtd" [
	<!ENTITY ns_flows "http://ns.adobe.com/Flows/1.0/">
]>
<svg version="1.1"
	 xmlns="http://www.w3.org/2000/svg" xmlns:xlink="http://www.w3.org/1999/xlink" xmlns:a="http://ns.adobe.com/AdobeSVGViewerExtensions/3.0/"
	 x="0px" y="0px" width="500px" height="500px" viewBox="-71.387 -55.771 500 500" enable-background="new -71.387 -55.771 500 500"
	 xml:space="preserve">
<defs>
</defs>
<path fill="none" stroke="#010101" stroke-width="5" stroke-linecap="square" stroke-linejoin="round" stroke-dasharray="0,12" d="
	M4.744,211.776c-15.338-95.412,49.585-185.18,145.003-200.525c95.412-15.322,185.188,49.598,200.509,145.017
	c15.34,95.4-49.577,185.184-144.996,200.522C109.847,372.121,20.073,307.193,4.744,211.776z"/>
<path stroke="#000000" d="M274.992,207.641h-17.688v-23.584c0-0.023-0.013-0.043-0.014-0.067c-0.007-0.092-0.023-0.181-0.049-0.27
	c-0.014-0.039-0.02-0.076-0.036-0.112c-0.049-0.118-0.111-0.232-0.2-0.333l-9.434-10.612c-0.102-0.113-0.225-0.195-0.354-0.261
	c-0.039-0.019-0.077-0.031-0.117-0.046c-0.109-0.041-0.223-0.065-0.339-0.072c-0.023-0.002-0.046-0.016-0.071-0.016h-35.375
	c-3.25,0-5.895,2.645-5.895,5.895v50.703c0,3.251,2.645,5.896,5.895,5.896h39.977c2.371,3.237,5.393,6.016,8.954,8.093
	c0.184,0.107,0.39,0.161,0.594,0.161c0.206,0,0.411-0.054,0.595-0.161c9.088-5.302,14.734-15.132,14.734-25.653v-8.38
	C276.17,208.167,275.643,207.641,274.992,207.641L274.992,207.641z M247.869,176.546l2.568,2.888l3.061,3.444h-5.629V176.546z
	 M211.316,232.402c-1.949,0-3.536-1.587-3.536-3.538v-50.703c0-1.95,1.587-3.536,3.536-3.536h34.195v9.432
	c0,0.653,0.529,1.18,1.18,1.18h8.255v22.404h-8.255c-0.65,0-1.18,0.526-1.18,1.179v8.38c0,0.658,0.023,1.316,0.066,1.968
	c0.25,3.793,1.235,7.468,2.881,10.879c0.05,0.101,0.094,0.205,0.145,0.306c0.196,0.399,0.411,0.79,0.628,1.179
	c0.11,0.201,0.217,0.403,0.333,0.601c0.051,0.089,0.096,0.182,0.148,0.269H211.316z M273.812,217.2
	c0,9.455-4.952,18.302-12.971,23.26c-3.31-2.045-6.085-4.76-8.217-7.899c-0.237-0.35-0.467-0.704-0.687-1.063
	c-0.137-0.226-0.275-0.45-0.408-0.681c-0.18-0.31-0.346-0.625-0.512-0.94c-0.143-0.271-0.289-0.54-0.422-0.816
	c-0.115-0.238-0.217-0.481-0.324-0.723c-0.311-0.693-0.595-1.399-0.849-2.118c-0.056-0.165-0.122-0.327-0.177-0.492
	c-0.122-0.374-0.23-0.752-0.337-1.131c-0.065-0.237-0.134-0.471-0.194-0.708c-0.09-0.35-0.168-0.704-0.242-1.06
	c-0.062-0.287-0.117-0.576-0.17-0.865c-0.057-0.319-0.111-0.638-0.156-0.959c-0.052-0.369-0.092-0.74-0.129-1.112
	c-0.025-0.254-0.057-0.509-0.075-0.765c-0.043-0.638-0.073-1.28-0.073-1.927v-7.201h25.942V217.2z M273.812,217.2"/>
<path stroke="#000000" d="M268.261,218.598l-8.599,8.601l-3.884-3.885l-1.667,1.668l4.717,4.716c0.23,0.229,0.533,0.346,0.834,0.346
	c0.302,0,0.604-0.116,0.834-0.346l9.432-9.434L268.261,218.598z M268.261,218.598"/>
<rect x="212.496" y="188.775" stroke="#000000" width="37.731" height="2.357"/>
<rect x="212.496" y="194.67" stroke="#000000" width="37.731" height="2.357"/>
<rect x="212.496" y="200.566" stroke="#000000" width="37.731" height="2.357"/>
<rect x="212.496" y="206.461" stroke="#000000" width="28.299" height="2.358"/>
<rect x="212.496" y="212.357" stroke="#000000" width="28.299" height="2.358"/>
<rect x="212.496" y="218.252" stroke="#000000" width="28.299" height="2.358"/>
<rect x="212.496" y="224.148" stroke="#000000" width="28.299" height="2.358"/>
<rect x="250.228" y="212.357" stroke="#000000" width="2.359" height="2.358"/>
<rect x="254.946" y="212.357" stroke="#000000" width="2.358" height="2.358"/>
<rect x="259.662" y="212.357" stroke="#000000" width="2.358" height="2.358"/>
<rect x="264.379" y="212.357" stroke="#000000" width="2.358" height="2.358"/>
<rect x="269.096" y="212.357" stroke="#000000" width="2.357" height="2.358"/>
<path stroke="#FFFFFF" d="M343.016,120.825c0,3.58-2.912,6.492-6.49,6.492v4.328c3.578,0,6.49,2.91,6.49,6.49h4.328
	c0-3.58,2.911-6.49,6.492-6.49v-4.328c-3.581,0-6.492-2.912-6.492-6.492H343.016L343.016,120.825z M345.18,131.71
	c-0.632-0.85-1.381-1.596-2.23-2.23c0.85-0.631,1.599-1.379,2.23-2.23c0.633,0.852,1.381,1.6,2.231,2.23
	C346.561,130.114,345.813,130.86,345.18,131.71L345.18,131.71z M345.18,131.71"/>
<path stroke="#FFFFFF" stroke-width="2" d="M194.146,1c0,5.293-4.311,9.6-9.6,9.6v6.403c5.289,0,9.6,4.308,9.6,9.601h6.4
	c0-5.293,4.307-9.601,9.602-9.601V10.6c-5.295,0-9.602-4.307-9.602-9.6H194.146L194.146,1z M197.347,17.102
	c-0.935-1.258-2.04-2.367-3.296-3.3c1.256-0.935,2.361-2.042,3.296-3.3c0.937,1.258,2.042,2.365,3.3,3.3
	C199.389,14.734,198.283,15.844,197.347,17.102L197.347,17.102z M197.347,17.102"/>
<path stroke="#FFFFFF" d="M214.753,345.892c0,3.362-2.739,6.104-6.103,6.104v4.066c3.363,0,6.103,2.737,6.103,6.104h4.067
	c0-3.366,2.739-6.104,6.104-6.104v-4.066c-3.364,0-6.104-2.741-6.104-6.104H214.753L214.753,345.892z M216.787,356.124
	c-0.594-0.798-1.299-1.502-2.098-2.097c0.799-0.593,1.504-1.297,2.098-2.097c0.594,0.8,1.297,1.504,2.098,2.097
	C218.084,354.622,217.381,355.326,216.787,356.124L216.787,356.124z M216.787,356.124"/>
<path d="M161.249,156.079c-3.834,0-6.953,3.12-6.953,6.954h4.636c0-1.277,1.04-2.318,2.317-2.318c1.28,0,2.319,1.042,2.319,2.318
	h4.638C168.206,159.199,165.084,156.079,161.249,156.079L161.249,156.079z M161.249,156.079"/>
<path d="M179.798,156.079c-3.836,0-6.956,3.12-6.956,6.954h4.637c0-1.277,1.039-2.318,2.319-2.318c1.278,0,2.317,1.042,2.317,2.318
	h4.637C186.752,159.199,183.632,156.079,179.798,156.079L179.798,156.079z M179.798,156.079"/>
<path d="M170.523,218.673c-5.113,0-9.274,4.16-9.274,9.274c0,5.114,4.161,9.273,9.274,9.273c5.115,0,9.274-4.16,9.274-9.273
	C179.798,222.833,175.639,218.673,170.523,218.673L170.523,218.673z M170.523,232.584c-2.557,0-4.637-2.081-4.637-4.637
	c0-2.557,2.08-4.637,4.637-4.637s4.638,2.08,4.638,4.637C175.161,230.503,173.08,232.584,170.523,232.584L170.523,232.584z
	 M170.523,232.584"/>
<path d="M226.164,246.494v-30.139c0-19.174-15.6-34.776-34.775-34.776h-2.525c0.826-0.725,1.604-1.498,2.337-2.316h2.507
	c6.391,0,11.592-5.201,11.592-11.592v-4.085c2.793-1.874,4.636-5.058,4.636-8.667c0-3.621-1.856-6.811-4.664-8.681
	c-0.309-18.911-15.763-34.208-34.747-34.208s-34.438,15.297-34.747,34.208c-2.808,1.87-4.665,5.06-4.665,8.681
	c0,5.752,4.681,10.433,10.434,10.433h1.578c1.085,6.424,4.367,12.096,9.062,16.228h-2.526c-19.175,0-34.775,15.602-34.775,34.776
	v30.139h-13.908v4.637h139.099v-4.637H226.164z M200.662,167.671c0,3.516-2.634,6.4-6.025,6.859
	c1.606-2.794,2.734-5.889,3.286-9.179h1.58c0.396,0,0.774-0.074,1.159-0.117V167.671z M205.299,154.919
	c0,3.194-2.6,5.796-5.796,5.796h-1.159v-11.592h1.159C202.699,149.123,205.299,151.726,205.299,154.919L205.299,154.919z
	 M142.703,160.715h-1.158c-3.196,0-5.797-2.602-5.797-5.796c0-3.193,2.601-5.796,5.797-5.796h1.158V160.715z M141.545,144.488
	c-0.359,0-0.698,0.069-1.049,0.107c1.142-15.587,14.156-27.928,30.027-27.928c15.869,0,28.887,12.34,30.027,27.928
	c-0.35-0.038-0.689-0.107-1.048-0.107h-1.58c-2.215-13.137-13.643-23.184-27.399-23.184s-25.184,10.046-27.4,23.184H141.545z
	 M193.705,149.064c-16.731-0.588-27.818-7.43-27.818-13.852c0-1.279-1.036-2.316-2.318-2.316c-1.281,0-2.319,1.037-2.319,2.316
	c0,5.794-5.989,10.595-13.775,11.447c1.236-11.628,11.102-20.72,23.05-20.72C183.285,125.94,193.672,136.31,193.705,149.064
	L193.705,149.064z M147.341,160.715v-9.403c7.239-0.627,13.382-4.119,16.45-9.009c4.851,6.427,16.185,10.95,29.916,11.411v7.001
	c0,5.224-1.758,10.029-4.681,13.911h-18.503v4.637h13.852c-1.334,0.996-2.768,1.853-4.298,2.549c-6.083,2.764-13.026,2.764-19.112,0
	C152.942,178.163,147.341,170.09,147.341,160.715L147.341,160.715z M163.357,187.566c2.29,0.613,4.686,0.969,7.166,0.969
	s4.876-0.356,7.166-0.969l-7.166,14.333L163.357,187.566z M166.772,204.763h-4.09l-9.272-18.545h4.089L166.772,204.763z
	 M183.549,186.218h4.088l-9.273,18.545h-4.088L183.549,186.218z M126.474,216.355v30.139h-6.953v-30.139
	c0-16.146,12.774-29.329,28.74-30.065l9.238,18.474h-19.433C131.676,204.763,126.474,209.963,126.474,216.355L126.474,216.355z
	 M209.935,246.494h-78.823v-30.139c0-3.834,3.121-6.954,6.955-6.954h64.915c3.833,0,6.953,3.119,6.953,6.954V246.494z
	 M221.527,246.494h-6.955v-30.139c0-6.392-5.2-11.592-11.591-11.592h-19.433l9.238-18.474c15.966,0.736,28.74,13.92,28.74,30.065
	V246.494z M221.527,246.494"/>
<rect x="200.662" y="225.629" width="4.637" height="16.227"/>
<rect x="200.662" y="216.355" width="4.637" height="4.637"/>
<rect x="221.527" y="132.896" width="4.637" height="4.635"/>
<rect x="221.527" y="142.168" width="4.637" height="4.637"/>
<rect x="221.527" y="151.441" width="4.637" height="4.638"/>
<rect x="114.883" y="160.715" width="4.638" height="4.637"/>
<rect x="114.883" y="169.99" width="4.638" height="4.636"/>
<rect x="114.883" y="179.263" width="4.638" height="4.635"/>
<path fill="#FFFFFF" d="M160.965,181.812c6.086,2.764,13.029,2.764,19.112,0c1.53-0.697,2.964-1.554,4.298-2.549h-13.852v-4.637
	h18.503c2.923-3.882,4.681-8.687,4.681-13.911v-7.001c-13.731-0.461-25.065-4.984-29.916-11.411
	c-3.068,4.891-9.211,8.382-16.45,9.009v9.403C147.341,170.09,152.942,178.163,160.965,181.812z M179.798,156.079
	c3.834,0,6.954,3.12,6.954,6.954h-4.637c0-1.277-1.039-2.318-2.317-2.318c-1.28,0-2.319,1.042-2.319,2.318h-4.637
	C172.842,159.199,175.962,156.079,179.798,156.079z M161.249,156.079c3.835,0,6.957,3.12,6.957,6.954h-4.638
	c0-1.277-1.039-2.318-2.319-2.318c-1.277,0-2.317,1.042-2.317,2.318h-4.636C154.296,159.199,157.415,156.079,161.249,156.079z"/>
<path fill="#FFFFFF" d="M170.523,125.94c-11.948,0-21.813,9.091-23.05,20.72c7.786-0.852,13.775-5.652,13.775-11.447
	c0-1.279,1.038-2.316,2.319-2.316c1.282,0,2.318,1.037,2.318,2.316c0,6.421,11.087,13.263,27.818,13.852
	C193.672,136.31,183.285,125.94,170.523,125.94z"/>
<path fill="#FFFFFF" d="M177.689,187.566c-2.29,0.613-4.686,0.969-7.166,0.969s-4.876-0.356-7.166-0.969l7.166,14.333
	L177.689,187.566z"/>
<polygon fill="#FFFFFF" points="153.41,186.218 162.683,204.763 166.772,204.763 157.499,186.218 "/>
<path fill="#FFFFFF" d="M197.923,165.352c-0.552,3.29-1.68,6.384-3.286,9.179c3.392-0.459,6.025-3.343,6.025-6.859v-2.436
	c-0.385,0.043-0.764,0.117-1.159,0.117H197.923z"/>
<path fill="#FFFFFF" d="M198.344,149.123v11.592h1.159c3.196,0,5.796-2.602,5.796-5.796c0-3.193-2.6-5.796-5.796-5.796H198.344z"/>
<path fill="#FFFFFF" d="M135.748,154.919c0,3.194,2.601,5.796,5.797,5.796h1.158v-11.592h-1.158
	C138.349,149.123,135.748,151.726,135.748,154.919z"/>
<path fill="#FFFFFF" d="M170.523,121.304c13.757,0,25.185,10.046,27.399,23.184h1.58c0.358,0,0.698,0.069,1.048,0.107
	c-1.141-15.587-14.158-27.928-30.027-27.928c-15.871,0-28.886,12.34-30.027,27.928c0.351-0.038,0.689-0.107,1.049-0.107h1.578
	C145.34,131.351,156.767,121.304,170.523,121.304z"/>
<polygon fill="#FFFFFF" points="187.637,186.218 183.549,186.218 174.275,204.763 178.363,204.763 "/>
<path fill="#FFFFFF" d="M157.499,204.763l-9.238-18.474c-15.966,0.736-28.74,13.92-28.74,30.065v30.139h6.953v-30.139
	c0-6.392,5.202-11.592,11.593-11.592H157.499z"/>
<path fill="#FFFFFF" d="M202.981,209.401h-64.915c-3.834,0-6.955,3.119-6.955,6.954v30.139h78.823v-30.139
	C209.935,212.521,206.814,209.401,202.981,209.401z M170.523,237.221c-5.113,0-9.274-4.16-9.274-9.273
	c0-5.114,4.161-9.274,9.274-9.274c5.115,0,9.274,4.16,9.274,9.274C179.798,233.061,175.639,237.221,170.523,237.221z
	 M205.299,241.856h-4.637v-16.227h4.637V241.856z M205.299,220.992h-4.637v-4.637h4.637V220.992z"/>
<path fill="#FFFFFF" d="M192.787,186.29l-9.238,18.474h19.433c6.391,0,11.591,5.2,11.591,11.592v30.139h6.955v-30.139
	C221.527,200.209,208.753,187.026,192.787,186.29z"/>
<path fill="#FFFFFF" d="M170.523,223.311c-2.557,0-4.637,2.08-4.637,4.637c0,2.556,2.08,4.637,4.637,4.637s4.638-2.081,4.638-4.637
	C175.161,225.39,173.08,223.311,170.523,223.311z"/>
<path fill="#FFFFFF" d="M86.329,322.328H70.77c-0.544,0-1.065-0.216-1.449-0.602l-8.204-8.203c-0.387-0.384-0.601-0.907-0.601-1.451
	v-4.102H23.597c-1.132,0-2.051,0.921-2.051,2.052v16.408c0,1.13,0.919,2.051,2.051,2.051h68.887L86.329,322.328z M29.749,324.378
	h-4.1v-4.102h4.1V324.378z M29.749,316.174h-4.1v-4.103h4.1V316.174z M37.954,324.378h-4.102v-4.102h4.102V324.378z M37.954,316.174
	h-4.102v-4.103h4.102V316.174z M46.16,324.378h-4.104v-4.102h4.104V324.378z M46.16,316.174h-4.104v-4.103h4.104V316.174z
	 M54.363,324.378H50.26v-4.102h4.104V324.378z M54.363,316.174H50.26v-4.103h4.104V316.174z M62.567,324.378h-4.104v-4.102h4.104
	V324.378z"/>
<path fill="#FFFFFF" d="M23.597,279.256h79.99c1.131,0,2.051-0.921,2.051-2.052v-16.407c0-1.13-0.92-2.05-2.051-2.05h-79.99
	c-1.132,0-2.051,0.92-2.051,2.05v16.407C21.546,278.335,22.465,279.256,23.597,279.256z M78.975,264.899
	c0-1.132,0.916-2.05,2.051-2.05h18.459c1.134,0,2.051,0.918,2.051,2.05v8.204c0,1.132-0.917,2.051-2.051,2.051H81.025
	c-1.135,0-2.051-0.918-2.051-2.051V264.899z M58.464,262.849h4.104v4.101h-4.104V262.849z M58.464,271.051h4.104v4.103h-4.104
	V271.051z M50.26,262.849h4.104v4.101H50.26V262.849z M50.26,271.051h4.104v4.103H50.26V271.051z M42.056,262.849h4.104v4.101
	h-4.104V262.849z M42.056,271.051h4.104v4.103h-4.104V271.051z M33.853,262.849h4.102v4.101h-4.102V262.849z M33.853,271.051h4.102
	v4.103h-4.102V271.051z M25.649,262.849h4.1v4.101h-4.1V262.849z M25.649,271.051h4.1v4.103h-4.1V271.051z"/>
<rect x="83.077" y="266.949" fill="#FFFFFF" width="14.357" height="4.102"/>
<path fill="#FFFFFF" d="M23.597,303.869h36.919v-4.103c0-0.829,0.499-1.578,1.266-1.896c0.769-0.316,1.649-0.141,2.235,0.444
	l9.654,9.654h7.354v-7.354l-9.654-9.654c-0.587-0.586-0.762-1.469-0.444-2.236c0.316-0.765,1.066-1.266,1.895-1.266h12.306
	c0.546,0,1.067,0.215,1.451,0.601l8.203,8.204c0.386,0.383,0.603,0.906,0.603,1.45v6.154h8.203c1.131,0,2.051-0.922,2.051-2.052
	v-16.408c0-1.13-0.92-2.051-2.051-2.051h-79.99c-1.132,0-2.051,0.921-2.051,2.051v16.408
	C21.546,302.947,22.465,303.869,23.597,303.869z M58.464,287.46h4.104v4.102h-4.104V287.46z M50.26,287.46h4.104v4.102H50.26V287.46
	z M50.26,295.664h4.104v4.103H50.26V295.664z M42.056,287.46h4.104v4.102h-4.104V287.46z M42.056,295.664h4.104v4.103h-4.104
	V295.664z M33.853,287.46h4.102v4.102h-4.102V287.46z M33.853,295.664h4.102v4.103h-4.102V295.664z M25.649,287.46h4.1v4.102h-4.1
	V287.46z M25.649,295.664h4.1v4.103h-4.1V295.664z"/>
<path fill="#FFFFFF" d="M103.587,307.97h-8.203v5.304l10.254,10.255v-13.507C105.638,308.891,104.718,307.97,103.587,307.97z"/>
<path fill="#FFFFFF" d="M128.801,316.775c0.384-0.385,0.903-0.601,1.449-0.601h2.714l3.083-7.711l-2.188-2.19l-7.711,3.086v2.712
	c0,0.544-0.215,1.067-0.601,1.451l-14.959,14.958l3.254,3.253L128.801,316.775z"/>
<path fill="#FFFFFF" d="M93.332,337.533v3.253c0,1.132-0.918,2.051-2.052,2.051h-3.253l-20.51,20.51l11.457,11.457l20.51-20.51
	v-3.253c0-1.133,0.916-2.051,2.051-2.051h3.254l4.102-4.101l-11.456-11.458L93.332,337.533z M80.421,368.904l-2.9-2.9l10.253-10.254
	l2.9,2.902L80.421,368.904z M92.728,356.59l-2.9-2.9l4.102-4.103l2.901,2.9L92.728,356.59z"/>
<path fill="#FFFFFF" d="M91.881,315.573c-0.385-0.383-0.601-0.906-0.601-1.449v-15.559l-7.001-7.003h-6.507l6.754,6.753
	c0.386,0.385,0.601,0.907,0.601,1.451v10.255c0,1.132-0.915,2.05-2.05,2.05H72.821c-0.545,0-1.066-0.215-1.45-0.601l-3.499-3.501
	h-3.256v3.253l7.004,7.001h15.559c0.545,0,1.067,0.215,1.45,0.602l45.901,45.899c0.428,0.427,1.021,0.674,1.624,0.674
	c1.267,0,2.3-1.033,2.3-2.3c0-0.615-0.237-1.192-0.673-1.626L91.881,315.573z"/>
<rect x="25.649" y="271.051" width="4.1" height="4.103"/>
<rect x="33.853" y="271.051" width="4.102" height="4.103"/>
<rect x="25.649" y="262.849" width="4.1" height="4.101"/>
<rect x="33.853" y="262.849" width="4.102" height="4.101"/>
<rect x="42.056" y="271.051" width="4.104" height="4.103"/>
<rect x="42.056" y="262.849" width="4.104" height="4.101"/>
<rect x="50.26" y="271.051" width="4.104" height="4.103"/>
<rect x="50.26" y="262.849" width="4.104" height="4.101"/>
<rect x="58.464" y="271.051" width="4.104" height="4.103"/>
<rect x="58.464" y="262.849" width="4.104" height="4.101"/>
<path d="M99.484,262.849H81.025c-1.135,0-2.051,0.918-2.051,2.05v8.204c0,1.132,0.916,2.051,2.051,2.051h18.459
	c1.134,0,2.051-0.918,2.051-2.051v-8.204C101.535,263.767,100.618,262.849,99.484,262.849L99.484,262.849z M97.435,271.051H83.077
	v-4.102h14.357V271.051z M97.435,271.051"/>
<rect x="25.649" y="295.664" width="4.1" height="4.103"/>
<rect x="33.853" y="295.664" width="4.102" height="4.103"/>
<rect x="25.649" y="287.46" width="4.1" height="4.102"/>
<rect x="33.853" y="287.46" width="4.102" height="4.102"/>
<rect x="42.056" y="295.664" width="4.104" height="4.103"/>
<rect x="42.056" y="287.46" width="4.104" height="4.102"/>
<rect x="50.26" y="295.664" width="4.104" height="4.103"/>
<rect x="50.26" y="287.46" width="4.104" height="4.102"/>
<rect x="58.464" y="287.46" width="4.104" height="4.102"/>
<rect x="25.649" y="320.276" width="4.1" height="4.102"/>
<rect x="33.853" y="320.276" width="4.102" height="4.102"/>
<rect x="25.649" y="312.072" width="4.1" height="4.103"/>
<rect x="33.853" y="312.072" width="4.102" height="4.103"/>
<rect x="42.056" y="320.276" width="4.104" height="4.102"/>
<rect x="42.056" y="312.072" width="4.104" height="4.103"/>
<rect x="50.26" y="320.276" width="4.104" height="4.102"/>
<rect x="50.26" y="312.072" width="4.104" height="4.103"/>
<rect x="58.464" y="320.276" width="4.104" height="4.102"/>
<path d="M140.682,358.573l-23.94-23.938l14.356-14.358h3.254c0.84,0,1.593-0.51,1.905-1.288l4.103-10.255
	c0.304-0.764,0.128-1.632-0.454-2.213l-4.104-4.102c-0.581-0.583-1.451-0.759-2.211-0.456l-10.254,4.102
	c-0.781,0.314-1.291,1.067-1.291,1.905v3.253l-12.306,12.306v-13.507c0-1.581-0.617-3.011-1.601-4.103
	c0.985-1.092,1.601-2.521,1.601-4.102v-16.408c0-1.582-0.617-3.011-1.601-4.103c0.985-1.089,1.601-2.519,1.601-4.102v-16.407
	c0-3.393-2.761-6.153-6.153-6.153h-79.99c-3.392,0-6.152,2.76-6.152,6.153v16.407c0,1.583,0.617,3.013,1.6,4.102
	c-0.982,1.092-1.6,2.521-1.6,4.103v16.408c0,1.581,0.617,3.01,1.6,4.102c-0.982,1.092-1.6,2.521-1.6,4.103v16.408
	c0,3.393,2.761,6.153,6.152,6.153h68.887l-2.652,2.652c-0.387,0.383-0.602,0.906-0.602,1.45v2.051h-2.051
	c-0.545,0-1.064,0.214-1.45,0.601l-22.562,22.562c-0.802,0.801-0.802,2.099,0,2.9l14.358,14.356c0.399,0.4,0.925,0.601,1.449,0.601
	s1.05-0.2,1.45-0.601l22.562-22.562c0.386-0.383,0.601-0.905,0.601-1.449v-2.052h2.051c0.547,0,1.066-0.215,1.451-0.601l4.701-4.703
	l19.84,19.837c1.189,1.192,2.84,1.875,4.524,1.875c3.53,0,6.401-2.871,6.401-6.401C142.556,361.39,141.892,359.781,140.682,358.573
	L140.682,358.573z M125.547,313.523c0.386-0.384,0.601-0.907,0.601-1.451v-2.712l7.711-3.086l2.188,2.19l-3.083,7.711h-2.714
	c-0.546,0-1.065,0.215-1.449,0.601l-14.959,14.958l-3.254-3.253L125.547,313.523z M21.546,260.797c0-1.13,0.919-2.05,2.051-2.05
	h79.99c1.131,0,2.051,0.92,2.051,2.05v16.407c0,1.131-0.92,2.052-2.051,2.052h-79.99c-1.132,0-2.051-0.921-2.051-2.052V260.797z
	 M21.546,285.409c0-1.13,0.919-2.051,2.051-2.051h79.99c1.131,0,2.051,0.921,2.051,2.051v16.408c0,1.13-0.92,2.052-2.051,2.052
	h-8.203v-6.154c0-0.543-0.217-1.066-0.603-1.45l-8.203-8.204c-0.384-0.386-0.905-0.601-1.451-0.601H72.821
	c-0.828,0-1.578,0.5-1.895,1.266c-0.317,0.767-0.143,1.649,0.444,2.236l9.654,9.654v7.354h-7.354l-9.654-9.654
	c-0.586-0.585-1.467-0.76-2.235-0.444c-0.767,0.318-1.266,1.067-1.266,1.896v4.103H23.597c-1.132,0-2.051-0.922-2.051-2.052V285.409
	z M105.638,310.021v13.507l-10.254-10.255v-5.304h8.203C104.718,307.97,105.638,308.891,105.638,310.021L105.638,310.021z
	 M23.597,328.48c-1.132,0-2.051-0.921-2.051-2.051v-16.408c0-1.13,0.919-2.052,2.051-2.052h36.919v4.102
	c0,0.544,0.214,1.067,0.601,1.451l8.204,8.203c0.384,0.386,0.905,0.602,1.449,0.602h15.56l6.154,6.153H23.597z M104.789,348.99
	h-3.254c-1.135,0-2.051,0.918-2.051,2.051v3.253l-20.51,20.51l-11.457-11.457l20.51-20.51h3.253c1.134,0,2.052-0.919,2.052-2.051
	v-3.253l4.103-4.102l11.456,11.458L104.789,348.99z M136.154,365.399c-0.604,0-1.196-0.247-1.624-0.674l-45.901-45.899
	c-0.383-0.386-0.905-0.602-1.45-0.602H71.62l-7.004-7.001v-3.253h3.256l3.499,3.501c0.384,0.386,0.905,0.601,1.45,0.601h10.256
	c1.135,0,2.05-0.918,2.05-2.05v-10.255c0-0.544-0.215-1.066-0.601-1.451l-6.754-6.753h6.507l7.001,7.003v15.559
	c0,0.543,0.216,1.066,0.601,1.449l45.9,45.9c0.436,0.434,0.673,1.011,0.673,1.626C138.454,364.366,137.421,365.399,136.154,365.399
	L136.154,365.399z M136.154,365.399"/>
<path d="M77.521,366.004l10.253-10.254l2.9,2.902l-10.253,10.252L77.521,366.004z M77.521,366.004"/>
<path d="M89.827,353.689l4.102-4.103l2.901,2.9l-4.103,4.103L89.827,353.689z M89.827,353.689"/>
</svg>
