<?xml version="1.0" encoding="utf-8"?>
<!-- Generator: Adobe Illustrator 15.1.0, SVG Export Plug-In  -->
<!DOCTYPE svg PUBLIC "-//W3C//DTD SVG 1.1//EN" "http://www.w3.org/Graphics/SVG/1.1/DTD/svg11.dtd" [
	<!ENTITY ns_flows "http://ns.adobe.com/Flows/1.0/">
]>
<svg version="1.1"
	 xmlns="http://www.w3.org/2000/svg" xmlns:xlink="http://www.w3.org/1999/xlink" xmlns:a="http://ns.adobe.com/AdobeSVGViewerExtensions/3.0/"
	 x="0px" y="0px" width="500px" height="500px" viewBox="-58.442 -71.648 500 500" enable-background="new -58.442 -71.648 500 500"
	 xml:space="preserve">
<defs>
</defs>
<path fill="none" stroke="#010101" stroke-width="5" stroke-linecap="square" stroke-linejoin="round" stroke-dasharray="0,12" d="
	M4.743,205.28C-10.593,109.859,54.331,20.086,149.751,4.74c95.422-15.323,185.2,49.604,200.526,145.028
	c15.341,95.409-49.579,185.198-145.009,200.538C109.856,365.637,20.07,300.703,4.743,205.28z"/>
<path stroke="#000000" d="M257.772,181.04h-28.328v-37.772c0-0.037-0.019-0.069-0.021-0.108c-0.01-0.147-0.037-0.289-0.079-0.433
	c-0.021-0.061-0.03-0.121-0.056-0.18c-0.08-0.189-0.181-0.372-0.322-0.532l-15.108-16.997c-0.163-0.181-0.36-0.313-0.567-0.418
	c-0.063-0.03-0.123-0.05-0.188-0.074c-0.175-0.065-0.355-0.104-0.542-0.115c-0.038-0.003-0.074-0.026-0.114-0.026h-56.657
	c-5.206,0-9.442,4.235-9.442,9.441v81.208c0,5.207,4.236,9.444,9.442,9.444h64.026c3.797,5.185,8.637,9.635,14.342,12.961
	c0.295,0.172,0.622,0.258,0.949,0.258c0.331,0,0.66-0.086,0.955-0.258c14.555-8.492,23.598-24.237,23.598-41.086v-13.424
	C259.659,181.883,258.815,181.04,257.772,181.04L257.772,181.04z M214.333,131.239l4.112,4.626l4.901,5.516h-9.014V131.239z
	 M155.789,220.699c-3.123,0-5.665-2.542-5.665-5.666v-81.208c0-3.123,2.542-5.665,5.665-5.665h54.769v15.107
	c0,1.045,0.846,1.89,1.889,1.89h13.221v35.883h-13.221c-1.043,0-1.889,0.843-1.889,1.888v13.424c0,1.053,0.037,2.106,0.105,3.15
	c0.4,6.077,1.979,11.961,4.613,17.424c0.08,0.162,0.151,0.328,0.232,0.49c0.314,0.639,0.658,1.265,1.005,1.889
	c0.177,0.322,0.349,0.646,0.532,0.962c0.084,0.143,0.153,0.291,0.24,0.431H155.789z M255.882,196.352
	c0,15.142-7.932,29.313-20.775,37.253c-5.298-3.276-9.742-7.624-13.158-12.653c-0.381-0.561-0.746-1.127-1.1-1.702
	c-0.221-0.361-0.441-0.721-0.654-1.09c-0.288-0.496-0.554-1.001-0.82-1.506c-0.228-0.435-0.463-0.865-0.675-1.307
	c-0.186-0.382-0.345-0.771-0.52-1.158c-0.497-1.111-0.952-2.242-1.358-3.394c-0.092-0.262-0.197-0.523-0.283-0.787
	c-0.196-0.598-0.369-1.206-0.539-1.813c-0.105-0.378-0.215-0.753-0.313-1.134c-0.142-0.561-0.269-1.128-0.388-1.697
	c-0.099-0.46-0.187-0.923-0.271-1.386c-0.091-0.511-0.178-1.022-0.248-1.536c-0.085-0.591-0.15-1.184-0.207-1.781
	c-0.041-0.408-0.09-0.816-0.121-1.225c-0.07-1.021-0.117-2.05-0.117-3.085v-11.535h41.549V196.352z M255.882,196.352"/>
<path stroke="#000000" d="M246.993,198.59l-13.773,13.775l-6.219-6.221l-2.67,2.672l7.553,7.554
	c0.371,0.368,0.854,0.554,1.336,0.554c0.484,0,0.967-0.186,1.336-0.554l15.107-15.108L246.993,198.59z M246.993,198.59"/>
<rect x="157.679" y="150.825" stroke="#000000" width="60.432" height="3.776"/>
<rect x="157.679" y="160.267" stroke="#000000" width="60.432" height="3.776"/>
<rect x="157.679" y="169.709" stroke="#000000" width="60.432" height="3.776"/>
<rect x="157.679" y="179.152" stroke="#000000" width="45.324" height="3.776"/>
<rect x="157.679" y="188.594" stroke="#000000" width="45.324" height="3.777"/>
<rect x="157.679" y="198.036" stroke="#000000" width="45.324" height="3.777"/>
<rect x="157.679" y="207.479" stroke="#000000" width="45.324" height="3.777"/>
<rect x="218.11" y="188.594" stroke="#000000" width="3.777" height="3.777"/>
<rect x="225.667" y="188.594" stroke="#000000" width="3.777" height="3.777"/>
<rect x="233.22" y="188.594" stroke="#000000" width="3.777" height="3.777"/>
<rect x="240.774" y="188.594" stroke="#000000" width="3.777" height="3.777"/>
<rect x="248.329" y="188.594" stroke="#000000" width="3.775" height="3.777"/>
<path stroke="#FFFFFF" stroke-width="2" d="M22.386,82.055c0,5.293-4.311,9.6-9.6,9.6v6.403c5.289,0,9.6,4.308,9.6,9.601h6.4
	c0-5.293,4.307-9.601,9.602-9.601v-6.403c-5.295,0-9.602-4.307-9.602-9.6H22.386L22.386,82.055z M25.586,98.157
	c-0.935-1.258-2.04-2.367-3.296-3.3c1.256-0.935,2.361-2.042,3.296-3.3c0.937,1.258,2.042,2.365,3.3,3.3
	C27.628,95.79,26.522,96.899,25.586,98.157L25.586,98.157z M25.586,98.157"/>
<path stroke="#FFFFFF" d="M342.923,120.116c0,3.58-2.912,6.492-6.49,6.492v4.328c3.578,0,6.49,2.91,6.49,6.49h4.328
	c0-3.58,2.911-6.49,6.492-6.49v-4.328c-3.581,0-6.492-2.912-6.492-6.492H342.923L342.923,120.116z M345.087,131
	c-0.632-0.85-1.381-1.596-2.23-2.23c0.85-0.631,1.599-1.379,2.23-2.23c0.633,0.852,1.381,1.6,2.231,2.23
	C346.468,129.405,345.72,130.151,345.087,131L345.087,131z M345.087,131"/>
<path stroke="#FFFFFF" d="M214.66,341.182c0,3.362-2.739,6.104-6.103,6.104v4.066c3.363,0,6.103,2.737,6.103,6.104h4.067
	c0-3.366,2.739-6.104,6.104-6.104v-4.066c-3.364,0-6.104-2.741-6.104-6.104H214.66L214.66,341.182z M216.694,351.415
	c-0.594-0.798-1.299-1.502-2.098-2.097c0.799-0.593,1.504-1.297,2.098-2.097c0.594,0.8,1.297,1.504,2.098,2.097
	C217.991,349.913,217.288,350.617,216.694,351.415L216.694,351.415z M216.694,351.415"/>
<circle fill="#FFFFFF" stroke="#000000" stroke-width="3" stroke-miterlimit="10" cx="325.223" cy="272.637" r="58"/>
<path stroke="#000000" stroke-width="0.5" d="M352.766,288.49c-1.375-0.967-2.973-1.459-4.576-1.49
	c-5.588-3.668-9.262-6.428-11.416-8.582l-5.01-5.01c0.531-0.174,1.002-0.285,1.273-0.285c0.516,0,0.828-0.206,1.035-0.619
	l21.081-20.977c1.66-1.662,1.66-4.361,0-6.022l-2.806-2.804c-1.66-1.66-4.359-1.66-6.021,0l-21.389,21.285
	c-0.311,0.311-0.389,0.738-0.234,1.107c-0.037,0.229-0.111,0.519-0.211,0.834l-5.162-5.16c-3.831-3.832-6.525-7.457-8.602-11.494
	c-0.109-2.044-0.928-3.955-2.402-5.43c-1.766-1.766-4.258-2.596-6.75-2.389c-0.311,0.104-0.623,0.313-0.727,0.52
	c-0.207,0.312-0.207,0.727,0,1.039l2.907,5.191c-0.624,1.35-2.077,2.18-3.53,2.076l-3.012-4.984
	c-0.104-0.311-0.518-0.519-0.831-0.519c-0.31-0.104-0.622,0.104-0.83,0.415c-2.491,3.738-1.556,8.722,2.182,11.318
	c1.288,0.919,2.738,1.431,4.207,1.535c0.017,0.007,0.032,0.016,0.049,0.021c4.05,2.076,7.685,4.777,11.422,8.514l4.466,4.465
	l-1.662,1.66c-0.416,0.416-0.416,1.039,0,1.455l1.504,1.505l-18.117,18.118l-4.568,3.115c-0.207,0.207-0.415,0.414-0.415,0.727
	l-0.622,4.984c0,0.311,0.102,0.623,0.311,0.83c0.207,0.207,0.415,0.312,0.727,0.312h0.104l4.984-0.623
	c0.311,0,0.52-0.208,0.727-0.415l2.961-4.341c0.055-0.037,0.107-0.077,0.154-0.124l18.121-18.22l1.502,1.504
	c0.208,0.207,0.416,0.311,0.728,0.311c0.311,0,0.622-0.208,0.83-0.311l1.579-1.64l4.338,4.338c2.18,2.178,4.98,6.016,8.713,11.614
	c0.133,1.999,0.951,3.864,2.399,5.311c1.556,1.558,3.632,2.389,5.813,2.389h0.83c0.313,0,0.624-0.208,0.83-0.519
	c0.209-0.313,0.209-0.728,0-1.039l-3.01-5.088c0.727-1.35,2.078-2.181,3.633-2.077l2.908,4.985c0.104,0.31,0.518,0.519,0.832,0.519
	c0.414-0.104,0.726-0.209,0.934-0.519C357.436,296.07,356.398,291.085,352.766,288.49L352.766,288.49z M329.402,271.981
	c-0.727,0.312-1.661,0.831-2.283,1.452c-0.505,0.506-0.788,1.18-0.934,1.872l-3.844-3.844c0.729-0.104,1.454-0.415,1.974-0.934
	c0.726-0.624,1.454-2.182,1.972-3.635l4.57,4.568c-0.343,0.123-0.691,0.262-1.03,0.411
	C329.688,271.876,329.545,271.91,329.402,271.981L329.402,271.981z M347.78,244.154c0.83-0.83,2.181-0.83,3.012,0l2.804,2.805
	c0.83,0.83,0.83,2.18,0,3.01l-20.611,20.508l-5.813-5.815L347.78,244.154z M296.488,247.996l2.182,3.738
	c0.207,0.312,0.52,0.521,0.831,0.521h0.519c2.387,0.103,4.568-1.144,5.607-3.22l0.205-0.52c0.209-0.311,0.209-0.623,0-0.935
	l-2.283-3.946c1.246,0.209,2.388,0.831,3.323,1.766c1.069,1.16,1.756,2.627,1.796,4.203c-0.02,0.079-0.03,0.164-0.03,0.262
	c0,0.481-0.059,0.951-0.167,1.402c-0.391,1.504-1.33,2.814-2.639,3.686c-2.075,1.35-4.879,1.35-6.955-0.103
	C296.697,253.292,295.762,250.489,296.488,247.996L296.488,247.996z M305.418,257.549c0.519-0.208,1.143-0.521,1.66-0.831
	c1.56-1.038,2.598-2.389,3.22-4.05c1.972,3.322,4.464,6.438,7.581,9.553l5.752,5.754c-0.226,0.429-0.459,0.787-0.665,0.995
	c-0.624,0.519-2.182,0.415-2.907,0.415c-0.252,0-0.502,0.076-0.708,0.228l-4.38-4.381
	C311.752,262.013,308.74,259.521,305.418,257.549L305.418,257.549z M299.501,301.053l-3.323,0.415l0.414-3.219l3.469-2.347
	l1.785,1.785L299.501,301.053z M303.133,296.07l-1.453-1.454l17.547-17.443l1.455,1.453L303.133,296.07z M324.315,279.25
	l-5.815-5.816l1.454-1.452l5.778,5.777c-0.033,0.053-0.063,0.105-0.087,0.161L324.315,279.25z M328.241,278.501
	c0.152-0.205,0.226-0.456,0.226-0.707c-0.038-0.311-0.076-0.711-0.076-1.12c-0.002-0.684,0.104-1.397,0.492-1.787
	c0.137-0.158,0.371-0.332,0.664-0.506c0.002-0.001,0.004-0.002,0.007-0.004c0.118-0.069,0.243-0.139,0.376-0.208l5.703,5.702
	c1.863,1.97,5.075,4.454,9.731,7.561c-0.681,0.229-1.335,0.547-1.943,0.953c-1.53,1.071-2.665,2.537-3.239,4.229
	c-0.6-0.877-1.174-1.705-1.728-2.482l1.436-1.436c0.414-0.415,0.414-1.037,0-1.453c-0.416-0.414-1.038-0.414-1.454,0l-1.202,1.201
	c-0.431-0.585-0.849-1.137-1.251-1.655l1-1c0.416-0.415,0.416-1.038,0-1.453s-1.04-0.415-1.454,0l-0.841,0.84
	c-0.744-0.896-1.432-1.658-2.066-2.293L328.241,278.501z M353.906,297.004l-2.182-3.738c-0.207-0.312-0.517-0.52-0.83-0.52h-0.519
	c-2.388-0.208-4.569,1.142-5.606,3.219l-0.207,0.519c-0.209,0.313-0.209,0.623,0,0.936l2.282,3.945
	c-1.245-0.208-2.388-0.831-3.321-1.765c-1.05-1.138-1.729-2.571-1.793-4.112c0.019-0.076,0.027-0.158,0.027-0.249
	c0-1.167,0.328-2.269,0.892-3.212c0-0.003,0.002-0.003,0.002-0.004c0.003-0.005,0.007-0.009,0.009-0.014
	c0.479-0.774,1.127-1.445,1.9-1.963c0.125-0.086,0.25-0.167,0.378-0.241c0.81-0.425,1.74-0.693,2.738-0.693
	c0.176,0,0.318-0.034,0.447-0.101c1.2,0.029,2.395,0.439,3.394,1.14C353.697,291.708,354.633,294.512,353.906,297.004
	L353.906,297.004z M353.906,297.004"/>
<path stroke="#000000" stroke-width="0.5" d="M331.687,266.062c0.208,0.209,0.416,0.313,0.728,0.313
	c0.311,0,0.519-0.104,0.727-0.313l17.651-17.65c0.416-0.416,0.416-1.039,0-1.454s-1.04-0.414-1.454,0l-17.651,17.651
	C331.272,265.025,331.272,265.648,331.687,266.062L331.687,266.062z M331.687,266.062"/>
<path stroke="#000000" stroke-width="0.5" d="M131.594,227.013h-15.677c-1.181,0-2.143,0.961-2.143,2.143v4.808
	c0,1.182,0.962,2.143,2.143,2.143h15.677c1.181,0,2.143-0.961,2.143-2.143v-4.808C133.736,227.975,132.774,227.013,131.594,227.013
	L131.594,227.013z M130.981,233.352H116.53v-3.583h14.451V233.352z M130.981,233.352"/>
<path stroke="#000000" stroke-width="0.5" d="M158.596,215.105l0.022-0.01l-10.33-20.421c-0.834-1.65-2.502-2.676-4.352-2.676
	h-1.963V190.1c0-0.761-0.615-1.377-1.377-1.377h-33.684c-0.76,0-1.377,0.617-1.377,1.377v1.897h-1.963
	c-1.849,0-3.516,1.026-4.352,2.676l-10.328,20.421l0.021,0.01c-0.441,0.729-0.697,1.583-0.697,2.497v21.573
	c0,2.661,2.164,4.824,4.824,4.824h61.428c2.66,0,4.824-2.164,4.824-4.824v-21.573C159.294,216.689,159.038,215.834,158.596,215.105
	L158.596,215.105z M141.974,195.059h1.963c0.689,0,1.311,0.381,1.621,0.997l8.458,16.722h-5.751v-5.145
	c0-0.761-0.617-1.377-1.377-1.377h-1.705v-7.389c0-0.761-0.616-1.378-1.377-1.378h-1.832V195.059z M145.51,209.01v3.768h-7.269
	c-1.247,0-2.384,0.735-2.896,1.872l-1.984,4.401c-0.019,0.042-0.061,0.068-0.106,0.068h-18.998c-0.045,0-0.087-0.026-0.104-0.068
	l-1.986-4.401c-0.512-1.137-1.648-1.872-2.895-1.872h-7.27v-3.768H145.51z M108.292,191.478h30.928v6.011h-30.928V191.478z
	 M142.429,200.243v6.012h-37.346v-6.012H142.429z M101.952,196.056c0.313-0.615,0.934-0.997,1.621-0.997h1.963v2.429h-1.831
	c-0.761,0-1.377,0.617-1.377,1.377v7.389h-1.704c-0.762,0-1.377,0.617-1.377,1.377v5.146h-5.752L101.952,196.056z M154.47,240.938
	H93.042c-0.973,0-1.764-0.791-1.764-1.763v-21.573c0-0.972,0.791-1.764,1.764-1.764h16.229c0.045,0,0.086,0.027,0.105,0.069
	l1.984,4.402c0.513,1.137,1.649,1.871,2.896,1.871h18.998c1.247,0,2.384-0.734,2.896-1.871l1.984-4.402
	c0.02-0.042,0.061-0.069,0.106-0.069h16.228c0.973,0,1.763,0.792,1.763,1.764v21.573
	C156.231,240.148,155.441,240.938,154.47,240.938L154.47,240.938z M154.47,240.938"/>
<rect x="108.292" y="191.478" fill="#FFFFFF" stroke="#000000" stroke-width="0.5" width="30.928" height="6.011"/>
<rect x="105.083" y="200.243" fill="#FFFFFF" stroke="#000000" stroke-width="0.5" width="37.346" height="6.012"/>
<path fill="#FFFFFF" stroke="#000000" stroke-width="0.5" d="M99.247,207.632c0-0.761,0.615-1.377,1.377-1.377h1.704v-7.389
	c0-0.76,0.616-1.377,1.377-1.377h1.831v-2.429h-1.963c-0.688,0-1.309,0.381-1.621,0.997l-8.457,16.722h5.752V207.632z"/>
<path fill="#FFFFFF" stroke="#000000" stroke-width="0.5" d="M102.001,212.778h7.27c1.246,0,2.383,0.735,2.895,1.872l1.986,4.401
	c0.018,0.042,0.06,0.068,0.104,0.068h18.998c0.046,0,0.088-0.026,0.106-0.068l1.984-4.401c0.513-1.137,1.649-1.872,2.896-1.872
	h7.269v-3.768h-43.509V212.778z"/>
<path fill="#FFFFFF" stroke="#000000" stroke-width="0.5" d="M145.183,198.867v7.389h1.705c0.76,0,1.377,0.616,1.377,1.377v5.145
	h5.751l-8.458-16.722c-0.311-0.615-0.932-0.997-1.621-0.997h-1.963v2.43h1.832C144.566,197.489,145.183,198.105,145.183,198.867z"/>
<path fill="#FFFFFF" stroke="#000000" stroke-width="0.5" d="M154.469,215.838h-16.228c-0.046,0-0.087,0.027-0.106,0.069
	l-1.984,4.402c-0.513,1.137-1.649,1.871-2.896,1.871h-18.998c-1.246,0-2.383-0.734-2.896-1.871l-1.984-4.402
	c-0.02-0.042-0.061-0.069-0.105-0.069H93.042c-0.973,0-1.764,0.792-1.764,1.764v21.573c0,0.972,0.791,1.763,1.764,1.763h61.428
	c0.972,0,1.762-0.791,1.762-1.763v-21.573C156.231,216.63,155.441,215.838,154.469,215.838z M133.736,233.963
	c0,1.182-0.962,2.143-2.143,2.143h-15.677c-1.181,0-2.143-0.961-2.143-2.143v-4.808c0-1.181,0.962-2.143,2.143-2.143h15.677
	c1.181,0,2.143,0.961,2.143,2.143V233.963z"/>
<rect x="116.53" y="229.768" fill="#FFFFFF" stroke="#000000" stroke-width="0.5" width="14.451" height="3.583"/>
</svg>
