<?xml version="1.0" encoding="utf-8"?>
<!-- Generator: Adobe Illustrator 15.1.0, SVG Export Plug-In  -->
<!DOCTYPE svg PUBLIC "-//W3C//DTD SVG 1.1//EN" "http://www.w3.org/Graphics/SVG/1.1/DTD/svg11.dtd" [
	<!ENTITY ns_flows "http://ns.adobe.com/Flows/1.0/">
]>
<svg version="1.1"
	 xmlns="http://www.w3.org/2000/svg" xmlns:xlink="http://www.w3.org/1999/xlink" xmlns:a="http://ns.adobe.com/AdobeSVGViewerExtensions/3.0/"
	 x="0px" y="0px" width="500px" height="500px" viewBox="-84.009 -64.849 500 500" enable-background="new -84.009 -64.849 500 500"
	 xml:space="preserve">
<defs>
</defs>
<path fill="none" stroke="#010101" stroke-width="5" stroke-linecap="square" stroke-linejoin="round" stroke-dasharray="0,12" d="
	M4.732,204.233c-15.26-94.927,49.33-184.238,144.264-199.505c94.928-15.244,184.244,49.346,199.49,144.279
	c15.262,94.915-49.324,184.242-144.26,199.502C109.301,363.763,19.984,299.165,4.732,204.233z"/>
<path fill-rule="evenodd" clip-rule="evenodd" d="M198.223,211.963h7.502c0.559,0.136,1.137,0,1.703,0.1
	c3.762,0.18,7.537,0.536,11.249,1.211c0.363,0.109,0.823,0.107,1.067,0.442c0.229,0.382,0.413,0.797,0.555,1.214
	c0.3,1.035,0.553,2.102,0.488,3.188c-0.665,0.223-1.372,0.043-2.058,0.08c-1.265-0.129-2.544-0.148-3.809-0.275
	c-1.557-0.056-3.103-0.237-4.662-0.315c-0.609-0.097-1.23-0.048-1.839-0.126c-0.766-0.07-1.536-0.021-2.296-0.131
	c-1.012,0.01-2.029-0.209-3.025-0.01c-1.83,2.627-3.817,5.144-5.683,7.747c-3.398,4.69-6.792,9.39-9.783,14.349
	c-0.503,0.771-0.924,1.584-1.411,2.366c-0.652,1.258-1.392,2.468-1.999,3.752c-0.376,0.751-0.785,1.481-1.085,2.261
	c-0.151,0.292-0.31,0.7-0.701,0.71c-1.793,0.136-3.632,0.34-5.402-0.083c0.005,0.015,0.017,0.059,0.021,0.078
	c-0.06-0.015-0.185-0.041-0.248-0.059c-0.322-0.072-0.657-0.136-0.969-0.243c-0.065-0.106-0.13-0.208-0.191-0.315
	c0.007-0.291-0.037-0.603,0.117-0.867c2.889-5.87,6.527-11.337,10.343-16.642c2.621-3.704,5.361-7.317,7.992-11.021
	c0.445-0.556,0.851-1.134,1.268-1.71c-0.362-0.1-0.742-0.094-1.111-0.036c-2.39,0.061-4.773,0.321-7.147,0.585
	c-2.451,0.299-4.886,0.719-7.28,1.307c-0.511,0.096-1.072-0.002-1.481-0.325c-0.868-0.719-1.689-1.488-2.518-2.251
	c-0.457-0.544-1.042-1.103-1.042-1.87c0.09-0.098,0.18-0.194,0.27-0.292c0.644-0.209,1.316-0.291,1.976-0.441
	c0.315-0.059,0.625-0.124,0.942-0.188c6.039-1.124,12.157-1.824,18.292-2.084C196.915,211.955,197.579,212.104,198.223,211.963
	L198.223,211.963z"/>
<path fill-rule="evenodd" clip-rule="evenodd" d="M241.534,218.111c0.469-0.311,1.049-0.271,1.574-0.16
	c1.319,0.26,2.638,0.622,3.854,1.21c0.279,0.126,0.48,0.359,0.663,0.593c0.061,0.262,0.095,0.531,0.109,0.799
	c-0.231,0.281-0.5,0.537-0.785,0.763c-1.142,0.988-2.269,1.989-3.405,2.979c-0.848,0.816-1.773,1.545-2.582,2.395
	c-1.333,1.2-2.594,2.459-3.84,3.743c-0.641,0.761-1.387,1.436-2.025,2.198c-0.717,0.711-1.341,1.516-2.014,2.273
	c-1.926,2.22-3.726,4.549-5.455,6.922c-0.279,0.396-0.466,0.894-0.365,1.384c0.122,0.469,0.627,0.738,1.086,0.741
	c0.622,0.026,1.246-0.168,1.79-0.474c2.115-1.53,4.093-3.27,5.977-5.081c0.938-0.807,1.732-1.764,2.662-2.574
	c1.181-1.254,2.427-2.443,3.634-3.673c0.753-0.776,1.566-1.503,2.264-2.331c1.204-1.042,2.254-2.259,3.434-3.332
	c1.817-1.742,3.707-3.42,5.669-4.998c0.631-0.545,1.351-0.986,1.962-1.548c0.52-0.002,1.046-0.031,1.566,0.017
	c1.227,0.098,2.354,0.637,3.463,1.13c0.391,0.163,0.736,0.43,0.967,0.794c0.012,0.258,0.012,0.525-0.183,0.725
	c-0.559,0.502-1.175,0.941-1.775,1.389c-1.338,1.042-2.654,2.108-3.956,3.193c-0.92,0.814-1.831,1.64-2.754,2.456
	c-1.156,1.129-2.322,2.246-3.427,3.427c-1.292,1.469-2.64,2.897-3.823,4.461c-1.2,1.453-2.288,2.992-3.364,4.537
	c-0.376,0.506-0.755,1.059-0.804,1.703c0.056,0.653,0.455,1.227,0.916,1.663c0.046-0.131,0.097-0.262,0.141-0.389
	c-0.017,0.148-0.02,0.292-0.021,0.44c0.454,0.24,0.957,0.42,1.479,0.415c0.511-0.054,1.03-0.185,1.47-0.457
	c1.394-0.886,2.669-1.952,3.815-3.138c0.69-0.685,1.38-1.36,2.006-2.101c2.371-2.579,4.537-5.341,6.968-7.862
	c0.274-0.361,0.615-0.66,0.925-0.983c0.187-0.187,0.372-0.384,0.619-0.483c1.86,0.02,3.745,0.316,5.453,1.088
	c0.166,0.248,0.408,0.52,0.311,0.848c-0.136,0.353-0.439,0.591-0.675,0.87c-0.705,0.809-1.518,1.513-2.201,2.339
	c-0.218,0.245-0.466,0.451-0.68,0.701c-0.515,0.619-1.117,1.164-1.645,1.78c-0.843,0.975-1.749,1.899-2.501,2.946
	c-0.678,0.862-1.358,1.727-1.839,2.713c-0.209,0.403-0.386,0.828-0.571,1.244c0.207,0.58,0.964,0.811,1.503,0.592
	c2.36-0.913,4.561-2.195,6.611-3.674c1.265-1.014,2.446-2.131,3.672-3.201c0.583-0.493,1.105-1.064,1.702-1.548
	c0.445-0.407,0.833-0.874,1.312-1.253c0.603-0.51,1.064-1.156,1.645-1.695c0.345-0.345,0.699-0.807,1.234-0.797
	c1.822,0.129,3.587,0.686,5.294,1.303c0.496,0.218,0.751,0.803,0.527,1.309c-0.289,0.318-0.615,0.6-0.942,0.877
	c-1.421,1.35-2.893,2.637-4.274,4.026c-1.715,1.574-3.323,3.265-4.981,4.901c-0.544,0.665-1.19,1.233-1.749,1.885
	c-1.501,1.581-2.96,3.211-4.371,4.877c-0.488,0.573-0.942,1.176-1.467,1.709c0.002,0.112,0.007,0.215,0.014,0.326
	c0.627,0.029,1.231,0.204,1.851,0.262c6.067,1.127,12.11,2.628,17.764,5.125c0.486,0.185,0.733,0.748,0.682,1.243
	c-0.294,0.831-0.745,1.594-1.238,2.317c-0.209,0.345-0.61,0.534-1.008,0.529c-0.496,0.029-0.933-0.238-1.399-0.345
	c-4.309-1.394-8.675-2.623-13.088-3.629c-2.337-0.485-4.681-0.956-7.043-1.297c-1.335,1.71-2.526,3.532-3.702,5.358
	c-0.665,0.957-1.144,2.04-1.921,2.914c-0.799,0.044-1.596-0.088-2.39-0.175c-0.637-0.126-1.285-0.229-1.89-0.462
	c-0.42-0.155-0.913-0.276-1.132-0.719c0.292-0.889,0.789-1.69,1.186-2.535c0.685-1.365,1.45-2.687,2.241-3.988
	c0.297-0.428,0.576-0.869,0.838-1.316c-1.173-0.141-2.344-0.232-3.514-0.389c-2.475-0.18-4.955-0.374-7.434-0.49
	c-0.573,0.039-1.132-0.117-1.71-0.082c-2.919-0.049-5.844-0.029-8.765-0.029c-0.605-0.006-1.208,0-1.81,0.023
	c-0.532,0.024-1.066-0.039-1.6,0.049c-0.565,0.088-1.131-0.005-1.694,0.073c-0.5,0.067-1.008,0.015-1.505,0.082
	c-0.68,0.098-1.37,0.029-2.057,0.122c-4.742,0.301-9.476,0.777-14.196,1.35c-1.571,0.199-3.144,0.35-4.709,0.617
	c-3.553,0.477-7.097,1.035-10.638,1.589c-1.606,0.301-3.235,0.505-4.841,0.811c-3.146,0.534-6.289,1.083-9.429,1.676
	c-0.669,0.103-1.332,0.263-2.002,0.351c-0.857-0.098-1.717-0.229-2.526-0.545c-0.716-0.232-1.334-0.665-2.017-0.967
	c-0.012-0.038-0.041-0.106-0.053-0.141c-0.056-0.015-0.176-0.043-0.234-0.053c-0.341-0.18-0.641-0.423-0.884-0.719v-0.36
	c0.216-0.471,0.741-0.714,1.216-0.864c7.033-1.851,14.18-3.254,21.364-4.381c0.943-0.132,1.882-0.277,2.822-0.413
	c4.17-0.588,8.355-1.083,12.55-1.458c4.237-0.398,8.48-0.699,12.728-0.879c0.694-0.106,1.396-0.02,2.092-0.121
	c0.92,0.033,1.841-0.063,2.756-0.078c0.576,0.073,1.141-0.077,1.713-0.059c1.211,0,2.418,0.01,3.625,0
	c0.724-0.102,1.455-0.048,2.184-0.058c0.641,0.01,1.279-0.039,1.914,0.054c1.331,0.023,2.66-0.006,3.985,0.014
	c0.799,0.137,1.608,0.006,2.407,0.103c0.474,0.049,0.945-0.015,1.414,0.044c0.568,0.092,1.147-0.005,1.715,0.092
	c2.74,0.121,5.474,0.33,8.202,0.578c0.627,0.054,1.246,0.141,1.875,0.16c0.571-0.743,1.115-1.511,1.656-2.277
	c0.189-0.156,0.311-0.36,0.447-0.559c0.432-0.637,0.939-1.223,1.331-1.885c-0.746,0.313-1.438,0.815-2.266,0.889
	c-0.986,0.056-2.008-0.18-2.824-0.743c-0.568-0.374-0.974-0.933-1.358-1.481c-0.218,0.095-0.42,0.213-0.612,0.35
	c-1.71,0.971-3.602,1.627-5.557,1.841c-1.467,0.146-3.02,0.067-4.345-0.622c-0.94-0.461-1.756-1.141-2.482-1.895l0.034,0.054
	c-0.177-0.315-0.452-0.554-0.638-0.857c-0.207-0.313-0.409-0.634-0.527-0.988c-0.083-0.238-0.131-0.495-0.289-0.694
	c-0.35,0.16-0.634,0.432-0.969,0.619c-1.912,1.173-3.954,2.164-6.113,2.795c-1.249,0.321-2.607,0.477-3.845,0.037
	c-0.502-0.131-0.901-0.474-1.338-0.736c-0.238-0.131-0.416-0.332-0.582-0.544c-0.27-0.335-0.537-0.68-0.758-1.047
	c-0.029,0.062-0.079,0.188-0.104,0.253c0.031-0.644-0.404-1.168-0.574-1.766c-0.109,0.029-0.219,0.036-0.318,0.097
	c-1.197,0.87-2.478,1.622-3.781,2.317c-0.544,0.357-1.151,0.59-1.734,0.874c-1.224,0.646-2.533,1.103-3.854,1.521
	c-1.25,0.359-2.558,0.578-3.856,0.408c-0.899-0.281-1.87-0.524-2.566-1.195c-0.321-0.379-0.63-0.771-0.844-1.214
	c-0.802,0.224-1.439,0.782-2.18,1.132c-0.564,0.271-1.141,0.546-1.745,0.724c-0.622,0.063-1.271,0.073-1.884-0.112
	c-0.7-0.165-1.319-0.534-1.951-0.874c-0.478-0.267-0.9-0.632-1.381-0.896c-0.045,0.051-0.138,0.147-0.188,0.196
	c0.068-0.093,0.136-0.178,0.208-0.258c-0.167-0.141-0.354-0.253-0.58-0.265c-0.024-0.049-0.055-0.095-0.077-0.141l-0.038-0.031
	c-0.349-0.632-0.858-1.149-1.2-1.783c-0.471-0.952-0.886-1.953-1.035-3.009c-0.141-0.586-0.091-1.2,0.095-1.771
	c0.144-0.452,0.506-0.775,0.777-1.151c0.755-0.918,1.533-1.817,2.377-2.657c0.311-0.423,0.748-0.719,1.114-1.098
	c0.528-0.573,1.162-1.059,1.736-1.594c2.381-2.011,5.005-3.76,7.813-5.112c0.784-0.356,1.558-0.789,2.437-0.847
	c0.957-0.112,1.926,0.106,2.836,0.396c1.079,0.474,1.994,1.248,2.865,2.025c0.358,0.444,0.808,0.807,1.137,1.28
	c0.467,0.52,0.775,1.165,1.181,1.743c0.121,0.44,0.268,0.884,0.243,1.351c-0.03,0.714,0.083,1.457-0.167,2.146
	c-0.146,0.501-0.501,0.904-0.849,1.283c-1.648,1.656-3.279,3.332-5.057,4.848c-0.246,0.223-0.539,0.498-0.53,0.859
	c-0.021,0.379,0.219,0.695,0.424,0.986c0.168,0.024,0.334,0.059,0.504,0.092c0.083-0.033,0.168-0.067,0.258-0.095
	c0.933-0.24,1.749-0.779,2.528-1.323c0.858-0.612,1.698-1.258,2.479-1.963c0.583-0.471,1.116-0.995,1.688-1.479
	c0.335-0.265,0.61-0.58,0.913-0.877c-0.043-0.059-0.079-0.116-0.122-0.175c0.074,0.034,0.148,0.068,0.218,0.106
	c0.459-0.383,0.837-0.854,1.307-1.219c1.411-1.389,2.796-2.793,4.198-4.188c0.386-0.402,0.815-0.779,1.169-1.214
	c0.601-0.675,1.298-1.249,1.876-1.938c0.634-0.694,1.365-1.302,1.957-2.04c0.535-0.573,1.13-1.088,1.637-1.69
	c0.561-0.609,1.197-1.151,1.722-1.795c0.639-0.658,1.304-1.299,1.95-1.955c0.449-0.563,0.986-1.049,1.496-1.559
	c0.689-0.552,1.246-1.244,1.923-1.822C240.12,219.209,240.776,218.588,241.534,218.111L241.534,218.111z M211.508,234.137
	c-0.01,0.061-0.027,0.185-0.034,0.242c-0.046,0.146-0.138,0.287-0.229,0.413c-0.724,1.03-1.499,2.035-2.399,2.925
	c-0.153,0.155-0.255,0.363-0.436,0.498c-0.52,0.366-0.88,0.91-1.4,1.284c-1.059,0.957-2.217,1.798-3.412,2.574
	c-0.986,0.627-2,1.21-3.06,1.71c-0.454,0.175-0.854,0.573-1.383,0.486C201.538,238.532,206.652,235.769,211.508,234.137
	L211.508,234.137z"/>
<path fill-rule="evenodd" clip-rule="evenodd" d="M221.164,277.926c0.668-0.515,1.563-0.461,2.353-0.34
	c0.168,0.039,0.337,0.083,0.501,0.137c-0.01,0.334-0.01,0.67,0,1c-0.576-0.165-1.175-0.325-1.78-0.209
	c-0.176,0.039-0.286,0.185-0.42,0.291c-0.194,0.607-0.144,1.244-0.157,1.875c0.562,0.025,1.135,0.01,1.699,0.01
	c0,0.219,0.003,0.442,0,0.666l0.086-0.044c-0.109,0.083-0.079,0.229-0.096,0.35c-0.551,0.005-1.107,0.01-1.66-0.005
	c-0.047,1.909-0.006,3.818-0.024,5.723c-0.43,0-0.858,0-1.29,0c-0.002-1.904,0-3.809,0-5.718c-0.277-0.005-0.56,0-0.834,0.024
	l-0.013-0.072l-0.06,0.077c-0.01-0.335-0.003-0.665-0.006-0.995c0.303-0.006,0.607-0.006,0.912-0.006
	C220.392,279.742,220.354,278.597,221.164,277.926L221.164,277.926z"/>
<path fill-rule="evenodd" clip-rule="evenodd" d="M258.748,277.645c0.433,0,0.853,0,1.285,0c0.007,3.244,0.007,6.489,0.002,9.734
	c-0.432,0-0.857-0.005-1.29,0C258.746,284.134,258.738,280.889,258.748,277.645L258.748,277.645z"/>
<path fill-rule="evenodd" clip-rule="evenodd" d="M230.16,278.12c1.003-0.218,2.042-0.01,3.017,0.272
	c-0.029,0.403-0.008,0.807-0.018,1.209c-0.459-0.136-0.901-0.325-1.365-0.418c-0.656-0.198-1.481-0.198-1.979,0.346
	c-0.483,0.451-0.35,1.302,0.155,1.695c1.018,0.811,2.329,1.214,3.221,2.2c0.813,0.928,0.733,2.463-0.158,3.317
	c-0.144,0.117-0.284,0.238-0.428,0.35c-0.854,0.52-1.911,0.632-2.88,0.457c-0.53-0.059-1.035-0.214-1.555-0.32
	c-0.005-0.447-0.005-0.904,0.007-1.355c0.806,0.359,1.654,0.689,2.545,0.729c0.736,0.024,1.522-0.428,1.659-1.2
	c0.051-0.485-0.126-1.005-0.5-1.325c-0.983-0.797-2.264-1.186-3.111-2.152c-0.621-0.637-0.687-1.646-0.359-2.438
	C228.756,278.801,229.412,278.285,230.16,278.12L230.16,278.12z"/>
<path fill-rule="evenodd" clip-rule="evenodd" d="M262.377,278.228c0.428,0,0.857,0,1.287,0c0.01,0.433,0.005,0.864,0.002,1.307
	c-0.43-0.01-0.862-0.01-1.29,0C262.372,279.092,262.375,278.66,262.377,278.228L262.377,278.228z"/>
<path fill-rule="evenodd" clip-rule="evenodd" d="M172.012,278.232c0.966,0.01,1.937-0.059,2.894,0.063
	c0.847-0.053,1.811,0.15,2.33,0.889c0.164,0.268,0.285,0.559,0.362,0.87c0.001,0.446,0.042,0.898-0.025,1.346
	c-0.162,0.655-0.522,1.287-1.087,1.676c-0.89,0.655-2.046,0.743-3.119,0.738c0.016,1.185,0.008,2.375,0.002,3.565
	c-0.45-0.005-0.901-0.005-1.352,0C172.006,284.333,172.017,281.282,172.012,278.232L172.012,278.232z M173.372,279.267
	c0.787,0.015,1.639-0.044,2.354,0.345c0.253,0.117,0.321,0.403,0.432,0.632c0.15,0.675,0.011,1.418-0.461,1.938
	c-0.659,0.505-1.516,0.616-2.324,0.588C173.378,281.599,173.374,280.438,173.372,279.267L173.372,279.267z"/>
<path fill-rule="evenodd" clip-rule="evenodd" d="M235.506,278.228c0.43,0,0.864-0.005,1.289,0.005c0,0.432,0.01,0.859-0.005,1.302
	c-0.425-0.01-0.854-0.01-1.279,0C235.503,279.092,235.506,278.66,235.506,278.228L235.506,278.228z"/>
<path fill-rule="evenodd" clip-rule="evenodd" d="M272.427,278.232c0.439-0.005,0.872-0.005,1.307,0
	c0,0.428,0.002,0.859-0.005,1.297c-0.432,0-0.867,0-1.302-0.005C272.427,279.092,272.43,278.66,272.427,278.232L272.427,278.232z"/>
<path fill-rule="evenodd" clip-rule="evenodd" d="M276.633,279.393c0.246,0,0.493-0.004,0.736-0.058
	c-0.002,0.451,0,0.903-0.002,1.354c0.59,0.01,1.18-0.004,1.771,0.01c-0.013,0.321-0.013,0.642-0.003,0.962
	c-0.59,0.005-1.178,0.005-1.768,0c0.009,1.244-0.01,2.492,0.009,3.735c0.02,0.525,0.292,1.176,0.911,1.142
	c0.075,0.02,0.151,0.039,0.227,0.059c0.201-0.059,0.407-0.087,0.619-0.126c-0.008,0.296-0.008,0.592,0.005,0.884
	c-0.161,0.063-0.328,0.102-0.488,0.15c-0.194,0.005-0.394,0.02-0.581,0.068c-0.379-0.093-0.799-0.073-1.122-0.312
	c-0.35-0.199-0.537-0.572-0.724-0.913c-0.046-0.218-0.102-0.442-0.092-0.67c0.007-1.341,0.002-2.682,0.005-4.018
	c-0.282,0.005-0.571,0.005-0.853-0.005c0.005-0.32,0.005-0.646,0-0.967c0.284,0,0.57,0,0.854,0
	c-0.005-0.407-0.005-0.815-0.002-1.224C276.306,279.461,276.473,279.451,276.633,279.393L276.633,279.393z"/>
<path fill-rule="evenodd" clip-rule="evenodd" d="M179.977,280.942c0.653-0.369,1.439-0.485,2.178-0.374
	c0.861,0.054,1.661,0.554,2.135,1.264c0.426,0.655,0.62,1.457,0.583,2.244c0.029,0.748-0.176,1.505-0.563,2.142
	c-0.435,0.68-1.173,1.132-1.964,1.277c-0.681,0.059-1.405,0.083-2.046-0.219c-1.118-0.451-1.779-1.676-1.809-2.851
	C178.342,283.133,178.803,281.643,179.977,280.942L179.977,280.942z M180.833,281.7c0.257-0.146,0.556-0.165,0.845-0.224
	c0.367,0.073,0.785,0.093,1.069,0.374c0.449,0.351,0.632,0.919,0.75,1.452c0.004,0.773,0.095,1.589-0.264,2.303
	c-0.249,0.525-0.785,0.967-1.397,0.933c-0.039,0.015-0.116,0.044-0.16,0.059c-0.463-0.083-0.986-0.165-1.291-0.563
	c-0.681-0.903-0.686-2.146-0.415-3.206C180.132,282.381,180.368,281.89,180.833,281.7L180.833,281.7z"/>
<path fill-rule="evenodd" clip-rule="evenodd" d="M246.348,280.554c0.512-0.111,1.076-0.005,1.506,0.297
	c0.109,0.087,0.216,0.175,0.32,0.271c0.056,0.126,0.136,0.253,0.224,0.369c0.165,0.394,0.177,0.826,0.213,1.249
	c0,1.544,0,3.094,0,4.639c-0.435,0-0.86-0.005-1.292,0c-0.002-1.643,0.002-3.284-0.002-4.931c-0.073-0.233-0.153-0.471-0.284-0.68
	c-0.666-0.413-1.426,0.01-1.943,0.461c-0.202,0.204-0.389,0.428-0.568,0.656c0.002,1.496,0,2.997,0,4.493c-0.435,0-0.862,0-1.299,0
	c0-1.579,0-3.158,0-4.741c0.01-0.253-0.09-0.49-0.16-0.729c-0.063-0.054-0.126-0.112-0.188-0.165
	c-0.449-0.263-1.027-0.137-1.433,0.155c-0.408,0.253-0.724,0.617-1.015,0.991c0,1.496,0,2.992,0,4.488
	c-0.432-0.005-0.86-0.005-1.29,0c0-2.229-0.008-4.459,0.002-6.689c0.433,0.006,0.855,0.006,1.288,0c0,0.389,0,0.773,0,1.156
	c0.378-0.505,0.84-1.005,1.457-1.199c0.241-0.107,0.5-0.063,0.748-0.117c0.411,0.024,0.833,0.103,1.159,0.365
	c0.304,0.276,0.537,0.602,0.716,0.971C244.905,281.205,245.558,280.637,246.348,280.554L246.348,280.554z"/>
<path fill-rule="evenodd" clip-rule="evenodd" d="M253.403,280.686c0.303-0.107,0.631-0.122,0.95-0.176
	c0.306,0.044,0.626,0.059,0.916,0.18c0.726,0.263,1.224,0.947,1.462,1.657c0.265,0.854,0.262,1.787,0.085,2.667
	c-0.212,0.966-0.777,1.957-1.739,2.341c-0.556,0.237-1.176,0.185-1.756,0.106l-0.09,0.098c0.01-0.034,0.029-0.103,0.039-0.137
	c-0.467-0.116-0.848-0.432-1.154-0.786c0.005,1.044,0,2.093,0,3.143h-1.231c0-3.031,0.002-6.058,0-9.089
	c0.413,0.006,0.823,0.006,1.236,0c-0.005,0.379-0.01,0.758,0.008,1.137C252.429,281.331,252.856,280.898,253.403,280.686
	L253.403,280.686z M253.255,281.841c0.345-0.204,0.748-0.185,1.132-0.18c0.291,0.117,0.614,0.224,0.794,0.511
	c0.33,0.529,0.41,1.175,0.376,1.797c0.032,0.82-0.104,1.787-0.787,2.342c-0.255,0.203-0.585,0.218-0.891,0.291
	c-0.039-0.02-0.126-0.054-0.168-0.068c-0.619-0.015-1.168-0.394-1.603-0.811c0.02-0.991,0.005-1.987,0.007-2.982
	C252.456,282.395,252.796,282.025,253.255,281.841L253.255,281.841z"/>
<path fill-rule="evenodd" clip-rule="evenodd" d="M267.3,280.826c0.874-0.394,1.858-0.326,2.776-0.189
	c0.177,0.043,0.354,0.078,0.534,0.116c0.01,0.35,0.007,0.704,0.002,1.06c-0.702-0.205-1.442-0.355-2.178-0.253
	c-0.678,0.175-1.185,0.758-1.384,1.418c-0.214,0.72-0.197,1.516,0.063,2.229c0.25,0.681,0.879,1.244,1.625,1.283
	c0.686,0.082,1.329-0.166,1.955-0.395c-0.012,0.355-0.014,0.715-0.007,1.069c-0.898,0.311-1.885,0.49-2.827,0.286
	c-1.181-0.291-2.028-1.364-2.283-2.516c-0.136-0.666-0.128-1.351,0.013-2.012C265.789,282.012,266.428,281.181,267.3,280.826
	L267.3,280.826z"/>
<path fill-rule="evenodd" clip-rule="evenodd" d="M197.824,280.676c0.822-0.258,1.838-0.248,2.494,0.373
	c0.037,0.029,0.113,0.078,0.148,0.103c0.784,0.826,0.914,2.035,0.884,3.123c-1.401-0.015-2.804,0.005-4.207-0.005
	c0.091,0.617,0.261,1.259,0.701,1.729c0.277,0.243,0.618,0.413,0.977,0.501c0.832,0.111,1.682-0.02,2.457-0.336
	c0.007,0.336,0.029,0.68-0.017,1.021c-0.515,0.15-1.048,0.281-1.583,0.33c-0.919,0.121-1.917-0.093-2.625-0.709
	c-0.246-0.219-0.45-0.467-0.657-0.719c-0.487-0.836-0.663-1.837-0.504-2.788C196.019,282.172,196.763,281.103,197.824,280.676
	L197.824,280.676z M198.349,281.54c0.27-0.073,0.554-0.02,0.823,0c0.719,0.248,0.879,1.059,0.912,1.725
	c-0.963,0.044-1.927,0.02-2.889,0.015c0.052-0.312,0.104-0.627,0.195-0.928C197.586,281.978,197.902,281.599,198.349,281.54
	L198.349,281.54z"/>
<path fill-rule="evenodd" clip-rule="evenodd" d="M204.683,281.769c0.442-0.884,1.472-1.424,2.451-1.19
	c0.005,0.389,0.001,0.777,0.005,1.166c-0.54-0.146-1.13-0.121-1.602,0.194c-0.434,0.32-0.935,0.777-0.874,1.37
	c0.008,1.359,0.005,2.715,0.001,4.07c-0.427,0-0.865-0.005-1.294,0c-0.011-2.225,0.006-4.455-0.009-6.689
	c0.435,0,0.871,0.006,1.303,0C204.663,281.049,204.661,281.409,204.683,281.769L204.683,281.769z"/>
<path fill-rule="evenodd" clip-rule="evenodd" d="M213.782,280.787c0.57-0.243,1.197-0.287,1.803-0.224
	c1.161,0.049,2.188,0.913,2.537,2.001c0.194,0.603,0.28,1.244,0.229,1.881c-0.074,0.451-0.142,0.908-0.329,1.335
	c-0.354,0.787-1.054,1.438-1.905,1.642c-0.313,0.103-0.645,0.083-0.964,0.137c-0.35-0.049-0.708-0.049-1.048-0.141
	c0.003-0.054,0.013-0.156,0.018-0.209c-0.01,0.048-0.03,0.141-0.04,0.189c-0.935-0.268-1.664-1.06-1.949-1.978
	c-0.257-0.903-0.286-1.895,0.006-2.793C212.402,281.822,212.999,281.122,213.782,280.787L213.782,280.787z M214.147,281.759
	c0.641-0.364,1.515-0.369,2.107,0.097c0.372,0.32,0.56,0.782,0.67,1.248c0.101,0.607,0.101,1.229,0.005,1.842
	c-0.123,0.602-0.425,1.209-1.011,1.486c-0.561,0.209-1.239,0.194-1.754-0.117c-0.72-0.539-0.888-1.5-0.855-2.336
	C213.277,283.167,213.494,282.288,214.147,281.759L214.147,281.759z"/>
<path fill-rule="evenodd" clip-rule="evenodd" d="M279.664,280.689c0.452,0,0.906,0,1.36,0.01c0.561,1.525,1.154,3.041,1.734,4.557
	c-0.018,0.102-0.049,0.204-0.063,0.311c0.09,0.015,0.178,0.006,0.263-0.029c0.598-1.632,1.294-3.234,1.938-4.848
	c0.394,0.006,0.782,0.006,1.171,0.006v0.111c-1.207,2.987-2.397,5.979-3.597,8.972h-1.326c0.352-0.816,0.733-1.622,1.083-2.448
	c-0.48-1.186-0.93-2.38-1.396-3.57c-0.141-0.335-0.224-0.714-0.479-0.986C280.271,282.04,279.854,281.395,279.664,280.689
	L279.664,280.689z"/>
<path fill-rule="evenodd" clip-rule="evenodd" d="M185.548,280.705c0.423-0.02,0.842-0.006,1.269-0.01
	c0.479,1.66,0.925,3.337,1.418,4.993c0.539-1.651,1.04-3.317,1.535-4.983c0.423-0.02,0.849-0.016,1.271-0.01
	c0.2,0.636,0.341,1.291,0.538,1.928l-0.174,0.015c0.059,0.005,0.12,0.015,0.181,0.029c0.13,0.472,0.241,0.942,0.377,1.413
	c0.036,0.17,0.056,0.355,0.252,0.408c-0.039,0.005-0.111,0.015-0.151,0.015c0.133,0.398,0.209,0.816,0.338,1.214
	c0.284-0.825,0.534-1.666,0.822-2.486c0.167-0.442,0.225-0.928,0.488-1.326c0.167-0.068,0.042-0.252,0.052-0.379
	c0.099-0.281,0.2-0.549,0.283-0.836c0.364,0.006,0.729,0,1.099,0.01c-0.72,2.225-1.472,4.436-2.156,6.67
	c-0.429,0.015-0.863,0.005-1.291,0.01c-0.381-1.385-0.744-2.77-1.142-4.144c-0.089-0.068-0.297-0.214-0.039-0.199
	c-0.066-0.238-0.135-0.462-0.2-0.694c-0.529,1.676-1.045,3.352-1.557,5.032c-0.434,0.005-0.86,0-1.287,0.005
	C186.828,285.154,186.22,282.924,185.548,280.705L185.548,280.705z"/>
<path fill-rule="evenodd" clip-rule="evenodd" d="M235.506,280.695c0.427-0.006,0.857,0.004,1.284-0.01
	c0.024,2.234,0.003,4.464,0.005,6.693c-0.425,0-0.859-0.005-1.287,0C235.503,285.154,235.506,282.924,235.506,280.695
	L235.506,280.695z"/>
<path fill-rule="evenodd" clip-rule="evenodd" d="M262.377,287.379c0-2.229-0.01-4.459,0.005-6.689
	c0.423,0.01,0.85,0.006,1.275-0.004c0.027,2.234,0.007,4.464,0.012,6.693C263.236,287.379,262.805,287.374,262.377,287.379
	L262.377,287.379z"/>
<path fill-rule="evenodd" clip-rule="evenodd" d="M272.424,280.695c0.437-0.006,0.875,0,1.307-0.006
	c0.005,2.234,0.002,4.46,0.002,6.689c-0.435-0.005-0.867,0-1.304,0C272.424,285.149,272.437,282.924,272.424,280.695
	L272.424,280.695z"/>
<path d="M96.884,193.096c0-4.764-3.875-8.639-8.637-8.639c-4.762,0-8.637,3.875-8.637,8.639c0,4.761,3.875,8.636,8.637,8.636
	C93.009,201.731,96.884,197.856,96.884,193.096L96.884,193.096z M88.247,198.691c-3.087,0-5.597-2.511-5.597-5.596
	c0-3.087,2.51-5.598,5.597-5.598c3.086,0,5.596,2.511,5.596,5.598C93.843,196.181,91.333,198.691,88.247,198.691L88.247,198.691z
	 M88.247,198.691"/>
<path d="M162.192,184.457c-4.763,0-8.637,3.875-8.637,8.639c0,4.761,3.874,8.636,8.637,8.636c4.762,0,8.636-3.875,8.636-8.636
	C170.828,188.332,166.954,184.457,162.192,184.457L162.192,184.457z M162.192,198.691c-3.086,0-5.597-2.511-5.597-5.596
	c0-3.087,2.51-5.598,5.597-5.598c3.084,0,5.595,2.511,5.595,5.598C167.787,196.181,165.276,198.691,162.192,198.691L162.192,198.691
	z M162.192,198.691"/>
<path d="M92.969,213.131c-3.367,3.367-3.367,8.847,0,12.215c1.683,1.684,3.895,2.525,6.106,2.525s4.424-0.842,6.108-2.525
	c3.368-3.368,3.368-8.848,0-12.215C101.815,209.763,96.336,209.764,92.969,213.131L92.969,213.131z M103.033,223.195
	c-2.183,2.182-5.733,2.182-7.915,0c-2.182-2.182-2.182-5.732,0-7.914c1.09-1.092,2.524-1.638,3.957-1.638
	c1.434,0,2.867,0.546,3.958,1.638C105.215,217.463,105.215,221.014,103.033,223.195L103.033,223.195z M103.033,223.195"/>
<path d="M125.22,221.43c-4.764,0-8.638,3.875-8.638,8.638c0,4.762,3.874,8.636,8.638,8.636c4.762,0,8.636-3.874,8.636-8.636
	C133.855,225.305,129.981,221.43,125.22,221.43L125.22,221.43z M125.22,235.664c-3.087,0-5.597-2.512-5.597-5.597
	s2.51-5.597,5.597-5.597c3.085,0,5.595,2.512,5.595,5.597S128.305,235.664,125.22,235.664L125.22,235.664z M125.22,235.664"/>
<path d="M145.255,213.131c-3.367,3.367-3.367,8.847,0,12.215c1.685,1.684,3.896,2.525,6.108,2.525c2.21,0,4.423-0.842,6.106-2.525
	c3.367-3.368,3.367-8.848,0-12.215C154.102,209.763,148.623,209.763,145.255,213.131L145.255,213.131z M155.319,223.195
	c-2.182,2.182-5.732,2.182-7.914,0c-2.183-2.182-2.183-5.732,0-7.914c1.091-1.092,2.524-1.638,3.958-1.638
	c1.433,0,2.865,0.546,3.957,1.638C157.502,217.463,157.502,221.014,155.319,223.195L155.319,223.195z M155.319,223.195"/>
<path d="M151.363,175.585c2.21,0,4.423-0.843,6.106-2.526c3.367-3.367,3.367-8.848,0-12.215c-3.368-3.367-8.847-3.367-12.215,0
	c-3.367,3.367-3.367,8.848,0,12.215C146.939,174.742,149.151,175.585,151.363,175.585L151.363,175.585z M147.405,162.994
	c1.091-1.091,2.524-1.637,3.958-1.637c1.433,0,2.865,0.546,3.957,1.637c2.182,2.182,2.182,5.732,0,7.914
	c-2.183,2.182-5.732,2.182-7.915,0C145.223,168.727,145.223,165.177,147.405,162.994L147.405,162.994z M147.405,162.994"/>
<path d="M125.22,164.76c4.762,0,8.636-3.875,8.636-8.637c0.001-4.764-3.874-8.638-8.636-8.638c-4.764,0-8.638,3.874-8.638,8.638
	C116.582,160.885,120.456,164.76,125.22,164.76L125.22,164.76z M125.22,150.526c3.085,0,5.595,2.511,5.595,5.597
	c0,3.084-2.51,5.596-5.595,5.596c-3.087,0-5.597-2.512-5.597-5.596C119.623,153.037,122.133,150.526,125.22,150.526L125.22,150.526z
	 M125.22,150.526"/>
<path d="M99.075,175.585c2.212,0,4.424-0.843,6.108-2.526c3.368-3.367,3.368-8.848,0-12.215s-8.847-3.367-12.214,0
	s-3.367,8.848,0,12.215C94.652,174.742,96.863,175.585,99.075,175.585L99.075,175.585z M95.119,162.994
	c1.09-1.091,2.524-1.637,3.957-1.637c1.434,0,2.867,0.546,3.958,1.637c2.182,2.182,2.182,5.732,0,7.914
	c-2.183,2.182-5.732,2.182-7.915,0S92.937,165.177,95.119,162.994L95.119,162.994z M95.119,162.994"/>
<path d="M132.709,180.466H117.73c-0.841,0-1.521,0.68-1.521,1.521v22.218c0,0.84,0.68,1.52,1.521,1.52h14.979
	c0.839,0,1.52-0.68,1.52-1.52v-22.218C134.229,181.146,133.549,180.466,132.709,180.466L132.709,180.466z M131.189,202.684H119.25
	v-4.597h11.939V202.684z M131.189,195.046H119.25v-3.901h11.939V195.046z M131.189,188.104H119.25v-4.598h11.939V188.104z
	 M131.189,188.104"/>
<path d="M123.699,168.273v7.289c0,0.841,0.68,1.521,1.521,1.521c0.839,0,1.52-0.68,1.52-1.521v-7.289c0-0.84-0.681-1.521-1.52-1.521
	C124.379,166.752,123.699,167.434,123.699,168.273L123.699,168.273z M123.699,168.273"/>
<path d="M126.74,217.916v-7.29c0-0.839-0.681-1.521-1.52-1.521c-0.841,0-1.521,0.682-1.521,1.521v7.29
	c0,0.84,0.68,1.521,1.521,1.521C126.059,219.437,126.74,218.756,126.74,217.916L126.74,217.916z M126.74,217.916"/>
<path d="M108.742,174.469c-0.594-0.595-1.556-0.595-2.149,0c-0.594,0.594-0.594,1.555,0,2.149l5.155,5.155
	c0.297,0.297,0.686,0.445,1.075,0.445c0.39,0,0.779-0.148,1.075-0.445c0.594-0.594,0.594-1.557,0-2.149L108.742,174.469z
	 M108.742,174.469"/>
<path d="M143.847,211.722c0.593-0.594,0.593-1.557,0-2.15l-5.155-5.154c-0.594-0.595-1.558-0.595-2.151,0
	c-0.593,0.593-0.593,1.556,0,2.149l5.155,5.155c0.298,0.297,0.687,0.445,1.076,0.445
	C143.16,212.167,143.549,212.019,143.847,211.722L143.847,211.722z M143.847,211.722"/>
<path d="M98.877,193.096c0,0.838,0.681,1.52,1.521,1.52h7.29c0.841,0,1.521-0.682,1.521-1.52c0-0.842-0.68-1.521-1.521-1.521h-7.29
	C99.558,191.574,98.877,192.254,98.877,193.096L98.877,193.096z M98.877,193.096"/>
<path d="M150.04,191.574h-7.29c-0.839,0-1.52,0.68-1.52,1.521c0,0.838,0.681,1.52,1.52,1.52h7.29c0.841,0,1.521-0.682,1.521-1.52
	C151.561,192.254,150.881,191.574,150.04,191.574L150.04,191.574z M150.04,191.574"/>
<path d="M111.748,204.417l-5.156,5.154c-0.592,0.595-0.592,1.557,0,2.15c0.298,0.297,0.687,0.445,1.077,0.445
	c0.389,0,0.777-0.148,1.074-0.445l5.155-5.155c0.594-0.594,0.594-1.557,0-2.149C113.304,203.822,112.342,203.822,111.748,204.417
	L111.748,204.417z M111.748,204.417"/>
<path d="M137.616,182.219c0.389,0,0.778-0.148,1.075-0.445l5.155-5.155c0.593-0.595,0.593-1.558,0-2.149
	c-0.594-0.595-1.557-0.595-2.15,0l-5.155,5.155c-0.594,0.593-0.594,1.556,0,2.149C136.837,182.07,137.227,182.219,137.616,182.219
	L137.616,182.219z M137.616,182.219"/>
<path stroke="#FFFFFF" d="M341.702,118.735c0,3.58-2.912,6.492-6.49,6.492v4.328c3.578,0,6.49,2.91,6.49,6.49h4.328
	c0-3.58,2.911-6.49,6.492-6.49v-4.328c-3.581,0-6.492-2.912-6.492-6.492H341.702L341.702,118.735z M343.866,129.62
	c-0.632-0.85-1.381-1.596-2.23-2.23c0.85-0.631,1.599-1.379,2.23-2.23c0.633,0.852,1.381,1.6,2.231,2.23
	C345.247,128.024,344.499,128.771,343.866,129.62L343.866,129.62z M343.866,129.62"/>
<path stroke="#FFFFFF" stroke-width="2" d="M69.042,23.467c0,5.293-4.311,9.6-9.6,9.6v6.403c5.289,0,9.6,4.308,9.6,9.601h6.4
	c0-5.293,4.307-9.601,9.602-9.601v-6.403c-5.295,0-9.602-4.307-9.602-9.6H69.042L69.042,23.467z M72.243,39.568
	c-0.935-1.258-2.04-2.367-3.296-3.3c1.256-0.935,2.361-2.042,3.296-3.3c0.937,1.258,2.042,2.365,3.3,3.3
	C74.285,37.201,73.18,38.311,72.243,39.568L72.243,39.568z M72.243,39.568"/>
<path stroke="#FFFFFF" d="M15.748,239.38c0,3.362-2.739,6.104-6.103,6.104v4.066c3.363,0,6.103,2.737,6.103,6.104h4.067
	c0-3.366,2.739-6.104,6.104-6.104v-4.066c-3.364,0-6.104-2.741-6.104-6.104H15.748L15.748,239.38z M17.782,249.612
	c-0.594-0.798-1.299-1.502-2.098-2.097c0.799-0.593,1.504-1.297,2.098-2.097c0.594,0.8,1.297,1.504,2.098,2.097
	C19.079,248.11,18.376,248.814,17.782,249.612L17.782,249.612z M17.782,249.612"/>
<path fill="#FFFFFF" d="M243.585,161.376h-0.132c-1.202-10.823-10.403-19.264-21.541-19.264c-7.537,0-14.372,3.827-18.325,10.131
	c-1.095-0.333-2.215-0.499-3.347-0.499c-5.888,0-10.804,4.247-11.84,9.841c-0.862-0.141-1.734-0.209-2.608-0.209
	c-9.295,0-16.857,7.561-16.857,16.857c0,9.295,7.562,16.855,16.857,16.855h26.49h4.814h26.489c9.295,0,16.857-7.561,16.857-16.855
	C260.442,168.937,252.88,161.376,243.585,161.376z"/>
<path d="M216.228,194.987h26.489c9.295,0,16.856-7.562,16.856-16.856c0-9.296-7.562-16.856-16.856-16.856h-0.132
	c-1.203-10.824-10.403-19.264-21.541-19.264c-7.537,0-14.373,3.827-18.325,10.13c-1.096-0.333-2.215-0.5-3.347-0.5
	c-5.889,0-10.804,4.249-11.841,9.839c-0.862-0.135-1.735-0.205-2.609-0.205c-9.294,0-16.857,7.561-16.857,16.856
	c0,9.295,7.563,16.856,16.857,16.856h26.49 M184.922,190.17c-6.639,0-12.04-5.398-12.04-12.039c0-6.638,5.401-12.042,12.04-12.042
	c1.376,0,2.75,0.247,4.084,0.73c0.775,0.282,1.641,0.147,2.293-0.359c0.652-0.502,1.001-1.305,0.924-2.125l-0.078-0.652
	c0-3.981,3.243-7.225,7.226-7.225c1.109,0,2.222,0.285,3.301,0.844c0.574,0.301,1.247,0.354,1.858,0.153
	c0.613-0.204,1.122-0.643,1.409-1.22c2.87-5.805,8.656-9.409,15.104-9.409c9.294,0,16.856,7.56,16.856,16.79
	c-0.005,0.059-0.012,0.227-0.012,0.285c0,0.708,0.313,1.382,0.854,1.84c0.542,0.455,1.251,0.65,1.958,0.534
	c0.729-0.124,1.389-0.187,2.016-0.187c6.638,0,12.04,5.404,12.04,12.042c0,6.641-5.402,12.039-12.04,12.039H184.922z
	 M252.348,231.108"/>
<rect x="240.308" y="170.905" width="4.816" height="4.817"/>
<rect x="240.308" y="180.538" width="4.816" height="4.818"/>
<rect x="230.677" y="180.538" width="4.816" height="4.818"/>
<path d="M198.931,108.177c-1.777-13.142-15.362-23.21-31.755-23.21c-12.887,0-24.497,6.357-29.457,15.968
	c-0.117-0.004-0.236-0.007-0.355-0.007c-12.159,0-22.052,8.137-22.052,18.142v43.535c0,10.003,9.893,18.139,22.052,18.139h55.648
	c9.968,0,18.077-6.705,18.077-14.947v-43.533C211.09,115.848,206.167,110.234,198.931,108.177L198.931,108.177z M206.735,165.798
	c0,5.842-6.154,10.592-13.722,10.592h-55.648c-9.76,0-17.699-6.184-17.699-13.785V151.55c4.021,4.479,10.428,7.426,17.699,7.426
	h55.648c5.518,0,10.405-2.099,13.722-5.33V165.798z M206.735,144.029c0,5.842-6.154,10.593-13.722,10.593h-55.648
	c-9.76,0-17.699-6.184-17.699-13.784v-11.055c4.021,4.479,10.428,7.425,17.699,7.425h55.648c5.518,0,10.405-2.099,13.722-5.332
	V144.029z M193.013,132.854h-55.648c-9.76,0-17.699-6.184-17.699-13.785s7.939-13.787,17.699-13.787c0.324,0,0.64,0.032,0.957,0.061
	l0.566,0.046c0.967,0.073,1.788-0.455,2.153-1.304c3.831-8.831,14.333-14.766,26.136-14.766c14.759,0,26.87,9.108,27.567,20.734
	c0.06,0.984,0.771,1.808,1.736,2.003c6.04,1.23,10.256,5.426,10.256,10.206C206.735,128.104,200.581,132.854,193.013,132.854
	L193.013,132.854z M193.013,132.854"/>
<path d="M130.55,139.386c-1.203,0-2.178,0.974-2.178,2.177v4.353c0,1.203,0.975,2.176,2.178,2.176c1.203,0,2.177-0.973,2.177-2.176
	v-4.353C132.727,140.359,131.752,139.386,130.55,139.386L130.55,139.386z M130.55,139.386"/>
<path d="M139.257,141.563c-1.204,0-2.177,0.973-2.177,2.174v4.354c0,1.205,0.973,2.178,2.177,2.178c1.203,0,2.177-0.973,2.177-2.178
	v-4.354C141.434,142.535,140.46,141.563,139.257,141.563L139.257,141.563z M139.257,141.563"/>
<path d="M147.964,141.563c-1.203,0-2.177,0.973-2.177,2.174v4.354c0,1.205,0.974,2.178,2.177,2.178c1.202,0,2.176-0.973,2.176-2.178
	v-4.354C150.14,142.535,149.166,141.563,147.964,141.563L147.964,141.563z M147.964,141.563"/>
<path d="M198.029,145.915c0,2.404-1.95,4.354-4.354,4.354s-4.354-1.949-4.354-4.354c0-2.405,1.949-4.353,4.354-4.353
	S198.029,143.51,198.029,145.915L198.029,145.915z M198.029,145.915"/>
<path d="M184.969,145.915c0,2.404-1.951,4.354-4.354,4.354c-2.404,0-4.353-1.949-4.353-4.354c0-2.405,1.949-4.353,4.353-4.353
	C183.018,141.563,184.969,143.51,184.969,145.915L184.969,145.915z M184.969,145.915"/>
<path d="M130.55,161.151c-1.203,0-2.178,0.975-2.178,2.178v4.354c0,1.203,0.975,2.177,2.178,2.177c1.203,0,2.177-0.974,2.177-2.177
	v-4.354C132.727,162.126,131.752,161.151,130.55,161.151L130.55,161.151z M130.55,161.151"/>
<path d="M139.257,163.329c-1.204,0-2.177,0.975-2.177,2.178v4.353c0,1.203,0.973,2.177,2.177,2.177c1.203,0,2.177-0.974,2.177-2.177
	v-4.353C141.434,164.304,140.46,163.329,139.257,163.329L139.257,163.329z M139.257,163.329"/>
<path d="M147.964,163.329c-1.203,0-2.177,0.975-2.177,2.178v4.353c0,1.203,0.974,2.177,2.177,2.177c1.202,0,2.176-0.974,2.176-2.177
	v-4.353C150.14,164.304,149.166,163.329,147.964,163.329L147.964,163.329z M147.964,163.329"/>
<path d="M198.029,167.683c0,2.404-1.95,4.354-4.354,4.354s-4.354-1.949-4.354-4.354s1.949-4.354,4.354-4.354
	S198.029,165.278,198.029,167.683L198.029,167.683z M198.029,167.683"/>
<path d="M184.969,167.683c0,2.404-1.951,4.354-4.354,4.354c-2.404,0-4.353-1.949-4.353-4.354s1.949-4.354,4.353-4.354
	C183.018,163.329,184.969,165.278,184.969,167.683L184.969,167.683z M184.969,167.683"/>
<path fill="#FFFFFF" d="M137.452,137.208c-7.272,0-13.679-2.944-17.698-7.424v11.055c0,7.602,7.939,13.785,17.698,13.785H193.1
	c7.567,0,13.723-4.752,13.723-10.595v-12.152c-3.317,3.233-8.204,5.331-13.723,5.331H137.452z M132.813,145.917
	c0,1.201-0.974,2.177-2.176,2.177c-1.204,0-2.178-0.976-2.178-2.177v-4.354c0-1.202,0.974-2.177,2.178-2.177
	c1.202,0,2.176,0.975,2.176,2.177V145.917z M141.521,148.094c0,1.202-0.974,2.175-2.177,2.175c-1.204,0-2.177-0.973-2.177-2.175
	v-4.355c0-1.202,0.973-2.176,2.177-2.176c1.203,0,2.177,0.974,2.177,2.176V148.094z M150.228,148.094
	c0,1.202-0.975,2.175-2.177,2.175c-1.203,0-2.177-0.973-2.177-2.175v-4.355c0-1.202,0.974-2.176,2.177-2.176
	c1.202,0,2.177,0.974,2.177,2.176V148.094z M180.703,150.269c-2.404,0-4.354-1.948-4.354-4.352c0-2.405,1.95-4.354,4.354-4.354
	s4.354,1.949,4.354,4.354C185.056,148.32,183.106,150.269,180.703,150.269z M198.116,145.917c0,2.403-1.949,4.352-4.353,4.352
	c-2.406,0-4.355-1.948-4.355-4.352c0-2.405,1.949-4.354,4.355-4.354C196.167,141.563,198.116,143.512,198.116,145.917z"/>
<path fill="#FFFFFF" d="M196.566,112.059c-0.964-0.197-1.676-1.02-1.736-2.005c-0.697-11.626-12.808-20.733-27.566-20.733
	c-11.802,0-22.306,5.935-26.136,14.765c-0.366,0.849-1.186,1.377-2.153,1.306l-0.566-0.048c-0.317-0.028-0.633-0.061-0.957-0.061
	c-9.759,0-17.698,6.187-17.698,13.789c0,7.601,7.939,13.784,17.698,13.784H193.1c7.567,0,13.723-4.751,13.723-10.592
	C206.822,117.483,202.605,113.288,196.566,112.059z"/>
<path fill="#FFFFFF" d="M137.452,158.977c-7.272,0-13.679-2.946-17.698-7.425v11.053c0,7.603,7.939,13.786,17.698,13.786H193.1
	c7.567,0,13.723-4.75,13.723-10.593v-12.151c-3.317,3.231-8.204,5.33-13.723,5.33H137.452z M132.813,167.685
	c0,1.201-0.974,2.176-2.176,2.176c-1.204,0-2.178-0.975-2.178-2.176v-4.354c0-1.204,0.974-2.178,2.178-2.178
	c1.202,0,2.176,0.974,2.176,2.178V167.685z M141.521,169.86c0,1.202-0.974,2.177-2.177,2.177c-1.204,0-2.177-0.975-2.177-2.177
	v-4.354c0-1.201,0.973-2.176,2.177-2.176c1.203,0,2.177,0.975,2.177,2.176V169.86z M150.228,169.86c0,1.202-0.975,2.177-2.177,2.177
	c-1.203,0-2.177-0.975-2.177-2.177v-4.354c0-1.201,0.974-2.176,2.177-2.176c1.202,0,2.177,0.975,2.177,2.176V169.86z
	 M180.703,172.037c-2.404,0-4.354-1.95-4.354-4.353c0-2.404,1.95-4.354,4.354-4.354s4.354,1.949,4.354,4.354
	C185.056,170.087,183.106,172.037,180.703,172.037z M198.116,167.685c0,2.402-1.949,4.353-4.353,4.353
	c-2.406,0-4.355-1.95-4.355-4.353c0-2.404,1.949-4.354,4.355-4.354C196.167,163.331,198.116,165.28,198.116,167.685z"/>
</svg>
