<?xml version="1.0" encoding="utf-8"?>
<!-- Generator: Adobe Illustrator 15.1.0, SVG Export Plug-In  -->
<!DOCTYPE svg PUBLIC "-//W3C//DTD SVG 1.1//EN" "http://www.w3.org/Graphics/SVG/1.1/DTD/svg11.dtd" [
	<!ENTITY ns_flows "http://ns.adobe.com/Flows/1.0/">
]>
<svg version="1.1"
	 xmlns="http://www.w3.org/2000/svg" xmlns:xlink="http://www.w3.org/1999/xlink" xmlns:a="http://ns.adobe.com/AdobeSVGViewerExtensions/3.0/"
	 x="0px" y="0px" width="500px" height="500px" viewBox="-70.143 25.088 500 500" enable-background="new -70.143 25.088 500 500"
	 xml:space="preserve">
<defs>
</defs>
<path stroke="#FFFFFF" d="M114.405,234.423c-22.326,0.878-39.38,10.601-39.38,22.884v59.07c0,12.879,18.738,22.973,42.662,22.973
	s42.661-10.094,42.661-22.973v-59.07c0-12.283-17.058-22.006-39.378-22.884 M153.781,316.377c0,7.761-14.821,16.406-36.094,16.406
	c-21.273,0-36.1-8.646-36.1-16.406v-7.321c7.49,6.41,20.708,10.603,36.1,10.603s28.607-4.192,36.094-10.603V316.377z
	 M153.781,296.688c0,7.762-14.821,16.405-36.094,16.405c-21.273,0-36.1-8.644-36.1-16.405v-7.323
	c7.49,6.411,20.708,10.603,36.1,10.603s28.607-4.191,36.094-10.603V296.688z M153.781,276.997c0,7.762-14.821,16.407-36.094,16.407
	c-21.273,0-36.1-8.646-36.1-16.407v-7.319c7.49,6.411,20.708,10.599,36.1,10.599s28.607-4.188,36.094-10.599V276.997z
	 M153.781,257.307c0,7.762-14.821,16.409-36.094,16.409c-21.273,0-36.1-8.647-36.1-16.409c0-7.354,13.321-15.488,32.818-16.323
	h6.565C140.461,241.818,153.781,249.953,153.781,257.307L153.781,257.307z"/>
<path stroke="#FFFFFF" d="M241.567,310.292v-16.168c0-3.21-0.938-6.187-2.528-8.644c-1.748,0.46-3.962-0.015-5.674,0.517
	c2.127,1.926,3.489,4.854,3.489,8.129v12.557c-0.643-0.377-1.303-0.723-1.975-1.037c-0.024-0.011-0.048-0.024-0.071-0.034
	c-0.094-0.044-0.188-0.085-0.285-0.129c-0.14-0.063-0.28-0.125-0.422-0.187c-0.067-0.028-0.133-0.057-0.2-0.084
	c-0.209-0.089-0.421-0.174-0.633-0.256c-0.005-0.002-0.011-0.002-0.014-0.006c-2.176-0.836-4.497-1.363-6.91-1.532
	c-0.056-0.003-0.112-0.007-0.168-0.011c-0.194-0.013-0.387-0.021-0.582-0.03c-0.064-0.003-0.127-0.006-0.192-0.007
	c-0.246-0.008-0.493-0.012-0.741-0.012c-0.248,0-0.496,0.004-0.742,0.012c-0.063,0.001-0.127,0.004-0.191,0.007
	c-0.194,0.009-0.389,0.018-0.583,0.03c-0.056,0.004-0.111,0.008-0.167,0.011c-2.415,0.169-4.733,0.696-6.91,1.532
	c-0.005,0.004-0.009,0.006-0.014,0.006c-0.213,0.082-0.425,0.167-0.634,0.256c-0.067,0.027-0.132,0.056-0.2,0.084
	c-0.141,0.062-0.283,0.123-0.423,0.187c-0.094,0.044-0.188,0.085-0.283,0.129c-0.024,0.01-0.049,0.023-0.073,0.034
	c-0.672,0.314-1.332,0.66-1.975,1.037v-12.557c0-5.042,3.224-9.262,7.507-10.266c0.936-1.771,1.817-2.777,1.817-4.654v-0.282
	c-7.754,0.085-14.039,6.868-14.039,15.2v16.168c-4.787,4.652-7.782,11.25-7.782,18.558c0,14.057,11.075,25.492,24.688,25.492
	c13.614,0,24.689-11.436,24.689-25.492C249.349,321.542,246.354,314.944,241.567,310.292z M224.66,349.628
	c-11.013,0-19.974-9.321-19.974-20.778c0-7.767,4.12-14.552,10.204-18.116c0.095-0.056,0.189-0.111,0.284-0.166
	c0.105-0.059,0.209-0.116,0.315-0.172c0.184-0.101,0.371-0.197,0.559-0.29c0.059-0.03,0.118-0.059,0.178-0.088
	c2.082-1.009,4.324-1.642,6.628-1.86c0.021-0.001,0.041-0.004,0.061-0.005c0.272-0.025,0.546-0.044,0.82-0.058
	c0.032-0.001,0.064-0.002,0.097-0.003c0.275-0.014,0.552-0.021,0.829-0.021c0.276,0,0.552,0.007,0.828,0.021
	c0.032,0.001,0.064,0.002,0.096,0.003c0.274,0.014,0.548,0.032,0.821,0.058c0.021,0.001,0.04,0.004,0.061,0.005
	c2.304,0.219,4.546,0.852,6.627,1.86c0.061,0.029,0.121,0.058,0.18,0.088c0.188,0.093,0.373,0.189,0.559,0.29
	c0.104,0.056,0.209,0.113,0.314,0.172c0.096,0.055,0.19,0.11,0.285,0.166c6.084,3.564,10.204,10.35,10.204,18.116
	C244.635,340.307,235.674,349.628,224.66,349.628z"/>
<path stroke="#FFFFFF" d="M233.365,285.997c1.712-0.531,3.927-0.057,5.674-0.517"/>
<path stroke="#FFFFFF" d="M231.615,325.011c0-3.834-3.121-6.956-6.955-6.956c-3.835,0-6.954,3.12-6.954,6.956
	c0,1.961,0.814,3.786,2.202,5.081l-1.668,7.479c-0.037,0.168-0.057,0.34-0.057,0.514c0,2.042,2.002,3.582,4.655,3.582h3.646
	c2.653,0,4.652-1.54,4.652-3.582c0-0.174-0.019-0.346-0.057-0.514l-1.668-7.479C230.801,328.797,231.615,326.972,231.615,325.011
	L231.615,325.011z M223.209,336.952l1.451-6.51l1.452,6.51H223.209z M225.688,327.003c-0.458,0.238-0.812,0.611-1.028,1.05
	c-0.216-0.438-0.57-0.812-1.027-1.05c-0.748-0.388-1.212-1.151-1.212-1.992c0-1.236,1.005-2.242,2.24-2.242
	c1.236,0,2.241,1.006,2.241,2.242C226.9,325.852,226.436,326.614,225.688,327.003L225.688,327.003z M225.688,327.003"/>
<path fill="none" stroke="#010101" stroke-width="5" stroke-linecap="square" stroke-linejoin="round" stroke-dasharray="0,12" d="
	M4.732,307.685c-15.26-94.927,49.33-184.238,144.264-199.505c94.928-15.244,184.244,49.346,199.49,144.279
	c15.262,94.915-49.324,184.242-144.26,199.502C109.301,467.214,19.984,402.616,4.732,307.685z"/>
<text transform="matrix(1 0 0 1 14.3896 20.0879)" font-family="'MyriadPro-Regular'" font-size="24">VPS Server</text>
<path stroke="#FFFFFF" d="M143.048,440.652c0,5.291-4.31,9.604-9.604,9.604v6.398c5.294,0,9.604,4.308,9.604,9.604h6.4
	c0-5.297,4.311-9.604,9.604-9.604v-6.398c-5.293,0-9.604-4.313-9.604-9.604H143.048L143.048,440.652z M146.249,456.754
	c-0.935-1.256-2.043-2.363-3.301-3.299c1.258-0.934,2.366-2.041,3.301-3.3c0.935,1.259,2.042,2.366,3.301,3.3
	C148.291,454.391,147.183,455.498,146.249,456.754L146.249,456.754z M146.249,456.754"/>
<path stroke="#FFFFFF" d="M336.595,202.883c0,3.58-2.912,6.492-6.49,6.492v4.328c3.578,0,6.49,2.91,6.49,6.49h4.328
	c0-3.58,2.911-6.49,6.492-6.49v-4.328c-3.581,0-6.492-2.912-6.492-6.492H336.595L336.595,202.883z M338.759,213.768
	c-0.632-0.85-1.381-1.596-2.23-2.23c0.85-0.631,1.599-1.379,2.23-2.23c0.633,0.852,1.381,1.6,2.231,2.23
	C340.14,212.172,339.392,212.918,338.759,213.768L338.759,213.768z M338.759,213.768"/>
<path stroke="#FFFFFF" d="M29.545,175.993c0,3.362-2.739,6.104-6.103,6.104v4.066c3.363,0,6.103,2.737,6.103,6.104h4.067
	c0-3.366,2.739-6.104,6.104-6.104v-4.066c-3.364,0-6.104-2.741-6.104-6.104H29.545L29.545,175.993z M31.58,186.226
	c-0.594-0.798-1.299-1.502-2.098-2.097c0.799-0.593,1.504-1.297,2.098-2.097c0.594,0.8,1.297,1.504,2.098,2.097
	C32.876,184.724,32.173,185.428,31.58,186.226L31.58,186.226z M31.58,186.226"/>
<path stroke="#FFFFFF" stroke-width="2" d="M348.106,330.096H300.35h-6.367h-22.288c-1.756,0-3.183,1.421-3.183,3.182v22.629
	c0,1.775,0.06,3.552,0.177,5.313c0.676,10.243,3.335,20.166,7.778,29.374c0.134,0.273,0.255,0.553,0.39,0.826
	c0.533,1.076,1.111,2.132,1.696,3.184c0.297,0.544,0.585,1.087,0.897,1.621c0.14,0.241,0.258,0.491,0.404,0.729l4.265,6.367
	c6.402,8.74,14.562,16.242,24.177,21.852c0.497,0.291,1.05,0.435,1.604,0.435c0.554,0,1.107-0.144,1.604-0.435
	c24.538-14.314,39.784-40.857,39.784-69.266v-22.629C351.288,331.517,349.862,330.096,348.106,330.096z M344.92,355.906
	c0,25.529-13.373,49.417-35.021,62.804c-8.936-5.524-16.429-12.854-22.187-21.329c-0.642-0.947-1.259-1.9-1.854-2.869
	c-0.37-0.609-0.744-1.217-1.103-1.838c-0.484-0.837-0.933-1.688-1.382-2.538c-0.384-0.734-0.78-1.458-1.138-2.206
	c-0.313-0.644-0.584-1.299-0.876-1.952c-0.838-1.872-1.605-3.779-2.29-5.721c-0.154-0.44-0.331-0.881-0.477-1.325
	c-0.332-1.01-0.622-2.033-0.91-3.057c-0.179-0.64-0.362-1.271-0.527-1.912c-0.241-0.944-0.453-1.901-0.654-2.861
	c-0.165-0.773-0.314-1.554-0.457-2.336c-0.153-0.861-0.299-1.722-0.421-2.588c-0.142-0.996-0.249-1.996-0.349-3.002
	c-0.069-0.688-0.15-1.377-0.202-2.068c-0.119-1.719-0.197-3.454-0.197-5.201v-19.444h70.044V355.906z"/>
<path stroke="#FFFFFF" stroke-width="2" d="M329.934,359.682l-23.219,23.221l-10.484-10.487l-4.5,4.504l12.733,12.733
	c0.623,0.619,1.439,0.935,2.251,0.935c0.818,0,1.63-0.315,2.253-0.935l25.466-25.471L329.934,359.682z M329.934,359.682"/>
<rect x="281.243" y="342.829" stroke="#FFFFFF" stroke-width="2" width="6.37" height="6.367"/>
<rect x="293.982" y="342.829" stroke="#FFFFFF" stroke-width="2" width="6.367" height="6.367"/>
<rect x="306.715" y="342.829" stroke="#FFFFFF" stroke-width="2" width="6.369" height="6.367"/>
<rect x="319.452" y="342.829" stroke="#FFFFFF" stroke-width="2" width="6.367" height="6.367"/>
<rect x="332.186" y="342.829" stroke="#FFFFFF" stroke-width="2" width="6.368" height="6.367"/>
<path fill="#FFFFFF" stroke="#FFFFFF" stroke-width="2" d="M274.876,355.906c0,1.747,0.079,3.482,0.197,5.201
	c0.052,0.691,0.133,1.381,0.202,2.068c0.1,1.006,0.207,2.006,0.349,3.002c0.122,0.866,0.268,1.727,0.421,2.588
	c0.142,0.782,0.292,1.563,0.457,2.336c0.201,0.96,0.414,1.917,0.654,2.861c0.166,0.642,0.348,1.272,0.527,1.912
	c0.288,1.023,0.578,2.047,0.91,3.057c0.146,0.444,0.323,0.885,0.477,1.325c0.685,1.941,1.452,3.849,2.29,5.721
	c0.292,0.653,0.563,1.309,0.876,1.952c0.357,0.748,0.753,1.472,1.138,2.206c0.449,0.85,0.897,1.701,1.382,2.538
	c0.358,0.621,0.733,1.229,1.103,1.838c0.595,0.969,1.212,1.922,1.854,2.869c5.758,8.476,13.25,15.805,22.187,21.329
	c21.648-13.387,35.021-37.274,35.021-62.804v-19.444h-70.044V355.906z M332.186,342.829h6.368v6.367h-6.368V342.829z
	 M319.452,342.829h6.367v6.367h-6.367V342.829z M306.715,342.829h6.369v6.367h-6.369V342.829z M293.982,342.829h6.367v6.367h-6.367
	V342.829z M296.231,372.415l10.484,10.487l23.219-23.221l4.5,4.5l-25.466,25.471c-0.624,0.619-1.436,0.935-2.253,0.935
	c-0.813,0-1.628-0.315-2.251-0.935l-12.733-12.733L296.231,372.415z M281.243,342.829h6.37v6.367h-6.37V342.829z"/>
<rect x="134.857" y="212.087" fill="#FFFFFF" width="56.333" height="96.077"/>
<rect x="138.857" y="284.088" fill="#FFFFFF" width="12.333" height="30.743"/>
<path d="M170.207,262.332c-4.682,0-8.492,3.809-8.492,8.492c0,4.683,3.81,8.492,8.492,8.492c4.683,0,8.494-3.81,8.494-8.492
	C178.7,266.141,174.89,262.332,170.207,262.332L170.207,262.332z M170.207,275.92c-2.809,0-5.094-2.287-5.094-5.096
	s2.286-5.096,5.094-5.096c2.81,0,5.096,2.287,5.096,5.096S173.017,275.92,170.207,275.92L170.207,275.92z M170.207,275.92"/>
<rect x="168.509" y="269.126" width="3.397" height="3.396"/>
<path d="M239.844,287.809v-16.984h-4.859c-0.299-0.854-0.642-1.687-1.024-2.488l3.43-3.431l-12.009-12.011l-3.432,3.432
	c-0.803-0.383-1.634-0.724-2.487-1.023v-4.86h-13.588V209.68H134.54v98.511h3.397v6.794h13.587v-6.794h37.366v6.794h13.587v-6.794
	h16.985v-4.859c0.854-0.3,1.686-0.642,2.487-1.024l3.432,3.431l12.009-12.009l-3.43-3.432c0.382-0.804,0.724-1.635,1.024-2.488
	H239.844z M137.937,213.077h64.541v10.19h-3.396v-6.794h-3.397v6.794h-3.396v-6.794h-3.397v6.794h-3.396v-6.794h-3.397v6.794H178.7
	v-6.794h-3.397v6.794h-37.366V213.077z M137.937,226.665h64.541v10.19h-3.396v-6.795h-3.397v6.795h-3.396v-6.795h-3.397v6.795
	h-3.396v-6.795h-3.397v6.795H178.7v-6.795h-3.397v6.795h-37.366V226.665z M137.937,240.252h64.541v10.19h-3.396v-6.794h-3.397v6.794
	h-3.396v-6.794h-3.397v6.794h-3.396v-6.794h-3.397v6.794H178.7v-6.794h-3.397v6.794h-37.366V240.252z M202.478,253.84v1.463
	c-0.854,0.298-1.686,0.641-2.488,1.023l-2.487-2.486H202.478z M148.127,311.587h-6.794v-3.396h6.794V311.587z M137.937,304.793
	V253.84h57.676l-11.065,11.065l3.43,3.431c-0.382,0.803-0.724,1.634-1.024,2.488h-4.858v16.984h4.86
	c0.298,0.854,0.642,1.687,1.024,2.488l-3.432,3.432l11.064,11.064H137.937z M199.082,311.587h-6.794v-3.396h6.794V311.587z
	 M202.478,304.793h-4.975l2.487-2.484c0.803,0.382,1.634,0.723,2.488,1.024V304.793z M232.588,293.729l-7.207,7.206l-2.796-2.796
	l-1.115,0.603c-1.302,0.707-2.713,1.286-4.193,1.728l-1.213,0.361v3.963h-10.19v-3.963l-1.215-0.361
	c-1.479-0.439-2.891-1.021-4.193-1.728l-1.115-0.603l-2.796,2.796l-7.207-7.206l2.796-2.796l-0.603-1.115
	c-0.707-1.302-1.286-2.714-1.728-4.192l-0.36-1.213h-3.962v-10.19h3.962l0.361-1.216c0.441-1.479,1.021-2.89,1.728-4.192
	l0.604-1.114l-2.796-2.797l7.207-7.206l2.796,2.796l1.114-0.603c1.304-0.707,2.714-1.285,4.194-1.728l1.213-0.36v-3.962h10.19v3.962
	l1.214,0.361c1.479,0.441,2.892,1.021,4.194,1.728l1.114,0.604l2.796-2.796l7.207,7.207l-2.796,2.796l0.604,1.113
	c0.706,1.303,1.286,2.715,1.728,4.193l0.359,1.214h3.963v10.19h-3.963l-0.361,1.214c-0.44,1.479-1.021,2.892-1.728,4.193
	l-0.603,1.114L232.588,293.729z M232.588,293.729"/>
<path d="M210.97,264.03c-8.428,0-15.286,6.858-15.286,15.286s6.858,15.287,15.286,15.287s15.287-6.859,15.287-15.287
	S219.397,264.03,210.97,264.03L210.97,264.03z M222.724,281.016c-0.289,2.008-1.081,3.854-2.246,5.407l-2.303-2.304l-2.402,2.402
	l2.304,2.303c-1.554,1.165-3.399,1.957-5.408,2.246v-3.262h-3.397v3.262c-2.009-0.289-3.854-1.081-5.408-2.246l2.303-2.303
	l-2.401-2.402l-2.303,2.304c-1.166-1.554-1.957-3.399-2.246-5.407h3.261v-3.397h-3.261c0.289-2.01,1.08-3.854,2.246-5.408
	l2.303,2.303l2.401-2.401l-2.303-2.303c1.554-1.166,3.398-1.955,5.408-2.245v3.261h3.397v-3.261
	c2.008,0.288,3.854,1.079,5.408,2.245l-2.304,2.303l2.402,2.401l2.303-2.303c1.165,1.555,1.956,3.398,2.246,5.408h-3.261v3.397
	H222.724z M222.724,281.016"/>
<path fill="#FFFFFF" d="M268.848,192.984h-0.142c-1.289-11.602-11.151-20.649-23.089-20.649c-8.079,0-15.406,4.103-19.643,10.858
	c-1.173-0.356-2.375-0.534-3.587-0.534c-6.312,0-11.581,4.553-12.692,10.547c-0.925-0.147-1.859-0.222-2.796-0.222
	c-9.964,0-18.07,8.104-18.07,18.069c0,9.962,8.105,18.067,18.07,18.067h28.394h5.161h28.394c9.963,0,18.069-8.105,18.069-18.067
	C286.917,201.088,278.812,192.984,268.848,192.984z"/>
<path d="M239.523,229.011h28.394c9.963,0,18.069-8.104,18.069-18.067c0-9.964-8.105-18.069-18.069-18.069h-0.142
	c-1.29-11.602-11.152-20.649-23.09-20.649c-8.079,0-15.406,4.104-19.643,10.859c-1.174-0.356-2.375-0.535-3.588-0.535
	c-6.311,0-11.58,4.554-12.691,10.546c-0.925-0.146-1.86-0.221-2.797-0.221c-9.963,0-18.069,8.105-18.069,18.069
	c0,9.963,8.106,18.067,18.069,18.067h28.395 M205.967,223.849c-7.117,0-12.906-5.788-12.906-12.905
	c0-7.115,5.789-12.908,12.906-12.908c1.475,0,2.948,0.265,4.378,0.783c0.83,0.303,1.759,0.156,2.457-0.386
	c0.7-0.537,1.074-1.397,0.991-2.277l-0.083-0.698c0-4.27,3.476-7.746,7.746-7.746c1.19,0,2.382,0.307,3.539,0.906
	c0.615,0.319,1.337,0.379,1.993,0.164c0.657-0.219,1.202-0.689,1.509-1.309c3.077-6.222,9.279-10.085,16.19-10.085
	c9.962,0,18.068,8.103,18.068,17.997c-0.004,0.063-0.012,0.242-0.012,0.307c0,0.758,0.335,1.48,0.916,1.971
	c0.581,0.488,1.341,0.698,2.098,0.574c0.783-0.134,1.49-0.201,2.162-0.201c7.116,0,12.906,5.793,12.906,12.908
	c0,7.117-5.79,12.905-12.906,12.905H205.967z M278.242,267.729"/>
<rect x="265.334" y="203.199" width="5.163" height="5.162"/>
<rect x="265.334" y="213.523" width="5.163" height="5.163"/>
<rect x="255.011" y="213.523" width="5.163" height="5.163"/>
</svg>
