<?xml version="1.0" encoding="utf-8"?>
<!-- Generator: Adobe Illustrator 15.1.0, SVG Export Plug-In  -->
<!DOCTYPE svg PUBLIC "-//W3C//DTD SVG 1.1//EN" "http://www.w3.org/Graphics/SVG/1.1/DTD/svg11.dtd" [
	<!ENTITY ns_flows "http://ns.adobe.com/Flows/1.0/">
]>
<svg version="1.1"
	 xmlns="http://www.w3.org/2000/svg" xmlns:xlink="http://www.w3.org/1999/xlink" xmlns:a="http://ns.adobe.com/AdobeSVGViewerExtensions/3.0/"
	 x="0px" y="0px" width="500px" height="500px" viewBox="-57.687 24.855 500 500" enable-background="new -57.687 24.855 500 500"
	 xml:space="preserve">
<defs>
</defs>
<text transform="matrix(1 0 0 1 81.9976 20.0879)" font-family="'MyriadPro-Regular'" font-size="24">Windows Cloud Hosting</text>
<path fill="none" stroke="#010101" stroke-width="5" stroke-linecap="square" stroke-linejoin="round" stroke-dasharray="0,12" d="
	M4.732,302.469c-15.26-94.927,49.332-184.238,144.265-199.505c94.927-15.244,184.245,49.346,199.489,144.279
	c15.262,94.915-49.324,184.242-144.258,199.502C109.301,461.998,19.984,397.4,4.732,302.469z"/>
<path d="M259.682,367.291l-0.042-36.805l45.287-6.15v42.955H259.682z M312.474,323.24l60.368-8.784v52.835h-60.368V323.24z
	 M372.857,374.84l-0.015,52.834l-60.368-8.493V374.84H372.857z M304.927,418.219l-45.251-6.2l-0.002-37.179h45.253V418.219z
	 M304.927,418.219"/>
<path stroke="#FFFFFF" d="M341.75,219.832c0,3.58-2.912,6.492-6.49,6.492v4.328c3.578,0,6.49,2.91,6.49,6.49h4.328
	c0-3.58,2.911-6.49,6.492-6.49v-4.328c-3.581,0-6.492-2.912-6.492-6.492H341.75L341.75,219.832z M343.914,230.717
	c-0.632-0.85-1.381-1.596-2.23-2.23c0.85-0.631,1.599-1.379,2.23-2.23c0.633,0.852,1.381,1.6,2.231,2.23
	C345.295,229.121,344.547,229.867,343.914,230.717L343.914,230.717z M343.914,230.717"/>
<path stroke="#FFFFFF" stroke-width="2" d="M68.09,124.563c0,5.293-4.311,9.6-9.6,9.6v6.403c5.289,0,9.6,4.308,9.6,9.601h6.4
	c0-5.293,4.307-9.601,9.602-9.601v-6.403c-5.295,0-9.602-4.307-9.602-9.6H68.09L68.09,124.563z M71.291,140.665
	c-0.935-1.258-2.04-2.367-3.296-3.3c1.256-0.935,2.361-2.042,3.296-3.3c0.937,1.258,2.042,2.365,3.3,3.3
	C73.333,138.298,72.227,139.407,71.291,140.665L71.291,140.665z M71.291,140.665"/>
<path stroke="#FFFFFF" d="M216.156,437.07c0,3.362-2.739,6.104-6.103,6.104v4.066c3.363,0,6.103,2.737,6.103,6.104h4.067
	c0-3.366,2.739-6.104,6.104-6.104v-4.066c-3.364,0-6.104-2.741-6.104-6.104H216.156L216.156,437.07z M218.19,447.303
	c-0.594-0.798-1.299-1.502-2.098-2.097c0.799-0.593,1.504-1.297,2.098-2.097c0.594,0.8,1.297,1.504,2.098,2.097
	C219.487,445.801,218.784,446.505,218.19,447.303L218.19,447.303z M218.19,447.303"/>
<path fill="#FFFFFF" d="M267.643,266.895h-0.13c-1.183-10.661-10.245-18.974-21.215-18.974c-7.422,0-14.154,3.769-18.047,9.978
	c-1.079-0.328-2.181-0.491-3.296-0.491c-5.798,0-10.64,4.183-11.662,9.69c-0.848-0.137-1.708-0.203-2.568-0.203
	c-9.155,0-16.602,7.444-16.602,16.601c0,9.153,7.447,16.601,16.602,16.601h26.089h4.742h26.089c9.154,0,16.602-7.447,16.602-16.601
	C284.244,274.339,276.797,266.895,267.643,266.895z"/>
<path d="M240.698,299.994h26.089c9.154,0,16.602-7.445,16.602-16.6c0-9.155-7.448-16.603-16.602-16.603h-0.13
	c-1.185-10.659-10.246-18.972-21.215-18.972c-7.423,0-14.156,3.77-18.048,9.977c-1.079-0.327-2.181-0.491-3.296-0.491
	c-5.799,0-10.639,4.183-11.661,9.689c-0.85-0.134-1.708-0.203-2.57-0.203c-9.154,0-16.603,7.447-16.603,16.603
	c0,9.154,7.448,16.6,16.603,16.6h26.089 M209.867,295.252c-6.539,0-11.858-5.317-11.858-11.857c0-6.537,5.319-11.86,11.858-11.86
	c1.354,0,2.708,0.244,4.022,0.72c0.763,0.279,1.616,0.145,2.258-0.354c0.643-0.493,0.987-1.284,0.91-2.093l-0.077-0.642
	c0-3.923,3.194-7.117,7.116-7.117c1.093,0,2.188,0.282,3.252,0.833c0.565,0.295,1.228,0.349,1.83,0.151
	c0.604-0.201,1.105-0.634,1.387-1.203c2.827-5.716,8.525-9.266,14.875-9.266c9.153,0,16.602,7.445,16.602,16.536
	c-0.005,0.058-0.012,0.223-0.012,0.28c0,0.697,0.308,1.36,0.841,1.812c0.534,0.447,1.232,0.643,1.928,0.527
	c0.719-0.123,1.369-0.185,1.986-0.185c6.539,0,11.858,5.323,11.858,11.86c0,6.54-5.319,11.857-11.858,11.857H209.867z
	 M276.273,335.57"/>
<rect x="264.414" y="276.279" width="4.744" height="4.743"/>
<rect x="264.414" y="285.764" width="4.744" height="4.745"/>
<rect x="254.929" y="285.764" width="4.744" height="4.745"/>
<path d="M223.663,214.499c-1.75-12.943-15.129-22.86-31.273-22.86c-12.691,0-24.127,6.262-29.011,15.726
	c-0.115-0.002-0.232-0.005-0.35-0.005c-11.975,0-21.719,8.014-21.719,17.867v42.877c0,9.85,9.744,17.864,21.719,17.864h54.807
	c9.816,0,17.803-6.604,17.803-14.722v-42.875C235.639,222.053,230.79,216.525,223.663,214.499L223.663,214.499z M231.35,271.247
	c0,5.753-6.062,10.433-13.515,10.433h-54.807c-9.612,0-17.431-6.091-17.431-13.576v-10.888c3.959,4.412,10.27,7.313,17.431,7.313
	h54.807c5.434,0,10.247-2.066,13.515-5.251V271.247z M231.35,249.809c0,5.754-6.062,10.433-13.515,10.433h-54.807
	c-9.612,0-17.431-6.091-17.431-13.576v-10.888c3.959,4.412,10.27,7.313,17.431,7.313h54.807c5.434,0,10.247-2.066,13.515-5.251
	V249.809z M217.835,238.803h-54.807c-9.612,0-17.431-6.09-17.431-13.576s7.819-13.578,17.431-13.578
	c0.319,0,0.629,0.031,0.942,0.059l0.557,0.046c0.953,0.071,1.761-0.449,2.121-1.284c3.772-8.697,14.117-14.542,25.741-14.542
	c14.535,0,26.463,8.97,27.149,20.421c0.059,0.969,0.76,1.779,1.71,1.973c5.948,1.211,10.101,5.344,10.101,10.051
	C231.35,234.124,225.288,238.803,217.835,238.803L217.835,238.803z M217.835,238.803"/>
<path d="M156.317,245.233c-1.186,0-2.145,0.96-2.145,2.146v4.287c0,1.185,0.959,2.144,2.145,2.144c1.184,0,2.144-0.959,2.144-2.144
	v-4.287C158.461,246.193,157.501,245.233,156.317,245.233L156.317,245.233z M156.317,245.233"/>
<path d="M164.893,247.379c-1.186,0-2.145,0.959-2.145,2.142v4.289c0,1.185,0.958,2.144,2.145,2.144c1.185,0,2.144-0.959,2.144-2.144
	v-4.289C167.036,248.338,166.078,247.379,164.893,247.379L164.893,247.379z M164.893,247.379"/>
<path d="M173.468,247.379c-1.185,0-2.144,0.959-2.144,2.142v4.289c0,1.185,0.958,2.144,2.144,2.144c1.185,0,2.143-0.959,2.143-2.144
	v-4.289C175.611,248.338,174.652,247.379,173.468,247.379L173.468,247.379z M173.468,247.379"/>
<path d="M222.775,251.666c0,2.367-1.919,4.287-4.287,4.287c-2.369,0-4.288-1.92-4.288-4.287c0-2.369,1.919-4.287,4.288-4.287
	C220.856,247.379,222.775,249.297,222.775,251.666L222.775,251.666z M222.775,251.666"/>
<path d="M209.913,251.666c0,2.367-1.92,4.287-4.288,4.287c-2.368,0-4.287-1.92-4.287-4.287c0-2.369,1.919-4.287,4.287-4.287
	C207.992,247.379,209.913,249.297,209.913,251.666L209.913,251.666z M209.913,251.666"/>
<path d="M156.317,266.672c-1.186,0-2.145,0.959-2.145,2.146v4.287c0,1.185,0.959,2.144,2.145,2.144c1.184,0,2.144-0.959,2.144-2.144
	v-4.287C158.461,267.631,157.501,266.672,156.317,266.672L156.317,266.672z M156.317,266.672"/>
<path d="M164.893,268.817c-1.186,0-2.145,0.959-2.145,2.144v4.287c0,1.185,0.958,2.144,2.145,2.144c1.185,0,2.144-0.959,2.144-2.144
	v-4.287C167.036,269.776,166.078,268.817,164.893,268.817L164.893,268.817z M164.893,268.817"/>
<path d="M173.468,268.817c-1.185,0-2.144,0.959-2.144,2.144v4.287c0,1.185,0.958,2.144,2.144,2.144c1.185,0,2.143-0.959,2.143-2.144
	v-4.287C175.611,269.776,174.652,268.817,173.468,268.817L173.468,268.817z M173.468,268.817"/>
<path d="M222.775,273.104c0,2.367-1.919,4.287-4.287,4.287c-2.369,0-4.288-1.92-4.288-4.287c0-2.368,1.919-4.287,4.288-4.287
	C220.856,268.817,222.775,270.736,222.775,273.104L222.775,273.104z M222.775,273.104"/>
<path d="M209.913,273.104c0,2.367-1.92,4.287-4.288,4.287c-2.368,0-4.287-1.92-4.287-4.287c0-2.368,1.919-4.287,4.287-4.287
	C207.992,268.817,209.913,270.736,209.913,273.104L209.913,273.104z M209.913,273.104"/>
<path fill="#FFFFFF" d="M163.115,243.092c-7.162,0-13.473-2.901-17.432-7.313v10.887c0,7.486,7.819,13.576,17.432,13.576h54.806
	c7.453,0,13.515-4.68,13.515-10.434V237.84c-3.268,3.185-8.081,5.252-13.515,5.252H163.115z M158.547,251.668
	c0,1.183-0.959,2.142-2.143,2.142c-1.186,0-2.145-0.959-2.145-2.142v-4.289c0-1.185,0.959-2.146,2.145-2.146
	c1.184,0,2.143,0.961,2.143,2.146V251.668z M167.122,253.81c0,1.186-0.959,2.145-2.145,2.145c-1.185,0-2.143-0.959-2.143-2.145
	v-4.288c0-1.184,0.958-2.143,2.143-2.143c1.186,0,2.145,0.959,2.145,2.143V253.81z M175.698,253.81c0,1.186-0.959,2.145-2.144,2.145
	s-2.144-0.959-2.144-2.145v-4.288c0-1.184,0.959-2.143,2.144-2.143s2.144,0.959,2.144,2.143V253.81z M205.711,255.954
	c-2.368,0-4.288-1.92-4.288-4.286c0-2.369,1.92-4.289,4.288-4.289s4.288,1.92,4.288,4.289
	C209.999,254.034,208.079,255.954,205.711,255.954z M222.861,251.668c0,2.366-1.92,4.286-4.287,4.286
	c-2.369,0-4.288-1.92-4.288-4.286c0-2.369,1.919-4.289,4.288-4.289C220.941,247.379,222.861,249.299,222.861,251.668z"/>
<path fill="#FFFFFF" d="M221.335,218.321c-0.95-0.192-1.651-1.004-1.71-1.974c-0.686-11.45-12.614-20.421-27.149-20.421
	c-11.624,0-21.968,5.847-25.741,14.542c-0.359,0.836-1.167,1.355-2.121,1.285l-0.557-0.045c-0.313-0.029-0.624-0.061-0.942-0.061
	c-9.612,0-17.432,6.092-17.432,13.579c0,7.486,7.819,13.577,17.432,13.577h54.806c7.453,0,13.515-4.681,13.515-10.433
	C231.436,223.664,227.283,219.531,221.335,218.321z"/>
<path fill="#FFFFFF" d="M163.115,264.529c-7.162,0-13.473-2.901-17.432-7.313v10.887c0,7.486,7.819,13.577,17.432,13.577h54.806
	c7.453,0,13.515-4.679,13.515-10.433v-11.969c-3.268,3.184-8.081,5.25-13.515,5.25H163.115z M158.547,273.105
	c0,1.184-0.959,2.143-2.143,2.143c-1.186,0-2.145-0.959-2.145-2.143v-4.287c0-1.187,0.959-2.146,2.145-2.146
	c1.184,0,2.143,0.96,2.143,2.146V273.105z M167.122,275.248c0,1.187-0.959,2.145-2.145,2.145c-1.185,0-2.143-0.958-2.143-2.145
	v-4.287c0-1.184,0.958-2.143,2.143-2.143c1.186,0,2.145,0.959,2.145,2.143V275.248z M175.698,275.248
	c0,1.187-0.959,2.145-2.144,2.145s-2.144-0.958-2.144-2.145v-4.287c0-1.184,0.959-2.143,2.144-2.143s2.144,0.959,2.144,2.143
	V275.248z M205.711,277.393c-2.368,0-4.288-1.92-4.288-4.287c0-2.369,1.92-4.287,4.288-4.287s4.288,1.918,4.288,4.287
	C209.999,275.473,208.079,277.393,205.711,277.393z M222.861,273.105c0,2.367-1.92,4.287-4.287,4.287
	c-2.369,0-4.288-1.92-4.288-4.287c0-2.369,1.919-4.287,4.288-4.287C220.941,268.818,222.861,270.736,222.861,273.105z"/>
<circle fill="#FFFFFF" cx="134.07" cy="323.276" r="45.16"/>
<path d="M136.275,315.666v-23.221h-3.825v23.221c-3.29,0.854-5.736,3.821-5.736,7.377c0,0.588,0.081,1.156,0.209,1.708
	l-18.334,9.998l1.83,3.357l18.28-9.969c1.399,1.557,3.41,2.555,5.665,2.555c4.217,0,7.649-3.432,7.649-7.649
	C142.013,319.487,139.566,316.52,136.275,315.666L136.275,315.666z M134.364,326.866c-2.11,0-3.825-1.715-3.825-3.823
	c0-2.109,1.715-3.825,3.825-3.825c2.108,0,3.824,1.716,3.824,3.825C138.188,325.151,136.472,326.866,134.364,326.866
	L134.364,326.866z M134.364,326.866"/>
<path d="M190.612,338.341l13.387-13.386h-31.44c0.033-0.646,0.052-1.286,0.052-1.912c0-21.091-17.158-38.246-38.247-38.246
	c-21.09,0-38.248,17.155-38.248,38.246c0,21.089,17.157,38.246,38.248,38.246c11.122,0,21.475-4.788,28.684-13.013v17.629
	l13.387-13.386l15.298,15.3l14.178-14.18L190.612,338.341z M163.048,341.998c-6.413,9.69-17.089,15.467-28.684,15.467
	c-18.981,0-34.422-15.442-34.422-34.422c0-18.98,15.441-34.423,34.422-34.423c18.979,0,34.421,15.442,34.421,34.423
	c0,0.617-0.066,1.271-0.103,1.912h-5.634V341.998z M176.435,347.111l-9.562,9.562v-27.895h27.893l-9.562,9.563l15.299,15.299
	l-8.771,8.771L176.435,347.111z M176.435,347.111"/>
<rect x="174.522" y="309.656" width="3.824" height="7.649"/>
<path d="M160.208,324.819l-5.408-5.408l2.704-2.703l5.409,5.408L160.208,324.819z M160.208,324.819"/>
<rect x="147.75" y="336.428" width="7.649" height="3.825"/>
<path d="M157.5,359.97l-2.705-2.704l5.408-5.41l2.705,2.706L157.5,359.97z M157.5,359.97"/>
<rect x="174.522" y="359.376" width="3.824" height="7.65"/>
<rect x="197.471" y="336.428" width="7.649" height="3.825"/>
<path d="M195.361,316.708l2.705,2.706l-5.408,5.408l-2.705-2.704L195.361,316.708z M195.361,316.708"/>
<path d="M134.364,365.113c-23.199,0-42.073-18.874-42.073-42.07c0-23.198,18.874-42.072,42.073-42.072
	c16.903,0,32.104,10.054,38.726,25.611l3.519-1.499c-6.208-14.582-19.33-24.709-34.596-27.277v-7.43
	c2.341-2.102,3.824-5.141,3.824-8.528c0-6.329-5.146-11.476-11.473-11.476c-6.329,0-11.475,5.146-11.475,11.476
	c0,3.387,1.483,6.425,3.825,8.528v7.421c-21.676,3.653-38.246,22.546-38.246,45.246c0,25.307,20.588,45.896,45.896,45.896
	c6.979,0,13.694-1.542,19.956-4.573l-1.666-3.444C146.914,363.704,140.762,365.113,134.364,365.113L134.364,365.113z
	 M138.188,277.315c-1.267-0.103-2.539-0.168-3.824-0.168c-1.289,0-2.564,0.065-3.825,0.171v-4.666
	c1.198,0.426,2.482,0.67,3.825,0.67c1.342,0,2.625-0.245,3.824-0.67V277.315z M134.364,254.199c4.217,0,7.649,3.431,7.649,7.648
	s-3.432,7.649-7.649,7.649c-4.219,0-7.65-3.432-7.65-7.649S130.145,254.199,134.364,254.199L134.364,254.199z M134.364,254.199"/>
</svg>
