<?xml version="1.0" encoding="utf-8"?>
<!-- Generator: Adobe Illustrator 15.1.0, SVG Export Plug-In  -->
<!DOCTYPE svg PUBLIC "-//W3C//DTD SVG 1.1//EN" "http://www.w3.org/Graphics/SVG/1.1/DTD/svg11.dtd" [
	<!ENTITY ns_flows "http://ns.adobe.com/Flows/1.0/">
]>
<svg version="1.1"
	 xmlns="http://www.w3.org/2000/svg" xmlns:xlink="http://www.w3.org/1999/xlink" xmlns:a="http://ns.adobe.com/AdobeSVGViewerExtensions/3.0/"
	 x="0px" y="0px" width="500px" height="500px" viewBox="-72.509 -73.416 500 500" enable-background="new -72.509 -73.416 500 500"
	 xml:space="preserve">
<defs>
</defs>
<path fill="none" stroke="#010101" stroke-width="5" stroke-linecap="square" stroke-linejoin="round" stroke-dasharray="0,12" d="
	M4.744,205.252C-10.593,109.846,54.323,20.082,149.736,4.739c95.407-15.321,185.176,49.595,200.498,145.008
	c15.339,95.395-49.573,185.174-144.988,200.51C109.841,365.587,20.072,300.663,4.744,205.252z"/>
<rect x="121.194" y="195.387" width="2.995" height="2.996"/>
<rect x="115.206" y="195.387" width="2.994" height="2.996"/>
<rect x="109.218" y="195.387" width="2.994" height="2.996"/>
<path d="M178.09,210.36h-4.492v-28.448c0-4.127-3.358-7.486-7.485-7.486h-35.133l-5.545-8.316c-0.277-0.416-0.745-0.666-1.245-0.666
	h-20.962c-0.5,0-0.967,0.25-1.246,0.666l-5.601,8.402c-3.721,0.434-6.628,3.567-6.628,7.4v50.906c0,4.128,3.358,7.486,7.486,7.486
	h47.933c3.244,6.044,8.104,11.212,14.196,14.768c0.232,0.137,0.494,0.204,0.754,0.204c0.261,0,0.524-0.067,0.756-0.204
	c11.539-6.732,18.709-19.215,18.709-32.573v-10.642C179.587,211.028,178.918,210.36,178.09,210.36L178.09,210.36z M104.028,168.438
	h19.359l3.994,5.988h-27.346L104.028,168.438z M97.239,177.421h68.873c2.475,0,4.49,2.015,4.49,4.491v5.988h-29.225l-5.537-6.925
	c-0.286-0.354-0.717-0.56-1.17-0.56H93.022C93.644,178.678,95.29,177.421,97.239,177.421L97.239,177.421z M97.239,237.311
	c-2.477,0-4.492-2.015-4.492-4.492V183.41h41.205l5.537,6.924c0.284,0.355,0.715,0.563,1.171,0.563h29.942v19.464h-28.447
	c-0.826,0-1.495,0.668-1.495,1.497v10.642c0,0.742,0.028,1.489,0.074,2.231c0.015,0.25,0.036,0.498,0.057,0.749
	c0.04,0.497,0.091,0.992,0.149,1.488c0.033,0.28,0.067,0.558,0.107,0.837c0.076,0.527,0.167,1.055,0.266,1.58
	c0.037,0.205,0.068,0.408,0.109,0.611c0.143,0.708,0.313,1.41,0.496,2.109c0.053,0.198,0.113,0.393,0.169,0.588
	c0.155,0.554,0.321,1.102,0.503,1.646c0.059,0.178,0.119,0.355,0.18,0.533c0.228,0.65,0.469,1.292,0.729,1.928
	c0.016,0.045,0.032,0.089,0.054,0.133c0.049,0.128,0.095,0.254,0.146,0.377H97.239z M176.591,222.499
	c0,12.006-6.285,23.239-16.469,29.534c-5.682-3.512-10.146-8.564-12.988-14.431c-0.063-0.129-0.121-0.26-0.18-0.389
	c-0.234-0.498-0.457-1.002-0.668-1.513c-0.078-0.189-0.154-0.383-0.229-0.574c-0.173-0.443-0.339-0.891-0.493-1.342
	c-0.091-0.256-0.177-0.513-0.259-0.771c-0.124-0.392-0.24-0.785-0.35-1.181c-0.087-0.309-0.174-0.617-0.252-0.927
	c-0.088-0.357-0.168-0.717-0.244-1.078c-0.074-0.338-0.15-0.676-0.212-1.016c-0.065-0.357-0.119-0.717-0.177-1.075
	c-0.051-0.339-0.105-0.676-0.148-1.016c-0.053-0.409-0.088-0.823-0.122-1.237c-0.026-0.287-0.061-0.574-0.078-0.863
	c-0.044-0.703-0.069-1.412-0.069-2.122v-9.145h32.938V222.499z M176.591,222.499"/>
<path d="M169.544,224.273l-10.918,10.92l-4.932-4.932l-2.117,2.118l5.99,5.989c0.292,0.292,0.674,0.438,1.059,0.438
	c0.384,0,0.766-0.146,1.059-0.438l11.978-11.979L169.544,224.273z M169.544,224.273"/>
<rect x="146.647" y="216.349" width="2.996" height="2.995"/>
<rect x="152.637" y="216.349" width="2.995" height="2.995"/>
<rect x="158.626" y="216.349" width="2.994" height="2.995"/>
<rect x="164.614" y="216.349" width="2.994" height="2.995"/>
<rect x="170.603" y="216.349" width="2.995" height="2.995"/>
<path d="M116.704,186.404c-10.916,0-19.465,4.604-19.465,10.479v26.951c0,5.877,8.549,10.48,19.465,10.48
	c10.912,0,19.462-4.604,19.462-10.48v-26.951C136.166,191.009,127.616,186.404,116.704,186.404L116.704,186.404z M133.173,223.835
	c0,3.541-6.765,7.487-16.469,7.487c-9.707,0-16.471-3.946-16.471-7.487v-3.342c3.418,2.925,9.445,4.839,16.471,4.839
	c7.021,0,13.052-1.914,16.469-4.839V223.835z M133.173,214.852c0,3.542-6.765,7.485-16.469,7.485
	c-9.707,0-16.471-3.943-16.471-7.485v-3.342c3.418,2.926,9.445,4.839,16.471,4.839c7.021,0,13.052-1.913,16.469-4.839V214.852z
	 M133.173,205.868c0,3.54-6.765,7.486-16.469,7.486c-9.707,0-16.471-3.946-16.471-7.486v-3.341
	c3.418,2.925,9.445,4.838,16.471,4.838c7.021,0,13.052-1.913,16.469-4.838V205.868z M116.704,204.371
	c-9.707,0-16.471-3.945-16.471-7.487c0-3.539,6.764-7.486,16.471-7.486c9.704,0,16.469,3.947,16.469,7.486
	C133.173,200.426,126.408,204.371,116.704,204.371L116.704,204.371z M116.704,204.371"/>
<path stroke="#FFFFFF" stroke-width="2" d="M20.683,79.725c0,5.293-4.311,9.6-9.6,9.6v6.403c5.289,0,9.6,4.308,9.6,9.601h6.4
	c0-5.293,4.307-9.601,9.602-9.601v-6.403c-5.295,0-9.602-4.307-9.602-9.6H20.683L20.683,79.725z M23.883,95.826
	c-0.935-1.258-2.04-2.367-3.296-3.3c1.256-0.935,2.361-2.042,3.296-3.3c0.937,1.258,2.042,2.365,3.3,3.3
	C25.925,93.459,24.819,94.568,23.883,95.826L23.883,95.826z M23.883,95.826"/>
<path stroke="#FFFFFF" d="M335.829,106.244c0,3.58-2.912,6.492-6.49,6.492v4.328c3.578,0,6.49,2.91,6.49,6.49h4.328
	c0-3.58,2.911-6.49,6.492-6.49v-4.328c-3.581,0-6.492-2.912-6.492-6.492H335.829L335.829,106.244z M337.993,117.129
	c-0.632-0.85-1.381-1.596-2.23-2.23c0.85-0.631,1.599-1.379,2.23-2.23c0.633,0.852,1.381,1.6,2.231,2.23
	C339.374,115.533,338.626,116.279,337.993,117.129L337.993,117.129z M337.993,117.129"/>
<path stroke="#FFFFFF" d="M196.457,343.352c0,3.362-2.739,6.104-6.103,6.104v4.066c3.363,0,6.103,2.737,6.103,6.104h4.067
	c0-3.366,2.739-6.104,6.104-6.104v-4.066c-3.364,0-6.104-2.741-6.104-6.104H196.457L196.457,343.352z M198.491,353.584
	c-0.594-0.798-1.299-1.502-2.098-2.097c0.799-0.593,1.504-1.297,2.098-2.097c0.594,0.8,1.297,1.504,2.098,2.097
	C199.788,352.082,199.085,352.786,198.491,353.584L198.491,353.584z M198.491,353.584"/>
<circle fill="#FFFFFF" cx="318.939" cy="274.529" r="43.687"/>
<path d="M318.476,227.873c-25.701,0-46.626,20.926-46.626,46.625c0,25.701,20.925,46.626,46.626,46.626
	c25.699,0,46.625-20.925,46.625-46.626C365.101,248.799,344.175,227.873,318.476,227.873L318.476,227.873z M318.476,230.008
	c24.52,0,44.49,19.971,44.49,44.49c0,24.521-19.971,44.491-44.49,44.491c-24.521,0-44.491-19.97-44.491-44.491
	C273.984,249.979,293.954,230.008,318.476,230.008L318.476,230.008z M318.476,234.502c-13.975,0-26.221,7.12-33.369,17.977
	c0.941,0.027,1.826,0.111,2.584,0.111c4.186,0,10.674-0.562,10.674-0.562c2.148-0.126,2.373,3.118,0.225,3.37
	c0,0-2.205,0.211-4.606,0.338l14.606,43.255l8.763-26.178l-6.292-17.077c-2.148-0.127-4.156-0.338-4.156-0.338
	c-2.163-0.126-1.924-3.496,0.225-3.37c0,0,6.629,0.562,10.561,0.562c4.186,0,10.674-0.562,10.674-0.562
	c2.162-0.126,2.373,3.118,0.225,3.37c0,0-2.205,0.211-4.607,0.338l14.494,42.918l3.932-13.258c2.023-5.196,3.033-9.492,3.033-12.92
	c0-4.943-1.727-8.356-3.258-11.011c-2.021-3.3-3.932-6.137-3.932-9.438c0-3.665,2.809-7.078,6.74-7.078c0.184,0,0.38-0.014,0.563,0
	C338.431,238.434,328.882,234.502,318.476,234.502L318.476,234.502z M353.528,255.287c0.183,1.277,0.337,2.682,0.337,4.156
	c0,4.059-0.759,8.567-3.033,14.269l-12.246,35.278c11.881-6.938,19.886-19.746,19.886-34.492
	C358.472,267.547,356.646,260.975,353.528,255.287L353.528,255.287z M281.961,258.208c-2.219,4.972-3.483,10.49-3.483,16.29
	c0,15.828,9.242,29.465,22.583,35.953L281.961,258.208z M319.149,277.981l-11.91,34.829c3.582,1.053,7.304,1.685,11.236,1.685
	c4.648,0,9.1-0.898,13.257-2.359c-0.099-0.168-0.141-0.253-0.225-0.449L319.149,277.981z"/>
<path d="M248.699,122.988c-2.091-15.465-18.078-27.313-37.367-27.313c-15.164,0-28.829,7.48-34.663,18.79
	c-0.138-0.005-0.277-0.007-0.418-0.007c-14.308,0-25.949,9.575-25.949,21.349v51.229c0,11.77,11.642,21.345,25.949,21.345h65.484
	c11.729,0,21.271-7.891,21.271-17.588v-51.23C263.007,132.014,257.214,125.409,248.699,122.988L248.699,122.988z M257.883,190.794
	c0,6.872-7.243,12.464-16.147,12.464h-65.484c-11.484,0-20.828-7.277-20.828-16.222v-13.008c4.73,5.271,12.271,8.737,20.828,8.737
	h65.484c6.493,0,12.244-2.469,16.147-6.272V190.794z M257.883,165.177c0,6.875-7.243,12.466-16.147,12.466h-65.484
	c-11.484,0-20.828-7.276-20.828-16.221v-13.01c4.73,5.272,12.271,8.738,20.828,8.738h65.484c6.493,0,12.244-2.47,16.147-6.274
	V165.177z M241.735,152.028h-65.484c-11.484,0-20.828-7.276-20.828-16.222c0-8.947,9.344-16.225,20.828-16.225
	c0.381,0,0.752,0.037,1.126,0.071l0.666,0.054c1.138,0.086,2.103-0.536,2.534-1.535c4.506-10.391,16.865-17.375,30.755-17.375
	c17.366,0,31.618,10.718,32.438,24.4c0.07,1.156,0.908,2.126,2.043,2.356c7.107,1.448,12.069,6.386,12.069,12.009
	C257.883,146.438,250.64,152.028,241.735,152.028L241.735,152.028z M241.735,152.028"/>
<path d="M168.231,159.712c-1.416,0-2.563,1.146-2.563,2.562v5.123c0,1.416,1.146,2.562,2.563,2.562c1.414,0,2.561-1.146,2.561-2.562
	v-5.123C170.792,160.857,169.646,159.712,168.231,159.712L168.231,159.712z M168.231,159.712"/>
<path d="M178.478,162.273c-1.418,0-2.563,1.146-2.563,2.56v5.125c0,1.415,1.145,2.562,2.563,2.562c1.416,0,2.561-1.146,2.561-2.562
	v-5.125C181.038,163.42,179.894,162.273,178.478,162.273L178.478,162.273z M178.478,162.273"/>
<path d="M188.724,162.273c-1.416,0-2.563,1.146-2.563,2.56v5.125c0,1.415,1.146,2.562,2.563,2.562s2.561-1.146,2.561-2.562v-5.125
	C191.284,163.42,190.14,162.273,188.724,162.273L188.724,162.273z M188.724,162.273"/>
<path d="M247.638,167.396c0,2.828-2.293,5.123-5.122,5.123c-2.83,0-5.124-2.295-5.124-5.123s2.294-5.123,5.124-5.123
	C245.345,162.273,247.638,164.568,247.638,167.396L247.638,167.396z M247.638,167.396"/>
<path d="M232.27,167.396c0,2.828-2.295,5.123-5.123,5.123c-2.829,0-5.123-2.295-5.123-5.123s2.294-5.123,5.123-5.123
	C229.975,162.273,232.27,164.568,232.27,167.396L232.27,167.396z M232.27,167.396"/>
<path d="M168.231,185.327c-1.416,0-2.563,1.146-2.563,2.562v5.123c0,1.415,1.146,2.561,2.563,2.561c1.414,0,2.561-1.146,2.561-2.561
	v-5.123C170.792,186.473,169.646,185.327,168.231,185.327L168.231,185.327z M168.231,185.327"/>
<path d="M178.478,187.889c-1.418,0-2.563,1.147-2.563,2.563v5.121c0,1.417,1.145,2.563,2.563,2.563c1.416,0,2.561-1.146,2.561-2.563
	v-5.121C181.038,189.036,179.894,187.889,178.478,187.889L178.478,187.889z M178.478,187.889"/>
<path d="M188.724,187.889c-1.416,0-2.563,1.147-2.563,2.563v5.121c0,1.417,1.146,2.563,2.563,2.563s2.561-1.146,2.561-2.563v-5.121
	C191.284,189.036,190.14,187.889,188.724,187.889L188.724,187.889z M188.724,187.889"/>
<path d="M247.638,193.012c0,2.83-2.293,5.123-5.122,5.123c-2.83,0-5.124-2.293-5.124-5.123c0-2.828,2.294-5.123,5.124-5.123
	C245.345,187.889,247.638,190.184,247.638,193.012L247.638,193.012z M247.638,193.012"/>
<path d="M232.27,193.012c0,2.83-2.295,5.123-5.123,5.123c-2.829,0-5.123-2.293-5.123-5.123c0-2.828,2.294-5.123,5.123-5.123
	C229.975,187.889,232.27,190.184,232.27,193.012L232.27,193.012z M232.27,193.012"/>
<path fill="#FFFFFF" d="M176.354,157.15c-8.558,0-16.097-3.465-20.827-8.736v13.008c0,8.945,9.342,16.221,20.827,16.221h65.484
	c8.905,0,16.148-5.59,16.148-12.466v-14.3c-3.905,3.806-9.654,6.273-16.148,6.273H176.354z M170.897,167.398
	c0,1.414-1.148,2.56-2.563,2.56s-2.563-1.146-2.563-2.56v-5.123c0-1.416,1.148-2.563,2.563-2.563s2.563,1.147,2.563,2.563V167.398z
	 M181.142,169.958c0,1.415-1.146,2.562-2.562,2.562c-1.417,0-2.562-1.146-2.562-2.562v-5.123c0-1.415,1.145-2.56,2.562-2.56
	c1.415,0,2.562,1.145,2.562,2.56V169.958z M191.388,169.958c0,1.415-1.146,2.562-2.561,2.562c-1.416,0-2.563-1.146-2.563-2.562
	v-5.123c0-1.415,1.146-2.56,2.563-2.56c1.414,0,2.561,1.145,2.561,2.56V169.958z M227.249,172.52c-2.828,0-5.123-2.293-5.123-5.121
	c0-2.83,2.295-5.123,5.123-5.123s5.123,2.293,5.123,5.123C232.372,170.227,230.077,172.52,227.249,172.52z M247.74,167.398
	c0,2.828-2.293,5.121-5.122,5.121c-2.83,0-5.124-2.293-5.124-5.121c0-2.83,2.294-5.123,5.124-5.123
	C245.447,162.275,247.74,164.568,247.74,167.398z"/>
<path fill="#FFFFFF" d="M245.917,127.556c-1.135-0.23-1.974-1.199-2.043-2.358c-0.82-13.683-15.072-24.399-32.438-24.399
	c-13.888,0-26.249,6.983-30.756,17.375c-0.431,0.999-1.396,1.62-2.534,1.536l-0.666-0.056c-0.374-0.033-0.746-0.071-1.126-0.071
	c-11.485,0-20.827,7.279-20.827,16.225s9.342,16.223,20.827,16.223h65.484c8.905,0,16.148-5.592,16.148-12.466
	C257.986,133.939,253.023,129.003,245.917,127.556z"/>
<path fill="#FFFFFF" d="M176.354,182.766c-8.558,0-16.097-3.466-20.827-8.737v13.009c0,8.943,9.342,16.222,20.827,16.222h65.484
	c8.905,0,16.148-5.591,16.148-12.465v-14.3c-3.905,3.803-9.654,6.271-16.148,6.271H176.354z M170.897,193.013
	c0,1.415-1.148,2.562-2.563,2.562s-2.563-1.146-2.563-2.562v-5.122c0-1.417,1.148-2.563,2.563-2.563s2.563,1.146,2.563,2.563
	V193.013z M181.142,195.574c0,1.415-1.146,2.562-2.562,2.562c-1.417,0-2.562-1.146-2.562-2.562v-5.123
	c0-1.414,1.145-2.561,2.562-2.561c1.415,0,2.562,1.146,2.562,2.561V195.574z M191.388,195.574c0,1.415-1.146,2.562-2.561,2.562
	c-1.416,0-2.563-1.146-2.563-2.562v-5.123c0-1.414,1.146-2.561,2.563-2.561c1.414,0,2.561,1.146,2.561,2.561V195.574z
	 M227.249,198.136c-2.828,0-5.123-2.294-5.123-5.123s2.295-5.122,5.123-5.122s5.123,2.293,5.123,5.122
	S230.077,198.136,227.249,198.136z M247.74,193.013c0,2.829-2.293,5.123-5.122,5.123c-2.83,0-5.124-2.294-5.124-5.123
	s2.294-5.122,5.124-5.122C245.447,187.891,247.74,190.184,247.74,193.013z"/>
</svg>
