<?xml version="1.0" encoding="utf-8"?>
<!-- Generator: Adobe Illustrator 15.1.0, SVG Export Plug-In  -->
<!DOCTYPE svg PUBLIC "-//W3C//DTD SVG 1.1//EN" "http://www.w3.org/Graphics/SVG/1.1/DTD/svg11.dtd" [
	<!ENTITY ns_flows "http://ns.adobe.com/Flows/1.0/">
]>
<svg version="1.1"
	 xmlns="http://www.w3.org/2000/svg" xmlns:xlink="http://www.w3.org/1999/xlink" xmlns:a="http://ns.adobe.com/AdobeSVGViewerExtensions/3.0/"
	 x="0px" y="0px" width="500px" height="500px" viewBox="-59.059 -82.456 500 500" enable-background="new -59.059 -82.456 500 500"
	 xml:space="preserve">
<defs>
</defs>
<path d="M222.141,107.312H136.82c-4.705,0-8.533,3.827-8.533,8.532v64.844c0,4.704,3.828,8.531,8.533,8.531h31.942l-2.559,10.239
	h-2.081c-4.705,0-8.532,3.827-8.532,8.532c0,0.941,0.765,1.705,1.707,1.705h44.368c0.941,0,1.707-0.764,1.707-1.705
	c0-4.705-3.828-8.532-8.532-8.532h-2.082l-2.558-10.239h31.942c4.704,0,8.532-3.827,8.532-8.531v-64.844
	C230.673,111.139,226.845,107.312,222.141,107.312L222.141,107.312z M191.425,202.87h3.413c2.225,0,4.122,1.427,4.827,3.413h-40.37
	c0.705-1.986,2.603-3.413,4.827-3.413H191.425z M169.721,199.458l2.561-10.239h14.397l2.561,10.239H169.721z M227.26,180.688
	c0,2.822-2.297,5.119-5.12,5.119H136.82c-2.822,0-5.12-2.297-5.12-5.119v-5.12h95.56V180.688z M227.26,172.154H131.7v-47.779h95.56
	V172.154z M227.26,120.962H131.7v-5.118c0-2.822,2.297-5.119,5.12-5.119h85.321c2.823,0,5.12,2.297,5.12,5.119V120.962z
	 M227.26,120.962"/>
<rect x="150.471" y="114.137" width="3.413" height="3.412"/>
<rect x="143.646" y="114.137" width="3.412" height="3.412"/>
<rect x="136.82" y="114.137" width="3.414" height="3.412"/>
<path d="M191.425,127.788h-23.89c-0.942,0-1.706,0.766-1.706,1.706v37.541c0,0.942,0.764,1.707,1.706,1.707h23.89
	c0.942,0,1.706-0.765,1.706-1.707v-37.541C193.131,128.554,192.367,127.788,191.425,127.788L191.425,127.788z M189.718,165.33
	h-20.476v-34.129h20.476V165.33z M189.718,165.33"/>
<rect x="172.654" y="151.678" width="13.653" height="3.413"/>
<path d="M222.141,127.788H198.25c-0.941,0-1.706,0.766-1.706,1.706v37.541c0,0.942,0.765,1.707,1.706,1.707h23.891
	c0.941,0,1.706-0.765,1.706-1.707v-37.541C223.847,128.554,223.082,127.788,222.141,127.788L222.141,127.788z M220.435,165.33
	h-20.477v-34.129h20.477V165.33z M220.435,165.33"/>
<path d="M210.195,134.613c-3.764,0-6.825,3.063-6.825,6.826s3.061,6.826,6.825,6.826c3.765,0,6.826-3.063,6.826-6.826
	S213.96,134.613,210.195,134.613L210.195,134.613z M210.195,144.853c-1.882,0-3.413-1.531-3.413-3.413s1.531-3.413,3.413-3.413
	s3.413,1.531,3.413,3.413S212.077,144.853,210.195,144.853L210.195,144.853z M210.195,144.853"/>
<rect x="203.371" y="151.678" width="13.651" height="3.413"/>
<rect x="172.654" y="158.504" width="13.653" height="3.413"/>
<rect x="203.371" y="158.504" width="13.651" height="3.413"/>
<path d="M160.71,127.788h-23.89c-0.941,0-1.706,0.766-1.706,1.706v37.541c0,0.942,0.765,1.707,1.706,1.707h23.89
	c0.942,0,1.706-0.765,1.706-1.707v-37.541C162.416,128.554,161.652,127.788,160.71,127.788L160.71,127.788z M159.003,165.33h-20.478
	v-34.129h20.478V165.33z M159.003,165.33"/>
<rect x="141.939" y="151.678" width="13.65" height="3.413"/>
<rect x="141.939" y="158.504" width="13.65" height="3.413"/>
<path d="M155.411,145.797l-5.119-10.24c-0.579-1.156-2.475-1.156-3.053,0l-5.119,10.24c-0.264,0.528-0.235,1.156,0.075,1.66
	c0.311,0.501,0.859,0.809,1.451,0.809h10.238c0.592,0,1.139-0.308,1.451-0.809C155.646,146.953,155.675,146.325,155.411,145.797
	L155.411,145.797z M146.407,144.853l2.357-4.717l2.358,4.717H146.407z M146.407,144.853"/>
<path d="M185.807,140.233l-5.12-5.12c-0.667-0.667-1.746-0.667-2.413,0l-5.12,5.12c-0.666,0.667-0.666,1.747,0,2.412l5.12,5.12
	c0.333,0.332,0.77,0.5,1.207,0.5c0.436,0,0.875-0.168,1.207-0.5l5.12-5.12C186.473,141.98,186.473,140.9,185.807,140.233
	L185.807,140.233z M179.48,144.146l-2.707-2.707l2.707-2.706l2.708,2.706L179.48,144.146z M179.48,144.146"/>
<rect x="177.774" y="178.981" width="3.413" height="3.413"/>
<path stroke="#FFFFFF" stroke-width="2" d="M22.966,76.518c0,5.293-4.311,9.6-9.6,9.6v6.403c5.289,0,9.6,4.308,9.6,9.601h6.4
	c0-5.293,4.307-9.601,9.602-9.601v-6.403c-5.295,0-9.602-4.307-9.602-9.6H22.966L22.966,76.518z M26.166,92.619
	c-0.935-1.258-2.04-2.367-3.296-3.3c1.256-0.935,2.361-2.042,3.296-3.3c0.937,1.258,2.042,2.365,3.3,3.3
	C28.208,90.252,27.103,91.361,26.166,92.619L26.166,92.619z M26.166,92.619"/>
<path stroke="#FFFFFF" d="M347.169,137.245c0,3.58-2.912,6.492-6.49,6.492v4.328c3.578,0,6.49,2.91,6.49,6.49h4.328
	c0-3.58,2.911-6.49,6.492-6.49v-4.328c-3.581,0-6.492-2.912-6.492-6.492H347.169L347.169,137.245z M349.333,148.13
	c-0.632-0.85-1.381-1.596-2.23-2.23c0.85-0.631,1.599-1.379,2.23-2.23c0.633,0.852,1.381,1.6,2.231,2.23
	C350.714,146.534,349.966,147.28,349.333,148.13L349.333,148.13z M349.333,148.13"/>
<path stroke="#FFFFFF" d="M164.907,344.312c0,3.362-2.739,6.104-6.103,6.104v4.066c3.363,0,6.103,2.737,6.103,6.104h4.067
	c0-3.366,2.739-6.104,6.104-6.104v-4.066c-3.364,0-6.104-2.741-6.104-6.104H164.907L164.907,344.312z M166.941,354.544
	c-0.594-0.798-1.299-1.502-2.098-2.097c0.799-0.593,1.504-1.297,2.098-2.097c0.594,0.8,1.297,1.504,2.098,2.097
	C168.238,353.042,167.535,353.746,166.941,354.544L166.941,354.544z M166.941,354.544"/>
<path fill="none" stroke="#010101" stroke-width="5" stroke-linecap="square" stroke-linejoin="round" stroke-dasharray="0,12" d="
	M4.744,205.252C-10.594,109.846,54.325,20.082,149.738,4.739c95.406-15.321,185.176,49.595,200.497,145.008
	c15.339,95.395-49.573,185.174-144.987,200.51C109.84,365.587,20.073,300.663,4.744,205.252z"/>
<path d="M138.58,222.598l-30.975-30.975V162.16c0-4.705-3.828-8.531-8.533-8.531c-4.705,0-8.532,3.826-8.532,8.531v53.63
	c0,0.545,0.183,1.072,0.516,1.501l21.424,27.373v18.662c0,1.344,1.091,2.437,2.437,2.437h21.939c1.345,0,2.438-1.093,2.438-2.437
	v-39.005C139.294,223.675,139.038,223.054,138.58,222.598L138.58,222.598z M134.419,260.887h-17.065v-17.063
	c0-0.547-0.181-1.071-0.516-1.503l-21.423-27.371V162.16c0-2.017,1.64-3.658,3.656-3.658c2.016,0,3.657,1.642,3.657,3.658v30.472
	c0,0.646,0.256,1.268,0.713,1.723l3.536,3.535c-3.86,1.143-6.686,4.724-6.686,8.95c0,2.492,0.97,4.838,2.734,6.6l15.042,15.043
	l3.447-3.447l-15.042-15.042c-0.844-0.843-1.309-1.963-1.309-3.153c0-2.459,2-4.457,4.459-4.457c1.188,0,2.301,0.459,3.146,1.296
	l21.648,21.651V260.887z M134.419,260.887"/>
<path d="M259.891,153.629c-4.706,0-8.533,3.826-8.533,8.531v29.463l-30.976,30.975c-0.458,0.456-0.715,1.077-0.715,1.724v39.005
	c0,1.344,1.093,2.437,2.438,2.437h21.94c1.346,0,2.437-1.093,2.437-2.437v-18.662l21.423-27.373
	c0.333-0.429,0.517-0.956,0.517-1.501v-53.63C268.422,157.455,264.595,153.629,259.891,153.629L259.891,153.629z M263.547,214.949
	l-21.424,27.371c-0.334,0.432-0.516,0.956-0.516,1.503v17.063h-17.064V225.33l21.651-21.651c0.841-0.837,1.958-1.296,3.142-1.296
	c2.459,0,4.459,1.998,4.459,4.457c0,1.19-0.464,2.311-1.307,3.153l-15.042,15.042l3.446,3.447l15.042-15.043
	c1.765-1.766,2.735-4.107,2.735-6.6c0-4.227-2.825-7.808-6.686-8.95l3.535-3.535c0.457-0.455,0.714-1.077,0.714-1.723V162.16
	c0-2.017,1.641-3.658,3.657-3.658c2.016,0,3.657,1.642,3.657,3.658V214.949z M263.547,214.949"/>
<rect x="177.044" y="219.445" width="4.875" height="4.876"/>
<rect x="177.044" y="229.197" width="4.875" height="4.875"/>
<rect x="186.794" y="229.197" width="4.875" height="4.875"/>
<rect x="167.292" y="229.197" width="4.875" height="4.875"/>
<rect x="177.044" y="238.949" width="4.875" height="4.874"/>
<path stroke="#000000" d="M350.763,238.987H311.15h-5.281h-18.487c-1.457,0-2.64,1.179-2.64,2.641v18.77
	c0,1.473,0.05,2.946,0.147,4.406c0.561,8.497,2.767,16.727,6.452,24.364c0.111,0.228,0.211,0.459,0.323,0.687
	c0.441,0.893,0.921,1.768,1.406,2.641c0.247,0.45,0.486,0.902,0.745,1.345c0.116,0.2,0.214,0.407,0.334,0.604l3.538,5.282
	c5.311,7.25,12.078,13.474,20.054,18.124c0.412,0.241,0.871,0.361,1.33,0.361c0.46,0,0.919-0.12,1.332-0.361
	c20.354-11.874,32.999-33.89,32.999-57.452v-18.77C353.402,240.166,352.219,238.987,350.763,238.987z M348.121,260.397
	c0,21.175-11.093,40.989-29.05,52.093c-7.411-4.581-13.627-10.661-18.402-17.692c-0.532-0.785-1.045-1.576-1.538-2.38
	c-0.307-0.505-0.617-1.008-0.915-1.523c-0.402-0.694-0.774-1.4-1.146-2.106c-0.318-0.608-0.647-1.209-0.944-1.828
	c-0.26-0.534-0.483-1.078-0.727-1.62c-0.694-1.553-1.331-3.134-1.899-4.744c-0.127-0.367-0.274-0.731-0.396-1.101
	c-0.274-0.837-0.516-1.686-0.754-2.535c-0.149-0.529-0.301-1.053-0.438-1.586c-0.2-0.783-0.375-1.577-0.542-2.372
	c-0.137-0.644-0.261-1.29-0.379-1.938c-0.127-0.714-0.248-1.429-0.35-2.147c-0.117-0.826-0.207-1.656-0.289-2.49
	c-0.057-0.57-0.125-1.142-0.168-1.714c-0.098-1.427-0.163-2.865-0.163-4.314v-16.129h58.1V260.397z"/>
<path stroke="#000000" d="M335.689,263.528l-19.259,19.261l-8.696-8.699L304,277.826l10.563,10.563
	c0.516,0.515,1.192,0.774,1.867,0.774c0.678,0,1.352-0.26,1.869-0.774l21.124-21.127L335.689,263.528z M335.689,263.528"/>
<rect x="295.302" y="249.551" stroke="#000000" width="5.283" height="5.281"/>
<rect x="305.869" y="249.551" stroke="#000000" width="5.281" height="5.281"/>
<rect x="316.43" y="249.551" stroke="#000000" width="5.284" height="5.281"/>
<rect x="326.995" y="249.551" stroke="#000000" width="5.281" height="5.281"/>
<rect x="337.557" y="249.551" stroke="#000000" width="5.282" height="5.281"/>
<path fill="#FFFFFF" stroke="#000000" d="M290.021,260.397c0,1.449,0.065,2.888,0.163,4.314c0.043,0.572,0.111,1.144,0.168,1.714
	c0.082,0.834,0.172,1.664,0.289,2.49c0.102,0.719,0.223,1.434,0.35,2.147c0.118,0.648,0.242,1.295,0.379,1.938
	c0.167,0.795,0.343,1.589,0.542,2.372c0.137,0.533,0.289,1.057,0.438,1.586c0.238,0.85,0.479,1.698,0.754,2.535
	c0.121,0.369,0.268,0.733,0.396,1.101c0.568,1.61,1.205,3.191,1.899,4.744c0.243,0.542,0.467,1.086,0.727,1.62
	c0.297,0.619,0.625,1.22,0.944,1.828c0.373,0.706,0.745,1.412,1.146,2.106c0.297,0.516,0.608,1.019,0.915,1.523
	c0.493,0.804,1.006,1.595,1.538,2.38c4.775,7.031,10.991,13.111,18.402,17.692c17.957-11.104,29.05-30.918,29.05-52.093v-16.129
	h-58.1V260.397z M337.557,249.551h5.282v5.281h-5.282V249.551z M326.995,249.551h5.281v5.281h-5.281V249.551z M316.43,249.551h5.284
	v5.281h-5.284V249.551z M305.869,249.551h5.281v5.281h-5.281V249.551z M307.734,274.09l8.696,8.699l19.259-19.261l3.733,3.733
	l-21.124,21.127c-0.517,0.515-1.19,0.774-1.869,0.774c-0.674,0-1.351-0.26-1.867-0.774L304,277.826L307.734,274.09z
	 M295.302,249.551h5.283v5.281h-5.283V249.551z"/>
</svg>
