<?xml version="1.0" encoding="utf-8"?>
<!-- Generator: Adobe Illustrator 15.0.0, SVG Export Plug-In . SVG Version: 6.00 Build 0)  -->
<!DOCTYPE svg PUBLIC "-//W3C//DTD SVG 1.1//EN" "http://www.w3.org/Graphics/SVG/1.1/DTD/svg11.dtd">
<svg version="1.1" id="Layer_1" xmlns="http://www.w3.org/2000/svg" xmlns:xlink="http://www.w3.org/1999/xlink" x="0px" y="0px"
	 width="100px" height="100px" viewBox="0 0 100 100" enable-background="new 0 0 100 100" xml:space="preserve">
<g>
	<path fill="#339EDE" d="M67.953,86.795H28.787c-0.587,0-1.063,0.476-1.063,1.064v6.274c0,0.587,0.476,1.063,1.063,1.063h39.166
		c0.587,0,1.066-0.476,1.066-1.063v-6.274C69.02,87.271,68.54,86.795,67.953,86.795z M31.632,92.313
		c-0.728,0-1.318-0.591-1.318-1.316c0-0.728,0.591-1.318,1.318-1.318c0.726,0,1.314,0.591,1.314,1.318
		C32.946,91.723,32.359,92.313,31.632,92.313z M36.224,92.313c-0.724,0-1.314-0.591-1.314-1.316c0-0.728,0.591-1.318,1.314-1.318
		c0.729,0,1.318,0.591,1.318,1.318C37.542,91.723,36.953,92.313,36.224,92.313z M41.269,92.313c-0.728,0-1.318-0.591-1.318-1.316
		c0-0.728,0.591-1.318,1.318-1.318c0.726,0,1.316,0.591,1.316,1.318C42.585,91.723,41.996,92.313,41.269,92.313z"/>
	<path fill="#339EDE" d="M131.166,86.795H90.942c-0.587,0-1.063,0.476-1.063,1.064v6.274c0,0.587,0.477,1.063,1.063,1.063h40.224
		c0.587,0,1.063-0.476,1.063-1.063v-6.274C132.232,87.271,131.753,86.795,131.166,86.795z M93.785,92.313
		c-0.726,0-1.316-0.591-1.316-1.316c0-0.728,0.591-1.318,1.316-1.318s1.316,0.591,1.316,1.318
		C95.102,91.723,94.515,92.313,93.785,92.313z M98.38,92.313c-0.729,0-1.32-0.591-1.32-1.316c0-0.728,0.591-1.318,1.32-1.318
		c0.726,0,1.316,0.591,1.316,1.318C99.696,91.723,99.105,92.313,98.38,92.313z M103.424,92.313c-0.729,0-1.316-0.591-1.316-1.316
		c0-0.728,0.587-1.318,1.316-1.318c0.726,0,1.316,0.591,1.316,1.318C104.74,91.723,104.149,92.313,103.424,92.313z"/>
	<path fill="#339EDE" d="M67.953,69.791H28.787c-0.587,0-1.063,0.478-1.063,1.064v6.274c0,0.587,0.476,1.063,1.063,1.063h39.166
		c0.587,0,1.066-0.476,1.066-1.063v-6.274C69.02,70.269,68.54,69.791,67.953,69.791z M31.406,75.311
		c-0.726,0-1.316-0.589-1.316-1.314c0-0.729,0.591-1.318,1.316-1.318c0.728,0,1.316,0.589,1.316,1.318
		C32.723,74.722,32.134,75.311,31.406,75.311z M35.999,75.311c-0.726,0-1.316-0.589-1.316-1.314c0-0.729,0.589-1.318,1.316-1.318
		s1.316,0.589,1.316,1.318C37.315,74.722,36.727,75.311,35.999,75.311z M41.043,75.311c-0.726,0-1.316-0.589-1.316-1.314
		c0-0.729,0.591-1.318,1.316-1.318c0.728,0,1.318,0.589,1.318,1.318C42.361,74.722,41.771,75.311,41.043,75.311z"/>
	<path fill="#339EDE" d="M67.953,35.903H28.787c-0.587,0-1.063,0.478-1.063,1.065v6.274c0,0.589,0.476,1.064,1.063,1.064h39.166
		c0.587,0,1.066-0.476,1.066-1.064v-6.274C69.02,36.381,68.54,35.903,67.953,35.903z M31.632,41.5c-0.728,0-1.318-0.587-1.318-1.316
		c0-0.728,0.591-1.316,1.318-1.316c0.726,0,1.314,0.589,1.314,1.316C32.948,40.913,32.359,41.5,31.632,41.5z M36.224,41.5
		c-0.724,0-1.314-0.587-1.314-1.316c0-0.728,0.591-1.316,1.314-1.316c0.729,0,1.318,0.589,1.318,1.316
		C37.542,40.913,36.953,41.5,36.224,41.5z M41.269,41.5c-0.728,0-1.318-0.587-1.318-1.316c0-0.728,0.591-1.316,1.318-1.316
		c0.726,0,1.316,0.589,1.316,1.316C42.587,40.913,41.996,41.5,41.269,41.5z"/>
	<path fill="#339EDE" d="M67.953,52.847H28.787c-0.587,0-1.063,0.477-1.063,1.063v6.275c0,0.586,0.476,1.064,1.063,1.064h39.166
		c0.587,0,1.066-0.479,1.066-1.064v-6.275C69.02,53.325,68.54,52.847,67.953,52.847z M31.632,58.445
		c-0.728,0-1.318-0.591-1.318-1.318c0-0.726,0.591-1.314,1.318-1.314c0.726,0,1.314,0.589,1.314,1.314
		C32.946,57.854,32.359,58.445,31.632,58.445z M36.224,58.445c-0.724,0-1.314-0.591-1.314-1.318c0-0.726,0.591-1.314,1.314-1.314
		c0.729,0,1.318,0.589,1.318,1.314C37.542,57.854,36.953,58.445,36.224,58.445z M41.269,58.445c-0.728,0-1.318-0.591-1.318-1.318
		c0-0.726,0.591-1.314,1.318-1.314c0.726,0,1.316,0.589,1.316,1.314C42.585,57.854,41.996,58.445,41.269,58.445z"/>
	<path fill="#339EDE" d="M7.048,87.854h-40.225c-0.587,0-1.064,0.474-1.064,1.063v6.274c0,0.587,0.478,1.064,1.064,1.064H7.048
		c0.587,0,1.064-0.478,1.064-1.064v-6.274C8.112,88.331,7.635,87.854,7.048,87.854z M-30.334,93.372
		c-0.726,0-1.316-0.591-1.316-1.318c0-0.726,0.591-1.314,1.316-1.314c0.728,0,1.318,0.589,1.318,1.314
		C-29.016,92.781-29.606,93.372-30.334,93.372z M-25.74,93.372c-0.728,0-1.318-0.591-1.318-1.318c0-0.726,0.589-1.314,1.318-1.314
		c0.726,0,1.314,0.589,1.314,1.314C-24.426,92.781-25.013,93.372-25.74,93.372z M-20.697,93.372c-0.726,0-1.313-0.591-1.313-1.318
		c0-0.726,0.588-1.314,1.313-1.314c0.728,0,1.318,0.589,1.318,1.314C-19.379,92.781-19.97,93.372-20.697,93.372z"/>
	<path fill="#339EDE" d="M7.048,70.356h-40.225c-0.587,0-1.064,0.476-1.064,1.063v6.274c0,0.587,0.478,1.064,1.064,1.064H7.048
		c0.587,0,1.064-0.478,1.064-1.064v-6.274C8.112,70.832,7.635,70.356,7.048,70.356z M-30.56,75.875
		c-0.728,0-1.318-0.591-1.318-1.318c0-0.726,0.591-1.314,1.318-1.314c0.726,0,1.316,0.589,1.316,1.314
		C-29.243,75.284-29.832,75.875-30.56,75.875z M-25.966,75.875c-0.728,0-1.318-0.591-1.318-1.318c0-0.726,0.591-1.314,1.318-1.314
		s1.314,0.589,1.314,1.314C-24.651,75.284-25.238,75.875-25.966,75.875z M-20.925,75.875c-0.726,0-1.314-0.591-1.314-1.318
		c0-0.726,0.589-1.314,1.314-1.314c0.728,0,1.318,0.589,1.318,1.314C-19.606,75.284-20.195,75.875-20.925,75.875z"/>
	<path fill="#339EDE" d="M7.048,52.847h-40.225c-0.587,0-1.064,0.477-1.064,1.063v6.275c0,0.586,0.478,1.064,1.064,1.064H7.048
		c0.587,0,1.064-0.479,1.064-1.064v-6.275C8.112,53.325,7.635,52.847,7.048,52.847z M-30.334,58.445
		c-0.726,0-1.316-0.591-1.316-1.318c0-0.726,0.591-1.314,1.316-1.314c0.728,0,1.318,0.589,1.318,1.314
		C-29.016,57.854-29.606,58.445-30.334,58.445z M-25.74,58.445c-0.728,0-1.318-0.591-1.318-1.318c0-0.726,0.589-1.314,1.318-1.314
		c0.726,0,1.314,0.589,1.314,1.314C-24.426,57.854-25.013,58.445-25.74,58.445z M-20.697,58.445c-0.726,0-1.313-0.591-1.313-1.318
		c0-0.726,0.588-1.314,1.313-1.314c0.728,0,1.318,0.589,1.318,1.314C-19.379,57.854-19.97,58.445-20.697,58.445z"/>
	<path fill="#FFC000" d="M-47.758,41.047v54.151h5.159v-49.96c0-1.035,0.838-1.871,1.873-1.871h55.023
		c1.03,0,1.869,0.833,1.871,1.865l0.145,49.966h3.279V28.324c0-1.033,0.836-1.872,1.873-1.872h54.231
		c1.03,0,1.871,0.836,1.871,1.872v66.874h3.426v-49.96c0-1.035,0.836-1.871,1.871-1.871h56.528c1.034,0,1.871,0.833,1.875,1.867
		l0.127,49.964h6.367V41.047L49.999,3.875L-47.758,41.047z"/>
	<path fill="#339EDE" d="M131.166,52.847H90.942c-0.587,0-1.063,0.477-1.063,1.063v6.275c0,0.586,0.477,1.064,1.063,1.064h40.224
		c0.587,0,1.063-0.479,1.063-1.064v-6.275C132.232,53.325,131.753,52.847,131.166,52.847z M93.785,58.445
		c-0.726,0-1.316-0.591-1.316-1.318c0-0.726,0.591-1.314,1.316-1.314s1.316,0.589,1.316,1.314
		C95.105,57.854,94.515,58.445,93.785,58.445z M98.38,58.445c-0.729,0-1.32-0.591-1.32-1.318c0-0.726,0.591-1.314,1.32-1.314
		c0.726,0,1.316,0.589,1.316,1.314C99.696,57.854,99.105,58.445,98.38,58.445z M103.424,58.445c-0.729,0-1.316-0.591-1.316-1.318
		c0-0.726,0.587-1.314,1.316-1.314c0.726,0,1.316,0.589,1.316,1.314C104.74,57.854,104.149,58.445,103.424,58.445z"/>
	<path fill="#339EDE" d="M131.166,69.791H90.942c-0.587,0-1.063,0.478-1.063,1.064v6.274c0,0.587,0.477,1.063,1.063,1.063h40.224
		c0.587,0,1.063-0.476,1.063-1.063v-6.274C132.232,70.269,131.753,69.791,131.166,69.791z M93.559,75.311
		c-0.726,0-1.316-0.589-1.316-1.314c0-0.729,0.591-1.318,1.316-1.318c0.729,0,1.32,0.589,1.32,1.318
		C94.879,74.722,94.288,75.311,93.559,75.311z M98.154,75.311c-0.726,0-1.316-0.589-1.316-1.314c0-0.729,0.591-1.318,1.316-1.318
		s1.316,0.589,1.316,1.318C99.471,74.722,98.88,75.311,98.154,75.311z M103.197,75.311c-0.729,0-1.316-0.589-1.316-1.314
		c0-0.729,0.587-1.318,1.316-1.318c0.726,0,1.316,0.589,1.316,1.318C104.514,74.722,103.923,75.311,103.197,75.311z"/>
	<circle fill="#1C5183" cx="31.632" cy="57.128" r="1.317"/>
	<circle fill="#1C5183" cx="36.224" cy="57.128" r="1.317"/>
	<circle fill="#1C5183" cx="41.269" cy="57.128" r="1.317"/>
	<circle fill="#1C5183" cx="31.406" cy="73.993" r="1.317"/>
	<circle fill="#1C5183" cx="35.999" cy="73.993" r="1.317"/>
	<circle fill="#1C5183" cx="41.043" cy="73.993" r="1.317"/>
	<circle fill="#1C5183" cx="31.632" cy="90.994" r="1.317"/>
	<circle fill="#1C5183" cx="36.224" cy="90.994" r="1.317"/>
	<circle fill="#1C5183" cx="41.269" cy="90.994" r="1.317"/>
	<path fill="#1C5183" d="M67.953,49.102H28.787c-2.65,0-4.808,2.159-4.808,4.81v6.274c0,2.654,2.159,4.809,4.808,4.809h39.166
		c2.652,0,4.81-2.156,4.81-4.809v-6.274C72.763,51.261,70.605,49.102,67.953,49.102z M69.02,60.187c0,0.586-0.479,1.064-1.066,1.064
		H28.787c-0.587,0-1.063-0.479-1.063-1.064v-6.274c0-0.587,0.476-1.063,1.063-1.063h39.166c0.587,0,1.066,0.477,1.066,1.063V60.187
		L69.02,60.187z"/>
	<circle fill="#1C5183" cx="31.632" cy="40.185" r="1.318"/>
	<circle fill="#1C5183" cx="36.224" cy="40.185" r="1.318"/>
	<circle fill="#1C5183" cx="41.269" cy="40.185" r="1.318"/>
	<path fill="#1C5183" d="M67.953,32.16H28.787c-2.65,0-4.808,2.159-4.808,4.808v6.274c0,2.654,2.159,4.809,4.808,4.809h39.166
		c2.652,0,4.81-2.159,4.81-4.809v-6.274C72.763,34.317,70.605,32.16,67.953,32.16z M69.02,43.242c0,0.589-0.479,1.064-1.066,1.064
		H28.787c-0.587,0-1.063-0.478-1.063-1.064v-6.274c0-0.587,0.476-1.065,1.063-1.065h39.166c0.587,0,1.066,0.478,1.066,1.065V43.242
		L69.02,43.242z"/>
	<path fill="#1C5183" d="M67.953,66.046H28.787c-2.65,0-4.808,2.157-4.808,4.81v6.274c0,2.652,2.159,4.81,4.808,4.81h39.166
		c2.652,0,4.81-2.159,4.81-4.81v-6.274C72.763,68.203,70.605,66.046,67.953,66.046z M69.02,77.13c0,0.587-0.479,1.063-1.066,1.063
		H28.787c-0.587,0-1.063-0.476-1.063-1.063v-6.274c0-0.587,0.476-1.064,1.063-1.064h39.166c0.587,0,1.066,0.478,1.066,1.064V77.13
		L69.02,77.13z"/>
	<path fill="#1C5183" d="M67.953,83.05H28.787c-2.65,0-4.808,2.157-4.808,4.81v6.274c0,2.65,2.159,4.808,4.808,4.808h39.166
		c2.652,0,4.81-2.159,4.81-4.808v-6.274C72.763,85.207,70.605,83.05,67.953,83.05z M69.02,94.134c0,0.587-0.479,1.063-1.066,1.063
		H28.787c-0.587,0-1.063-0.476-1.063-1.063v-6.274c0-0.589,0.476-1.064,1.063-1.064h39.166c0.587,0,1.066,0.476,1.066,1.064V94.134
		L69.02,94.134z"/>
	<circle fill="#1C5183" cx="-30.334" cy="57.128" r="1.317"/>
	<path fill="#1C5183" d="M-25.74,55.811c-0.728,0-1.318,0.589-1.318,1.314c0,0.728,0.589,1.318,1.318,1.318
		c0.726,0,1.314-0.591,1.314-1.318C-24.426,56.399-25.013,55.811-25.74,55.811z"/>
	<circle fill="#1C5183" cx="-20.697" cy="57.128" r="1.317"/>
	<circle fill="#1C5183" cx="-30.56" cy="74.558" r="1.317"/>
	<circle fill="#1C5183" cx="-25.966" cy="74.558" r="1.317"/>
	<circle fill="#1C5183" cx="-20.925" cy="74.558" r="1.317"/>
	<circle fill="#1C5183" cx="-30.334" cy="92.055" r="1.317"/>
	<path fill="#1C5183" d="M-25.74,90.737c-0.728,0-1.318,0.589-1.318,1.314c0,0.728,0.589,1.318,1.318,1.318
		c0.726,0,1.314-0.591,1.314-1.318C-24.426,91.326-25.013,90.737-25.74,90.737z"/>
	<circle fill="#1C5183" cx="-20.697" cy="92.055" r="1.317"/>
	<path fill="#1C5183" d="M7.048,49.102h-40.225c-2.652,0-4.807,2.159-4.807,4.81v6.274c0,2.654,2.156,4.809,4.807,4.809H7.048
		c2.654,0,4.81-2.156,4.81-4.809v-6.274C11.857,51.261,9.7,49.102,7.048,49.102z M8.112,60.187c0,0.586-0.478,1.064-1.064,1.064
		h-40.225c-0.587,0-1.064-0.479-1.064-1.064v-6.274c0-0.587,0.478-1.063,1.064-1.063H7.048c0.587,0,1.064,0.477,1.064,1.063V60.187z
		"/>
	<path fill="#1C5183" d="M7.048,66.611h-40.225c-2.652,0-4.807,2.159-4.807,4.81v6.274c0,2.654,2.156,4.81,4.807,4.81H7.048
		c2.654,0,4.81-2.157,4.81-4.81v-6.274C11.857,68.769,9.7,66.611,7.048,66.611z M8.112,77.695c0,0.587-0.478,1.064-1.064,1.064
		h-40.225c-0.587,0-1.064-0.478-1.064-1.064v-6.274c0-0.589,0.478-1.063,1.064-1.063H7.048c0.587,0,1.064,0.476,1.064,1.063V77.695z
		"/>
	<path fill="#1C5183" d="M7.048,84.108h-40.225c-2.652,0-4.807,2.159-4.807,4.81v6.274c0,2.652,2.156,4.808,4.807,4.808H7.048
		c2.654,0,4.81-2.157,4.81-4.808v-6.274C11.857,86.266,9.7,84.108,7.048,84.108z M8.112,95.192c0,0.587-0.478,1.064-1.064,1.064
		h-40.225c-0.587,0-1.064-0.478-1.064-1.064v-6.274c0-0.589,0.478-1.063,1.064-1.063H7.048c0.587,0,1.064,0.474,1.064,1.063V95.192z
		"/>
	<circle fill="#1C5183" cx="93.785" cy="57.128" r="1.317"/>
	<circle fill="#1C5183" cx="98.38" cy="57.128" r="1.317"/>
	<circle fill="#1C5183" cx="103.424" cy="57.128" r="1.317"/>
	<path fill="#1C5183" d="M93.559,72.676c0.729,0,1.32,0.591,1.32,1.318s-0.591,1.316-1.32,1.316c-0.726,0-1.316-0.589-1.316-1.316
		S92.833,72.676,93.559,72.676z"/>
	<circle fill="#1C5183" cx="98.154" cy="73.993" r="1.317"/>
	<circle fill="#1C5183" cx="103.197" cy="73.993" r="1.317"/>
	<circle fill="#1C5183" cx="93.785" cy="90.994" r="1.317"/>
	<circle fill="#1C5183" cx="98.38" cy="90.994" r="1.317"/>
	<circle fill="#1C5183" cx="103.424" cy="90.994" r="1.317"/>
	<path fill="#1C5183" d="M131.166,49.102H90.942c-2.653,0-4.81,2.159-4.81,4.81v6.274c0,2.654,2.16,4.809,4.81,4.809h40.224
		c2.652,0,4.81-2.156,4.81-4.809v-6.274C135.979,51.261,133.818,49.102,131.166,49.102z M132.232,60.187
		c0,0.586-0.476,1.064-1.063,1.064H90.942c-0.587,0-1.06-0.479-1.06-1.064v-6.274c0-0.587,0.473-1.063,1.06-1.063h40.228
		c0.587,0,1.063,0.477,1.063,1.063V60.187L132.232,60.187z"/>
	<path fill="#1C5183" d="M131.166,66.046H90.942c-2.653,0-4.81,2.157-4.81,4.81v6.274c0,2.652,2.16,4.81,4.81,4.81h40.224
		c2.652,0,4.81-2.159,4.81-4.81v-6.274C135.979,68.203,133.818,66.046,131.166,66.046z M132.232,77.13
		c0,0.587-0.476,1.063-1.063,1.063H90.942c-0.587,0-1.06-0.476-1.06-1.063v-6.274c0-0.587,0.473-1.064,1.06-1.064h40.228
		c0.587,0,1.063,0.478,1.063,1.064V77.13L132.232,77.13z"/>
	<path fill="#1C5183" d="M131.166,83.05H90.942c-2.653,0-4.81,2.157-4.81,4.81v6.274c0,2.65,2.16,4.808,4.81,4.808h40.224
		c2.652,0,4.81-2.159,4.81-4.808v-6.274C135.979,85.207,133.818,83.05,131.166,83.05z M132.232,94.134
		c0,0.587-0.476,1.063-1.063,1.063H90.942c-0.587,0-1.06-0.476-1.06-1.063v-6.274c0-0.589,0.473-1.064,1.06-1.064h40.228
		c0.587,0,1.063,0.476,1.063,1.064V94.134L132.232,94.134z"/>
	<path fill="#1C5183" d="M150.293,38.006L50.663,0.122c-0.428-0.163-0.901-0.163-1.33,0l-99.628,37.885
		c-0.726,0.275-1.207,0.974-1.207,1.75v57.311c0,1.035,0.838,1.874,1.871,1.874h8.905c1.035,0,1.873-0.839,1.873-1.874V47.108H12.43
		l0.147,49.967c0.002,1.031,0.838,1.866,1.871,1.866h7.018c1.033,0,1.872-0.839,1.872-1.874V30.193h50.483v66.874
		c0,1.035,0.841,1.874,1.876,1.874h7.168c1.031,0,1.872-0.839,1.872-1.874V47.108h52.788l0.127,49.965
		c0,1.033,0.837,1.868,1.872,1.868h10.106c1.034,0,1.871-0.839,1.871-1.874V39.757C151.502,38.98,151.019,38.284,150.293,38.006z
		 M147.755,95.198h-6.367l-0.127-49.964c-0.004-1.035-0.841-1.867-1.872-1.867H82.861c-1.039,0-1.875,0.836-1.875,1.871v49.96
		h-3.426V28.324c0-1.033-0.837-1.872-1.872-1.872H21.46c-1.037,0-1.871,0.838-1.871,1.872v66.874h-3.281l-0.145-49.966
		c-0.002-1.033-0.841-1.865-1.871-1.865h-55.023c-1.035,0-1.873,0.836-1.873,1.871v49.96h-5.159V41.047L49.999,3.875l97.756,37.173
		V95.198z"/>
</g>
</svg>
