<?xml version="1.0" encoding="utf-8"?>
<!-- Generator: Adobe Illustrator 15.0.0, SVG Export Plug-In . SVG Version: 6.00 Build 0)  -->
<!DOCTYPE svg PUBLIC "-//W3C//DTD SVG 1.1//EN" "http://www.w3.org/Graphics/SVG/1.1/DTD/svg11.dtd">
<svg version="1.1" id="Layer_1" xmlns="http://www.w3.org/2000/svg" xmlns:xlink="http://www.w3.org/1999/xlink" x="0px" y="0px"
	 width="100px" height="100px" viewBox="0 0 100 100" enable-background="new 0 0 100 100" xml:space="preserve">
<g>
	<path fill="#339EDE" d="M30.782,47.434c0.466-5.848,1.727-10.937,3.751-15.133c1.669-3.461,3.858-6.326,6.506-8.514
		c0.923-0.765,1.836-1.392,2.707-1.905c-0.03,0.006-0.06,0.012-0.089,0.019c-0.132,0.084-0.288,0.133-0.455,0.133
		c-0.04,0-0.079-0.004-0.116-0.009C30.74,24.813,21.118,34.997,19.792,47.575c0.414-0.091,0.842-0.142,1.282-0.142H30.782z"/>
	<path fill="#FFC000" d="M83.352,53.206c0-2.242-1.862-4.066-4.15-4.066H21.074c-2.288,0-4.15,1.824-4.15,4.066v0.585h66.429
		L83.352,53.206L83.352,53.206z"/>
	<rect x="16.922" y="55.497" fill="#339EDE" width="66.429" height="4.017"/>
	<path fill="#339EDE" d="M17.186,70.727v-3.332H6.181v3.332c0,0.582,0.474,1.055,1.054,1.055h8.898
		C16.712,71.78,17.186,71.309,17.186,70.727z"/>
	<path fill="#339EDE" d="M58.147,25.101c-3.069-2.535-6.006-3.421-7.342-3.711v26.043h16.977
		C66.95,37.345,63.626,29.629,58.147,25.101z"/>
	<path fill="#339EDE" d="M32.494,47.434H49.1V21.481c-1.479,0.371-4.23,1.329-7.058,3.69C36.616,29.707,33.319,37.398,32.494,47.434
		z"/>
	<path fill="#FFC000" d="M51.909,17.112h-1.104v2.458c1.653,0.044,3.288,0.212,4.896,0.498
		C55.231,18.364,53.709,17.112,51.909,17.112z"/>
	<path fill="#FFC000" d="M64.008,9.351V4.212c-0.076,0.001-0.151,0.001-0.226,0.001c-2.453,0-3.863-0.543-5.229-1.067
		C57.348,2.682,56.2,2.241,54.259,2.14v5.195c2.582,0.104,4.324,0.655,5.878,1.148C61.415,8.889,62.545,9.248,64.008,9.351z"/>
	<path fill="#339EDE" d="M65.741,32.3c2.024,4.195,3.283,9.286,3.752,15.133H79.2c0.272,0,0.541,0.021,0.804,0.057
		C78.646,34.974,69.075,24.845,56.789,22.04c0.791,0.484,1.614,1.061,2.446,1.748C61.883,25.974,64.072,28.839,65.741,32.3z"/>
	<path fill="#FFC000" d="M49.1,17.112h-1.104c-1.793,0-3.311,1.242-3.786,2.938c1.604-0.28,3.238-0.443,4.89-0.482V17.112
		L49.1,17.112z"/>
	<rect x="86.295" y="73.568" fill="#FFC000" width="4.553" height="18.077"/>
	<path fill="#339EDE" d="M82.67,70.808c0,0.582,0.472,1.056,1.054,1.056h8.897c0.581,0,1.054-0.474,1.054-1.056v-3.413H82.67V70.808
		z"/>
	<rect x="9.191" y="73.487" fill="#FFC000" width="4.718" height="18.158"/>
	<path fill="#339EDE" d="M6.18,94.406v3.861l87.646,0.296v-4.157c0-0.581-0.473-1.055-1.055-1.055H7.234
		C6.653,93.353,6.18,93.825,6.18,94.406z"/>
	<path fill="#FFC000" d="M92.763,61.221H7.244c-0.586,0-1.063,0.474-1.063,1.054v3.413h87.646v-3.413
		C93.825,61.693,93.349,61.221,92.763,61.221z"/>
	<rect x="67.623" y="73.487" fill="#FFC000" width="4.115" height="18.158"/>
	<path fill="#339EDE" d="M64.479,70.727c0,0.582,0.475,1.055,1.056,1.055h8.897c0.578,0,1.054-0.473,1.054-1.055v-3.332H64.479
		V70.727z"/>
	<path fill="#339EDE" d="M44.399,70.727c0,0.582,0.472,1.055,1.054,1.055h8.896c0.582,0,1.056-0.473,1.056-1.055v-3.332H44.399
		V70.727z"/>
	<rect x="47.644" y="73.487" fill="#FFC000" width="4.518" height="18.158"/>
	<path fill="#339EDE" d="M24.653,70.727c0,0.582,0.473,1.055,1.054,1.055h8.897c0.582,0,1.056-0.473,1.056-1.055v-3.332H24.654
		L24.653,70.727L24.653,70.727z"/>
	<rect x="27.765" y="73.487" fill="#FFC000" width="4.819" height="18.158"/>
	<path fill="#1C5183" d="M53.407,9.026c2.798,0,4.535,0.551,6.214,1.084c1.512,0.479,3.076,0.976,5.24,0.976
		c0.471,0,0.854-0.382,0.854-0.853V3.326c0-0.236-0.097-0.461-0.27-0.622c-0.171-0.161-0.4-0.245-0.637-0.23
		c-0.354,0.021-0.7,0.032-1.027,0.032c-2.136,0-3.341-0.463-4.614-0.954c-1.457-0.561-2.965-1.141-5.76-1.141
		c-0.474,0-0.854,0.382-0.854,0.854v6.907C52.553,8.644,52.935,9.026,53.407,9.026z M54.26,2.14
		c1.941,0.102,3.089,0.541,4.294,1.006c1.365,0.524,2.775,1.067,5.229,1.067c0.073,0,0.148,0,0.226-0.001v5.139
		c-1.463-0.103-2.593-0.462-3.87-0.866c-1.554-0.493-3.296-1.046-5.878-1.148L54.26,2.14L54.26,2.14z"/>
	<path fill="#1C5183" d="M92.763,59.514h-7.705v-6.308c0-2.275-1.343-4.247-3.289-5.188c-0.647-7.711-4.225-14.861-10.085-20.153
		c-4.039-3.648-8.914-6.18-14.174-7.424c-0.354-2.838-2.729-5.036-5.601-5.036h-1.104V0.854C50.805,0.382,50.423,0,49.952,0
		c-0.472,0-0.854,0.382-0.854,0.854v14.552h-1.104c-2.862,0-5.232,2.187-5.599,5.011c-5.3,1.237-10.212,3.778-14.279,7.452
		c-5.911,5.338-9.499,12.565-10.103,20.352c-0.002,0.021-0.002,0.042-0.002,0.063c-1.678,1.017-2.8,2.842-2.8,4.922v6.307H7.241
		c-1.527,0-2.771,1.239-2.771,2.761v4.738v3.715v0.081c0,1.523,1.242,2.762,2.771,2.762c0.084,0,0.166-0.013,0.241-0.035v18.111
		H7.231c-1.521,0-2.761,1.239-2.761,2.762v4.714c0,0.469,0.38,0.877,0.851,0.879c0,0,89.566,0,89.956,0
		c0.252,0,0.252-0.353,0.252-0.579v-5.014c0-1.521-1.239-2.762-2.762-2.762h-0.217V73.569h0.066c0.031,0,0.063-0.001,0.094-0.002
		c0.016,0.001,0.031,0.002,0.048,0.002c1.526,0,2.771-1.237,2.771-2.762v-8.533C95.532,60.752,94.289,59.514,92.763,59.514z
		 M80.004,47.489c-0.263-0.036-0.53-0.057-0.804-0.057h-9.707c-0.469-5.848-1.728-10.937-3.752-15.133
		c-1.669-3.461-3.858-6.326-6.506-8.514c-0.832-0.688-1.655-1.264-2.446-1.748C69.075,24.845,78.646,34.974,80.004,47.489z
		 M50.806,17.112h1.104c1.8,0,3.321,1.252,3.791,2.956c-1.606-0.286-3.241-0.454-4.896-0.498V17.112z M50.806,21.39
		c1.336,0.29,4.271,1.176,7.342,3.711c5.479,4.528,8.804,12.244,9.635,22.333H50.806V21.39z M47.996,17.112H49.1v2.454
		c-1.651,0.038-3.286,0.202-4.89,0.482C44.686,18.354,46.203,17.112,47.996,17.112z M49.1,21.479v25.954H32.494
		c0.826-10.034,4.122-17.727,9.548-22.262C44.868,22.81,47.619,21.852,49.1,21.479z M43.085,22.023
		c0.038,0.005,0.077,0.009,0.116,0.009c0.167,0,0.323-0.049,0.455-0.133c0.029-0.007,0.06-0.013,0.089-0.019
		c-0.87,0.515-1.783,1.143-2.706,1.905c-2.648,2.188-4.837,5.053-6.507,8.514c-2.024,4.195-3.285,9.286-3.751,15.133h-9.709
		c-0.44,0-0.868,0.051-1.282,0.142C21.117,34.996,30.739,24.813,43.085,22.023z M16.922,53.206c0-2.242,1.862-4.066,4.15-4.066H79.2
		c2.288,0,4.15,1.824,4.15,4.066v0.585H16.921L16.922,53.206L16.922,53.206z M16.922,55.497h66.429v4.017H16.922V55.497
		L16.922,55.497z M7.234,71.78c-0.582,0-1.055-0.473-1.055-1.055v-3.331h11.005v3.331c0,0.582-0.473,1.055-1.054,1.055H7.234z
		 M25.707,73.487h0.352v18.158h-10.44V73.487h0.515c1.522,0,2.761-1.238,2.761-2.762v-3.331h4.055v3.331
		C22.947,72.249,24.184,73.487,25.707,73.487z M45.453,73.487h0.482v18.158H34.291V73.487h0.313c1.523,0,2.762-1.238,2.762-2.762
		v-3.331h5.326v3.331C42.692,72.249,43.931,73.487,45.453,73.487z M65.533,73.487h0.383v18.158H53.868V73.487h0.481
		c1.522,0,2.763-1.238,2.763-2.762v-3.331h5.659v3.331C62.772,72.249,64.01,73.487,65.533,73.487z M83.724,73.568h0.865v18.077
		H73.446V73.487h0.984c1.521,0,2.758-1.238,2.758-2.762v-3.331h3.772v3.412C80.962,72.331,82.2,73.568,83.724,73.568z
		 M75.484,70.727c0,0.582-0.475,1.055-1.054,1.055h-8.897c-0.581,0-1.056-0.473-1.056-1.055v-3.332h11.007V70.727z M71.738,73.487
		v18.158h-4.115V73.487H71.738z M55.405,70.727c0,0.582-0.474,1.055-1.056,1.055h-8.896c-0.582,0-1.054-0.473-1.054-1.055v-3.332
		h11.006V70.727L55.405,70.727z M52.161,73.487v18.158h-4.519V73.487H52.161z M35.66,70.727c0,0.582-0.474,1.055-1.056,1.055h-8.897
		c-0.581,0-1.054-0.473-1.054-1.055v-3.332h11.006L35.66,70.727L35.66,70.727z M32.584,73.487v18.158h-4.819V73.487H32.584z
		 M13.911,73.487v18.158H9.193V73.487H13.911z M92.771,93.353c0.582,0,1.055,0.474,1.055,1.055v4.157L6.181,98.269v-3.861
		c0-0.581,0.474-1.055,1.055-1.055H92.771L92.771,93.353z M86.295,91.646V73.568h4.553v18.077H86.295z M93.675,70.808
		c0,0.582-0.473,1.056-1.054,1.056h-8.897c-0.582,0-1.054-0.474-1.054-1.056v-3.413h11.005V70.808L93.675,70.808z M93.825,65.688
		H6.18v-3.413c0-0.58,0.478-1.054,1.063-1.054h85.519c0.586,0,1.063,0.474,1.063,1.054V65.688z"/>
</g>
</svg>
