<?xml version="1.0" encoding="utf-8"?>
<!-- Generator: Adobe Illustrator 15.0.0, SVG Export Plug-In . SVG Version: 6.00 Build 0)  -->
<!DOCTYPE svg PUBLIC "-//W3C//DTD SVG 1.1//EN" "http://www.w3.org/Graphics/SVG/1.1/DTD/svg11.dtd">
<svg version="1.1" id="Layer_1" xmlns="http://www.w3.org/2000/svg" xmlns:xlink="http://www.w3.org/1999/xlink" x="0px" y="0px"
	 width="100px" height="100px" viewBox="0 0 100 100" enable-background="new 0 0 100 100" xml:space="preserve">
<g>
	<rect x="38.657" y="44.805" fill="#339EDE" width="11.242" height="17.945"/>
	<path fill="#FFC000" d="M51.036,62.75h3.542v-7.818c0-0.294,0.239-0.531,0.533-0.531h5.927h5.927c0.294,0,0.533,0.237,0.533,0.531
		v7.818h3.611V44.271v-5.413H50.967v5.147c0.045,0.078,0.072,0.169,0.072,0.266V62.75H51.036z M66.263,41.397h2.092v2.09h-2.092
		V41.397z M66.263,45.579h2.092v2.09h-2.092V45.579z M66.263,49.759h2.092v2.089h-2.092V49.759z M62.083,41.397h2.09v2.09h-2.09
		V41.397z M62.083,45.579h2.09v2.09h-2.09V45.579z M62.083,49.759h2.09v2.089h-2.09V49.759z M57.901,41.397h2.092v2.09h-2.092
		V41.397z M57.901,45.579h2.092v2.09h-2.092V45.579z M57.901,49.759h2.092v2.089h-2.092V49.759z M53.72,41.397h2.092v2.09H53.72
		V41.397z M53.72,45.579h2.092v2.09H53.72V45.579z M53.72,49.759h2.092v2.089H53.72V49.759z"/>
	<rect x="61.57" y="55.465" fill="#FFC000" width="4.86" height="7.285"/>
	<path fill="#FFC000" d="M43.271,83.467c0-2.42-1.97-4.391-4.388-4.391c-2.422,0-4.391,1.971-4.391,4.391
		c0,2.422,1.969,4.391,4.391,4.391C41.302,87.857,43.271,85.889,43.271,83.467z"/>
	<rect x="55.643" y="55.465" fill="#FFC000" width="4.86" height="7.285"/>
	<rect x="72.175" y="44.805" fill="#339EDE" width="11.314" height="17.945"/>
	<path fill="#339EDE" d="M64.737,83.593h1.065v4.404l4.203,0.015v-4.817c0-2.579-2.097-4.676-4.675-4.676H57.04
		c-2.576,0-4.672,2.097-4.672,4.676v4.758l3.986,0.015v-4.374h1.065v4.376l7.315,0.023L64.737,83.593L64.737,83.593z"/>
	<path fill="#FFC000" d="M43.177,89.438h-8.291c-2.576,0-4.673,2.097-4.673,4.673v4.758l3.986,0.017v-4.376h1.065v4.379l7.317,0.023
		v-4.402h1.067v4.404l4.201,0.017V94.11C47.849,91.531,45.753,89.438,43.177,89.438z"/>
	<path fill="#FFC000" d="M86.837,89.438h-8.291c-2.576,0-4.672,2.097-4.672,4.673v4.758l3.985,0.017v-4.376h1.066v4.379l7.315,0.023
		v-4.402h1.065v4.404l4.202,0.017V94.11C91.509,91.531,89.413,89.438,86.837,89.438z"/>
	<path fill="#FFC000" d="M86.931,83.467c0-2.42-1.97-4.391-4.391-4.391c-2.42,0-4.389,1.971-4.389,4.391
		c0,2.422,1.969,4.391,4.389,4.391C84.961,87.857,86.931,85.889,86.931,83.467z"/>
	<path fill="#339EDE" d="M65.428,72.549c0-2.42-1.97-4.389-4.391-4.389c-2.42,0-4.389,1.969-4.389,4.389
		c0,2.422,1.969,4.391,4.389,4.391C63.458,76.939,65.428,74.971,65.428,72.549z"/>
	<rect x="57.901" y="41.397" fill="#1C5183" width="2.092" height="2.09"/>
	<rect x="62.083" y="41.397" fill="#1C5183" width="2.09" height="2.09"/>
	<rect x="66.263" y="41.397" fill="#1C5183" width="2.092" height="2.09"/>
	<rect x="53.72" y="41.397" fill="#1C5183" width="2.092" height="2.09"/>
	<rect x="66.263" y="45.579" fill="#1C5183" width="2.092" height="2.09"/>
	<rect x="53.72" y="45.579" fill="#1C5183" width="2.092" height="2.09"/>
	<rect x="57.901" y="45.579" fill="#1C5183" width="2.092" height="2.09"/>
	<rect x="62.083" y="45.579" fill="#1C5183" width="2.09" height="2.09"/>
	<rect x="66.263" y="49.759" fill="#1C5183" width="2.092" height="2.089"/>
	<rect x="53.72" y="49.759" fill="#1C5183" width="2.092" height="2.089"/>
	<rect x="57.901" y="49.759" fill="#1C5183" width="2.092" height="2.089"/>
	<rect x="62.083" y="49.759" fill="#1C5183" width="2.09" height="2.089"/>
	<path fill="#1C5183" d="M38.124,63.817h12.308h0.072h4.606h5.927h5.927h4.679h12.379c0.295,0,0.533-0.24,0.533-0.534V44.272
		c0-0.294-0.238-0.534-0.533-0.534H72.175v-5.414c0-0.293-0.238-0.532-0.532-0.532H50.432c-0.293,0-0.531,0.239-0.531,0.532v5.414
		H38.124c-0.294,0-0.532,0.24-0.532,0.534v19.011C37.592,63.577,37.829,63.817,38.124,63.817z M72.175,44.805h11.314V62.75H72.175
		V44.805z M60.503,62.75h-4.86v-7.285h4.86V62.75z M66.431,62.75h-4.86v-7.285h4.86V62.75z M50.966,38.857h20.143v5.413V62.75
		h-3.611v-7.818c0-0.294-0.239-0.531-0.533-0.531h-5.927H55.11c-0.294,0-0.532,0.237-0.532,0.531v7.818h-3.542V44.271
		c0-0.097-0.026-0.187-0.072-0.266L50.966,38.857L50.966,38.857z M38.657,44.805h11.242V62.75H38.657V44.805L38.657,44.805z"/>
	<path fill="#1C5183" d="M45.028,74.458c-0.161-0.254-0.32-0.52-0.472-0.788l-0.929,0.522c0.159,0.284,0.326,0.566,0.498,0.835
		L45.028,74.458z"/>
	<path fill="#1C5183" d="M45.825,75.613c-0.18-0.24-0.36-0.491-0.531-0.745l-0.885,0.596c0.183,0.271,0.375,0.536,0.568,0.792
		L45.825,75.613z"/>
	<path fill="#1C5183" d="M51.221,79.911c-0.279-0.123-0.553-0.254-0.82-0.394l-0.492,0.946c0.287,0.149,0.586,0.289,0.883,0.422
		L51.221,79.911z"/>
	<path fill="#1C5183" d="M46.723,76.686c-0.203-0.221-0.404-0.453-0.597-0.69L45.3,76.669c0.205,0.254,0.421,0.503,0.639,0.737
		L46.723,76.686z"/>
	<path fill="#1C5183" d="M49.976,79.285c-0.261-0.149-0.521-0.309-0.771-0.475l-0.591,0.887c0.271,0.179,0.55,0.354,0.835,0.516
		L49.976,79.285z"/>
	<path fill="#1C5183" d="M47.719,77.662c-0.224-0.199-0.446-0.41-0.659-0.626l-0.759,0.747c0.229,0.232,0.469,0.46,0.71,0.677
		L47.719,77.662z"/>
	<path fill="#1C5183" d="M48.805,78.535c-0.245-0.178-0.485-0.362-0.718-0.555l-0.682,0.82c0.254,0.209,0.514,0.41,0.778,0.601
		L48.805,78.535z"/>
	<path fill="#1C5183" d="M42.742,69.304c-0.088-0.292-0.171-0.593-0.249-0.892l-1.032,0.266c0.081,0.313,0.166,0.626,0.258,0.932
		L42.742,69.304z"/>
	<path fill="#1C5183" d="M44.324,73.238c-0.141-0.266-0.277-0.543-0.41-0.822l-0.965,0.45c0.137,0.294,0.283,0.586,0.432,0.87
		L44.324,73.238z"/>
	<path fill="#1C5183" d="M42.376,67.93c-0.071-0.296-0.138-0.603-0.199-0.905l-1.045,0.208c0.063,0.318,0.131,0.634,0.206,0.944
		L42.376,67.93z"/>
	<path fill="#1C5183" d="M40.707,64.301c0.027,0.313,0.062,0.636,0.102,0.963l1.058-0.133c-0.04-0.313-0.072-0.624-0.097-0.923
		L40.707,64.301z"/>
	<path fill="#1C5183" d="M42.084,66.538c-0.054-0.307-0.106-0.614-0.152-0.918l-1.054,0.154c0.046,0.317,0.099,0.638,0.155,0.953
		L42.084,66.538z"/>
	<path fill="#1C5183" d="M43.709,71.967c-0.121-0.279-0.24-0.564-0.351-0.854L42.363,71.5c0.117,0.304,0.243,0.603,0.371,0.895
		L43.709,71.967z"/>
	<path fill="#1C5183" d="M43.185,70.653c-0.105-0.287-0.204-0.584-0.299-0.878l-1.015,0.325c0.096,0.309,0.202,0.616,0.311,0.915
		L43.185,70.653z"/>
	<path fill="#1C5183" d="M81.194,65.774l-1.053-0.154c-0.046,0.304-0.097,0.611-0.151,0.918l1.049,0.189
		C81.097,66.412,81.149,66.092,81.194,65.774z"/>
	<path fill="#1C5183" d="M80.943,67.232l-1.045-0.208c-0.061,0.303-0.129,0.609-0.198,0.905l1.036,0.247
		C80.811,67.866,80.879,67.548,80.943,67.232z"/>
	<path fill="#1C5183" d="M80.613,68.678l-1.032-0.266c-0.078,0.299-0.161,0.6-0.246,0.892l1.021,0.304
		C80.446,69.304,80.532,68.99,80.613,68.678z"/>
	<path fill="#1C5183" d="M81.369,64.301l-1.063-0.093c-0.025,0.299-0.059,0.61-0.1,0.923l1.059,0.133
		C81.306,64.939,81.34,64.614,81.369,64.301z"/>
	<path fill="#1C5183" d="M76.774,76.666l-0.827-0.674c-0.193,0.237-0.394,0.473-0.597,0.69l0.784,0.724
		C76.354,77.169,76.569,76.92,76.774,76.666z"/>
	<path fill="#1C5183" d="M75.776,77.786l-0.759-0.75c-0.215,0.219-0.436,0.43-0.659,0.629l0.707,0.795
		C75.306,78.246,75.547,78.019,75.776,77.786z"/>
	<path fill="#1C5183" d="M73.459,79.697l-0.588-0.887c-0.25,0.166-0.51,0.327-0.773,0.477l0.527,0.928
		C72.909,80.051,73.191,79.878,73.459,79.697z"/>
	<path fill="#1C5183" d="M70.854,79.911l0.428,0.975c0.3-0.13,0.599-0.272,0.885-0.422l-0.493-0.946
		C71.406,79.657,71.13,79.788,70.854,79.911z"/>
	<path fill="#1C5183" d="M80.204,70.101l-1.016-0.325c-0.095,0.294-0.194,0.589-0.299,0.878l1.003,0.362
		C80.001,70.717,80.106,70.409,80.204,70.101z"/>
	<path fill="#1C5183" d="M74.669,78.801l-0.681-0.82c-0.232,0.192-0.477,0.379-0.719,0.555l0.621,0.866
		C74.154,79.211,74.415,79.01,74.669,78.801z"/>
	<path fill="#1C5183" d="M79.71,71.5l-0.994-0.387c-0.113,0.289-0.23,0.576-0.353,0.854l0.977,0.428
		C79.468,72.103,79.594,71.804,79.71,71.5z"/>
	<path fill="#1C5183" d="M79.127,72.866l-0.967-0.45c-0.13,0.277-0.269,0.557-0.409,0.822l0.944,0.498
		C78.844,73.454,78.989,73.16,79.127,72.866z"/>
	<path fill="#1C5183" d="M78.447,74.192l-0.93-0.524c-0.15,0.271-0.309,0.534-0.469,0.79l0.9,0.569
		C78.12,74.757,78.287,74.475,78.447,74.192z"/>
	<path fill="#1C5183" d="M77.665,75.464l-0.885-0.596c-0.172,0.254-0.352,0.505-0.534,0.745l0.85,0.643
		C77.29,76.002,77.482,75.734,77.665,75.464z"/>
	<path fill="#1C5183" d="M86.837,88.372h-1.905c1.813-0.89,3.065-2.754,3.065-4.905c0-3.008-2.447-5.456-5.455-5.456
		s-5.457,2.448-5.457,5.456c0,2.151,1.254,4.016,3.068,4.905h-1.607c-3.165,0-5.739,2.573-5.739,5.738V95.1H61.57v-6.049l9.503,0.03
		v-5.887c0-0.729-0.138-1.424-0.384-2.063c0.037-0.015,0.077-0.029,0.114-0.046l-0.393-0.989c-0.066,0.026-0.133,0.053-0.199,0.076
		c-1.013-1.629-2.82-2.718-4.878-2.718h-1.906c1.814-0.885,3.066-2.752,3.066-4.903c0-3.01-2.447-5.458-5.456-5.458
		s-5.455,2.45-5.455,5.458c0,2.151,1.252,4.019,3.065,4.903h-1.607c-2.136,0-4.003,1.174-4.989,2.91l0.038-0.106
		c-0.143-0.053-0.285-0.107-0.424-0.162l-0.394,0.989c0.125,0.05,0.25,0.098,0.376,0.146c-0.223,0.611-0.347,1.273-0.347,1.964v5.82
		l9.204,0.031V95.1h-11.59v-0.992c0-3.162-2.574-5.737-5.738-5.737h-1.907c1.817-0.888,3.067-2.752,3.067-4.903
		c0-3.008-2.448-5.458-5.456-5.458c-3.01,0-5.456,2.45-5.456,5.458c0,2.151,1.252,4.016,3.066,4.903h-1.607
		c-3.165,0-5.738,2.573-5.738,5.737v5.823L48.916,100v-3.833h23.891v3.767L92.575,100v-5.89
		C92.575,90.945,90.002,88.372,86.837,88.372z M34.492,83.467c0-2.42,1.969-4.391,4.391-4.391c2.419,0,4.388,1.971,4.388,4.391
		c0,2.422-1.97,4.391-4.388,4.391C36.46,87.857,34.492,85.889,34.492,83.467z M47.849,98.928l-4.201-0.015v-4.404h-1.067v4.402
		l-7.317-0.026v-4.376h-1.065v4.374l-3.986-0.015v-4.761c0-2.576,2.097-4.673,4.673-4.673h8.291c2.576,0,4.672,2.097,4.672,4.673
		V98.928L47.849,98.928z M56.648,72.549c0-2.42,1.969-4.389,4.389-4.389c2.421,0,4.391,1.969,4.391,4.389
		c0,2.422-1.97,4.391-4.391,4.391C58.617,76.939,56.648,74.971,56.648,72.549z M57.42,87.972v-4.379h-1.065v4.376l-3.984-0.014
		v-4.761c0-2.576,2.095-4.673,4.671-4.673h8.292c2.577,0,4.673,2.097,4.673,4.673v4.819L65.804,88v-4.407h-1.065v4.402L57.42,87.972
		z M78.151,83.467c0-2.42,1.97-4.391,4.391-4.391c2.42,0,4.391,1.971,4.391,4.391c0,2.422-1.971,4.391-4.391,4.391
		C80.121,87.857,78.151,85.889,78.151,83.467z M91.509,98.928l-4.202-0.015v-4.404h-1.065v4.402l-7.315-0.026v-4.376h-1.066v4.374
		l-3.985-0.015v-4.761c0-2.576,2.096-4.673,4.672-4.673h8.291c2.578,0,4.674,2.097,4.674,4.673v4.82H91.509z"/>
	<path fill="#1C5183" d="M44.324,50.804c0.577,0,1.044,0.47,1.044,1.044h2.092c0-1.36-0.877-2.51-2.092-2.942v-1.238h-2.09v1.238
		c-1.214,0.432-2.09,1.582-2.09,2.942c0,0.277,0.109,0.543,0.305,0.738l3.809,3.809c-0.15,0.396-0.532,0.679-0.979,0.679
		c-0.578,0-1.045-0.47-1.045-1.044h-2.09c0,1.362,0.876,2.51,2.09,2.944v1.238h2.09v-1.238c1.214-0.432,2.092-1.582,2.092-2.944
		c0-0.277-0.109-0.543-0.308-0.739l-3.807-3.808C43.494,51.087,43.876,50.804,44.324,50.804z"/>
	<path fill="#1C5183" d="M77.665,50.804c0.577,0,1.044,0.47,1.044,1.044h2.092c0-1.36-0.878-2.51-2.092-2.942v-1.238h-2.09v1.238
		c-1.214,0.432-2.09,1.582-2.09,2.942c0,0.277,0.108,0.543,0.306,0.738l3.809,3.809c-0.149,0.396-0.533,0.679-0.979,0.679
		c-0.578,0-1.047-0.47-1.047-1.044h-2.091c0,1.362,0.878,2.51,2.091,2.944v1.238h2.09v-1.238c1.215-0.432,2.093-1.582,2.093-2.944
		c0-0.277-0.11-0.543-0.307-0.739l-3.811-3.808C76.833,51.087,77.218,50.804,77.665,50.804z"/>
	<polygon fill="#1C5183" points="29.147,96.121 1.887,96.121 1.887,66.175 2.202,66.175 2.202,95.809 29.147,95.809 	"/>
	<g>
		<path fill="#FFC000" d="M2.045,41.703c6.758,0,12.236,5.479,12.236,12.237c0,6.755-5.479,12.234-12.236,12.234
			S-10.19,60.695-10.19,53.94C-10.19,47.182-4.713,41.703,2.045,41.703z"/>
		<path fill="#1C5183" d="M2.045,66.709c-7.042,0-12.769-5.729-12.769-12.769c0-7.042,5.727-12.771,12.769-12.771
			c7.04,0,12.769,5.729,12.769,12.771C14.813,60.98,9.085,66.709,2.045,66.709z M2.045,42.237c-6.452,0-11.702,5.25-11.702,11.703
			c0,6.451,5.25,11.703,11.702,11.703c6.453,0,11.704-5.252,11.704-11.703C13.749,47.487,8.498,42.237,2.045,42.237z"/>
	</g>
	<g>
		<path fill="#1C5183" d="M-6.023,48.972v0.932h0.983v-0.932h0.424v2.323H-5.04v-1.022h-0.983v1.022h-0.423v-2.323H-6.023z"/>
		<path fill="#1C5183" d="M-3.674,49.149c0,0.126-0.095,0.228-0.242,0.228c-0.141,0-0.235-0.102-0.235-0.228
			c0-0.131,0.097-0.23,0.237-0.23C-3.769,48.919-3.679,49.019-3.674,49.149z M-4.127,51.295v-1.679h0.424v1.679H-4.127z"/>
		<path fill="#1C5183" d="M-3.244,50.16c0-0.229-0.002-0.395-0.013-0.541h0.364l0.017,0.315h0.011
			c0.083-0.232,0.279-0.354,0.463-0.354c0.04,0,0.064,0.002,0.1,0.011v0.395c-0.038-0.007-0.076-0.009-0.127-0.009
			c-0.201,0-0.342,0.127-0.381,0.321c-0.006,0.036-0.009,0.082-0.009,0.127v0.872h-0.424V50.16L-3.244,50.16z"/>
		<path fill="#1C5183" d="M-1.746,50.576c0.01,0.304,0.245,0.435,0.517,0.435c0.197,0,0.334-0.031,0.465-0.076l0.062,0.289
			c-0.145,0.063-0.344,0.107-0.586,0.107c-0.546,0-0.866-0.335-0.866-0.849c0-0.466,0.282-0.903,0.82-0.903
			c0.546,0,0.725,0.448,0.725,0.818c0,0.08-0.007,0.14-0.013,0.177h-1.125V50.576z M-1.008,50.281
			c0.003-0.154-0.066-0.411-0.349-0.411c-0.261,0-0.371,0.237-0.389,0.411H-1.008z"/>
		<path fill="#1C5183" d="M1.281,48.85v1.976c0,0.174,0.007,0.358,0.014,0.473H0.919l-0.02-0.266H0.892
			c-0.1,0.185-0.304,0.304-0.544,0.304c-0.403,0-0.72-0.342-0.72-0.858c-0.005-0.563,0.349-0.896,0.752-0.896
			c0.23,0,0.396,0.093,0.473,0.218h0.006v-0.948L1.281,48.85L1.281,48.85z M0.858,50.318c0-0.033-0.002-0.08-0.011-0.114
			c-0.037-0.162-0.172-0.296-0.365-0.296c-0.271,0-0.423,0.241-0.423,0.551s0.152,0.532,0.421,0.532
			c0.173,0,0.325-0.116,0.365-0.299c0.012-0.038,0.014-0.078,0.014-0.124L0.858,50.318L0.858,50.318z"/>
		<path fill="#1C5183" d="M4.431,50.35c-0.014-0.302-0.031-0.664-0.028-0.978h-0.01c-0.076,0.282-0.173,0.597-0.275,0.89
			L3.776,51.27H3.452l-0.31-0.993c-0.09-0.297-0.174-0.614-0.234-0.904H2.9c-0.01,0.304-0.023,0.674-0.042,0.989l-0.05,0.934H2.41
			l0.157-2.323h0.557l0.304,0.937c0.083,0.273,0.155,0.547,0.215,0.806h0.009c0.063-0.252,0.141-0.537,0.231-0.811l0.32-0.932h0.551
			l0.134,2.323H4.476L4.431,50.35z"/>
		<path fill="#1C5183" d="M6.917,50.442c0,0.618-0.434,0.891-0.861,0.891c-0.473,0-0.842-0.322-0.842-0.863
			c0-0.553,0.362-0.891,0.87-0.891C6.584,49.579,6.917,49.932,6.917,50.442z M5.65,50.459c0,0.324,0.164,0.57,0.419,0.57
			c0.241,0,0.409-0.234,0.409-0.576c0-0.263-0.118-0.566-0.405-0.566C5.772,49.887,5.65,50.182,5.65,50.459z"/>
		<path fill="#1C5183" d="M7.266,50.16c0-0.229-0.002-0.395-0.013-0.541h0.364l0.019,0.315h0.01
			c0.083-0.232,0.277-0.354,0.461-0.354c0.042,0,0.065,0.002,0.101,0.011v0.395c-0.038-0.007-0.076-0.009-0.128-0.009
			c-0.199,0-0.341,0.127-0.378,0.321c-0.007,0.036-0.01,0.082-0.01,0.127v0.872H7.266V50.16z"/>
		<path fill="#1C5183" d="M8.763,50.576c0.009,0.304,0.245,0.435,0.517,0.435c0.197,0,0.335-0.031,0.465-0.076l0.064,0.289
			c-0.145,0.063-0.346,0.107-0.587,0.107c-0.544,0-0.866-0.335-0.866-0.849c0-0.466,0.283-0.903,0.82-0.903
			c0.544,0,0.725,0.448,0.725,0.818c0,0.08-0.007,0.14-0.014,0.177H8.763V50.576z M9.5,50.281c0.002-0.154-0.064-0.411-0.347-0.411
			c-0.262,0-0.374,0.237-0.39,0.411H9.5z"/>
		<path fill="#1C5183" d="M-4.209,53.323v0.432h0.402v0.318h-0.402v0.742c0,0.206,0.055,0.311,0.217,0.311
			c0.076,0,0.119-0.005,0.166-0.019l0.007,0.319c-0.063,0.026-0.177,0.046-0.306,0.046c-0.16,0-0.286-0.053-0.367-0.138
			c-0.094-0.098-0.134-0.252-0.134-0.473v-0.789h-0.237v-0.318h0.237v-0.313L-4.209,53.323z"/>
		<path fill="#1C5183" d="M-3.484,52.989h0.425v0.993h0.005c0.052-0.078,0.125-0.142,0.211-0.188
			c0.085-0.05,0.185-0.078,0.292-0.078c0.286,0,0.585,0.19,0.585,0.729v0.989h-0.424V54.49c0-0.239-0.089-0.427-0.325-0.427
			c-0.165,0-0.282,0.109-0.33,0.237c-0.014,0.035-0.017,0.08-0.017,0.125v1.009h-0.424v-2.445H-3.484z"/>
		<path fill="#1C5183" d="M-0.208,55.033c0,0.152,0.007,0.299,0.028,0.403h-0.383l-0.031-0.188h-0.011
			c-0.1,0.133-0.275,0.226-0.497,0.226c-0.338,0-0.526-0.244-0.526-0.498c0-0.422,0.375-0.641,0.995-0.636v-0.026
			c0-0.111-0.045-0.294-0.342-0.294c-0.164,0-0.337,0.053-0.451,0.126l-0.083-0.277c0.125-0.076,0.342-0.147,0.607-0.147
			c0.538,0,0.692,0.342,0.692,0.709V55.033L-0.208,55.033z M-0.621,54.616c-0.301-0.003-0.587,0.057-0.587,0.313
			c0,0.166,0.106,0.242,0.242,0.242c0.172,0,0.293-0.111,0.333-0.229c0.012-0.031,0.012-0.064,0.012-0.096V54.616L-0.621,54.616z"/>
		<path fill="#1C5183" d="M0.24,54.258c0-0.194-0.007-0.355-0.014-0.5h0.37l0.02,0.251h0.011c0.077-0.131,0.259-0.289,0.537-0.289
			c0.293,0,0.597,0.189,0.597,0.721v0.996H1.336v-0.948c0-0.24-0.09-0.425-0.32-0.425c-0.168,0-0.285,0.121-0.33,0.249
			c-0.015,0.033-0.021,0.085-0.021,0.133v0.989H0.24V54.258L0.24,54.258z"/>
		<path fill="#1C5183" d="M2.847,55.437v-0.259l0.266-0.244c0.529-0.491,0.777-0.759,0.779-1.056c0-0.201-0.108-0.377-0.4-0.377
			c-0.2,0-0.368,0.1-0.479,0.188l-0.125-0.301c0.161-0.131,0.407-0.23,0.69-0.23c0.496,0,0.738,0.313,0.738,0.681
			c0,0.392-0.282,0.709-0.676,1.072l-0.193,0.168v0.008h0.918v0.351H2.847L2.847,55.437z"/>
		<path fill="#1C5183" d="M6.279,54.298c0,0.724-0.282,1.177-0.82,1.177c-0.513,0-0.79-0.47-0.793-1.152
			c0-0.7,0.297-1.165,0.822-1.165C6.027,53.157,6.279,53.639,6.279,54.298z M5.093,54.319c0,0.548,0.147,0.83,0.38,0.83
			c0.251,0,0.379-0.304,0.379-0.84c0-0.521-0.121-0.83-0.376-0.83C5.252,53.479,5.093,53.76,5.093,54.319z"/>
		<path fill="#1C5183" d="M8.127,54.298c0,0.724-0.282,1.177-0.821,1.177c-0.514,0-0.79-0.47-0.792-1.152
			c0-0.7,0.297-1.165,0.821-1.165C7.875,53.157,8.127,53.639,8.127,54.298z M6.942,54.319c0,0.548,0.148,0.83,0.378,0.83
			c0.254,0,0.381-0.304,0.381-0.84c0-0.521-0.122-0.83-0.376-0.83C7.1,53.479,6.942,53.76,6.942,54.319z"/>
		<path fill="#1C5183" d="M-4.174,58.544h-0.876v0.684h0.979v0.349h-1.404v-2.325h1.352V57.6h-0.928V58.2h0.875L-4.174,58.544
			L-4.174,58.544z"/>
		<path fill="#1C5183" d="M-3.717,58.395c0-0.192-0.007-0.354-0.014-0.498h0.363l0.021,0.247h0.01
			c0.078-0.131,0.23-0.285,0.517-0.285c0.22,0,0.394,0.123,0.465,0.311h0.007c0.06-0.092,0.128-0.163,0.204-0.211
			c0.097-0.066,0.204-0.1,0.344-0.1c0.276,0,0.56,0.189,0.56,0.729v0.989h-0.414v-0.928c0-0.28-0.096-0.446-0.3-0.446
			c-0.147,0-0.251,0.104-0.297,0.226c-0.015,0.038-0.021,0.093-0.021,0.14v1.009h-0.414v-0.973c0-0.235-0.092-0.401-0.29-0.401
			c-0.159,0-0.266,0.124-0.306,0.237c-0.014,0.045-0.021,0.093-0.021,0.143v0.991h-0.415V58.395L-3.717,58.395z"/>
		<path fill="#1C5183" d="M-0.792,58.454c0-0.221-0.007-0.398-0.013-0.558h0.374l0.021,0.259h0.007
			c0.125-0.19,0.32-0.297,0.578-0.297c0.384,0,0.707,0.33,0.707,0.854c0,0.606-0.383,0.901-0.766,0.901
			c-0.21,0-0.387-0.091-0.472-0.226h-0.007v0.868H-0.79v-1.803H-0.792z M-0.367,58.871c0,0.043,0.004,0.081,0.01,0.119
			c0.045,0.173,0.193,0.296,0.376,0.296c0.268,0,0.428-0.225,0.428-0.555c0-0.297-0.145-0.538-0.416-0.538
			c-0.177,0-0.339,0.128-0.383,0.315c-0.007,0.033-0.015,0.071-0.015,0.106V58.871z"/>
		<path fill="#1C5183" d="M1.227,57.126h0.425v2.45H1.227V57.126z"/>
		<path fill="#1C5183" d="M3.71,58.72c0,0.616-0.434,0.895-0.862,0.895c-0.471,0-0.841-0.325-0.841-0.866
			c0-0.553,0.363-0.89,0.87-0.89C3.375,57.858,3.71,58.21,3.71,58.72z M2.443,58.736c0,0.325,0.162,0.569,0.417,0.569
			c0.242,0,0.411-0.235,0.411-0.576c0-0.262-0.116-0.565-0.406-0.565C2.564,58.164,2.443,58.459,2.443,58.736z"/>
		<path fill="#1C5183" d="M4.301,57.896l0.3,0.899c0.035,0.104,0.073,0.229,0.098,0.324h0.011c0.023-0.092,0.054-0.221,0.087-0.329
			l0.263-0.895h0.453L5.091,59.04c-0.229,0.628-0.386,0.906-0.583,1.081c-0.169,0.146-0.342,0.199-0.445,0.214l-0.097-0.355
			c0.074-0.017,0.159-0.055,0.246-0.119c0.084-0.05,0.177-0.151,0.235-0.266c0.017-0.03,0.023-0.055,0.023-0.076
			c0-0.019-0.003-0.04-0.02-0.083l-0.619-1.541h0.47V57.896z"/>
		<path fill="#1C5183" d="M6.011,58.854c0.01,0.304,0.245,0.435,0.518,0.435c0.195,0,0.334-0.031,0.465-0.076L7.055,59.5
			c-0.145,0.064-0.344,0.109-0.585,0.109c-0.545,0-0.867-0.335-0.867-0.85c0-0.465,0.283-0.903,0.822-0.903
			c0.544,0,0.725,0.448,0.725,0.818c0,0.078-0.007,0.14-0.014,0.178H6.011V58.854z M6.749,58.559
			c0.005-0.154-0.065-0.411-0.349-0.411c-0.261,0-0.371,0.237-0.389,0.411H6.749z"/>
		<path fill="#1C5183" d="M7.791,58.854c0.01,0.304,0.246,0.435,0.517,0.435c0.197,0,0.333-0.031,0.466-0.076L8.836,59.5
			c-0.145,0.064-0.346,0.109-0.587,0.109c-0.545,0-0.866-0.335-0.866-0.85c0-0.465,0.283-0.903,0.821-0.903
			c0.545,0,0.725,0.448,0.725,0.818c0,0.078-0.007,0.14-0.014,0.178H7.791V58.854z M8.528,58.559
			c0.004-0.154-0.065-0.411-0.347-0.411c-0.263,0-0.374,0.237-0.39,0.411H8.528z"/>
	</g>
	<g>
		<circle fill="#FFC000" cx="97.955" cy="12.769" r="12.236"/>
		<path fill="#1C5183" d="M97.955,25.538c-7.04,0-12.77-5.729-12.77-12.77C85.186,5.729,90.915,0,97.955,0
			c7.041,0,12.769,5.729,12.769,12.769C110.724,19.81,104.996,25.538,97.955,25.538z M97.955,1.067
			c-6.453,0-11.703,5.248-11.703,11.701s5.25,11.702,11.703,11.702c6.452,0,11.702-5.249,11.702-11.702S104.407,1.067,97.955,1.067z
			"/>
	</g>
	<g>
		<path fill="#1C5183" d="M92.424,7.803v2.324h-0.425V7.803H92.424z"/>
		<path fill="#1C5183" d="M92.913,8.946c0-0.192-0.007-0.354-0.014-0.498h0.37l0.02,0.251H93.3c0.076-0.132,0.259-0.29,0.537-0.29
			c0.293,0,0.597,0.19,0.597,0.721v0.997h-0.423V9.179c0-0.242-0.091-0.425-0.322-0.425c-0.169,0-0.284,0.121-0.33,0.249
			c-0.014,0.033-0.021,0.085-0.021,0.133v0.99h-0.425L92.913,8.946L92.913,8.946z"/>
		<path fill="#1C5183" d="M96.121,10.075c-0.089,0.04-0.266,0.085-0.476,0.085c-0.522,0-0.865-0.337-0.865-0.858
			c0-0.503,0.345-0.892,0.935-0.892c0.154,0,0.314,0.033,0.409,0.076l-0.076,0.321c-0.068-0.035-0.168-0.065-0.32-0.065
			c-0.326,0-0.52,0.236-0.516,0.543c0,0.346,0.226,0.542,0.516,0.542c0.144,0,0.252-0.029,0.333-0.067L96.121,10.075z"/>
		<path fill="#1C5183" d="M96.435,8.988c0-0.228-0.002-0.391-0.015-0.539h0.367l0.018,0.316h0.01
			c0.083-0.234,0.279-0.355,0.461-0.355c0.042,0,0.066,0.003,0.101,0.011v0.397c-0.038-0.008-0.075-0.011-0.127-0.011
			c-0.2,0-0.341,0.127-0.381,0.32c-0.007,0.037-0.009,0.083-0.009,0.127v0.874h-0.425V8.988L96.435,8.988z"/>
		<path fill="#1C5183" d="M97.933,9.406c0.01,0.304,0.244,0.433,0.516,0.433c0.198,0,0.335-0.029,0.466-0.077l0.063,0.292
			c-0.146,0.062-0.346,0.106-0.587,0.106c-0.545,0-0.866-0.334-0.866-0.849c0-0.465,0.283-0.902,0.821-0.902
			c0.545,0,0.725,0.448,0.725,0.816c0,0.079-0.008,0.142-0.016,0.179h-1.122V9.406z M98.67,9.109c0.004-0.155-0.065-0.41-0.349-0.41
			c-0.261,0-0.372,0.237-0.389,0.41H98.67z"/>
		<path fill="#1C5183" d="M100.715,9.723c0,0.153,0.007,0.3,0.028,0.404h-0.383l-0.031-0.186h-0.011
			c-0.101,0.13-0.276,0.224-0.495,0.224c-0.34,0-0.528-0.243-0.528-0.499c0-0.421,0.376-0.638,0.996-0.635V9.005
			c0-0.111-0.043-0.294-0.341-0.294c-0.165,0-0.338,0.053-0.452,0.126L99.416,8.56c0.125-0.076,0.341-0.148,0.607-0.148
			c0.537,0,0.692,0.342,0.692,0.712L100.715,9.723L100.715,9.723z M100.302,9.307c-0.301-0.005-0.587,0.058-0.587,0.313
			c0,0.166,0.108,0.241,0.241,0.241c0.173,0,0.293-0.111,0.334-0.23c0.011-0.03,0.011-0.063,0.011-0.094L100.302,9.307
			L100.302,9.307z"/>
		<path fill="#1C5183" d="M101.146,9.733c0.094,0.06,0.275,0.126,0.429,0.126c0.186,0,0.269-0.079,0.269-0.189
			c0-0.114-0.069-0.171-0.276-0.246c-0.327-0.11-0.462-0.288-0.462-0.489c0-0.297,0.245-0.524,0.633-0.524
			c0.188,0,0.349,0.045,0.449,0.101l-0.085,0.297c-0.07-0.042-0.206-0.098-0.355-0.098c-0.152,0-0.235,0.077-0.235,0.179
			c0,0.107,0.08,0.157,0.293,0.234c0.308,0.106,0.446,0.262,0.449,0.511c0,0.308-0.238,0.529-0.684,0.529
			c-0.204,0-0.387-0.05-0.512-0.119L101.146,9.733z"/>
		<path fill="#1C5183" d="M102.903,9.406c0.011,0.304,0.244,0.433,0.518,0.433c0.196,0,0.334-0.029,0.466-0.077l0.06,0.292
			c-0.145,0.062-0.345,0.106-0.585,0.106c-0.544,0-0.866-0.334-0.866-0.849c0-0.465,0.283-0.902,0.822-0.902
			c0.543,0,0.723,0.448,0.723,0.816c0,0.079-0.006,0.142-0.013,0.179h-1.124V9.406z M103.641,9.109
			c0.003-0.155-0.065-0.41-0.349-0.41c-0.262,0-0.372,0.237-0.389,0.41H103.641z"/>
		<path fill="#1C5183" d="M91.379,13.128c0-0.228-0.004-0.392-0.016-0.541h0.367l0.017,0.318h0.01
			c0.083-0.235,0.28-0.354,0.463-0.354c0.041,0,0.066,0.002,0.1,0.009v0.397c-0.037-0.007-0.075-0.012-0.126-0.012
			c-0.2,0-0.343,0.128-0.381,0.321c-0.006,0.039-0.01,0.084-0.01,0.127v0.873H91.38L91.379,13.128L91.379,13.128z"/>
		<path fill="#1C5183" d="M92.875,13.545c0.01,0.304,0.245,0.436,0.519,0.436c0.195,0,0.333-0.032,0.465-0.077l0.063,0.29
			c-0.146,0.062-0.347,0.106-0.588,0.106c-0.543,0-0.865-0.333-0.865-0.85c0-0.465,0.282-0.901,0.82-0.901
			c0.546,0,0.725,0.448,0.725,0.817c0,0.077-0.006,0.142-0.013,0.179H92.875L92.875,13.545z M93.613,13.249
			c0.003-0.156-0.065-0.41-0.348-0.41c-0.262,0-0.372,0.235-0.391,0.41H93.613z"/>
		<path fill="#1C5183" d="M94.614,12.585l0.272,0.854c0.048,0.147,0.083,0.281,0.114,0.42h0.009c0.031-0.138,0.07-0.268,0.115-0.42
			l0.269-0.854h0.444l-0.642,1.682h-0.417l-0.624-1.682H94.614z"/>
		<path fill="#1C5183" d="M96.353,13.545c0.01,0.304,0.246,0.436,0.518,0.436c0.196,0,0.334-0.032,0.465-0.077l0.063,0.29
			c-0.146,0.062-0.346,0.106-0.587,0.106c-0.546,0-0.866-0.333-0.866-0.85c0-0.465,0.284-0.901,0.821-0.901
			c0.545,0,0.725,0.448,0.725,0.817c0,0.077-0.007,0.142-0.013,0.179H96.353L96.353,13.545z M97.091,13.249
			c0.002-0.156-0.066-0.41-0.349-0.41c-0.263,0-0.374,0.235-0.391,0.41H97.091z"/>
		<path fill="#1C5183" d="M97.832,13.088c0-0.194-0.006-0.356-0.014-0.501h0.369l0.021,0.252h0.011
			c0.075-0.131,0.259-0.288,0.538-0.288c0.292,0,0.596,0.188,0.596,0.72v0.997h-0.425v-0.948c0-0.242-0.089-0.426-0.319-0.426
			c-0.171,0-0.287,0.122-0.332,0.249c-0.014,0.034-0.021,0.085-0.021,0.134v0.99h-0.424V13.088L97.832,13.088z"/>
		<path fill="#1C5183" d="M101.309,13.763c0,0.2,0.007,0.365,0.014,0.504h-0.369l-0.021-0.253h-0.011
			c-0.071,0.117-0.237,0.291-0.539,0.291c-0.304,0-0.583-0.185-0.583-0.733v-0.986h0.424v0.913c0,0.278,0.09,0.46,0.314,0.46
			c0.172,0,0.282-0.118,0.325-0.229c0.017-0.034,0.024-0.082,0.024-0.132v-1.013h0.425v1.178H101.309z"/>
		<path fill="#1C5183" d="M102.068,13.545c0.009,0.304,0.244,0.436,0.516,0.436c0.198,0,0.335-0.032,0.465-0.077l0.063,0.29
			c-0.145,0.062-0.345,0.106-0.585,0.106c-0.546,0-0.865-0.333-0.865-0.85c0-0.465,0.281-0.901,0.819-0.901
			c0.546,0,0.725,0.448,0.725,0.817c0,0.077-0.007,0.142-0.013,0.179H102.068L102.068,13.545z M102.806,13.249
			c0.004-0.156-0.065-0.41-0.349-0.41c-0.261,0-0.372,0.235-0.389,0.41H102.806z"/>
		<path fill="#1C5183" d="M103.53,13.873c0.094,0.058,0.276,0.125,0.429,0.125c0.186,0,0.271-0.079,0.271-0.189
			c0-0.113-0.07-0.171-0.276-0.245c-0.329-0.11-0.463-0.29-0.463-0.49c0-0.294,0.245-0.522,0.636-0.522
			c0.185,0,0.348,0.043,0.447,0.1l-0.085,0.295c-0.069-0.04-0.207-0.098-0.354-0.098c-0.151,0-0.234,0.077-0.234,0.181
			c0,0.106,0.079,0.154,0.293,0.234c0.307,0.107,0.444,0.262,0.448,0.511c0,0.306-0.237,0.528-0.684,0.528
			c-0.202,0-0.385-0.05-0.511-0.118L103.53,13.873z"/>
		<path fill="#1C5183" d="M94.891,17.967c0.086,0.052,0.298,0.138,0.511,0.138c0.325,0,0.452-0.183,0.452-0.358
			c0-0.267-0.252-0.381-0.51-0.381H95.15v-0.311h0.193c0.193,0,0.442-0.089,0.442-0.31c0-0.156-0.11-0.283-0.358-0.283
			c-0.183,0-0.366,0.079-0.459,0.143l-0.096-0.308c0.125-0.087,0.378-0.173,0.644-0.173c0.468,0,0.7,0.256,0.7,0.548
			c0,0.234-0.137,0.427-0.414,0.524v0.008c0.273,0.051,0.489,0.255,0.494,0.559c0,0.38-0.316,0.68-0.873,0.68
			c-0.273,0-0.506-0.076-0.628-0.155L94.891,17.967z"/>
		<path fill="#1C5183" d="M98.195,16.163v0.273l-0.947,1.969h-0.444l0.945-1.883v-0.007h-1.06v-0.353H98.195L98.195,16.163z"/>
		<path fill="#1C5183" d="M99.605,16.79c0,0.474-0.274,0.716-0.581,0.716c-0.313,0-0.569-0.242-0.573-0.678
			c0-0.425,0.245-0.704,0.593-0.704C99.393,16.126,99.605,16.387,99.605,16.79z M98.775,16.815
			c-0.003,0.259,0.091,0.451,0.255,0.451c0.174,0,0.253-0.183,0.253-0.454c0-0.249-0.068-0.448-0.255-0.448
			C98.858,16.364,98.775,16.563,98.775,16.815z M99.027,18.442l1.301-2.316h0.244l-1.303,2.316H99.027z M101.156,17.723
			c0,0.469-0.277,0.71-0.587,0.71c-0.314,0-0.569-0.241-0.572-0.677c0-0.42,0.244-0.698,0.594-0.698
			C100.941,17.056,101.156,17.318,101.156,17.723z M100.32,17.746c-0.004,0.256,0.089,0.448,0.26,0.448
			c0.172,0,0.25-0.178,0.25-0.45c0-0.249-0.069-0.448-0.255-0.448C100.406,17.293,100.32,17.495,100.32,17.746z"/>
	</g>
	<polygon fill="#1C5183" points="98.111,54.889 84.555,54.889 84.555,54.575 97.797,54.575 97.797,25.005 98.111,25.005 	"/>
</g>
</svg>
