<?xml version="1.0" encoding="utf-8"?>
<!-- Generator: Adobe Illustrator 15.0.0, SVG Export Plug-In . SVG Version: 6.00 Build 0)  -->
<!DOCTYPE svg PUBLIC "-//W3C//DTD SVG 1.1//EN" "http://www.w3.org/Graphics/SVG/1.1/DTD/svg11.dtd">
<svg version="1.1" id="Layer_1" xmlns="http://www.w3.org/2000/svg" xmlns:xlink="http://www.w3.org/1999/xlink" x="0px" y="0px"
	 width="100px" height="100px" viewBox="0 0 100 100" enable-background="new 0 0 100 100" xml:space="preserve">
<g>
	<path fill="#FFC000" d="M103.327,84.34c0,3.097-2.51,5.606-5.607,5.606H63.2c-3.096,0-5.607-2.51-5.607-5.606V57.417
		c0-3.097,2.511-5.606,5.607-5.606h34.52c3.097,0,5.607,2.508,5.607,5.606V84.34z"/>
	<path fill="#FFC000" d="M47.051,36.36c0,0-40.379,0-43.416,0c-3.039,0-6.963-2.786-6.963-7.718c0-4.177,3.726-6.895,6.375-6.895
		C1.946,18.585,5.278,5.145,19.976,12.3c1.353-4.448,9.068-14.999,20.359-8.703c8.841,4.932,7.295,14.794,5.846,17.889
		c3.48-0.291,8.524,1.032,8.589,6.59C54.837,33.636,52.368,36.36,47.051,36.36z"/>
	<polygon fill="#339EDE" points="50.209,60.165 50.209,60.165 1.946,60.165 1.946,60.165 1.946,48.013 1.946,48.013 50.209,48.013 
		50.209,48.013 	"/>
	<path fill="#1C5183" d="M96.654,100H64.665c-0.907,0-1.643-0.738-1.643-1.645c0-0.908,0.735-1.643,1.643-1.643h31.989
		c0.909,0,1.646,0.734,1.646,1.643C98.3,99.262,97.563,100,96.654,100z"/>
	<path fill="#1C5183" d="M97.72,91.589H63.2c-3.998,0-7.251-3.251-7.251-7.249V57.417c0-3.998,3.253-7.252,7.251-7.252h34.52
		c3.998,0,7.252,3.254,7.252,7.252V84.34C104.972,88.338,101.718,91.589,97.72,91.589z M63.2,53.453
		c-2.185,0-3.963,1.777-3.963,3.964V84.34c0,2.184,1.778,3.962,3.963,3.962h34.52c2.184,0,3.963-1.778,3.963-3.962V57.417
		c0-2.187-1.779-3.964-3.963-3.964H63.2z"/>
	<path fill="#1C5183" d="M80.66,100c-0.907,0-1.644-0.738-1.644-1.645v-8.407c0-0.908,0.736-1.645,1.644-1.645
		c0.908,0,1.645,0.736,1.645,1.645v8.407C82.305,99.262,81.568,100,80.66,100z"/>
	<path fill="#1C5183" d="M85.208,46.532c-0.907,0-1.644-0.737-1.644-1.644V22.486H59.809c-0.907,0-1.643-0.735-1.643-1.642
		c0-0.908,0.735-1.645,1.643-1.645H85.21c0.907,0,1.643,0.737,1.643,1.645v24.043C86.853,45.795,86.117,46.532,85.208,46.532z"/>
	<path fill="#1C5183" d="M47.792,81.986H25.815c-0.907,0-1.644-0.736-1.644-1.645V65.903c0-0.908,0.737-1.646,1.644-1.646
		c0.908,0,1.645,0.737,1.645,1.646v12.796h20.334c0.909,0,1.644,0.736,1.644,1.643C49.438,81.25,48.701,81.986,47.792,81.986z"/>
	<path fill="#1C5183" d="M50.209,61.808H1.946c-0.908,0-1.644-0.734-1.644-1.643V48.013c0-0.907,0.735-1.644,1.644-1.644h48.263
		c0.91,0,1.644,0.736,1.644,1.644v12.152C51.854,61.073,51.119,61.808,50.209,61.808z M3.59,58.521h44.976v-8.864H3.59V58.521
		L3.59,58.521z"/>
	<path fill="#1C5183" d="M26.078,49.441c-0.907,0-1.644-0.735-1.644-1.644V36.909c0-0.907,0.736-1.644,1.644-1.644
		c0.909,0,1.645,0.736,1.645,1.644v10.888C27.723,48.706,26.986,49.441,26.078,49.441z"/>
	<path fill="#1C5183" d="M35.771,32.221c-0.488,0-0.972-0.217-1.296-0.631l-0.131-0.167c-1.113-1.435-2.98-3.835-8.117-4.103
		c-6-0.31-9.233,3.884-9.266,3.924c-0.546,0.725-1.578,0.871-2.302,0.325c-0.726-0.546-0.871-1.578-0.324-2.304
		c0.173-0.23,4.328-5.628,12.063-5.23c6.638,0.346,9.274,3.738,10.543,5.369l0.124,0.16c0.56,0.714,0.434,1.748-0.281,2.307
		C36.481,32.106,36.125,32.221,35.771,32.221z"/>
	<path fill="#1C5183" d="M40.336,26.108c-0.488,0-0.971-0.216-1.296-0.63l-0.186-0.241c-1.692-2.174-4.521-5.812-12.286-6.217
		c-8.998-0.468-13.828,5.708-14.028,5.973c-0.55,0.72-1.579,0.861-2.302,0.313c-0.722-0.547-0.867-1.573-0.321-2.296
		c0.241-0.32,6.021-7.834,16.822-7.272c9.267,0.482,12.943,5.209,14.709,7.482l0.181,0.232c0.559,0.715,0.434,1.749-0.282,2.309
		C41.048,25.994,40.691,26.108,40.336,26.108z"/>
	<path fill="#1C5183" d="M47.051,38.003H3.635c-4.156,0-8.606-3.761-8.606-9.361c0-4.372,3.188-7.348,6.185-8.25
		c-0.019-2.162,0.736-5.051,2.388-7.374c1.438-2.022,4.112-4.431,8.7-4.431c2.074,0,4.353,0.508,6.792,1.514
		C21.043,6.064,26.043,0,33.44,0c2.535,0,5.125,0.727,7.696,2.163c5.366,2.992,7.099,7.534,7.607,10.817
		c0.381,2.464,0.174,4.943-0.296,6.898c3.895,0.424,7.904,2.727,7.969,8.179c0.041,3.365-0.757,5.827-2.438,7.528
		C52.393,37.189,50.061,38.003,47.051,38.003z M12.302,11.875c-2.558,0-4.583,1.025-6.02,3.046c-1.68,2.365-1.994,5.393-1.681,6.286
		c0.175,0.502,0.095,1.06-0.214,1.494c-0.307,0.435-0.806,0.691-1.339,0.691c-1.883,0-4.73,2.094-4.73,5.249
		c0,3.962,3.089,6.073,5.318,6.073h43.416c2.13,0,3.63-0.472,4.588-1.441c1.018-1.03,1.518-2.772,1.489-5.177
		c-0.055-4.517-4.241-5.006-6.04-5.006c-0.26,0-0.52,0.012-0.773,0.032c-0.583,0.048-1.151-0.218-1.486-0.699
		c-0.335-0.482-0.387-1.105-0.138-1.636C45.64,18.76,47.708,9.589,39.534,5.03c-2.078-1.158-4.128-1.745-6.096-1.745
		c-6.867,0-11.118,6.956-11.89,9.49c-0.139,0.46-0.474,0.837-0.916,1.029c-0.441,0.192-0.945,0.183-1.376-0.029
		C16.662,12.515,14.321,11.875,12.302,11.875z"/>
	<rect x="19.461" y="52.895" fill="#1C5183" width="25.417" height="2.515"/>
	<rect x="13.107" y="52.882" fill="#1C5183" width="2.542" height="2.54"/>
	<rect x="6.752" y="52.882" fill="#1C5183" width="2.542" height="2.54"/>
</g>
</svg>
