<?xml version="1.0" encoding="utf-8"?>
<!-- Generator: Adobe Illustrator 16.0.0, SVG Export Plug-In . SVG Version: 6.00 Build 0)  -->
<!DOCTYPE svg PUBLIC "-//W3C//DTD SVG 1.1//EN" "http://www.w3.org/Graphics/SVG/1.1/DTD/svg11.dtd">
<svg version="1.1" id="Layer_1" xmlns="http://www.w3.org/2000/svg" xmlns:xlink="http://www.w3.org/1999/xlink" x="0px" y="0px"
	 width="203.379px" height="100px" viewBox="-167.832 150.5 203.379 100" enable-background="new -167.832 150.5 203.379 100"
	 xml:space="preserve">
<g>
	<path fill="#339EDE" d="M-47.337,206.638c0,0.54-0.439,0.979-0.979,0.979h-36.028c-0.54,0-0.979-0.438-0.979-0.979v-5.772
		c0-0.539,0.439-0.979,0.979-0.979h36.028c0.54,0,0.979,0.439,0.979,0.979V206.638z"/>
	<path fill="#339EDE" d="M-47.337,191.053c0,0.539-0.439,0.979-0.979,0.979h-36.028c-0.54,0-0.979-0.439-0.979-0.979v-5.771
		c0-0.541,0.439-0.98,0.979-0.98h36.028c0.54,0,0.979,0.439,0.979,0.98V191.053z"/>
	<path fill="#339EDE" d="M-47.337,222.224c0,0.54-0.439,0.979-0.979,0.979h-36.028c-0.54,0-0.979-0.439-0.979-0.979v-5.772
		c0-0.541,0.439-0.98,0.979-0.98h36.028c0.54,0,0.979,0.439,0.979,0.98V222.224z"/>
	<path fill="#339EDE" d="M-47.337,237.863c0,0.539-0.439,0.979-0.979,0.979h-36.028c-0.54,0-0.979-0.439-0.979-0.979v-5.772
		c0-0.539,0.439-0.979,0.979-0.979h36.028c0.54,0,0.979,0.439,0.979,0.979V237.863z"/>
	<path fill="#339EDE" d="M-103.361,222.743c0,0.54-0.439,0.979-0.979,0.979h-37.001c-0.541,0-0.98-0.439-0.98-0.979v-5.772
		c0-0.54,0.439-0.979,0.98-0.979h37.001c0.54,0,0.979,0.439,0.979,0.979V222.743z"/>
	<path fill="#339EDE" d="M-103.361,238.838c0,0.538-0.439,0.978-0.979,0.978h-37.001c-0.541,0-0.98-0.439-0.98-0.978v-5.772
		c0-0.54,0.439-0.979,0.98-0.979h37.001c0.54,0,0.979,0.439,0.979,0.979V238.838z"/>
	<path fill="#1C5183" d="M10.809,206.638c0,0.54-0.439,0.979-0.979,0.979h-37.001c-0.54,0-0.979-0.438-0.979-0.979v-5.772
		c0-0.539,0.439-0.979,0.979-0.979H9.83c0.54,0,0.979,0.439,0.979,0.979V206.638z"/>
	<path fill="#1C5183" d="M10.809,222.224c0,0.54-0.439,0.979-0.979,0.979h-37.001c-0.54,0-0.979-0.439-0.979-0.979v-5.772
		c0-0.541,0.439-0.98,0.979-0.98H9.83c0.54,0,0.979,0.439,0.979,0.98V222.224z"/>
	<path fill="#1C5183" d="M10.809,237.863c0,0.539-0.439,0.979-0.979,0.979h-37.001c-0.54,0-0.979-0.439-0.979-0.979v-5.772
		c0-0.539,0.439-0.979,0.979-0.979H9.83c0.54,0,0.979,0.439,0.979,0.979V237.863z"/>
	<path fill="#339EDE" d="M-103.361,206.638c0,0.54-0.439,0.979-0.979,0.979h-37.001c-0.541,0-0.98-0.438-0.98-0.979v-5.772
		c0-0.539,0.439-0.979,0.98-0.979h37.001c0.54,0,0.979,0.439,0.979,0.979V206.638z"/>
	<path fill="#339EDE" d="M-81.727,236.189c-0.67,0-1.212-0.542-1.212-1.212c0-0.671,0.542-1.212,1.212-1.212
		c0.668,0,1.211,0.541,1.211,1.212C-80.515,235.647-81.058,236.189-81.727,236.189z M-77.503,236.189
		c-0.669,0-1.211-0.542-1.211-1.212c0-0.671,0.542-1.212,1.211-1.212c0.669,0,1.213,0.541,1.213,1.212
		C-76.29,235.647-76.833,236.189-77.503,236.189z M-72.862,236.189c-0.669,0-1.212-0.542-1.212-1.212
		c0-0.671,0.543-1.212,1.212-1.212c0.669,0,1.213,0.541,1.213,1.212C-71.649,235.647-72.193,236.189-72.862,236.189z"/>
	<path fill="#339EDE" d="M9.83,231.112h-37.001c-0.54,0-0.979,0.439-0.979,0.979v5.772c0,0.539,0.439,0.979,0.979,0.979H9.83
		c0.54,0,0.979-0.439,0.979-0.979v-5.772C10.809,231.552,10.37,231.112,9.83,231.112z M-24.555,236.189
		c-0.67,0-1.212-0.542-1.212-1.212c0-0.671,0.542-1.212,1.212-1.212c0.668,0,1.212,0.541,1.212,1.212
		C-23.343,235.647-23.886,236.189-24.555,236.189z M-20.331,236.189c-0.668,0-1.212-0.542-1.212-1.212
		c0-0.671,0.543-1.212,1.212-1.212c0.671,0,1.213,0.541,1.213,1.212C-19.118,235.647-19.66,236.189-20.331,236.189z M-15.69,236.189
		c-0.669,0-1.212-0.542-1.212-1.212c0-0.671,0.543-1.212,1.212-1.212c0.669,0,1.213,0.541,1.213,1.212
		C-14.478,235.647-15.021,236.189-15.69,236.189z"/>
	<path fill="#339EDE" d="M-81.935,220.55c-0.669,0-1.212-0.544-1.212-1.212c0-0.67,0.542-1.213,1.212-1.213
		c0.67,0,1.212,0.543,1.212,1.213C-80.723,220.006-81.265,220.55-81.935,220.55z M-77.709,220.55c-0.67,0-1.213-0.544-1.213-1.212
		c0-0.67,0.542-1.213,1.213-1.213c0.668,0,1.211,0.543,1.211,1.213C-76.498,220.006-77.041,220.55-77.709,220.55z M-73.07,220.55
		c-0.669,0-1.212-0.544-1.212-1.212c0-0.67,0.542-1.213,1.212-1.213c0.669,0,1.212,0.543,1.212,1.213
		C-71.858,220.006-72.401,220.55-73.07,220.55z"/>
	<path fill="#339EDE" d="M-81.727,205.036c-0.67,0-1.212-0.543-1.212-1.212s0.542-1.212,1.212-1.212
		c0.668,0,1.211,0.543,1.211,1.212S-81.058,205.036-81.727,205.036z M-77.503,205.036c-0.669,0-1.211-0.543-1.211-1.212
		s0.542-1.212,1.211-1.212c0.669,0,1.213,0.543,1.213,1.212S-76.833,205.036-77.503,205.036z M-72.862,205.036
		c-0.669,0-1.212-0.543-1.212-1.212s0.543-1.212,1.212-1.212c0.669,0,1.213,0.543,1.213,1.212S-72.193,205.036-72.862,205.036z"/>
	<path fill="#339EDE" d="M-138.934,221.069c-0.669,0-1.211-0.543-1.211-1.213c0-0.669,0.542-1.213,1.211-1.213
		c0.67,0,1.212,0.544,1.212,1.213C-137.721,220.526-138.264,221.069-138.934,221.069z M-134.708,221.069
		c-0.67,0-1.212-0.543-1.212-1.213c0-0.669,0.542-1.213,1.212-1.213c0.669,0,1.211,0.544,1.211,1.213
		C-133.497,220.526-134.039,221.069-134.708,221.069z M-130.069,221.069c-0.669,0-1.211-0.543-1.211-1.213
		c0-0.669,0.542-1.213,1.211-1.213c0.67,0,1.212,0.544,1.212,1.213C-128.857,220.526-129.399,221.069-130.069,221.069z"/>
	<path fill="#339EDE" d="M-138.725,205.036c-0.669,0-1.212-0.543-1.212-1.212s0.543-1.212,1.212-1.212
		c0.669,0,1.211,0.543,1.211,1.212S-138.056,205.036-138.725,205.036z M-134.5,205.036c-0.669,0-1.212-0.543-1.212-1.212
		s0.543-1.212,1.212-1.212c0.669,0,1.212,0.543,1.212,1.212S-133.832,205.036-134.5,205.036z M-129.86,205.036
		c-0.67,0-1.212-0.543-1.212-1.212s0.542-1.212,1.212-1.212c0.669,0,1.212,0.543,1.212,1.212S-129.191,205.036-129.86,205.036z"/>
	<path fill="#339EDE" d="M9.83,199.887h-37.001c-0.54,0-0.979,0.439-0.979,0.979v5.772c0,0.54,0.439,0.979,0.979,0.979H9.83
		c0.54,0,0.979-0.438,0.979-0.979v-5.772C10.809,200.326,10.37,199.887,9.83,199.887z M-24.555,205.036
		c-0.67,0-1.212-0.543-1.212-1.212s0.542-1.212,1.212-1.212c0.668,0,1.212,0.543,1.212,1.212S-23.886,205.036-24.555,205.036z
		 M-20.331,205.036c-0.668,0-1.212-0.543-1.212-1.212s0.543-1.212,1.212-1.212c0.671,0,1.213,0.543,1.213,1.212
		S-19.66,205.036-20.331,205.036z M-15.69,205.036c-0.669,0-1.212-0.543-1.212-1.212s0.543-1.212,1.212-1.212
		c0.669,0,1.213,0.543,1.213,1.212S-15.021,205.036-15.69,205.036z"/>
	<path fill="#339EDE" d="M9.83,215.471h-37.001c-0.54,0-0.979,0.439-0.979,0.98v5.772c0,0.54,0.439,0.979,0.979,0.979H9.83
		c0.54,0,0.979-0.439,0.979-0.979v-5.772C10.809,215.91,10.37,215.471,9.83,215.471z M-24.762,220.55
		c-0.67,0-1.212-0.544-1.212-1.212c0-0.67,0.542-1.213,1.212-1.213c0.669,0,1.211,0.543,1.211,1.213
		C-23.551,220.006-24.093,220.55-24.762,220.55z M-20.538,220.55c-0.669,0-1.213-0.544-1.213-1.212c0-0.67,0.543-1.213,1.213-1.213
		c0.668,0,1.212,0.543,1.212,1.213C-19.326,220.006-19.869,220.55-20.538,220.55z M-15.897,220.55c-0.67,0-1.212-0.544-1.212-1.212
		c0-0.67,0.542-1.213,1.212-1.213c0.668,0,1.212,0.543,1.212,1.213C-14.686,220.006-15.229,220.55-15.897,220.55z"/>
	<circle fill="#1C5183" cx="-81.727" cy="203.824" r="1.212"/>
	<circle fill="#1C5183" cx="-77.503" cy="203.824" r="1.212"/>
	<circle fill="#1C5183" cx="-72.862" cy="203.824" r="1.212"/>
	<circle fill="#1C5183" cx="-81.935" cy="219.337" r="1.212"/>
	<circle fill="#1C5183" cx="-77.709" cy="219.337" r="1.212"/>
	<circle fill="#1C5183" cx="-73.07" cy="219.337" r="1.212"/>
	<circle fill="#1C5183" cx="-81.727" cy="234.978" r="1.212"/>
	<circle fill="#1C5183" cx="-77.503" cy="234.978" r="1.212"/>
	<circle fill="#1C5183" cx="-72.862" cy="234.978" r="1.212"/>
	<circle fill="#1C5183" cx="-81.727" cy="188.238" r="1.212"/>
	<circle fill="#1C5183" cx="-77.503" cy="188.238" r="1.212"/>
	<circle fill="#1C5183" cx="-72.862" cy="188.238" r="1.212"/>
	<circle fill="#1C5183" cx="-138.725" cy="203.824" r="1.212"/>
	<circle fill="#1C5183" cx="-134.5" cy="203.824" r="1.212"/>
	<circle fill="#1C5183" cx="-129.86" cy="203.824" r="1.212"/>
	<circle fill="#1C5183" cx="-138.934" cy="219.856" r="1.213"/>
	<circle fill="#1C5183" cx="-134.708" cy="219.856" r="1.213"/>
	<circle fill="#1C5183" cx="-130.069" cy="219.856" r="1.213"/>
	<circle fill="#1C5183" cx="-138.725" cy="235.951" r="1.211"/>
	<circle fill="#1C5183" cx="-134.5" cy="235.951" r="1.211"/>
	<circle fill="#1C5183" cx="-129.86" cy="235.951" r="1.211"/>
	<circle fill="#1C5183" cx="-24.555" cy="203.824" r="1.212"/>
	<circle fill="#1C5183" cx="-20.331" cy="203.824" r="1.212"/>
	<circle fill="#1C5183" cx="-15.69" cy="203.824" r="1.212"/>
	<circle fill="#1C5183" cx="-24.762" cy="219.337" r="1.212"/>
	<circle fill="#1C5183" cx="-20.538" cy="219.337" r="1.212"/>
	<circle fill="#1C5183" cx="-15.897" cy="219.337" r="1.212"/>
	<circle fill="#1C5183" cx="-24.555" cy="234.978" r="1.212"/>
	<circle fill="#1C5183" cx="-20.331" cy="234.978" r="1.212"/>
	<circle fill="#1C5183" cx="-15.69" cy="234.978" r="1.212"/>
	<path fill="#1C5183" d="M27.243,186.709L-64.4,151.86c-0.277-0.105-0.587-0.105-0.863-0.001l-91.643,34.85
		c-0.47,0.181-0.785,0.638-0.785,1.139v60.154c0,0.672,0.545,1.217,1.215,1.217h8.191c0.669,0,1.215-0.545,1.215-1.217v-53.899
		h48.183l0.002,0.504l0.134,53.399c0,0.669,0.546,1.213,1.215,1.213h6.454c0.671,0,1.216-0.545,1.216-1.217v-69.459h47.454v69.459
		c0,0.672,0.545,1.217,1.215,1.217h6.592c0.671,0,1.216-0.545,1.216-1.217v-53.899h49.571l0.114,53.903
		c0.001,0.669,0.547,1.213,1.216,1.213h9.299c0.67,0,1.215-0.545,1.215-1.217v-60.154C28.028,187.347,27.712,186.89,27.243,186.709z
		 M25.597,246.787h-6.87l-0.117-53.903c-0.001-0.668-0.546-1.213-1.215-1.213h-51.998c-0.67,0-1.215,0.545-1.215,1.216v53.9h-4.161
		v-69.46c0-0.668-0.545-1.213-1.216-1.213h-49.885c-0.669,0-1.215,0.545-1.215,1.213v69.46h-4.028l-0.135-53.903
		c-0.001-0.668-0.546-1.213-1.215-1.213h-50.61c-0.671,0-1.216,0.545-1.216,1.216v53.9h-5.759v-58.104l90.428-34.387l90.428,34.387
		V246.787z"/>
	<path fill="#FDC010" d="M-64.654,154.371l-0.178-0.067l-90.099,34.263l-0.322,0.123v58.092h5.746v-53.895
		c0-0.674,0.548-1.222,1.223-1.222h50.61c0.672,0,1.22,0.546,1.221,1.217l0.136,53.899h4.015v-69.454
		c0-0.674,0.548-1.222,1.222-1.222h49.885c0.674,0,1.223,0.548,1.223,1.222v69.454h4.147v-53.895c0-0.674,0.548-1.222,1.222-1.222
		h51.998c0.672,0,1.22,0.547,1.222,1.22l0.118,53.896h6.856v-58.092L-64.654,154.371z"/>
</g>
</svg>
