<?xml version="1.0" encoding="utf-8"?>
<!-- Generator: Adobe Illustrator 16.0.0, SVG Export Plug-In . SVG Version: 6.00 Build 0)  -->
<!DOCTYPE svg PUBLIC "-//W3C//DTD SVG 1.1//EN" "http://www.w3.org/Graphics/SVG/1.1/DTD/svg11.dtd">
<svg version="1.1" id="Layer_1" xmlns="http://www.w3.org/2000/svg" xmlns:xlink="http://www.w3.org/1999/xlink" x="0px" y="0px"
	 width="109.945px" height="100px" viewBox="76.473 151.029 109.945 100" enable-background="new 76.473 151.029 109.945 100"
	 xml:space="preserve">
<g>
	<g>
		<path fill="#FFC000" d="M179.95,232.263c0,2.817-2.284,5.102-5.102,5.102h-31.396c-2.817,0-5.102-2.284-5.102-5.102v-24.486
			c0-2.817,2.284-5.102,5.102-5.102h31.396c2.817,0,5.102,2.284,5.102,5.102V232.263z"/>
	</g>
	<g>
		<path fill="#FFC000" d="M129.023,188.835c0,0-37.22,0-40.021,0c-2.8,0-6.418-2.568-6.418-7.113c0-3.852,3.434-6.355,5.876-6.355
			c-1.015-2.914,2.056-15.304,15.606-8.708c1.247-4.101,8.358-13.826,18.766-8.022c8.151,4.546,6.726,13.637,5.389,16.489
			c3.209-0.268,7.857,0.952,7.919,6.076C136.201,186.324,133.925,188.835,129.023,188.835z"/>
	</g>
	<g>
		<polygon fill="#339EDE" points="131.636,210.275 131.636,210.275 87.737,210.275 87.737,210.275 87.737,199.223 87.737,199.223 
			131.636,199.223 131.636,199.223 		"/>
	</g>
	<g>
		<path fill="#1C5183" d="M180.945,207.776c0-3.361-2.735-6.097-6.097-6.097h-31.396c-3.361,0-6.097,2.735-6.097,6.097v24.486
			c0,3.361,2.735,6.097,6.097,6.097h14.385h0.25h0.25v0.25v0.25v4.656v0.25v0.25h-0.25h-0.25h-13.053
			c-0.549,0-0.996,0.446-0.996,0.995s0.447,0.996,0.996,0.996h29.097c0.549,0,0.995-0.447,0.995-0.996s-0.446-0.995-0.995-0.995
			h-13.054h-0.25h-0.25v-0.25v-0.25v-4.656v-0.25v-0.25h0.25h0.25h14.021c3.361,0,6.097-2.735,6.097-6.097V207.776z
			 M178.955,232.263c0,2.265-1.842,4.106-4.106,4.106h-31.396c-2.265,0-4.106-1.842-4.106-4.106v-24.486
			c0-2.264,1.842-4.105,4.106-4.105h31.396c2.265,0,4.106,1.842,4.106,4.105V232.263z"/>
		<path fill="#1C5183" d="M141.047,181.029h17.383v16.392c0,0.665,0.536,1.202,1.201,1.202c0.664,0,1.205-0.537,1.205-1.202v-17.597
			c0-0.664-0.541-1.201-1.205-1.201h-18.584c-0.664,0-1.205,0.537-1.205,1.201S140.383,181.029,141.047,181.029z"/>
		<path fill="#1C5183" d="M129.438,227.133h-18.495v-11.639c0-0.826-0.67-1.495-1.495-1.495c-0.826,0-1.495,0.669-1.495,1.495
			v13.134c0,0.826,0.669,1.495,1.495,1.495h19.99c0.824,0,1.495-0.669,1.495-1.495S130.262,227.133,129.438,227.133z"/>
		<path fill="#1C5183" d="M116.851,180.973c-0.844-1.086-2.603-3.349-7.023-3.576c-0.184-0.012-0.364-0.015-0.544-0.015
			c-4.801,0-7.379,3.351-7.49,3.496c-0.365,0.482-0.268,1.169,0.216,1.534c0.197,0.15,0.429,0.221,0.657,0.221
			c0.333,0,0.661-0.15,0.876-0.436c0.02-0.028,2.024-2.625,5.749-2.625c0.139,0,0.28,0.004,0.422,0.011
			c3.423,0.177,4.665,1.776,5.408,2.733l0.087,0.11c0.217,0.276,0.538,0.421,0.864,0.421c0.236,0,0.473-0.076,0.674-0.231
			c0.476-0.375,0.561-1.063,0.186-1.537L116.851,180.973z"/>
		<path fill="#1C5183" d="M119.854,176.852c-1.178-1.514-3.626-4.664-9.797-4.985c-0.258-0.013-0.514-0.019-0.763-0.019
			c-6.702,0-10.289,4.658-10.444,4.863c-0.365,0.483-0.269,1.17,0.215,1.533c0.198,0.15,0.429,0.222,0.658,0.222
			c0.332,0,0.66-0.15,0.875-0.437c0.031-0.043,3.075-3.992,8.707-3.992c0.21,0,0.419,0.007,0.636,0.018
			c5.173,0.27,7.056,2.693,8.183,4.141l0.125,0.16c0.217,0.275,0.538,0.421,0.863,0.421c0.236,0,0.473-0.077,0.675-0.231
			c0.475-0.375,0.561-1.062,0.186-1.537L119.854,176.852z"/>
		<path fill="#1C5183" d="M129.979,174.13l-0.565-0.062l0.133-0.553c0.472-1.964,0.564-4.123,0.261-6.082
			c-0.444-2.876-1.963-6.854-6.667-9.479c-2.266-1.263-4.539-1.903-6.758-1.903c-6.126,0-10.614,4.797-12.598,8.905l-0.205,0.424
			l-0.436-0.18c-2.155-0.889-4.169-1.339-5.988-1.339c-3.958,0-6.267,2.077-7.505,3.82c-1.555,2.188-2.094,4.747-2.08,6.413
			l0.003,0.374l-0.359,0.108c-2.538,0.765-5.269,3.29-5.269,7.025c0,4.794,3.789,8.015,7.328,8.015h19.418v8.609H87.737
			c-0.549,0-0.996,0.446-0.996,0.995v11.053c0,0.549,0.447,0.995,0.996,0.995h43.898c0.549,0,0.995-0.446,0.995-0.995v-11.053
			c0-0.549-0.446-0.995-0.995-0.995h-20.954v-8.609h18.081c2.6,0,4.6-0.689,5.944-2.05c1.43-1.447,2.107-3.57,2.073-6.49
			C136.711,175.31,131.557,174.302,129.979,174.13z M130.641,200.218v9.062H88.732v-9.062H130.641z M133.291,186.169
			c-0.97,0.981-2.451,1.459-4.528,1.459H89.273c-2.238,0-5.338-2.094-5.338-6.024c0-3.221,2.845-5.275,4.804-5.275
			c0.321,0,0.624-0.156,0.811-0.419c0.186-0.262,0.234-0.6,0.128-0.902c-0.373-1.077,0.062-4.016,1.594-6.172
			c2.484-3.494,6.833-3.925,12.429-1.2c0.259,0.127,0.569,0.132,0.834,0.018c0.267-0.117,0.469-0.344,0.554-0.624
			c0.73-2.398,4.763-8.986,11.293-8.986c1.876,0,3.823,0.556,5.787,1.651c7.771,4.334,5.805,13.054,4.901,14.979
			c-0.15,0.32-0.118,0.699,0.084,0.991c0.187,0.267,0.492,0.426,0.818,0.426c0.325-0.022,0.575-0.033,0.825-0.033
			c1.392,0,5.937,0.364,5.992,5.045C134.818,183.43,134.313,185.135,133.291,186.169z"/>
		<rect x="103.668" y="203.663" fill="#1C5183" width="23.117" height="2.286"/>
		<rect x="97.887" y="203.65" fill="#1C5183" width="2.313" height="2.312"/>
		<rect x="92.108" y="203.65" fill="#1C5183" width="2.312" height="2.312"/>
	</g>
</g>
</svg>
