<?xml version="1.0" encoding="utf-8"?>
<!-- Generator: Adobe Illustrator 15.0.0, SVG Export Plug-In . SVG Version: 6.00 Build 0)  -->
<!DOCTYPE svg PUBLIC "-//W3C//DTD SVG 1.1//EN" "http://www.w3.org/Graphics/SVG/1.1/DTD/svg11.dtd">
<svg version="1.1" id="Layer_1" xmlns="http://www.w3.org/2000/svg" xmlns:xlink="http://www.w3.org/1999/xlink" x="0px" y="0px"
	 width="156px" height="100px" viewBox="-24.25 0 156 100" enable-background="new -24.25 0 156 100" xml:space="preserve">
<g>
	<path fill="#FFC10D" d="M106.519,87.75c0,0.897,0.73,1.625,1.625,1.625h13.47c0.896,0,1.622-0.728,1.622-1.625v-3.695h-16.717
		V87.75z M115.088,84.714c1.01,0,1.835,0.822,1.835,1.835c0,1.014-0.821,1.835-1.835,1.835c-1.012,0-1.834-0.821-1.834-1.835
		C113.254,85.536,114.076,84.714,115.088,84.714z"/>
	<path fill="#FFFFFF" d="M121.613,57.736h-13.47c-0.895,0-1.625,0.729-1.625,1.623v1.211h16.717v-1.211
		C123.235,58.465,122.509,57.736,121.613,57.736z M114.621,59.968h-2.188v-1.441h2.188V59.968z M116.765,59.968h-0.722v-1.441h0.722
		V59.968z"/>
	<polygon fill="#339EDE" points="106.61,61.653 106.519,61.653 106.519,82.971 106.61,82.971 123.235,82.971 123.235,61.653 	"/>
	<path fill="#FFC10D" d="M80.028,66.013V55.008c0-0.694-0.567-1.264-1.264-1.264h-39.6c-0.696,0-1.264,0.566-1.264,1.264v11.005
		c0,0.696,0.566,1.262,1.264,1.262h0.045h39.554C79.461,67.274,80.028,66.709,80.028,66.013z M43.856,64.96
		c0,0.499-0.405,0.903-0.902,0.903c-0.499,0-0.902-0.404-0.902-0.903v-7.696c0-0.498,0.404-0.901,0.902-0.901
		c0.497,0,0.902,0.403,0.902,0.901V64.96z M47.463,64.96c0,0.499-0.403,0.903-0.902,0.903c-0.497,0-0.901-0.404-0.901-0.903v-7.696
		c0-0.498,0.405-0.901,0.901-0.901c0.499,0,0.902,0.403,0.902,0.901V64.96z M76.96,62.014h-9.473c-0.495,0-0.9-0.405-0.9-0.902
		c0-0.499,0.405-0.899,0.9-0.899h9.473c0.497,0,0.903,0.4,0.903,0.899C77.863,61.608,77.46,62.014,76.96,62.014z"/>
	<path fill="#339EDE" d="M37.947,70.345v11.002c0,0.697,0.566,1.266,1.265,1.266H78.81c0.696,0,1.266-0.567,1.266-1.266V70.345
		c0-0.697-0.567-1.264-1.266-1.264h-0.043H39.21C38.514,69.081,37.947,69.645,37.947,70.345z M67.487,75.395h9.473
		c0.497,0,0.903,0.403,0.903,0.9c0,0.5-0.406,0.902-0.903,0.902h-9.473c-0.495,0-0.9-0.402-0.9-0.902
		C66.587,75.798,66.992,75.395,67.487,75.395z M45.66,71.996c0-0.498,0.405-0.902,0.901-0.902c0.499,0,0.902,0.404,0.902,0.902
		v7.695c0,0.498-0.403,0.904-0.902,0.904c-0.497,0-0.901-0.406-0.901-0.904V71.996z M42.051,71.996c0-0.498,0.404-0.902,0.902-0.902
		c0.497,0,0.902,0.404,0.902,0.902v7.695c0,0.498-0.405,0.904-0.902,0.904c-0.498,0-0.902-0.406-0.902-0.904V71.996z"/>
	<path fill="#FFC10D" d="M37.947,85.676v11.006c0,0.694,0.566,1.265,1.265,1.265H78.81c0.696,0,1.266-0.567,1.266-1.265V85.676
		c0-0.695-0.567-1.263-1.266-1.263H39.21C38.514,84.414,37.947,84.98,37.947,85.676z M67.487,90.639h9.473
		c0.497,0,0.903,0.403,0.903,0.902c0,0.498-0.406,0.902-0.903,0.902h-9.473c-0.495,0-0.9-0.404-0.9-0.902
		C66.587,91.042,66.992,90.639,67.487,90.639z M45.66,87.692c0-0.498,0.405-0.902,0.901-0.902c0.499,0,0.902,0.404,0.902,0.902
		v7.696c0,0.497-0.403,0.902-0.902,0.902c-0.497,0-0.901-0.405-0.901-0.902V87.692z M42.051,87.692c0-0.498,0.404-0.902,0.902-0.902
		c0.497,0,0.902,0.404,0.902,0.902v7.696c0,0.497-0.405,0.902-0.902,0.902c-0.498,0-0.902-0.405-0.902-0.902V87.692z"/>
	<path fill="#339EDE" d="M10.209,63.277c0-0.698-0.566-1.266-1.265-1.266h-30.126c-0.697,0-1.265,0.566-1.265,1.263l0.065,14.825
		h32.654L10.209,63.277z"/>
	<path fill="#FFC000" d="M-22.355,83.958c0,0.702,0.566,1.27,1.263,1.27h30.13c0.695,0,1.264-0.567,1.264-1.265l-0.019-4.06h-32.656
		L-22.355,83.958z M-6.194,81.287c0.664,0,1.203,0.54,1.203,1.2c0,0.664-0.541,1.203-1.203,1.203c-0.662,0-1.201-0.539-1.201-1.203
		C-7.395,81.827-6.857,81.287-6.194,81.287z"/>
	<circle fill="#339EDE" cx="-6.194" cy="82.491" r="0.843"/>
	<circle fill="#339EDE" cx="115.088" cy="86.549" r="1.473"/>
	<path fill="#339EDE" d="M78.645,20.896c0.296-4.333-3.31-6.793-6.42-7.574C71.81,9.879,72.479,3.32,65.321,1.832
		c-6.805-1.414-9.83,3.268-10.598,6.045c-5.773-1.939-9.607,2.58-9.967,5.618c-3.878-0.609-8.886,1.236-8.886,6.468
		c0,5.639,4.917,6.719,4.917,6.719h31.437C74.118,26.682,78.299,26.011,78.645,20.896z"/>
	<g>
		<path fill="#164E86" d="M46.562,56.359c-0.497,0-0.901,0.405-0.901,0.902v7.698c0,0.497,0.405,0.9,0.901,0.9
			c0.499,0,0.902-0.403,0.902-0.9v-7.698C47.463,56.765,47.061,56.359,46.562,56.359z"/>
		<path fill="#164E86" d="M42.953,56.359c-0.498,0-0.902,0.405-0.902,0.902v7.698c0,0.497,0.404,0.9,0.902,0.9
			c0.497,0,0.902-0.403,0.902-0.9v-7.698C43.856,56.765,43.451,56.359,42.953,56.359z"/>
		<path fill="#164E86" d="M46.562,71.094c-0.497,0-0.901,0.404-0.901,0.902v7.695c0,0.498,0.405,0.904,0.901,0.904
			c0.499,0,0.902-0.406,0.902-0.904v-7.695C47.463,71.498,47.061,71.094,46.562,71.094z"/>
		<path fill="#164E86" d="M42.953,71.094c-0.498,0-0.902,0.404-0.902,0.902v7.695c0,0.498,0.404,0.904,0.902,0.904
			c0.497,0,0.902-0.406,0.902-0.904v-7.695C43.856,71.498,43.451,71.094,42.953,71.094z"/>
		<path fill="#164E86" d="M46.562,96.293c0.499,0,0.902-0.405,0.902-0.901v-7.699c0-0.498-0.403-0.902-0.902-0.902
			c-0.497,0-0.901,0.404-0.901,0.902v7.696C45.66,95.888,46.065,96.293,46.562,96.293z"/>
		<path fill="#164E86" d="M42.953,96.293c0.497,0,0.902-0.405,0.902-0.901v-7.699c0-0.498-0.405-0.902-0.902-0.902
			c-0.498,0-0.902,0.404-0.902,0.902v7.696C42.051,95.888,42.455,96.293,42.953,96.293z"/>
		<path fill="#164E86" d="M76.96,60.212h-9.473c-0.495,0-0.9,0.4-0.9,0.899c0,0.497,0.405,0.902,0.9,0.902h9.473
			c0.497,0,0.903-0.405,0.903-0.902C77.863,60.612,77.46,60.212,76.96,60.212z"/>
		<path fill="#164E86" d="M76.96,75.395h-9.473c-0.495,0-0.9,0.403-0.9,0.9c0,0.5,0.405,0.902,0.9,0.902h9.473
			c0.497,0,0.903-0.402,0.903-0.902C77.863,75.798,77.46,75.395,76.96,75.395z"/>
		<path fill="#164E86" d="M67.487,92.443h9.473c0.497,0,0.903-0.404,0.903-0.902c0-0.499-0.406-0.902-0.903-0.902h-9.473
			c-0.495,0-0.9,0.403-0.9,0.902C66.587,92.039,66.992,92.443,67.487,92.443z"/>
		<path fill="#164E86" d="M-6.194,81.287c-0.663,0-1.201,0.54-1.201,1.2c0,0.664,0.539,1.203,1.201,1.203
			c0.663,0,1.203-0.539,1.203-1.203C-4.991,81.827-5.53,81.287-6.194,81.287z M-6.194,83.331c-0.464,0-0.84-0.377-0.84-0.844
			c0-0.462,0.376-0.839,0.84-0.839c0.466,0,0.843,0.377,0.843,0.839C-5.352,82.954-5.728,83.331-6.194,83.331z"/>
		<path fill="#164E86" d="M115.088,88.384c1.01,0,1.835-0.821,1.835-1.835c0-1.013-0.821-1.835-1.835-1.835
			c-1.012,0-1.834,0.822-1.834,1.835C113.254,87.563,114.076,88.384,115.088,88.384z M115.088,85.076
			c0.813,0,1.475,0.661,1.475,1.473c0,0.813-0.661,1.474-1.475,1.474c-0.812,0-1.472-0.661-1.472-1.474
			C113.616,85.737,114.276,85.076,115.088,85.076z"/>
		<path fill="#164E86" d="M121.613,56.655h-13.47c-1.492,0-2.704,1.212-2.704,2.704v12.637h-6.799v3.127H81.879v-4.778
			c0-0.858-0.357-1.631-0.924-2.188c0.541-0.553,0.876-1.31,0.876-2.144V55.01c0-1.692-1.376-3.068-3.066-3.068H58.334V35.41h2.887
			v-7.284h11.004c3.563,0,7.502-1.874,7.859-7.133c0.308-4.472-2.911-7.526-6.513-8.775c-0.014-0.183-0.025-0.371-0.038-0.563
			c-0.25-3.639-0.668-9.73-7.916-11.238c-0.929-0.193-1.838-0.291-2.699-0.291c-4.846,0-7.802,3-9.107,6.015
			c-0.611-0.118-1.217-0.179-1.813-0.179c-4.363,0-7.35,3.142-8.343,5.98c-0.114-0.003-0.228-0.004-0.345-0.004
			c-4.277,0-8.881,2.51-8.881,8.022c0,5.376,3.958,7.668,6.052,8.13l0.152,0.033h13.362v7.284h3.619v16.53H39.165
			c-1.691,0-3.066,1.376-3.066,3.068v11.002c0,0.859,0.355,1.633,0.923,2.188c-0.542,0.554-0.878,1.312-0.878,2.146v4.778H18.419
			v-3.128h-6.366l-0.038-8.721c0-1.688-1.377-3.066-3.069-3.066h-30.127c-1.692,0-3.069,1.379-3.069,3.069l0.069,15.728
			c0,0.001,0,0.001,0,0.001l0.023,4.957c0,1.691,1.375,3.069,3.066,3.069h10.348c0.018,1.104-0.162,3.032-1.513,3.742h-3.184
			c-0.497,0-0.902,0.404-0.902,0.901c0,0.499,0.405,0.902,0.902,0.902H4.405c0.498,0,0.901-0.403,0.901-0.902
			c0-0.497-0.404-0.901-0.901-0.901H0.511c-1.344-0.71-1.527-2.638-1.513-3.742H9.036c1.691,0,3.066-1.378,3.066-3.073l-0.023-5.347
			h6.337v-2.768H36.14v5.502c0,0.845,0.345,1.61,0.897,2.166c-0.553,0.556-0.897,1.32-0.897,2.166V96.68
			c0,1.693,1.377,3.068,3.069,3.068H78.81c1.692,0,3.069-1.375,3.069-3.068V85.676c0-0.846-0.345-1.609-0.896-2.166
			c0.552-0.554,0.896-1.321,0.896-2.166v-5.502h16.762v2.768h6.799v9.138c0,1.493,1.212,2.707,2.704,2.707h13.47
			c1.491,0,2.704-1.214,2.704-2.707V59.359C124.321,57.867,123.104,56.655,121.613,56.655z M40.79,26.682
			c0,0-4.917-1.081-4.917-6.719c0-5.231,5.006-7.077,8.885-6.468c0.36-3.038,4.194-7.559,9.966-5.618
			c0.769-2.777,3.795-7.459,10.6-6.045c7.158,1.489,6.487,8.048,6.903,11.49c3.111,0.781,6.716,3.241,6.421,7.574
			c-0.35,5.115-4.527,5.787-6.421,5.787H40.79V26.682z M9.037,85.228h-30.13c-0.696,0-1.263-0.567-1.263-1.27l-0.019-4.055H10.28
			l0.019,4.06C10.3,84.66,9.731,85.228,9.037,85.228z M-22.446,63.274c0-0.695,0.567-1.263,1.265-1.263H8.946
			c0.697,0,1.265,0.566,1.265,1.266L10.275,78.1h-32.656L-22.446,63.274z M-1.559,90.774h-8.632
			c0.766-1.199,0.901-2.744,0.889-3.742h6.854C-2.459,88.03-2.324,89.575-1.559,90.774z M80.072,85.676v11.006
			c0,0.694-0.566,1.265-1.264,1.265H39.21c-0.697,0-1.265-0.567-1.265-1.265V85.676c0-0.695,0.567-1.263,1.265-1.263H78.81
			C79.506,84.414,80.072,84.98,80.072,85.676z M39.21,82.612c-0.697,0-1.265-0.567-1.265-1.266V70.345
			c0-0.697,0.567-1.264,1.265-1.264h39.554h0.044c0.696,0,1.264,0.563,1.264,1.264v11.002c0,0.697-0.566,1.266-1.264,1.266H39.21z
			 M39.165,67.274c-0.696,0-1.264-0.565-1.264-1.262V55.008c0-0.694,0.566-1.264,1.264-1.264h39.602
			c0.694,0,1.263,0.566,1.263,1.264v11.005c0,0.696-0.567,1.262-1.263,1.262H39.21H39.165z M123.235,87.75
			c0,0.897-0.727,1.625-1.622,1.625h-13.47c-0.895,0-1.625-0.728-1.625-1.625v-3.695h16.717V87.75z M123.235,82.971H106.61h-0.092
			V61.653h0.092h16.628v21.317H123.235z M123.235,60.57h-16.717v-1.211c0-0.895,0.73-1.623,1.625-1.623h13.47
			c0.896,0,1.622,0.729,1.622,1.623V60.57z"/>
		<rect x="112.434" y="58.526" fill="#164E86" width="2.188" height="1.445"/>
		<rect x="116.043" y="58.526" fill="#164E86" width="0.722" height="1.445"/>
		<path fill="#164E86" d="M100.204,69.089c0.1,0.087,0.224,0.127,0.345,0.127c0.157,0,0.311-0.067,0.419-0.196
			c0.191-0.229,0.159-0.572-0.07-0.763c-1.602-1.329-2.005-3.428-1.85-4.951c0.14-1.355,0.712-2.425,1.53-2.859
			c0.262-0.14,0.362-0.467,0.225-0.73c-0.139-0.265-0.467-0.367-0.732-0.227c-1.138,0.604-1.921,1.987-2.1,3.707
			C97.785,64.993,98.275,67.487,100.204,69.089z"/>
		<path fill="#164E86" d="M102.739,67.561c0.09,0.058,0.19,0.084,0.291,0.084c0.178,0,0.354-0.09,0.456-0.25
			c0.163-0.253,0.088-0.587-0.165-0.746c-0.859-0.548-1.342-1.655-1.291-2.957c0.044-1.104,0.486-2.063,1.091-2.387
			c0.267-0.14,0.365-0.467,0.227-0.731c-0.14-0.263-0.466-0.365-0.731-0.226c-0.968,0.515-1.606,1.778-1.665,3.299
			C100.881,65.34,101.551,66.804,102.739,67.561z"/>
		<path fill="#164E86" d="M131.463,63.196c-0.176-1.719-0.96-3.102-2.099-3.706c-0.267-0.142-0.592-0.036-0.731,0.226
			c-0.142,0.266-0.039,0.592,0.227,0.732c0.815,0.433,1.387,1.503,1.527,2.86c0.157,1.521-0.245,3.619-1.847,4.952
			c-0.229,0.188-0.262,0.532-0.072,0.76c0.107,0.129,0.261,0.196,0.416,0.196c0.122,0,0.247-0.041,0.349-0.126
			C131.161,67.487,131.649,64.993,131.463,63.196z"/>
		<path fill="#164E86" d="M126.819,60.348c-0.266-0.142-0.592-0.037-0.73,0.226c-0.141,0.265-0.038,0.592,0.224,0.731
			c0.612,0.323,1.05,1.283,1.094,2.387c0.051,1.304-0.433,2.41-1.292,2.957c-0.252,0.161-0.327,0.493-0.166,0.746
			c0.104,0.163,0.279,0.25,0.459,0.25c0.098,0,0.198-0.026,0.29-0.084c1.189-0.757,1.858-2.221,1.791-3.915
			C128.425,62.125,127.788,60.862,126.819,60.348z"/>
	</g>
</g>
</svg>
