<?xml version="1.0" encoding="utf-8"?>
<!-- Generator: Adobe Illustrator 15.0.0, SVG Export Plug-In . SVG Version: 6.00 Build 0)  -->
<!DOCTYPE svg PUBLIC "-//W3C//DTD SVG 1.1//EN" "http://www.w3.org/Graphics/SVG/1.1/DTD/svg11.dtd">
<svg version="1.1" id="Layer_1" xmlns="http://www.w3.org/2000/svg" xmlns:xlink="http://www.w3.org/1999/xlink" x="0px" y="0px"
	 width="100px" height="100px" viewBox="0 0 100 100" enable-background="new 0 0 100 100" xml:space="preserve">
<g>
	<path fill="#FFC10D" d="M83.711,74.278c0,0.575,0.468,1.043,1.043,1.043h8.648c0.574,0,1.042-0.468,1.042-1.043v-2.374H83.711
		V74.278z M89.213,72.328c0.649,0,1.178,0.528,1.178,1.178s-0.528,1.178-1.178,1.178s-1.178-0.528-1.178-1.178
		S88.563,72.328,89.213,72.328z"/>
	<path fill="#FFFFFF" d="M93.402,55.007h-8.648c-0.575,0-1.043,0.468-1.043,1.042v0.777h10.733v-0.777
		C94.444,55.475,93.977,55.007,93.402,55.007z M88.913,56.44h-1.404v-0.927h1.404V56.44z M90.289,56.44h-0.464v-0.927h0.464V56.44z"
		/>
	<polygon fill="#339EDE" points="83.77,57.521 83.711,57.521 83.711,71.209 83.77,71.209 94.444,71.209 94.444,57.521 	"/>
	<path fill="#FFC10D" d="M66.702,60.32v-7.065c0-0.447-0.364-0.812-0.811-0.812H40.466c-0.447,0-0.811,0.364-0.811,0.812v7.065
		c0,0.447,0.363,0.811,0.811,0.811h0.029h25.396C66.338,61.131,66.702,60.768,66.702,60.32z M43.478,59.645
		c0,0.32-0.26,0.579-0.579,0.579c-0.32,0-0.579-0.259-0.579-0.579v-4.942c0-0.319,0.259-0.579,0.579-0.579
		c0.319,0,0.579,0.26,0.579,0.579V59.645z M45.794,59.645c0,0.32-0.259,0.579-0.579,0.579c-0.319,0-0.579-0.259-0.579-0.579v-4.942
		c0-0.319,0.26-0.579,0.579-0.579c0.32,0,0.579,0.26,0.579,0.579V59.645z M64.733,57.753h-6.082c-0.319,0-0.579-0.26-0.579-0.579
		c0-0.32,0.26-0.579,0.579-0.579h6.082c0.319,0,0.579,0.259,0.579,0.579C65.313,57.493,65.053,57.753,64.733,57.753z"/>
	<path fill="#339EDE" d="M39.684,63.101v7.065c0,0.447,0.364,0.812,0.812,0.812H65.92c0.447,0,0.812-0.364,0.812-0.812v-7.065
		c0-0.447-0.364-0.811-0.812-0.811h-0.028H40.495C40.048,62.29,39.684,62.653,39.684,63.101z M58.651,66.344h6.082
		c0.319,0,0.579,0.26,0.579,0.579c0,0.32-0.26,0.579-0.579,0.579h-6.082c-0.319,0-0.579-0.259-0.579-0.579
		C58.072,66.604,58.332,66.344,58.651,66.344z M44.636,64.162c0-0.319,0.26-0.579,0.579-0.579c0.32,0,0.579,0.26,0.579,0.579v4.942
		c0,0.319-0.259,0.579-0.579,0.579c-0.319,0-0.579-0.26-0.579-0.579V64.162z M42.319,64.162c0-0.319,0.259-0.579,0.579-0.579
		c0.319,0,0.579,0.26,0.579,0.579v4.942c0,0.319-0.26,0.579-0.579,0.579c-0.32,0-0.579-0.26-0.579-0.579V64.162z"/>
	<path fill="#FFC10D" d="M39.684,72.946v7.066c0,0.446,0.364,0.811,0.812,0.811H65.92c0.447,0,0.812-0.364,0.812-0.811v-7.066
		c0-0.447-0.364-0.811-0.812-0.811H40.495C40.048,72.136,39.684,72.499,39.684,72.946z M58.651,76.132h6.082
		c0.319,0,0.579,0.259,0.579,0.579s-0.26,0.579-0.579,0.579h-6.082c-0.319,0-0.579-0.259-0.579-0.579S58.332,76.132,58.651,76.132z
		 M44.636,74.24c0-0.32,0.26-0.579,0.579-0.579c0.32,0,0.579,0.259,0.579,0.579v4.942c0,0.319-0.259,0.579-0.579,0.579
		c-0.319,0-0.579-0.26-0.579-0.579V74.24z M42.319,74.24c0-0.32,0.259-0.579,0.579-0.579c0.319,0,0.579,0.259,0.579,0.579v4.942
		c0,0.319-0.26,0.579-0.579,0.579c-0.32,0-0.579-0.26-0.579-0.579V74.24z"/>
	<path fill="#339EDE" d="M21.875,58.565c0-0.449-0.364-0.813-0.812-0.813H1.72c-0.447,0-0.812,0.363-0.812,0.811l0.042,9.518h20.966
		L21.875,58.565z"/>
	<path fill="#FFC000" d="M0.967,71.843c0,0.45,0.363,0.814,0.811,0.814h19.345c0.446,0,0.811-0.364,0.811-0.812l-0.012-2.606H0.955
		L0.967,71.843z M11.343,70.128c0.426,0,0.772,0.346,0.772,0.771s-0.347,0.772-0.772,0.772s-0.771-0.347-0.771-0.772
		S10.917,70.128,11.343,70.128z"/>
	<circle fill="#339EDE" cx="11.343" cy="70.9" r="0.541"/>
	<circle fill="#339EDE" cx="89.213" cy="73.506" r="0.946"/>
	<path fill="#339EDE" d="M65.815,31.353c0.189-2.782-2.125-4.362-4.123-4.863c-0.266-2.21,0.164-6.421-4.432-7.377
		c-4.369-0.908-6.312,2.098-6.805,3.881c-3.706-1.245-6.168,1.657-6.399,3.607c-2.49-0.391-5.705,0.794-5.705,4.153
		c0,3.62,3.157,4.314,3.157,4.314h20.184C62.908,35.068,65.592,34.637,65.815,31.353z"/>
	<g>
		<path fill="#164E86" d="M45.215,54.123c-0.319,0-0.579,0.26-0.579,0.579v4.942c0,0.32,0.26,0.579,0.579,0.579
			c0.32,0,0.579-0.259,0.579-0.579v-4.942C45.794,54.383,45.535,54.123,45.215,54.123z"/>
		<path fill="#164E86" d="M42.898,54.123c-0.32,0-0.579,0.26-0.579,0.579v4.942c0,0.32,0.259,0.579,0.579,0.579
			c0.319,0,0.579-0.259,0.579-0.579v-4.942C43.478,54.383,43.218,54.123,42.898,54.123z"/>
		<path fill="#164E86" d="M45.215,63.583c-0.319,0-0.579,0.26-0.579,0.579v4.942c0,0.319,0.26,0.579,0.579,0.579
			c0.32,0,0.579-0.26,0.579-0.579v-4.942C45.794,63.843,45.535,63.583,45.215,63.583z"/>
		<path fill="#164E86" d="M42.898,63.583c-0.32,0-0.579,0.26-0.579,0.579v4.942c0,0.319,0.259,0.579,0.579,0.579
			c0.319,0,0.579-0.26,0.579-0.579v-4.942C43.478,63.843,43.218,63.583,42.898,63.583z"/>
		<path fill="#164E86" d="M45.215,79.762c0.32,0,0.579-0.26,0.579-0.579V74.24c0-0.32-0.259-0.579-0.579-0.579
			c-0.319,0-0.579,0.259-0.579,0.579v4.942C44.636,79.502,44.896,79.762,45.215,79.762z"/>
		<path fill="#164E86" d="M42.898,79.762c0.319,0,0.579-0.26,0.579-0.579V74.24c0-0.32-0.26-0.579-0.579-0.579
			c-0.32,0-0.579,0.259-0.579,0.579v4.942C42.319,79.502,42.578,79.762,42.898,79.762z"/>
		<path fill="#164E86" d="M64.733,56.595h-6.082c-0.319,0-0.579,0.259-0.579,0.579c0,0.319,0.26,0.579,0.579,0.579h6.082
			c0.319,0,0.579-0.26,0.579-0.579C65.313,56.854,65.053,56.595,64.733,56.595z"/>
		<path fill="#164E86" d="M64.733,66.344h-6.082c-0.319,0-0.579,0.26-0.579,0.579c0,0.32,0.26,0.579,0.579,0.579h6.082
			c0.319,0,0.579-0.259,0.579-0.579C65.313,66.604,65.053,66.344,64.733,66.344z"/>
		<path fill="#164E86" d="M58.651,77.29h6.082c0.319,0,0.579-0.259,0.579-0.579s-0.26-0.579-0.579-0.579h-6.082
			c-0.319,0-0.579,0.259-0.579,0.579S58.332,77.29,58.651,77.29z"/>
		<path fill="#164E86" d="M11.343,70.128c-0.426,0-0.771,0.346-0.771,0.771s0.346,0.772,0.771,0.772s0.772-0.347,0.772-0.772
			S11.769,70.128,11.343,70.128z M11.343,71.44c-0.298,0-0.54-0.242-0.54-0.541c0-0.298,0.242-0.54,0.54-0.54
			c0.299,0,0.541,0.242,0.541,0.54C11.884,71.198,11.642,71.44,11.343,71.44z"/>
		<path fill="#164E86" d="M89.213,74.684c0.649,0,1.178-0.528,1.178-1.178s-0.528-1.178-1.178-1.178s-1.178,0.528-1.178,1.178
			S88.563,74.684,89.213,74.684z M89.213,72.56c0.522,0,0.946,0.425,0.946,0.946s-0.424,0.946-0.946,0.946
			c-0.521,0-0.945-0.425-0.945-0.946S88.691,72.56,89.213,72.56z"/>
		<path fill="#164E86" d="M93.402,54.312h-8.648c-0.958,0-1.737,0.779-1.737,1.737v8.113h-4.364v2.008H67.89v-3.069
			c0-0.55-0.229-1.047-0.593-1.404c0.348-0.355,0.563-0.841,0.563-1.376v-7.065c0-1.086-0.883-1.97-1.969-1.97H52.773V40.672h1.854
			v-4.677h7.065c2.289,0,4.817-1.203,5.047-4.58c0.196-2.871-1.87-4.832-4.182-5.634c-0.009-0.117-0.017-0.238-0.025-0.361
			c-0.16-2.336-0.428-6.247-5.083-7.215c-0.596-0.124-1.179-0.187-1.732-0.187c-3.111,0-5.009,1.926-5.848,3.862
			c-0.392-0.076-0.781-0.115-1.164-0.115c-2.801,0-4.719,2.017-5.357,3.84c-0.073-0.002-0.146-0.003-0.221-0.003
			c-2.746,0-5.702,1.612-5.702,5.151c0,3.452,2.541,4.924,3.885,5.22l0.098,0.021h8.579v4.677h2.323v10.613H40.466
			c-1.086,0-1.969,0.884-1.969,1.97v7.065c0,0.551,0.228,1.047,0.593,1.404c-0.348,0.355-0.564,0.841-0.564,1.376v3.069h-11.38
			v-2.008h-4.088l-0.024-5.599c0-1.085-0.884-1.969-1.97-1.969H1.72c-1.086,0-1.97,0.884-1.97,1.971l0.044,10.097
			c0,0.001,0,0.001,0,0.001l0.015,3.183c0,1.086,0.883,1.97,1.969,1.97h6.644c0.011,0.709-0.104,1.948-0.972,2.403H5.406
			c-0.319,0-0.579,0.259-0.579,0.579s0.26,0.579,0.579,0.579h12.742c0.32,0,0.579-0.259,0.579-0.579s-0.259-0.579-0.579-0.579h-2.5
			c-0.863-0.455-0.98-1.693-0.971-2.403h6.444c1.086,0,1.969-0.884,1.969-1.973l-0.015-3.433h4.069v-1.776h11.38v3.532
			c0,0.542,0.221,1.034,0.576,1.391c-0.355,0.356-0.576,0.848-0.576,1.39v7.066c0,1.086,0.884,1.969,1.97,1.969H65.92
			c1.086,0,1.97-0.883,1.97-1.969v-7.066c0-0.542-0.221-1.033-0.576-1.39c0.355-0.356,0.576-0.849,0.576-1.391v-3.532h10.763v1.776
			h4.364v5.868c0,0.958,0.779,1.737,1.737,1.737h8.648c0.958,0,1.737-0.779,1.737-1.737V56.049
			C95.14,55.091,94.36,54.312,93.402,54.312z M41.509,35.068c0,0-3.157-0.694-3.157-4.314c0-3.359,3.215-4.544,5.705-4.153
			c0.231-1.95,2.693-4.853,6.399-3.607c0.493-1.783,2.436-4.789,6.805-3.881c4.596,0.956,4.166,5.167,4.432,7.377
			c1.998,0.501,4.313,2.081,4.123,4.863c-0.224,3.284-2.907,3.716-4.123,3.716H41.509z M21.122,72.657H1.777
			c-0.447,0-0.811-0.364-0.811-0.814l-0.012-2.604h20.966l0.012,2.606C21.933,72.293,21.568,72.657,21.122,72.657z M0.908,58.563
			c0-0.447,0.364-0.811,0.812-0.811h19.344c0.447,0,0.812,0.363,0.812,0.813l0.041,9.516H0.95L0.908,58.563z M14.319,76.219H8.777
			c0.491-0.77,0.578-1.762,0.57-2.403h4.401C13.741,74.457,13.828,75.449,14.319,76.219z M66.731,72.946v7.066
			c0,0.446-0.364,0.811-0.812,0.811H40.495c-0.447,0-0.812-0.364-0.812-0.811v-7.066c0-0.447,0.364-0.811,0.812-0.811H65.92
			C66.367,72.136,66.731,72.499,66.731,72.946z M40.495,70.978c-0.447,0-0.812-0.364-0.812-0.812v-7.065
			c0-0.447,0.364-0.811,0.812-0.811h25.396h0.028c0.447,0,0.812,0.363,0.812,0.811v7.065c0,0.447-0.364,0.812-0.812,0.812H40.495z
			 M40.466,61.131c-0.447,0-0.811-0.363-0.811-0.811v-7.065c0-0.447,0.363-0.812,0.811-0.812h25.426
			c0.446,0,0.811,0.364,0.811,0.812v7.065c0,0.447-0.364,0.811-0.811,0.811H40.495H40.466z M94.444,74.278
			c0,0.575-0.468,1.043-1.042,1.043h-8.648c-0.575,0-1.043-0.468-1.043-1.043v-2.374h10.733V74.278z M94.444,71.209H83.77h-0.059
			V57.521h0.059h10.675V71.209z M94.444,56.826H83.711v-0.777c0-0.574,0.468-1.042,1.043-1.042h8.648
			c0.574,0,1.042,0.468,1.042,1.042V56.826z"/>
		<rect x="87.509" y="55.514" fill="#164E86" width="1.404" height="0.927"/>
		<rect x="89.825" y="55.514" fill="#164E86" width="0.464" height="0.927"/>
		<path fill="#164E86" d="M79.656,62.296c0.065,0.055,0.144,0.081,0.222,0.081c0.1,0,0.199-0.043,0.268-0.126
			c0.123-0.147,0.103-0.367-0.045-0.489c-1.028-0.854-1.287-2.202-1.187-3.179c0.09-0.871,0.457-1.558,0.982-1.836
			c0.169-0.09,0.233-0.3,0.145-0.47c-0.09-0.169-0.3-0.235-0.471-0.145c-0.73,0.388-1.233,1.276-1.348,2.379
			C78.104,59.666,78.418,61.267,79.656,62.296z"/>
		<path fill="#164E86" d="M81.284,61.314c0.058,0.037,0.122,0.054,0.187,0.054c0.114,0,0.227-0.057,0.293-0.16
			c0.104-0.162,0.056-0.377-0.106-0.48c-0.552-0.351-0.862-1.062-0.829-1.898c0.029-0.709,0.311-1.325,0.701-1.532
			c0.17-0.09,0.234-0.3,0.145-0.47c-0.09-0.169-0.299-0.234-0.47-0.144c-0.621,0.329-1.031,1.141-1.069,2.118
			C80.091,59.889,80.521,60.828,81.284,61.314z"/>
		<path fill="#164E86" d="M99.727,58.512c-0.113-1.103-0.617-1.991-1.348-2.379c-0.171-0.091-0.38-0.024-0.47,0.145
			c-0.09,0.17-0.025,0.38,0.145,0.47c0.524,0.278,0.892,0.965,0.981,1.836c0.102,0.977-0.157,2.324-1.186,3.179
			c-0.147,0.122-0.168,0.342-0.046,0.489c0.069,0.083,0.168,0.126,0.268,0.126c0.078,0,0.157-0.026,0.223-0.081
			C99.532,61.267,99.846,59.666,99.727,58.512z"/>
		<path fill="#164E86" d="M96.745,56.684c-0.171-0.091-0.38-0.025-0.47,0.144c-0.09,0.17-0.024,0.38,0.145,0.47
			c0.392,0.207,0.673,0.823,0.701,1.532c0.033,0.837-0.277,1.548-0.829,1.898c-0.162,0.104-0.21,0.318-0.106,0.48
			c0.066,0.104,0.179,0.16,0.294,0.16c0.063,0,0.128-0.017,0.186-0.054c0.764-0.486,1.193-1.426,1.15-2.513
			C97.776,57.824,97.366,57.013,96.745,56.684z"/>
	</g>
</g>
</svg>
