<?xml version="1.0" encoding="utf-8"?>
<!-- Generator: Adobe Illustrator 15.0.0, SVG Export Plug-In . SVG Version: 6.00 Build 0)  -->
<!DOCTYPE svg PUBLIC "-//W3C//DTD SVG 1.1//EN" "http://www.w3.org/Graphics/SVG/1.1/DTD/svg11.dtd">
<svg version="1.1" id="Layer_1" xmlns="http://www.w3.org/2000/svg" xmlns:xlink="http://www.w3.org/1999/xlink" x="0px" y="0px"
	 width="120.833px" height="100px" viewBox="0 0 120.833 100" enable-background="new 0 0 120.833 100" xml:space="preserve">
<g>
	<path fill="#FFC000" d="M86.072,79.652h12.803c-0.195-0.168-0.388-0.347-0.576-0.54c-2.125-2.188-3.188-5.639-3.375-7.807h-0.051
		c-0.871,0.125-1.761,0.193-2.666,0.193h-0.32c-0.632,0-1.259-0.033-1.875-0.095c-0.21,2.173-1.267,5.551-3.361,7.708
		C86.462,79.306,86.27,79.486,86.072,79.652z"/>
	<polygon fill="#FFC000" points="77.284,97.03 107.664,97.03 107.664,87.435 103.134,87.435 81.813,87.435 77.284,87.435 	"/>
	<path fill="#FFC10D" d="M46.796,59.909l5.468-5.36l-5.468-5.36c-0.187-0.184-0.273-0.445-0.229-0.704l1.274-7.551l-7.579-1.118
		c-0.257-0.038-0.482-0.202-0.599-0.436l-3.401-6.862l-6.787,3.552c-0.232,0.122-0.51,0.122-0.741,0l-6.788-3.552l-3.401,6.862
		c-0.118,0.234-0.342,0.397-0.6,0.435l-7.58,1.119l1.273,7.551c0.044,0.259-0.042,0.521-0.229,0.704l-5.469,5.36l5.469,5.36
		c0.188,0.184,0.273,0.446,0.229,0.704l-1.273,7.553l1.168,0.172l3.464,0.512l2.946,0.435c0.135,0.021,0.26,0.074,0.363,0.153
		c0.099,0.075,0.182,0.17,0.237,0.281l3.401,6.864l4.096-2.145l0.053-0.025l0.655-0.346l0.069-0.035l0.725-0.379l0.737-0.388
		l0.451-0.234c0.116-0.061,0.244-0.091,0.37-0.091c0.127,0,0.256,0.03,0.371,0.091l6.787,3.555l3.403-6.864
		c0.05-0.104,0.127-0.189,0.215-0.262c0.11-0.091,0.24-0.152,0.385-0.175l2.85-0.421l3.314-0.488l1.413-0.208l-1.274-7.553
		C46.522,60.355,46.609,60.094,46.796,59.909z M29.101,41.758c7.055,0,12.792,5.737,12.792,12.791
		c0,7.055-5.737,12.792-12.792,12.792c-7.052,0-12.791-5.737-12.791-12.792C16.31,47.495,22.049,41.758,29.101,41.758z"/>
	<path fill="#339EDE" d="M29.101,65.741c6.172,0,11.194-5.021,11.194-11.193c0-6.172-5.021-11.191-11.194-11.191
		c-6.172,0-11.191,5.021-11.191,11.191C17.909,60.72,22.931,65.741,29.101,65.741z"/>
	<path fill="#339EDE" d="M74.778,33.283v19.508c0,8.562,6.32,15.673,14.543,16.915h5.453c8.22-1.242,14.541-8.354,14.541-16.915
		V40.585v-7.302H74.778z M100.333,48.275l-3.509,3.421l0.829,4.83c0.052,0.3-0.072,0.604-0.318,0.781
		c-0.14,0.101-0.305,0.152-0.47,0.152c-0.127,0-0.255-0.03-0.374-0.092l-4.338-2.28l-4.337,2.28
		c-0.271,0.141-0.596,0.119-0.841-0.061c-0.247-0.178-0.37-0.481-0.318-0.781l0.828-4.83l-3.508-3.421
		c-0.219-0.212-0.298-0.53-0.203-0.82c0.095-0.289,0.345-0.5,0.646-0.543l4.848-0.704l2.169-4.395
		c0.137-0.273,0.413-0.445,0.718-0.445s0.582,0.172,0.719,0.445l2.168,4.395l4.85,0.704c0.3,0.043,0.55,0.255,0.645,0.543
		C100.631,47.745,100.551,48.063,100.333,48.275z"/>
	<g>
		<path fill="#339EDE" d="M21.961,78.378c-0.188,0.101-0.414,0.118-0.616,0.051c-0.204-0.065-0.375-0.213-0.47-0.405l-3.58-7.221
			l-5.063-0.747L2.192,87.623l10.853-0.188c0.003,0,0.011,0,0.014,0c0.292,0,0.562,0.161,0.703,0.418l4.532,8.326l9.257-16.47
			l-1.025-3.721L21.961,78.378z"/>
		<path fill="#339EDE" d="M40.908,70.803l-3.579,7.221c-0.095,0.192-0.264,0.34-0.47,0.405c-0.079,0.027-0.162,0.04-0.246,0.04
			c-0.128,0-0.255-0.029-0.371-0.091l-7.142-3.739l-0.884,0.463l11.421,21.113l5.038-8.382c0.147-0.245,0.421-0.395,0.699-0.389
			l10.316,0.179L45.677,70.101L40.908,70.803z"/>
		<path fill="#339EDE" d="M89.321,69.706c0.837,0.128,1.693,0.193,2.565,0.193h0.32c0.874,0,1.73-0.065,2.567-0.193H89.321z"/>
	</g>
	<path fill="#FFC10D" d="M93.793,47.291l-1.638-3.318l-1.636,3.318c-0.118,0.235-0.343,0.4-0.604,0.437l-3.66,0.532l2.65,2.582
		c0.187,0.186,0.273,0.449,0.229,0.708l-0.628,3.647l3.277-1.722c0.116-0.062,0.242-0.092,0.371-0.092
		c0.128,0,0.256,0.03,0.373,0.092l3.275,1.722l-0.627-3.647c-0.045-0.259,0.043-0.522,0.23-0.708l2.649-2.582l-3.661-0.532
		C94.136,47.691,93.911,47.528,93.793,47.291z"/>
	<rect x="82.616" y="81.252" fill="#339EDE" width="19.718" height="4.584"/>
	<g>
		<path fill="#164E86" d="M120.772,40.517c-0.035-0.414-0.381-0.731-0.796-0.731h-9.062v-7.302c0-0.441-0.357-0.8-0.8-0.8H73.979
			c-0.441,0-0.8,0.357-0.8,0.8v7.302h-9.248c-0.415,0-0.761,0.317-0.795,0.731c-0.012,0.11-0.822,11.109,10.49,16.696
			c0.029,0.016,0.062,0.022,0.094,0.034c1.735,7.071,7.5,12.572,14.712,13.926c-0.154,1.746-1.02,4.86-2.928,6.825
			c-1.067,1.098-2.309,1.654-3.688,1.654c-0.442,0-0.8,0.358-0.8,0.799v5.385h-4.532c-0.441,0-0.8,0.358-0.8,0.798v11.193
			c0,0.443,0.358,0.8,0.8,0.8h31.979c0.441,0,0.799-0.356,0.799-0.8V86.634c0-0.439-0.357-0.798-0.799-0.798h-4.531v-5.385
			c0-0.44-0.358-0.799-0.799-0.799c-1.381,0-2.621-0.557-3.689-1.654c-1.978-2.036-2.834-5.301-2.94-7.004
			c6.85-1.616,12.253-7.003,13.891-13.842C121.585,51.549,120.783,40.626,120.772,40.517z M94.924,71.306
			c0.188,2.168,1.25,5.619,3.375,7.807c0.188,0.193,0.378,0.374,0.576,0.54H86.072c0.197-0.168,0.39-0.347,0.578-0.54
			c2.095-2.157,3.154-5.535,3.364-7.708c0.615,0.062,1.24,0.095,1.874,0.095h0.319c0.905,0,1.794-0.07,2.666-0.193H94.924z
			 M107.664,97.03h-30.38v-9.596h4.529h21.319h4.53L107.664,97.03L107.664,97.03z M102.334,85.836H82.616v-4.584h19.718V85.836z
			 M94.774,69.706c-0.837,0.128-1.693,0.193-2.567,0.193h-0.32c-0.872,0-1.729-0.065-2.565-0.193
			c-8.223-1.242-14.543-8.354-14.543-16.915V33.283h34.537v7.302V52.79C109.315,61.353,102.994,68.464,94.774,69.706z
			 M64.708,41.384h8.472v11.407c0,0.836,0.061,1.658,0.168,2.466C65.48,50.846,64.733,43.694,64.708,41.384z M110.762,55.14
			c0.098-0.77,0.153-1.554,0.153-2.349V41.384h8.284C119.174,43.676,118.438,50.723,110.762,55.14z"/>
		<path fill="#164E86" d="M47.376,69.85l1.505-0.225c0.212-0.029,0.403-0.146,0.528-0.319c0.127-0.176,0.178-0.392,0.142-0.604
			l-1.339-7.944l5.752-5.64c0.152-0.15,0.239-0.356,0.239-0.571s-0.085-0.42-0.239-0.571l-5.754-5.638l1.34-7.944
			c0.036-0.211-0.015-0.429-0.142-0.604c-0.125-0.174-0.317-0.289-0.529-0.32l-7.971-1.178l-3.58-7.221
			c-0.095-0.192-0.264-0.338-0.469-0.405c-0.203-0.066-0.427-0.048-0.618,0.052l-7.141,3.739l-7.141-3.738
			c-0.191-0.1-0.413-0.118-0.619-0.052c-0.204,0.067-0.373,0.213-0.469,0.405l-3.579,7.219L9.32,39.469
			c-0.211,0.031-0.403,0.146-0.528,0.32c-0.127,0.174-0.177,0.391-0.141,0.604l1.339,7.944l-5.753,5.638
			c-0.153,0.151-0.239,0.356-0.239,0.571s0.084,0.421,0.239,0.571l5.753,5.639l-1.34,7.944c-0.035,0.212,0.014,0.429,0.141,0.604
			c0.126,0.175,0.318,0.288,0.529,0.319l1.209,0.18L0.105,88.054c-0.144,0.247-0.141,0.554,0.007,0.802
			c0.146,0.247,0.422,0.407,0.701,0.393l11.776-0.205l4.992,9.168c0.138,0.256,0.406,0.416,0.696,0.418c0.001,0,0.003,0,0.006,0
			c0.288,0,0.554-0.155,0.696-0.407l10.127-18.016c0.011-0.021,0.011-0.042,0.02-0.063l9.772,18.066
			c0.136,0.252,0.397,0.413,0.685,0.42c0.007,0,0.013,0,0.019,0c0.28,0,0.54-0.146,0.686-0.389l5.521-9.188l11.262,0.196
			c0.004,0,0.008,0,0.013,0c0.004,0,0.009,0,0.013,0c0.441,0,0.799-0.358,0.799-0.8c0-0.191-0.066-0.369-0.18-0.507L47.376,69.85z
			 M45.375,87.444c-0.277-0.006-0.552,0.144-0.699,0.389l-5.038,8.382L28.217,75.102l0.884-0.463l7.142,3.739
			c0.116,0.062,0.243,0.091,0.371,0.091c0.084,0,0.167-0.013,0.246-0.04c0.205-0.065,0.375-0.213,0.47-0.405l3.579-7.221
			l4.769-0.702l10.015,17.522L45.375,87.444z M18.295,96.177l-4.532-8.324c-0.141-0.257-0.409-0.419-0.703-0.419
			c-0.003,0-0.01,0-0.013,0L2.193,87.623l10.039-17.568l5.064,0.748l3.579,7.221c0.096,0.192,0.265,0.339,0.47,0.404
			c0.203,0.068,0.427,0.05,0.617-0.051l4.566-2.391l1.023,3.723L18.295,96.177z M11.638,60.612c0.044-0.257-0.042-0.52-0.229-0.704
			l-5.469-5.36l5.469-5.361c0.188-0.183,0.273-0.445,0.229-0.704l-1.273-7.549l7.578-1.118c0.26-0.039,0.482-0.202,0.601-0.435
			l3.401-6.862l6.787,3.552c0.232,0.123,0.511,0.123,0.741,0l6.788-3.552l3.401,6.862c0.116,0.234,0.341,0.398,0.6,0.436
			l7.577,1.118l-1.273,7.551c-0.043,0.259,0.044,0.521,0.229,0.704l5.468,5.361l-5.468,5.36c-0.187,0.183-0.272,0.445-0.229,0.704
			l1.275,7.553l-1.414,0.205l-3.314,0.49l-2.851,0.421c-0.144,0.021-0.273,0.084-0.384,0.175c-0.088,0.07-0.163,0.157-0.215,0.261
			l-3.402,6.863l-6.788-3.553c-0.114-0.062-0.243-0.091-0.37-0.091s-0.254,0.029-0.371,0.091l-0.451,0.235l-0.737,0.388
			l-0.725,0.378l-0.068,0.035l-0.656,0.344l-0.052,0.027l-4.097,2.143l-3.401-6.862c-0.056-0.111-0.139-0.208-0.236-0.28
			c-0.105-0.079-0.229-0.134-0.363-0.153l-2.947-0.436l-3.466-0.511l-1.167-0.172L11.638,60.612z"/>
		<path fill="#164E86" d="M29.101,67.341c7.055,0,12.792-5.737,12.792-12.792c0-7.052-5.737-12.791-12.792-12.791
			c-7.052,0-12.791,5.737-12.791,12.791C16.31,61.604,22.049,67.341,29.101,67.341z M29.101,43.357
			c6.172,0,11.194,5.021,11.194,11.192c0,6.172-5.021,11.193-11.194,11.193c-6.172,0-11.191-5.021-11.191-11.193
			S22.931,43.357,29.101,43.357z"/>
		<path fill="#164E86" d="M99.89,46.912l-4.848-0.704l-2.171-4.395c-0.134-0.273-0.413-0.445-0.718-0.445
			c-0.304,0-0.579,0.172-0.716,0.445l-2.169,4.395l-4.85,0.704c-0.3,0.043-0.55,0.255-0.645,0.543c-0.095,0.29-0.017,0.606,0.2,0.82
			l3.51,3.421l-0.828,4.83c-0.053,0.3,0.07,0.604,0.318,0.781c0.245,0.18,0.571,0.201,0.841,0.061l4.337-2.28l4.338,2.28
			c0.118,0.062,0.245,0.092,0.372,0.092c0.167,0,0.331-0.05,0.472-0.152c0.246-0.178,0.369-0.481,0.319-0.781l-0.83-4.83
			l3.508-3.421c0.218-0.212,0.297-0.53,0.202-0.82C100.441,47.167,100.189,46.956,99.89,46.912z M95.407,50.844
			c-0.188,0.185-0.276,0.448-0.23,0.708l0.627,3.647l-3.275-1.723c-0.117-0.062-0.245-0.092-0.373-0.092
			c-0.126,0-0.255,0.03-0.371,0.092l-3.277,1.723l0.628-3.647c0.043-0.26-0.043-0.523-0.229-0.708l-2.65-2.583l3.66-0.532
			c0.262-0.039,0.486-0.202,0.604-0.437l1.636-3.318l1.638,3.318c0.118,0.235,0.34,0.4,0.603,0.437l3.661,0.532L95.407,50.844z"/>
	</g>
</g>
</svg>
