<?xml version="1.0" encoding="utf-8"?>
<!-- Generator: Adobe Illustrator 16.0.0, SVG Export Plug-In . SVG Version: 6.00 Build 0)  -->
<!DOCTYPE svg PUBLIC "-//W3C//DTD SVG 1.1//EN" "http://www.w3.org/Graphics/SVG/1.1/DTD/svg11.dtd">
<svg version="1.1" id="Layer_1" xmlns="http://www.w3.org/2000/svg" xmlns:xlink="http://www.w3.org/1999/xlink" x="0px" y="0px"
	 width="203.002px" height="100px" viewBox="0 0 203.002 100" enable-background="new 0 0 203.002 100" xml:space="preserve">
<g>
	<rect x="72.671" y="19.146" fill="#399DD7" width="16.264" height="25.965"/>
	<path fill="#FDC010" d="M90.579,45.112h5.124V33.799c0-0.425,0.345-0.772,0.77-0.772h8.575h8.574c0.426,0,0.771,0.348,0.771,0.772
		v11.312h5.224V18.376v-7.833h-29.14v7.449c0.066,0.113,0.103,0.244,0.103,0.384L90.579,45.112L90.579,45.112z M112.606,14.217
		h3.024v3.024h-3.024V14.217z M112.606,20.265h3.024v3.024h-3.024V20.265z M112.606,26.315h3.024v3.023h-3.024V26.315z
		 M106.56,14.217h3.024v3.024h-3.024V14.217z M106.56,20.265h3.024v3.024h-3.024V20.265z M106.56,26.315h3.024v3.023h-3.024V26.315z
		 M100.511,14.217h3.025v3.024h-3.025V14.217z M100.511,20.265h3.025v3.024h-3.025V20.265z M100.511,26.315h3.025v3.023h-3.025
		V26.315z M94.463,14.217h3.023v3.024h-3.023V14.217z M94.463,20.265h3.023v3.024h-3.023V20.265z M94.463,26.315h3.023v3.023h-3.023
		V26.315z"/>
	<rect x="105.819" y="34.572" fill="#FDC010" width="7.033" height="10.54"/>
	<path fill="#FDC010" d="M79.345,75.082c0-3.502-2.85-6.352-6.35-6.352c-3.502,0-6.354,2.85-6.354,6.352
		c0,3.504,2.852,6.354,6.354,6.354C76.495,81.436,79.345,78.586,79.345,75.082z"/>
	<rect x="97.245" y="34.572" fill="#FDC010" width="7.033" height="10.54"/>
	<rect x="121.163" y="19.146" fill="#399DD7" width="16.367" height="25.965"/>
	<path fill="#399DD7" d="M110.401,75.266h1.541v6.373l6.078,0.021v-6.972c0-3.729-3.029-6.76-6.758-6.76H99.267
		c-3.728,0-6.758,3.031-6.758,6.76v6.886l5.766,0.02v-6.325h1.542v6.33l10.584,0.036V75.266L110.401,75.266z"/>
	<path fill="#FDC010" d="M79.208,83.721H67.212c-3.725,0-6.758,3.031-6.758,6.76v6.886l5.766,0.02v-6.323h1.542v6.332l10.584,0.035
		v-6.367h1.546v6.373l6.077,0.018V90.48C85.969,86.752,82.936,83.721,79.208,83.721z"/>
	<path fill="#FDC010" d="M142.374,83.721h-11.996c-3.729,0-6.758,3.031-6.758,6.76v6.886l5.766,0.02v-6.323h1.542v6.332
		l10.585,0.035v-6.367h1.543v6.373l6.077,0.018V90.48C149.133,86.752,146.103,83.721,142.374,83.721z"/>
	<path fill="#FDC010" d="M142.511,75.082c0-3.502-2.85-6.352-6.353-6.352s-6.349,2.85-6.349,6.352c0,3.504,2.846,6.354,6.349,6.354
		S142.511,78.586,142.511,75.082z"/>
	<path fill="#399DD7" d="M111.399,59.289c0-3.504-2.85-6.35-6.353-6.35s-6.351,2.846-6.351,6.35c0,3.502,2.848,6.352,6.351,6.352
		S111.399,62.791,111.399,59.289z"/>
	<rect x="100.511" y="14.217" fill="#1C5284" width="3.025" height="3.024"/>
	<rect x="106.56" y="14.217" fill="#1C5284" width="3.024" height="3.024"/>
	<rect x="112.606" y="14.217" fill="#1C5284" width="3.024" height="3.024"/>
	<rect x="94.463" y="14.217" fill="#1C5284" width="3.023" height="3.024"/>
	<rect x="112.606" y="20.265" fill="#1C5284" width="3.024" height="3.024"/>
	<rect x="94.463" y="20.265" fill="#1C5284" width="3.023" height="3.024"/>
	<rect x="100.511" y="20.265" fill="#1C5284" width="3.025" height="3.024"/>
	<rect x="106.56" y="20.265" fill="#1C5284" width="3.024" height="3.024"/>
	<rect x="112.606" y="26.315" fill="#1C5284" width="3.024" height="3.023"/>
	<rect x="94.463" y="26.315" fill="#1C5284" width="3.023" height="3.023"/>
	<rect x="100.511" y="26.315" fill="#1C5284" width="3.025" height="3.023"/>
	<rect x="106.56" y="26.315" fill="#1C5284" width="3.024" height="3.023"/>
	<path fill="#1C5284" d="M71.897,46.654h17.807h0.105h6.663h8.575h8.574h6.769h17.911c0.427,0,0.771-0.346,0.771-0.772V18.376
		c0-0.425-0.344-0.771-0.771-0.771h-17.139V9.771c0-0.426-0.347-0.771-0.772-0.771H89.704c-0.425,0-0.77,0.344-0.77,0.771v7.833
		H71.897c-0.425,0-0.772,0.346-0.772,0.771v27.506C71.125,46.308,71.473,46.654,71.897,46.654z M121.163,19.146h16.367v25.965
		h-16.367V19.146z M104.278,45.112h-7.033v-10.54h7.033V45.112z M112.853,45.112h-7.031v-10.54h7.031V45.112z M90.477,10.542h29.141
		v7.833v26.736h-5.223V33.799c0-0.425-0.348-0.772-0.772-0.772h-8.574h-8.575c-0.425,0-0.77,0.348-0.77,0.772v11.312H90.58V18.376
		c0-0.14-0.036-0.271-0.103-0.384V10.542L90.477,10.542z M72.671,19.146h16.264v25.965H72.671V19.146z"/>
	<path fill="#1C5284" d="M81.886,62.049c-0.235-0.369-0.463-0.754-0.68-1.139l-1.344,0.752c0.229,0.412,0.472,0.82,0.72,1.213
		L81.886,62.049z"/>
	<path fill="#1C5284" d="M83.043,63.719c-0.264-0.348-0.522-0.709-0.771-1.078l-1.278,0.861c0.262,0.393,0.54,0.779,0.821,1.152
		L83.043,63.719z"/>
	<path fill="#1C5284" d="M90.847,69.938c-0.4-0.176-0.802-0.367-1.187-0.567l-0.712,1.364c0.416,0.222,0.849,0.425,1.278,0.615
		L90.847,69.938z"/>
	<path fill="#1C5284" d="M84.342,65.273c-0.295-0.322-0.587-0.66-0.863-1l-1.197,0.973c0.298,0.365,0.608,0.725,0.923,1.068
		L84.342,65.273z"/>
	<path fill="#1C5284" d="M89.047,69.035c-0.38-0.215-0.757-0.449-1.121-0.689l-0.852,1.285c0.394,0.258,0.8,0.512,1.21,0.746
		L89.047,69.035z"/>
	<path fill="#1C5284" d="M85.777,66.688c-0.325-0.289-0.644-0.594-0.952-0.905l-1.1,1.079c0.334,0.341,0.678,0.666,1.028,0.979
		L85.777,66.688z"/>
	<path fill="#1C5284" d="M87.353,67.949c-0.354-0.256-0.705-0.525-1.042-0.805l-0.98,1.188c0.36,0.303,0.739,0.592,1.121,0.869
		L87.353,67.949z"/>
	<path fill="#1C5284" d="M78.578,54.594c-0.126-0.424-0.247-0.859-0.359-1.293l-1.491,0.387c0.115,0.451,0.241,0.904,0.372,1.347
		L78.578,54.594z"/>
	<path fill="#1C5284" d="M80.867,60.287c-0.205-0.389-0.404-0.789-0.592-1.193l-1.398,0.652c0.199,0.428,0.41,0.852,0.624,1.26
		L80.867,60.287z"/>
	<path fill="#1C5284" d="M78.048,52.605c-0.102-0.429-0.198-0.875-0.286-1.312l-1.513,0.305c0.091,0.455,0.193,0.916,0.298,1.363
		L78.048,52.605z"/>
	<path fill="#1C5284" d="M75.633,47.358c0.041,0.452,0.092,0.92,0.151,1.391l1.529-0.195c-0.058-0.452-0.104-0.897-0.144-1.332
		L75.633,47.358z"/>
	<path fill="#1C5284" d="M77.63,50.588c-0.082-0.439-0.154-0.882-0.22-1.322l-1.526,0.22c0.067,0.459,0.143,0.924,0.226,1.379
		L77.63,50.588z"/>
	<path fill="#1C5284" d="M79.98,58.443c-0.175-0.4-0.349-0.812-0.51-1.232l-1.439,0.559c0.171,0.439,0.352,0.871,0.536,1.295
		L79.98,58.443z"/>
	<path fill="#1C5284" d="M79.219,56.543c-0.148-0.412-0.296-0.84-0.43-1.266l-1.469,0.467c0.141,0.447,0.291,0.891,0.45,1.326
		L79.219,56.543z"/>
	<path fill="#1C5284" d="M134.211,49.486l-1.526-0.22c-0.062,0.439-0.135,0.882-0.216,1.322l1.517,0.277
		C134.067,50.41,134.146,49.945,134.211,49.486z"/>
	<path fill="#1C5284" d="M133.847,51.598l-1.514-0.305c-0.087,0.438-0.186,0.885-0.286,1.312l1.5,0.354
		C133.655,52.514,133.756,52.053,133.847,51.598z"/>
	<path fill="#1C5284" d="M133.371,53.688l-1.495-0.387c-0.111,0.434-0.23,0.869-0.357,1.293l1.479,0.439
		C133.13,54.592,133.256,54.139,133.371,53.688z"/>
	<path fill="#1C5284" d="M134.462,47.358l-1.538-0.137c-0.034,0.435-0.085,0.88-0.143,1.332l1.528,0.195
		C134.373,48.278,134.422,47.81,134.462,47.358z"/>
	<path fill="#1C5284" d="M127.817,65.246l-1.199-0.973c-0.278,0.34-0.567,0.678-0.861,1l1.135,1.041
		C127.209,65.971,127.521,65.611,127.817,65.246z"/>
	<path fill="#1C5284" d="M126.368,66.861l-1.096-1.08c-0.311,0.312-0.631,0.617-0.955,0.906l1.025,1.151
		C125.69,67.527,126.038,67.201,126.368,66.861z"/>
	<path fill="#1C5284" d="M123.021,69.631l-0.853-1.285c-0.364,0.24-0.737,0.475-1.118,0.689l0.764,1.342
		C122.224,70.143,122.631,69.889,123.021,69.631z"/>
	<path fill="#1C5284" d="M119.248,69.938l0.619,1.412c0.435-0.19,0.864-0.395,1.28-0.615l-0.713-1.364
		C120.05,69.57,119.651,69.762,119.248,69.938z"/>
	<path fill="#1C5284" d="M132.778,55.744l-1.469-0.467c-0.14,0.426-0.283,0.854-0.436,1.266l1.451,0.527
		C132.483,56.635,132.636,56.191,132.778,55.744z"/>
	<path fill="#1C5284" d="M124.769,68.332l-0.983-1.188c-0.337,0.278-0.687,0.549-1.038,0.805l0.898,1.252
		C124.024,68.924,124.403,68.635,124.769,68.332z"/>
	<path fill="#1C5284" d="M132.062,57.77l-1.435-0.559c-0.164,0.42-0.335,0.832-0.512,1.232l1.411,0.621
		C131.716,58.641,131.894,58.209,132.062,57.77z"/>
	<path fill="#1C5284" d="M131.222,59.746l-1.397-0.654c-0.191,0.406-0.39,0.807-0.593,1.195l1.361,0.719
		C130.812,60.598,131.021,60.174,131.222,59.746z"/>
	<path fill="#1C5284" d="M130.235,61.662l-1.344-0.752c-0.221,0.385-0.447,0.77-0.68,1.139l1.303,0.826
		C129.761,62.482,130.006,62.074,130.235,61.662z"/>
	<path fill="#1C5284" d="M129.104,63.502l-1.279-0.861c-0.247,0.369-0.508,0.73-0.77,1.078l1.229,0.937
		C128.563,64.281,128.839,63.895,129.104,63.502z"/>
	<path fill="#1C5284" d="M142.374,82.178h-2.758c2.626-1.283,4.437-3.982,4.437-7.096c0-4.352-3.542-7.895-7.895-7.895
		s-7.896,3.543-7.896,7.895c0,3.113,1.814,5.812,4.438,7.096h-2.322c-4.578,0-8.304,3.725-8.304,8.303v1.433h-16.255v-8.75
		l13.746,0.043v-8.519c0-1.053-0.196-2.059-0.558-2.981c0.056-0.024,0.111-0.045,0.166-0.067l-0.567-1.431
		c-0.097,0.035-0.192,0.074-0.289,0.11c-1.465-2.358-4.077-3.936-7.055-3.936h-2.759c2.626-1.283,4.438-3.98,4.438-7.094
		c0-4.354-3.543-7.895-7.896-7.895c-4.353,0-7.892,3.541-7.892,7.895c0,3.113,1.811,5.811,4.437,7.094h-2.326
		c-3.091,0-5.791,1.699-7.221,4.209l0.057-0.154c-0.207-0.073-0.412-0.153-0.611-0.229l-0.572,1.431
		c0.181,0.071,0.364,0.143,0.547,0.209c-0.324,0.887-0.499,1.844-0.499,2.842v8.422l13.312,0.043v8.76H87.511V90.48
		c0-4.578-3.726-8.304-8.303-8.304H76.45c2.625-1.282,4.437-3.981,4.437-7.096c0-4.353-3.539-7.896-7.892-7.896
		c-4.355,0-7.895,3.543-7.895,7.896c0,3.112,1.811,5.812,4.437,7.096h-2.325c-4.578,0-8.301,3.726-8.301,8.304v8.424L87.511,99
		v-5.545h34.563v5.449L150.677,99v-8.52C150.677,85.902,146.951,82.178,142.374,82.178z M66.642,75.082
		c0-3.502,2.852-6.352,6.354-6.352c3.5,0,6.35,2.85,6.35,6.352c0,3.504-2.85,6.354-6.35,6.354
		C69.493,81.436,66.642,78.586,66.642,75.082z M85.969,97.451l-6.077-0.018v-6.373h-1.546v6.366l-10.584-0.034v-6.332H66.22v6.323
		l-5.766-0.02V90.48c0-3.729,3.033-6.761,6.758-6.761h11.996c3.728,0,6.761,3.031,6.761,6.761L85.969,97.451L85.969,97.451z
		 M98.697,59.289c0-3.504,2.848-6.35,6.351-6.35s6.354,2.846,6.354,6.35c0,3.502-2.851,6.352-6.354,6.352
		S98.697,62.791,98.697,59.289z M99.816,81.596v-6.33h-1.542v6.326l-5.766-0.02v-6.885c0-3.729,3.03-6.761,6.758-6.761h11.997
		c3.729,0,6.758,3.031,6.758,6.761v6.971l-6.078-0.02v-6.373h-1.541v6.366L99.816,81.596z M129.81,75.082
		c0-3.502,2.847-6.352,6.35-6.352s6.354,2.85,6.354,6.352c0,3.504-2.851,6.354-6.354,6.354S129.81,78.586,129.81,75.082z
		 M149.133,97.451l-6.077-0.018v-6.373h-1.543v6.366l-10.585-0.034v-6.332h-1.542v6.323l-5.766-0.02V90.48
		c0-3.729,3.029-6.761,6.758-6.761h11.996c3.729,0,6.759,3.031,6.759,6.761V97.451z"/>
	<path fill="#1C5284" d="M80.867,27.827c0.835,0,1.512,0.677,1.512,1.511h3.024c0-1.968-1.27-3.63-3.024-4.257v-1.792h-3.023v1.792
		c-1.759,0.626-3.024,2.289-3.024,4.257c0,0.402,0.157,0.787,0.442,1.07l5.51,5.511c-0.215,0.569-0.769,0.979-1.416,0.979
		c-0.835,0-1.512-0.678-1.512-1.512h-3.024c0,1.972,1.266,3.635,3.024,4.26v1.791h3.023v-1.791c1.755-0.625,3.024-2.289,3.024-4.26
		c0-0.4-0.157-0.785-0.445-1.067l-5.51-5.51C79.666,28.236,80.22,27.827,80.867,27.827z"/>
	<path fill="#1C5284" d="M129.104,27.827c0.834,0,1.514,0.677,1.514,1.511h3.023c0-1.968-1.271-3.63-3.023-4.257v-1.792h-3.025
		v1.792c-1.758,0.626-3.023,2.289-3.023,4.257c0,0.402,0.158,0.787,0.441,1.07l5.512,5.511c-0.217,0.569-0.77,0.979-1.418,0.979
		c-0.834,0-1.512-0.678-1.512-1.512h-3.023c0,1.972,1.267,3.635,3.023,4.26v1.791h3.025v-1.791c1.754-0.625,3.023-2.289,3.023-4.26
		c0-0.4-0.158-0.785-0.441-1.067l-5.514-5.51C127.903,28.236,128.456,27.827,129.104,27.827z"/>
	<g>
		<polygon fill="#1C5284" points="58.911,93.527 19.338,93.527 19.338,50.064 20.062,50.064 20.062,92.801 58.911,92.801 		"/>
	</g>
	<g>
		<polygon fill="#1C5284" points="187.787,69.992 187.787,84.082 144.323,84.082 144.323,83.357 187.062,83.357 187.062,69.992 		
			"/>
	</g>
	<g>
		<g>
			<circle fill="#FDC010" cx="19.7" cy="32.362" r="17.701"/>
		</g>
		<g>
			<path fill="#1C5284" d="M19.699,50.838c-10.184,0-18.473-8.29-18.473-18.476c0-10.184,8.289-18.472,18.473-18.472
				c10.188,0,18.474,8.288,18.474,18.472C38.173,42.548,29.887,50.838,19.699,50.838z M19.699,15.432
				c-9.334,0-16.931,7.596-16.931,16.93c0,9.336,7.597,16.933,16.931,16.933c9.335,0,16.932-7.596,16.932-16.933
				C36.631,23.028,29.034,15.432,19.699,15.432z"/>
		</g>
	</g>
	<g>
		<path fill="#1C5284" d="M8.025,25.178v1.347h1.424v-1.347h0.611v3.364H9.449V27.06H8.025v1.482H7.413v-3.364H8.025z"/>
		<path fill="#1C5284" d="M11.426,25.433c0,0.179-0.137,0.328-0.35,0.328c-0.203,0-0.341-0.149-0.341-0.328
			c0-0.19,0.141-0.336,0.346-0.336C11.289,25.097,11.42,25.243,11.426,25.433z M10.771,28.542v-2.43h0.613v2.43H10.771z"/>
		<path fill="#1C5284" d="M12.049,26.895c0-0.33-0.004-0.569-0.019-0.783h0.528l0.024,0.459h0.016
			c0.118-0.339,0.404-0.515,0.667-0.515c0.059,0,0.096,0.006,0.144,0.015v0.573c-0.051-0.009-0.106-0.015-0.184-0.015
			c-0.288,0-0.494,0.185-0.548,0.465c-0.01,0.055-0.014,0.119-0.014,0.184v1.263h-0.615L12.049,26.895L12.049,26.895z"/>
		<path fill="#1C5284" d="M14.214,27.498c0.015,0.438,0.354,0.629,0.748,0.629c0.284,0,0.487-0.045,0.675-0.11l0.089,0.421
			c-0.208,0.088-0.498,0.151-0.848,0.151c-0.787,0-1.253-0.482-1.253-1.227c0-0.672,0.411-1.307,1.189-1.307
			c0.788,0,1.048,0.648,1.048,1.182c0,0.116-0.011,0.205-0.02,0.26L14.214,27.498L14.214,27.498z M15.283,27.068
			c0.004-0.223-0.096-0.593-0.506-0.593c-0.379,0-0.538,0.344-0.563,0.593H15.283z"/>
		<path fill="#1C5284" d="M18.595,24.998v2.86c0,0.25,0.011,0.518,0.021,0.684H18.07l-0.029-0.385h-0.009
			c-0.146,0.271-0.441,0.44-0.788,0.44c-0.585,0-1.043-0.495-1.043-1.244c-0.004-0.812,0.504-1.297,1.088-1.297
			c0.336,0,0.574,0.134,0.683,0.313h0.011v-1.372L18.595,24.998L18.595,24.998z M17.982,27.124c0-0.05-0.006-0.114-0.016-0.165
			c-0.055-0.234-0.25-0.429-0.527-0.429c-0.395,0-0.615,0.35-0.615,0.798c0,0.449,0.221,0.774,0.608,0.774
			c0.251,0,0.469-0.169,0.531-0.435c0.013-0.055,0.019-0.115,0.019-0.179V27.124z"/>
		<path fill="#1C5284" d="M23.152,27.17c-0.02-0.436-0.045-0.959-0.04-1.413h-0.016c-0.11,0.41-0.251,0.863-0.397,1.287
			l-0.494,1.458h-0.469l-0.45-1.438c-0.129-0.429-0.25-0.888-0.339-1.307h-0.011c-0.016,0.439-0.034,0.972-0.06,1.431l-0.073,1.353
			h-0.576l0.226-3.364h0.808l0.438,1.354c0.122,0.394,0.225,0.792,0.31,1.167h0.016c0.088-0.364,0.206-0.778,0.335-1.173
			l0.465-1.347h0.797l0.195,3.364h-0.599L23.152,27.17z"/>
		<path fill="#1C5284" d="M26.75,27.304c0,0.893-0.63,1.293-1.248,1.293c-0.683,0-1.217-0.47-1.217-1.254
			c0-0.798,0.523-1.287,1.257-1.287C26.265,26.056,26.75,26.564,26.75,27.304z M24.918,27.329c0,0.47,0.235,0.823,0.605,0.823
			c0.347,0,0.594-0.338,0.594-0.832c0-0.38-0.17-0.819-0.59-0.819C25.093,26.5,24.918,26.924,24.918,27.329z"/>
		<path fill="#1C5284" d="M27.253,26.895c0-0.33-0.003-0.569-0.019-0.783h0.528l0.025,0.459h0.015
			c0.122-0.339,0.405-0.515,0.667-0.515c0.063,0,0.096,0.006,0.148,0.015v0.573c-0.056-0.009-0.111-0.015-0.185-0.015
			c-0.292,0-0.495,0.185-0.551,0.465c-0.011,0.055-0.014,0.119-0.014,0.184v1.263h-0.616v-1.646H27.253z"/>
		<path fill="#1C5284" d="M29.42,27.498c0.017,0.438,0.355,0.629,0.749,0.629c0.284,0,0.484-0.045,0.673-0.11l0.09,0.421
			c-0.209,0.088-0.5,0.151-0.848,0.151c-0.788,0-1.253-0.482-1.253-1.227c0-0.672,0.409-1.307,1.188-1.307
			c0.789,0,1.048,0.648,1.048,1.182c0,0.116-0.011,0.205-0.019,0.26L29.42,27.498L29.42,27.498z M30.487,27.068
			c0.007-0.223-0.096-0.593-0.506-0.593c-0.376,0-0.537,0.344-0.562,0.593H30.487z"/>
		<path fill="#1C5284" d="M10.65,31.477V32.1h0.583v0.458H10.65v1.074c0,0.298,0.082,0.449,0.314,0.449
			c0.11,0,0.17-0.003,0.239-0.025l0.011,0.464c-0.088,0.034-0.254,0.066-0.443,0.066c-0.23,0-0.415-0.077-0.529-0.202
			c-0.134-0.137-0.193-0.362-0.193-0.683v-1.144H9.703V32.1h0.346v-0.453L10.65,31.477z"/>
		<path fill="#1C5284" d="M11.698,30.987h0.615v1.441h0.011c0.074-0.114,0.179-0.209,0.304-0.271c0.125-0.07,0.27-0.111,0.424-0.111
			c0.413,0,0.848,0.274,0.848,1.052v1.434h-0.613v-1.367c0-0.351-0.131-0.62-0.471-0.62c-0.236,0-0.406,0.162-0.477,0.342
			c-0.021,0.056-0.025,0.122-0.025,0.188v1.457h-0.615L11.698,30.987L11.698,30.987z"/>
		<path fill="#1C5284" d="M16.44,33.944c0,0.221,0.01,0.435,0.041,0.586h-0.554l-0.047-0.27h-0.016
			c-0.144,0.188-0.397,0.324-0.718,0.324c-0.487,0-0.765-0.358-0.765-0.726c0-0.609,0.546-0.922,1.442-0.918v-0.037
			c0-0.162-0.063-0.424-0.494-0.424c-0.237,0-0.487,0.074-0.652,0.177l-0.118-0.399c0.177-0.11,0.494-0.214,0.877-0.214
			c0.777,0,1.003,0.494,1.003,1.029L16.44,33.944L16.44,33.944z M15.843,33.343c-0.435-0.007-0.852,0.085-0.852,0.454
			c0,0.24,0.156,0.347,0.351,0.347c0.251,0,0.425-0.159,0.483-0.332c0.018-0.044,0.018-0.092,0.018-0.137V33.343z"/>
		<path fill="#1C5284" d="M17.09,32.822c0-0.279-0.011-0.512-0.021-0.723h0.534l0.03,0.362h0.014
			c0.111-0.188,0.376-0.417,0.778-0.417c0.424,0,0.865,0.274,0.865,1.044v1.441h-0.614v-1.372c0-0.35-0.129-0.615-0.465-0.615
			c-0.244,0-0.413,0.173-0.479,0.361c-0.019,0.048-0.029,0.122-0.029,0.192v1.434H17.09V32.822z"/>
		<path fill="#1C5284" d="M20.862,34.53v-0.376l0.384-0.353c0.763-0.709,1.12-1.096,1.128-1.527c0-0.288-0.155-0.542-0.579-0.542
			c-0.291,0-0.53,0.143-0.693,0.27l-0.181-0.436c0.236-0.188,0.591-0.334,1-0.334c0.718,0,1.065,0.453,1.065,0.984
			c0,0.567-0.409,1.028-0.978,1.552l-0.28,0.243v0.011h1.328v0.509L20.862,34.53L20.862,34.53z"/>
		<path fill="#1C5284" d="M25.826,32.882c0,1.046-0.41,1.703-1.188,1.703c-0.742,0-1.142-0.678-1.146-1.667
			c0-1.014,0.429-1.688,1.188-1.688C25.461,31.23,25.826,31.93,25.826,32.882z M24.111,32.912c0,0.793,0.214,1.202,0.55,1.202
			c0.36,0,0.545-0.439,0.545-1.217c0-0.752-0.174-1.194-0.542-1.194C24.34,31.702,24.111,32.104,24.111,32.912z"/>
		<path fill="#1C5284" d="M28.502,32.882c0,1.046-0.408,1.703-1.188,1.703c-0.744,0-1.142-0.678-1.149-1.667
			c0-1.014,0.432-1.688,1.188-1.688C28.138,31.23,28.502,31.93,28.502,32.882z M26.784,32.912c0,0.793,0.215,1.202,0.55,1.202
			c0.365,0,0.549-0.439,0.549-1.217c0-0.752-0.176-1.194-0.545-1.194C27.014,31.702,26.784,32.104,26.784,32.912z"/>
		<path fill="#1C5284" d="M10.702,39.026H9.434v0.988h1.416v0.505H8.82v-3.367h1.955v0.505H9.434v0.871h1.269L10.702,39.026
			L10.702,39.026z"/>
		<path fill="#1C5284" d="M11.365,38.812c0-0.281-0.01-0.517-0.021-0.723h0.523l0.029,0.358h0.018
			c0.115-0.188,0.332-0.413,0.749-0.413c0.318,0,0.568,0.177,0.671,0.447h0.011c0.085-0.134,0.186-0.233,0.296-0.303
			c0.141-0.096,0.294-0.144,0.498-0.144c0.397,0,0.808,0.273,0.808,1.051v1.435H14.35v-1.342c0-0.405-0.141-0.646-0.436-0.646
			c-0.209,0-0.364,0.151-0.428,0.325c-0.021,0.055-0.03,0.132-0.03,0.202v1.46h-0.6v-1.408c0-0.339-0.133-0.58-0.418-0.58
			c-0.231,0-0.386,0.181-0.445,0.344c-0.019,0.066-0.029,0.136-0.029,0.207v1.438h-0.599V38.812z"/>
		<path fill="#1C5284" d="M15.597,38.896c0-0.32-0.012-0.579-0.02-0.808h0.539l0.029,0.373h0.011
			c0.178-0.274,0.465-0.428,0.834-0.428c0.557,0,1.021,0.479,1.021,1.236c0,0.877-0.553,1.302-1.106,1.302
			c-0.307,0-0.561-0.129-0.686-0.325h-0.008v1.257h-0.615L15.597,38.896L15.597,38.896z M16.212,39.498
			c0,0.063,0.003,0.119,0.016,0.169c0.062,0.251,0.275,0.432,0.541,0.432c0.392,0,0.619-0.324,0.619-0.803
			c0-0.428-0.209-0.778-0.604-0.778c-0.255,0-0.487,0.184-0.554,0.454c-0.011,0.051-0.019,0.103-0.019,0.154L16.212,39.498
			L16.212,39.498z"/>
		<path fill="#1C5284" d="M18.518,36.975h0.611v3.544h-0.611V36.975z"/>
		<path fill="#1C5284" d="M22.109,39.28c0,0.892-0.627,1.291-1.247,1.291c-0.686,0-1.218-0.468-1.218-1.251
			c0-0.8,0.524-1.287,1.258-1.287C21.625,38.034,22.109,38.542,22.109,39.28z M20.279,39.306c0,0.469,0.233,0.822,0.602,0.822
			c0.35,0,0.594-0.339,0.594-0.833c0-0.38-0.17-0.819-0.588-0.819C20.453,38.476,20.279,38.9,20.279,39.306z"/>
		<path fill="#1C5284" d="M22.963,38.089l0.433,1.302c0.052,0.148,0.106,0.332,0.141,0.468h0.015
			c0.036-0.137,0.081-0.32,0.129-0.476l0.38-1.294h0.652l-0.607,1.655c-0.333,0.908-0.558,1.313-0.841,1.561
			c-0.247,0.209-0.495,0.291-0.646,0.31l-0.141-0.513c0.106-0.026,0.231-0.082,0.354-0.169c0.121-0.074,0.254-0.222,0.339-0.384
			c0.026-0.048,0.037-0.082,0.037-0.111c0-0.025-0.008-0.059-0.029-0.121l-0.894-2.228H22.963z"/>
		<path fill="#1C5284" d="M25.439,39.476c0.014,0.438,0.354,0.627,0.748,0.627c0.284,0,0.482-0.044,0.671-0.111l0.093,0.42
			c-0.211,0.088-0.501,0.154-0.85,0.154c-0.789,0-1.253-0.482-1.253-1.228c0-0.67,0.41-1.305,1.188-1.305
			c0.789,0,1.046,0.649,1.046,1.18c0,0.114-0.009,0.207-0.019,0.262L25.439,39.476L25.439,39.476z M26.505,39.044
			c0.007-0.225-0.095-0.593-0.502-0.593c-0.38,0-0.542,0.345-0.563,0.593H26.505z"/>
		<path fill="#1C5284" d="M28.013,39.476c0.015,0.438,0.354,0.627,0.749,0.627c0.283,0,0.483-0.044,0.675-0.111l0.088,0.42
			c-0.21,0.088-0.498,0.154-0.848,0.154c-0.789,0-1.253-0.482-1.253-1.228c0-0.67,0.408-1.305,1.187-1.305
			c0.789,0,1.05,0.649,1.05,1.18c0,0.114-0.01,0.207-0.021,0.262L28.013,39.476L28.013,39.476z M29.081,39.044
			c0.005-0.225-0.095-0.593-0.505-0.593c-0.379,0-0.537,0.345-0.563,0.593H29.081z"/>
	</g>
	<g>
		<g>
			<circle fill="#FDC010" cx="184.528" cy="52.127" r="17.701"/>
		</g>
		<g>
			<path fill="#1C5284" d="M184.528,70.6c-10.188,0-18.473-8.287-18.473-18.473c0-10.185,8.285-18.473,18.473-18.473
				c10.187,0,18.474,8.288,18.474,18.473C203.002,62.312,194.715,70.6,184.528,70.6z M184.528,35.197
				c-9.334,0-16.932,7.596-16.932,16.93c0,9.336,7.598,16.932,16.932,16.932c9.335,0,16.932-7.596,16.932-16.932
				C201.46,42.792,193.862,35.197,184.528,35.197z"/>
		</g>
	</g>
	<g>
		<path fill="#1C5284" d="M176.526,44.941v3.363h-0.612v-3.363H176.526z"/>
		<path fill="#1C5284" d="M177.233,46.598c0-0.279-0.01-0.514-0.019-0.724h0.534l0.029,0.365h0.016
			c0.111-0.19,0.373-0.418,0.777-0.418c0.425,0,0.863,0.274,0.863,1.042v1.441h-0.611v-1.371c0-0.349-0.133-0.614-0.465-0.614
			c-0.246,0-0.416,0.175-0.479,0.358c-0.021,0.051-0.028,0.126-0.028,0.196v1.431h-0.617V46.598z"/>
		<path fill="#1C5284" d="M181.877,48.23c-0.131,0.061-0.386,0.125-0.688,0.125c-0.76,0-1.254-0.489-1.254-1.243
			c0-0.728,0.5-1.291,1.354-1.291c0.225,0,0.454,0.049,0.595,0.108l-0.11,0.464c-0.101-0.05-0.244-0.095-0.463-0.095
			c-0.471,0-0.75,0.344-0.744,0.789c0,0.498,0.326,0.782,0.744,0.782c0.209,0,0.362-0.044,0.483-0.096L181.877,48.23z"/>
		<path fill="#1C5284" d="M182.331,46.658c0-0.328-0.006-0.568-0.021-0.783h0.529l0.026,0.46h0.014
			c0.119-0.339,0.402-0.513,0.668-0.513c0.06,0,0.097,0.004,0.146,0.014v0.573c-0.055-0.01-0.11-0.015-0.187-0.015
			c-0.287,0-0.493,0.185-0.547,0.464c-0.009,0.055-0.017,0.119-0.017,0.185v1.262h-0.612L182.331,46.658L182.331,46.658z"/>
		<path fill="#1C5284" d="M184.496,47.262c0.015,0.439,0.354,0.628,0.748,0.628c0.284,0,0.483-0.045,0.675-0.109l0.089,0.421
			c-0.211,0.089-0.499,0.153-0.849,0.153c-0.789,0-1.252-0.484-1.252-1.228c0-0.674,0.408-1.306,1.187-1.306
			c0.788,0,1.05,0.648,1.05,1.182c0,0.113-0.011,0.204-0.021,0.259H184.496z M185.563,46.833c0.006-0.225-0.096-0.593-0.504-0.593
			c-0.381,0-0.539,0.345-0.563,0.593H185.563z"/>
		<path fill="#1C5284" d="M188.522,47.721c0,0.22,0.012,0.435,0.041,0.583h-0.555l-0.044-0.269h-0.015
			c-0.147,0.189-0.402,0.324-0.721,0.324c-0.489,0-0.763-0.354-0.763-0.724c0-0.608,0.542-0.923,1.441-0.917v-0.042
			c0-0.159-0.065-0.424-0.493-0.424c-0.24,0-0.49,0.076-0.656,0.18l-0.119-0.399c0.182-0.108,0.494-0.212,0.879-0.212
			c0.777,0,1.002,0.494,1.002,1.027v0.873H188.522z M187.925,47.117c-0.435-0.005-0.848,0.085-0.848,0.455
			c0,0.238,0.154,0.349,0.348,0.349c0.249,0,0.424-0.16,0.485-0.334c0.015-0.046,0.015-0.09,0.015-0.135V47.117z"/>
		<path fill="#1C5284" d="M189.146,47.736c0.138,0.085,0.402,0.18,0.621,0.18c0.27,0,0.391-0.114,0.391-0.275
			c0-0.164-0.1-0.243-0.401-0.354c-0.473-0.159-0.668-0.418-0.668-0.708c0-0.43,0.354-0.757,0.918-0.757
			c0.271,0,0.507,0.062,0.649,0.144l-0.125,0.429c-0.102-0.06-0.299-0.141-0.514-0.141c-0.221,0-0.34,0.111-0.34,0.26
			c0,0.155,0.114,0.226,0.424,0.341c0.442,0.154,0.645,0.378,0.649,0.736c0,0.445-0.347,0.765-0.987,0.765
			c-0.295,0-0.562-0.069-0.74-0.171L189.146,47.736z"/>
		<path fill="#1C5284" d="M191.687,47.262c0.017,0.439,0.354,0.628,0.75,0.628c0.282,0,0.483-0.045,0.674-0.109l0.089,0.421
			c-0.21,0.089-0.498,0.153-0.849,0.153c-0.789,0-1.252-0.484-1.252-1.228c0-0.674,0.408-1.306,1.188-1.306
			c0.788,0,1.05,0.648,1.05,1.182c0,0.113-0.011,0.204-0.021,0.259H191.687z M192.756,46.833c0.005-0.225-0.096-0.593-0.505-0.593
			c-0.38,0-0.538,0.345-0.564,0.593H192.756z"/>
		<path fill="#1C5284" d="M175.015,52.646c0-0.33-0.004-0.57-0.019-0.783h0.526l0.026,0.459h0.015
			c0.119-0.34,0.402-0.514,0.668-0.514c0.061,0,0.097,0.006,0.146,0.014v0.574c-0.054-0.011-0.108-0.015-0.185-0.015
			c-0.289,0-0.494,0.185-0.547,0.463c-0.012,0.056-0.019,0.121-0.019,0.187v1.262h-0.612V52.646L175.015,52.646z"/>
		<path fill="#1C5284" d="M177.181,53.25c0.016,0.439,0.354,0.629,0.747,0.629c0.286,0,0.486-0.045,0.675-0.109l0.09,0.42
			c-0.211,0.091-0.498,0.154-0.85,0.154c-0.787,0-1.25-0.484-1.25-1.229c0-0.674,0.409-1.307,1.188-1.307
			c0.786,0,1.047,0.647,1.047,1.182c0,0.115-0.011,0.205-0.021,0.26H177.181z M178.248,52.82c0.005-0.226-0.097-0.592-0.504-0.592
			c-0.38,0-0.539,0.344-0.563,0.592H178.248z"/>
		<path fill="#1C5284" d="M179.696,51.863l0.393,1.231c0.07,0.216,0.122,0.408,0.166,0.609h0.016
			c0.045-0.201,0.101-0.39,0.164-0.609l0.39-1.231h0.646l-0.93,2.43h-0.605l-0.9-2.43H179.696z"/>
		<path fill="#1C5284" d="M182.211,53.25c0.015,0.439,0.354,0.629,0.749,0.629c0.283,0,0.484-0.045,0.672-0.109l0.092,0.42
			c-0.209,0.091-0.5,0.154-0.849,0.154c-0.787,0-1.252-0.484-1.252-1.229c0-0.674,0.409-1.307,1.188-1.307
			c0.789,0,1.047,0.647,1.047,1.182c0,0.115-0.012,0.205-0.021,0.26H182.211z M183.278,52.82c0.004-0.226-0.096-0.592-0.506-0.592
			c-0.377,0-0.537,0.344-0.562,0.592H183.278z"/>
		<path fill="#1C5284" d="M184.353,52.586c0-0.279-0.012-0.514-0.021-0.723h0.533l0.031,0.365h0.015
			c0.108-0.191,0.375-0.42,0.78-0.42c0.424,0,0.863,0.274,0.863,1.043v1.44h-0.617v-1.371c0-0.351-0.129-0.614-0.463-0.614
			c-0.244,0-0.414,0.176-0.479,0.358c-0.02,0.051-0.029,0.125-0.029,0.194v1.433h-0.613V52.586L184.353,52.586z"/>
		<path fill="#1C5284" d="M189.382,53.566c0,0.287,0.012,0.526,0.021,0.727h-0.533l-0.032-0.363h-0.014
			c-0.104,0.17-0.345,0.418-0.784,0.418c-0.438,0-0.844-0.264-0.844-1.059v-1.426h0.615v1.322c0,0.403,0.129,0.662,0.453,0.662
			c0.248,0,0.409-0.168,0.469-0.328c0.025-0.05,0.035-0.119,0.035-0.189v-1.467h0.613V53.566z"/>
		<path fill="#1C5284" d="M190.481,53.25c0.014,0.439,0.354,0.629,0.748,0.629c0.283,0,0.482-0.045,0.67-0.109l0.094,0.42
			c-0.211,0.091-0.502,0.154-0.85,0.154c-0.789,0-1.252-0.484-1.252-1.229c0-0.674,0.407-1.307,1.187-1.307
			c0.789,0,1.048,0.647,1.048,1.182c0,0.115-0.01,0.205-0.02,0.26H190.481z M191.547,52.82c0.007-0.226-0.095-0.592-0.502-0.592
			c-0.38,0-0.541,0.344-0.563,0.592H191.547z"/>
		<path fill="#1C5284" d="M192.595,53.725c0.137,0.084,0.401,0.181,0.619,0.181c0.27,0,0.391-0.115,0.391-0.275
			c0-0.164-0.1-0.244-0.399-0.354c-0.474-0.159-0.669-0.418-0.669-0.709c0-0.43,0.354-0.758,0.919-0.758
			c0.269,0,0.504,0.064,0.647,0.146l-0.125,0.43c-0.1-0.061-0.299-0.141-0.513-0.141c-0.222,0-0.339,0.108-0.339,0.258
			c0,0.156,0.113,0.228,0.424,0.342c0.442,0.154,0.643,0.38,0.648,0.738c0,0.442-0.346,0.764-0.988,0.764
			c-0.295,0-0.561-0.069-0.736-0.17L192.595,53.725z"/>
		<path fill="#1C5284" d="M180.099,59.648c0.125,0.074,0.428,0.199,0.737,0.199c0.47,0,0.651-0.267,0.651-0.521
			c0-0.386-0.36-0.55-0.736-0.55h-0.279V58.33h0.279c0.279,0,0.639-0.129,0.639-0.447c0-0.227-0.158-0.41-0.517-0.41
			c-0.267,0-0.531,0.115-0.664,0.205l-0.142-0.445c0.187-0.123,0.548-0.25,0.934-0.25c0.673,0,1.012,0.369,1.012,0.793
			c0,0.341-0.199,0.619-0.599,0.761v0.01c0.396,0.076,0.709,0.369,0.713,0.81c0,0.549-0.457,0.981-1.262,0.981
			c-0.396,0-0.733-0.108-0.907-0.223L180.099,59.648z"/>
		<path fill="#1C5284" d="M184.878,57.039v0.393l-1.373,2.851h-0.645l1.367-2.726v-0.01h-1.53v-0.508H184.878z"/>
		<path fill="#1C5284" d="M186.92,57.945c0,0.686-0.399,1.033-0.845,1.033c-0.453,0-0.821-0.349-0.829-0.978
			c0-0.615,0.354-1.021,0.858-1.021C186.61,56.982,186.92,57.363,186.92,57.945z M185.716,57.98
			c-0.005,0.375,0.133,0.653,0.37,0.653c0.248,0,0.363-0.264,0.363-0.657c0-0.359-0.099-0.648-0.369-0.648
			C185.836,57.328,185.716,57.617,185.716,57.98z M186.08,60.336l1.881-3.354h0.354l-1.887,3.354H186.08z M189.158,59.293
			c0,0.68-0.398,1.029-0.849,1.029c-0.453,0-0.822-0.35-0.828-0.979c0-0.608,0.355-1.014,0.857-1.014
			C188.849,58.33,189.158,58.709,189.158,59.293z M187.952,59.328c-0.006,0.369,0.13,0.65,0.373,0.65
			c0.251,0,0.365-0.261,0.365-0.654c0-0.359-0.102-0.648-0.368-0.648C188.078,58.676,187.952,58.965,187.952,59.328z"/>
	</g>
</g>
</svg>
