<?xml version="1.0" encoding="utf-8"?>
<!-- Generator: Adobe Illustrator 15.0.0, SVG Export Plug-In . SVG Version: 6.00 Build 0)  -->
<!DOCTYPE svg PUBLIC "-//W3C//DTD SVG 1.1//EN" "http://www.w3.org/Graphics/SVG/1.1/DTD/svg11.dtd">
<svg version="1.1" id="Layer_1" xmlns="http://www.w3.org/2000/svg" xmlns:xlink="http://www.w3.org/1999/xlink" x="0px" y="0px"
	 width="100px" height="100px" viewBox="0 0 100 100" enable-background="new 0 0 100 100" xml:space="preserve">
<g>
	<path fill="#FFC000" d="M71.258,62.438h10.6c-0.163-0.139-0.322-0.288-0.478-0.448c-1.759-1.811-2.639-4.668-2.794-6.463h-0.042
		c-0.722,0.104-1.458,0.16-2.207,0.16h-0.265c-0.523,0-1.042-0.027-1.552-0.078c-0.174,1.799-1.05,4.596-2.784,6.381
		C71.58,62.15,71.421,62.3,71.258,62.438z"/>
	<polygon fill="#FFC000" points="63.982,76.824 89.134,76.824 89.134,68.881 85.383,68.881 67.733,68.881 63.982,68.881 	"/>
	<path fill="#FFC10D" d="M38.741,46.093l4.527-4.438l-4.527-4.438c-0.155-0.152-0.226-0.369-0.189-0.583l1.054-6.251l-6.274-0.926
		c-0.214-0.031-0.4-0.167-0.496-0.361l-2.816-5.681l-5.619,2.941c-0.192,0.101-0.422,0.101-0.614,0l-5.619-2.941l-2.817,5.681
		c-0.097,0.194-0.282,0.329-0.496,0.36L8.58,30.383l1.054,6.251c0.036,0.214-0.035,0.431-0.189,0.583l-4.527,4.438l4.527,4.438
		c0.155,0.151,0.226,0.369,0.189,0.583L8.58,52.928l0.967,0.143l2.867,0.423l2.44,0.36c0.111,0.017,0.214,0.062,0.301,0.127
		c0.081,0.062,0.149,0.141,0.195,0.233l2.817,5.682l3.391-1.775l0.043-0.022l0.543-0.285l0.057-0.029l0.6-0.314l0.61-0.32
		l0.374-0.195c0.096-0.05,0.202-0.075,0.307-0.075s0.211,0.025,0.307,0.075l5.619,2.942l2.817-5.682
		c0.042-0.086,0.105-0.158,0.178-0.217c0.091-0.074,0.199-0.126,0.318-0.144l2.36-0.349l2.743-0.405l1.171-0.172l-1.055-6.252
		C38.515,46.462,38.586,46.245,38.741,46.093z M24.092,31.065c5.84,0,10.59,4.75,10.59,10.59c0,5.84-4.75,10.59-10.59,10.59
		c-5.839,0-10.59-4.75-10.59-10.59C13.502,35.815,18.253,31.065,24.092,31.065z"/>
	<path fill="#339EDE" d="M24.092,50.921c5.109,0,9.267-4.157,9.267-9.267s-4.157-9.266-9.267-9.266s-9.266,4.157-9.266,9.266
		S18.983,50.921,24.092,50.921z"/>
	<path fill="#339EDE" d="M61.908,24.049v16.15c0,7.088,5.233,12.976,12.039,14.004h4.516c6.805-1.028,12.038-6.917,12.038-14.004
		V30.094v-6.045H61.908z M83.064,36.461l-2.905,2.832l0.687,3.999c0.042,0.248-0.06,0.499-0.264,0.647
		c-0.115,0.083-0.252,0.126-0.389,0.126c-0.105,0-0.211-0.025-0.309-0.076l-3.591-1.888l-3.591,1.888
		c-0.224,0.116-0.493,0.098-0.696-0.05c-0.205-0.148-0.307-0.399-0.264-0.647l0.686-3.999l-2.905-2.832
		c-0.18-0.176-0.245-0.439-0.167-0.679c0.078-0.239,0.285-0.414,0.534-0.45l4.015-0.583l1.795-3.638
		c0.112-0.226,0.342-0.369,0.594-0.369s0.482,0.143,0.594,0.369l1.796,3.638l4.014,0.583c0.249,0.036,0.457,0.211,0.534,0.45
		C83.31,36.022,83.244,36.285,83.064,36.461z"/>
	<g>
		<path fill="#339EDE" d="M18.181,61.383c-0.157,0.083-0.343,0.098-0.511,0.042c-0.169-0.055-0.31-0.176-0.389-0.335l-2.963-5.978
			l-4.193-0.619L1.814,69.037l8.985-0.156c0.003,0,0.008,0,0.011,0c0.242,0,0.465,0.133,0.582,0.346l3.752,6.892l7.664-13.634
			l-0.848-3.081L18.181,61.383z"/>
		<path fill="#339EDE" d="M33.867,55.112l-2.963,5.978c-0.079,0.159-0.219,0.28-0.389,0.335c-0.066,0.022-0.135,0.033-0.204,0.033
			c-0.106,0-0.211-0.025-0.307-0.075l-5.912-3.096L23.36,58.67l9.455,17.48l4.171-6.94c0.122-0.202,0.348-0.326,0.579-0.321
			l8.541,0.148l-8.291-14.508L33.867,55.112z"/>
		<path fill="#339EDE" d="M73.947,54.203c0.693,0.105,1.402,0.16,2.125,0.16h0.265c0.723,0,1.432-0.055,2.126-0.16H73.947z"/>
	</g>
	<path fill="#FFC10D" d="M77.65,35.646l-1.356-2.747l-1.355,2.747c-0.097,0.195-0.283,0.331-0.499,0.362l-3.031,0.44l2.194,2.138
		c0.155,0.153,0.227,0.371,0.19,0.586l-0.519,3.02l2.712-1.426c0.097-0.051,0.202-0.076,0.308-0.076
		c0.106,0,0.212,0.025,0.309,0.076l2.712,1.426l-0.519-3.02c-0.037-0.215,0.035-0.433,0.19-0.586l2.194-2.138l-3.032-0.44
		C77.933,35.977,77.747,35.842,77.65,35.646z"/>
	<rect x="68.396" y="63.762" fill="#339EDE" width="16.325" height="3.795"/>
	<g>
		<path fill="#164E86" d="M99.986,30.037c-0.029-0.342-0.315-0.605-0.659-0.605h-7.502v-6.045c0-0.365-0.296-0.662-0.662-0.662
			H61.246c-0.365,0-0.662,0.296-0.662,0.662v6.045h-7.656c-0.344,0-0.63,0.263-0.659,0.605c-0.009,0.092-0.68,9.198,8.685,13.823
			c0.025,0.013,0.052,0.019,0.078,0.028c1.437,5.854,6.209,10.409,12.18,11.53c-0.127,1.445-0.844,4.023-2.424,5.65
			c-0.884,0.908-1.911,1.37-3.054,1.37c-0.366,0-0.662,0.296-0.662,0.662v4.456H63.32c-0.365,0-0.662,0.297-0.662,0.662v9.267
			c0,0.366,0.297,0.662,0.662,0.662h26.476c0.365,0,0.661-0.296,0.661-0.662v-9.267c0-0.365-0.296-0.662-0.661-0.662h-3.751v-4.456
			c0-0.366-0.297-0.662-0.662-0.662c-1.143,0-2.17-0.462-3.054-1.37c-1.637-1.686-2.346-4.388-2.434-5.799
			c5.669-1.338,10.143-5.797,11.5-11.459C100.659,39.171,99.995,30.128,99.986,30.037z M78.586,55.527
			c0.155,1.795,1.035,4.652,2.794,6.463c0.155,0.16,0.314,0.31,0.478,0.448h-10.6c0.163-0.139,0.322-0.288,0.479-0.448
			c1.734-1.785,2.61-4.582,2.784-6.381c0.51,0.051,1.028,0.078,1.552,0.078h0.265c0.749,0,1.485-0.057,2.207-0.16H78.586z
			 M89.134,76.824H63.982v-7.943h3.751h17.649h3.751V76.824z M84.721,67.557H68.396v-3.795h16.325V67.557z M78.463,54.203
			c-0.694,0.105-1.403,0.16-2.126,0.16h-0.265c-0.723,0-1.432-0.055-2.125-0.16c-6.806-1.028-12.039-6.917-12.039-14.004v-16.15
			h28.593v6.045v10.104C90.501,47.287,85.268,53.175,78.463,54.203z M53.571,30.756h7.013v9.443c0,0.692,0.051,1.373,0.139,2.041
			C54.21,38.589,53.592,32.668,53.571,30.756z M91.698,42.144c0.081-0.637,0.127-1.286,0.127-1.945v-9.443h6.858
			C98.663,32.653,98.053,38.487,91.698,42.144z"/>
		<path fill="#164E86" d="M39.221,54.322l1.246-0.185c0.176-0.025,0.334-0.121,0.438-0.265c0.105-0.145,0.147-0.324,0.117-0.5
			l-1.109-6.577l4.762-4.669c0.127-0.125,0.199-0.295,0.199-0.473s-0.071-0.348-0.199-0.473l-4.763-4.668l1.109-6.577
			c0.03-0.175-0.012-0.355-0.117-0.5c-0.104-0.144-0.263-0.239-0.438-0.265l-6.6-0.975l-2.963-5.978
			c-0.079-0.159-0.219-0.28-0.388-0.335c-0.169-0.055-0.354-0.04-0.512,0.043l-5.912,3.095l-5.912-3.094
			c-0.157-0.083-0.342-0.098-0.512-0.043c-0.169,0.055-0.309,0.176-0.388,0.335l-2.963,5.977l-6.6,0.975
			c-0.176,0.026-0.334,0.121-0.438,0.265c-0.105,0.144-0.146,0.324-0.117,0.5l1.109,6.577l-4.763,4.668
			c-0.127,0.125-0.199,0.295-0.199,0.473s0.071,0.348,0.199,0.473l4.763,4.668l-1.11,6.577c-0.029,0.176,0.012,0.355,0.117,0.5
			c0.104,0.144,0.263,0.239,0.438,0.265l1.002,0.148L0.087,69.392c-0.119,0.206-0.117,0.46,0.005,0.665
			c0.121,0.205,0.349,0.337,0.581,0.325l9.749-0.17l4.133,7.59c0.115,0.212,0.336,0.345,0.576,0.346c0.002,0,0.003,0,0.005,0
			c0.239,0,0.459-0.129,0.577-0.338l8.384-14.914c0.009-0.017,0.009-0.035,0.017-0.052l8.09,14.957
			c0.113,0.209,0.329,0.341,0.567,0.347c0.005,0,0.01,0,0.015,0c0.232,0,0.447-0.121,0.567-0.321l4.572-7.606l9.323,0.162
			c0.003,0,0.007,0,0.011,0c0.003,0,0.007,0,0.01,0c0.366,0,0.662-0.297,0.662-0.662c0-0.159-0.056-0.306-0.149-0.42L39.221,54.322z
			 M37.565,68.889c-0.23-0.005-0.457,0.119-0.579,0.321l-4.171,6.94L23.36,58.67l0.732-0.383l5.912,3.096
			c0.096,0.05,0.201,0.075,0.307,0.075c0.069,0,0.138-0.011,0.204-0.033c0.169-0.055,0.31-0.176,0.389-0.335l2.963-5.978
			l3.948-0.583l8.291,14.508L37.565,68.889z M15.145,76.118l-3.752-6.892c-0.116-0.213-0.339-0.346-0.582-0.346
			c-0.003,0-0.008,0-0.011,0l-8.985,0.156l8.311-14.544l4.193,0.619l2.963,5.978c0.079,0.159,0.219,0.28,0.389,0.335
			c0.168,0.056,0.354,0.041,0.511-0.042l3.78-1.979l0.848,3.081L15.145,76.118z M9.634,46.675c0.036-0.213-0.035-0.431-0.189-0.583
			l-4.527-4.438l4.527-4.438c0.155-0.152,0.226-0.369,0.189-0.583L8.58,30.383l6.274-0.926c0.214-0.032,0.399-0.167,0.496-0.36
			l2.817-5.681l5.619,2.941c0.192,0.101,0.422,0.101,0.614,0l5.619-2.941l2.816,5.681c0.096,0.194,0.282,0.33,0.496,0.361
			l6.274,0.926l-1.054,6.251c-0.036,0.214,0.035,0.431,0.189,0.583l4.527,4.438l-4.527,4.438c-0.155,0.151-0.226,0.369-0.189,0.583
			l1.055,6.252L38.435,53.1l-2.743,0.405l-2.36,0.349c-0.119,0.018-0.227,0.069-0.318,0.144c-0.073,0.059-0.135,0.131-0.178,0.217
			l-2.817,5.682l-5.619-2.942c-0.096-0.05-0.202-0.075-0.307-0.075s-0.211,0.025-0.307,0.075l-0.374,0.195l-0.61,0.32l-0.6,0.314
			l-0.057,0.029l-0.543,0.285l-0.043,0.022l-3.391,1.775l-2.817-5.682c-0.046-0.093-0.114-0.172-0.195-0.233
			c-0.087-0.065-0.19-0.11-0.301-0.127l-2.44-0.36L9.546,53.07L8.58,52.928L9.634,46.675z"/>
		<path fill="#164E86" d="M24.092,52.245c5.84,0,10.59-4.75,10.59-10.59c0-5.839-4.75-10.59-10.59-10.59
			c-5.839,0-10.59,4.75-10.59,10.59C13.502,47.495,18.253,52.245,24.092,52.245z M24.092,32.389c5.109,0,9.267,4.157,9.267,9.266
			s-4.157,9.267-9.267,9.267s-9.266-4.157-9.266-9.267S18.983,32.389,24.092,32.389z"/>
		<path fill="#164E86" d="M82.697,35.332l-4.014-0.583l-1.796-3.638c-0.111-0.226-0.342-0.369-0.594-0.369s-0.481,0.143-0.594,0.369
			l-1.795,3.638l-4.015,0.583c-0.249,0.036-0.456,0.211-0.534,0.45c-0.078,0.24-0.013,0.502,0.167,0.679l2.905,2.832l-0.686,3.999
			c-0.043,0.248,0.059,0.499,0.264,0.647c0.203,0.148,0.473,0.166,0.696,0.05l3.591-1.888l3.591,1.888
			c0.098,0.05,0.203,0.076,0.309,0.076c0.137,0,0.273-0.042,0.389-0.126c0.204-0.148,0.306-0.399,0.264-0.647l-0.687-3.999
			l2.905-2.832c0.18-0.176,0.245-0.439,0.167-0.679C83.154,35.543,82.946,35.368,82.697,35.332z M78.986,38.587
			c-0.155,0.153-0.228,0.371-0.19,0.586l0.519,3.02l-2.712-1.426c-0.097-0.051-0.202-0.076-0.309-0.076
			c-0.105,0-0.211,0.025-0.308,0.076l-2.712,1.426l0.519-3.02c0.036-0.215-0.035-0.433-0.19-0.586l-2.194-2.138l3.031-0.44
			c0.216-0.032,0.402-0.167,0.499-0.362l1.355-2.747l1.356,2.747c0.097,0.195,0.282,0.331,0.498,0.362l3.032,0.44L78.986,38.587z"/>
	</g>
</g>
</svg>
