<?xml version="1.0" encoding="utf-8"?>
<!-- Generator: Adobe Illustrator 15.0.0, SVG Export Plug-In . SVG Version: 6.00 Build 0)  -->
<!DOCTYPE svg PUBLIC "-//W3C//DTD SVG 1.1//EN" "http://www.w3.org/Graphics/SVG/1.1/DTD/svg11.dtd">
<svg version="1.1" id="Layer_1" xmlns="http://www.w3.org/2000/svg" xmlns:xlink="http://www.w3.org/1999/xlink" x="0px" y="0px"
	 width="140.5px" height="100px" viewBox="0 0 140.5 100" enable-background="new 0 0 140.5 100" xml:space="preserve">
<g>
	<g>
		<rect x="56.943" y="70.198" fill="#339EDE" width="19.133" height="27.833"/>
		<path fill="#FFC000" d="M35.717,98.031h5.833v-4.845c0-0.53,0.428-0.959,0.957-0.959h6.312c0.527,0,0.957,0.429,0.957,0.959v4.845
			h5.257V69.245V56.429H35.717V98.031z M49.489,62.742c0-0.45,0.364-0.813,0.814-0.813c0.449,0,0.814,0.363,0.814,0.813v2.199
			c0,0.446-0.365,0.811-0.814,0.811c-0.449,0-0.814-0.364-0.814-0.811V62.742z M49.489,70.327c0-0.448,0.364-0.814,0.814-0.814
			c0.449,0,0.814,0.366,0.814,0.814v2.201c0,0.45-0.365,0.813-0.814,0.813c-0.449,0-0.814-0.363-0.814-0.813V70.327z M49.489,77.917
			c0-0.451,0.364-0.814,0.814-0.814c0.449,0,0.814,0.363,0.814,0.814v2.198c0,0.448-0.365,0.813-0.814,0.813
			c-0.449,0-0.814-0.365-0.814-0.813V77.917z M49.489,85.501c0-0.448,0.364-0.812,0.814-0.812c0.449,0,0.814,0.363,0.814,0.812
			v2.201c0,0.448-0.365,0.813-0.814,0.813c-0.449,0-0.814-0.365-0.814-0.813V85.501z M45.133,62.742c0-0.45,0.363-0.813,0.813-0.813
			c0.449,0,0.814,0.363,0.814,0.813v2.199c0,0.446-0.365,0.811-0.814,0.811c-0.449,0-0.813-0.364-0.813-0.811V62.742z
			 M45.133,70.327c0-0.448,0.363-0.814,0.813-0.814c0.449,0,0.814,0.366,0.814,0.814v2.201c0,0.45-0.365,0.813-0.814,0.813
			c-0.449,0-0.813-0.363-0.813-0.813V70.327z M45.133,77.917c0-0.451,0.363-0.814,0.813-0.814c0.449,0,0.814,0.363,0.814,0.814
			v2.198c0,0.448-0.365,0.813-0.814,0.813c-0.449,0-0.813-0.365-0.813-0.813V77.917z M45.133,85.501
			c0-0.448,0.363-0.812,0.813-0.812c0.449,0,0.814,0.363,0.814,0.812v2.201c0,0.448-0.365,0.813-0.814,0.813
			c-0.449,0-0.813-0.365-0.813-0.813V85.501z M40.452,62.742c0-0.45,0.364-0.813,0.813-0.813c0.45,0,0.814,0.363,0.814,0.813v2.199
			c0,0.446-0.364,0.811-0.814,0.811c-0.449,0-0.813-0.364-0.813-0.811V62.742z M40.452,70.327c0-0.448,0.364-0.814,0.813-0.814
			c0.45,0,0.814,0.366,0.814,0.814v2.201c0,0.45-0.364,0.813-0.814,0.813c-0.449,0-0.813-0.363-0.813-0.813V70.327z M40.452,77.917
			c0-0.451,0.364-0.814,0.813-0.814c0.45,0,0.814,0.363,0.814,0.814v2.198c0,0.448-0.364,0.813-0.814,0.813
			c-0.449,0-0.813-0.365-0.813-0.813V77.917z M40.452,85.501c0-0.448,0.364-0.812,0.813-0.812c0.45,0,0.814,0.363,0.814,0.812v2.201
			c0,0.448-0.364,0.813-0.814,0.813c-0.449,0-0.813-0.365-0.813-0.813V85.501z"/>
		<path fill="#339EDE" d="M46.238,54.517h9.75c0.529,0,0.957,0.429,0.957,0.956v0.956h4.211c0.529,0,0.959,0.429,0.959,0.957
			c0,0.527-0.428,0.958-0.959,0.958h-4.211v4.015h4.211c0.529,0,0.959,0.431,0.959,0.958c0,0.529-0.428,0.958-0.959,0.958h-4.211
			v4.015h8.795V46.195H46.238V54.517z M50.827,50.022h11.032c0.527,0,0.955,0.427,0.955,0.957c0,0.528-0.428,0.954-0.955,0.954
			H50.827c-0.528,0-0.957-0.426-0.957-0.954C49.871,50.449,50.299,50.022,50.827,50.022z"/>
		<path fill="#FFC000" d="M67.652,68.287h4.357v-0.429c0-0.451,0.363-0.814,0.814-0.814c0.449,0,0.813,0.363,0.813,0.814v0.429
			h3.057v-0.429c0-0.451,0.363-0.814,0.814-0.814c0.447,0,0.811,0.363,0.811,0.814v2.196c0,0.266-0.135,0.49-0.33,0.637v27.34h9.373
			V39.628H67.652V68.287z M81.047,44.761c0-0.449,0.367-0.814,0.814-0.814c0.449,0,0.814,0.364,0.814,0.814v2.2
			c0,0.449-0.365,0.814-0.814,0.814c-0.447,0-0.814-0.364-0.814-0.814V44.761z M81.047,52.46c0-0.448,0.367-0.813,0.814-0.813
			c0.449,0,0.814,0.365,0.814,0.813v2.198c0,0.451-0.365,0.814-0.814,0.814c-0.447,0-0.814-0.363-0.814-0.814V52.46z M81.047,60.159
			c0-0.448,0.367-0.814,0.814-0.814c0.449,0,0.814,0.366,0.814,0.814v2.198c0,0.451-0.365,0.813-0.814,0.813
			c-0.447,0-0.814-0.362-0.814-0.813V60.159z M81.047,67.858c0-0.451,0.367-0.814,0.814-0.814c0.449,0,0.814,0.363,0.814,0.814
			v2.196c0,0.448-0.365,0.812-0.814,0.812c-0.447,0-0.814-0.363-0.814-0.812V67.858z M81.047,75.316
			c0-0.448,0.367-0.813,0.814-0.813c0.449,0,0.814,0.365,0.814,0.813v2.197c0,0.45-0.365,0.813-0.814,0.813
			c-0.447,0-0.814-0.363-0.814-0.813V75.316z M81.047,83.016c0-0.448,0.367-0.814,0.814-0.814c0.449,0,0.814,0.366,0.814,0.814
			v2.198c0,0.449-0.365,0.814-0.814,0.814c-0.447,0-0.814-0.365-0.814-0.814V83.016z M81.047,90.171
			c0-0.446,0.367-0.812,0.814-0.812c0.449,0,0.814,0.365,0.814,0.812v2.198c0,0.451-0.365,0.817-0.814,0.817
			c-0.447,0-0.814-0.366-0.814-0.817V90.171z M76.691,44.761c0-0.449,0.365-0.814,0.814-0.814c0.447,0,0.811,0.364,0.811,0.814v2.2
			c0,0.449-0.363,0.814-0.811,0.814c-0.449,0-0.814-0.364-0.814-0.814V44.761z M76.691,52.46c0-0.448,0.365-0.813,0.814-0.813
			c0.447,0,0.811,0.365,0.811,0.813v2.198c0,0.451-0.363,0.814-0.811,0.814c-0.449,0-0.814-0.363-0.814-0.814V52.46z M76.691,60.159
			c0-0.448,0.365-0.814,0.814-0.814c0.447,0,0.811,0.366,0.811,0.814v2.198c0,0.451-0.363,0.813-0.811,0.813
			c-0.449,0-0.814-0.362-0.814-0.813V60.159z M72.01,44.761c0-0.449,0.363-0.814,0.814-0.814c0.449,0,0.813,0.364,0.813,0.814v2.2
			c0,0.449-0.363,0.814-0.813,0.814c-0.451,0-0.814-0.364-0.814-0.814V44.761z M72.01,52.46c0-0.448,0.363-0.813,0.814-0.813
			c0.449,0,0.813,0.365,0.813,0.813v2.198c0,0.451-0.363,0.814-0.813,0.814c-0.451,0-0.814-0.363-0.814-0.814V52.46z M72.01,60.159
			c0-0.448,0.363-0.814,0.814-0.814c0.449,0,0.813,0.366,0.813,0.814v2.198c0,0.451-0.363,0.813-0.813,0.813
			c-0.451,0-0.814-0.362-0.814-0.813V60.159z"/>
		<rect x="50.924" y="39.628" fill="#FFC000" width="9.979" height="4.655"/>
		<path fill="#FFC000" d="M43.464,98.031h1.387v-1.547c0-0.448,0.364-0.812,0.814-0.812c0.449,0,0.813,0.363,0.813,0.812v1.547
			h1.388v-3.89h-4.399v3.89H43.464z"/>
	</g>
	<g>
		<circle fill="#FFC000" cx="125.078" cy="61.306" r="14.633"/>
		<g>
			<path fill="#1C5183" d="M122.762,56.36h-1.639l-0.092,0.649c0.092-0.014,0.168-0.014,0.273-0.014
				c0.402,0,0.818,0.093,1.113,0.306c0.318,0.216,0.512,0.565,0.512,1.063c0,0.788-0.676,1.484-1.814,1.484
				c-0.516,0-0.941-0.117-1.178-0.243l0.182-0.739c0.182,0.088,0.568,0.207,0.949,0.207c0.41,0,0.848-0.195,0.848-0.646
				c0-0.435-0.346-0.702-1.191-0.702c-0.234,0-0.396,0.015-0.564,0.041l0.27-2.221h2.33v0.814H122.762z"/>
			<path fill="#1C5183" d="M126.67,57.641c0,1.303-0.523,2.207-1.6,2.207c-1.094,0-1.574-0.983-1.582-2.18
				c0-1.231,0.514-2.192,1.605-2.192C126.221,55.476,126.67,56.482,126.67,57.641z M124.479,57.668c0,0.969,0.234,1.43,0.611,1.43
				c0.385,0,0.592-0.48,0.592-1.443c0-0.937-0.201-1.431-0.6-1.431C124.725,56.224,124.479,56.677,124.479,57.668z"/>
			<path fill="#1C5183" d="M130.281,57.641c0,1.303-0.527,2.207-1.602,2.207c-1.094,0-1.574-0.983-1.584-2.18
				c0-1.231,0.518-2.192,1.609-2.192C129.83,55.476,130.281,56.482,130.281,57.641z M128.088,57.668c0,0.969,0.232,1.43,0.611,1.43
				c0.385,0,0.594-0.48,0.594-1.443c0-0.937-0.203-1.431-0.6-1.431C128.336,56.224,128.088,56.677,128.088,57.668z"/>
			<path fill="#1C5183" d="M116.752,65.118c-0.119,0.055-0.396,0.123-0.746,0.123c-1.012,0-1.531-0.629-1.531-1.461
				c0-0.999,0.711-1.547,1.596-1.547c0.342,0,0.604,0.065,0.721,0.128l-0.141,0.521c-0.131-0.057-0.316-0.107-0.553-0.107
				c-0.521,0-0.928,0.316-0.928,0.966c0,0.584,0.346,0.953,0.932,0.953c0.205,0,0.42-0.037,0.555-0.095L116.752,65.118z"/>
			<path fill="#1C5183" d="M119.18,64.113c0,0.773-0.553,1.128-1.121,1.128c-0.617,0-1.094-0.404-1.094-1.088
				c0-0.691,0.447-1.13,1.135-1.13C118.744,63.023,119.18,63.472,119.18,64.113z M117.645,64.136c0,0.363,0.15,0.636,0.434,0.636
				c0.262,0,0.42-0.258,0.42-0.642c0-0.313-0.121-0.634-0.42-0.634C117.764,63.496,117.645,63.821,117.645,64.136z"/>
			<path fill="#1C5183" d="M119.586,63.753c0-0.265-0.008-0.486-0.016-0.675h0.557l0.027,0.284h0.016
				c0.088-0.139,0.279-0.339,0.639-0.339c0.277,0,0.49,0.146,0.582,0.365h0.008c0.082-0.112,0.174-0.201,0.277-0.261
				c0.117-0.063,0.246-0.104,0.404-0.104c0.404,0,0.713,0.287,0.713,0.927v1.246h-0.641v-1.152c0-0.306-0.1-0.487-0.313-0.487
				c-0.156,0-0.26,0.106-0.309,0.232c-0.014,0.046-0.023,0.111-0.023,0.166v1.241h-0.639v-1.192c0-0.263-0.096-0.447-0.309-0.447
				c-0.17,0-0.27,0.132-0.311,0.234c-0.021,0.052-0.023,0.112-0.023,0.17v1.235h-0.643v-1.443H119.586z"/>
			<path fill="#1C5183" d="M123.314,63.789c0-0.279-0.008-0.514-0.018-0.711h0.572l0.029,0.293h0.01
				c0.154-0.222,0.398-0.342,0.707-0.342c0.463,0,0.879,0.401,0.879,1.077c0,0.771-0.49,1.135-0.963,1.135
				c-0.254,0-0.453-0.101-0.549-0.24h-0.01v1.052h-0.658V63.789z M123.975,64.285c0,0.053,0.004,0.096,0.014,0.14
				c0.043,0.178,0.193,0.313,0.385,0.313c0.285,0,0.455-0.237,0.455-0.6c0-0.337-0.152-0.592-0.447-0.592
				c-0.186,0-0.35,0.138-0.393,0.333c-0.01,0.035-0.014,0.076-0.014,0.117V64.285z"/>
			<path fill="#1C5183" d="M127.672,64.685c0,0.199,0.01,0.394,0.035,0.511h-0.596l-0.037-0.213h-0.012
				c-0.141,0.169-0.357,0.259-0.607,0.259c-0.43,0-0.686-0.309-0.686-0.646c0-0.552,0.494-0.812,1.244-0.812v-0.024
				c0-0.118-0.061-0.279-0.387-0.279c-0.215,0-0.443,0.071-0.584,0.161l-0.121-0.426c0.148-0.082,0.439-0.191,0.824-0.191
				c0.707,0,0.926,0.418,0.926,0.921V64.685L127.672,64.685z M127.037,64.195c-0.348,0-0.617,0.082-0.617,0.333
				c0,0.168,0.113,0.252,0.262,0.252c0.16,0,0.297-0.109,0.342-0.243c0.008-0.036,0.014-0.075,0.014-0.112V64.195L127.037,64.195z"
				/>
			<path fill="#1C5183" d="M128.197,63.753c0-0.265-0.008-0.486-0.016-0.675h0.57l0.029,0.293h0.014
				c0.088-0.137,0.299-0.342,0.654-0.342c0.436,0,0.758,0.289,0.758,0.915v1.252h-0.656v-1.176c0-0.271-0.098-0.457-0.336-0.457
				c-0.182,0-0.289,0.125-0.336,0.245c-0.018,0.044-0.023,0.107-0.023,0.167v1.221h-0.658V63.753L128.197,63.753z"/>
			<path fill="#1C5183" d="M131.42,62.486c0,0.183-0.135,0.33-0.357,0.33c-0.207,0-0.34-0.147-0.34-0.33
				c0-0.187,0.137-0.328,0.35-0.328S131.414,62.3,131.42,62.486z M130.74,65.195v-2.117h0.658v2.117H130.74z"/>
			<path fill="#1C5183" d="M132.436,64.346c0.016,0.273,0.289,0.401,0.598,0.401c0.225,0,0.408-0.027,0.586-0.09l0.086,0.447
				c-0.215,0.091-0.48,0.135-0.768,0.135c-0.721,0-1.131-0.416-1.131-1.078c0-0.538,0.334-1.132,1.072-1.132
				c0.682,0,0.943,0.534,0.943,1.059c0,0.11-0.012,0.211-0.021,0.259L132.436,64.346L132.436,64.346z M133.209,63.896
				c0-0.157-0.068-0.429-0.373-0.429c-0.277,0-0.389,0.256-0.408,0.429H133.209z"/>
			<path fill="#1C5183" d="M134.213,64.624c0.123,0.074,0.373,0.156,0.566,0.156c0.201,0,0.281-0.065,0.281-0.175
				c0-0.112-0.066-0.164-0.307-0.246c-0.441-0.147-0.613-0.385-0.609-0.637c0-0.398,0.34-0.699,0.863-0.699
				c0.246,0,0.465,0.063,0.594,0.126l-0.113,0.456c-0.094-0.055-0.281-0.123-0.457-0.123c-0.16,0-0.252,0.065-0.252,0.17
				s0.084,0.154,0.342,0.248c0.404,0.14,0.566,0.347,0.572,0.653c0,0.401-0.309,0.688-0.914,0.688c-0.275,0-0.525-0.063-0.686-0.149
				L134.213,64.624z"/>
		</g>
	</g>
	<g>
		<circle fill="#FFC000" cx="15.419" cy="15.142" r="14.635"/>
		<g>
			<path fill="#1C5183" d="M7.085,10.358H7.069l-0.896,0.427l-0.18-0.822l1.251-0.579h0.903v4.698H7.085V10.358z"/>
			<path fill="#1C5183" d="M13.162,11.71c0,1.446-0.584,2.451-1.777,2.451c-1.215,0-1.75-1.092-1.756-2.42
				c0-1.368,0.571-2.438,1.786-2.438C12.663,9.304,13.162,10.426,13.162,11.71z M10.727,11.741c0,1.077,0.26,1.59,0.679,1.59
				c0.427,0,0.658-0.534,0.658-1.605c0-1.041-0.224-1.589-0.665-1.589C11.001,10.136,10.727,10.642,10.727,11.741z"/>
			<path fill="#1C5183" d="M17.174,11.71c0,1.446-0.586,2.451-1.777,2.451c-1.215,0-1.749-1.092-1.757-2.42
				c0-1.368,0.57-2.438,1.786-2.438C16.675,9.304,17.174,10.426,17.174,11.71z M14.736,11.741c0,1.077,0.26,1.59,0.68,1.59
				c0.426,0,0.657-0.534,0.657-1.605c0-1.041-0.225-1.589-0.665-1.589C15.014,10.136,14.736,10.642,14.736,11.741z"/>
			<path fill="#1C5183" d="M21.185,11.71c0,1.446-0.586,2.451-1.777,2.451c-1.215,0-1.75-1.092-1.758-2.42
				c0-1.368,0.572-2.438,1.786-2.438C20.687,9.304,21.185,10.426,21.185,11.71z M18.749,11.741c0,1.077,0.26,1.59,0.68,1.59
				c0.426,0,0.657-0.534,0.657-1.605c0-1.041-0.224-1.589-0.666-1.589C19.024,10.136,18.749,10.642,18.749,11.741z"/>
			<path fill="#1C5183" d="M24.2,11.389v1.104h1.059v0.471H24.2v1.119h-0.496v-1.119h-1.057v-0.471h1.057v-1.104H24.2z"/>
			<path fill="#1C5183" d="M4.734,18.011c0,0.962-0.576,1.54-1.435,1.54c-0.862,0-1.373-0.655-1.373-1.49
				c0-0.875,0.563-1.53,1.422-1.53C4.244,16.529,4.734,17.202,4.734,18.011z M2.625,18.046c0,0.577,0.269,0.98,0.711,0.98
				c0.446,0,0.702-0.425,0.702-0.993c0-0.528-0.247-0.979-0.702-0.979C2.885,17.053,2.625,17.479,2.625,18.046z"/>
			<path fill="#1C5183" d="M5.165,18.081c0-0.312-0.004-0.516-0.017-0.698h0.564l0.027,0.389h0.016
				c0.109-0.312,0.364-0.442,0.574-0.442c0.06,0,0.091,0.004,0.139,0.012v0.619c-0.052-0.008-0.104-0.018-0.178-0.018
				c-0.243,0-0.407,0.13-0.45,0.334c-0.008,0.043-0.012,0.095-0.012,0.146V19.5H5.165V18.081z"/>
			<path fill="#1C5183" d="M8.785,19.196c0,0.408-0.083,0.741-0.326,0.953c-0.23,0.199-0.545,0.26-0.857,0.26
				c-0.283,0-0.573-0.056-0.763-0.159l0.13-0.503c0.134,0.078,0.363,0.16,0.615,0.16c0.312,0,0.55-0.165,0.55-0.558v-0.135H8.127
				c-0.126,0.174-0.331,0.273-0.572,0.273c-0.524,0-0.897-0.425-0.897-1.031c0-0.685,0.438-1.118,0.962-1.118
				c0.291,0,0.471,0.125,0.582,0.303h0.008l0.021-0.256h0.574c-0.009,0.139-0.017,0.316-0.017,0.632v1.178H8.785z M8.127,18.246
				c0-0.039-0.005-0.084-0.013-0.122c-0.049-0.173-0.173-0.291-0.355-0.291c-0.243,0-0.435,0.216-0.435,0.603
				C7.324,18.753,7.48,19,7.753,19c0.175,0,0.308-0.113,0.351-0.264c0.017-0.052,0.022-0.122,0.022-0.179V18.246z"/>
			<path fill="#1C5183" d="M11.079,18.992c0,0.198,0.008,0.394,0.035,0.511H10.52l-0.04-0.213h-0.012
				c-0.139,0.169-0.355,0.261-0.607,0.261c-0.43,0-0.684-0.312-0.684-0.65c0-0.55,0.494-0.809,1.244-0.809v-0.027
				c0-0.117-0.062-0.278-0.386-0.278c-0.217,0-0.446,0.074-0.584,0.161l-0.121-0.426c0.147-0.083,0.438-0.189,0.824-0.189
				c0.706,0,0.927,0.415,0.927,0.918v0.741H11.079z M10.441,18.502c-0.347,0-0.615,0.083-0.615,0.334
				c0,0.169,0.112,0.252,0.26,0.252c0.161,0,0.299-0.109,0.343-0.243c0.008-0.035,0.012-0.074,0.012-0.112V18.502z"/>
			<path fill="#1C5183" d="M11.604,18.061c0-0.264-0.008-0.485-0.019-0.676h0.572l0.031,0.294h0.012
				c0.087-0.138,0.298-0.342,0.653-0.342c0.435,0,0.759,0.291,0.759,0.915v1.252h-0.657v-1.174c0-0.272-0.095-0.46-0.333-0.46
				c-0.183,0-0.291,0.125-0.339,0.248c-0.018,0.043-0.022,0.104-0.022,0.165v1.224h-0.659V18.061z"/>
			<path fill="#1C5183" d="M14.827,16.793c0,0.182-0.135,0.331-0.356,0.331c-0.207,0-0.342-0.149-0.342-0.331
				c0-0.186,0.139-0.328,0.351-0.328C14.692,16.465,14.822,16.607,14.827,16.793z M14.145,19.503v-2.12h0.659v2.12H14.145z"/>
			<path fill="#1C5183" d="M15.165,19.125l0.668-0.835c0.122-0.139,0.217-0.248,0.333-0.374v-0.009h-0.927v-0.524h1.734v0.398
				l-0.638,0.802c-0.116,0.134-0.225,0.268-0.347,0.386v0.008h1.02v0.524h-1.841v-0.376H15.165z"/>
			<path fill="#1C5183" d="M19.131,18.992c0,0.198,0.009,0.394,0.034,0.511h-0.594l-0.038-0.213h-0.013
				c-0.14,0.169-0.355,0.261-0.606,0.261c-0.43,0-0.686-0.312-0.686-0.65c0-0.55,0.494-0.809,1.243-0.809v-0.027
				c0-0.117-0.06-0.278-0.386-0.278c-0.216,0-0.446,0.074-0.584,0.161l-0.122-0.426c0.147-0.083,0.438-0.189,0.823-0.189
				c0.707,0,0.929,0.415,0.929,0.918V18.992z M18.494,18.502c-0.346,0-0.615,0.083-0.615,0.334c0,0.169,0.113,0.252,0.262,0.252
				c0.161,0,0.3-0.109,0.343-0.243c0.008-0.035,0.012-0.074,0.012-0.112v-0.231H18.494z"/>
			<path fill="#1C5183" d="M20.359,16.812v0.572h0.473v0.485h-0.473v0.766c0,0.256,0.065,0.374,0.26,0.374
				c0.091,0,0.134-0.004,0.196-0.017l0.004,0.497c-0.084,0.031-0.243,0.057-0.425,0.057c-0.213,0-0.391-0.074-0.498-0.182
				c-0.123-0.126-0.183-0.329-0.183-0.627v-0.867h-0.282v-0.485h0.282v-0.396L20.359,16.812z"/>
			<path fill="#1C5183" d="M21.893,16.793c0,0.182-0.134,0.331-0.355,0.331c-0.207,0-0.343-0.149-0.343-0.331
				c0-0.186,0.139-0.328,0.351-0.328C21.761,16.465,21.891,16.607,21.893,16.793z M21.214,19.503v-2.12h0.658v2.12H21.214z"/>
			<path fill="#1C5183" d="M24.495,18.419c0,0.776-0.55,1.131-1.118,1.131c-0.62,0-1.097-0.408-1.097-1.092
				c0-0.689,0.451-1.126,1.135-1.126C24.063,17.332,24.495,17.778,24.495,18.419z M22.962,18.441c0,0.363,0.151,0.638,0.434,0.638
				c0.26,0,0.42-0.256,0.42-0.642c0-0.312-0.122-0.632-0.42-0.632C23.082,17.804,22.962,18.129,22.962,18.441z"/>
			<path fill="#1C5183" d="M24.903,18.061c0-0.264-0.008-0.485-0.018-0.676h0.571l0.03,0.294h0.016
				c0.086-0.138,0.297-0.342,0.653-0.342c0.435,0,0.758,0.291,0.758,0.915v1.252h-0.658v-1.174c0-0.272-0.095-0.46-0.334-0.46
				c-0.182,0-0.291,0.125-0.338,0.248c-0.017,0.043-0.021,0.104-0.021,0.165v1.224h-0.659L24.903,18.061L24.903,18.061z"/>
			<path fill="#1C5183" d="M27.441,18.93c0.121,0.074,0.373,0.156,0.567,0.156c0.2,0,0.283-0.064,0.283-0.173
				c0-0.113-0.066-0.165-0.308-0.248c-0.443-0.147-0.612-0.386-0.608-0.638c0-0.398,0.339-0.697,0.863-0.697
				c0.246,0,0.464,0.06,0.594,0.125l-0.113,0.456c-0.095-0.053-0.281-0.122-0.459-0.122c-0.16,0-0.252,0.066-0.252,0.169
				c0,0.105,0.083,0.157,0.343,0.248c0.403,0.138,0.567,0.347,0.571,0.654c0,0.399-0.309,0.689-0.914,0.689
				c-0.277,0-0.524-0.065-0.686-0.151L27.441,18.93z"/>
		</g>
	</g>
	<g>
		<path fill="#1B5084" d="M125.078,46.221c-8.316,0-15.086,6.77-15.086,15.085c0,1.423,0.211,2.792,0.58,4.095H89.273V38.673
			c0-0.529-0.43-0.957-0.959-0.957H66.693c-0.525,0-0.955,0.428-0.955,0.957v5.61h-2.924v-5.61c0-0.529-0.428-0.957-0.955-0.957
			h-4.99V34.05c0-0.527-0.43-0.956-0.955-0.956c-0.529,0-0.957,0.427-0.957,0.956v3.667h-4.99c-0.527,0-0.957,0.428-0.957,0.957
			v5.61h-3.729c-0.529,0-0.957,0.427-0.957,0.957v9.277h-9.563c-0.528,0-0.957,0.429-0.957,0.956v15.603H15.771V30.21
			c8.155-0.19,14.734-6.869,14.734-15.069c0-8.318-6.769-15.086-15.087-15.086C7.1,0.057,0.333,6.823,0.333,15.142
			c0,8.2,6.579,14.878,14.734,15.069v41.217c0,0.193,0.158,0.352,0.352,0.352h18.387v26.252h-2.678
			c-0.529,0-0.957,0.426-0.957,0.957c0,0.527,0.428,0.956,0.957,0.956h3.379c0.045,0,0.084-0.02,0.128-0.024
			c0.043,0.005,0.082,0.024,0.127,0.024h21.226h10.707h10.34h11.283h3.379c0.529,0,0.957-0.429,0.957-0.956
			c0-0.531-0.428-0.957-0.957-0.957h-2.422V66.104h21.516c2.012,5.972,7.65,10.288,14.289,10.288c8.32,0,15.088-6.768,15.088-15.087
			C140.164,52.99,133.396,46.221,125.078,46.221z M1.236,15.142c0-7.82,6.362-14.183,14.183-14.183s14.184,6.362,14.184,14.183
			c0,7.821-6.363,14.183-14.184,14.183S1.236,22.963,1.236,15.142z M50.924,39.628h9.979v4.655h-9.979V39.628z M47.863,98.031
			h-1.386v-1.547c0-0.448-0.363-0.812-0.813-0.812c-0.448,0-0.814,0.363-0.814,0.812v1.547h-1.387v-3.89h4.399V98.031z
			 M55.033,69.245v28.786h-5.257v-4.845c0-0.53-0.428-0.959-0.957-0.959h-6.312c-0.527,0-0.957,0.429-0.957,0.959v4.845h-5.833
			V56.429h19.316V69.245L55.033,69.245z M55.986,54.517h-9.75v-8.321h19.501v22.092h-8.797v-4.015h4.213
			c0.527,0,0.957-0.43,0.957-0.959c0-0.527-0.428-0.957-0.957-0.957h-4.213v-4.015h4.213c0.527,0,0.957-0.432,0.957-0.96
			c0-0.527-0.428-0.956-0.957-0.956h-4.213V55.47C56.943,54.945,56.516,54.517,55.986,54.517z M76.076,98.031h-8.424h-1.914h-8.795
			V70.198h8.795h1.914h8.424V98.031z M87.359,98.031h-9.373V70.692c0.197-0.147,0.33-0.371,0.33-0.636v-2.198
			c0-0.45-0.363-0.814-0.811-0.814c-0.449,0-0.814,0.364-0.814,0.814v0.43h-3.057v-0.43c0-0.45-0.363-0.814-0.813-0.814
			s-0.813,0.364-0.813,0.814v0.43H67.65v-28.66h19.709V98.031z M125.078,75.488c-7.818,0-14.182-6.36-14.182-14.183
			c0-7.818,6.363-14.182,14.182-14.182c7.822,0,14.184,6.363,14.184,14.182C139.262,69.128,132.9,75.488,125.078,75.488z"/>
		<path fill="#1B5084" d="M61.859,72.018c-0.529,0-0.959,0.429-0.959,0.956v22.698c0,0.529,0.428,0.955,0.959,0.955
			c0.527,0,0.955-0.426,0.955-0.955V72.974C62.814,72.446,62.387,72.018,61.859,72.018z"/>
		<path fill="#1B5084" d="M71.355,96.627c0.531,0,0.957-0.426,0.957-0.955V72.974c0-0.527-0.426-0.956-0.957-0.956
			c-0.525,0-0.955,0.429-0.955,0.956v22.698C70.4,96.201,70.83,96.627,71.355,96.627z"/>
		<path fill="#1B5084" d="M66.693,72.018c-0.525,0-0.955,0.429-0.955,0.956v22.698c0,0.529,0.43,0.955,0.955,0.955
			c0.529,0,0.959-0.426,0.959-0.955V72.974C67.652,72.446,67.223,72.018,66.693,72.018z"/>
		<path fill="#1B5084" d="M62.814,50.979c0-0.529-0.428-0.957-0.955-0.957H50.827c-0.528,0-0.957,0.427-0.957,0.957
			c0,0.528,0.428,0.954,0.957,0.954h11.032C62.387,51.933,62.814,51.507,62.814,50.979z"/>
		<path fill="#1B5084" d="M81.861,47.775c0.449,0,0.814-0.364,0.814-0.814v-2.2c0-0.449-0.365-0.814-0.814-0.814
			c-0.447,0-0.814,0.364-0.814,0.814v2.2C81.047,47.41,81.41,47.775,81.861,47.775z"/>
		<path fill="#1B5084" d="M77.506,47.775c0.447,0,0.811-0.364,0.811-0.814v-2.2c0-0.449-0.363-0.814-0.811-0.814
			c-0.449,0-0.814,0.364-0.814,0.814v2.2C76.691,47.41,77.057,47.775,77.506,47.775z"/>
		<path fill="#1B5084" d="M72.824,47.775c0.449,0,0.813-0.364,0.813-0.814v-2.2c0-0.449-0.363-0.814-0.813-0.814
			c-0.451,0-0.814,0.364-0.814,0.814v2.2C72.01,47.41,72.373,47.775,72.824,47.775z"/>
		<path fill="#1B5084" d="M50.301,65.752c0.449,0,0.814-0.363,0.814-0.811v-2.197c0-0.451-0.365-0.814-0.814-0.814
			c-0.448,0-0.814,0.363-0.814,0.814v2.197C49.489,65.389,49.853,65.752,50.301,65.752z"/>
		<path fill="#1B5084" d="M45.946,65.752c0.449,0,0.814-0.363,0.814-0.811v-2.197c0-0.451-0.365-0.814-0.814-0.814
			c-0.449,0-0.813,0.363-0.813,0.814v2.197C45.133,65.389,45.497,65.752,45.946,65.752z"/>
		<path fill="#1B5084" d="M41.264,65.752c0.45,0,0.814-0.363,0.814-0.811v-2.197c0-0.451-0.364-0.814-0.814-0.814
			c-0.449,0-0.813,0.363-0.813,0.814v2.197C40.452,65.389,40.815,65.752,41.264,65.752z"/>
		<path fill="#1B5084" d="M50.301,73.342c0.449,0,0.814-0.363,0.814-0.813v-2.201c0-0.448-0.365-0.814-0.814-0.814
			c-0.448,0-0.814,0.366-0.814,0.814v2.201C49.489,72.979,49.853,73.342,50.301,73.342z"/>
		<path fill="#1B5084" d="M45.946,73.342c0.449,0,0.814-0.363,0.814-0.813v-2.201c0-0.448-0.365-0.814-0.814-0.814
			c-0.449,0-0.813,0.366-0.813,0.814v2.201C45.133,72.979,45.497,73.342,45.946,73.342z"/>
		<path fill="#1B5084" d="M41.264,73.342c0.45,0,0.814-0.363,0.814-0.813v-2.201c0-0.448-0.364-0.814-0.814-0.814
			c-0.449,0-0.813,0.366-0.813,0.814v2.201C40.452,72.979,40.815,73.342,41.264,73.342z"/>
		<path fill="#1B5084" d="M50.301,80.929c0.449,0,0.814-0.365,0.814-0.813v-2.198c0-0.451-0.365-0.814-0.814-0.814
			c-0.448,0-0.814,0.363-0.814,0.814v2.198C49.489,80.563,49.853,80.929,50.301,80.929z"/>
		<path fill="#1B5084" d="M45.946,80.929c0.449,0,0.814-0.365,0.814-0.813v-2.198c0-0.451-0.365-0.814-0.814-0.814
			c-0.449,0-0.813,0.363-0.813,0.814v2.198C45.133,80.563,45.497,80.929,45.946,80.929z"/>
		<path fill="#1B5084" d="M41.264,80.929c0.45,0,0.814-0.365,0.814-0.813v-2.198c0-0.451-0.364-0.814-0.814-0.814
			c-0.449,0-0.813,0.363-0.813,0.814v2.198C40.452,80.563,40.815,80.929,41.264,80.929z"/>
		<path fill="#1B5084" d="M50.301,88.516c0.449,0,0.814-0.365,0.814-0.813v-2.201c0-0.448-0.365-0.812-0.814-0.812
			c-0.448,0-0.814,0.363-0.814,0.812v2.201C49.489,88.15,49.853,88.516,50.301,88.516z"/>
		<path fill="#1B5084" d="M45.946,88.516c0.449,0,0.814-0.365,0.814-0.813v-2.201c0-0.448-0.365-0.812-0.814-0.812
			c-0.449,0-0.813,0.363-0.813,0.812v2.201C45.133,88.15,45.497,88.516,45.946,88.516z"/>
		<path fill="#1B5084" d="M41.264,88.516c0.45,0,0.814-0.365,0.814-0.813v-2.201c0-0.448-0.364-0.812-0.814-0.812
			c-0.449,0-0.813,0.363-0.813,0.812v2.201C40.452,88.15,40.815,88.516,41.264,88.516z"/>
		<path fill="#1B5084" d="M81.861,55.473c0.449,0,0.814-0.363,0.814-0.814V52.46c0-0.448-0.365-0.813-0.814-0.813
			c-0.447,0-0.814,0.365-0.814,0.813v2.198C81.047,55.109,81.41,55.473,81.861,55.473z"/>
		<path fill="#1B5084" d="M77.506,55.473c0.447,0,0.811-0.363,0.811-0.814V52.46c0-0.448-0.363-0.813-0.811-0.813
			c-0.449,0-0.814,0.365-0.814,0.813v2.198C76.691,55.109,77.057,55.473,77.506,55.473z"/>
		<path fill="#1B5084" d="M72.824,55.473c0.449,0,0.813-0.363,0.813-0.814V52.46c0-0.448-0.363-0.813-0.813-0.813
			c-0.451,0-0.814,0.365-0.814,0.813v2.198C72.01,55.109,72.373,55.473,72.824,55.473z"/>
		<path fill="#1B5084" d="M81.861,63.171c0.449,0,0.814-0.362,0.814-0.813v-2.198c0-0.448-0.365-0.814-0.814-0.814
			c-0.447,0-0.814,0.366-0.814,0.814v2.198C81.047,62.809,81.41,63.171,81.861,63.171z"/>
		<path fill="#1B5084" d="M77.506,63.171c0.447,0,0.811-0.362,0.811-0.813v-2.198c0-0.448-0.363-0.814-0.811-0.814
			c-0.449,0-0.814,0.366-0.814,0.814v2.198C76.691,62.809,77.057,63.171,77.506,63.171z"/>
		<path fill="#1B5084" d="M72.824,63.171c0.449,0,0.813-0.362,0.813-0.813v-2.198c0-0.448-0.363-0.814-0.813-0.814
			c-0.451,0-0.814,0.366-0.814,0.814v2.198C72.01,62.809,72.373,63.171,72.824,63.171z"/>
		<path fill="#1B5084" d="M81.861,70.867c0.449,0,0.814-0.363,0.814-0.811v-2.198c0-0.45-0.365-0.814-0.814-0.814
			c-0.447,0-0.814,0.364-0.814,0.814v2.198C81.047,70.504,81.41,70.867,81.861,70.867z"/>
		<path fill="#1B5084" d="M81.861,78.329c0.449,0,0.814-0.363,0.814-0.814v-2.198c0-0.446-0.365-0.813-0.814-0.813
			c-0.447,0-0.814,0.367-0.814,0.813v2.198C81.047,77.966,81.41,78.329,81.861,78.329z"/>
		<path fill="#1B5084" d="M81.861,86.028c0.449,0,0.814-0.363,0.814-0.814v-2.198c0-0.446-0.365-0.814-0.814-0.814
			c-0.447,0-0.814,0.368-0.814,0.814v2.198C81.047,85.665,81.41,86.028,81.861,86.028z"/>
		<path fill="#1B5084" d="M81.861,93.187c0.449,0,0.814-0.366,0.814-0.817v-2.198c0-0.446-0.365-0.812-0.814-0.812
			c-0.447,0-0.814,0.365-0.814,0.812v2.198C81.047,92.82,81.41,93.187,81.861,93.187z"/>
	</g>
</g>
</svg>
