<?xml version="1.0" encoding="utf-8"?>
<!-- Generator: Adobe Illustrator 15.0.0, SVG Export Plug-In . SVG Version: 6.00 Build 0)  -->
<!DOCTYPE svg PUBLIC "-//W3C//DTD SVG 1.1//EN" "http://www.w3.org/Graphics/SVG/1.1/DTD/svg11.dtd">
<svg version="1.1" id="Layer_1" xmlns="http://www.w3.org/2000/svg" xmlns:xlink="http://www.w3.org/1999/xlink" x="0px" y="0px"
	 width="100px" height="100px" viewBox="0 0 100 100" enable-background="new 0 0 100 100" xml:space="preserve">
<g>
	<g>
		<rect x="40.485" y="64.445" fill="#339EDE" width="13.682" height="19.904"/>
		<path fill="#FFC000" d="M25.305,84.35h4.172v-3.465c0-0.379,0.306-0.686,0.684-0.686h4.514c0.377,0,0.684,0.307,0.684,0.686v3.465
			h3.759V63.764v-9.166H25.305V84.35z M35.154,59.113c0-0.322,0.26-0.582,0.582-0.582c0.321,0,0.582,0.26,0.582,0.582v1.572
			c0,0.32-0.261,0.58-0.582,0.58c-0.321,0-0.582-0.26-0.582-0.58V59.113z M35.154,64.537c0-0.32,0.26-0.582,0.582-0.582
			c0.321,0,0.582,0.262,0.582,0.582v1.574c0,0.322-0.261,0.582-0.582,0.582c-0.321,0-0.582-0.26-0.582-0.582V64.537z M35.154,69.965
			c0-0.322,0.26-0.582,0.582-0.582c0.321,0,0.582,0.26,0.582,0.582v1.572c0,0.32-0.261,0.582-0.582,0.582
			c-0.321,0-0.582-0.262-0.582-0.582V69.965z M35.154,75.389c0-0.32,0.26-0.58,0.582-0.58c0.321,0,0.582,0.26,0.582,0.58v1.574
			c0,0.32-0.261,0.582-0.582,0.582c-0.321,0-0.582-0.262-0.582-0.582V75.389z M32.039,59.113c0-0.322,0.26-0.582,0.581-0.582
			s0.582,0.26,0.582,0.582v1.572c0,0.32-0.261,0.58-0.582,0.58s-0.581-0.26-0.581-0.58V59.113z M32.039,64.537
			c0-0.32,0.26-0.582,0.581-0.582s0.582,0.262,0.582,0.582v1.574c0,0.322-0.261,0.582-0.582,0.582s-0.581-0.26-0.581-0.582V64.537z
			 M32.039,69.965c0-0.322,0.26-0.582,0.581-0.582s0.582,0.26,0.582,0.582v1.572c0,0.32-0.261,0.582-0.582,0.582
			s-0.581-0.262-0.581-0.582V69.965z M32.039,75.389c0-0.32,0.26-0.58,0.581-0.58s0.582,0.26,0.582,0.58v1.574
			c0,0.32-0.261,0.582-0.582,0.582s-0.581-0.262-0.581-0.582V75.389z M28.691,59.113c0-0.322,0.26-0.582,0.581-0.582
			c0.322,0,0.582,0.26,0.582,0.582v1.572c0,0.32-0.26,0.58-0.582,0.58c-0.321,0-0.581-0.26-0.581-0.58V59.113z M28.691,64.537
			c0-0.32,0.26-0.582,0.581-0.582c0.322,0,0.582,0.262,0.582,0.582v1.574c0,0.322-0.26,0.582-0.582,0.582
			c-0.321,0-0.581-0.26-0.581-0.582V64.537z M28.691,69.965c0-0.322,0.26-0.582,0.581-0.582c0.322,0,0.582,0.26,0.582,0.582v1.572
			c0,0.32-0.26,0.582-0.582,0.582c-0.321,0-0.581-0.262-0.581-0.582V69.965z M28.691,75.389c0-0.32,0.26-0.58,0.581-0.58
			c0.322,0,0.582,0.26,0.582,0.58v1.574c0,0.32-0.26,0.582-0.582,0.582c-0.321,0-0.581-0.262-0.581-0.582V75.389z"/>
		<path fill="#339EDE" d="M32.829,53.23h6.973c0.378,0,0.684,0.307,0.684,0.684v0.684h3.012c0.378,0,0.685,0.307,0.685,0.684
			s-0.306,0.686-0.685,0.686h-3.012v2.871h3.012c0.378,0,0.685,0.307,0.685,0.684c0,0.379-0.306,0.686-0.685,0.686h-3.012v2.871
			h6.29V47.28H32.829V53.23z M36.111,50.016H44c0.377,0,0.683,0.306,0.683,0.684c0,0.378-0.306,0.683-0.683,0.683h-7.889
			c-0.378,0-0.684-0.305-0.684-0.683C35.427,50.322,35.733,50.016,36.111,50.016z"/>
		<path fill="#FFC000" d="M48.143,63.078h3.117v-0.307c0-0.322,0.26-0.582,0.582-0.582c0.321,0,0.581,0.26,0.581,0.582v0.307h2.186
			v-0.307c0-0.322,0.26-0.582,0.582-0.582c0.32,0,0.58,0.26,0.58,0.582v1.572c0,0.189-0.096,0.35-0.236,0.455V84.35h6.703V42.583
			H48.143V63.078z M57.723,46.254c0-0.321,0.261-0.582,0.582-0.582s0.581,0.26,0.581,0.582v1.573c0,0.321-0.26,0.582-0.581,0.582
			s-0.582-0.26-0.582-0.582V46.254z M57.723,51.76c0-0.32,0.261-0.582,0.582-0.582s0.581,0.262,0.581,0.582v1.572
			c0,0.322-0.26,0.582-0.581,0.582s-0.582-0.26-0.582-0.582V51.76z M57.723,57.266c0-0.32,0.261-0.582,0.582-0.582
			s0.581,0.262,0.581,0.582v1.572c0,0.322-0.26,0.582-0.581,0.582s-0.582-0.26-0.582-0.582V57.266z M57.723,62.771
			c0-0.322,0.261-0.582,0.582-0.582s0.581,0.26,0.581,0.582v1.572c0,0.32-0.26,0.58-0.581,0.58s-0.582-0.26-0.582-0.58V62.771z
			 M57.723,68.105c0-0.32,0.261-0.582,0.582-0.582s0.581,0.262,0.581,0.582v1.572c0,0.322-0.26,0.582-0.581,0.582
			s-0.582-0.26-0.582-0.582V68.105z M57.723,73.611c0-0.32,0.261-0.582,0.582-0.582s0.581,0.262,0.581,0.582v1.572
			c0,0.322-0.26,0.582-0.581,0.582s-0.582-0.26-0.582-0.582V73.611z M57.723,78.729c0-0.32,0.261-0.58,0.582-0.58
			s0.581,0.26,0.581,0.58v1.572c0,0.322-0.26,0.584-0.581,0.584s-0.582-0.262-0.582-0.584V78.729z M54.608,46.254
			c0-0.321,0.26-0.582,0.582-0.582c0.32,0,0.58,0.26,0.58,0.582v1.573c0,0.321-0.26,0.582-0.58,0.582
			c-0.322,0-0.582-0.26-0.582-0.582V46.254z M54.608,51.76c0-0.32,0.26-0.582,0.582-0.582c0.32,0,0.58,0.262,0.58,0.582v1.572
			c0,0.322-0.26,0.582-0.58,0.582c-0.322,0-0.582-0.26-0.582-0.582V51.76z M54.608,57.266c0-0.32,0.26-0.582,0.582-0.582
			c0.32,0,0.58,0.262,0.58,0.582v1.572c0,0.322-0.26,0.582-0.58,0.582c-0.322,0-0.582-0.26-0.582-0.582V57.266z M51.26,46.254
			c0-0.321,0.26-0.582,0.582-0.582c0.321,0,0.581,0.26,0.581,0.582v1.573c0,0.321-0.26,0.582-0.581,0.582
			c-0.322,0-0.582-0.26-0.582-0.582V46.254z M51.26,51.76c0-0.32,0.26-0.582,0.582-0.582c0.321,0,0.581,0.262,0.581,0.582v1.572
			c0,0.322-0.26,0.582-0.581,0.582c-0.322,0-0.582-0.26-0.582-0.582V51.76z M51.26,57.266c0-0.32,0.26-0.582,0.582-0.582
			c0.321,0,0.581,0.262,0.581,0.582v1.572c0,0.322-0.26,0.582-0.581,0.582c-0.322,0-0.582-0.26-0.582-0.582V57.266z"/>
		<rect x="36.18" y="42.583" fill="#FFC000" width="7.136" height="3.329"/>
		<path fill="#FFC000" d="M30.845,84.35h0.992v-1.107c0-0.32,0.26-0.58,0.582-0.58c0.321,0,0.581,0.26,0.581,0.58v1.107h0.992
			v-2.781h-3.146V84.35z"/>
	</g>
	<g>
		<circle fill="#FFC000" cx="89.211" cy="58.086" r="10.465"/>
		<g>
			<path fill="#1C5183" d="M87.554,54.549h-1.172l-0.065,0.465c0.065-0.01,0.121-0.01,0.195-0.01c0.289,0,0.586,0.066,0.796,0.219
				c0.228,0.154,0.367,0.404,0.367,0.76c0,0.563-0.483,1.061-1.298,1.061c-0.368,0-0.674-0.084-0.843-0.174l0.131-0.529
				c0.13,0.064,0.405,0.148,0.679,0.148c0.293,0,0.605-0.139,0.605-0.461c0-0.311-0.247-0.502-0.852-0.502
				c-0.168,0-0.283,0.01-0.404,0.029l0.194-1.588h1.666V54.549z"/>
			<path fill="#1C5183" d="M90.35,55.465c0,0.932-0.376,1.578-1.145,1.578c-0.782,0-1.126-0.703-1.131-1.559
				c0-0.881,0.367-1.568,1.148-1.568C90.028,53.916,90.35,54.637,90.35,55.465z M88.782,55.484c0,0.693,0.167,1.023,0.437,1.023
				c0.275,0,0.424-0.344,0.424-1.033c0-0.67-0.145-1.023-0.429-1.023C88.958,54.451,88.782,54.775,88.782,55.484z"/>
			<path fill="#1C5183" d="M92.931,55.465c0,0.932-0.376,1.578-1.145,1.578c-0.781,0-1.126-0.703-1.131-1.559
				c0-0.881,0.368-1.568,1.15-1.568C92.61,53.916,92.931,54.637,92.931,55.465z M91.363,55.484c0,0.693,0.167,1.023,0.438,1.023
				c0.274,0,0.424-0.344,0.424-1.033c0-0.67-0.145-1.023-0.428-1.023C91.54,54.451,91.363,54.775,91.363,55.484z"/>
			<path fill="#1C5183" d="M83.256,60.813c-0.084,0.039-0.283,0.088-0.534,0.088c-0.722,0-1.094-0.451-1.094-1.045
				c0-0.715,0.508-1.107,1.141-1.107c0.245,0,0.431,0.047,0.515,0.092l-0.1,0.373c-0.093-0.041-0.227-0.078-0.396-0.078
				c-0.372,0-0.663,0.227-0.663,0.691c0,0.418,0.247,0.682,0.666,0.682c0.146,0,0.301-0.027,0.396-0.068L83.256,60.813z"/>
			<path fill="#1C5183" d="M84.992,60.094c0,0.553-0.394,0.807-0.801,0.807c-0.442,0-0.783-0.289-0.783-0.779
				c0-0.494,0.321-0.807,0.812-0.807C84.682,59.314,84.992,59.635,84.992,60.094z M83.895,60.109c0,0.26,0.108,0.455,0.31,0.455
				c0.187,0,0.301-0.184,0.301-0.459c0-0.223-0.087-0.453-0.301-0.453C83.98,59.652,83.895,59.885,83.895,60.109z"/>
			<path fill="#1C5183" d="M85.283,59.836c0-0.189-0.006-0.348-0.012-0.482h0.399l0.019,0.203H85.7c0.064-0.1,0.2-0.242,0.457-0.242
				c0.199,0,0.351,0.104,0.416,0.26h0.007c0.058-0.08,0.123-0.143,0.197-0.186c0.084-0.045,0.177-0.074,0.289-0.074
				c0.29,0,0.511,0.205,0.511,0.662v0.891h-0.458v-0.824c0-0.219-0.071-0.348-0.225-0.348c-0.111,0-0.185,0.076-0.219,0.166
				c-0.01,0.033-0.017,0.08-0.017,0.119v0.887h-0.458v-0.852c0-0.189-0.068-0.32-0.22-0.32c-0.121,0-0.192,0.094-0.221,0.168
				c-0.016,0.037-0.018,0.08-0.018,0.121v0.883h-0.46V59.836z"/>
			<path fill="#1C5183" d="M87.95,59.861c0-0.199-0.006-0.367-0.012-0.508h0.408l0.021,0.209h0.007
				c0.111-0.158,0.285-0.244,0.506-0.244c0.331,0,0.629,0.287,0.629,0.771c0,0.551-0.351,0.811-0.688,0.811
				c-0.182,0-0.325-0.072-0.394-0.172h-0.006v0.752H87.95V59.861z M88.422,60.217c0,0.037,0.003,0.068,0.009,0.1
				c0.031,0.127,0.14,0.223,0.276,0.223c0.204,0,0.325-0.17,0.325-0.428c0-0.242-0.108-0.424-0.319-0.424
				c-0.133,0-0.251,0.098-0.282,0.238c-0.006,0.025-0.009,0.055-0.009,0.084V60.217z"/>
			<path fill="#1C5183" d="M91.066,60.502c0,0.143,0.007,0.281,0.025,0.365h-0.426l-0.027-0.152H90.63
				c-0.1,0.121-0.255,0.186-0.435,0.186c-0.307,0-0.49-0.221-0.49-0.463c0-0.395,0.354-0.58,0.891-0.58V59.84
				c0-0.084-0.044-0.199-0.277-0.199c-0.154,0-0.318,0.051-0.418,0.115l-0.086-0.305c0.105-0.059,0.313-0.137,0.589-0.137
				c0.505,0,0.663,0.299,0.663,0.658V60.502z M90.611,60.152c-0.248,0-0.441,0.059-0.441,0.238c0,0.121,0.082,0.18,0.187,0.18
				c0.115,0,0.214-0.078,0.245-0.174c0.006-0.025,0.01-0.053,0.01-0.08V60.152z"/>
			<path fill="#1C5183" d="M91.442,59.836c0-0.189-0.006-0.348-0.012-0.482h0.408l0.021,0.209h0.01
				c0.063-0.098,0.214-0.244,0.468-0.244c0.311,0,0.542,0.207,0.542,0.654v0.895h-0.47v-0.84c0-0.195-0.069-0.328-0.239-0.328
				c-0.131,0-0.208,0.09-0.241,0.176c-0.013,0.031-0.017,0.076-0.017,0.119v0.873h-0.471V59.836z"/>
			<path fill="#1C5183" d="M93.746,58.93c0,0.131-0.096,0.236-0.255,0.236c-0.148,0-0.244-0.105-0.244-0.236
				c0-0.133,0.099-0.234,0.251-0.234S93.742,58.797,93.746,58.93z M93.26,60.867v-1.514h0.471v1.514H93.26z"/>
			<path fill="#1C5183" d="M94.472,60.26c0.013,0.195,0.208,0.287,0.428,0.287c0.161,0,0.291-0.02,0.418-0.064l0.063,0.32
				c-0.154,0.064-0.344,0.096-0.549,0.096c-0.515,0-0.809-0.297-0.809-0.771c0-0.385,0.239-0.809,0.766-0.809
				c0.489,0,0.676,0.381,0.676,0.756c0,0.08-0.009,0.152-0.017,0.186H94.472z M95.026,59.938c0-0.113-0.049-0.307-0.267-0.307
				c-0.198,0-0.278,0.184-0.292,0.307H95.026z"/>
			<path fill="#1C5183" d="M95.743,60.459c0.088,0.053,0.267,0.111,0.406,0.111c0.143,0,0.201-0.047,0.201-0.125
				c0-0.08-0.047-0.117-0.22-0.176c-0.316-0.105-0.438-0.275-0.435-0.455c0-0.285,0.242-0.5,0.618-0.5
				c0.176,0,0.331,0.045,0.424,0.09l-0.081,0.326c-0.067-0.039-0.201-0.088-0.327-0.088c-0.115,0-0.181,0.047-0.181,0.121
				c0,0.076,0.06,0.111,0.245,0.178c0.288,0.1,0.406,0.248,0.409,0.467c0,0.287-0.221,0.492-0.654,0.492
				c-0.197,0-0.375-0.045-0.49-0.107L95.743,60.459z"/>
		</g>
	</g>
	<g>
		<circle fill="#FFC000" cx="10.789" cy="25.072" r="10.466"/>
		<g>
			<path fill="#1C5183" d="M4.829,21.651H4.818l-0.641,0.305l-0.129-0.588l0.895-0.414h0.646v3.36h-0.76V21.651z"/>
			<path fill="#1C5183" d="M9.175,22.618c0,1.034-0.418,1.753-1.271,1.753c-0.869,0-1.251-0.781-1.256-1.731
				c0-0.978,0.408-1.743,1.277-1.743C8.818,20.897,9.175,21.699,9.175,22.618z M7.433,22.64c0,0.77,0.186,1.137,0.486,1.137
				c0.305,0,0.47-0.382,0.47-1.148c0-0.744-0.16-1.137-0.475-1.137C7.63,21.492,7.433,21.854,7.433,22.64z"/>
			<path fill="#1C5183" d="M12.044,22.618c0,1.034-0.419,1.753-1.271,1.753c-0.869,0-1.251-0.781-1.257-1.731
				c0-0.978,0.408-1.743,1.277-1.743C11.687,20.897,12.044,21.699,12.044,22.618z M10.301,22.64c0,0.77,0.186,1.137,0.486,1.137
				c0.305,0,0.47-0.382,0.47-1.148c0-0.744-0.161-1.137-0.476-1.137C10.499,21.492,10.301,21.854,10.301,22.64z"/>
			<path fill="#1C5183" d="M14.912,22.618c0,1.034-0.419,1.753-1.271,1.753c-0.869,0-1.251-0.781-1.257-1.731
				c0-0.978,0.409-1.743,1.277-1.743C14.556,20.897,14.912,21.699,14.912,22.618z M13.17,22.64c0,0.77,0.186,1.137,0.486,1.137
				c0.305,0,0.47-0.382,0.47-1.148c0-0.744-0.16-1.137-0.476-1.137C13.367,21.492,13.17,21.854,13.17,22.64z"/>
			<path fill="#1C5183" d="M17.069,22.388v0.79h0.757v0.337h-0.757v0.8h-0.355v-0.8h-0.756v-0.337h0.756v-0.79H17.069z"/>
			<path fill="#1C5183" d="M3.148,27.124c0,0.688-0.412,1.101-1.026,1.101c-0.616,0-0.982-0.468-0.982-1.066
				c0-0.626,0.403-1.094,1.017-1.094C2.797,26.064,3.148,26.545,3.148,27.124z M1.639,27.149c0,0.412,0.192,0.701,0.509,0.701
				c0.319,0,0.502-0.304,0.502-0.71c0-0.378-0.177-0.7-0.502-0.7C1.825,26.439,1.639,26.743,1.639,27.149z"/>
			<path fill="#1C5183" d="M3.456,27.174c0-0.223-0.003-0.369-0.012-0.499h0.403l0.019,0.278h0.012
				c0.078-0.223,0.26-0.316,0.41-0.316c0.043,0,0.065,0.003,0.099,0.009v0.443c-0.037-0.006-0.074-0.013-0.127-0.013
				c-0.174,0-0.291,0.093-0.322,0.239c-0.006,0.031-0.009,0.068-0.009,0.105v0.769H3.456V27.174z"/>
			<path fill="#1C5183" d="M6.045,27.971c0,0.292-0.059,0.53-0.233,0.682c-0.165,0.142-0.39,0.186-0.613,0.186
				c-0.202,0-0.41-0.04-0.545-0.114l0.093-0.36c0.096,0.056,0.26,0.115,0.44,0.115c0.223,0,0.393-0.118,0.393-0.399v-0.096H5.574
				c-0.09,0.124-0.236,0.195-0.409,0.195c-0.375,0-0.642-0.304-0.642-0.737c0-0.49,0.313-0.8,0.688-0.8
				c0.208,0,0.337,0.09,0.416,0.217h0.006l0.015-0.183h0.41c-0.006,0.099-0.012,0.226-0.012,0.452V27.971z M5.574,27.292
				c0-0.028-0.003-0.06-0.009-0.087c-0.035-0.124-0.124-0.208-0.254-0.208C5.137,26.997,5,27.152,5,27.428
				c0,0.227,0.112,0.403,0.307,0.403c0.125,0,0.22-0.081,0.251-0.189c0.012-0.037,0.016-0.087,0.016-0.128V27.292z"/>
			<path fill="#1C5183" d="M7.685,27.825c0,0.142,0.006,0.282,0.025,0.366H7.285l-0.028-0.153H7.248
				c-0.099,0.121-0.254,0.187-0.434,0.187c-0.307,0-0.489-0.223-0.489-0.465c0-0.394,0.353-0.579,0.89-0.579v-0.019
				c0-0.084-0.044-0.199-0.276-0.199c-0.155,0-0.319,0.053-0.418,0.115l-0.086-0.304c0.105-0.059,0.313-0.136,0.589-0.136
				c0.505,0,0.663,0.297,0.663,0.657V27.825z M7.229,27.475c-0.248,0-0.44,0.059-0.44,0.239c0,0.121,0.08,0.18,0.186,0.18
				c0.115,0,0.214-0.078,0.245-0.174c0.006-0.025,0.009-0.053,0.009-0.08V27.475z"/>
			<path fill="#1C5183" d="M8.061,27.159c0-0.189-0.006-0.347-0.013-0.483h0.409l0.022,0.21h0.009
				c0.062-0.099,0.213-0.245,0.467-0.245c0.311,0,0.543,0.208,0.543,0.654v0.896H9.028v-0.84c0-0.195-0.068-0.329-0.238-0.329
				c-0.131,0-0.208,0.09-0.242,0.177c-0.013,0.031-0.016,0.074-0.016,0.118v0.875H8.061V27.159z"/>
			<path fill="#1C5183" d="M10.365,26.253c0,0.13-0.096,0.236-0.254,0.236c-0.148,0-0.245-0.106-0.245-0.236
				c0-0.133,0.1-0.235,0.251-0.235C10.269,26.018,10.362,26.12,10.365,26.253z M9.878,28.191v-1.516h0.471v1.516H9.878z"/>
			<path fill="#1C5183" d="M10.607,27.921l0.478-0.598c0.087-0.099,0.155-0.177,0.238-0.267V27.05H10.66v-0.375h1.24v0.285
				l-0.456,0.573c-0.083,0.096-0.161,0.192-0.248,0.276v0.006h0.729v0.375h-1.317V27.921z"/>
			<path fill="#1C5183" d="M13.444,27.825c0,0.142,0.006,0.282,0.024,0.366h-0.425l-0.027-0.153h-0.009
				c-0.1,0.121-0.254,0.187-0.434,0.187c-0.307,0-0.49-0.223-0.49-0.465c0-0.394,0.353-0.579,0.889-0.579v-0.019
				c0-0.084-0.043-0.199-0.276-0.199c-0.155,0-0.319,0.053-0.418,0.115l-0.087-0.304c0.105-0.059,0.313-0.136,0.589-0.136
				c0.505,0,0.664,0.297,0.664,0.657V27.825z M12.988,27.475c-0.248,0-0.44,0.059-0.44,0.239c0,0.121,0.081,0.18,0.187,0.18
				c0.115,0,0.214-0.078,0.245-0.174c0.006-0.025,0.009-0.053,0.009-0.08V27.475z"/>
			<path fill="#1C5183" d="M14.322,26.266v0.409h0.338v0.347h-0.338v0.548c0,0.183,0.046,0.267,0.186,0.267
				c0.065,0,0.096-0.003,0.14-0.012l0.003,0.355c-0.06,0.022-0.174,0.041-0.304,0.041c-0.152,0-0.279-0.053-0.356-0.13
				c-0.087-0.09-0.13-0.235-0.13-0.449v-0.62h-0.202v-0.347h0.202v-0.283L14.322,26.266z"/>
			<path fill="#1C5183" d="M15.419,26.253c0,0.13-0.096,0.236-0.254,0.236c-0.148,0-0.245-0.106-0.245-0.236
				c0-0.133,0.099-0.235,0.251-0.235C15.324,26.018,15.417,26.12,15.419,26.253z M14.933,28.191v-1.516h0.471v1.516H14.933z"/>
			<path fill="#1C5183" d="M17.28,27.416c0,0.555-0.394,0.809-0.8,0.809c-0.443,0-0.784-0.292-0.784-0.781
				c0-0.493,0.322-0.806,0.812-0.806C16.97,26.638,17.28,26.957,17.28,27.416z M16.183,27.431c0,0.26,0.108,0.456,0.31,0.456
				c0.186,0,0.301-0.183,0.301-0.459c0-0.223-0.087-0.452-0.301-0.452C16.269,26.976,16.183,27.208,16.183,27.431z"/>
			<path fill="#1C5183" d="M17.572,27.159c0-0.189-0.006-0.347-0.013-0.483h0.409l0.021,0.21H18
				c0.062-0.099,0.213-0.245,0.467-0.245c0.311,0,0.542,0.208,0.542,0.654v0.896h-0.471v-0.84c0-0.195-0.068-0.329-0.239-0.329
				c-0.13,0-0.208,0.09-0.242,0.177c-0.012,0.031-0.015,0.074-0.015,0.118v0.875h-0.471V27.159z"/>
			<path fill="#1C5183" d="M19.386,27.781c0.087,0.053,0.267,0.112,0.406,0.112c0.143,0,0.202-0.046,0.202-0.124
				c0-0.081-0.047-0.118-0.22-0.177c-0.317-0.105-0.438-0.276-0.435-0.456c0-0.285,0.242-0.499,0.617-0.499
				c0.176,0,0.332,0.043,0.425,0.09L20.3,27.053c-0.068-0.038-0.201-0.087-0.329-0.087c-0.114,0-0.18,0.047-0.18,0.121
				c0,0.075,0.059,0.112,0.245,0.177c0.288,0.099,0.406,0.248,0.409,0.468c0,0.285-0.221,0.493-0.654,0.493
				c-0.198,0-0.375-0.047-0.49-0.108L19.386,27.781z"/>
		</g>
	</g>
	<g>
		<path fill="#1B5084" d="M89.211,47.298c-5.948,0-10.788,4.841-10.788,10.788c0,1.018,0.15,1.996,0.414,2.928H63.605V41.9
			c0-0.378-0.307-0.684-0.685-0.684H47.458c-0.377,0-0.683,0.306-0.683,0.684v4.012h-2.092V41.9c0-0.378-0.306-0.684-0.683-0.684
			h-3.569v-2.622c0-0.377-0.306-0.684-0.683-0.684c-0.378,0-0.684,0.306-0.684,0.684v2.622h-3.568c-0.377,0-0.684,0.306-0.684,0.684
			v4.012h-2.667c-0.378,0-0.684,0.306-0.684,0.684v6.634h-6.839c-0.378,0-0.684,0.307-0.684,0.684v11.158H11.041V35.848
			c5.832-0.136,10.537-4.912,10.537-10.776c0-5.949-4.84-10.789-10.789-10.789C4.84,14.284,0,19.123,0,25.072
			c0,5.864,4.705,10.64,10.537,10.776v29.476c0,0.139,0.113,0.252,0.252,0.252h13.149V84.35h-1.915
			c-0.378,0-0.684,0.305-0.684,0.684c0,0.377,0.306,0.684,0.684,0.684h2.417c0.032,0,0.06-0.014,0.091-0.018
			c0.031,0.004,0.059,0.018,0.091,0.018h15.18h7.657h7.394h8.069h2.417c0.378,0,0.684-0.307,0.684-0.684
			c0-0.379-0.306-0.684-0.684-0.684h-1.732V61.518h15.387c1.438,4.27,5.471,7.357,10.219,7.357c5.949,0,10.789-4.84,10.789-10.789
			C100,52.139,95.16,47.298,89.211,47.298z M0.646,25.072c0-5.593,4.55-10.143,10.143-10.143s10.143,4.55,10.143,10.143
			s-4.55,10.143-10.143,10.143S0.646,30.665,0.646,25.072z M36.18,42.583h7.136v3.329H36.18V42.583z M33.991,84.35H33v-1.107
			c0-0.32-0.26-0.58-0.581-0.58c-0.321,0-0.582,0.26-0.582,0.58v1.107h-0.992v-2.781h3.146V84.35z M39.118,63.764V84.35h-3.759
			v-3.465c0-0.379-0.306-0.686-0.684-0.686h-4.514c-0.377,0-0.684,0.307-0.684,0.686v3.465h-4.172V54.598h13.813V63.764z
			 M39.801,53.23h-6.973V47.28h13.946v15.798h-6.29v-2.871h3.012c0.378,0,0.685-0.307,0.685-0.686c0-0.377-0.306-0.684-0.685-0.684
			h-3.012v-2.871h3.012c0.378,0,0.685-0.309,0.685-0.686s-0.306-0.684-0.685-0.684h-3.012v-0.684
			C40.485,53.537,40.179,53.23,39.801,53.23z M54.167,84.35h-6.024h-1.368h-6.29V64.445h6.29h1.368h6.024V84.35z M62.237,84.35
			h-6.703V64.799c0.141-0.105,0.236-0.266,0.236-0.455v-1.572c0-0.322-0.26-0.582-0.58-0.582c-0.322,0-0.582,0.26-0.582,0.582v0.307
			h-2.186v-0.307c0-0.322-0.26-0.582-0.581-0.582c-0.322,0-0.582,0.26-0.582,0.582v0.307h-3.117V42.583h14.095V84.35z
			 M89.211,68.229c-5.592,0-10.143-4.549-10.143-10.143c0-5.592,4.551-10.142,10.143-10.142c5.593,0,10.143,4.55,10.143,10.142
			C99.354,63.68,94.804,68.229,89.211,68.229z"/>
		<path fill="#1B5084" d="M44,65.746c-0.378,0-0.685,0.307-0.685,0.684v16.232c0,0.379,0.306,0.684,0.685,0.684
			c0.377,0,0.683-0.305,0.683-0.684V66.43C44.683,66.053,44.377,65.746,44,65.746z"/>
		<path fill="#1B5084" d="M50.792,83.346c0.379,0,0.685-0.305,0.685-0.684V66.43c0-0.377-0.306-0.684-0.685-0.684
			c-0.376,0-0.683,0.307-0.683,0.684v16.232C50.109,83.041,50.416,83.346,50.792,83.346z"/>
		<path fill="#1B5084" d="M47.458,65.746c-0.377,0-0.683,0.307-0.683,0.684v16.232c0,0.379,0.306,0.684,0.683,0.684
			c0.378,0,0.685-0.305,0.685-0.684V66.43C48.143,66.053,47.836,65.746,47.458,65.746z"/>
		<path fill="#1B5084" d="M44.683,50.7c0-0.378-0.306-0.684-0.683-0.684h-7.889c-0.378,0-0.684,0.306-0.684,0.684
			c0,0.378,0.306,0.683,0.684,0.683H44C44.377,51.383,44.683,51.078,44.683,50.7z"/>
		<path fill="#1B5084" d="M58.305,48.409c0.321,0,0.581-0.26,0.581-0.582v-1.573c0-0.321-0.26-0.582-0.581-0.582
			s-0.582,0.26-0.582,0.582v1.573C57.723,48.148,57.983,48.409,58.305,48.409z"/>
		<path fill="#1B5084" d="M55.19,48.409c0.32,0,0.58-0.26,0.58-0.582v-1.573c0-0.321-0.26-0.582-0.58-0.582
			c-0.322,0-0.582,0.26-0.582,0.582v1.573C54.608,48.148,54.868,48.409,55.19,48.409z"/>
		<path fill="#1B5084" d="M51.842,48.409c0.321,0,0.581-0.26,0.581-0.582v-1.573c0-0.321-0.26-0.582-0.581-0.582
			c-0.322,0-0.582,0.26-0.582,0.582v1.573C51.26,48.148,51.52,48.409,51.842,48.409z"/>
		<path fill="#1B5084" d="M35.735,61.266c0.321,0,0.582-0.26,0.582-0.58v-1.572c0-0.322-0.261-0.582-0.582-0.582
			c-0.321,0-0.582,0.26-0.582,0.582v1.572C35.154,61.006,35.414,61.266,35.735,61.266z"/>
		<path fill="#1B5084" d="M32.62,61.266c0.321,0,0.582-0.26,0.582-0.58v-1.572c0-0.322-0.261-0.582-0.582-0.582
			s-0.581,0.26-0.581,0.582v1.572C32.039,61.006,32.299,61.266,32.62,61.266z"/>
		<path fill="#1B5084" d="M29.272,61.266c0.322,0,0.582-0.26,0.582-0.58v-1.572c0-0.322-0.26-0.582-0.582-0.582
			c-0.321,0-0.581,0.26-0.581,0.582v1.572C28.691,61.006,28.951,61.266,29.272,61.266z"/>
		<path fill="#1B5084" d="M35.735,66.693c0.321,0,0.582-0.26,0.582-0.582v-1.574c0-0.32-0.261-0.582-0.582-0.582
			c-0.321,0-0.582,0.262-0.582,0.582v1.574C35.154,66.434,35.414,66.693,35.735,66.693z"/>
		<path fill="#1B5084" d="M32.62,66.693c0.321,0,0.582-0.26,0.582-0.582v-1.574c0-0.32-0.261-0.582-0.582-0.582
			s-0.581,0.262-0.581,0.582v1.574C32.039,66.434,32.299,66.693,32.62,66.693z"/>
		<path fill="#1B5084" d="M29.272,66.693c0.322,0,0.582-0.26,0.582-0.582v-1.574c0-0.32-0.26-0.582-0.582-0.582
			c-0.321,0-0.581,0.262-0.581,0.582v1.574C28.691,66.434,28.951,66.693,29.272,66.693z"/>
		<path fill="#1B5084" d="M35.735,72.119c0.321,0,0.582-0.262,0.582-0.582v-1.572c0-0.322-0.261-0.582-0.582-0.582
			c-0.321,0-0.582,0.26-0.582,0.582v1.572C35.154,71.857,35.414,72.119,35.735,72.119z"/>
		<path fill="#1B5084" d="M32.62,72.119c0.321,0,0.582-0.262,0.582-0.582v-1.572c0-0.322-0.261-0.582-0.582-0.582
			s-0.581,0.26-0.581,0.582v1.572C32.039,71.857,32.299,72.119,32.62,72.119z"/>
		<path fill="#1B5084" d="M29.272,72.119c0.322,0,0.582-0.262,0.582-0.582v-1.572c0-0.322-0.26-0.582-0.582-0.582
			c-0.321,0-0.581,0.26-0.581,0.582v1.572C28.691,71.857,28.951,72.119,29.272,72.119z"/>
		<path fill="#1B5084" d="M35.735,77.545c0.321,0,0.582-0.262,0.582-0.582v-1.574c0-0.32-0.261-0.58-0.582-0.58
			c-0.321,0-0.582,0.26-0.582,0.58v1.574C35.154,77.283,35.414,77.545,35.735,77.545z"/>
		<path fill="#1B5084" d="M32.62,77.545c0.321,0,0.582-0.262,0.582-0.582v-1.574c0-0.32-0.261-0.58-0.582-0.58
			s-0.581,0.26-0.581,0.58v1.574C32.039,77.283,32.299,77.545,32.62,77.545z"/>
		<path fill="#1B5084" d="M29.272,77.545c0.322,0,0.582-0.262,0.582-0.582v-1.574c0-0.32-0.26-0.58-0.582-0.58
			c-0.321,0-0.581,0.26-0.581,0.58v1.574C28.691,77.283,28.951,77.545,29.272,77.545z"/>
		<path fill="#1B5084" d="M58.305,53.914c0.321,0,0.581-0.26,0.581-0.582V51.76c0-0.32-0.26-0.582-0.581-0.582
			s-0.582,0.262-0.582,0.582v1.572C57.723,53.654,57.983,53.914,58.305,53.914z"/>
		<path fill="#1B5084" d="M55.19,53.914c0.32,0,0.58-0.26,0.58-0.582V51.76c0-0.32-0.26-0.582-0.58-0.582
			c-0.322,0-0.582,0.262-0.582,0.582v1.572C54.608,53.654,54.868,53.914,55.19,53.914z"/>
		<path fill="#1B5084" d="M51.842,53.914c0.321,0,0.581-0.26,0.581-0.582V51.76c0-0.32-0.26-0.582-0.581-0.582
			c-0.322,0-0.582,0.262-0.582,0.582v1.572C51.26,53.654,51.52,53.914,51.842,53.914z"/>
		<path fill="#1B5084" d="M58.305,59.42c0.321,0,0.581-0.26,0.581-0.582v-1.572c0-0.32-0.26-0.582-0.581-0.582
			s-0.582,0.262-0.582,0.582v1.572C57.723,59.16,57.983,59.42,58.305,59.42z"/>
		<path fill="#1B5084" d="M55.19,59.42c0.32,0,0.58-0.26,0.58-0.582v-1.572c0-0.32-0.26-0.582-0.58-0.582
			c-0.322,0-0.582,0.262-0.582,0.582v1.572C54.608,59.16,54.868,59.42,55.19,59.42z"/>
		<path fill="#1B5084" d="M51.842,59.42c0.321,0,0.581-0.26,0.581-0.582v-1.572c0-0.32-0.26-0.582-0.581-0.582
			c-0.322,0-0.582,0.262-0.582,0.582v1.572C51.26,59.16,51.52,59.42,51.842,59.42z"/>
		<path fill="#1B5084" d="M58.305,64.924c0.321,0,0.581-0.26,0.581-0.58v-1.572c0-0.322-0.26-0.582-0.581-0.582
			s-0.582,0.26-0.582,0.582v1.572C57.723,64.664,57.983,64.924,58.305,64.924z"/>
		<path fill="#1B5084" d="M58.305,70.26c0.321,0,0.581-0.26,0.581-0.582v-1.572c0-0.32-0.26-0.582-0.581-0.582
			s-0.582,0.262-0.582,0.582v1.572C57.723,70,57.983,70.26,58.305,70.26z"/>
		<path fill="#1B5084" d="M58.305,75.766c0.321,0,0.581-0.26,0.581-0.582v-1.572c0-0.32-0.26-0.582-0.581-0.582
			s-0.582,0.262-0.582,0.582v1.572C57.723,75.506,57.983,75.766,58.305,75.766z"/>
		<path fill="#1B5084" d="M58.305,80.885c0.321,0,0.581-0.262,0.581-0.584v-1.572c0-0.32-0.26-0.58-0.581-0.58
			s-0.582,0.26-0.582,0.58v1.572C57.723,80.623,57.983,80.885,58.305,80.885z"/>
	</g>
</g>
</svg>
