<?xml version="1.0" encoding="utf-8"?>
<!-- Generator: Adobe Illustrator 16.0.0, SVG Export Plug-In . SVG Version: 6.00 Build 0)  -->
<!DOCTYPE svg PUBLIC "-//W3C//DTD SVG 1.1//EN" "http://www.w3.org/Graphics/SVG/1.1/DTD/svg11.dtd">
<svg version="1.1" id="Isolation_Mode" xmlns="http://www.w3.org/2000/svg" xmlns:xlink="http://www.w3.org/1999/xlink" x="0px"
	 y="0px" width="116.489px" height="36.759px" viewBox="0 0 116.489 36.759" enable-background="new 0 0 116.489 36.759"
	 xml:space="preserve">
<polygon fill-rule="evenodd" clip-rule="evenodd" fill="#FFFFFF" points="84.278,0 85.268,0 85.263,3.29 84.278,3.143 "/>
<polygon fill-rule="evenodd" clip-rule="evenodd" fill="#FFFFFF" points="84.276,36.759 85.271,36.758 85.265,33.08 84.276,33.228 
	"/>
<text transform="matrix(1 0 0 1 28.7603 15.9678)" fill="#FFFFFF" font-family="'Arial-BoldItalicMT'" font-size="13.6068">  </text>
<g>
	<path fill="#FFFFFF" d="M79.017,24.861c-1.375,0.594-2.751,1.384-4.127,2.368c1.98,2.026,4.616,3.462,7.588,4.003
		C80.959,29.099,79.804,26.975,79.017,24.861z"/>
	<path fill="#FFFFFF" d="M84.278,4.931c-0.223,0.012-0.444,0.029-0.665,0.052c-1.728,2.274-2.997,4.548-3.818,6.822
		c1.494,0.572,2.988,0.897,4.483,0.985V4.931z"/>
	<path fill="#FFFFFF" d="M84.277,31.446v-7.888c-1.487,0.093-2.974,0.422-4.461,0.981c0.82,2.283,2.072,4.565,3.746,6.849
		C83.798,31.413,84.037,31.433,84.277,31.446z"/>
	<path fill="#FFFFFF" d="M84.278,13.527c-1.578-0.088-3.148-0.439-4.711-1.054c-0.566,1.755-0.866,3.511-0.904,5.266h5.614
		L84.278,13.527z"/>
	<path fill="#FFFFFF" d="M84.277,18.722h-5.607c0.059,1.72,0.368,3.442,0.924,5.163c1.568-0.606,3.13-0.959,4.684-1.058V18.722z"/>
	<path fill="#FFFFFF" d="M70.191,18.189c0-7.573,6.237-13.763,14.087-14.176V3.144c-7.866-1.152-16.757-1.803-26.173-1.803
		C26.014,1.341,0,8.882,0,18.185c0,9.303,26.014,16.844,58.104,16.844c9.416,0,18.306-0.65,26.171-1.803v-0.861
		C76.427,31.95,70.191,25.761,70.191,18.189z M58.292,6.228h1.914l-0.685,3.255c0.351-0.266,0.677-0.455,0.98-0.568
		c0.304-0.113,0.635-0.169,0.993-0.169c0.744,0,1.34,0.249,1.787,0.747c0.447,0.499,0.671,1.224,0.671,2.176
		c0,0.642-0.105,1.266-0.315,1.87s-0.491,1.096-0.844,1.475c-0.352,0.378-0.722,0.66-1.109,0.844
		c-0.388,0.184-0.794,0.275-1.219,0.275c-1.011,0-1.752-0.443-2.226-1.329l-0.246,1.163h-1.734L58.292,6.228z M39.383,6.228
		l0.086,6.816l3.342-6.816h2.173l0.226,6.744l3.209-6.744h1.94l-4.711,9.74h-2.026l-0.219-7.122l-3.548,7.122h-2.066l-0.365-9.74
		H39.383z M8.823,18.196c0-6.121,9.489-11.206,21.959-12.207C20.707,7.755,13.48,12.551,13.48,18.192
		c0,5.655,7.264,10.462,17.38,12.216C18.353,29.422,8.823,24.329,8.823,18.196z M36.553,28.888l-0.219-7.122l-3.548,7.122h-2.066
		l-0.365-9.74h1.96l0.086,6.816l3.342-6.816h2.173l0.226,6.743l3.209-6.743h1.94l-4.71,9.74H36.553z M48.658,25.951h-4.783
		c-0.005,0.075-0.007,0.133-0.007,0.172c0,0.47,0.134,0.849,0.402,1.137s0.595,0.432,0.98,0.432c0.633,0,1.127-0.328,1.481-0.983
		l1.708,0.286c-0.332,0.687-0.776,1.201-1.332,1.544c-0.556,0.344-1.179,0.516-1.87,0.516c-0.948,0-1.719-0.3-2.312-0.9
		c-0.594-0.601-0.891-1.395-0.891-2.382c0-0.966,0.268-1.825,0.804-2.578c0.731-1.019,1.774-1.528,3.129-1.528
		c0.863,0,1.55,0.268,2.06,0.801c0.509,0.534,0.764,1.281,0.764,2.242C48.791,25.169,48.747,25.583,48.658,25.951z M49.907,10.273
		c0.731-1.019,1.774-1.528,3.129-1.528c0.864,0,1.55,0.267,2.06,0.8c0.509,0.534,0.764,1.281,0.764,2.242
		c0,0.461-0.044,0.875-0.133,1.243h-4.784c-0.005,0.075-0.007,0.133-0.007,0.173c0,0.469,0.134,0.848,0.402,1.136
		c0.268,0.288,0.595,0.432,0.98,0.432c0.634,0,1.127-0.328,1.482-0.983l1.708,0.286c-0.333,0.687-0.776,1.202-1.333,1.545
		c-0.556,0.343-1.179,0.515-1.87,0.515c-0.948,0-1.719-0.3-2.312-0.9c-0.594-0.6-0.89-1.394-0.89-2.382
		C49.104,11.886,49.371,11.026,49.907,10.273z M52.867,23.712c-0.339,0.248-0.604,0.579-0.794,0.993
		c-0.191,0.414-0.379,1.07-0.565,1.97l-0.465,2.213h-1.907l1.475-7.056h1.781L52.106,23.2c0.664-1.023,1.384-1.535,2.159-1.535
		c0.274,0,0.569,0.069,0.884,0.206l-0.731,1.562c-0.173-0.062-0.357-0.093-0.552-0.093C53.539,23.34,53.206,23.464,52.867,23.712z
		 M59.001,28.888l-0.97-3.263l-1.289,1.143l-0.445,2.12h-1.907l2.04-9.74h1.907l-1.063,5.069l2.485-2.385h2.479l-2.837,2.564
		l1.508,4.491H59.001z M64.749,24.077c0.11,0.071,0.467,0.195,1.069,0.372c0.931,0.271,1.553,0.536,1.867,0.798
		c0.443,0.367,0.665,0.81,0.665,1.328c0,0.669-0.282,1.249-0.845,1.741c-0.562,0.491-1.354,0.737-2.378,0.737
		c-1.019,0-1.807-0.188-2.362-0.562s-0.934-0.9-1.133-1.578l1.848-0.292c0.163,0.39,0.367,0.665,0.611,0.827
		c0.243,0.161,0.575,0.242,0.996,0.242c0.435,0,0.782-0.098,1.043-0.292c0.182-0.133,0.272-0.295,0.272-0.485
		c0-0.128-0.047-0.243-0.14-0.346c-0.098-0.097-0.36-0.217-0.79-0.358c-1.152-0.381-1.865-0.682-2.14-0.903
		c-0.43-0.346-0.645-0.798-0.645-1.355c0-0.559,0.208-1.039,0.624-1.442c0.581-0.562,1.442-0.844,2.585-0.844
		c0.908,0,1.595,0.167,2.06,0.499s0.76,0.781,0.884,1.349l-1.761,0.306c-0.093-0.257-0.244-0.449-0.452-0.578
		c-0.283-0.173-0.624-0.259-1.022-0.259s-0.686,0.066-0.86,0.199c-0.176,0.133-0.263,0.285-0.263,0.458
		C64.483,23.816,64.572,23.962,64.749,24.077z"/>
	<path fill="#FFFFFF" d="M54.126,11.675c0-0.522-0.117-0.915-0.352-1.176s-0.549-0.392-0.943-0.392c-0.395,0-0.748,0.148-1.06,0.445
		c-0.312,0.296-0.524,0.735-0.635,1.315h2.983C54.124,11.784,54.126,11.72,54.126,11.675z"/>
	<path fill="#FFFFFF" d="M60.179,14.692c0.319,0,0.623-0.115,0.913-0.346c0.29-0.23,0.532-0.598,0.725-1.103
		s0.289-1.014,0.289-1.528c0-0.5-0.13-0.894-0.389-1.179s-0.572-0.429-0.94-0.429c-0.479,0-0.89,0.222-1.235,0.665
		c-0.475,0.607-0.711,1.379-0.711,2.318c0,0.474,0.134,0.86,0.401,1.156C59.5,14.543,59.816,14.692,60.179,14.692z"/>
	<path fill="#FFFFFF" d="M45.761,23.027c-0.395,0-0.748,0.148-1.06,0.445c-0.312,0.297-0.524,0.735-0.635,1.315h2.983
		c0.004-0.084,0.006-0.148,0.006-0.192c0-0.522-0.117-0.915-0.352-1.176C46.47,23.158,46.155,23.027,45.761,23.027z"/>
	<path fill="#FFFFFF" d="M78.791,24.218c-0.62-1.84-0.963-3.672-1.027-5.496h-6.596c0.127,3.059,1.342,5.852,3.287,8.04
		C75.906,25.701,77.352,24.853,78.791,24.218z"/>
	<path fill="#FFFFFF" d="M82.52,5.137c-2.959,0.53-5.588,1.947-7.571,3.952c1.345,0.994,2.688,1.786,4.033,2.38
		C79.776,9.348,80.958,7.237,82.52,5.137z"/>
	<path fill="#FFFFFF" d="M71.165,17.739h6.591c0.036-1.88,0.363-3.751,0.991-5.615c-1.417-0.642-2.827-1.5-4.232-2.575
		C72.516,11.767,71.274,14.616,71.165,17.739z"/>
	<path fill="#FFFFFF" d="M99.062,18.722H91.8c-0.067,1.731-0.383,3.469-0.95,5.214c1.64,0.663,3.271,1.616,4.895,2.858
		C97.708,24.603,98.934,21.797,99.062,18.722z"/>
	<path fill="#FFFFFF" d="M90.035,23.629c0.51-1.635,0.797-3.271,0.857-4.907h-5.628v4.074
		C86.862,22.805,88.453,23.083,90.035,23.629z"/>
	<path fill="#FFFFFF" d="M85.917,31.448c1.761-2.381,3.062-4.762,3.894-7.143c-1.516-0.508-3.031-0.762-4.547-0.773l0.001,7.937
		C85.484,31.466,85.702,31.46,85.917,31.448z"/>
	<path fill="#FFFFFF" d="M90.62,24.603c-0.809,2.238-2.028,4.488-3.657,6.75c3.278-0.413,6.197-1.907,8.349-4.096
		C93.748,26.101,92.183,25.218,90.62,24.603z"/>
	<path fill="#FFFFFF" d="M90.079,12.676c-1.612,0.559-3.218,0.85-4.814,0.871v4.192h5.638
		C90.872,16.051,90.598,14.364,90.079,12.676z"/>
	<path fill="#FFFFFF" d="M85.263,3.292v0.701c8.172,0.077,14.775,6.403,14.775,14.196c0,7.792-6.603,14.118-14.773,14.196v0.693
		c18.404-2.826,30.944-8.435,30.944-14.893S103.668,6.118,85.263,3.292z"/>
	<path fill="#FFFFFF" d="M95.769,9.609c-1.627,1.186-3.247,2.104-4.859,2.754c0.571,1.784,0.871,3.576,0.899,5.375h7.256
		C98.956,14.644,97.736,11.818,95.769,9.609z"/>
	<path fill="#FFFFFF" d="M90.689,11.713c1.548-0.609,3.096-1.468,4.644-2.571c-2.145-2.191-5.057-3.691-8.33-4.113
		C88.66,7.245,89.888,9.473,90.689,11.713z"/>
	<path fill="#FFFFFF" d="M85.263,4.908l0.001,7.907c1.532-0.018,3.064-0.286,4.598-0.801c-0.817-2.361-2.116-4.722-3.91-7.083
		C85.724,4.917,85.494,4.911,85.263,4.908z"/>
	<path fill="#FFFFFF" d="M84.278,3.143L84.278,3.143c0.07,0.011,0.143,0.021,0.213,0.032L84.278,3.143z"/>
	<path fill="#FFFFFF" d="M84.276,33.648l0.989-0.128v-0.442c-0.328,0.051-0.657,0.101-0.989,0.148V33.648z"/>
	<path fill="#FFFFFF" d="M84.681,3.203c0.195,0.029,0.388,0.06,0.582,0.089V3.29L84.681,3.203z"/>
</g>
<path fill="#FFFFFF" d="M115.878,4.279c0,1.934-1.567,3.502-3.5,3.502c-1.934,0-3.502-1.568-3.502-3.502s1.568-3.5,3.502-3.5
	C114.311,0.779,115.878,2.346,115.878,4.279 M116.489,4.279c0-2.268-1.843-4.111-4.11-4.111c-2.271,0-4.111,1.843-4.111,4.111
	c0,2.271,1.84,4.111,4.111,4.111C114.646,8.39,116.489,6.55,116.489,4.279z"/>
<g>
	<path fill="#FFFFFF" d="M111.312,5.967V2.672h1.4c0.353,0,0.607,0.03,0.768,0.089c0.159,0.059,0.287,0.165,0.384,0.316
		c0.096,0.151,0.144,0.324,0.144,0.519c0,0.247-0.073,0.452-0.218,0.612c-0.146,0.161-0.363,0.263-0.652,0.305
		c0.144,0.084,0.263,0.176,0.356,0.276c0.093,0.101,0.22,0.279,0.379,0.535l0.401,0.643h-0.795l-0.481-0.717
		c-0.171-0.256-0.287-0.418-0.351-0.484c-0.062-0.066-0.129-0.112-0.2-0.137c-0.07-0.024-0.182-0.037-0.335-0.037h-0.135v1.375
		H111.312z M111.977,4.065h0.493c0.318,0,0.518-0.013,0.598-0.041c0.079-0.027,0.142-0.073,0.187-0.139s0.067-0.148,0.067-0.247
		c0-0.111-0.03-0.201-0.089-0.269c-0.06-0.068-0.143-0.111-0.251-0.129c-0.054-0.008-0.216-0.011-0.485-0.011h-0.52V4.065z"/>
</g>
</svg>
