<?xml version="1.0" encoding="utf-8"?>
<!-- Generator: Adobe Illustrator 16.0.0, SVG Export Plug-In . SVG Version: 6.00 Build 0)  -->
<!DOCTYPE svg PUBLIC "-//W3C//DTD SVG 1.1//EN" "http://www.w3.org/Graphics/SVG/1.1/DTD/svg11.dtd">
<svg version="1.1" id="Layer_1" xmlns="http://www.w3.org/2000/svg" xmlns:xlink="http://www.w3.org/1999/xlink" x="0px" y="0px"
	 width="40px" height="40px" viewBox="50.865 50.888 40 40" enable-background="new 50.865 50.888 40 40" xml:space="preserve">
<g>
	<g>
		<rect x="60.192" y="75.772" fill="#FFC10D" width="21.334" height="6.533"/>
		<rect x="60.192" y="67.019" fill="#FFC10D" width="21.334" height="6.534"/>
	</g>
	<g>
		<path fill="#194F82" d="M63.077,71.399h3.32c0.612,0,1.113-0.494,1.113-1.114c0-0.619-0.494-1.112-1.113-1.112h-3.32
			c-0.612,0-1.113,0.494-1.113,1.112C61.964,70.905,62.471,71.399,63.077,71.399z"/>
		<path fill="#194F82" d="M66.403,77.927h-3.32c-0.612,0-1.112,0.493-1.112,1.112c0,0.613,0.494,1.112,1.112,1.112h3.32
			c0.612,0,1.113-0.493,1.113-1.112S67.009,77.927,66.403,77.927z"/>
	</g>
	<path fill="#FFFFFF" d="M55.305,70.207c0-1.548,0.843-2.991,2.207-3.755l0.454-0.256v-0.29c0-0.612,0.494-1.113,1.113-1.113h0.56
		l-0.527-2.068c-0.132-0.513-0.197-0.994-0.197-1.475c0-3.267,2.654-5.921,5.921-5.921c2.108,0,4.018,1.093,5.104,2.932l0,0
		c0.982,1.666,3.162,2.146,4.755,1.053l0,0c0.718-0.494,1.562-0.757,2.431-0.757c2.352,0,4.269,1.89,4.308,4.235
		c0,0.066-0.007,0.119-0.007,0.178l-0.039,1.818h1.258c0.613,0,1.113,0.494,1.113,1.113v0.336c1.601,0.659,2.661,2.226,2.661,3.958
		c0,1.779-1.094,3.32-2.661,3.978v2.338c2.818-0.73,4.88-3.306,4.88-6.316c0-2.713-1.719-5.17-4.268-6.119
		c-0.447-0.165-0.804-0.646-0.718-1.199c0-3.623-2.932-6.553-6.527-6.553c-1.324,0-2.575,0.441-3.695,1.152
		c-0.837,0.527-1.437-0.085-1.581-0.356c-1.461-2.482-4.148-4.024-7.014-4.024c-4.485,0-8.141,3.656-8.141,8.142
		c0,0.652,0.085,1.33,0.257,2.015c0.125,0.488-0.092,1.001-0.534,1.245c-2.068,1.173-3.339,3.353-3.339,5.704
		c0,3.01,2.068,5.579,4.88,6.317v-2.339C56.405,73.533,55.305,71.985,55.305,70.207z"/>
	<g>
		<path fill="#56ACE0" d="M55.305,70.207c0,1.778,1.093,3.319,2.661,3.979v-7.99l-0.454,0.257
			C56.155,67.216,55.305,68.652,55.305,70.207z"/>
		<path fill="#56ACE0" d="M86.42,70.207c0-1.733-1.061-3.3-2.661-3.958v7.937C85.32,73.533,86.42,71.985,86.42,70.207z"/>
		<path fill="#56ACE0" d="M81.434,62.79c-0.041-2.338-1.95-4.235-4.309-4.235c-0.876,0-1.72,0.257-2.431,0.757l0,0
			c-1.593,1.093-3.773,0.606-4.755-1.053l0,0c-1.086-1.852-3.016-2.951-5.157-2.932c-3.228,0.033-5.862,2.694-5.862,5.921
			c0,0.474,0.066,0.948,0.198,1.469l0.527,2.068h21.742l0.039-1.818C81.427,62.908,81.427,62.856,81.434,62.79z"/>
	</g>
	<path fill="#194F82" d="M87.778,88.656H71.975v-4.134h10.666c0.613,0,1.113-0.494,1.113-1.113v-4.623
		c4.056-0.775,7.104-4.357,7.104-8.586c0-3.377-1.982-6.458-4.997-7.894c-0.29-4.563-4.097-8.191-8.731-8.191
		c-1.396,0-2.752,0.33-3.983,0.961c-1.942-2.607-5.031-4.188-8.304-4.188c-5.715,0-10.363,4.649-10.363,10.357
		c0,0.58,0.053,1.172,0.158,1.765c-2.345,1.633-3.767,4.319-3.767,7.197c0,4.228,3.049,7.81,7.104,8.586v4.623
		c0,0.612,0.494,1.112,1.113,1.112h10.667v4.135H53.953c-0.612,0-1.112,0.494-1.112,1.112c0,0.619,0.494,1.113,1.112,1.113h33.832
		c0.611,0,1.111-0.494,1.111-1.113C88.889,89.15,88.389,88.656,87.778,88.656z M53.091,70.207c0-2.351,1.284-4.537,3.338-5.689
		c0.441-0.244,0.652-0.757,0.534-1.244c-0.171-0.685-0.257-1.363-0.257-2.016c0-4.484,3.654-8.138,8.139-8.138
		c2.863,0,5.55,1.541,7.013,4.023c0.158,0.27,0.757,0.882,1.58,0.356c1.12-0.711,2.37-1.153,3.694-1.153
		c3.595,0,6.524,2.931,6.524,6.545c-0.085,0.553,0.277,1.034,0.719,1.198c2.548,0.942,4.266,3.397,4.266,6.118
		c0,3.009-2.066,5.577-4.878,6.314v-2.337v-7.941v-0.335c0-0.612-0.495-1.113-1.113-1.113h-1.257H59.649h-0.56
		c-0.613,0-1.113,0.494-1.113,1.113v0.29v7.987v2.337C55.158,75.791,53.091,73.216,53.091,70.207z M60.195,73.545v-6.531H81.53
		v6.532L60.195,73.545L60.195,73.545z M60.195,75.77H81.53v6.531H60.195V75.77z"/>
</g>
</svg>
