<?xml version="1.0" encoding="utf-8"?>
<!-- Generator: Adobe Illustrator 16.0.0, SVG Export Plug-In . SVG Version: 6.00 Build 0)  -->
<!DOCTYPE svg PUBLIC "-//W3C//DTD SVG 1.1//EN" "http://www.w3.org/Graphics/SVG/1.1/DTD/svg11.dtd">
<svg version="1.1" id="Layer_1" xmlns="http://www.w3.org/2000/svg" xmlns:xlink="http://www.w3.org/1999/xlink" x="0px" y="0px"
	 width="40px" height="40px" viewBox="50.865 50.865 40 40" enable-background="new 50.865 50.865 40 40" xml:space="preserve">
<g>
	<g>
		<g>
			<rect x="60.919" y="51.742" fill="#56ACE0" width="28.485" height="10.585"/>
		</g>
		<g>
			<rect x="60.919" y="62.264" fill="#FDC116" width="28.485" height="10.585"/>
		</g>
		<g>
			<path fill="#195083" d="M89.404,70.719c-0.484,0-0.877,0.393-0.877,0.878v0.438h-0.438c-0.485,0-0.877,0.393-0.877,0.878
				c0,0.484,0.392,0.877,0.877,0.877h1.315c0.484,0,0.877-0.393,0.877-0.877v-1.315C90.281,71.113,89.888,70.719,89.404,70.719z"/>
			<path fill="#195083" d="M73.751,72.035h-2.868c-0.483,0-0.877,0.393-0.877,0.878c0,0.484,0.394,0.877,0.877,0.877h2.868
				c0.485,0,0.878-0.393,0.878-0.877C74.629,72.427,74.236,72.035,73.751,72.035z"/>
			<path fill="#195083" d="M85.221,72.035h-2.868c-0.484,0-0.877,0.393-0.877,0.878c0,0.484,0.393,0.877,0.877,0.877h2.868
				c0.484,0,0.877-0.393,0.877-0.877C86.098,72.427,85.706,72.035,85.221,72.035z"/>
			<path fill="#195083" d="M68.016,72.035h-2.868c-0.484,0-0.877,0.393-0.877,0.878c0,0.484,0.393,0.877,0.877,0.877h2.868
				c0.484,0,0.877-0.393,0.877-0.877C68.893,72.427,68.501,72.035,68.016,72.035z"/>
			<path fill="#195083" d="M79.485,72.035h-2.866c-0.485,0-0.878,0.393-0.878,0.878c0,0.484,0.393,0.877,0.878,0.877h2.866
				c0.485,0,0.878-0.393,0.878-0.877C80.363,72.427,79.97,72.035,79.485,72.035z"/>
			<path fill="#195083" d="M62.281,72.035h-0.438v-0.438c0-0.485-0.393-0.878-0.877-0.878s-0.877,0.393-0.877,0.878v1.315
				c0,0.484,0.393,0.877,0.877,0.877h1.315c0.484,0,0.877-0.393,0.877-0.877C63.158,72.427,62.765,72.035,62.281,72.035z"/>
			<path fill="#195083" d="M60.966,69.826c0.484,0,0.877-0.393,0.877-0.877V66.3c0-0.484-0.393-0.877-0.877-0.877
				s-0.877,0.393-0.877,0.877v2.649C60.089,69.433,60.481,69.826,60.966,69.826z"/>
			<path fill="#195083" d="M60.966,59.233c0.484,0,0.877-0.393,0.877-0.877v-2.648c0-0.484-0.393-0.877-0.877-0.877
				s-0.877,0.393-0.877,0.877v2.648C60.089,58.84,60.481,59.233,60.966,59.233z"/>
			<path fill="#195083" d="M60.966,53.935c0.484,0,0.877-0.393,0.877-0.877v-0.438h0.438c0.484,0,0.877-0.393,0.877-0.877
				c0-0.484-0.393-0.877-0.877-0.877h-1.315c-0.484,0-0.877,0.393-0.877,0.877v1.316C60.089,53.542,60.481,53.935,60.966,53.935z"/>
			<path fill="#195083" d="M79.486,50.865h-2.867c-0.485,0-0.878,0.393-0.878,0.877c0,0.485,0.393,0.877,0.878,0.877h2.867
				c0.484,0,0.877-0.393,0.877-0.877C80.363,51.258,79.971,50.865,79.486,50.865z"/>
			<path fill="#195083" d="M65.148,52.619h2.868c0.484,0,0.877-0.393,0.877-0.877c0-0.484-0.393-0.877-0.877-0.877h-2.868
				c-0.484,0-0.877,0.393-0.877,0.877C64.271,52.227,64.664,52.619,65.148,52.619z"/>
			<path fill="#195083" d="M82.353,52.619h2.868c0.484,0,0.877-0.393,0.877-0.877c0-0.484-0.393-0.877-0.877-0.877h-2.868
				c-0.484,0-0.877,0.393-0.877,0.877C81.476,52.227,81.869,52.619,82.353,52.619z"/>
			<path fill="#195083" d="M73.751,50.865h-2.867c-0.484,0-0.877,0.393-0.877,0.877c0,0.485,0.393,0.877,0.877,0.877h2.867
				c0.485,0,0.878-0.393,0.878-0.877C74.629,51.258,74.236,50.865,73.751,50.865z"/>
			<path fill="#195083" d="M89.404,50.865h-1.315c-0.485,0-0.877,0.393-0.877,0.877c0,0.485,0.392,0.877,0.877,0.877h0.438v0.438
				c0,0.484,0.393,0.877,0.877,0.877s0.877-0.393,0.877-0.877v-1.316C90.281,51.258,89.888,50.865,89.404,50.865z"/>
			<path fill="#195083" d="M89.404,60.126c-0.484,0-0.877,0.393-0.877,0.877v0.447h-1.754c-0.485,0-0.878,0.393-0.878,0.877
				s0.393,0.877,0.878,0.877h1.754v0.447c0,0.484,0.393,0.877,0.877,0.877s0.877-0.393,0.877-0.877v-2.648
				C90.281,60.519,89.888,60.126,89.404,60.126z"/>
			<path fill="#195083" d="M89.404,54.829c-0.484,0-0.877,0.393-0.877,0.877v2.648c0,0.484,0.393,0.877,0.877,0.877
				s0.877-0.393,0.877-0.877v-2.648C90.281,55.222,89.888,54.829,89.404,54.829z"/>
			<path fill="#195083" d="M89.404,65.423c-0.484,0-0.877,0.393-0.877,0.877v2.649c0,0.484,0.393,0.877,0.877,0.877
				s0.877-0.393,0.877-0.877V66.3C90.281,65.816,89.888,65.423,89.404,65.423z"/>
			<path fill="#195083" d="M63.089,61.45h-1.246v-0.447c0-0.484-0.393-0.877-0.878-0.877c-0.483,0-0.877,0.393-0.877,0.877v1.054
				c-0.027,0.085-0.047,0.176-0.047,0.271c0,0.095,0.02,0.186,0.047,0.271v1.054c0,0.484,0.394,0.877,0.877,0.877
				c0.485,0,0.878-0.393,0.878-0.877v-0.447h1.246c0.484,0,0.878-0.393,0.878-0.877S63.573,61.45,63.089,61.45z"/>
			<path fill="#195083" d="M68.352,61.45H65.72c-0.484,0-0.877,0.393-0.877,0.877s0.393,0.877,0.877,0.877h2.632
				c0.484,0,0.877-0.393,0.877-0.877S68.837,61.45,68.352,61.45z"/>
			<path fill="#195083" d="M70.983,63.205h2.632c0.484,0,0.877-0.393,0.877-0.877s-0.393-0.877-0.877-0.877h-2.632
				c-0.484,0-0.877,0.393-0.877,0.877S70.5,63.205,70.983,63.205z"/>
			<path fill="#195083" d="M78.878,63.205c0.484,0,0.878-0.393,0.878-0.877s-0.394-0.877-0.878-0.877h-2.631
				c-0.484,0-0.877,0.393-0.877,0.877s0.393,0.877,0.877,0.877H78.878z"/>
			<path fill="#195083" d="M84.141,63.205c0.484,0,0.877-0.393,0.877-0.877s-0.393-0.877-0.877-0.877H81.51
				c-0.484,0-0.877,0.393-0.877,0.877s0.393,0.877,0.877,0.877H84.141z"/>
		</g>
	</g>
	<g>
		<g>
			<rect x="56.147" y="71.69" fill="#FDC116" width="22.104" height="6.769"/>
			<rect x="56.147" y="62.621" fill="#56ACE0" width="22.104" height="6.769"/>
		</g>
		<g>
			<path fill="#195083" d="M59.136,67.159h3.439c0.635,0,1.153-0.511,1.153-1.153c0-0.641-0.513-1.153-1.153-1.153h-3.439
				c-0.635,0-1.153,0.512-1.153,1.153C57.983,66.647,58.509,67.159,59.136,67.159z"/>
			<path fill="#195083" d="M62.582,73.922h-3.439c-0.634,0-1.152,0.511-1.152,1.151c0,0.637,0.512,1.153,1.152,1.153h3.439
				c0.635,0,1.153-0.511,1.153-1.153C63.735,74.432,63.211,73.922,62.582,73.922z"/>
		</g>
		<g>
			<path fill="#195083" d="M81.808,88.552H68.355v-7.794H79.41c0.634,0,1.153-0.512,1.153-1.152v-4.791
				c0.002-0.001,0.005-0.001,0.007-0.001v-2.346v-2.423v-0.655v-7.575v-0.347c0-0.634-0.512-1.153-1.152-1.153h-1.304H55.581h-0.579
				c-0.635,0-1.153,0.512-1.153,1.153v0.3v7.66h0.005v10.148h-0.005v0.036c0,0.634,0.512,1.152,1.153,1.152h11.055v7.794H52.602
				c-0.635,0-1.153,0.511-1.153,1.153c0,0.641,0.512,1.152,1.153,1.152h29.213c0.635,0,1.152-0.512,1.152-1.152
				C82.961,89.064,82.442,88.552,81.808,88.552z M56.147,62.615h22.109v6.769H56.147V62.615z M56.147,78.459V71.69h22.109v6.769
				H56.147L56.147,78.459z"/>
		</g>
	</g>
</g>
</svg>
