<?xml version="1.0" encoding="utf-8"?>
<!-- Generator: Adobe Illustrator 16.0.0, SVG Export Plug-In . SVG Version: 6.00 Build 0)  -->
<!DOCTYPE svg PUBLIC "-//W3C//DTD SVG 1.1//EN" "http://www.w3.org/Graphics/SVG/1.1/DTD/svg11.dtd">
<svg version="1.1" id="Layer_1" xmlns="http://www.w3.org/2000/svg" xmlns:xlink="http://www.w3.org/1999/xlink" x="0px" y="0px"
	 width="40px" height="40px" viewBox="51.651 50.866 40 40" enable-background="new 51.651 50.866 40 40" xml:space="preserve">
<g>
	<path fill="#195083" d="M90.41,87.876H72.879v-4.587h11.834c0.679,0,1.234-0.547,1.234-1.234v-5.128
		c0.003,0,0.005-0.001,0.007-0.002v-2.511v-2.593v-0.702v-4.219v-2.512v-1.378v-0.373v-0.842v-0.702v-8.108v-0.373
		c0-0.679-0.547-1.234-1.234-1.234h-1.395H59.204h-0.621c-0.68,0-1.235,0.547-1.235,1.234v0.321v8.159h0.023v1.319
		c-0.014,0.073-0.023,0.148-0.023,0.225v0.321v8.159h0.023v9.708h-0.023v1.235c0,0.68,0.548,1.234,1.235,1.234h11.833v4.587H52.885
		c-0.679,0-1.234,0.548-1.234,1.234s0.548,1.234,1.234,1.234h37.531c0.679,0,1.234-0.548,1.234-1.234
		C91.644,88.424,91.089,87.876,90.41,87.876z M83.478,71.112H59.811v-0.643v-6.604h23.667v3.373V71.112L83.478,71.112z
		 M59.811,80.827v-7.246h23.667v7.246H59.811z"/>
	<rect x="59.811" y="73.581" fill="#FDC116" width="23.66" height="7.246"/>
	<rect x="59.811" y="63.873" fill="#FDC116" width="23.66" height="7.246"/>
	<path fill="#195083" d="M63.01,68.731h3.682c0.679,0,1.234-0.548,1.234-1.235c0-0.687-0.548-1.234-1.234-1.234H63.01
		c-0.679,0-1.234,0.548-1.234,1.234S62.338,68.731,63.01,68.731z"/>
	<rect x="59.811" y="54.158" fill="#FDC116" width="23.66" height="7.246"/>
	<path fill="#195083" d="M63.01,59.016h3.682c0.679,0,1.234-0.548,1.234-1.235c0-0.687-0.548-1.234-1.234-1.234H63.01
		c-0.679,0-1.234,0.548-1.234,1.234C61.776,58.468,62.338,59.016,63.01,59.016z"/>
	<path fill="#195083" d="M66.699,75.969h-3.682c-0.679,0-1.234,0.548-1.234,1.234c0,0.68,0.547,1.234,1.234,1.234h3.682
		c0.679,0,1.235-0.548,1.235-1.234S67.371,75.969,66.699,75.969z"/>
	<rect x="59.811" y="54.158" fill="#FDC116" width="23.66" height="7.246"/>
	<path fill="#195083" d="M63.01,59.016h3.682c0.679,0,1.234-0.548,1.234-1.234c0-0.687-0.548-1.235-1.234-1.235H63.01
		c-0.679,0-1.234,0.548-1.234,1.235C61.776,58.468,62.338,59.016,63.01,59.016z"/>
</g>
</svg>
