<?xml version="1.0" encoding="utf-8"?>
<!-- Generator: Adobe Illustrator 16.0.0, SVG Export Plug-In . SVG Version: 6.00 Build 0)  -->
<!DOCTYPE svg PUBLIC "-//W3C//DTD SVG 1.1//EN" "http://www.w3.org/Graphics/SVG/1.1/DTD/svg11.dtd">
<svg version="1.1" id="Layer_1" xmlns="http://www.w3.org/2000/svg" xmlns:xlink="http://www.w3.org/1999/xlink" x="0px" y="0px"
	 width="40px" height="40px" viewBox="50.866 50.866 40 40" enable-background="new 50.866 50.866 40 40" xml:space="preserve">
<g>
	<path fill="#194F82" d="M87.533,57.164h-2.457V54.2c0-1.838-1.496-3.333-3.334-3.333H54.199c-1.837,0-3.333,1.496-3.333,3.333
		v8.149c0,0.85,0.323,1.627,0.856,2.22c-0.534,0.593-0.856,1.37-0.856,2.227v8.149c0,0.85,0.323,1.627,0.856,2.22
		c-0.534,0.593-0.856,1.363-0.856,2.221v8.148c0,1.838,1.496,3.333,3.333,3.333h27.543c1.838,0,3.334-1.495,3.334-3.333v-2.965
		h2.457c1.838,0,3.333-1.495,3.333-3.333V60.498C90.866,58.659,89.371,57.164,87.533,57.164z M82.855,87.533
		c0,0.612-0.494,1.113-1.113,1.113H54.199c-0.612,0-1.113-0.494-1.113-1.113v-8.148c0-0.613,0.494-1.114,1.113-1.114h27.543
		c0.612,0,1.113,0.494,1.113,1.114V87.533L82.855,87.533z M53.086,54.2c0-0.613,0.494-1.113,1.113-1.113h27.543
		c0.612,0,1.113,0.494,1.113,1.113v8.149c0,0.612-0.494,1.113-1.113,1.113H54.199c-0.612,0-1.113-0.494-1.113-1.113V54.2z
		 M82.855,74.938c0,0.612-0.494,1.113-1.113,1.113H54.199c-0.612,0-1.113-0.494-1.113-1.113v-8.143c0-0.613,0.494-1.113,1.113-1.113
		h27.543c0.612,0,1.113,0.494,1.113,1.113V74.938L82.855,74.938L82.855,74.938z M88.645,81.236c0,0.613-0.494,1.113-1.112,1.113
		h-2.457v-2.958c0-0.85-0.323-1.627-0.856-2.22c0.526-0.593,0.856-1.37,0.856-2.22v-2.965h3.563L88.645,81.236L88.645,81.236z
		 M88.645,69.753h-3.563v-2.958c0-0.85-0.323-1.627-0.856-2.22c0.527-0.593,0.856-1.371,0.856-2.22v-2.958h2.451
		c0.612,0,1.112,0.494,1.112,1.114V69.753L88.645,69.753z"/>
	<path fill="#FFC10D" d="M54.199,63.455h27.543c0.612,0,1.113-0.494,1.113-1.113v-8.143c0-0.612-0.494-1.113-1.113-1.113H54.199
		c-0.612,0-1.113,0.494-1.113,1.113v8.149C53.086,62.961,53.587,63.455,54.199,63.455z"/>
	<path fill="#56ACE0" d="M81.742,65.676H54.199c-0.612,0-1.113,0.494-1.113,1.113v8.149c0,0.612,0.494,1.113,1.113,1.113h27.543
		c0.612,0,1.113-0.494,1.113-1.113v-8.143C82.855,66.183,82.354,65.676,81.742,65.676z"/>
	<path fill="#FFC10D" d="M81.742,78.278H54.199c-0.612,0-1.113,0.494-1.113,1.113v8.143c0,0.612,0.494,1.113,1.113,1.113h27.543
		c0.612,0,1.113-0.494,1.113-1.113v-8.148C82.855,78.772,82.354,78.278,81.742,78.278z"/>
	<g>
		<path fill="#194F82" d="M56.564,61.104c0.612,0,1.113-0.494,1.113-1.113v-3.432c0-0.613-0.494-1.113-1.113-1.113
			s-1.113,0.494-1.113,1.113v3.432C55.457,60.61,55.951,61.104,56.564,61.104z"/>
		<path fill="#194F82" d="M61.274,61.104c0.612,0,1.114-0.494,1.114-1.113v-3.432c0-0.613-0.494-1.113-1.114-1.113
			c-0.619,0-1.113,0.494-1.113,1.113v3.432C60.168,60.61,60.661,61.104,61.274,61.104z"/>
		<path fill="#194F82" d="M73.283,59.385h6.088c0.612,0,1.112-0.494,1.112-1.114c0-0.619-0.494-1.113-1.112-1.113h-6.095
			c-0.612,0-1.112,0.494-1.112,1.113C72.17,58.89,72.671,59.385,73.283,59.385z"/>
		<path fill="#194F82" d="M56.564,68.04c-0.613,0-1.113,0.494-1.113,1.114v3.432c0,0.612,0.494,1.113,1.113,1.113
			c0.62,0,1.113-0.494,1.113-1.113v-3.432C57.677,68.534,57.183,68.04,56.564,68.04z"/>
		<path fill="#194F82" d="M61.274,68.04c-0.613,0-1.113,0.494-1.113,1.114v3.432c0,0.612,0.494,1.113,1.113,1.113
			c0.612,0,1.114-0.494,1.114-1.113v-3.432C62.388,68.534,61.887,68.04,61.274,68.04z"/>
		<path fill="#194F82" d="M79.371,69.753h-6.094c-0.613,0-1.113,0.494-1.113,1.113c0,0.612,0.494,1.113,1.113,1.113h6.094
			c0.612,0,1.112-0.494,1.112-1.113C80.49,70.254,79.983,69.753,79.371,69.753z"/>
		<path fill="#194F82" d="M56.564,80.63c-0.613,0-1.113,0.493-1.113,1.112v3.433c0,0.612,0.494,1.113,1.113,1.113
			c0.62,0,1.113-0.494,1.113-1.113v-3.433C57.677,81.123,57.183,80.63,56.564,80.63z"/>
		<path fill="#194F82" d="M61.274,80.63c-0.613,0-1.113,0.493-1.113,1.112v3.433c0,0.612,0.494,1.113,1.113,1.113
			c0.612,0,1.114-0.494,1.114-1.113v-3.433C62.388,81.123,61.887,80.63,61.274,80.63z"/>
		<path fill="#194F82" d="M79.371,82.349h-6.094c-0.613,0-1.113,0.494-1.113,1.113s0.494,1.113,1.113,1.113h6.094
			c0.612,0,1.112-0.494,1.112-1.113C80.49,82.843,79.983,82.349,79.371,82.349z"/>
	</g>
</g>
</svg>
