<?xml version="1.0" encoding="utf-8"?>
<!-- Generator: Adobe Illustrator 16.0.0, SVG Export Plug-In . SVG Version: 6.00 Build 0)  -->
<!DOCTYPE svg PUBLIC "-//W3C//DTD SVG 1.1//EN" "http://www.w3.org/Graphics/SVG/1.1/DTD/svg11.dtd">
<svg version="1.1" id="Layer_1" xmlns="http://www.w3.org/2000/svg" xmlns:xlink="http://www.w3.org/1999/xlink" x="0px" y="0px"
	 width="141.732px" height="141.732px" viewBox="0 0 141.732 141.732" enable-background="new 0 0 141.732 141.732"
	 xml:space="preserve">
<g>
	<g>
		<path fill="#2C2F33" d="M111.235,53.52h2.342c3.846,0,6.938,3.122,6.938,6.938v10.898c0,0.693-0.346,1.33-0.924,1.705
			c-0.811,0.521-1.271,1.416-1.271,2.371v10.492c0,1.301,0.723,2.43,1.879,3.008c1.357,0.664,8.412,4.221,14.945,9.598
			c0.549,0.463,0.865,1.127,0.865,1.879v7.457c0,1.59,1.271,2.861,2.861,2.861c1.592,0,2.863-1.271,2.863-2.861v-7.457
			c0-2.457-1.07-4.74-2.979-6.303c-5.754-4.74-11.91-8.15-14.742-9.627v-7.717c1.387-1.445,2.195-3.354,2.195-5.407V60.458
			c0-6.996-5.693-12.662-12.66-12.662h-2.342c-6.996,0-12.662,5.695-12.662,12.662v10.897c0,2.053,0.811,3.961,2.197,5.407v3.729
			c0,1.59,1.271,2.861,2.861,2.861s2.861-1.271,2.861-2.861v-5.029c0-0.953-0.492-1.85-1.271-2.371
			c-0.578-0.375-0.926-1.012-0.926-1.705V60.489C104.268,56.642,107.389,53.52,111.235,53.52z"/>
		<path fill="#2C2F33" d="M2.977,94.135c-1.879,1.561-2.978,3.844-2.978,6.301v7.459c0,1.59,1.271,2.861,2.862,2.861
			c1.59,0,2.861-1.271,2.861-2.861v-7.459c0-0.723,0.318-1.416,0.867-1.879c6.533-5.348,13.586-8.932,14.945-9.598
			c1.155-0.578,1.879-1.705,1.879-3.006V75.46c0-0.953-0.492-1.85-1.272-2.369c-0.578-0.377-0.925-1.012-0.925-1.705V60.488
			c0-3.846,3.122-6.938,6.938-6.938h2.341c3.845,0,6.938,3.122,6.938,6.938v10.898c0,0.693-0.347,1.328-0.925,1.705
			c-0.809,0.521-1.271,1.416-1.271,2.369v5.262c0,1.59,1.271,2.861,2.861,2.861c1.589,0,2.862-1.271,2.862-2.861V76.79
			c1.387-1.445,2.197-3.354,2.197-5.404V60.488c0-6.996-5.695-12.661-12.662-12.661h-2.341c-6.996,0-12.662,5.694-12.662,12.661
			v10.898c0,2.051,0.81,3.959,2.196,5.404v7.719C14.887,85.981,8.73,89.423,2.977,94.135z"/>
		<path fill="#3C92CA" d="M105.28,110.757c1.59,0,2.861-1.271,2.861-2.861v-9.654c0-2.92-1.271-5.639-3.525-7.486
			c-7.719-6.361-15.986-10.871-19.367-12.604v-10.87c1.791-1.734,2.832-4.105,2.832-6.649V46.527
			c0-8.586-6.996-15.552-15.553-15.552h-3.035c-8.585,0-15.553,6.996-15.553,15.552v14.105c0,2.544,1.041,4.915,2.833,6.649v10.87
			c-3.382,1.732-11.648,6.242-19.367,12.604c-2.256,1.85-3.527,4.566-3.527,7.486v9.654c0,1.59,1.271,2.861,2.862,2.861
			c1.59,0,2.861-1.271,2.861-2.861v-9.654c0-1.188,0.521-2.312,1.445-3.064c8.528-6.996,17.749-11.648,19.512-12.518
			c1.214-0.578,1.966-1.791,1.966-3.121V65.951c0-0.954-0.49-1.851-1.271-2.37c-0.983-0.665-1.562-1.734-1.562-2.919V46.556
			c0-5.436,4.423-9.829,9.828-9.829h3.037c5.436,0,9.828,4.423,9.828,9.829v14.106c0,1.156-0.578,2.254-1.561,2.919
			c-0.811,0.52-1.273,1.417-1.273,2.37v13.586c0,1.33,0.752,2.543,1.967,3.15c1.764,0.867,10.984,5.521,19.514,12.518
			c0.924,0.752,1.443,1.879,1.443,3.062v9.656C102.419,109.485,103.69,110.757,105.28,110.757z"/>
	</g>
</g>
</svg>
