<?xml version="1.0" encoding="utf-8"?>
<!-- Generator: Adobe Illustrator 16.0.0, SVG Export Plug-In . SVG Version: 6.00 Build 0)  -->
<!DOCTYPE svg PUBLIC "-//W3C//DTD SVG 1.1//EN" "http://www.w3.org/Graphics/SVG/1.1/DTD/svg11.dtd">
<svg version="1.1" id="Capa_1" xmlns="http://www.w3.org/2000/svg" xmlns:xlink="http://www.w3.org/1999/xlink" x="0px" y="0px"
	 width="141.732px" height="141.732px" viewBox="0 -1.256 141.732 141.732" enable-background="new 0 -1.256 141.732 141.732"
	 xml:space="preserve">
<g>
	<g>
		<g>
			<path fill="#3C92CA" d="M12.579,92.945c0,0,1.749-5.341-2.435-10.223c-4.067-4.992-9.762-5.459-9.762-5.459
				s-1.739,6.269,2.205,11.036C6.659,93.18,12.579,92.945,12.579,92.945z"/>
			<path fill="#3C92CA" d="M29.425,83.998c1.396-6.16-3.136-10.806-3.136-10.806s-4.763,2.91-6.275,9.178
				c-1.396,6.39,2.562,10.222,2.562,10.222S28.033,90.161,29.425,83.998z"/>
			<path fill="#3C92CA" d="M29.307,108.86c0,0,5.115-3.142,5.699-9.413c0.583-6.272-4.532-10.454-4.532-10.454
				s-4.415,3.601-4.999,9.995C24.898,105.49,29.307,108.86,29.307,108.86z"/>
			<path fill="#3C92CA" d="M45.229,108.748c0-6.282-5.459-9.885-5.459-9.885s-4.073,3.955-4.073,10.458
				c0.113,6.512,4.763,9.412,4.763,9.412S45.229,115.131,45.229,108.748z"/>
			<path fill="#3C92CA" d="M54.753,127.56c0,0,3.49-4.761,1.623-10.802c-1.857-6.041-8.016-8.011-8.016-8.011
				s-2.784,4.987-0.926,11.146C49.412,126.167,54.753,127.56,54.753,127.56z"/>
			<path fill="#3C92CA" d="M15.719,79.353c0,0,4.415-3.484,3.715-9.875c-0.702-6.506-5.112-9.991-5.112-9.991
				s-4.997,4.185-4.302,10.452C10.722,76.212,15.719,79.353,15.719,79.353z"/>
			<path fill="#3C92CA" d="M17.225,105.49c0,0,0-5.571-5.458-9.062c-5.341-3.603-10.917-2.32-10.917-2.32s0.112,6.504,5.459,9.985
				C11.54,107.469,17.225,105.49,17.225,105.49z"/>
			<path fill="#3C92CA" d="M25.946,116.871c0,0-1.166-5.458-7.208-7.664c-6.159-2.21-11.152,0.23-11.152,0.23
				s1.515,6.277,7.434,8.481C20.944,120.125,25.946,116.871,25.946,116.871z"/>
			<path fill="#3C92CA" d="M36.05,125.241c0,0-2.787-4.758-9.178-5.115c-6.501-0.229-10.568,3.603-10.568,3.603
				s3.366,5.576,9.642,5.929C32.218,129.891,36.05,125.241,36.05,125.241z"/>
			<path fill="#3C92CA" d="M40.348,128.725c-6.391,0.465-9.991,4.877-9.991,4.877s3.949,4.996,10.225,4.531
				c6.277-0.468,9.526-5.457,9.526-5.457S46.859,128.264,40.348,128.725z"/>
			<path fill="#3C92CA" d="M17.695,82.6l-3.136-0.347c0,0.347-3.136,33.688,46.236,52.276l1.043-2.905
				C14.906,113.975,17.459,83.878,17.695,82.6z"/>
			<path fill="#3C92CA" d="M129.108,92.945c0,0,5.924,0.235,9.991-4.527c4.066-4.886,2.21-11.146,2.21-11.146
				s-5.698,0.465-9.761,5.458C127.368,87.715,129.108,92.945,129.108,92.945z"/>
			<path fill="#3C92CA" d="M119.117,92.709c0,0,3.948-3.945,2.553-10.333c-1.504-6.274-6.267-9.18-6.267-9.18
				s-4.534,4.645-3.137,10.805C113.657,90.161,119.117,92.709,119.117,92.709z"/>
			<path fill="#3C92CA" d="M112.38,108.86c0,0,4.414-3.37,3.832-9.762c-0.58-6.507-4.992-9.985-4.992-9.985
				s-5.116,4.067-4.528,10.334C107.265,105.718,112.38,108.86,112.38,108.86z"/>
			<path fill="#3C92CA" d="M96.464,108.86c0,6.271,4.765,9.873,4.765,9.873s4.644-2.904,4.763-9.41c0-6.505-4.073-10.46-4.073-10.46
				S96.576,102.465,96.464,108.86z"/>
			<path fill="#3C92CA" d="M85.312,116.758c-1.861,6.041,1.622,10.802,1.622,10.802s5.347-1.394,7.32-7.544
				c1.855-6.281-0.927-11.152-0.927-11.152S87.169,110.717,85.312,116.758z"/>
			<path fill="#3C92CA" d="M125.973,79.353c0,0,5.114-3.137,5.696-9.414c0.694-6.272-4.302-10.452-4.302-10.452
				s-4.415,3.484-5.111,9.991C121.557,75.869,125.973,79.353,125.973,79.353z"/>
			<path fill="#3C92CA" d="M129.927,96.428c-5.465,3.6-5.352,9.062-5.352,9.062s5.582,2.096,10.809-1.396
				c5.343-3.481,5.46-9.873,5.46-9.873S135.267,92.945,129.927,96.428z"/>
			<path fill="#3C92CA" d="M122.953,109.212c-6.042,2.318-7.203,7.662-7.203,7.662s4.994,3.256,10.928,1.051
				c5.919-2.207,7.434-8.482,7.434-8.482S129.108,107.001,122.953,109.212z"/>
			<path fill="#3C92CA" d="M105.643,125.353c0,0,3.835,4.532,10.106,4.308c6.276-0.353,9.64-5.929,9.64-5.929
				s-4.063-3.832-10.565-3.483C108.43,120.483,105.643,125.353,105.643,125.353z"/>
			<path fill="#3C92CA" d="M101.339,128.725c-6.506-0.468-9.754,3.951-9.754,3.951s3.252,5.107,9.523,5.575
				c6.272,0.463,10.222-4.655,10.222-4.655S107.73,129.19,101.339,128.725z"/>
			<path fill="#3C92CA" d="M127.138,82.253l-3.142,0.347c0.24,1.278,2.789,31.375-44.145,49.028l1.049,2.907
				C130.268,115.941,127.138,82.6,127.138,82.253z"/>
		</g>
	</g>
	<path fill="#2C2F33" d="M116.239,39.783c2.088-2.021,2.826-5.002,1.925-7.781c-0.902-2.77-3.25-4.749-6.123-5.172L90.48,23.705
		c-0.523-0.081-0.984-0.405-1.215-0.885L79.628,3.294c-1.289-2.609-3.895-4.231-6.809-4.231c-2.909,0-5.519,1.622-6.806,4.231
		l-9.638,19.53c-0.235,0.479-0.687,0.803-1.219,0.883L33.6,26.839c-2.883,0.414-5.229,2.393-6.13,5.167
		c-0.893,2.769-0.161,5.75,1.922,7.776l15.596,15.206c0.381,0.372,0.555,0.908,0.466,1.429l-3.681,21.472
		c-0.495,2.872,0.663,5.714,3.013,7.421c1.307,0.951,2.851,1.467,4.458,1.467c1.222,0,2.451-0.312,3.537-0.885L72.058,75.75
		c0.473-0.245,1.051-0.245,1.505,0l19.282,10.142c2.528,1.325,5.697,1.095,7.986-0.582c2.356-1.702,3.509-4.543,3.023-7.421
		l-3.688-21.466c-0.093-0.522,0.086-1.058,0.473-1.425L116.239,39.783z M48.302,80.479c-0.513-0.375-0.752-0.95-0.64-1.578
		l3.682-21.473c0.419-2.458-0.395-4.969-2.187-6.723L33.557,35.5c-0.456-0.438-0.602-1.043-0.404-1.655
		c0.198-0.603,0.672-1.001,1.302-1.096l21.563-3.136c2.472-0.366,4.612-1.914,5.712-4.151l9.639-19.541
		c0.562-1.138,2.335-1.138,2.903,0.005l9.639,19.531c1.1,2.232,3.234,3.79,5.712,4.155l21.567,3.136
		c0.629,0.089,1.099,0.489,1.302,1.096c0.197,0.606,0.051,1.212-0.41,1.655L96.488,50.704c-1.787,1.744-2.604,4.25-2.181,6.723
		l3.685,21.47c0.1,0.628-0.127,1.201-0.646,1.578c-0.505,0.366-1.157,0.414-1.702,0.122L76.36,70.458
		c-1.086-0.57-2.311-0.871-3.53-0.871c-1.234,0-2.457,0.306-3.529,0.884L50.028,80.597C49.454,80.904,48.82,80.843,48.302,80.479z"
		/>
</g>
</svg>
