<?xml version="1.0" encoding="utf-8"?>
<!-- Generator: Adobe Illustrator 16.0.0, SVG Export Plug-In . SVG Version: 6.00 Build 0)  -->
<!DOCTYPE svg PUBLIC "-//W3C//DTD SVG 1.1//EN" "http://www.w3.org/Graphics/SVG/1.1/DTD/svg11.dtd">
<svg version="1.1" id="Layer_1" xmlns="http://www.w3.org/2000/svg" xmlns:xlink="http://www.w3.org/1999/xlink" x="0px" y="0px"
	 width="141.732px" height="141.732px" viewBox="0 0 141.732 141.732" enable-background="new 0 0 141.732 141.732"
	 xml:space="preserve">
<g>
	<g>
		<path fill="#3C92CA" d="M0.285,72.55c0.347,0.694,0.926,1.215,1.648,1.446l18.111,6.22c0.318,0.116,0.607,0.146,0.926,0.146
			c1.187,0,2.314-0.752,2.719-1.938l14.205-41.458l0.724,0.262c3.674,1.302,7.782,1.069,11.282-0.638l1.766-0.868
			c2.112-1.012,4.571-1.186,6.77-0.404l33.039,11.398c-0.347,1.273-1.013,2.749-2.17,3.558c-1.33,0.927-3.385,0.927-6.074,0
			l-14.812-5.062c-0.752-0.261-1.591-0.174-2.285,0.202c-0.695,0.376-1.215,1.042-1.418,1.794
			c-0.029,0.087-2.112,7.725-8.535,11.167c-4.05,2.17-9.113,2.228-15.044,0.203c-1.504-0.521-3.125,0.29-3.645,1.794
			c-0.521,1.504,0.289,3.125,1.793,3.645c3.472,1.187,6.77,1.794,9.836,1.794c3.559,0,6.828-0.81,9.808-2.4
			c5.786-3.125,8.854-8.506,10.271-11.833l12.15,4.166c4.514,1.532,8.273,1.302,11.195-0.725c4.602-3.182,4.919-9.401,4.947-10.097
			c0.029-1.244-0.752-2.372-1.938-2.806l-35.294-12.18c-3.646-1.244-7.696-1.014-11.167,0.693l-1.765,0.868
			c-2.142,1.042-4.629,1.187-6.857,0.405l-2.922-1.042c-0.173-0.115-0.347-0.202-0.55-0.26l-18.024-6.278
			c-1.504-0.521-3.125,0.29-3.645,1.793L0.141,70.38C-0.091,71.074-0.034,71.854,0.285,72.55z M19.842,30.658l12.672,4.339
			L19.206,73.85L6.534,69.511L19.842,30.658z"/>
		<path fill="#2C2F33" d="M30.113,98.79c1.417,2.893,4.253,4.57,7.262,4.687c0,1.244,0.289,2.518,0.839,3.675
			c0.984,2.024,2.69,3.529,4.832,4.253c0.896,0.317,1.822,0.463,2.719,0.463c1.273,0,2.518-0.289,3.674-0.868l1.504-0.752
			c0.116,0.868,0.376,1.765,0.781,2.604c0.984,2.025,2.69,3.53,4.831,4.253c0.897,0.318,1.823,0.464,2.72,0.464
			c1.273,0,2.518-0.289,3.675-0.867l32.894-16.115c7.35-3.587,14.118-8.216,20.137-13.742l7.349-6.74l16.809-8.217
			c1.417-0.693,1.996-2.4,1.303-3.817L120.955,26.03c-0.347-0.694-0.926-1.215-1.648-1.447c-0.724-0.26-1.505-0.203-2.198,0.146
			l-17.186,8.419c-1.418,0.693-1.996,2.4-1.302,3.818l19.615,40.097l-6.076,5.584c-5.612,5.149-11.948,9.46-18.775,12.816
			L60.49,111.577c-0.638,0.317-1.36,0.347-2.055,0.115c-0.666-0.23-1.215-0.724-1.532-1.359c-0.318-0.637-0.349-1.359-0.116-2.054
			c0.23-0.666,0.723-1.217,1.358-1.534l18.4-8.997c1.417-0.694,1.996-2.401,1.302-3.818c-0.693-1.418-2.4-1.997-3.818-1.303
			l-18.399,8.998l0,0l-8.679,4.253c-0.638,0.318-1.36,0.347-2.055,0.115c-0.665-0.231-1.215-0.724-1.532-1.359
			c-0.318-0.636-0.348-1.359-0.116-2.055c0.231-0.665,0.724-1.215,1.36-1.533l26.385-12.902c1.417-0.694,1.997-2.4,1.301-3.818
			s-2.401-1.996-3.819-1.303L38.823,97.516c-1.331,0.638-2.922,0.087-3.587-1.215c-0.318-0.637-0.348-1.359-0.116-2.055
			c0.23-0.665,0.723-1.215,1.359-1.533l11.688-5.728l0,0l15.188-7.437c1.417-0.694,1.996-2.4,1.303-3.819
			c-0.694-1.417-2.401-1.995-3.819-1.302L37.202,86.001c-1.331,0.637-2.922,0.087-3.587-1.215c-0.637-1.331-0.087-2.922,1.215-3.588
			l12.556-6.134c1.418-0.693,1.997-2.4,1.302-3.818c-0.693-1.417-2.4-1.997-3.818-1.302l-12.557,6.133
			c-4.166,2.024-5.901,7.088-3.848,11.254c0.579,1.187,1.389,2.141,2.372,2.922C29.1,92.598,28.696,95.926,30.113,98.79z
			 M105.013,37.024l12.035-5.902l18.054,36.887l-12.035,5.902L105.013,37.024z"/>
	</g>
</g>
</svg>
