<?xml version="1.0" encoding="utf-8"?>
<!-- Generator: Adobe Illustrator 15.1.0, SVG Export Plug-In . SVG Version: 6.00 Build 0)  -->
<!DOCTYPE svg PUBLIC "-//W3C//DTD SVG 1.1//EN" "http://www.w3.org/Graphics/SVG/1.1/DTD/svg11.dtd">
<svg version="1.1" id="Layer_1" xmlns="http://www.w3.org/2000/svg" xmlns:xlink="http://www.w3.org/1999/xlink" x="0px" y="0px"
	 width="500px" height="500px" viewBox="0 0 500 500" enable-background="new 0 0 500 500" xml:space="preserve">
<g>
	<path fill="#010101" d="M-1255.727-694.129l-2.45-0.5l1.01-4.899l4.9,1.01l-1.01,4.899
		C-1255.727-694.129-1253.276-693.62-1255.727-694.129z M-1267.556-696.98l-2.41-0.67l1.34-4.819l4.81,1.34l-1.34,4.819
		C-1267.556-696.98-1265.156-696.31-1267.556-696.98z M-1175.176-701.49l4.81-1.369l1.37,4.81l-4.811,1.37
		C-1175.176-701.49-1173.807-696.679-1175.176-701.49z M-1163.866-704.949l4.71-1.691l1.689,4.701l-4.709,1.689
		C-1163.866-704.949-1162.176-700.25-1163.866-704.949z M-1371.816-775.839L-1371.816-775.839l-1.3-2.141l4.27-2.6l2.6,4.28
		l-4.27,2.601C-1371.816-775.839-1370.517-773.699-1371.816-775.839z M-1377.776-786.439l-1.14-2.221l4.44-2.3l2.29,4.44l-4.44,2.3
		C-1377.776-786.439-1376.626-784.219-1377.776-786.439z M-1382.986-797.429l-0.99-2.29l4.58-1.99l1.99,4.59l-4.59,1.979
		C-1382.986-797.429-1381.997-795.14-1382.986-797.429z M-1062.326-798.31l1.96-4.6l4.6,1.961l-1.96,4.6
		C-1062.326-798.31-1057.727-796.349-1062.326-798.31z M-1387.426-808.759l-0.84-2.35l4.72-1.67l0.83,2.359l0,0l0.83,2.359
		l-4.71,1.66C-1387.426-808.759-1386.596-806.4-1387.426-808.759z M-1057.906-809.29l1.64-4.72l4.72,1.64l-0.819,2.36l0,0
		l-0.82,2.359C-1057.906-809.29-1053.187-807.65-1057.906-809.29z M-1054.256-820.54l1.31-4.83l4.83,1.31l-1.31,4.83
		C-1054.256-820.54-1049.426-819.23-1054.256-820.54z M-1051.387-832.019l0.98-4.9l4.9,0.971l-0.971,4.899
		C-1051.387-832.019-1046.477-831.049-1051.387-832.019z M-1049.316-843.669l0.63-4.96l4.97,0.63l-0.64,4.96
		C-1049.316-843.669-1044.356-843.04-1049.316-843.669z M-1396.876-851.959l-0.23-2.489l4.98-0.461l0.23,2.49l0,0l0.23,2.49
		l-4.98,0.46C-1396.876-851.959-1396.646-849.469-1396.876-851.959z M-1048.057-855.429l0.29-4.99l4.99,0.29l-0.28,4.989
		C-1048.057-855.429-1043.057-855.14-1048.057-855.429z M-1397.576-864.109L-1397.576-864.109l-0.06-2.5l5-0.12l0.12,5l-5,0.12
		C-1397.576-864.109-1397.517-861.609-1397.576-864.109z M-1047.637-869.739l-0.029-2.5l5-0.06l0.06,5l-5,0.06
		C-1047.637-869.739-1047.606-867.239-1047.637-869.739z M-1397.556-873.779l0.23-4.99l4.99,0.22l-0.22,5
		C-1397.556-873.779-1392.556-873.549-1397.556-873.779z M-1048.176-881.56l-0.201-2.49l4.99-0.4l0.4,4.99l-4.99,0.39
		C-1048.176-881.56-1047.977-879.069-1048.176-881.56z M-1396.756-885.919l0.57-4.97l4.97,0.57l-0.57,4.97
		C-1396.756-885.919-1391.786-885.35-1396.756-885.919z M-1049.517-893.31l-0.36-2.47l4.94-0.74l0.37,2.47l0,0l0.37,2.48l-4.95,0.73
		C-1049.517-893.31-1049.146-890.839-1049.517-893.31z M-1395.116-897.989l0.45-2.46l0,0l0.46-2.46l4.92,0.91l-0.46,2.46l0,0
		l-0.46,2.46C-1395.116-897.989-1390.207-897.08-1395.116-897.989z M-1051.646-904.949h0.01l-0.539-2.44l4.89-1.06l1.06,4.88
		l-4.88,1.07C-1051.646-904.949-1051.106-902.5-1051.646-904.949z M-1392.656-909.919l0.63-2.42l0,0l0.62-2.42l4.84,1.25l-1.25,4.84
		C-1392.656-909.919-1387.816-908.669-1392.656-909.919z M-1054.557-916.41l-0.689-2.39l4.8-1.4l0.69,2.4c0,0,0,0,0.01,0l0.689,2.4
		l-4.8,1.4C-1054.557-916.41-1053.856-914-1054.557-916.41z M-1389.366-921.649l1.58-4.74l4.74,1.58l-1.58,4.74
		C-1389.366-921.649-1384.626-920.069-1389.366-921.649z M-1058.236-927.64L-1058.236-927.64l-0.859-2.34l4.689-1.73l0.859,2.35l0,0
		l0.86,2.35l-4.69,1.72C-1058.236-927.64-1057.377-925.29-1058.236-927.64z M-1385.286-933.12l1.9-4.62l4.63,1.9l-1.91,4.63
		C-1385.286-933.12-1380.667-931.209-1385.286-933.12z M-1380.426-944.279l2.21-4.48l4.48,2.22l-2.21,4.48
		C-1380.426-944.279-1375.946-942.06-1380.426-944.279z M-1374.816-955.08l2.51-4.32l4.32,2.52l-1.26,2.16l0,0l-1.25,2.16
		C-1374.816-955.08-1370.497-952.56-1374.816-955.08z M-1073.807-959.429l-1.32-2.12l4.24-2.65l2.65,4.24l-4.24,2.65
		C-1073.807-959.429-1072.477-957.31-1073.807-959.429z M-1368.486-965.469l2.8-4.14l4.14,2.81l-2.8,4.14
		C-1368.486-965.469-1364.346-962.66-1368.486-965.469z M-1080.406-969.229l-1.471-2.02l4.051-2.94l1.47,2.03l0,0l1.47,2.02
		l-4.05,2.94C-1080.406-969.229-1078.937-967.199-1080.406-969.229z M-1361.466-975.399l3.08-3.94l3.94,3.08l-3.08,3.94
		C-1361.466-975.399-1357.526-972.319-1361.466-975.399z M-1087.666-978.549l-1.61-1.92l3.84-3.2l1.601,1.92c0,0,0,0,0-0.01
		l1.609,1.92l-3.84,3.21C-1087.666-978.549-1086.066-976.629-1087.666-978.549z M-1353.776-984.839l3.34-3.72l3.72,3.35l-3.34,3.72
		C-1353.776-984.839-1350.056-981.489-1353.776-984.839z M-1095.557-987.35L-1095.557-987.35l-1.729-1.81l3.61-3.46l3.459,3.61
		l-3.609,3.46C-1095.557-987.35-1093.826-985.549-1095.557-987.35z M-1345.466-993.719l1.79-1.74l0,0l1.79-1.74l3.49,3.58
		l-3.59,3.49C-1345.466-993.719-1341.986-990.129-1345.466-993.719z M-1104.026-995.6l-1.851-1.68l3.36-3.7l1.851,1.68l0,0
		l1.85,1.68l-3.359,3.7C-1104.026-995.6-1102.176-993.919-1104.026-995.6z M-1336.576-1002.02l3.82-3.23l3.23,3.82l-3.82,3.23
		C-1336.576-1002.02-1333.346-998.199-1336.576-1002.02z M-1113.047-1003.25l-1.959-1.55l3.109-3.92l3.92,3.1l-3.109,3.92
		C-1113.047-1003.25-1111.086-1001.699-1113.047-1003.25z M-1327.136-1009.679l4.03-2.97l2.96,4.03l-4.03,2.96
		C-1327.136-1009.679-1324.176-1005.659-1327.136-1009.679z M-1122.557-1010.27l-2.07-1.41l2.83-4.12l4.131,2.83l-2.83,4.12
		C-1122.557-1010.27-1120.496-1008.85-1122.557-1010.27z M-1317.196-1016.679l4.23-2.68l2.67,4.22l-4.22,2.68
		C-1317.196-1016.679-1314.517-1012.459-1317.196-1016.679z M-1132.536-1016.62l-2.15-1.27l2.54-4.31l4.311,2.54l-2.541,4.31
		C-1132.536-1016.62-1130.377-1015.35-1132.536-1016.62z M-1306.796-1022.979l4.4-2.38l2.38,4.39l-4.4,2.38
		C-1306.796-1022.979-1304.417-1018.589-1306.796-1022.979z M-1142.916-1022.279l-2.24-1.12l2.24-4.47l4.47,2.24l-2.24,4.47
		C-1142.916-1022.279-1140.687-1021.159-1142.916-1022.279z M-1295.977-1028.549l2.28-1.04c0,0,0,0-0.01,0l2.28-1.03l2.07,4.55
		l-4.55,2.07C-1295.977-1028.549-1293.906-1024-1295.977-1028.549z M-1153.666-1027.219L-1153.666-1027.219l-2.311-0.97l1.93-4.61
		l4.621,1.93l-1.94,4.61C-1153.666-1027.219-1151.366-1026.259-1153.666-1027.219z M-1284.806-1033.37l4.69-1.75l1.75,4.69
		l-4.68,1.75C-1284.806-1033.37-1283.046-1028.679-1284.806-1033.37z M-1273.316-1037.39l4.79-1.43l1.42,4.79l-4.79,1.43
		C-1273.316-1037.39-1271.896-1032.6-1273.316-1037.39z M-1261.596-1040.629l2.44-0.55c0,0,0,0,0,0.01l2.44-0.55l1.1,4.88
		l-4.88,1.09C-1261.596-1040.629-1260.497-1035.75-1261.596-1040.629z M-1187.596-1037.469l-2.451-0.47l0.94-4.91l4.91,0.95
		l-0.94,4.91C-1187.596-1037.469-1185.137-1036.989-1187.596-1037.469z M-1249.676-1043.06l4.95-0.76l0.76,4.94l-4.94,0.77
		C-1249.676-1043.06-1248.906-1038.109-1249.676-1043.06z M-1199.286-1039.299l-2.48-0.3l0.601-4.96l2.49,0.3c0,0,0,0-0.011,0
		l2.49,0.3l-0.601,4.97C-1199.286-1039.299-1196.797-1038.989-1199.286-1039.299z M-1237.616-1044.669l2.5-0.22l0,0l2.49-0.21
		l0.42,4.98l-4.98,0.43C-1237.616-1044.669-1237.187-1039.689-1237.616-1044.669z M-1211.057-1040.31l-2.5-0.13l0.26-5l4.99,0.26
		l-0.26,5C-1211.057-1040.31-1208.566-1040.179-1211.057-1040.31z M-1225.466-1045.469l5-0.09l0.08,5l-5,0.09
		C-1225.466-1045.469-1225.386-1040.469-1225.466-1045.469z"/>
	<g>
		<rect x="-1368.251" y="-815.198" width="5.737" height="5.732"/>
		<rect x="-1356.778" y="-815.198" width="5.735" height="5.732"/>
		<rect x="-1345.308" y="-815.198" width="5.735" height="5.732"/>
	</g>
	<g>
		<path d="M-1246.625-691.971l44.968,20.772c0.959,0.444,2.055,0.038,2.498-0.92l14.016-30.343c0.443-0.957,0.041-2.052-0.918-2.495
			l-13.047-6.025l2.369-5.127c0.442-0.96,0.041-2.055-0.918-2.497l-15.421-7.124c-0.958-0.443-2.058-0.041-2.501,0.919l-2.386,5.165
			l-13.084-6.044c-0.958-0.443-2.057-0.037-2.499,0.921l-14.017,30.34C-1247.945-693.494-1247.542-692.396-1246.625-691.971
			L-1246.625-691.971z M-1212.945-721.524l12.001,5.544l-1.598,3.459l-12.001-5.545L-1212.945-721.524z M-1230.901-721.523
			l12.67,5.852c0.105,0.102,0.23,0.157,0.357,0.217c0.123,0.057,0.247,0.114,0.393,0.132l14.671,6.775
			c0.104,0.101,0.23,0.158,0.354,0.216c0.125,0.059,0.25,0.116,0.396,0.131l12.668,5.853l-5.43,11.752l-11.295-5.217l0.943-2.042
			c0.443-0.959,0.041-2.053-0.918-2.497c-0.958-0.443-2.055-0.04-2.498,0.92l-0.943,2.04l-12.002-5.544l0.943-2.041
			c0.443-0.96,0.039-2.056-0.92-2.499s-2.057-0.04-2.5,0.919l-0.943,2.041l-11.377-5.255L-1230.901-721.523z M-1237.908-706.354
			l11.376,5.256l-0.886,1.917c-0.442,0.958-0.038,2.057,0.921,2.5c0.958,0.442,2.056,0.038,2.499-0.921l0.886-1.916l12.003,5.545
			l-0.887,1.916c-0.443,0.959-0.038,2.057,0.92,2.5c0.959,0.441,2.055,0.037,2.497-0.921l0.886-1.918l11.378,5.257l-5.431,11.753
			l-41.592-19.215L-1237.908-706.354z M-1237.908-706.354"/>
	</g>
	<g>
		<path d="M-1338.463-717.48l-23.777-23.777v-22.615c0-3.611-2.938-6.551-6.55-6.551c-3.611,0-6.549,2.939-6.549,6.551v41.166
			c0,0.419,0.141,0.824,0.396,1.152l16.445,21.012v14.326c0,1.031,0.838,1.87,1.87,1.87h16.842c1.032,0,1.871-0.839,1.871-1.87
			v-29.94C-1337.915-716.653-1338.112-717.13-1338.463-717.48L-1338.463-717.48z M-1341.658-688.089h-13.099v-13.1
			c0-0.418-0.138-0.82-0.396-1.15l-16.444-21.012v-40.521c0-1.549,1.259-2.809,2.806-2.809s2.808,1.26,2.808,2.809v23.391
			c0,0.496,0.196,0.972,0.548,1.321l2.713,2.715c-2.964,0.876-5.132,3.624-5.132,6.869c0,1.915,0.744,3.714,2.098,5.066
			l11.547,11.549l2.646-2.649l-11.546-11.545c-0.647-0.648-1.004-1.506-1.004-2.421c0-1.886,1.536-3.421,3.423-3.421
			c0.911,0,1.767,0.353,2.414,0.995l16.618,16.618V-688.089z M-1341.658-688.089"/>
		<path d="M-1269.615-770.423c-3.613,0-6.551,2.939-6.551,6.551v22.615l-23.777,23.777c-0.351,0.35-0.548,0.827-0.548,1.323v29.94
			c0,1.031,0.838,1.87,1.871,1.87h16.841c1.032,0,1.871-0.839,1.871-1.87v-14.326l16.444-21.012
			c0.256-0.328,0.396-0.733,0.396-1.152v-41.166C-1263.066-767.484-1266.004-770.423-1269.615-770.423L-1269.615-770.423z
			 M-1266.809-723.351l-16.444,21.012c-0.257,0.33-0.396,0.732-0.396,1.15v13.1h-13.099v-27.295l16.62-16.618
			c0.645-0.643,1.502-0.995,2.412-0.995c1.888,0,3.423,1.535,3.423,3.421c0,0.915-0.356,1.772-1.003,2.421l-11.547,11.545
			l2.646,2.649l11.547-11.549c1.354-1.354,2.099-3.151,2.099-5.066c0-3.245-2.169-5.993-5.133-6.869l2.713-2.715
			c0.353-0.35,0.548-0.825,0.548-1.321v-23.391c0-1.549,1.26-2.809,2.808-2.809c1.547,0,2.806,1.26,2.806,2.809V-723.351z
			 M-1266.809-723.351"/>
		<rect x="-1302.362" y="-796.619" width="3.742" height="3.742"/>
		<rect x="-1294.877" y="-796.619" width="3.743" height="3.742"/>
		<rect x="-1287.392" y="-796.619" width="3.743" height="3.742"/>
		<rect x="-1354.757" y="-796.619" width="3.743" height="3.742"/>
		<rect x="-1347.271" y="-796.619" width="3.743" height="3.742"/>
		<rect x="-1339.785" y="-796.619" width="3.741" height="3.742"/>
		<path d="M-1317.333-783.474v-9.402h11.228v-3.742h-26.197v3.742h11.229v9.402c-12.73,0.504-22.455,6.047-22.455,13.051v33.682
			c0,7.346,10.685,13.1,24.326,13.1c13.641,0,24.325-5.754,24.325-13.1v-33.682C-1294.877-777.427-1304.603-782.97-1317.333-783.474
			L-1317.333-783.474z M-1298.62-736.742c0,4.429-8.454,9.356-20.583,9.356c-12.129,0-20.583-4.928-20.583-9.356v-4.174
			c4.269,3.657,11.804,6.045,20.583,6.045c8.778,0,16.313-2.388,20.583-6.045V-736.742z M-1298.62-747.968
			c0,4.426-8.454,9.356-20.583,9.356c-12.129,0-20.583-4.931-20.583-9.356v-4.174c4.269,3.656,11.804,6.045,20.583,6.045
			c8.778,0,16.313-2.389,20.583-6.045V-747.968z M-1298.62-759.195c0,4.426-8.454,9.357-20.583,9.357
			c-12.129,0-20.583-4.932-20.583-9.357v-4.176c4.269,3.658,11.804,6.045,20.583,6.045c8.778,0,16.313-2.387,20.583-6.045V-759.195z
			 M-1319.203-761.067c-12.129,0-20.583-4.931-20.583-9.356c0-4.193,7.594-8.831,18.712-9.307v7.437h-3.743v3.741h11.227v-3.741
			h-3.743v-7.437c11.118,0.476,18.713,5.113,18.713,9.307C-1298.62-765.998-1307.074-761.067-1319.203-761.067L-1319.203-761.067z
			 M-1319.203-761.067"/>
		<rect x="-1321.073" y="-719.901" width="3.742" height="3.744"/>
		<rect x="-1321.073" y="-712.416" width="3.742" height="3.744"/>
		<rect x="-1313.589" y="-712.416" width="3.743" height="3.744"/>
		<rect x="-1328.559" y="-712.416" width="3.743" height="3.744"/>
		<rect x="-1321.073" y="-704.93" width="3.742" height="3.743"/>
		<rect x="-1321.073" y="-697.445" width="3.742" height="3.744"/>
		<rect x="-1321.073" y="-689.96" width="3.742" height="3.744"/>
	</g>
	<g>
		<path d="M-1148.479-807.748l-4.396-1.764l0.956-1.063c15.099-16.794,23.413-38.495,23.413-61.108
			c0-18.444-5.479-36.237-15.844-51.457l-0.064-0.11c-0.082-0.16-0.184-0.306-0.303-0.435l-0.09-0.111
			c-4.53-6.531-9.893-12.449-15.936-17.59c-0.779-0.662-2.047-0.556-2.707,0.22c-0.686,0.806-0.588,2.021,0.219,2.708
			c4.959,4.217,9.458,8.999,13.369,14.212l0.789,1.053l-1.226,0.479c-6.188,2.418-13.61,4.48-22.056,6.128l-0.86,0.168l-0.278-0.831
			c-2.287-6.807-5.086-13.104-8.319-18.714c-4.362-7.564-9.383-13.703-14.923-18.245l0.908-1.735
			c8.832,2.525,17.189,6.426,24.841,11.595c0.854,0.575,2.096,0.329,2.667-0.516c0.592-0.878,0.361-2.074-0.516-2.667
			c-15.13-10.22-32.814-15.623-51.143-15.623c-24.433,0-47.403,9.515-64.68,26.791c-17.276,17.277-26.791,40.247-26.791,64.68
			c0,22.633,8.327,44.349,23.447,61.146l0.966,1.074l-4.345,1.701c-1.032,0.373-9.865,3.887-9.865,15.162v10.462
			c0,1.062,0.861,1.926,1.92,1.926h42.982c0.093,0,0.184-0.012,0.271-0.024l0.14-0.02l0.14,0.02c0.09,0.013,0.182,0.024,0.276,0.024
			h11.882c1.059,0,1.919-0.862,1.919-1.922c0-1.059-0.861-1.92-1.919-1.92h-9.962v-11.17c0-11.443,9.052-14.744,9.437-14.879
			l0.101-0.038l14.841-5.809l0.537,0.557l7.556,7.361c0.359,0.35,0.836,0.542,1.338,0.542c0.539-0.007,1.031-0.222,1.382-0.587
			l7.726-8.015l14.928,5.981c0.385,0.137,9.451,3.484,9.451,14.886v11.17h-48.208c-1.058,0-1.919,0.861-1.919,1.92
			c0,1.06,0.861,1.922,1.919,1.922h93.939c1.058,0,1.919-0.871,1.919-1.942v-10.445
			C-1138.647-803.849-1147.473-807.381-1148.479-807.748z M-1132.4-868.731c-0.709,21.341-9.178,41.649-23.844,57.187l-0.467,0.494
			l-4.139-1.656v-2.912l0.494-0.289c3.014-1.77,5.267-4.563,6.343-7.865l0.206-0.635l0.666-0.053
			c3.746-0.297,6.682-3.473,6.682-7.229c0-2.184-0.975-4.233-2.676-5.623l-0.367-0.3v-5.663c0-9.38-7.012-17.343-16.311-18.523
			l-0.924-0.118l0.051-0.93c0.113-2.036,0.188-4.033,0.223-5.936l0.019-0.981h34.077L-1132.4-868.731z M-1167.515-817.805h-2.663
			c-5.711,0-10.357-4.646-10.357-10.356v-8.623l0.893-0.098c3.519-0.382,10.172-1.65,15.199-5.851l0.91-0.759l0.596,1.023
			c1.365,2.343,3.117,4.027,5.206,5.008l0.575,0.271v9.028C-1157.156-822.451-1161.803-817.805-1167.515-817.805z
			 M-1164.688-814.208v3.152l-4.232,4.39l-4.08-3.973v-3.569l1.121,0.137c0.583,0.071,1.141,0.106,1.704,0.106h2.663
			c0.554,0,1.128-0.036,1.703-0.106L-1164.688-814.208z M-1182.986-840.462l-1.32,0.447l-0.107-1.357v-1.903
			c0-8.183,6.656-14.839,14.838-14.839h1.396c8.182,0,14.838,6.656,14.838,14.839v3.251l-1.508-0.475
			c-4.561-1.037-6.06-6.877-6.121-7.125c-0.172-0.754-0.756-1.326-1.492-1.477c-0.743-0.15-1.506,0.152-1.94,0.755
			c-5.583,7.719-17.917,7.808-18.042,7.808c-0.078,0-0.146,0.005-0.214,0.012l-0.173,0.025l-0.327-0.871L-1182.986-840.462z
			 M-1184.374-835.554v7.73l-1.542-0.994c-0.983-0.633-1.57-1.707-1.57-2.872c0-1.166,0.587-2.239,1.571-2.873L-1184.374-835.554z
			 M-1153.316-827.777v-7.826l1.582,1.133c0.898,0.644,1.436,1.683,1.436,2.78c0,1.099-0.537,2.138-1.436,2.781L-1153.316-827.777z
			 M-1171.01-912.951c9.031-1.793,16.902-4.05,23.396-6.707l0.767-0.313l0.45,0.696c8.623,13.319,13.461,28.755,13.994,44.638
			l0.035,1.034h-34.08l-0.018-0.982c-0.236-13.036-2.023-25.522-5.312-37.112l-0.296-1.042L-1171.01-912.951z M-1218.059-959.264
			l1.107,0.118c11.918,1.273,23.216,10.188,31.813,25.1c2.988,5.184,5.59,10.968,7.733,17.192l0.386,1.121l-1.17,0.191
			c-11.909,1.95-25.346,3.052-38.858,3.188l-1.011,0.01V-959.264z M-1218.059-908.501l0.99-0.01
			c14.01-0.14,27.953-1.313,40.324-3.393l0.879-0.147l0.248,0.856c3.281,11.367,5.068,23.671,5.311,36.573l0.02,1.019h-31.35
			l-0.307-0.329c-3.949-4.366-9.346-7.02-15.191-7.472l-0.924-0.071V-908.501z M-1218.91-877.639c10.499,0,19.04,8.542,19.04,19.04
			v5.607l-2.179-1.577l-0.293-0.091c-6.027-1.368-7.945-8.958-8.023-9.281c-0.17-0.751-0.754-1.322-1.491-1.472
			c-0.743-0.155-1.507,0.152-1.941,0.755c-7.124,9.85-22.796,9.963-22.954,9.963c-0.074,0-0.137,0.004-0.199,0.01l-0.231-0.975l0,0
			l0.123,0.992l-0.12,0.021l-0.415-0.925l0,0l0.276,0.96l-0.667,0.357l-1.672,1.518l-0.038-2.223v-3.641
			c0-10.499,8.541-19.04,19.039-19.04H-1218.91z M-1199.53-848.685c2.04,0.578,3.464,2.459,3.464,4.574
			c0,2.117-1.424,3.998-3.465,4.574l-1.271,0.359v-9.867L-1199.53-848.685z M-1238.683-849.031v9.839l-1.239-0.306
			c-2.129-0.525-3.616-2.422-3.616-4.613c0-2.188,1.486-4.086,3.615-4.613L-1238.683-849.031z M-1269.668-873.604l0.019-1.019
			c0.242-12.904,2.03-25.21,5.315-36.578l0.247-0.856l0.879,0.147c12.389,2.081,26.331,3.255,40.321,3.397l0.99,0.01v27.04
			l-0.907,0.085c-5.702,0.534-10.97,3.184-14.832,7.462l-0.339,0.375l-0.503-0.05c-0.074-0.007-0.149-0.014-0.225-0.014H-1269.668z
			 M-1221.896-959.264v46.922l-1.011-0.01c-13.489-0.138-26.925-1.243-38.854-3.197l-1.17-0.191l0.386-1.121
			c2.14-6.214,4.74-11.996,7.73-17.184c8.596-14.913,19.893-23.827,31.811-25.1L-1221.896-959.264z M-1290.056-924.238
			c11.433-15.207,27.732-26.457,45.896-31.678l0.911,1.734c-5.531,4.541-10.542,10.67-14.893,18.219
			c-3.237,5.613-6.035,11.907-8.317,18.707l-0.279,0.831l-0.86-0.168c-8.437-1.646-15.846-3.702-22.021-6.112l-1.228-0.479
			L-1290.056-924.238z M-1307.552-874.637c0.53-15.88,5.378-31.312,14.021-44.626l0.451-0.694l0.766,0.313
			c6.451,2.638,14.313,4.887,23.371,6.686l1.063,0.211l-0.296,1.042c-3.291,11.599-5.079,24.087-5.313,37.119l-0.018,0.982h-34.081
			L-1307.552-874.637z M-1269.388-817.805h-2.665c-5.71,0-10.356-4.646-10.356-10.356v-8.621l0.893-0.096
			c3.513-0.38,10.159-1.646,15.199-5.854l0.909-0.759l0.596,1.023c1.365,2.343,3.117,4.027,5.206,5.008l0.575,0.271v9.028
			C-1259.031-822.451-1263.677-817.805-1269.388-817.805z M-1266.566-814.208v3.153l-4.23,4.391l-4.081-3.974v-3.569l1.121,0.137
			c0.576,0.07,1.149,0.106,1.703,0.106h2.665c0.555,0,1.126-0.036,1.7-0.106L-1266.566-814.208z M-1262.853-847.656
			c-0.164-0.724-0.747-1.295-1.483-1.445c-0.742-0.149-1.508,0.152-1.94,0.752c-5.587,7.722-17.919,7.811-18.043,7.811
			c-0.08,0-0.147,0.005-0.216,0.012l-0.331,0.066l-1.334,0.474l-0.087-1.386v-1.903c0-8.183,6.657-14.839,14.839-14.839h1.397
			c8.182,0,14.838,6.656,14.838,14.839v3.286l-1.515-0.512C-1261.422-841.568-1262.839-847.595-1262.853-847.656z M-1286.25-835.554
			v7.729l-1.542-0.992c-0.984-0.633-1.572-1.707-1.572-2.872c0-1.166,0.588-2.24,1.572-2.874L-1286.25-835.554z M-1307.552-868.731
			l-0.034-1.033h34.078l0.018,0.982c0.035,1.933,0.11,3.944,0.224,5.976l0.051,0.915l-0.907,0.13
			c-9.125,1.313-16.007,9.26-16.007,18.485v5.645l-0.371,0.3c-1.718,1.391-2.703,3.446-2.703,5.642c0,3.799,2.973,6.976,6.768,7.231
			l0.674,0.045l0.209,0.643c1.078,3.303,3.33,6.095,6.343,7.863l0.494,0.289v2.899l-4.455,1.741l-0.463-0.488
			C-1298.35-827.017-1306.845-847.354-1307.552-868.731z M-1255.392-804.474c-1.356,2.773-2.043,5.886-2.043,9.251v11.17h-39.967
			v-8.546c0-8.842,6.978-11.426,7.274-11.531l0.131-0.045l11.589-4.541l6.316,6.15c0.36,0.35,0.836,0.543,1.339,0.543
			c0.538-0.008,1.031-0.222,1.383-0.586l5.994-6.222l8.457,3.39L-1255.392-804.474z M-1229.261-820.056l-16.133,6.316
			c-2.296,0.791-4.811,2.499-6.765,4.582l-0.468,0.498l-10.099-4.047v-2.912l0.494-0.289c3.013-1.768,5.266-4.562,6.344-7.865
			l0.207-0.635l0.665-0.053c3.748-0.297,6.684-3.473,6.684-7.229c0-2.183-0.976-4.232-2.677-5.623l-0.367-0.3v-5.663
			c0-9.643-7.524-17.817-17.129-18.609l-0.867-0.071l-0.05-0.868c-0.115-2.01-0.191-4.002-0.228-5.92l-0.019-1.019h28.989
			l-0.674,1.427c-1.448,3.063-2.182,6.339-2.182,9.738v7.312l-0.399,0.3c-2.189,1.645-3.445,4.15-3.445,6.877
			c0,4.666,3.796,8.521,8.463,8.593l0.734,0.011l0.209,0.705c1.273,4.301,4.261,8.021,8.197,10.21l0.514,0.286V-820.056z
			 M-1255.192-827.781v-7.814l1.58,1.122c0.901,0.64,1.438,1.681,1.438,2.783c0,1.101-0.537,2.14-1.438,2.782L-1255.192-827.781z
			 M-1214.064-818.109l-5.761,5.979l-5.596-5.45v-5.276l1.165,0.194c0.951,0.159,1.909,0.239,2.85,0.239h3.328
			c0.939,0,1.897-0.08,2.849-0.239l1.165-0.194V-818.109z M-1218.078-826.263h-3.328c-7.408,0-13.435-6.027-13.435-13.435v-11.221
			l0.908-0.083c4.7-0.434,13.552-2.027,20.03-7.842l0.953-0.855l0.599,1.133c1.229,2.324,3.457,5.42,7.102,6.977l0.607,0.26v11.632
			C-1204.643-832.291-1210.67-826.263-1218.078-826.263z M-1187.253-808.643l-0.463-0.495c-1.954-2.088-4.472-3.801-6.733-4.582
			l-15.775-6.327v-4.259l0.514-0.286c3.936-2.187,6.924-5.909,8.197-10.212l0.207-0.695l0.725-0.021
			c4.607-0.128,8.355-3.981,8.355-8.591c0-2.706-1.242-5.203-3.409-6.85l-0.396-0.3v-7.339c0-3.396-0.733-6.673-2.182-9.738
			l-0.674-1.427h28.601l-0.021,1.02c-0.039,1.953-0.116,3.953-0.229,5.943l-0.049,0.854l-0.852,0.084
			c-9.589,0.951-16.82,8.942-16.82,18.586v5.645l-0.371,0.3c-1.717,1.39-2.701,3.445-2.701,5.642c0,3.8,2.973,6.978,6.768,7.233
			l0.674,0.046l0.209,0.642c1.078,3.303,3.331,6.094,6.343,7.86l0.494,0.29v2.899L-1187.253-808.643z M-1142.487-784.053h-39.97
			v-11.17c0-3.354-0.682-6.456-2.027-9.218l-0.475-0.975l8.428-3.3l6.314,6.149c0.359,0.35,0.835,0.543,1.34,0.543
			c0.537-0.008,1.03-0.222,1.383-0.586l5.992-6.222l11.73,4.7c0.277,0.097,7.284,2.657,7.284,11.531V-784.053z"/>
	</g>
	<path d="M-1055.306-944.773v-3.363c-3.458-0.246-6.229-3.017-6.475-6.475h-3.362c-0.246,3.458-3.016,6.229-6.474,6.475v3.363
		c3.457,0.246,6.228,3.016,6.474,6.473h3.362C-1061.535-941.758-1058.764-944.528-1055.306-944.773z M-1060.932-946.056
		c-0.812,0.605-1.527,1.322-2.129,2.128l-0.402,0.539l-0.4-0.539c-0.598-0.804-1.313-1.52-2.127-2.128l-0.538-0.402l0.539-0.4
		c0.811-0.602,1.526-1.317,2.126-2.127l0.4-0.541l0.402,0.541c0.604,0.813,1.32,1.528,2.129,2.127l0.539,0.4L-1060.932-946.056z"/>
	<path d="M-1162.318-1034.571v-3.104c-3.243-0.244-5.84-2.842-6.084-6.085h-3.105c-0.244,3.243-2.842,5.841-6.084,6.085v3.104
		c3.242,0.244,5.84,2.842,6.084,6.085h3.105C-1168.158-1031.729-1165.562-1034.327-1162.318-1034.571z M-1167.56-1035.723
		c-0.759,0.563-1.43,1.234-1.995,1.994l-0.4,0.539l-0.401-0.539c-0.563-0.758-1.235-1.429-1.995-1.994l-0.54-0.402l0.54-0.401
		c0.76-0.563,1.431-1.233,1.994-1.993l0.402-0.541l0.4,0.541c0.565,0.761,1.236,1.431,1.994,1.993l0.542,0.401L-1167.56-1035.723z"
		/>
	<path d="M-1379.24-828.294v-4.497c-5.049-0.474-9.08-4.505-9.555-9.553h-4.495c-0.475,5.048-4.504,9.079-9.553,9.553v4.497
		c5.049,0.475,9.079,4.505,9.553,9.554h4.495C-1388.32-823.79-1384.29-827.82-1379.24-828.294z M-1387.147-829.74
		c-1.17,0.869-2.211,1.91-3.093,3.094l-0.803,1.078l-0.802-1.078c-0.879-1.184-1.919-2.225-3.089-3.094l-1.08-0.802l1.079-0.804
		c1.174-0.873,2.214-1.914,3.09-3.094l0.802-1.078l0.803,1.078c0.878,1.18,1.919,2.221,3.094,3.094l1.081,0.804L-1387.147-829.74z"
		/>
	<path d="M-1046.941-761.792l-24.605-34.502c-0.759-1.064-2.227-1.305-3.285-0.551c-15.051,10.734-20.652,20.541-20.889,20.951
		c-0.33,0.59-0.391,1.288-0.174,1.921c0.197,0.561,0.6,1.012,1.115,1.294c-3.681,0.969-8.868,2.256-14.205,3.329
		c-9.121,1.843-12.908,5.968-15.07,13.39l-15.337,10.938c-0.354-0.667-0.706-1.303-1.052-1.891
		c-0.367-0.619-0.992-1.042-1.701-1.135c-5.506-0.771-19.361,7.59-23.479,10.171c-0.563,0.364-0.938,0.899-1.062,1.538
		c-0.125,0.635,0.018,1.297,0.394,1.824l24.607,34.506c0.754,1.057,2.226,1.305,3.284,0.55l11.501-8.203
		c0.827-0.589,1.183-1.649,0.875-2.622c-0.045-0.146-0.236-0.755-0.548-1.72c0.759,0.139,1.599,0.301,2.472,0.466
		c2.982,0.565,6.067,1.154,7.967,1.303c11.399,0.887,24.582,1.221,27.092,1.122c2.073-0.077,6.043-0.939,8.398-2.618
		c1.889-1.35,3.032-2.821,3.438-4.385c1.722-0.437,3.258-1.527,4.325-3.154c1.263-1.918,1.728-4.301,1.362-6.53
		c1.741-0.756,3.309-2.214,4.317-4.124c0.986-1.871,1.251-3.848,0.817-5.625c1.584-1.011,2.771-2.672,3.273-4.713
		c0.684-2.748-0.121-5.436-2.068-7.293l1.582-4.207c0.703,0.537,1.297,0.998,1.752,1.367c0.821,0.668,1.988,0.705,2.852,0.089
		l11.5-8.2C-1046.435-759.262-1046.188-760.735-1046.941-761.792z M-1139.218-704.662l-21.773-30.531
		c6.509-3.906,13.91-7.59,17.162-8.14c4.97,9.119,11.011,27.315,12.796,32.835L-1139.218-704.662z M-1067.682-741.404
		c-0.286,1.158-1.133,2.08-1.959,2.137c-2.3-0.14-12.754-2.018-19.299-3.252c-1.279-0.245-2.512,0.595-2.75,1.877
		c-0.246,1.277,0.598,2.508,1.877,2.752c1.549,0.291,14.043,2.649,18.783,3.221c0.371,0.988-0.082,2.062-0.336,2.537
		c-0.783,1.496-2.139,2.302-2.936,2.199c-0.031-0.004-0.063-0.002-0.094-0.006c-0.027-0.004-0.054-0.012-0.082-0.013
		c-3.608-0.2-13.75-2.216-16.063-2.703c-1.279-0.269-2.52,0.546-2.791,1.817c-0.27,1.271,0.545,2.523,1.815,2.791
		c0.11,0.021,10.062,2.082,15.279,2.663c0.288,1.168,0.091,2.495-0.579,3.515c-0.428,0.641-1.182,1.382-2.443,1.229
		c-0.014,0-0.027,0-0.041,0c-0.02-0.004-0.035-0.01-0.053-0.01c-4.377-0.357-14.216-2.32-16.145-2.711
		c-1.275-0.258-2.521,0.568-2.775,1.84c-0.258,1.275,0.568,2.516,1.841,2.777c2.288,0.461,9.081,1.805,13.93,2.469
		c-0.222,0.209-0.506,0.443-0.877,0.707c-1.278,0.912-4.188,1.688-5.842,1.742c-1.978,0.076-14.903-0.201-26.546-1.108
		c-1.638-0.134-4.729-0.718-7.455-1.236c-2-0.378-3.841-0.72-5.016-0.878c-2.168-6.432-5.629-16.18-9.059-23.685l11.758-8.384
		c-0.742,4.5-0.507,12.291,3.172,15.512c1.578,1.375,3.617,1.772,5.757,1.105c5.368-1.662,8.352-5.862,8.51-11.885
		c1.087-1.057,1.552-1.807,2.229-2.966c0.245-0.417,0.535-0.905,0.933-1.532c3.66,0.496,8.328,0.781,13.242,1.078
		c8.887,0.539,18.962,1.148,22.531,3.113C-1067.402-743.722-1067.479-742.214-1067.682-741.404z M-1069.355-749.831
		c-5.162-1.646-13.732-2.168-22.055-2.673c-5.487-0.334-10.672-0.646-14.265-1.249c-0.903-0.153-1.81,0.239-2.325,0.981
		c-0.959,1.389-1.498,2.32-1.929,3.047c-0.652,1.113-0.87,1.488-2.069,2.541c-0.53,0.464-0.824,1.137-0.804,1.84
		c0.179,5.985-2.874,7.64-5.196,8.348c-0.74,0.228-1.031,0.049-1.263-0.154c-1.603-1.397-2.377-6.757-1.626-11.242
		c1.783-10.677,3.885-14.528,12.832-16.333c8.474-1.708,16.583-3.944,19.09-4.656c6.15,3.866,15.256,10.2,21.434,14.699
		L-1069.355-749.831z M-1060.293-755.161c-6.039-4.626-22.412-16.233-29.957-20.476c2.218-3.08,7.285-9.266,16.252-15.986
		l21.856,30.648L-1060.293-755.161z"/>
</g>
<g>
	<g>
		<path d="M176.515,102.295l-6.025-6.7c-2.241,1.99-4.611,4.433-6.867,6.464l6.196,6.261
			C171.622,106.16,173.882,104.128,176.515,102.295L176.515,102.295z M176.515,102.295"/>
		<path d="M221.534,77.148l-2.787-8.798c-3.307,1.117-6.051,1.951-8.967,3.22l3.548,8.141
			C215.653,78.66,218.397,77.825,221.534,77.148L221.534,77.148z M221.534,77.148"/>
		<path d="M189.497,92.445l-4.701-7.635c-2.479,1.44-4.722,3.429-7.373,5.307l5.463,6.979
			C185.146,95.063,187.607,93.666,189.497,92.445L189.497,92.445z M189.497,92.445"/>
		<path d="M153.699,128.465l-7.679-4.93c-1.975,2.597-3.561,5.346-5.101,8.112l7.831,4.539
			C149.745,133.658,151.72,131.062,153.699,128.465L153.699,128.465z M153.699,128.465"/>
		<path d="M205.205,83.214l-3.938-8.295c-2.915,1.273-5.986,2.935-8.465,4.376l4.547,8.029
			C199.811,85.925,202.29,84.485,205.205,83.214L205.205,83.214z M205.205,83.214"/>
		<path d="M163.778,115.109l-6.789-6.041c-1.977,2.597-3.783,4.758-5.757,7.352l7.114,5.214
			C159.731,119.258,161.536,117.096,163.778,115.109L163.778,115.109z M163.778,115.109"/>
		<path d="M141.112,151.91c0.977-2.486,2.125-5.406,3.708-8.156l-8.158-3.709c-1.581,2.748-2.729,5.67-3.878,8.593l-0.172,0.436
			l8.328,3.272L141.112,151.91z M141.112,151.91"/>
		<path d="M132.319,194.168l-9.086-0.196c-0.146,2.811-0.029,6.229,0.196,9.239l8.804-0.367
			C132.46,199.962,132.171,196.981,132.319,194.168L132.319,194.168z M132.319,194.168"/>
		<path d="M138.104,160.845l-8.484-2.88c-1.147,2.921-1.857,6.016-2.615,9.092l8.827,2.007
			C136.374,166.407,137.128,163.33,138.104,160.845L138.104,160.845z M138.104,160.845"/>
		<path d="M134.2,178.088l-8.98-1.616c-0.713,3.093-0.859,5.904-1.181,9.151l9.151,1.18
			C133.34,183.992,133.659,180.743,134.2,178.088L134.2,178.088z M134.2,178.088"/>
		<path d="M388.257,202.814l9.085,0.197c-0.289-2.982,0.032-6.229-0.196-9.239l-8.801,0.368
			C388.178,196.994,388.406,200.002,388.257,202.814L388.257,202.814z M388.257,202.814"/>
		<path d="M387.479,185.192l8.58-0.959c-0.288-2.982-0.515-5.988-1.237-9.143l-8.755,1.392
			C386.794,179.637,387.251,182.181,387.479,185.192L387.479,185.192z M387.479,185.192"/>
		<path d="M384.565,168.139l8.643-2.394c-0.682-3.135-1.779-6.487-2.614-9.232l-8.36,2.957
			C382.879,162.695,383.731,165.395,384.565,168.139L384.565,168.139z M384.565,168.139"/>
		<path d="M272.907,71.308l1.027-8.758c-3.248-0.321-6.059-0.468-9.306-0.788l-0.196,9.084
			C267.226,71.039,270.099,71.159,272.907,71.308L272.907,71.308z M272.907,71.308"/>
		<path d="M379.062,151.53l8.53-3.395l-3.784-8.683l-8.293,3.937C376.94,145.913,378.21,148.83,379.062,151.53L379.062,151.53z
			 M379.062,151.53"/>
		<path d="M290.646,73.951l2.007-8.826c-3.094-0.713-6.341-1.031-9.414-1.787l-1.616,8.98
			C284.744,73.088,287.399,73.63,290.646,73.951L290.646,73.951z M290.646,73.951"/>
		<path d="M374.731,123.35l-7.636,4.701c1.835,2.634,3.26,5.157,4.7,7.637l7.857-4.11
			C377.989,128.506,376.548,126.026,374.731,123.35L374.731,123.35z M374.731,123.35"/>
		<path d="M350.12,95.408l-6.037,6.787c2.158,1.806,4.362,3.63,6.35,5.87l6.305-6.181C354.707,99.625,352.674,97.366,350.12,95.408
			L350.12,95.408z M350.12,95.408"/>
		<path d="M367.376,268.253l7.676,4.93c1.806-2.158,3.389-4.908,4.537-7.832l-7.832-4.539
			C370.328,263.171,368.788,265.94,367.376,268.253L367.376,268.253z M367.376,268.253"/>
		<path d="M375.447,252.606l7.676,4.93c1.805-2.158,3.389-4.908,4.537-7.832l-7.832-4.539
			C378.398,247.524,376.859,250.294,375.447,252.606L375.447,252.606z M375.447,256.606"/>
		<path d="M356.97,282.435l6.789,6.041c1.975-2.596,3.953-5.193,5.928-7.787l-7.112-5.211
			C360.622,278.136,358.819,280.294,356.97,282.435L356.97,282.435z M356.97,282.435"/>
		<path d="M318.686,74.848l-3.711,8.157c2.487,0.977,5.238,2.56,7.61,3.948l4.539-7.832
			C324.354,77.581,321.604,75.995,318.686,74.848L318.686,74.848z M318.686,74.848"/>
		<path d="M298.738,76.674c2.483,0.977,5.577,1.689,8.499,2.838l3.273-8.329c-2.923-1.148-6.016-1.86-8.938-3.009L298.738,76.674z
			 M298.738,76.674"/>
		<path d="M334.954,83.659l-4.928,7.675c2.748,1.585,4.91,3.39,7.113,5.214l5.365-7.506C340.3,87.218,337.706,85.243,334.954,83.659
			L334.954,83.659z M334.954,83.659"/>
		<path fill="#FFFFFF" d="M395.464,251.856"/>
		<path d="M394.964,221.356c0.713-3.094,0.861-5.903,1.18-9.152l-8.759-1.025c-0.146,2.813-0.468,6.06-1.023,8.759L394.964,221.356z
			 M394.964,221.356"/>
	</g>
	<g>
		<rect x="105.844" y="217.89" width="2.88" height="2.881"/>
		<rect x="111.606" y="217.89" width="2.882" height="2.881"/>
		<rect x="105.844" y="212.128" width="2.88" height="2.882"/>
		<rect x="111.606" y="212.128" width="2.882" height="2.882"/>
		<rect x="117.37" y="217.89" width="2.881" height="2.881"/>
		<rect x="117.37" y="212.128" width="2.881" height="2.882"/>
		<rect x="123.132" y="217.89" width="2.881" height="2.881"/>
		<rect x="123.132" y="212.128" width="2.881" height="2.882"/>
		<rect x="128.896" y="217.89" width="2.882" height="2.881"/>
		<rect x="128.896" y="212.128" width="2.882" height="2.882"/>
		<path d="M153.388,212.128h-12.967c-0.797,0-1.44,0.646-1.44,1.439v5.765c0,0.795,0.644,1.438,1.44,1.438h12.967
			c0.797,0,1.441-0.644,1.441-1.438v-5.765C154.829,212.773,154.185,212.128,153.388,212.128L153.388,212.128z M151.946,217.89
			h-10.084v-2.88h10.084V217.89z M151.946,217.89"/>
		<rect x="105.844" y="235.18" width="2.88" height="2.881"/>
		<rect x="111.606" y="235.18" width="2.882" height="2.881"/>
		<rect x="105.844" y="229.415" width="2.88" height="2.881"/>
		<rect x="111.606" y="229.415" width="2.882" height="2.881"/>
		<rect x="117.37" y="235.18" width="2.881" height="2.881"/>
		<rect x="117.37" y="229.415" width="2.881" height="2.881"/>
		<rect x="123.132" y="235.18" width="2.881" height="2.881"/>
		<rect x="123.132" y="229.415" width="2.881" height="2.881"/>
		<rect x="128.896" y="235.18" width="2.882" height="2.881"/>
		<rect x="128.896" y="229.415" width="2.882" height="2.881"/>
		<path d="M153.388,229.415h-12.967c-0.797,0-1.44,0.647-1.44,1.441v5.763c0,0.798,0.644,1.441,1.44,1.441h12.967
			c0.797,0,1.441-0.644,1.441-1.441v-5.763C154.829,230.063,154.185,229.415,153.388,229.415L153.388,229.415z M151.946,235.18
			h-10.084v-2.884h10.084V235.18z M151.946,235.18"/>
		<path d="M186.17,252.958l-10.085-11.525c-0.277-0.312-0.67-0.489-1.086-0.489h-14.672c0.161-0.453,0.265-0.934,0.265-1.44v-11.527
			c0-1.111-0.434-2.114-1.123-2.883c0.689-0.766,1.123-1.769,1.123-2.882v-11.523c0-2.384-1.94-4.323-4.321-4.323h-51.867
			c-2.384,0-4.322,1.939-4.322,4.323v11.523c0,1.113,0.433,2.116,1.124,2.882c-0.691,0.769-1.124,1.771-1.124,2.883v11.527
			c0,1.109,0.433,2.114,1.124,2.881c-0.691,0.766-1.124,1.772-1.124,2.881v11.524c0,2.384,1.938,4.322,4.322,4.322h24.136
			l25.169,31.164c0.021,0.023,0.056,0.033,0.08,0.061c0.102,0.105,0.215,0.199,0.343,0.271c0.048,0.024,0.091,0.053,0.139,0.076
			c0.175,0.074,0.36,0.125,0.56,0.125c0.197,0,0.385-0.051,0.559-0.125c0.049-0.023,0.092-0.05,0.139-0.076
			c0.131-0.071,0.242-0.165,0.344-0.271c0.023-0.027,0.059-0.037,0.081-0.061l30.255-37.462
			C186.646,254.27,186.631,253.486,186.17,252.958L186.17,252.958z M181.909,252.468h-13.818l6.908-7.896L181.909,252.468z
			 M171.824,243.822l-6.909,7.896l-6.912-7.896H171.824z M137.833,243.822h13.82l-6.91,7.896L137.833,243.822z M141.567,252.468
			h-13.818l6.91-7.896L141.567,252.468z M154.829,244.571l6.908,7.896h-13.818L154.829,244.571z M102.962,210.688
			c0-0.796,0.646-1.44,1.441-1.44h51.867c0.794,0,1.44,0.645,1.44,1.44v11.523c0,0.797-0.646,1.443-1.44,1.443h-51.867
			c-0.795,0-1.441-0.646-1.441-1.443V210.688z M102.962,227.976c0-0.795,0.646-1.441,1.441-1.441h51.867
			c0.794,0,1.44,0.646,1.44,1.441v11.527c0,0.793-0.646,1.44-1.44,1.44h-51.867c-0.795,0-1.441-0.647-1.441-1.44V227.976z
			 M104.403,258.23c-0.795,0-1.441-0.647-1.441-1.441v-11.524c0-0.795,0.646-1.442,1.441-1.442h27.08l-7.563,8.646h-0.788v2.883
			h0.754l2.325,2.88H104.403z M127.589,255.351h16.051l8.024,29.805L127.589,255.351z M154.829,285.825l-8.205-30.475h16.41
			L154.829,285.825z M157.994,285.155l8.024-29.805h16.049L157.994,285.155z M157.994,285.155"/>
		<rect x="105.844" y="252.468" width="2.88" height="2.883"/>
		<rect x="111.606" y="252.468" width="2.882" height="2.883"/>
		<rect x="105.844" y="246.704" width="2.88" height="2.882"/>
		<rect x="111.606" y="246.704" width="2.882" height="2.882"/>
		<rect x="117.37" y="252.468" width="2.881" height="2.883"/>
		<rect x="117.37" y="246.704" width="2.881" height="2.882"/>
		<rect x="123.132" y="246.704" width="2.881" height="2.882"/>
	</g>
	<g>
		<path fill="none" d="M251.759,395.383c0.007,4.718,3.854,8.557,8.573,8.557c4.74-0.01,8.578-3.861,8.571-8.584
			c-0.007-4.719-3.852-8.558-8.569-8.558v-0.499l0,0l-0.018,0.499C255.592,386.807,251.752,390.657,251.759,395.383z"/>
		<path fill="none" d="M238.96,256.47v15.37c7.035-0.646,14.104-0.985,21.202-0.985c7.219,0,14.405,0.353,21.558,1.022V256.47
			H238.96z"/>
		<path fill="none" d="M322.77,157.052c0.243-1.489-0.167-2.949-1.154-4.109c-0.996-1.171-2.448-1.843-3.983-1.843h-12.285v7.877
			c0,10.65-1.329,20.918-3.949,30.52l-0.8,2.934l2.385-1.886C313.596,182.154,320.623,170.259,322.77,157.052z"/>
		<path fill="none" d="M214.978,158.976v-7.877H202.69c-1.535,0-2.986,0.672-3.982,1.843c-0.989,1.163-1.399,2.623-1.155,4.109
			c2.147,13.209,9.175,25.104,19.789,33.492l2.385,1.885l-0.8-2.933C216.306,179.895,214.978,169.626,214.978,158.976z"/>
		<path fill="none" d="M260.336,373.703h-0.042c-5.778,0.01-11.214,2.275-15.304,6.379s-6.337,9.545-6.327,15.324
			c0.02,11.926,9.74,21.629,21.704,21.629c11.947-0.021,21.65-9.758,21.63-21.702C281.977,383.406,272.26,373.703,260.336,373.703z
			 M260.336,374.203v0.002V374.203z M260.357,410.989h-0.026c-8.599-0.001-15.605-6.995-15.619-15.593
			c-0.014-8.615,6.981-15.635,15.593-15.649c8.625,0,15.631,6.997,15.646,15.597C275.965,403.957,268.969,410.975,260.357,410.989z"
			/>
		<path fill="none" d="M305.347,289.959l4.96-0.009l0.207-0.001l5.96-5.985c-1.466-0.377-2.937-0.722-4.407-1.069l-6.72,0.011
			V289.959z"/>
		<path fill="none" d="M325.477,312.375l-5.246,5.264c12.582,3.37,25,7.794,37.191,13.289l2.116,0.954v-32.243l-0.861-0.405
			c-10.67-5.021-21.519-9.185-32.503-12.526l0.04,23.881C326.215,311.252,325.947,311.903,325.477,312.375z"/>
		<polygon fill="none" points="221.906,302.191 298.23,302.063 298.438,302.063 305.475,295.003 214.846,295.155 		"/>
		<polygon fill="none" points="260.331,410.489 260.331,410.488 260.331,410.488 		"/>
		<path fill="none" d="M181.656,347.063c0-3.998,3.253-7.25,7.251-7.25c1.175,0,2.282,0.287,3.265,0.786
			c-1.08-0.64-2.335-1.015-3.679-1.015c-3.998,0-7.25,3.253-7.25,7.251c0,7.284-5.926,13.21-13.211,13.21
			c-2.205,0-4.281-0.55-6.11-1.508c1.927,1.1,4.151,1.736,6.524,1.736C175.73,360.273,181.656,354.348,181.656,347.063z"/>
		<path fill="none" d="M267.364,180.498l5.595-5.457l-7.731-1.122c-0.893-0.13-1.665-0.69-2.063-1.498l-3.459-7.008l-3.458,7.008
			c-0.399,0.808-1.171,1.368-2.063,1.499l-7.735,1.122l5.598,5.457c0.645,0.629,0.939,1.536,0.787,2.425l-1.321,7.703l6.917-3.637
			c0.787-0.413,1.77-0.413,2.549,0l6.919,3.636l-1.321-7.704C266.423,182.035,266.717,181.129,267.364,180.498z"/>
		<path fill="none" d="M161.194,347.063v-8.33l0.861-0.406c10.517-4.949,21.339-9.139,32.164-12.45l1.526-0.466v-0.354l-1.939,0.593
			c-10.825,3.312-21.646,7.5-32.165,12.45l-0.861,0.405v8.331c0,2.819,1.624,5.263,3.983,6.46
			C162.631,352.031,161.194,349.715,161.194,347.063z"/>
		<path fill="none" d="M271.691,249.32c-3.89-4.278-6.077-9.791-6.159-15.521l-0.017-1.142l-1.13,0.167
			c-2.704,0.4-5.374,0.419-8.106,0.046l-1.121-0.153l-0.015,1.13c-0.057,4.357-1.335,8.612-3.697,12.305
			c-0.719,1.122-1.534,2.187-2.424,3.167l-1.518,1.673h25.708L271.691,249.32z"/>
		<path fill="none" d="M229.497,339.891l16.692,16.693l7.982-0.019l-15.241-15.187l0.084-0.085l-21.738-21.509
			c-2.234,0.432-4.462,0.901-6.685,1.401L229.497,339.891z"/>
		<path fill="none" d="M287.822,208.083c7.77-13.075,12.048-30.515,12.048-49.107v-17.882c0-0.797-0.649-1.446-1.447-1.446h-76.523
			c-0.797,0-1.445,0.648-1.445,1.446v17.884c0,18.592,4.278,36.031,12.047,49.105c7.503,12.626,17.327,19.58,27.662,19.58
			C270.496,227.663,280.318,220.709,287.822,208.083z M249.15,198.054c-0.906,0.477-2.054,0.394-2.883-0.209
			c-0.851-0.618-1.268-1.643-1.088-2.677l2.016-11.752l-8.539-8.322c-0.752-0.734-1.019-1.81-0.694-2.808
			c0.324-0.999,1.171-1.712,2.209-1.863l11.803-1.715l5.278-10.694c0.463-0.941,1.402-1.525,2.453-1.525
			c1.049,0,1.99,0.585,2.455,1.526l5.277,10.693l11.799,1.715c1.023,0.148,1.892,0.88,2.211,1.864
			c0.325,0.998,0.06,2.074-0.693,2.807l-8.539,8.322l2.018,11.75c0.176,1.036-0.241,2.063-1.092,2.68
			c-0.823,0.6-1.977,0.683-2.881,0.208l-10.555-5.547L249.15,198.054z"/>
		<path fill="none" d="M248.418,371.493c3.748-1.877,7.74-2.833,11.919-2.84c4.106,0,8.085,0.942,11.825,2.8l0.724,0.36
			l-0.018-10.228l-25.192,0.044l0.019,10.226L248.418,371.493z"/>
		<path fill="none" d="M142.608,340.701l-20.934-25.846h33.143v-0.228H121.26l20.935,25.845c0.744,0.919,0.875,2.191,0.336,3.243
			l-12.993,25.282h0.53l12.877-25.054C143.482,342.893,143.351,341.619,142.608,340.701z"/>
		<path fill="none" d="M194.163,310.808l-0.042-24.093c-10.977,3.34-21.817,7.502-32.479,12.519l-0.861,0.405v32.243l2.116-0.954
			c12.161-5.48,24.545-9.896,37.095-13.264l-5.088-5.071C194.427,312.121,194.164,311.487,194.163,310.808z"/>
		<path fill="none" d="M215.333,290.108v-7.05l-7.813,0.014c-1.286,0.308-2.572,0.609-3.854,0.941l6.125,6.104L215.333,290.108z"/>
		<path fill="none" d="M229.471,324.801l31.838,31.756l7.982-0.014l-26.725-26.635l0.083-0.084l-12.304-12.173
			c-2.35,0.313-4.695,0.665-7.036,1.053L229.471,324.801z"/>
		<path fill="none" d="M271.385,351.506l3.998,3.981l34.212-34.331c-2.192-0.492-4.39-0.953-6.593-1.38L271.385,351.506z"/>
		<path fill="none" d="M324.993,350.595v-3.532c0-3.996,3.253-7.247,7.252-7.247c1.17,0,2.272,0.285,3.251,0.779
			c-1.076-0.635-2.327-1.006-3.665-1.006c-3.998,0-7.251,3.251-7.251,7.246v3.531c0,7.046,0.502,11.743,5.895,14.659
			C325.465,362.094,324.993,357.459,324.993,350.595z"/>
		<path fill="none" d="M219.752,307.172l-20.583-20.518l0.012,7.981l8.529,8.501l-0.067,0.066l10.469,10.358
			c2.302-0.426,4.609-0.812,6.92-1.167L219.752,307.172z"/>
		<path fill="none" d="M199.192,301.775l0.017,7.982l4.874,4.858l-0.064,0.065l1.567,1.551c2.2-0.533,4.406-1.029,6.615-1.497
			L199.192,301.775z"/>
		<path fill="none" d="M289.012,311.518l4.387-4.401l-66.438,0.113l4.308,4.294c9.57-1.206,19.208-1.83,28.894-1.83
			C269.834,309.693,279.457,310.316,289.012,311.518z"/>
		<path fill="none" d="M263.813,343.957l3.998,3.982l29.145-29.246c-2.307-0.381-4.617-0.727-6.933-1.036L263.813,343.957z"/>
		<path fill="none" d="M365.92,347.063l-0.005-32.207h32.965l0.185-0.228h-33.563l0.005,32.207c0,7.288-5.929,13.218-13.215,13.218
			c-2.198,0-4.269-0.547-6.094-1.501c1.923,1.095,4.142,1.728,6.508,1.728C359.992,360.279,365.92,354.35,365.92,347.063z"/>
		<path fill="none" d="M281.998,277.899c-2.191-0.214-4.385-0.396-6.582-0.544h-30.509c-2.455,0.166-4.906,0.373-7.353,0.619
			L281.998,277.899z"/>
		<path fill="none" d="M345.454,347.063c0-5.082-2.888-9.496-7.103-11.706c3.988,2.276,6.689,6.564,6.689,11.479
			c0,2.819,1.623,5.261,3.98,6.458C346.891,352.029,345.454,349.713,345.454,347.063z"/>
		<path fill="none" d="M321.149,301.566l-13.107,13.152c2.173,0.46,4.341,0.947,6.503,1.469l6.617-6.639L321.149,301.566z"/>
		<path fill="none" d="M321.137,294.43l-0.013-7.982l-25.854,25.944c2.277,0.351,4.553,0.73,6.821,1.149L321.137,294.43z"/>
		<path fill="none" d="M236.662,316.898l23.575,23.497l23.415-23.498c-7.809-0.821-15.65-1.241-23.49-1.241
			C252.319,315.656,244.475,316.076,236.662,316.898z"/>
		<path fill="none" d="M324.993,325.283l1.938,0.593c10.827,3.313,21.646,7.501,32.16,12.45l0.446,0.211v-0.033l-0.86-0.404
			c-10.512-4.949-21.331-9.139-32.158-12.451l-1.939-0.593v10.51l0.413-0.177V325.283z"/>
		<path d="M238.96,256.47h42.76v15.407c6.858,0.641,13.683,1.594,20.466,2.847c-1.836-1.757-4.318-2.844-7.054-2.844h-7.936v-18.148
			c0-1.274-0.866-2.368-2.105-2.661l-0.101-0.026c-8.902-2.037-14.865-10.403-13.881-19.488l0.063-0.583l0.541-0.229
			c7.891-3.354,15.09-10.222,20.816-19.861c1.83-3.078,3.508-6.442,4.986-9.999l0.137-0.326l0.311-0.168
			c16.008-8.686,27.303-24.558,30.213-42.458c0.497-3.056-0.374-6.167-2.39-8.536c-2.038-2.397-5.01-3.772-8.154-3.772h-12.285
			v-4.529c0-3.817-3.104-6.922-6.922-6.922h-76.525c-3.817,0-6.922,3.105-6.922,6.922v4.529h-12.285
			c-3.146,0-6.119,1.375-8.156,3.771c-2.016,2.368-2.886,5.479-2.388,8.536c2.91,17.9,14.205,33.772,30.213,42.458l0.311,0.168
			l0.136,0.326c1.48,3.559,3.158,6.921,4.988,9.995c5.818,9.794,13.138,16.715,21.168,20.016l0.556,0.229l0.059,0.598
			c0.89,9.006-5.077,17.299-13.886,19.321l-0.124,0.032c-1.222,0.293-2.085,1.387-2.085,2.654v18.151h-7.935
			c-2.69,0-5.133,1.054-6.96,2.759c6.752-1.234,13.545-2.17,20.372-2.799V256.47z M301.397,189.496
			c2.62-9.601,3.949-19.869,3.949-30.52v-7.877h12.285c1.535,0,2.987,0.672,3.983,1.843c0.987,1.161,1.397,2.62,1.154,4.109
			c-2.146,13.208-9.174,25.102-19.787,33.492l-2.385,1.886L301.397,189.496z M217.342,190.543
			c-10.614-8.388-17.642-20.282-19.789-33.492c-0.244-1.486,0.166-2.946,1.155-4.109c0.996-1.171,2.448-1.843,3.982-1.843h12.287
			v7.877c0,10.65,1.329,20.918,3.949,30.52l0.8,2.933L217.342,190.543z M232.501,208.083c-7.769-13.074-12.047-30.514-12.047-49.105
			v-17.884c0-0.797,0.648-1.446,1.445-1.446h76.523c0.798,0,1.447,0.648,1.447,1.446v17.882c0,18.592-4.278,36.032-12.048,49.107
			c-7.504,12.626-17.326,19.58-27.659,19.58C249.828,227.663,240.004,220.709,232.501,208.083z M249.022,249.32
			c0.89-0.979,1.705-2.045,2.424-3.167c2.362-3.693,3.641-7.948,3.697-12.305l0.015-1.13l1.121,0.153
			c2.732,0.373,5.402,0.354,8.106-0.046l1.13-0.167l0.017,1.142c0.082,5.73,2.27,11.242,6.159,15.521l1.521,1.673h-25.708
			L249.022,249.32z"/>
		<path d="M260.162,276.818c-5.102,0-10.186,0.193-15.255,0.537h30.509C270.347,277.012,265.263,276.818,260.162,276.818z"/>
		<path d="M273.141,197.846c0.851-0.617,1.268-1.644,1.092-2.68l-2.018-11.75l8.539-8.322c0.753-0.733,1.019-1.81,0.693-2.807
			c-0.319-0.984-1.188-1.715-2.211-1.864l-11.799-1.715l-5.277-10.693c-0.465-0.941-1.406-1.526-2.455-1.526
			c-1.051,0-1.99,0.584-2.453,1.525l-5.278,10.694l-11.803,1.715c-1.038,0.151-1.885,0.865-2.209,1.863
			c-0.324,0.998-0.058,2.074,0.694,2.808l8.539,8.322l-2.016,11.752c-0.18,1.034,0.238,2.06,1.088,2.677
			c0.829,0.603,1.977,0.686,2.883,0.209l10.555-5.547l10.555,5.547C271.164,198.528,272.317,198.445,273.141,197.846z
			 M260.979,186.989c-0.779-0.413-1.762-0.413-2.549,0l-6.917,3.637l1.321-7.703c0.152-0.889-0.143-1.796-0.787-2.425l-5.598-5.457
			l7.735-1.122c0.892-0.13,1.663-0.69,2.063-1.499l3.458-7.008l3.459,7.008c0.398,0.808,1.171,1.368,2.063,1.498l7.731,1.122
			l-5.595,5.457c-0.647,0.631-0.941,1.537-0.788,2.423l1.321,7.704L260.979,186.989z"/>
		<polygon points="260.334,386.298 260.334,386.299 260.334,386.299 		"/>
		<path d="M274.95,395.346c-0.013-8.05-6.571-14.599-14.619-14.599c-8.085,0.013-14.632,6.584-14.619,14.647
			c0.013,8.047,6.571,14.594,14.619,14.595v0.499l0,0l0.024-0.499C268.416,409.977,274.963,403.406,274.95,395.346z
			 M250.759,395.384c-0.007-5.276,4.279-9.577,9.556-9.586h0.02c5.268,0,9.561,4.286,9.569,9.556
			c0.009,5.274-4.278,9.574-9.556,9.586C255.062,404.939,250.768,400.652,250.759,395.384z"/>
		<path d="M275.383,355.487l-3.998-3.981l31.617-31.729c-2.011-0.39-4.027-0.749-6.047-1.083l-29.145,29.246l-3.998-3.982
			l26.21-26.3c-2.12-0.284-4.244-0.536-6.37-0.76l-23.415,23.498l-23.575-23.497c-2.108,0.222-4.214,0.472-6.317,0.753
			l12.304,12.173l-0.083,0.084l26.725,26.635l-7.982,0.014l-31.838-31.756l-6.162-6.097c-2.014,0.334-4.025,0.692-6.032,1.081
			l21.738,21.509l-0.084,0.085l15.241,15.187l-7.982,0.019l-16.692-16.693l-18.905-18.704c-1.905,0.429-3.804,0.884-5.7,1.362
			l37.735,37.606l0.026,15.239l-0.166,0.15c-5.651,5.088-8.884,12.33-8.872,19.869c0.023,14.705,12.008,26.67,26.718,26.67v0.499
			l0.042-0.499c7.124-0.012,13.824-2.805,18.867-7.865c5.044-5.061,7.813-11.771,7.801-18.896c-0.013-7.539-3.271-14.77-8.937-19.84
			l-0.166-0.148l-0.027-15.237l37.441-37.567c-1.916-0.482-3.836-0.941-5.761-1.373L275.383,355.487z M272.869,361.586l0.018,10.228
			l-0.724-0.36c-3.74-1.857-7.719-2.8-11.825-2.8c-4.18,0.007-8.172,0.963-11.919,2.84l-0.723,0.362l-0.019-10.226L272.869,361.586z
			 M281.997,395.333c0.021,11.944-9.683,21.681-21.63,21.702c-11.964,0-21.684-9.703-21.704-21.629
			c-0.01-5.779,2.237-11.221,6.327-15.324s9.525-6.369,15.304-6.379h0.042C272.26,373.703,281.977,383.406,281.997,395.333z"/>
		<path d="M197.131,278.044L197.131,278.044l-0.5,0.025c-0.375,0-0.691,0.056-0.967,0.171c-0.914,0.379-1.508,1.248-1.546,2.231
			c2.962-0.878,5.938-1.681,8.919-2.438L197.131,278.044z"/>
		<path d="M326.163,280.349c-0.001-1.024-0.616-1.938-1.563-2.329c-0.268-0.113-0.564-0.163-0.967-0.163l-0.5-0.027l-6.626,0.011
			c3.229,0.81,6.45,1.67,9.656,2.619V280.349z"/>
		<path d="M212.512,315.047l-0.312-0.312c-2.209,0.468-4.415,0.964-6.615,1.497l5.007,4.954c2.223-0.5,4.451-0.97,6.685-1.401
			l-4.781-4.731L212.512,315.047z"/>
		<path d="M202.729,283.08l0.937,0.934c1.282-0.332,2.568-0.634,3.854-0.941L202.729,283.08z"/>
		<path d="M317.549,282.885l-5.482,0.01c1.471,0.348,2.941,0.692,4.407,1.069L317.549,282.885z"/>
		<path d="M297.24,277.873c-0.637-0.32-1.348-0.518-2.108-0.518h-19.716c2.197,0.148,4.391,0.33,6.582,0.544L297.24,277.873z"/>
		<path d="M244.907,277.355h-19.359c-0.855,0-1.647,0.246-2.341,0.645l14.348-0.025
			C240.001,277.729,242.452,277.521,244.907,277.355z"/>
		<path d="M162.896,330.928l-2.116,0.954v-32.243l0.861-0.405c16.587-7.804,15.381-7.316,32.479-12.519l-0.011-6.142
			c0-0.034,0.006-0.067,0.007-0.102c-12.737,3.772-25.292,8.642-37.616,14.61c-1.023,0.495-1.684,1.549-1.684,2.683v10.901h-39.809
			c-1.143,0-2.198,0.666-2.69,1.697c-0.492,1.033-0.346,2.275,0.372,3.164l23.644,29.189l-14.338,27.9
			c-0.472,0.918-0.431,2.034,0.106,2.914c0.547,0.896,1.5,1.431,2.546,1.431h31.96c36.669,0,45.099-4.597,45.099-24.596v-27
			l1.12-0.294c0.687-0.18,1.376-0.35,2.065-0.523l-4.901-4.885C187.442,321.031,175.058,325.447,162.896,330.928z M157.022,369.226
			h-27.072l0.117-0.228h-0.53l12.993-25.282c0.54-1.052,0.408-2.324-0.336-3.243l-20.935-25.845h33.558v0.228h0.413v32.207
			c0,4.912,2.701,9.197,6.691,11.475c1.829,0.958,3.906,1.508,6.11,1.508c7.285,0,13.211-5.926,13.211-13.21
			c0-3.998,3.252-7.251,7.25-7.251c1.344,0,2.599,0.375,3.679,1.015c2.358,1.197,3.982,3.642,3.982,6.464l0.004,3.532
			C196.158,364.438,194.263,369.226,157.022,369.226z M196.158,335.789l-2.087-0.887c-1.644-0.699-3.381-1.054-5.164-1.054
			c-7.284,0-13.21,5.928-13.21,13.214c0,3.996-3.253,7.247-7.251,7.247c-1.345,0-2.602-0.374-3.683-1.015
			c-2.359-1.197-3.983-3.641-3.983-6.46v-8.331l0.861-0.405c10.518-4.95,21.34-9.139,32.165-12.45l1.939-0.593v0.354l0.413-0.127
			V335.789z"/>
		<path d="M238.96,271.84v0.04h42.76v-0.003c-7.152-0.67-14.339-1.022-21.558-1.022C253.063,270.854,245.995,271.193,238.96,271.84z
			"/>
		<path d="M304.417,277.861l12.09-0.021c-4.751-1.189-9.526-2.23-14.321-3.116C303.115,275.614,303.875,276.676,304.417,277.861z"/>
		<path d="M303.002,319.776c2.203,0.427,4.4,0.888,6.593,1.38l4.95-4.969c-2.162-0.521-4.33-1.009-6.503-1.469L303.002,319.776z"/>
		<path d="M218.588,274.639c-5.209,0.951-10.394,2.084-15.551,3.395l13.153-0.021C216.753,276.727,217.576,275.584,218.588,274.639z
			"/>
		<path d="M408.006,310.363c-0.492-1.03-1.549-1.697-2.69-1.697h-39.813v-10.897c0-1.138-0.659-2.192-1.68-2.688
			c-12.338-5.974-24.908-10.849-37.659-14.622l0.011,6.248c10.984,3.342,21.833,7.506,32.503,12.526l0.861,0.405v32.243
			l-2.116-0.954c-12.191-5.495-24.609-9.919-37.191-13.289l-4.875,4.891c0.714,0.18,1.429,0.356,2.141,0.543l1.12,0.294v27
			c0,19.999,8.429,24.596,45.094,24.596h31.964c1.031,0,2.007-0.548,2.545-1.431c0.539-0.881,0.58-1.996,0.108-2.914l-14.34-27.9
			l23.642-29.195C408.352,312.635,408.498,311.396,408.006,310.363z M324.58,325.056l1.939,0.593
			c10.827,3.313,21.646,7.502,32.158,12.451l0.86,0.404v0.033l0.414,0.195v8.33c0,3.996-3.251,7.247-7.246,7.247
			c-1.346,0-2.603-0.375-3.685-1.017c-2.357-1.197-3.98-3.639-3.98-6.458c0-4.914-2.701-9.202-6.689-11.479
			c-1.828-0.958-3.903-1.508-6.106-1.508c-1.784,0-3.522,0.354-5.165,1.054l-2.087,0.887v-0.4l-0.413,0.177V325.056z
			 M378.543,340.702c-0.74,0.919-0.873,2.193-0.335,3.244l12.993,25.279h-27.073c-18.774,0-28.56-1.22-33.653-4.2
			c-5.393-2.916-5.895-7.613-5.895-14.659v-3.531c0-3.995,3.253-7.246,7.251-7.246c1.338,0,2.589,0.371,3.665,1.006
			c2.365,1.194,3.995,3.642,3.995,6.468c0,4.921,2.708,9.215,6.707,11.489c1.825,0.954,3.896,1.501,6.094,1.501
			c7.286,0,13.215-5.93,13.215-13.218l-0.005-32.207h33.563l-0.185,0.228h0.597L378.543,340.702z"/>
		<path d="M295.27,312.392l-5.247,5.266c2.315,0.31,4.626,0.655,6.933,1.036l5.136-5.152
			C299.822,313.122,297.547,312.742,295.27,312.392z"/>
		<path d="M260.162,309.693c-9.686,0-19.323,0.624-28.894,1.83l5.394,5.375c7.813-0.822,15.657-1.242,23.5-1.242
			c7.84,0,15.682,0.42,23.49,1.241l5.359-5.38C279.457,310.316,269.834,309.693,260.162,309.693z"/>
		<path d="M218.112,313.562l5.197,5.143c2.341-0.388,4.687-0.739,7.036-1.053l-5.313-5.257
			C222.721,312.75,220.414,313.136,218.112,313.562z"/>
		<path d="M216.19,278.012l7.017-0.012c0.694-0.398,1.486-0.645,2.341-0.645h19.359c5.07-0.344,10.154-0.537,15.255-0.537
			c5.101,0,10.185,0.193,15.254,0.537h19.716c0.761,0,1.472,0.197,2.108,0.518l7.177-0.012c-0.542-1.186-1.302-2.247-2.231-3.138
			c-6.783-1.253-13.607-2.206-20.466-2.847v0.003h-42.76v-0.04c-6.827,0.629-13.62,1.564-20.372,2.799
			C217.576,275.584,216.753,276.727,216.19,278.012z"/>
		<path d="M221.196,280.227c5.428-0.953,10.882-1.699,16.358-2.252L223.207,278C222.32,278.509,221.604,279.28,221.196,280.227z"/>
		<path d="M225.032,312.395l5.313,5.257c2.103-0.281,4.208-0.531,6.317-0.753l-5.394-5.375
			C229.187,311.785,227.108,312.076,225.032,312.395z"/>
		<path d="M194.121,286.715c3.171-0.965,6.351-1.877,9.545-2.701l-0.937-0.934l4.791-0.008c2.611-0.627,5.228-1.216,7.852-1.748
			c0.087-1.17,0.368-2.285,0.818-3.313l-13.153,0.021c-2.981,0.758-5.957,1.561-8.919,2.438c-0.001,0.034-0.007,0.067-0.007,0.102
			L194.121,286.715z"/>
		<path d="M205.585,316.232c-1.868,0.452-3.732,0.933-5.593,1.432l4.901,4.885c1.896-0.479,3.795-0.934,5.7-1.362L205.585,316.232z"
			/>
		<path d="M314.545,316.188l-4.95,4.969c1.925,0.432,3.845,0.891,5.761,1.373l4.875-4.891
			C318.339,317.132,316.444,316.646,314.545,316.188z"/>
		<path d="M302.091,313.541l-5.136,5.152c2.02,0.334,4.036,0.693,6.047,1.083l5.04-5.058
			C306.063,314.301,304.078,313.906,302.091,313.541z"/>
		<path d="M289.012,311.518l-5.359,5.38c2.126,0.224,4.25,0.476,6.37,0.76l5.247-5.266
			C293.188,312.072,291.102,311.781,289.012,311.518z"/>
		<path d="M212.2,314.735l0.312,0.312l-0.016,0.007l4.781,4.731c2.007-0.389,4.018-0.747,6.032-1.081l-5.197-5.143
			C216.138,313.926,214.167,314.318,212.2,314.735z"/>
		<path d="M299.512,280.298c-0.437-1.06-1.252-1.913-2.271-2.425l-15.242,0.026C287.862,278.471,293.701,279.268,299.512,280.298z"
			/>
		<path d="M305.312,281.402c2.257,0.461,4.508,0.961,6.755,1.492l5.482-0.01l-1.075,1.079c3.246,0.835,6.478,1.763,9.7,2.743
			l-0.011-6.248c-3.206-0.949-6.427-1.81-9.656-2.619l-12.09,0.021C304.917,278.953,305.227,280.146,305.312,281.402z"/>
		<path d="M223.207,278l-7.017,0.012c-0.45,1.027-0.73,2.143-0.818,3.313c1.938-0.393,3.879-0.756,5.824-1.098
			C221.604,279.28,222.32,278.509,223.207,278z"/>
		<path d="M299.512,280.298c1.937,0.343,3.87,0.71,5.8,1.104c-0.085-1.257-0.395-2.449-0.895-3.541l-7.177,0.012
			C298.26,278.385,299.075,279.238,299.512,280.298z"/>
		<path d="M352.292,354.081c-1.177,0-2.286-0.288-3.271-0.788c1.082,0.642,2.339,1.017,3.685,1.017c3.995,0,7.246-3.251,7.246-7.247
			v-8.33l-0.414-0.195v8.298C359.538,350.83,356.287,354.081,352.292,354.081z"/>
		<path d="M326.668,334.675l-1.675,0.714v0.4l2.087-0.887c1.643-0.699,3.381-1.054,5.165-1.054c2.203,0,4.278,0.55,6.106,1.508
			c-1.927-1.1-4.148-1.736-6.521-1.736C330.046,333.62,328.309,333.975,326.668,334.675z"/>
		<path d="M195.745,335.565l-2.088-0.891c-1.641-0.7-3.378-1.055-5.164-1.055c-7.284,0-13.209,5.929-13.209,13.215
			c0,3.995-3.253,7.246-7.252,7.246c-1.177,0-2.285-0.288-3.269-0.786c1.081,0.641,2.337,1.015,3.683,1.015
			c3.998,0,7.251-3.251,7.251-7.247c0-7.286,5.926-13.214,13.21-13.214c1.783,0,3.521,0.354,5.164,1.054l2.087,0.887v-10.506
			l-0.413,0.127V335.565z"/>
		<path d="M192.172,340.599c2.132,1.264,3.568,3.583,3.568,6.236l0.005,3.531c0,13.845-1.896,18.632-39.136,18.632h-26.542
			l-0.117,0.228h27.072c37.24,0,39.136-4.788,39.136-18.631l-0.004-3.532C196.154,344.24,194.53,341.796,192.172,340.599z"/>
		<path d="M161.922,358.537c-3.99-2.277-6.691-6.563-6.691-11.475v-32.207h-0.413v31.979
			C154.817,351.915,157.705,356.327,161.922,358.537z"/>
		<path d="M378.129,340.474c-0.74,0.919-0.873,2.194-0.334,3.243l12.992,25.281h-27.072c-18.285,0-28.037-1.158-33.24-3.973
			c5.094,2.98,14.879,4.2,33.653,4.2h27.073l-12.993-25.279c-0.538-1.051-0.405-2.325,0.335-3.244l20.934-25.847h-0.597
			L378.129,340.474z"/>
		<path d="M339.077,346.835c0,5.089,2.896,9.509,7.121,11.717c-3.999-2.274-6.707-6.568-6.707-11.489
			c0-2.826-1.63-5.273-3.995-6.468C337.635,341.855,339.077,344.178,339.077,346.835z"/>
	</g>
	<path d="M253.576,62.473c-0.061,0.001-0.119,0.002-0.18,0.002c-5.067,0-9.363-3.564-10.372-8.442l-4.466,0.495
		c0.085,5.07-3.476,9.521-8.441,10.549l0.497,4.47c0.059-0.001,0.118-0.001,0.177-0.001c5.069,0,9.365,3.565,10.373,8.442
		l4.467-0.495c-0.043-2.461,0.766-4.84,2.326-6.791c1.561-1.95,3.705-3.262,6.116-3.76L253.576,62.473z M246.055,66.379
		c-1.069,0.993-1.988,2.143-2.733,3.416l-0.679,1.161l-0.916-0.984c-1.003-1.077-2.151-1.997-3.412-2.734l-1.161-0.678l0.984-0.917
		c1.07-0.998,1.989-2.147,2.729-3.416l0.678-1.16l0.917,0.982c1.005,1.077,2.156,1.998,3.418,2.735l1.163,0.679L246.055,66.379z"/>
	<path d="M369.732,114.861v-2.316c-3.209-0.444-5.756-2.99-6.199-6.198h-2.315c-0.444,3.208-2.989,5.754-6.198,6.198v2.316
		c3.209,0.444,5.754,2.99,6.198,6.199h2.315C363.977,117.852,366.523,115.305,369.732,114.861z M363.178,116.455l-0.803,1.077
		l-0.802-1.077c-0.555-0.746-1.209-1.401-1.946-1.949l-1.078-0.802l1.078-0.802c0.74-0.55,1.395-1.205,1.945-1.948l0.803-1.079
		l0.803,1.079c0.553,0.743,1.209,1.398,1.947,1.948l1.081,0.803l-1.081,0.803C364.389,115.053,363.733,115.709,363.178,116.455z"/>
	<path d="M392.253,237.567c0.527,0,1.052,0.053,1.567,0.157l0.879-2.603c-1.576-0.763-2.848-2.021-3.639-3.618
		s-1.02-3.372-0.67-5.087l-2.602-0.879c-1.313,2.706-4.069,4.463-7.14,4.464c-0.526,0-1.05-0.053-1.564-0.157l-0.88,2.604
		c1.574,0.762,2.846,2.02,3.637,3.618c0.791,1.598,1.02,3.373,0.67,5.088l2.602,0.879
		C386.427,239.326,389.184,237.567,392.253,237.567z M385.151,237.627l-0.414-1.277c-0.32-0.988-0.778-1.915-1.362-2.756
		l-0.765-1.104l1.276-0.417c0.984-0.321,1.912-0.781,2.758-1.367l1.104-0.766l0.416,1.278c0.321,0.985,0.781,1.914,1.365,2.762
		l0.766,1.108l-1.281,0.413c-0.971,0.312-1.898,0.771-2.757,1.364L385.151,237.627z"/>
	<path d="M175.57,420.586v-6.164c-6.527-0.486-11.752-5.646-12.246-12.089h-6.24c-0.493,6.443-5.718,11.603-12.244,12.089v6.164
		c6.526,0.488,11.75,5.646,12.244,12.091h6.24C163.817,426.232,169.043,421.074,175.57,420.586z M165.028,418.309
		c-1.516,1.109-2.865,2.443-4.012,3.963l-0.813,1.077l-0.812-1.078c-1.143-1.517-2.491-2.851-4.009-3.963l-1.093-0.802l1.092-0.803
		c1.524-1.12,2.873-2.453,4.01-3.963l0.812-1.078l0.813,1.078c1.141,1.512,2.491,2.844,4.014,3.963l1.094,0.803L165.028,418.309z"/>
</g>
</svg>
