<?xml version="1.0" encoding="utf-8"?>
<!-- Generator: Adobe Illustrator 15.1.0, SVG Export Plug-In . SVG Version: 6.00 Build 0)  -->
<!DOCTYPE svg PUBLIC "-//W3C//DTD SVG 1.1//EN" "http://www.w3.org/Graphics/SVG/1.1/DTD/svg11.dtd">
<svg version="1.1" id="Layer_1" xmlns="http://www.w3.org/2000/svg" xmlns:xlink="http://www.w3.org/1999/xlink" x="0px" y="0px"
	 width="500px" height="500px" viewBox="0 0 500 500" enable-background="new 0 0 500 500" xml:space="preserve">
<g>
	<path fill="#010101" d="M218.93,415.63l-2.45-0.5l1.01-4.899l4.9,1.01l-1.01,4.899C218.93,415.63,221.38,416.14,218.93,415.63z
		 M207.1,412.779l-2.41-0.67l1.34-4.819l4.81,1.34l-1.34,4.819C207.1,412.779,209.5,413.449,207.1,412.779z M299.48,408.27
		l4.81-1.369l1.37,4.81l-4.811,1.37C299.48,408.27,300.85,413.08,299.48,408.27z M310.79,404.811l4.71-1.691l1.689,4.701
		l-4.709,1.689C310.79,404.811,312.48,409.51,310.79,404.811z M102.84,333.92L102.84,333.92l-1.3-2.141l4.27-2.6l2.6,4.28
		l-4.27,2.601C102.84,333.92,104.14,336.061,102.84,333.92z M96.88,323.32l-1.14-2.221l4.44-2.3l2.29,4.44l-4.44,2.3
		C96.88,323.32,98.03,325.54,96.88,323.32z M91.67,312.33l-0.99-2.29l4.58-1.99l1.99,4.59l-4.59,1.979
		C91.67,312.33,92.66,314.619,91.67,312.33z M412.33,311.449l1.96-4.6l4.6,1.961l-1.96,4.6
		C412.33,311.449,416.93,313.41,412.33,311.449z M87.23,301l-0.84-2.35l4.72-1.67l0.83,2.359l0,0l0.83,2.359l-4.71,1.66
		C87.23,301,88.06,303.359,87.23,301z M416.75,300.47l1.64-4.72l4.72,1.64l-0.819,2.36l0,0l-0.82,2.359
		C416.75,300.47,421.47,302.109,416.75,300.47z M420.4,289.22l1.31-4.83l4.83,1.31l-1.31,4.83
		C420.4,289.22,425.23,290.529,420.4,289.22z M423.27,277.74l0.98-4.9l4.9,0.971l-0.971,4.899
		C423.27,277.74,428.18,278.71,423.27,277.74z M425.34,266.09l0.63-4.96l4.97,0.63l-0.64,4.96
		C425.34,266.09,430.3,266.72,425.34,266.09z M77.78,257.8l-0.23-2.489l4.98-0.461l0.23,2.49l0,0l0.23,2.49l-4.98,0.46
		C77.78,257.8,78.01,260.29,77.78,257.8z M426.6,254.33l0.29-4.99l4.99,0.29l-0.28,4.989C426.6,254.33,431.6,254.619,426.6,254.33z
		 M77.08,245.65L77.08,245.65l-0.06-2.5l5-0.12l0.12,5l-5,0.12C77.08,245.65,77.14,248.15,77.08,245.65z M427.02,240.02l-0.029-2.5
		l5-0.06l0.06,5l-5,0.06C427.02,240.02,427.05,242.52,427.02,240.02z M77.1,235.98l0.23-4.99l4.99,0.22l-0.22,5
		C77.1,235.98,82.1,236.21,77.1,235.98z M426.48,228.2l-0.201-2.49l4.99-0.4l0.4,4.99l-4.99,0.39
		C426.48,228.2,426.68,230.69,426.48,228.2z M77.9,223.84l0.57-4.97l4.97,0.57l-0.57,4.97C77.9,223.84,82.87,224.41,77.9,223.84z
		 M425.14,216.45l-0.36-2.47l4.94-0.74l0.37,2.47l0,0l0.37,2.48l-4.95,0.73C425.14,216.45,425.51,218.92,425.14,216.45z
		 M79.54,211.77l0.45-2.46l0,0l0.46-2.46l4.92,0.91l-0.46,2.46l0,0l-0.46,2.46C79.54,211.77,84.45,212.68,79.54,211.77z
		 M423.01,204.81h0.01l-0.539-2.44l4.89-1.06l1.06,4.88l-4.88,1.07C423.01,204.81,423.55,207.26,423.01,204.81z M82,199.84
		l0.63-2.42l0,0l0.62-2.42l4.84,1.25l-1.25,4.84C82,199.84,86.84,201.09,82,199.84z M420.1,193.35l-0.689-2.39l4.8-1.4l0.69,2.4
		c0,0,0,0,0.01,0l0.689,2.4l-4.8,1.4C420.1,193.35,420.8,195.76,420.1,193.35z M85.29,188.11l1.58-4.74l4.74,1.58l-1.58,4.74
		C85.29,188.11,90.03,189.69,85.29,188.11z M416.42,182.12L416.42,182.12l-0.859-2.34l4.689-1.73l0.859,2.35l0,0l0.86,2.35
		l-4.69,1.72C416.42,182.12,417.279,184.47,416.42,182.12z M89.37,176.64l1.9-4.62l4.63,1.9l-1.91,4.63
		C89.37,176.64,93.99,178.55,89.37,176.64z M94.23,165.48l2.21-4.48l4.48,2.22l-2.21,4.48C94.23,165.48,98.71,167.7,94.23,165.48z
		 M99.84,154.68l2.51-4.32l4.32,2.52l-1.26,2.16l0,0l-1.25,2.16C99.84,154.68,104.16,157.2,99.84,154.68z M400.85,150.33l-1.32-2.12
		l4.24-2.65l2.65,4.24l-4.24,2.65C400.85,150.33,402.18,152.45,400.85,150.33z M106.17,144.29l2.8-4.14l4.14,2.81l-2.8,4.14
		C106.17,144.29,110.31,147.1,106.17,144.29z M394.25,140.53l-1.471-2.02l4.051-2.94l1.47,2.03l0,0l1.47,2.02l-4.05,2.94
		C394.25,140.53,395.72,142.56,394.25,140.53z M113.19,134.36l3.08-3.94l3.94,3.08l-3.08,3.94
		C113.19,134.36,117.13,137.44,113.19,134.36z M386.99,131.21l-1.61-1.92l3.84-3.2l1.601,1.92c0,0,0,0,0-0.01l1.609,1.92l-3.84,3.21
		C386.99,131.21,388.59,133.13,386.99,131.21z M120.88,124.92l3.34-3.72l3.72,3.35l-3.34,3.72
		C120.88,124.92,124.6,128.27,120.88,124.92z M379.1,122.41L379.1,122.41l-1.729-1.81l3.61-3.46l3.459,3.61l-3.609,3.46
		C379.1,122.41,380.83,124.21,379.1,122.41z M129.19,116.04l1.79-1.74l0,0l1.79-1.74l3.49,3.58l-3.59,3.49
		C129.19,116.04,132.67,119.63,129.19,116.04z M370.63,114.16l-1.851-1.68l3.36-3.7l1.851,1.68l0,0l1.85,1.68l-3.359,3.7
		C370.63,114.16,372.48,115.84,370.63,114.16z M138.08,107.74l3.82-3.23l3.23,3.82l-3.82,3.23
		C138.08,107.74,141.31,111.56,138.08,107.74z M361.609,106.51l-1.959-1.55l3.109-3.92l3.92,3.1l-3.109,3.92
		C361.609,106.51,363.57,108.06,361.609,106.51z M147.52,100.08l4.03-2.97l2.96,4.03l-4.03,2.96
		C147.52,100.08,150.48,104.1,147.52,100.08z M352.1,99.49l-2.07-1.41l2.83-4.12l4.131,2.83l-2.83,4.12
		C352.1,99.49,354.16,100.91,352.1,99.49z M157.46,93.08l4.23-2.68l2.67,4.22l-4.22,2.68C157.46,93.08,160.14,97.3,157.46,93.08z
		 M342.12,93.14l-2.15-1.27l2.54-4.31l4.311,2.54l-2.541,4.31C342.12,93.14,344.279,94.41,342.12,93.14z M167.86,86.78l4.4-2.38
		l2.38,4.39l-4.4,2.38C167.86,86.78,170.24,91.17,167.86,86.78z M331.74,87.48l-2.24-1.12l2.24-4.47l4.47,2.24l-2.24,4.47
		C331.74,87.48,333.97,88.6,331.74,87.48z M178.68,81.21l2.28-1.04c0,0,0,0-0.01,0l2.28-1.03l2.07,4.55l-4.55,2.07
		C178.68,81.21,180.75,85.76,178.68,81.21z M320.99,82.54L320.99,82.54l-2.311-0.97l1.93-4.61l4.621,1.93l-1.94,4.61
		C320.99,82.54,323.29,83.5,320.99,82.54z M189.85,76.39l4.69-1.75l1.75,4.69l-4.68,1.75C189.85,76.39,191.61,81.08,189.85,76.39z
		 M201.34,72.37l4.79-1.43l1.42,4.79l-4.79,1.43C201.34,72.37,202.76,77.16,201.34,72.37z M213.06,69.13l2.44-0.55c0,0,0,0,0,0.01
		l2.44-0.55l1.1,4.88l-4.88,1.09C213.06,69.13,214.16,74.01,213.06,69.13z M287.061,72.29l-2.451-0.47l0.94-4.91l4.91,0.95
		l-0.94,4.91C287.061,72.29,289.52,72.77,287.061,72.29z M224.98,66.7l4.95-0.76l0.76,4.94l-4.94,0.77
		C224.98,66.7,225.75,71.65,224.98,66.7z M275.37,70.46l-2.48-0.3l0.601-4.96l2.49,0.3c0,0,0,0-0.011,0l2.49,0.3l-0.601,4.97
		C275.37,70.46,277.859,70.77,275.37,70.46z M237.04,65.09l2.5-0.22l0,0l2.49-0.21l0.42,4.98l-4.98,0.43
		C237.04,65.09,237.47,70.07,237.04,65.09z M263.6,69.45l-2.5-0.13l0.26-5l4.99,0.26l-0.26,5C263.6,69.45,266.09,69.58,263.6,69.45z
		 M249.19,64.29l5-0.09l0.08,5l-5,0.09C249.19,64.29,249.27,69.29,249.19,64.29z"/>
	<g>
		<rect x="106.405" y="294.562" width="5.737" height="5.732"/>
		<rect x="117.878" y="294.562" width="5.735" height="5.732"/>
		<rect x="129.349" y="294.562" width="5.735" height="5.732"/>
	</g>
	<g>
		<path d="M228.032,417.788L273,438.561c0.959,0.444,2.055,0.038,2.498-0.92l14.016-30.343c0.443-0.957,0.041-2.052-0.918-2.495
			l-13.047-6.025l2.369-5.127c0.442-0.96,0.041-2.055-0.918-2.497l-15.421-7.124c-0.958-0.443-2.058-0.041-2.501,0.919l-2.386,5.165
			l-13.084-6.044c-0.958-0.443-2.057-0.037-2.499,0.921l-14.017,30.34C226.711,416.266,227.114,417.363,228.032,417.788
			L228.032,417.788z M261.711,388.235l12.001,5.544l-1.598,3.459l-12.001-5.545L261.711,388.235z M243.755,388.236l12.67,5.852
			c0.105,0.102,0.23,0.157,0.357,0.217c0.123,0.057,0.247,0.114,0.393,0.132l14.671,6.775c0.104,0.101,0.23,0.158,0.354,0.216
			c0.125,0.059,0.25,0.116,0.396,0.131l12.668,5.853l-5.43,11.752l-11.295-5.217l0.943-2.042c0.443-0.959,0.041-2.053-0.918-2.497
			c-0.958-0.443-2.055-0.04-2.498,0.92l-0.943,2.04l-12.002-5.544l0.943-2.041c0.443-0.96,0.039-2.056-0.92-2.499
			s-2.057-0.04-2.5,0.919l-0.943,2.041l-11.377-5.255L243.755,388.236z M236.748,403.405l11.376,5.256l-0.886,1.917
			c-0.442,0.958-0.038,2.057,0.921,2.5c0.958,0.442,2.056,0.038,2.499-0.921l0.886-1.916l12.003,5.545l-0.887,1.916
			c-0.443,0.959-0.038,2.057,0.92,2.5c0.959,0.441,2.055,0.037,2.497-0.921l0.886-1.918l11.378,5.257l-5.431,11.753l-41.592-19.215
			L236.748,403.405z M236.748,403.405"/>
	</g>
	<g>
		<path d="M136.193,392.279l-23.777-23.777v-22.615c0-3.611-2.938-6.551-6.55-6.551c-3.611,0-6.549,2.939-6.549,6.551v41.166
			c0,0.419,0.141,0.824,0.396,1.152l16.445,21.012v14.326c0,1.031,0.838,1.87,1.87,1.87h16.842c1.032,0,1.871-0.839,1.871-1.87
			v-29.94C136.742,393.106,136.544,392.629,136.193,392.279L136.193,392.279z M132.999,421.67h-13.099v-13.1
			c0-0.418-0.138-0.82-0.396-1.15l-16.444-21.012v-40.521c0-1.549,1.259-2.809,2.806-2.809s2.808,1.26,2.808,2.809v23.391
			c0,0.496,0.196,0.972,0.548,1.321l2.713,2.715c-2.964,0.876-5.132,3.624-5.132,6.869c0,1.915,0.744,3.714,2.098,5.066
			l11.547,11.549l2.646-2.649l-11.546-11.545c-0.647-0.648-1.004-1.506-1.004-2.421c0-1.886,1.536-3.421,3.423-3.421
			c0.911,0,1.767,0.353,2.414,0.995l16.618,16.618V421.67z M132.999,421.67"/>
		<path d="M205.042,339.336c-3.613,0-6.551,2.939-6.551,6.551v22.615l-23.777,23.777c-0.351,0.35-0.548,0.827-0.548,1.323v29.94
			c0,1.031,0.838,1.87,1.871,1.87h16.841c1.032,0,1.871-0.839,1.871-1.87v-14.326l16.444-21.012
			c0.256-0.328,0.396-0.733,0.396-1.152v-41.166C211.59,342.275,208.652,339.336,205.042,339.336L205.042,339.336z M207.847,386.408
			l-16.444,21.012c-0.257,0.33-0.396,0.732-0.396,1.15v13.1h-13.099v-27.295l16.62-16.618c0.645-0.643,1.502-0.995,2.412-0.995
			c1.888,0,3.423,1.535,3.423,3.421c0,0.915-0.356,1.772-1.003,2.421l-11.547,11.545l2.646,2.649l11.547-11.549
			c1.354-1.354,2.099-3.151,2.099-5.066c0-3.245-2.169-5.993-5.133-6.869l2.713-2.715c0.353-0.35,0.548-0.825,0.548-1.321v-23.391
			c0-1.549,1.26-2.809,2.808-2.809c1.547,0,2.806,1.26,2.806,2.809V386.408z M207.847,386.408"/>
		<rect x="172.294" y="313.141" width="3.742" height="3.742"/>
		<rect x="179.779" y="313.141" width="3.743" height="3.742"/>
		<rect x="187.264" y="313.141" width="3.743" height="3.742"/>
		<rect x="119.899" y="313.141" width="3.743" height="3.742"/>
		<rect x="127.385" y="313.141" width="3.743" height="3.742"/>
		<rect x="134.871" y="313.141" width="3.741" height="3.742"/>
		<path d="M157.324,326.285v-9.402h11.228v-3.742h-26.197v3.742h11.229v9.402c-12.73,0.504-22.455,6.047-22.455,13.051v33.682
			c0,7.346,10.685,13.1,24.326,13.1c13.641,0,24.325-5.754,24.325-13.1v-33.682C179.779,332.332,170.054,326.789,157.324,326.285
			L157.324,326.285z M176.037,373.018c0,4.429-8.454,9.356-20.583,9.356c-12.129,0-20.583-4.928-20.583-9.356v-4.174
			c4.269,3.657,11.804,6.045,20.583,6.045c8.778,0,16.313-2.388,20.583-6.045V373.018z M176.037,361.791
			c0,4.426-8.454,9.356-20.583,9.356c-12.129,0-20.583-4.931-20.583-9.356v-4.174c4.269,3.656,11.804,6.045,20.583,6.045
			c8.778,0,16.313-2.389,20.583-6.045V361.791z M176.037,350.564c0,4.426-8.454,9.357-20.583,9.357
			c-12.129,0-20.583-4.932-20.583-9.357v-4.176c4.269,3.658,11.804,6.045,20.583,6.045c8.778,0,16.313-2.387,20.583-6.045V350.564z
			 M155.454,348.692c-12.129,0-20.583-4.931-20.583-9.356c0-4.193,7.594-8.831,18.712-9.307v7.437h-3.743v3.741h11.227v-3.741
			h-3.743v-7.437c11.118,0.476,18.713,5.113,18.713,9.307C176.037,343.762,167.583,348.692,155.454,348.692L155.454,348.692z
			 M155.454,348.692"/>
		<rect x="153.583" y="389.858" width="3.742" height="3.744"/>
		<rect x="153.583" y="397.344" width="3.742" height="3.744"/>
		<rect x="161.067" y="397.344" width="3.743" height="3.744"/>
		<rect x="146.097" y="397.344" width="3.743" height="3.744"/>
		<rect x="153.583" y="404.829" width="3.742" height="3.743"/>
		<rect x="153.583" y="412.314" width="3.742" height="3.744"/>
		<rect x="153.583" y="419.799" width="3.742" height="3.744"/>
	</g>
	<g>
		<path d="M326.178,302.012l-4.396-1.764l0.956-1.063c15.099-16.794,23.413-38.495,23.413-61.108
			c0-18.444-5.479-36.237-15.844-51.457l-0.064-0.11c-0.082-0.16-0.184-0.306-0.303-0.435l-0.09-0.111
			c-4.53-6.531-9.893-12.449-15.936-17.59c-0.779-0.662-2.047-0.556-2.707,0.22c-0.686,0.806-0.588,2.021,0.219,2.708
			c4.959,4.217,9.458,8.999,13.369,14.212l0.789,1.053l-1.226,0.479c-6.188,2.418-13.61,4.48-22.056,6.128l-0.86,0.168l-0.278-0.831
			c-2.287-6.807-5.086-13.104-8.319-18.714c-4.362-7.564-9.383-13.703-14.923-18.245l0.908-1.735
			c8.832,2.525,17.189,6.426,24.841,11.595c0.854,0.575,2.096,0.329,2.667-0.516c0.592-0.878,0.361-2.074-0.516-2.667
			c-15.13-10.22-32.814-15.623-51.143-15.623c-24.433,0-47.403,9.515-64.68,26.791c-17.276,17.277-26.791,40.247-26.791,64.68
			c0,22.633,8.327,44.349,23.447,61.146l0.966,1.074l-4.345,1.701c-1.032,0.373-9.865,3.887-9.865,15.162v10.462
			c0,1.062,0.861,1.926,1.92,1.926h42.982c0.093,0,0.184-0.012,0.271-0.024l0.14-0.02l0.14,0.02c0.09,0.013,0.182,0.024,0.276,0.024
			h11.882c1.059,0,1.919-0.862,1.919-1.922c0-1.059-0.861-1.92-1.919-1.92h-9.962v-11.17c0-11.443,9.052-14.744,9.437-14.879
			l0.101-0.038l14.841-5.809l0.537,0.557l7.556,7.361c0.359,0.35,0.836,0.542,1.338,0.542c0.539-0.007,1.031-0.222,1.382-0.587
			l7.726-8.015l14.928,5.981c0.385,0.137,9.451,3.484,9.451,14.886v11.17H240.15c-1.058,0-1.919,0.861-1.919,1.92
			c0,1.06,0.861,1.922,1.919,1.922h93.939c1.058,0,1.919-0.871,1.919-1.942V317.16C336.009,305.91,327.184,302.378,326.178,302.012z
			 M342.256,241.028c-0.709,21.341-9.178,41.649-23.844,57.187l-0.467,0.494l-4.139-1.656v-2.912l0.494-0.289
			c3.014-1.77,5.267-4.563,6.343-7.865l0.206-0.635l0.666-0.053c3.746-0.297,6.682-3.473,6.682-7.229
			c0-2.184-0.975-4.233-2.676-5.623l-0.367-0.3v-5.663c0-9.38-7.012-17.343-16.311-18.523l-0.924-0.118l0.051-0.93
			c0.113-2.036,0.188-4.033,0.223-5.936l0.019-0.981h34.077L342.256,241.028z M307.142,291.954h-2.663
			c-5.711,0-10.357-4.646-10.357-10.356v-8.623l0.893-0.098c3.519-0.382,10.172-1.65,15.199-5.851l0.91-0.759l0.596,1.023
			c1.365,2.343,3.117,4.027,5.206,5.008l0.575,0.271v9.028C317.5,287.309,312.854,291.954,307.142,291.954z M309.968,295.552v3.152
			l-4.232,4.39l-4.08-3.973v-3.569l1.121,0.137c0.583,0.071,1.141,0.106,1.704,0.106h2.663c0.554,0,1.128-0.036,1.703-0.106
			L309.968,295.552z M291.67,269.297l-1.32,0.447l-0.107-1.357v-1.903c0-8.183,6.656-14.839,14.838-14.839h1.396
			c8.182,0,14.838,6.656,14.838,14.839v3.251l-1.508-0.475c-4.561-1.037-6.06-6.877-6.121-7.125
			c-0.172-0.754-0.756-1.326-1.492-1.477c-0.743-0.15-1.506,0.152-1.94,0.755c-5.583,7.719-17.917,7.808-18.042,7.808
			c-0.078,0-0.146,0.005-0.214,0.012l-0.173,0.025l-0.327-0.871L291.67,269.297z M290.282,274.205v7.73l-1.542-0.994
			c-0.983-0.633-1.57-1.707-1.57-2.872c0-1.166,0.587-2.239,1.571-2.873L290.282,274.205z M321.34,281.982v-7.826l1.582,1.133
			c0.898,0.644,1.436,1.683,1.436,2.78c0,1.099-0.537,2.138-1.436,2.781L321.34,281.982z M303.646,196.808
			c9.031-1.793,16.902-4.05,23.396-6.707l0.767-0.313l0.45,0.696c8.623,13.319,13.461,28.755,13.994,44.638l0.035,1.034h-34.08
			l-0.018-0.982c-0.236-13.036-2.023-25.522-5.312-37.112l-0.296-1.042L303.646,196.808z M256.598,150.495l1.107,0.118
			c11.918,1.273,23.216,10.188,31.813,25.1c2.988,5.184,5.59,10.968,7.733,17.192l0.386,1.121l-1.17,0.191
			c-11.909,1.95-25.346,3.052-38.858,3.188l-1.011,0.01V150.495z M256.598,201.258l0.99-0.01c14.01-0.14,27.953-1.313,40.324-3.393
			l0.879-0.147l0.248,0.856c3.281,11.367,5.068,23.671,5.311,36.573l0.02,1.019h-31.35l-0.307-0.329
			c-3.949-4.366-9.346-7.02-15.191-7.472l-0.924-0.071V201.258z M255.746,232.12c10.499,0,19.04,8.542,19.04,19.04v5.607
			l-2.179-1.577l-0.293-0.091c-6.027-1.368-7.945-8.958-8.023-9.281c-0.17-0.751-0.754-1.322-1.491-1.472
			c-0.743-0.155-1.507,0.152-1.941,0.755c-7.124,9.85-22.796,9.963-22.954,9.963c-0.074,0-0.137,0.004-0.199,0.01l-0.231-0.975l0,0
			l0.123,0.992l-0.12,0.021l-0.415-0.925l0,0l0.276,0.96l-0.667,0.357l-1.672,1.518l-0.038-2.223v-3.641
			c0-10.499,8.541-19.04,19.039-19.04H255.746z M275.126,261.074c2.04,0.578,3.464,2.459,3.464,4.574
			c0,2.117-1.424,3.998-3.465,4.574l-1.271,0.359v-9.867L275.126,261.074z M235.974,260.729v9.839l-1.239-0.306
			c-2.129-0.525-3.616-2.422-3.616-4.613c0-2.188,1.486-4.086,3.615-4.613L235.974,260.729z M204.988,236.156l0.019-1.019
			c0.242-12.904,2.03-25.21,5.315-36.578l0.247-0.856l0.879,0.147c12.389,2.081,26.331,3.255,40.321,3.397l0.99,0.01v27.04
			l-0.907,0.085c-5.702,0.534-10.97,3.184-14.832,7.462l-0.339,0.375l-0.503-0.05c-0.074-0.007-0.149-0.014-0.225-0.014H204.988z
			 M252.76,150.495v46.922l-1.011-0.01c-13.489-0.138-26.925-1.243-38.854-3.197l-1.17-0.191l0.386-1.121
			c2.14-6.214,4.74-11.996,7.73-17.184c8.596-14.913,19.893-23.827,31.811-25.1L252.76,150.495z M184.601,185.521
			c11.433-15.207,27.732-26.457,45.896-31.678l0.911,1.734c-5.531,4.541-10.542,10.67-14.893,18.219
			c-3.237,5.613-6.035,11.907-8.317,18.707l-0.279,0.831l-0.86-0.168c-8.437-1.646-15.846-3.702-22.021-6.112l-1.228-0.479
			L184.601,185.521z M167.104,235.123c0.53-15.88,5.378-31.312,14.021-44.626l0.451-0.694l0.766,0.313
			c6.451,2.638,14.313,4.887,23.371,6.686l1.063,0.211l-0.296,1.042c-3.291,11.599-5.079,24.087-5.313,37.119l-0.018,0.982H167.07
			L167.104,235.123z M205.269,291.954h-2.665c-5.71,0-10.356-4.646-10.356-10.356v-8.621l0.893-0.096
			c3.513-0.38,10.159-1.646,15.199-5.854l0.909-0.759l0.596,1.023c1.365,2.343,3.117,4.027,5.206,5.008l0.575,0.271v9.028
			C215.625,287.309,210.979,291.954,205.269,291.954z M208.09,295.551v3.153l-4.23,4.391l-4.081-3.974v-3.569l1.121,0.137
			c0.576,0.07,1.149,0.106,1.703,0.106h2.665c0.555,0,1.126-0.036,1.7-0.106L208.09,295.551z M211.804,262.104
			c-0.164-0.724-0.747-1.295-1.483-1.445c-0.742-0.149-1.508,0.152-1.94,0.752c-5.587,7.722-17.919,7.811-18.043,7.811
			c-0.08,0-0.147,0.005-0.216,0.012l-0.331,0.066l-1.334,0.474l-0.087-1.386v-1.903c0-8.183,6.657-14.839,14.839-14.839h1.397
			c8.182,0,14.838,6.656,14.838,14.839v3.286l-1.515-0.512C213.234,268.191,211.817,262.164,211.804,262.104z M188.406,274.205
			v7.729l-1.542-0.992c-0.984-0.633-1.572-1.707-1.572-2.872c0-1.166,0.588-2.24,1.572-2.874L188.406,274.205z M167.104,241.028
			l-0.034-1.033h34.078l0.018,0.982c0.035,1.933,0.11,3.944,0.224,5.976l0.051,0.915l-0.907,0.13
			c-9.125,1.313-16.007,9.26-16.007,18.485v5.645l-0.371,0.3c-1.718,1.391-2.703,3.446-2.703,5.642c0,3.799,2.973,6.976,6.768,7.231
			l0.674,0.045l0.209,0.643c1.078,3.303,3.33,6.095,6.343,7.863l0.494,0.289v2.899l-4.455,1.741l-0.463-0.488
			C176.306,282.742,167.812,262.405,167.104,241.028z M219.265,305.285c-1.356,2.773-2.043,5.886-2.043,9.251v11.17h-39.967v-8.546
			c0-8.842,6.978-11.426,7.274-11.531l0.131-0.045l11.589-4.541l6.316,6.15c0.36,0.35,0.836,0.543,1.339,0.543
			c0.538-0.008,1.031-0.222,1.383-0.586l5.994-6.222l8.457,3.39L219.265,305.285z M245.395,289.703l-16.133,6.316
			c-2.296,0.791-4.811,2.499-6.765,4.582l-0.468,0.498l-10.099-4.047v-2.912l0.494-0.289c3.013-1.768,5.266-4.562,6.344-7.865
			l0.207-0.635l0.665-0.053c3.748-0.297,6.684-3.473,6.684-7.229c0-2.183-0.976-4.232-2.677-5.623l-0.367-0.3v-5.663
			c0-9.643-7.524-17.817-17.129-18.609l-0.867-0.071l-0.05-0.868c-0.115-2.01-0.191-4.002-0.228-5.92l-0.019-1.019h28.989
			l-0.674,1.427c-1.448,3.063-2.182,6.339-2.182,9.738v7.312l-0.399,0.3c-2.189,1.645-3.445,4.15-3.445,6.877
			c0,4.666,3.796,8.521,8.463,8.593l0.734,0.011l0.209,0.705c1.273,4.301,4.261,8.021,8.197,10.21l0.514,0.286V289.703z
			 M219.464,281.979v-7.814l1.58,1.122c0.901,0.64,1.438,1.681,1.438,2.783c0,1.101-0.537,2.14-1.438,2.782L219.464,281.979z
			 M260.592,291.65l-5.761,5.979l-5.596-5.45v-5.276l1.165,0.194c0.951,0.159,1.909,0.239,2.85,0.239h3.328
			c0.939,0,1.897-0.08,2.849-0.239l1.165-0.194V291.65z M256.578,283.496h-3.328c-7.408,0-13.435-6.027-13.435-13.435v-11.221
			l0.908-0.083c4.7-0.434,13.552-2.027,20.03-7.842l0.953-0.855l0.599,1.133c1.229,2.324,3.457,5.42,7.102,6.977l0.607,0.26v11.632
			C270.014,277.469,263.986,283.496,256.578,283.496z M287.403,301.116l-0.463-0.495c-1.954-2.088-4.472-3.801-6.733-4.582
			l-15.775-6.327v-4.259l0.514-0.286c3.936-2.187,6.924-5.909,8.197-10.212l0.207-0.695l0.725-0.021
			c4.607-0.128,8.355-3.981,8.355-8.591c0-2.706-1.242-5.203-3.409-6.85l-0.396-0.3v-7.339c0-3.396-0.733-6.673-2.182-9.738
			l-0.674-1.427h28.601l-0.021,1.02c-0.039,1.953-0.116,3.953-0.229,5.943l-0.049,0.854l-0.852,0.084
			c-9.589,0.951-16.82,8.942-16.82,18.586v5.645l-0.371,0.3c-1.717,1.39-2.701,3.445-2.701,5.642c0,3.8,2.973,6.978,6.768,7.233
			l0.674,0.046l0.209,0.642c1.078,3.303,3.331,6.094,6.343,7.86l0.494,0.29v2.899L287.403,301.116z M332.169,325.706h-39.97v-11.17
			c0-3.354-0.682-6.456-2.027-9.218l-0.475-0.975l8.428-3.3l6.314,6.149c0.359,0.35,0.835,0.543,1.34,0.543
			c0.537-0.008,1.03-0.222,1.383-0.586l5.992-6.222l11.73,4.7c0.277,0.097,7.284,2.657,7.284,11.531V325.706z"/>
	</g>
	<path d="M419.351,164.986v-3.363c-3.458-0.246-6.229-3.017-6.475-6.475h-3.362c-0.246,3.458-3.016,6.229-6.474,6.475v3.363
		c3.457,0.246,6.228,3.016,6.474,6.473h3.362C413.121,168.001,415.893,165.231,419.351,164.986z M413.725,163.703
		c-0.812,0.605-1.527,1.322-2.129,2.128l-0.402,0.539l-0.4-0.539c-0.598-0.804-1.313-1.52-2.127-2.128l-0.538-0.402l0.539-0.4
		c0.811-0.602,1.526-1.317,2.126-2.127l0.4-0.541l0.402,0.541c0.604,0.813,1.32,1.528,2.129,2.127l0.539,0.4L413.725,163.703z"/>
	<path d="M312.338,75.188v-3.104c-3.243-0.244-5.84-2.842-6.084-6.085h-3.105c-0.244,3.243-2.842,5.841-6.084,6.085v3.104
		c3.242,0.244,5.84,2.842,6.084,6.085h3.105C306.498,78.03,309.095,75.432,312.338,75.188z M307.097,74.037
		c-0.759,0.563-1.43,1.234-1.995,1.994l-0.4,0.539L304.3,76.03c-0.563-0.758-1.235-1.429-1.995-1.994l-0.54-0.402l0.54-0.401
		c0.76-0.563,1.431-1.233,1.994-1.993l0.402-0.541l0.4,0.541c0.565,0.761,1.236,1.431,1.994,1.993l0.542,0.401L307.097,74.037z"/>
	<path d="M95.416,281.465v-4.497c-5.049-0.474-9.08-4.505-9.555-9.553h-4.495c-0.475,5.048-4.504,9.079-9.553,9.553v4.497
		c5.049,0.475,9.079,4.505,9.553,9.554h4.495C86.336,285.97,90.367,281.939,95.416,281.465z M87.509,280.02
		c-1.17,0.869-2.211,1.91-3.093,3.094l-0.803,1.078l-0.802-1.078c-0.879-1.184-1.919-2.225-3.089-3.094l-1.08-0.802l1.079-0.804
		c1.174-0.873,2.214-1.914,3.09-3.094l0.802-1.078l0.803,1.078c0.878,1.18,1.919,2.221,3.094,3.094l1.081,0.804L87.509,280.02z"/>
	<path d="M427.715,347.967l-24.605-34.502c-0.759-1.064-2.227-1.305-3.285-0.551c-15.051,10.734-20.652,20.541-20.889,20.951
		c-0.33,0.59-0.391,1.288-0.174,1.921c0.197,0.561,0.6,1.012,1.115,1.294c-3.681,0.969-8.868,2.256-14.205,3.329
		c-9.121,1.843-12.908,5.968-15.07,13.39l-15.337,10.938c-0.354-0.667-0.706-1.303-1.052-1.891
		c-0.367-0.619-0.992-1.042-1.701-1.135c-5.506-0.771-19.361,7.59-23.479,10.171c-0.563,0.364-0.938,0.899-1.062,1.538
		c-0.125,0.635,0.018,1.297,0.394,1.824l24.607,34.506c0.754,1.057,2.226,1.305,3.284,0.55l11.501-8.203
		c0.827-0.589,1.183-1.649,0.875-2.622c-0.045-0.146-0.236-0.755-0.548-1.72c0.759,0.139,1.599,0.301,2.472,0.466
		c2.982,0.565,6.067,1.154,7.967,1.303c11.399,0.887,24.582,1.221,27.092,1.122c2.073-0.077,6.043-0.939,8.398-2.618
		c1.889-1.35,3.032-2.821,3.438-4.385c1.722-0.437,3.258-1.527,4.325-3.154c1.263-1.918,1.728-4.301,1.362-6.53
		c1.741-0.756,3.309-2.214,4.317-4.124c0.986-1.871,1.251-3.848,0.817-5.625c1.584-1.011,2.771-2.672,3.273-4.713
		c0.684-2.748-0.121-5.436-2.068-7.293l1.582-4.207c0.703,0.537,1.297,0.998,1.752,1.367c0.821,0.668,1.988,0.705,2.852,0.089
		l11.5-8.2C428.222,350.497,428.469,349.024,427.715,347.967z M335.438,405.098l-21.773-30.531c6.509-3.906,13.91-7.59,17.162-8.14
		c4.97,9.119,11.011,27.315,12.796,32.835L335.438,405.098z M406.975,368.355c-0.286,1.158-1.133,2.08-1.959,2.137
		c-2.3-0.14-12.754-2.018-19.299-3.252c-1.279-0.245-2.512,0.595-2.75,1.877c-0.246,1.277,0.598,2.508,1.877,2.752
		c1.549,0.291,14.043,2.649,18.783,3.221c0.371,0.988-0.082,2.062-0.336,2.537c-0.783,1.496-2.139,2.302-2.936,2.199
		c-0.031-0.004-0.063-0.002-0.094-0.006c-0.027-0.004-0.054-0.012-0.082-0.013c-3.608-0.2-13.75-2.216-16.063-2.703
		c-1.279-0.269-2.52,0.546-2.791,1.817c-0.27,1.271,0.545,2.523,1.815,2.791c0.11,0.021,10.062,2.082,15.279,2.663
		c0.288,1.168,0.091,2.495-0.579,3.515c-0.428,0.641-1.182,1.382-2.443,1.229c-0.014,0-0.027,0-0.041,0
		c-0.02-0.004-0.035-0.01-0.053-0.01c-4.377-0.357-14.216-2.32-16.145-2.711c-1.275-0.258-2.521,0.568-2.775,1.84
		c-0.258,1.275,0.568,2.516,1.841,2.777c2.288,0.461,9.081,1.805,13.93,2.469c-0.222,0.209-0.506,0.443-0.877,0.707
		c-1.278,0.912-4.188,1.688-5.842,1.742c-1.978,0.076-14.903-0.201-26.546-1.108c-1.638-0.134-4.729-0.718-7.455-1.236
		c-2-0.378-3.841-0.72-5.016-0.878c-2.168-6.432-5.629-16.18-9.059-23.685l11.758-8.384c-0.742,4.5-0.507,12.291,3.172,15.512
		c1.578,1.375,3.617,1.772,5.757,1.105c5.368-1.662,8.352-5.862,8.51-11.885c1.087-1.057,1.552-1.807,2.229-2.966
		c0.245-0.417,0.535-0.905,0.933-1.532c3.66,0.496,8.328,0.781,13.242,1.078c8.887,0.539,18.962,1.148,22.531,3.113
		C407.254,366.037,407.177,367.545,406.975,368.355z M405.301,359.929c-5.162-1.646-13.732-2.168-22.055-2.673
		c-5.487-0.334-10.672-0.646-14.265-1.249c-0.903-0.153-1.81,0.239-2.325,0.981c-0.959,1.389-1.498,2.32-1.929,3.047
		c-0.652,1.113-0.87,1.488-2.069,2.541c-0.53,0.464-0.824,1.137-0.804,1.84c0.179,5.985-2.874,7.64-5.196,8.348
		c-0.74,0.228-1.031,0.049-1.263-0.154c-1.603-1.397-2.377-6.757-1.626-11.242c1.783-10.677,3.885-14.528,12.832-16.333
		c8.474-1.708,16.583-3.944,19.09-4.656c6.15,3.866,15.256,10.2,21.434,14.699L405.301,359.929z M414.363,354.599
		c-6.039-4.626-22.412-16.233-29.957-20.476c2.218-3.08,7.285-9.266,16.252-15.986l21.856,30.648L414.363,354.599z"/>
</g>
<g>
	<path fill="#010101" d="M218.93,1028.519l-2.45-0.5l1.01-4.899l4.9,1.01l-1.01,4.899
		C218.93,1028.519,221.38,1029.028,218.93,1028.519z M207.101,1025.668l-2.41-0.67l1.34-4.819l4.81,1.34l-1.34,4.819
		C207.101,1025.668,209.5,1026.338,207.101,1025.668z M299.48,1021.158l4.811-1.369l1.369,4.81l-4.811,1.37
		C299.48,1021.158,300.85,1025.969,299.48,1021.158z M310.791,1017.699l4.709-1.691l1.689,4.701l-4.709,1.689
		C310.791,1017.699,312.48,1022.398,310.791,1017.699z M102.84,946.809L102.84,946.809l-1.3-2.141l4.27-2.6l2.6,4.28l-4.27,2.601
		C102.84,946.809,104.14,948.949,102.84,946.809z M96.88,936.209l-1.14-2.221l4.44-2.3l2.29,4.44l-4.44,2.3
		C96.88,936.209,98.03,938.429,96.88,936.209z M91.67,925.219l-0.99-2.29l4.58-1.99l1.99,4.59l-4.59,1.979
		C91.67,925.219,92.66,927.508,91.67,925.219z M412.33,924.338l1.961-4.6l4.6,1.961l-1.961,4.6
		C412.33,924.338,416.93,926.299,412.33,924.338z M87.23,913.889l-0.84-2.35l4.72-1.67l0.83,2.359l0,0l0.83,2.359l-4.71,1.66
		C87.23,913.889,88.061,916.248,87.23,913.889z M416.75,913.358l1.641-4.72l4.719,1.64l-0.818,2.36l0,0l-0.82,2.359
		C416.75,913.358,421.471,914.998,416.75,913.358z M420.4,902.108l1.311-4.83l4.83,1.31l-1.311,4.83
		C420.4,902.108,425.23,903.418,420.4,902.108z M423.27,890.629l0.98-4.9l4.9,0.971l-0.971,4.899
		C423.27,890.629,428.18,891.599,423.27,890.629z M425.34,878.979l0.631-4.96l4.969,0.63l-0.639,4.96
		C425.34,878.979,430.301,879.608,425.34,878.979z M77.78,870.688l-0.23-2.489l4.98-0.461l0.23,2.49l0,0l0.23,2.49l-4.98,0.46
		C77.78,870.688,78.01,873.179,77.78,870.688z M426.6,867.219l0.291-4.99l4.99,0.29l-0.281,4.989
		C426.6,867.219,431.6,867.508,426.6,867.219z M77.081,858.538L77.081,858.538l-0.06-2.5l5-0.119l0.12,5l-5,0.119
		C77.081,858.538,77.14,861.038,77.081,858.538z M427.02,852.909l-0.029-2.5l5-0.061l0.061,5l-5,0.061
		C427.02,852.909,427.051,855.409,427.02,852.909z M77.101,848.868l0.23-4.99l4.99,0.221l-0.22,5
		C77.101,848.868,82.101,849.099,77.101,848.868z M426.48,841.089l-0.201-2.49l4.99-0.4l0.4,4.99l-4.99,0.391
		C426.48,841.089,426.68,843.579,426.48,841.089z M77.9,836.729l0.57-4.97l4.97,0.57l-0.57,4.969
		C77.9,836.729,82.871,837.298,77.9,836.729z M425.141,829.339l-0.361-2.471l4.941-0.74l0.369,2.471l0,0l0.371,2.48l-4.951,0.729
		C425.141,829.339,425.51,831.809,425.141,829.339z M79.541,824.659l0.45-2.461l0,0l0.46-2.46l4.92,0.91l-0.46,2.46l0,0l-0.46,2.46
		C79.541,824.659,84.45,825.568,79.541,824.659z M423.01,817.698h0.01l-0.539-2.439l4.891-1.061l1.059,4.881l-4.879,1.069
		C423.01,817.698,423.551,820.148,423.01,817.698z M82,812.729l0.63-2.42l0,0l0.62-2.42l4.84,1.25l-1.25,4.84
		C82,812.729,86.84,813.979,82,812.729z M420.1,806.238l-0.689-2.39l4.801-1.4l0.689,2.4c0,0,0,0,0.01,0l0.689,2.4l-4.799,1.399
		C420.1,806.238,420.801,808.648,420.1,806.238z M85.291,800.999l1.58-4.74l4.74,1.58l-1.58,4.74
		C85.291,800.999,90.03,802.579,85.291,800.999z M416.42,795.009L416.42,795.009l-0.859-2.34l4.689-1.73l0.859,2.35l0,0l0.861,2.351
		l-4.691,1.72C416.42,795.009,417.279,797.358,416.42,795.009z M89.371,789.528l1.9-4.619l4.63,1.899l-1.91,4.63
		C89.371,789.528,93.99,791.438,89.371,789.528z M94.23,778.368l2.21-4.479l4.48,2.22l-2.21,4.48
		C94.23,778.368,98.71,780.589,94.23,778.368z M99.84,767.568l2.51-4.319l4.32,2.52l-1.26,2.16l0,0l-1.25,2.16
		C99.84,767.568,104.16,770.089,99.84,767.568z M400.85,763.219l-1.32-2.12l4.24-2.65l2.65,4.24l-4.24,2.65
		C400.85,763.219,402.18,765.339,400.85,763.219z M106.17,757.179l2.8-4.141l4.14,2.811l-2.8,4.14
		C106.17,757.179,110.311,759.988,106.17,757.179z M394.25,753.419l-1.471-2.021l4.051-2.94l1.471,2.03l0,0l1.469,2.021
		l-4.049,2.939C394.25,753.419,395.721,755.448,394.25,753.419z M113.19,747.249l3.08-3.94l3.94,3.08l-3.08,3.94
		C113.19,747.249,117.13,750.329,113.19,747.249z M386.99,744.099l-1.609-1.92l3.84-3.2l1.6,1.92c0,0,0,0,0-0.01l1.609,1.92
		l-3.84,3.21C386.99,744.099,388.59,746.019,386.99,744.099z M120.88,737.809l3.34-3.72l3.72,3.35l-3.34,3.721
		C120.88,737.809,124.601,741.159,120.88,737.809z M379.1,735.298L379.1,735.298l-1.729-1.81l3.609-3.46l3.459,3.61l-3.609,3.46
		C379.1,735.298,380.83,737.099,379.1,735.298z M129.19,728.929l1.79-1.74l0,0l1.79-1.74l3.49,3.58l-3.59,3.49
		C129.19,728.929,132.67,732.519,129.19,728.929z M370.631,727.048l-1.852-1.68l3.361-3.699l1.85,1.68l0,0l1.85,1.68l-3.359,3.7
		C370.631,727.048,372.48,728.729,370.631,727.048z M138.081,720.628l3.82-3.229l3.23,3.82l-3.82,3.229
		C138.081,720.628,141.311,724.448,138.081,720.628z M361.609,719.398l-1.959-1.55l3.109-3.92l3.92,3.1l-3.109,3.92
		C361.609,719.398,363.57,720.948,361.609,719.398z M147.521,712.969l4.03-2.97l2.96,4.029l-4.03,2.961
		C147.521,712.969,150.48,716.989,147.521,712.969z M352.1,712.378l-2.07-1.409l2.83-4.12l4.131,2.83l-2.83,4.119
		C352.1,712.378,354.16,713.798,352.1,712.378z M157.46,705.969l4.23-2.681l2.67,4.221l-4.22,2.68
		C157.46,705.969,160.14,710.188,157.46,705.969z M342.121,706.028l-2.15-1.27l2.539-4.311l4.311,2.541l-2.541,4.309
		C342.121,706.028,344.279,707.298,342.121,706.028z M167.86,699.669l4.4-2.381l2.38,4.391l-4.4,2.38
		C167.86,699.669,170.24,704.059,167.86,699.669z M331.74,700.368l-2.24-1.119l2.24-4.471l4.471,2.24l-2.24,4.471
		C331.74,700.368,333.971,701.489,331.74,700.368z M178.68,694.099l2.28-1.04c0,0,0,0-0.01,0l2.28-1.03l2.07,4.551l-4.55,2.069
		C178.68,694.099,180.75,698.648,178.68,694.099z M320.99,695.429L320.99,695.429l-2.311-0.971l1.93-4.609l4.621,1.93l-1.939,4.61
		C320.99,695.429,323.291,696.389,320.99,695.429z M189.851,689.278l4.69-1.75l1.75,4.69l-4.68,1.75
		C189.851,689.278,191.61,693.969,189.851,689.278z M201.34,685.259l4.79-1.43l1.42,4.789l-4.79,1.43
		C201.34,685.259,202.76,690.048,201.34,685.259z M213.061,682.019l2.44-0.55c0,0,0,0,0,0.01l2.44-0.55l1.1,4.88l-4.88,1.09
		C213.061,682.019,214.16,686.898,213.061,682.019z M287.061,685.179l-2.451-0.471l0.941-4.91l4.91,0.951l-0.941,4.91
		C287.061,685.179,289.52,685.659,287.061,685.179z M224.98,679.589l4.95-0.76l0.76,4.939l-4.94,0.77
		C224.98,679.589,225.75,684.538,224.98,679.589z M275.371,683.349l-2.48-0.301l0.6-4.959l2.49,0.3c0,0,0,0-0.01,0l2.49,0.3
		l-0.602,4.971C275.371,683.349,277.859,683.659,275.371,683.349z M237.041,677.979l2.5-0.22l0,0l2.49-0.211l0.42,4.98l-4.98,0.43
		C237.041,677.979,237.47,682.958,237.041,677.979z M263.6,682.339l-2.5-0.131l0.26-5l4.99,0.261l-0.26,5
		C263.6,682.339,266.09,682.469,263.6,682.339z M249.19,677.179l4.999-0.09l0.08,5l-4.999,0.09
		C249.19,677.179,249.271,682.179,249.19,677.179z"/>
	<g>
		<rect x="106.406" y="907.45" width="5.737" height="5.732"/>
		<rect x="117.878" y="907.45" width="5.735" height="5.732"/>
		<rect x="129.349" y="907.45" width="5.735" height="5.732"/>
	</g>
	<g>
		<path d="M228.032,1030.677L273,1051.449c0.959,0.444,2.055,0.038,2.498-0.92l14.016-30.343c0.443-0.957,0.041-2.052-0.918-2.495
			l-13.047-6.025l2.369-5.127c0.443-0.96,0.041-2.055-0.918-2.497l-15.42-7.124c-0.959-0.443-2.059-0.041-2.502,0.919l-2.385,5.165
			l-13.084-6.044c-0.958-0.443-2.057-0.037-2.499,0.921l-14.017,30.34C226.711,1029.154,227.115,1030.252,228.032,1030.677
			L228.032,1030.677z M261.711,1001.124l12.002,5.544l-1.598,3.459l-12.002-5.545L261.711,1001.124z M243.756,1001.125l12.67,5.852
			c0.105,0.102,0.23,0.157,0.357,0.217c0.123,0.057,0.248,0.114,0.393,0.132l14.672,6.775c0.104,0.101,0.23,0.158,0.354,0.216
			c0.125,0.059,0.25,0.116,0.396,0.131l12.668,5.853l-5.43,11.752l-11.295-5.217l0.943-2.042c0.443-0.959,0.041-2.053-0.918-2.497
			c-0.957-0.443-2.055-0.04-2.498,0.92l-0.943,2.04l-12.002-5.544l0.943-2.041c0.443-0.96,0.039-2.056-0.92-2.499
			s-2.057-0.04-2.5,0.919l-0.942,2.041l-11.377-5.255L243.756,1001.125z M236.749,1016.294l11.376,5.256l-0.886,1.917
			c-0.442,0.958-0.038,2.057,0.921,2.5c0.958,0.442,2.056,0.038,2.498-0.921l0.887-1.916l12.002,5.545l-0.887,1.916
			c-0.443,0.959-0.037,2.057,0.92,2.5c0.959,0.441,2.055,0.037,2.498-0.921l0.885-1.918l11.379,5.257l-5.432,11.753l-41.591-19.215
			L236.749,1016.294z M236.749,1016.294"/>
	</g>
	<g>
		<path d="M136.194,1005.168l-23.777-23.777v-22.615c0-3.611-2.938-6.551-6.55-6.551c-3.611,0-6.549,2.939-6.549,6.551v41.166
			c0,0.419,0.141,0.824,0.396,1.152l16.445,21.012v14.326c0,1.031,0.838,1.87,1.87,1.87h16.842c1.032,0,1.871-0.839,1.871-1.87
			v-29.94C136.742,1005.995,136.545,1005.518,136.194,1005.168L136.194,1005.168z M132.999,1034.559H119.9v-13.1
			c0-0.418-0.138-0.82-0.396-1.15l-16.444-21.012v-40.521c0-1.549,1.259-2.809,2.806-2.809s2.808,1.26,2.808,2.809v23.391
			c0,0.496,0.196,0.972,0.548,1.321l2.713,2.715c-2.964,0.876-5.132,3.624-5.132,6.869c0,1.915,0.744,3.714,2.098,5.066
			l11.547,11.549l2.646-2.649l-11.546-11.545c-0.647-0.648-1.004-1.506-1.004-2.421c0-1.886,1.536-3.421,3.423-3.421
			c0.911,0,1.767,0.353,2.414,0.995l16.618,16.618V1034.559z M132.999,1034.559"/>
		<path d="M205.042,952.225c-3.613,0-6.551,2.939-6.551,6.551v22.615l-23.777,23.777c-0.351,0.35-0.548,0.827-0.548,1.323v29.94
			c0,1.031,0.838,1.87,1.871,1.87h16.841c1.032,0,1.871-0.839,1.871-1.87v-14.326l16.444-21.012
			c0.256-0.328,0.396-0.733,0.396-1.152v-41.166C211.59,955.164,208.653,952.225,205.042,952.225L205.042,952.225z M207.848,999.297
			l-16.444,21.012c-0.257,0.33-0.396,0.732-0.396,1.15v13.1h-13.099v-27.295l16.62-16.618c0.645-0.643,1.502-0.995,2.412-0.995
			c1.888,0,3.423,1.535,3.423,3.421c0,0.915-0.356,1.772-1.003,2.421l-11.547,11.545l2.646,2.649l11.547-11.549
			c1.354-1.354,2.099-3.151,2.099-5.066c0-3.245-2.169-5.993-5.133-6.869l2.713-2.715c0.353-0.35,0.548-0.825,0.548-1.321v-23.391
			c0-1.549,1.26-2.809,2.808-2.809c1.547,0,2.806,1.26,2.806,2.809V999.297z M207.848,999.297"/>
		<rect x="172.295" y="926.029" width="3.742" height="3.742"/>
		<rect x="179.779" y="926.029" width="3.743" height="3.742"/>
		<rect x="187.265" y="926.029" width="3.743" height="3.742"/>
		<rect x="119.9" y="926.029" width="3.743" height="3.742"/>
		<rect x="127.386" y="926.029" width="3.743" height="3.742"/>
		<rect x="134.872" y="926.029" width="3.741" height="3.742"/>
		<path d="M157.324,939.174v-9.402h11.228v-3.742h-26.197v3.742h11.229v9.402c-12.73,0.504-22.455,6.047-22.455,13.051v33.682
			c0,7.346,10.685,13.1,24.326,13.1c13.641,0,24.325-5.754,24.325-13.1v-33.682C179.779,945.221,170.054,939.678,157.324,939.174
			L157.324,939.174z M176.037,985.906c0,4.429-8.454,9.356-20.583,9.356c-12.129,0-20.583-4.928-20.583-9.356v-4.174
			c4.269,3.657,11.804,6.045,20.583,6.045c8.778,0,16.313-2.388,20.583-6.045V985.906z M176.037,974.68
			c0,4.426-8.454,9.356-20.583,9.356c-12.129,0-20.583-4.931-20.583-9.356v-4.174c4.269,3.656,11.804,6.045,20.583,6.045
			c8.778,0,16.313-2.389,20.583-6.045V974.68z M176.037,963.453c0,4.426-8.454,9.357-20.583,9.357
			c-12.129,0-20.583-4.932-20.583-9.357v-4.176c4.269,3.658,11.804,6.045,20.583,6.045c8.778,0,16.313-2.387,20.583-6.045V963.453z
			 M155.454,961.581c-12.129,0-20.583-4.931-20.583-9.356c0-4.193,7.594-8.831,18.712-9.307v7.437h-3.743v3.741h11.227v-3.741
			h-3.743v-7.437c11.118,0.476,18.713,5.113,18.713,9.307C176.037,956.65,167.583,961.581,155.454,961.581L155.454,961.581z
			 M155.454,961.581"/>
		<rect x="153.583" y="1002.747" width="3.742" height="3.744"/>
		<rect x="153.583" y="1010.232" width="3.742" height="3.744"/>
		<rect x="161.067" y="1010.232" width="3.743" height="3.744"/>
		<rect x="146.098" y="1010.232" width="3.743" height="3.744"/>
		<rect x="153.583" y="1017.718" width="3.742" height="3.743"/>
		<rect x="153.583" y="1025.203" width="3.742" height="3.744"/>
		<rect x="153.583" y="1032.688" width="3.742" height="3.744"/>
	</g>
	<g>
		<path d="M326.178,914.9l-4.396-1.764l0.957-1.063c15.098-16.794,23.412-38.495,23.412-61.108c0-18.444-5.479-36.237-15.844-51.456
			l-0.064-0.111c-0.082-0.159-0.184-0.306-0.303-0.434l-0.09-0.111c-4.529-6.531-9.893-12.449-15.936-17.59
			c-0.779-0.662-2.047-0.557-2.707,0.219c-0.686,0.807-0.588,2.021,0.219,2.709c4.959,4.217,9.459,8.998,13.369,14.211l0.789,1.053
			l-1.225,0.479c-6.189,2.419-13.611,4.48-22.057,6.128l-0.859,0.168l-0.279-0.831c-2.287-6.808-5.086-13.104-8.318-18.714
			c-4.363-7.564-9.383-13.703-14.924-18.246l0.908-1.734c8.832,2.525,17.189,6.426,24.842,11.596
			c0.854,0.574,2.096,0.328,2.666-0.516c0.592-0.879,0.361-2.074-0.516-2.668c-15.129-10.22-32.814-15.622-51.143-15.622
			c-24.433,0-47.403,9.515-64.68,26.79c-17.276,17.277-26.791,40.248-26.791,64.681c0,22.633,8.327,44.349,23.447,61.146
			l0.966,1.074l-4.345,1.701c-1.032,0.373-9.865,3.887-9.865,15.162v10.462c0,1.062,0.861,1.926,1.92,1.926h42.982
			c0.093,0,0.184-0.012,0.271-0.024l0.14-0.02l0.14,0.02c0.09,0.013,0.182,0.024,0.276,0.024h11.882
			c1.059,0,1.919-0.862,1.919-1.922c0-1.059-0.861-1.92-1.919-1.92h-9.962v-11.17c0-11.443,9.052-14.744,9.437-14.879l0.101-0.038
			l14.841-5.809l0.537,0.557l7.555,7.361c0.359,0.35,0.836,0.542,1.338,0.542c0.539-0.007,1.031-0.222,1.383-0.587l7.725-8.015
			l14.928,5.981c0.385,0.137,9.451,3.484,9.451,14.886v11.17H240.15c-1.058,0-1.919,0.861-1.919,1.92
			c0,1.06,0.861,1.922,1.919,1.922h93.939c1.057,0,1.918-0.871,1.918-1.942v-10.445C336.01,918.799,327.184,915.267,326.178,914.9z
			 M342.256,853.917c-0.709,21.341-9.178,41.649-23.844,57.187l-0.467,0.494l-4.139-1.656v-2.912l0.494-0.289
			c3.014-1.77,5.268-4.563,6.344-7.865l0.205-0.635l0.666-0.053c3.746-0.297,6.682-3.473,6.682-7.229
			c0-2.184-0.975-4.233-2.676-5.623l-0.367-0.3v-5.663c0-9.38-7.012-17.344-16.311-18.523l-0.924-0.117l0.051-0.93
			c0.113-2.037,0.188-4.033,0.223-5.937l0.02-0.981h34.076L342.256,853.917z M307.143,904.843h-2.664
			c-5.711,0-10.357-4.646-10.357-10.356v-8.623l0.893-0.098c3.52-0.382,10.172-1.65,15.199-5.851l0.91-0.759l0.596,1.023
			c1.365,2.343,3.117,4.027,5.207,5.008l0.574,0.271v9.028C317.5,900.197,312.854,904.843,307.143,904.843z M309.969,908.44v3.152
			l-4.232,4.39l-4.08-3.973v-3.569l1.121,0.137c0.582,0.071,1.141,0.106,1.703,0.106h2.664c0.553,0,1.127-0.036,1.703-0.106
			L309.969,908.44z M291.67,882.186l-1.32,0.447l-0.107-1.357v-1.903c0-8.183,6.656-14.839,14.838-14.839h1.396
			c8.182,0,14.838,6.656,14.838,14.839v3.251l-1.508-0.475c-4.561-1.037-6.059-6.877-6.121-7.125
			c-0.172-0.754-0.756-1.326-1.492-1.477c-0.742-0.15-1.506,0.152-1.939,0.755c-5.584,7.719-17.918,7.808-18.043,7.808
			c-0.078,0-0.146,0.005-0.213,0.012l-0.174,0.025l-0.326-0.871L291.67,882.186z M290.283,887.094v7.73l-1.543-0.994
			c-0.982-0.633-1.57-1.707-1.57-2.872c0-1.166,0.588-2.239,1.572-2.873L290.283,887.094z M321.34,894.871v-7.826l1.582,1.133
			c0.898,0.644,1.436,1.683,1.436,2.78c0,1.099-0.537,2.138-1.436,2.781L321.34,894.871z M303.646,809.696
			c9.031-1.793,16.902-4.049,23.396-6.706l0.768-0.313l0.449,0.695c8.623,13.319,13.461,28.756,13.994,44.639l0.035,1.033h-34.08
			l-0.018-0.981c-0.236-13.036-2.023-25.522-5.311-37.112l-0.297-1.042L303.646,809.696z M256.598,763.384l1.107,0.118
			c11.918,1.273,23.217,10.188,31.813,25.101c2.988,5.184,5.59,10.967,7.734,17.191l0.385,1.121l-1.17,0.191
			c-11.908,1.95-25.346,3.053-38.857,3.189l-1.012,0.01V763.384z M256.598,814.146l0.99-0.01c14.01-0.14,27.953-1.313,40.324-3.393
			l0.879-0.147l0.248,0.856c3.281,11.366,5.068,23.671,5.311,36.573l0.02,1.018h-31.35l-0.307-0.328
			c-3.949-4.366-9.346-7.02-15.191-7.473l-0.924-0.07V814.146z M255.746,845.009c10.5,0,19.041,8.541,19.041,19.04v5.607
			l-2.18-1.577l-0.293-0.091c-6.027-1.368-7.945-8.958-8.023-9.281c-0.17-0.751-0.754-1.322-1.49-1.472
			c-0.744-0.156-1.508,0.152-1.941,0.754c-7.125,9.851-22.797,9.964-22.955,9.964c-0.074,0-0.137,0.004-0.199,0.01l-0.231-0.975l0,0
			l0.123,0.992l-0.12,0.021l-0.415-0.925l0,0l0.276,0.96l-0.667,0.357L235,869.912l-0.038-2.223v-3.641
			c0-10.499,8.541-19.04,19.039-19.04H255.746z M275.127,873.963c2.039,0.578,3.463,2.459,3.463,4.574
			c0,2.117-1.424,3.998-3.465,4.574l-1.271,0.359v-9.867L275.127,873.963z M235.974,873.617v9.839l-1.239-0.306
			c-2.129-0.525-3.616-2.422-3.616-4.613c0-2.188,1.486-4.086,3.615-4.613L235.974,873.617z M204.989,849.044l0.019-1.018
			c0.242-12.904,2.03-25.211,5.315-36.578l0.247-0.855l0.879,0.146c12.389,2.081,26.331,3.256,40.32,3.397l0.99,0.011v27.039
			l-0.906,0.086c-5.703,0.533-10.97,3.184-14.833,7.461l-0.339,0.375l-0.503-0.05c-0.074-0.007-0.149-0.015-0.225-0.015H204.989z
			 M252.76,763.384v46.922l-1.01-0.01c-13.49-0.139-26.925-1.244-38.854-3.197l-1.17-0.191l0.386-1.121
			c2.14-6.215,4.74-11.996,7.73-17.184c8.596-14.913,19.893-23.827,31.81-25.101L252.76,763.384z M184.601,798.409
			c11.433-15.206,27.732-26.457,45.896-31.678l0.911,1.734c-5.531,4.54-10.542,10.67-14.893,18.219
			c-3.237,5.613-6.035,11.906-8.317,18.707l-0.279,0.83l-0.86-0.168c-8.437-1.646-15.846-3.701-22.021-6.111l-1.228-0.479
			L184.601,798.409z M167.104,848.011c0.53-15.88,5.378-31.311,14.021-44.625l0.451-0.695l0.766,0.313
			c6.451,2.638,14.313,4.888,23.371,6.687l1.063,0.211l-0.296,1.043c-3.291,11.598-5.079,24.086-5.313,37.118l-0.018,0.981H167.07
			L167.104,848.011z M205.269,904.843h-2.665c-5.71,0-10.356-4.646-10.356-10.356v-8.621l0.893-0.096
			c3.513-0.38,10.159-1.646,15.199-5.854l0.909-0.759l0.596,1.023c1.365,2.343,3.117,4.027,5.206,5.008l0.575,0.271v9.028
			C215.625,900.197,210.979,904.843,205.269,904.843z M208.091,908.439v3.153l-4.23,4.391l-4.081-3.974v-3.569l1.121,0.137
			c0.576,0.07,1.149,0.106,1.703,0.106h2.665c0.555,0,1.126-0.036,1.7-0.106L208.091,908.439z M211.804,874.992
			c-0.164-0.724-0.747-1.295-1.483-1.445c-0.742-0.149-1.508,0.152-1.94,0.752c-5.587,7.722-17.919,7.811-18.043,7.811
			c-0.08,0-0.147,0.005-0.216,0.012l-0.331,0.066l-1.334,0.474l-0.087-1.386v-1.903c0-8.183,6.657-14.839,14.839-14.839h1.397
			c8.182,0,14.838,6.656,14.838,14.839v3.286l-1.515-0.512C213.235,881.08,211.817,875.053,211.804,874.992z M188.406,887.094v7.729
			l-1.542-0.992c-0.984-0.633-1.572-1.707-1.572-2.872c0-1.166,0.588-2.24,1.572-2.874L188.406,887.094z M167.104,853.917
			l-0.034-1.033h34.078l0.018,0.982c0.035,1.933,0.11,3.943,0.224,5.975l0.051,0.916l-0.907,0.13
			c-9.125,1.313-16.007,9.26-16.007,18.485v5.645l-0.371,0.3c-1.718,1.391-2.703,3.446-2.703,5.642c0,3.799,2.973,6.976,6.768,7.231
			l0.674,0.045l0.209,0.643c1.078,3.303,3.33,6.095,6.343,7.863l0.494,0.289v2.899l-4.455,1.741l-0.463-0.488
			C176.307,895.631,167.812,875.294,167.104,853.917z M219.265,918.174c-1.356,2.773-2.043,5.886-2.043,9.251v11.17h-39.967v-8.546
			c0-8.842,6.978-11.426,7.274-11.531l0.131-0.045l11.589-4.541l6.316,6.15c0.36,0.35,0.836,0.543,1.339,0.543
			c0.538-0.008,1.031-0.222,1.383-0.586l5.994-6.222l8.457,3.39L219.265,918.174z M245.396,902.592l-16.133,6.316
			c-2.296,0.791-4.811,2.499-6.765,4.582l-0.468,0.498l-10.099-4.047v-2.912l0.494-0.289c3.013-1.768,5.266-4.562,6.344-7.865
			l0.207-0.635l0.665-0.053c3.748-0.297,6.684-3.473,6.684-7.229c0-2.183-0.976-4.232-2.677-5.623l-0.367-0.3v-5.663
			c0-9.643-7.524-17.816-17.129-18.609l-0.867-0.071l-0.05-0.868c-0.115-2.01-0.191-4.002-0.228-5.92l-0.019-1.02h28.989
			l-0.674,1.428c-1.448,3.063-2.182,6.339-2.182,9.737v7.312l-0.399,0.3c-2.189,1.645-3.445,4.15-3.445,6.877
			c0,4.666,3.796,8.521,8.463,8.593l0.734,0.011l0.209,0.705c1.273,4.301,4.261,8.021,8.197,10.21l0.514,0.286V902.592z
			 M219.465,894.867v-7.814l1.58,1.122c0.901,0.64,1.438,1.681,1.438,2.783c0,1.101-0.537,2.14-1.438,2.782L219.465,894.867z
			 M260.592,904.539l-5.76,5.979l-5.597-5.45v-5.276l1.165,0.194c0.951,0.159,1.908,0.239,2.85,0.239h3.328
			c0.939,0,1.898-0.08,2.85-0.239l1.164-0.194V904.539z M256.578,896.385h-3.328c-7.408,0-13.435-6.027-13.435-13.435v-11.221
			l0.908-0.083c4.7-0.434,13.552-2.027,20.03-7.842l0.953-0.855l0.598,1.133c1.229,2.324,3.457,5.42,7.102,6.977l0.607,0.26v11.632
			C270.014,890.357,263.986,896.385,256.578,896.385z M287.404,914.005l-0.463-0.495c-1.955-2.088-4.473-3.801-6.734-4.582
			l-15.775-6.327v-4.259l0.514-0.286c3.936-2.187,6.924-5.909,8.197-10.212l0.207-0.695l0.725-0.021
			c4.607-0.128,8.355-3.981,8.355-8.591c0-2.706-1.242-5.203-3.408-6.85l-0.396-0.3v-7.339c0-3.396-0.732-6.673-2.182-9.737
			l-0.674-1.428h28.602l-0.021,1.02c-0.039,1.953-0.115,3.953-0.229,5.943l-0.049,0.854l-0.852,0.085
			c-9.588,0.951-16.82,8.941-16.82,18.586v5.645l-0.371,0.3c-1.717,1.39-2.701,3.445-2.701,5.642c0,3.8,2.973,6.978,6.768,7.233
			l0.674,0.046l0.209,0.642c1.078,3.303,3.332,6.094,6.344,7.86l0.494,0.29v2.899L287.404,914.005z M332.17,938.595h-39.971v-11.17
			c0-3.354-0.682-6.456-2.027-9.218l-0.475-0.975l8.428-3.3l6.314,6.149c0.359,0.35,0.836,0.543,1.34,0.543
			c0.537-0.008,1.031-0.222,1.383-0.586l5.992-6.222l11.73,4.7c0.277,0.097,7.285,2.657,7.285,11.531V938.595z"/>
	</g>
	<path d="M419.352,777.874v-3.363c-3.459-0.245-6.23-3.016-6.475-6.475h-3.363c-0.246,3.459-3.016,6.229-6.473,6.475v3.363
		c3.457,0.246,6.227,3.016,6.473,6.473h3.363C413.121,780.89,415.893,778.12,419.352,777.874z M413.725,776.592
		c-0.811,0.605-1.527,1.321-2.129,2.128l-0.402,0.539l-0.4-0.539c-0.598-0.804-1.313-1.52-2.127-2.129l-0.537-0.401l0.539-0.399
		c0.811-0.603,1.525-1.318,2.125-2.127l0.4-0.541l0.402,0.54c0.604,0.813,1.32,1.528,2.129,2.127l0.539,0.4L413.725,776.592z"/>
	<path d="M312.338,688.077v-3.104c-3.242-0.244-5.84-2.842-6.084-6.086h-3.105c-0.244,3.244-2.842,5.842-6.084,6.086v3.104
		c3.242,0.244,5.84,2.842,6.084,6.084h3.105C306.498,690.919,309.096,688.321,312.338,688.077z M307.098,686.925
		c-0.76,0.564-1.43,1.234-1.996,1.994l-0.4,0.539l-0.4-0.539c-0.564-0.758-1.236-1.429-1.996-1.994l-0.539-0.401l0.539-0.401
		c0.76-0.563,1.432-1.233,1.994-1.992l0.402-0.541l0.4,0.541c0.566,0.76,1.236,1.431,1.994,1.992l0.543,0.401L307.098,686.925z"/>
	<path d="M95.417,894.354v-4.497c-5.049-0.474-9.08-4.505-9.555-9.553h-4.495c-0.475,5.048-4.504,9.079-9.553,9.553v4.497
		c5.049,0.475,9.079,4.505,9.553,9.554h4.495C86.336,898.858,90.367,894.828,95.417,894.354z M87.509,892.908
		c-1.17,0.869-2.211,1.91-3.093,3.094l-0.803,1.078l-0.802-1.078c-0.879-1.184-1.919-2.225-3.089-3.094l-1.08-0.802l1.079-0.804
		c1.174-0.873,2.214-1.914,3.09-3.094l0.802-1.078l0.803,1.078c0.878,1.18,1.919,2.221,3.094,3.094l1.081,0.804L87.509,892.908z"/>
	<path d="M427.715,960.855l-24.605-34.502c-0.758-1.064-2.227-1.305-3.285-0.551c-15.051,10.734-20.652,20.541-20.889,20.951
		c-0.33,0.59-0.391,1.288-0.174,1.921c0.197,0.561,0.6,1.012,1.115,1.294c-3.68,0.969-8.867,2.256-14.205,3.329
		c-9.121,1.843-12.908,5.968-15.07,13.39l-15.336,10.938c-0.355-0.667-0.707-1.303-1.053-1.891
		c-0.367-0.619-0.992-1.042-1.701-1.135c-5.506-0.771-19.361,7.59-23.479,10.171c-0.563,0.364-0.938,0.899-1.061,1.538
		c-0.125,0.635,0.018,1.297,0.393,1.824l24.607,34.506c0.754,1.057,2.227,1.305,3.285,0.55l11.5-8.203
		c0.828-0.589,1.184-1.649,0.875-2.622c-0.045-0.146-0.236-0.755-0.547-1.72c0.758,0.139,1.598,0.301,2.471,0.466
		c2.982,0.565,6.068,1.154,7.967,1.303c11.4,0.887,24.582,1.221,27.092,1.122c2.074-0.077,6.043-0.939,8.398-2.618
		c1.889-1.35,3.033-2.821,3.438-4.385c1.723-0.437,3.258-1.527,4.326-3.154c1.262-1.918,1.727-4.301,1.361-6.53
		c1.742-0.756,3.309-2.214,4.318-4.124c0.986-1.871,1.25-3.848,0.816-5.625c1.584-1.011,2.771-2.672,3.273-4.713
		c0.684-2.748-0.121-5.436-2.068-7.293l1.582-4.207c0.703,0.537,1.297,0.998,1.752,1.367c0.822,0.668,1.988,0.705,2.852,0.089
		l11.5-8.2C428.223,963.386,428.469,961.913,427.715,960.855z M335.439,1017.986l-21.773-30.531c6.508-3.906,13.91-7.59,17.162-8.14
		c4.969,9.119,11.01,27.315,12.795,32.835L335.439,1017.986z M406.975,981.244c-0.285,1.158-1.133,2.08-1.959,2.137
		c-2.299-0.14-12.754-2.018-19.299-3.252c-1.279-0.245-2.512,0.595-2.75,1.877c-0.246,1.277,0.598,2.508,1.877,2.752
		c1.549,0.291,14.043,2.649,18.783,3.221c0.371,0.988-0.082,2.062-0.336,2.537c-0.783,1.496-2.139,2.302-2.936,2.199
		c-0.031-0.004-0.063-0.002-0.094-0.006c-0.027-0.004-0.053-0.012-0.082-0.013c-3.607-0.2-13.75-2.216-16.063-2.703
		c-1.279-0.269-2.52,0.546-2.791,1.817c-0.27,1.271,0.545,2.523,1.816,2.791c0.109,0.021,10.061,2.082,15.279,2.663
		c0.287,1.168,0.09,2.495-0.58,3.515c-0.428,0.641-1.182,1.382-2.443,1.229c-0.014,0-0.027,0-0.041,0
		c-0.02-0.004-0.035-0.01-0.053-0.01c-4.377-0.357-14.215-2.32-16.145-2.711c-1.275-0.258-2.521,0.568-2.775,1.84
		c-0.258,1.275,0.568,2.516,1.842,2.777c2.287,0.461,9.08,1.805,13.93,2.469c-0.223,0.209-0.506,0.443-0.877,0.707
		c-1.279,0.912-4.188,1.688-5.842,1.742c-1.979,0.076-14.904-0.201-26.547-1.108c-1.637-0.134-4.729-0.718-7.455-1.236
		c-2-0.378-3.84-0.72-5.016-0.878c-2.168-6.432-5.629-16.18-9.059-23.685l11.758-8.384c-0.742,4.5-0.506,12.291,3.172,15.512
		c1.578,1.375,3.617,1.772,5.758,1.105c5.367-1.662,8.352-5.862,8.51-11.885c1.086-1.057,1.551-1.807,2.229-2.966
		c0.244-0.417,0.535-0.905,0.932-1.532c3.66,0.496,8.328,0.781,13.242,1.078c8.887,0.539,18.963,1.148,22.531,3.113
		C407.254,978.926,407.178,980.434,406.975,981.244z M405.301,972.817c-5.162-1.646-13.732-2.168-22.055-2.673
		c-5.486-0.334-10.672-0.646-14.264-1.249c-0.904-0.153-1.811,0.239-2.326,0.981c-0.959,1.389-1.498,2.32-1.928,3.047
		c-0.652,1.113-0.871,1.488-2.07,2.541c-0.529,0.464-0.824,1.137-0.803,1.84c0.178,5.985-2.875,7.64-5.197,8.348
		c-0.74,0.228-1.031,0.049-1.262-0.154c-1.604-1.397-2.377-6.757-1.627-11.242c1.783-10.677,3.885-14.528,12.832-16.333
		c8.475-1.708,16.584-3.944,19.09-4.656c6.15,3.866,15.256,10.2,21.434,14.699L405.301,972.817z M414.363,967.487
		c-6.039-4.626-22.412-16.233-29.957-20.476c2.219-3.08,7.285-9.266,16.252-15.986l21.857,30.648L414.363,967.487z"/>
</g>
</svg>
