<?xml version="1.0" encoding="utf-8"?>
<!-- Generator: Adobe Illustrator 16.0.0, SVG Export Plug-In . SVG Version: 6.00 Build 0)  -->
<!DOCTYPE svg PUBLIC "-//W3C//DTD SVG 1.1//EN" "http://www.w3.org/Graphics/SVG/1.1/DTD/svg11.dtd">
<svg version="1.1" id="Layer_1" xmlns="http://www.w3.org/2000/svg" xmlns:xlink="http://www.w3.org/1999/xlink" x="0px" y="0px"
	 width="141.73px" height="141.777px" viewBox="0 0 141.73 141.777" enable-background="new 0 0 141.73 141.777"
	 xml:space="preserve">
<g>
	<g>
		<rect x="33.047" y="88.195" fill="#FFC10D" width="75.592" height="23.15"/>
		<rect x="33.047" y="57.179" fill="#FFC10D" width="75.592" height="23.151"/>
	</g>
	<g>
		<path fill="#194F82" d="M43.268,72.699h11.763c2.17,0,3.944-1.75,3.944-3.945c0-2.193-1.75-3.943-3.944-3.943H43.268
			c-2.17,0-3.943,1.75-3.943,3.943S41.122,72.699,43.268,72.699z"/>
		<path fill="#194F82" d="M55.054,95.826H43.291c-2.17,0-3.942,1.75-3.942,3.943c0,2.172,1.75,3.943,3.942,3.943h11.764
			c2.17,0,3.943-1.75,3.943-3.943C58.999,97.576,57.201,95.826,55.054,95.826z"/>
	</g>
	<path fill="#FFFFFF" d="M15.73,68.474c0-5.484,2.987-10.596,7.819-13.303l1.609-0.909v-1.027c0-2.17,1.75-3.944,3.944-3.944h1.983
		l-1.866-7.328c-0.468-1.819-0.7-3.523-0.7-5.228c0-11.576,9.405-20.981,20.979-20.981c7.469,0,14.236,3.874,18.087,10.387l0,0
		c3.479,5.904,11.203,7.607,16.851,3.733l0,0c2.543-1.75,5.531-2.684,8.611-2.684c8.332,0,15.125,6.698,15.264,15.006
		c0,0.233-0.023,0.42-0.023,0.629l-0.139,6.441h4.457c2.17,0,3.943,1.75,3.943,3.943v1.19c5.672,2.334,9.428,7.888,9.428,14.026
		c0,6.302-3.873,11.763-9.428,14.095v8.285c9.988-2.59,17.293-11.715,17.293-22.38c0-9.615-6.092-18.32-15.123-21.682
		c-1.586-0.583-2.848-2.287-2.543-4.248c0-12.836-10.387-23.221-23.129-23.221c-4.691,0-9.125,1.563-13.094,4.084
		c-2.963,1.867-5.088-0.303-5.6-1.261C69.173,13.301,59.652,7.84,49.5,7.84c-15.893,0-28.845,12.952-28.845,28.846
		c0,2.311,0.303,4.714,0.91,7.141c0.443,1.728-0.327,3.547-1.89,4.411c-7.329,4.154-11.833,11.879-11.833,20.21
		c0,10.666,7.327,19.769,17.293,22.382v-8.285C19.627,80.26,15.73,74.775,15.73,68.474z"/>
	<g>
		<path fill="#56ACE0" d="M15.73,68.474c0,6.301,3.874,11.762,9.429,14.096V54.261L23.55,55.17
			C18.741,57.878,15.73,62.966,15.73,68.474z"/>
		<path fill="#56ACE0" d="M125.979,68.474c0-6.139-3.758-11.692-9.428-14.026V82.57C122.082,80.26,125.979,74.775,125.979,68.474z"
			/>
		<path fill="#56ACE0" d="M108.313,42.196c-0.143-8.285-6.908-15.006-15.264-15.006c-3.105,0-6.094,0.91-8.613,2.684l0,0
			c-5.646,3.874-13.372,2.147-16.85-3.732l0,0c-3.851-6.56-10.688-10.456-18.273-10.387C37.877,15.871,28.542,25.3,28.542,36.736
			c0,1.68,0.233,3.36,0.7,5.204l1.867,7.328h77.04l0.139-6.441C108.287,42.615,108.287,42.429,108.313,42.196z"/>
	</g>
	<path fill="#194F82" d="M130.809,133.867h-56.01v-14.656h37.807c2.17,0,3.945-1.75,3.945-3.943V98.885
		c14.375-2.754,25.18-15.449,25.18-30.434c0-11.973-7.025-22.895-17.713-27.98c-1.025-16.174-14.518-29.033-30.945-29.033
		c-4.947,0-9.756,1.167-14.119,3.407C72.069,5.602,61.122,0,49.523,0C29.266,0,12.789,16.478,12.789,36.711
		c0,2.054,0.188,4.154,0.562,6.255C5.041,48.753,0,58.276,0,68.474c0,14.983,10.807,27.68,25.183,30.434v16.383
		c0,2.17,1.75,3.943,3.943,3.943h37.808v14.656H10.922c-2.17,0-3.943,1.75-3.943,3.943s1.75,3.943,3.943,3.943h119.911
		c2.17,0,3.943-1.75,3.943-3.943C134.752,135.617,132.979,133.867,130.809,133.867z M7.865,68.474
		c0-8.332,4.551-16.08,11.832-20.164c1.564-0.864,2.312-2.685,1.891-4.411c-0.606-2.427-0.909-4.832-0.909-7.142
		c0-15.894,12.953-28.846,28.845-28.846c10.152,0,19.674,5.461,24.854,14.26c0.561,0.957,2.686,3.127,5.602,1.261
		c3.969-2.521,8.402-4.084,13.094-4.084c12.742,0,23.127,10.385,23.127,23.197c-0.303,1.96,0.98,3.664,2.545,4.248
		c9.031,3.337,15.121,12.042,15.121,21.682c0,10.666-7.326,19.767-17.291,22.38V82.57V54.425v-1.19c0-2.17-1.752-3.944-3.943-3.944
		h-4.457H31.11h-1.984c-2.17,0-3.943,1.75-3.943,3.944v1.027V82.57v8.285C15.193,88.265,7.865,79.14,7.865,68.474z M33.047,80.306
		V57.155h75.616v23.152H33.047L33.047,80.306z M33.047,88.195h75.616v23.15H33.047V88.195z"/>
</g>
</svg>
