<?xml version="1.0" encoding="utf-8"?>
<!-- Generator: Adobe Illustrator 16.0.0, SVG Export Plug-In . SVG Version: 6.00 Build 0)  -->
<!DOCTYPE svg PUBLIC "-//W3C//DTD SVG 1.1//EN" "http://www.w3.org/Graphics/SVG/1.1/DTD/svg11.dtd">
<svg version="1.1" id="Layer_1" xmlns="http://www.w3.org/2000/svg" xmlns:xlink="http://www.w3.org/1999/xlink" x="0px" y="0px"
	 width="141.732px" height="141.733px" viewBox="226.774 350.079 141.732 141.733"
	 enable-background="new 226.774 350.079 141.732 141.733" xml:space="preserve">
<g>
	<path fill="#194F82" d="M356.695,372.395h-8.706v-10.504c0-6.513-5.299-11.812-11.811-11.812h-97.593
		c-6.512,0-11.811,5.299-11.811,11.812v28.874c0,3.011,1.144,5.766,3.034,7.866c-1.891,2.101-3.034,4.855-3.034,7.89v28.874
		c0,3.011,1.144,5.766,3.034,7.866c-1.891,2.101-3.034,4.832-3.034,7.866v28.874c0,6.513,5.299,11.812,11.811,11.812h97.593
		c6.512,0,11.811-5.299,11.811-11.812v-10.504h8.706c6.513,0,11.812-5.299,11.812-11.811v-73.481
		C368.506,377.693,363.208,372.395,356.695,372.395z M340.122,480.001c0,2.171-1.75,3.944-3.944,3.944h-97.593
		c-2.171,0-3.945-1.75-3.945-3.944v-28.874c0-2.171,1.75-3.945,3.945-3.945h97.593c2.17,0,3.944,1.751,3.944,3.945V480.001
		L340.122,480.001z M234.64,361.891c0-2.171,1.75-3.945,3.945-3.945h97.593c2.17,0,3.944,1.75,3.944,3.945v28.874
		c0,2.17-1.75,3.944-3.944,3.944h-97.593c-2.171,0-3.945-1.75-3.945-3.944V361.891z M340.122,435.371
		c0,2.171-1.75,3.944-3.944,3.944h-97.593c-2.171,0-3.945-1.75-3.945-3.944v-28.851c0-2.171,1.75-3.945,3.945-3.945h97.593
		c2.17,0,3.944,1.75,3.944,3.945V435.371L340.122,435.371L340.122,435.371z M360.64,457.686c0,2.171-1.751,3.945-3.945,3.945h-8.706
		v-10.48c0-3.011-1.144-5.766-3.034-7.866c1.867-2.101,3.034-4.855,3.034-7.866v-10.505h12.628L360.64,457.686L360.64,457.686z
		 M360.64,417h-12.628v-10.48c0-3.011-1.145-5.766-3.034-7.867c1.867-2.101,3.034-4.855,3.034-7.866v-10.48h8.683
		c2.171,0,3.945,1.75,3.945,3.945V417L360.64,417z"/>
	<path fill="#FFC10D" d="M238.585,394.686h97.593c2.17,0,3.944-1.751,3.944-3.945v-28.851c0-2.171-1.75-3.945-3.944-3.945h-97.593
		c-2.171,0-3.945,1.75-3.945,3.945v28.874C234.64,392.935,236.414,394.686,238.585,394.686z"/>
	<path fill="#56ACE0" d="M336.178,402.552h-97.593c-2.171,0-3.945,1.75-3.945,3.945v28.874c0,2.171,1.75,3.944,3.945,3.944h97.593
		c2.17,0,3.944-1.75,3.944-3.944v-28.851C340.122,404.35,338.348,402.552,336.178,402.552z"/>
	<path fill="#FFC10D" d="M336.178,447.205h-97.593c-2.171,0-3.945,1.751-3.945,3.945v28.851c0,2.171,1.75,3.944,3.945,3.944h97.593
		c2.17,0,3.944-1.75,3.944-3.944v-28.874C340.122,448.956,338.348,447.205,336.178,447.205z"/>
	<g>
		<path fill="#194F82" d="M246.965,386.353c2.17,0,3.944-1.75,3.944-3.945v-12.161c0-2.171-1.75-3.945-3.944-3.945
			s-3.945,1.75-3.945,3.945v12.161C243.043,384.602,244.794,386.353,246.965,386.353z"/>
		<path fill="#194F82" d="M263.654,386.353c2.17,0,3.945-1.75,3.945-3.945v-12.161c0-2.171-1.751-3.945-3.945-3.945
			c-2.194,0-3.945,1.75-3.945,3.945v12.161C259.733,384.602,261.483,386.353,263.654,386.353z"/>
		<path fill="#194F82" d="M306.206,380.261h21.568c2.17,0,3.944-1.75,3.944-3.945s-1.75-3.945-3.944-3.945h-21.592
			c-2.171,0-3.944,1.75-3.944,3.945C302.262,378.51,304.035,380.261,306.206,380.261z"/>
		<path fill="#194F82" d="M246.965,410.932c-2.171,0-3.945,1.75-3.945,3.945v12.162c0,2.171,1.75,3.944,3.945,3.944
			s3.944-1.75,3.944-3.944v-12.162C250.909,412.683,249.159,410.932,246.965,410.932z"/>
		<path fill="#194F82" d="M263.654,410.932c-2.171,0-3.945,1.75-3.945,3.945v12.162c0,2.171,1.75,3.944,3.945,3.944
			c2.17,0,3.945-1.75,3.945-3.944v-12.162C267.599,412.683,265.825,410.932,263.654,410.932z"/>
		<path fill="#194F82" d="M327.775,417h-21.592c-2.171,0-3.944,1.75-3.944,3.945c0,2.171,1.75,3.944,3.944,3.944h21.592
			c2.17,0,3.944-1.75,3.944-3.944C331.742,418.775,329.945,417,327.775,417z"/>
		<path fill="#194F82" d="M246.965,455.539c-2.171,0-3.945,1.75-3.945,3.944v12.161c0,2.171,1.75,3.945,3.945,3.945
			s3.944-1.751,3.944-3.945v-12.161C250.909,457.289,249.159,455.539,246.965,455.539z"/>
		<path fill="#194F82" d="M263.654,455.539c-2.171,0-3.945,1.75-3.945,3.944v12.161c0,2.171,1.75,3.945,3.945,3.945
			c2.17,0,3.945-1.751,3.945-3.945v-12.161C267.599,457.289,265.825,455.539,263.654,455.539z"/>
		<path fill="#194F82" d="M327.775,461.631h-21.592c-2.171,0-3.944,1.751-3.944,3.944c0,2.194,1.75,3.945,3.944,3.945h21.592
			c2.17,0,3.944-1.751,3.944-3.945C331.742,463.382,329.945,461.631,327.775,461.631z"/>
	</g>
</g>
</svg>
