<?xml version="1.0" encoding="utf-8"?>
<!-- Generator: Adobe Illustrator 16.0.0, SVG Export Plug-In . SVG Version: 6.00 Build 0)  -->
<!DOCTYPE svg PUBLIC "-//W3C//DTD SVG 1.1//EN" "http://www.w3.org/Graphics/SVG/1.1/DTD/svg11.dtd">
<svg version="1.1" id="Layer_1" xmlns="http://www.w3.org/2000/svg" xmlns:xlink="http://www.w3.org/1999/xlink" x="0px" y="0px"
	 width="141.73px" height="141.73px" viewBox="0 0 141.73 141.73" enable-background="new 0 0 141.73 141.73" xml:space="preserve">
<g>
</g>
<g>
	<path fill="#195083" d="M138.118,131.138H76.001v-16.253h41.93c2.406,0,4.375-1.941,4.375-4.375V92.341
		c0.008-0.002,0.017-0.004,0.025-0.006v-8.897v-9.188v-2.486V56.815v-8.898v-4.883v-1.32v-2.985v-2.485V7.515v-1.32
		c0-2.407-1.941-4.374-4.374-4.374h-4.943H27.549h-2.2c-2.407,0-4.374,1.94-4.374,4.374v1.139v28.91h0.08v4.674
		c-0.047,0.259-0.08,0.523-0.08,0.797v1.139v28.91h0.08v34.398h-0.08v4.375c0,2.407,1.941,4.374,4.374,4.374h41.929v16.253H5.16
		c-2.407,0-4.374,1.941-4.374,4.375c0,2.432,1.941,4.372,4.374,4.372h132.983c2.406,0,4.373-1.94,4.373-4.372
		C142.491,133.078,140.524,131.138,138.118,131.138z M113.557,71.737H29.697v-2.275v-23.4h83.859v11.951V71.737z M29.697,106.161
		V80.485h83.859v25.676H29.697z"/>
	<rect x="29.697" y="80.485" fill="#FDC116" width="83.833" height="25.676"/>
	<rect x="29.697" y="46.088" fill="#FDC116" width="83.833" height="25.675"/>
	<path fill="#195083" d="M41.033,63.3h13.045c2.407,0,4.374-1.941,4.374-4.374c0-2.434-1.941-4.374-4.374-4.374H41.033
		c-2.406,0-4.373,1.94-4.373,4.374C36.66,61.358,38.653,63.3,41.033,63.3z"/>
	<rect x="29.697" y="11.665" fill="#FDC116" width="83.833" height="25.676"/>
	<path fill="#195083" d="M41.033,28.878h13.045c2.407,0,4.374-1.941,4.374-4.375c0-2.433-1.941-4.374-4.374-4.374H41.033
		c-2.406,0-4.373,1.941-4.373,4.374S38.653,28.878,41.033,28.878z"/>
	<path fill="#195083" d="M54.104,88.95H41.059c-2.406,0-4.373,1.94-4.373,4.373c0,2.407,1.94,4.374,4.373,4.374h13.045
		c2.407,0,4.375-1.94,4.375-4.374C58.479,90.891,56.485,88.95,54.104,88.95z"/>
	<rect x="29.697" y="11.666" fill="#FDC116" width="83.833" height="25.675"/>
	<path fill="#195083" d="M41.033,28.878h13.045c2.407,0,4.374-1.941,4.374-4.374c0-2.434-1.941-4.374-4.374-4.374H41.033
		c-2.406,0-4.373,1.94-4.373,4.374C36.66,26.937,38.653,28.878,41.033,28.878z"/>
</g>
</svg>
