<?xml version="1.0" encoding="utf-8"?>
<!-- Generator: Adobe Illustrator 16.0.0, SVG Export Plug-In . SVG Version: 6.00 Build 0)  -->
<!DOCTYPE svg PUBLIC "-//W3C//DTD SVG 1.1//EN" "http://www.w3.org/Graphics/SVG/1.1/DTD/svg11.dtd">
<svg version="1.1" id="Layer_1" xmlns="http://www.w3.org/2000/svg" xmlns:xlink="http://www.w3.org/1999/xlink" x="0px" y="0px"
	 width="143.875px" height="141.732px" viewBox="0 0 143.875 141.732" enable-background="new 0 0 143.875 141.732"
	 xml:space="preserve">
<g>
	<g>
		<g>
			<path fill="#2C2F33" d="M132.692,55.612c2.605-2.539,3.525-6.268,2.402-9.728c-1.125-3.459-4.061-5.934-7.66-6.457l-31.48-4.574
				c-0.617-0.091-1.15-0.478-1.43-1.038L80.446,5.289C78.837,2.026,75.577,0,71.938,0c-3.639,0-6.897,2.026-8.508,5.289
				L49.352,33.815c-0.277,0.561-0.812,0.947-1.43,1.038l-31.48,4.573c-3.601,0.523-6.535,2.997-7.658,6.457
				c-1.125,3.46-0.205,7.188,2.4,9.728l22.779,22.204c0.447,0.437,0.65,1.063,0.546,1.681l-5.377,31.353
				c-0.614,3.586,0.831,7.143,3.774,9.28c2.943,2.14,6.771,2.415,9.992,0.723l28.158-14.804c0.553-0.29,1.213-0.29,1.766,0
				l28.158,14.804c1.398,0.736,2.914,1.102,4.422,1.102c1.959,0,3.906-0.614,5.568-1.823c2.943-2.14,4.391-5.695,3.773-9.28
				l-5.377-31.353c-0.105-0.616,0.1-1.244,0.545-1.682L132.692,55.612z M101.888,80.78l5.377,31.354
				c0.18,1.05-0.469,1.647-0.754,1.855c-0.287,0.208-1.057,0.641-2,0.146L76.354,99.331c-1.383-0.728-2.897-1.09-4.415-1.09
				c-1.518,0-3.033,0.362-4.416,1.09l-28.158,14.802c-0.941,0.496-1.711,0.064-1.998-0.144c-0.289-0.208-0.936-0.808-0.756-1.855
				l5.377-31.354c0.529-3.079-0.491-6.22-2.729-8.398L16.481,50.177c-0.762-0.743-0.59-1.607-0.479-1.945
				c0.108-0.337,0.478-1.139,1.532-1.292l31.479-4.574c3.091-0.449,5.763-2.389,7.146-5.19L70.237,8.649
				c0.473-0.955,1.348-1.059,1.703-1.059c0.354,0,1.23,0.104,1.702,1.059l0,0l14.08,28.526c1.381,2.802,4.051,4.741,7.143,5.19
				l31.48,4.574c1.053,0.152,1.422,0.954,1.531,1.292s0.283,1.203-0.48,1.945l-22.779,22.205
				C102.378,74.561,101.358,77.701,101.888,80.78z"/>
		</g>
	</g>
	<g>
		<g>
			<path fill="#3C92CA" d="M116.276,5.288c-1.697-1.232-4.07-0.856-5.303,0.839l-4.027,5.545c-1.232,1.696-0.855,4.069,0.838,5.301
				c0.676,0.489,1.455,0.726,2.229,0.726c1.174,0,2.332-0.542,3.074-1.565l4.029-5.544C118.347,8.894,117.972,6.52,116.276,5.288z"
				/>
		</g>
	</g>
	<g>
		<g>
			<path fill="#3C92CA" d="M36.914,11.651l-4.029-5.545c-1.231-1.695-3.604-2.071-5.301-0.841c-1.696,1.232-2.071,3.606-0.841,5.303
				l4.029,5.544c0.744,1.021,1.9,1.563,3.074,1.563c0.773,0,1.555-0.234,2.229-0.725C37.77,15.719,38.145,13.345,36.914,11.651z"/>
		</g>
	</g>
	<g>
		<g>
			<path fill="#3C92CA" d="M13.924,85.15c-0.646-1.992-2.789-3.084-4.781-2.437l-6.52,2.118c-1.994,0.647-3.084,2.789-2.438,4.782
				c0.521,1.604,2.01,2.624,3.609,2.624c0.389,0,0.784-0.062,1.173-0.188l6.519-2.117C13.481,89.285,14.573,87.144,13.924,85.15z"/>
		</g>
	</g>
	<g>
		<g>
			<path fill="#3C92CA" d="M71.94,127.289c-2.097,0-3.795,1.699-3.795,3.795v6.854c0,2.097,1.698,3.795,3.795,3.795
				c2.096,0,3.795-1.698,3.795-3.795v-6.854C75.735,128.988,74.036,127.289,71.94,127.289z"/>
		</g>
	</g>
	<g>
		<g>
			<path fill="#3C92CA" d="M141.251,84.837l-6.518-2.117c-1.992-0.646-4.135,0.442-4.783,2.438
				c-0.646,1.993,0.443,4.135,2.438,4.781l6.52,2.118c0.389,0.126,0.785,0.188,1.172,0.188c1.602,0,3.088-1.021,3.609-2.624
				C144.337,87.626,143.245,85.484,141.251,84.837z"/>
		</g>
	</g>
</g>
</svg>
